
<!-- Generated by graphviz version 2.40.1 (20161225.0304)
 -->
<!-- Title: Argument Map Pages: 1 -->
<svg width="720pt" height="86pt"
 viewBox="0.00 0.00 720.00 86.12" xmlns="http://www.w3.org/2000/svg" xmlns:xlink="http://www.w3.org/1999/xlink">
<g id="graph0" class="graph" transform="scale(.1474 .1474) rotate(0) translate(4 580.4)">
<title>Argument Map</title>
<g id="clust1" class="cluster">
<title>cluster_1</title>
<polygon fill="#ffff00" stroke="#ffff00" points="8,-306 8,-562.4 224,-562.4 224,-306 8,-306"/>
<text text-anchor="start" x="69.3272" y="-547.6" font-family="arial" font-size="12.00" fill="#000000">Rival Hypotheses</text>
</g>
<g id="clust2" class="cluster">
<title>cluster_2</title>
<polygon fill="#f0f8ff" stroke="#f0f8ff" points="3463,-138 3463,-432.8 4570,-432.8 4570,-138 3463,-138"/>
<text text-anchor="start" x="3936.1534" y="-418" font-family="arial" font-size="12.00" fill="#000000">Dating of the Non&#45;Culm Strata</text>
</g>
<g id="clust3" class="cluster">
<title>cluster_3</title>
<polygon fill="#f5f5dc" stroke="#f5f5dc" points="3471,-146 3471,-402.4 3897,-402.4 3897,-146 3471,-146"/>
<text text-anchor="start" x="3620.9934" y="-387.6" font-family="arial" font-size="12.00" fill="#000000">Some Non&#45;Culm as SIL</text>
</g>
<g id="clust4" class="cluster">
<title>cluster_4</title>
<polygon fill="#eee8cd" stroke="#eee8cd" points="4113,-146 4113,-402.4 4562,-402.4 4562,-146 4113,-146"/>
<text text-anchor="start" x="4270.4974" y="-387.6" font-family="arial" font-size="12.00" fill="#000000">Some Non&#45;Culm as ORS</text>
</g>
<g id="clust5" class="cluster">
<title>cluster_5</title>
<polygon fill="#bfefff" stroke="#bfefff" points="290,-8 290,-450.8 3395,-450.8 3395,-8 290,-8"/>
<text text-anchor="start" x="1792.8248" y="-436" font-family="arial" font-size="12.00" fill="#000000">Dating of the Culm</text>
</g>
<g id="clust6" class="cluster">
<title>cluster_6</title>
<polygon fill="#f5f5dc" stroke="#f5f5dc" points="946,-16 946,-402.4 1382,-402.4 1382,-16 946,-16"/>
<text text-anchor="start" x="1131.33" y="-387.6" font-family="arial" font-size="12.00" fill="#000000">Culm as SIL</text>
</g>
<g id="clust7" class="cluster">
<title>cluster_7</title>
<polygon fill="#eee8cd" stroke="#eee8cd" points="1642,-152 1642,-408.4 2513,-408.4 2513,-152 1642,-152"/>
<text text-anchor="start" x="2023.497" y="-393.6" font-family="arial" font-size="12.00" fill="#000000">Some Culm as ORS</text>
</g>
<g id="clust8" class="cluster">
<title>cluster_8</title>
<polygon fill="#e5e5e5" stroke="#e5e5e5" points="298,-146 298,-420.4 938,-420.4 938,-146 298,-146"/>
<text text-anchor="start" x="568.6644" y="-405.6" font-family="arial" font-size="12.00" fill="#000000">Some Culm as ML</text>
</g>
<g id="clust9" class="cluster">
<title>cluster_9</title>
<polygon fill="#f5f5dc" stroke="#f5f5dc" points="2747,-152 2747,-402.4 3387,-402.4 3387,-152 2747,-152"/>
<text text-anchor="start" x="3034.0054" y="-387.6" font-family="arial" font-size="12.00" fill="#000000">Culm as CM</text>
</g>
<g id="clust10" class="cluster">
<title>cluster_10</title>
<polygon fill="#e6e6fa" stroke="#e6e6fa" points="4646,-300 4646,-568.4 4870,-568.4 4870,-300 4646,-300"/>
<text text-anchor="start" x="4687.9752" y="-553.6" font-family="arial" font-size="12.00" fill="#000000">Youngest Devonian Strata</text>
</g>
<!-- n0 -->
<g id="node1" class="node">
<title>n0</title>
<path fill="#ffffff" stroke="#f4a460" stroke-width="2" d="M204,-532C204,-532 28,-532 28,-532 22,-532 16,-526 16,-520 16,-520 16,-480 16,-480 16,-474 22,-468 28,-468 28,-468 204,-468 204,-468 210,-468 216,-474 216,-480 216,-480 216,-520 216,-520 216,-526 210,-532 204,-532"/>
<text text-anchor="start" x="60.99" y="-518" font-family="arial" font-weight="bold" font-size="10.00" fill="#000000">Devonian Strata as CAM</text>
<text text-anchor="start" x="39.3125" y="-501" font-family="arial" font-size="10.00" fill="#000000">In Devon, all the strata &#45; older than</text>
<text text-anchor="start" x="25.703" y="-489" font-family="arial" font-size="10.00" fill="#000000"> the New Red Sandstone &#45; are Cambrian</text>
<text text-anchor="start" x="59.5955" y="-477" font-family="arial" font-size="10.00" fill="#000000"> in age #GRE #chron&#45;hyp</text>
</g>
<!-- n1 -->
<g id="node2" class="node">
<title>n1</title>
<path fill="#ffffff" stroke="#ffc1c1" stroke-width="2" d="M200,-366C200,-366 28,-366 28,-366 22,-366 16,-360 16,-354 16,-354 16,-326 16,-326 16,-320 22,-314 28,-314 28,-314 200,-314 200,-314 206,-314 212,-320 212,-326 212,-326 212,-354 212,-354 212,-360 206,-366 200,-366"/>
<text text-anchor="start" x="86.5045" y="-352" font-family="arial" font-weight="bold" font-size="10.00" fill="#000000">Culm as CM</text>
<text text-anchor="start" x="35.6555" y="-335" font-family="arial" font-size="10.00" fill="#000000">The Devonian Culm strata are Coal</text>
<text text-anchor="start" x="34.259" y="-323" font-family="arial" font-size="10.00" fill="#000000"> Measures in age #COA #chron&#45;hyp</text>
</g>
<!-- n0&#45;&gt;n1 -->
<g id="edge2" class="edge">
<title>n0&#45;&gt;n1</title>
<path fill="none" stroke="#ff0000" d="M110.0466,-467.6216C108.187,-441.1446 107.6495,-403.7257 108.6952,-376.25"/>
<polygon fill="#ff0000" stroke="#ff0000" points="112.1916,-376.406 109.174,-366.25 105.1996,-376.0711 112.1916,-376.406"/>
</g>
<!-- n3 -->
<g id="node3" class="node">
<title>n3</title>
<path fill="#ffffff" stroke="#ffc1c1" stroke-width="2" d="M4091,-366C4091,-366 3919,-366 3919,-366 3913,-366 3907,-360 3907,-354 3907,-354 3907,-326 3907,-326 3907,-320 3913,-314 3919,-314 3919,-314 4091,-314 4091,-314 4097,-314 4103,-320 4103,-326 4103,-326 4103,-354 4103,-354 4103,-360 4097,-366 4091,-366"/>
<text text-anchor="start" x="3948.6105" y="-352" font-family="arial" font-weight="bold" font-size="10.00" fill="#000000">Non&#45;Culm Strata as CAM</text>
<text text-anchor="start" x="3929.7055" y="-335" font-family="arial" font-size="10.00" fill="#000000">In Devon, the non&#45;Culm strata are</text>
<text text-anchor="start" x="3925.54" y="-323" font-family="arial" font-size="10.00" fill="#000000"> Cambrian in age #COA #chron&#45;hyp</text>
</g>
<!-- n0&#45;&gt;n3 -->
<g id="edge130" class="edge">
<title>n0&#45;&gt;n3</title>
<path fill="none" stroke="#00ff00" d="M216.1908,-499.775C807.0909,-498.3167 3814.2456,-489.0252 3901,-450.8 3936.3559,-435.2217 3965.2943,-401.208 3983.5875,-374.9488"/>
<polygon fill="#00ff00" stroke="#00ff00" points="3986.6794,-376.6243 3989.3771,-366.3787 3980.8789,-372.7058 3986.6794,-376.6243"/>
</g>
<!-- n4 -->
<g id="node5" class="node">
<title>n4</title>
<path fill="#ffffff" stroke="#ffc1c1" stroke-width="2" d="M3877,-372C3877,-372 3705,-372 3705,-372 3699,-372 3693,-366 3693,-360 3693,-360 3693,-320 3693,-320 3693,-314 3699,-308 3705,-308 3705,-308 3877,-308 3877,-308 3883,-308 3889,-314 3889,-320 3889,-320 3889,-360 3889,-360 3889,-366 3883,-372 3877,-372"/>
<text text-anchor="start" x="3715.9895" y="-358" font-family="arial" font-weight="bold" font-size="10.00" fill="#000000">Non&#45;Culm Strata as SIL and CAM</text>
<text text-anchor="start" x="3710.1465" y="-341" font-family="arial" font-size="10.00" fill="#000000">In Devon, the non&#45;Culm strata range</text>
<text text-anchor="start" x="3702.934" y="-329" font-family="arial" font-size="10.00" fill="#000000"> from Cambrian to Silurian in age #COA</text>
<text text-anchor="start" x="3764.6045" y="-317" font-family="arial" font-size="10.00" fill="#000000"> #chron&#45;hyp</text>
</g>
<!-- n0&#45;&gt;n4 -->
<g id="edge140" class="edge">
<title>n0&#45;&gt;n4</title>
<path fill="none" stroke="#ff0000" d="M216.0726,-499.6844C787.158,-497.7338 3611.1342,-486.2177 3693,-450.8 3726.5167,-436.2996 3754.7232,-405.7397 3772.381,-380.3804"/>
<polygon fill="#ff0000" stroke="#ff0000" points="3775.3256,-382.2732 3777.9573,-372.0104 3769.5,-378.392 3775.3256,-382.2732"/>
</g>
<!-- n10 -->
<g id="node8" class="node">
<title>n10</title>
<path fill="#ffffff" stroke="#ffc1c1" stroke-width="2" d="M4541.5,-372C4541.5,-372 4358.5,-372 4358.5,-372 4352.5,-372 4346.5,-366 4346.5,-360 4346.5,-360 4346.5,-320 4346.5,-320 4346.5,-314 4352.5,-308 4358.5,-308 4358.5,-308 4541.5,-308 4541.5,-308 4547.5,-308 4553.5,-314 4553.5,-320 4553.5,-320 4553.5,-360 4553.5,-360 4553.5,-366 4547.5,-372 4541.5,-372"/>
<text text-anchor="start" x="4375.7645" y="-358" font-family="arial" font-weight="bold" font-size="10.00" fill="#000000">Non&#45;Culm Strata as SIL and ORS</text>
<text text-anchor="start" x="4356.867" y="-341" font-family="arial" font-size="10.00" fill="#000000">In Devon, the non&#45;Culm strata encompass</text>
<text text-anchor="start" x="4363.808" y="-329" font-family="arial" font-size="10.00" fill="#000000"> Silurian and Old Red Sandstone strata</text>
<text text-anchor="start" x="4409.102" y="-317" font-family="arial" font-size="10.00" fill="#000000"> #COA #chron&#45;hyp</text>
</g>
<!-- n0&#45;&gt;n10 -->
<g id="edge151" class="edge">
<title>n0&#45;&gt;n10</title>
<path fill="none" stroke="#ff0000" d="M216.2281,-499.8702C847.4258,-498.9203 4248.7304,-491.8658 4347,-450.8 4381.4639,-436.3979 4411.0299,-405.8314 4429.75,-380.4446"/>
<polygon fill="#ff0000" stroke="#ff0000" points="4432.7595,-382.2506 4435.6742,-372.0645 4427.0436,-378.2097 4432.7595,-382.2506"/>
</g>
<!-- n11 -->
<g id="node11" class="node">
<title>n11</title>
<path fill="#ffffff" stroke="#f4a460" stroke-width="2" d="M1579.5,-366C1579.5,-366 1402.5,-366 1402.5,-366 1396.5,-366 1390.5,-360 1390.5,-354 1390.5,-354 1390.5,-326 1390.5,-326 1390.5,-320 1396.5,-314 1402.5,-314 1402.5,-314 1579.5,-314 1579.5,-314 1585.5,-314 1591.5,-320 1591.5,-326 1591.5,-326 1591.5,-354 1591.5,-354 1591.5,-360 1585.5,-366 1579.5,-366"/>
<text text-anchor="start" x="1460.67" y="-352" font-family="arial" font-weight="bold" font-size="10.00" fill="#000000">Culm as CAM</text>
<text text-anchor="start" x="1400.653" y="-335" font-family="arial" font-size="10.00" fill="#000000">The whole Culm strata of Devonshire are</text>
<text text-anchor="start" x="1412.04" y="-323" font-family="arial" font-size="10.00" fill="#000000"> Cambrian in age #GRE #chron&#45;hyp</text>
</g>
<!-- n0&#45;&gt;n11 -->
<g id="edge5" class="edge">
<title>n0&#45;&gt;n11</title>
<path fill="none" stroke="#00ff00" d="M216.0474,-498.1808C506.569,-492.6263 1333.0551,-474.7935 1386,-450.8 1421.3497,-434.7802 1450.6162,-400.8302 1469.1914,-374.7063"/>
<polygon fill="#00ff00" stroke="#00ff00" points="1472.2737,-376.4021 1475.0743,-366.1841 1466.5129,-372.4254 1472.2737,-376.4021"/>
</g>
<!-- n5 -->
<g id="node14" class="node">
<title>n5</title>
<path fill="#ffffff" stroke="#ffc1c1" stroke-width="2" d="M1157.5,-372C1157.5,-372 966.5,-372 966.5,-372 960.5,-372 954.5,-366 954.5,-360 954.5,-360 954.5,-320 954.5,-320 954.5,-314 960.5,-308 966.5,-308 966.5,-308 1157.5,-308 1157.5,-308 1163.5,-308 1169.5,-314 1169.5,-320 1169.5,-320 1169.5,-360 1169.5,-360 1169.5,-366 1163.5,-372 1157.5,-372"/>
<text text-anchor="start" x="1012.774" y="-358" font-family="arial" font-weight="bold" font-size="10.00" fill="#000000">Culm as CM and USIL</text>
<text text-anchor="start" x="964.9865" y="-341" font-family="arial" font-size="10.00" fill="#000000">The Culm strata encompass Coal Measures</text>
<text text-anchor="start" x="991.65" y="-329" font-family="arial" font-size="10.00" fill="#000000"> and upper Silurian strata #COA</text>
<text text-anchor="start" x="1034.715" y="-317" font-family="arial" font-size="10.00" fill="#000000"> #chron&#45;hyp </text>
</g>
<!-- n0&#45;&gt;n5 -->
<g id="edge33" class="edge">
<title>n0&#45;&gt;n5</title>
<path fill="none" stroke="#ff0000" d="M216.3874,-497.9142C423.7579,-492.9618 885.3255,-478.7625 951,-450.8 986.548,-435.6646 1018.2495,-405.253 1038.772,-380.1141"/>
<polygon fill="#ff0000" stroke="#ff0000" points="1041.5959,-382.1852 1045.033,-372.1634 1036.0964,-377.8544 1041.5959,-382.1852"/>
</g>
<!-- n9 -->
<g id="node15" class="node">
<title>n9</title>
<path fill="#ffffff" stroke="#f4a460" stroke-width="2" d="M1143.5,-212C1143.5,-212 966.5,-212 966.5,-212 960.5,-212 954.5,-206 954.5,-200 954.5,-200 954.5,-172 954.5,-172 954.5,-166 960.5,-160 966.5,-160 966.5,-160 1143.5,-160 1143.5,-160 1149.5,-160 1155.5,-166 1155.5,-172 1155.5,-172 1155.5,-200 1155.5,-200 1155.5,-206 1149.5,-212 1143.5,-212"/>
<text text-anchor="start" x="1028.275" y="-198" font-family="arial" font-weight="bold" font-size="10.00" fill="#000000">Culm as SIL</text>
<text text-anchor="start" x="964.653" y="-181" font-family="arial" font-size="10.00" fill="#000000">The whole Culm strata of Devonshire are</text>
<text text-anchor="start" x="981.04" y="-169" font-family="arial" font-size="10.00" fill="#000000"> Silurian in age #GRE #chron&#45;hyp</text>
</g>
<!-- n0&#45;&gt;n9 -->
<g id="edge53" class="edge">
<title>n0&#45;&gt;n9</title>
<path fill="none" stroke="#ff0000" d="M216.2815,-499.458C766.4034,-496.3701 3394.1377,-480.0949 3423,-450.8 3473.1573,-399.8909 3472.7228,-341.3335 3423,-290 3335.678,-199.8492 1288.955,-237.6842 1165,-218 1158.7481,-217.0072 1152.3504,-215.7666 1145.9399,-214.3552"/>
<polygon fill="#ff0000" stroke="#ff0000" points="1146.4083,-210.8706 1135.8747,-212.0077 1144.8183,-217.6876 1146.4083,-210.8706"/>
</g>
<!-- n6 -->
<g id="node18" class="node">
<title>n6</title>
<path fill="#ffffff" stroke="#ffc1c1" stroke-width="2" d="M1845.5,-372C1845.5,-372 1662.5,-372 1662.5,-372 1656.5,-372 1650.5,-366 1650.5,-360 1650.5,-360 1650.5,-320 1650.5,-320 1650.5,-314 1656.5,-308 1662.5,-308 1662.5,-308 1845.5,-308 1845.5,-308 1851.5,-308 1857.5,-314 1857.5,-320 1857.5,-320 1857.5,-360 1857.5,-360 1857.5,-366 1851.5,-372 1845.5,-372"/>
<text text-anchor="start" x="1691.1615" y="-358" font-family="arial" font-weight="bold" font-size="10.00" fill="#000000">Culm as USIL, ORS and CM</text>
<text text-anchor="start" x="1680.323" y="-341" font-family="arial" font-size="10.00" fill="#000000">The Culm strata encompass Coal</text>
<text text-anchor="start" x="1660.8575" y="-329" font-family="arial" font-size="10.00" fill="#000000"> Measures, Old Red Sandstone and upper</text>
<text text-anchor="start" x="1681.1545" y="-317" font-family="arial" font-size="10.00" fill="#000000"> Silurian strata #COA #chron&#45;hyp</text>
</g>
<!-- n0&#45;&gt;n6 -->
<g id="edge87" class="edge">
<title>n0&#45;&gt;n6</title>
<path fill="none" stroke="#ff0000" d="M216.1016,-498.8938C547.3616,-494.898 1590.4213,-479.888 1656,-450.8 1689.2726,-436.0417 1717.4122,-405.6543 1735.1183,-380.4297"/>
<polygon fill="#ff0000" stroke="#ff0000" points="1738.0413,-382.3551 1740.7153,-372.1033 1732.2318,-378.45 1738.0413,-382.3551"/>
</g>
<!-- n7 -->
<g id="node23" class="node">
<title>n7</title>
<path fill="#ffffff" stroke="#ffc1c1" stroke-width="2" d="M704,-390C704,-390 532,-390 532,-390 526,-390 520,-384 520,-378 520,-378 520,-302 520,-302 520,-296 526,-290 532,-290 532,-290 704,-290 704,-290 710,-290 716,-296 716,-302 716,-302 716,-378 716,-378 716,-384 710,-390 704,-390"/>
<text text-anchor="start" x="572.443" y="-376" font-family="arial" font-weight="bold" font-size="10.00" fill="#000000">Culm as CM and ML</text>
<text text-anchor="start" x="539.647" y="-359" font-family="arial" font-size="10.00" fill="#000000">In Devon, the main or plant&#45;bearing</text>
<text text-anchor="start" x="550.49" y="-347" font-family="arial" font-size="10.00" fill="#000000"> part of the Culm strata is Coal</text>
<text text-anchor="start" x="547.71" y="-335" font-family="arial" font-size="10.00" fill="#000000"> Measures in age, a lower part &#45;</text>
<text text-anchor="start" x="535.2165" y="-323" font-family="arial" font-size="10.00" fill="#000000"> particularly the black Culm limestone</text>
<text text-anchor="start" x="533.537" y="-311" font-family="arial" font-size="10.00" fill="#000000"> &#45; is Mountain Limestone in age #COA</text>
<text text-anchor="start" x="590.215" y="-299" font-family="arial" font-size="10.00" fill="#000000"> #chron&#45;hyp </text>
</g>
<!-- n0&#45;&gt;n7 -->
<g id="edge114" class="edge">
<title>n0&#45;&gt;n7</title>
<path fill="none" stroke="#ff0000" d="M216.1177,-495.5118C318.291,-489.4743 468.7677,-476.3991 520,-450.8 544.7083,-438.4541 566.897,-418.0334 583.9857,-398.0638"/>
<polygon fill="#ff0000" stroke="#ff0000" points="586.8476,-400.0948 590.5154,-390.155 581.4497,-395.6381 586.8476,-400.0948"/>
</g>
<!-- n8 -->
<g id="node24" class="node">
<title>n8</title>
<path fill="#ffffff" stroke="#eedd82" stroke-width="2" d="M917.5,-218C917.5,-218 740.5,-218 740.5,-218 734.5,-218 728.5,-212 728.5,-206 728.5,-206 728.5,-166 728.5,-166 728.5,-160 734.5,-154 740.5,-154 740.5,-154 917.5,-154 917.5,-154 923.5,-154 929.5,-160 929.5,-166 929.5,-166 929.5,-206 929.5,-206 929.5,-212 923.5,-218 917.5,-218"/>
<text text-anchor="start" x="780.8835" y="-204" font-family="arial" font-weight="bold" font-size="10.00" fill="#000000">Culm as ML and ORS</text>
<text text-anchor="start" x="738.9265" y="-187" font-family="arial" font-size="10.00" fill="#000000">The Culm strata encompass the Old Red</text>
<text text-anchor="start" x="739.7425" y="-175" font-family="arial" font-size="10.00" fill="#000000"> Sandstone and the Mountain Limestone</text>
<text text-anchor="start" x="788.657" y="-163" font-family="arial" font-size="10.00" fill="#000000"> #DEV #chron&#45;hyp</text>
</g>
<!-- n0&#45;&gt;n8 -->
<g id="edge129" class="edge">
<title>n0&#45;&gt;n8</title>
<path fill="none" stroke="#ff0000" d="M216.2045,-499.4436C762.9481,-496.2932 3362.4346,-479.7978 3391,-450.8 3441.1536,-399.8873 3440.7865,-341.2717 3391,-290 3296.1774,-192.3487 1076.531,-238.7007 942,-218 941.2443,-217.8837 940.4865,-217.764 939.7268,-217.6409"/>
<polygon fill="#ff0000" stroke="#ff0000" points="940.222,-214.1741 929.7628,-215.8634 938.9926,-221.0653 940.222,-214.1741"/>
</g>
<!-- n2 -->
<g id="node34" class="node">
<title>n2</title>
<path fill="#ffffff" stroke="#eedd82" stroke-width="2" d="M4491,-82C4491,-82 4319,-82 4319,-82 4313,-82 4307,-76 4307,-70 4307,-70 4307,-30 4307,-30 4307,-24 4313,-18 4319,-18 4319,-18 4491,-18 4491,-18 4497,-18 4503,-24 4503,-30 4503,-30 4503,-70 4503,-70 4503,-76 4497,-82 4491,-82"/>
<text text-anchor="start" x="4373.0505" y="-68" font-family="arial" font-weight="bold" font-size="10.00" fill="#000000">ORS in Devon</text>
<text text-anchor="start" x="4326.367" y="-51" font-family="arial" font-size="10.00" fill="#000000">In Devon, a significant part of strata</text>
<text text-anchor="start" x="4316.913" y="-39" font-family="arial" font-size="10.00" fill="#000000"> is equivalent to the Old Red Sandstone</text>
<text text-anchor="start" x="4364.157" y="-27" font-family="arial" font-size="10.00" fill="#000000"> #DEV #chron&#45;hyp</text>
</g>
<!-- n0&#45;&gt;n2 -->
<g id="edge4" class="edge">
<title>n0&#45;&gt;n2</title>
<path fill="none" stroke="#ff0000" d="M216.0837,-499.849C871.6011,-498.7459 4526.4361,-490.8038 4566,-450.8 4614.8793,-401.3773 4601.4569,-197.788 4566,-138 4553.1618,-116.352 4532.9117,-99.6841 4511.0479,-86.9844"/>
<polygon fill="#ff0000" stroke="#ff0000" points="4512.7149,-83.9068 4502.2694,-82.1344 4509.3298,-90.0338 4512.7149,-83.9068"/>
</g>
<!-- n1&#45;&gt;n0 -->
<g id="edge1" class="edge">
<title>n1&#45;&gt;n0</title>
<path fill="none" stroke="#ff0000" d="M119.4822,-366.25C121.5607,-390.9527 122.3264,-428.3781 121.5148,-457.3637"/>
<polygon fill="#ff0000" stroke="#ff0000" points="118.0076,-457.5017 121.1439,-467.6216 125.003,-457.7546 118.0076,-457.5017"/>
</g>
<!-- n1&#45;&gt;n11 -->
<g id="edge8" class="edge">
<title>n1&#45;&gt;n11</title>
<path fill="none" stroke="#ff0000" d="M144.1953,-366.0648C179.5171,-394.6715 241.0803,-438.8623 303,-456.4 317.3521,-460.465 1362.6573,-460.4979 1377,-456.4 1419.0817,-444.3766 1451.9392,-404.3662 1471.3503,-374.5916"/>
<polygon fill="#ff0000" stroke="#ff0000" points="1474.3255,-376.4352 1476.7015,-366.1103 1468.4053,-372.7 1474.3255,-376.4352"/>
</g>
<!-- n1&#45;&gt;n5 -->
<g id="edge29" class="edge">
<title>n1&#45;&gt;n5</title>
<path fill="none" stroke="#ff0000" d="M144.1953,-366.0648C179.5171,-394.6715 241.0803,-438.8623 303,-456.4 319.8377,-461.169 916.1733,-461.2076 933,-456.4 975.0217,-444.3938 1010.7967,-408.6964 1033.9366,-379.9684"/>
<polygon fill="#ff0000" stroke="#ff0000" points="1036.7085,-382.1055 1040.1229,-372.0759 1031.1992,-377.7872 1036.7085,-382.1055"/>
</g>
<!-- n1&#45;&gt;n9 -->
<g id="edge41" class="edge">
<title>n1&#45;&gt;n9</title>
<path fill="none" stroke="#ff0000" d="M190.2629,-313.9363C216.2672,-305.0843 245.638,-295.9401 273,-290 569.1299,-225.7127 653.476,-275.4911 951,-218 956.4427,-216.9483 962.0039,-215.7591 967.5862,-214.4734"/>
<polygon fill="#ff0000" stroke="#ff0000" points="968.7277,-217.7989 977.6361,-212.0638 967.0956,-210.9918 968.7277,-217.7989"/>
</g>
<!-- n18 -->
<g id="node16" class="node">
<title>n18</title>
<path fill="#ffffff" stroke="#ffc1c1" stroke-width="2" d="M1360,-76C1360,-76 1188,-76 1188,-76 1182,-76 1176,-70 1176,-64 1176,-64 1176,-36 1176,-36 1176,-30 1182,-24 1188,-24 1188,-24 1360,-24 1360,-24 1366,-24 1372,-30 1372,-36 1372,-36 1372,-64 1372,-64 1372,-70 1366,-76 1360,-76"/>
<text text-anchor="start" x="1214.822" y="-62" font-family="arial" font-weight="bold" font-size="10.00" fill="#000000">Some USIL dating of Culm</text>
<text text-anchor="start" x="1186.764" y="-45" font-family="arial" font-size="10.00" fill="#000000">Some part of the Culm is upper Silurian</text>
<text text-anchor="start" x="1216.206" y="-33" font-family="arial" font-size="10.00" fill="#000000"> in age #COA #chron&#45;hyp </text>
</g>
<!-- n1&#45;&gt;n18 -->
<g id="edge25" class="edge">
<title>n1&#45;&gt;n18</title>
<path fill="none" stroke="#ff0000" d="M115.8731,-313.7482C120.5825,-269.3623 137.0157,-180.2068 194,-138 270.8734,-81.0619 907.4184,-59.0486 1165.7167,-52.4069"/>
<polygon fill="#ff0000" stroke="#ff0000" points="1165.9566,-55.902 1175.8643,-52.1489 1165.7786,-48.9043 1165.9566,-55.902"/>
</g>
<!-- n1&#45;&gt;n6 -->
<g id="edge83" class="edge">
<title>n1&#45;&gt;n6</title>
<path fill="none" stroke="#ff0000" d="M144.1953,-366.0648C179.5171,-394.6715 241.0803,-438.8623 303,-456.4 320.8399,-461.4529 1620.1717,-461.4938 1638,-456.4 1677.6984,-445.0576 1709.5828,-409.3425 1729.8018,-380.4346"/>
<polygon fill="#ff0000" stroke="#ff0000" points="1732.7349,-382.3453 1735.4447,-372.1029 1726.939,-378.4199 1732.7349,-382.3453"/>
</g>
<!-- n20 -->
<g id="node19" class="node">
<title>n20</title>
<path fill="#ffffff" stroke="#ffc1c1" stroke-width="2" d="M1836,-212C1836,-212 1664,-212 1664,-212 1658,-212 1652,-206 1652,-200 1652,-200 1652,-172 1652,-172 1652,-166 1658,-160 1664,-160 1664,-160 1836,-160 1836,-160 1842,-160 1848,-166 1848,-172 1848,-172 1848,-200 1848,-200 1848,-206 1842,-212 1836,-212"/>
<text text-anchor="start" x="1682.7635" y="-198" font-family="arial" font-weight="bold" font-size="10.00" fill="#000000">Some ORS dating of the Culm</text>
<text text-anchor="start" x="1675.2655" y="-181" font-family="arial" font-size="10.00" fill="#000000">Some part of the Culm is Old Red</text>
<text text-anchor="start" x="1666.9155" y="-169" font-family="arial" font-size="10.00" fill="#000000"> Sandstone in age #COA #chron&#45;hyp </text>
</g>
<!-- n1&#45;&gt;n20 -->
<g id="edge58" class="edge">
<title>n1&#45;&gt;n20</title>
<path fill="none" stroke="#ff0000" d="M201.7509,-313.9375C233.4169,-304.8032 269.5512,-295.4679 303,-290 897.7341,-192.7791 1063.9539,-325.0363 1657,-218 1662.3651,-217.0317 1667.842,-215.8642 1673.3207,-214.5561"/>
<polygon fill="#ff0000" stroke="#ff0000" points="1674.3271,-217.9118 1683.1607,-212.0622 1672.6073,-211.1263 1674.3271,-217.9118"/>
</g>
<!-- n1&#45;&gt;n7 -->
<g id="edge108" class="edge">
<title>n1&#45;&gt;n7</title>
<path fill="none" stroke="#ff0000" d="M144.1953,-366.0648C179.5171,-394.6715 241.0803,-438.8623 303,-456.4 324.2742,-462.4256 480.7396,-462.4744 502,-456.4 533.9316,-447.2767 560.8077,-422.3845 580.624,-397.9497"/>
<polygon fill="#ff0000" stroke="#ff0000" points="583.3978,-400.0843 586.8072,-390.053 577.8863,-395.7687 583.3978,-400.0843"/>
</g>
<!-- n1&#45;&gt;n8 -->
<g id="edge121" class="edge">
<title>n1&#45;&gt;n8</title>
<path fill="none" stroke="#ff0000" d="M172.9001,-313.9295C192.3392,-305.131 214.2429,-296.0239 235,-290 444.3384,-229.2482 509.5834,-263.9142 718.2458,-220.0837"/>
<polygon fill="#ff0000" stroke="#ff0000" points="719.2441,-223.4495 728.2916,-217.9365 717.7809,-216.6041 719.2441,-223.4495"/>
</g>
<!-- n24 -->
<g id="node25" class="node">
<title>n24</title>
<path fill="#ffffff" stroke="#ffc1c1" stroke-width="2" d="M698,-212C698,-212 526,-212 526,-212 520,-212 514,-206 514,-200 514,-200 514,-172 514,-172 514,-166 520,-160 526,-160 526,-160 698,-160 698,-160 704,-160 710,-166 710,-172 710,-172 710,-200 710,-200 710,-206 704,-212 698,-212"/>
<text text-anchor="start" x="548.653" y="-198" font-family="arial" font-weight="bold" font-size="10.00" fill="#000000">Some ML dating of the Culm</text>
<text text-anchor="start" x="535.041" y="-181" font-family="arial" font-size="10.00" fill="#000000">Some part of the Culm is Mountain</text>
<text text-anchor="start" x="529.7555" y="-169" font-family="arial" font-size="10.00" fill="#000000"> Limestone in age #COA #chron&#45;hyp </text>
</g>
<!-- n1&#45;&gt;n24 -->
<g id="edge91" class="edge">
<title>n1&#45;&gt;n24</title>
<path fill="none" stroke="#ff0000" d="M176.2243,-313.9728C194.9587,-305.6808 215.638,-296.8824 235,-290 324.0274,-258.3544 427.5276,-230.9552 503.5773,-212.2355"/>
<polygon fill="#ff0000" stroke="#ff0000" points="504.7714,-215.5465 513.651,-209.7669 503.1053,-208.7476 504.7714,-215.5465"/>
</g>
<!-- n14 -->
<g id="node28" class="node">
<title>n14</title>
<path fill="#ffffff" stroke="#ffc1c1" stroke-width="2" d="M2941,-212C2941,-212 2769,-212 2769,-212 2763,-212 2757,-206 2757,-200 2757,-200 2757,-172 2757,-172 2757,-166 2763,-160 2769,-160 2769,-160 2941,-160 2941,-160 2947,-160 2953,-166 2953,-172 2953,-172 2953,-200 2953,-200 2953,-206 2947,-212 2941,-212"/>
<text text-anchor="start" x="2799.161" y="-198" font-family="arial" font-weight="bold" font-size="10.00" fill="#000000">Some CM dating of Culm</text>
<text text-anchor="start" x="2769.712" y="-181" font-family="arial" font-size="10.00" fill="#000000">Some part of the Devon Culm is CM in</text>
<text text-anchor="start" x="2803.874" y="-169" font-family="arial" font-size="10.00" fill="#000000"> age #COA #chron&#45;hyp</text>
</g>
<!-- n1&#45;&gt;n14 -->
<g id="edge10" class="edge">
<title>n1&#45;&gt;n14</title>
<path fill="none" stroke="#00ff00" d="M191.9633,-313.9135C223.3043,-304.5973 260.0074,-295.1413 294,-290 1375.0622,-126.4925 1674.7876,-399.3511 2753,-218 2758.6866,-217.0435 2764.4953,-215.8479 2770.3127,-214.4852"/>
<polygon fill="#00ff00" stroke="#00ff00" points="2771.2352,-217.8624 2780.0913,-212.0469 2769.5416,-211.0704 2771.2352,-217.8624"/>
</g>
<!-- n15 -->
<g id="node29" class="node">
<title>n15</title>
<path fill="#ffffff" stroke="#ffc1c1" stroke-width="2" d="M3367,-366C3367,-366 3195,-366 3195,-366 3189,-366 3183,-360 3183,-354 3183,-354 3183,-326 3183,-326 3183,-320 3189,-314 3195,-314 3195,-314 3367,-314 3367,-314 3373,-314 3379,-320 3379,-326 3379,-326 3379,-354 3379,-354 3379,-360 3373,-366 3367,-366"/>
<text text-anchor="start" x="3231.83" y="-352" font-family="arial" font-weight="bold" font-size="10.00" fill="#000000">No CM dating of Culm</text>
<text text-anchor="start" x="3192.653" y="-335" font-family="arial" font-size="10.00" fill="#000000">No part of the Devon Culm is CM in age</text>
<text text-anchor="start" x="3238.2125" y="-323" font-family="arial" font-size="10.00" fill="#000000"> #COA #chron&#45;hyp </text>
</g>
<!-- n1&#45;&gt;n15 -->
<g id="edge15" class="edge">
<title>n1&#45;&gt;n15</title>
<path fill="none" stroke="#ff0000" d="M144.1953,-366.0648C179.5171,-394.6715 241.0803,-438.8623 303,-456.4 322.1228,-461.8162 3145.8897,-461.8601 3165,-456.4 3207.4448,-444.2729 3240.9571,-404.2841 3260.8294,-374.5429"/>
<polygon fill="#ff0000" stroke="#ff0000" points="3263.8168,-376.3687 3266.3111,-366.0717 3257.9399,-372.5658 3263.8168,-376.3687"/>
</g>
<!-- n16 -->
<g id="node30" class="node">
<title>n16</title>
<path fill="#ffffff" stroke="#ffc1c1" stroke-width="2" d="M3153,-372C3153,-372 2981,-372 2981,-372 2975,-372 2969,-366 2969,-360 2969,-360 2969,-320 2969,-320 2969,-314 2975,-308 2981,-308 2981,-308 3153,-308 3153,-308 3159,-308 3165,-314 3165,-320 3165,-320 3165,-360 3165,-360 3165,-366 3159,-372 3153,-372"/>
<text text-anchor="start" x="3003.383" y="-358" font-family="arial" font-weight="bold" font-size="10.00" fill="#000000">Main part of the Culm as CM</text>
<text text-anchor="start" x="2988.092" y="-341" font-family="arial" font-size="10.00" fill="#000000">In Devon, the main part of the Culm</text>
<text text-anchor="start" x="2983.096" y="-329" font-family="arial" font-size="10.00" fill="#000000"> strata is Coal Measures in age #COA</text>
<text text-anchor="start" x="3040.6045" y="-317" font-family="arial" font-size="10.00" fill="#000000"> #chron&#45;hyp</text>
</g>
<!-- n1&#45;&gt;n16 -->
<g id="edge17" class="edge">
<title>n1&#45;&gt;n16</title>
<path fill="none" stroke="#00ff00" d="M144.1953,-366.0648C179.5171,-394.6715 241.0803,-438.8623 303,-456.4 320.6929,-461.4112 2933.3186,-461.4518 2951,-456.4 2990.6984,-445.0576 3022.5828,-409.3425 3042.8018,-380.4346"/>
<polygon fill="#00ff00" stroke="#00ff00" points="3045.7349,-382.3453 3048.4447,-372.1029 3039.939,-378.4199 3045.7349,-382.3453"/>
</g>
<!-- n17 -->
<g id="node31" class="node">
<title>n17</title>
<path fill="#ffffff" stroke="#ffc1c1" stroke-width="2" d="M2939,-366C2939,-366 2767,-366 2767,-366 2761,-366 2755,-360 2755,-354 2755,-354 2755,-326 2755,-326 2755,-320 2761,-314 2767,-314 2767,-314 2939,-314 2939,-314 2945,-314 2951,-320 2951,-326 2951,-326 2951,-354 2951,-354 2951,-360 2945,-366 2939,-366"/>
<text text-anchor="start" x="2787.441" y="-352" font-family="arial" font-weight="bold" font-size="10.00" fill="#000000">Black Culm Limestone as CM</text>
<text text-anchor="start" x="2778.829" y="-335" font-family="arial" font-size="10.00" fill="#000000">The black Culm limestone is Coal</text>
<text text-anchor="start" x="2773.259" y="-323" font-family="arial" font-size="10.00" fill="#000000"> Measures in age #COA #chron&#45;hyp</text>
</g>
<!-- n1&#45;&gt;n17 -->
<g id="edge21" class="edge">
<title>n1&#45;&gt;n17</title>
<path fill="none" stroke="#00ff00" d="M144.1953,-366.0648C179.5171,-394.6715 241.0803,-438.8623 303,-456.4 332.4659,-464.7457 2477.7794,-461.3607 2508,-456.4 2607.641,-440.0439 2717.2583,-398.78 2785.6076,-370.06"/>
<polygon fill="#00ff00" stroke="#00ff00" points="2787.129,-373.2167 2794.9728,-366.0946 2784.3996,-366.7707 2787.129,-373.2167"/>
</g>
<!-- n27 -->
<g id="node4" class="node">
<title>n27</title>
<path fill="#ffffff" stroke="#ffc1c1" stroke-width="2" d="M4091,-218C4091,-218 3919,-218 3919,-218 3913,-218 3907,-212 3907,-206 3907,-206 3907,-166 3907,-166 3907,-160 3913,-154 3919,-154 3919,-154 4091,-154 4091,-154 4097,-154 4103,-160 4103,-166 4103,-166 4103,-206 4103,-206 4103,-212 4097,-218 4091,-218"/>
<text text-anchor="start" x="3933.3285" y="-204" font-family="arial" font-weight="bold" font-size="10.00" fill="#000000">Some part of Non&#45;Culm as CAM</text>
<text text-anchor="start" x="3923.0365" y="-187" font-family="arial" font-size="10.00" fill="#000000">In Devon, some part of the non&#45;Culm</text>
<text text-anchor="start" x="3933.0445" y="-175" font-family="arial" font-size="10.00" fill="#000000"> strata is Cambrian in age #COA</text>
<text text-anchor="start" x="3978.6045" y="-163" font-family="arial" font-size="10.00" fill="#000000"> #chron&#45;hyp</text>
</g>
<!-- n3&#45;&gt;n27 -->
<g id="edge131" class="edge">
<title>n3&#45;&gt;n27</title>
<path fill="none" stroke="#00ff00" d="M4005,-313.876C4005,-290.4393 4005,-255.6207 4005,-228.2313"/>
<polygon fill="#00ff00" stroke="#00ff00" points="4008.5001,-228.1369 4005,-218.137 4001.5001,-228.137 4008.5001,-228.1369"/>
</g>
<!-- n3&#45;&gt;n4 -->
<g id="edge138" class="edge">
<title>n3&#45;&gt;n4</title>
<path fill="none" stroke="#ff0000" d="M3906.8606,-340C3904.3803,-340 3901.8999,-340 3899.4196,-340"/>
<polygon fill="#ff0000" stroke="#ff0000" points="3899.2227,-336.5001 3889.2227,-340 3899.2226,-343.5001 3899.2227,-336.5001"/>
</g>
<!-- n28 -->
<g id="node6" class="node">
<title>n28</title>
<path fill="#ffffff" stroke="#ffc1c1" stroke-width="2" d="M3770,-218C3770,-218 3598,-218 3598,-218 3592,-218 3586,-212 3586,-206 3586,-206 3586,-166 3586,-166 3586,-160 3592,-154 3598,-154 3598,-154 3770,-154 3770,-154 3776,-154 3782,-160 3782,-166 3782,-166 3782,-206 3782,-206 3782,-212 3776,-218 3770,-218"/>
<text text-anchor="start" x="3615.9335" y="-204" font-family="arial" font-weight="bold" font-size="10.00" fill="#000000">Some part of Non&#45;Culm as SIL</text>
<text text-anchor="start" x="3602.0365" y="-187" font-family="arial" font-size="10.00" fill="#000000">In Devon, some part of the non&#45;Culm</text>
<text text-anchor="start" x="3617.0445" y="-175" font-family="arial" font-size="10.00" fill="#000000"> strata is Silurian in age #COA</text>
<text text-anchor="start" x="3657.6045" y="-163" font-family="arial" font-size="10.00" fill="#000000"> #chron&#45;hyp</text>
</g>
<!-- n3&#45;&gt;n28 -->
<g id="edge132" class="edge">
<title>n3&#45;&gt;n28</title>
<path fill="none" stroke="#ff0000" d="M3959.3751,-313.9075C3943.738,-306.2044 3926.1645,-297.7592 3910,-290 3863.1576,-267.5149 3810.6107,-242.3301 3767.9266,-222.3762"/>
<polygon fill="#ff0000" stroke="#ff0000" points="3769.2384,-219.1261 3758.6962,-218.0714 3766.2798,-225.4701 3769.2384,-219.1261"/>
</g>
<!-- n29 -->
<g id="node7" class="node">
<title>n29</title>
<path fill="#ffffff" stroke="#ffc1c1" stroke-width="2" d="M3663,-372C3663,-372 3491,-372 3491,-372 3485,-372 3479,-366 3479,-360 3479,-360 3479,-320 3479,-320 3479,-314 3485,-308 3491,-308 3491,-308 3663,-308 3663,-308 3669,-308 3675,-314 3675,-320 3675,-320 3675,-360 3675,-360 3675,-366 3669,-372 3663,-372"/>
<text text-anchor="start" x="3534.7685" y="-358" font-family="arial" font-weight="bold" font-size="10.00" fill="#000000">SIL in North Devon</text>
<text text-anchor="start" x="3495.037" y="-341" font-family="arial" font-size="10.00" fill="#000000">In north Devon (around Pilton), some</text>
<text text-anchor="start" x="3498.3775" y="-329" font-family="arial" font-size="10.00" fill="#000000"> non&#45;Culm strata are Silurian in age</text>
<text text-anchor="start" x="3535.602" y="-317" font-family="arial" font-size="10.00" fill="#000000"> #COA #chron&#45;hyp</text>
</g>
<!-- n3&#45;&gt;n29 -->
<g id="edge135" class="edge">
<title>n3&#45;&gt;n29</title>
<path fill="none" stroke="#ff0000" d="M3990.8972,-366.1294C3972.7621,-396.2325 3938.0376,-443.2464 3892,-456.4 3870.7396,-462.4744 3714.2604,-462.4744 3693,-456.4 3653.3016,-445.0576 3621.4172,-409.3425 3601.1982,-380.4346"/>
<polygon fill="#ff0000" stroke="#ff0000" points="3604.061,-378.4199 3595.5553,-372.1029 3598.2651,-382.3453 3604.061,-378.4199"/>
</g>
<!-- n3&#45;&gt;n10 -->
<g id="edge147" class="edge">
<title>n3&#45;&gt;n10</title>
<path fill="none" stroke="#ff0000" d="M4019.1028,-366.1294C4037.2379,-396.2325 4071.9624,-443.2464 4118,-456.4 4140.5424,-462.8407 4306.4576,-462.8407 4329,-456.4 4369.4325,-444.8479 4402.7197,-409.3526 4424.0754,-380.5673"/>
<polygon fill="#ff0000" stroke="#ff0000" points="4427.047,-382.4299 4430.0462,-372.2685 4421.3648,-378.3417 4427.047,-382.4299"/>
</g>
<!-- n30 -->
<g id="node9" class="node">
<title>n30</title>
<path fill="#ffffff" stroke="#ffc1c1" stroke-width="2" d="M4311.5,-218C4311.5,-218 4134.5,-218 4134.5,-218 4128.5,-218 4122.5,-212 4122.5,-206 4122.5,-206 4122.5,-166 4122.5,-166 4122.5,-160 4128.5,-154 4134.5,-154 4134.5,-154 4311.5,-154 4311.5,-154 4317.5,-154 4323.5,-160 4323.5,-166 4323.5,-166 4323.5,-206 4323.5,-206 4323.5,-212 4317.5,-218 4311.5,-218"/>
<text text-anchor="start" x="4152.1035" y="-204" font-family="arial" font-weight="bold" font-size="10.00" fill="#000000">Some part of Non&#45;Culm as ORS</text>
<text text-anchor="start" x="4132.928" y="-187" font-family="arial" font-size="10.00" fill="#000000">Some part of the Devon Non&#45;Culm strata</text>
<text text-anchor="start" x="4143.4755" y="-175" font-family="arial" font-size="10.00" fill="#000000"> is Old Red Sandstone in age #COA</text>
<text text-anchor="start" x="4197.1045" y="-163" font-family="arial" font-size="10.00" fill="#000000"> #chron&#45;hyp</text>
</g>
<!-- n3&#45;&gt;n30 -->
<g id="edge142" class="edge">
<title>n3&#45;&gt;n30</title>
<path fill="none" stroke="#ff0000" d="M4047.1977,-313.876C4083.7529,-289.3036 4136.4853,-252.2195 4174.7042,-224.304"/>
<polygon fill="#ff0000" stroke="#ff0000" points="4177.1193,-226.8732 4183.1134,-218.137 4172.9796,-221.2285 4177.1193,-226.8732"/>
</g>
<!-- n4&#45;&gt;n0 -->
<g id="edge139" class="edge">
<title>n4&#45;&gt;n0</title>
<path fill="none" stroke="#ff0000" d="M3763.7251,-372.0104C3743.0325,-398.6253 3712.3056,-434.6605 3675,-450.8 3593.8567,-485.9051 818.7941,-497.5287 226.4906,-499.6305"/>
<polygon fill="#ff0000" stroke="#ff0000" points="226.2337,-496.1313 216.2461,-499.6667 226.2584,-503.1313 226.2337,-496.1313"/>
</g>
<!-- n4&#45;&gt;n3 -->
<g id="edge137" class="edge">
<title>n4&#45;&gt;n3</title>
<path fill="none" stroke="#ff0000" d="M3889.2227,-340C3891.703,-340 3894.1833,-340 3896.6637,-340"/>
<polygon fill="#ff0000" stroke="#ff0000" points="3896.8606,-343.5001 3906.8606,-340 3896.8606,-336.5001 3896.8606,-343.5001"/>
</g>
<!-- n4&#45;&gt;n10 -->
<g id="edge149" class="edge">
<title>n4&#45;&gt;n10</title>
<path fill="none" stroke="#ff0000" d="M3808.3448,-372.2169C3826.8294,-402.2545 3859.3094,-444.2027 3902,-456.4 3924.8095,-462.917 4306.1905,-462.917 4329,-456.4 4369.4325,-444.8479 4402.7197,-409.3526 4424.0754,-380.5673"/>
<polygon fill="#ff0000" stroke="#ff0000" points="4427.047,-382.4299 4430.0462,-372.2685 4421.3648,-378.3417 4427.047,-382.4299"/>
</g>
<!-- n4&#45;&gt;n30 -->
<g id="edge144" class="edge">
<title>n4&#45;&gt;n30</title>
<path fill="none" stroke="#ff0000" d="M3861.4244,-307.9449C3874.7878,-301.6234 3888.7247,-295.3106 3902,-290 3912.6278,-285.7485 4027.6187,-249.6813 4117.0092,-221.1977"/>
<polygon fill="#ff0000" stroke="#ff0000" points="4118.2084,-224.489 4126.6724,-218.1163 4116.0817,-217.8199 4118.2084,-224.489"/>
</g>
<!-- n28&#45;&gt;n3 -->
<g id="edge133" class="edge">
<title>n28&#45;&gt;n3</title>
<path fill="none" stroke="#ff0000" d="M3743.2489,-218.0714C3784.8687,-238.6197 3841.7205,-265.865 3892,-290 3905.1336,-296.3044 3919.1975,-303.0615 3932.8096,-309.5056"/>
<polygon fill="#ff0000" stroke="#ff0000" points="3931.6066,-312.8079 3942.1443,-313.9075 3934.5923,-306.4766 3931.6066,-312.8079"/>
</g>
<!-- n29&#45;&gt;n3 -->
<g id="edge136" class="edge">
<title>n29&#45;&gt;n3</title>
<path fill="none" stroke="#ff0000" d="M3595.5553,-372.1029C3615.1986,-402.054 3649.3829,-443.938 3693,-456.4 3714.2604,-462.4744 3870.7396,-462.4744 3892,-456.4 3933.7216,-444.4796 3966.1519,-404.75 3985.3636,-375"/>
<polygon fill="#ff0000" stroke="#ff0000" points="3988.574,-376.4664 3990.8972,-366.1294 3982.6348,-372.7615 3988.574,-376.4664"/>
</g>
<!-- n29&#45;&gt;n28 -->
<g id="edge134" class="edge">
<title>n29&#45;&gt;n28</title>
<path fill="none" stroke="#00ff00" d="M3599.4307,-307.7166C3615.8377,-284.1027 3638.2106,-251.9025 3655.8237,-226.5528"/>
<polygon fill="#00ff00" stroke="#00ff00" points="3658.7671,-228.4504 3661.5988,-218.2409 3653.0185,-224.4562 3658.7671,-228.4504"/>
</g>
<!-- n10&#45;&gt;n0 -->
<g id="edge152" class="edge">
<title>n10&#45;&gt;n0</title>
<path fill="none" stroke="#ff0000" d="M4421.4419,-372.0645C4399.6517,-398.7142 4367.3598,-434.7698 4329,-450.8 4231.4948,-491.5464 882.1352,-498.8085 226.6225,-499.847"/>
<polygon fill="#ff0000" stroke="#ff0000" points="226.2341,-496.3475 216.2396,-499.8632 226.2452,-503.3475 226.2341,-496.3475"/>
</g>
<!-- n10&#45;&gt;n3 -->
<g id="edge148" class="edge">
<title>n10&#45;&gt;n3</title>
<path fill="none" stroke="#ff0000" d="M4430.0462,-372.2685C4409.2219,-402.1117 4373.4236,-443.7075 4329,-456.4 4306.4576,-462.8407 4140.5424,-462.8407 4118,-456.4 4076.2784,-444.4796 4043.8481,-404.75 4024.6364,-375"/>
<polygon fill="#ff0000" stroke="#ff0000" points="4027.3652,-372.7615 4019.1028,-366.1294 4021.426,-376.4664 4027.3652,-372.7615"/>
</g>
<!-- n10&#45;&gt;n4 -->
<g id="edge150" class="edge">
<title>n10&#45;&gt;n4</title>
<path fill="none" stroke="#ff0000" d="M4430.0462,-372.2685C4409.2219,-402.1117 4373.4236,-443.7075 4329,-456.4 4306.1905,-462.917 3924.8095,-462.917 3902,-456.4 3863.3116,-445.3462 3833.0092,-409.8583 3813.9095,-380.9447"/>
<polygon fill="#ff0000" stroke="#ff0000" points="3816.6721,-378.7672 3808.3448,-372.2169 3810.7697,-382.5305 3816.6721,-378.7672"/>
</g>
<!-- n30&#45;&gt;n3 -->
<g id="edge143" class="edge">
<title>n30&#45;&gt;n3</title>
<path fill="none" stroke="#ff0000" d="M4171.9014,-218.137C4133.1571,-244.4306 4080.7624,-281.442 4045.0226,-307.7628"/>
<polygon fill="#ff0000" stroke="#ff0000" points="4042.7191,-305.1133 4036.7637,-313.876 4046.8837,-310.7397 4042.7191,-305.1133"/>
</g>
<!-- n30&#45;&gt;n4 -->
<g id="edge145" class="edge">
<title>n30&#45;&gt;n4</title>
<path fill="none" stroke="#ff0000" d="M4122.2518,-215.2697C4026.4431,-244.4088 3895.3811,-285.4472 3884,-290 3873.8361,-294.0659 3863.2844,-298.7193 3853.0827,-303.5143"/>
<polygon fill="#ff0000" stroke="#ff0000" points="3851.3399,-300.4682 3843.8332,-307.9449 3854.364,-306.7813 3851.3399,-300.4682"/>
</g>
<!-- n30&#45;&gt;n2 -->
<g id="edge141" class="edge">
<title>n30&#45;&gt;n2</title>
<path fill="none" stroke="#00ff00" d="M4266.1315,-153.7699C4292.3286,-134.194 4325.9247,-109.0892 4353.51,-88.476"/>
<polygon fill="#00ff00" stroke="#00ff00" points="4355.9476,-91.0238 4361.8631,-82.2341 4351.7575,-85.4164 4355.9476,-91.0238"/>
</g>
<!-- n31 -->
<g id="node10" class="node">
<title>n31</title>
<path fill="#ffffff" stroke="#ffc1c1" stroke-width="2" d="M4316.5,-366C4316.5,-366 4133.5,-366 4133.5,-366 4127.5,-366 4121.5,-360 4121.5,-354 4121.5,-354 4121.5,-326 4121.5,-326 4121.5,-320 4127.5,-314 4133.5,-314 4133.5,-314 4316.5,-314 4316.5,-314 4322.5,-314 4328.5,-320 4328.5,-326 4328.5,-326 4328.5,-354 4328.5,-354 4328.5,-360 4322.5,-366 4316.5,-366"/>
<text text-anchor="start" x="4162.4375" y="-352" font-family="arial" font-weight="bold" font-size="10.00" fill="#000000">No ORS dating of Non&#45;Culm</text>
<text text-anchor="start" x="4143.2675" y="-335" font-family="arial" font-size="10.00" fill="#000000">No part of the Non&#45;Culm strata is Old</text>
<text text-anchor="start" x="4131.8575" y="-323" font-family="arial" font-size="10.00" fill="#000000"> Red Sandstone in age #COA #chron&#45;hyp </text>
</g>
<!-- n31&#45;&gt;n30 -->
<g id="edge146" class="edge">
<title>n31&#45;&gt;n30</title>
<path fill="none" stroke="#ff0000" d="M4224.5012,-301.5901C4224.2208,-279.9992 4223.8695,-252.949 4223.5772,-230.4456"/>
<polygon fill="#ff0000" stroke="#ff0000" points="4224.5048,-301.877 4228.5824,-307.8245 4224.6607,-313.876 4220.5831,-307.9285 4224.5048,-301.877"/>
<polygon fill="#ff0000" stroke="#ff0000" points="4223.5733,-230.136 4219.4957,-224.1884 4223.4174,-218.137 4227.495,-224.0845 4223.5733,-230.136"/>
</g>
<!-- n11&#45;&gt;n1 -->
<g id="edge9" class="edge">
<title>n11&#45;&gt;n1</title>
<path fill="none" stroke="#ff0000" d="M1476.7015,-366.1103C1458.3362,-396.1944 1423.2357,-443.1898 1377,-456.4 1362.6573,-460.4979 317.3521,-460.465 303,-456.4 245.434,-440.0954 188.1762,-400.7541 152.0262,-372.3155"/>
<polygon fill="#ff0000" stroke="#ff0000" points="154.1943,-369.5678 144.1953,-366.0648 149.8274,-375.0387 154.1943,-369.5678"/>
</g>
<!-- n12 -->
<g id="node12" class="node">
<title>n12</title>
<path fill="#ffffff" stroke="#f4a460" stroke-width="2" d="M2706.5,-212C2706.5,-212 2533.5,-212 2533.5,-212 2527.5,-212 2521.5,-206 2521.5,-200 2521.5,-200 2521.5,-172 2521.5,-172 2521.5,-166 2527.5,-160 2533.5,-160 2533.5,-160 2706.5,-160 2706.5,-160 2712.5,-160 2718.5,-166 2718.5,-172 2718.5,-172 2718.5,-200 2718.5,-200 2718.5,-206 2712.5,-212 2706.5,-212"/>
<text text-anchor="start" x="2553.5485" y="-198" font-family="arial" font-weight="bold" font-size="10.00" fill="#000000">Main part of the Culm as CAM</text>
<text text-anchor="start" x="2531.8785" y="-181" font-family="arial" font-size="10.00" fill="#000000">Then main part of the Culm is Cambrian</text>
<text text-anchor="start" x="2564.0955" y="-169" font-family="arial" font-size="10.00" fill="#000000"> in age #GRE #chron&#45;hyp</text>
</g>
<!-- n11&#45;&gt;n12 -->
<g id="edge6" class="edge">
<title>n11&#45;&gt;n12</title>
<path fill="none" stroke="#00ff00" d="M1556.2633,-313.9503C1581.4261,-304.9328 1610.6828,-295.674 1638,-290 2021.7839,-210.2856 2132.1886,-292.5965 2517,-218 2522.0969,-217.0119 2527.298,-215.8626 2532.5209,-214.5983"/>
<polygon fill="#00ff00" stroke="#00ff00" points="2533.7439,-217.8986 2542.5702,-212.0379 2532.0156,-211.1153 2533.7439,-217.8986"/>
</g>
<!-- n13 -->
<g id="node13" class="node">
<title>n13</title>
<path fill="#ffffff" stroke="#f4a460" stroke-width="2" d="M1621.5,-212C1621.5,-212 1444.5,-212 1444.5,-212 1438.5,-212 1432.5,-206 1432.5,-200 1432.5,-200 1432.5,-172 1432.5,-172 1432.5,-166 1438.5,-160 1444.5,-160 1444.5,-160 1621.5,-160 1621.5,-160 1627.5,-160 1633.5,-166 1633.5,-172 1633.5,-172 1633.5,-200 1633.5,-200 1633.5,-206 1627.5,-212 1621.5,-212"/>
<text text-anchor="start" x="1464.6065" y="-198" font-family="arial" font-weight="bold" font-size="10.00" fill="#000000">Black Culm Limestone as CAM</text>
<text text-anchor="start" x="1442.6625" y="-181" font-family="arial" font-size="10.00" fill="#000000">The black Culm limestone is Cambrian in</text>
<text text-anchor="start" x="1482.374" y="-169" font-family="arial" font-size="10.00" fill="#000000"> age #GRE #chron&#45;hyp</text>
</g>
<!-- n11&#45;&gt;n13 -->
<g id="edge7" class="edge">
<title>n11&#45;&gt;n13</title>
<path fill="none" stroke="#00ff00" d="M1498.1247,-313.876C1505.0033,-288.6547 1515.4768,-250.2519 1523.1513,-222.1118"/>
<polygon fill="#00ff00" stroke="#00ff00" points="1526.5858,-222.8207 1525.8403,-212.2522 1519.8324,-220.9789 1526.5858,-222.8207"/>
</g>
<!-- n11&#45;&gt;n5 -->
<g id="edge31" class="edge">
<title>n11&#45;&gt;n5</title>
<path fill="none" stroke="#ff0000" d="M1390.2702,-340C1320.1834,-340 1250.0965,-340 1180.0096,-340"/>
<polygon fill="#ff0000" stroke="#ff0000" points="1179.669,-336.5001 1169.6689,-340 1179.6689,-343.5001 1179.669,-336.5001"/>
</g>
<!-- n11&#45;&gt;n9 -->
<g id="edge45" class="edge">
<title>n11&#45;&gt;n9</title>
<path fill="none" stroke="#ff0000" d="M1448.6294,-313.9991C1432.1148,-305.8009 1412.946,-297.0521 1395,-290 1352.1957,-273.1795 1242.6833,-239.4214 1159.3655,-214.9172"/>
<polygon fill="#ff0000" stroke="#ff0000" points="1160.1787,-211.5083 1149.5978,-212.0517 1158.2081,-218.2253 1160.1787,-211.5083"/>
</g>
<!-- n11&#45;&gt;n18 -->
<g id="edge27" class="edge">
<title>n11&#45;&gt;n18</title>
<path fill="none" stroke="#ff0000" d="M1465.1434,-313.8104C1443.7577,-290.5902 1414.3371,-254.7475 1398,-218 1383.3042,-184.9444 1401.5515,-169.0561 1383,-138 1369.6262,-115.6117 1348.333,-96.5396 1328.1007,-81.9336"/>
<polygon fill="#ff0000" stroke="#ff0000" points="1330.025,-79.0084 1319.822,-76.1537 1326.0178,-84.748 1330.025,-79.0084"/>
</g>
<!-- n11&#45;&gt;n6 -->
<g id="edge81" class="edge">
<title>n11&#45;&gt;n6</title>
<path fill="none" stroke="#ff0000" d="M1591.6797,-340C1607.8698,-340 1624.0599,-340 1640.25,-340"/>
<polygon fill="#ff0000" stroke="#ff0000" points="1640.3306,-343.5001 1650.3306,-340 1640.3305,-336.5001 1640.3306,-343.5001"/>
</g>
<!-- n11&#45;&gt;n20 -->
<g id="edge56" class="edge">
<title>n11&#45;&gt;n20</title>
<path fill="none" stroke="#ff0000" d="M1540.1528,-313.876C1586.8134,-287.2719 1656.3416,-246.0015 1702.4617,-217.5799"/>
<polygon fill="#ff0000" stroke="#ff0000" points="1704.4116,-220.4893 1711.0749,-212.2522 1700.7291,-214.5362 1704.4116,-220.4893"/>
</g>
<!-- n11&#45;&gt;n7 -->
<g id="edge106" class="edge">
<title>n11&#45;&gt;n7</title>
<path fill="none" stroke="#ff0000" d="M1476.7015,-366.1103C1458.3362,-396.1944 1423.2357,-443.1898 1377,-456.4 1359.8261,-461.3068 751.1739,-461.3068 734,-456.4 702.0684,-447.2767 675.1923,-422.3845 655.376,-397.9497"/>
<polygon fill="#ff0000" stroke="#ff0000" points="658.1137,-395.7687 649.1928,-390.053 652.6022,-400.0843 658.1137,-395.7687"/>
</g>
<!-- n11&#45;&gt;n8 -->
<g id="edge119" class="edge">
<title>n11&#45;&gt;n8</title>
<path fill="none" stroke="#ff0000" d="M1451.9905,-313.8903C1434.9157,-305.1414 1414.4659,-296.0768 1395,-290 1204.1713,-230.4276 1146.1639,-261.3068 951,-218 947.19,-217.1546 943.318,-216.2567 939.4109,-215.3189"/>
<polygon fill="#ff0000" stroke="#ff0000" points="940.1886,-211.9059 929.6417,-212.9128 938.5145,-218.7028 940.1886,-211.9059"/>
</g>
<!-- n11&#45;&gt;n24 -->
<g id="edge89" class="edge">
<title>n11&#45;&gt;n24</title>
<path fill="none" stroke="#ff0000" d="M1453.4206,-313.9735C1436.1172,-304.9588 1415.1059,-295.6958 1395,-290 1108.5477,-208.8516 1020.9152,-276.5279 729,-218 723.7271,-216.9428 718.3408,-215.7435 712.9151,-214.4448"/>
<polygon fill="#ff0000" stroke="#ff0000" points="713.6716,-211.0263 703.1224,-212.0089 711.9819,-217.8194 713.6716,-211.0263"/>
</g>
<!-- n11&#45;&gt;n14 -->
<g id="edge12" class="edge">
<title>n11&#45;&gt;n14</title>
<path fill="none" stroke="#ff0000" d="M1563.8721,-313.9616C1589.8033,-304.8303 1619.3705,-295.4908 1647,-290 2134.063,-193.2068 2273.8169,-308.9759 2762,-218 2767.3025,-217.0118 2772.7157,-215.8356 2778.1328,-214.5268"/>
<polygon fill="#ff0000" stroke="#ff0000" points="2779.0431,-217.9068 2787.865,-212.0396 2777.3098,-211.1247 2779.0431,-217.9068"/>
</g>
<!-- n12&#45;&gt;n16 -->
<g id="edge19" class="edge">
<title>n12&#45;&gt;n16</title>
<path fill="none" stroke="#ff0000" d="M2718.7853,-210.1872C2789.4992,-229.3877 2886.3195,-258.2171 2969,-290 2979.7321,-294.1255 2990.8964,-298.8426 3001.694,-303.6942"/>
<polygon fill="#ff0000" stroke="#ff0000" points="3000.5186,-307.0053 3011.0684,-307.9809 3003.4297,-300.6393 3000.5186,-307.0053"/>
</g>
<!-- n19 -->
<g id="node17" class="node">
<title>n19</title>
<path fill="#ffffff" stroke="#ffc1c1" stroke-width="2" d="M1362,-212C1362,-212 1186,-212 1186,-212 1180,-212 1174,-206 1174,-200 1174,-200 1174,-172 1174,-172 1174,-166 1180,-160 1186,-160 1186,-160 1362,-160 1362,-160 1368,-160 1374,-166 1374,-172 1374,-172 1374,-200 1374,-200 1374,-206 1368,-212 1362,-212"/>
<text text-anchor="start" x="1205.102" y="-198" font-family="arial" font-weight="bold" font-size="10.00" fill="#000000">Black Culm Limestone as USIL</text>
<text text-anchor="start" x="1196.211" y="-181" font-family="arial" font-size="10.00" fill="#000000">The whole of the Culm limestone is</text>
<text text-anchor="start" x="1183.9785" y="-169" font-family="arial" font-size="10.00" fill="#000000"> upper Silurian in age. #COA #chron&#45;hyp</text>
</g>
<!-- n13&#45;&gt;n19 -->
<g id="edge38" class="edge">
<title>n13&#45;&gt;n19</title>
<path fill="none" stroke="#ff0000" d="M1432.4842,-186C1416.3843,-186 1400.2845,-186 1384.1846,-186"/>
<polygon fill="#ff0000" stroke="#ff0000" points="1384.1602,-182.5001 1374.1602,-186 1384.1601,-189.5001 1384.1602,-182.5001"/>
</g>
<!-- n21 -->
<g id="node20" class="node">
<title>n21</title>
<path fill="#ffffff" stroke="#ffc1c1" stroke-width="2" d="M2279,-372C2279,-372 2107,-372 2107,-372 2101,-372 2095,-366 2095,-360 2095,-360 2095,-320 2095,-320 2095,-314 2101,-308 2107,-308 2107,-308 2279,-308 2279,-308 2285,-308 2291,-314 2291,-320 2291,-320 2291,-360 2291,-360 2291,-366 2285,-372 2279,-372"/>
<text text-anchor="start" x="2109.651" y="-358" font-family="arial" font-weight="bold" font-size="10.00" fill="#000000">Some ORS dating of Culm Limestone</text>
<text text-anchor="start" x="2107.152" y="-341" font-family="arial" font-size="10.00" fill="#000000">Some part of the black Culm limestone</text>
<text text-anchor="start" x="2112.9755" y="-329" font-family="arial" font-size="10.00" fill="#000000"> is Old Red Sandstone in age #COA</text>
<text text-anchor="start" x="2165.215" y="-317" font-family="arial" font-size="10.00" fill="#000000"> #chron&#45;hyp </text>
</g>
<!-- n13&#45;&gt;n21 -->
<g id="edge65" class="edge">
<title>n13&#45;&gt;n21</title>
<path fill="none" stroke="#ff0000" d="M1623.6391,-212.0702C1631.5212,-214.2181 1639.3881,-216.2371 1647,-218 1843.466,-263.5012 1902.2367,-230.7418 2095,-290 2107.0628,-293.7083 2119.51,-298.5235 2131.3345,-303.6991"/>
<polygon fill="#ff0000" stroke="#ff0000" points="2130.1105,-306.9866 2140.6648,-307.9128 2132.9917,-300.607 2130.1105,-306.9866"/>
</g>
<!-- n22 -->
<g id="node21" class="node">
<title>n22</title>
<path fill="#ffffff" stroke="#ffc1c1" stroke-width="2" d="M2493,-372C2493,-372 2321,-372 2321,-372 2315,-372 2309,-366 2309,-360 2309,-360 2309,-320 2309,-320 2309,-314 2315,-308 2321,-308 2321,-308 2493,-308 2493,-308 2499,-308 2505,-314 2505,-320 2505,-320 2505,-360 2505,-360 2505,-366 2499,-372 2493,-372"/>
<text text-anchor="start" x="2323.3715" y="-358" font-family="arial" font-weight="bold" font-size="10.00" fill="#000000">Some USIL dating of Culm Limestone</text>
<text text-anchor="start" x="2321.152" y="-341" font-family="arial" font-size="10.00" fill="#000000">Some part of the black Culm limestone</text>
<text text-anchor="start" x="2339.7645" y="-329" font-family="arial" font-size="10.00" fill="#000000"> is upper Silurian in age #COA</text>
<text text-anchor="start" x="2380.6045" y="-317" font-family="arial" font-size="10.00" fill="#000000"> #chron&#45;hyp</text>
</g>
<!-- n13&#45;&gt;n22 -->
<g id="edge71" class="edge">
<title>n13&#45;&gt;n22</title>
<path fill="none" stroke="#ff0000" d="M1621.815,-212.0266C1630.293,-214.2673 1638.7856,-216.3171 1647,-218 1936.9351,-277.4001 2023.9821,-210.2785 2309,-290 2321.6671,-293.5431 2334.7046,-298.45 2346.9897,-303.8149"/>
<polygon fill="#ff0000" stroke="#ff0000" points="2345.6655,-307.0573 2356.2191,-307.9916 2348.5516,-300.6799 2345.6655,-307.0573"/>
</g>
<!-- n23 -->
<g id="node22" class="node">
<title>n23</title>
<path fill="#ffffff" stroke="#ffc1c1" stroke-width="2" d="M2064.5,-378C2064.5,-378 1887.5,-378 1887.5,-378 1881.5,-378 1875.5,-372 1875.5,-366 1875.5,-366 1875.5,-314 1875.5,-314 1875.5,-308 1881.5,-302 1887.5,-302 1887.5,-302 2064.5,-302 2064.5,-302 2070.5,-302 2076.5,-308 2076.5,-314 2076.5,-314 2076.5,-366 2076.5,-366 2076.5,-372 2070.5,-378 2064.5,-378"/>
<text text-anchor="start" x="1885.651" y="-364" font-family="arial" font-weight="bold" font-size="10.00" fill="#000000">Black Culm Limestone as USIL and ORS</text>
<text text-anchor="start" x="1886.7645" y="-347" font-family="arial" font-size="10.00" fill="#000000">The balck Culm limestone encompasses</text>
<text text-anchor="start" x="1893.9695" y="-335" font-family="arial" font-size="10.00" fill="#000000"> the upper part of the Silurian and the</text>
<text text-anchor="start" x="1886.748" y="-323" font-family="arial" font-size="10.00" fill="#000000"> whole of the Old Red Sandstone. #COA</text>
<text text-anchor="start" x="1950.1045" y="-311" font-family="arial" font-size="10.00" fill="#000000"> #chron&#45;hyp</text>
</g>
<!-- n13&#45;&gt;n23 -->
<g id="edge77" class="edge">
<title>n13&#45;&gt;n23</title>
<path fill="none" stroke="#ff0000" d="M1623.9012,-212.0199C1721.4583,-241.2958 1863.9845,-285.3953 1876,-290 1882.4003,-292.4528 1888.9571,-295.1017 1895.5051,-297.8556"/>
<polygon fill="#ff0000" stroke="#ff0000" points="1894.503,-301.2339 1905.0733,-301.9549 1897.2598,-294.7996 1894.503,-301.2339"/>
</g>
<!-- n25 -->
<g id="node26" class="node">
<title>n25</title>
<path fill="#ffffff" stroke="#ffc1c1" stroke-width="2" d="M918,-366C918,-366 746,-366 746,-366 740,-366 734,-360 734,-354 734,-354 734,-326 734,-326 734,-320 740,-314 746,-314 746,-314 918,-314 918,-314 924,-314 930,-320 930,-326 930,-326 930,-354 930,-354 930,-360 924,-366 918,-366"/>
<text text-anchor="start" x="767.271" y="-352" font-family="arial" font-weight="bold" font-size="10.00" fill="#000000">Black Culm Limestone as ML</text>
<text text-anchor="start" x="747.546" y="-335" font-family="arial" font-size="10.00" fill="#000000">The black Culm limestone is Mountain</text>
<text text-anchor="start" x="749.7555" y="-323" font-family="arial" font-size="10.00" fill="#000000"> Limestone in age #COA #chron&#45;hyp </text>
</g>
<!-- n13&#45;&gt;n25 -->
<g id="edge100" class="edge">
<title>n13&#45;&gt;n25</title>
<path fill="none" stroke="#ff0000" d="M1432.1051,-210.5835C1419.6473,-213.1841 1407.0604,-215.7111 1395,-218 1198.5947,-255.2745 1142.351,-232.1275 951,-290 934.0471,-295.1272 916.3118,-302.311 899.8311,-309.6372"/>
<polygon fill="#ff0000" stroke="#ff0000" points="897.9575,-306.6432 890.288,-313.9527 900.8418,-313.0213 897.9575,-306.6432"/>
</g>
<!-- n13&#45;&gt;n17 -->
<g id="edge23" class="edge">
<title>n13&#45;&gt;n17</title>
<path fill="none" stroke="#ff0000" d="M1620.9025,-212.0263C1629.6768,-214.3133 1638.4831,-216.3729 1647,-218 2032.0116,-291.5561 2136.6018,-245.1284 2526,-290 2599.2699,-298.4431 2681.138,-310.5694 2744.669,-320.7653"/>
<polygon fill="#ff0000" stroke="#ff0000" points="2744.2739,-324.2468 2754.7037,-322.3843 2745.3888,-317.3361 2744.2739,-324.2468"/>
</g>
<!-- n5&#45;&gt;n0 -->
<g id="edge32" class="edge">
<title>n5&#45;&gt;n0</title>
<path fill="none" stroke="#ff0000" d="M1030.7269,-372.1634C1007.0662,-398.4915 972.3952,-434.0266 933,-450.8 869.3997,-477.8793 434.5185,-492.0511 226.4259,-497.4171"/>
<polygon fill="#ff0000" stroke="#ff0000" points="226.2944,-493.9192 216.3871,-497.6737 226.4733,-500.9169 226.2944,-493.9192"/>
</g>
<!-- n5&#45;&gt;n1 -->
<g id="edge28" class="edge">
<title>n5&#45;&gt;n1</title>
<path fill="none" stroke="#ff0000" d="M1040.1229,-372.0759C1017.4683,-401.7746 978.9725,-443.265 933,-456.4 916.1733,-461.2076 319.8377,-461.169 303,-456.4 245.434,-440.0954 188.1762,-400.7541 152.0262,-372.3155"/>
<polygon fill="#ff0000" stroke="#ff0000" points="154.1943,-369.5678 144.1953,-366.0648 149.8274,-375.0387 154.1943,-369.5678"/>
</g>
<!-- n5&#45;&gt;n11 -->
<g id="edge30" class="edge">
<title>n5&#45;&gt;n11</title>
<path fill="none" stroke="#ff0000" d="M1169.6689,-340C1239.7558,-340 1309.8427,-340 1379.9296,-340"/>
<polygon fill="#ff0000" stroke="#ff0000" points="1380.2703,-343.5001 1390.2702,-340 1380.2702,-336.5001 1380.2703,-343.5001"/>
</g>
<!-- n5&#45;&gt;n9 -->
<g id="edge49" class="edge">
<title>n5&#45;&gt;n9</title>
<path fill="none" stroke="#ff0000" d="M1054.9181,-307.7166C1052.3449,-282.7556 1050.7025,-248.2007 1050.8199,-222.2842"/>
<polygon fill="#ff0000" stroke="#ff0000" points="1054.322,-222.1626 1050.9708,-212.1117 1047.3228,-222.0587 1054.322,-222.1626"/>
</g>
<!-- n5&#45;&gt;n6 -->
<g id="edge85" class="edge">
<title>n5&#45;&gt;n6</title>
<path fill="none" stroke="#ff0000" d="M1081.9538,-372.2685C1102.7781,-402.1117 1138.5764,-443.7075 1183,-456.4 1207.3052,-463.3443 1613.6948,-463.3443 1638,-456.4 1677.6984,-445.0576 1709.5828,-409.3425 1729.8018,-380.4346"/>
<polygon fill="#ff0000" stroke="#ff0000" points="1732.7349,-382.3453 1735.4447,-372.1029 1726.939,-378.4199 1732.7349,-382.3453"/>
</g>
<!-- n5&#45;&gt;n20 -->
<g id="edge60" class="edge">
<title>n5&#45;&gt;n20</title>
<path fill="none" stroke="#ff0000" d="M1134.773,-307.8769C1150.4388,-301.1427 1167.0621,-294.6748 1183,-290 1387.469,-230.026 1449.4012,-266.0331 1657,-218 1661.3905,-216.9842 1665.8657,-215.8731 1670.3624,-214.6941"/>
<polygon fill="#ff0000" stroke="#ff0000" points="1671.4849,-218.0161 1680.2163,-212.015 1669.6483,-211.2613 1671.4849,-218.0161"/>
</g>
<!-- n5&#45;&gt;n7 -->
<g id="edge110" class="edge">
<title>n5&#45;&gt;n7</title>
<path fill="none" stroke="#ff0000" d="M1040.1229,-372.0759C1017.4683,-401.7746 978.9725,-443.265 933,-456.4 911.7396,-462.4744 755.2604,-462.4744 734,-456.4 702.0684,-447.2767 675.1923,-422.3845 655.376,-397.9497"/>
<polygon fill="#ff0000" stroke="#ff0000" points="658.1137,-395.7687 649.1928,-390.053 652.6022,-400.0843 658.1137,-395.7687"/>
</g>
<!-- n5&#45;&gt;n8 -->
<g id="edge123" class="edge">
<title>n5&#45;&gt;n8</title>
<path fill="none" stroke="#ff0000" d="M1019.0428,-307.904C983.241,-283.2973 931.8768,-249.2863 891.5319,-223.4398"/>
<polygon fill="#ff0000" stroke="#ff0000" points="893.4113,-220.4872 883.0995,-218.0547 889.6437,-226.3868 893.4113,-220.4872"/>
</g>
<!-- n5&#45;&gt;n24 -->
<g id="edge93" class="edge">
<title>n5&#45;&gt;n24</title>
<path fill="none" stroke="#ff0000" d="M996.6453,-307.8827C981.7616,-301.6999 965.9465,-295.4567 951,-290 907.6458,-274.1723 797.4371,-239.8739 714.3081,-214.982"/>
<polygon fill="#ff0000" stroke="#ff0000" points="715.1506,-211.5809 704.5671,-212.0712 713.1464,-218.2878 715.1506,-211.5809"/>
</g>
<!-- n9&#45;&gt;n0 -->
<g id="edge52" class="edge">
<title>n9&#45;&gt;n0</title>
<path fill="none" stroke="#ff0000" d="M968.6717,-212.0201C959.7131,-214.2473 950.7042,-216.2961 942,-218 799.8125,-245.8337 402.4764,-193.9538 294,-290 239.0191,-338.6807 305.1059,-396.1984 256,-450.8 247.3513,-460.4167 236.7106,-468.1537 225.1919,-474.3784"/>
<polygon fill="#ff0000" stroke="#ff0000" points="223.616,-471.2532 216.2308,-478.8498 226.7414,-477.5167 223.616,-471.2532"/>
</g>
<!-- n9&#45;&gt;n1 -->
<g id="edge40" class="edge">
<title>n9&#45;&gt;n1</title>
<path fill="none" stroke="#ff0000" d="M959.7244,-212.0638C950.7199,-214.2825 941.7084,-216.3173 933,-218 635.476,-275.4911 551.1299,-225.7127 255,-290 231.0583,-295.1975 205.5785,-302.8483 182.9246,-310.6099"/>
<polygon fill="#ff0000" stroke="#ff0000" points="181.688,-307.3344 173.4015,-313.9363 183.9963,-313.9429 181.688,-307.3344"/>
</g>
<!-- n9&#45;&gt;n11 -->
<g id="edge44" class="edge">
<title>n9&#45;&gt;n11</title>
<path fill="none" stroke="#ff0000" d="M1135.8902,-212.0517C1215.9066,-236.7216 1332.5009,-272.5135 1377,-290 1391.8615,-295.84 1407.5617,-302.8436 1422.4293,-309.7345"/>
<polygon fill="#ff0000" stroke="#ff0000" points="1421.0221,-312.9402 1431.5639,-313.9991 1423.9833,-306.5973 1421.0221,-312.9402"/>
</g>
<!-- n9&#45;&gt;n5 -->
<g id="edge48" class="edge">
<title>n9&#45;&gt;n5</title>
<path fill="none" stroke="#ff0000" d="M1061.403,-212.1117C1064.1534,-235.5078 1066.0282,-270.2536 1066.1765,-297.6259"/>
<polygon fill="#ff0000" stroke="#ff0000" points="1062.6764,-297.7063 1066.147,-307.7166 1069.6763,-297.7269 1062.6764,-297.7063"/>
</g>
<!-- n9&#45;&gt;n18 -->
<g id="edge39" class="edge">
<title>n9&#45;&gt;n18</title>
<path fill="none" stroke="#00ff00" d="M1096.9663,-159.9387C1132.8406,-137.6606 1184.5814,-105.5294 1222.869,-81.7526"/>
<polygon fill="#00ff00" stroke="#00ff00" points="1225.1542,-84.4535 1231.803,-76.2046 1221.4613,-78.5068 1225.1542,-84.4535"/>
</g>
<!-- n9&#45;&gt;n6 -->
<g id="edge50" class="edge">
<title>n9&#45;&gt;n6</title>
<path fill="none" stroke="#ff0000" d="M1149.2453,-212.0293C1157.598,-214.1988 1165.9374,-216.2335 1174,-218 1385.5803,-264.3565 1448.6139,-227.5008 1656,-290 1668.1606,-293.6648 1680.7006,-298.4833 1692.5971,-303.6827"/>
<polygon fill="#ff0000" stroke="#ff0000" points="1691.426,-306.9941 1701.9803,-307.9194 1694.3066,-300.6143 1691.426,-306.9941"/>
</g>
<!-- n9&#45;&gt;n7 -->
<g id="edge46" class="edge">
<title>n9&#45;&gt;n7</title>
<path fill="none" stroke="#ff0000" d="M974.7808,-212.0174C895.0244,-236.7534 778.5024,-272.6767 734,-290 731.2682,-291.0634 728.5078,-292.164 725.7289,-293.2943"/>
<polygon fill="#ff0000" stroke="#ff0000" points="724.1177,-290.1735 716.2244,-297.2408 726.8021,-296.6383 724.1177,-290.1735"/>
</g>
<!-- n9&#45;&gt;n8 -->
<g id="edge42" class="edge">
<title>n9&#45;&gt;n8</title>
<path fill="none" stroke="#ff0000" d="M954.1249,-186C949.4066,-186 944.6882,-186 939.9699,-186"/>
<polygon fill="#ff0000" stroke="#ff0000" points="939.6407,-182.5001 929.6406,-186 939.6406,-189.5001 939.6407,-182.5001"/>
</g>
<!-- n18&#45;&gt;n1 -->
<g id="edge24" class="edge">
<title>n18&#45;&gt;n1</title>
<path fill="none" stroke="#ff0000" d="M1175.7662,-54.7209C942.9915,-66.4891 371.4874,-99.0048 294,-138 219.499,-175.4923 161.7532,-258.1497 133.3594,-305.285"/>
<polygon fill="#ff0000" stroke="#ff0000" points="130.3215,-303.5462 128.2387,-313.9343 136.345,-307.1124 130.3215,-303.5462"/>
</g>
<!-- n18&#45;&gt;n11 -->
<g id="edge26" class="edge">
<title>n18&#45;&gt;n11</title>
<path fill="none" stroke="#ff0000" d="M1325.297,-76.1351C1350.344,-91.1973 1379.0808,-112.2642 1398,-138 1420.1441,-168.1225 1409.1585,-183.6859 1424,-218 1437.0994,-248.2861 1455.2876,-280.9751 1469.4086,-304.886"/>
<polygon fill="#ff0000" stroke="#ff0000" points="1466.4749,-306.8002 1474.6023,-313.597 1472.4874,-303.2154 1466.4749,-306.8002"/>
</g>
<!-- n19&#45;&gt;n13 -->
<g id="edge37" class="edge">
<title>n19&#45;&gt;n13</title>
<path fill="none" stroke="#ff0000" d="M1374.1602,-186C1390.26,-186 1406.3599,-186 1422.4597,-186"/>
<polygon fill="#ff0000" stroke="#ff0000" points="1422.4842,-189.5001 1432.4842,-186 1422.4841,-182.5001 1422.4842,-189.5001"/>
</g>
<!-- n19&#45;&gt;n18 -->
<g id="edge34" class="edge">
<title>n19&#45;&gt;n18</title>
<path fill="none" stroke="#00ff00" d="M1274,-159.7778C1274,-138.8938 1274,-109.4262 1274,-86.2787"/>
<polygon fill="#00ff00" stroke="#00ff00" points="1277.5001,-86.1416 1274,-76.1417 1270.5001,-86.1417 1277.5001,-86.1416"/>
</g>
<!-- n19&#45;&gt;n21 -->
<g id="edge63" class="edge">
<title>n19&#45;&gt;n21</title>
<path fill="none" stroke="#ff0000" d="M1361.7469,-212.0169C1370.2438,-214.2745 1378.761,-216.3305 1387,-218 1696.9897,-280.8131 1790.1055,-205.8665 2095,-290 2107.6794,-293.4988 2120.723,-298.3837 2133.0105,-303.7402"/>
<polygon fill="#ff0000" stroke="#ff0000" points="2131.6869,-306.9829 2142.2408,-307.9133 2134.5706,-300.6044 2131.6869,-306.9829"/>
</g>
<!-- n19&#45;&gt;n22 -->
<g id="edge68" class="edge">
<title>n19&#45;&gt;n22</title>
<path fill="none" stroke="#00ff00" d="M1352.1853,-212.0646C1360.829,-214.3443 1369.5564,-216.3917 1378,-218 1781.7665,-294.9056 1902.5301,-185.3125 2300,-290 2312.8775,-293.3917 2326.1077,-298.2806 2338.6828,-303.6886"/>
<polygon fill="#00ff00" stroke="#00ff00" points="2337.5959,-307.0359 2348.1547,-307.9091 2340.445,-300.642 2337.5959,-307.0359"/>
</g>
<!-- n19&#45;&gt;n23 -->
<g id="edge79" class="edge">
<title>n19&#45;&gt;n23</title>
<path fill="none" stroke="#ff0000" d="M1363.2572,-212.0308C1371.2622,-214.2135 1379.2611,-216.2504 1387,-218 1601.2688,-266.4423 1665.3794,-227.576 1876,-290 1883.8052,-292.3133 1891.769,-295.0864 1899.6287,-298.1249"/>
<polygon fill="#ff0000" stroke="#ff0000" points="1898.5628,-301.4686 1909.1467,-301.9498 1901.173,-294.9734 1898.5628,-301.4686"/>
</g>
<!-- n19&#45;&gt;n25 -->
<g id="edge98" class="edge">
<title>n19&#45;&gt;n25</title>
<path fill="none" stroke="#ff0000" d="M1193.2882,-212.0944C1113.0621,-236.8888 995.8536,-272.8554 951,-290 935.5844,-295.8924 919.2551,-302.8852 903.7683,-309.7456"/>
<polygon fill="#ff0000" stroke="#ff0000" points="901.9585,-306.7204 894.2502,-313.9891 904.8089,-313.1138 901.9585,-306.7204"/>
</g>
<!-- n19&#45;&gt;n17 -->
<g id="edge35" class="edge">
<title>n19&#45;&gt;n17</title>
<path fill="none" stroke="#ff0000" d="M1360.5376,-212.0424C1369.4257,-214.3587 1378.3589,-216.4203 1387,-218 1885.9635,-309.2159 2021.5837,-236.6228 2526,-290 2599.3452,-297.7614 2681.2151,-309.872 2744.7281,-320.2302"/>
<polygon fill="#ff0000" stroke="#ff0000" points="2744.3249,-323.7108 2754.7598,-321.8767 2745.4587,-316.8032 2744.3249,-323.7108"/>
</g>
<!-- n6&#45;&gt;n0 -->
<g id="edge86" class="edge">
<title>n6&#45;&gt;n0</title>
<path fill="none" stroke="#ff0000" d="M1726.446,-372.1033C1705.7086,-398.5844 1675.0338,-434.3733 1638,-450.8 1573.5666,-479.38 565.4956,-494.3694 226.3282,-498.6743"/>
<polygon fill="#ff0000" stroke="#ff0000" points="226.202,-495.1756 216.2471,-498.8016 226.2905,-502.175 226.202,-495.1756"/>
</g>
<!-- n6&#45;&gt;n1 -->
<g id="edge82" class="edge">
<title>n6&#45;&gt;n1</title>
<path fill="none" stroke="#ff0000" d="M1735.4447,-372.1029C1715.8014,-402.054 1681.6171,-443.938 1638,-456.4 1620.1717,-461.4938 320.8399,-461.4529 303,-456.4 245.434,-440.0954 188.1762,-400.7541 152.0262,-372.3155"/>
<polygon fill="#ff0000" stroke="#ff0000" points="154.1943,-369.5678 144.1953,-366.0648 149.8274,-375.0387 154.1943,-369.5678"/>
</g>
<!-- n6&#45;&gt;n11 -->
<g id="edge80" class="edge">
<title>n6&#45;&gt;n11</title>
<path fill="none" stroke="#ff0000" d="M1650.3306,-340C1634.1405,-340 1617.9504,-340 1601.7603,-340"/>
<polygon fill="#ff0000" stroke="#ff0000" points="1601.6797,-336.5001 1591.6797,-340 1601.6797,-343.5001 1601.6797,-336.5001"/>
</g>
<!-- n6&#45;&gt;n5 -->
<g id="edge84" class="edge">
<title>n6&#45;&gt;n5</title>
<path fill="none" stroke="#ff0000" d="M1735.4447,-372.1029C1715.8014,-402.054 1681.6171,-443.938 1638,-456.4 1613.6948,-463.3443 1207.3052,-463.3443 1183,-456.4 1142.5675,-444.8479 1109.2803,-409.3526 1087.9246,-380.5673"/>
<polygon fill="#ff0000" stroke="#ff0000" points="1090.6352,-378.3417 1081.9538,-372.2685 1084.953,-382.4299 1090.6352,-378.3417"/>
</g>
<!-- n6&#45;&gt;n9 -->
<g id="edge51" class="edge">
<title>n6&#45;&gt;n9</title>
<path fill="none" stroke="#ff0000" d="M1684.4993,-307.9194C1669.4323,-301.142 1653.4114,-294.6445 1638,-290 1430.6139,-227.5008 1367.5803,-264.3565 1156,-218 1151.0868,-216.9235 1146.0709,-215.7475 1141.0292,-214.502"/>
<polygon fill="#ff0000" stroke="#ff0000" points="1141.8765,-211.1062 1131.322,-212.0293 1140.1485,-217.8895 1141.8765,-211.1062"/>
</g>
<!-- n6&#45;&gt;n7 -->
<g id="edge112" class="edge">
<title>n6&#45;&gt;n7</title>
<path fill="none" stroke="#ff0000" d="M1735.4447,-372.1029C1715.8014,-402.054 1681.6171,-443.938 1638,-456.4 1613.8551,-463.2986 758.1449,-463.2986 734,-456.4 702.0684,-447.2767 675.1923,-422.3845 655.376,-397.9497"/>
<polygon fill="#ff0000" stroke="#ff0000" points="658.1137,-395.7687 649.1928,-390.053 652.6022,-400.0843 658.1137,-395.7687"/>
</g>
<!-- n6&#45;&gt;n8 -->
<g id="edge125" class="edge">
<title>n6&#45;&gt;n8</title>
<path fill="none" stroke="#ff0000" d="M1703.2395,-307.9181C1688.395,-300.9687 1671.9105,-294.3941 1656,-290 1352.4021,-206.1544 1260.3623,-277.1333 951,-218 947.1667,-217.2673 943.275,-216.4652 939.3511,-215.6084"/>
<polygon fill="#ff0000" stroke="#ff0000" points="940.0743,-212.1835 929.5465,-213.3736 938.5186,-219.0085 940.0743,-212.1835"/>
</g>
<!-- n6&#45;&gt;n24 -->
<g id="edge95" class="edge">
<title>n6&#45;&gt;n24</title>
<path fill="none" stroke="#ff0000" d="M1703.8655,-307.9044C1688.8766,-300.8656 1672.1609,-294.2529 1656,-290 1256.3656,-184.8319 1135.3568,-293.1143 729,-218 723.3948,-216.9639 717.6658,-215.7489 711.9007,-214.4091"/>
<polygon fill="#ff0000" stroke="#ff0000" points="712.7236,-211.0073 702.1798,-212.0462 711.0701,-217.8092 712.7236,-211.0073"/>
</g>
<!-- n20&#45;&gt;n1 -->
<g id="edge57" class="edge">
<title>n20&#45;&gt;n1</title>
<path fill="none" stroke="#ff0000" d="M1665.2721,-212.0622C1656.4545,-214.3916 1647.5842,-216.4507 1639,-218 1045.9539,-325.0363 879.7341,-192.7791 285,-290 255.079,-294.8912 223.0091,-302.877 194.7873,-311.0454"/>
<polygon fill="#ff0000" stroke="#ff0000" points="193.5777,-307.753 184.9752,-313.9375 195.5568,-314.4674 193.5777,-307.753"/>
</g>
<!-- n20&#45;&gt;n11 -->
<g id="edge55" class="edge">
<title>n20&#45;&gt;n11</title>
<path fill="none" stroke="#ff0000" d="M1700.6224,-212.2522C1653.8886,-238.9032 1584.3614,-280.1765 1538.3165,-308.5568"/>
<polygon fill="#ff0000" stroke="#ff0000" points="1536.3814,-305.6382 1529.7188,-313.876 1540.0644,-311.5911 1536.3814,-305.6382"/>
</g>
<!-- n20&#45;&gt;n5 -->
<g id="edge59" class="edge">
<title>n20&#45;&gt;n5</title>
<path fill="none" stroke="#ff0000" d="M1662.2958,-212.015C1654.4422,-214.201 1646.5943,-216.2429 1639,-218 1431.4012,-266.0331 1369.469,-230.026 1165,-290 1152.2995,-293.7253 1139.1638,-298.5891 1126.6817,-303.819"/>
<polygon fill="#ff0000" stroke="#ff0000" points="1125.0758,-300.7 1117.2821,-307.8769 1127.8503,-307.1267 1125.0758,-300.7"/>
</g>
<!-- n20&#45;&gt;n2 -->
<g id="edge54" class="edge">
<title>n20&#45;&gt;n2</title>
<path fill="none" stroke="#00ff00" d="M1795.2599,-159.8795C1812.462,-151.2626 1832.5962,-142.6899 1852,-138 2091.6445,-80.0786 3841.2092,-56.3845 4296.7885,-51.1584"/>
<polygon fill="#00ff00" stroke="#00ff00" points="4297.0249,-54.656 4306.9843,-51.0421 4296.945,-47.6565 4297.0249,-54.656"/>
</g>
<!-- n21&#45;&gt;n13 -->
<g id="edge64" class="edge">
<title>n21&#45;&gt;n13</title>
<path fill="none" stroke="#ff0000" d="M2123.1739,-307.9128C2108.1924,-301.1771 2092.2874,-294.6996 2077,-290 1884.2367,-230.7418 1825.466,-263.5012 1629,-218 1624.5994,-216.9808 1620.1135,-215.876 1615.6031,-214.7103"/>
<polygon fill="#ff0000" stroke="#ff0000" points="1616.2775,-211.2678 1605.7131,-212.0702 1614.4721,-218.031 1616.2775,-211.2678"/>
</g>
<!-- n21&#45;&gt;n19 -->
<g id="edge62" class="edge">
<title>n21&#45;&gt;n19</title>
<path fill="none" stroke="#ff0000" d="M2124.8005,-307.9133C2109.3963,-300.964 2092.9114,-294.3907 2077,-290 1772.1055,-205.8665 1678.9897,-280.8131 1369,-218 1363.9793,-216.9827 1358.8554,-215.8218 1353.7171,-214.5592"/>
<polygon fill="#ff0000" stroke="#ff0000" points="1354.3983,-211.1205 1343.8414,-212.0169 1352.6531,-217.8995 1354.3983,-211.1205"/>
</g>
<!-- n21&#45;&gt;n20 -->
<g id="edge61" class="edge">
<title>n21&#45;&gt;n20</title>
<path fill="none" stroke="#00ff00" d="M2128.266,-307.9986C2114.4678,-301.6734 2099.8714,-295.3454 2086,-290 1984.4662,-250.8734 1955.9116,-250.286 1852,-218 1848.8984,-217.0363 1845.7442,-216.0548 1842.559,-215.0625"/>
<polygon fill="#00ff00" stroke="#00ff00" points="1843.5212,-211.6964 1832.9326,-212.0599 1841.4368,-218.3789 1843.5212,-211.6964"/>
</g>
<!-- n21&#45;&gt;n17 -->
<g id="edge66" class="edge">
<title>n21&#45;&gt;n17</title>
<path fill="none" stroke="#ff0000" d="M2211.5553,-372.1029C2231.1986,-402.054 2265.3829,-443.938 2309,-456.4 2330.2604,-462.4744 2486.1809,-459.9816 2508,-456.4 2607.641,-440.0439 2717.2583,-398.78 2785.6076,-370.06"/>
<polygon fill="#ff0000" stroke="#ff0000" points="2787.129,-373.2167 2794.9728,-366.0946 2784.3996,-366.7707 2787.129,-373.2167"/>
</g>
<!-- n22&#45;&gt;n13 -->
<g id="edge70" class="edge">
<title>n22&#45;&gt;n13</title>
<path fill="none" stroke="#ff0000" d="M2338.7787,-307.9916C2323.3752,-301.0402 2306.896,-294.4462 2291,-290 2005.9821,-210.2785 1918.9351,-277.4001 1629,-218 1623.9943,-216.9745 1618.8854,-215.8127 1613.7601,-214.5546"/>
<polygon fill="#ff0000" stroke="#ff0000" points="1614.4625,-211.1215 1603.9064,-212.0266 1612.7229,-217.9019 1614.4625,-211.1215"/>
</g>
<!-- n22&#45;&gt;n18 -->
<g id="edge69" class="edge">
<title>n22&#45;&gt;n18</title>
<path fill="none" stroke="#00ff00" d="M2505.0726,-316.427C2590.9584,-293.5635 2706.1386,-256.7332 2733,-218 2743.131,-203.3914 2745.1865,-150.9437 2733,-138 2686.7977,-88.9271 1712.1305,-60.6909 1382.1251,-52.5097"/>
<polygon fill="#00ff00" stroke="#00ff00" points="1382.161,-49.0096 1372.0777,-52.2619 1381.9883,-56.0075 1382.161,-49.0096"/>
</g>
<!-- n22&#45;&gt;n17 -->
<g id="edge72" class="edge">
<title>n22&#45;&gt;n17</title>
<path fill="none" stroke="#ff0000" d="M2505.4336,-340C2585.1808,-340 2664.928,-340 2744.6752,-340"/>
<polygon fill="#ff0000" stroke="#ff0000" points="2744.9076,-343.5001 2754.9075,-340 2744.9075,-336.5001 2744.9076,-343.5001"/>
</g>
<!-- n23&#45;&gt;n13 -->
<g id="edge76" class="edge">
<title>n23&#45;&gt;n13</title>
<path fill="none" stroke="#ff0000" d="M1887.1995,-301.9549C1877.3987,-297.7357 1867.526,-293.6507 1858,-290 1846.3952,-285.5526 1713.0488,-244.2642 1620.7623,-215.0716"/>
<polygon fill="#ff0000" stroke="#ff0000" points="1621.716,-211.7023 1611.1259,-212.0199 1619.6026,-218.3757 1621.716,-211.7023"/>
</g>
<!-- n23&#45;&gt;n19 -->
<g id="edge78" class="edge">
<title>n23&#45;&gt;n19</title>
<path fill="none" stroke="#ff0000" d="M1891.3252,-301.9498C1880.2712,-297.4175 1868.9787,-293.2539 1858,-290 1647.3794,-227.576 1583.2688,-266.4423 1369,-218 1364.405,-216.9612 1359.7184,-215.8211 1355.0099,-214.6093"/>
<polygon fill="#ff0000" stroke="#ff0000" points="1355.9009,-211.2246 1345.3367,-212.0308 1354.0978,-217.9885 1355.9009,-211.2246"/>
</g>
<!-- n23&#45;&gt;n25 -->
<g id="edge104" class="edge">
<title>n23&#45;&gt;n25</title>
<path fill="none" stroke="#ff0000" d="M1952.7884,-378.1277C1932.2135,-407.3732 1899.0882,-444.6605 1858,-456.4 1833.7749,-463.3214 975.2251,-463.3214 951,-456.4 908.0048,-444.1156 873.5115,-404.1597 852.9492,-374.4691"/>
<polygon fill="#ff0000" stroke="#ff0000" points="855.7522,-372.3649 847.2724,-366.0132 849.9404,-376.2666 855.7522,-372.3649"/>
</g>
<!-- n23&#45;&gt;n17 -->
<g id="edge74" class="edge">
<title>n23&#45;&gt;n17</title>
<path fill="none" stroke="#ff0000" d="M1999.4989,-378.101C2020.3014,-407.3307 2053.735,-444.61 2095,-456.4 2117.0616,-462.7033 2485.3586,-460.1166 2508,-456.4 2607.641,-440.0439 2717.2583,-398.78 2785.6076,-370.06"/>
<polygon fill="#ff0000" stroke="#ff0000" points="2787.129,-373.2167 2794.9728,-366.0946 2784.3996,-366.7707 2787.129,-373.2167"/>
</g>
<!-- n7&#45;&gt;n0 -->
<g id="edge113" class="edge">
<title>n7&#45;&gt;n0</title>
<path fill="none" stroke="#ff0000" d="M574.2337,-390.155C554.7433,-412.4698 529.9882,-436.8152 502,-450.8 454.6831,-474.4427 322.7117,-487.4026 226.1729,-494.0017"/>
<polygon fill="#ff0000" stroke="#ff0000" points="225.8059,-490.5184 216.0621,-494.6787 226.2735,-497.5028 225.8059,-490.5184"/>
</g>
<!-- n7&#45;&gt;n1 -->
<g id="edge107" class="edge">
<title>n7&#45;&gt;n1</title>
<path fill="none" stroke="#ff0000" d="M586.8072,-390.053C566.5659,-416.8118 537.3874,-446.2893 502,-456.4 480.7396,-462.4744 324.2742,-462.4256 303,-456.4 245.434,-440.0954 188.1762,-400.7541 152.0262,-372.3155"/>
<polygon fill="#ff0000" stroke="#ff0000" points="154.1943,-369.5678 144.1953,-366.0648 149.8274,-375.0387 154.1943,-369.5678"/>
</g>
<!-- n7&#45;&gt;n11 -->
<g id="edge105" class="edge">
<title>n7&#45;&gt;n11</title>
<path fill="none" stroke="#ff0000" d="M649.1928,-390.053C669.4341,-416.8118 698.6126,-446.2893 734,-456.4 751.1739,-461.3068 1359.8261,-461.3068 1377,-456.4 1419.0817,-444.3766 1451.9392,-404.3662 1471.3503,-374.5916"/>
<polygon fill="#ff0000" stroke="#ff0000" points="1474.3255,-376.4352 1476.7015,-366.1103 1468.4053,-372.7 1474.3255,-376.4352"/>
</g>
<!-- n7&#45;&gt;n5 -->
<g id="edge109" class="edge">
<title>n7&#45;&gt;n5</title>
<path fill="none" stroke="#ff0000" d="M649.1928,-390.053C669.4341,-416.8118 698.6126,-446.2893 734,-456.4 755.2604,-462.4744 911.7396,-462.4744 933,-456.4 975.0217,-444.3938 1010.7967,-408.6964 1033.9366,-379.9684"/>
<polygon fill="#ff0000" stroke="#ff0000" points="1036.7085,-382.1055 1040.1229,-372.0759 1031.1992,-377.7872 1036.7085,-382.1055"/>
</g>
<!-- n7&#45;&gt;n9 -->
<g id="edge47" class="edge">
<title>n7&#45;&gt;n9</title>
<path fill="none" stroke="#ff0000" d="M715.7133,-290.1117C715.8089,-290.0744 715.9045,-290.0372 716,-290 758.8075,-273.3365 868.2532,-239.4628 951.3524,-214.8907"/>
<polygon fill="#ff0000" stroke="#ff0000" points="952.4922,-218.2037 961.0934,-212.0174 950.5117,-211.4897 952.4922,-218.2037"/>
</g>
<!-- n7&#45;&gt;n6 -->
<g id="edge111" class="edge">
<title>n7&#45;&gt;n6</title>
<path fill="none" stroke="#ff0000" d="M649.1928,-390.053C669.4341,-416.8118 698.6126,-446.2893 734,-456.4 758.1449,-463.2986 1613.8551,-463.2986 1638,-456.4 1677.6984,-445.0576 1709.5828,-409.3425 1729.8018,-380.4346"/>
<polygon fill="#ff0000" stroke="#ff0000" points="1732.7349,-382.3453 1735.4447,-372.1029 1726.939,-378.4199 1732.7349,-382.3453"/>
</g>
<!-- n7&#45;&gt;n8 -->
<g id="edge127" class="edge">
<title>n7&#45;&gt;n8</title>
<path fill="none" stroke="#ff0000" d="M680.4243,-289.7877C709.0091,-268.4697 742.6556,-244.0221 770.7232,-224.2112"/>
<polygon fill="#ff0000" stroke="#ff0000" points="773.076,-226.8355 779.243,-218.2204 769.0496,-221.1094 773.076,-226.8355"/>
</g>
<!-- n8&#45;&gt;n0 -->
<g id="edge128" class="edge">
<title>n8&#45;&gt;n0</title>
<path fill="none" stroke="#ff0000" d="M728.4237,-215.8094C725.2525,-216.5728 722.1055,-217.3055 719,-218 519.1971,-262.6836 416.1256,-152.9758 264,-290 209.0327,-339.5108 268.4852,-394.0737 221,-450.8 217.6928,-454.7508 213.9974,-458.4034 210.0245,-461.7779"/>
<polygon fill="#ff0000" stroke="#ff0000" points="207.8396,-459.043 202.0713,-467.9299 212.1225,-464.5799 207.8396,-459.043"/>
</g>
<!-- n8&#45;&gt;n1 -->
<g id="edge120" class="edge">
<title>n8&#45;&gt;n1</title>
<path fill="none" stroke="#ff0000" d="M728.4265,-213.6707C722.2035,-215.2285 716.0248,-216.6903 710,-218 493.6183,-265.0388 429.6612,-228.2839 217,-290 199.6484,-295.0356 181.4955,-302.2257 165.3062,-309.589"/>
<polygon fill="#ff0000" stroke="#ff0000" points="163.5986,-306.5237 156.022,-313.9295 166.5632,-312.8649 163.5986,-306.5237"/>
</g>
<!-- n8&#45;&gt;n11 -->
<g id="edge118" class="edge">
<title>n8&#45;&gt;n11</title>
<path fill="none" stroke="#ff0000" d="M929.7011,-217.2585C930.8053,-217.5098 931.9052,-217.7571 933,-218 1128.1639,-261.3068 1186.1713,-230.4276 1377,-290 1393.2723,-295.0798 1410.2321,-302.2475 1425.9789,-309.5733"/>
<polygon fill="#ff0000" stroke="#ff0000" points="1424.56,-312.7739 1435.0959,-313.8903 1427.5558,-306.4473 1424.56,-312.7739"/>
</g>
<!-- n8&#45;&gt;n5 -->
<g id="edge122" class="edge">
<title>n8&#45;&gt;n5</title>
<path fill="none" stroke="#ff0000" d="M871.8971,-218.0547C907.6815,-242.6508 959.0431,-276.6611 999.4003,-302.5168"/>
<polygon fill="#ff0000" stroke="#ff0000" points="997.5238,-305.4712 1007.8356,-307.904 1001.2916,-299.5717 997.5238,-305.4712"/>
</g>
<!-- n8&#45;&gt;n9 -->
<g id="edge43" class="edge">
<title>n8&#45;&gt;n9</title>
<path fill="none" stroke="#ff0000" d="M929.6406,-186C934.3589,-186 939.0773,-186 943.7956,-186"/>
<polygon fill="#ff0000" stroke="#ff0000" points="944.1249,-189.5001 954.1249,-186 944.1248,-182.5001 944.1249,-189.5001"/>
</g>
<!-- n8&#45;&gt;n6 -->
<g id="edge124" class="edge">
<title>n8&#45;&gt;n6</title>
<path fill="none" stroke="#ff0000" d="M929.6819,-217.3515C930.7922,-217.5732 931.8985,-217.7895 933,-218 1242.3623,-277.1333 1334.4021,-206.1544 1638,-290 1650.6787,-293.5015 1663.7219,-298.3877 1676.2924,-303.7448"/>
<polygon fill="#ff0000" stroke="#ff0000" points="1675.2357,-307.1033 1685.7992,-307.9181 1678.0494,-300.6937 1675.2357,-307.1033"/>
</g>
<!-- n8&#45;&gt;n7 -->
<g id="edge126" class="edge">
<title>n8&#45;&gt;n7</title>
<path fill="none" stroke="#ff0000" d="M790.4646,-218.2204C765.515,-237.2317 732.1238,-261.8245 701.3498,-283.9276"/>
<polygon fill="#ff0000" stroke="#ff0000" points="699.261,-281.1185 693.1703,-289.7877 703.3378,-286.8089 699.261,-281.1185"/>
</g>
<!-- n24&#45;&gt;n1 -->
<g id="edge90" class="edge">
<title>n24&#45;&gt;n1</title>
<path fill="none" stroke="#ff0000" d="M513.9444,-206.2362C433.0706,-224.8257 316.0736,-254.7833 217,-290 200.9659,-295.6995 184.0283,-302.7129 168.5876,-309.6646"/>
<polygon fill="#ff0000" stroke="#ff0000" points="166.8206,-306.6243 159.1884,-313.9728 169.7374,-312.9877 166.8206,-306.6243"/>
</g>
<!-- n24&#45;&gt;n11 -->
<g id="edge88" class="edge">
<title>n24&#45;&gt;n11</title>
<path fill="none" stroke="#ff0000" d="M685.2138,-212.0089C693.8364,-214.2531 702.5634,-216.3085 711,-218 1002.9152,-276.5279 1090.5477,-208.8516 1377,-290 1393.8073,-294.7613 1411.2472,-302.0154 1427.3199,-309.5334"/>
<polygon fill="#ff0000" stroke="#ff0000" points="1426.0783,-312.8192 1436.6101,-313.9735 1429.0969,-306.5034 1426.0783,-312.8192"/>
</g>
<!-- n24&#45;&gt;n5 -->
<g id="edge92" class="edge">
<title>n24&#45;&gt;n5</title>
<path fill="none" stroke="#ff0000" d="M690.9411,-212.0712C770.6051,-237.1289 887.9292,-273.5456 933,-290 944.9105,-294.3483 957.3726,-299.1961 969.6656,-304.1147"/>
<polygon fill="#ff0000" stroke="#ff0000" points="968.4377,-307.3933 979.0213,-307.8827 971.0529,-300.9001 968.4377,-307.3933"/>
</g>
<!-- n24&#45;&gt;n6 -->
<g id="edge94" class="edge">
<title>n24&#45;&gt;n6</title>
<path fill="none" stroke="#ff0000" d="M684.2808,-212.0462C693.1993,-214.3293 702.2504,-216.3826 711,-218 1117.3568,-293.1143 1238.3656,-184.8319 1638,-290 1651.0045,-293.4223 1664.3682,-298.3725 1677.205,-303.8433"/>
<polygon fill="#ff0000" stroke="#ff0000" points="1675.8832,-307.0854 1686.4463,-307.9044 1678.6994,-300.6769 1675.8832,-307.0854"/>
</g>
<!-- n25&#45;&gt;n13 -->
<g id="edge99" class="edge">
<title>n25&#45;&gt;n13</title>
<path fill="none" stroke="#ff0000" d="M873.3934,-313.9527C891.3201,-305.2101 912.7199,-296.1335 933,-290 1124.351,-232.1275 1180.5947,-255.2745 1377,-218 1391.6295,-215.2236 1407.0336,-212.0967 1422.2411,-208.9132"/>
<polygon fill="#ff0000" stroke="#ff0000" points="1423.1324,-212.3023 1432.1961,-206.8161 1421.6894,-205.4526 1423.1324,-212.3023"/>
</g>
<!-- n25&#45;&gt;n19 -->
<g id="edge97" class="edge">
<title>n25&#45;&gt;n19</title>
<path fill="none" stroke="#ff0000" d="M877.1701,-313.9891C894.4375,-305.8353 914.3849,-297.1154 933,-290 976.1453,-273.5083 1086.239,-239.6011 1169.8053,-214.9743"/>
<polygon fill="#ff0000" stroke="#ff0000" points="1170.9941,-218.273 1179.6008,-212.0944 1169.0196,-211.5572 1170.9941,-218.273"/>
</g>
<!-- n25&#45;&gt;n23 -->
<g id="edge103" class="edge">
<title>n25&#45;&gt;n23</title>
<path fill="none" stroke="#ff0000" d="M847.2724,-366.0132C866.7845,-396.0018 903.7606,-442.903 951,-456.4 975.2251,-463.3214 1833.7749,-463.3214 1858,-456.4 1895.2362,-445.7611 1925.9325,-414.14 1946.6746,-386.5373"/>
<polygon fill="#ff0000" stroke="#ff0000" points="1949.739,-388.2742 1952.7884,-378.1277 1944.0771,-384.158 1949.739,-388.2742"/>
</g>
<!-- n25&#45;&gt;n24 -->
<g id="edge96" class="edge">
<title>n25&#45;&gt;n24</title>
<path fill="none" stroke="#00ff00" d="M794.68,-313.876C756.9112,-287.4378 698.451,-246.5157 657.876,-218.1132"/>
<polygon fill="#00ff00" stroke="#00ff00" points="659.7025,-215.1195 649.5031,-212.2522 655.6883,-220.8541 659.7025,-215.1195"/>
</g>
<!-- n25&#45;&gt;n17 -->
<g id="edge101" class="edge">
<title>n25&#45;&gt;n17</title>
<path fill="none" stroke="#ff0000" d="M847.2724,-366.0132C866.7845,-396.0018 903.7606,-442.903 951,-456.4 971.793,-462.3408 2486.6606,-459.9029 2508,-456.4 2607.641,-440.0439 2717.2583,-398.78 2785.6076,-370.06"/>
<polygon fill="#ff0000" stroke="#ff0000" points="2787.129,-373.2167 2794.9728,-366.0946 2784.3996,-366.7707 2787.129,-373.2167"/>
</g>
<!-- n26 -->
<g id="node27" class="node">
<title>n26</title>
<path fill="#ffffff" stroke="#eedd82" stroke-width="2" d="M490,-372C490,-372 318,-372 318,-372 312,-372 306,-366 306,-360 306,-360 306,-320 306,-320 306,-314 312,-308 318,-308 318,-308 490,-308 490,-308 496,-308 502,-314 502,-320 502,-320 502,-360 502,-360 502,-366 496,-372 490,-372"/>
<text text-anchor="start" x="341.213" y="-358" font-family="arial" font-weight="bold" font-size="10.00" fill="#000000">Main part of the Culm as ML</text>
<text text-anchor="start" x="325.092" y="-341" font-family="arial" font-size="10.00" fill="#000000">In Devon, the main part of the Culm</text>
<text text-anchor="start" x="323.7015" y="-329" font-family="arial" font-size="10.00" fill="#000000"> strata is Mountain Limestone in age</text>
<text text-anchor="start" x="363.157" y="-317" font-family="arial" font-size="10.00" fill="#000000"> #DEV #chron&#45;hyp</text>
</g>
<!-- n26&#45;&gt;n24 -->
<g id="edge115" class="edge">
<title>n26&#45;&gt;n24</title>
<path fill="none" stroke="#00ff00" d="M447.3504,-307.904C482.8425,-281.6263 532.8202,-244.6235 568.3842,-218.2925"/>
<polygon fill="#00ff00" stroke="#00ff00" points="570.6905,-220.9399 576.6448,-212.1765 566.5252,-215.314 570.6905,-220.9399"/>
</g>
<!-- n26&#45;&gt;n16 -->
<g id="edge116" class="edge">
<title>n26&#45;&gt;n16</title>
<path fill="none" stroke="#ff0000" d="M422.5553,-372.1029C442.1986,-402.054 476.3829,-443.938 520,-456.4 536.2324,-461.0378 2934.7676,-461.0378 2951,-456.4 2990.6984,-445.0576 3022.5828,-409.3425 3042.8018,-380.4346"/>
<polygon fill="#ff0000" stroke="#ff0000" points="3045.7349,-382.3453 3048.4447,-372.1029 3039.939,-378.4199 3045.7349,-382.3453"/>
</g>
<!-- n14&#45;&gt;n11 -->
<g id="edge11" class="edge">
<title>n14&#45;&gt;n11</title>
<path fill="none" stroke="#ff0000" d="M2769.9729,-212.0396C2761.2513,-214.3565 2752.484,-216.4189 2744,-218 2255.8169,-308.9759 2116.063,-193.2068 1629,-290 1604.8242,-294.8044 1579.1649,-302.5556 1556.5761,-310.5355"/>
<polygon fill="#ff0000" stroke="#ff0000" points="1555.3115,-307.2709 1547.0965,-313.9616 1557.6908,-313.8542 1555.3115,-307.2709"/>
</g>
<!-- n15&#45;&gt;n1 -->
<g id="edge14" class="edge">
<title>n15&#45;&gt;n1</title>
<path fill="none" stroke="#ff0000" d="M3266.3111,-366.0717C3247.4862,-396.1179 3211.6346,-443.0758 3165,-456.4 3145.8897,-461.8601 322.1228,-461.8162 303,-456.4 245.434,-440.0954 188.1762,-400.7541 152.0262,-372.3155"/>
<polygon fill="#ff0000" stroke="#ff0000" points="154.1943,-369.5678 144.1953,-366.0648 149.8274,-375.0387 154.1943,-369.5678"/>
</g>
<!-- n15&#45;&gt;n14 -->
<g id="edge13" class="edge">
<title>n15&#45;&gt;n14</title>
<path fill="none" stroke="#ff0000" d="M3217.3742,-308.7182C3203.2349,-302.203 3188.2205,-295.6164 3174,-290 3102.3396,-261.6977 3019.5723,-234.8787 2956.305,-215.5655"/>
<polygon fill="#ff0000" stroke="#ff0000" points="3217.6201,-308.8329 3224.7488,-307.7458 3228.4941,-313.908 3221.3654,-314.9951 3217.6201,-308.8329"/>
<polygon fill="#ff0000" stroke="#ff0000" points="2956.2075,-215.5359 2949.3039,-217.6193 2944.7256,-212.048 2951.6292,-209.9646 2956.2075,-215.5359"/>
</g>
<!-- n16&#45;&gt;n12 -->
<g id="edge18" class="edge">
<title>n16&#45;&gt;n12</title>
<path fill="none" stroke="#ff0000" d="M2993.4773,-307.9809C2979.4742,-301.6569 2964.8759,-295.334 2951,-290 2874.6663,-260.6569 2786.2805,-233.8312 2720.0083,-214.7761"/>
<polygon fill="#ff0000" stroke="#ff0000" points="2720.9722,-211.4115 2710.3949,-212.0217 2719.0441,-218.1408 2720.9722,-211.4115"/>
</g>
<!-- n16&#45;&gt;n26 -->
<g id="edge117" class="edge">
<title>n16&#45;&gt;n26</title>
<path fill="none" stroke="#ff0000" d="M3048.4447,-372.1029C3028.8014,-402.054 2994.6171,-443.938 2951,-456.4 2934.7676,-461.0378 536.2324,-461.0378 520,-456.4 480.3016,-445.0576 448.4172,-409.3425 428.1982,-380.4346"/>
<polygon fill="#ff0000" stroke="#ff0000" points="431.061,-378.4199 422.5553,-372.1029 425.2651,-382.3453 431.061,-378.4199"/>
</g>
<!-- n16&#45;&gt;n14 -->
<g id="edge16" class="edge">
<title>n16&#45;&gt;n14</title>
<path fill="none" stroke="#00ff00" d="M3022.8159,-307.904C2986.6413,-281.6263 2935.7024,-244.6235 2899.4545,-218.2925"/>
<polygon fill="#00ff00" stroke="#00ff00" points="2901.1828,-215.2219 2891.0351,-212.1765 2897.0688,-220.8854 2901.1828,-215.2219"/>
</g>
<!-- n17&#45;&gt;n13 -->
<g id="edge22" class="edge">
<title>n17&#45;&gt;n13</title>
<path fill="none" stroke="#ff0000" d="M2754.8463,-324.8459C2685.8074,-313.9727 2591.3414,-299.6037 2508,-290 2118.6018,-245.1284 2014.0116,-291.5561 1629,-218 1623.677,-216.983 1618.2409,-215.7971 1612.7949,-214.4924"/>
<polygon fill="#ff0000" stroke="#ff0000" points="1613.5556,-211.0748 1603.0036,-212.0263 1611.8459,-217.8628 1613.5556,-211.0748"/>
</g>
<!-- n17&#45;&gt;n19 -->
<g id="edge36" class="edge">
<title>n17&#45;&gt;n19</title>
<path fill="none" stroke="#ff0000" d="M2754.897,-324.3865C2685.8835,-313.2835 2591.4271,-298.8282 2508,-290 2003.5837,-236.6228 1867.9635,-309.2159 1369,-218 1363.5993,-217.0127 1358.0845,-215.8371 1352.5643,-214.5288"/>
<polygon fill="#ff0000" stroke="#ff0000" points="1353.1964,-211.079 1342.6454,-212.0424 1351.4943,-217.869 1353.1964,-211.079"/>
</g>
<!-- n17&#45;&gt;n21 -->
<g id="edge67" class="edge">
<title>n17&#45;&gt;n21</title>
<path fill="none" stroke="#ff0000" d="M2794.9728,-366.0946C2727.592,-394.8432 2612.3276,-439.2746 2508,-456.4 2486.1809,-459.9816 2330.2604,-462.4744 2309,-456.4 2269.3016,-445.0576 2237.4172,-409.3425 2217.1982,-380.4346"/>
<polygon fill="#ff0000" stroke="#ff0000" points="2220.061,-378.4199 2211.5553,-372.1029 2214.2651,-382.3453 2220.061,-378.4199"/>
</g>
<!-- n17&#45;&gt;n22 -->
<g id="edge73" class="edge">
<title>n17&#45;&gt;n22</title>
<path fill="none" stroke="#ff0000" d="M2754.9075,-340C2675.1603,-340 2595.4131,-340 2515.6659,-340"/>
<polygon fill="#ff0000" stroke="#ff0000" points="2515.4336,-336.5001 2505.4336,-340 2515.4336,-343.5001 2515.4336,-336.5001"/>
</g>
<!-- n17&#45;&gt;n23 -->
<g id="edge75" class="edge">
<title>n17&#45;&gt;n23</title>
<path fill="none" stroke="#ff0000" d="M2794.9728,-366.0946C2727.592,-394.8432 2612.3276,-439.2746 2508,-456.4 2485.3586,-460.1166 2117.0616,-462.7033 2095,-456.4 2057.6036,-445.7153 2026.6391,-414.0966 2005.6787,-386.5064"/>
<polygon fill="#ff0000" stroke="#ff0000" points="2008.2423,-384.0846 1999.4989,-378.101 2002.6025,-388.231 2008.2423,-384.0846"/>
</g>
<!-- n17&#45;&gt;n25 -->
<g id="edge102" class="edge">
<title>n17&#45;&gt;n25</title>
<path fill="none" stroke="#ff0000" d="M2794.9728,-366.0946C2727.592,-394.8432 2612.3276,-439.2746 2508,-456.4 2486.6606,-459.9029 971.793,-462.3408 951,-456.4 908.0048,-444.1156 873.5115,-404.1597 852.9492,-374.4691"/>
<polygon fill="#ff0000" stroke="#ff0000" points="855.7522,-372.3649 847.2724,-366.0132 849.9404,-376.2666 855.7522,-372.3649"/>
</g>
<!-- n17&#45;&gt;n14 -->
<g id="edge20" class="edge">
<title>n17&#45;&gt;n14</title>
<path fill="none" stroke="#00ff00" d="M2853.3393,-313.876C2853.6654,-288.7653 2854.1612,-250.5885 2854.5262,-222.4827"/>
<polygon fill="#00ff00" stroke="#00ff00" points="2858.0288,-222.2968 2854.6591,-212.2522 2851.0294,-222.2058 2858.0288,-222.2968"/>
</g>
<!-- n32 -->
<g id="node32" class="node">
<title>n32</title>
<path fill="#ffffff" stroke="#f4a460" stroke-width="2" d="M4846,-538C4846,-538 4670,-538 4670,-538 4664,-538 4658,-532 4658,-526 4658,-526 4658,-474 4658,-474 4658,-468 4664,-462 4670,-462 4670,-462 4846,-462 4846,-462 4852,-462 4858,-468 4858,-474 4858,-474 4858,-526 4858,-526 4858,-532 4852,-538 4846,-538"/>
<text text-anchor="start" x="4681.8685" y="-524" font-family="arial" font-weight="bold" font-size="10.00" fill="#000000">Exmoor Youngest Devonian strata</text>
<text text-anchor="start" x="4678.812" y="-507" font-family="arial" font-size="10.00" fill="#000000">In Devon, among all the strata older</text>
<text text-anchor="start" x="4667.6885" y="-495" font-family="arial" font-size="10.00" fill="#000000"> than the New Red Sandstone, the strata</text>
<text text-anchor="start" x="4680.1995" y="-483" font-family="arial" font-size="10.00" fill="#000000"> of Exmoor are the youngest #GRE</text>
<text text-anchor="start" x="4731.6045" y="-471" font-family="arial" font-size="10.00" fill="#000000"> #chron&#45;hyp</text>
</g>
<!-- n33 -->
<g id="node33" class="node">
<title>n33</title>
<path fill="#ffffff" stroke="#ffc1c1" stroke-width="2" d="M4849.5,-372C4849.5,-372 4666.5,-372 4666.5,-372 4660.5,-372 4654.5,-366 4654.5,-360 4654.5,-360 4654.5,-320 4654.5,-320 4654.5,-314 4660.5,-308 4666.5,-308 4666.5,-308 4849.5,-308 4849.5,-308 4855.5,-308 4861.5,-314 4861.5,-320 4861.5,-320 4861.5,-360 4861.5,-360 4861.5,-366 4855.5,-372 4849.5,-372"/>
<text text-anchor="start" x="4687.0935" y="-358" font-family="arial" font-weight="bold" font-size="10.00" fill="#000000">Culm Youngest Devonian Strata</text>
<text text-anchor="start" x="4679.312" y="-341" font-family="arial" font-size="10.00" fill="#000000">In Devon, among all the strata older</text>
<text text-anchor="start" x="4669.028" y="-329" font-family="arial" font-size="10.00" fill="#000000"> than the New Red Sandstone, the Culm</text>
<text text-anchor="start" x="4664.5825" y="-317" font-family="arial" font-size="10.00" fill="#000000"> strata are the youngest #COA #chron&#45;hyp</text>
</g>
<!-- n32&#45;&gt;n33 -->
<g id="edge154" class="edge">
<title>n32&#45;&gt;n33</title>
<path fill="none" stroke="#ff0000" d="M4752.1408,-461.676C4751.0134,-437.7314 4750.9561,-406.8758 4751.9689,-382.2286"/>
<polygon fill="#ff0000" stroke="#ff0000" points="4755.4723,-382.2439 4752.4684,-372.0838 4748.4808,-381.8996 4755.4723,-382.2439"/>
</g>
<!-- n33&#45;&gt;n32 -->
<g id="edge153" class="edge">
<title>n33&#45;&gt;n32</title>
<path fill="none" stroke="#ff0000" d="M4763.5316,-372.0838C4764.8559,-394.7905 4765.1007,-425.6519 4764.2658,-451.3724"/>
<polygon fill="#ff0000" stroke="#ff0000" points="4760.7563,-451.5458 4763.8592,-461.676 4767.7508,-451.8218 4760.7563,-451.5458"/>
</g>
<!-- n2&#45;&gt;n0 -->
<g id="edge3" class="edge">
<title>n2&#45;&gt;n0</title>
<path fill="none" stroke="#ff0000" d="M4503.0366,-69.7507C4540.5926,-82.6087 4579.7325,-103.665 4602,-138 4639.8227,-196.3202 4650.8815,-401.3794 4602,-450.8 4562.2979,-490.9399 911.5665,-498.7322 226.2134,-499.8418"/>
<polygon fill="#ff0000" stroke="#ff0000" points="226.0915,-496.3419 216.0972,-499.858 226.1028,-503.3419 226.0915,-496.3419"/>
</g>
</g>
</svg>
