
<!-- Generated by graphviz version 2.40.1 (20161225.0304)
 -->
<!-- Title: Argument Map Pages: 1 -->
<svg width="242pt" height="250pt"
 viewBox="0.00 0.00 242.00 250.40" xmlns="http://www.w3.org/2000/svg" xmlns:xlink="http://www.w3.org/1999/xlink">
<g id="graph0" class="graph" transform="scale(1 1) rotate(0) translate(4 246.4)">
<title>Argument Map</title>
<g id="clust1" class="cluster">
<title>cluster_1</title>
<polygon fill="#ffff00" stroke="#ffff00" points="9,-132 9,-234.4 225,-234.4 225,-132 9,-132"/>
<text text-anchor="start" x="70.3272" y="-219.6" font-family="arial" font-size="12.00" fill="#000000">Rival Hypotheses</text>
</g>
<g id="clust2" class="cluster">
<title>cluster_2</title>
<polygon fill="#bfefff" stroke="#bfefff" points="8,-8 8,-98.4 226,-98.4 226,-8 8,-8"/>
<text text-anchor="start" x="67.3248" y="-83.6" font-family="arial" font-size="12.00" fill="#000000">Dating of the Culm</text>
</g>
<!-- n0 -->
<g id="node1" class="node">
<title>n0</title>
<path fill="#ffffff" stroke="#f4a460" stroke-width="2" d="M205,-204C205,-204 29,-204 29,-204 23,-204 17,-198 17,-192 17,-192 17,-152 17,-152 17,-146 23,-140 29,-140 29,-140 205,-140 205,-140 211,-140 217,-146 217,-152 217,-152 217,-192 217,-192 217,-198 211,-204 205,-204"/>
<text text-anchor="start" x="61.99" y="-190" font-family="arial" font-weight="bold" font-size="10.00" fill="#000000">Devonian Strata as CAM</text>
<text text-anchor="start" x="40.3125" y="-173" font-family="arial" font-size="10.00" fill="#000000">In Devon, all the strata &#45; older than</text>
<text text-anchor="start" x="26.703" y="-161" font-family="arial" font-size="10.00" fill="#000000"> the New Red Sandstone &#45; are Cambrian</text>
<text text-anchor="start" x="60.5955" y="-149" font-family="arial" font-size="10.00" fill="#000000"> in age #GRE #chron&#45;hyp</text>
</g>
<!-- n1 -->
<g id="node2" class="node">
<title>n1</title>
<path fill="#ffffff" stroke="#f4a460" stroke-width="2" d="M205.5,-68C205.5,-68 28.5,-68 28.5,-68 22.5,-68 16.5,-62 16.5,-56 16.5,-56 16.5,-28 16.5,-28 16.5,-22 22.5,-16 28.5,-16 28.5,-16 205.5,-16 205.5,-16 211.5,-16 217.5,-22 217.5,-28 217.5,-28 217.5,-56 217.5,-56 217.5,-62 211.5,-68 205.5,-68"/>
<text text-anchor="start" x="86.67" y="-54" font-family="arial" font-weight="bold" font-size="10.00" fill="#000000">Culm as CAM</text>
<text text-anchor="start" x="26.653" y="-37" font-family="arial" font-size="10.00" fill="#000000">The whole Culm strata of Devonshire are</text>
<text text-anchor="start" x="38.04" y="-25" font-family="arial" font-size="10.00" fill="#000000"> Cambrian in age #GRE #chron&#45;hyp</text>
</g>
<!-- n0&#45;&gt;n1 -->
<g id="edge1" class="edge">
<title>n0&#45;&gt;n1</title>
<path fill="none" stroke="#00ff00" d="M117,-139.8652C117,-121.2136 117,-97.6627 117,-78.3381"/>
<polygon fill="#00ff00" stroke="#00ff00" points="120.5001,-78.0949 117,-68.0949 113.5001,-78.095 120.5001,-78.0949"/>
</g>
</g>
</svg>
