
<!-- Generated by graphviz version 2.40.1 (20161225.0304)
 -->
<!-- Title: Argument Map Pages: 1 -->
<svg width="720pt" height="205pt"
 viewBox="0.00 0.00 720.00 205.31" xmlns="http://www.w3.org/2000/svg" xmlns:xlink="http://www.w3.org/1999/xlink">
<g id="graph0" class="graph" transform="scale(.3592 .3592) rotate(0) translate(4 567.6)">
<title>Argument Map</title>
<g id="clust1" class="cluster">
<title>cluster_1</title>
<polygon fill="#ffff00" stroke="#ffff00" points="502.4985,-286.8 502.4985,-525.2 718.4985,-525.2 718.4985,-286.8 502.4985,-286.8"/>
<text text-anchor="start" x="563.8257" y="-510.4" font-family="arial" font-size="12.00" fill="#000000">Rival Hypotheses</text>
</g>
<g id="clust2" class="cluster">
<title>cluster_2</title>
<polygon fill="#f0f8ff" stroke="#f0f8ff" points="1110.4985,-140 1110.4985,-555.6 1756.4985,-555.6 1756.4985,-140 1110.4985,-140"/>
<text text-anchor="start" x="1353.1519" y="-540.8" font-family="arial" font-size="12.00" fill="#000000">Dating of the Non&#45;Culm Strata</text>
</g>
<g id="clust3" class="cluster">
<title>cluster_3</title>
<polygon fill="#f5f5dc" stroke="#f5f5dc" points="1322.4985,-280.8 1322.4985,-525.2 1748.4985,-525.2 1748.4985,-280.8 1322.4985,-280.8"/>
<text text-anchor="start" x="1470.1639" y="-510.4" font-family="arial" font-size="12.00" fill="#000000">Some NON&#45;Culm as SIL</text>
</g>
<g id="clust4" class="cluster">
<title>cluster_4</title>
<polygon fill="#bfefff" stroke="#bfefff" points="21.4985,-8 21.4985,-272.8 1102.4985,-272.8 1102.4985,-8 21.4985,-8"/>
<text text-anchor="start" x="512.3233" y="-258" font-family="arial" font-size="12.00" fill="#000000">Dating of the Culm</text>
</g>
<g id="clust5" class="cluster">
<title>cluster_5</title>
<polygon fill="#f5f5dc" stroke="#f5f5dc" points="29.4985,-16 29.4985,-242.4 669.4985,-242.4 669.4985,-16 29.4985,-16"/>
<text text-anchor="start" x="316.5039" y="-227.6" font-family="arial" font-size="12.00" fill="#000000">Culm as CM</text>
</g>
<g id="clust6" class="cluster">
<title>cluster_6</title>
<polygon fill="#e6e6fa" stroke="#e6e6fa" points="1764.4985,-280.8 1764.4985,-531.2 1988.4985,-531.2 1988.4985,-280.8 1764.4985,-280.8"/>
<text text-anchor="start" x="1806.4737" y="-516.4" font-family="arial" font-size="12.00" fill="#000000">Youngest Devonian Strata</text>
</g>
<!-- n0 -->
<g id="node1" class="node">
<title>n0</title>
<path fill="#ffffff" stroke="#f4a460" stroke-width="2" d="M698.4985,-494.8C698.4985,-494.8 522.4985,-494.8 522.4985,-494.8 516.4985,-494.8 510.4985,-488.8 510.4985,-482.8 510.4985,-482.8 510.4985,-442.8 510.4985,-442.8 510.4985,-436.8 516.4985,-430.8 522.4985,-430.8 522.4985,-430.8 698.4985,-430.8 698.4985,-430.8 704.4985,-430.8 710.4985,-436.8 710.4985,-442.8 710.4985,-442.8 710.4985,-482.8 710.4985,-482.8 710.4985,-488.8 704.4985,-494.8 698.4985,-494.8"/>
<text text-anchor="start" x="555.4885" y="-480.8" font-family="arial" font-weight="bold" font-size="10.00" fill="#000000">Devonian Strata as CAM</text>
<text text-anchor="start" x="533.811" y="-463.8" font-family="arial" font-size="10.00" fill="#000000">In Devon, all the strata &#45; older than</text>
<text text-anchor="start" x="520.2015" y="-451.8" font-family="arial" font-size="10.00" fill="#000000"> the New Red Sandstone &#45; are Cambrian</text>
<text text-anchor="start" x="554.094" y="-439.8" font-family="arial" font-size="10.00" fill="#000000"> in age #GRE #chron&#45;hyp</text>
</g>
<!-- n1 -->
<g id="node2" class="node">
<title>n1</title>
<path fill="#ffffff" stroke="#ffc1c1" stroke-width="2" d="M694.4985,-346.8C694.4985,-346.8 522.4985,-346.8 522.4985,-346.8 516.4985,-346.8 510.4985,-340.8 510.4985,-334.8 510.4985,-334.8 510.4985,-306.8 510.4985,-306.8 510.4985,-300.8 516.4985,-294.8 522.4985,-294.8 522.4985,-294.8 694.4985,-294.8 694.4985,-294.8 700.4985,-294.8 706.4985,-300.8 706.4985,-306.8 706.4985,-306.8 706.4985,-334.8 706.4985,-334.8 706.4985,-340.8 700.4985,-346.8 694.4985,-346.8"/>
<text text-anchor="start" x="581.003" y="-332.8" font-family="arial" font-weight="bold" font-size="10.00" fill="#000000">Culm as CM</text>
<text text-anchor="start" x="530.154" y="-315.8" font-family="arial" font-size="10.00" fill="#000000">The Devonian Culm strata are Coal</text>
<text text-anchor="start" x="528.7575" y="-303.8" font-family="arial" font-size="10.00" fill="#000000"> Measures in age #COA #chron&#45;hyp</text>
</g>
<!-- n0&#45;&gt;n1 -->
<g id="edge2" class="edge">
<title>n0&#45;&gt;n1</title>
<path fill="none" stroke="#ff0000" d="M604.2839,-430.578C602.7403,-408.8207 602.2584,-380.0552 603.0233,-357.4282"/>
<polygon fill="#ff0000" stroke="#ff0000" points="606.5307,-357.3384 603.4812,-347.1919 599.5377,-357.0254 606.5307,-357.3384"/>
</g>
<!-- n3 -->
<g id="node3" class="node">
<title>n3</title>
<path fill="#ffffff" stroke="#ffc1c1" stroke-width="2" d="M1302.4985,-346.8C1302.4985,-346.8 1130.4985,-346.8 1130.4985,-346.8 1124.4985,-346.8 1118.4985,-340.8 1118.4985,-334.8 1118.4985,-334.8 1118.4985,-306.8 1118.4985,-306.8 1118.4985,-300.8 1124.4985,-294.8 1130.4985,-294.8 1130.4985,-294.8 1302.4985,-294.8 1302.4985,-294.8 1308.4985,-294.8 1314.4985,-300.8 1314.4985,-306.8 1314.4985,-306.8 1314.4985,-334.8 1314.4985,-334.8 1314.4985,-340.8 1308.4985,-346.8 1302.4985,-346.8"/>
<text text-anchor="start" x="1160.109" y="-332.8" font-family="arial" font-weight="bold" font-size="10.00" fill="#000000">Non&#45;Culm Strata as CAM</text>
<text text-anchor="start" x="1141.204" y="-315.8" font-family="arial" font-size="10.00" fill="#000000">In Devon, the non&#45;Culm strata are</text>
<text text-anchor="start" x="1137.0385" y="-303.8" font-family="arial" font-size="10.00" fill="#000000"> Cambrian in age #COA #chron&#45;hyp</text>
</g>
<!-- n0&#45;&gt;n3 -->
<g id="edge24" class="edge">
<title>n0&#45;&gt;n3</title>
<path fill="none" stroke="#00ff00" d="M710.5671,-439.3516C820.2123,-413.6591 995.4709,-372.5919 1108.2544,-346.1641"/>
<polygon fill="#00ff00" stroke="#00ff00" points="1109.3542,-349.5013 1118.292,-343.8121 1107.7572,-342.6859 1109.3542,-349.5013"/>
</g>
<!-- n4 -->
<g id="node5" class="node">
<title>n4</title>
<path fill="#ffffff" stroke="#ffc1c1" stroke-width="2" d="M1514.4985,-494.8C1514.4985,-494.8 1342.4985,-494.8 1342.4985,-494.8 1336.4985,-494.8 1330.4985,-488.8 1330.4985,-482.8 1330.4985,-482.8 1330.4985,-442.8 1330.4985,-442.8 1330.4985,-436.8 1336.4985,-430.8 1342.4985,-430.8 1342.4985,-430.8 1514.4985,-430.8 1514.4985,-430.8 1520.4985,-430.8 1526.4985,-436.8 1526.4985,-442.8 1526.4985,-442.8 1526.4985,-482.8 1526.4985,-482.8 1526.4985,-488.8 1520.4985,-494.8 1514.4985,-494.8"/>
<text text-anchor="start" x="1353.488" y="-480.8" font-family="arial" font-weight="bold" font-size="10.00" fill="#000000">Non&#45;Culm Strata as SIL and CAM</text>
<text text-anchor="start" x="1347.645" y="-463.8" font-family="arial" font-size="10.00" fill="#000000">In Devon, the non&#45;Culm strata range</text>
<text text-anchor="start" x="1340.4325" y="-451.8" font-family="arial" font-size="10.00" fill="#000000"> from Cambrian to Silurian in age #COA</text>
<text text-anchor="start" x="1402.103" y="-439.8" font-family="arial" font-size="10.00" fill="#000000"> #chron&#45;hyp</text>
</g>
<!-- n0&#45;&gt;n4 -->
<g id="edge34" class="edge">
<title>n0&#45;&gt;n4</title>
<path fill="none" stroke="#ff0000" d="M710.7514,-462.8C913.8618,-462.8 1116.9721,-462.8 1320.0824,-462.8"/>
<polygon fill="#ff0000" stroke="#ff0000" points="1320.3691,-466.3001 1330.369,-462.8 1320.369,-459.3001 1320.3691,-466.3001"/>
</g>
<!-- n5 -->
<g id="node8" class="node">
<title>n5</title>
<path fill="#ffffff" stroke="#f4a460" stroke-width="2" d="M868.9985,-206C868.9985,-206 691.9985,-206 691.9985,-206 685.9985,-206 679.9985,-200 679.9985,-194 679.9985,-194 679.9985,-166 679.9985,-166 679.9985,-160 685.9985,-154 691.9985,-154 691.9985,-154 868.9985,-154 868.9985,-154 874.9985,-154 880.9985,-160 880.9985,-166 880.9985,-166 880.9985,-194 880.9985,-194 880.9985,-200 874.9985,-206 868.9985,-206"/>
<text text-anchor="start" x="750.1685" y="-192" font-family="arial" font-weight="bold" font-size="10.00" fill="#000000">Culm as CAM</text>
<text text-anchor="start" x="690.1515" y="-175" font-family="arial" font-size="10.00" fill="#000000">The whole Culm strata of Devonshire are</text>
<text text-anchor="start" x="701.5385" y="-163" font-family="arial" font-size="10.00" fill="#000000"> Cambrian in age #GRE #chron&#45;hyp</text>
</g>
<!-- n0&#45;&gt;n5 -->
<g id="edge5" class="edge">
<title>n0&#45;&gt;n5</title>
<path fill="none" stroke="#00ff00" d="M647.9928,-430.6793C670.0354,-410.2025 697.0991,-382.0847 715.4985,-352.8 742.9308,-309.1386 761.5543,-252.1121 771.6069,-215.7606"/>
<polygon fill="#00ff00" stroke="#00ff00" points="774.9919,-216.6504 774.2152,-206.0841 768.2331,-214.8285 774.9919,-216.6504"/>
</g>
<!-- n2 -->
<g id="node17" class="node">
<title>n2</title>
<path fill="#ffffff" stroke="#eedd82" stroke-width="2" d="M946.4985,-352.8C946.4985,-352.8 774.4985,-352.8 774.4985,-352.8 768.4985,-352.8 762.4985,-346.8 762.4985,-340.8 762.4985,-340.8 762.4985,-300.8 762.4985,-300.8 762.4985,-294.8 768.4985,-288.8 774.4985,-288.8 774.4985,-288.8 946.4985,-288.8 946.4985,-288.8 952.4985,-288.8 958.4985,-294.8 958.4985,-300.8 958.4985,-300.8 958.4985,-340.8 958.4985,-340.8 958.4985,-346.8 952.4985,-352.8 946.4985,-352.8"/>
<text text-anchor="start" x="828.549" y="-338.8" font-family="arial" font-weight="bold" font-size="10.00" fill="#000000">ORS in Devon</text>
<text text-anchor="start" x="781.8655" y="-321.8" font-family="arial" font-size="10.00" fill="#000000">In Devon, a significant part of strata</text>
<text text-anchor="start" x="772.4115" y="-309.8" font-family="arial" font-size="10.00" fill="#000000"> is equivalent to the Old Red Sandstone</text>
<text text-anchor="start" x="819.6555" y="-297.8" font-family="arial" font-size="10.00" fill="#000000"> #DEV #chron&#45;hyp</text>
</g>
<!-- n0&#45;&gt;n2 -->
<g id="edge4" class="edge">
<title>n0&#45;&gt;n2</title>
<path fill="none" stroke="#ff0000" d="M661.1644,-430.7554C698.0293,-409.1123 748.3611,-380.4746 789.2564,-357.8512"/>
<polygon fill="#ff0000" stroke="#ff0000" points="791.0321,-360.8689 798.097,-352.9735 787.6505,-354.7399 791.0321,-360.8689"/>
</g>
<!-- n1&#45;&gt;n0 -->
<g id="edge1" class="edge">
<title>n1&#45;&gt;n0</title>
<path fill="none" stroke="#ff0000" d="M614.2592,-347.1919C616.0127,-367.729 616.7026,-396.6362 616.1388,-420.4065"/>
<polygon fill="#ff0000" stroke="#ff0000" points="612.635,-420.4687 615.8055,-430.578 619.6312,-420.698 612.635,-420.4687"/>
</g>
<!-- n1&#45;&gt;n5 -->
<g id="edge8" class="edge">
<title>n1&#45;&gt;n5</title>
<path fill="none" stroke="#ff0000" d="M653.6732,-294.6367C663.3826,-287.6827 673.4103,-280.0783 682.4985,-272.8 706.3896,-253.6667 732.3449,-231.1997 751.6738,-213.1645"/>
<polygon fill="#ff0000" stroke="#ff0000" points="754.1404,-215.6491 759.0006,-206.2348 749.3303,-210.5635 754.1404,-215.6491"/>
</g>
<!-- n8 -->
<g id="node11" class="node">
<title>n8</title>
<path fill="#ffffff" stroke="#ffc1c1" stroke-width="2" d="M435.4985,-76C435.4985,-76 263.4985,-76 263.4985,-76 257.4985,-76 251.4985,-70 251.4985,-64 251.4985,-64 251.4985,-36 251.4985,-36 251.4985,-30 257.4985,-24 263.4985,-24 263.4985,-24 435.4985,-24 435.4985,-24 441.4985,-24 447.4985,-30 447.4985,-36 447.4985,-36 447.4985,-64 447.4985,-64 447.4985,-70 441.4985,-76 435.4985,-76"/>
<text text-anchor="start" x="293.6595" y="-62" font-family="arial" font-weight="bold" font-size="10.00" fill="#000000">Some CM dating of Culm</text>
<text text-anchor="start" x="264.2105" y="-45" font-family="arial" font-size="10.00" fill="#000000">Some part of the Devon Culm is CM in</text>
<text text-anchor="start" x="298.3725" y="-33" font-family="arial" font-size="10.00" fill="#000000"> age #COA #chron&#45;hyp</text>
</g>
<!-- n1&#45;&gt;n8 -->
<g id="edge10" class="edge">
<title>n1&#45;&gt;n8</title>
<path fill="none" stroke="#00ff00" d="M510.2045,-319.7654C353.2569,-317.0804 60.3852,-307.4346 28.4985,-272.8 -11.4784,-229.378 -7.1608,-187.0323 28.4985,-140 54.4982,-105.7081 158.6045,-80.8873 241.3037,-66.1052"/>
<polygon fill="#00ff00" stroke="#00ff00" points="242.033,-69.5307 251.2761,-64.3523 240.8212,-62.6364 242.033,-69.5307"/>
</g>
<!-- n9 -->
<g id="node12" class="node">
<title>n9</title>
<path fill="#ffffff" stroke="#ffc1c1" stroke-width="2" d="M221.4985,-206C221.4985,-206 49.4985,-206 49.4985,-206 43.4985,-206 37.4985,-200 37.4985,-194 37.4985,-194 37.4985,-166 37.4985,-166 37.4985,-160 43.4985,-154 49.4985,-154 49.4985,-154 221.4985,-154 221.4985,-154 227.4985,-154 233.4985,-160 233.4985,-166 233.4985,-166 233.4985,-194 233.4985,-194 233.4985,-200 227.4985,-206 221.4985,-206"/>
<text text-anchor="start" x="86.3285" y="-192" font-family="arial" font-weight="bold" font-size="10.00" fill="#000000">No CM dating of Culm</text>
<text text-anchor="start" x="47.1515" y="-175" font-family="arial" font-size="10.00" fill="#000000">No part of the Devon Culm is CM in age</text>
<text text-anchor="start" x="92.711" y="-163" font-family="arial" font-size="10.00" fill="#000000"> #COA #chron&#45;hyp </text>
</g>
<!-- n1&#45;&gt;n9 -->
<g id="edge15" class="edge">
<title>n1&#45;&gt;n9</title>
<path fill="none" stroke="#ff0000" d="M510.266,-313.7539C421.0146,-306.4203 296.7261,-293.1291 251.4985,-272.8 221.2039,-259.183 193.0897,-234.1003 171.9669,-213.4423"/>
<polygon fill="#ff0000" stroke="#ff0000" points="174.3651,-210.8915 164.7949,-206.3458 169.4416,-215.8673 174.3651,-210.8915"/>
</g>
<!-- n10 -->
<g id="node13" class="node">
<title>n10</title>
<path fill="#ffffff" stroke="#ffc1c1" stroke-width="2" d="M649.4985,-212C649.4985,-212 477.4985,-212 477.4985,-212 471.4985,-212 465.4985,-206 465.4985,-200 465.4985,-200 465.4985,-160 465.4985,-160 465.4985,-154 471.4985,-148 477.4985,-148 477.4985,-148 649.4985,-148 649.4985,-148 655.4985,-148 661.4985,-154 661.4985,-160 661.4985,-160 661.4985,-200 661.4985,-200 661.4985,-206 655.4985,-212 649.4985,-212"/>
<text text-anchor="start" x="499.8815" y="-198" font-family="arial" font-weight="bold" font-size="10.00" fill="#000000">Main part of the Culm as CM</text>
<text text-anchor="start" x="484.5905" y="-181" font-family="arial" font-size="10.00" fill="#000000">In Devon, the main part of the Culm</text>
<text text-anchor="start" x="479.5945" y="-169" font-family="arial" font-size="10.00" fill="#000000"> strata is Coal Measures in age #COA</text>
<text text-anchor="start" x="537.103" y="-157" font-family="arial" font-size="10.00" fill="#000000"> #chron&#45;hyp</text>
</g>
<!-- n1&#45;&gt;n10 -->
<g id="edge17" class="edge">
<title>n1&#45;&gt;n10</title>
<path fill="none" stroke="#00ff00" d="M600.1398,-294.6466C593.6234,-274.2576 584.4458,-245.5418 576.9059,-221.9504"/>
<polygon fill="#00ff00" stroke="#00ff00" points="580.1656,-220.6525 573.7874,-212.1927 573.4979,-222.7836 580.1656,-220.6525"/>
</g>
<!-- n11 -->
<g id="node14" class="node">
<title>n11</title>
<path fill="#ffffff" stroke="#ffc1c1" stroke-width="2" d="M435.4985,-206C435.4985,-206 263.4985,-206 263.4985,-206 257.4985,-206 251.4985,-200 251.4985,-194 251.4985,-194 251.4985,-166 251.4985,-166 251.4985,-160 257.4985,-154 263.4985,-154 263.4985,-154 435.4985,-154 435.4985,-154 441.4985,-154 447.4985,-160 447.4985,-166 447.4985,-166 447.4985,-194 447.4985,-194 447.4985,-200 441.4985,-206 435.4985,-206"/>
<text text-anchor="start" x="283.9395" y="-192" font-family="arial" font-weight="bold" font-size="10.00" fill="#000000">Black Culm Limestone as CM</text>
<text text-anchor="start" x="275.3275" y="-175" font-family="arial" font-size="10.00" fill="#000000">The black Culm limestone is Coal</text>
<text text-anchor="start" x="269.7575" y="-163" font-family="arial" font-size="10.00" fill="#000000"> Measures in age #COA #chron&#45;hyp</text>
</g>
<!-- n1&#45;&gt;n11 -->
<g id="edge21" class="edge">
<title>n1&#45;&gt;n11</title>
<path fill="none" stroke="#00ff00" d="M510.3468,-296.3073C491.8848,-289.9093 473.1617,-282.1243 456.4985,-272.8 428.3376,-257.0419 400.9302,-233.0528 380.9043,-213.4128"/>
<polygon fill="#00ff00" stroke="#00ff00" points="383.1541,-210.7133 373.6044,-206.1248 378.2084,-215.6671 383.1541,-210.7133"/>
</g>
<!-- n12 -->
<g id="node4" class="node">
<title>n12</title>
<path fill="#ffffff" stroke="#ffc1c1" stroke-width="2" d="M1302.4985,-212C1302.4985,-212 1130.4985,-212 1130.4985,-212 1124.4985,-212 1118.4985,-206 1118.4985,-200 1118.4985,-200 1118.4985,-160 1118.4985,-160 1118.4985,-154 1124.4985,-148 1130.4985,-148 1130.4985,-148 1302.4985,-148 1302.4985,-148 1308.4985,-148 1314.4985,-154 1314.4985,-160 1314.4985,-160 1314.4985,-200 1314.4985,-200 1314.4985,-206 1308.4985,-212 1302.4985,-212"/>
<text text-anchor="start" x="1144.827" y="-198" font-family="arial" font-weight="bold" font-size="10.00" fill="#000000">Some part of Non&#45;Culm as CAM</text>
<text text-anchor="start" x="1134.535" y="-181" font-family="arial" font-size="10.00" fill="#000000">In Devon, some part of the non&#45;Culm</text>
<text text-anchor="start" x="1144.543" y="-169" font-family="arial" font-size="10.00" fill="#000000"> strata is Cambrian in age #COA</text>
<text text-anchor="start" x="1190.103" y="-157" font-family="arial" font-size="10.00" fill="#000000"> #chron&#45;hyp</text>
</g>
<!-- n3&#45;&gt;n12 -->
<g id="edge25" class="edge">
<title>n3&#45;&gt;n12</title>
<path fill="none" stroke="#00ff00" d="M1216.4985,-294.6466C1216.4985,-274.3486 1216.4985,-245.798 1216.4985,-222.2666"/>
<polygon fill="#00ff00" stroke="#00ff00" points="1219.9986,-222.1927 1216.4985,-212.1927 1212.9986,-222.1927 1219.9986,-222.1927"/>
</g>
<!-- n3&#45;&gt;n4 -->
<g id="edge32" class="edge">
<title>n3&#45;&gt;n4</title>
<path fill="none" stroke="#ff0000" d="M1261.0335,-347.0283C1295.2704,-368.9089 1342.468,-400.3728 1378.0792,-424.9783"/>
<polygon fill="#ff0000" stroke="#ff0000" points="1376.1963,-427.9318 1386.4079,-430.7554 1380.1859,-422.18 1376.1963,-427.9318"/>
</g>
<!-- n13 -->
<g id="node6" class="node">
<title>n13</title>
<path fill="#ffffff" stroke="#ffc1c1" stroke-width="2" d="M1622.4985,-352.8C1622.4985,-352.8 1450.4985,-352.8 1450.4985,-352.8 1444.4985,-352.8 1438.4985,-346.8 1438.4985,-340.8 1438.4985,-340.8 1438.4985,-300.8 1438.4985,-300.8 1438.4985,-294.8 1444.4985,-288.8 1450.4985,-288.8 1450.4985,-288.8 1622.4985,-288.8 1622.4985,-288.8 1628.4985,-288.8 1634.4985,-294.8 1634.4985,-300.8 1634.4985,-300.8 1634.4985,-340.8 1634.4985,-340.8 1634.4985,-346.8 1628.4985,-352.8 1622.4985,-352.8"/>
<text text-anchor="start" x="1468.432" y="-338.8" font-family="arial" font-weight="bold" font-size="10.00" fill="#000000">Some part of Non&#45;Culm as SIL</text>
<text text-anchor="start" x="1454.535" y="-321.8" font-family="arial" font-size="10.00" fill="#000000">In Devon, some part of the non&#45;Culm</text>
<text text-anchor="start" x="1469.543" y="-309.8" font-family="arial" font-size="10.00" fill="#000000"> strata is Silurian in age #COA</text>
<text text-anchor="start" x="1510.103" y="-297.8" font-family="arial" font-size="10.00" fill="#000000"> #chron&#45;hyp</text>
</g>
<!-- n3&#45;&gt;n13 -->
<g id="edge26" class="edge">
<title>n3&#45;&gt;n13</title>
<path fill="none" stroke="#ff0000" d="M1314.6235,-320.8C1352.4146,-320.8 1390.2058,-320.8 1427.9969,-320.8"/>
<polygon fill="#ff0000" stroke="#ff0000" points="1428.1282,-324.3001 1438.1281,-320.8 1428.1281,-317.3001 1428.1282,-324.3001"/>
</g>
<!-- n14 -->
<g id="node7" class="node">
<title>n14</title>
<path fill="#ffffff" stroke="#ffc1c1" stroke-width="2" d="M1728.4985,-494.8C1728.4985,-494.8 1556.4985,-494.8 1556.4985,-494.8 1550.4985,-494.8 1544.4985,-488.8 1544.4985,-482.8 1544.4985,-482.8 1544.4985,-442.8 1544.4985,-442.8 1544.4985,-436.8 1550.4985,-430.8 1556.4985,-430.8 1556.4985,-430.8 1728.4985,-430.8 1728.4985,-430.8 1734.4985,-430.8 1740.4985,-436.8 1740.4985,-442.8 1740.4985,-442.8 1740.4985,-482.8 1740.4985,-482.8 1740.4985,-488.8 1734.4985,-494.8 1728.4985,-494.8"/>
<text text-anchor="start" x="1600.267" y="-480.8" font-family="arial" font-weight="bold" font-size="10.00" fill="#000000">SIL in North Devon</text>
<text text-anchor="start" x="1560.5355" y="-463.8" font-family="arial" font-size="10.00" fill="#000000">In north Devon (around Pilton), some</text>
<text text-anchor="start" x="1563.876" y="-451.8" font-family="arial" font-size="10.00" fill="#000000"> non&#45;Culm strata are Silurian in age</text>
<text text-anchor="start" x="1601.1005" y="-439.8" font-family="arial" font-size="10.00" fill="#000000"> #COA #chron&#45;hyp</text>
</g>
<!-- n3&#45;&gt;n14 -->
<g id="edge29" class="edge">
<title>n3&#45;&gt;n14</title>
<path fill="none" stroke="#ff0000" d="M1305.6545,-346.8256C1371.8727,-367.5173 1464.1295,-397.4332 1544.4985,-424.8 1546.9477,-425.634 1549.4271,-426.4824 1551.9258,-427.3414"/>
<polygon fill="#ff0000" stroke="#ff0000" points="1551.0423,-430.7392 1561.637,-430.7003 1553.3304,-424.1238 1551.0423,-430.7392"/>
</g>
<!-- n4&#45;&gt;n0 -->
<g id="edge33" class="edge">
<title>n4&#45;&gt;n0</title>
<path fill="none" stroke="#ff0000" d="M1330.369,-462.8C1127.2587,-462.8 924.1484,-462.8 721.038,-462.8"/>
<polygon fill="#ff0000" stroke="#ff0000" points="720.7515,-459.3001 710.7514,-462.8 720.7514,-466.3001 720.7515,-459.3001"/>
</g>
<!-- n4&#45;&gt;n3 -->
<g id="edge31" class="edge">
<title>n4&#45;&gt;n3</title>
<path fill="none" stroke="#ff0000" d="M1374.9065,-430.7554C1338.9376,-407.5527 1292.2908,-376.3109 1258.8968,-353.0589"/>
<polygon fill="#ff0000" stroke="#ff0000" points="1260.4788,-349.8941 1250.2789,-347.0283 1256.4654,-355.6294 1260.4788,-349.8941"/>
</g>
<!-- n13&#45;&gt;n3 -->
<g id="edge27" class="edge">
<title>n13&#45;&gt;n3</title>
<path fill="none" stroke="#ff0000" d="M1438.1281,-320.8C1400.337,-320.8 1362.5459,-320.8 1324.7547,-320.8"/>
<polygon fill="#ff0000" stroke="#ff0000" points="1324.6235,-317.3001 1314.6235,-320.8 1324.6235,-324.3001 1324.6235,-317.3001"/>
</g>
<!-- n14&#45;&gt;n3 -->
<g id="edge30" class="edge">
<title>n14&#45;&gt;n3</title>
<path fill="none" stroke="#ff0000" d="M1544.2476,-430.9017C1538.2362,-428.8198 1532.2834,-426.7698 1526.4985,-424.8 1450.2108,-398.8229 1363.2119,-370.549 1300.78,-350.0477"/>
<polygon fill="#ff0000" stroke="#ff0000" points="1301.5693,-346.623 1290.9764,-346.8256 1299.3836,-353.273 1301.5693,-346.623"/>
</g>
<!-- n14&#45;&gt;n13 -->
<g id="edge28" class="edge">
<title>n14&#45;&gt;n13</title>
<path fill="none" stroke="#00ff00" d="M1618.4455,-430.578C1603.0631,-409.9714 1582.9879,-383.0783 1566.5576,-361.0678"/>
<polygon fill="#00ff00" stroke="#00ff00" points="1569.2431,-358.8143 1560.4564,-352.8945 1563.6336,-363.0017 1569.2431,-358.8143"/>
</g>
<!-- n5&#45;&gt;n1 -->
<g id="edge9" class="edge">
<title>n5&#45;&gt;n1</title>
<path fill="none" stroke="#ff0000" d="M744.0081,-206.2348C721.272,-225.1763 691.561,-251.1269 664.4985,-272.8 658.1084,-277.9175 651.2538,-283.1963 644.5851,-288.2969"/>
<polygon fill="#ff0000" stroke="#ff0000" points="642.1082,-285.7846 636.2867,-294.6367 646.3579,-291.3471 642.1082,-285.7846"/>
</g>
<!-- n6 -->
<g id="node9" class="node">
<title>n6</title>
<path fill="#ffffff" stroke="#f4a460" stroke-width="2" d="M1081.9985,-76C1081.9985,-76 908.9985,-76 908.9985,-76 902.9985,-76 896.9985,-70 896.9985,-64 896.9985,-64 896.9985,-36 896.9985,-36 896.9985,-30 902.9985,-24 908.9985,-24 908.9985,-24 1081.9985,-24 1081.9985,-24 1087.9985,-24 1093.9985,-30 1093.9985,-36 1093.9985,-36 1093.9985,-64 1093.9985,-64 1093.9985,-70 1087.9985,-76 1081.9985,-76"/>
<text text-anchor="start" x="929.047" y="-62" font-family="arial" font-weight="bold" font-size="10.00" fill="#000000">Main part of the Culm as CAM</text>
<text text-anchor="start" x="907.377" y="-45" font-family="arial" font-size="10.00" fill="#000000">Then main part of the Culm is Cambrian</text>
<text text-anchor="start" x="939.594" y="-33" font-family="arial" font-size="10.00" fill="#000000"> in age #GRE #chron&#45;hyp</text>
</g>
<!-- n5&#45;&gt;n6 -->
<g id="edge6" class="edge">
<title>n5&#45;&gt;n6</title>
<path fill="none" stroke="#00ff00" d="M823.7483,-153.8489C858.3729,-132.9132 907.0436,-103.4843 943.7371,-81.2976"/>
<polygon fill="#00ff00" stroke="#00ff00" points="945.5714,-84.2786 952.3178,-76.1093 941.9495,-78.2884 945.5714,-84.2786"/>
</g>
<!-- n7 -->
<g id="node10" class="node">
<title>n7</title>
<path fill="#ffffff" stroke="#f4a460" stroke-width="2" d="M866.9985,-76C866.9985,-76 689.9985,-76 689.9985,-76 683.9985,-76 677.9985,-70 677.9985,-64 677.9985,-64 677.9985,-36 677.9985,-36 677.9985,-30 683.9985,-24 689.9985,-24 689.9985,-24 866.9985,-24 866.9985,-24 872.9985,-24 878.9985,-30 878.9985,-36 878.9985,-36 878.9985,-64 878.9985,-64 878.9985,-70 872.9985,-76 866.9985,-76"/>
<text text-anchor="start" x="710.105" y="-62" font-family="arial" font-weight="bold" font-size="10.00" fill="#000000">Black Culm Limestone as CAM</text>
<text text-anchor="start" x="688.161" y="-45" font-family="arial" font-size="10.00" fill="#000000">The black Culm limestone is Cambrian in</text>
<text text-anchor="start" x="727.8725" y="-33" font-family="arial" font-size="10.00" fill="#000000"> age #GRE #chron&#45;hyp</text>
</g>
<!-- n5&#45;&gt;n7 -->
<g id="edge7" class="edge">
<title>n5&#45;&gt;n7</title>
<path fill="none" stroke="#00ff00" d="M780.0938,-153.6926C779.7956,-134.3099 779.3863,-107.7101 779.057,-86.3047"/>
<polygon fill="#00ff00" stroke="#00ff00" points="782.5561,-86.2133 778.9026,-76.2683 775.557,-86.321 782.5561,-86.2133"/>
</g>
<!-- n5&#45;&gt;n8 -->
<g id="edge12" class="edge">
<title>n5&#45;&gt;n8</title>
<path fill="none" stroke="#ff0000" d="M722.2832,-153.9241C709.2837,-149.0872 695.512,-144.231 682.4985,-140 641.0852,-126.5354 537.9077,-98.1996 457.2359,-76.8977"/>
<polygon fill="#ff0000" stroke="#ff0000" points="458.0769,-73.4999 447.5152,-74.3363 456.2932,-80.2689 458.0769,-73.4999"/>
</g>
<!-- n6&#45;&gt;n10 -->
<g id="edge19" class="edge">
<title>n6&#45;&gt;n10</title>
<path fill="none" stroke="#ff0000" d="M896.9098,-75.9157C833.0246,-92.5361 748.3428,-115.5296 674.4985,-140 670.2187,-141.4182 665.857,-142.9167 661.4581,-144.4685"/>
<polygon fill="#ff0000" stroke="#ff0000" points="660.0157,-141.2676 651.7861,-147.9402 662.3806,-147.856 660.0157,-141.2676"/>
</g>
<!-- n7&#45;&gt;n11 -->
<g id="edge23" class="edge">
<title>n7&#45;&gt;n11</title>
<path fill="none" stroke="#ff0000" d="M684.4369,-76.0796C621.994,-92.9773 538.4828,-116.2062 465.4985,-140 455.5376,-143.2474 445.1312,-146.8579 434.8084,-150.5433"/>
<polygon fill="#ff0000" stroke="#ff0000" points="433.5911,-147.2616 425.3668,-153.9407 435.9612,-153.8481 433.5911,-147.2616"/>
</g>
<!-- n8&#45;&gt;n5 -->
<g id="edge11" class="edge">
<title>n8&#45;&gt;n5</title>
<path fill="none" stroke="#ff0000" d="M439.6123,-76.0175C517.0403,-97.4125 622.5122,-126.3491 664.4985,-140 674.462,-143.2394 684.8699,-146.8452 695.1935,-150.5283"/>
<polygon fill="#ff0000" stroke="#ff0000" points="694.0412,-153.8332 704.6356,-153.9241 696.4102,-147.2463 694.0412,-153.8332"/>
</g>
<!-- n9&#45;&gt;n1 -->
<g id="edge14" class="edge">
<title>n9&#45;&gt;n1</title>
<path fill="none" stroke="#ff0000" d="M150.4888,-206.3458C168.4904,-228.0263 199.632,-257.5775 233.4985,-272.8 279.392,-293.4284 406.6914,-306.8102 500.339,-314.074"/>
<polygon fill="#ff0000" stroke="#ff0000" points="500.1991,-317.5734 510.4362,-314.8437 500.7312,-310.5936 500.1991,-317.5734"/>
</g>
<!-- n9&#45;&gt;n8 -->
<g id="edge13" class="edge">
<title>n9&#45;&gt;n8</title>
<path fill="none" stroke="#ff0000" d="M188.9522,-147.5281C221.7161,-127.6248 263.5043,-102.2394 296.2335,-82.3572"/>
<polygon fill="#ff0000" stroke="#ff0000" points="188.8031,-147.6187 185.7519,-154.1524 178.5472,-153.8489 181.5984,-147.3151 188.8031,-147.6187"/>
<polygon fill="#ff0000" stroke="#ff0000" points="296.2627,-82.3396 299.3139,-75.8058 306.5186,-76.1093 303.4674,-82.6431 296.2627,-82.3396"/>
</g>
<!-- n10&#45;&gt;n6 -->
<g id="edge18" class="edge">
<title>n10&#45;&gt;n6</title>
<path fill="none" stroke="#ff0000" d="M633.86,-147.9402C641.4477,-145.1465 649.0956,-142.4531 656.4985,-140 732.5228,-114.8073 820.0338,-91.1798 887.1443,-74.4605"/>
<polygon fill="#ff0000" stroke="#ff0000" points="888.0295,-77.8471 896.8941,-72.0445 886.3458,-71.0526 888.0295,-77.8471"/>
</g>
<!-- n10&#45;&gt;n8 -->
<g id="edge16" class="edge">
<title>n10&#45;&gt;n8</title>
<path fill="none" stroke="#00ff00" d="M510.5996,-147.8652C477.1955,-127.573 434.2451,-101.4816 401.0936,-81.3428"/>
<polygon fill="#00ff00" stroke="#00ff00" points="402.8186,-78.2955 392.4548,-76.0949 399.1842,-84.2782 402.8186,-78.2955"/>
</g>
<!-- n11&#45;&gt;n7 -->
<g id="edge22" class="edge">
<title>n11&#45;&gt;n7</title>
<path fill="none" stroke="#ff0000" d="M407.7192,-153.9407C420.7183,-149.1024 434.4884,-144.2415 447.4985,-140 520.1999,-116.2985 603.3467,-93.1574 668.1627,-76.2765"/>
<polygon fill="#ff0000" stroke="#ff0000" points="669.1943,-79.6248 677.9958,-73.727 667.4374,-72.8488 669.1943,-79.6248"/>
</g>
<!-- n11&#45;&gt;n8 -->
<g id="edge20" class="edge">
<title>n11&#45;&gt;n8</title>
<path fill="none" stroke="#00ff00" d="M349.4985,-153.6926C349.4985,-134.3099 349.4985,-107.7101 349.4985,-86.3047"/>
<polygon fill="#00ff00" stroke="#00ff00" points="352.9986,-86.2683 349.4985,-76.2683 345.9986,-86.2684 352.9986,-86.2683"/>
</g>
<!-- n15 -->
<g id="node15" class="node">
<title>n15</title>
<path fill="#ffffff" stroke="#f4a460" stroke-width="2" d="M1964.4985,-500.8C1964.4985,-500.8 1788.4985,-500.8 1788.4985,-500.8 1782.4985,-500.8 1776.4985,-494.8 1776.4985,-488.8 1776.4985,-488.8 1776.4985,-436.8 1776.4985,-436.8 1776.4985,-430.8 1782.4985,-424.8 1788.4985,-424.8 1788.4985,-424.8 1964.4985,-424.8 1964.4985,-424.8 1970.4985,-424.8 1976.4985,-430.8 1976.4985,-436.8 1976.4985,-436.8 1976.4985,-488.8 1976.4985,-488.8 1976.4985,-494.8 1970.4985,-500.8 1964.4985,-500.8"/>
<text text-anchor="start" x="1800.367" y="-486.8" font-family="arial" font-weight="bold" font-size="10.00" fill="#000000">Exmoor Youngest Devonian strata</text>
<text text-anchor="start" x="1797.3105" y="-469.8" font-family="arial" font-size="10.00" fill="#000000">In Devon, among all the strata older</text>
<text text-anchor="start" x="1786.187" y="-457.8" font-family="arial" font-size="10.00" fill="#000000"> than the New Red Sandstone, the strata</text>
<text text-anchor="start" x="1798.698" y="-445.8" font-family="arial" font-size="10.00" fill="#000000"> of Exmoor are the youngest #GRE</text>
<text text-anchor="start" x="1850.103" y="-433.8" font-family="arial" font-size="10.00" fill="#000000"> #chron&#45;hyp</text>
</g>
<!-- n16 -->
<g id="node16" class="node">
<title>n16</title>
<path fill="#ffffff" stroke="#ffc1c1" stroke-width="2" d="M1967.9985,-352.8C1967.9985,-352.8 1784.9985,-352.8 1784.9985,-352.8 1778.9985,-352.8 1772.9985,-346.8 1772.9985,-340.8 1772.9985,-340.8 1772.9985,-300.8 1772.9985,-300.8 1772.9985,-294.8 1778.9985,-288.8 1784.9985,-288.8 1784.9985,-288.8 1967.9985,-288.8 1967.9985,-288.8 1973.9985,-288.8 1979.9985,-294.8 1979.9985,-300.8 1979.9985,-300.8 1979.9985,-340.8 1979.9985,-340.8 1979.9985,-346.8 1973.9985,-352.8 1967.9985,-352.8"/>
<text text-anchor="start" x="1805.592" y="-338.8" font-family="arial" font-weight="bold" font-size="10.00" fill="#000000">Culm Youngest Devonian Strata</text>
<text text-anchor="start" x="1797.8105" y="-321.8" font-family="arial" font-size="10.00" fill="#000000">In Devon, among all the strata older</text>
<text text-anchor="start" x="1787.5265" y="-309.8" font-family="arial" font-size="10.00" fill="#000000"> than the New Red Sandstone, the Culm</text>
<text text-anchor="start" x="1783.081" y="-297.8" font-family="arial" font-size="10.00" fill="#000000"> strata are the youngest #COA #chron&#45;hyp</text>
</g>
<!-- n15&#45;&gt;n16 -->
<g id="edge36" class="edge">
<title>n15&#45;&gt;n16</title>
<path fill="none" stroke="#ff0000" d="M1870.4411,-424.7466C1869.584,-405.8053 1869.5224,-382.8443 1870.2562,-363.3249"/>
<polygon fill="#ff0000" stroke="#ff0000" points="1873.7597,-363.3295 1870.7289,-353.1775 1866.7672,-363.0037 1873.7597,-363.3295"/>
</g>
<!-- n16&#45;&gt;n15 -->
<g id="edge35" class="edge">
<title>n16&#45;&gt;n15</title>
<path fill="none" stroke="#ff0000" d="M1882.2681,-353.1775C1883.2972,-371.385 1883.5161,-394.4638 1882.925,-414.7441"/>
<polygon fill="#ff0000" stroke="#ff0000" points="1879.4271,-414.6243 1882.5559,-424.7466 1886.4223,-414.8825 1879.4271,-414.6243"/>
</g>
<!-- n2&#45;&gt;n0 -->
<g id="edge3" class="edge">
<title>n2&#45;&gt;n0</title>
<path fill="none" stroke="#ff0000" d="M809.6131,-352.9735C772.6949,-374.6442 722.3552,-403.2839 681.4974,-425.8833"/>
<polygon fill="#ff0000" stroke="#ff0000" points="679.7312,-422.8604 672.6658,-430.7554 683.1125,-428.9896 679.7312,-422.8604"/>
</g>
</g>
</svg>
