
<!-- Generated by graphviz version 2.40.1 (20161225.0304)
 -->
<!-- Title: Argument Map Pages: 1 -->
<svg width="720pt" height="253pt"
 viewBox="0.00 0.00 720.00 253.40" xmlns="http://www.w3.org/2000/svg" xmlns:xlink="http://www.w3.org/1999/xlink">
<g id="graph0" class="graph" transform="scale(.636 .636) rotate(0) translate(4 394.4)">
<title>Argument Map</title>
<g id="clust4" class="cluster">
<title>cluster_4</title>
<polygon fill="#e6e6fa" stroke="#e6e6fa" points="892,-132 892,-382.4 1116,-382.4 1116,-132 892,-132"/>
<text text-anchor="start" x="933.9752" y="-367.6" font-family="arial" font-size="12.00" fill="#000000">Youngest Devonian Strata</text>
</g>
<g id="clust2" class="cluster">
<title>cluster_2</title>
<polygon fill="#f0f8ff" stroke="#f0f8ff" points="232,-138 232,-228.4 444,-228.4 444,-138 232,-138"/>
<text text-anchor="start" x="257.6534" y="-213.6" font-family="arial" font-size="12.00" fill="#000000">Dating of the Non&#45;Culm Strata</text>
</g>
<g id="clust3" class="cluster">
<title>cluster_3</title>
<polygon fill="#bfefff" stroke="#bfefff" points="452,-8 452,-228.4 884,-228.4 884,-8 452,-8"/>
<text text-anchor="start" x="618.3248" y="-213.6" font-family="arial" font-size="12.00" fill="#000000">Dating of the Culm</text>
</g>
<g id="clust1" class="cluster">
<title>cluster_1</title>
<polygon fill="#ffff00" stroke="#ffff00" points="8,-138 8,-376.4 224,-376.4 224,-138 8,-138"/>
<text text-anchor="start" x="69.3272" y="-361.6" font-family="arial" font-size="12.00" fill="#000000">Rival Hypotheses</text>
</g>
<!-- n0 -->
<g id="node1" class="node">
<title>n0</title>
<path fill="#ffffff" stroke="#f4a460" stroke-width="2" d="M204,-346C204,-346 28,-346 28,-346 22,-346 16,-340 16,-334 16,-334 16,-294 16,-294 16,-288 22,-282 28,-282 28,-282 204,-282 204,-282 210,-282 216,-288 216,-294 216,-294 216,-334 216,-334 216,-340 210,-346 204,-346"/>
<text text-anchor="start" x="60.99" y="-332" font-family="arial" font-weight="bold" font-size="10.00" fill="#000000">Devonian Strata as CAM</text>
<text text-anchor="start" x="39.3125" y="-315" font-family="arial" font-size="10.00" fill="#000000">In Devon, all the strata &#45; older than</text>
<text text-anchor="start" x="25.703" y="-303" font-family="arial" font-size="10.00" fill="#000000"> the New Red Sandstone &#45; are Cambrian</text>
<text text-anchor="start" x="59.5955" y="-291" font-family="arial" font-size="10.00" fill="#000000"> in age #GRE #chron&#45;hyp</text>
</g>
<!-- n1 -->
<g id="node2" class="node">
<title>n1</title>
<path fill="#ffffff" stroke="#ffc1c1" stroke-width="2" d="M204,-198C204,-198 32,-198 32,-198 26,-198 20,-192 20,-186 20,-186 20,-158 20,-158 20,-152 26,-146 32,-146 32,-146 204,-146 204,-146 210,-146 216,-152 216,-158 216,-158 216,-186 216,-186 216,-192 210,-198 204,-198"/>
<text text-anchor="start" x="90.5045" y="-184" font-family="arial" font-weight="bold" font-size="10.00" fill="#000000">Culm as CM</text>
<text text-anchor="start" x="39.6555" y="-167" font-family="arial" font-size="10.00" fill="#000000">The Devonian Culm strata are Coal</text>
<text text-anchor="start" x="38.259" y="-155" font-family="arial" font-size="10.00" fill="#000000"> Measures in age #COA #chron&#45;hyp</text>
</g>
<!-- n0&#45;&gt;n1 -->
<g id="edge2" class="edge">
<title>n0&#45;&gt;n1</title>
<path fill="none" stroke="#ff0000" d="M110.693,-281.778C109.7624,-260.0207 110.0908,-231.2552 111.493,-208.6282"/>
<polygon fill="#ff0000" stroke="#ff0000" points="115.0028,-208.6199 112.2393,-198.3919 108.0213,-208.1109 115.0028,-208.6199"/>
</g>
<!-- n2 -->
<g id="node3" class="node">
<title>n2</title>
<path fill="#ffffff" stroke="#f4a460" stroke-width="2" d="M424,-198C424,-198 252,-198 252,-198 246,-198 240,-192 240,-186 240,-186 240,-158 240,-158 240,-152 246,-146 252,-146 252,-146 424,-146 424,-146 430,-146 436,-152 436,-158 436,-158 436,-186 436,-186 436,-192 430,-198 424,-198"/>
<text text-anchor="start" x="281.6105" y="-184" font-family="arial" font-weight="bold" font-size="10.00" fill="#000000">Non&#45;Culm Strata as CAM</text>
<text text-anchor="start" x="262.7055" y="-167" font-family="arial" font-size="10.00" fill="#000000">In Devon, the non&#45;Culm strata are</text>
<text text-anchor="start" x="258.54" y="-155" font-family="arial" font-size="10.00" fill="#000000"> Cambrian in age #GRE #chron&#45;hyp</text>
</g>
<!-- n0&#45;&gt;n2 -->
<g id="edge12" class="edge">
<title>n0&#45;&gt;n2</title>
<path fill="none" stroke="#00ff00" d="M166.0979,-281.9554C202.6813,-258.5552 252.0476,-226.9785 288.4924,-203.667"/>
<polygon fill="#00ff00" stroke="#00ff00" points="290.4571,-206.5651 296.9952,-198.2283 286.6852,-200.6683 290.4571,-206.5651"/>
</g>
<!-- n3 -->
<g id="node4" class="node">
<title>n3</title>
<path fill="#ffffff" stroke="#f4a460" stroke-width="2" d="M863.5,-198C863.5,-198 686.5,-198 686.5,-198 680.5,-198 674.5,-192 674.5,-186 674.5,-186 674.5,-158 674.5,-158 674.5,-152 680.5,-146 686.5,-146 686.5,-146 863.5,-146 863.5,-146 869.5,-146 875.5,-152 875.5,-158 875.5,-158 875.5,-186 875.5,-186 875.5,-192 869.5,-198 863.5,-198"/>
<text text-anchor="start" x="744.67" y="-184" font-family="arial" font-weight="bold" font-size="10.00" fill="#000000">Culm as CAM</text>
<text text-anchor="start" x="684.653" y="-167" font-family="arial" font-size="10.00" fill="#000000">The whole Culm strata of Devonshire are</text>
<text text-anchor="start" x="696.04" y="-155" font-family="arial" font-size="10.00" fill="#000000"> Cambrian in age #GRE #chron&#45;hyp</text>
</g>
<!-- n0&#45;&gt;n3 -->
<g id="edge3" class="edge">
<title>n0&#45;&gt;n3</title>
<path fill="none" stroke="#00ff00" d="M216.1437,-307.9907C327.9211,-299.0959 513.0542,-277.7814 665,-228.4 684.6401,-222.0171 705.0573,-212.4639 722.8923,-203.0256"/>
<polygon fill="#00ff00" stroke="#00ff00" points="724.8351,-205.954 731.9657,-198.1179 721.5048,-199.797 724.8351,-205.954"/>
</g>
<!-- n1&#45;&gt;n0 -->
<g id="edge1" class="edge">
<title>n1&#45;&gt;n0</title>
<path fill="none" stroke="#ff0000" d="M123.0173,-198.3919C124.1922,-218.929 124.0679,-247.8362 122.8345,-271.6065"/>
<polygon fill="#ff0000" stroke="#ff0000" points="119.3295,-271.5836 122.2146,-281.778 126.3165,-272.0094 119.3295,-271.5836"/>
</g>
<!-- n1&#45;&gt;n3 -->
<g id="edge4" class="edge">
<title>n1&#45;&gt;n3</title>
<path fill="none" stroke="#ff0000" d="M146.2305,-198.205C168.863,-217.3172 202.4516,-241.6448 237,-252.2 326.0478,-279.4059 566.9522,-279.4059 656,-252.2 686.7696,-242.7992 716.778,-222.4741 738.9631,-204.6385"/>
<polygon fill="#ff0000" stroke="#ff0000" points="741.2784,-207.2659 746.7695,-198.205 736.8265,-201.864 741.2784,-207.2659"/>
</g>
<!-- n4 -->
<g id="node5" class="node">
<title>n4</title>
<path fill="#ffffff" stroke="#ffc1c1" stroke-width="2" d="M752,-68C752,-68 580,-68 580,-68 574,-68 568,-62 568,-56 568,-56 568,-28 568,-28 568,-22 574,-16 580,-16 580,-16 752,-16 752,-16 758,-16 764,-22 764,-28 764,-28 764,-56 764,-56 764,-62 758,-68 752,-68"/>
<text text-anchor="start" x="610.161" y="-54" font-family="arial" font-weight="bold" font-size="10.00" fill="#000000">Some CM dating of Culm</text>
<text text-anchor="start" x="580.712" y="-37" font-family="arial" font-size="10.00" fill="#000000">Some part of the Devon Culm is CM in</text>
<text text-anchor="start" x="614.874" y="-25" font-family="arial" font-size="10.00" fill="#000000"> age #COA #chron&#45;hyp</text>
</g>
<!-- n1&#45;&gt;n4 -->
<g id="edge6" class="edge">
<title>n1&#45;&gt;n4</title>
<path fill="none" stroke="#00ff00" d="M184.6789,-145.9894C198.8549,-140.9579 213.824,-136.0107 228,-132 338.8789,-100.6301 468.4318,-75.3805 557.726,-59.7003"/>
<polygon fill="#00ff00" stroke="#00ff00" points="558.3462,-63.1451 567.5953,-57.9774 557.1424,-56.2493 558.3462,-63.1451"/>
</g>
<!-- n5 -->
<g id="node6" class="node">
<title>n5</title>
<path fill="#ffffff" stroke="#ffc1c1" stroke-width="2" d="M644,-198C644,-198 472,-198 472,-198 466,-198 460,-192 460,-186 460,-186 460,-158 460,-158 460,-152 466,-146 472,-146 472,-146 644,-146 644,-146 650,-146 656,-152 656,-158 656,-158 656,-186 656,-186 656,-192 650,-198 644,-198"/>
<text text-anchor="start" x="508.83" y="-184" font-family="arial" font-weight="bold" font-size="10.00" fill="#000000">No CM dating of Culm</text>
<text text-anchor="start" x="469.653" y="-167" font-family="arial" font-size="10.00" fill="#000000">No part of the Devon Culm is CM in age</text>
<text text-anchor="start" x="515.2125" y="-155" font-family="arial" font-size="10.00" fill="#000000"> #COA #chron&#45;hyp </text>
</g>
<!-- n1&#45;&gt;n5 -->
<g id="edge11" class="edge">
<title>n1&#45;&gt;n5</title>
<path fill="none" stroke="#ff0000" d="M146.2305,-198.205C168.863,-217.3172 202.4516,-241.6448 237,-252.2 322.86,-278.432 353.14,-278.432 439,-252.2 469.7696,-242.7992 499.778,-222.4741 521.9631,-204.6385"/>
<polygon fill="#ff0000" stroke="#ff0000" points="524.2784,-207.2659 529.7695,-198.205 519.8265,-201.864 524.2784,-207.2659"/>
</g>
<!-- n3&#45;&gt;n1 -->
<g id="edge5" class="edge">
<title>n3&#45;&gt;n1</title>
<path fill="none" stroke="#ff0000" d="M746.7695,-198.205C724.137,-217.3172 690.5484,-241.6448 656,-252.2 566.9522,-279.4059 326.0478,-279.4059 237,-252.2 206.2304,-242.7992 176.222,-222.4741 154.0369,-204.6385"/>
<polygon fill="#ff0000" stroke="#ff0000" points="156.1735,-201.864 146.2305,-198.205 151.7216,-207.2659 156.1735,-201.864"/>
</g>
<!-- n3&#45;&gt;n4 -->
<g id="edge8" class="edge">
<title>n3&#45;&gt;n4</title>
<path fill="none" stroke="#ff0000" d="M747.3936,-145.6926C729.2037,-125.6931 705.8322,-98.01 688.7111,-76.2777"/>
<polygon fill="#ff0000" stroke="#ff0000" points="691.3824,-74.0113 682.4791,-68.2683 685.8577,-78.31 691.3824,-74.0113"/>
</g>
<!-- n4&#45;&gt;n3 -->
<g id="edge7" class="edge">
<title>n4&#45;&gt;n3</title>
<path fill="none" stroke="#ff0000" d="M693.5708,-68.2683C711.754,-88.2577 735.1262,-115.9397 752.2554,-137.6798"/>
<polygon fill="#ff0000" stroke="#ff0000" points="749.5872,-139.9501 758.4909,-145.6926 755.1116,-135.6511 749.5872,-139.9501"/>
</g>
<!-- n5&#45;&gt;n1 -->
<g id="edge10" class="edge">
<title>n5&#45;&gt;n1</title>
<path fill="none" stroke="#ff0000" d="M529.7695,-198.205C507.137,-217.3172 473.5484,-241.6448 439,-252.2 353.14,-278.432 322.86,-278.432 237,-252.2 206.2304,-242.7992 176.222,-222.4741 154.0369,-204.6385"/>
<polygon fill="#ff0000" stroke="#ff0000" points="156.1735,-201.864 146.2305,-198.205 151.7216,-207.2659 156.1735,-201.864"/>
</g>
<!-- n5&#45;&gt;n4 -->
<g id="edge9" class="edge">
<title>n5&#45;&gt;n4</title>
<path fill="none" stroke="#ff0000" d="M587.7127,-136.2347C602.8607,-118.001 621.2296,-95.8903 636.3664,-77.67"/>
<polygon fill="#ff0000" stroke="#ff0000" points="587.5237,-136.4623 586.7663,-143.6335 579.8554,-145.6926 580.6128,-138.5213 587.5237,-136.4623"/>
<polygon fill="#ff0000" stroke="#ff0000" points="636.5088,-77.4986 637.2662,-70.3274 644.1771,-68.2683 643.4197,-75.4396 636.5088,-77.4986"/>
</g>
<!-- n6 -->
<g id="node7" class="node">
<title>n6</title>
<path fill="#ffffff" stroke="#f4a460" stroke-width="2" d="M1092,-352C1092,-352 916,-352 916,-352 910,-352 904,-346 904,-340 904,-340 904,-288 904,-288 904,-282 910,-276 916,-276 916,-276 1092,-276 1092,-276 1098,-276 1104,-282 1104,-288 1104,-288 1104,-340 1104,-340 1104,-346 1098,-352 1092,-352"/>
<text text-anchor="start" x="927.8685" y="-338" font-family="arial" font-weight="bold" font-size="10.00" fill="#000000">Exmoor Youngest Devonian strata</text>
<text text-anchor="start" x="924.812" y="-321" font-family="arial" font-size="10.00" fill="#000000">In Devon, among all the strata older</text>
<text text-anchor="start" x="913.6885" y="-309" font-family="arial" font-size="10.00" fill="#000000"> than the New Red Sandstone, the strata</text>
<text text-anchor="start" x="926.1995" y="-297" font-family="arial" font-size="10.00" fill="#000000"> of Exmoor are the youngest #GRE</text>
<text text-anchor="start" x="977.6045" y="-285" font-family="arial" font-size="10.00" fill="#000000"> #chron&#45;hyp</text>
</g>
<!-- n7 -->
<g id="node8" class="node">
<title>n7</title>
<path fill="#ffffff" stroke="#ffc1c1" stroke-width="2" d="M1095.5,-204C1095.5,-204 912.5,-204 912.5,-204 906.5,-204 900.5,-198 900.5,-192 900.5,-192 900.5,-152 900.5,-152 900.5,-146 906.5,-140 912.5,-140 912.5,-140 1095.5,-140 1095.5,-140 1101.5,-140 1107.5,-146 1107.5,-152 1107.5,-152 1107.5,-192 1107.5,-192 1107.5,-198 1101.5,-204 1095.5,-204"/>
<text text-anchor="start" x="933.0935" y="-190" font-family="arial" font-weight="bold" font-size="10.00" fill="#000000">Culm Youngest Devonian Strata</text>
<text text-anchor="start" x="925.312" y="-173" font-family="arial" font-size="10.00" fill="#000000">In Devon, among all the strata older</text>
<text text-anchor="start" x="915.028" y="-161" font-family="arial" font-size="10.00" fill="#000000"> than the New Red Sandstone, the Culm</text>
<text text-anchor="start" x="910.5825" y="-149" font-family="arial" font-size="10.00" fill="#000000"> strata are the youngest #COA #chron&#45;hyp</text>
</g>
<!-- n6&#45;&gt;n7 -->
<g id="edge14" class="edge">
<title>n6&#45;&gt;n7</title>
<path fill="none" stroke="#ff0000" d="M997.9426,-275.9466C997.0855,-257.0053 997.0239,-234.0443 997.7577,-214.5249"/>
<polygon fill="#ff0000" stroke="#ff0000" points="1001.2612,-214.5295 998.2304,-204.3775 994.2687,-214.2037 1001.2612,-214.5295"/>
</g>
<!-- n7&#45;&gt;n6 -->
<g id="edge13" class="edge">
<title>n7&#45;&gt;n6</title>
<path fill="none" stroke="#ff0000" d="M1009.7696,-204.3775C1010.7987,-222.585 1011.0176,-245.6638 1010.4265,-265.9441"/>
<polygon fill="#ff0000" stroke="#ff0000" points="1006.9286,-265.8243 1010.0574,-275.9466 1013.9238,-266.0825 1006.9286,-265.8243"/>
</g>
</g>
</svg>
