
<!-- Generated by graphviz version 2.40.1 (20161225.0304)
 -->
<!-- Title: Argument Map Pages: 1 -->
<svg width="720pt" height="86pt"
 viewBox="0.00 0.00 720.00 85.99" xmlns="http://www.w3.org/2000/svg" xmlns:xlink="http://www.w3.org/1999/xlink">
<g id="graph0" class="graph" transform="scale(.1916 .1916) rotate(0) translate(4 444.8)">
<title>Argument Map</title>
<g id="clust1" class="cluster">
<title>cluster_1</title>
<polygon fill="#ffff00" stroke="#ffff00" points="8,-158 8,-402.4 224,-402.4 224,-158 8,-158"/>
<text text-anchor="start" x="69.3272" y="-387.6" font-family="arial" font-size="12.00" fill="#000000">Rival Hypotheses</text>
</g>
<g id="clust2" class="cluster">
<title>cluster_2</title>
<polygon fill="#f0f8ff" stroke="#f0f8ff" points="2864,-10 2864,-432.8 3510,-432.8 3510,-10 2864,-10"/>
<text text-anchor="start" x="3106.6534" y="-418" font-family="arial" font-size="12.00" fill="#000000">Dating of the Non&#45;Culm Strata</text>
</g>
<g id="clust3" class="cluster">
<title>cluster_3</title>
<polygon fill="#f5f5dc" stroke="#f5f5dc" points="3076,-152 3076,-402.4 3502,-402.4 3502,-152 3076,-152"/>
<text text-anchor="start" x="3223.6654" y="-387.6" font-family="arial" font-size="12.00" fill="#000000">Some NON&#45;Culm as SIL</text>
</g>
<g id="clust4" class="cluster">
<title>cluster_4</title>
<polygon fill="#bfefff" stroke="#bfefff" points="232,-8 232,-290.8 2650,-290.8 2650,-8 232,-8"/>
<text text-anchor="start" x="1391.3248" y="-276" font-family="arial" font-size="12.00" fill="#000000">Dating of the Culm</text>
</g>
<g id="clust5" class="cluster">
<title>cluster_5</title>
<polygon fill="#f5f5dc" stroke="#f5f5dc" points="240,-16 240,-254.4 690,-254.4 690,-16 240,-16"/>
<text text-anchor="start" x="414.993" y="-239.6" font-family="arial" font-size="12.00" fill="#000000">Some Culm as SIL</text>
</g>
<g id="clust6" class="cluster">
<title>cluster_6</title>
<polygon fill="#eee8cd" stroke="#eee8cd" points="698,-16 698,-260.4 1569,-260.4 1569,-16 698,-16"/>
<text text-anchor="start" x="1079.497" y="-245.6" font-family="arial" font-size="12.00" fill="#000000">Some Culm as ORS</text>
</g>
<g id="clust7" class="cluster">
<title>cluster_7</title>
<polygon fill="#f5f5dc" stroke="#f5f5dc" points="2002,-16 2002,-254.4 2642,-254.4 2642,-16 2002,-16"/>
<text text-anchor="start" x="2289.0054" y="-239.6" font-family="arial" font-size="12.00" fill="#000000">Culm as CM</text>
</g>
<g id="clust8" class="cluster">
<title>cluster_8</title>
<polygon fill="#e6e6fa" stroke="#e6e6fa" points="3518,-152 3518,-408.4 3742,-408.4 3742,-152 3518,-152"/>
<text text-anchor="start" x="3559.9752" y="-393.6" font-family="arial" font-size="12.00" fill="#000000">Youngest Devonian Strata</text>
</g>
<!-- n0 -->
<g id="node1" class="node">
<title>n0</title>
<path fill="#ffffff" stroke="#f4a460" stroke-width="2" d="M204,-372C204,-372 28,-372 28,-372 22,-372 16,-366 16,-360 16,-360 16,-320 16,-320 16,-314 22,-308 28,-308 28,-308 204,-308 204,-308 210,-308 216,-314 216,-320 216,-320 216,-360 216,-360 216,-366 210,-372 204,-372"/>
<text text-anchor="start" x="60.99" y="-358" font-family="arial" font-weight="bold" font-size="10.00" fill="#000000">Devonian Strata as CAM</text>
<text text-anchor="start" x="39.3125" y="-341" font-family="arial" font-size="10.00" fill="#000000">In Devon, all the strata &#45; older than</text>
<text text-anchor="start" x="25.703" y="-329" font-family="arial" font-size="10.00" fill="#000000"> the New Red Sandstone &#45; are Cambrian</text>
<text text-anchor="start" x="59.5955" y="-317" font-family="arial" font-size="10.00" fill="#000000"> in age #GRE #chron&#45;hyp</text>
</g>
<!-- n1 -->
<g id="node2" class="node">
<title>n1</title>
<path fill="#ffffff" stroke="#ffc1c1" stroke-width="2" d="M204,-218C204,-218 32,-218 32,-218 26,-218 20,-212 20,-206 20,-206 20,-178 20,-178 20,-172 26,-166 32,-166 32,-166 204,-166 204,-166 210,-166 216,-172 216,-178 216,-178 216,-206 216,-206 216,-212 210,-218 204,-218"/>
<text text-anchor="start" x="90.5045" y="-204" font-family="arial" font-weight="bold" font-size="10.00" fill="#000000">Culm as CM</text>
<text text-anchor="start" x="39.6555" y="-187" font-family="arial" font-size="10.00" fill="#000000">The Devonian Culm strata are Coal</text>
<text text-anchor="start" x="38.259" y="-175" font-family="arial" font-size="10.00" fill="#000000"> Measures in age #COA #chron&#45;hyp</text>
</g>
<!-- n0&#45;&gt;n1 -->
<g id="edge2" class="edge">
<title>n0&#45;&gt;n1</title>
<path fill="none" stroke="#ff0000" d="M110.7555,-307.8862C109.7238,-284.4843 110.0764,-252.7493 111.6011,-228.4055"/>
<polygon fill="#ff0000" stroke="#ff0000" points="115.1134,-228.3639 112.3542,-218.1347 108.1322,-227.8519 115.1134,-228.3639"/>
</g>
<!-- n3 -->
<g id="node3" class="node">
<title>n3</title>
<path fill="#ffffff" stroke="#ffc1c1" stroke-width="2" d="M3056,-218C3056,-218 2884,-218 2884,-218 2878,-218 2872,-212 2872,-206 2872,-206 2872,-178 2872,-178 2872,-172 2878,-166 2884,-166 2884,-166 3056,-166 3056,-166 3062,-166 3068,-172 3068,-178 3068,-178 3068,-206 3068,-206 3068,-212 3062,-218 3056,-218"/>
<text text-anchor="start" x="2913.6105" y="-204" font-family="arial" font-weight="bold" font-size="10.00" fill="#000000">Non&#45;Culm Strata as CAM</text>
<text text-anchor="start" x="2894.7055" y="-187" font-family="arial" font-size="10.00" fill="#000000">In Devon, the non&#45;Culm strata are</text>
<text text-anchor="start" x="2890.54" y="-175" font-family="arial" font-size="10.00" fill="#000000"> Cambrian in age #COA #chron&#45;hyp</text>
</g>
<!-- n0&#45;&gt;n3 -->
<g id="edge73" class="edge">
<title>n0&#45;&gt;n3</title>
<path fill="none" stroke="#00ff00" d="M216.1361,-339.1791C702.8166,-335.0694 2800.4063,-315.9272 2863,-290.8 2895.9537,-277.5713 2924.9534,-249.1221 2944.4198,-226.1337"/>
<polygon fill="#00ff00" stroke="#00ff00" points="2947.2448,-228.209 2950.8985,-218.2641 2941.8405,-223.7599 2947.2448,-228.209"/>
</g>
<!-- n4 -->
<g id="node5" class="node">
<title>n4</title>
<path fill="#ffffff" stroke="#ffc1c1" stroke-width="2" d="M3268,-372C3268,-372 3096,-372 3096,-372 3090,-372 3084,-366 3084,-360 3084,-360 3084,-320 3084,-320 3084,-314 3090,-308 3096,-308 3096,-308 3268,-308 3268,-308 3274,-308 3280,-314 3280,-320 3280,-320 3280,-360 3280,-360 3280,-366 3274,-372 3268,-372"/>
<text text-anchor="start" x="3106.9895" y="-358" font-family="arial" font-weight="bold" font-size="10.00" fill="#000000">Non&#45;Culm Strata as SIL and CAM</text>
<text text-anchor="start" x="3101.1465" y="-341" font-family="arial" font-size="10.00" fill="#000000">In Devon, the non&#45;Culm strata range</text>
<text text-anchor="start" x="3093.934" y="-329" font-family="arial" font-size="10.00" fill="#000000"> from Cambrian to Silurian in age #COA</text>
<text text-anchor="start" x="3155.6045" y="-317" font-family="arial" font-size="10.00" fill="#000000"> #chron&#45;hyp</text>
</g>
<!-- n0&#45;&gt;n4 -->
<g id="edge83" class="edge">
<title>n0&#45;&gt;n4</title>
<path fill="none" stroke="#ff0000" d="M216.3037,-340C1168.7826,-340 2121.2614,-340 3073.7403,-340"/>
<polygon fill="#ff0000" stroke="#ff0000" points="3073.8917,-343.5001 3083.8916,-340 3073.8916,-336.5001 3073.8917,-343.5001"/>
</g>
<!-- n7 -->
<g id="node8" class="node">
<title>n7</title>
<path fill="#ffffff" stroke="#f4a460" stroke-width="2" d="M1767.5,-218C1767.5,-218 1590.5,-218 1590.5,-218 1584.5,-218 1578.5,-212 1578.5,-206 1578.5,-206 1578.5,-178 1578.5,-178 1578.5,-172 1584.5,-166 1590.5,-166 1590.5,-166 1767.5,-166 1767.5,-166 1773.5,-166 1779.5,-172 1779.5,-178 1779.5,-178 1779.5,-206 1779.5,-206 1779.5,-212 1773.5,-218 1767.5,-218"/>
<text text-anchor="start" x="1648.67" y="-204" font-family="arial" font-weight="bold" font-size="10.00" fill="#000000">Culm as CAM</text>
<text text-anchor="start" x="1588.653" y="-187" font-family="arial" font-size="10.00" fill="#000000">The whole Culm strata of Devonshire are</text>
<text text-anchor="start" x="1600.04" y="-175" font-family="arial" font-size="10.00" fill="#000000"> Cambrian in age #GRE #chron&#45;hyp</text>
</g>
<!-- n0&#45;&gt;n7 -->
<g id="edge5" class="edge">
<title>n0&#45;&gt;n7</title>
<path fill="none" stroke="#00ff00" d="M216.0109,-338.546C534.9009,-333.6577 1510.4509,-316.6579 1573,-290.8 1605.6509,-277.302 1634.3792,-248.8791 1653.6621,-225.9691"/>
<polygon fill="#00ff00" stroke="#00ff00" points="1656.4539,-228.0842 1660.0797,-218.129 1651.0372,-223.6502 1656.4539,-228.0842"/>
</g>
<!-- n5 -->
<g id="node11" class="node">
<title>n5</title>
<path fill="#ffffff" stroke="#ffc1c1" stroke-width="2" d="M669.5,-224C669.5,-224 478.5,-224 478.5,-224 472.5,-224 466.5,-218 466.5,-212 466.5,-212 466.5,-172 466.5,-172 466.5,-166 472.5,-160 478.5,-160 478.5,-160 669.5,-160 669.5,-160 675.5,-160 681.5,-166 681.5,-172 681.5,-172 681.5,-212 681.5,-212 681.5,-218 675.5,-224 669.5,-224"/>
<text text-anchor="start" x="524.774" y="-210" font-family="arial" font-weight="bold" font-size="10.00" fill="#000000">Culm as CM and USIL</text>
<text text-anchor="start" x="476.9865" y="-193" font-family="arial" font-size="10.00" fill="#000000">The Culm strata encompass Coal Measures</text>
<text text-anchor="start" x="503.65" y="-181" font-family="arial" font-size="10.00" fill="#000000"> and upper Silurian strata #COA</text>
<text text-anchor="start" x="546.715" y="-169" font-family="arial" font-size="10.00" fill="#000000"> #chron&#45;hyp </text>
</g>
<!-- n0&#45;&gt;n5 -->
<g id="edge33" class="edge">
<title>n0&#45;&gt;n5</title>
<path fill="none" stroke="#ff0000" d="M216.0065,-332.366C303.4846,-324.3236 422.9656,-310.1356 466,-290.8 496.6695,-277.02 525.5907,-252.7426 545.921,-231.7027"/>
<polygon fill="#ff0000" stroke="#ff0000" points="548.7353,-233.8174 553.0097,-224.123 543.6228,-229.036 548.7353,-233.8174"/>
</g>
<!-- n6 -->
<g id="node14" class="node">
<title>n6</title>
<path fill="#ffffff" stroke="#ffc1c1" stroke-width="2" d="M1548.5,-224C1548.5,-224 1365.5,-224 1365.5,-224 1359.5,-224 1353.5,-218 1353.5,-212 1353.5,-212 1353.5,-172 1353.5,-172 1353.5,-166 1359.5,-160 1365.5,-160 1365.5,-160 1548.5,-160 1548.5,-160 1554.5,-160 1560.5,-166 1560.5,-172 1560.5,-172 1560.5,-212 1560.5,-212 1560.5,-218 1554.5,-224 1548.5,-224"/>
<text text-anchor="start" x="1394.1615" y="-210" font-family="arial" font-weight="bold" font-size="10.00" fill="#000000">Culm as USIL, ORS and CM</text>
<text text-anchor="start" x="1383.323" y="-193" font-family="arial" font-size="10.00" fill="#000000">The Culm strata encompass Coal</text>
<text text-anchor="start" x="1363.8575" y="-181" font-family="arial" font-size="10.00" fill="#000000"> Measures, Old Red Sandstone and upper</text>
<text text-anchor="start" x="1384.1545" y="-169" font-family="arial" font-size="10.00" fill="#000000"> Silurian strata #COA #chron&#45;hyp</text>
</g>
<!-- n0&#45;&gt;n6 -->
<g id="edge72" class="edge">
<title>n0&#45;&gt;n6</title>
<path fill="none" stroke="#ff0000" d="M216.1965,-337.906C501.6669,-331.5706 1301.7578,-311.7533 1354,-290.8 1384.8638,-278.4212 1412.913,-253.6488 1432.09,-232.0074"/>
<polygon fill="#ff0000" stroke="#ff0000" points="1434.918,-234.0851 1438.7425,-224.2047 1429.5912,-229.5435 1434.918,-234.0851"/>
</g>
<!-- n2 -->
<g id="node25" class="node">
<title>n2</title>
<path fill="#ffffff" stroke="#eedd82" stroke-width="2" d="M2842,-224C2842,-224 2670,-224 2670,-224 2664,-224 2658,-218 2658,-212 2658,-212 2658,-172 2658,-172 2658,-166 2664,-160 2670,-160 2670,-160 2842,-160 2842,-160 2848,-160 2854,-166 2854,-172 2854,-172 2854,-212 2854,-212 2854,-218 2848,-224 2842,-224"/>
<text text-anchor="start" x="2724.0505" y="-210" font-family="arial" font-weight="bold" font-size="10.00" fill="#000000">ORS in Devon</text>
<text text-anchor="start" x="2677.367" y="-193" font-family="arial" font-size="10.00" fill="#000000">In Devon, a significant part of strata</text>
<text text-anchor="start" x="2667.913" y="-181" font-family="arial" font-size="10.00" fill="#000000"> is equivalent to the Old Red Sandstone</text>
<text text-anchor="start" x="2715.157" y="-169" font-family="arial" font-size="10.00" fill="#000000"> #DEV #chron&#45;hyp</text>
</g>
<!-- n0&#45;&gt;n2 -->
<g id="edge4" class="edge">
<title>n0&#45;&gt;n2</title>
<path fill="none" stroke="#ff0000" d="M216.3406,-338.9717C678.2587,-334.1906 2579.6718,-313.4074 2637,-290.8 2667.8944,-278.6168 2695.6565,-253.5141 2716.7235,-231.6619"/>
<polygon fill="#ff0000" stroke="#ff0000" points="2719.2681,-234.0651 2723.6062,-224.3991 2714.1871,-229.2501 2719.2681,-234.0651"/>
</g>
<!-- n1&#45;&gt;n0 -->
<g id="edge1" class="edge">
<title>n1&#45;&gt;n0</title>
<path fill="none" stroke="#ff0000" d="M122.9394,-218.1347C124.2282,-240.1422 124.0885,-272.043 122.7387,-297.6858"/>
<polygon fill="#ff0000" stroke="#ff0000" points="119.2319,-297.6905 122.1124,-307.8862 126.2187,-298.1195 119.2319,-297.6905"/>
</g>
<!-- n1&#45;&gt;n7 -->
<g id="edge8" class="edge">
<title>n1&#45;&gt;n7</title>
<path fill="none" stroke="#ff0000" d="M138.3932,-218.2632C161.011,-244.7889 200.2663,-283.6189 245,-296.4 262.6146,-301.4327 1546.3854,-301.4327 1564,-296.4 1602.3691,-285.4374 1634.8068,-252.2629 1655.3492,-226.2195"/>
<polygon fill="#ff0000" stroke="#ff0000" points="1658.3005,-228.1218 1661.5932,-218.0516 1652.7393,-223.8705 1658.3005,-228.1218"/>
</g>
<!-- n1&#45;&gt;n5 -->
<g id="edge29" class="edge">
<title>n1&#45;&gt;n5</title>
<path fill="none" stroke="#ff0000" d="M138.3932,-218.2632C161.011,-244.7889 200.2663,-283.6189 245,-296.4 266.6877,-302.5965 426.3123,-302.5965 448,-296.4 485.503,-285.6849 519.0211,-256.4341 542.0414,-231.6116"/>
<polygon fill="#ff0000" stroke="#ff0000" points="544.7406,-233.8447 548.8414,-224.0756 539.5436,-229.1552 544.7406,-233.8447"/>
</g>
<!-- n14 -->
<g id="node12" class="node">
<title>n14</title>
<path fill="#ffffff" stroke="#ffc1c1" stroke-width="2" d="M552,-76C552,-76 380,-76 380,-76 374,-76 368,-70 368,-64 368,-64 368,-36 368,-36 368,-30 374,-24 380,-24 380,-24 552,-24 552,-24 558,-24 564,-30 564,-36 564,-36 564,-64 564,-64 564,-70 558,-76 552,-76"/>
<text text-anchor="start" x="406.822" y="-62" font-family="arial" font-weight="bold" font-size="10.00" fill="#000000">Some USIL dating of Culm</text>
<text text-anchor="start" x="378.764" y="-45" font-family="arial" font-size="10.00" fill="#000000">Some part of the Culm is upper Silurian</text>
<text text-anchor="start" x="408.206" y="-33" font-family="arial" font-size="10.00" fill="#000000"> in age #COA #chron&#45;hyp </text>
</g>
<!-- n1&#45;&gt;n14 -->
<g id="edge25" class="edge">
<title>n1&#45;&gt;n14</title>
<path fill="none" stroke="#ff0000" d="M187.1926,-165.955C248.3606,-141.7107 336.9818,-105.5862 397.8372,-80.1133"/>
<polygon fill="#ff0000" stroke="#ff0000" points="399.4895,-83.2157 407.3573,-76.1199 396.7818,-76.7606 399.4895,-83.2157"/>
</g>
<!-- n1&#45;&gt;n6 -->
<g id="edge68" class="edge">
<title>n1&#45;&gt;n6</title>
<path fill="none" stroke="#ff0000" d="M138.3932,-218.2632C161.011,-244.7889 200.2663,-283.6189 245,-296.4 259.5698,-300.5628 1321.4302,-300.5628 1336,-296.4 1372.47,-285.98 1404.4942,-256.9179 1426.4209,-232.095"/>
<polygon fill="#ff0000" stroke="#ff0000" points="1429.3263,-234.0835 1433.178,-224.2135 1424.012,-229.5273 1429.3263,-234.0835"/>
</g>
<!-- n16 -->
<g id="node15" class="node">
<title>n16</title>
<path fill="#ffffff" stroke="#63aef2" stroke-width="2" d="M1104,-76C1104,-76 932,-76 932,-76 926,-76 920,-70 920,-64 920,-64 920,-36 920,-36 920,-30 926,-24 932,-24 932,-24 1104,-24 1104,-24 1110,-24 1116,-30 1116,-36 1116,-36 1116,-64 1116,-64 1116,-70 1110,-76 1104,-76"/>
<text text-anchor="start" x="950.7635" y="-62" font-family="arial" font-weight="bold" font-size="10.00" fill="#000000">Some ORS dating of the Culm</text>
<text text-anchor="start" x="943.2655" y="-45" font-family="arial" font-size="10.00" fill="#000000">Some part of the Culm is Old Red</text>
<text text-anchor="start" x="934.9155" y="-33" font-family="arial" font-size="10.00" fill="#000000"> Sandstone in age #CAO #chron&#45;hyp </text>
</g>
<!-- n1&#45;&gt;n16 -->
<g id="edge43" class="edge">
<title>n1&#45;&gt;n16</title>
<path fill="none" stroke="#ff0000" d="M196.3074,-165.897C212.3039,-160.6906 229.0921,-155.6956 245,-152 369.4253,-123.0943 727.9324,-82.1356 909.6878,-62.052"/>
<polygon fill="#ff0000" stroke="#ff0000" points="910.2483,-65.5114 919.804,-60.9355 909.4804,-58.5537 910.2483,-65.5114"/>
</g>
<!-- n10 -->
<g id="node19" class="node">
<title>n10</title>
<path fill="#ffffff" stroke="#ffc1c1" stroke-width="2" d="M2196,-76C2196,-76 2024,-76 2024,-76 2018,-76 2012,-70 2012,-64 2012,-64 2012,-36 2012,-36 2012,-30 2018,-24 2024,-24 2024,-24 2196,-24 2196,-24 2202,-24 2208,-30 2208,-36 2208,-36 2208,-64 2208,-64 2208,-70 2202,-76 2196,-76"/>
<text text-anchor="start" x="2054.161" y="-62" font-family="arial" font-weight="bold" font-size="10.00" fill="#000000">Some CM dating of Culm</text>
<text text-anchor="start" x="2024.712" y="-45" font-family="arial" font-size="10.00" fill="#000000">Some part of the Devon Culm is CM in</text>
<text text-anchor="start" x="2058.874" y="-33" font-family="arial" font-size="10.00" fill="#000000"> age #COA #chron&#45;hyp</text>
</g>
<!-- n1&#45;&gt;n10 -->
<g id="edge10" class="edge">
<title>n1&#45;&gt;n10</title>
<path fill="none" stroke="#00ff00" d="M183.8835,-165.9532C200.6326,-160.3675 218.7718,-155.1912 236,-152 1010.9869,-8.4487 1231.4253,-216.6973 2008,-82 2013.4859,-81.0485 2019.0868,-79.8805 2024.7004,-78.5599"/>
<polygon fill="#00ff00" stroke="#00ff00" points="2025.9462,-81.8561 2034.7965,-76.0317 2024.2458,-75.0657 2025.9462,-81.8561"/>
</g>
<!-- n11 -->
<g id="node20" class="node">
<title>n11</title>
<path fill="#ffffff" stroke="#ffc1c1" stroke-width="2" d="M2622,-218C2622,-218 2450,-218 2450,-218 2444,-218 2438,-212 2438,-206 2438,-206 2438,-178 2438,-178 2438,-172 2444,-166 2450,-166 2450,-166 2622,-166 2622,-166 2628,-166 2634,-172 2634,-178 2634,-178 2634,-206 2634,-206 2634,-212 2628,-218 2622,-218"/>
<text text-anchor="start" x="2486.83" y="-204" font-family="arial" font-weight="bold" font-size="10.00" fill="#000000">No CM dating of Culm</text>
<text text-anchor="start" x="2447.653" y="-187" font-family="arial" font-size="10.00" fill="#000000">No part of the Devon Culm is CM in age</text>
<text text-anchor="start" x="2493.2125" y="-175" font-family="arial" font-size="10.00" fill="#000000"> #COA #chron&#45;hyp </text>
</g>
<!-- n1&#45;&gt;n11 -->
<g id="edge15" class="edge">
<title>n1&#45;&gt;n11</title>
<path fill="none" stroke="#ff0000" d="M138.3932,-218.2632C161.011,-244.7889 200.2663,-283.6189 245,-296.4 259.523,-300.5494 2405.477,-300.5494 2420,-296.4 2458.5523,-285.385 2491.2956,-252.2187 2512.0632,-226.1915"/>
<polygon fill="#ff0000" stroke="#ff0000" points="2515.027,-228.0803 2518.3773,-218.0291 2509.4903,-223.7973 2515.027,-228.0803"/>
</g>
<!-- n12 -->
<g id="node21" class="node">
<title>n12</title>
<path fill="#ffffff" stroke="#ffc1c1" stroke-width="2" d="M2408,-224C2408,-224 2236,-224 2236,-224 2230,-224 2224,-218 2224,-212 2224,-212 2224,-172 2224,-172 2224,-166 2230,-160 2236,-160 2236,-160 2408,-160 2408,-160 2414,-160 2420,-166 2420,-172 2420,-172 2420,-212 2420,-212 2420,-218 2414,-224 2408,-224"/>
<text text-anchor="start" x="2258.383" y="-210" font-family="arial" font-weight="bold" font-size="10.00" fill="#000000">Main part of the Culm as CM</text>
<text text-anchor="start" x="2243.092" y="-193" font-family="arial" font-size="10.00" fill="#000000">In Devon, the main part of the Culm</text>
<text text-anchor="start" x="2238.096" y="-181" font-family="arial" font-size="10.00" fill="#000000"> strata is Coal Measures in age #COA</text>
<text text-anchor="start" x="2295.6045" y="-169" font-family="arial" font-size="10.00" fill="#000000"> #chron&#45;hyp</text>
</g>
<!-- n1&#45;&gt;n12 -->
<g id="edge17" class="edge">
<title>n1&#45;&gt;n12</title>
<path fill="none" stroke="#00ff00" d="M138.3932,-218.2632C161.011,-244.7889 200.2663,-283.6189 245,-296.4 258.0941,-300.1412 2192.9059,-300.1412 2206,-296.4 2241.7314,-286.191 2272.4728,-256.9537 2293.3145,-232.008"/>
<polygon fill="#00ff00" stroke="#00ff00" points="2296.1539,-234.0632 2299.7272,-224.0891 2290.7139,-229.6579 2296.1539,-234.0632"/>
</g>
<!-- n13 -->
<g id="node22" class="node">
<title>n13</title>
<path fill="#ffffff" stroke="#ffc1c1" stroke-width="2" d="M2194,-218C2194,-218 2022,-218 2022,-218 2016,-218 2010,-212 2010,-206 2010,-206 2010,-178 2010,-178 2010,-172 2016,-166 2022,-166 2022,-166 2194,-166 2194,-166 2200,-166 2206,-172 2206,-178 2206,-178 2206,-206 2206,-206 2206,-212 2200,-218 2194,-218"/>
<text text-anchor="start" x="2042.441" y="-204" font-family="arial" font-weight="bold" font-size="10.00" fill="#000000">Black Culm Limestone as CM</text>
<text text-anchor="start" x="2033.829" y="-187" font-family="arial" font-size="10.00" fill="#000000">The black Culm limestone is Coal</text>
<text text-anchor="start" x="2028.259" y="-175" font-family="arial" font-size="10.00" fill="#000000"> Measures in age #COA #chron&#45;hyp</text>
</g>
<!-- n1&#45;&gt;n13 -->
<g id="edge21" class="edge">
<title>n1&#45;&gt;n13</title>
<path fill="none" stroke="#00ff00" d="M138.3932,-218.2632C161.011,-244.7889 200.2663,-283.6189 245,-296.4 268.3971,-303.0849 1973.6029,-303.0849 1997,-296.4 2034.6433,-285.6448 2065.8577,-252.4379 2085.497,-226.3302"/>
<polygon fill="#00ff00" stroke="#00ff00" points="2088.4032,-228.2849 2091.4601,-218.1407 2082.7444,-224.1645 2088.4032,-228.2849"/>
</g>
<!-- n20 -->
<g id="node4" class="node">
<title>n20</title>
<path fill="#ffffff" stroke="#ffc1c1" stroke-width="2" d="M3056,-82C3056,-82 2884,-82 2884,-82 2878,-82 2872,-76 2872,-70 2872,-70 2872,-30 2872,-30 2872,-24 2878,-18 2884,-18 2884,-18 3056,-18 3056,-18 3062,-18 3068,-24 3068,-30 3068,-30 3068,-70 3068,-70 3068,-76 3062,-82 3056,-82"/>
<text text-anchor="start" x="2898.3285" y="-68" font-family="arial" font-weight="bold" font-size="10.00" fill="#000000">Some part of Non&#45;Culm as CAM</text>
<text text-anchor="start" x="2888.0365" y="-51" font-family="arial" font-size="10.00" fill="#000000">In Devon, some part of the non&#45;Culm</text>
<text text-anchor="start" x="2898.0445" y="-39" font-family="arial" font-size="10.00" fill="#000000"> strata is Cambrian in age #COA</text>
<text text-anchor="start" x="2943.6045" y="-27" font-family="arial" font-size="10.00" fill="#000000"> #chron&#45;hyp</text>
</g>
<!-- n3&#45;&gt;n20 -->
<g id="edge74" class="edge">
<title>n3&#45;&gt;n20</title>
<path fill="none" stroke="#00ff00" d="M2970,-165.955C2970,-145.38 2970,-116.2488 2970,-92.3329"/>
<polygon fill="#00ff00" stroke="#00ff00" points="2973.5001,-92.1028 2970,-82.1028 2966.5001,-92.1028 2973.5001,-92.1028"/>
</g>
<!-- n3&#45;&gt;n4 -->
<g id="edge81" class="edge">
<title>n3&#45;&gt;n4</title>
<path fill="none" stroke="#ff0000" d="M2999.4189,-218.1279C3020.6199,-239.7138 3050.3752,-270.0714 3081,-290.8 3087.4562,-295.1699 3094.3638,-299.3102 3101.4266,-303.195"/>
<polygon fill="#ff0000" stroke="#ff0000" points="3099.9601,-306.3791 3110.4337,-307.9773 3103.2427,-300.1965 3099.9601,-306.3791"/>
</g>
<!-- n21 -->
<g id="node6" class="node">
<title>n21</title>
<path fill="#ffffff" stroke="#ffc1c1" stroke-width="2" d="M3376,-224C3376,-224 3204,-224 3204,-224 3198,-224 3192,-218 3192,-212 3192,-212 3192,-172 3192,-172 3192,-166 3198,-160 3204,-160 3204,-160 3376,-160 3376,-160 3382,-160 3388,-166 3388,-172 3388,-172 3388,-212 3388,-212 3388,-218 3382,-224 3376,-224"/>
<text text-anchor="start" x="3221.9335" y="-210" font-family="arial" font-weight="bold" font-size="10.00" fill="#000000">Some part of Non&#45;Culm as SIL</text>
<text text-anchor="start" x="3208.0365" y="-193" font-family="arial" font-size="10.00" fill="#000000">In Devon, some part of the non&#45;Culm</text>
<text text-anchor="start" x="3223.0445" y="-181" font-family="arial" font-size="10.00" fill="#000000"> strata is Silurian in age #COA</text>
<text text-anchor="start" x="3263.6045" y="-169" font-family="arial" font-size="10.00" fill="#000000"> #chron&#45;hyp</text>
</g>
<!-- n3&#45;&gt;n21 -->
<g id="edge75" class="edge">
<title>n3&#45;&gt;n21</title>
<path fill="none" stroke="#ff0000" d="M3068.125,-192C3105.9161,-192 3143.7073,-192 3181.4984,-192"/>
<polygon fill="#ff0000" stroke="#ff0000" points="3181.6297,-195.5001 3191.6296,-192 3181.6296,-188.5001 3181.6297,-195.5001"/>
</g>
<!-- n22 -->
<g id="node7" class="node">
<title>n22</title>
<path fill="#ffffff" stroke="#ffc1c1" stroke-width="2" d="M3482,-372C3482,-372 3310,-372 3310,-372 3304,-372 3298,-366 3298,-360 3298,-360 3298,-320 3298,-320 3298,-314 3304,-308 3310,-308 3310,-308 3482,-308 3482,-308 3488,-308 3494,-314 3494,-320 3494,-320 3494,-360 3494,-360 3494,-366 3488,-372 3482,-372"/>
<text text-anchor="start" x="3353.7685" y="-358" font-family="arial" font-weight="bold" font-size="10.00" fill="#000000">SIL in North Devon</text>
<text text-anchor="start" x="3314.037" y="-341" font-family="arial" font-size="10.00" fill="#000000">In north Devon (around Pilton), some</text>
<text text-anchor="start" x="3317.3775" y="-329" font-family="arial" font-size="10.00" fill="#000000"> non&#45;Culm strata are Silurian in age</text>
<text text-anchor="start" x="3354.602" y="-317" font-family="arial" font-size="10.00" fill="#000000"> #COA #chron&#45;hyp</text>
</g>
<!-- n3&#45;&gt;n22 -->
<g id="edge78" class="edge">
<title>n3&#45;&gt;n22</title>
<path fill="none" stroke="#ff0000" d="M2995.3533,-218.4232C3015.5733,-242.1207 3045.7357,-275.4514 3081,-290.8 3125.2745,-310.0702 3250.6419,-292.5771 3298,-302 3302.7066,-302.9365 3307.4857,-304.0385 3312.2731,-305.2661"/>
<polygon fill="#ff0000" stroke="#ff0000" points="3311.5222,-308.6891 3322.0911,-307.9494 3313.3677,-301.9368 3311.5222,-308.6891"/>
</g>
<!-- n4&#45;&gt;n0 -->
<g id="edge82" class="edge">
<title>n4&#45;&gt;n0</title>
<path fill="none" stroke="#ff0000" d="M3083.8916,-340C2131.4128,-340 1178.9339,-340 226.4551,-340"/>
<polygon fill="#ff0000" stroke="#ff0000" points="226.3037,-336.5001 216.3037,-340 226.3037,-343.5001 226.3037,-336.5001"/>
</g>
<!-- n4&#45;&gt;n3 -->
<g id="edge80" class="edge">
<title>n4&#45;&gt;n3</title>
<path fill="none" stroke="#ff0000" d="M3092.5934,-307.9773C3082.2772,-302.7655 3072.1822,-297.015 3063,-290.8 3035.964,-272.5005 3009.6057,-246.6967 2991.7037,-226.0484"/>
<polygon fill="#ff0000" stroke="#ff0000" points="2994.156,-223.5266 2985.0398,-218.1279 2988.7996,-228.0332 2994.156,-223.5266"/>
</g>
<!-- n21&#45;&gt;n3 -->
<g id="edge76" class="edge">
<title>n21&#45;&gt;n3</title>
<path fill="none" stroke="#ff0000" d="M3191.6296,-192C3153.8385,-192 3116.0474,-192 3078.2562,-192"/>
<polygon fill="#ff0000" stroke="#ff0000" points="3078.125,-188.5001 3068.125,-192 3078.125,-195.5001 3078.125,-188.5001"/>
</g>
<!-- n22&#45;&gt;n3 -->
<g id="edge79" class="edge">
<title>n22&#45;&gt;n3</title>
<path fill="none" stroke="#ff0000" d="M3304.1651,-307.9494C3296.0594,-305.624 3287.927,-303.5772 3280,-302 3232.6419,-292.5771 3107.2745,-310.0702 3063,-290.8 3031.7305,-277.1901 3004.4724,-249.4415 2987.4404,-226.8073"/>
<polygon fill="#ff0000" stroke="#ff0000" points="2990.0991,-224.5088 2981.4264,-218.4232 2984.4111,-228.5889 2990.0991,-224.5088"/>
</g>
<!-- n22&#45;&gt;n21 -->
<g id="edge77" class="edge">
<title>n22&#45;&gt;n21</title>
<path fill="none" stroke="#00ff00" d="M3372.9996,-307.8862C3357.095,-285.6799 3335.8164,-255.97 3318.7863,-232.1922"/>
<polygon fill="#00ff00" stroke="#00ff00" points="3321.6238,-230.1431 3312.9555,-224.0511 3315.9329,-234.219 3321.6238,-230.1431"/>
</g>
<!-- n7&#45;&gt;n1 -->
<g id="edge9" class="edge">
<title>n7&#45;&gt;n1</title>
<path fill="none" stroke="#ff0000" d="M1661.5932,-218.0516C1641.7584,-244.8221 1606.5216,-284.251 1564,-296.4 1546.3854,-301.4327 262.6146,-301.4327 245,-296.4 204.4601,-284.8172 168.4195,-251.8406 145.184,-226.0164"/>
<polygon fill="#ff0000" stroke="#ff0000" points="147.6149,-223.4797 138.3932,-218.2632 142.3491,-228.0918 147.6149,-223.4797"/>
</g>
<!-- n8 -->
<g id="node9" class="node">
<title>n8</title>
<path fill="#ffffff" stroke="#f4a460" stroke-width="2" d="M1981.5,-76C1981.5,-76 1808.5,-76 1808.5,-76 1802.5,-76 1796.5,-70 1796.5,-64 1796.5,-64 1796.5,-36 1796.5,-36 1796.5,-30 1802.5,-24 1808.5,-24 1808.5,-24 1981.5,-24 1981.5,-24 1987.5,-24 1993.5,-30 1993.5,-36 1993.5,-36 1993.5,-64 1993.5,-64 1993.5,-70 1987.5,-76 1981.5,-76"/>
<text text-anchor="start" x="1828.5485" y="-62" font-family="arial" font-weight="bold" font-size="10.00" fill="#000000">Main part of the Culm as CAM</text>
<text text-anchor="start" x="1806.8785" y="-45" font-family="arial" font-size="10.00" fill="#000000">Then main part of the Culm is Cambrian</text>
<text text-anchor="start" x="1839.0955" y="-33" font-family="arial" font-size="10.00" fill="#000000"> in age #GRE #chron&#45;hyp</text>
</g>
<!-- n7&#45;&gt;n8 -->
<g id="edge6" class="edge">
<title>n7&#45;&gt;n8</title>
<path fill="none" stroke="#00ff00" d="M1718.6177,-165.955C1754.7375,-142.2096 1808.1927,-107.0677 1846.7818,-81.699"/>
<polygon fill="#00ff00" stroke="#00ff00" points="1848.8349,-84.5379 1855.2683,-76.1199 1844.9895,-78.6887 1848.8349,-84.5379"/>
</g>
<!-- n9 -->
<g id="node10" class="node">
<title>n9</title>
<path fill="#ffffff" stroke="#f4a460" stroke-width="2" d="M1766.5,-76C1766.5,-76 1589.5,-76 1589.5,-76 1583.5,-76 1577.5,-70 1577.5,-64 1577.5,-64 1577.5,-36 1577.5,-36 1577.5,-30 1583.5,-24 1589.5,-24 1589.5,-24 1766.5,-24 1766.5,-24 1772.5,-24 1778.5,-30 1778.5,-36 1778.5,-36 1778.5,-64 1778.5,-64 1778.5,-70 1772.5,-76 1766.5,-76"/>
<text text-anchor="start" x="1609.6065" y="-62" font-family="arial" font-weight="bold" font-size="10.00" fill="#000000">Black Culm Limestone as CAM</text>
<text text-anchor="start" x="1587.6625" y="-45" font-family="arial" font-size="10.00" fill="#000000">The black Culm limestone is Cambrian in</text>
<text text-anchor="start" x="1627.374" y="-33" font-family="arial" font-size="10.00" fill="#000000"> age #GRE #chron&#45;hyp</text>
</g>
<!-- n7&#45;&gt;n9 -->
<g id="edge7" class="edge">
<title>n7&#45;&gt;n9</title>
<path fill="none" stroke="#00ff00" d="M1678.8166,-165.955C1678.6597,-143.6764 1678.4322,-111.366 1678.2571,-86.5073"/>
<polygon fill="#00ff00" stroke="#00ff00" points="1681.7561,-86.3358 1678.1856,-76.3608 1674.7562,-86.3852 1681.7561,-86.3358"/>
</g>
<!-- n7&#45;&gt;n5 -->
<g id="edge31" class="edge">
<title>n7&#45;&gt;n5</title>
<path fill="none" stroke="#ff0000" d="M1661.5932,-218.0516C1641.7584,-244.8221 1606.5216,-284.251 1564,-296.4 1541.0036,-302.9704 725.9964,-302.9704 703,-296.4 665.0906,-285.5687 630.8494,-256.4859 607.187,-231.759"/>
<polygon fill="#ff0000" stroke="#ff0000" points="609.5685,-229.1806 600.1908,-224.25 604.4469,-233.9524 609.5685,-229.1806"/>
</g>
<!-- n7&#45;&gt;n14 -->
<g id="edge27" class="edge">
<title>n7&#45;&gt;n14</title>
<path fill="none" stroke="#ff0000" d="M1627.5354,-165.9431C1613.0631,-160.5016 1597.1638,-155.3934 1582,-152 1199.5554,-66.4167 1092.5583,-124.8099 703,-82 660.9693,-77.3811 614.743,-71.1154 574.3303,-65.3525"/>
<polygon fill="#ff0000" stroke="#ff0000" points="574.5825,-61.853 564.1872,-63.8995 573.5898,-68.7823 574.5825,-61.853"/>
</g>
<!-- n7&#45;&gt;n6 -->
<g id="edge66" class="edge">
<title>n7&#45;&gt;n6</title>
<path fill="none" stroke="#ff0000" d="M1578.1996,-192C1575.7287,-192 1573.2579,-192 1570.787,-192"/>
<polygon fill="#ff0000" stroke="#ff0000" points="1570.6289,-188.5001 1560.6289,-192 1570.6289,-195.5001 1570.6289,-188.5001"/>
</g>
<!-- n7&#45;&gt;n16 -->
<g id="edge41" class="edge">
<title>n7&#45;&gt;n16</title>
<path fill="none" stroke="#ff0000" d="M1625.1333,-165.913C1611.2729,-160.737 1596.2673,-155.7508 1582,-152 1384.9719,-100.2029 1327.4203,-128.1778 1129,-82 1124.6631,-80.9907 1120.2432,-79.8895 1115.7866,-78.7225"/>
<polygon fill="#ff0000" stroke="#ff0000" points="1116.5563,-75.305 1105.9894,-76.0728 1114.7287,-82.0622 1116.5563,-75.305"/>
</g>
<!-- n7&#45;&gt;n10 -->
<g id="edge12" class="edge">
<title>n7&#45;&gt;n10</title>
<path fill="none" stroke="#ff0000" d="M1763.4161,-165.955C1839.5301,-141.4613 1950.7529,-104.8416 2026.5627,-79.3305"/>
<polygon fill="#ff0000" stroke="#ff0000" points="2027.7313,-82.6301 2036.09,-76.1199 2025.4959,-75.9967 2027.7313,-82.6301"/>
</g>
<!-- n8&#45;&gt;n12 -->
<g id="edge19" class="edge">
<title>n8&#45;&gt;n12</title>
<path fill="none" stroke="#ff0000" d="M1985.2202,-76.0712C2066.6497,-100.9399 2180.0551,-136.7926 2224,-152 2228.2256,-153.4623 2232.5369,-154.9773 2236.8799,-156.5244"/>
<polygon fill="#ff0000" stroke="#ff0000" points="2235.8225,-159.8635 2246.4169,-159.9544 2238.1916,-153.2766 2235.8225,-159.8635"/>
</g>
<!-- n15 -->
<g id="node13" class="node">
<title>n15</title>
<path fill="#ffffff" stroke="#ffc1c1" stroke-width="2" d="M436,-218C436,-218 260,-218 260,-218 254,-218 248,-212 248,-206 248,-206 248,-178 248,-178 248,-172 254,-166 260,-166 260,-166 436,-166 436,-166 442,-166 448,-172 448,-178 448,-178 448,-206 448,-206 448,-212 442,-218 436,-218"/>
<text text-anchor="start" x="279.102" y="-204" font-family="arial" font-weight="bold" font-size="10.00" fill="#000000">Black Culm Limestone as USIL</text>
<text text-anchor="start" x="270.211" y="-187" font-family="arial" font-size="10.00" fill="#000000">The whole of the Culm limestone is</text>
<text text-anchor="start" x="257.9785" y="-175" font-family="arial" font-size="10.00" fill="#000000"> upper Silurian in age. #COA #chron&#45;hyp</text>
</g>
<!-- n9&#45;&gt;n15 -->
<g id="edge38" class="edge">
<title>n9&#45;&gt;n15</title>
<path fill="none" stroke="#ff0000" d="M1608.5992,-76.0422C1599.7357,-78.3586 1590.7195,-80.4202 1582,-82 1092.9862,-170.5971 952.3471,-49.7727 466,-152 453.4243,-154.6433 440.3526,-158.4507 427.6726,-162.6784"/>
<polygon fill="#ff0000" stroke="#ff0000" points="426.3859,-159.4196 418.0673,-165.9809 428.662,-166.0392 426.3859,-159.4196"/>
</g>
<!-- n17 -->
<g id="node16" class="node">
<title>n17</title>
<path fill="#ffffff" stroke="#ffc1c1" stroke-width="2" d="M1104,-224C1104,-224 932,-224 932,-224 926,-224 920,-218 920,-212 920,-212 920,-172 920,-172 920,-166 926,-160 932,-160 932,-160 1104,-160 1104,-160 1110,-160 1116,-166 1116,-172 1116,-172 1116,-212 1116,-212 1116,-218 1110,-224 1104,-224"/>
<text text-anchor="start" x="934.651" y="-210" font-family="arial" font-weight="bold" font-size="10.00" fill="#000000">Some ORS dating of Culm Limestone</text>
<text text-anchor="start" x="932.152" y="-193" font-family="arial" font-size="10.00" fill="#000000">Some part of the black Culm limestone</text>
<text text-anchor="start" x="937.9755" y="-181" font-family="arial" font-size="10.00" fill="#000000"> is Old Red Sandstone in age #COA</text>
<text text-anchor="start" x="990.215" y="-169" font-family="arial" font-size="10.00" fill="#000000"> #chron&#45;hyp </text>
</g>
<!-- n9&#45;&gt;n17 -->
<g id="edge50" class="edge">
<title>n9&#45;&gt;n17</title>
<path fill="none" stroke="#ff0000" d="M1605.5801,-76.0241C1597.6767,-78.1947 1589.7083,-80.2311 1582,-82 1386.0067,-126.9775 1329.5843,-101.2723 1135,-152 1129.3604,-153.4702 1123.6048,-155.1243 1117.8196,-156.9011"/>
<polygon fill="#ff0000" stroke="#ff0000" points="1116.5426,-153.6343 1108.0708,-159.9967 1118.6611,-160.3061 1116.5426,-153.6343"/>
</g>
<!-- n18 -->
<g id="node17" class="node">
<title>n18</title>
<path fill="#ffffff" stroke="#ffc1c1" stroke-width="2" d="M890,-224C890,-224 718,-224 718,-224 712,-224 706,-218 706,-212 706,-212 706,-172 706,-172 706,-166 712,-160 718,-160 718,-160 890,-160 890,-160 896,-160 902,-166 902,-172 902,-172 902,-212 902,-212 902,-218 896,-224 890,-224"/>
<text text-anchor="start" x="720.3715" y="-210" font-family="arial" font-weight="bold" font-size="10.00" fill="#000000">Some USIL dating of Culm Limestone</text>
<text text-anchor="start" x="718.152" y="-193" font-family="arial" font-size="10.00" fill="#000000">Some part of the black Culm limestone</text>
<text text-anchor="start" x="736.7645" y="-181" font-family="arial" font-size="10.00" fill="#000000"> is upper Silurian in age #COA</text>
<text text-anchor="start" x="777.6045" y="-169" font-family="arial" font-size="10.00" fill="#000000"> #chron&#45;hyp</text>
</g>
<!-- n9&#45;&gt;n18 -->
<g id="edge56" class="edge">
<title>n9&#45;&gt;n18</title>
<path fill="none" stroke="#ff0000" d="M1607.0988,-76.0519C1598.7111,-78.2877 1590.2169,-80.3293 1582,-82 1292.0694,-140.9482 1207.9667,-84.1043 920,-152 913.983,-153.4187 907.8448,-155.0849 901.688,-156.9174"/>
<polygon fill="#ff0000" stroke="#ff0000" points="900.5244,-153.6138 892.0123,-159.9222 902.6005,-160.2989 900.5244,-153.6138"/>
</g>
<!-- n19 -->
<g id="node18" class="node">
<title>n19</title>
<path fill="#ffffff" stroke="#ffc1c1" stroke-width="2" d="M1323.5,-230C1323.5,-230 1146.5,-230 1146.5,-230 1140.5,-230 1134.5,-224 1134.5,-218 1134.5,-218 1134.5,-166 1134.5,-166 1134.5,-160 1140.5,-154 1146.5,-154 1146.5,-154 1323.5,-154 1323.5,-154 1329.5,-154 1335.5,-160 1335.5,-166 1335.5,-166 1335.5,-218 1335.5,-218 1335.5,-224 1329.5,-230 1323.5,-230"/>
<text text-anchor="start" x="1144.651" y="-216" font-family="arial" font-weight="bold" font-size="10.00" fill="#000000">Black Culm Limestone as USIL and ORS</text>
<text text-anchor="start" x="1145.7645" y="-199" font-family="arial" font-size="10.00" fill="#000000">The balck Culm limestone encompasses</text>
<text text-anchor="start" x="1152.9695" y="-187" font-family="arial" font-size="10.00" fill="#000000"> the upper part of the Silurian and the</text>
<text text-anchor="start" x="1145.748" y="-175" font-family="arial" font-size="10.00" fill="#000000"> whole of the Old Red Sandstone. #COA</text>
<text text-anchor="start" x="1209.1045" y="-163" font-family="arial" font-size="10.00" fill="#000000"> #chron&#45;hyp</text>
</g>
<!-- n9&#45;&gt;n19 -->
<g id="edge62" class="edge">
<title>n9&#45;&gt;n19</title>
<path fill="none" stroke="#ff0000" d="M1598.9609,-76.0576C1506.9386,-104.9197 1366.0945,-147.9517 1354,-152 1351.1065,-152.9685 1348.174,-153.961 1345.2152,-154.9714"/>
<polygon fill="#ff0000" stroke="#ff0000" points="1344.0073,-151.6856 1335.6922,-158.2513 1346.2869,-158.304 1344.0073,-151.6856"/>
</g>
<!-- n9&#45;&gt;n13 -->
<g id="edge23" class="edge">
<title>n9&#45;&gt;n13</title>
<path fill="none" stroke="#ff0000" d="M1775.4898,-76.0834C1843.2448,-95.7352 1935.2402,-124.0002 2015,-152 2024.0579,-155.1798 2033.5087,-158.6604 2042.7764,-162.1998"/>
<polygon fill="#ff0000" stroke="#ff0000" points="2041.7547,-165.5572 2052.344,-165.8992 2044.2792,-159.0282 2041.7547,-165.5572"/>
</g>
<!-- n5&#45;&gt;n0 -->
<g id="edge32" class="edge">
<title>n5&#45;&gt;n0</title>
<path fill="none" stroke="#ff0000" d="M538.0816,-224.123C514.6678,-246.6214 482.4359,-275.3278 448,-290.8 409.0198,-308.314 307.3183,-321.6047 226.6213,-329.9302"/>
<polygon fill="#ff0000" stroke="#ff0000" points="225.9834,-326.477 216.389,-330.9712 226.6919,-333.441 225.9834,-326.477"/>
</g>
<!-- n5&#45;&gt;n1 -->
<g id="edge28" class="edge">
<title>n5&#45;&gt;n1</title>
<path fill="none" stroke="#ff0000" d="M548.8414,-224.0756C525.9132,-250.1838 489.3826,-284.5764 448,-296.4 426.3123,-302.5965 266.6877,-302.5965 245,-296.4 204.4601,-284.8172 168.4195,-251.8406 145.184,-226.0164"/>
<polygon fill="#ff0000" stroke="#ff0000" points="147.6149,-223.4797 138.3932,-218.2632 142.3491,-228.0918 147.6149,-223.4797"/>
</g>
<!-- n5&#45;&gt;n7 -->
<g id="edge30" class="edge">
<title>n5&#45;&gt;n7</title>
<path fill="none" stroke="#ff0000" d="M600.1908,-224.25C623.8043,-250.2734 661.1689,-284.4483 703,-296.4 725.9964,-302.9704 1541.0036,-302.9704 1564,-296.4 1602.3691,-285.4374 1634.8068,-252.2629 1655.3492,-226.2195"/>
<polygon fill="#ff0000" stroke="#ff0000" points="1658.3005,-228.1218 1661.5932,-218.0516 1652.7393,-223.8705 1658.3005,-228.1218"/>
</g>
<!-- n5&#45;&gt;n6 -->
<g id="edge70" class="edge">
<title>n5&#45;&gt;n6</title>
<path fill="none" stroke="#ff0000" d="M600.1908,-224.25C623.8043,-250.2734 661.1689,-284.4483 703,-296.4 719.9068,-301.2305 1319.0932,-301.2305 1336,-296.4 1372.47,-285.98 1404.4942,-256.9179 1426.4209,-232.095"/>
<polygon fill="#ff0000" stroke="#ff0000" points="1429.3263,-234.0835 1433.178,-224.2135 1424.012,-229.5273 1429.3263,-234.0835"/>
</g>
<!-- n5&#45;&gt;n16 -->
<g id="edge45" class="edge">
<title>n5&#45;&gt;n16</title>
<path fill="none" stroke="#ff0000" d="M678.5534,-159.9787C686.8357,-157.2626 695.0615,-154.5725 703,-152 780.3726,-126.9275 868.4177,-99.265 931.7708,-79.0805"/>
<polygon fill="#ff0000" stroke="#ff0000" points="932.8638,-82.4057 941.3274,-76.0325 930.7367,-75.7367 932.8638,-82.4057"/>
</g>
<!-- n14&#45;&gt;n1 -->
<g id="edge24" class="edge">
<title>n14&#45;&gt;n1</title>
<path fill="none" stroke="#ff0000" d="M396.6183,-76.1199C335.3939,-100.3887 246.7731,-136.5145 185.9749,-161.9654"/>
<polygon fill="#ff0000" stroke="#ff0000" points="184.332,-158.859 176.4645,-165.955 187.0399,-165.3141 184.332,-158.859"/>
</g>
<!-- n14&#45;&gt;n7 -->
<g id="edge26" class="edge">
<title>n14&#45;&gt;n7</title>
<path fill="none" stroke="#ff0000" d="M564.0839,-66.3021C601.7865,-71.7958 645.2679,-77.6337 685,-82 1074.5583,-124.8099 1181.5554,-66.4167 1564,-152 1575.9652,-154.6776 1588.3883,-158.4228 1600.4669,-162.5571"/>
<polygon fill="#ff0000" stroke="#ff0000" points="1599.4696,-165.9166 1610.0644,-165.9431 1601.7986,-159.3154 1599.4696,-165.9166"/>
</g>
<!-- n15&#45;&gt;n9 -->
<g id="edge37" class="edge">
<title>n15&#45;&gt;n9</title>
<path fill="none" stroke="#ff0000" d="M400.6166,-165.9809C415.6563,-160.4673 432.2188,-155.3171 448,-152 934.3471,-49.7727 1074.9862,-170.5971 1564,-82 1569.4497,-81.0127 1575.0153,-79.8371 1580.6134,-78.5287"/>
<polygon fill="#ff0000" stroke="#ff0000" points="1581.8345,-81.8326 1590.707,-76.0422 1580.1601,-75.0358 1581.8345,-81.8326"/>
</g>
<!-- n15&#45;&gt;n14 -->
<g id="edge34" class="edge">
<title>n15&#45;&gt;n14</title>
<path fill="none" stroke="#00ff00" d="M369.643,-165.955C388.7347,-142.9802 416.692,-109.3368 437.581,-84.1991"/>
<polygon fill="#00ff00" stroke="#00ff00" points="440.3953,-86.2888 444.0946,-76.3608 435.0115,-81.8149 440.3953,-86.2888"/>
</g>
<!-- n15&#45;&gt;n17 -->
<g id="edge48" class="edge">
<title>n15&#45;&gt;n17</title>
<path fill="none" stroke="#ff0000" d="M366.4307,-218.474C387.0136,-245.1757 423.1298,-284.1514 466,-296.4 489.2902,-303.0544 878.7098,-303.0544 902,-296.4 937.7314,-286.191 968.4728,-256.9537 989.3145,-232.008"/>
<polygon fill="#ff0000" stroke="#ff0000" points="992.1539,-234.0632 995.7272,-224.0891 986.7139,-229.6579 992.1539,-234.0632"/>
</g>
<!-- n15&#45;&gt;n18 -->
<g id="edge53" class="edge">
<title>n15&#45;&gt;n18</title>
<path fill="none" stroke="#00ff00" d="M366.4307,-218.474C387.0136,-245.1757 423.1298,-284.1514 466,-296.4 489.3971,-303.0849 661.6029,-303.0849 685,-296.4 721.2449,-286.0443 752.8106,-256.8175 774.3072,-231.9132"/>
<polygon fill="#00ff00" stroke="#00ff00" points="777.1894,-233.9227 780.9259,-224.0086 771.8224,-229.4288 777.1894,-233.9227"/>
</g>
<!-- n15&#45;&gt;n19 -->
<g id="edge64" class="edge">
<title>n15&#45;&gt;n19</title>
<path fill="none" stroke="#ff0000" d="M366.4307,-218.474C387.0136,-245.1757 423.1298,-284.1514 466,-296.4 483.3608,-301.3602 1098.6392,-301.3602 1116,-296.4 1149.5027,-286.8278 1179.0075,-261.132 1200.2574,-237.63"/>
<polygon fill="#ff0000" stroke="#ff0000" points="1202.8992,-239.9259 1206.8613,-230.0998 1197.6363,-235.3104 1202.8992,-239.9259"/>
</g>
<!-- n15&#45;&gt;n13 -->
<g id="edge35" class="edge">
<title>n15&#45;&gt;n13</title>
<path fill="none" stroke="#ff0000" d="M366.4307,-218.474C387.0136,-245.1757 423.1298,-284.1514 466,-296.4 486.4457,-302.2416 1976.5543,-302.2416 1997,-296.4 2034.6433,-285.6448 2065.8577,-252.4379 2085.497,-226.3302"/>
<polygon fill="#ff0000" stroke="#ff0000" points="2088.4032,-228.2849 2091.4601,-218.1407 2082.7444,-224.1645 2088.4032,-228.2849"/>
</g>
<!-- n6&#45;&gt;n0 -->
<g id="edge71" class="edge">
<title>n6&#45;&gt;n0</title>
<path fill="none" stroke="#ff0000" d="M1423.9462,-224.2047C1401.7598,-247.3774 1370.6541,-276.901 1336,-290.8 1284.8597,-311.3113 517.0851,-330.7341 226.3722,-337.4872"/>
<polygon fill="#ff0000" stroke="#ff0000" points="226.1501,-333.9913 216.2339,-337.7221 226.3123,-340.9894 226.1501,-333.9913"/>
</g>
<!-- n6&#45;&gt;n1 -->
<g id="edge67" class="edge">
<title>n6&#45;&gt;n1</title>
<path fill="none" stroke="#ff0000" d="M1433.178,-224.2135C1411.3737,-250.409 1376.417,-284.8523 1336,-296.4 1321.4302,-300.5628 259.5698,-300.5628 245,-296.4 204.4601,-284.8172 168.4195,-251.8406 145.184,-226.0164"/>
<polygon fill="#ff0000" stroke="#ff0000" points="147.6149,-223.4797 138.3932,-218.2632 142.3491,-228.0918 147.6149,-223.4797"/>
</g>
<!-- n6&#45;&gt;n7 -->
<g id="edge65" class="edge">
<title>n6&#45;&gt;n7</title>
<path fill="none" stroke="#ff0000" d="M1560.6289,-192C1563.0998,-192 1565.5707,-192 1568.0415,-192"/>
<polygon fill="#ff0000" stroke="#ff0000" points="1568.1996,-195.5001 1578.1996,-192 1568.1996,-188.5001 1568.1996,-195.5001"/>
</g>
<!-- n6&#45;&gt;n5 -->
<g id="edge69" class="edge">
<title>n6&#45;&gt;n5</title>
<path fill="none" stroke="#ff0000" d="M1433.178,-224.2135C1411.3737,-250.409 1376.417,-284.8523 1336,-296.4 1319.0932,-301.2305 719.9068,-301.2305 703,-296.4 665.0906,-285.5687 630.8494,-256.4859 607.187,-231.759"/>
<polygon fill="#ff0000" stroke="#ff0000" points="609.5685,-229.1806 600.1908,-224.25 604.4469,-233.9524 609.5685,-229.1806"/>
</g>
<!-- n16&#45;&gt;n1 -->
<g id="edge42" class="edge">
<title>n16&#45;&gt;n1</title>
<path fill="none" stroke="#ff0000" d="M919.9418,-59.7993C738.2536,-78.9223 356.2782,-121.9669 227,-152 214.3234,-154.9449 201.0878,-158.715 188.3729,-162.7596"/>
<polygon fill="#ff0000" stroke="#ff0000" points="187.1879,-159.4646 178.7691,-165.897 189.3616,-166.1186 187.1879,-159.4646"/>
</g>
<!-- n16&#45;&gt;n7 -->
<g id="edge40" class="edge">
<title>n16&#45;&gt;n7</title>
<path fill="none" stroke="#ff0000" d="M1088.066,-76.0728C1095.7484,-78.2334 1103.4983,-80.2542 1111,-82 1309.4203,-128.1778 1366.9719,-100.2029 1564,-152 1575.1463,-154.9303 1586.7433,-158.6147 1598.1086,-162.5544"/>
<polygon fill="#ff0000" stroke="#ff0000" points="1596.9912,-165.8717 1607.586,-165.913 1599.3294,-159.2737 1596.9912,-165.8717"/>
</g>
<!-- n16&#45;&gt;n5 -->
<g id="edge44" class="edge">
<title>n16&#45;&gt;n5</title>
<path fill="none" stroke="#ff0000" d="M926.5982,-76.0325C859.4853,-96.4181 766.3445,-125.6404 685,-152 680.1625,-153.5676 675.2183,-155.1789 670.2329,-156.8131"/>
<polygon fill="#ff0000" stroke="#ff0000" points="669.0173,-153.5284 660.6122,-159.9787 671.2052,-160.1777 669.0173,-153.5284"/>
</g>
<!-- n16&#45;&gt;n2 -->
<g id="edge39" class="edge">
<title>n16&#45;&gt;n2</title>
<path fill="none" stroke="#00ff00" d="M1093.4927,-76.0507C1102.3476,-78.3993 1111.3188,-80.4658 1120,-82 1788.5751,-200.1548 1980.237,-18.91 2646,-152 2652.761,-153.3516 2659.6621,-155.0475 2666.5474,-156.9728"/>
<polygon fill="#00ff00" stroke="#00ff00" points="2666.0238,-160.4676 2676.6057,-159.9443 2668.0071,-153.7544 2666.0238,-160.4676"/>
</g>
<!-- n17&#45;&gt;n9 -->
<g id="edge49" class="edge">
<title>n17&#45;&gt;n9</title>
<path fill="none" stroke="#ff0000" d="M1090.1719,-159.9967C1099.1109,-157.0378 1108.1966,-154.295 1117,-152 1311.5843,-101.2723 1368.0067,-126.9775 1564,-82 1568.5768,-80.9497 1573.2453,-79.8051 1577.9535,-78.5941"/>
<polygon fill="#ff0000" stroke="#ff0000" points="1578.8862,-81.9679 1587.6567,-76.0241 1577.0939,-75.2012 1578.8862,-81.9679"/>
</g>
<!-- n17&#45;&gt;n15 -->
<g id="edge47" class="edge">
<title>n17&#45;&gt;n15</title>
<path fill="none" stroke="#ff0000" d="M995.7272,-224.0891C975.0683,-250.4024 941.5985,-285.0861 902,-296.4 878.7098,-303.0544 489.2902,-303.0544 466,-296.4 427.3163,-285.3475 394.132,-252.5333 372.8971,-226.6116"/>
<polygon fill="#ff0000" stroke="#ff0000" points="375.3923,-224.1257 366.4307,-218.474 369.9118,-228.4806 375.3923,-224.1257"/>
</g>
<!-- n17&#45;&gt;n16 -->
<g id="edge46" class="edge">
<title>n17&#45;&gt;n16</title>
<path fill="none" stroke="#00ff00" d="M1018,-159.778C1018,-138.0207 1018,-109.2552 1018,-86.6282"/>
<polygon fill="#00ff00" stroke="#00ff00" points="1021.5001,-86.3919 1018,-76.3919 1014.5001,-86.3919 1021.5001,-86.3919"/>
</g>
<!-- n17&#45;&gt;n13 -->
<g id="edge51" class="edge">
<title>n17&#45;&gt;n13</title>
<path fill="none" stroke="#ff0000" d="M1040.5402,-224.0624C1061.4256,-250.3586 1095.2126,-285.0322 1135,-296.4 1158.0232,-302.978 1973.9768,-302.978 1997,-296.4 2034.6433,-285.6448 2065.8577,-252.4379 2085.497,-226.3302"/>
<polygon fill="#ff0000" stroke="#ff0000" points="2088.4032,-228.2849 2091.4601,-218.1407 2082.7444,-224.1645 2088.4032,-228.2849"/>
</g>
<!-- n18&#45;&gt;n9 -->
<g id="edge55" class="edge">
<title>n18&#45;&gt;n9</title>
<path fill="none" stroke="#ff0000" d="M874.1273,-159.9222C883.3811,-156.8984 892.8312,-154.1618 902,-152 1189.9667,-84.1043 1274.0694,-140.9482 1564,-82 1569.0072,-80.9819 1574.1173,-79.8261 1579.2643,-78.5725"/>
<polygon fill="#ff0000" stroke="#ff0000" points="1580.3593,-81.9056 1589.1902,-76.0519 1578.6363,-75.121 1580.3593,-81.9056"/>
</g>
<!-- n18&#45;&gt;n14 -->
<g id="edge54" class="edge">
<title>n18&#45;&gt;n14</title>
<path fill="none" stroke="#00ff00" d="M727.7248,-159.9554C670.7587,-136.0229 593.4346,-103.5376 537.6205,-80.0891"/>
<polygon fill="#00ff00" stroke="#00ff00" points="538.7329,-76.7601 528.1578,-76.1136 536.0216,-83.2137 538.7329,-76.7601"/>
</g>
<!-- n18&#45;&gt;n13 -->
<g id="edge57" class="edge">
<title>n18&#45;&gt;n13</title>
<path fill="none" stroke="#ff0000" d="M826.2728,-224.0891C846.9317,-250.4024 880.4015,-285.0861 920,-296.4 934.3828,-300.5094 1982.6172,-300.5094 1997,-296.4 2034.6433,-285.6448 2065.8577,-252.4379 2085.497,-226.3302"/>
<polygon fill="#ff0000" stroke="#ff0000" points="2088.4032,-228.2849 2091.4601,-218.1407 2082.7444,-224.1645 2088.4032,-228.2849"/>
</g>
<!-- n19&#45;&gt;n9 -->
<g id="edge61" class="edge">
<title>n19&#45;&gt;n9</title>
<path fill="none" stroke="#ff0000" d="M1330.172,-153.9651C1332.1287,-153.3007 1334.073,-152.645 1336,-152 1347.693,-148.0861 1479.7276,-107.7343 1576.2986,-78.9774"/>
<polygon fill="#ff0000" stroke="#ff0000" points="1577.5292,-82.263 1586.1165,-76.0576 1575.5337,-75.5535 1577.5292,-82.263"/>
</g>
<!-- n19&#45;&gt;n15 -->
<g id="edge63" class="edge">
<title>n19&#45;&gt;n15</title>
<path fill="none" stroke="#ff0000" d="M1206.8613,-230.0998C1185.3469,-255.3812 1153.1285,-285.7919 1116,-296.4 1098.6392,-301.3602 483.3608,-301.3602 466,-296.4 427.3163,-285.3475 394.132,-252.5333 372.8971,-226.6116"/>
<polygon fill="#ff0000" stroke="#ff0000" points="375.3923,-224.1257 366.4307,-218.474 369.9118,-228.4806 375.3923,-224.1257"/>
</g>
<!-- n19&#45;&gt;n13 -->
<g id="edge59" class="edge">
<title>n19&#45;&gt;n13</title>
<path fill="none" stroke="#ff0000" d="M1263.1387,-230.0998C1284.6531,-255.3812 1316.8715,-285.7919 1354,-296.4 1371.1739,-301.3068 1979.8261,-301.3068 1997,-296.4 2034.6433,-285.6448 2065.8577,-252.4379 2085.497,-226.3302"/>
<polygon fill="#ff0000" stroke="#ff0000" points="2088.4032,-228.2849 2091.4601,-218.1407 2082.7444,-224.1645 2088.4032,-228.2849"/>
</g>
<!-- n10&#45;&gt;n7 -->
<g id="edge11" class="edge">
<title>n10&#45;&gt;n7</title>
<path fill="none" stroke="#ff0000" d="M2025.351,-76.1199C1949.1655,-100.6383 1837.9432,-137.259 1762.2056,-162.7475"/>
<polygon fill="#ff0000" stroke="#ff0000" points="1761.0465,-159.4446 1752.688,-165.955 1763.2821,-166.0781 1761.0465,-159.4446"/>
</g>
<!-- n11&#45;&gt;n1 -->
<g id="edge14" class="edge">
<title>n11&#45;&gt;n1</title>
<path fill="none" stroke="#ff0000" d="M2518.3773,-218.0291C2498.3148,-244.7804 2462.7247,-284.193 2420,-296.4 2405.477,-300.5494 259.523,-300.5494 245,-296.4 204.4601,-284.8172 168.4195,-251.8406 145.184,-226.0164"/>
<polygon fill="#ff0000" stroke="#ff0000" points="147.6149,-223.4797 138.3932,-218.2632 142.3491,-228.0918 147.6149,-223.4797"/>
</g>
<!-- n11&#45;&gt;n10 -->
<g id="edge13" class="edge">
<title>n11&#45;&gt;n10</title>
<path fill="none" stroke="#ff0000" d="M2456.1696,-161.676C2447.0297,-158.3473 2437.8276,-155.0593 2429,-152 2354.9119,-126.3237 2270.3579,-99.3941 2206.924,-79.6567"/>
<polygon fill="#ff0000" stroke="#ff0000" points="2456.4151,-161.7661 2463.4258,-160.078 2467.6805,-165.9002 2460.6697,-167.5883 2456.4151,-161.7661"/>
<polygon fill="#ff0000" stroke="#ff0000" points="2206.7927,-79.616 2199.8763,-81.6565 2195.3326,-76.057 2202.249,-74.0164 2206.7927,-79.616"/>
</g>
<!-- n12&#45;&gt;n8 -->
<g id="edge18" class="edge">
<title>n12&#45;&gt;n8</title>
<path fill="none" stroke="#ff0000" d="M2228.4806,-159.9544C2220.8747,-157.2165 2213.3092,-154.5294 2206,-152 2163.8575,-137.4163 2057.8356,-103.8462 1981.2337,-79.1845"/>
<polygon fill="#ff0000" stroke="#ff0000" points="1982.1652,-75.8075 1971.5737,-76.0712 1980.0179,-82.47 1982.1652,-75.8075"/>
</g>
<!-- n12&#45;&gt;n10 -->
<g id="edge16" class="edge">
<title>n12&#45;&gt;n10</title>
<path fill="none" stroke="#00ff00" d="M2274.1587,-159.9554C2239.3707,-136.654 2192.4782,-105.2449 2157.7187,-81.9625"/>
<polygon fill="#00ff00" stroke="#00ff00" points="2159.4139,-78.8854 2149.1577,-76.2283 2155.5183,-84.7013 2159.4139,-78.8854"/>
</g>
<!-- n13&#45;&gt;n9 -->
<g id="edge22" class="edge">
<title>n13&#45;&gt;n9</title>
<path fill="none" stroke="#ff0000" d="M2034.6813,-165.8992C2022.1219,-161.1149 2009.2043,-156.2843 1997,-152 1921.1348,-125.3674 1834.1995,-98.4949 1770.2136,-79.0226"/>
<polygon fill="#ff0000" stroke="#ff0000" points="1771.1313,-75.6435 1760.5456,-76.0834 1769.0951,-82.3408 1771.1313,-75.6435"/>
</g>
<!-- n13&#45;&gt;n15 -->
<g id="edge36" class="edge">
<title>n13&#45;&gt;n15</title>
<path fill="none" stroke="#ff0000" d="M2091.4601,-218.1407C2072.5387,-244.9873 2038.7173,-284.4808 1997,-296.4 1976.5543,-302.2416 486.4457,-302.2416 466,-296.4 427.3163,-285.3475 394.132,-252.5333 372.8971,-226.6116"/>
<polygon fill="#ff0000" stroke="#ff0000" points="375.3923,-224.1257 366.4307,-218.474 369.9118,-228.4806 375.3923,-224.1257"/>
</g>
<!-- n13&#45;&gt;n17 -->
<g id="edge52" class="edge">
<title>n13&#45;&gt;n17</title>
<path fill="none" stroke="#ff0000" d="M2091.4601,-218.1407C2072.5387,-244.9873 2038.7173,-284.4808 1997,-296.4 1973.9768,-302.978 1158.0232,-302.978 1135,-296.4 1099.0981,-286.1423 1068.0819,-256.9085 1047.0217,-231.9765"/>
<polygon fill="#ff0000" stroke="#ff0000" points="1049.5841,-229.5814 1040.5402,-224.0624 1044.1685,-234.0166 1049.5841,-229.5814"/>
</g>
<!-- n13&#45;&gt;n18 -->
<g id="edge58" class="edge">
<title>n13&#45;&gt;n18</title>
<path fill="none" stroke="#ff0000" d="M2091.4601,-218.1407C2072.5387,-244.9873 2038.7173,-284.4808 1997,-296.4 1982.6172,-300.5094 934.3828,-300.5094 920,-296.4 884.2686,-286.191 853.5272,-256.9537 832.6855,-232.008"/>
<polygon fill="#ff0000" stroke="#ff0000" points="835.2861,-229.6579 826.2728,-224.0891 829.8461,-234.0632 835.2861,-229.6579"/>
</g>
<!-- n13&#45;&gt;n19 -->
<g id="edge60" class="edge">
<title>n13&#45;&gt;n19</title>
<path fill="none" stroke="#ff0000" d="M2091.4601,-218.1407C2072.5387,-244.9873 2038.7173,-284.4808 1997,-296.4 1979.8261,-301.3068 1371.1739,-301.3068 1354,-296.4 1320.4973,-286.8278 1290.9925,-261.132 1269.7426,-237.63"/>
<polygon fill="#ff0000" stroke="#ff0000" points="1272.3637,-235.3104 1263.1387,-230.0998 1267.1008,-239.9259 1272.3637,-235.3104"/>
</g>
<!-- n13&#45;&gt;n10 -->
<g id="edge20" class="edge">
<title>n13&#45;&gt;n10</title>
<path fill="none" stroke="#00ff00" d="M2108.3668,-165.955C2108.6806,-143.6764 2109.1357,-111.366 2109.4858,-86.5073"/>
<polygon fill="#00ff00" stroke="#00ff00" points="2112.9874,-86.4091 2109.6287,-76.3608 2105.9881,-86.3104 2112.9874,-86.4091"/>
</g>
<!-- n23 -->
<g id="node23" class="node">
<title>n23</title>
<path fill="#ffffff" stroke="#f4a460" stroke-width="2" d="M3718,-378C3718,-378 3542,-378 3542,-378 3536,-378 3530,-372 3530,-366 3530,-366 3530,-314 3530,-314 3530,-308 3536,-302 3542,-302 3542,-302 3718,-302 3718,-302 3724,-302 3730,-308 3730,-314 3730,-314 3730,-366 3730,-366 3730,-372 3724,-378 3718,-378"/>
<text text-anchor="start" x="3553.8685" y="-364" font-family="arial" font-weight="bold" font-size="10.00" fill="#000000">Exmoor Youngest Devonian strata</text>
<text text-anchor="start" x="3550.812" y="-347" font-family="arial" font-size="10.00" fill="#000000">In Devon, among all the strata older</text>
<text text-anchor="start" x="3539.6885" y="-335" font-family="arial" font-size="10.00" fill="#000000"> than the New Red Sandstone, the strata</text>
<text text-anchor="start" x="3552.1995" y="-323" font-family="arial" font-size="10.00" fill="#000000"> of Exmoor are the youngest #GRE</text>
<text text-anchor="start" x="3603.6045" y="-311" font-family="arial" font-size="10.00" fill="#000000"> #chron&#45;hyp</text>
</g>
<!-- n24 -->
<g id="node24" class="node">
<title>n24</title>
<path fill="#ffffff" stroke="#ffc1c1" stroke-width="2" d="M3721.5,-224C3721.5,-224 3538.5,-224 3538.5,-224 3532.5,-224 3526.5,-218 3526.5,-212 3526.5,-212 3526.5,-172 3526.5,-172 3526.5,-166 3532.5,-160 3538.5,-160 3538.5,-160 3721.5,-160 3721.5,-160 3727.5,-160 3733.5,-166 3733.5,-172 3733.5,-172 3733.5,-212 3733.5,-212 3733.5,-218 3727.5,-224 3721.5,-224"/>
<text text-anchor="start" x="3559.0935" y="-210" font-family="arial" font-weight="bold" font-size="10.00" fill="#000000">Culm Youngest Devonian Strata</text>
<text text-anchor="start" x="3551.312" y="-193" font-family="arial" font-size="10.00" fill="#000000">In Devon, among all the strata older</text>
<text text-anchor="start" x="3541.028" y="-181" font-family="arial" font-size="10.00" fill="#000000"> than the New Red Sandstone, the Culm</text>
<text text-anchor="start" x="3536.5825" y="-169" font-family="arial" font-size="10.00" fill="#000000"> strata are the youngest #COA #chron&#45;hyp</text>
</g>
<!-- n23&#45;&gt;n24 -->
<g id="edge85" class="edge">
<title>n23&#45;&gt;n24</title>
<path fill="none" stroke="#ff0000" d="M3624.0118,-301.8863C3623.0626,-281.2775 3623.0004,-255.7689 3623.8252,-234.5179"/>
<polygon fill="#ff0000" stroke="#ff0000" points="3627.3241,-234.6222 3624.3013,-224.4678 3620.3319,-234.2909 3627.3241,-234.6222"/>
</g>
<!-- n24&#45;&gt;n23 -->
<g id="edge84" class="edge">
<title>n24&#45;&gt;n23</title>
<path fill="none" stroke="#ff0000" d="M3635.6987,-224.4678C3636.8188,-244.1693 3637.0438,-269.6793 3636.3739,-291.7151"/>
<polygon fill="#ff0000" stroke="#ff0000" points="3632.8697,-291.7609 3635.9882,-301.8863 3639.8647,-292.0261 3632.8697,-291.7609"/>
</g>
<!-- n2&#45;&gt;n0 -->
<g id="edge3" class="edge">
<title>n2&#45;&gt;n0</title>
<path fill="none" stroke="#ff0000" d="M2738.4025,-224.3991C2719.8932,-247.6736 2689.3868,-277.2395 2655,-290.8 2597.8399,-313.3411 707.3948,-334.0687 226.4184,-338.9293"/>
<polygon fill="#ff0000" stroke="#ff0000" points="226.3098,-335.4301 216.3457,-339.0308 226.3805,-342.4297 226.3098,-335.4301"/>
</g>
</g>
</svg>
