
<!-- Generated by graphviz version 2.40.1 (20161225.0304)
 -->
<!-- Title: Argument Map Pages: 1 -->
<svg width="720pt" height="77pt"
 viewBox="0.00 0.00 720.00 77.02" xmlns="http://www.w3.org/2000/svg" xmlns:xlink="http://www.w3.org/1999/xlink">
<g id="graph0" class="graph" transform="scale(.1609 .1609) rotate(0) translate(4 474.8)">
<title>Argument Map</title>
<g id="clust1" class="cluster">
<title>cluster_1</title>
<polygon fill="#ffff00" stroke="#ffff00" points="8,-176 8,-432.4 224,-432.4 224,-176 8,-176"/>
<text text-anchor="start" x="69.3272" y="-417.6" font-family="arial" font-size="12.00" fill="#000000">Rival Hypotheses</text>
</g>
<g id="clust2" class="cluster">
<title>cluster_2</title>
<polygon fill="#f0f8ff" stroke="#f0f8ff" points="3582,-16 3582,-462.8 4228,-462.8 4228,-16 3582,-16"/>
<text text-anchor="start" x="3824.6534" y="-448" font-family="arial" font-size="12.00" fill="#000000">Dating of the Non&#45;Culm Strata</text>
</g>
<g id="clust3" class="cluster">
<title>cluster_3</title>
<polygon fill="#f5f5dc" stroke="#f5f5dc" points="3794,-170 3794,-432.4 4220,-432.4 4220,-170 3794,-170"/>
<text text-anchor="start" x="3941.6654" y="-417.6" font-family="arial" font-size="12.00" fill="#000000">Some NON&#45;Culm as SIL</text>
</g>
<g id="clust4" class="cluster">
<title>cluster_4</title>
<polygon fill="#bfefff" stroke="#bfefff" points="232,-8 232,-320.8 3292,-320.8 3292,-8 232,-8"/>
<text text-anchor="start" x="1712.3248" y="-306" font-family="arial" font-size="12.00" fill="#000000">Dating of the Culm</text>
</g>
<g id="clust5" class="cluster">
<title>cluster_5</title>
<polygon fill="#f5f5dc" stroke="#f5f5dc" points="240,-22 240,-272.4 690,-272.4 690,-22 240,-22"/>
<text text-anchor="start" x="414.993" y="-257.6" font-family="arial" font-size="12.00" fill="#000000">Some Culm as SIL</text>
</g>
<g id="clust6" class="cluster">
<title>cluster_6</title>
<polygon fill="#eee8cd" stroke="#eee8cd" points="698,-22 698,-278.4 1569,-278.4 1569,-22 698,-22"/>
<text text-anchor="start" x="1079.497" y="-263.6" font-family="arial" font-size="12.00" fill="#000000">Some Culm as ORS</text>
</g>
<g id="clust7" class="cluster">
<title>cluster_7</title>
<polygon fill="#e5e5e5" stroke="#e5e5e5" points="1790,-16 1790,-290.4 2430,-290.4 2430,-16 1790,-16"/>
<text text-anchor="start" x="2060.6644" y="-275.6" font-family="arial" font-size="12.00" fill="#000000">Some Culm as ML</text>
</g>
<g id="clust8" class="cluster">
<title>cluster_8</title>
<polygon fill="#f5f5dc" stroke="#f5f5dc" points="2644,-22 2644,-272.4 3284,-272.4 3284,-22 2644,-22"/>
<text text-anchor="start" x="2931.0054" y="-257.6" font-family="arial" font-size="12.00" fill="#000000">Culm as CM</text>
</g>
<g id="clust9" class="cluster">
<title>cluster_9</title>
<polygon fill="#e6e6fa" stroke="#e6e6fa" points="4236,-170 4236,-438.4 4460,-438.4 4460,-170 4236,-170"/>
<text text-anchor="start" x="4277.9752" y="-423.6" font-family="arial" font-size="12.00" fill="#000000">Youngest Devonian Strata</text>
</g>
<!-- n0 -->
<g id="node1" class="node">
<title>n0</title>
<path fill="#ffffff" stroke="#f4a460" stroke-width="2" d="M204,-402C204,-402 28,-402 28,-402 22,-402 16,-396 16,-390 16,-390 16,-350 16,-350 16,-344 22,-338 28,-338 28,-338 204,-338 204,-338 210,-338 216,-344 216,-350 216,-350 216,-390 216,-390 216,-396 210,-402 204,-402"/>
<text text-anchor="start" x="60.99" y="-388" font-family="arial" font-weight="bold" font-size="10.00" fill="#000000">Devonian Strata as CAM</text>
<text text-anchor="start" x="39.3125" y="-371" font-family="arial" font-size="10.00" fill="#000000">In Devon, all the strata &#45; older than</text>
<text text-anchor="start" x="25.703" y="-359" font-family="arial" font-size="10.00" fill="#000000"> the New Red Sandstone &#45; are Cambrian</text>
<text text-anchor="start" x="59.5955" y="-347" font-family="arial" font-size="10.00" fill="#000000"> in age #GRE #chron&#45;hyp</text>
</g>
<!-- n1 -->
<g id="node2" class="node">
<title>n1</title>
<path fill="#ffffff" stroke="#ffc1c1" stroke-width="2" d="M204,-236C204,-236 32,-236 32,-236 26,-236 20,-230 20,-224 20,-224 20,-196 20,-196 20,-190 26,-184 32,-184 32,-184 204,-184 204,-184 210,-184 216,-190 216,-196 216,-196 216,-224 216,-224 216,-230 210,-236 204,-236"/>
<text text-anchor="start" x="90.5045" y="-222" font-family="arial" font-weight="bold" font-size="10.00" fill="#000000">Culm as CM</text>
<text text-anchor="start" x="39.6555" y="-205" font-family="arial" font-size="10.00" fill="#000000">The Devonian Culm strata are Coal</text>
<text text-anchor="start" x="38.259" y="-193" font-family="arial" font-size="10.00" fill="#000000"> Measures in age #COA #chron&#45;hyp</text>
</g>
<!-- n0&#45;&gt;n1 -->
<g id="edge2" class="edge">
<title>n0&#45;&gt;n1</title>
<path fill="none" stroke="#ff0000" d="M110.8561,-337.6216C109.6583,-311.1446 110.0563,-273.7257 111.7889,-246.25"/>
<polygon fill="#ff0000" stroke="#ff0000" points="115.2815,-246.478 112.5178,-236.25 108.3,-245.9691 115.2815,-246.478"/>
</g>
<!-- n3 -->
<g id="node3" class="node">
<title>n3</title>
<path fill="#ffffff" stroke="#ffc1c1" stroke-width="2" d="M3774,-236C3774,-236 3602,-236 3602,-236 3596,-236 3590,-230 3590,-224 3590,-224 3590,-196 3590,-196 3590,-190 3596,-184 3602,-184 3602,-184 3774,-184 3774,-184 3780,-184 3786,-190 3786,-196 3786,-196 3786,-224 3786,-224 3786,-230 3780,-236 3774,-236"/>
<text text-anchor="start" x="3631.6105" y="-222" font-family="arial" font-weight="bold" font-size="10.00" fill="#000000">Non&#45;Culm Strata as CAM</text>
<text text-anchor="start" x="3612.7055" y="-205" font-family="arial" font-size="10.00" fill="#000000">In Devon, the non&#45;Culm strata are</text>
<text text-anchor="start" x="3608.54" y="-193" font-family="arial" font-size="10.00" fill="#000000"> Cambrian in age #COA #chron&#45;hyp</text>
</g>
<!-- n0&#45;&gt;n3 -->
<g id="edge115" class="edge">
<title>n0&#45;&gt;n3</title>
<path fill="none" stroke="#00ff00" d="M216.0803,-369.6027C775.8395,-367.2554 3496.4917,-354.1456 3576,-320.8 3613.0988,-305.2409 3644.5388,-270.9859 3664.5763,-244.654"/>
<polygon fill="#00ff00" stroke="#00ff00" points="3667.5373,-246.5367 3670.6741,-236.4168 3661.9111,-242.3717 3667.5373,-246.5367"/>
</g>
<!-- n4 -->
<g id="node5" class="node">
<title>n4</title>
<path fill="#ffffff" stroke="#ffc1c1" stroke-width="2" d="M3986,-402C3986,-402 3814,-402 3814,-402 3808,-402 3802,-396 3802,-390 3802,-390 3802,-350 3802,-350 3802,-344 3808,-338 3814,-338 3814,-338 3986,-338 3986,-338 3992,-338 3998,-344 3998,-350 3998,-350 3998,-390 3998,-390 3998,-396 3992,-402 3986,-402"/>
<text text-anchor="start" x="3824.9895" y="-388" font-family="arial" font-weight="bold" font-size="10.00" fill="#000000">Non&#45;Culm Strata as SIL and CAM</text>
<text text-anchor="start" x="3819.1465" y="-371" font-family="arial" font-size="10.00" fill="#000000">In Devon, the non&#45;Culm strata range</text>
<text text-anchor="start" x="3811.934" y="-359" font-family="arial" font-size="10.00" fill="#000000"> from Cambrian to Silurian in age #COA</text>
<text text-anchor="start" x="3873.6045" y="-347" font-family="arial" font-size="10.00" fill="#000000"> #chron&#45;hyp</text>
</g>
<!-- n0&#45;&gt;n4 -->
<g id="edge125" class="edge">
<title>n0&#45;&gt;n4</title>
<path fill="none" stroke="#ff0000" d="M216.2354,-370C1408.1245,-370 2600.0136,-370 3791.9028,-370"/>
<polygon fill="#ff0000" stroke="#ff0000" points="3791.9702,-373.5001 3801.9701,-370 3791.9701,-366.5001 3791.9702,-373.5001"/>
</g>
<!-- n9 -->
<g id="node8" class="node">
<title>n9</title>
<path fill="#ffffff" stroke="#f4a460" stroke-width="2" d="M1767.5,-236C1767.5,-236 1590.5,-236 1590.5,-236 1584.5,-236 1578.5,-230 1578.5,-224 1578.5,-224 1578.5,-196 1578.5,-196 1578.5,-190 1584.5,-184 1590.5,-184 1590.5,-184 1767.5,-184 1767.5,-184 1773.5,-184 1779.5,-190 1779.5,-196 1779.5,-196 1779.5,-224 1779.5,-224 1779.5,-230 1773.5,-236 1767.5,-236"/>
<text text-anchor="start" x="1648.67" y="-222" font-family="arial" font-weight="bold" font-size="10.00" fill="#000000">Culm as CAM</text>
<text text-anchor="start" x="1588.653" y="-205" font-family="arial" font-size="10.00" fill="#000000">The whole Culm strata of Devonshire are</text>
<text text-anchor="start" x="1600.04" y="-193" font-family="arial" font-size="10.00" fill="#000000"> Cambrian in age #GRE #chron&#45;hyp</text>
</g>
<!-- n0&#45;&gt;n9 -->
<g id="edge5" class="edge">
<title>n0&#45;&gt;n9</title>
<path fill="none" stroke="#00ff00" d="M216.0729,-368.6902C535.1527,-364.2428 1511.2169,-348.4384 1573,-320.8 1608.587,-304.8803 1638.1466,-270.9158 1656.9291,-244.7613"/>
<polygon fill="#00ff00" stroke="#00ff00" points="1660.0303,-246.433 1662.8788,-236.2282 1654.2883,-242.4293 1660.0303,-246.433"/>
</g>
<!-- n5 -->
<g id="node11" class="node">
<title>n5</title>
<path fill="#ffffff" stroke="#ffc1c1" stroke-width="2" d="M669.5,-242C669.5,-242 478.5,-242 478.5,-242 472.5,-242 466.5,-236 466.5,-230 466.5,-230 466.5,-190 466.5,-190 466.5,-184 472.5,-178 478.5,-178 478.5,-178 669.5,-178 669.5,-178 675.5,-178 681.5,-184 681.5,-190 681.5,-190 681.5,-230 681.5,-230 681.5,-236 675.5,-242 669.5,-242"/>
<text text-anchor="start" x="524.774" y="-228" font-family="arial" font-weight="bold" font-size="10.00" fill="#000000">Culm as CM and USIL</text>
<text text-anchor="start" x="476.9865" y="-211" font-family="arial" font-size="10.00" fill="#000000">The Culm strata encompass Coal Measures</text>
<text text-anchor="start" x="503.65" y="-199" font-family="arial" font-size="10.00" fill="#000000"> and upper Silurian strata #COA</text>
<text text-anchor="start" x="546.715" y="-187" font-family="arial" font-size="10.00" fill="#000000"> #chron&#45;hyp </text>
</g>
<!-- n0&#45;&gt;n5 -->
<g id="edge33" class="edge">
<title>n0&#45;&gt;n5</title>
<path fill="none" stroke="#ff0000" d="M216.2573,-362.9037C303.9204,-355.2577 423.5334,-341.3525 466,-320.8 499.8227,-304.4309 530.3617,-274.7374 550.452,-250.2075"/>
<polygon fill="#ff0000" stroke="#ff0000" points="553.3957,-252.1278 556.8544,-242.1133 547.9055,-247.7851 553.3957,-252.1278"/>
</g>
<!-- n6 -->
<g id="node14" class="node">
<title>n6</title>
<path fill="#ffffff" stroke="#ffc1c1" stroke-width="2" d="M1548.5,-242C1548.5,-242 1365.5,-242 1365.5,-242 1359.5,-242 1353.5,-236 1353.5,-230 1353.5,-230 1353.5,-190 1353.5,-190 1353.5,-184 1359.5,-178 1365.5,-178 1365.5,-178 1548.5,-178 1548.5,-178 1554.5,-178 1560.5,-184 1560.5,-190 1560.5,-190 1560.5,-230 1560.5,-230 1560.5,-236 1554.5,-242 1548.5,-242"/>
<text text-anchor="start" x="1394.1615" y="-228" font-family="arial" font-weight="bold" font-size="10.00" fill="#000000">Culm as USIL, ORS and CM</text>
<text text-anchor="start" x="1383.323" y="-211" font-family="arial" font-size="10.00" fill="#000000">The Culm strata encompass Coal</text>
<text text-anchor="start" x="1363.8575" y="-199" font-family="arial" font-size="10.00" fill="#000000"> Measures, Old Red Sandstone and upper</text>
<text text-anchor="start" x="1384.1545" y="-187" font-family="arial" font-size="10.00" fill="#000000"> Silurian strata #COA #chron&#45;hyp</text>
</g>
<!-- n0&#45;&gt;n6 -->
<g id="edge72" class="edge">
<title>n0&#45;&gt;n6</title>
<path fill="none" stroke="#ff0000" d="M216.1713,-368.032C501.5614,-362.0473 1301.3704,-343.1053 1353,-320.8 1387.3308,-305.9682 1417.0995,-275.5855 1436.0994,-250.3814"/>
<polygon fill="#ff0000" stroke="#ff0000" points="1439.0926,-252.2152 1442.121,-242.0624 1433.4222,-248.1107 1439.0926,-252.2152"/>
</g>
<!-- n7 -->
<g id="node19" class="node">
<title>n7</title>
<path fill="#ffffff" stroke="#ffc1c1" stroke-width="2" d="M2410,-260C2410,-260 2238,-260 2238,-260 2232,-260 2226,-254 2226,-248 2226,-248 2226,-172 2226,-172 2226,-166 2232,-160 2238,-160 2238,-160 2410,-160 2410,-160 2416,-160 2422,-166 2422,-172 2422,-172 2422,-248 2422,-248 2422,-254 2416,-260 2410,-260"/>
<text text-anchor="start" x="2278.443" y="-246" font-family="arial" font-weight="bold" font-size="10.00" fill="#000000">Culm as CM and ML</text>
<text text-anchor="start" x="2245.647" y="-229" font-family="arial" font-size="10.00" fill="#000000">In Devon, the main or plant&#45;bearing</text>
<text text-anchor="start" x="2256.49" y="-217" font-family="arial" font-size="10.00" fill="#000000"> part of the Culm strata is Coal</text>
<text text-anchor="start" x="2253.71" y="-205" font-family="arial" font-size="10.00" fill="#000000"> Measures in age, a lower part &#45;</text>
<text text-anchor="start" x="2241.2165" y="-193" font-family="arial" font-size="10.00" fill="#000000"> particularly the black Culm limestone</text>
<text text-anchor="start" x="2239.537" y="-181" font-family="arial" font-size="10.00" fill="#000000"> &#45; is Mountain Limestone in age #COA</text>
<text text-anchor="start" x="2296.215" y="-169" font-family="arial" font-size="10.00" fill="#000000"> #chron&#45;hyp </text>
</g>
<!-- n0&#45;&gt;n7 -->
<g id="edge99" class="edge">
<title>n0&#45;&gt;n7</title>
<path fill="none" stroke="#ff0000" d="M216.2459,-369.776C623.089,-368.5883 2133.3225,-361.4257 2226,-320.8 2251.8436,-309.4713 2274.5614,-288.6571 2291.7093,-268.1016"/>
<polygon fill="#ff0000" stroke="#ff0000" points="2294.4755,-270.2467 2298.0036,-260.2565 2289.0156,-265.8661 2294.4755,-270.2467"/>
</g>
<!-- n8 -->
<g id="node20" class="node">
<title>n8</title>
<path fill="#ffffff" stroke="#eedd82" stroke-width="2" d="M2201.5,-88C2201.5,-88 2024.5,-88 2024.5,-88 2018.5,-88 2012.5,-82 2012.5,-76 2012.5,-76 2012.5,-36 2012.5,-36 2012.5,-30 2018.5,-24 2024.5,-24 2024.5,-24 2201.5,-24 2201.5,-24 2207.5,-24 2213.5,-30 2213.5,-36 2213.5,-36 2213.5,-76 2213.5,-76 2213.5,-82 2207.5,-88 2201.5,-88"/>
<text text-anchor="start" x="2064.8835" y="-74" font-family="arial" font-weight="bold" font-size="10.00" fill="#000000">Culm as ML and ORS</text>
<text text-anchor="start" x="2022.9265" y="-57" font-family="arial" font-size="10.00" fill="#000000">The Culm strata encompass the Old Red</text>
<text text-anchor="start" x="2023.7425" y="-45" font-family="arial" font-size="10.00" fill="#000000"> Sandstone and the Mountain Limestone</text>
<text text-anchor="start" x="2072.657" y="-33" font-family="arial" font-size="10.00" fill="#000000"> #DEV #chron&#45;hyp</text>
</g>
<!-- n0&#45;&gt;n8 -->
<g id="edge114" class="edge">
<title>n0&#45;&gt;n8</title>
<path fill="none" stroke="#ff0000" d="M216.0178,-369.4962C773.7102,-366.5725 3475.3684,-350.8649 3505,-320.8 3530.0832,-295.35 3529.5515,-185.9634 3505,-160 3408.6128,-58.0698 2401.5827,-110.7816 2223.8162,-88.6998"/>
<polygon fill="#ff0000" stroke="#ff0000" points="2224.1614,-85.2129 2213.757,-87.2124 2223.1374,-92.1376 2224.1614,-85.2129"/>
</g>
<!-- n2 -->
<g id="node30" class="node">
<title>n2</title>
<path fill="#ffffff" stroke="#eedd82" stroke-width="2" d="M3484,-242C3484,-242 3312,-242 3312,-242 3306,-242 3300,-236 3300,-230 3300,-230 3300,-190 3300,-190 3300,-184 3306,-178 3312,-178 3312,-178 3484,-178 3484,-178 3490,-178 3496,-184 3496,-190 3496,-190 3496,-230 3496,-230 3496,-236 3490,-242 3484,-242"/>
<text text-anchor="start" x="3366.0505" y="-228" font-family="arial" font-weight="bold" font-size="10.00" fill="#000000">ORS in Devon</text>
<text text-anchor="start" x="3319.367" y="-211" font-family="arial" font-size="10.00" fill="#000000">In Devon, a significant part of strata</text>
<text text-anchor="start" x="3309.913" y="-199" font-family="arial" font-size="10.00" fill="#000000"> is equivalent to the Old Red Sandstone</text>
<text text-anchor="start" x="3357.157" y="-187" font-family="arial" font-size="10.00" fill="#000000"> #DEV #chron&#45;hyp</text>
</g>
<!-- n0&#45;&gt;n2 -->
<g id="edge4" class="edge">
<title>n0&#45;&gt;n2</title>
<path fill="none" stroke="#ff0000" d="M216.3044,-369.4658C747.1309,-366.5475 3206.7814,-351.5266 3279,-320.8 3313.2098,-306.2449 3342.3378,-275.4814 3363.3935,-250.0553"/>
<polygon fill="#ff0000" stroke="#ff0000" points="3366.3408,-251.9789 3369.9423,-242.0149 3360.9133,-247.5582 3366.3408,-251.9789"/>
</g>
<!-- n1&#45;&gt;n0 -->
<g id="edge1" class="edge">
<title>n1&#45;&gt;n0</title>
<path fill="none" stroke="#ff0000" d="M122.826,-236.25C124.2869,-260.9527 124.1169,-298.3781 122.5807,-327.3637"/>
<polygon fill="#ff0000" stroke="#ff0000" points="119.0704,-327.4266 121.9534,-337.6216 126.0573,-327.8539 119.0704,-327.4266"/>
</g>
<!-- n1&#45;&gt;n9 -->
<g id="edge8" class="edge">
<title>n1&#45;&gt;n9</title>
<path fill="none" stroke="#ff0000" d="M135.0048,-236.1173C156.3841,-265.96 196.2556,-312.473 245,-326.4 262.6146,-331.4327 1546.3854,-331.4327 1564,-326.4 1606.2629,-314.3249 1639.4478,-274.3253 1659.0897,-244.5673"/>
<polygon fill="#ff0000" stroke="#ff0000" points="1662.0707,-246.4021 1664.5061,-236.091 1656.1722,-242.6329 1662.0707,-246.4021"/>
</g>
<!-- n1&#45;&gt;n5 -->
<g id="edge29" class="edge">
<title>n1&#45;&gt;n5</title>
<path fill="none" stroke="#ff0000" d="M135.0048,-236.1173C156.3841,-265.96 196.2556,-312.473 245,-326.4 266.6877,-332.5965 426.3123,-332.5965 448,-326.4 489.3086,-314.5975 524.0724,-279.1341 546.55,-250.4242"/>
<polygon fill="#ff0000" stroke="#ff0000" points="549.5756,-252.2276 552.8418,-242.1488 544.0032,-247.9909 549.5756,-252.2276"/>
</g>
<!-- n16 -->
<g id="node12" class="node">
<title>n16</title>
<path fill="#ffffff" stroke="#ffc1c1" stroke-width="2" d="M552,-82C552,-82 380,-82 380,-82 374,-82 368,-76 368,-70 368,-70 368,-42 368,-42 368,-36 374,-30 380,-30 380,-30 552,-30 552,-30 558,-30 564,-36 564,-42 564,-42 564,-70 564,-70 564,-76 558,-82 552,-82"/>
<text text-anchor="start" x="406.822" y="-68" font-family="arial" font-weight="bold" font-size="10.00" fill="#000000">Some USIL dating of Culm</text>
<text text-anchor="start" x="378.764" y="-51" font-family="arial" font-size="10.00" fill="#000000">Some part of the Culm is upper Silurian</text>
<text text-anchor="start" x="408.206" y="-39" font-family="arial" font-size="10.00" fill="#000000"> in age #COA #chron&#45;hyp </text>
</g>
<!-- n1&#45;&gt;n16 -->
<g id="edge25" class="edge">
<title>n1&#45;&gt;n16</title>
<path fill="none" stroke="#ff0000" d="M182.2505,-183.876C245.1551,-156.8992 340.2877,-114.8423 402.8211,-86.3932"/>
<polygon fill="#ff0000" stroke="#ff0000" points="404.5384,-89.4568 412.185,-82.1233 401.6342,-83.0877 404.5384,-89.4568"/>
</g>
<!-- n1&#45;&gt;n6 -->
<g id="edge68" class="edge">
<title>n1&#45;&gt;n6</title>
<path fill="none" stroke="#ff0000" d="M135.0048,-236.1173C156.3841,-265.96 196.2556,-312.473 245,-326.4 259.5564,-330.559 1320.4436,-330.559 1335,-326.4 1375.6063,-314.7982 1409.1891,-279.3093 1430.7696,-250.5389"/>
<polygon fill="#ff0000" stroke="#ff0000" points="1433.7511,-252.39 1436.8047,-242.2447 1428.0909,-248.2714 1433.7511,-252.39"/>
</g>
<!-- n18 -->
<g id="node15" class="node">
<title>n18</title>
<path fill="#ffffff" stroke="#ffc1c1" stroke-width="2" d="M1104,-82C1104,-82 932,-82 932,-82 926,-82 920,-76 920,-70 920,-70 920,-42 920,-42 920,-36 926,-30 932,-30 932,-30 1104,-30 1104,-30 1110,-30 1116,-36 1116,-42 1116,-42 1116,-70 1116,-70 1116,-76 1110,-82 1104,-82"/>
<text text-anchor="start" x="950.7635" y="-68" font-family="arial" font-weight="bold" font-size="10.00" fill="#000000">Some ORS dating of the Culm</text>
<text text-anchor="start" x="943.2655" y="-51" font-family="arial" font-size="10.00" fill="#000000">Some part of the Culm is Old Red</text>
<text text-anchor="start" x="934.9155" y="-39" font-family="arial" font-size="10.00" fill="#000000"> Sandstone in age #COA #chron&#45;hyp </text>
</g>
<!-- n1&#45;&gt;n18 -->
<g id="edge43" class="edge">
<title>n1&#45;&gt;n18</title>
<path fill="none" stroke="#ff0000" d="M179.3921,-183.9762C199.927,-175.1285 223.1069,-165.9768 245,-160 368.3511,-126.3253 727.7782,-86.4468 909.7921,-67.3289"/>
<polygon fill="#ff0000" stroke="#ff0000" points="910.3416,-70.7905 919.9222,-66.267 909.6118,-63.8287 910.3416,-70.7905"/>
</g>
<!-- n1&#45;&gt;n7 -->
<g id="edge93" class="edge">
<title>n1&#45;&gt;n7</title>
<path fill="none" stroke="#ff0000" d="M135.0048,-236.1173C156.3841,-265.96 196.2556,-312.473 245,-326.4 258.1074,-330.145 2194.8926,-330.145 2208,-326.4 2239.9316,-317.2767 2266.8077,-292.3845 2286.624,-267.9497"/>
<polygon fill="#ff0000" stroke="#ff0000" points="2289.3978,-270.0843 2292.8072,-260.053 2283.8863,-265.7687 2289.3978,-270.0843"/>
</g>
<!-- n1&#45;&gt;n8 -->
<g id="edge106" class="edge">
<title>n1&#45;&gt;n8</title>
<path fill="none" stroke="#ff0000" d="M176.7207,-183.9372C197.8021,-174.6243 221.9881,-165.1643 245,-160 1008.6338,11.372 1234.3675,-212.7729 2002.3784,-89.5571"/>
<polygon fill="#ff0000" stroke="#ff0000" points="2002.9824,-93.0049 2012.2945,-87.9517 2001.8637,-86.0949 2002.9824,-93.0049"/>
</g>
<!-- n22 -->
<g id="node21" class="node">
<title>n22</title>
<path fill="#ffffff" stroke="#ffc1c1" stroke-width="2" d="M1982,-82C1982,-82 1810,-82 1810,-82 1804,-82 1798,-76 1798,-70 1798,-70 1798,-42 1798,-42 1798,-36 1804,-30 1810,-30 1810,-30 1982,-30 1982,-30 1988,-30 1994,-36 1994,-42 1994,-42 1994,-70 1994,-70 1994,-76 1988,-82 1982,-82"/>
<text text-anchor="start" x="1832.653" y="-68" font-family="arial" font-weight="bold" font-size="10.00" fill="#000000">Some ML dating of the Culm</text>
<text text-anchor="start" x="1819.041" y="-51" font-family="arial" font-size="10.00" fill="#000000">Some part of the Culm is Mountain</text>
<text text-anchor="start" x="1813.7555" y="-39" font-family="arial" font-size="10.00" fill="#000000"> Limestone in age #COA #chron&#45;hyp </text>
</g>
<!-- n1&#45;&gt;n22 -->
<g id="edge76" class="edge">
<title>n1&#45;&gt;n22</title>
<path fill="none" stroke="#ff0000" d="M177.0338,-183.8701C198.0468,-174.6085 222.1107,-165.2024 245,-160 920.9444,-6.369 1120.4148,-208.7507 1803,-88 1808.4256,-87.0402 1813.9645,-85.8727 1819.5035,-84.5585"/>
<polygon fill="#ff0000" stroke="#ff0000" points="1820.6101,-87.889 1829.4492,-82.0478 1818.8967,-81.1019 1820.6101,-87.889"/>
</g>
<!-- n12 -->
<g id="node24" class="node">
<title>n12</title>
<path fill="#ffffff" stroke="#ffc1c1" stroke-width="2" d="M2838,-82C2838,-82 2666,-82 2666,-82 2660,-82 2654,-76 2654,-70 2654,-70 2654,-42 2654,-42 2654,-36 2660,-30 2666,-30 2666,-30 2838,-30 2838,-30 2844,-30 2850,-36 2850,-42 2850,-42 2850,-70 2850,-70 2850,-76 2844,-82 2838,-82"/>
<text text-anchor="start" x="2696.161" y="-68" font-family="arial" font-weight="bold" font-size="10.00" fill="#000000">Some CM dating of Culm</text>
<text text-anchor="start" x="2666.712" y="-51" font-family="arial" font-size="10.00" fill="#000000">Some part of the Devon Culm is CM in</text>
<text text-anchor="start" x="2700.874" y="-39" font-family="arial" font-size="10.00" fill="#000000"> age #COA #chron&#45;hyp</text>
</g>
<!-- n1&#45;&gt;n12 -->
<g id="edge10" class="edge">
<title>n1&#45;&gt;n12</title>
<path fill="none" stroke="#00ff00" d="M168.042,-183.9399C188.5412,-174.5662 212.8516,-165.0625 236,-160 760.2916,-45.34 2120.7753,-177.1619 2650,-88 2655.6863,-87.042 2661.4948,-85.8452 2667.3121,-84.4816"/>
<polygon fill="#00ff00" stroke="#00ff00" points="2668.2351,-87.8587 2677.0905,-82.0421 2666.5407,-81.0668 2668.2351,-87.8587"/>
</g>
<!-- n13 -->
<g id="node25" class="node">
<title>n13</title>
<path fill="#ffffff" stroke="#ffc1c1" stroke-width="2" d="M3264,-236C3264,-236 3092,-236 3092,-236 3086,-236 3080,-230 3080,-224 3080,-224 3080,-196 3080,-196 3080,-190 3086,-184 3092,-184 3092,-184 3264,-184 3264,-184 3270,-184 3276,-190 3276,-196 3276,-196 3276,-224 3276,-224 3276,-230 3270,-236 3264,-236"/>
<text text-anchor="start" x="3128.83" y="-222" font-family="arial" font-weight="bold" font-size="10.00" fill="#000000">No CM dating of Culm</text>
<text text-anchor="start" x="3089.653" y="-205" font-family="arial" font-size="10.00" fill="#000000">No part of the Devon Culm is CM in age</text>
<text text-anchor="start" x="3135.2125" y="-193" font-family="arial" font-size="10.00" fill="#000000"> #COA #chron&#45;hyp </text>
</g>
<!-- n1&#45;&gt;n13 -->
<g id="edge15" class="edge">
<title>n1&#45;&gt;n13</title>
<path fill="none" stroke="#ff0000" d="M135.0048,-236.1173C156.3841,-265.96 196.2556,-312.473 245,-326.4 263.8098,-331.7742 3043.1902,-331.7742 3062,-326.4 3104.4448,-314.2729 3137.9571,-274.2841 3157.8294,-244.5429"/>
<polygon fill="#ff0000" stroke="#ff0000" points="3160.8168,-246.3687 3163.3111,-236.0717 3154.9399,-242.5658 3160.8168,-246.3687"/>
</g>
<!-- n14 -->
<g id="node26" class="node">
<title>n14</title>
<path fill="#ffffff" stroke="#ffc1c1" stroke-width="2" d="M3050,-242C3050,-242 2878,-242 2878,-242 2872,-242 2866,-236 2866,-230 2866,-230 2866,-190 2866,-190 2866,-184 2872,-178 2878,-178 2878,-178 3050,-178 3050,-178 3056,-178 3062,-184 3062,-190 3062,-190 3062,-230 3062,-230 3062,-236 3056,-242 3050,-242"/>
<text text-anchor="start" x="2900.383" y="-228" font-family="arial" font-weight="bold" font-size="10.00" fill="#000000">Main part of the Culm as CM</text>
<text text-anchor="start" x="2885.092" y="-211" font-family="arial" font-size="10.00" fill="#000000">In Devon, the main part of the Culm</text>
<text text-anchor="start" x="2880.096" y="-199" font-family="arial" font-size="10.00" fill="#000000"> strata is Coal Measures in age #COA</text>
<text text-anchor="start" x="2937.6045" y="-187" font-family="arial" font-size="10.00" fill="#000000"> #chron&#45;hyp</text>
</g>
<!-- n1&#45;&gt;n14 -->
<g id="edge17" class="edge">
<title>n1&#45;&gt;n14</title>
<path fill="none" stroke="#00ff00" d="M135.0048,-236.1173C156.3841,-265.96 196.2556,-312.473 245,-326.4 262.3809,-331.366 2830.6191,-331.366 2848,-326.4 2887.6984,-315.0576 2919.5828,-279.3425 2939.8018,-250.4346"/>
<polygon fill="#00ff00" stroke="#00ff00" points="2942.7349,-252.3453 2945.4447,-242.1029 2936.939,-248.4199 2942.7349,-252.3453"/>
</g>
<!-- n15 -->
<g id="node27" class="node">
<title>n15</title>
<path fill="#ffffff" stroke="#ffc1c1" stroke-width="2" d="M2836,-236C2836,-236 2664,-236 2664,-236 2658,-236 2652,-230 2652,-224 2652,-224 2652,-196 2652,-196 2652,-190 2658,-184 2664,-184 2664,-184 2836,-184 2836,-184 2842,-184 2848,-190 2848,-196 2848,-196 2848,-224 2848,-224 2848,-230 2842,-236 2836,-236"/>
<text text-anchor="start" x="2684.441" y="-222" font-family="arial" font-weight="bold" font-size="10.00" fill="#000000">Black Culm Limestone as CM</text>
<text text-anchor="start" x="2675.829" y="-205" font-family="arial" font-size="10.00" fill="#000000">The black Culm limestone is Coal</text>
<text text-anchor="start" x="2670.259" y="-193" font-family="arial" font-size="10.00" fill="#000000"> Measures in age #COA #chron&#45;hyp</text>
</g>
<!-- n1&#45;&gt;n15 -->
<g id="edge21" class="edge">
<title>n1&#45;&gt;n15</title>
<path fill="none" stroke="#00ff00" d="M135.0048,-236.1173C156.3841,-265.96 196.2556,-312.473 245,-326.4 274.1128,-334.7179 2395.1688,-331.5809 2425,-326.4 2519.1307,-310.0518 2622.0506,-268.9294 2686.3145,-240.2254"/>
<polygon fill="#00ff00" stroke="#00ff00" points="2687.8287,-243.3821 2695.5099,-236.0849 2684.9546,-236.9993 2687.8287,-243.3821"/>
</g>
<!-- n25 -->
<g id="node4" class="node">
<title>n25</title>
<path fill="#ffffff" stroke="#ffc1c1" stroke-width="2" d="M3774,-88C3774,-88 3602,-88 3602,-88 3596,-88 3590,-82 3590,-76 3590,-76 3590,-36 3590,-36 3590,-30 3596,-24 3602,-24 3602,-24 3774,-24 3774,-24 3780,-24 3786,-30 3786,-36 3786,-36 3786,-76 3786,-76 3786,-82 3780,-88 3774,-88"/>
<text text-anchor="start" x="3616.3285" y="-74" font-family="arial" font-weight="bold" font-size="10.00" fill="#000000">Some part of Non&#45;Culm as CAM</text>
<text text-anchor="start" x="3606.0365" y="-57" font-family="arial" font-size="10.00" fill="#000000">In Devon, some part of the non&#45;Culm</text>
<text text-anchor="start" x="3616.0445" y="-45" font-family="arial" font-size="10.00" fill="#000000"> strata is Cambrian in age #COA</text>
<text text-anchor="start" x="3661.6045" y="-33" font-family="arial" font-size="10.00" fill="#000000"> #chron&#45;hyp</text>
</g>
<!-- n3&#45;&gt;n25 -->
<g id="edge116" class="edge">
<title>n3&#45;&gt;n25</title>
<path fill="none" stroke="#00ff00" d="M3688,-183.876C3688,-160.4393 3688,-125.6207 3688,-98.2313"/>
<polygon fill="#00ff00" stroke="#00ff00" points="3691.5001,-98.1369 3688,-88.137 3684.5001,-98.137 3691.5001,-98.1369"/>
</g>
<!-- n3&#45;&gt;n4 -->
<g id="edge123" class="edge">
<title>n3&#45;&gt;n4</title>
<path fill="none" stroke="#ff0000" d="M3713.9387,-236.1392C3734.8642,-260.585 3765.6783,-296.827 3799,-320.8 3804.9544,-325.0838 3811.3411,-329.1171 3817.9071,-332.8882"/>
<polygon fill="#ff0000" stroke="#ff0000" points="3816.4999,-336.1088 3826.9479,-337.8669 3819.8766,-329.9771 3816.4999,-336.1088"/>
</g>
<!-- n26 -->
<g id="node6" class="node">
<title>n26</title>
<path fill="#ffffff" stroke="#ffc1c1" stroke-width="2" d="M4094,-242C4094,-242 3922,-242 3922,-242 3916,-242 3910,-236 3910,-230 3910,-230 3910,-190 3910,-190 3910,-184 3916,-178 3922,-178 3922,-178 4094,-178 4094,-178 4100,-178 4106,-184 4106,-190 4106,-190 4106,-230 4106,-230 4106,-236 4100,-242 4094,-242"/>
<text text-anchor="start" x="3939.9335" y="-228" font-family="arial" font-weight="bold" font-size="10.00" fill="#000000">Some part of Non&#45;Culm as SIL</text>
<text text-anchor="start" x="3926.0365" y="-211" font-family="arial" font-size="10.00" fill="#000000">In Devon, some part of the non&#45;Culm</text>
<text text-anchor="start" x="3941.0445" y="-199" font-family="arial" font-size="10.00" fill="#000000"> strata is Silurian in age #COA</text>
<text text-anchor="start" x="3981.6045" y="-187" font-family="arial" font-size="10.00" fill="#000000"> #chron&#45;hyp</text>
</g>
<!-- n3&#45;&gt;n26 -->
<g id="edge117" class="edge">
<title>n3&#45;&gt;n26</title>
<path fill="none" stroke="#ff0000" d="M3786.125,-210C3823.9161,-210 3861.7073,-210 3899.4984,-210"/>
<polygon fill="#ff0000" stroke="#ff0000" points="3899.6297,-213.5001 3909.6296,-210 3899.6296,-206.5001 3899.6297,-213.5001"/>
</g>
<!-- n27 -->
<g id="node7" class="node">
<title>n27</title>
<path fill="#ffffff" stroke="#ffc1c1" stroke-width="2" d="M4200,-402C4200,-402 4028,-402 4028,-402 4022,-402 4016,-396 4016,-390 4016,-390 4016,-350 4016,-350 4016,-344 4022,-338 4028,-338 4028,-338 4200,-338 4200,-338 4206,-338 4212,-344 4212,-350 4212,-350 4212,-390 4212,-390 4212,-396 4206,-402 4200,-402"/>
<text text-anchor="start" x="4071.7685" y="-388" font-family="arial" font-weight="bold" font-size="10.00" fill="#000000">SIL in North Devon</text>
<text text-anchor="start" x="4032.037" y="-371" font-family="arial" font-size="10.00" fill="#000000">In north Devon (around Pilton), some</text>
<text text-anchor="start" x="4035.3775" y="-359" font-family="arial" font-size="10.00" fill="#000000"> non&#45;Culm strata are Silurian in age</text>
<text text-anchor="start" x="4072.602" y="-347" font-family="arial" font-size="10.00" fill="#000000"> #COA #chron&#45;hyp</text>
</g>
<!-- n3&#45;&gt;n27 -->
<g id="edge120" class="edge">
<title>n3&#45;&gt;n27</title>
<path fill="none" stroke="#ff0000" d="M3710.0079,-236.0697C3729.6216,-262.7153 3760.4259,-302.6802 3799,-320.8 3842.7047,-341.3298 3968.6419,-322.5771 4016,-332 4020.7066,-332.9365 4025.4857,-334.0385 4030.2731,-335.2661"/>
<polygon fill="#ff0000" stroke="#ff0000" points="4029.5222,-338.6891 4040.0911,-337.9494 4031.3677,-331.9368 4029.5222,-338.6891"/>
</g>
<!-- n4&#45;&gt;n0 -->
<g id="edge124" class="edge">
<title>n4&#45;&gt;n0</title>
<path fill="none" stroke="#ff0000" d="M3801.9701,-370C2610.081,-370 1418.1919,-370 226.3027,-370"/>
<polygon fill="#ff0000" stroke="#ff0000" points="226.2354,-366.5001 216.2354,-370 226.2353,-373.5001 226.2354,-366.5001"/>
</g>
<!-- n4&#45;&gt;n3 -->
<g id="edge122" class="edge">
<title>n4&#45;&gt;n3</title>
<path fill="none" stroke="#ff0000" d="M3809.0902,-337.8669C3799.2366,-332.732 3789.6609,-327.031 3781,-320.8 3751.3229,-299.449 3723.6348,-268.3661 3706.0832,-244.5523"/>
<polygon fill="#ff0000" stroke="#ff0000" points="3708.743,-242.2536 3700.0906,-236.1392 3703.0415,-246.3148 3708.743,-242.2536"/>
</g>
<!-- n26&#45;&gt;n3 -->
<g id="edge118" class="edge">
<title>n26&#45;&gt;n3</title>
<path fill="none" stroke="#ff0000" d="M3909.6296,-210C3871.8385,-210 3834.0474,-210 3796.2562,-210"/>
<polygon fill="#ff0000" stroke="#ff0000" points="3796.125,-206.5001 3786.125,-210 3796.125,-213.5001 3796.125,-206.5001"/>
</g>
<!-- n27&#45;&gt;n3 -->
<g id="edge121" class="edge">
<title>n27&#45;&gt;n3</title>
<path fill="none" stroke="#ff0000" d="M4022.1651,-337.9494C4014.0594,-335.624 4005.927,-333.5772 3998,-332 3950.6419,-322.5771 3824.7047,-341.3298 3781,-320.8 3746.4942,-304.5913 3718.2058,-270.9024 3701.9091,-244.9037"/>
<polygon fill="#ff0000" stroke="#ff0000" points="3704.7747,-242.8748 3696.6543,-236.0697 3698.7585,-246.4535 3704.7747,-242.8748"/>
</g>
<!-- n27&#45;&gt;n26 -->
<g id="edge119" class="edge">
<title>n27&#45;&gt;n26</title>
<path fill="none" stroke="#00ff00" d="M4092.5493,-337.6216C4075.9002,-312.4908 4052.7203,-277.5024 4034.8413,-250.5151"/>
<polygon fill="#00ff00" stroke="#00ff00" points="4037.6784,-248.4603 4029.2376,-242.0568 4031.8428,-252.3264 4037.6784,-248.4603"/>
</g>
<!-- n9&#45;&gt;n1 -->
<g id="edge9" class="edge">
<title>n9&#45;&gt;n1</title>
<path fill="none" stroke="#ff0000" d="M1664.5061,-236.091C1645.9109,-266.1562 1610.4347,-313.1329 1564,-326.4 1546.3854,-331.4327 262.6146,-331.4327 245,-326.4 200.635,-313.7243 163.6201,-274.0547 141.208,-244.5288"/>
<polygon fill="#ff0000" stroke="#ff0000" points="143.757,-242.0881 135.0048,-236.1173 138.1232,-246.2429 143.757,-242.0881"/>
</g>
<!-- n10 -->
<g id="node9" class="node">
<title>n10</title>
<path fill="#ffffff" stroke="#f4a460" stroke-width="2" d="M2623.5,-82C2623.5,-82 2450.5,-82 2450.5,-82 2444.5,-82 2438.5,-76 2438.5,-70 2438.5,-70 2438.5,-42 2438.5,-42 2438.5,-36 2444.5,-30 2450.5,-30 2450.5,-30 2623.5,-30 2623.5,-30 2629.5,-30 2635.5,-36 2635.5,-42 2635.5,-42 2635.5,-70 2635.5,-70 2635.5,-76 2629.5,-82 2623.5,-82"/>
<text text-anchor="start" x="2470.5485" y="-68" font-family="arial" font-weight="bold" font-size="10.00" fill="#000000">Main part of the Culm as CAM</text>
<text text-anchor="start" x="2448.8785" y="-51" font-family="arial" font-size="10.00" fill="#000000">Then main part of the Culm is Cambrian</text>
<text text-anchor="start" x="2481.0955" y="-39" font-family="arial" font-size="10.00" fill="#000000"> in age #GRE #chron&#45;hyp</text>
</g>
<!-- n9&#45;&gt;n10 -->
<g id="edge6" class="edge">
<title>n9&#45;&gt;n10</title>
<path fill="none" stroke="#00ff00" d="M1726.1868,-183.8904C1744.3753,-174.9223 1765.6676,-165.7126 1786,-160 2064.9707,-81.6206 2150.3509,-147.2552 2434,-88 2438.9146,-86.9733 2443.9295,-85.8107 2448.97,-84.5518"/>
<polygon fill="#00ff00" stroke="#00ff00" points="2449.8806,-87.9315 2458.6748,-82.0228 2448.1153,-81.1577 2449.8806,-87.9315"/>
</g>
<!-- n11 -->
<g id="node10" class="node">
<title>n11</title>
<path fill="#ffffff" stroke="#f4a460" stroke-width="2" d="M1766.5,-82C1766.5,-82 1589.5,-82 1589.5,-82 1583.5,-82 1577.5,-76 1577.5,-70 1577.5,-70 1577.5,-42 1577.5,-42 1577.5,-36 1583.5,-30 1589.5,-30 1589.5,-30 1766.5,-30 1766.5,-30 1772.5,-30 1778.5,-36 1778.5,-42 1778.5,-42 1778.5,-70 1778.5,-70 1778.5,-76 1772.5,-82 1766.5,-82"/>
<text text-anchor="start" x="1609.6065" y="-68" font-family="arial" font-weight="bold" font-size="10.00" fill="#000000">Black Culm Limestone as CAM</text>
<text text-anchor="start" x="1587.6625" y="-51" font-family="arial" font-size="10.00" fill="#000000">The black Culm limestone is Cambrian in</text>
<text text-anchor="start" x="1627.374" y="-39" font-family="arial" font-size="10.00" fill="#000000"> age #GRE #chron&#45;hyp</text>
</g>
<!-- n9&#45;&gt;n11 -->
<g id="edge7" class="edge">
<title>n9&#45;&gt;n11</title>
<path fill="none" stroke="#00ff00" d="M1678.8304,-183.876C1678.6673,-158.7653 1678.4194,-120.5885 1678.2369,-92.4827"/>
<polygon fill="#00ff00" stroke="#00ff00" points="1681.7354,-92.2292 1678.1705,-82.2522 1674.7356,-92.2747 1681.7354,-92.2292"/>
</g>
<!-- n9&#45;&gt;n5 -->
<g id="edge31" class="edge">
<title>n9&#45;&gt;n5</title>
<path fill="none" stroke="#ff0000" d="M1664.5061,-236.091C1645.9109,-266.1562 1610.4347,-313.1329 1564,-326.4 1541.0036,-332.9704 725.9964,-332.9704 703,-326.4 660.9783,-314.3938 625.2033,-278.6964 602.0634,-249.9684"/>
<polygon fill="#ff0000" stroke="#ff0000" points="604.8008,-247.7872 595.8771,-242.0759 599.2915,-252.1055 604.8008,-247.7872"/>
</g>
<!-- n9&#45;&gt;n16 -->
<g id="edge27" class="edge">
<title>n9&#45;&gt;n16</title>
<path fill="none" stroke="#ff0000" d="M1641.5385,-183.9626C1623.9756,-174.8315 1602.5415,-165.4918 1582,-160 1203.3245,-58.7613 1092.5808,-131.258 703,-88 660.9746,-83.3336 614.7491,-77.0596 574.3357,-71.3034"/>
<polygon fill="#ff0000" stroke="#ff0000" points="574.5873,-67.8039 564.1924,-69.8525 573.596,-74.7333 574.5873,-67.8039"/>
</g>
<!-- n9&#45;&gt;n6 -->
<g id="edge66" class="edge">
<title>n9&#45;&gt;n6</title>
<path fill="none" stroke="#ff0000" d="M1578.1996,-210C1575.7287,-210 1573.2579,-210 1570.787,-210"/>
<polygon fill="#ff0000" stroke="#ff0000" points="1570.6289,-206.5001 1560.6289,-210 1570.6289,-213.5001 1570.6289,-206.5001"/>
</g>
<!-- n9&#45;&gt;n18 -->
<g id="edge41" class="edge">
<title>n9&#45;&gt;n18</title>
<path fill="none" stroke="#ff0000" d="M1639.7796,-183.9987C1622.4841,-175.2074 1601.7351,-166.0872 1582,-160 1387.1957,-99.9136 1327.4544,-134.6367 1129,-88 1124.6653,-86.9813 1120.2472,-85.8726 1115.7919,-84.6995"/>
<polygon fill="#ff0000" stroke="#ff0000" points="1116.5652,-81.2827 1105.9973,-82.0387 1114.73,-88.0379 1116.5652,-81.2827"/>
</g>
<!-- n9&#45;&gt;n7 -->
<g id="edge91" class="edge">
<title>n9&#45;&gt;n7</title>
<path fill="none" stroke="#ff0000" d="M1693.6889,-236.0717C1712.5138,-266.1179 1748.3654,-313.0758 1795,-326.4 1817.0616,-332.7033 2185.9384,-332.7033 2208,-326.4 2239.9316,-317.2767 2266.8077,-292.3845 2286.624,-267.9497"/>
<polygon fill="#ff0000" stroke="#ff0000" points="2289.3978,-270.0843 2292.8072,-260.053 2283.8863,-265.7687 2289.3978,-270.0843"/>
</g>
<!-- n9&#45;&gt;n8 -->
<g id="edge104" class="edge">
<title>n9&#45;&gt;n8</title>
<path fill="none" stroke="#ff0000" d="M1739.743,-183.959C1757.4443,-175.8034 1776.8568,-167.09 1795,-160 1833.977,-144.7686 1928.6574,-114.9328 2004.6755,-91.1096"/>
<polygon fill="#ff0000" stroke="#ff0000" points="2005.825,-94.4173 2014.3211,-88.0874 2003.732,-87.7375 2005.825,-94.4173"/>
</g>
<!-- n9&#45;&gt;n22 -->
<g id="edge74" class="edge">
<title>n9&#45;&gt;n22</title>
<path fill="none" stroke="#ff0000" d="M1721.0281,-183.876C1760.0234,-157.5485 1817.4962,-116.8579 1855.8715,-88.4704"/>
<polygon fill="#ff0000" stroke="#ff0000" points="1858.2981,-91.0276 1864.2345,-82.2522 1854.1213,-85.4102 1858.2981,-91.0276"/>
</g>
<!-- n9&#45;&gt;n12 -->
<g id="edge12" class="edge">
<title>n9&#45;&gt;n12</title>
<path fill="none" stroke="#ff0000" d="M1733.7002,-183.9833C1752.6628,-174.8548 1774.2937,-165.5114 1795,-160 2167.3662,-60.8868 2280.8656,-162.124 2659,-88 2664.0498,-87.0101 2669.2022,-85.8593 2674.3643,-84.594"/>
<polygon fill="#ff0000" stroke="#ff0000" points="2675.4729,-87.9226 2684.2791,-82.0318 2673.7214,-81.1452 2675.4729,-87.9226"/>
</g>
<!-- n10&#45;&gt;n14 -->
<g id="edge19" class="edge">
<title>n10&#45;&gt;n14</title>
<path fill="none" stroke="#ff0000" d="M2625.623,-82.1005C2715.2071,-109.893 2843.4142,-151.0917 2866,-160 2876.5483,-164.1604 2887.5324,-168.8566 2898.1811,-173.6629"/>
<polygon fill="#ff0000" stroke="#ff0000" points="2896.8844,-176.9187 2907.4333,-177.9043 2899.8014,-170.5554 2896.8844,-176.9187"/>
</g>
<!-- n17 -->
<g id="node13" class="node">
<title>n17</title>
<path fill="#ffffff" stroke="#ffc1c1" stroke-width="2" d="M436,-236C436,-236 260,-236 260,-236 254,-236 248,-230 248,-224 248,-224 248,-196 248,-196 248,-190 254,-184 260,-184 260,-184 436,-184 436,-184 442,-184 448,-190 448,-196 448,-196 448,-224 448,-224 448,-230 442,-236 436,-236"/>
<text text-anchor="start" x="279.102" y="-222" font-family="arial" font-weight="bold" font-size="10.00" fill="#000000">Black Culm Limestone as USIL</text>
<text text-anchor="start" x="270.211" y="-205" font-family="arial" font-size="10.00" fill="#000000">The whole of the Culm limestone is</text>
<text text-anchor="start" x="257.9785" y="-193" font-family="arial" font-size="10.00" fill="#000000"> upper Silurian in age. #COA #chron&#45;hyp</text>
</g>
<!-- n11&#45;&gt;n17 -->
<g id="edge38" class="edge">
<title>n11&#45;&gt;n17</title>
<path fill="none" stroke="#ff0000" d="M1608.5963,-82.0266C1599.7334,-84.3459 1590.7181,-86.4125 1582,-88 1093.01,-177.0436 947.9157,-38.3561 466,-160 448.1161,-164.5142 429.556,-171.8922 412.5567,-179.6111"/>
<polygon fill="#ff0000" stroke="#ff0000" points="410.8811,-176.5302 403.2874,-183.9185 413.831,-182.8783 410.8811,-176.5302"/>
</g>
<!-- n19 -->
<g id="node16" class="node">
<title>n19</title>
<path fill="#ffffff" stroke="#ffc1c1" stroke-width="2" d="M1104,-242C1104,-242 932,-242 932,-242 926,-242 920,-236 920,-230 920,-230 920,-190 920,-190 920,-184 926,-178 932,-178 932,-178 1104,-178 1104,-178 1110,-178 1116,-184 1116,-190 1116,-190 1116,-230 1116,-230 1116,-236 1110,-242 1104,-242"/>
<text text-anchor="start" x="934.651" y="-228" font-family="arial" font-weight="bold" font-size="10.00" fill="#000000">Some ORS dating of Culm Limestone</text>
<text text-anchor="start" x="932.152" y="-211" font-family="arial" font-size="10.00" fill="#000000">Some part of the black Culm limestone</text>
<text text-anchor="start" x="937.9755" y="-199" font-family="arial" font-size="10.00" fill="#000000"> is Old Red Sandstone in age #COA</text>
<text text-anchor="start" x="990.215" y="-187" font-family="arial" font-size="10.00" fill="#000000"> #chron&#45;hyp </text>
</g>
<!-- n11&#45;&gt;n19 -->
<g id="edge50" class="edge">
<title>n11&#45;&gt;n19</title>
<path fill="none" stroke="#ff0000" d="M1605.2869,-82.0702C1597.4788,-84.2181 1589.6119,-86.2371 1582,-88 1385.534,-133.5012 1326.7633,-100.7418 1134,-160 1121.8178,-163.745 1109.2435,-168.619 1097.0568,-173.8529"/>
<polygon fill="#ff0000" stroke="#ff0000" points="1095.5707,-170.6829 1087.8261,-177.9128 1098.389,-177.0905 1095.5707,-170.6829"/>
</g>
<!-- n20 -->
<g id="node17" class="node">
<title>n20</title>
<path fill="#ffffff" stroke="#ffc1c1" stroke-width="2" d="M890,-242C890,-242 718,-242 718,-242 712,-242 706,-236 706,-230 706,-230 706,-190 706,-190 706,-184 712,-178 718,-178 718,-178 890,-178 890,-178 896,-178 902,-184 902,-190 902,-190 902,-230 902,-230 902,-236 896,-242 890,-242"/>
<text text-anchor="start" x="720.3715" y="-228" font-family="arial" font-weight="bold" font-size="10.00" fill="#000000">Some USIL dating of Culm Limestone</text>
<text text-anchor="start" x="718.152" y="-211" font-family="arial" font-size="10.00" fill="#000000">Some part of the black Culm limestone</text>
<text text-anchor="start" x="736.7645" y="-199" font-family="arial" font-size="10.00" fill="#000000"> is upper Silurian in age #COA</text>
<text text-anchor="start" x="777.6045" y="-187" font-family="arial" font-size="10.00" fill="#000000"> #chron&#45;hyp</text>
</g>
<!-- n11&#45;&gt;n20 -->
<g id="edge56" class="edge">
<title>n11&#45;&gt;n20</title>
<path fill="none" stroke="#ff0000" d="M1607.0936,-82.0266C1598.707,-84.2673 1590.2144,-86.3171 1582,-88 1292.0649,-147.4001 1205.0179,-80.2785 920,-160 907.3329,-163.5431 894.2954,-168.45 881.7271,-173.8149"/>
<polygon fill="#ff0000" stroke="#ff0000" points="879.9685,-170.7645 872.2213,-177.9916 882.7844,-177.1732 879.9685,-170.7645"/>
</g>
<!-- n21 -->
<g id="node18" class="node">
<title>n21</title>
<path fill="#ffffff" stroke="#ffc1c1" stroke-width="2" d="M1323.5,-248C1323.5,-248 1146.5,-248 1146.5,-248 1140.5,-248 1134.5,-242 1134.5,-236 1134.5,-236 1134.5,-184 1134.5,-184 1134.5,-178 1140.5,-172 1146.5,-172 1146.5,-172 1323.5,-172 1323.5,-172 1329.5,-172 1335.5,-178 1335.5,-184 1335.5,-184 1335.5,-236 1335.5,-236 1335.5,-242 1329.5,-248 1323.5,-248"/>
<text text-anchor="start" x="1144.651" y="-234" font-family="arial" font-weight="bold" font-size="10.00" fill="#000000">Black Culm Limestone as USIL and ORS</text>
<text text-anchor="start" x="1145.7645" y="-217" font-family="arial" font-size="10.00" fill="#000000">The balck Culm limestone encompasses</text>
<text text-anchor="start" x="1152.9695" y="-205" font-family="arial" font-size="10.00" fill="#000000"> the upper part of the Silurian and the</text>
<text text-anchor="start" x="1145.748" y="-193" font-family="arial" font-size="10.00" fill="#000000"> whole of the Old Red Sandstone. #COA</text>
<text text-anchor="start" x="1209.1045" y="-181" font-family="arial" font-size="10.00" fill="#000000"> #chron&#45;hyp</text>
</g>
<!-- n11&#45;&gt;n21 -->
<g id="edge62" class="edge">
<title>n11&#45;&gt;n21</title>
<path fill="none" stroke="#ff0000" d="M1599.8741,-82.0199C1507.5417,-111.2958 1365.0155,-155.3953 1353,-160 1346.5997,-162.4528 1340.0429,-165.1017 1333.4566,-167.8556"/>
<polygon fill="#ff0000" stroke="#ff0000" points="1331.6376,-164.8254 1323.8005,-171.9549 1334.3731,-171.2688 1331.6376,-164.8254"/>
</g>
<!-- n23 -->
<g id="node22" class="node">
<title>n23</title>
<path fill="#ffffff" stroke="#ffc1c1" stroke-width="2" d="M1982,-236C1982,-236 1810,-236 1810,-236 1804,-236 1798,-230 1798,-224 1798,-224 1798,-196 1798,-196 1798,-190 1804,-184 1810,-184 1810,-184 1982,-184 1982,-184 1988,-184 1994,-190 1994,-196 1994,-196 1994,-224 1994,-224 1994,-230 1988,-236 1982,-236"/>
<text text-anchor="start" x="1831.271" y="-222" font-family="arial" font-weight="bold" font-size="10.00" fill="#000000">Black Culm Limestone as ML</text>
<text text-anchor="start" x="1811.546" y="-205" font-family="arial" font-size="10.00" fill="#000000">The black Culm limestone is Mountain</text>
<text text-anchor="start" x="1813.7555" y="-193" font-family="arial" font-size="10.00" fill="#000000"> Limestone in age #COA #chron&#45;hyp </text>
</g>
<!-- n11&#45;&gt;n23 -->
<g id="edge85" class="edge">
<title>n11&#45;&gt;n23</title>
<path fill="none" stroke="#ff0000" d="M1720.3883,-82.2522C1759.6147,-108.6262 1817.3507,-149.32 1855.848,-177.6676"/>
<polygon fill="#ff0000" stroke="#ff0000" points="1854.1161,-180.7401 1864.2363,-183.876 1858.2805,-175.1136 1854.1161,-180.7401"/>
</g>
<!-- n11&#45;&gt;n15 -->
<g id="edge23" class="edge">
<title>n11&#45;&gt;n15</title>
<path fill="none" stroke="#ff0000" d="M1769.4247,-82.0598C1778.0389,-84.2792 1786.6617,-86.3153 1795,-88 2079.0332,-145.3861 2155.8173,-121.3463 2443,-160 2509.2169,-168.9125 2582.9757,-180.489 2641.6347,-190.258"/>
<polygon fill="#ff0000" stroke="#ff0000" points="2641.2188,-193.737 2651.6592,-191.9345 2642.3735,-186.8329 2641.2188,-193.737"/>
</g>
<!-- n5&#45;&gt;n0 -->
<g id="edge32" class="edge">
<title>n5&#45;&gt;n0</title>
<path fill="none" stroke="#ff0000" d="M542.4393,-242.1133C519.2242,-267.8538 485.6462,-302.5804 448,-320.8 409.4695,-339.4475 307.4311,-352.6229 226.5157,-360.616"/>
<polygon fill="#ff0000" stroke="#ff0000" points="225.8706,-357.1621 216.2561,-361.6132 226.5478,-364.1293 225.8706,-357.1621"/>
</g>
<!-- n5&#45;&gt;n1 -->
<g id="edge28" class="edge">
<title>n5&#45;&gt;n1</title>
<path fill="none" stroke="#ff0000" d="M552.8418,-242.1488C530.8718,-271.9022 493.3863,-313.4325 448,-326.4 426.3123,-332.5965 266.6877,-332.5965 245,-326.4 200.635,-313.7243 163.6201,-274.0547 141.208,-244.5288"/>
<polygon fill="#ff0000" stroke="#ff0000" points="143.757,-242.0881 135.0048,-236.1173 138.1232,-246.2429 143.757,-242.0881"/>
</g>
<!-- n5&#45;&gt;n9 -->
<g id="edge30" class="edge">
<title>n5&#45;&gt;n9</title>
<path fill="none" stroke="#ff0000" d="M595.8771,-242.0759C618.5317,-271.7746 657.0275,-313.265 703,-326.4 725.9964,-332.9704 1541.0036,-332.9704 1564,-326.4 1606.2629,-314.3249 1639.4478,-274.3253 1659.0897,-244.5673"/>
<polygon fill="#ff0000" stroke="#ff0000" points="1662.0707,-246.4021 1664.5061,-236.091 1656.1722,-242.6329 1662.0707,-246.4021"/>
</g>
<!-- n5&#45;&gt;n6 -->
<g id="edge70" class="edge">
<title>n5&#45;&gt;n6</title>
<path fill="none" stroke="#ff0000" d="M595.8771,-242.0759C618.5317,-271.7746 657.0275,-313.265 703,-326.4 719.8801,-331.2229 1318.1199,-331.2229 1335,-326.4 1375.6063,-314.7982 1409.1891,-279.3093 1430.7696,-250.5389"/>
<polygon fill="#ff0000" stroke="#ff0000" points="1433.7511,-252.39 1436.8047,-242.2447 1428.0909,-248.2714 1433.7511,-252.39"/>
</g>
<!-- n5&#45;&gt;n18 -->
<g id="edge45" class="edge">
<title>n5&#45;&gt;n18</title>
<path fill="none" stroke="#ff0000" d="M657.0016,-177.945C672.2594,-171.7573 688.068,-165.4963 703,-160 778.1449,-132.3403 864.5438,-104.8158 927.8785,-85.0372"/>
<polygon fill="#ff0000" stroke="#ff0000" points="928.9409,-88.3722 937.4453,-82.0535 926.8567,-81.6897 928.9409,-88.3722"/>
</g>
<!-- n5&#45;&gt;n7 -->
<g id="edge95" class="edge">
<title>n5&#45;&gt;n7</title>
<path fill="none" stroke="#ff0000" d="M595.8771,-242.0759C618.5317,-271.7746 657.0275,-313.265 703,-326.4 723.0985,-332.1424 2187.9015,-332.1424 2208,-326.4 2239.9316,-317.2767 2266.8077,-292.3845 2286.624,-267.9497"/>
<polygon fill="#ff0000" stroke="#ff0000" points="2289.3978,-270.0843 2292.8072,-260.053 2283.8863,-265.7687 2289.3978,-270.0843"/>
</g>
<!-- n5&#45;&gt;n8 -->
<g id="edge108" class="edge">
<title>n5&#45;&gt;n8</title>
<path fill="none" stroke="#ff0000" d="M648.3319,-177.9525C665.9343,-170.8204 684.849,-164.1518 703,-160 1267.6596,-30.8407 1435.679,-184.1962 2002.2348,-89.6474"/>
<polygon fill="#ff0000" stroke="#ff0000" points="2003.0161,-93.0651 2012.2942,-87.9496 2001.8511,-86.1627 2003.0161,-93.0651"/>
</g>
<!-- n5&#45;&gt;n22 -->
<g id="edge78" class="edge">
<title>n5&#45;&gt;n22</title>
<path fill="none" stroke="#ff0000" d="M648.6822,-177.953C666.193,-170.8673 684.9807,-164.2205 703,-160 1180.0248,-48.2695 1321.3964,-177.9683 1803,-88 1808.3021,-87.0095 1813.7149,-85.8315 1819.1318,-84.5213"/>
<polygon fill="#ff0000" stroke="#ff0000" points="1820.0428,-87.9011 1828.8636,-82.0322 1818.3082,-81.1194 1820.0428,-87.9011"/>
</g>
<!-- n16&#45;&gt;n1 -->
<g id="edge24" class="edge">
<title>n16&#45;&gt;n1</title>
<path fill="none" stroke="#ff0000" d="M401.7511,-82.1233C338.847,-109.0998 243.7144,-151.1567 181.1805,-179.6061"/>
<polygon fill="#ff0000" stroke="#ff0000" points="179.463,-176.5425 171.8165,-183.876 182.3673,-182.9116 179.463,-176.5425"/>
</g>
<!-- n16&#45;&gt;n9 -->
<g id="edge26" class="edge">
<title>n16&#45;&gt;n9</title>
<path fill="none" stroke="#ff0000" d="M564.0895,-72.2521C601.7925,-77.741 645.2729,-83.5888 685,-88 1074.5808,-131.258 1185.3245,-58.7613 1564,-160 1581.1714,-164.5908 1598.9666,-171.8705 1615.3179,-179.4695"/>
<polygon fill="#ff0000" stroke="#ff0000" points="1614.229,-182.8273 1624.7628,-183.9626 1617.2362,-176.5061 1614.229,-182.8273"/>
</g>
<!-- n17&#45;&gt;n11 -->
<g id="edge37" class="edge">
<title>n17&#45;&gt;n11</title>
<path fill="none" stroke="#ff0000" d="M386.5294,-183.9185C404.6588,-174.7229 426.8042,-165.3502 448,-160 929.9157,-38.3561 1075.01,-177.0436 1564,-88 1569.4488,-87.0078 1575.0137,-85.8284 1580.6113,-84.5172"/>
<polygon fill="#ff0000" stroke="#ff0000" points="1581.834,-87.8206 1590.7042,-82.0266 1580.1569,-81.0244 1581.834,-87.8206"/>
</g>
<!-- n17&#45;&gt;n16 -->
<g id="edge34" class="edge">
<title>n17&#45;&gt;n16</title>
<path fill="none" stroke="#00ff00" d="M368.0171,-183.876C387.7663,-158.1016 418.0635,-118.5612 439.7369,-90.2755"/>
<polygon fill="#00ff00" stroke="#00ff00" points="442.5807,-92.3187 445.8847,-82.2522 437.0243,-88.0611 442.5807,-92.3187"/>
</g>
<!-- n17&#45;&gt;n19 -->
<g id="edge48" class="edge">
<title>n17&#45;&gt;n19</title>
<path fill="none" stroke="#ff0000" d="M363.0782,-236.0328C382.3615,-266.0406 418.963,-312.9609 466,-326.4 489.2902,-333.0544 878.7098,-333.0544 902,-326.4 941.6984,-315.0576 973.5828,-279.3425 993.8018,-250.4346"/>
<polygon fill="#ff0000" stroke="#ff0000" points="996.7349,-252.3453 999.4447,-242.1029 990.939,-248.4199 996.7349,-252.3453"/>
</g>
<!-- n17&#45;&gt;n20 -->
<g id="edge53" class="edge">
<title>n17&#45;&gt;n20</title>
<path fill="none" stroke="#00ff00" d="M363.0782,-236.0328C382.3615,-266.0406 418.963,-312.9609 466,-326.4 489.3971,-333.0849 661.6029,-333.0849 685,-326.4 725.2132,-314.9105 757.9891,-279.2146 778.8858,-250.3512"/>
<polygon fill="#00ff00" stroke="#00ff00" points="781.8435,-252.2295 784.7226,-242.0333 776.1135,-248.2086 781.8435,-252.2295"/>
</g>
<!-- n17&#45;&gt;n21 -->
<g id="edge64" class="edge">
<title>n17&#45;&gt;n21</title>
<path fill="none" stroke="#ff0000" d="M363.0782,-236.0328C382.3615,-266.0406 418.963,-312.9609 466,-326.4 483.3608,-331.3602 1098.6392,-331.3602 1116,-326.4 1153.3964,-315.7153 1184.3609,-284.0966 1205.3213,-256.5064"/>
<polygon fill="#ff0000" stroke="#ff0000" points="1208.3975,-258.231 1211.5011,-248.101 1202.7577,-254.0846 1208.3975,-258.231"/>
</g>
<!-- n17&#45;&gt;n23 -->
<g id="edge83" class="edge">
<title>n17&#45;&gt;n23</title>
<path fill="none" stroke="#ff0000" d="M363.0782,-236.0328C382.3615,-266.0406 418.963,-312.9609 466,-326.4 483.6146,-331.4327 1767.3854,-331.4327 1785,-326.4 1826.3649,-314.5814 1858.1435,-274.8311 1876.8928,-245.0484"/>
<polygon fill="#ff0000" stroke="#ff0000" points="1880.0874,-246.531 1882.2894,-236.1675 1874.1053,-242.8958 1880.0874,-246.531"/>
</g>
<!-- n17&#45;&gt;n15 -->
<g id="edge35" class="edge">
<title>n17&#45;&gt;n15</title>
<path fill="none" stroke="#ff0000" d="M363.0782,-236.0328C382.3615,-266.0406 418.963,-312.9609 466,-326.4 492.1615,-333.8747 2398.193,-331.0557 2425,-326.4 2519.1307,-310.0518 2622.0506,-268.9294 2686.3145,-240.2254"/>
<polygon fill="#ff0000" stroke="#ff0000" points="2687.8287,-243.3821 2695.5099,-236.0849 2684.9546,-236.9993 2687.8287,-243.3821"/>
</g>
<!-- n6&#45;&gt;n0 -->
<g id="edge71" class="edge">
<title>n6&#45;&gt;n0</title>
<path fill="none" stroke="#ff0000" d="M1427.8517,-242.0624C1405.7715,-268.5177 1373.2116,-304.2916 1335,-320.8 1284.4594,-342.6348 516.9675,-361.2467 226.3417,-367.6361"/>
<polygon fill="#ff0000" stroke="#ff0000" points="226.1272,-364.1399 216.2064,-367.8582 226.2807,-371.1382 226.1272,-364.1399"/>
</g>
<!-- n6&#45;&gt;n1 -->
<g id="edge67" class="edge">
<title>n6&#45;&gt;n1</title>
<path fill="none" stroke="#ff0000" d="M1436.8047,-242.2447C1415.7507,-272.0701 1379.6147,-313.6529 1335,-326.4 1320.4436,-330.559 259.5564,-330.559 245,-326.4 200.635,-313.7243 163.6201,-274.0547 141.208,-244.5288"/>
<polygon fill="#ff0000" stroke="#ff0000" points="143.757,-242.0881 135.0048,-236.1173 138.1232,-246.2429 143.757,-242.0881"/>
</g>
<!-- n6&#45;&gt;n9 -->
<g id="edge65" class="edge">
<title>n6&#45;&gt;n9</title>
<path fill="none" stroke="#ff0000" d="M1560.6289,-210C1563.0998,-210 1565.5707,-210 1568.0415,-210"/>
<polygon fill="#ff0000" stroke="#ff0000" points="1568.1996,-213.5001 1578.1996,-210 1568.1996,-206.5001 1568.1996,-213.5001"/>
</g>
<!-- n6&#45;&gt;n5 -->
<g id="edge69" class="edge">
<title>n6&#45;&gt;n5</title>
<path fill="none" stroke="#ff0000" d="M1436.8047,-242.2447C1415.7507,-272.0701 1379.6147,-313.6529 1335,-326.4 1318.1199,-331.2229 719.8801,-331.2229 703,-326.4 660.9783,-314.3938 625.2033,-278.6964 602.0634,-249.9684"/>
<polygon fill="#ff0000" stroke="#ff0000" points="604.8008,-247.7872 595.8771,-242.0759 599.2915,-252.1055 604.8008,-247.7872"/>
</g>
<!-- n6&#45;&gt;n7 -->
<g id="edge97" class="edge">
<title>n6&#45;&gt;n7</title>
<path fill="none" stroke="#ff0000" d="M1475.5553,-242.1029C1495.1986,-272.054 1529.3829,-313.938 1573,-326.4 1589.9602,-331.2458 2191.0398,-331.2458 2208,-326.4 2239.9316,-317.2767 2266.8077,-292.3845 2286.624,-267.9497"/>
<polygon fill="#ff0000" stroke="#ff0000" points="2289.3978,-270.0843 2292.8072,-260.053 2283.8863,-265.7687 2289.3978,-270.0843"/>
</g>
<!-- n6&#45;&gt;n8 -->
<g id="edge110" class="edge">
<title>n6&#45;&gt;n8</title>
<path fill="none" stroke="#ff0000" d="M1526.837,-177.9484C1541.8181,-171.2112 1557.7201,-164.7241 1573,-160 1758.6676,-102.5967 1817.1744,-130.6908 2002.5076,-90.1136"/>
<polygon fill="#ff0000" stroke="#ff0000" points="2003.2915,-93.5248 2012.2911,-87.934 2001.7693,-86.6923 2003.2915,-93.5248"/>
</g>
<!-- n6&#45;&gt;n22 -->
<g id="edge80" class="edge">
<title>n6&#45;&gt;n22</title>
<path fill="none" stroke="#ff0000" d="M1530.8395,-177.9198C1544.7521,-171.6345 1559.2372,-165.3422 1573,-160 1672.8552,-121.2401 1700.7877,-120.0317 1803,-88 1806.0993,-87.0287 1809.2514,-86.0407 1812.4319,-85.0428"/>
<polygon fill="#ff0000" stroke="#ff0000" points="1813.5427,-88.3626 1822.0339,-82.0261 1811.4445,-81.6844 1813.5427,-88.3626"/>
</g>
<!-- n18&#45;&gt;n1 -->
<g id="edge42" class="edge">
<title>n18&#45;&gt;n1</title>
<path fill="none" stroke="#ff0000" d="M919.7298,-65.2241C737.6711,-83.3815 355.0779,-125.0349 227,-160 208.5277,-165.0429 189.1393,-172.3461 171.8805,-179.8198"/>
<polygon fill="#ff0000" stroke="#ff0000" points="170.2467,-176.7158 162.5307,-183.9762 173.0903,-183.1122 170.2467,-176.7158"/>
</g>
<!-- n18&#45;&gt;n9 -->
<g id="edge40" class="edge">
<title>n18&#45;&gt;n9</title>
<path fill="none" stroke="#ff0000" d="M1088.074,-82.0387C1095.7547,-84.2063 1103.5021,-86.238 1111,-88 1309.4544,-134.6367 1369.1957,-99.9136 1564,-160 1580.4973,-165.0885 1597.7031,-172.2965 1613.6632,-179.66"/>
<polygon fill="#ff0000" stroke="#ff0000" points="1612.3622,-182.9157 1622.9015,-183.9987 1615.3379,-176.5797 1612.3622,-182.9157"/>
</g>
<!-- n18&#45;&gt;n5 -->
<g id="edge44" class="edge">
<title>n18&#45;&gt;n5</title>
<path fill="none" stroke="#ff0000" d="M922.5498,-82.0535C855.444,-101.9903 764.0025,-130.9203 685,-160 673.2177,-164.3369 660.8897,-169.1499 648.9018,-174.0274"/>
<polygon fill="#ff0000" stroke="#ff0000" points="647.2943,-170.904 639.3775,-177.945 649.9572,-177.3778 647.2943,-170.904"/>
</g>
<!-- n18&#45;&gt;n2 -->
<g id="edge39" class="edge">
<title>n18&#45;&gt;n2</title>
<path fill="none" stroke="#00ff00" d="M1092.9145,-82.0125C1101.9539,-84.4029 1111.1263,-86.4896 1120,-88 1595.2084,-168.8878 2818.641,-50.1459 3288,-160 3301.7242,-163.2122 3315.8219,-168.1826 3329.1515,-173.767"/>
<polygon fill="#00ff00" stroke="#00ff00" points="3328.1395,-177.1437 3338.7055,-177.9255 3330.9332,-170.7253 3328.1395,-177.1437"/>
</g>
<!-- n19&#45;&gt;n11 -->
<g id="edge49" class="edge">
<title>n19&#45;&gt;n11</title>
<path fill="none" stroke="#ff0000" d="M1070.3352,-177.9128C1084.8076,-171.1771 1100.7126,-164.6996 1116,-160 1308.7633,-100.7418 1367.534,-133.5012 1564,-88 1568.4006,-86.9808 1572.8865,-85.876 1577.4112,-84.7103"/>
<polygon fill="#ff0000" stroke="#ff0000" points="1578.593,-88.0179 1587.3609,-82.0702 1576.7977,-81.252 1578.593,-88.0179"/>
</g>
<!-- n19&#45;&gt;n17 -->
<g id="edge47" class="edge">
<title>n19&#45;&gt;n17</title>
<path fill="none" stroke="#ff0000" d="M999.4447,-242.1029C979.8014,-272.054 945.6171,-313.938 902,-326.4 878.7098,-333.0544 489.2902,-333.0544 466,-326.4 423.189,-314.1683 389.0226,-274.2014 368.69,-244.4938"/>
<polygon fill="#ff0000" stroke="#ff0000" points="371.5223,-242.4318 363.0782,-236.0328 365.6888,-246.3009 371.5223,-242.4318"/>
</g>
<!-- n19&#45;&gt;n18 -->
<g id="edge46" class="edge">
<title>n19&#45;&gt;n18</title>
<path fill="none" stroke="#00ff00" d="M1018,-177.7166C1018,-152.7556 1018,-118.2007 1018,-92.2842"/>
<polygon fill="#00ff00" stroke="#00ff00" points="1021.5001,-92.1117 1018,-82.1117 1014.5001,-92.1118 1021.5001,-92.1117"/>
</g>
<!-- n19&#45;&gt;n15 -->
<g id="edge51" class="edge">
<title>n19&#45;&gt;n15</title>
<path fill="none" stroke="#ff0000" d="M1036.5553,-242.1029C1056.1986,-272.054 1090.3829,-313.938 1134,-326.4 1151.2407,-331.3259 2407.3339,-329.4682 2425,-326.4 2519.1307,-310.0518 2622.0506,-268.9294 2686.3145,-240.2254"/>
<polygon fill="#ff0000" stroke="#ff0000" points="2687.8287,-243.3821 2695.5099,-236.0849 2684.9546,-236.9993 2687.8287,-243.3821"/>
</g>
<!-- n20&#45;&gt;n11 -->
<g id="edge55" class="edge">
<title>n20&#45;&gt;n11</title>
<path fill="none" stroke="#ff0000" d="M854.7809,-177.9916C869.6248,-171.0402 886.104,-164.4462 902,-160 1187.0179,-80.2785 1274.0649,-147.4001 1564,-88 1569.0057,-86.9745 1574.1146,-85.8127 1579.2606,-84.5546"/>
<polygon fill="#ff0000" stroke="#ff0000" points="1580.3584,-87.8868 1589.185,-82.0266 1578.6305,-81.1034 1580.3584,-87.8868"/>
</g>
<!-- n20&#45;&gt;n16 -->
<g id="edge54" class="edge">
<title>n20&#45;&gt;n16</title>
<path fill="none" stroke="#00ff00" d="M733.5556,-177.904C674.4509,-150.9747 590.6251,-112.7819 532.6206,-86.3538"/>
<polygon fill="#00ff00" stroke="#00ff00" points="533.7332,-83.0146 523.1821,-82.0534 530.8309,-89.3846 533.7332,-83.0146"/>
</g>
<!-- n20&#45;&gt;n15 -->
<g id="edge57" class="edge">
<title>n20&#45;&gt;n15</title>
<path fill="none" stroke="#ff0000" d="M822.5553,-242.1029C842.1986,-272.054 876.3829,-313.938 920,-326.4 940.0985,-332.1424 2404.4055,-329.9768 2425,-326.4 2519.1307,-310.0518 2622.0506,-268.9294 2686.3145,-240.2254"/>
<polygon fill="#ff0000" stroke="#ff0000" points="2687.8287,-243.3821 2695.5099,-236.0849 2684.9546,-236.9993 2687.8287,-243.3821"/>
</g>
<!-- n21&#45;&gt;n11 -->
<g id="edge61" class="edge">
<title>n21&#45;&gt;n11</title>
<path fill="none" stroke="#ff0000" d="M1305.9267,-171.9549C1315.6013,-167.7357 1325.474,-163.6507 1335,-160 1346.6165,-155.5481 1480.221,-114.1807 1577.2389,-84.9831"/>
<polygon fill="#ff0000" stroke="#ff0000" points="1578.5293,-88.25 1587.0988,-82.0199 1576.5146,-81.5462 1578.5293,-88.25"/>
</g>
<!-- n21&#45;&gt;n17 -->
<g id="edge63" class="edge">
<title>n21&#45;&gt;n17</title>
<path fill="none" stroke="#ff0000" d="M1211.5011,-248.101C1190.6986,-277.3307 1157.265,-314.61 1116,-326.4 1098.6392,-331.3602 483.3608,-331.3602 466,-326.4 423.189,-314.1683 389.0226,-274.2014 368.69,-244.4938"/>
<polygon fill="#ff0000" stroke="#ff0000" points="371.5223,-242.4318 363.0782,-236.0328 365.6888,-246.3009 371.5223,-242.4318"/>
</g>
<!-- n21&#45;&gt;n23 -->
<g id="edge89" class="edge">
<title>n21&#45;&gt;n23</title>
<path fill="none" stroke="#ff0000" d="M1258.2116,-248.1277C1278.7865,-277.3732 1311.9118,-314.6605 1353,-326.4 1376.0766,-332.9933 1761.9234,-332.9933 1785,-326.4 1826.3649,-314.5814 1858.1435,-274.8311 1876.8928,-245.0484"/>
<polygon fill="#ff0000" stroke="#ff0000" points="1880.0874,-246.531 1882.2894,-236.1675 1874.1053,-242.8958 1880.0874,-246.531"/>
</g>
<!-- n21&#45;&gt;n15 -->
<g id="edge59" class="edge">
<title>n21&#45;&gt;n15</title>
<path fill="none" stroke="#ff0000" d="M1258.2116,-248.1277C1278.7865,-277.3732 1311.9118,-314.6605 1353,-326.4 1381.632,-334.5806 2395.6614,-331.4954 2425,-326.4 2519.1307,-310.0518 2622.0506,-268.9294 2686.3145,-240.2254"/>
<polygon fill="#ff0000" stroke="#ff0000" points="2687.8287,-243.3821 2695.5099,-236.0849 2684.9546,-236.9993 2687.8287,-243.3821"/>
</g>
<!-- n7&#45;&gt;n0 -->
<g id="edge98" class="edge">
<title>n7&#45;&gt;n0</title>
<path fill="none" stroke="#ff0000" d="M2281.8116,-260.2565C2262.315,-283.1841 2237.1452,-308.024 2208,-320.8 2116.5578,-360.8842 645.0973,-368.3914 226.3529,-369.7253"/>
<polygon fill="#ff0000" stroke="#ff0000" points="226.0495,-366.2261 216.0606,-369.7575 226.0715,-373.2261 226.0495,-366.2261"/>
</g>
<!-- n7&#45;&gt;n1 -->
<g id="edge92" class="edge">
<title>n7&#45;&gt;n1</title>
<path fill="none" stroke="#ff0000" d="M2292.8072,-260.053C2272.5659,-286.8118 2243.3874,-316.2893 2208,-326.4 2194.8926,-330.145 258.1074,-330.145 245,-326.4 200.635,-313.7243 163.6201,-274.0547 141.208,-244.5288"/>
<polygon fill="#ff0000" stroke="#ff0000" points="143.757,-242.0881 135.0048,-236.1173 138.1232,-246.2429 143.757,-242.0881"/>
</g>
<!-- n7&#45;&gt;n9 -->
<g id="edge90" class="edge">
<title>n7&#45;&gt;n9</title>
<path fill="none" stroke="#ff0000" d="M2292.8072,-260.053C2272.5659,-286.8118 2243.3874,-316.2893 2208,-326.4 2185.9384,-332.7033 1817.0616,-332.7033 1795,-326.4 1752.5552,-314.2729 1719.0429,-274.2841 1699.1706,-244.5429"/>
<polygon fill="#ff0000" stroke="#ff0000" points="1702.0601,-242.5658 1693.6889,-236.0717 1696.1832,-246.3687 1702.0601,-242.5658"/>
</g>
<!-- n7&#45;&gt;n5 -->
<g id="edge94" class="edge">
<title>n7&#45;&gt;n5</title>
<path fill="none" stroke="#ff0000" d="M2292.8072,-260.053C2272.5659,-286.8118 2243.3874,-316.2893 2208,-326.4 2187.9015,-332.1424 723.0985,-332.1424 703,-326.4 660.9783,-314.3938 625.2033,-278.6964 602.0634,-249.9684"/>
<polygon fill="#ff0000" stroke="#ff0000" points="604.8008,-247.7872 595.8771,-242.0759 599.2915,-252.1055 604.8008,-247.7872"/>
</g>
<!-- n7&#45;&gt;n6 -->
<g id="edge96" class="edge">
<title>n7&#45;&gt;n6</title>
<path fill="none" stroke="#ff0000" d="M2292.8072,-260.053C2272.5659,-286.8118 2243.3874,-316.2893 2208,-326.4 2191.0398,-331.2458 1589.9602,-331.2458 1573,-326.4 1533.3016,-315.0576 1501.4172,-279.3425 1481.1982,-250.4346"/>
<polygon fill="#ff0000" stroke="#ff0000" points="1484.061,-248.4199 1475.5553,-242.1029 1478.2651,-252.3453 1484.061,-248.4199"/>
</g>
<!-- n7&#45;&gt;n8 -->
<g id="edge112" class="edge">
<title>n7&#45;&gt;n8</title>
<path fill="none" stroke="#ff0000" d="M2248.8297,-159.7877C2219.126,-138.5615 2185.9387,-114.2328 2159.7713,-94.4676"/>
<polygon fill="#ff0000" stroke="#ff0000" points="2161.6178,-91.4753 2151.5354,-88.2204 2157.3874,-97.0524 2161.6178,-91.4753"/>
</g>
<!-- n8&#45;&gt;n0 -->
<g id="edge113" class="edge">
<title>n8&#45;&gt;n0</title>
<path fill="none" stroke="#ff0000" d="M2213.7565,-87.2152C2215.1775,-87.489 2216.5926,-87.7509 2218,-88 2362.6373,-113.5963 3437.0049,-53.3459 3538,-160 3587.1391,-211.8925 3588.17,-269.9035 3538,-320.8 3508.2369,-350.9941 809.0528,-366.4675 226.1587,-369.4585"/>
<polygon fill="#ff0000" stroke="#ff0000" points="226.0556,-365.9589 216.0736,-369.5101 226.0915,-372.9588 226.0556,-365.9589"/>
</g>
<!-- n8&#45;&gt;n1 -->
<g id="edge105" class="edge">
<title>n8&#45;&gt;n1</title>
<path fill="none" stroke="#ff0000" d="M2012.263,-84.4693C2006.1084,-85.823 1999.9868,-87.0221 1994,-88 1218.2948,-214.7037 993.9104,12.1073 227,-160 207.5837,-164.3573 187.3315,-171.7729 169.5812,-179.5779"/>
<polygon fill="#ff0000" stroke="#ff0000" points="167.6516,-176.6105 159.9985,-183.9372 170.5502,-182.9822 167.6516,-176.6105"/>
</g>
<!-- n8&#45;&gt;n9 -->
<g id="edge103" class="edge">
<title>n8&#45;&gt;n9</title>
<path fill="none" stroke="#ff0000" d="M2012.3403,-84.3027C1929.7364,-108.9489 1819.7941,-143.2769 1777,-160 1762.1169,-165.816 1746.3797,-172.7244 1731.9413,-179.5212"/>
<polygon fill="#ff0000" stroke="#ff0000" points="1730.174,-176.4867 1722.6629,-183.959 1733.1943,-182.8016 1730.174,-176.4867"/>
</g>
<!-- n8&#45;&gt;n5 -->
<g id="edge107" class="edge">
<title>n8&#45;&gt;n5</title>
<path fill="none" stroke="#ff0000" d="M2012.2465,-84.3703C2006.0959,-85.7481 1999.9797,-86.9796 1994,-88 1419.6458,-186.0137 1252.9877,-30.0794 685,-160 670.1105,-163.4058 654.7071,-168.5052 640.2683,-174.1647"/>
<polygon fill="#ff0000" stroke="#ff0000" points="638.8843,-170.949 630.9343,-177.9525 641.5166,-177.4353 638.8843,-170.949"/>
</g>
<!-- n8&#45;&gt;n6 -->
<g id="edge109" class="edge">
<title>n8&#45;&gt;n6</title>
<path fill="none" stroke="#ff0000" d="M2012.3993,-83.5484C2006.1829,-85.1357 2000.0131,-86.6375 1994,-88 1801.1705,-131.6935 1743.8958,-101.5987 1555,-160 1542.9432,-163.7276 1530.4991,-168.5529 1518.6758,-173.7326"/>
<polygon fill="#ff0000" stroke="#ff0000" points="1517.0178,-170.641 1509.3462,-177.9484 1519.9003,-177.02 1517.0178,-170.641"/>
</g>
<!-- n8&#45;&gt;n7 -->
<g id="edge111" class="edge">
<title>n8&#45;&gt;n7</title>
<path fill="none" stroke="#ff0000" d="M2162.757,-88.2204C2189.7875,-107.1508 2223.6133,-131.6153 2253.3163,-153.6453"/>
<polygon fill="#ff0000" stroke="#ff0000" points="2251.4628,-156.6286 2261.5757,-159.7877 2255.6401,-151.0116 2251.4628,-156.6286"/>
</g>
<!-- n22&#45;&gt;n1 -->
<g id="edge75" class="edge">
<title>n22&#45;&gt;n1</title>
<path fill="none" stroke="#ff0000" d="M1811.5642,-82.0478C1802.652,-84.3969 1793.6809,-86.4643 1785,-88 1102.4148,-208.7507 902.9444,-6.369 227,-160 207.6872,-164.3895 187.5381,-171.7717 169.8477,-179.5348"/>
<polygon fill="#ff0000" stroke="#ff0000" points="167.9537,-176.5507 160.2937,-183.8701 170.8463,-182.9251 167.9537,-176.5507"/>
</g>
<!-- n22&#45;&gt;n9 -->
<g id="edge73" class="edge">
<title>n22&#45;&gt;n9</title>
<path fill="none" stroke="#ff0000" d="M1853.7821,-82.2522C1814.727,-108.6262 1757.2553,-149.32 1718.942,-177.6676"/>
<polygon fill="#ff0000" stroke="#ff0000" points="1716.5296,-175.0999 1710.5941,-183.876 1720.707,-180.7168 1716.5296,-175.0999"/>
</g>
<!-- n22&#45;&gt;n5 -->
<g id="edge77" class="edge">
<title>n22&#45;&gt;n5</title>
<path fill="none" stroke="#ff0000" d="M1810.9715,-82.0322C1802.2502,-84.3504 1793.4833,-86.4152 1785,-88 1303.3964,-177.9683 1162.0248,-48.2695 685,-160 670.2186,-163.4622 654.9201,-168.557 640.56,-174.1874"/>
<polygon fill="#ff0000" stroke="#ff0000" points="639.2256,-170.9516 631.2738,-177.953 641.8561,-177.4386 639.2256,-170.9516"/>
</g>
<!-- n22&#45;&gt;n6 -->
<g id="edge79" class="edge">
<title>n22&#45;&gt;n6</title>
<path fill="none" stroke="#ff0000" d="M1804.0799,-82.0261C1797.6087,-84.048 1791.1985,-86.0575 1785,-88 1682.7877,-120.0317 1654.8552,-121.2401 1555,-160 1544.3553,-164.1318 1533.2786,-168.832 1522.5541,-173.6578"/>
<polygon fill="#ff0000" stroke="#ff0000" points="1520.8768,-170.5762 1513.2399,-177.9198 1523.7895,-176.9415 1520.8768,-170.5762"/>
</g>
<!-- n23&#45;&gt;n11 -->
<g id="edge84" class="edge">
<title>n23&#45;&gt;n11</title>
<path fill="none" stroke="#ff0000" d="M1853.8023,-183.876C1814.636,-157.5485 1756.899,-116.8579 1718.3393,-88.4704"/>
<polygon fill="#ff0000" stroke="#ff0000" points="1720.0564,-85.3869 1709.9359,-82.2522 1715.8926,-91.0139 1720.0564,-85.3869"/>
</g>
<!-- n23&#45;&gt;n17 -->
<g id="edge82" class="edge">
<title>n23&#45;&gt;n17</title>
<path fill="none" stroke="#ff0000" d="M1882.2894,-236.1675C1864.6158,-266.308 1830.6441,-313.3588 1785,-326.4 1767.3854,-331.4327 483.6146,-331.4327 466,-326.4 423.189,-314.1683 389.0226,-274.2014 368.69,-244.4938"/>
<polygon fill="#ff0000" stroke="#ff0000" points="371.5223,-242.4318 363.0782,-236.0328 365.6888,-246.3009 371.5223,-242.4318"/>
</g>
<!-- n23&#45;&gt;n21 -->
<g id="edge88" class="edge">
<title>n23&#45;&gt;n21</title>
<path fill="none" stroke="#ff0000" d="M1882.2894,-236.1675C1864.6158,-266.308 1830.6441,-313.3588 1785,-326.4 1761.9234,-332.9933 1376.0766,-332.9933 1353,-326.4 1315.7638,-315.7611 1285.0675,-284.14 1264.3254,-256.5373"/>
<polygon fill="#ff0000" stroke="#ff0000" points="1266.9229,-254.158 1258.2116,-248.1277 1261.261,-258.2742 1266.9229,-254.158"/>
</g>
<!-- n23&#45;&gt;n22 -->
<g id="edge81" class="edge">
<title>n23&#45;&gt;n22</title>
<path fill="none" stroke="#00ff00" d="M1896,-183.876C1896,-158.7653 1896,-120.5885 1896,-92.4827"/>
<polygon fill="#00ff00" stroke="#00ff00" points="1899.5001,-92.2521 1896,-82.2522 1892.5001,-92.2522 1899.5001,-92.2521"/>
</g>
<!-- n23&#45;&gt;n15 -->
<g id="edge86" class="edge">
<title>n23&#45;&gt;n15</title>
<path fill="none" stroke="#ff0000" d="M1910.6889,-236.0717C1929.5138,-266.1179 1965.3654,-313.0758 2012,-326.4 2034.0616,-332.7033 2402.394,-330.3261 2425,-326.4 2519.1307,-310.0518 2622.0506,-268.9294 2686.3145,-240.2254"/>
<polygon fill="#ff0000" stroke="#ff0000" points="2687.8287,-243.3821 2695.5099,-236.0849 2684.9546,-236.9993 2687.8287,-243.3821"/>
</g>
<!-- n24 -->
<g id="node23" class="node">
<title>n24</title>
<path fill="#ffffff" stroke="#eedd82" stroke-width="2" d="M2196,-242C2196,-242 2024,-242 2024,-242 2018,-242 2012,-236 2012,-230 2012,-230 2012,-190 2012,-190 2012,-184 2018,-178 2024,-178 2024,-178 2196,-178 2196,-178 2202,-178 2208,-184 2208,-190 2208,-190 2208,-230 2208,-230 2208,-236 2202,-242 2196,-242"/>
<text text-anchor="start" x="2047.213" y="-228" font-family="arial" font-weight="bold" font-size="10.00" fill="#000000">Main part of the Culm as ML</text>
<text text-anchor="start" x="2031.092" y="-211" font-family="arial" font-size="10.00" fill="#000000">In Devon, the main part of the Culm</text>
<text text-anchor="start" x="2029.7015" y="-199" font-family="arial" font-size="10.00" fill="#000000"> strata is Mountain Limestone in age</text>
<text text-anchor="start" x="2069.157" y="-187" font-family="arial" font-size="10.00" fill="#000000"> #DEV #chron&#45;hyp</text>
</g>
<!-- n24&#45;&gt;n22 -->
<g id="edge100" class="edge">
<title>n24&#45;&gt;n22</title>
<path fill="none" stroke="#00ff00" d="M2065.3991,-177.904C2028.8832,-151.6263 1977.4638,-114.6235 1940.8739,-88.2925"/>
<polygon fill="#00ff00" stroke="#00ff00" points="1942.5363,-85.1767 1932.3751,-82.1765 1938.4475,-90.8584 1942.5363,-85.1767"/>
</g>
<!-- n24&#45;&gt;n14 -->
<g id="edge101" class="edge">
<title>n24&#45;&gt;n14</title>
<path fill="none" stroke="#ff0000" d="M2128.5553,-242.1029C2148.1986,-272.054 2182.3829,-313.938 2226,-326.4 2242.613,-331.1466 2831.387,-331.1466 2848,-326.4 2887.6984,-315.0576 2919.5828,-279.3425 2939.8018,-250.4346"/>
<polygon fill="#ff0000" stroke="#ff0000" points="2942.7349,-252.3453 2945.4447,-242.1029 2936.939,-248.4199 2942.7349,-252.3453"/>
</g>
<!-- n12&#45;&gt;n9 -->
<g id="edge11" class="edge">
<title>n12&#45;&gt;n9</title>
<path fill="none" stroke="#ff0000" d="M2666.3802,-82.0318C2657.85,-84.3177 2649.2868,-86.3756 2641,-88 2262.8656,-162.124 2149.3662,-60.8868 1777,-160 1759.6909,-164.6072 1741.7356,-171.8921 1725.9482,-179.4909"/>
<polygon fill="#ff0000" stroke="#ff0000" points="1724.3167,-176.3933 1716.9246,-183.9833 1727.4364,-182.6597 1724.3167,-176.3933"/>
</g>
<!-- n13&#45;&gt;n1 -->
<g id="edge14" class="edge">
<title>n13&#45;&gt;n1</title>
<path fill="none" stroke="#ff0000" d="M3163.3111,-236.0717C3144.4862,-266.1179 3108.6346,-313.0758 3062,-326.4 3043.1902,-331.7742 263.8098,-331.7742 245,-326.4 200.635,-313.7243 163.6201,-274.0547 141.208,-244.5288"/>
<polygon fill="#ff0000" stroke="#ff0000" points="143.757,-242.0881 135.0048,-236.1173 138.1232,-246.2429 143.757,-242.0881"/>
</g>
<!-- n13&#45;&gt;n12 -->
<g id="edge13" class="edge">
<title>n13&#45;&gt;n12</title>
<path fill="none" stroke="#ff0000" d="M3114.3742,-178.7182C3100.2349,-172.203 3085.2205,-165.6164 3071,-160 2999.3396,-131.6977 2916.5723,-104.8787 2853.305,-85.5655"/>
<polygon fill="#ff0000" stroke="#ff0000" points="3114.6201,-178.8329 3121.7488,-177.7458 3125.4941,-183.908 3118.3654,-184.9951 3114.6201,-178.8329"/>
<polygon fill="#ff0000" stroke="#ff0000" points="2853.2075,-85.5359 2846.3039,-87.6193 2841.7256,-82.048 2848.6292,-79.9646 2853.2075,-85.5359"/>
</g>
<!-- n14&#45;&gt;n10 -->
<g id="edge18" class="edge">
<title>n14&#45;&gt;n10</title>
<path fill="none" stroke="#ff0000" d="M2889.8254,-177.9043C2876.0049,-171.6539 2861.6382,-165.3792 2848,-160 2826.2523,-151.4223 2706.577,-112.9062 2622.1496,-85.2476"/>
<polygon fill="#ff0000" stroke="#ff0000" points="2623.1456,-81.8909 2612.5529,-82.1005 2620.9643,-88.5424 2623.1456,-81.8909"/>
</g>
<!-- n14&#45;&gt;n24 -->
<g id="edge102" class="edge">
<title>n14&#45;&gt;n24</title>
<path fill="none" stroke="#ff0000" d="M2945.4447,-242.1029C2925.8014,-272.054 2891.6171,-313.938 2848,-326.4 2831.387,-331.1466 2242.613,-331.1466 2226,-326.4 2186.3016,-315.0576 2154.4172,-279.3425 2134.1982,-250.4346"/>
<polygon fill="#ff0000" stroke="#ff0000" points="2137.061,-248.4199 2128.5553,-242.1029 2131.2651,-252.3453 2137.061,-248.4199"/>
</g>
<!-- n14&#45;&gt;n12 -->
<g id="edge16" class="edge">
<title>n14&#45;&gt;n12</title>
<path fill="none" stroke="#00ff00" d="M2919.8159,-177.904C2883.6413,-151.6263 2832.7024,-114.6235 2796.4545,-88.2925"/>
<polygon fill="#00ff00" stroke="#00ff00" points="2798.1828,-85.2219 2788.0351,-82.1765 2794.0688,-90.8854 2798.1828,-85.2219"/>
</g>
<!-- n15&#45;&gt;n11 -->
<g id="edge22" class="edge">
<title>n15&#45;&gt;n11</title>
<path fill="none" stroke="#ff0000" d="M2651.6573,-194.4978C2587.1676,-184.005 2501.1028,-170.2431 2425,-160 2137.8173,-121.3463 2061.0332,-145.3861 1777,-88 1771.9189,-86.9734 1766.7321,-85.8163 1761.5259,-84.5668"/>
<polygon fill="#ff0000" stroke="#ff0000" points="1762.0636,-81.0934 1751.513,-82.0598 1760.3635,-87.8838 1762.0636,-81.0934"/>
</g>
<!-- n15&#45;&gt;n17 -->
<g id="edge36" class="edge">
<title>n15&#45;&gt;n17</title>
<path fill="none" stroke="#ff0000" d="M2695.5099,-236.0849C2632.1951,-264.8247 2523.7601,-309.2478 2425,-326.4 2398.193,-331.0557 492.1615,-333.8747 466,-326.4 423.189,-314.1683 389.0226,-274.2014 368.69,-244.4938"/>
<polygon fill="#ff0000" stroke="#ff0000" points="371.5223,-242.4318 363.0782,-236.0328 365.6888,-246.3009 371.5223,-242.4318"/>
</g>
<!-- n15&#45;&gt;n19 -->
<g id="edge52" class="edge">
<title>n15&#45;&gt;n19</title>
<path fill="none" stroke="#ff0000" d="M2695.5099,-236.0849C2632.1951,-264.8247 2523.7601,-309.2478 2425,-326.4 2407.3339,-329.4682 1151.2407,-331.3259 1134,-326.4 1094.3016,-315.0576 1062.4172,-279.3425 1042.1982,-250.4346"/>
<polygon fill="#ff0000" stroke="#ff0000" points="1045.061,-248.4199 1036.5553,-242.1029 1039.2651,-252.3453 1045.061,-248.4199"/>
</g>
<!-- n15&#45;&gt;n20 -->
<g id="edge58" class="edge">
<title>n15&#45;&gt;n20</title>
<path fill="none" stroke="#ff0000" d="M2695.5099,-236.0849C2632.1951,-264.8247 2523.7601,-309.2478 2425,-326.4 2404.4055,-329.9768 940.0985,-332.1424 920,-326.4 880.3016,-315.0576 848.4172,-279.3425 828.1982,-250.4346"/>
<polygon fill="#ff0000" stroke="#ff0000" points="831.061,-248.4199 822.5553,-242.1029 825.2651,-252.3453 831.061,-248.4199"/>
</g>
<!-- n15&#45;&gt;n21 -->
<g id="edge60" class="edge">
<title>n15&#45;&gt;n21</title>
<path fill="none" stroke="#ff0000" d="M2695.5099,-236.0849C2632.1951,-264.8247 2523.7601,-309.2478 2425,-326.4 2395.6614,-331.4954 1381.632,-334.5806 1353,-326.4 1315.7638,-315.7611 1285.0675,-284.14 1264.3254,-256.5373"/>
<polygon fill="#ff0000" stroke="#ff0000" points="1266.9229,-254.158 1258.2116,-248.1277 1261.261,-258.2742 1266.9229,-254.158"/>
</g>
<!-- n15&#45;&gt;n23 -->
<g id="edge87" class="edge">
<title>n15&#45;&gt;n23</title>
<path fill="none" stroke="#ff0000" d="M2695.5099,-236.0849C2632.1951,-264.8247 2523.7601,-309.2478 2425,-326.4 2402.394,-330.3261 2034.0616,-332.7033 2012,-326.4 1969.5552,-314.2729 1936.0429,-274.2841 1916.1706,-244.5429"/>
<polygon fill="#ff0000" stroke="#ff0000" points="1919.0601,-242.5658 1910.6889,-236.0717 1913.1832,-246.3687 1919.0601,-242.5658"/>
</g>
<!-- n15&#45;&gt;n12 -->
<g id="edge20" class="edge">
<title>n15&#45;&gt;n12</title>
<path fill="none" stroke="#00ff00" d="M2750.3393,-183.876C2750.6654,-158.7653 2751.1612,-120.5885 2751.5262,-92.4827"/>
<polygon fill="#00ff00" stroke="#00ff00" points="2755.0288,-92.2968 2751.6591,-82.2522 2748.0294,-92.2058 2755.0288,-92.2968"/>
</g>
<!-- n28 -->
<g id="node28" class="node">
<title>n28</title>
<path fill="#ffffff" stroke="#f4a460" stroke-width="2" d="M4436,-408C4436,-408 4260,-408 4260,-408 4254,-408 4248,-402 4248,-396 4248,-396 4248,-344 4248,-344 4248,-338 4254,-332 4260,-332 4260,-332 4436,-332 4436,-332 4442,-332 4448,-338 4448,-344 4448,-344 4448,-396 4448,-396 4448,-402 4442,-408 4436,-408"/>
<text text-anchor="start" x="4271.8685" y="-394" font-family="arial" font-weight="bold" font-size="10.00" fill="#000000">Exmoor Youngest Devonian strata</text>
<text text-anchor="start" x="4268.812" y="-377" font-family="arial" font-size="10.00" fill="#000000">In Devon, among all the strata older</text>
<text text-anchor="start" x="4257.6885" y="-365" font-family="arial" font-size="10.00" fill="#000000"> than the New Red Sandstone, the strata</text>
<text text-anchor="start" x="4270.1995" y="-353" font-family="arial" font-size="10.00" fill="#000000"> of Exmoor are the youngest #GRE</text>
<text text-anchor="start" x="4321.6045" y="-341" font-family="arial" font-size="10.00" fill="#000000"> #chron&#45;hyp</text>
</g>
<!-- n29 -->
<g id="node29" class="node">
<title>n29</title>
<path fill="#ffffff" stroke="#ffc1c1" stroke-width="2" d="M4439.5,-242C4439.5,-242 4256.5,-242 4256.5,-242 4250.5,-242 4244.5,-236 4244.5,-230 4244.5,-230 4244.5,-190 4244.5,-190 4244.5,-184 4250.5,-178 4256.5,-178 4256.5,-178 4439.5,-178 4439.5,-178 4445.5,-178 4451.5,-184 4451.5,-190 4451.5,-190 4451.5,-230 4451.5,-230 4451.5,-236 4445.5,-242 4439.5,-242"/>
<text text-anchor="start" x="4277.0935" y="-228" font-family="arial" font-weight="bold" font-size="10.00" fill="#000000">Culm Youngest Devonian Strata</text>
<text text-anchor="start" x="4269.312" y="-211" font-family="arial" font-size="10.00" fill="#000000">In Devon, among all the strata older</text>
<text text-anchor="start" x="4259.028" y="-199" font-family="arial" font-size="10.00" fill="#000000"> than the New Red Sandstone, the Culm</text>
<text text-anchor="start" x="4254.5825" y="-187" font-family="arial" font-size="10.00" fill="#000000"> strata are the youngest #COA #chron&#45;hyp</text>
</g>
<!-- n28&#45;&gt;n29 -->
<g id="edge127" class="edge">
<title>n28&#45;&gt;n29</title>
<path fill="none" stroke="#ff0000" d="M4342.1408,-331.676C4341.0134,-307.7314 4340.9561,-276.8758 4341.9689,-252.2286"/>
<polygon fill="#ff0000" stroke="#ff0000" points="4345.4723,-252.2439 4342.4684,-242.0838 4338.4808,-251.8996 4345.4723,-252.2439"/>
</g>
<!-- n29&#45;&gt;n28 -->
<g id="edge126" class="edge">
<title>n29&#45;&gt;n28</title>
<path fill="none" stroke="#ff0000" d="M4353.5316,-242.0838C4354.8559,-264.7905 4355.1007,-295.6519 4354.2658,-321.3724"/>
<polygon fill="#ff0000" stroke="#ff0000" points="4350.7563,-321.5458 4353.8592,-331.676 4357.7508,-321.8218 4350.7563,-321.5458"/>
</g>
<!-- n2&#45;&gt;n0 -->
<g id="edge3" class="edge">
<title>n2&#45;&gt;n0</title>
<path fill="none" stroke="#ff0000" d="M3384.1746,-242.0149C3366.583,-268.6328 3334.9122,-304.6696 3297,-320.8 3225.0038,-351.4319 780.2551,-366.4549 226.6634,-369.4385"/>
<polygon fill="#ff0000" stroke="#ff0000" points="226.2677,-365.9404 216.2866,-369.4942 226.3053,-372.9403 226.2677,-365.9404"/>
</g>
</g>
</svg>
