
<!-- Generated by graphviz version 2.40.1 (20161225.0304)
 -->
<!-- Title: Argument Map Pages: 1 -->
<svg width="720pt" height="359pt"
 viewBox="0.00 0.00 720.00 359.31" xmlns="http://www.w3.org/2000/svg" xmlns:xlink="http://www.w3.org/1999/xlink">
<g id="graph0" class="graph" transform="scale(.4286 .4286) rotate(0) translate(4 834.4)">
<title>Argument Map</title>
<g id="clust6" class="cluster">
<title>cluster_6</title>
<polygon fill="#c6e2ff" stroke="#c6e2ff" points="902,-506 902,-804.4 1332,-804.4 1332,-506 902,-506"/>
<text text-anchor="start" x="1033.3132" y="-789.6" font-family="arial" font-size="12.00" fill="#000000">Aporia I : Coal in Ancient Strata</text>
</g>
<g id="clust5" class="cluster">
<title>cluster_5</title>
<polygon fill="#f0f8ff" stroke="#f0f8ff" points="454,-524 454,-614.4 666,-614.4 666,-524 454,-524"/>
<text text-anchor="start" x="479.6534" y="-599.6" font-family="arial" font-size="12.00" fill="#000000">Dating of the Non&#45;Culm Strata</text>
</g>
<g id="clust8" class="cluster">
<title>cluster_8</title>
<polygon fill="#e6e6fa" stroke="#e6e6fa" points="1020,-162 1020,-454.4 1664,-454.4 1664,-162 1020,-162"/>
<text text-anchor="start" x="1271.9752" y="-439.6" font-family="arial" font-size="12.00" fill="#000000">Youngest Devonian Strata</text>
</g>
<g id="clust7" class="cluster">
<title>cluster_7</title>
<polygon fill="#9fb6cd" stroke="#9fb6cd" points="674,-156 674,-822.4 894,-822.4 894,-156 674,-156"/>
<text text-anchor="start" x="683.3122" y="-807.6" font-family="arial" font-size="12.00" fill="#000000">Aporia II : CM Plants in Ancient Strata</text>
</g>
<g id="clust2" class="cluster">
<title>cluster_2</title>
<polygon fill="#ffff00" stroke="#ffff00" points="464,-8 464,-122.4 1322,-122.4 1322,-8 464,-8"/>
<text text-anchor="start" x="868.3256" y="-107.6" font-family="arial" font-size="12.00" fill="#000000">Evidence</text>
</g>
<g id="clust3" class="cluster">
<title>cluster_3</title>
<polygon fill="#f0ffff" stroke="#f0ffff" points="8,-512 8,-816.4 226,-816.4 226,-512 8,-512"/>
<text text-anchor="start" x="60.6408" y="-801.6" font-family="arial" font-size="12.00" fill="#000000">Gap in the Sequence</text>
</g>
<g id="clust4" class="cluster">
<title>cluster_4</title>
<polygon fill="#bfefff" stroke="#bfefff" points="234,-346 234,-620.4 446,-620.4 446,-346 234,-346"/>
<text text-anchor="start" x="290.3248" y="-605.6" font-family="arial" font-size="12.00" fill="#000000">Dating of the Culm</text>
</g>
<g id="clust1" class="cluster">
<title>cluster_1</title>
<polygon fill="#ffff00" stroke="#ffff00" points="234,-702 234,-804.4 450,-804.4 450,-702 234,-702"/>
<text text-anchor="start" x="295.3272" y="-789.6" font-family="arial" font-size="12.00" fill="#000000">Rival Hypotheses</text>
</g>
<!-- n0 -->
<g id="node1" class="node">
<title>n0</title>
<path fill="#ffffff" stroke="#f4a460" stroke-width="2" d="M430,-774C430,-774 254,-774 254,-774 248,-774 242,-768 242,-762 242,-762 242,-722 242,-722 242,-716 248,-710 254,-710 254,-710 430,-710 430,-710 436,-710 442,-716 442,-722 442,-722 442,-762 442,-762 442,-768 436,-774 430,-774"/>
<text text-anchor="start" x="286.99" y="-760" font-family="arial" font-weight="bold" font-size="10.00" fill="#000000">Devonian Strata as CAM</text>
<text text-anchor="start" x="265.3125" y="-743" font-family="arial" font-size="10.00" fill="#000000">In Devon, all the strata &#45; older than</text>
<text text-anchor="start" x="251.703" y="-731" font-family="arial" font-size="10.00" fill="#000000"> the New Red Sandstone &#45; are Cambrian</text>
<text text-anchor="start" x="301.433" y="-719" font-family="arial" font-size="10.00" fill="#000000"> in age #GRE #H1</text>
</g>
<!-- n15 -->
<g id="node7" class="node">
<title>n15</title>
<path fill="#f4a460" stroke="#000000" d="M206,-596C206,-596 34,-596 34,-596 28,-596 22,-590 22,-584 22,-584 22,-532 22,-532 22,-526 28,-520 34,-520 34,-520 206,-520 206,-520 212,-520 218,-526 218,-532 218,-532 218,-584 218,-584 218,-590 212,-596 206,-596"/>
<text text-anchor="start" x="52.202" y="-582" font-family="arial" font-weight="bold" font-size="10.00" fill="#000000">Unbroken Sequence &#45; GRE.1a</text>
<text text-anchor="start" x="56.095" y="-565" font-family="arial" font-size="10.00" fill="#000000">If, in Devon, all the strata are</text>
<text text-anchor="start" x="35.5295" y="-553" font-family="arial" font-size="10.00" fill="#000000"> Cambrian in age, i.e. belonging to the</text>
<text text-anchor="start" x="36.9225" y="-541" font-family="arial" font-size="10.00" fill="#000000"> same geological period, then there is</text>
<text text-anchor="start" x="38.581" y="-529" font-family="arial" font-size="10.00" fill="#000000"> no gap in the local sequence. #GRE</text>
</g>
<!-- n0&#45;&gt;n15 -->
<g id="edge10" class="edge">
<title>n0&#45;&gt;n15</title>
<path fill="none" stroke="#00ff00" d="M303.3306,-709.9496C267.4599,-680.219 213.7393,-635.6939 173.7112,-602.5174"/>
<polygon fill="#00ff00" stroke="#00ff00" points="175.8303,-599.7279 165.8975,-596.0412 171.3633,-605.1173 175.8303,-599.7279"/>
</g>
<!-- n16 -->
<g id="node9" class="node">
<title>n16</title>
<path fill="#f4a460" stroke="#000000" d="M426,-590C426,-590 254,-590 254,-590 248,-590 242,-584 242,-578 242,-578 242,-538 242,-538 242,-532 248,-526 254,-526 254,-526 426,-526 426,-526 432,-526 438,-532 438,-538 438,-538 438,-578 438,-578 438,-584 432,-590 426,-590"/>
<text text-anchor="start" x="309.17" y="-576" font-family="arial" font-weight="bold" font-size="10.00" fill="#000000">Culm as CAM</text>
<text text-anchor="start" x="276.095" y="-559" font-family="arial" font-size="10.00" fill="#000000">If, in Devon, all the strata are</text>
<text text-anchor="start" x="254.1485" y="-547" font-family="arial" font-size="10.00" fill="#000000"> Cambrian in age, then the Culm strata</text>
<text text-anchor="start" x="268.595" y="-535" font-family="arial" font-size="10.00" fill="#000000"> are Cambrian in age, too #GRE</text>
</g>
<!-- n0&#45;&gt;n16 -->
<g id="edge11" class="edge">
<title>n0&#45;&gt;n16</title>
<path fill="none" stroke="#00ff00" d="M341.6516,-709.9496C341.3224,-679.6615 340.8263,-634.019 340.4637,-600.6634"/>
<polygon fill="#00ff00" stroke="#00ff00" points="343.9597,-600.2618 340.3511,-590.3004 336.9601,-600.3379 343.9597,-600.2618"/>
</g>
<!-- n7 -->
<g id="node10" class="node">
<title>n7</title>
<path fill="#ffffff" stroke="#ffc1c1" stroke-width="2" d="M646,-584C646,-584 474,-584 474,-584 468,-584 462,-578 462,-572 462,-572 462,-544 462,-544 462,-538 468,-532 474,-532 474,-532 646,-532 646,-532 652,-532 658,-538 658,-544 658,-544 658,-572 658,-572 658,-578 652,-584 646,-584"/>
<text text-anchor="start" x="503.6105" y="-570" font-family="arial" font-weight="bold" font-size="10.00" fill="#000000">Non&#45;Culm Strata as CAM</text>
<text text-anchor="start" x="484.7055" y="-553" font-family="arial" font-size="10.00" fill="#000000">In Devon, the non&#45;Culm strata are</text>
<text text-anchor="start" x="480.54" y="-541" font-family="arial" font-size="10.00" fill="#000000"> Cambrian in age #COA #chron&#45;hyp</text>
</g>
<!-- n0&#45;&gt;n7 -->
<g id="edge1" class="edge">
<title>n0&#45;&gt;n7</title>
<path fill="none" stroke="#00ff00" d="M379.9727,-709.9496C419.6573,-676.4544 481.5901,-624.1808 521.4784,-590.5136"/>
<polygon fill="#00ff00" stroke="#00ff00" points="523.7647,-593.164 529.149,-584.0394 519.2496,-587.8147 523.7647,-593.164"/>
</g>
<!-- n1 -->
<g id="node2" class="node">
<title>n1</title>
<path fill="#ffffff" stroke="#e7298a" stroke-width="2" d="M656,-86C656,-86 484,-86 484,-86 478,-86 472,-80 472,-74 472,-74 472,-34 472,-34 472,-28 478,-22 484,-22 484,-22 656,-22 656,-22 662,-22 668,-28 668,-34 668,-34 668,-74 668,-74 668,-80 662,-86 656,-86"/>
<text text-anchor="start" x="488.305" y="-72" font-family="arial" font-weight="bold" font-size="10.00" fill="#000000">Unbroken Sequence of Devon Strata</text>
<text text-anchor="start" x="493.3125" y="-55" font-family="arial" font-size="10.00" fill="#000000">In Devon, all the strata &#45; older than</text>
<text text-anchor="start" x="493.0355" y="-43" font-family="arial" font-size="10.00" fill="#000000"> the New Red Sandstone &#45; form an</text>
<text text-anchor="start" x="485.5205" y="-31" font-family="arial" font-size="10.00" fill="#000000"> unbroken sequence of strata #ev #E1</text>
</g>
<!-- n2 -->
<g id="node3" class="node">
<title>n2</title>
<path fill="#ffffff" stroke="#e7298a" stroke-width="2" d="M870,-80C870,-80 698,-80 698,-80 692,-80 686,-74 686,-68 686,-68 686,-40 686,-40 686,-34 692,-28 698,-28 698,-28 870,-28 870,-28 876,-28 882,-34 882,-40 882,-40 882,-68 882,-68 882,-74 876,-80 870,-80"/>
<text text-anchor="start" x="726.7755" y="-66" font-family="arial" font-weight="bold" font-size="10.00" fill="#000000">CM Plants in Devon Culm</text>
<text text-anchor="start" x="698.1475" y="-49" font-family="arial" font-size="10.00" fill="#000000">In Devon, the Culm strata contain Coal</text>
<text text-anchor="start" x="713.4275" y="-37" font-family="arial" font-size="10.00" fill="#000000"> Measures fossil plants #ev #E2</text>
</g>
<!-- n3 -->
<g id="node4" class="node">
<title>n3</title>
<path fill="#ffffff" stroke="#e7298a" stroke-width="2" d="M1302,-92C1302,-92 1130,-92 1130,-92 1124,-92 1118,-86 1118,-80 1118,-80 1118,-28 1118,-28 1118,-22 1124,-16 1130,-16 1130,-16 1302,-16 1302,-16 1308,-16 1314,-22 1314,-28 1314,-28 1314,-80 1314,-80 1314,-86 1308,-92 1302,-92"/>
<text text-anchor="start" x="1163.21" y="-78" font-family="arial" font-weight="bold" font-size="10.00" fill="#000000">Trough through Exmoor</text>
<text text-anchor="start" x="1138.206" y="-61" font-family="arial" font-size="10.00" fill="#000000">There is a trough through Exmoor &#45;</text>
<text text-anchor="start" x="1129.308" y="-49" font-family="arial" font-size="10.00" fill="#000000"> formed by a band of limestone running</text>
<text text-anchor="start" x="1137.362" y="-37" font-family="arial" font-size="10.00" fill="#000000"> out to the north coast at Ilfracombe</text>
<text text-anchor="start" x="1142.0795" y="-25" font-family="arial" font-size="10.00" fill="#000000"> and south of Barnstaple #ev #E3</text>
</g>
<!-- n4 -->
<g id="node5" class="node">
<title>n4</title>
<path fill="#ffffff" stroke="#e7298a" stroke-width="2" d="M1088,-86C1088,-86 912,-86 912,-86 906,-86 900,-80 900,-74 900,-74 900,-34 900,-34 900,-28 906,-22 912,-22 912,-22 1088,-22 1088,-22 1094,-22 1100,-28 1100,-34 1100,-34 1100,-74 1100,-74 1100,-80 1094,-86 1088,-86"/>
<text text-anchor="start" x="923.3105" y="-72" font-family="arial" font-weight="bold" font-size="10.00" fill="#000000">Instances of Coal in Ancient Strata</text>
<text text-anchor="start" x="909.9725" y="-55" font-family="arial" font-size="10.00" fill="#000000">In Munster and Pennsylvannia, there are</text>
<text text-anchor="start" x="910.2525" y="-43" font-family="arial" font-size="10.00" fill="#000000"> coal deposits in pre&#45;Old Red Sandstone</text>
<text text-anchor="start" x="966.3765" y="-31" font-family="arial" font-size="10.00" fill="#000000"> strata #ev #E4</text>
</g>
<!-- n5 -->
<g id="node6" class="node">
<title>n5</title>
<path fill="#ffffff" stroke="#f4a460" stroke-width="2" d="M205.5,-786C205.5,-786 28.5,-786 28.5,-786 22.5,-786 16.5,-780 16.5,-774 16.5,-774 16.5,-710 16.5,-710 16.5,-704 22.5,-698 28.5,-698 28.5,-698 205.5,-698 205.5,-698 211.5,-698 217.5,-704 217.5,-710 217.5,-710 217.5,-774 217.5,-774 217.5,-780 211.5,-786 205.5,-786"/>
<text text-anchor="start" x="54.418" y="-772" font-family="arial" font-weight="bold" font-size="10.00" fill="#000000">Gap in a Sequence of Strata</text>
<text text-anchor="start" x="35.8065" y="-755" font-family="arial" font-size="10.00" fill="#000000">There is a gap in a local sequence of</text>
<text text-anchor="start" x="61.6535" y="-743" font-family="arial" font-size="10.00" fill="#000000"> strata, iff there are strata</text>
<text text-anchor="start" x="35.523" y="-731" font-family="arial" font-size="10.00" fill="#000000"> juxtaposed belonging to different but</text>
<text text-anchor="start" x="26.6455" y="-719" font-family="arial" font-size="10.00" fill="#000000"> not successive geological periods #GRE</text>
<text text-anchor="start" x="107.7775" y="-707" font-family="arial" font-size="10.00" fill="#000000"> #pri</text>
</g>
<!-- n5&#45;&gt;n15 -->
<g id="edge12" class="edge">
<title>n5&#45;&gt;n15</title>
<path fill="none" stroke="#00ff00" d="M117.7186,-697.9274C118.1694,-670.2781 118.7508,-634.616 119.2139,-606.2144"/>
<polygon fill="#00ff00" stroke="#00ff00" points="122.7151,-606.1632 119.3787,-596.1075 115.716,-606.0491 122.7151,-606.1632"/>
</g>
<!-- n15&#45;&gt;n1 -->
<g id="edge6" class="edge">
<title>n15&#45;&gt;n1</title>
<path fill="none" stroke="#00ff00" d="M133.2364,-519.9091C150.6189,-473.3614 184.3703,-393.6887 230,-336 311.7186,-232.6849 436.8431,-141.0563 510.3363,-91.9439"/>
<polygon fill="#00ff00" stroke="#00ff00" points="512.6415,-94.6146 519.0365,-86.1674 508.7696,-88.7829 512.6415,-94.6146"/>
</g>
<!-- n6 -->
<g id="node8" class="node">
<title>n6</title>
<path fill="#ffffff" stroke="#f4a460" stroke-width="2" d="M426,-406C426,-406 254,-406 254,-406 248,-406 242,-400 242,-394 242,-394 242,-366 242,-366 242,-360 248,-354 254,-354 254,-354 426,-354 426,-354 432,-354 438,-360 438,-366 438,-366 438,-394 438,-394 438,-400 432,-406 426,-406"/>
<text text-anchor="start" x="309.17" y="-392" font-family="arial" font-weight="bold" font-size="10.00" fill="#000000">Culm as CAM</text>
<text text-anchor="start" x="252.767" y="-375" font-family="arial" font-size="10.00" fill="#000000">The whole Culm strata of Devonshire is</text>
<text text-anchor="start" x="260.54" y="-363" font-family="arial" font-size="10.00" fill="#000000"> Cambrian in age #GRE #chron&#45;hyp</text>
</g>
<!-- n18 -->
<g id="node16" class="node">
<title>n18</title>
<path fill="#f4a460" stroke="#000000" d="M874,-264C874,-264 694,-264 694,-264 688,-264 682,-258 682,-252 682,-252 682,-176 682,-176 682,-170 688,-164 694,-164 694,-164 874,-164 874,-164 880,-164 886,-170 886,-176 886,-176 886,-252 886,-252 886,-258 880,-264 874,-264"/>
<text text-anchor="start" x="738.1635" y="-250" font-family="arial" font-weight="bold" font-size="10.00" fill="#000000">Culm and CM Plants</text>
<text text-anchor="start" x="703.432" y="-233" font-family="arial" font-size="10.00" fill="#000000">If the Devon Culm strata are pre&#45;Old</text>
<text text-anchor="start" x="695.0735" y="-221" font-family="arial" font-size="10.00" fill="#000000"> Red Sandstone in age and there are no</text>
<text text-anchor="start" x="700.3765" y="-209" font-family="arial" font-size="10.00" fill="#000000"> Coal Measures plants in pre&#45;Old Red</text>
<text text-anchor="start" x="703.967" y="-197" font-family="arial" font-size="10.00" fill="#000000"> Sandstone strata, then there are no</text>
<text text-anchor="start" x="691.7625" y="-185" font-family="arial" font-size="10.00" fill="#000000"> Coal Measures plants in the Devon Culm</text>
<text text-anchor="start" x="753.716" y="-173" font-family="arial" font-size="10.00" fill="#000000"> strata &#160;#GRE</text>
</g>
<!-- n6&#45;&gt;n18 -->
<g id="edge13" class="edge">
<title>n6&#45;&gt;n18</title>
<path fill="none" stroke="#00ff00" d="M409.8634,-353.8799C480.2907,-327.549 590.0776,-286.5025 672.5419,-255.6713"/>
<polygon fill="#00ff00" stroke="#00ff00" points="673.8098,-258.9339 681.9508,-252.1535 671.3583,-252.3772 673.8098,-258.9339"/>
</g>
<!-- n16&#45;&gt;n6 -->
<g id="edge7" class="edge">
<title>n16&#45;&gt;n6</title>
<path fill="none" stroke="#00ff00" d="M340,-525.7655C340,-494.9821 340,-448.6487 340,-416.516"/>
<polygon fill="#00ff00" stroke="#00ff00" points="343.5001,-416.2062 340,-406.2062 336.5001,-416.2062 343.5001,-416.2062"/>
</g>
<!-- n8 -->
<g id="node11" class="node">
<title>n8</title>
<path fill="#ffffff" stroke="#f4a460" stroke-width="2" d="M1094,-768C1094,-768 922,-768 922,-768 916,-768 910,-762 910,-756 910,-756 910,-728 910,-728 910,-722 916,-716 922,-716 922,-716 1094,-716 1094,-716 1100,-716 1106,-722 1106,-728 1106,-728 1106,-756 1106,-756 1106,-762 1100,-768 1094,-768"/>
<text text-anchor="start" x="959.6555" y="-754" font-family="arial" font-weight="bold" font-size="10.00" fill="#000000">Coal in Ancient Strata</text>
<text text-anchor="start" x="921.8725" y="-737" font-family="arial" font-size="10.00" fill="#000000">There are coal deposits in pre&#45;Old Red</text>
<text text-anchor="start" x="944.0925" y="-725" font-family="arial" font-size="10.00" fill="#000000"> Sandstone strata #GRE #pri</text>
</g>
<!-- n17 -->
<g id="node13" class="node">
<title>n17</title>
<path fill="#f4a460" stroke="#000000" d="M1094,-602C1094,-602 922,-602 922,-602 916,-602 910,-596 910,-590 910,-590 910,-526 910,-526 910,-520 916,-514 922,-514 922,-514 1094,-514 1094,-514 1100,-514 1106,-520 1106,-526 1106,-526 1106,-590 1106,-590 1106,-596 1100,-602 1094,-602"/>
<text text-anchor="start" x="959.6555" y="-588" font-family="arial" font-weight="bold" font-size="10.00" fill="#000000">Coal in Ancient Strata</text>
<text text-anchor="start" x="941.0345" y="-571" font-family="arial" font-size="10.00" fill="#000000">If there are no coal deposits in</text>
<text text-anchor="start" x="927.1415" y="-559" font-family="arial" font-size="10.00" fill="#000000"> Pre&#45;Old Red Sandstone strata, then</text>
<text text-anchor="start" x="935.4755" y="-547" font-family="arial" font-size="10.00" fill="#000000"> there are no coal deposits in the</text>
<text text-anchor="start" x="934.645" y="-535" font-family="arial" font-size="10.00" fill="#000000"> pre&#45;Old Red Sandstone strata of</text>
<text text-anchor="start" x="929.9235" y="-523" font-family="arial" font-size="10.00" fill="#000000"> Munster and Pennsylvannia #GRE</text>
</g>
<!-- n8&#45;&gt;n17 -->
<g id="edge2" class="edge">
<title>n8&#45;&gt;n17</title>
<path fill="none" stroke="#ff0000" d="M1008,-715.6373C1008,-688.8011 1008,-646.4174 1008,-612.3541"/>
<polygon fill="#ff0000" stroke="#ff0000" points="1011.5001,-612.0762 1008,-602.0762 1004.5001,-612.0763 1011.5001,-612.0762"/>
</g>
<!-- n19 -->
<g id="node17" class="node">
<title>n19</title>
<path fill="#f4a460" stroke="#000000" d="M873,-620C873,-620 701,-620 701,-620 695,-620 689,-614 689,-608 689,-608 689,-508 689,-508 689,-502 695,-496 701,-496 701,-496 873,-496 873,-496 879,-496 885,-502 885,-508 885,-508 885,-608 885,-608 885,-614 879,-620 873,-620"/>
<text text-anchor="start" x="742.5485" y="-606" font-family="arial" font-weight="bold" font-size="10.00" fill="#000000">Coal and CM Plants</text>
<text text-anchor="start" x="707.263" y="-589" font-family="arial" font-size="10.00" fill="#000000">If the similarity between the floras of</text>
<text text-anchor="start" x="705.316" y="-577" font-family="arial" font-size="10.00" fill="#000000"> the Coal Measures and pre&#45;Old Red</text>
<text text-anchor="start" x="712.8095" y="-565" font-family="arial" font-size="10.00" fill="#000000"> Sandstone formations is the best</text>
<text text-anchor="start" x="705.8615" y="-553" font-family="arial" font-size="10.00" fill="#000000"> explanation for the existence of coal</text>
<text text-anchor="start" x="705.3105" y="-541" font-family="arial" font-size="10.00" fill="#000000"> deposists in pre&#45;Old Red Sandstone</text>
<text text-anchor="start" x="704.202" y="-529" font-family="arial" font-size="10.00" fill="#000000"> strata, then there are Coal Measures</text>
<text text-anchor="start" x="713.09" y="-517" font-family="arial" font-size="10.00" fill="#000000"> plants in pre&#45;Old Red Sandstone</text>
<text text-anchor="start" x="756.716" y="-505" font-family="arial" font-size="10.00" fill="#000000"> strata. #GRE</text>
</g>
<!-- n8&#45;&gt;n19 -->
<g id="edge14" class="edge">
<title>n8&#45;&gt;n19</title>
<path fill="none" stroke="#00ff00" d="M976.3361,-715.6373C948.4794,-692.4444 906.675,-657.6389 869.428,-626.6278"/>
<polygon fill="#00ff00" stroke="#00ff00" points="871.4803,-623.7822 861.5557,-620.0735 867.0014,-629.1618 871.4803,-623.7822"/>
</g>
<!-- n9 -->
<g id="node12" class="node">
<title>n9</title>
<path fill="#ffffff" stroke="#f4a460" stroke-width="2" d="M1312,-774C1312,-774 1136,-774 1136,-774 1130,-774 1124,-768 1124,-762 1124,-762 1124,-722 1124,-722 1124,-716 1130,-710 1136,-710 1136,-710 1312,-710 1312,-710 1318,-710 1324,-716 1324,-722 1324,-722 1324,-762 1324,-762 1324,-768 1318,-774 1312,-774"/>
<text text-anchor="start" x="1164.2565" y="-760" font-family="arial" font-weight="bold" font-size="10.00" fill="#000000">Instances of Ancient Strata</text>
<text text-anchor="start" x="1133.9725" y="-743" font-family="arial" font-size="10.00" fill="#000000">In Munster and Pennsylvannia, there are</text>
<text text-anchor="start" x="1141.201" y="-731" font-family="arial" font-size="10.00" fill="#000000"> pre&#45;Old Red Sandstone strata #GRE</text>
<text text-anchor="start" x="1197.6045" y="-719" font-family="arial" font-size="10.00" fill="#000000"> #chron&#45;hyp</text>
</g>
<!-- n9&#45;&gt;n17 -->
<g id="edge15" class="edge">
<title>n9&#45;&gt;n17</title>
<path fill="none" stroke="#00ff00" d="M1186.3757,-709.9496C1153.6511,-682.0731 1105.6577,-641.1899 1067.6942,-608.8506"/>
<polygon fill="#00ff00" stroke="#00ff00" points="1069.6366,-605.9075 1059.7545,-602.0872 1065.0974,-611.2363 1069.6366,-605.9075"/>
</g>
<!-- n17&#45;&gt;n4 -->
<g id="edge3" class="edge">
<title>n17&#45;&gt;n4</title>
<path fill="none" stroke="#ff0000" d="M1007.2971,-513.7151C1005.7701,-417.5159 1002.1673,-190.5397 1000.6704,-96.2325"/>
<polygon fill="#ff0000" stroke="#ff0000" points="1004.1695,-96.1429 1000.5111,-86.1998 997.1704,-96.2541 1004.1695,-96.1429"/>
</g>
<!-- n10 -->
<g id="node14" class="node">
<title>n10</title>
<path fill="#ffffff" stroke="#f4a460" stroke-width="2" d="M872,-412C872,-412 700,-412 700,-412 694,-412 688,-406 688,-400 688,-400 688,-360 688,-360 688,-354 694,-348 700,-348 700,-348 872,-348 872,-348 878,-348 884,-354 884,-360 884,-360 884,-400 884,-400 884,-406 878,-412 872,-412"/>
<text text-anchor="start" x="724.8775" y="-398" font-family="arial" font-weight="bold" font-size="10.00" fill="#000000">CM Plants in Ancient Strata</text>
<text text-anchor="start" x="699.863" y="-381" font-family="arial" font-size="10.00" fill="#000000">In pre&#45;Old Red Sandstone strata, there</text>
<text text-anchor="start" x="709.3215" y="-369" font-family="arial" font-size="10.00" fill="#000000"> are fossil plants similar to those of</text>
<text text-anchor="start" x="716.5435" y="-357" font-family="arial" font-size="10.00" fill="#000000"> the Coal Measures &#160;#GRE #pri</text>
</g>
<!-- n10&#45;&gt;n18 -->
<g id="edge4" class="edge">
<title>n10&#45;&gt;n18</title>
<path fill="none" stroke="#ff0000" d="M785.6144,-347.9935C785.363,-327.1266 785.027,-299.2388 784.7266,-274.3092"/>
<polygon fill="#ff0000" stroke="#ff0000" points="788.2251,-274.1567 784.6048,-264.1996 781.2256,-274.2411 788.2251,-274.1567"/>
</g>
<!-- n11 -->
<g id="node15" class="node">
<title>n11</title>
<path fill="#ffffff" stroke="#f4a460" stroke-width="2" d="M873,-792C873,-792 701,-792 701,-792 695,-792 689,-786 689,-780 689,-780 689,-704 689,-704 689,-698 695,-692 701,-692 701,-692 873,-692 873,-692 879,-692 885,-698 885,-704 885,-704 885,-780 885,-780 885,-786 879,-792 873,-792"/>
<text text-anchor="start" x="704.492" y="-778" font-family="arial" font-weight="bold" font-size="10.00" fill="#000000">Flora Similarities as Best Explanation</text>
<text text-anchor="start" x="704.191" y="-761" font-family="arial" font-size="10.00" fill="#000000">The best explanation of the existence</text>
<text text-anchor="start" x="719.484" y="-749" font-family="arial" font-size="10.00" fill="#000000"> of coal in some strata G is the</text>
<text text-anchor="start" x="707.827" y="-737" font-family="arial" font-size="10.00" fill="#000000"> similarity between G&#39;s flora and the</text>
<text text-anchor="start" x="706.7015" y="-725" font-family="arial" font-size="10.00" fill="#000000"> one of the Coal Measures (the Coal</text>
<text text-anchor="start" x="707.8065" y="-713" font-family="arial" font-size="10.00" fill="#000000"> Measures being noted for the great</text>
<text text-anchor="start" x="705.3105" y="-701" font-family="arial" font-size="10.00" fill="#000000"> amounts of coal they contain) #GRE</text>
</g>
<!-- n11&#45;&gt;n19 -->
<g id="edge16" class="edge">
<title>n11&#45;&gt;n19</title>
<path fill="none" stroke="#00ff00" d="M787,-691.7212C787,-672.7879 787,-650.8637 787,-630.3142"/>
<polygon fill="#00ff00" stroke="#00ff00" points="790.5001,-630.0375 787,-620.0375 783.5001,-630.0375 790.5001,-630.0375"/>
</g>
<!-- n18&#45;&gt;n2 -->
<g id="edge5" class="edge">
<title>n18&#45;&gt;n2</title>
<path fill="none" stroke="#ff0000" d="M784,-163.814C784,-140.029 784,-112.141 784,-90.421"/>
<polygon fill="#ff0000" stroke="#ff0000" points="787.5001,-90.2989 784,-80.2989 780.5001,-90.299 787.5001,-90.2989"/>
</g>
<!-- n19&#45;&gt;n10 -->
<g id="edge8" class="edge">
<title>n19&#45;&gt;n10</title>
<path fill="none" stroke="#00ff00" d="M786.6502,-495.7442C786.5147,-471.6206 786.363,-444.6071 786.2402,-422.7482"/>
<polygon fill="#00ff00" stroke="#00ff00" points="789.7386,-422.447 786.1824,-412.4668 782.7387,-422.4864 789.7386,-422.447"/>
</g>
<!-- n12 -->
<g id="node18" class="node">
<title>n12</title>
<path fill="#ffffff" stroke="#f4a460" stroke-width="2" d="M1644,-424C1644,-424 1472,-424 1472,-424 1466,-424 1460,-418 1460,-412 1460,-412 1460,-348 1460,-348 1460,-342 1466,-336 1472,-336 1472,-336 1644,-336 1644,-336 1650,-336 1656,-342 1656,-348 1656,-348 1656,-412 1656,-412 1656,-418 1650,-424 1644,-424"/>
<text text-anchor="start" x="1516.049" y="-410" font-family="arial" font-weight="bold" font-size="10.00" fill="#000000">Formation of strata</text>
<text text-anchor="start" x="1486.606" y="-393" font-family="arial" font-size="10.00" fill="#000000">Strata are originally formed from</text>
<text text-anchor="start" x="1475.4775" y="-381" font-family="arial" font-size="10.00" fill="#000000"> sediments that were deposited in flat</text>
<text text-anchor="start" x="1487.979" y="-369" font-family="arial" font-size="10.00" fill="#000000"> horizontal sheets &#45; the younger</text>
<text text-anchor="start" x="1477.6955" y="-357" font-family="arial" font-size="10.00" fill="#000000"> sediments deposited on older ones.</text>
<text text-anchor="start" x="1533.275" y="-345" font-family="arial" font-size="10.00" fill="#000000"> #GRE #pri</text>
</g>
<!-- n20 -->
<g id="node21" class="node">
<title>n20</title>
<path fill="#f4a460" stroke="#000000" d="M1366,-258C1366,-258 1194,-258 1194,-258 1188,-258 1182,-252 1182,-246 1182,-246 1182,-182 1182,-182 1182,-176 1188,-170 1194,-170 1194,-170 1366,-170 1366,-170 1372,-170 1378,-176 1378,-182 1378,-182 1378,-246 1378,-246 1378,-252 1372,-258 1366,-258"/>
<text text-anchor="start" x="1204.9845" y="-244" font-family="arial" font-weight="bold" font-size="10.00" fill="#000000">Trough through Exmoor &#45; GRE.1a</text>
<text text-anchor="start" x="1200.537" y="-227" font-family="arial" font-size="10.00" fill="#000000">If originally younger strata rest upon</text>
<text text-anchor="start" x="1199.1415" y="-215" font-family="arial" font-size="10.00" fill="#000000"> older ones and the strata of Exmoor</text>
<text text-anchor="start" x="1195.532" y="-203" font-family="arial" font-size="10.00" fill="#000000"> are sandwiched between older strata,</text>
<text text-anchor="start" x="1196.3625" y="-191" font-family="arial" font-size="10.00" fill="#000000"> then the strata of Exmoor are located</text>
<text text-anchor="start" x="1238.599" y="-179" font-family="arial" font-size="10.00" fill="#000000"> in a trough &#160;#GRE</text>
</g>
<!-- n12&#45;&gt;n20 -->
<g id="edge17" class="edge">
<title>n12&#45;&gt;n20</title>
<path fill="none" stroke="#00ff00" d="M1484.231,-335.9509C1446.8442,-313.6264 1401.315,-286.4399 1362.7402,-263.406"/>
<polygon fill="#00ff00" stroke="#00ff00" points="1364.494,-260.3768 1354.1138,-258.255 1360.9052,-266.3868 1364.494,-260.3768"/>
</g>
<!-- n13 -->
<g id="node19" class="node">
<title>n13</title>
<path fill="#ffffff" stroke="#f4a460" stroke-width="2" d="M1430,-418C1430,-418 1258,-418 1258,-418 1252,-418 1246,-412 1246,-406 1246,-406 1246,-354 1246,-354 1246,-348 1252,-342 1258,-342 1258,-342 1430,-342 1430,-342 1436,-342 1442,-348 1442,-354 1442,-354 1442,-406 1442,-406 1442,-412 1436,-418 1430,-418"/>
<text text-anchor="start" x="1305.9385" y="-404" font-family="arial" font-weight="bold" font-size="10.00" fill="#000000">Definition Trough</text>
<text text-anchor="start" x="1277.586" y="-387" font-family="arial" font-size="10.00" fill="#000000">Iff the strata are folded into an</text>
<text text-anchor="start" x="1263.4305" y="-375" font-family="arial" font-size="10.00" fill="#000000"> archlike form, with the concave side</text>
<text text-anchor="start" x="1256.753" y="-363" font-family="arial" font-size="10.00" fill="#000000"> upward, then they form a trough #GRE</text>
<text text-anchor="start" x="1334.2775" y="-351" font-family="arial" font-size="10.00" fill="#000000"> #pri</text>
</g>
<!-- n13&#45;&gt;n20 -->
<g id="edge18" class="edge">
<title>n13&#45;&gt;n20</title>
<path fill="none" stroke="#00ff00" d="M1329.3171,-341.9162C1320.8138,-319.8609 1309.9761,-291.7504 1300.6271,-267.5014"/>
<polygon fill="#00ff00" stroke="#00ff00" points="1303.8547,-266.1436 1296.9916,-258.0721 1297.3233,-268.6617 1303.8547,-266.1436"/>
</g>
<!-- n14 -->
<g id="node20" class="node">
<title>n14</title>
<path fill="#ffffff" stroke="#f4a460" stroke-width="2" d="M1216,-418C1216,-418 1040,-418 1040,-418 1034,-418 1028,-412 1028,-406 1028,-406 1028,-354 1028,-354 1028,-348 1034,-342 1040,-342 1040,-342 1216,-342 1216,-342 1222,-342 1228,-348 1228,-354 1228,-354 1228,-406 1228,-406 1228,-412 1222,-418 1216,-418"/>
<text text-anchor="start" x="1051.8685" y="-404" font-family="arial" font-weight="bold" font-size="10.00" fill="#000000">Exmoor Youngest Devonian strata</text>
<text text-anchor="start" x="1048.812" y="-387" font-family="arial" font-size="10.00" fill="#000000">In Devon, among all the strata older</text>
<text text-anchor="start" x="1037.6885" y="-375" font-family="arial" font-size="10.00" fill="#000000"> than the New Red Sandstone, the strata</text>
<text text-anchor="start" x="1050.1995" y="-363" font-family="arial" font-size="10.00" fill="#000000"> of Exmoor are the youngest #GRE</text>
<text text-anchor="start" x="1101.6045" y="-351" font-family="arial" font-size="10.00" fill="#000000"> #chron&#45;hyp</text>
</g>
<!-- n14&#45;&gt;n20 -->
<g id="edge19" class="edge">
<title>n14&#45;&gt;n20</title>
<path fill="none" stroke="#00ff00" d="M1162.8719,-341.9162C1183.6033,-319.2754 1210.1775,-290.2535 1232.7715,-265.5784"/>
<polygon fill="#00ff00" stroke="#00ff00" points="1235.4729,-267.811 1239.6448,-258.0721 1230.3102,-263.0837 1235.4729,-267.811"/>
</g>
<!-- n20&#45;&gt;n3 -->
<g id="edge9" class="edge">
<title>n20&#45;&gt;n3</title>
<path fill="none" stroke="#00ff00" d="M1262.3423,-169.8558C1253.8336,-148.5841 1243.6192,-123.048 1234.9479,-101.3698"/>
<polygon fill="#00ff00" stroke="#00ff00" points="1238.1739,-100.0104 1231.2102,-92.0255 1231.6745,-102.6102 1238.1739,-100.0104"/>
</g>
</g>
</svg>
