
<!-- Generated by graphviz version 2.40.1 (20161225.0304)
 -->
<!-- Title: Argument Map Pages: 1 -->
<svg width="720pt" height="408pt"
 viewBox="0.00 0.00 720.00 408.22" xmlns="http://www.w3.org/2000/svg" xmlns:xlink="http://www.w3.org/1999/xlink">
<g id="graph0" class="graph" transform="scale(.5244 .5244) rotate(0) translate(4 774.4)">
<title>Argument Map</title>
<g id="clust1" class="cluster">
<title>cluster_1</title>
<polygon fill="#ffff00" stroke="#ffff00" points="8,-144 8,-246.4 434,-246.4 434,-144 8,-144"/>
<text text-anchor="start" x="196.3256" y="-231.6" font-family="arial" font-size="12.00" fill="#000000">Evidence</text>
</g>
<g id="clust2" class="cluster">
<title>cluster_2</title>
<polygon fill="#9fb6cd" stroke="#9fb6cd" points="442,-8 442,-614.8 1337,-614.8 1337,-8 442,-8"/>
<text text-anchor="start" x="867.1614" y="-600" font-family="arial" font-size="12.00" fill="#000000">Aporia II</text>
</g>
<g id="clust3" class="cluster">
<title>cluster_3</title>
<polygon fill="#c6e2ff" stroke="#c6e2ff" points="670,-298 670,-584.4 888,-584.4 888,-298 670,-298"/>
<text text-anchor="start" x="731.3336" y="-569.6" font-family="arial" font-size="12.00" fill="#000000">Dating Main Culm</text>
</g>
<g id="clust4" class="cluster">
<title>cluster_4</title>
<polygon fill="#c6e2ff" stroke="#c6e2ff" points="450,-292 450,-584.4 662,-584.4 662,-292 450,-292"/>
<text text-anchor="start" x="510.001" y="-569.6" font-family="arial" font-size="12.00" fill="#000000">Dating Non&#45;Culm</text>
</g>
<g id="clust5" class="cluster">
<title>cluster_5</title>
<polygon fill="#ffff00" stroke="#ffff00" points="222,-494 222,-762.4 434,-762.4 434,-494 222,-494"/>
<text text-anchor="start" x="320.0032" y="-747.6" font-family="arial" font-size="12.00" fill="#000000">FC</text>
</g>
<!-- n0 -->
<g id="node1" class="node">
<title>n0</title>
<path fill="#ffffff" stroke="#ffff00" stroke-width="2" d="M414,-210C414,-210 242,-210 242,-210 236,-210 230,-204 230,-198 230,-198 230,-170 230,-170 230,-164 236,-158 242,-158 242,-158 414,-158 414,-158 420,-158 426,-164 426,-170 426,-170 426,-198 426,-198 426,-204 420,-210 414,-210"/>
<text text-anchor="start" x="270.7755" y="-196" font-family="arial" font-weight="bold" font-size="10.00" fill="#000000">CM Plants in Devon Culm</text>
<text text-anchor="start" x="242.1475" y="-179" font-family="arial" font-size="10.00" fill="#000000">In Devon, the Culm strata contain Coal</text>
<text text-anchor="start" x="257.4275" y="-167" font-family="arial" font-size="10.00" fill="#000000"> Measures fossil plants #ev #E2</text>
</g>
<!-- n1 -->
<g id="node2" class="node">
<title>n1</title>
<path fill="#ffffff" stroke="#ffff00" stroke-width="2" d="M200,-216C200,-216 28,-216 28,-216 22,-216 16,-210 16,-204 16,-204 16,-164 16,-164 16,-158 22,-152 28,-152 28,-152 200,-152 200,-152 206,-152 212,-158 212,-164 212,-164 212,-204 212,-204 212,-210 206,-216 200,-216"/>
<text text-anchor="start" x="56.216" y="-202" font-family="arial" font-weight="bold" font-size="10.00" fill="#000000">CM Plants in North Devon</text>
<text text-anchor="start" x="34.5365" y="-185" font-family="arial" font-size="10.00" fill="#000000">In north Devon, the non&#45;Culm strata</text>
<text text-anchor="start" x="48.1635" y="-173" font-family="arial" font-size="10.00" fill="#000000"> contain fossils similar to Coal</text>
<text text-anchor="start" x="53.4255" y="-161" font-family="arial" font-size="10.00" fill="#000000"> Measures plants #ev #E14</text>
</g>
<!-- n2 -->
<g id="node3" class="node">
<title>n2</title>
<path fill="#ffffff" stroke="#f4a460" stroke-width="2" d="M1317,-80C1317,-80 1145,-80 1145,-80 1139,-80 1133,-74 1133,-68 1133,-68 1133,-28 1133,-28 1133,-22 1139,-16 1145,-16 1145,-16 1317,-16 1317,-16 1323,-16 1329,-22 1329,-28 1329,-28 1329,-68 1329,-68 1329,-74 1323,-80 1317,-80"/>
<text text-anchor="start" x="1169.8775" y="-66" font-family="arial" font-weight="bold" font-size="10.00" fill="#000000">CM Plants in Ancient Strata</text>
<text text-anchor="start" x="1144.863" y="-49" font-family="arial" font-size="10.00" fill="#000000">In pre&#45;Old Red Sandstone strata, there</text>
<text text-anchor="start" x="1154.3215" y="-37" font-family="arial" font-size="10.00" fill="#000000"> are fossil plants similar to those of</text>
<text text-anchor="start" x="1171.266" y="-25" font-family="arial" font-size="10.00" fill="#000000"> the Coal Measures &#160;#GRE</text>
</g>
<!-- n3 -->
<g id="node4" class="node">
<title>n3</title>
<path fill="#ffffff" stroke="#ffc1c1" stroke-width="2" d="M1204,-572C1204,-572 1032,-572 1032,-572 1026,-572 1020,-566 1020,-560 1020,-560 1020,-496 1020,-496 1020,-490 1026,-484 1032,-484 1032,-484 1204,-484 1204,-484 1210,-484 1216,-490 1216,-496 1216,-496 1216,-560 1216,-560 1216,-566 1210,-572 1204,-572"/>
<text text-anchor="start" x="1077.998" y="-558" font-family="arial" font-weight="bold" font-size="10.00" fill="#000000">Lyellian Principals</text>
<text text-anchor="start" x="1047.43" y="-541" font-family="arial" font-size="10.00" fill="#000000">At the earth&#39;s surface, there is a</text>
<text text-anchor="start" x="1033.8015" y="-529" font-family="arial" font-size="10.00" fill="#000000"> constant but piecemeal change in the</text>
<text text-anchor="start" x="1036.3065" y="-517" font-family="arial" font-size="10.00" fill="#000000"> composition of the faunas and floras</text>
<text text-anchor="start" x="1042.991" y="-505" font-family="arial" font-size="10.00" fill="#000000"> (in correlation with ever&#45;changing</text>
<text text-anchor="start" x="1050.4915" y="-493" font-family="arial" font-size="10.00" fill="#000000"> physical environments) #COA</text>
</g>
<!-- n9 -->
<g id="node7" class="node">
<title>n9</title>
<path fill="#ffc1c1" stroke="#000000" d="M1317,-412C1317,-412 1145,-412 1145,-412 1139,-412 1133,-406 1133,-400 1133,-400 1133,-300 1133,-300 1133,-294 1139,-288 1145,-288 1145,-288 1317,-288 1317,-288 1323,-288 1329,-294 1329,-300 1329,-300 1329,-400 1329,-400 1329,-406 1323,-412 1317,-412"/>
<text text-anchor="start" x="1176.2635" y="-398" font-family="arial" font-weight="bold" font-size="10.00" fill="#000000">Assemblages of Species</text>
<text text-anchor="start" x="1156.556" y="-381" font-family="arial" font-size="10.00" fill="#000000">From Lyellian principals, it follows</text>
<text text-anchor="start" x="1154.601" y="-369" font-family="arial" font-size="10.00" fill="#000000"> that while particular species might</text>
<text text-anchor="start" x="1166.8135" y="-357" font-family="arial" font-size="10.00" fill="#000000"> have long ranges in time, an</text>
<text text-anchor="start" x="1144.5845" y="-345" font-family="arial" font-size="10.00" fill="#000000"> assemblage of many species does not</text>
<text text-anchor="start" x="1145.9735" y="-333" font-family="arial" font-size="10.00" fill="#000000"> remain unchanged for long; therefore,</text>
<text text-anchor="start" x="1153.206" y="-321" font-family="arial" font-size="10.00" fill="#000000"> two formations deposited at widely</text>
<text text-anchor="start" x="1154.865" y="-309" font-family="arial" font-size="10.00" fill="#000000"> separated periods have few if any</text>
<text text-anchor="start" x="1171.8245" y="-297" font-family="arial" font-size="10.00" fill="#000000"> species in common #COA</text>
</g>
<!-- n3&#45;&gt;n9 -->
<g id="edge9" class="edge">
<title>n3&#45;&gt;n9</title>
<path fill="none" stroke="#00ff00" d="M1145.9326,-484C1157.9955,-464.9983 1172.416,-442.2828 1185.9267,-421.0004"/>
<polygon fill="#00ff00" stroke="#00ff00" points="1189.0461,-422.6171 1191.4508,-412.2987 1183.1363,-418.8654 1189.0461,-422.6171"/>
</g>
<!-- n10 -->
<g id="node8" class="node">
<title>n10</title>
<path fill="#eedd82" stroke="#000000" d="M1102.5,-388C1102.5,-388 909.5,-388 909.5,-388 903.5,-388 897.5,-382 897.5,-376 897.5,-376 897.5,-324 897.5,-324 897.5,-318 903.5,-312 909.5,-312 909.5,-312 1102.5,-312 1102.5,-312 1108.5,-312 1114.5,-318 1114.5,-324 1114.5,-324 1114.5,-376 1114.5,-376 1114.5,-382 1108.5,-388 1102.5,-388"/>
<text text-anchor="start" x="957.8845" y="-374" font-family="arial" font-weight="bold" font-size="10.00" fill="#000000">Zoological Transitions</text>
<text text-anchor="start" x="928.976" y="-357" font-family="arial" font-size="10.00" fill="#000000">If there is a constant but piecemeal</text>
<text text-anchor="start" x="929.802" y="-345" font-family="arial" font-size="10.00" fill="#000000"> faunal change, then there are true</text>
<text text-anchor="start" x="938.989" y="-333" font-family="arial" font-size="10.00" fill="#000000"> zoological transitions from the</text>
<text text-anchor="start" x="907.864" y="-321" font-family="arial" font-size="10.00" fill="#000000"> Cambrian to the New Red Sandstone #DEV</text>
</g>
<!-- n3&#45;&gt;n10 -->
<g id="edge10" class="edge">
<title>n3&#45;&gt;n10</title>
<path fill="none" stroke="#00ff00" d="M1090.3146,-484C1073.5973,-457.4314 1052.3115,-423.6022 1035.3099,-396.5818"/>
<polygon fill="#00ff00" stroke="#00ff00" points="1038.2397,-394.666 1029.9517,-388.066 1032.3149,-398.3939 1038.2397,-394.666"/>
</g>
<!-- n4 -->
<g id="node5" class="node">
<title>n4</title>
<path fill="#ffffff" stroke="#ffc1c1" stroke-width="2" d="M1317,-216C1317,-216 1145,-216 1145,-216 1139,-216 1133,-210 1133,-204 1133,-204 1133,-164 1133,-164 1133,-158 1139,-152 1145,-152 1145,-152 1317,-152 1317,-152 1323,-152 1329,-158 1329,-164 1329,-164 1329,-204 1329,-204 1329,-210 1323,-216 1317,-216"/>
<text text-anchor="start" x="1191.551" y="-202" font-family="arial" font-weight="bold" font-size="10.00" fill="#000000">Common Species</text>
<text text-anchor="start" x="1152.9305" y="-185" font-family="arial" font-size="10.00" fill="#000000">Two formations deposited at widely</text>
<text text-anchor="start" x="1154.865" y="-173" font-family="arial" font-size="10.00" fill="#000000"> separated periods have few if any</text>
<text text-anchor="start" x="1171.8245" y="-161" font-family="arial" font-size="10.00" fill="#000000"> species in common #COA</text>
</g>
<!-- n4&#45;&gt;n2 -->
<g id="edge1" class="edge">
<title>n4&#45;&gt;n2</title>
<path fill="none" stroke="#ff0000" d="M1231,-139.5979C1231,-124.5412 1231,-107.7224 1231,-92.6467"/>
<polygon fill="#ff0000" stroke="#ff0000" points="1231.0001,-139.7699 1235,-145.7699 1231,-151.7699 1227,-145.7699 1231.0001,-139.7699"/>
<polygon fill="#ff0000" stroke="#ff0000" points="1231.0001,-92.4701 1227,-86.4701 1231,-80.4701 1235,-86.47 1231.0001,-92.4701"/>
</g>
<!-- n13 -->
<g id="node14" class="node">
<title>n13</title>
<path fill="#ffc1c1" stroke="#000000" d="M414,-732C414,-732 242,-732 242,-732 236,-732 230,-726 230,-720 230,-720 230,-656 230,-656 230,-650 236,-644 242,-644 242,-644 414,-644 414,-644 420,-644 426,-650 426,-656 426,-656 426,-720 426,-720 426,-726 420,-732 414,-732"/>
<text text-anchor="start" x="244.1055" y="-718" font-family="arial" font-weight="bold" font-size="10.00" fill="#000000">Fossil Criterion and Common Species</text>
<text text-anchor="start" x="247.427" y="-701" font-family="arial" font-size="10.00" fill="#000000">If two formations deposited at widely</text>
<text text-anchor="start" x="251.865" y="-689" font-family="arial" font-size="10.00" fill="#000000"> separated periods have few if any</text>
<text text-anchor="start" x="241.031" y="-677" font-family="arial" font-size="10.00" fill="#000000"> species in common, then strata can be</text>
<text text-anchor="start" x="243.533" y="-665" font-family="arial" font-size="10.00" fill="#000000"> identified by means of their imbedded</text>
<text text-anchor="start" x="297.72" y="-653" font-family="arial" font-size="10.00" fill="#000000"> fossils #COA</text>
</g>
<!-- n4&#45;&gt;n13 -->
<g id="edge11" class="edge">
<title>n4&#45;&gt;n13</title>
<path fill="none" stroke="#00ff00" d="M1278.7054,-216.173C1301.2276,-234.3136 1325.7991,-259.1266 1338,-288 1397.8194,-429.5622 1354.2246,-531.6181 1225,-614.8 1160.0612,-656.6011 660.4014,-677.4965 436.2327,-684.8447"/>
<polygon fill="#00ff00" stroke="#00ff00" points="435.9756,-681.3511 426.0945,-685.1739 436.2029,-688.3474 435.9756,-681.3511"/>
</g>
<!-- n5 -->
<g id="node6" class="node">
<title>n5</title>
<path fill="#ffffff" stroke="#eedd82" stroke-width="2" d="M1092,-216C1092,-216 920,-216 920,-216 914,-216 908,-210 908,-204 908,-204 908,-164 908,-164 908,-158 914,-152 920,-152 920,-152 1092,-152 1092,-152 1098,-152 1104,-158 1104,-164 1104,-164 1104,-204 1104,-204 1104,-210 1098,-216 1092,-216"/>
<text text-anchor="start" x="957.3845" y="-202" font-family="arial" font-weight="bold" font-size="10.00" fill="#000000">Zoological Transitions</text>
<text text-anchor="start" x="924.0415" y="-185" font-family="arial" font-size="10.00" fill="#000000">There are true zoological transistions</text>
<text text-anchor="start" x="919.324" y="-173" font-family="arial" font-size="10.00" fill="#000000"> all the way from the lower Cambrian to</text>
<text text-anchor="start" x="934.5885" y="-161" font-family="arial" font-size="10.00" fill="#000000"> the New Red Sandstone #DEV </text>
</g>
<!-- n9&#45;&gt;n4 -->
<g id="edge6" class="edge">
<title>n9&#45;&gt;n4</title>
<path fill="none" stroke="#00ff00" d="M1231,-287.7154C1231,-267.3177 1231,-245.1367 1231,-226.5421"/>
<polygon fill="#00ff00" stroke="#00ff00" points="1234.5001,-226.3327 1231,-216.3327 1227.5001,-226.3327 1234.5001,-226.3327"/>
</g>
<!-- n10&#45;&gt;n5 -->
<g id="edge7" class="edge">
<title>n10&#45;&gt;n5</title>
<path fill="none" stroke="#00ff00" d="M1006,-311.9162C1006,-286.3118 1006,-252.5465 1006,-226.1363"/>
<polygon fill="#00ff00" stroke="#00ff00" points="1009.5001,-226.0441 1006,-216.0441 1002.5001,-226.0441 1009.5001,-226.0441"/>
</g>
<!-- n6 -->
<g id="node9" class="node">
<title>n6</title>
<path fill="#ffffff" stroke="#ffe4b5" stroke-width="2" d="M868,-554C868,-554 690,-554 690,-554 684,-554 678,-548 678,-542 678,-542 678,-514 678,-514 678,-508 684,-502 690,-502 690,-502 868,-502 868,-502 874,-502 880,-508 880,-514 880,-514 880,-542 880,-542 880,-548 874,-554 868,-554"/>
<text text-anchor="start" x="724.8345" y="-540" font-family="arial" font-weight="bold" font-size="10.00" fill="#000000">Some Main Culm as CM</text>
<text text-anchor="start" x="687.599" y="-523" font-family="arial" font-size="10.00" fill="#000000">Some part of the main Culm is CM in age</text>
<text text-anchor="start" x="742.882" y="-511" font-family="arial" font-size="10.00" fill="#000000"> #pri #chron&#45;hyp</text>
</g>
<!-- n11 -->
<g id="node10" class="node">
<title>n11</title>
<path fill="#ffc1c1" stroke="#000000" d="M867.5,-394C867.5,-394 690.5,-394 690.5,-394 684.5,-394 678.5,-388 678.5,-382 678.5,-382 678.5,-318 678.5,-318 678.5,-312 684.5,-306 690.5,-306 690.5,-306 867.5,-306 867.5,-306 873.5,-306 879.5,-312 879.5,-318 879.5,-318 879.5,-382 879.5,-382 879.5,-388 873.5,-394 867.5,-394"/>
<text text-anchor="start" x="739.782" y="-380" font-family="arial" font-weight="bold" font-size="10.00" fill="#000000">Main Culm as CM</text>
<text text-anchor="start" x="696.4175" y="-363" font-family="arial" font-size="10.00" fill="#000000">If strata can be identified by means of</text>
<text text-anchor="start" x="695.8625" y="-351" font-family="arial" font-size="10.00" fill="#000000"> their embedded fossils and no part of</text>
<text text-anchor="start" x="691.992" y="-339" font-family="arial" font-size="10.00" fill="#000000"> the main Culm strata is Coal Measures</text>
<text text-anchor="start" x="697.533" y="-327" font-family="arial" font-size="10.00" fill="#000000"> in age, then the main Culm strata do</text>
<text text-anchor="start" x="688.922" y="-315" font-family="arial" font-size="10.00" fill="#000000"> not contain Coal Measures plants #COA</text>
</g>
<!-- n6&#45;&gt;n11 -->
<g id="edge2" class="edge">
<title>n6&#45;&gt;n11</title>
<path fill="none" stroke="#ff0000" d="M779,-501.7355C779,-476.2549 779,-436.8155 779,-404.5322"/>
<polygon fill="#ff0000" stroke="#ff0000" points="782.5001,-404.3288 779,-394.3289 775.5001,-404.3289 782.5001,-404.3288"/>
</g>
<!-- n11&#45;&gt;n0 -->
<g id="edge3" class="edge">
<title>n11&#45;&gt;n0</title>
<path fill="none" stroke="#ff0000" d="M706.7381,-305.9304C693.5222,-299.1602 679.6014,-292.8289 666,-288 568.9299,-253.5374 534.8233,-281.5502 438,-246.4 416.353,-238.5414 393.9786,-226.6473 375.1068,-215.3438"/>
<polygon fill="#ff0000" stroke="#ff0000" points="376.7789,-212.2638 366.4209,-210.0361 373.1289,-218.2369 376.7789,-212.2638"/>
</g>
<!-- n8 -->
<g id="node11" class="node">
<title>n8</title>
<path fill="#ffffff" stroke="#eedd82" stroke-width="2" d="M642,-554C642,-554 470,-554 470,-554 464,-554 458,-548 458,-542 458,-542 458,-514 458,-514 458,-508 464,-502 470,-502 470,-502 642,-502 642,-502 648,-502 654,-508 654,-514 654,-514 654,-542 654,-542 654,-548 648,-554 642,-554"/>
<text text-anchor="start" x="510.4385" y="-540" font-family="arial" font-weight="bold" font-size="10.00" fill="#000000">ORS in North Devon</text>
<text text-anchor="start" x="471.2615" y="-523" font-family="arial" font-size="10.00" fill="#000000">In north Devon, some non&#45;Culm strata</text>
<text text-anchor="start" x="479.3145" y="-511" font-family="arial" font-size="10.00" fill="#000000"> are ORS in age #DEV #chron&#45;hyp</text>
</g>
<!-- n12 -->
<g id="node12" class="node">
<title>n12</title>
<path fill="#eedd82" stroke="#000000" d="M642,-400C642,-400 470,-400 470,-400 464,-400 458,-394 458,-388 458,-388 458,-312 458,-312 458,-306 464,-300 470,-300 470,-300 642,-300 642,-300 648,-300 654,-306 654,-312 654,-312 654,-388 654,-388 654,-394 648,-400 642,-400"/>
<text text-anchor="start" x="471.8265" y="-386" font-family="arial" font-weight="bold" font-size="10.00" fill="#000000">ORS Non&#45;Culm Strata in North Devon</text>
<text text-anchor="start" x="472.9175" y="-369" font-family="arial" font-size="10.00" fill="#000000">If strata can be identified by means of</text>
<text text-anchor="start" x="470.977" y="-357" font-family="arial" font-size="10.00" fill="#000000"> their embedded fossil and some north</text>
<text text-anchor="start" x="470.4275" y="-345" font-family="arial" font-size="10.00" fill="#000000"> Devonian non&#45;Culm strata are not Old</text>
<text text-anchor="start" x="471.243" y="-333" font-family="arial" font-size="10.00" fill="#000000"> Red Sandstone in age, then there are</text>
<text text-anchor="start" x="477.385" y="-321" font-family="arial" font-size="10.00" fill="#000000"> no fossils similar to Coal Measures</text>
<text text-anchor="start" x="492.9275" y="-309" font-family="arial" font-size="10.00" fill="#000000"> plants in north Devon #DEV</text>
</g>
<!-- n8&#45;&gt;n12 -->
<g id="edge4" class="edge">
<title>n8&#45;&gt;n12</title>
<path fill="none" stroke="#ff0000" d="M556,-501.7355C556,-477.8422 556,-441.6751 556,-410.6438"/>
<polygon fill="#ff0000" stroke="#ff0000" points="559.5001,-410.3421 556,-400.3422 552.5001,-410.3422 559.5001,-410.3421"/>
</g>
<!-- n12&#45;&gt;n1 -->
<g id="edge5" class="edge">
<title>n12&#45;&gt;n1</title>
<path fill="none" stroke="#ff0000" d="M457.8508,-325.9928C389.9156,-307.8549 298.1941,-280.3133 221,-246.4 204.7887,-239.278 187.9364,-230.282 172.5326,-221.3543"/>
<polygon fill="#ff0000" stroke="#ff0000" points="174.039,-218.1796 163.6462,-216.1204 170.4865,-224.2112 174.039,-218.1796"/>
</g>
<!-- n7 -->
<g id="node13" class="node">
<title>n7</title>
<path fill="#ffffff" stroke="#ffc1c1" stroke-width="2" d="M414,-554C414,-554 242,-554 242,-554 236,-554 230,-548 230,-542 230,-542 230,-514 230,-514 230,-508 236,-502 242,-502 242,-502 414,-502 414,-502 420,-502 426,-508 426,-514 426,-514 426,-542 426,-542 426,-548 420,-554 414,-554"/>
<text text-anchor="start" x="294.672" y="-540" font-family="arial" font-weight="bold" font-size="10.00" fill="#000000">Fossil Criterion</text>
<text text-anchor="start" x="248.2515" y="-523" font-family="arial" font-size="10.00" fill="#000000">Strata can be identified by means of</text>
<text text-anchor="start" x="263.2675" y="-511" font-family="arial" font-size="10.00" fill="#000000"> their imbedded fossils #COA</text>
</g>
<!-- n7&#45;&gt;n11 -->
<g id="edge12" class="edge">
<title>n7&#45;&gt;n11</title>
<path fill="none" stroke="#00ff00" d="M396.4654,-501.9343C412.6608,-495.9175 429.9031,-489.6325 446,-484 543.1076,-450.0206 571.607,-452.9201 666,-412 675.2573,-407.9869 684.7592,-403.464 694.1322,-398.7355"/>
<polygon fill="#00ff00" stroke="#00ff00" points="695.7692,-401.8295 703.0671,-394.1489 692.5724,-395.6021 695.7692,-401.8295"/>
</g>
<!-- n7&#45;&gt;n12 -->
<g id="edge13" class="edge">
<title>n7&#45;&gt;n12</title>
<path fill="none" stroke="#00ff00" d="M361.6422,-501.7355C393.5777,-476.8034 442.6315,-438.507 483.4668,-406.6268"/>
<polygon fill="#00ff00" stroke="#00ff00" points="485.7883,-409.2548 491.5168,-400.3422 481.4806,-403.7371 485.7883,-409.2548"/>
</g>
<!-- n13&#45;&gt;n7 -->
<g id="edge8" class="edge">
<title>n13&#45;&gt;n7</title>
<path fill="none" stroke="#00ff00" d="M328,-643.8558C328,-618.8292 328,-587.9 328,-564.2952"/>
<polygon fill="#00ff00" stroke="#00ff00" points="331.5001,-564.0126 328,-554.0127 324.5001,-564.0127 331.5001,-564.0126"/>
</g>
</g>
</svg>
