
<!-- Generated by graphviz version 2.40.1 (20161225.0304)
 -->
<!-- Title: Argument Map Pages: 1 -->
<svg width="720pt" height="213pt"
 viewBox="0.00 0.00 720.00 212.82" xmlns="http://www.w3.org/2000/svg" xmlns:xlink="http://www.w3.org/1999/xlink">
<g id="graph0" class="graph" transform="scale(.1644 .1644) rotate(0) translate(4 1290.4)">
<title>Argument Map</title>
<g id="clust1" class="cluster">
<title>cluster_1</title>
<polygon fill="#ffff00" stroke="#ffff00" points="1203.9906,-8 1203.9906,-270.4 2485.9906,-270.4 2485.9906,-8 1203.9906,-8"/>
<text text-anchor="start" x="1820.3162" y="-255.6" font-family="arial" font-size="12.00" fill="#000000">Evidence</text>
</g>
<g id="clust2" class="cluster">
<title>cluster_2</title>
<polygon fill="#b9d3ee" stroke="#b9d3ee" points="1883.9906,-666 1883.9906,-958.4 2309.9906,-958.4 2309.9906,-666 1883.9906,-666"/>
<text text-anchor="start" x="2013.3038" y="-943.6" font-family="arial" font-size="12.00" fill="#000000">Aporia I : Coal in Ancient Strata</text>
</g>
<g id="clust3" class="cluster">
<title>cluster_3</title>
<polygon fill="#eedfcc" stroke="#eedfcc" points="2317.9906,-304 2317.9906,-1106.4 3443.9906,-1106.4 3443.9906,-304 2317.9906,-304"/>
<text text-anchor="start" x="2816.6484" y="-1091.6" font-family="arial" font-size="12.00" fill="#000000">Dating of the Main Culm</text>
</g>
<g id="clust4" class="cluster">
<title>cluster_4</title>
<polygon fill="#9fb6cd" stroke="#9fb6cd" points="1627.9906,-304 1627.9906,-970.4 1847.9906,-970.4 1847.9906,-304 1627.9906,-304"/>
<text text-anchor="start" x="1635.9768" y="-955.6" font-family="arial" font-size="12.00" fill="#000000">Aporia II : CM Plants in non&#45;CM Strata</text>
</g>
<g id="clust5" class="cluster">
<title>cluster_5</title>
<polygon fill="#eeb4b4" stroke="#eeb4b4" points="953.9906,-322 953.9906,-1278.4 1593.9906,-1278.4 1593.9906,-322 953.9906,-322"/>
<text text-anchor="start" x="1194.9748" y="-1263.6" font-family="arial" font-size="12.00" fill="#000000">Dating of the Culm Limestone</text>
</g>
<g id="clust6" class="cluster">
<title>cluster_6</title>
<polygon fill="#cd9b9b" stroke="#cd9b9b" points="3687.9906,-322 3687.9906,-1278.4 4333.9906,-1278.4 4333.9906,-322 3687.9906,-322"/>
<text text-anchor="start" x="3948.3158" y="-1263.6" font-family="arial" font-size="12.00" fill="#000000">Dating of the Non&#45;Culm</text>
</g>
<g id="clust7" class="cluster">
<title>cluster_7</title>
<polygon fill="#8b6969" stroke="#8b6969" points="77.9906,-304 77.9906,-626.4 735.9906,-626.4 735.9906,-304 77.9906,-304"/>
<text text-anchor="start" x="336.9658" y="-611.6" font-family="arial" font-size="12.00" fill="#000000">Youngest Devonian Strata</text>
</g>
<g id="clust8" class="cluster">
<title>cluster_8</title>
<polygon fill="#698b69" stroke="#698b69" points="3467.9906,-310 3467.9906,-602.4 3679.9906,-602.4 3679.9906,-310 3467.9906,-310"/>
<text text-anchor="start" x="3517.6314" y="-587.6" font-family="arial" font-size="12.00" fill="#000000">Gap in the Sequence</text>
</g>
<!-- n2 -->
<g id="node1" class="node">
<title>n2</title>
<path fill="#ffffff" stroke="#ffff00" stroke-width="2" d="M2465.9906,-234C2465.9906,-234 2293.9906,-234 2293.9906,-234 2287.9906,-234 2281.9906,-228 2281.9906,-222 2281.9906,-222 2281.9906,-182 2281.9906,-182 2281.9906,-176 2287.9906,-170 2293.9906,-170 2293.9906,-170 2465.9906,-170 2465.9906,-170 2471.9906,-170 2477.9906,-176 2477.9906,-182 2477.9906,-182 2477.9906,-222 2477.9906,-222 2477.9906,-228 2471.9906,-234 2465.9906,-234"/>
<text text-anchor="start" x="2298.2956" y="-220" font-family="arial" font-weight="bold" font-size="10.00" fill="#000000">Unbroken Sequence of Devon Strata</text>
<text text-anchor="start" x="2303.3031" y="-203" font-family="arial" font-size="10.00" fill="#000000">In Devon, all the strata &#45; older than</text>
<text text-anchor="start" x="2303.0261" y="-191" font-family="arial" font-size="10.00" fill="#000000"> the New Red Sandstone &#45; form an</text>
<text text-anchor="start" x="2305.7941" y="-179" font-family="arial" font-size="10.00" fill="#000000"> unbroken sequence of strata #ev</text>
</g>
<!-- n8 -->
<g id="node7" class="node">
<title>n8</title>
<path fill="#ffffff" stroke="#ffff00" stroke-width="2" d="M2465.9906,-92C2465.9906,-92 2293.9906,-92 2293.9906,-92 2287.9906,-92 2281.9906,-86 2281.9906,-80 2281.9906,-80 2281.9906,-28 2281.9906,-28 2281.9906,-22 2287.9906,-16 2293.9906,-16 2293.9906,-16 2465.9906,-16 2465.9906,-16 2471.9906,-16 2477.9906,-22 2477.9906,-28 2477.9906,-28 2477.9906,-80 2477.9906,-80 2477.9906,-86 2471.9906,-92 2465.9906,-92"/>
<text text-anchor="start" x="2329.4296" y="-78" font-family="arial" font-weight="bold" font-size="10.00" fill="#000000">Unconformity in Devon</text>
<text text-anchor="start" x="2305.2451" y="-61" font-family="arial" font-size="10.00" fill="#000000">Between the Devon Culm and the</text>
<text text-anchor="start" x="2303.8566" y="-49" font-family="arial" font-size="10.00" fill="#000000"> juxtaposed strata, there is at least</text>
<text text-anchor="start" x="2309.9801" y="-37" font-family="arial" font-size="10.00" fill="#000000"> one formation missing from the</text>
<text text-anchor="start" x="2326.6346" y="-25" font-family="arial" font-size="10.00" fill="#000000"> standard sequence #ev</text>
</g>
<!-- n2&#45;&gt;n8 -->
<g id="edge2" class="edge">
<title>n2&#45;&gt;n8</title>
<path fill="none" stroke="#ff0000" d="M2374.3122,-169.8862C2373.175,-150.1437 2372.9429,-124.4703 2373.6161,-102.3074"/>
<polygon fill="#ff0000" stroke="#ff0000" points="2377.1224,-102.2046 2374.004,-92.0791 2370.1274,-101.9393 2377.1224,-102.2046"/>
</g>
<!-- n3 -->
<g id="node2" class="node">
<title>n3</title>
<path fill="#ffffff" stroke="#ffff00" stroke-width="2" d="M1823.9906,-240C1823.9906,-240 1651.9906,-240 1651.9906,-240 1645.9906,-240 1639.9906,-234 1639.9906,-228 1639.9906,-228 1639.9906,-176 1639.9906,-176 1639.9906,-170 1645.9906,-164 1651.9906,-164 1651.9906,-164 1823.9906,-164 1823.9906,-164 1829.9906,-164 1835.9906,-170 1835.9906,-176 1835.9906,-176 1835.9906,-228 1835.9906,-228 1835.9906,-234 1829.9906,-240 1823.9906,-240"/>
<text text-anchor="start" x="1680.7661" y="-226" font-family="arial" font-weight="bold" font-size="10.00" fill="#000000">CM Plants in Devon Culm</text>
<text text-anchor="start" x="1651.5891" y="-209" font-family="arial" font-size="10.00" fill="#000000">Near Bideford (North Devon), there are</text>
<text text-anchor="start" x="1659.9226" y="-197" font-family="arial" font-size="10.00" fill="#000000"> CM fossil plants in the main part of</text>
<text text-anchor="start" x="1656.3116" y="-185" font-family="arial" font-size="10.00" fill="#000000"> the Culm strata (in close association</text>
<text text-anchor="start" x="1649.6431" y="-173" font-family="arial" font-size="10.00" fill="#000000"> with seams of imperfect anthracite) #ev</text>
</g>
<!-- n4 -->
<g id="node3" class="node">
<title>n4</title>
<path fill="#ffffff" stroke="#ffff00" stroke-width="2" d="M1609.9906,-228C1609.9906,-228 1437.9906,-228 1437.9906,-228 1431.9906,-228 1425.9906,-222 1425.9906,-216 1425.9906,-216 1425.9906,-188 1425.9906,-188 1425.9906,-182 1431.9906,-176 1437.9906,-176 1437.9906,-176 1609.9906,-176 1609.9906,-176 1615.9906,-176 1621.9906,-182 1621.9906,-188 1621.9906,-188 1621.9906,-216 1621.9906,-216 1621.9906,-222 1615.9906,-228 1609.9906,-228"/>
<text text-anchor="start" x="1487.5976" y="-214" font-family="arial" font-weight="bold" font-size="10.00" fill="#000000">North of Exmoor</text>
<text text-anchor="start" x="1437.8616" y="-197" font-family="arial" font-size="10.00" fill="#000000">Passing Exmoor northwards, the strata</text>
<text text-anchor="start" x="1482.8681" y="-185" font-family="arial" font-size="10.00" fill="#000000"> become older #ev</text>
</g>
<!-- n50 -->
<g id="node48" class="node">
<title>n50</title>
<path fill="#b8860b" stroke="#000000" d="M715.9906,-400C715.9906,-400 543.9906,-400 543.9906,-400 537.9906,-400 531.9906,-394 531.9906,-388 531.9906,-388 531.9906,-324 531.9906,-324 531.9906,-318 537.9906,-312 543.9906,-312 543.9906,-312 715.9906,-312 715.9906,-312 721.9906,-312 727.9906,-318 727.9906,-324 727.9906,-324 727.9906,-388 727.9906,-388 727.9906,-394 721.9906,-400 715.9906,-400"/>
<text text-anchor="start" x="554.9751" y="-386" font-family="arial" font-weight="bold" font-size="10.00" fill="#000000">Trough through Exmoor &#45; GRE.1a</text>
<text text-anchor="start" x="553.0171" y="-369" font-family="arial" font-size="10.00" fill="#000000">If the existence of a trough running</text>
<text text-anchor="start" x="544.6876" y="-357" font-family="arial" font-size="10.00" fill="#000000"> trough Exmoor is the best explanation</text>
<text text-anchor="start" x="544.4076" y="-345" font-family="arial" font-size="10.00" fill="#000000"> of the Exmoor strata being juxtaposed</text>
<text text-anchor="start" x="553.8626" y="-333" font-family="arial" font-size="10.00" fill="#000000"> solely with older strata, then there</text>
<text text-anchor="start" x="551.9161" y="-321" font-family="arial" font-size="10.00" fill="#000000"> is a trough through Exmoor &#160;#GRE</text>
</g>
<!-- n4&#45;&gt;n50 -->
<g id="edge70" class="edge">
<title>n4&#45;&gt;n50</title>
<path fill="none" stroke="#00ff00" d="M1492.4401,-228.1478C1472.1981,-243.3377 1444.6133,-261.2368 1416.9906,-270.4 1219.4822,-335.9188 1156.6732,-279.8207 949.9906,-304 879.1633,-312.2859 800.0629,-325.1069 738.2264,-335.9446"/>
<polygon fill="#00ff00" stroke="#00ff00" points="737.305,-332.5529 728.064,-337.735 738.5196,-339.4467 737.305,-332.5529"/>
</g>
<!-- n5 -->
<g id="node4" class="node">
<title>n5</title>
<path fill="#ffffff" stroke="#ffff00" stroke-width="2" d="M1395.9906,-240C1395.9906,-240 1223.9906,-240 1223.9906,-240 1217.9906,-240 1211.9906,-234 1211.9906,-228 1211.9906,-228 1211.9906,-176 1211.9906,-176 1211.9906,-170 1217.9906,-164 1223.9906,-164 1223.9906,-164 1395.9906,-164 1395.9906,-164 1401.9906,-164 1407.9906,-170 1407.9906,-176 1407.9906,-176 1407.9906,-228 1407.9906,-228 1407.9906,-234 1401.9906,-240 1395.9906,-240"/>
<text text-anchor="start" x="1257.2006" y="-226" font-family="arial" font-weight="bold" font-size="10.00" fill="#000000">Trough through Exmoor</text>
<text text-anchor="start" x="1232.1966" y="-209" font-family="arial" font-size="10.00" fill="#000000">There is a trough through Exmoor &#45;</text>
<text text-anchor="start" x="1223.2986" y="-197" font-family="arial" font-size="10.00" fill="#000000"> formed by a band of limestone running</text>
<text text-anchor="start" x="1231.3526" y="-185" font-family="arial" font-size="10.00" fill="#000000"> out to the north coast at Ilfracombe</text>
<text text-anchor="start" x="1246.3531" y="-173" font-family="arial" font-size="10.00" fill="#000000"> and south of Barnstaple #ev</text>
</g>
<!-- n6 -->
<g id="node5" class="node">
<title>n6</title>
<path fill="#ffffff" stroke="#ffff00" stroke-width="2" d="M2037.9906,-234C2037.9906,-234 1865.9906,-234 1865.9906,-234 1859.9906,-234 1853.9906,-228 1853.9906,-222 1853.9906,-222 1853.9906,-182 1853.9906,-182 1853.9906,-176 1859.9906,-170 1865.9906,-170 1865.9906,-170 2037.9906,-170 2037.9906,-170 2043.9906,-170 2049.9906,-176 2049.9906,-182 2049.9906,-182 2049.9906,-222 2049.9906,-222 2049.9906,-228 2043.9906,-234 2037.9906,-234"/>
<text text-anchor="start" x="1875.3011" y="-220" font-family="arial" font-weight="bold" font-size="10.00" fill="#000000">Instances of Coal in Ancient Strata</text>
<text text-anchor="start" x="1870.3121" y="-203" font-family="arial" font-size="10.00" fill="#000000">In Munster, North America and North</text>
<text text-anchor="start" x="1878.9151" y="-191" font-family="arial" font-size="10.00" fill="#000000"> Devon there are coal deposits in</text>
<text text-anchor="start" x="1874.7456" y="-179" font-family="arial" font-size="10.00" fill="#000000"> pre&#45;Old Red Sandstone strata #ev</text>
</g>
<!-- n7 -->
<g id="node6" class="node">
<title>n7</title>
<path fill="#ffffff" stroke="#ffff00" stroke-width="2" d="M2251.9906,-238C2251.9906,-238 2079.9906,-238 2079.9906,-238 2073.9906,-238 2067.9906,-232 2067.9906,-226 2067.9906,-226 2067.9906,-178 2067.9906,-178 2067.9906,-172 2073.9906,-166 2079.9906,-166 2079.9906,-166 2251.9906,-166 2251.9906,-166 2257.9906,-166 2263.9906,-172 2263.9906,-178 2263.9906,-178 2263.9906,-226 2263.9906,-226 2263.9906,-232 2257.9906,-238 2251.9906,-238"/>
<text text-anchor="start" x="2080.4351" y="-224" font-family="arial" font-weight="bold" font-size="10.00" fill="#000000">Devonshire &#45; Characteristic CAM Rock</text>
<text text-anchor="start" x="2153.4876" y="-214" font-family="arial" font-weight="bold" font-size="10.00" fill="#000000"> Type</text>
<text text-anchor="start" x="2089.3031" y="-199" font-family="arial" font-size="10.00" fill="#000000">In Devon, all the strata &#45; older than</text>
<text text-anchor="start" x="2093.1906" y="-187" font-family="arial" font-size="10.00" fill="#000000"> the New Red Sandstone &#45; are of</text>
<text text-anchor="start" x="2084.0301" y="-175" font-family="arial" font-size="10.00" fill="#000000"> carachteristic CAM appearance #ev </text>
</g>
<!-- n8&#45;&gt;n2 -->
<g id="edge1" class="edge">
<title>n8&#45;&gt;n2</title>
<path fill="none" stroke="#ff0000" d="M2385.9773,-92.0791C2386.9328,-112.7991 2386.9913,-138.4796 2386.1528,-159.8069"/>
<polygon fill="#ff0000" stroke="#ff0000" points="2382.6525,-159.7299 2385.6691,-169.8862 2389.6445,-160.0655 2382.6525,-159.7299"/>
</g>
<!-- n9 -->
<g id="node8" class="node">
<title>n9</title>
<path fill="#ffffff" stroke="#b8860b" stroke-width="2" d="M2075.9906,-916C2075.9906,-916 1903.9906,-916 1903.9906,-916 1897.9906,-916 1891.9906,-910 1891.9906,-904 1891.9906,-904 1891.9906,-876 1891.9906,-876 1891.9906,-870 1897.9906,-864 1903.9906,-864 1903.9906,-864 2075.9906,-864 2075.9906,-864 2081.9906,-864 2087.9906,-870 2087.9906,-876 2087.9906,-876 2087.9906,-904 2087.9906,-904 2087.9906,-910 2081.9906,-916 2075.9906,-916"/>
<text text-anchor="start" x="1941.6461" y="-902" font-family="arial" font-weight="bold" font-size="10.00" fill="#000000">Coal in Ancient Strata</text>
<text text-anchor="start" x="1911.3661" y="-885" font-family="arial" font-size="10.00" fill="#000000">There are coal deposits in pre&#45;ORS</text>
<text text-anchor="start" x="1961.0961" y="-873" font-family="arial" font-size="10.00" fill="#000000"> strata #GRE</text>
</g>
<!-- n38 -->
<g id="node10" class="node">
<title>n38</title>
<path fill="#b8860b" stroke="#000000" d="M2077.9906,-762C2077.9906,-762 1903.9906,-762 1903.9906,-762 1897.9906,-762 1891.9906,-756 1891.9906,-750 1891.9906,-750 1891.9906,-686 1891.9906,-686 1891.9906,-680 1897.9906,-674 1903.9906,-674 1903.9906,-674 2077.9906,-674 2077.9906,-674 2083.9906,-674 2089.9906,-680 2089.9906,-686 2089.9906,-686 2089.9906,-750 2089.9906,-750 2089.9906,-756 2083.9906,-762 2077.9906,-762"/>
<text text-anchor="start" x="1942.6461" y="-748" font-family="arial" font-weight="bold" font-size="10.00" fill="#000000">Coal in Ancient Strata</text>
<text text-anchor="start" x="1924.0251" y="-731" font-family="arial" font-size="10.00" fill="#000000">If there are no coal deposits in</text>
<text text-anchor="start" x="1904.5791" y="-719" font-family="arial" font-size="10.00" fill="#000000"> pre&#45;ORS strata, then there are no coal</text>
<text text-anchor="start" x="1916.8061" y="-707" font-family="arial" font-size="10.00" fill="#000000"> deposits in the pre&#45;ORS strata of</text>
<text text-anchor="start" x="1901.5381" y="-695" font-family="arial" font-size="10.00" fill="#000000"> Munster, North America or North Devon</text>
<text text-anchor="start" x="1975.9881" y="-683" font-family="arial" font-size="10.00" fill="#000000"> #GRE</text>
</g>
<!-- n9&#45;&gt;n38 -->
<g id="edge4" class="edge">
<title>n9&#45;&gt;n38</title>
<path fill="none" stroke="#ff0000" d="M1990.1425,-863.8769C1990.2834,-839.6447 1990.4975,-802.8213 1990.6753,-772.2349"/>
<polygon fill="#ff0000" stroke="#ff0000" points="1994.1758,-772.1487 1990.7341,-762.1285 1987.1759,-772.1079 1994.1758,-772.1487"/>
</g>
<!-- n39 -->
<g id="node23" class="node">
<title>n39</title>
<path fill="#b8860b" stroke="#000000" d="M1823.9906,-768C1823.9906,-768 1651.9906,-768 1651.9906,-768 1645.9906,-768 1639.9906,-762 1639.9906,-756 1639.9906,-756 1639.9906,-680 1639.9906,-680 1639.9906,-674 1645.9906,-668 1651.9906,-668 1651.9906,-668 1823.9906,-668 1823.9906,-668 1829.9906,-668 1835.9906,-674 1835.9906,-680 1835.9906,-680 1835.9906,-756 1835.9906,-756 1835.9906,-762 1829.9906,-768 1823.9906,-768"/>
<text text-anchor="start" x="1693.5391" y="-754" font-family="arial" font-weight="bold" font-size="10.00" fill="#000000">Coal and CM Plants</text>
<text text-anchor="start" x="1658.2536" y="-737" font-family="arial" font-size="10.00" fill="#000000">If the similarity between the floras of</text>
<text text-anchor="start" x="1650.1966" y="-725" font-family="arial" font-size="10.00" fill="#000000"> the Coal Measures and some pre&#45;ORS</text>
<text text-anchor="start" x="1660.4671" y="-713" font-family="arial" font-size="10.00" fill="#000000"> strata G is the best explanation for</text>
<text text-anchor="start" x="1656.5761" y="-701" font-family="arial" font-size="10.00" fill="#000000"> the existence of coal deposists in G,</text>
<text text-anchor="start" x="1662.4276" y="-689" font-family="arial" font-size="10.00" fill="#000000"> then G&#39;s flora is similar to the one</text>
<text text-anchor="start" x="1698.5386" y="-677" font-family="arial" font-size="10.00" fill="#000000"> of the CM. #GRE</text>
</g>
<!-- n9&#45;&gt;n39 -->
<g id="edge71" class="edge">
<title>n9&#45;&gt;n39</title>
<path fill="none" stroke="#00ff00" d="M1951.7173,-863.8769C1916.8571,-840.0834 1864.2114,-804.1507 1819.8942,-773.9024"/>
<polygon fill="#00ff00" stroke="#00ff00" points="1821.669,-770.8763 1811.4364,-768.1296 1817.7228,-776.6579 1821.669,-770.8763"/>
</g>
<!-- n10 -->
<g id="node9" class="node">
<title>n10</title>
<path fill="#ffffff" stroke="#b8860b" stroke-width="2" d="M2289.9906,-928C2289.9906,-928 2117.9906,-928 2117.9906,-928 2111.9906,-928 2105.9906,-922 2105.9906,-916 2105.9906,-916 2105.9906,-864 2105.9906,-864 2105.9906,-858 2111.9906,-852 2117.9906,-852 2117.9906,-852 2289.9906,-852 2289.9906,-852 2295.9906,-852 2301.9906,-858 2301.9906,-864 2301.9906,-864 2301.9906,-916 2301.9906,-916 2301.9906,-922 2295.9906,-928 2289.9906,-928"/>
<text text-anchor="start" x="2140.6426" y="-914" font-family="arial" font-weight="bold" font-size="10.00" fill="#000000">Instances of Pre&#45;ORS Strata</text>
<text text-anchor="start" x="2122.3121" y="-897" font-family="arial" font-size="10.00" fill="#000000">In Munster, North America and North</text>
<text text-anchor="start" x="2117.3051" y="-885" font-family="arial" font-size="10.00" fill="#000000"> Devon, some strata closely associated</text>
<text text-anchor="start" x="2116.7531" y="-873" font-family="arial" font-size="10.00" fill="#000000"> with seams of coal are pre&#45;ORS in age</text>
<text text-anchor="start" x="2162.5926" y="-861" font-family="arial" font-size="10.00" fill="#000000"> #GRE #chron&#45;hyp</text>
</g>
<!-- n10&#45;&gt;n38 -->
<g id="edge72" class="edge">
<title>n10&#45;&gt;n38</title>
<path fill="none" stroke="#00ff00" d="M2156.719,-851.8276C2126.3104,-827.2723 2086.4557,-795.0892 2053.4507,-768.4372"/>
<polygon fill="#00ff00" stroke="#00ff00" points="2055.6322,-765.7002 2045.6532,-762.1407 2051.2345,-771.1463 2055.6322,-765.7002"/>
</g>
<!-- n38&#45;&gt;n6 -->
<g id="edge5" class="edge">
<title>n38&#45;&gt;n6</title>
<path fill="none" stroke="#ff0000" d="M1987.6318,-673.5595C1980.2054,-575.3036 1962.4745,-340.7093 1955.1942,-244.3862"/>
<polygon fill="#ff0000" stroke="#ff0000" points="1958.6645,-243.8586 1954.4207,-234.1509 1951.6844,-244.3862 1958.6645,-243.8586"/>
</g>
<!-- n11 -->
<g id="node11" class="node">
<title>n11</title>
<path fill="#ffffff" stroke="#b8860b" stroke-width="2" d="M2746.9906,-1076C2746.9906,-1076 2574.9906,-1076 2574.9906,-1076 2568.9906,-1076 2562.9906,-1070 2562.9906,-1064 2562.9906,-1064 2562.9906,-1036 2562.9906,-1036 2562.9906,-1030 2568.9906,-1024 2574.9906,-1024 2574.9906,-1024 2746.9906,-1024 2746.9906,-1024 2752.9906,-1024 2758.9906,-1030 2758.9906,-1036 2758.9906,-1036 2758.9906,-1064 2758.9906,-1064 2758.9906,-1070 2752.9906,-1076 2746.9906,-1076"/>
<text text-anchor="start" x="2617.9381" y="-1062" font-family="arial" font-weight="bold" font-size="10.00" fill="#000000">Main Culm as CAM</text>
<text text-anchor="start" x="2575.9831" y="-1045" font-family="arial" font-size="10.00" fill="#000000">The whole of the main Culm is CAM in</text>
<text text-anchor="start" x="2608.4751" y="-1033" font-family="arial" font-size="10.00" fill="#000000"> age #GRE #chron&#45;hyp </text>
</g>
<!-- n11&#45;&gt;n10 -->
<g id="edge3" class="edge">
<title>n11&#45;&gt;n10</title>
<path fill="none" stroke="#00ff00" d="M2562.9607,-1038.3324C2491.5157,-1027.2861 2393.6883,-1006.7902 2313.9906,-970.4 2293.6498,-961.1123 2273.3321,-947.7208 2255.7941,-934.5228"/>
<polygon fill="#00ff00" stroke="#00ff00" points="2257.4794,-931.4033 2247.4199,-928.0781 2253.2102,-936.9508 2257.4794,-931.4033"/>
</g>
<!-- n14 -->
<g id="node12" class="node">
<title>n14</title>
<path fill="#ffffff" stroke="#f5f5dc" stroke-width="2" d="M2749.9906,-916C2749.9906,-916 2571.9906,-916 2571.9906,-916 2565.9906,-916 2559.9906,-910 2559.9906,-904 2559.9906,-904 2559.9906,-876 2559.9906,-876 2559.9906,-870 2565.9906,-864 2571.9906,-864 2571.9906,-864 2749.9906,-864 2749.9906,-864 2755.9906,-864 2761.9906,-870 2761.9906,-876 2761.9906,-876 2761.9906,-904 2761.9906,-904 2761.9906,-910 2755.9906,-916 2749.9906,-916"/>
<text text-anchor="start" x="2606.8251" y="-902" font-family="arial" font-weight="bold" font-size="10.00" fill="#000000">Some Main Culm as CM</text>
<text text-anchor="start" x="2569.5896" y="-885" font-family="arial" font-size="10.00" fill="#000000">Some part of the main Culm is CM in age</text>
<text text-anchor="start" x="2624.8726" y="-873" font-family="arial" font-size="10.00" fill="#000000"> #pri #chron&#45;hyp</text>
</g>
<!-- n11&#45;&gt;n14 -->
<g id="edge12" class="edge">
<title>n11&#45;&gt;n14</title>
<path fill="none" stroke="#ff0000" d="M2660.9906,-1023.9371C2660.9906,-997.4384 2660.9906,-956.1612 2660.9906,-926.4329"/>
<polygon fill="#ff0000" stroke="#ff0000" points="2664.4907,-926.0517 2660.9906,-916.0517 2657.4907,-926.0517 2664.4907,-926.0517"/>
</g>
<!-- n15 -->
<g id="node13" class="node">
<title>n15</title>
<path fill="#ffffff" stroke="#f5f5dc" stroke-width="2" d="M3403.4906,-916C3403.4906,-916 3226.4906,-916 3226.4906,-916 3220.4906,-916 3214.4906,-910 3214.4906,-904 3214.4906,-904 3214.4906,-876 3214.4906,-876 3214.4906,-870 3220.4906,-864 3226.4906,-864 3226.4906,-864 3403.4906,-864 3403.4906,-864 3409.4906,-864 3415.4906,-870 3415.4906,-876 3415.4906,-876 3415.4906,-904 3415.4906,-904 3415.4906,-910 3409.4906,-916 3403.4906,-916"/>
<text text-anchor="start" x="3262.1551" y="-902" font-family="arial" font-weight="bold" font-size="10.00" fill="#000000">Some Main Culm as ML</text>
<text text-anchor="start" x="3224.9196" y="-885" font-family="arial" font-size="10.00" fill="#000000">Some part of the main Culm is ML in age</text>
<text text-anchor="start" x="3279.3726" y="-873" font-family="arial" font-size="10.00" fill="#000000"> #pri #chron&#45;hyp</text>
</g>
<!-- n11&#45;&gt;n15 -->
<g id="edge13" class="edge">
<title>n11&#45;&gt;n15</title>
<path fill="none" stroke="#ff0000" d="M2759.1756,-1041.4317C2893.5636,-1028.7221 3127.1208,-1002.8455 3205.9906,-970.4 3233.2518,-959.1853 3259.9515,-939.6747 3280.1026,-922.6822"/>
<polygon fill="#ff0000" stroke="#ff0000" points="3282.4791,-925.2544 3287.7671,-916.0736 3277.9081,-919.9529 3282.4791,-925.2544"/>
</g>
<!-- n16 -->
<g id="node14" class="node">
<title>n16</title>
<path fill="#ffffff" stroke="#f5f5dc" stroke-width="2" d="M2529.9906,-916C2529.9906,-916 2357.9906,-916 2357.9906,-916 2351.9906,-916 2345.9906,-910 2345.9906,-904 2345.9906,-904 2345.9906,-876 2345.9906,-876 2345.9906,-870 2351.9906,-864 2357.9906,-864 2357.9906,-864 2529.9906,-864 2529.9906,-864 2535.9906,-864 2541.9906,-870 2541.9906,-876 2541.9906,-876 2541.9906,-904 2541.9906,-904 2541.9906,-910 2535.9906,-916 2529.9906,-916"/>
<text text-anchor="start" x="2386.7656" y="-902" font-family="arial" font-weight="bold" font-size="10.00" fill="#000000">Some Main Culm as ORS</text>
<text text-anchor="start" x="2359.2581" y="-885" font-family="arial" font-size="10.00" fill="#000000">Some part of the main Culm is ORS in</text>
<text text-anchor="start" x="2398.1446" y="-873" font-family="arial" font-size="10.00" fill="#000000"> age #pri #chron&#45;hyp</text>
</g>
<!-- n11&#45;&gt;n16 -->
<g id="edge14" class="edge">
<title>n11&#45;&gt;n16</title>
<path fill="none" stroke="#ff0000" d="M2624.7051,-1023.9916C2603.2049,-1008.519 2575.4648,-988.4479 2550.9906,-970.4 2529.7181,-954.713 2506.2244,-937.0929 2486.6833,-922.3547"/>
<polygon fill="#ff0000" stroke="#ff0000" points="2488.6585,-919.4605 2478.5686,-916.2288 2484.441,-925.0473 2488.6585,-919.4605"/>
</g>
<!-- n17 -->
<g id="node15" class="node">
<title>n17</title>
<path fill="#ffffff" stroke="#f5f5dc" stroke-width="2" d="M2963.9906,-916C2963.9906,-916 2791.9906,-916 2791.9906,-916 2785.9906,-916 2779.9906,-910 2779.9906,-904 2779.9906,-904 2779.9906,-876 2779.9906,-876 2779.9906,-870 2785.9906,-864 2791.9906,-864 2791.9906,-864 2963.9906,-864 2963.9906,-864 2969.9906,-864 2975.9906,-870 2975.9906,-876 2975.9906,-876 2975.9906,-904 2975.9906,-904 2975.9906,-910 2969.9906,-916 2963.9906,-916"/>
<text text-anchor="start" x="2824.0956" y="-902" font-family="arial" font-weight="bold" font-size="10.00" fill="#000000">Some Main Culm as SIL</text>
<text text-anchor="start" x="2796.5881" y="-885" font-family="arial" font-size="10.00" fill="#000000">Some part of the main Culm is SIL in</text>
<text text-anchor="start" x="2832.1446" y="-873" font-family="arial" font-size="10.00" fill="#000000"> age #pri #chron&#45;hyp</text>
</g>
<!-- n11&#45;&gt;n17 -->
<g id="edge15" class="edge">
<title>n11&#45;&gt;n17</title>
<path fill="none" stroke="#ff0000" d="M2697.2762,-1023.9916C2718.7764,-1008.519 2746.5165,-988.4479 2770.9906,-970.4 2792.2632,-954.713 2815.7569,-937.0929 2835.298,-922.3547"/>
<polygon fill="#ff0000" stroke="#ff0000" points="2837.5403,-925.0473 2843.4127,-916.2288 2833.3228,-919.4605 2837.5403,-925.0473"/>
</g>
<!-- n18 -->
<g id="node16" class="node">
<title>n18</title>
<path fill="#ffffff" stroke="#f5f5dc" stroke-width="2" d="M3198.9906,-560C3198.9906,-560 3026.9906,-560 3026.9906,-560 3020.9906,-560 3014.9906,-554 3014.9906,-548 3014.9906,-548 3014.9906,-520 3014.9906,-520 3014.9906,-514 3020.9906,-508 3026.9906,-508 3026.9906,-508 3198.9906,-508 3198.9906,-508 3204.9906,-508 3210.9906,-514 3210.9906,-520 3210.9906,-520 3210.9906,-548 3210.9906,-548 3210.9906,-554 3204.9906,-560 3198.9906,-560"/>
<text text-anchor="start" x="3055.4906" y="-546" font-family="arial" font-weight="bold" font-size="10.00" fill="#000000">Some Main Culm as CAM</text>
<text text-anchor="start" x="3027.9831" y="-529" font-family="arial" font-size="10.00" fill="#000000">Some part of the main Culm is CAM in</text>
<text text-anchor="start" x="3067.1446" y="-517" font-family="arial" font-size="10.00" fill="#000000"> age #pri #chron&#45;hyp</text>
</g>
<!-- n11&#45;&gt;n18 -->
<g id="edge16" class="edge">
<title>n11&#45;&gt;n18</title>
<path fill="none" stroke="#00ff00" d="M2759.2611,-1046.9584C2955.558,-1039.8668 3381.1886,-1019.0028 3424.9906,-970.4 3550.9063,-830.6838 3284.0101,-639.8319 3165.6876,-565.4651"/>
<polygon fill="#00ff00" stroke="#00ff00" points="3167.4292,-562.4264 3157.0921,-560.1035 3163.7244,-568.3657 3167.4292,-562.4264"/>
</g>
<!-- n40 -->
<g id="node24" class="node">
<title>n40</title>
<path fill="#b8860b" stroke="#000000" d="M1824.4906,-400C1824.4906,-400 1651.4906,-400 1651.4906,-400 1645.4906,-400 1639.4906,-394 1639.4906,-388 1639.4906,-388 1639.4906,-324 1639.4906,-324 1639.4906,-318 1645.4906,-312 1651.4906,-312 1651.4906,-312 1824.4906,-312 1824.4906,-312 1830.4906,-312 1836.4906,-318 1836.4906,-324 1836.4906,-324 1836.4906,-388 1836.4906,-388 1836.4906,-394 1830.4906,-400 1824.4906,-400"/>
<text text-anchor="start" x="1692.6541" y="-386" font-family="arial" font-weight="bold" font-size="10.00" fill="#000000">Culm and CM Plants</text>
<text text-anchor="start" x="1649.5891" y="-369" font-family="arial" font-size="10.00" fill="#000000">If the Devon Culm strata are pre&#45;ORS in</text>
<text text-anchor="start" x="1654.0231" y="-357" font-family="arial" font-size="10.00" fill="#000000"> age and there are no CM fossil plants</text>
<text text-anchor="start" x="1657.3586" y="-345" font-family="arial" font-size="10.00" fill="#000000"> in pre&#45;ORS strata, then there are no</text>
<text text-anchor="start" x="1659.3161" y="-333" font-family="arial" font-size="10.00" fill="#000000"> CM fossil plants in the Devon Culm</text>
<text text-anchor="start" x="1708.2066" y="-321" font-family="arial" font-size="10.00" fill="#000000"> strata &#160;#GRE</text>
</g>
<!-- n11&#45;&gt;n40 -->
<g id="edge73" class="edge">
<title>n11&#45;&gt;n40</title>
<path fill="none" stroke="#00ff00" d="M2562.7256,-1046.9324C2363.4582,-1039.7299 1926.6725,-1018.5741 1879.9906,-970.4 1802.7264,-890.6659 1889.0016,-573.9329 1844.9906,-472 1834.6359,-448.0175 1817.1523,-425.8087 1799.2861,-407.379"/>
<polygon fill="#00ff00" stroke="#00ff00" points="1801.7078,-404.8508 1792.1669,-400.2442 1796.7527,-409.7952 1801.7078,-404.8508"/>
</g>
<!-- n52 -->
<g id="node51" class="node">
<title>n52</title>
<path fill="#b8860b" stroke="#000000" d="M3659.9906,-394C3659.9906,-394 3487.9906,-394 3487.9906,-394 3481.9906,-394 3475.9906,-388 3475.9906,-382 3475.9906,-382 3475.9906,-330 3475.9906,-330 3475.9906,-324 3481.9906,-318 3487.9906,-318 3487.9906,-318 3659.9906,-318 3659.9906,-318 3665.9906,-318 3671.9906,-324 3671.9906,-330 3671.9906,-330 3671.9906,-382 3671.9906,-382 3671.9906,-388 3665.9906,-394 3659.9906,-394"/>
<text text-anchor="start" x="3506.1926" y="-380" font-family="arial" font-weight="bold" font-size="10.00" fill="#000000">Unbroken Sequence &#45; GRE.1a</text>
<text text-anchor="start" x="3510.0856" y="-363" font-family="arial" font-size="10.00" fill="#000000">If, in Devon, all the strata are</text>
<text text-anchor="start" x="3489.5201" y="-351" font-family="arial" font-size="10.00" fill="#000000"> Cambrian in age, i.e. belonging to the</text>
<text text-anchor="start" x="3490.9131" y="-339" font-family="arial" font-size="10.00" fill="#000000"> same geological period, then there is</text>
<text text-anchor="start" x="3492.5716" y="-327" font-family="arial" font-size="10.00" fill="#000000"> no gap in the local sequence. #GRE</text>
</g>
<!-- n11&#45;&gt;n52 -->
<g id="edge74" class="edge">
<title>n11&#45;&gt;n52</title>
<path fill="none" stroke="#00ff00" d="M2759.1039,-1047.1003C2959.2409,-1040.1909 3399.6832,-1019.5208 3445.9906,-970.4 3598.0737,-809.0773 3381.9652,-676.7559 3466.9906,-472 3478.1267,-445.1825 3498.3815,-420.6879 3518.2961,-401.1893"/>
<polygon fill="#00ff00" stroke="#00ff00" points="3520.7702,-403.6664 3525.6002,-394.2365 3515.9439,-398.5962 3520.7702,-403.6664"/>
</g>
<!-- n41 -->
<g id="node18" class="node">
<title>n41</title>
<path fill="#f5f5dc" stroke="#000000" d="M2964.4906,-754C2964.4906,-754 2791.4906,-754 2791.4906,-754 2785.4906,-754 2779.4906,-748 2779.4906,-742 2779.4906,-742 2779.4906,-694 2779.4906,-694 2779.4906,-688 2785.4906,-682 2791.4906,-682 2791.4906,-682 2964.4906,-682 2964.4906,-682 2970.4906,-682 2976.4906,-688 2976.4906,-694 2976.4906,-694 2976.4906,-742 2976.4906,-742 2976.4906,-748 2970.4906,-754 2964.4906,-754"/>
<text text-anchor="start" x="2792.6331" y="-740" font-family="arial" font-weight="bold" font-size="10.00" fill="#000000">Standard Sequence as Partition &#45; Main</text>
<text text-anchor="start" x="2865.4381" y="-730" font-family="arial" font-weight="bold" font-size="10.00" fill="#000000"> Culm</text>
<text text-anchor="start" x="2789.8741" y="-715" font-family="arial" font-size="10.00" fill="#000000">If some main Culm strata are neiter CM,</text>
<text text-anchor="start" x="2793.4741" y="-703" font-family="arial" font-size="10.00" fill="#000000"> ML, OR nor SIL in age, then it is CAM</text>
<text text-anchor="start" x="2827.3661" y="-691" font-family="arial" font-size="10.00" fill="#000000"> in age #pri #chron&#45;hyp</text>
</g>
<!-- n14&#45;&gt;n41 -->
<g id="edge8" class="edge">
<title>n14&#45;&gt;n41</title>
<path fill="none" stroke="#ff0000" d="M2693.9483,-863.8769C2728.5173,-836.4766 2783.3968,-792.9776 2824.2447,-760.6004"/>
<polygon fill="#ff0000" stroke="#ff0000" points="2826.5543,-763.2359 2832.2171,-754.2814 2822.2061,-757.7502 2826.5543,-763.2359"/>
</g>
<!-- n42 -->
<g id="node19" class="node">
<title>n42</title>
<path fill="#b8860b" stroke="#000000" d="M2791.9906,-374C2791.9906,-374 2619.9906,-374 2619.9906,-374 2613.9906,-374 2607.9906,-368 2607.9906,-362 2607.9906,-362 2607.9906,-350 2607.9906,-350 2607.9906,-344 2613.9906,-338 2619.9906,-338 2619.9906,-338 2791.9906,-338 2791.9906,-338 2797.9906,-338 2803.9906,-344 2803.9906,-350 2803.9906,-350 2803.9906,-362 2803.9906,-362 2803.9906,-368 2797.9906,-374 2791.9906,-374"/>
<text text-anchor="start" x="2638.4846" y="-354" font-family="arial" font-weight="bold" font-size="10.00" fill="#000000">Dating the Main Culm &#45; GRE.1</text>
</g>
<!-- n14&#45;&gt;n42 -->
<g id="edge17" class="edge">
<title>n14&#45;&gt;n42</title>
<path fill="none" stroke="#ff0000" d="M2663.1915,-863.8826C2670.7703,-773.9479 2695.751,-477.5108 2703.6051,-384.3084"/>
<polygon fill="#ff0000" stroke="#ff0000" points="2707.1032,-384.4775 2704.4553,-374.2189 2700.1279,-383.8896 2707.1032,-384.4775"/>
</g>
<!-- n15&#45;&gt;n41 -->
<g id="edge9" class="edge">
<title>n15&#45;&gt;n41</title>
<path fill="none" stroke="#ff0000" d="M3261.1498,-863.92C3243.7197,-855.8506 3224.1895,-847.1974 3205.9906,-840 3112.2817,-802.9391 3084.9475,-804.4276 2990.9906,-768 2982.925,-764.8729 2974.5966,-761.4904 2966.2883,-758.0105"/>
<polygon fill="#ff0000" stroke="#ff0000" points="2967.5049,-754.7248 2956.9317,-754.0486 2964.7755,-761.1708 2967.5049,-754.7248"/>
</g>
<!-- n15&#45;&gt;n42 -->
<g id="edge18" class="edge">
<title>n15&#45;&gt;n42</title>
<path fill="none" stroke="#ff0000" d="M3283.6089,-863.7139C3227.5019,-816.6099 3106.4574,-714.5008 3005.9906,-626.4 2904.448,-537.3557 2785.877,-429.2321 2733.3843,-381.1469"/>
<polygon fill="#ff0000" stroke="#ff0000" points="2735.5708,-378.4032 2725.8339,-374.2269 2730.8412,-383.5638 2735.5708,-378.4032"/>
</g>
<!-- n16&#45;&gt;n41 -->
<g id="edge10" class="edge">
<title>n16&#45;&gt;n41</title>
<path fill="none" stroke="#ff0000" d="M2497.4994,-863.9716C2514.4758,-855.9905 2533.4054,-847.3752 2550.9906,-840 2623.0082,-809.796 2705.3937,-779.0819 2769.4538,-756.027"/>
<polygon fill="#ff0000" stroke="#ff0000" points="2770.9417,-759.2116 2779.1706,-752.5381 2768.5761,-752.6234 2770.9417,-759.2116"/>
</g>
<!-- n16&#45;&gt;n42 -->
<g id="edge19" class="edge">
<title>n16&#45;&gt;n42</title>
<path fill="none" stroke="#ff0000" d="M2456.8048,-863.8826C2501.0644,-773.674 2647.2599,-475.7031 2692.5166,-383.4624"/>
<polygon fill="#ff0000" stroke="#ff0000" points="2695.7892,-384.7382 2697.0518,-374.2189 2689.5048,-381.6548 2695.7892,-384.7382"/>
</g>
<!-- n17&#45;&gt;n41 -->
<g id="edge11" class="edge">
<title>n17&#45;&gt;n41</title>
<path fill="none" stroke="#ff0000" d="M2877.9906,-863.8769C2877.9906,-837.5041 2877.9906,-796.2174 2877.9906,-764.2884"/>
<polygon fill="#ff0000" stroke="#ff0000" points="2881.4907,-764.2813 2877.9906,-754.2814 2874.4907,-764.2814 2881.4907,-764.2813"/>
</g>
<!-- n17&#45;&gt;n42 -->
<g id="edge20" class="edge">
<title>n17&#45;&gt;n42</title>
<path fill="none" stroke="#ff0000" d="M2846.874,-863.7981C2822.1283,-841.1032 2788.8033,-806.0105 2770.9906,-768 2708.5729,-634.8064 2704.2851,-453.5833 2705.1761,-384.414"/>
<polygon fill="#ff0000" stroke="#ff0000" points="2708.6775,-384.3598 2705.3554,-374.2993 2701.6786,-384.2357 2708.6775,-384.3598"/>
</g>
<!-- n18&#45;&gt;n42 -->
<g id="edge76" class="edge">
<title>n18&#45;&gt;n42</title>
<path fill="none" stroke="#00ff00" d="M3068.9975,-507.898C3048.6296,-496.2698 3023.9126,-482.7944 3000.9906,-472 2922.1113,-434.8541 2827.8795,-399.2573 2767.5081,-377.519"/>
<polygon fill="#00ff00" stroke="#00ff00" points="2768.3433,-374.1003 2757.7488,-374.0195 2765.9805,-380.6895 2768.3433,-374.1003"/>
</g>
<!-- n43 -->
<g id="node20" class="node">
<title>n43</title>
<path fill="#b8860b" stroke="#000000" d="M3094.9906,-400C3094.9906,-400 2922.9906,-400 2922.9906,-400 2916.9906,-400 2910.9906,-394 2910.9906,-388 2910.9906,-388 2910.9906,-324 2910.9906,-324 2910.9906,-318 2916.9906,-312 2922.9906,-312 2922.9906,-312 3094.9906,-312 3094.9906,-312 3100.9906,-312 3106.9906,-318 3106.9906,-324 3106.9906,-324 3106.9906,-388 3106.9906,-388 3106.9906,-394 3100.9906,-400 3094.9906,-400"/>
<text text-anchor="start" x="2947.8866" y="-386" font-family="arial" font-weight="bold" font-size="10.00" fill="#000000">Main Culm as CAM &#45; CRTP</text>
<text text-anchor="start" x="2925.9081" y="-369" font-family="arial" font-size="10.00" fill="#000000">If strata can be identified by means of</text>
<text text-anchor="start" x="2927.3066" y="-357" font-family="arial" font-size="10.00" fill="#000000"> their characteristic rock type and the</text>
<text text-anchor="start" x="2923.9786" y="-345" font-family="arial" font-size="10.00" fill="#000000"> main Culm strata are not CAM in age,</text>
<text text-anchor="start" x="2933.6911" y="-333" font-family="arial" font-size="10.00" fill="#000000"> then they are not of characteristic</text>
<text text-anchor="start" x="2953.7001" y="-321" font-family="arial" font-size="10.00" fill="#000000"> CAM appearance #GRE</text>
</g>
<!-- n18&#45;&gt;n43 -->
<g id="edge21" class="edge">
<title>n18&#45;&gt;n43</title>
<path fill="none" stroke="#ff0000" d="M3097.6451,-507.7355C3082.5642,-481.9239 3059.1144,-441.7887 3040.1194,-409.2781"/>
<polygon fill="#ff0000" stroke="#ff0000" points="3042.9574,-407.1975 3034.8907,-400.3289 3036.9134,-410.7288 3042.9574,-407.1975"/>
</g>
<!-- n19 -->
<g id="node17" class="node">
<title>n19</title>
<path fill="#ffffff" stroke="#f5f5dc" stroke-width="2" d="M3184.4906,-922C3184.4906,-922 3005.4906,-922 3005.4906,-922 2999.4906,-922 2993.4906,-916 2993.4906,-910 2993.4906,-910 2993.4906,-870 2993.4906,-870 2993.4906,-864 2999.4906,-858 3005.4906,-858 3005.4906,-858 3184.4906,-858 3184.4906,-858 3190.4906,-858 3196.4906,-864 3196.4906,-870 3196.4906,-870 3196.4906,-910 3196.4906,-910 3196.4906,-916 3190.4906,-922 3184.4906,-922"/>
<text text-anchor="start" x="3003.5476" y="-908" font-family="arial" font-weight="bold" font-size="10.00" fill="#000000">Main Culm as Post&#45;Primary and Pre&#45;NRS</text>
<text text-anchor="start" x="3015.4776" y="-891" font-family="arial" font-size="10.00" fill="#000000">The main Culm strata are older than</text>
<text text-anchor="start" x="3011.3071" y="-879" font-family="arial" font-size="10.00" fill="#000000"> Primary strata and younger than New</text>
<text text-anchor="start" x="3009.6321" y="-867" font-family="arial" font-size="10.00" fill="#000000"> Red Sandstone strata #pri #chron&#45;hyp</text>
</g>
<!-- n19&#45;&gt;n41 -->
<g id="edge77" class="edge">
<title>n19&#45;&gt;n41</title>
<path fill="none" stroke="#00ff00" d="M3054.4292,-857.8499C3019.7281,-830.3449 2969.513,-790.5431 2931.5195,-760.4284"/>
<polygon fill="#00ff00" stroke="#00ff00" points="2933.6184,-757.626 2923.6075,-754.1572 2929.2703,-763.1117 2933.6184,-757.626"/>
</g>
<!-- n41&#45;&gt;n18 -->
<g id="edge56" class="edge">
<title>n41&#45;&gt;n18</title>
<path fill="none" stroke="#00ff00" d="M2924.1387,-681.8671C2966.9961,-648.3106 3030.2359,-598.7952 3071.5236,-566.4678"/>
<polygon fill="#00ff00" stroke="#00ff00" points="3073.76,-569.162 3079.476,-560.2413 3069.4446,-563.6504 3073.76,-569.162"/>
</g>
<!-- n42&#45;&gt;n11 -->
<g id="edge57" class="edge">
<title>n42&#45;&gt;n11</title>
<path fill="none" stroke="#00ff00" d="M2680.6345,-374.167C2651.9287,-395.5105 2604.7718,-432.9881 2570.9906,-472 2444.1141,-618.5222 2391.1478,-653.8994 2336.9906,-840 2320.7968,-895.6471 2301.2312,-924.7918 2336.9906,-970.4 2363.6495,-1004.4011 2469.269,-1025.8061 2552.7661,-1037.7489"/>
<polygon fill="#00ff00" stroke="#00ff00" points="2552.4434,-1041.2378 2562.8323,-1039.1586 2553.4144,-1034.3054 2552.4434,-1041.2378"/>
</g>
<!-- n43&#45;&gt;n7 -->
<g id="edge22" class="edge">
<title>n43&#45;&gt;n7</title>
<path fill="none" stroke="#ff0000" d="M2910.8532,-325.9067C2879.8265,-317.4908 2845.2224,-309.2259 2812.9906,-304 2575.6262,-265.5148 2501.5886,-345.0055 2272.9906,-270.4 2254.339,-264.3128 2235.7253,-254.1926 2219.3768,-243.5787"/>
<polygon fill="#ff0000" stroke="#ff0000" points="2221.3029,-240.6563 2211.0458,-238.0021 2217.409,-246.4733 2221.3029,-240.6563"/>
</g>
<!-- n12 -->
<g id="node21" class="node">
<title>n12</title>
<path fill="#ffffff" stroke="#b8860b" stroke-width="2" d="M1823.9906,-940C1823.9906,-940 1651.9906,-940 1651.9906,-940 1645.9906,-940 1639.9906,-934 1639.9906,-928 1639.9906,-928 1639.9906,-852 1639.9906,-852 1639.9906,-846 1645.9906,-840 1651.9906,-840 1651.9906,-840 1823.9906,-840 1823.9906,-840 1829.9906,-840 1835.9906,-846 1835.9906,-852 1835.9906,-852 1835.9906,-928 1835.9906,-928 1835.9906,-934 1829.9906,-940 1823.9906,-940"/>
<text text-anchor="start" x="1655.4826" y="-926" font-family="arial" font-weight="bold" font-size="10.00" fill="#000000">Flora Similarities as Best Explanation</text>
<text text-anchor="start" x="1655.1816" y="-909" font-family="arial" font-size="10.00" fill="#000000">The best explanation of the existence</text>
<text text-anchor="start" x="1670.4746" y="-897" font-family="arial" font-size="10.00" fill="#000000"> of coal in some strata G is the</text>
<text text-anchor="start" x="1658.8176" y="-885" font-family="arial" font-size="10.00" fill="#000000"> similarity between G&#39;s flora and the</text>
<text text-anchor="start" x="1651.2996" y="-873" font-family="arial" font-size="10.00" fill="#000000"> one of the CM (the CM being noted for</text>
<text text-anchor="start" x="1669.3546" y="-861" font-family="arial" font-size="10.00" fill="#000000"> the great amounts of coal they</text>
<text text-anchor="start" x="1691.5891" y="-849" font-family="arial" font-size="10.00" fill="#000000"> contain) #GRE #aux</text>
</g>
<!-- n12&#45;&gt;n39 -->
<g id="edge75" class="edge">
<title>n12&#45;&gt;n39</title>
<path fill="none" stroke="#00ff00" d="M1737.9906,-839.7881C1737.9906,-820.6207 1737.9906,-798.5665 1737.9906,-778.5375"/>
<polygon fill="#00ff00" stroke="#00ff00" points="1741.4907,-778.2743 1737.9906,-768.2743 1734.4907,-778.2743 1741.4907,-778.2743"/>
</g>
<!-- n13 -->
<g id="node22" class="node">
<title>n13</title>
<path fill="#ffffff" stroke="#b8860b" stroke-width="2" d="M1823.9906,-560C1823.9906,-560 1651.9906,-560 1651.9906,-560 1645.9906,-560 1639.9906,-554 1639.9906,-548 1639.9906,-548 1639.9906,-520 1639.9906,-520 1639.9906,-514 1645.9906,-508 1651.9906,-508 1651.9906,-508 1823.9906,-508 1823.9906,-508 1829.9906,-508 1835.9906,-514 1835.9906,-520 1835.9906,-520 1835.9906,-548 1835.9906,-548 1835.9906,-554 1829.9906,-560 1823.9906,-560"/>
<text text-anchor="start" x="1662.1651" y="-546" font-family="arial" font-weight="bold" font-size="10.00" fill="#000000">CM and Pre&#45;ORS &#45; Similar Fossils</text>
<text text-anchor="start" x="1660.7566" y="-529" font-family="arial" font-size="10.00" fill="#000000">In pre&#45;ORS strata, there are fossils</text>
<text text-anchor="start" x="1664.9256" y="-517" font-family="arial" font-size="10.00" fill="#000000"> similar to those of the CM #GRE</text>
</g>
<!-- n13&#45;&gt;n40 -->
<g id="edge6" class="edge">
<title>n13&#45;&gt;n40</title>
<path fill="none" stroke="#ff0000" d="M1737.9906,-507.7355C1737.9906,-482.2549 1737.9906,-442.8155 1737.9906,-410.5322"/>
<polygon fill="#ff0000" stroke="#ff0000" points="1741.4907,-410.3288 1737.9906,-400.3289 1734.4907,-410.3289 1741.4907,-410.3288"/>
</g>
<!-- n39&#45;&gt;n13 -->
<g id="edge55" class="edge">
<title>n39&#45;&gt;n13</title>
<path fill="none" stroke="#00ff00" d="M1737.9906,-667.7212C1737.9906,-636.8685 1737.9906,-598.0738 1737.9906,-570.2276"/>
<polygon fill="#00ff00" stroke="#00ff00" points="1741.4907,-570.1307 1737.9906,-560.1307 1734.4907,-570.1308 1741.4907,-570.1307"/>
</g>
<!-- n40&#45;&gt;n3 -->
<g id="edge7" class="edge">
<title>n40&#45;&gt;n3</title>
<path fill="none" stroke="#ff0000" d="M1737.9906,-311.8698C1737.9906,-292.5696 1737.9906,-269.8775 1737.9906,-250.1424"/>
<polygon fill="#ff0000" stroke="#ff0000" points="1741.4907,-250.1253 1737.9906,-240.1254 1734.4907,-250.1254 1741.4907,-250.1253"/>
</g>
<!-- n20 -->
<g id="node25" class="node">
<title>n20</title>
<path fill="#ffffff" stroke="#f5f5dc" stroke-width="2" d="M1573.9906,-1242C1573.9906,-1242 1401.9906,-1242 1401.9906,-1242 1395.9906,-1242 1389.9906,-1236 1389.9906,-1230 1389.9906,-1230 1389.9906,-1202 1389.9906,-1202 1389.9906,-1196 1395.9906,-1190 1401.9906,-1190 1401.9906,-1190 1573.9906,-1190 1573.9906,-1190 1579.9906,-1190 1585.9906,-1196 1585.9906,-1202 1585.9906,-1202 1585.9906,-1230 1585.9906,-1230 1585.9906,-1236 1579.9906,-1242 1573.9906,-1242"/>
<text text-anchor="start" x="1447.9871" y="-1228" font-family="arial" font-weight="bold" font-size="10.00" fill="#000000">Some BCL as CM</text>
<text text-anchor="start" x="1400.4726" y="-1211" font-family="arial" font-size="10.00" fill="#000000">Some part of the black Culm Limestone</text>
<text text-anchor="start" x="1422.7036" y="-1199" font-family="arial" font-size="10.00" fill="#000000"> is CM in age #pri #chron&#45;hyp</text>
</g>
<!-- n44 -->
<g id="node32" class="node">
<title>n44</title>
<path fill="#f5f5dc" stroke="#000000" d="M1399.9906,-1088C1399.9906,-1088 1227.9906,-1088 1227.9906,-1088 1221.9906,-1088 1215.9906,-1082 1215.9906,-1076 1215.9906,-1076 1215.9906,-1024 1215.9906,-1024 1215.9906,-1018 1221.9906,-1012 1227.9906,-1012 1227.9906,-1012 1399.9906,-1012 1399.9906,-1012 1405.9906,-1012 1411.9906,-1018 1411.9906,-1024 1411.9906,-1024 1411.9906,-1076 1411.9906,-1076 1411.9906,-1082 1405.9906,-1088 1399.9906,-1088"/>
<text text-anchor="start" x="1229.2426" y="-1074" font-family="arial" font-weight="bold" font-size="10.00" fill="#000000">Standard Sequence as Partition &#45; BCL</text>
<text text-anchor="start" x="1247.5891" y="-1057" font-family="arial" font-size="10.00" fill="#000000">If some part of the black Culm</text>
<text text-anchor="start" x="1229.5376" y="-1045" font-family="arial" font-size="10.00" fill="#000000"> Limestone is neiter CM, ML, ORS nor</text>
<text text-anchor="start" x="1231.4696" y="-1033" font-family="arial" font-size="10.00" fill="#000000"> SIL in age, then it is CAM in age #pri</text>
<text text-anchor="start" x="1287.5951" y="-1021" font-family="arial" font-size="10.00" fill="#000000"> #chron&#45;hyp</text>
</g>
<!-- n20&#45;&gt;n44 -->
<g id="edge23" class="edge">
<title>n20&#45;&gt;n44</title>
<path fill="none" stroke="#ff0000" d="M1460.4198,-1189.6968C1433.8942,-1164.3907 1393.25,-1125.6152 1361.5066,-1095.3314"/>
<polygon fill="#ff0000" stroke="#ff0000" points="1363.7071,-1092.5933 1354.0557,-1088.2229 1358.8751,-1097.6582 1363.7071,-1092.5933"/>
</g>
<!-- n45 -->
<g id="node33" class="node">
<title>n45</title>
<path fill="#b8860b" stroke="#000000" d="M1399.9906,-736C1399.9906,-736 1227.9906,-736 1227.9906,-736 1221.9906,-736 1215.9906,-730 1215.9906,-724 1215.9906,-724 1215.9906,-712 1215.9906,-712 1215.9906,-706 1221.9906,-700 1227.9906,-700 1227.9906,-700 1399.9906,-700 1399.9906,-700 1405.9906,-700 1411.9906,-706 1411.9906,-712 1411.9906,-712 1411.9906,-724 1411.9906,-724 1411.9906,-730 1405.9906,-736 1399.9906,-736"/>
<text text-anchor="start" x="1260.6466" y="-716" font-family="arial" font-weight="bold" font-size="10.00" fill="#000000">Dating the BCL &#45; GRE.1</text>
</g>
<!-- n20&#45;&gt;n45 -->
<g id="edge32" class="edge">
<title>n20&#45;&gt;n45</title>
<path fill="none" stroke="#ff0000" d="M1488.0642,-1189.9234C1487.2702,-1126.6579 1479.315,-961.3085 1420.9906,-840 1402.4847,-801.5097 1368.3756,-765.8243 1343.6317,-743.1188"/>
<polygon fill="#ff0000" stroke="#ff0000" points="1345.7339,-740.302 1335.9587,-736.2158 1341.0521,-745.5061 1345.7339,-740.302"/>
</g>
<!-- n21 -->
<g id="node26" class="node">
<title>n21</title>
<path fill="#ffffff" stroke="#f5f5dc" stroke-width="2" d="M1573.9906,-382C1573.9906,-382 1401.9906,-382 1401.9906,-382 1395.9906,-382 1389.9906,-376 1389.9906,-370 1389.9906,-370 1389.9906,-342 1389.9906,-342 1389.9906,-336 1395.9906,-330 1401.9906,-330 1401.9906,-330 1573.9906,-330 1573.9906,-330 1579.9906,-330 1585.9906,-336 1585.9906,-342 1585.9906,-342 1585.9906,-370 1585.9906,-370 1585.9906,-376 1579.9906,-382 1573.9906,-382"/>
<text text-anchor="start" x="1448.8171" y="-368" font-family="arial" font-weight="bold" font-size="10.00" fill="#000000">Some BCL as ML</text>
<text text-anchor="start" x="1400.4726" y="-351" font-family="arial" font-size="10.00" fill="#000000">Some part of the black Culm Limestone</text>
<text text-anchor="start" x="1423.5336" y="-339" font-family="arial" font-size="10.00" fill="#000000"> is ML in age #pri #chron&#45;hyp</text>
</g>
<!-- n21&#45;&gt;n44 -->
<g id="edge24" class="edge">
<title>n21&#45;&gt;n44</title>
<path fill="none" stroke="#ff0000" d="M1494.9636,-382.0226C1500.8397,-405.3777 1508.7865,-440.6985 1511.9906,-472 1518.9786,-540.2655 1520.8392,-558.3507 1511.9906,-626.4 1491.5982,-783.2277 1509.6212,-839.4214 1420.9906,-970.4 1412.072,-983.5801 1400.229,-995.4209 1387.675,-1005.6914"/>
<polygon fill="#ff0000" stroke="#ff0000" points="1385.4929,-1002.9547 1379.7862,-1011.8813 1389.8141,-1008.4618 1385.4929,-1002.9547"/>
</g>
<!-- n21&#45;&gt;n45 -->
<g id="edge33" class="edge">
<title>n21&#45;&gt;n45</title>
<path fill="none" stroke="#ff0000" d="M1431.1919,-382.1276C1379.5993,-407.1675 1309.2855,-445.0342 1293.9906,-472 1277.063,-501.8447 1290.3099,-592.2869 1293.9906,-626.4 1296.3262,-648.0454 1301.6806,-672.0767 1306.2618,-690.0924"/>
<polygon fill="#ff0000" stroke="#ff0000" points="1302.9218,-691.1541 1308.8412,-699.941 1309.6934,-689.3805 1302.9218,-691.1541"/>
</g>
<!-- n22 -->
<g id="node27" class="node">
<title>n22</title>
<path fill="#ffffff" stroke="#f5f5dc" stroke-width="2" d="M1145.9906,-382C1145.9906,-382 973.9906,-382 973.9906,-382 967.9906,-382 961.9906,-376 961.9906,-370 961.9906,-370 961.9906,-342 961.9906,-342 961.9906,-336 967.9906,-330 973.9906,-330 973.9906,-330 1145.9906,-330 1145.9906,-330 1151.9906,-330 1157.9906,-336 1157.9906,-342 1157.9906,-342 1157.9906,-370 1157.9906,-370 1157.9906,-376 1151.9906,-382 1145.9906,-382"/>
<text text-anchor="start" x="1016.9276" y="-368" font-family="arial" font-weight="bold" font-size="10.00" fill="#000000">Some BCL as ORS</text>
<text text-anchor="start" x="972.4726" y="-351" font-family="arial" font-size="10.00" fill="#000000">Some part of the black Culm Limestone</text>
<text text-anchor="start" x="991.6441" y="-339" font-family="arial" font-size="10.00" fill="#000000"> is ORS in age #pri #chron&#45;hyp</text>
</g>
<!-- n22&#45;&gt;n44 -->
<g id="edge25" class="edge">
<title>n22&#45;&gt;n44</title>
<path fill="none" stroke="#ff0000" d="M1071.7594,-382.2819C1094.7081,-434.8977 1145.1006,-557.4462 1166.9906,-666 1193.7912,-798.9053 1117.4855,-853.9907 1186.9906,-970.4 1195.2207,-984.184 1206.8601,-995.9473 1219.7874,-1005.8633"/>
<polygon fill="#ff0000" stroke="#ff0000" points="1217.8322,-1008.7688 1227.984,-1011.8003 1221.9384,-1003.0996 1217.8322,-1008.7688"/>
</g>
<!-- n22&#45;&gt;n45 -->
<g id="edge34" class="edge">
<title>n22&#45;&gt;n45</title>
<path fill="none" stroke="#ff0000" d="M1092.8906,-382.0873C1119.2185,-404.1062 1155.921,-437.4835 1181.9906,-472 1228.6946,-533.8365 1226.1397,-558.231 1262.9906,-626.4 1274.7839,-648.2159 1288.4704,-672.7569 1298.6941,-690.9426"/>
<polygon fill="#ff0000" stroke="#ff0000" points="1295.7397,-692.8293 1303.6965,-699.8251 1301.839,-689.3943 1295.7397,-692.8293"/>
</g>
<!-- n23 -->
<g id="node28" class="node">
<title>n23</title>
<path fill="#ffffff" stroke="#f5f5dc" stroke-width="2" d="M1359.9906,-382C1359.9906,-382 1187.9906,-382 1187.9906,-382 1181.9906,-382 1175.9906,-376 1175.9906,-370 1175.9906,-370 1175.9906,-342 1175.9906,-342 1175.9906,-336 1181.9906,-330 1187.9906,-330 1187.9906,-330 1359.9906,-330 1359.9906,-330 1365.9906,-330 1371.9906,-336 1371.9906,-342 1371.9906,-342 1371.9906,-370 1371.9906,-370 1371.9906,-376 1365.9906,-382 1359.9906,-382"/>
<text text-anchor="start" x="1234.2576" y="-368" font-family="arial" font-weight="bold" font-size="10.00" fill="#000000">Some BCL as SIL</text>
<text text-anchor="start" x="1186.4726" y="-351" font-family="arial" font-size="10.00" fill="#000000">Some part of the black Culm Limestone</text>
<text text-anchor="start" x="1208.9741" y="-339" font-family="arial" font-size="10.00" fill="#000000"> is SIL in age #pri #chron&#45;hyp</text>
</g>
<!-- n23&#45;&gt;n44 -->
<g id="edge26" class="edge">
<title>n23&#45;&gt;n44</title>
<path fill="none" stroke="#ff0000" d="M1266.3339,-382.23C1251.3006,-435.2537 1218.3963,-559.2364 1206.9906,-666 1199.805,-733.2617 1176.6212,-909.9561 1206.9906,-970.4 1213.6627,-983.6794 1223.7157,-995.3038 1235.0348,-1005.2683"/>
<polygon fill="#ff0000" stroke="#ff0000" points="1233.1125,-1008.2207 1243.0474,-1011.9016 1237.5764,-1002.8286 1233.1125,-1008.2207"/>
</g>
<!-- n23&#45;&gt;n45 -->
<g id="edge35" class="edge">
<title>n23&#45;&gt;n45</title>
<path fill="none" stroke="#ff0000" d="M1271.5199,-382.0361C1267.5588,-430.6132 1261.8566,-538.1337 1278.9906,-626.4 1283.3428,-648.8204 1292.7454,-672.8978 1300.7099,-690.7383"/>
<polygon fill="#ff0000" stroke="#ff0000" points="1297.5903,-692.3321 1304.9454,-699.9579 1303.9512,-689.4099 1297.5903,-692.3321"/>
</g>
<!-- n24 -->
<g id="node29" class="node">
<title>n24</title>
<path fill="#ffffff" stroke="#f5f5dc" stroke-width="2" d="M1399.9906,-916C1399.9906,-916 1227.9906,-916 1227.9906,-916 1221.9906,-916 1215.9906,-910 1215.9906,-904 1215.9906,-904 1215.9906,-876 1215.9906,-876 1215.9906,-870 1221.9906,-864 1227.9906,-864 1227.9906,-864 1399.9906,-864 1399.9906,-864 1405.9906,-864 1411.9906,-870 1411.9906,-876 1411.9906,-876 1411.9906,-904 1411.9906,-904 1411.9906,-910 1405.9906,-916 1399.9906,-916"/>
<text text-anchor="start" x="1270.6526" y="-902" font-family="arial" font-weight="bold" font-size="10.00" fill="#000000">Some BCL as CAM</text>
<text text-anchor="start" x="1226.4726" y="-885" font-family="arial" font-size="10.00" fill="#000000">Some part of the black Culm Limestone</text>
<text text-anchor="start" x="1245.3691" y="-873" font-family="arial" font-size="10.00" fill="#000000"> is CAM in age #pri #chron&#45;hyp</text>
</g>
<!-- n24&#45;&gt;n45 -->
<g id="edge78" class="edge">
<title>n24&#45;&gt;n45</title>
<path fill="none" stroke="#00ff00" d="M1313.9906,-863.8769C1313.9906,-832.299 1313.9906,-779.3392 1313.9906,-746.6633"/>
<polygon fill="#00ff00" stroke="#00ff00" points="1317.4907,-746.4197 1313.9906,-736.4198 1310.4907,-746.4198 1317.4907,-746.4197"/>
</g>
<!-- n46 -->
<g id="node34" class="node">
<title>n46</title>
<path fill="#b8860b" stroke="#000000" d="M1145.9906,-762C1145.9906,-762 973.9906,-762 973.9906,-762 967.9906,-762 961.9906,-756 961.9906,-750 961.9906,-750 961.9906,-686 961.9906,-686 961.9906,-680 967.9906,-674 973.9906,-674 973.9906,-674 1145.9906,-674 1145.9906,-674 1151.9906,-674 1157.9906,-680 1157.9906,-686 1157.9906,-686 1157.9906,-750 1157.9906,-750 1157.9906,-756 1151.9906,-762 1145.9906,-762"/>
<text text-anchor="start" x="1013.0486" y="-748" font-family="arial" font-weight="bold" font-size="10.00" fill="#000000">BCL as CAM &#45; CRTP</text>
<text text-anchor="start" x="976.9081" y="-731" font-family="arial" font-size="10.00" fill="#000000">If strata can be identified by means of</text>
<text text-anchor="start" x="978.3066" y="-719" font-family="arial" font-size="10.00" fill="#000000"> their characteristic rock type and the</text>
<text text-anchor="start" x="978.0231" y="-707" font-family="arial" font-size="10.00" fill="#000000"> BCL strata are not CAM in age, then</text>
<text text-anchor="start" x="983.3106" y="-695" font-family="arial" font-size="10.00" fill="#000000"> they are not of characteristic CAM</text>
<text text-anchor="start" x="1017.1981" y="-683" font-family="arial" font-size="10.00" fill="#000000"> appearance #GRE</text>
</g>
<!-- n24&#45;&gt;n46 -->
<g id="edge36" class="edge">
<title>n24&#45;&gt;n46</title>
<path fill="none" stroke="#ff0000" d="M1275.4135,-863.8769C1237.9172,-838.4857 1180.006,-799.2702 1133.6673,-767.8913"/>
<polygon fill="#ff0000" stroke="#ff0000" points="1135.3998,-764.8375 1125.1571,-762.1285 1131.4748,-770.6336 1135.3998,-764.8375"/>
</g>
<!-- n25 -->
<g id="node30" class="node">
<title>n25</title>
<path fill="#ffffff" stroke="#f5f5dc" stroke-width="2" d="M1359.9906,-1248C1359.9906,-1248 1187.9906,-1248 1187.9906,-1248 1181.9906,-1248 1175.9906,-1242 1175.9906,-1236 1175.9906,-1236 1175.9906,-1196 1175.9906,-1196 1175.9906,-1190 1181.9906,-1184 1187.9906,-1184 1187.9906,-1184 1359.9906,-1184 1359.9906,-1184 1365.9906,-1184 1371.9906,-1190 1371.9906,-1196 1371.9906,-1196 1371.9906,-1236 1371.9906,-1236 1371.9906,-1242 1365.9906,-1248 1359.9906,-1248"/>
<text text-anchor="start" x="1196.2096" y="-1234" font-family="arial" font-weight="bold" font-size="10.00" fill="#000000">BCL as Post&#45;Primary and Pre&#45;NRS</text>
<text text-anchor="start" x="1186.1976" y="-1217" font-family="arial" font-size="10.00" fill="#000000">The black Culm Limestone is older than</text>
<text text-anchor="start" x="1189.8071" y="-1205" font-family="arial" font-size="10.00" fill="#000000"> Primary strata and younger than New</text>
<text text-anchor="start" x="1188.1321" y="-1193" font-family="arial" font-size="10.00" fill="#000000"> Red Sandstone strata #pri #chron&#45;hyp</text>
</g>
<!-- n25&#45;&gt;n44 -->
<g id="edge79" class="edge">
<title>n25&#45;&gt;n44</title>
<path fill="none" stroke="#00ff00" d="M1281.703,-1183.9935C1287.5868,-1159.5759 1295.7871,-1125.5448 1302.451,-1097.8894"/>
<polygon fill="#00ff00" stroke="#00ff00" points="1305.8895,-1098.5604 1304.8295,-1088.0187 1299.0842,-1096.9205 1305.8895,-1098.5604"/>
</g>
<!-- n26 -->
<g id="node31" class="node">
<title>n26</title>
<path fill="#ffffff" stroke="#b8860b" stroke-width="2" d="M1490.9906,-560C1490.9906,-560 1314.9906,-560 1314.9906,-560 1308.9906,-560 1302.9906,-554 1302.9906,-548 1302.9906,-548 1302.9906,-520 1302.9906,-520 1302.9906,-514 1308.9906,-508 1314.9906,-508 1314.9906,-508 1490.9906,-508 1490.9906,-508 1496.9906,-508 1502.9906,-514 1502.9906,-520 1502.9906,-520 1502.9906,-548 1502.9906,-548 1502.9906,-554 1496.9906,-560 1490.9906,-560"/>
<text text-anchor="start" x="1374.1001" y="-546" font-family="arial" font-weight="bold" font-size="10.00" fill="#000000">BCL as CAM</text>
<text text-anchor="start" x="1312.6931" y="-529" font-family="arial" font-size="10.00" fill="#000000">The black Culm Limestone is nothing but</text>
<text text-anchor="start" x="1322.1411" y="-517" font-family="arial" font-size="10.00" fill="#000000"> Cambrian in age #GRE #chron&#45;hyp </text>
</g>
<!-- n26&#45;&gt;n20 -->
<g id="edge27" class="edge">
<title>n26&#45;&gt;n20</title>
<path fill="none" stroke="#ff0000" d="M1409.3107,-560.1875C1415.5857,-586.7431 1425.2215,-629.0742 1431.9906,-666 1460.0181,-818.8916 1469.7284,-857.1275 1482.9906,-1012 1488.0097,-1070.6111 1488.6214,-1139.0135 1488.4316,-1179.8476"/>
<polygon fill="#ff0000" stroke="#ff0000" points="1484.9316,-1179.8373 1488.3661,-1189.86 1491.9315,-1179.8831 1484.9316,-1179.8373"/>
</g>
<!-- n26&#45;&gt;n21 -->
<g id="edge28" class="edge">
<title>n26&#45;&gt;n21</title>
<path fill="none" stroke="#ff0000" d="M1415.5327,-507.7355C1430.2645,-476.8854 1454.7673,-425.5737 1471.1462,-391.2742"/>
<polygon fill="#ff0000" stroke="#ff0000" points="1474.3848,-392.6145 1475.5356,-382.0823 1468.068,-389.598 1474.3848,-392.6145"/>
</g>
<!-- n26&#45;&gt;n22 -->
<g id="edge29" class="edge">
<title>n26&#45;&gt;n22</title>
<path fill="none" stroke="#ff0000" d="M1352.7482,-507.9266C1290.7245,-475.7394 1185.3795,-421.0706 1119.4067,-386.834"/>
<polygon fill="#ff0000" stroke="#ff0000" points="1120.8557,-383.6428 1110.3675,-382.1431 1117.6313,-389.856 1120.8557,-383.6428"/>
</g>
<!-- n26&#45;&gt;n23 -->
<g id="edge30" class="edge">
<title>n26&#45;&gt;n23</title>
<path fill="none" stroke="#ff0000" d="M1383.9562,-507.7355C1361.4075,-476.6217 1323.7752,-424.695 1298.9199,-390.3985"/>
<polygon fill="#ff0000" stroke="#ff0000" points="1301.5952,-388.1256 1292.893,-382.0823 1295.9272,-392.2334 1301.5952,-388.1256"/>
</g>
<!-- n26&#45;&gt;n24 -->
<g id="edge31" class="edge">
<title>n26&#45;&gt;n24</title>
<path fill="none" stroke="#00ff00" d="M1412.0583,-560.2933C1425.8548,-604.7011 1447.8312,-696.6909 1420.9906,-768 1407.7817,-803.093 1379.3854,-834.6727 1355.164,-856.9066"/>
<polygon fill="#00ff00" stroke="#00ff00" points="1352.5898,-854.5133 1347.4711,-863.7896 1357.2574,-859.73 1352.5898,-854.5133"/>
</g>
<!-- n26&#45;&gt;n52 -->
<g id="edge80" class="edge">
<title>n26&#45;&gt;n52</title>
<path fill="none" stroke="#00ff00" d="M1478.9758,-507.9289C1521.1593,-494.667 1574.886,-479.7474 1623.9906,-472 2425.3758,-345.5634 2650.9438,-551.3963 3447.9906,-400 3453.8238,-398.892 3459.7516,-397.565 3465.6967,-396.0739"/>
<polygon fill="#00ff00" stroke="#00ff00" points="3466.9362,-399.3662 3475.7046,-393.4192 3465.1414,-392.6002 3466.9362,-399.3662"/>
</g>
<!-- n44&#45;&gt;n24 -->
<g id="edge58" class="edge">
<title>n44&#45;&gt;n24</title>
<path fill="none" stroke="#00ff00" d="M1313.9906,-1011.676C1313.9906,-985.6744 1313.9906,-951.5234 1313.9906,-926.0222"/>
<polygon fill="#00ff00" stroke="#00ff00" points="1317.4907,-926.0182 1313.9906,-916.0183 1310.4907,-926.0183 1317.4907,-926.0182"/>
</g>
<!-- n45&#45;&gt;n26 -->
<g id="edge59" class="edge">
<title>n45&#45;&gt;n26</title>
<path fill="none" stroke="#00ff00" d="M1322.8497,-699.6847C1337.482,-669.4336 1366.9514,-608.5081 1385.7878,-569.5654"/>
<polygon fill="#00ff00" stroke="#00ff00" points="1389.1285,-570.6966 1390.3322,-560.1704 1382.827,-567.6485 1389.1285,-570.6966"/>
</g>
<!-- n46&#45;&gt;n7 -->
<g id="edge37" class="edge">
<title>n46&#45;&gt;n7</title>
<path fill="none" stroke="#ff0000" d="M961.7819,-716.2183C724.1037,-710.8926 133.0513,-691.2018 73.9906,-626.4 -22.53,-520.4969 -26.4688,-406.1743 73.9906,-304 112.6539,-264.6767 2006.1918,-286.3201 2058.9906,-270.4 2077.9549,-264.6818 2096.7864,-254.5532 2113.2427,-243.8139"/>
<polygon fill="#ff0000" stroke="#ff0000" points="2115.2875,-246.6565 2121.62,-238.1624 2111.3726,-240.8535 2115.2875,-246.6565"/>
</g>
<!-- n27 -->
<g id="node35" class="node">
<title>n27</title>
<path fill="#ffffff" stroke="#f5f5dc" stroke-width="2" d="M3884.9906,-1242C3884.9906,-1242 3712.9906,-1242 3712.9906,-1242 3706.9906,-1242 3700.9906,-1236 3700.9906,-1230 3700.9906,-1230 3700.9906,-1202 3700.9906,-1202 3700.9906,-1196 3706.9906,-1190 3712.9906,-1190 3712.9906,-1190 3884.9906,-1190 3884.9906,-1190 3890.9906,-1190 3896.9906,-1196 3896.9906,-1202 3896.9906,-1202 3896.9906,-1230 3896.9906,-1230 3896.9906,-1236 3890.9906,-1242 3884.9906,-1242"/>
<text text-anchor="start" x="3746.2146" y="-1228" font-family="arial" font-weight="bold" font-size="10.00" fill="#000000">Some Non&#45;Culm as CM</text>
<text text-anchor="start" x="3710.9236" y="-1211" font-family="arial" font-size="10.00" fill="#000000">Some part of the non&#45;Culm strata is CM</text>
<text text-anchor="start" x="3747.8661" y="-1199" font-family="arial" font-size="10.00" fill="#000000"> in age #pri #chron&#45;hyp</text>
</g>
<!-- n47 -->
<g id="node42" class="node">
<title>n47</title>
<path fill="#f5f5dc" stroke="#000000" d="M4009.9906,-1086C4009.9906,-1086 3837.9906,-1086 3837.9906,-1086 3831.9906,-1086 3825.9906,-1080 3825.9906,-1074 3825.9906,-1074 3825.9906,-1026 3825.9906,-1026 3825.9906,-1020 3831.9906,-1014 3837.9906,-1014 3837.9906,-1014 4009.9906,-1014 4009.9906,-1014 4015.9906,-1014 4021.9906,-1020 4021.9906,-1026 4021.9906,-1026 4021.9906,-1074 4021.9906,-1074 4021.9906,-1080 4015.9906,-1086 4009.9906,-1086"/>
<text text-anchor="start" x="3850.3556" y="-1072" font-family="arial" font-weight="bold" font-size="10.00" fill="#000000">Standard Sequence as Partition &#45;</text>
<text text-anchor="start" x="3900.1051" y="-1062" font-family="arial" font-weight="bold" font-size="10.00" fill="#000000"> Non&#45;Culm</text>
<text text-anchor="start" x="3841.7531" y="-1047" font-family="arial" font-size="10.00" fill="#000000">If some part of the non&#45;Culm strata is</text>
<text text-anchor="start" x="3835.9151" y="-1035" font-family="arial" font-size="10.00" fill="#000000"> neiter CM, ML, OR nor SIL in age, then</text>
<text text-anchor="start" x="3851.4806" y="-1023" font-family="arial" font-size="10.00" fill="#000000"> it is CAM in age #pri #chron&#45;hyp</text>
</g>
<!-- n27&#45;&gt;n47 -->
<g id="edge38" class="edge">
<title>n27&#45;&gt;n47</title>
<path fill="none" stroke="#ff0000" d="M3818.7973,-1189.6968C3838.0523,-1164.1261 3867.6632,-1124.8028 3890.5688,-1094.3841"/>
<polygon fill="#ff0000" stroke="#ff0000" points="3893.6179,-1096.1533 3896.8374,-1086.0595 3888.026,-1091.9425 3893.6179,-1096.1533"/>
</g>
<!-- n48 -->
<g id="node43" class="node">
<title>n48</title>
<path fill="#b8860b" stroke="#000000" d="M4012.9906,-736C4012.9906,-736 3840.9906,-736 3840.9906,-736 3834.9906,-736 3828.9906,-730 3828.9906,-724 3828.9906,-724 3828.9906,-712 3828.9906,-712 3828.9906,-706 3834.9906,-700 3840.9906,-700 3840.9906,-700 4012.9906,-700 4012.9906,-700 4018.9906,-700 4024.9906,-706 4024.9906,-712 4024.9906,-712 4024.9906,-724 4024.9906,-724 4024.9906,-730 4018.9906,-736 4012.9906,-736"/>
<text text-anchor="start" x="3862.2636" y="-716" font-family="arial" font-weight="bold" font-size="10.00" fill="#000000">Dating the Non&#45;Culm&#45; GRE.1</text>
</g>
<!-- n27&#45;&gt;n48 -->
<g id="edge47" class="edge">
<title>n27&#45;&gt;n48</title>
<path fill="none" stroke="#ff0000" d="M3794.0362,-1189.6076C3783.4042,-1126.3336 3763.2671,-962.1821 3813.9906,-840 3830.6431,-799.8878 3866.7462,-764.7891 3893.6891,-742.6635"/>
<polygon fill="#ff0000" stroke="#ff0000" points="3896.1112,-745.2076 3901.7249,-736.2222 3891.7331,-739.7457 3896.1112,-745.2076"/>
</g>
<!-- n28 -->
<g id="node36" class="node">
<title>n28</title>
<path fill="#ffffff" stroke="#f5f5dc" stroke-width="2" d="M4099.9906,-382C4099.9906,-382 3927.9906,-382 3927.9906,-382 3921.9906,-382 3915.9906,-376 3915.9906,-370 3915.9906,-370 3915.9906,-342 3915.9906,-342 3915.9906,-336 3921.9906,-330 3927.9906,-330 3927.9906,-330 4099.9906,-330 4099.9906,-330 4105.9906,-330 4111.9906,-336 4111.9906,-342 4111.9906,-342 4111.9906,-370 4111.9906,-370 4111.9906,-376 4105.9906,-382 4099.9906,-382"/>
<text text-anchor="start" x="3962.0446" y="-368" font-family="arial" font-weight="bold" font-size="10.00" fill="#000000">Some Non&#45;Culm as ML</text>
<text text-anchor="start" x="3926.7536" y="-351" font-family="arial" font-size="10.00" fill="#000000">Some part of the non&#45;Culm strata is ML</text>
<text text-anchor="start" x="3962.8661" y="-339" font-family="arial" font-size="10.00" fill="#000000"> in age #pri #chron&#45;hyp</text>
</g>
<!-- n28&#45;&gt;n47 -->
<g id="edge39" class="edge">
<title>n28&#45;&gt;n47</title>
<path fill="none" stroke="#ff0000" d="M4016.3156,-382.0937C4025.9493,-492.4422 4060.992,-917.5313 4033.9906,-970.4 4026.621,-984.8297 4015.279,-997.2491 4002.629,-1007.6975"/>
<polygon fill="#ff0000" stroke="#ff0000" points="4000.3437,-1005.0411 3994.6074,-1013.9487 4004.6466,-1010.5625 4000.3437,-1005.0411"/>
</g>
<!-- n28&#45;&gt;n48 -->
<g id="edge48" class="edge">
<title>n28&#45;&gt;n48</title>
<path fill="none" stroke="#ff0000" d="M4014.6822,-382.1651C4015.189,-431.4069 4012.5123,-540.6138 3982.9906,-626.4 3974.8817,-649.9635 3959.969,-673.8983 3947.5706,-691.3897"/>
<polygon fill="#ff0000" stroke="#ff0000" points="3944.4215,-689.7686 3941.3656,-699.9132 3950.0807,-693.8885 3944.4215,-689.7686"/>
</g>
<!-- n29 -->
<g id="node37" class="node">
<title>n29</title>
<path fill="#ffffff" stroke="#f5f5dc" stroke-width="2" d="M3885.9906,-382C3885.9906,-382 3707.9906,-382 3707.9906,-382 3701.9906,-382 3695.9906,-376 3695.9906,-370 3695.9906,-370 3695.9906,-342 3695.9906,-342 3695.9906,-336 3701.9906,-330 3707.9906,-330 3707.9906,-330 3885.9906,-330 3885.9906,-330 3891.9906,-330 3897.9906,-336 3897.9906,-342 3897.9906,-342 3897.9906,-370 3897.9906,-370 3897.9906,-376 3891.9906,-382 3885.9906,-382"/>
<text text-anchor="start" x="3741.1551" y="-368" font-family="arial" font-weight="bold" font-size="10.00" fill="#000000">Some Non&#45;Culm as ORS</text>
<text text-anchor="start" x="3705.8641" y="-351" font-family="arial" font-size="10.00" fill="#000000">Some part of the non&#45;Culm strata is ORS</text>
<text text-anchor="start" x="3745.8661" y="-339" font-family="arial" font-size="10.00" fill="#000000"> in age #pri #chron&#45;hyp</text>
</g>
<!-- n29&#45;&gt;n47 -->
<g id="edge40" class="edge">
<title>n29&#45;&gt;n47</title>
<path fill="none" stroke="#ff0000" d="M3784.1131,-382.4248C3773.6483,-405.4555 3759.7169,-440.0777 3753.9906,-472 3741.8745,-539.5441 3748.0731,-558.0334 3753.9906,-626.4 3767.3738,-781.0189 3731.7452,-838.7876 3813.9906,-970.4 3822.8357,-984.5543 3835.2027,-996.9681 3848.4668,-1007.5215"/>
<polygon fill="#ff0000" stroke="#ff0000" points="3846.7343,-1010.6001 3856.8181,-1013.851 3850.9625,-1005.0213 3846.7343,-1010.6001"/>
</g>
<!-- n29&#45;&gt;n48 -->
<g id="edge49" class="edge">
<title>n29&#45;&gt;n48</title>
<path fill="none" stroke="#ff0000" d="M3863.3096,-382.0469C3901.3831,-400.8508 3945.8989,-430.3187 3967.9906,-472 3984.0587,-502.3162 3975.1575,-592.8457 3967.9906,-626.4 3963.139,-649.1148 3952.2219,-673.0124 3942.8722,-690.701"/>
<polygon fill="#ff0000" stroke="#ff0000" points="3939.6021,-689.3871 3937.8876,-699.8423 3945.7479,-692.7383 3939.6021,-689.3871"/>
</g>
<!-- n30 -->
<g id="node38" class="node">
<title>n30</title>
<path fill="#ffffff" stroke="#f5f5dc" stroke-width="2" d="M4313.9906,-382C4313.9906,-382 4141.9906,-382 4141.9906,-382 4135.9906,-382 4129.9906,-376 4129.9906,-370 4129.9906,-370 4129.9906,-342 4129.9906,-342 4129.9906,-336 4135.9906,-330 4141.9906,-330 4141.9906,-330 4313.9906,-330 4313.9906,-330 4319.9906,-330 4325.9906,-336 4325.9906,-342 4325.9906,-342 4325.9906,-370 4325.9906,-370 4325.9906,-376 4319.9906,-382 4313.9906,-382"/>
<text text-anchor="start" x="4175.4851" y="-368" font-family="arial" font-weight="bold" font-size="10.00" fill="#000000">Some Non&#45;Culm as SIL</text>
<text text-anchor="start" x="4140.1941" y="-351" font-family="arial" font-size="10.00" fill="#000000">Some part of the non&#45;Culm strata is SIL</text>
<text text-anchor="start" x="4176.8661" y="-339" font-family="arial" font-size="10.00" fill="#000000"> in age #pri #chron&#45;hyp</text>
</g>
<!-- n30&#45;&gt;n47 -->
<g id="edge41" class="edge">
<title>n30&#45;&gt;n47</title>
<path fill="none" stroke="#ff0000" d="M4239.0447,-382.016C4265.8672,-449.2663 4327.94,-633.0345 4267.9906,-768 4217.5547,-881.5477 4094.6433,-963.7552 4010.2741,-1009.1671"/>
<polygon fill="#ff0000" stroke="#ff0000" points="4008.3981,-1006.2005 4001.2105,-1013.9843 4011.6834,-1012.3817 4008.3981,-1006.2005"/>
</g>
<!-- n30&#45;&gt;n48 -->
<g id="edge50" class="edge">
<title>n30&#45;&gt;n48</title>
<path fill="none" stroke="#ff0000" d="M4206.2612,-382.1331C4150.8365,-448.79 4004.6585,-624.5921 3948.9662,-691.5709"/>
<polygon fill="#ff0000" stroke="#ff0000" points="3946.0334,-689.6238 3942.3311,-699.5507 3951.4158,-694.0992 3946.0334,-689.6238"/>
</g>
<!-- n31 -->
<g id="node39" class="node">
<title>n31</title>
<path fill="#ffffff" stroke="#f5f5dc" stroke-width="2" d="M4012.9906,-916C4012.9906,-916 3834.9906,-916 3834.9906,-916 3828.9906,-916 3822.9906,-910 3822.9906,-904 3822.9906,-904 3822.9906,-876 3822.9906,-876 3822.9906,-870 3828.9906,-864 3834.9906,-864 3834.9906,-864 4012.9906,-864 4012.9906,-864 4018.9906,-864 4024.9906,-870 4024.9906,-876 4024.9906,-876 4024.9906,-904 4024.9906,-904 4024.9906,-910 4018.9906,-916 4012.9906,-916"/>
<text text-anchor="start" x="3867.8801" y="-902" font-family="arial" font-weight="bold" font-size="10.00" fill="#000000">Some Non&#45;Culm as CAM</text>
<text text-anchor="start" x="3832.5891" y="-885" font-family="arial" font-size="10.00" fill="#000000">Some part of the non&#45;Culm strata is CAM</text>
<text text-anchor="start" x="3872.8661" y="-873" font-family="arial" font-size="10.00" fill="#000000"> in age #pri #chron&#45;hyp</text>
</g>
<!-- n31&#45;&gt;n48 -->
<g id="edge81" class="edge">
<title>n31&#45;&gt;n48</title>
<path fill="none" stroke="#00ff00" d="M3924.4463,-863.8769C3924.9971,-832.299 3925.9208,-779.3392 3926.4907,-746.6633"/>
<polygon fill="#00ff00" stroke="#00ff00" points="3929.9943,-746.4793 3926.6694,-736.4198 3922.9954,-746.3572 3929.9943,-746.4793"/>
</g>
<!-- n49 -->
<g id="node44" class="node">
<title>n49</title>
<path fill="#b8860b" stroke="#000000" d="M4246.9906,-762C4246.9906,-762 4074.9906,-762 4074.9906,-762 4068.9906,-762 4062.9906,-756 4062.9906,-750 4062.9906,-750 4062.9906,-686 4062.9906,-686 4062.9906,-680 4068.9906,-674 4074.9906,-674 4074.9906,-674 4246.9906,-674 4246.9906,-674 4252.9906,-674 4258.9906,-680 4258.9906,-686 4258.9906,-686 4258.9906,-750 4258.9906,-750 4258.9906,-756 4252.9906,-762 4246.9906,-762"/>
<text text-anchor="start" x="4101.2761" y="-748" font-family="arial" font-weight="bold" font-size="10.00" fill="#000000">Non&#45;Culm as CAM &#45; CRTP</text>
<text text-anchor="start" x="4077.9081" y="-731" font-family="arial" font-size="10.00" fill="#000000">If strata can be identified by means of</text>
<text text-anchor="start" x="4079.3066" y="-719" font-family="arial" font-size="10.00" fill="#000000"> their characteristic rock type and the</text>
<text text-anchor="start" x="4078.1981" y="-707" font-family="arial" font-size="10.00" fill="#000000"> non&#45;Culm strata are not CAM in age,</text>
<text text-anchor="start" x="4085.6911" y="-695" font-family="arial" font-size="10.00" fill="#000000"> then they are not of characteristic</text>
<text text-anchor="start" x="4105.7001" y="-683" font-family="arial" font-size="10.00" fill="#000000"> CAM appearance #GRE</text>
</g>
<!-- n31&#45;&gt;n49 -->
<g id="edge51" class="edge">
<title>n31&#45;&gt;n49</title>
<path fill="none" stroke="#ff0000" d="M3959.9858,-863.8769C3994.8999,-838.5384 4048.7837,-799.4329 4091.9758,-768.0867"/>
<polygon fill="#ff0000" stroke="#ff0000" points="4094.1482,-770.8348 4100.1857,-762.1285 4090.0367,-765.1695 4094.1482,-770.8348"/>
</g>
<!-- n32 -->
<g id="node40" class="node">
<title>n32</title>
<path fill="#ffffff" stroke="#f5f5dc" stroke-width="2" d="M4104.4906,-1248C4104.4906,-1248 3927.4906,-1248 3927.4906,-1248 3921.4906,-1248 3915.4906,-1242 3915.4906,-1236 3915.4906,-1236 3915.4906,-1196 3915.4906,-1196 3915.4906,-1190 3921.4906,-1184 3927.4906,-1184 3927.4906,-1184 4104.4906,-1184 4104.4906,-1184 4110.4906,-1184 4116.4906,-1190 4116.4906,-1196 4116.4906,-1196 4116.4906,-1236 4116.4906,-1236 4116.4906,-1242 4110.4906,-1248 4104.4906,-1248"/>
<text text-anchor="start" x="3925.9371" y="-1234" font-family="arial" font-weight="bold" font-size="10.00" fill="#000000">Non&#45;Culm as Post&#45;Primary and Pre&#45;NRS</text>
<text text-anchor="start" x="3938.6971" y="-1217" font-family="arial" font-size="10.00" fill="#000000">The non&#45;Culm strata are older than</text>
<text text-anchor="start" x="3932.3071" y="-1205" font-family="arial" font-size="10.00" fill="#000000"> Primary strata and younger than New</text>
<text text-anchor="start" x="3930.6321" y="-1193" font-family="arial" font-size="10.00" fill="#000000"> Red Sandstone strata #pri #chron&#45;hyp</text>
</g>
<!-- n32&#45;&gt;n47 -->
<g id="edge82" class="edge">
<title>n32&#45;&gt;n47</title>
<path fill="none" stroke="#00ff00" d="M3998.2521,-1183.9935C3984.2587,-1158.7445 3964.5683,-1123.2163 3948.9789,-1095.0874"/>
<polygon fill="#00ff00" stroke="#00ff00" points="3951.9827,-1093.287 3944.0738,-1086.2371 3945.8601,-1096.6803 3951.9827,-1093.287"/>
</g>
<!-- n33 -->
<g id="node41" class="node">
<title>n33</title>
<path fill="#ffffff" stroke="#b8860b" stroke-width="2" d="M3946.9906,-560C3946.9906,-560 3774.9906,-560 3774.9906,-560 3768.9906,-560 3762.9906,-554 3762.9906,-548 3762.9906,-548 3762.9906,-520 3762.9906,-520 3762.9906,-514 3768.9906,-508 3774.9906,-508 3774.9906,-508 3946.9906,-508 3946.9906,-508 3952.9906,-508 3958.9906,-514 3958.9906,-520 3958.9906,-520 3958.9906,-548 3958.9906,-548 3958.9906,-554 3952.9906,-560 3946.9906,-560"/>
<text text-anchor="start" x="3819.3276" y="-546" font-family="arial" font-weight="bold" font-size="10.00" fill="#000000">Non&#45;Culm as CAM</text>
<text text-anchor="start" x="3784.3066" y="-529" font-family="arial" font-size="10.00" fill="#000000">The non&#45;Culm strata is nothing but</text>
<text text-anchor="start" x="3780.1411" y="-517" font-family="arial" font-size="10.00" fill="#000000"> Cambrian in age #GRE #chron&#45;hyp </text>
</g>
<!-- n33&#45;&gt;n27 -->
<g id="edge42" class="edge">
<title>n33&#45;&gt;n27</title>
<path fill="none" stroke="#ff0000" d="M3847.846,-560.1134C3835.2312,-586.2624 3816.5789,-627.9726 3805.9906,-666 3753.3746,-854.9688 3757.5933,-911.2042 3776.9906,-1106.4 3779.448,-1131.1287 3784.9512,-1158.5397 3789.8384,-1179.763"/>
<polygon fill="#ff0000" stroke="#ff0000" points="3786.4675,-1180.7179 3792.172,-1189.6458 3793.2801,-1179.1091 3786.4675,-1180.7179"/>
</g>
<!-- n33&#45;&gt;n28 -->
<g id="edge43" class="edge">
<title>n33&#45;&gt;n28</title>
<path fill="none" stroke="#ff0000" d="M3883.5663,-507.7355C3910.4235,-476.4899 3955.3224,-424.2546 3984.7973,-389.9635"/>
<polygon fill="#ff0000" stroke="#ff0000" points="3987.7074,-391.9473 3991.5716,-382.0823 3982.3989,-387.3844 3987.7074,-391.9473"/>
</g>
<!-- n33&#45;&gt;n29 -->
<g id="edge44" class="edge">
<title>n33&#45;&gt;n29</title>
<path fill="none" stroke="#ff0000" d="M3851.5472,-507.7355C3840.5025,-477.0172 3822.1634,-426.0118 3809.832,-391.7149"/>
<polygon fill="#ff0000" stroke="#ff0000" points="3813.0456,-390.3083 3806.3686,-382.0823 3806.4585,-392.6768 3813.0456,-390.3083"/>
</g>
<!-- n33&#45;&gt;n30 -->
<g id="edge45" class="edge">
<title>n33&#45;&gt;n30</title>
<path fill="none" stroke="#ff0000" d="M3914.7486,-507.9266C3981.2479,-475.6736 4094.2894,-420.8469 4164.8497,-386.6242"/>
<polygon fill="#ff0000" stroke="#ff0000" points="4166.6187,-389.6563 4174.0888,-382.1431 4163.5639,-383.358 4166.6187,-389.6563"/>
</g>
<!-- n33&#45;&gt;n31 -->
<g id="edge46" class="edge">
<title>n33&#45;&gt;n31</title>
<path fill="none" stroke="#00ff00" d="M3847.8502,-560.0618C3827.4958,-604.1284 3793.33,-695.6285 3819.9906,-768 3832.839,-802.8774 3860.5845,-834.5667 3884.1879,-856.9027"/>
<polygon fill="#00ff00" stroke="#00ff00" points="3881.959,-859.6085 3891.6816,-863.8182 3886.7063,-854.4642 3881.959,-859.6085"/>
</g>
<!-- n33&#45;&gt;n52 -->
<g id="edge83" class="edge">
<title>n33&#45;&gt;n52</title>
<path fill="none" stroke="#00ff00" d="M3818.951,-507.9266C3773.062,-479.4658 3698.8319,-433.4277 3644.0961,-399.48"/>
<polygon fill="#00ff00" stroke="#00ff00" points="3645.8291,-396.4364 3635.4861,-394.14 3642.1396,-402.3851 3645.8291,-396.4364"/>
</g>
<!-- n47&#45;&gt;n31 -->
<g id="edge60" class="edge">
<title>n47&#45;&gt;n31</title>
<path fill="none" stroke="#00ff00" d="M3923.9906,-1013.6935C3923.9906,-987.6 3923.9906,-952.5605 3923.9906,-926.4372"/>
<polygon fill="#00ff00" stroke="#00ff00" points="3927.4907,-926.194 3923.9906,-916.1941 3920.4907,-926.1941 3927.4907,-926.194"/>
</g>
<!-- n48&#45;&gt;n33 -->
<g id="edge61" class="edge">
<title>n48&#45;&gt;n33</title>
<path fill="none" stroke="#00ff00" d="M3920.421,-699.6847C3909.616,-669.5617 3887.9014,-609.0238 3873.9258,-570.0616"/>
<polygon fill="#00ff00" stroke="#00ff00" points="3877.0487,-568.4014 3870.3778,-560.1704 3870.4597,-570.7649 3877.0487,-568.4014"/>
</g>
<!-- n49&#45;&gt;n7 -->
<g id="edge52" class="edge">
<title>n49&#45;&gt;n7</title>
<path fill="none" stroke="#ff0000" d="M4207.2253,-673.9674C4288.8223,-591.1644 4440.2472,-410.9856 4334.9906,-304 4294.8151,-263.1645 2327.8423,-286.9201 2272.9906,-270.4 2254.0246,-264.6878 2235.1926,-254.561 2218.7363,-243.8215"/>
<polygon fill="#ff0000" stroke="#ff0000" points="2220.6064,-240.8611 2210.3591,-238.1697 2216.6914,-246.664 2220.6064,-240.8611"/>
</g>
<!-- n34 -->
<g id="node45" class="node">
<title>n34</title>
<path fill="#ffffff" stroke="#b8860b" stroke-width="2" d="M715.9906,-566C715.9906,-566 543.9906,-566 543.9906,-566 537.9906,-566 531.9906,-560 531.9906,-554 531.9906,-554 531.9906,-514 531.9906,-514 531.9906,-508 537.9906,-502 543.9906,-502 543.9906,-502 715.9906,-502 715.9906,-502 721.9906,-502 727.9906,-508 727.9906,-514 727.9906,-514 727.9906,-554 727.9906,-554 727.9906,-560 721.9906,-566 715.9906,-566"/>
<text text-anchor="start" x="581.9346" y="-552" font-family="arial" font-weight="bold" font-size="10.00" fill="#000000">Traversing Northward</text>
<text text-anchor="start" x="550.5251" y="-535" font-family="arial" font-size="10.00" fill="#000000">The strata south of Exmoor become</text>
<text text-anchor="start" x="547.4666" y="-523" font-family="arial" font-size="10.00" fill="#000000"> progessively younger the furhter one</text>
<text text-anchor="start" x="543.0311" y="-511" font-family="arial" font-size="10.00" fill="#000000"> traverses northward #GRE #chron&#45;hyp</text>
</g>
<!-- n34&#45;&gt;n50 -->
<g id="edge84" class="edge">
<title>n34&#45;&gt;n50</title>
<path fill="none" stroke="#00ff00" d="M629.9906,-501.7655C629.9906,-476.3139 629.9906,-440.2322 629.9906,-410.3357"/>
<polygon fill="#00ff00" stroke="#00ff00" points="633.4907,-410.0464 629.9906,-400.0464 626.4907,-410.0465 633.4907,-410.0464"/>
</g>
<!-- n35 -->
<g id="node46" class="node">
<title>n35</title>
<path fill="#ffffff" stroke="#b8860b" stroke-width="2" d="M501.4906,-596C501.4906,-596 316.4906,-596 316.4906,-596 310.4906,-596 304.4906,-590 304.4906,-584 304.4906,-584 304.4906,-484 304.4906,-484 304.4906,-478 310.4906,-472 316.4906,-472 316.4906,-472 501.4906,-472 501.4906,-472 507.4906,-472 513.4906,-478 513.4906,-484 513.4906,-484 513.4906,-584 513.4906,-584 513.4906,-590 507.4906,-596 501.4906,-596"/>
<text text-anchor="start" x="329.4701" y="-582" font-family="arial" font-weight="bold" font-size="10.00" fill="#000000">Exmoor Trough as Best Explanation</text>
<text text-anchor="start" x="336.4101" y="-565" font-family="arial" font-size="10.00" fill="#000000">Assuming that the strata south of</text>
<text text-anchor="start" x="314.7466" y="-553" font-family="arial" font-size="10.00" fill="#000000"> Exmoor become progessively younger the</text>
<text text-anchor="start" x="328.6371" y="-541" font-family="arial" font-size="10.00" fill="#000000"> furhter one traverses northward and</text>
<text text-anchor="start" x="332.8076" y="-529" font-family="arial" font-size="10.00" fill="#000000"> that, originally, younger strata rest</text>
<text text-anchor="start" x="330.2916" y="-517" font-family="arial" font-size="10.00" fill="#000000"> upon older ones, the existence of a</text>
<text text-anchor="start" x="328.3576" y="-505" font-family="arial" font-size="10.00" fill="#000000"> trough running trough Exmoor is the</text>
<text text-anchor="start" x="331.1276" y="-493" font-family="arial" font-size="10.00" fill="#000000"> best explanation of the strata north</text>
<text text-anchor="start" x="330.5811" y="-481" font-family="arial" font-size="10.00" fill="#000000"> of Exmoor being older &#160;#GRE #aux</text>
</g>
<!-- n35&#45;&gt;n50 -->
<g id="edge85" class="edge">
<title>n35&#45;&gt;n50</title>
<path fill="none" stroke="#00ff00" d="M485.9755,-471.9941C512.5033,-450.6278 541.8776,-426.9689 567.1414,-406.6207"/>
<polygon fill="#00ff00" stroke="#00ff00" points="569.5981,-409.1361 575.1907,-400.1375 565.2072,-403.6845 569.5981,-409.1361"/>
</g>
<!-- n36 -->
<g id="node47" class="node">
<title>n36</title>
<path fill="#ffffff" stroke="#b8860b" stroke-width="2" d="M273.9906,-572C273.9906,-572 97.9906,-572 97.9906,-572 91.9906,-572 85.9906,-566 85.9906,-560 85.9906,-560 85.9906,-508 85.9906,-508 85.9906,-502 91.9906,-496 97.9906,-496 97.9906,-496 273.9906,-496 273.9906,-496 279.9906,-496 285.9906,-502 285.9906,-508 285.9906,-508 285.9906,-560 285.9906,-560 285.9906,-566 279.9906,-572 273.9906,-572"/>
<text text-anchor="start" x="109.8591" y="-558" font-family="arial" font-weight="bold" font-size="10.00" fill="#000000">Exmoor Youngest Devonian strata</text>
<text text-anchor="start" x="106.8026" y="-541" font-family="arial" font-size="10.00" fill="#000000">In Devon, among all the strata older</text>
<text text-anchor="start" x="95.6791" y="-529" font-family="arial" font-size="10.00" fill="#000000"> than the New Red Sandstone, the strata</text>
<text text-anchor="start" x="108.1901" y="-517" font-family="arial" font-size="10.00" fill="#000000"> of Exmoor are the youngest #GRE</text>
<text text-anchor="start" x="159.5951" y="-505" font-family="arial" font-size="10.00" fill="#000000"> #chron&#45;hyp</text>
</g>
<!-- n51 -->
<g id="node49" class="node">
<title>n51</title>
<path fill="#b8860b" stroke="#000000" d="M501.9906,-400C501.9906,-400 329.9906,-400 329.9906,-400 323.9906,-400 317.9906,-394 317.9906,-388 317.9906,-388 317.9906,-324 317.9906,-324 317.9906,-318 323.9906,-312 329.9906,-312 329.9906,-312 501.9906,-312 501.9906,-312 507.9906,-312 513.9906,-318 513.9906,-324 513.9906,-324 513.9906,-388 513.9906,-388 513.9906,-394 507.9906,-400 501.9906,-400"/>
<text text-anchor="start" x="351.8076" y="-386" font-family="arial" font-weight="bold" font-size="10.00" fill="#000000">Exmoor and Devonian Strata</text>
<text text-anchor="start" x="340.9756" y="-369" font-family="arial" font-size="10.00" fill="#000000">Assuming that, originally, younger</text>
<text text-anchor="start" x="335.1331" y="-357" font-family="arial" font-size="10.00" fill="#000000"> strata rest upon older ones, it holds:</text>
<text text-anchor="start" x="349.3051" y="-345" font-family="arial" font-size="10.00" fill="#000000"> If the Exmoor strata is not the</text>
<text text-anchor="start" x="341.5161" y="-333" font-family="arial" font-size="10.00" fill="#000000"> youngest, then there is no trough</text>
<text text-anchor="start" x="362.6456" y="-321" font-family="arial" font-size="10.00" fill="#000000"> through Exmoor &#160;#GRE</text>
</g>
<!-- n36&#45;&gt;n51 -->
<g id="edge53" class="edge">
<title>n36&#45;&gt;n51</title>
<path fill="none" stroke="#ff0000" d="M235.3314,-495.8145C269.0779,-469.6977 314.1685,-434.8015 350.8595,-406.4058"/>
<polygon fill="#ff0000" stroke="#ff0000" points="353.2655,-408.9696 359.0317,-400.0813 348.9812,-403.4337 353.2655,-408.9696"/>
</g>
<!-- n50&#45;&gt;n5 -->
<g id="edge62" class="edge">
<title>n50&#45;&gt;n5</title>
<path fill="none" stroke="#00ff00" d="M728.1423,-333.7715C853.9617,-305.2771 1071.3949,-256.0349 1201.8529,-226.49"/>
<polygon fill="#00ff00" stroke="#00ff00" points="1202.8888,-229.8441 1211.8688,-224.2217 1201.3427,-223.017 1202.8888,-229.8441"/>
</g>
<!-- n51&#45;&gt;n5 -->
<g id="edge54" class="edge">
<title>n51&#45;&gt;n5</title>
<path fill="none" stroke="#ff0000" d="M500.2596,-311.9898C507.8267,-308.9761 515.4713,-306.249 522.9906,-304 758.3131,-233.6156 1047.5529,-211.7953 1201.4884,-205.0336"/>
<polygon fill="#ff0000" stroke="#ff0000" points="1202.0407,-208.5134 1211.8827,-204.591 1201.7428,-201.5197 1202.0407,-208.5134"/>
</g>
<!-- n37 -->
<g id="node50" class="node">
<title>n37</title>
<path fill="#ffffff" stroke="#f5f5dc" stroke-width="2" d="M3659.9906,-572C3659.9906,-572 3487.9906,-572 3487.9906,-572 3481.9906,-572 3475.9906,-566 3475.9906,-560 3475.9906,-560 3475.9906,-508 3475.9906,-508 3475.9906,-502 3481.9906,-496 3487.9906,-496 3487.9906,-496 3659.9906,-496 3659.9906,-496 3665.9906,-496 3671.9906,-502 3671.9906,-508 3671.9906,-508 3671.9906,-560 3671.9906,-560 3671.9906,-566 3665.9906,-572 3659.9906,-572"/>
<text text-anchor="start" x="3510.9086" y="-558" font-family="arial" font-weight="bold" font-size="10.00" fill="#000000">Gap in a Sequence of Strata</text>
<text text-anchor="start" x="3492.2971" y="-541" font-family="arial" font-size="10.00" fill="#000000">There is a gap in a local sequence of</text>
<text text-anchor="start" x="3518.1441" y="-529" font-family="arial" font-size="10.00" fill="#000000"> strata, iff there are strata</text>
<text text-anchor="start" x="3492.0136" y="-517" font-family="arial" font-size="10.00" fill="#000000"> juxtaposed belonging to different but</text>
<text text-anchor="start" x="3488.4161" y="-505" font-family="arial" font-size="10.00" fill="#000000"> not successive geological periods #pri</text>
</g>
<!-- n37&#45;&gt;n52 -->
<g id="edge86" class="edge">
<title>n37&#45;&gt;n52</title>
<path fill="none" stroke="#00ff00" d="M3573.9906,-495.8145C3573.9906,-469.0664 3573.9906,-433.1094 3573.9906,-404.3584"/>
<polygon fill="#00ff00" stroke="#00ff00" points="3577.4907,-404.1223 3573.9906,-394.1223 3570.4907,-404.1223 3577.4907,-404.1223"/>
</g>
<!-- n52&#45;&gt;n2 -->
<g id="edge63" class="edge">
<title>n52&#45;&gt;n2</title>
<path fill="none" stroke="#00ff00" d="M3491.4578,-317.8923C3477.2012,-312.4861 3462.3454,-307.5633 3447.9906,-304 3268.0833,-259.3418 2722.314,-222.4672 2488.3573,-208.2691"/>
<polygon fill="#00ff00" stroke="#00ff00" points="2488.3251,-204.7608 2478.1321,-207.6509 2487.9026,-211.7481 2488.3251,-204.7608"/>
</g>
<!-- n0 -->
<g id="node52" class="node">
<title>n0</title>
<path fill="#ffffff" stroke="#f5f5dc" stroke-width="2" d="M2668.9906,-1272C2668.9906,-1272 2496.9906,-1272 2496.9906,-1272 2490.9906,-1272 2484.9906,-1266 2484.9906,-1260 2484.9906,-1260 2484.9906,-1172 2484.9906,-1172 2484.9906,-1166 2490.9906,-1160 2496.9906,-1160 2496.9906,-1160 2668.9906,-1160 2668.9906,-1160 2674.9906,-1160 2680.9906,-1166 2680.9906,-1172 2680.9906,-1172 2680.9906,-1260 2680.9906,-1260 2680.9906,-1266 2674.9906,-1272 2668.9906,-1272"/>
<text text-anchor="start" x="2538.8036" y="-1258" font-family="arial" font-weight="bold" font-size="10.00" fill="#000000">Standard Sequence</text>
<text text-anchor="start" x="2501.8526" y="-1241" font-family="arial" font-size="10.00" fill="#000000">Given the strata are undisturbed, the</text>
<text text-anchor="start" x="2516.3191" y="-1229" font-family="arial" font-size="10.00" fill="#000000"> Primary strata are overlain by</text>
<text text-anchor="start" x="2502.1486" y="-1217" font-family="arial" font-size="10.00" fill="#000000"> Cambrian strata, Silurian strata, Old</text>
<text text-anchor="start" x="2509.9101" y="-1205" font-family="arial" font-size="10.00" fill="#000000"> Red Sandstone strata, Mountain</text>
<text text-anchor="start" x="2508.2546" y="-1193" font-family="arial" font-size="10.00" fill="#000000"> Limestone strata, Coal Measures</text>
<text text-anchor="start" x="2496.8526" y="-1181" font-family="arial" font-size="10.00" fill="#000000"> strata, New Red Sandstone strata and</text>
<text text-anchor="start" x="2516.5941" y="-1169" font-family="arial" font-size="10.00" fill="#000000"> Oolitic stata, respectively #pri</text>
</g>
<!-- n0&#45;&gt;n41 -->
<g id="edge65" class="edge">
<title>n0&#45;&gt;n41</title>
<path fill="none" stroke="#00ff00" d="M2681.0517,-1202.1732C2883.181,-1171.4548 3334.8275,-1090.6197 3424.9906,-970.4 3459.7636,-924.0352 3461.2375,-885.2218 3424.9906,-840 3371.1351,-772.8096 3130.2574,-740.2095 2986.7228,-726.4878"/>
<polygon fill="#00ff00" stroke="#00ff00" points="2986.8442,-722.9839 2976.5605,-725.5322 2986.1889,-729.9531 2986.8442,-722.9839"/>
</g>
<!-- n0&#45;&gt;n40 -->
<g id="edge64" class="edge">
<title>n0&#45;&gt;n40</title>
<path fill="none" stroke="#00ff00" d="M2484.6347,-1203.5538C2266.2362,-1173.9477 1750.6718,-1092.5499 1630.9906,-970.4 1605.2938,-944.1731 1611.9906,-926.7176 1611.9906,-890 1611.9906,-890 1611.9906,-890 1611.9906,-718 1611.9906,-608.341 1587.1718,-572.5236 1630.9906,-472 1641.4773,-447.9429 1659.0961,-425.6487 1677.0419,-407.1661"/>
<polygon fill="#00ff00" stroke="#00ff00" points="1679.5977,-409.56 1684.1899,-400.012 1674.6459,-404.6123 1679.5977,-409.56"/>
</g>
<!-- n0&#45;&gt;n44 -->
<g id="edge66" class="edge">
<title>n0&#45;&gt;n44</title>
<path fill="none" stroke="#00ff00" d="M2484.7603,-1207.8642C2307.1574,-1192.5337 1921.0687,-1156.3616 1597.9906,-1106.4 1539.653,-1097.3785 1475.0766,-1084.7659 1422.2606,-1073.7551"/>
<polygon fill="#00ff00" stroke="#00ff00" points="1422.7054,-1070.2723 1412.2002,-1071.6475 1421.27,-1077.1236 1422.7054,-1070.2723"/>
</g>
<!-- n0&#45;&gt;n47 -->
<g id="edge67" class="edge">
<title>n0&#45;&gt;n47</title>
<path fill="none" stroke="#00ff00" d="M2681.0087,-1204.125C2845.6756,-1184.1466 3188.2738,-1142.4574 3477.9906,-1106.4 3593.3268,-1092.0456 3725.3986,-1075.3064 3815.7075,-1063.8143"/>
<polygon fill="#00ff00" stroke="#00ff00" points="3816.2066,-1067.2791 3825.6847,-1062.5444 3815.3227,-1060.3351 3816.2066,-1067.2791"/>
</g>
<!-- n1 -->
<g id="node53" class="node">
<title>n1</title>
<path fill="#ffffff" stroke="#f5f5dc" stroke-width="2" d="M933.9906,-572C933.9906,-572 757.9906,-572 757.9906,-572 751.9906,-572 745.9906,-566 745.9906,-560 745.9906,-560 745.9906,-508 745.9906,-508 745.9906,-502 751.9906,-496 757.9906,-496 757.9906,-496 933.9906,-496 933.9906,-496 939.9906,-496 945.9906,-502 945.9906,-508 945.9906,-508 945.9906,-560 945.9906,-560 945.9906,-566 939.9906,-572 933.9906,-572"/>
<text text-anchor="start" x="804.0396" y="-558" font-family="arial" font-weight="bold" font-size="10.00" fill="#000000">Formation of strata</text>
<text text-anchor="start" x="774.5966" y="-541" font-family="arial" font-size="10.00" fill="#000000">Strata are originally formed from</text>
<text text-anchor="start" x="763.4681" y="-529" font-family="arial" font-size="10.00" fill="#000000"> sediments that were deposited in flat</text>
<text text-anchor="start" x="775.9696" y="-517" font-family="arial" font-size="10.00" fill="#000000"> horizontal sheets &#45; the younger</text>
<text text-anchor="start" x="755.9636" y="-505" font-family="arial" font-size="10.00" fill="#000000"> sediments deposited on older ones. #pri</text>
</g>
<!-- n1&#45;&gt;n50 -->
<g id="edge68" class="edge">
<title>n1&#45;&gt;n50</title>
<path fill="none" stroke="#00ff00" d="M799.6532,-495.8145C768.0941,-469.8075 725.9706,-435.0946 691.592,-406.7641"/>
<polygon fill="#00ff00" stroke="#00ff00" points="693.4256,-403.7398 683.4825,-400.0813 688.9739,-409.1419 693.4256,-403.7398"/>
</g>
<!-- n1&#45;&gt;n51 -->
<g id="edge69" class="edge">
<title>n1&#45;&gt;n51</title>
<path fill="none" stroke="#00ff00" d="M785.7709,-495.862C771.1028,-487.3948 755.239,-478.8976 739.9906,-472 650.3009,-431.4288 620.144,-435.0638 523.6795,-400.1685"/>
<polygon fill="#00ff00" stroke="#00ff00" points="524.7267,-396.8247 514.133,-396.6685 522.3171,-403.3969 524.7267,-396.8247"/>
</g>
</g>
</svg>
