
<!-- Generated by graphviz version 2.40.1 (20161225.0304)
 -->
<!-- Title: Argument Map Pages: 1 -->
<svg width="720pt" height="188pt"
 viewBox="0.00 0.00 720.00 188.49" xmlns="http://www.w3.org/2000/svg" xmlns:xlink="http://www.w3.org/1999/xlink">
<g id="graph0" class="graph" transform="scale(.1644 .1644) rotate(0) translate(4 1142.4)">
<title>Argument Map</title>
<g id="clust1" class="cluster">
<title>cluster_1</title>
<polygon fill="#ffff00" stroke="#ffff00" points="1203.9906,-8 1203.9906,-122.4 2485.9906,-122.4 2485.9906,-8 1203.9906,-8"/>
<text text-anchor="start" x="1820.3162" y="-107.6" font-family="arial" font-size="12.00" fill="#000000">Evidence</text>
</g>
<g id="clust2" class="cluster">
<title>cluster_2</title>
<polygon fill="#b9d3ee" stroke="#b9d3ee" points="1883.9906,-518 1883.9906,-810.4 2309.9906,-810.4 2309.9906,-518 1883.9906,-518"/>
<text text-anchor="start" x="2013.3038" y="-795.6" font-family="arial" font-size="12.00" fill="#000000">Aporia I : Coal in Ancient Strata</text>
</g>
<g id="clust3" class="cluster">
<title>cluster_3</title>
<polygon fill="#eedfcc" stroke="#eedfcc" points="2317.9906,-156 2317.9906,-958.4 3443.9906,-958.4 3443.9906,-156 2317.9906,-156"/>
<text text-anchor="start" x="2816.6484" y="-943.6" font-family="arial" font-size="12.00" fill="#000000">Dating of the Main Culm</text>
</g>
<g id="clust4" class="cluster">
<title>cluster_4</title>
<polygon fill="#9fb6cd" stroke="#9fb6cd" points="1626.9906,-156 1626.9906,-822.4 1848.9906,-822.4 1848.9906,-156 1626.9906,-156"/>
<text text-anchor="start" x="1634.9808" y="-807.6" font-family="arial" font-size="12.00" fill="#000000">Aporia II : CM Plants in Non&#45;CM Strata</text>
</g>
<g id="clust5" class="cluster">
<title>cluster_5</title>
<polygon fill="#eeb4b4" stroke="#eeb4b4" points="953.9906,-174 953.9906,-1130.4 1593.9906,-1130.4 1593.9906,-174 953.9906,-174"/>
<text text-anchor="start" x="1194.9748" y="-1115.6" font-family="arial" font-size="12.00" fill="#000000">Dating of the Culm Limestone</text>
</g>
<g id="clust6" class="cluster">
<title>cluster_6</title>
<polygon fill="#cd9b9b" stroke="#cd9b9b" points="3687.9906,-174 3687.9906,-1130.4 4333.9906,-1130.4 4333.9906,-174 3687.9906,-174"/>
<text text-anchor="start" x="3948.3158" y="-1115.6" font-family="arial" font-size="12.00" fill="#000000">Dating of the Non&#45;Culm</text>
</g>
<g id="clust7" class="cluster">
<title>cluster_7</title>
<polygon fill="#8b6969" stroke="#8b6969" points="77.9906,-156 77.9906,-478.4 735.9906,-478.4 735.9906,-156 77.9906,-156"/>
<text text-anchor="start" x="336.9658" y="-463.6" font-family="arial" font-size="12.00" fill="#000000">Youngest Devonian Strata</text>
</g>
<g id="clust8" class="cluster">
<title>cluster_8</title>
<polygon fill="#698b69" stroke="#698b69" points="3467.9906,-162 3467.9906,-454.4 3679.9906,-454.4 3679.9906,-162 3467.9906,-162"/>
<text text-anchor="start" x="3517.6314" y="-439.6" font-family="arial" font-size="12.00" fill="#000000">Gap in the Sequence</text>
</g>
<!-- n2 -->
<g id="node1" class="node">
<title>n2</title>
<path fill="#ffffff" stroke="#ffff00" stroke-width="2" d="M2465.9906,-86C2465.9906,-86 2293.9906,-86 2293.9906,-86 2287.9906,-86 2281.9906,-80 2281.9906,-74 2281.9906,-74 2281.9906,-34 2281.9906,-34 2281.9906,-28 2287.9906,-22 2293.9906,-22 2293.9906,-22 2465.9906,-22 2465.9906,-22 2471.9906,-22 2477.9906,-28 2477.9906,-34 2477.9906,-34 2477.9906,-74 2477.9906,-74 2477.9906,-80 2471.9906,-86 2465.9906,-86"/>
<text text-anchor="start" x="2298.2956" y="-72" font-family="arial" font-weight="bold" font-size="10.00" fill="#000000">Unbroken Sequence of Devon Strata</text>
<text text-anchor="start" x="2303.3031" y="-55" font-family="arial" font-size="10.00" fill="#000000">In Devon, all the strata &#45; older than</text>
<text text-anchor="start" x="2303.0261" y="-43" font-family="arial" font-size="10.00" fill="#000000"> the New Red Sandstone &#45; form an</text>
<text text-anchor="start" x="2305.7941" y="-31" font-family="arial" font-size="10.00" fill="#000000"> unbroken sequence of strata #ev</text>
</g>
<!-- n3 -->
<g id="node2" class="node">
<title>n3</title>
<path fill="#ffffff" stroke="#ffff00" stroke-width="2" d="M1823.9906,-92C1823.9906,-92 1651.9906,-92 1651.9906,-92 1645.9906,-92 1639.9906,-86 1639.9906,-80 1639.9906,-80 1639.9906,-28 1639.9906,-28 1639.9906,-22 1645.9906,-16 1651.9906,-16 1651.9906,-16 1823.9906,-16 1823.9906,-16 1829.9906,-16 1835.9906,-22 1835.9906,-28 1835.9906,-28 1835.9906,-80 1835.9906,-80 1835.9906,-86 1829.9906,-92 1823.9906,-92"/>
<text text-anchor="start" x="1680.7661" y="-78" font-family="arial" font-weight="bold" font-size="10.00" fill="#000000">CM Plants in Devon Culm</text>
<text text-anchor="start" x="1651.5891" y="-61" font-family="arial" font-size="10.00" fill="#000000">Near Bideford (North Devon), there are</text>
<text text-anchor="start" x="1659.9226" y="-49" font-family="arial" font-size="10.00" fill="#000000"> CM fossil plants in the main part of</text>
<text text-anchor="start" x="1656.3116" y="-37" font-family="arial" font-size="10.00" fill="#000000"> the Culm strata (in close association</text>
<text text-anchor="start" x="1649.6431" y="-25" font-family="arial" font-size="10.00" fill="#000000"> with seams of imperfect anthracite) #ev</text>
</g>
<!-- n4 -->
<g id="node3" class="node">
<title>n4</title>
<path fill="#ffffff" stroke="#ffff00" stroke-width="2" d="M1609.9906,-80C1609.9906,-80 1437.9906,-80 1437.9906,-80 1431.9906,-80 1425.9906,-74 1425.9906,-68 1425.9906,-68 1425.9906,-40 1425.9906,-40 1425.9906,-34 1431.9906,-28 1437.9906,-28 1437.9906,-28 1609.9906,-28 1609.9906,-28 1615.9906,-28 1621.9906,-34 1621.9906,-40 1621.9906,-40 1621.9906,-68 1621.9906,-68 1621.9906,-74 1615.9906,-80 1609.9906,-80"/>
<text text-anchor="start" x="1487.5976" y="-66" font-family="arial" font-weight="bold" font-size="10.00" fill="#000000">North of Exmoor</text>
<text text-anchor="start" x="1437.8616" y="-49" font-family="arial" font-size="10.00" fill="#000000">Passing Exmoor northwards, the strata</text>
<text text-anchor="start" x="1482.8681" y="-37" font-family="arial" font-size="10.00" fill="#000000"> become older #ev</text>
</g>
<!-- n49 -->
<g id="node47" class="node">
<title>n49</title>
<path fill="#b8860b" stroke="#000000" d="M715.9906,-252C715.9906,-252 543.9906,-252 543.9906,-252 537.9906,-252 531.9906,-246 531.9906,-240 531.9906,-240 531.9906,-176 531.9906,-176 531.9906,-170 537.9906,-164 543.9906,-164 543.9906,-164 715.9906,-164 715.9906,-164 721.9906,-164 727.9906,-170 727.9906,-176 727.9906,-176 727.9906,-240 727.9906,-240 727.9906,-246 721.9906,-252 715.9906,-252"/>
<text text-anchor="start" x="554.9751" y="-238" font-family="arial" font-weight="bold" font-size="10.00" fill="#000000">Trough through Exmoor &#45; GRE.1a</text>
<text text-anchor="start" x="553.0171" y="-221" font-family="arial" font-size="10.00" fill="#000000">If the existence of a trough running</text>
<text text-anchor="start" x="544.6876" y="-209" font-family="arial" font-size="10.00" fill="#000000"> trough Exmoor is the best explanation</text>
<text text-anchor="start" x="544.4076" y="-197" font-family="arial" font-size="10.00" fill="#000000"> of the Exmoor strata being juxtaposed</text>
<text text-anchor="start" x="553.8626" y="-185" font-family="arial" font-size="10.00" fill="#000000"> solely with older strata, then there</text>
<text text-anchor="start" x="551.9161" y="-173" font-family="arial" font-size="10.00" fill="#000000"> is a trough through Exmoor &#160;#GRE</text>
</g>
<!-- n4&#45;&gt;n49 -->
<g id="edge68" class="edge">
<title>n4&#45;&gt;n49</title>
<path fill="none" stroke="#00ff00" d="M1492.4401,-80.1478C1472.1981,-95.3377 1444.6133,-113.2368 1416.9906,-122.4 1219.4822,-187.9188 1156.6732,-131.8207 949.9906,-156 879.1633,-164.2859 800.0629,-177.1069 738.2264,-187.9446"/>
<polygon fill="#00ff00" stroke="#00ff00" points="737.305,-184.5529 728.064,-189.735 738.5196,-191.4467 737.305,-184.5529"/>
</g>
<!-- n5 -->
<g id="node4" class="node">
<title>n5</title>
<path fill="#ffffff" stroke="#ffff00" stroke-width="2" d="M1395.9906,-92C1395.9906,-92 1223.9906,-92 1223.9906,-92 1217.9906,-92 1211.9906,-86 1211.9906,-80 1211.9906,-80 1211.9906,-28 1211.9906,-28 1211.9906,-22 1217.9906,-16 1223.9906,-16 1223.9906,-16 1395.9906,-16 1395.9906,-16 1401.9906,-16 1407.9906,-22 1407.9906,-28 1407.9906,-28 1407.9906,-80 1407.9906,-80 1407.9906,-86 1401.9906,-92 1395.9906,-92"/>
<text text-anchor="start" x="1257.2006" y="-78" font-family="arial" font-weight="bold" font-size="10.00" fill="#000000">Trough through Exmoor</text>
<text text-anchor="start" x="1232.1966" y="-61" font-family="arial" font-size="10.00" fill="#000000">There is a trough through Exmoor &#45;</text>
<text text-anchor="start" x="1223.2986" y="-49" font-family="arial" font-size="10.00" fill="#000000"> formed by a band of limestone running</text>
<text text-anchor="start" x="1231.3526" y="-37" font-family="arial" font-size="10.00" fill="#000000"> out to the north coast at Ilfracombe</text>
<text text-anchor="start" x="1246.3531" y="-25" font-family="arial" font-size="10.00" fill="#000000"> and south of Barnstaple #ev</text>
</g>
<!-- n6 -->
<g id="node5" class="node">
<title>n6</title>
<path fill="#ffffff" stroke="#ffff00" stroke-width="2" d="M2037.9906,-86C2037.9906,-86 1865.9906,-86 1865.9906,-86 1859.9906,-86 1853.9906,-80 1853.9906,-74 1853.9906,-74 1853.9906,-34 1853.9906,-34 1853.9906,-28 1859.9906,-22 1865.9906,-22 1865.9906,-22 2037.9906,-22 2037.9906,-22 2043.9906,-22 2049.9906,-28 2049.9906,-34 2049.9906,-34 2049.9906,-74 2049.9906,-74 2049.9906,-80 2043.9906,-86 2037.9906,-86"/>
<text text-anchor="start" x="1875.3011" y="-72" font-family="arial" font-weight="bold" font-size="10.00" fill="#000000">Instances of Coal in Ancient Strata</text>
<text text-anchor="start" x="1870.3121" y="-55" font-family="arial" font-size="10.00" fill="#000000">In Munster, North America and North</text>
<text text-anchor="start" x="1878.9151" y="-43" font-family="arial" font-size="10.00" fill="#000000"> Devon there are coal deposits in</text>
<text text-anchor="start" x="1874.7456" y="-31" font-family="arial" font-size="10.00" fill="#000000"> pre&#45;Old Red Sandstone strata #ev</text>
</g>
<!-- n7 -->
<g id="node6" class="node">
<title>n7</title>
<path fill="#ffffff" stroke="#ffff00" stroke-width="2" d="M2251.9906,-90C2251.9906,-90 2079.9906,-90 2079.9906,-90 2073.9906,-90 2067.9906,-84 2067.9906,-78 2067.9906,-78 2067.9906,-30 2067.9906,-30 2067.9906,-24 2073.9906,-18 2079.9906,-18 2079.9906,-18 2251.9906,-18 2251.9906,-18 2257.9906,-18 2263.9906,-24 2263.9906,-30 2263.9906,-30 2263.9906,-78 2263.9906,-78 2263.9906,-84 2257.9906,-90 2251.9906,-90"/>
<text text-anchor="start" x="2080.4351" y="-76" font-family="arial" font-weight="bold" font-size="10.00" fill="#000000">Devonshire &#45; Characteristic CAM Rock</text>
<text text-anchor="start" x="2153.4876" y="-66" font-family="arial" font-weight="bold" font-size="10.00" fill="#000000"> Type</text>
<text text-anchor="start" x="2089.3031" y="-51" font-family="arial" font-size="10.00" fill="#000000">In Devon, all the strata &#45; older than</text>
<text text-anchor="start" x="2093.1906" y="-39" font-family="arial" font-size="10.00" fill="#000000"> the New Red Sandstone &#45; are of</text>
<text text-anchor="start" x="2084.0301" y="-27" font-family="arial" font-size="10.00" fill="#000000"> carachteristic CAM appearance #ev </text>
</g>
<!-- n8 -->
<g id="node7" class="node">
<title>n8</title>
<path fill="#ffffff" stroke="#b8860b" stroke-width="2" d="M2075.9906,-768C2075.9906,-768 1903.9906,-768 1903.9906,-768 1897.9906,-768 1891.9906,-762 1891.9906,-756 1891.9906,-756 1891.9906,-728 1891.9906,-728 1891.9906,-722 1897.9906,-716 1903.9906,-716 1903.9906,-716 2075.9906,-716 2075.9906,-716 2081.9906,-716 2087.9906,-722 2087.9906,-728 2087.9906,-728 2087.9906,-756 2087.9906,-756 2087.9906,-762 2081.9906,-768 2075.9906,-768"/>
<text text-anchor="start" x="1941.6461" y="-754" font-family="arial" font-weight="bold" font-size="10.00" fill="#000000">Coal in Ancient Strata</text>
<text text-anchor="start" x="1911.3661" y="-737" font-family="arial" font-size="10.00" fill="#000000">There are coal deposits in pre&#45;ORS</text>
<text text-anchor="start" x="1961.0961" y="-725" font-family="arial" font-size="10.00" fill="#000000"> strata #GRE</text>
</g>
<!-- n37 -->
<g id="node9" class="node">
<title>n37</title>
<path fill="#b8860b" stroke="#000000" d="M2077.9906,-614C2077.9906,-614 1903.9906,-614 1903.9906,-614 1897.9906,-614 1891.9906,-608 1891.9906,-602 1891.9906,-602 1891.9906,-538 1891.9906,-538 1891.9906,-532 1897.9906,-526 1903.9906,-526 1903.9906,-526 2077.9906,-526 2077.9906,-526 2083.9906,-526 2089.9906,-532 2089.9906,-538 2089.9906,-538 2089.9906,-602 2089.9906,-602 2089.9906,-608 2083.9906,-614 2077.9906,-614"/>
<text text-anchor="start" x="1942.6461" y="-600" font-family="arial" font-weight="bold" font-size="10.00" fill="#000000">Coal in Ancient Strata</text>
<text text-anchor="start" x="1924.0251" y="-583" font-family="arial" font-size="10.00" fill="#000000">If there are no coal deposits in</text>
<text text-anchor="start" x="1904.5791" y="-571" font-family="arial" font-size="10.00" fill="#000000"> pre&#45;ORS strata, then there are no coal</text>
<text text-anchor="start" x="1916.8061" y="-559" font-family="arial" font-size="10.00" fill="#000000"> deposits in the pre&#45;ORS strata of</text>
<text text-anchor="start" x="1901.5381" y="-547" font-family="arial" font-size="10.00" fill="#000000"> Munster, North America or North Devon</text>
<text text-anchor="start" x="1975.9881" y="-535" font-family="arial" font-size="10.00" fill="#000000"> #GRE</text>
</g>
<!-- n8&#45;&gt;n37 -->
<g id="edge2" class="edge">
<title>n8&#45;&gt;n37</title>
<path fill="none" stroke="#ff0000" d="M1990.1425,-715.8769C1990.2834,-691.6447 1990.4975,-654.8213 1990.6753,-624.2349"/>
<polygon fill="#ff0000" stroke="#ff0000" points="1994.1758,-624.1487 1990.7341,-614.1285 1987.1759,-624.1079 1994.1758,-624.1487"/>
</g>
<!-- n38 -->
<g id="node22" class="node">
<title>n38</title>
<path fill="#b8860b" stroke="#000000" d="M1823.9906,-620C1823.9906,-620 1651.9906,-620 1651.9906,-620 1645.9906,-620 1639.9906,-614 1639.9906,-608 1639.9906,-608 1639.9906,-532 1639.9906,-532 1639.9906,-526 1645.9906,-520 1651.9906,-520 1651.9906,-520 1823.9906,-520 1823.9906,-520 1829.9906,-520 1835.9906,-526 1835.9906,-532 1835.9906,-532 1835.9906,-608 1835.9906,-608 1835.9906,-614 1829.9906,-620 1823.9906,-620"/>
<text text-anchor="start" x="1693.5391" y="-606" font-family="arial" font-weight="bold" font-size="10.00" fill="#000000">Coal and CM Plants</text>
<text text-anchor="start" x="1658.2536" y="-589" font-family="arial" font-size="10.00" fill="#000000">If the similarity between the floras of</text>
<text text-anchor="start" x="1650.1966" y="-577" font-family="arial" font-size="10.00" fill="#000000"> the Coal Measures and some pre&#45;ORS</text>
<text text-anchor="start" x="1660.4671" y="-565" font-family="arial" font-size="10.00" fill="#000000"> strata G is the best explanation for</text>
<text text-anchor="start" x="1656.5761" y="-553" font-family="arial" font-size="10.00" fill="#000000"> the existence of coal deposists in G,</text>
<text text-anchor="start" x="1662.4276" y="-541" font-family="arial" font-size="10.00" fill="#000000"> then G&#39;s flora is similar to the one</text>
<text text-anchor="start" x="1698.5386" y="-529" font-family="arial" font-size="10.00" fill="#000000"> of the CM. #GRE</text>
</g>
<!-- n8&#45;&gt;n38 -->
<g id="edge69" class="edge">
<title>n8&#45;&gt;n38</title>
<path fill="none" stroke="#00ff00" d="M1951.7173,-715.8769C1916.8571,-692.0834 1864.2114,-656.1507 1819.8942,-625.9024"/>
<polygon fill="#00ff00" stroke="#00ff00" points="1821.669,-622.8763 1811.4364,-620.1296 1817.7228,-628.6579 1821.669,-622.8763"/>
</g>
<!-- n9 -->
<g id="node8" class="node">
<title>n9</title>
<path fill="#ffffff" stroke="#b8860b" stroke-width="2" d="M2289.9906,-780C2289.9906,-780 2117.9906,-780 2117.9906,-780 2111.9906,-780 2105.9906,-774 2105.9906,-768 2105.9906,-768 2105.9906,-716 2105.9906,-716 2105.9906,-710 2111.9906,-704 2117.9906,-704 2117.9906,-704 2289.9906,-704 2289.9906,-704 2295.9906,-704 2301.9906,-710 2301.9906,-716 2301.9906,-716 2301.9906,-768 2301.9906,-768 2301.9906,-774 2295.9906,-780 2289.9906,-780"/>
<text text-anchor="start" x="2140.6426" y="-766" font-family="arial" font-weight="bold" font-size="10.00" fill="#000000">Instances of Pre&#45;ORS Strata</text>
<text text-anchor="start" x="2122.3121" y="-749" font-family="arial" font-size="10.00" fill="#000000">In Munster, North America and North</text>
<text text-anchor="start" x="2117.3051" y="-737" font-family="arial" font-size="10.00" fill="#000000"> Devon, some strata closely associated</text>
<text text-anchor="start" x="2116.7531" y="-725" font-family="arial" font-size="10.00" fill="#000000"> with seams of coal are pre&#45;ORS in age</text>
<text text-anchor="start" x="2162.5926" y="-713" font-family="arial" font-size="10.00" fill="#000000"> #GRE #chron&#45;hyp</text>
</g>
<!-- n9&#45;&gt;n37 -->
<g id="edge70" class="edge">
<title>n9&#45;&gt;n37</title>
<path fill="none" stroke="#00ff00" d="M2156.719,-703.8276C2126.3104,-679.2723 2086.4557,-647.0892 2053.4507,-620.4372"/>
<polygon fill="#00ff00" stroke="#00ff00" points="2055.6322,-617.7002 2045.6532,-614.1407 2051.2345,-623.1463 2055.6322,-617.7002"/>
</g>
<!-- n37&#45;&gt;n6 -->
<g id="edge3" class="edge">
<title>n37&#45;&gt;n6</title>
<path fill="none" stroke="#ff0000" d="M1987.6318,-525.5595C1980.2054,-427.3036 1962.4745,-192.7093 1955.1942,-96.3862"/>
<polygon fill="#ff0000" stroke="#ff0000" points="1958.6645,-95.8586 1954.4207,-86.1509 1951.6844,-96.3862 1958.6645,-95.8586"/>
</g>
<!-- n10 -->
<g id="node10" class="node">
<title>n10</title>
<path fill="#ffffff" stroke="#b8860b" stroke-width="2" d="M2746.9906,-928C2746.9906,-928 2574.9906,-928 2574.9906,-928 2568.9906,-928 2562.9906,-922 2562.9906,-916 2562.9906,-916 2562.9906,-888 2562.9906,-888 2562.9906,-882 2568.9906,-876 2574.9906,-876 2574.9906,-876 2746.9906,-876 2746.9906,-876 2752.9906,-876 2758.9906,-882 2758.9906,-888 2758.9906,-888 2758.9906,-916 2758.9906,-916 2758.9906,-922 2752.9906,-928 2746.9906,-928"/>
<text text-anchor="start" x="2617.9381" y="-914" font-family="arial" font-weight="bold" font-size="10.00" fill="#000000">Main Culm as CAM</text>
<text text-anchor="start" x="2575.9831" y="-897" font-family="arial" font-size="10.00" fill="#000000">The whole of the main Culm is CAM in</text>
<text text-anchor="start" x="2608.4751" y="-885" font-family="arial" font-size="10.00" fill="#000000"> age #GRE #chron&#45;hyp </text>
</g>
<!-- n10&#45;&gt;n9 -->
<g id="edge1" class="edge">
<title>n10&#45;&gt;n9</title>
<path fill="none" stroke="#00ff00" d="M2562.9607,-890.3324C2491.5157,-879.2861 2393.6883,-858.7902 2313.9906,-822.4 2293.6498,-813.1123 2273.3321,-799.7208 2255.7941,-786.5228"/>
<polygon fill="#00ff00" stroke="#00ff00" points="2257.4794,-783.4033 2247.4199,-780.0781 2253.2102,-788.9508 2257.4794,-783.4033"/>
</g>
<!-- n13 -->
<g id="node11" class="node">
<title>n13</title>
<path fill="#ffffff" stroke="#f5f5dc" stroke-width="2" d="M2749.9906,-768C2749.9906,-768 2571.9906,-768 2571.9906,-768 2565.9906,-768 2559.9906,-762 2559.9906,-756 2559.9906,-756 2559.9906,-728 2559.9906,-728 2559.9906,-722 2565.9906,-716 2571.9906,-716 2571.9906,-716 2749.9906,-716 2749.9906,-716 2755.9906,-716 2761.9906,-722 2761.9906,-728 2761.9906,-728 2761.9906,-756 2761.9906,-756 2761.9906,-762 2755.9906,-768 2749.9906,-768"/>
<text text-anchor="start" x="2606.8251" y="-754" font-family="arial" font-weight="bold" font-size="10.00" fill="#000000">Some Main Culm as CM</text>
<text text-anchor="start" x="2569.5896" y="-737" font-family="arial" font-size="10.00" fill="#000000">Some part of the main Culm is CM in age</text>
<text text-anchor="start" x="2624.8726" y="-725" font-family="arial" font-size="10.00" fill="#000000"> #pri #chron&#45;hyp</text>
</g>
<!-- n10&#45;&gt;n13 -->
<g id="edge10" class="edge">
<title>n10&#45;&gt;n13</title>
<path fill="none" stroke="#ff0000" d="M2660.9906,-875.9371C2660.9906,-849.4384 2660.9906,-808.1612 2660.9906,-778.4329"/>
<polygon fill="#ff0000" stroke="#ff0000" points="2664.4907,-778.0517 2660.9906,-768.0517 2657.4907,-778.0517 2664.4907,-778.0517"/>
</g>
<!-- n14 -->
<g id="node12" class="node">
<title>n14</title>
<path fill="#ffffff" stroke="#f5f5dc" stroke-width="2" d="M3403.4906,-768C3403.4906,-768 3226.4906,-768 3226.4906,-768 3220.4906,-768 3214.4906,-762 3214.4906,-756 3214.4906,-756 3214.4906,-728 3214.4906,-728 3214.4906,-722 3220.4906,-716 3226.4906,-716 3226.4906,-716 3403.4906,-716 3403.4906,-716 3409.4906,-716 3415.4906,-722 3415.4906,-728 3415.4906,-728 3415.4906,-756 3415.4906,-756 3415.4906,-762 3409.4906,-768 3403.4906,-768"/>
<text text-anchor="start" x="3262.1551" y="-754" font-family="arial" font-weight="bold" font-size="10.00" fill="#000000">Some Main Culm as ML</text>
<text text-anchor="start" x="3224.9196" y="-737" font-family="arial" font-size="10.00" fill="#000000">Some part of the main Culm is ML in age</text>
<text text-anchor="start" x="3279.3726" y="-725" font-family="arial" font-size="10.00" fill="#000000"> #pri #chron&#45;hyp</text>
</g>
<!-- n10&#45;&gt;n14 -->
<g id="edge11" class="edge">
<title>n10&#45;&gt;n14</title>
<path fill="none" stroke="#ff0000" d="M2759.1756,-893.4317C2893.5636,-880.7221 3127.1208,-854.8455 3205.9906,-822.4 3233.2518,-811.1853 3259.9515,-791.6747 3280.1026,-774.6822"/>
<polygon fill="#ff0000" stroke="#ff0000" points="3282.4791,-777.2544 3287.7671,-768.0736 3277.9081,-771.9529 3282.4791,-777.2544"/>
</g>
<!-- n15 -->
<g id="node13" class="node">
<title>n15</title>
<path fill="#ffffff" stroke="#f5f5dc" stroke-width="2" d="M2529.9906,-768C2529.9906,-768 2357.9906,-768 2357.9906,-768 2351.9906,-768 2345.9906,-762 2345.9906,-756 2345.9906,-756 2345.9906,-728 2345.9906,-728 2345.9906,-722 2351.9906,-716 2357.9906,-716 2357.9906,-716 2529.9906,-716 2529.9906,-716 2535.9906,-716 2541.9906,-722 2541.9906,-728 2541.9906,-728 2541.9906,-756 2541.9906,-756 2541.9906,-762 2535.9906,-768 2529.9906,-768"/>
<text text-anchor="start" x="2386.7656" y="-754" font-family="arial" font-weight="bold" font-size="10.00" fill="#000000">Some Main Culm as ORS</text>
<text text-anchor="start" x="2359.2581" y="-737" font-family="arial" font-size="10.00" fill="#000000">Some part of the main Culm is ORS in</text>
<text text-anchor="start" x="2398.1446" y="-725" font-family="arial" font-size="10.00" fill="#000000"> age #pri #chron&#45;hyp</text>
</g>
<!-- n10&#45;&gt;n15 -->
<g id="edge12" class="edge">
<title>n10&#45;&gt;n15</title>
<path fill="none" stroke="#ff0000" d="M2624.7051,-875.9916C2603.2049,-860.519 2575.4648,-840.4479 2550.9906,-822.4 2529.7181,-806.713 2506.2244,-789.0929 2486.6833,-774.3547"/>
<polygon fill="#ff0000" stroke="#ff0000" points="2488.6585,-771.4605 2478.5686,-768.2288 2484.441,-777.0473 2488.6585,-771.4605"/>
</g>
<!-- n16 -->
<g id="node14" class="node">
<title>n16</title>
<path fill="#ffffff" stroke="#f5f5dc" stroke-width="2" d="M2963.9906,-768C2963.9906,-768 2791.9906,-768 2791.9906,-768 2785.9906,-768 2779.9906,-762 2779.9906,-756 2779.9906,-756 2779.9906,-728 2779.9906,-728 2779.9906,-722 2785.9906,-716 2791.9906,-716 2791.9906,-716 2963.9906,-716 2963.9906,-716 2969.9906,-716 2975.9906,-722 2975.9906,-728 2975.9906,-728 2975.9906,-756 2975.9906,-756 2975.9906,-762 2969.9906,-768 2963.9906,-768"/>
<text text-anchor="start" x="2824.0956" y="-754" font-family="arial" font-weight="bold" font-size="10.00" fill="#000000">Some Main Culm as SIL</text>
<text text-anchor="start" x="2796.5881" y="-737" font-family="arial" font-size="10.00" fill="#000000">Some part of the main Culm is SIL in</text>
<text text-anchor="start" x="2832.1446" y="-725" font-family="arial" font-size="10.00" fill="#000000"> age #pri #chron&#45;hyp</text>
</g>
<!-- n10&#45;&gt;n16 -->
<g id="edge13" class="edge">
<title>n10&#45;&gt;n16</title>
<path fill="none" stroke="#ff0000" d="M2697.2762,-875.9916C2718.7764,-860.519 2746.5165,-840.4479 2770.9906,-822.4 2792.2632,-806.713 2815.7569,-789.0929 2835.298,-774.3547"/>
<polygon fill="#ff0000" stroke="#ff0000" points="2837.5403,-777.0473 2843.4127,-768.2288 2833.3228,-771.4605 2837.5403,-777.0473"/>
</g>
<!-- n17 -->
<g id="node15" class="node">
<title>n17</title>
<path fill="#ffffff" stroke="#f5f5dc" stroke-width="2" d="M3198.9906,-412C3198.9906,-412 3026.9906,-412 3026.9906,-412 3020.9906,-412 3014.9906,-406 3014.9906,-400 3014.9906,-400 3014.9906,-372 3014.9906,-372 3014.9906,-366 3020.9906,-360 3026.9906,-360 3026.9906,-360 3198.9906,-360 3198.9906,-360 3204.9906,-360 3210.9906,-366 3210.9906,-372 3210.9906,-372 3210.9906,-400 3210.9906,-400 3210.9906,-406 3204.9906,-412 3198.9906,-412"/>
<text text-anchor="start" x="3055.4906" y="-398" font-family="arial" font-weight="bold" font-size="10.00" fill="#000000">Some Main Culm as CAM</text>
<text text-anchor="start" x="3027.9831" y="-381" font-family="arial" font-size="10.00" fill="#000000">Some part of the main Culm is CAM in</text>
<text text-anchor="start" x="3067.1446" y="-369" font-family="arial" font-size="10.00" fill="#000000"> age #pri #chron&#45;hyp</text>
</g>
<!-- n10&#45;&gt;n17 -->
<g id="edge14" class="edge">
<title>n10&#45;&gt;n17</title>
<path fill="none" stroke="#00ff00" d="M2759.2611,-898.9584C2955.558,-891.8668 3381.1886,-871.0028 3424.9906,-822.4 3550.9063,-682.6838 3284.0101,-491.8319 3165.6876,-417.4651"/>
<polygon fill="#00ff00" stroke="#00ff00" points="3167.4292,-414.4264 3157.0921,-412.1035 3163.7244,-420.3657 3167.4292,-414.4264"/>
</g>
<!-- n39 -->
<g id="node23" class="node">
<title>n39</title>
<path fill="#b8860b" stroke="#000000" d="M1824.4906,-252C1824.4906,-252 1651.4906,-252 1651.4906,-252 1645.4906,-252 1639.4906,-246 1639.4906,-240 1639.4906,-240 1639.4906,-176 1639.4906,-176 1639.4906,-170 1645.4906,-164 1651.4906,-164 1651.4906,-164 1824.4906,-164 1824.4906,-164 1830.4906,-164 1836.4906,-170 1836.4906,-176 1836.4906,-176 1836.4906,-240 1836.4906,-240 1836.4906,-246 1830.4906,-252 1824.4906,-252"/>
<text text-anchor="start" x="1692.6541" y="-238" font-family="arial" font-weight="bold" font-size="10.00" fill="#000000">Culm and CM Plants</text>
<text text-anchor="start" x="1649.5891" y="-221" font-family="arial" font-size="10.00" fill="#000000">If the Devon Culm strata are pre&#45;ORS in</text>
<text text-anchor="start" x="1654.0231" y="-209" font-family="arial" font-size="10.00" fill="#000000"> age and there are no CM fossil plants</text>
<text text-anchor="start" x="1657.3586" y="-197" font-family="arial" font-size="10.00" fill="#000000"> in pre&#45;ORS strata, then there are no</text>
<text text-anchor="start" x="1659.3161" y="-185" font-family="arial" font-size="10.00" fill="#000000"> CM fossil plants in the Devon Culm</text>
<text text-anchor="start" x="1708.2066" y="-173" font-family="arial" font-size="10.00" fill="#000000"> strata &#160;#GRE</text>
</g>
<!-- n10&#45;&gt;n39 -->
<g id="edge71" class="edge">
<title>n10&#45;&gt;n39</title>
<path fill="none" stroke="#00ff00" d="M2562.7256,-898.9324C2363.4582,-891.7299 1926.6725,-870.5741 1879.9906,-822.4 1802.7264,-742.6659 1889.0016,-425.9329 1844.9906,-324 1834.6359,-300.0175 1817.1523,-277.8087 1799.2861,-259.379"/>
<polygon fill="#00ff00" stroke="#00ff00" points="1801.7078,-256.8508 1792.1669,-252.2442 1796.7527,-261.7952 1801.7078,-256.8508"/>
</g>
<!-- n51 -->
<g id="node50" class="node">
<title>n51</title>
<path fill="#b8860b" stroke="#000000" d="M3659.9906,-246C3659.9906,-246 3487.9906,-246 3487.9906,-246 3481.9906,-246 3475.9906,-240 3475.9906,-234 3475.9906,-234 3475.9906,-182 3475.9906,-182 3475.9906,-176 3481.9906,-170 3487.9906,-170 3487.9906,-170 3659.9906,-170 3659.9906,-170 3665.9906,-170 3671.9906,-176 3671.9906,-182 3671.9906,-182 3671.9906,-234 3671.9906,-234 3671.9906,-240 3665.9906,-246 3659.9906,-246"/>
<text text-anchor="start" x="3506.1926" y="-232" font-family="arial" font-weight="bold" font-size="10.00" fill="#000000">Unbroken Sequence &#45; GRE.1a</text>
<text text-anchor="start" x="3510.0856" y="-215" font-family="arial" font-size="10.00" fill="#000000">If, in Devon, all the strata are</text>
<text text-anchor="start" x="3489.5201" y="-203" font-family="arial" font-size="10.00" fill="#000000"> Cambrian in age, i.e. belonging to the</text>
<text text-anchor="start" x="3490.9131" y="-191" font-family="arial" font-size="10.00" fill="#000000"> same geological period, then there is</text>
<text text-anchor="start" x="3492.5716" y="-179" font-family="arial" font-size="10.00" fill="#000000"> no gap in the local sequence. #GRE</text>
</g>
<!-- n10&#45;&gt;n51 -->
<g id="edge72" class="edge">
<title>n10&#45;&gt;n51</title>
<path fill="none" stroke="#00ff00" d="M2759.1039,-899.1003C2959.2409,-892.1909 3399.6832,-871.5208 3445.9906,-822.4 3598.0737,-661.0773 3381.9652,-528.7559 3466.9906,-324 3478.1267,-297.1825 3498.3815,-272.6879 3518.2961,-253.1893"/>
<polygon fill="#00ff00" stroke="#00ff00" points="3520.7702,-255.6664 3525.6002,-246.2365 3515.9439,-250.5962 3520.7702,-255.6664"/>
</g>
<!-- n40 -->
<g id="node17" class="node">
<title>n40</title>
<path fill="#f5f5dc" stroke="#000000" d="M2964.4906,-606C2964.4906,-606 2791.4906,-606 2791.4906,-606 2785.4906,-606 2779.4906,-600 2779.4906,-594 2779.4906,-594 2779.4906,-546 2779.4906,-546 2779.4906,-540 2785.4906,-534 2791.4906,-534 2791.4906,-534 2964.4906,-534 2964.4906,-534 2970.4906,-534 2976.4906,-540 2976.4906,-546 2976.4906,-546 2976.4906,-594 2976.4906,-594 2976.4906,-600 2970.4906,-606 2964.4906,-606"/>
<text text-anchor="start" x="2792.6331" y="-592" font-family="arial" font-weight="bold" font-size="10.00" fill="#000000">Standard Sequence as Partition &#45; Main</text>
<text text-anchor="start" x="2865.4381" y="-582" font-family="arial" font-weight="bold" font-size="10.00" fill="#000000"> Culm</text>
<text text-anchor="start" x="2789.8741" y="-567" font-family="arial" font-size="10.00" fill="#000000">If some main Culm strata are neiter CM,</text>
<text text-anchor="start" x="2793.4741" y="-555" font-family="arial" font-size="10.00" fill="#000000"> ML, OR nor SIL in age, then it is CAM</text>
<text text-anchor="start" x="2827.3661" y="-543" font-family="arial" font-size="10.00" fill="#000000"> in age #pri #chron&#45;hyp</text>
</g>
<!-- n13&#45;&gt;n40 -->
<g id="edge6" class="edge">
<title>n13&#45;&gt;n40</title>
<path fill="none" stroke="#ff0000" d="M2693.9483,-715.8769C2728.5173,-688.4766 2783.3968,-644.9776 2824.2447,-612.6004"/>
<polygon fill="#ff0000" stroke="#ff0000" points="2826.5543,-615.2359 2832.2171,-606.2814 2822.2061,-609.7502 2826.5543,-615.2359"/>
</g>
<!-- n41 -->
<g id="node18" class="node">
<title>n41</title>
<path fill="#b8860b" stroke="#000000" d="M2791.9906,-226C2791.9906,-226 2619.9906,-226 2619.9906,-226 2613.9906,-226 2607.9906,-220 2607.9906,-214 2607.9906,-214 2607.9906,-202 2607.9906,-202 2607.9906,-196 2613.9906,-190 2619.9906,-190 2619.9906,-190 2791.9906,-190 2791.9906,-190 2797.9906,-190 2803.9906,-196 2803.9906,-202 2803.9906,-202 2803.9906,-214 2803.9906,-214 2803.9906,-220 2797.9906,-226 2791.9906,-226"/>
<text text-anchor="start" x="2638.4846" y="-206" font-family="arial" font-weight="bold" font-size="10.00" fill="#000000">Dating the Main Culm &#45; GRE.1</text>
</g>
<!-- n13&#45;&gt;n41 -->
<g id="edge15" class="edge">
<title>n13&#45;&gt;n41</title>
<path fill="none" stroke="#ff0000" d="M2663.1915,-715.8826C2670.7703,-625.9479 2695.751,-329.5108 2703.6051,-236.3084"/>
<polygon fill="#ff0000" stroke="#ff0000" points="2707.1032,-236.4775 2704.4553,-226.2189 2700.1279,-235.8896 2707.1032,-236.4775"/>
</g>
<!-- n14&#45;&gt;n40 -->
<g id="edge7" class="edge">
<title>n14&#45;&gt;n40</title>
<path fill="none" stroke="#ff0000" d="M3261.1498,-715.92C3243.7197,-707.8506 3224.1895,-699.1974 3205.9906,-692 3112.2817,-654.9391 3084.9475,-656.4276 2990.9906,-620 2982.925,-616.8729 2974.5966,-613.4904 2966.2883,-610.0105"/>
<polygon fill="#ff0000" stroke="#ff0000" points="2967.5049,-606.7248 2956.9317,-606.0486 2964.7755,-613.1708 2967.5049,-606.7248"/>
</g>
<!-- n14&#45;&gt;n41 -->
<g id="edge16" class="edge">
<title>n14&#45;&gt;n41</title>
<path fill="none" stroke="#ff0000" d="M3283.6089,-715.7139C3227.5019,-668.6099 3106.4574,-566.5008 3005.9906,-478.4 2904.448,-389.3557 2785.877,-281.2321 2733.3843,-233.1469"/>
<polygon fill="#ff0000" stroke="#ff0000" points="2735.5708,-230.4032 2725.8339,-226.2269 2730.8412,-235.5638 2735.5708,-230.4032"/>
</g>
<!-- n15&#45;&gt;n40 -->
<g id="edge8" class="edge">
<title>n15&#45;&gt;n40</title>
<path fill="none" stroke="#ff0000" d="M2497.4994,-715.9716C2514.4758,-707.9905 2533.4054,-699.3752 2550.9906,-692 2623.0082,-661.796 2705.3937,-631.0819 2769.4538,-608.027"/>
<polygon fill="#ff0000" stroke="#ff0000" points="2770.9417,-611.2116 2779.1706,-604.5381 2768.5761,-604.6234 2770.9417,-611.2116"/>
</g>
<!-- n15&#45;&gt;n41 -->
<g id="edge17" class="edge">
<title>n15&#45;&gt;n41</title>
<path fill="none" stroke="#ff0000" d="M2456.8048,-715.8826C2501.0644,-625.674 2647.2599,-327.7031 2692.5166,-235.4624"/>
<polygon fill="#ff0000" stroke="#ff0000" points="2695.7892,-236.7382 2697.0518,-226.2189 2689.5048,-233.6548 2695.7892,-236.7382"/>
</g>
<!-- n16&#45;&gt;n40 -->
<g id="edge9" class="edge">
<title>n16&#45;&gt;n40</title>
<path fill="none" stroke="#ff0000" d="M2877.9906,-715.8769C2877.9906,-689.5041 2877.9906,-648.2174 2877.9906,-616.2884"/>
<polygon fill="#ff0000" stroke="#ff0000" points="2881.4907,-616.2813 2877.9906,-606.2814 2874.4907,-616.2814 2881.4907,-616.2813"/>
</g>
<!-- n16&#45;&gt;n41 -->
<g id="edge18" class="edge">
<title>n16&#45;&gt;n41</title>
<path fill="none" stroke="#ff0000" d="M2846.874,-715.7981C2822.1283,-693.1032 2788.8033,-658.0105 2770.9906,-620 2708.5729,-486.8064 2704.2851,-305.5833 2705.1761,-236.414"/>
<polygon fill="#ff0000" stroke="#ff0000" points="2708.6775,-236.3598 2705.3554,-226.2993 2701.6786,-236.2357 2708.6775,-236.3598"/>
</g>
<!-- n17&#45;&gt;n41 -->
<g id="edge74" class="edge">
<title>n17&#45;&gt;n41</title>
<path fill="none" stroke="#00ff00" d="M3068.9975,-359.898C3048.6296,-348.2698 3023.9126,-334.7944 3000.9906,-324 2922.1113,-286.8541 2827.8795,-251.2573 2767.5081,-229.519"/>
<polygon fill="#00ff00" stroke="#00ff00" points="2768.3433,-226.1003 2757.7488,-226.0195 2765.9805,-232.6895 2768.3433,-226.1003"/>
</g>
<!-- n42 -->
<g id="node19" class="node">
<title>n42</title>
<path fill="#b8860b" stroke="#000000" d="M3094.9906,-252C3094.9906,-252 2922.9906,-252 2922.9906,-252 2916.9906,-252 2910.9906,-246 2910.9906,-240 2910.9906,-240 2910.9906,-176 2910.9906,-176 2910.9906,-170 2916.9906,-164 2922.9906,-164 2922.9906,-164 3094.9906,-164 3094.9906,-164 3100.9906,-164 3106.9906,-170 3106.9906,-176 3106.9906,-176 3106.9906,-240 3106.9906,-240 3106.9906,-246 3100.9906,-252 3094.9906,-252"/>
<text text-anchor="start" x="2947.8866" y="-238" font-family="arial" font-weight="bold" font-size="10.00" fill="#000000">Main Culm as CAM &#45; CRTP</text>
<text text-anchor="start" x="2925.9081" y="-221" font-family="arial" font-size="10.00" fill="#000000">If strata can be identified by means of</text>
<text text-anchor="start" x="2927.3066" y="-209" font-family="arial" font-size="10.00" fill="#000000"> their characteristic rock type and the</text>
<text text-anchor="start" x="2923.9786" y="-197" font-family="arial" font-size="10.00" fill="#000000"> main Culm strata are not CAM in age,</text>
<text text-anchor="start" x="2933.6911" y="-185" font-family="arial" font-size="10.00" fill="#000000"> then they are not of characteristic</text>
<text text-anchor="start" x="2953.7001" y="-173" font-family="arial" font-size="10.00" fill="#000000"> CAM appearance #GRE</text>
</g>
<!-- n17&#45;&gt;n42 -->
<g id="edge19" class="edge">
<title>n17&#45;&gt;n42</title>
<path fill="none" stroke="#ff0000" d="M3097.6451,-359.7355C3082.5642,-333.9239 3059.1144,-293.7887 3040.1194,-261.2781"/>
<polygon fill="#ff0000" stroke="#ff0000" points="3042.9574,-259.1975 3034.8907,-252.3289 3036.9134,-262.7288 3042.9574,-259.1975"/>
</g>
<!-- n18 -->
<g id="node16" class="node">
<title>n18</title>
<path fill="#ffffff" stroke="#f5f5dc" stroke-width="2" d="M3184.4906,-774C3184.4906,-774 3005.4906,-774 3005.4906,-774 2999.4906,-774 2993.4906,-768 2993.4906,-762 2993.4906,-762 2993.4906,-722 2993.4906,-722 2993.4906,-716 2999.4906,-710 3005.4906,-710 3005.4906,-710 3184.4906,-710 3184.4906,-710 3190.4906,-710 3196.4906,-716 3196.4906,-722 3196.4906,-722 3196.4906,-762 3196.4906,-762 3196.4906,-768 3190.4906,-774 3184.4906,-774"/>
<text text-anchor="start" x="3003.5476" y="-760" font-family="arial" font-weight="bold" font-size="10.00" fill="#000000">Main Culm as Post&#45;Primary and Pre&#45;NRS</text>
<text text-anchor="start" x="3015.4776" y="-743" font-family="arial" font-size="10.00" fill="#000000">The main Culm strata are older than</text>
<text text-anchor="start" x="3011.3071" y="-731" font-family="arial" font-size="10.00" fill="#000000"> Primary strata and younger than New</text>
<text text-anchor="start" x="3009.6321" y="-719" font-family="arial" font-size="10.00" fill="#000000"> Red Sandstone strata #pri #chron&#45;hyp</text>
</g>
<!-- n18&#45;&gt;n40 -->
<g id="edge75" class="edge">
<title>n18&#45;&gt;n40</title>
<path fill="none" stroke="#00ff00" d="M3054.4292,-709.8499C3019.7281,-682.3449 2969.513,-642.5431 2931.5195,-612.4284"/>
<polygon fill="#00ff00" stroke="#00ff00" points="2933.6184,-609.626 2923.6075,-606.1572 2929.2703,-615.1117 2933.6184,-609.626"/>
</g>
<!-- n40&#45;&gt;n17 -->
<g id="edge54" class="edge">
<title>n40&#45;&gt;n17</title>
<path fill="none" stroke="#00ff00" d="M2924.1387,-533.8671C2966.9961,-500.3106 3030.2359,-450.7952 3071.5236,-418.4678"/>
<polygon fill="#00ff00" stroke="#00ff00" points="3073.76,-421.162 3079.476,-412.2413 3069.4446,-415.6504 3073.76,-421.162"/>
</g>
<!-- n41&#45;&gt;n10 -->
<g id="edge55" class="edge">
<title>n41&#45;&gt;n10</title>
<path fill="none" stroke="#00ff00" d="M2680.6345,-226.167C2651.9287,-247.5105 2604.7718,-284.9881 2570.9906,-324 2444.1141,-470.5222 2391.1478,-505.8994 2336.9906,-692 2320.7968,-747.6471 2301.2312,-776.7918 2336.9906,-822.4 2363.6495,-856.4011 2469.269,-877.8061 2552.7661,-889.7489"/>
<polygon fill="#00ff00" stroke="#00ff00" points="2552.4434,-893.2378 2562.8323,-891.1586 2553.4144,-886.3054 2552.4434,-893.2378"/>
</g>
<!-- n42&#45;&gt;n7 -->
<g id="edge20" class="edge">
<title>n42&#45;&gt;n7</title>
<path fill="none" stroke="#ff0000" d="M2910.8532,-177.9067C2879.8265,-169.4908 2845.2224,-161.2259 2812.9906,-156 2575.6262,-117.5148 2501.5886,-197.0055 2272.9906,-122.4 2254.339,-116.3128 2235.7253,-106.1926 2219.3768,-95.5787"/>
<polygon fill="#ff0000" stroke="#ff0000" points="2221.3029,-92.6563 2211.0458,-90.0021 2217.409,-98.4733 2221.3029,-92.6563"/>
</g>
<!-- n11 -->
<g id="node20" class="node">
<title>n11</title>
<path fill="#ffffff" stroke="#b8860b" stroke-width="2" d="M1823.9906,-792C1823.9906,-792 1651.9906,-792 1651.9906,-792 1645.9906,-792 1639.9906,-786 1639.9906,-780 1639.9906,-780 1639.9906,-704 1639.9906,-704 1639.9906,-698 1645.9906,-692 1651.9906,-692 1651.9906,-692 1823.9906,-692 1823.9906,-692 1829.9906,-692 1835.9906,-698 1835.9906,-704 1835.9906,-704 1835.9906,-780 1835.9906,-780 1835.9906,-786 1829.9906,-792 1823.9906,-792"/>
<text text-anchor="start" x="1655.4826" y="-778" font-family="arial" font-weight="bold" font-size="10.00" fill="#000000">Flora Similarities as Best Explanation</text>
<text text-anchor="start" x="1655.1816" y="-761" font-family="arial" font-size="10.00" fill="#000000">The best explanation of the existence</text>
<text text-anchor="start" x="1670.4746" y="-749" font-family="arial" font-size="10.00" fill="#000000"> of coal in some strata G is the</text>
<text text-anchor="start" x="1658.8176" y="-737" font-family="arial" font-size="10.00" fill="#000000"> similarity between G&#39;s flora and the</text>
<text text-anchor="start" x="1651.2996" y="-725" font-family="arial" font-size="10.00" fill="#000000"> one of the CM (the CM being noted for</text>
<text text-anchor="start" x="1669.3546" y="-713" font-family="arial" font-size="10.00" fill="#000000"> the great amounts of coal they</text>
<text text-anchor="start" x="1691.5891" y="-701" font-family="arial" font-size="10.00" fill="#000000"> contain) #GRE #aux</text>
</g>
<!-- n11&#45;&gt;n38 -->
<g id="edge73" class="edge">
<title>n11&#45;&gt;n38</title>
<path fill="none" stroke="#00ff00" d="M1737.9906,-691.7881C1737.9906,-672.6207 1737.9906,-650.5665 1737.9906,-630.5375"/>
<polygon fill="#00ff00" stroke="#00ff00" points="1741.4907,-630.2743 1737.9906,-620.2743 1734.4907,-630.2743 1741.4907,-630.2743"/>
</g>
<!-- n12 -->
<g id="node21" class="node">
<title>n12</title>
<path fill="#ffffff" stroke="#b8860b" stroke-width="2" d="M1823.9906,-412C1823.9906,-412 1651.9906,-412 1651.9906,-412 1645.9906,-412 1639.9906,-406 1639.9906,-400 1639.9906,-400 1639.9906,-372 1639.9906,-372 1639.9906,-366 1645.9906,-360 1651.9906,-360 1651.9906,-360 1823.9906,-360 1823.9906,-360 1829.9906,-360 1835.9906,-366 1835.9906,-372 1835.9906,-372 1835.9906,-400 1835.9906,-400 1835.9906,-406 1829.9906,-412 1823.9906,-412"/>
<text text-anchor="start" x="1662.1651" y="-398" font-family="arial" font-weight="bold" font-size="10.00" fill="#000000">CM and Pre&#45;ORS &#45; Similar Fossils</text>
<text text-anchor="start" x="1660.7566" y="-381" font-family="arial" font-size="10.00" fill="#000000">In pre&#45;ORS strata, there are fossils</text>
<text text-anchor="start" x="1664.9256" y="-369" font-family="arial" font-size="10.00" fill="#000000"> similar to those of the CM #GRE</text>
</g>
<!-- n12&#45;&gt;n39 -->
<g id="edge4" class="edge">
<title>n12&#45;&gt;n39</title>
<path fill="none" stroke="#ff0000" d="M1737.9906,-359.7355C1737.9906,-334.2549 1737.9906,-294.8155 1737.9906,-262.5322"/>
<polygon fill="#ff0000" stroke="#ff0000" points="1741.4907,-262.3288 1737.9906,-252.3289 1734.4907,-262.3289 1741.4907,-262.3288"/>
</g>
<!-- n38&#45;&gt;n12 -->
<g id="edge53" class="edge">
<title>n38&#45;&gt;n12</title>
<path fill="none" stroke="#00ff00" d="M1737.9906,-519.7212C1737.9906,-488.8685 1737.9906,-450.0738 1737.9906,-422.2276"/>
<polygon fill="#00ff00" stroke="#00ff00" points="1741.4907,-422.1307 1737.9906,-412.1307 1734.4907,-422.1308 1741.4907,-422.1307"/>
</g>
<!-- n39&#45;&gt;n3 -->
<g id="edge5" class="edge">
<title>n39&#45;&gt;n3</title>
<path fill="none" stroke="#ff0000" d="M1737.9906,-163.8698C1737.9906,-144.5696 1737.9906,-121.8775 1737.9906,-102.1424"/>
<polygon fill="#ff0000" stroke="#ff0000" points="1741.4907,-102.1253 1737.9906,-92.1254 1734.4907,-102.1254 1741.4907,-102.1253"/>
</g>
<!-- n19 -->
<g id="node24" class="node">
<title>n19</title>
<path fill="#ffffff" stroke="#f5f5dc" stroke-width="2" d="M1573.9906,-1094C1573.9906,-1094 1401.9906,-1094 1401.9906,-1094 1395.9906,-1094 1389.9906,-1088 1389.9906,-1082 1389.9906,-1082 1389.9906,-1054 1389.9906,-1054 1389.9906,-1048 1395.9906,-1042 1401.9906,-1042 1401.9906,-1042 1573.9906,-1042 1573.9906,-1042 1579.9906,-1042 1585.9906,-1048 1585.9906,-1054 1585.9906,-1054 1585.9906,-1082 1585.9906,-1082 1585.9906,-1088 1579.9906,-1094 1573.9906,-1094"/>
<text text-anchor="start" x="1447.9871" y="-1080" font-family="arial" font-weight="bold" font-size="10.00" fill="#000000">Some BCL as CM</text>
<text text-anchor="start" x="1400.4726" y="-1063" font-family="arial" font-size="10.00" fill="#000000">Some part of the black Culm Limestone</text>
<text text-anchor="start" x="1422.7036" y="-1051" font-family="arial" font-size="10.00" fill="#000000"> is CM in age #pri #chron&#45;hyp</text>
</g>
<!-- n43 -->
<g id="node31" class="node">
<title>n43</title>
<path fill="#f5f5dc" stroke="#000000" d="M1399.9906,-940C1399.9906,-940 1227.9906,-940 1227.9906,-940 1221.9906,-940 1215.9906,-934 1215.9906,-928 1215.9906,-928 1215.9906,-876 1215.9906,-876 1215.9906,-870 1221.9906,-864 1227.9906,-864 1227.9906,-864 1399.9906,-864 1399.9906,-864 1405.9906,-864 1411.9906,-870 1411.9906,-876 1411.9906,-876 1411.9906,-928 1411.9906,-928 1411.9906,-934 1405.9906,-940 1399.9906,-940"/>
<text text-anchor="start" x="1229.2426" y="-926" font-family="arial" font-weight="bold" font-size="10.00" fill="#000000">Standard Sequence as Partition &#45; BCL</text>
<text text-anchor="start" x="1247.5891" y="-909" font-family="arial" font-size="10.00" fill="#000000">If some part of the black Culm</text>
<text text-anchor="start" x="1229.5376" y="-897" font-family="arial" font-size="10.00" fill="#000000"> Limestone is neiter CM, ML, ORS nor</text>
<text text-anchor="start" x="1231.4696" y="-885" font-family="arial" font-size="10.00" fill="#000000"> SIL in age, then it is CAM in age #pri</text>
<text text-anchor="start" x="1287.5951" y="-873" font-family="arial" font-size="10.00" fill="#000000"> #chron&#45;hyp</text>
</g>
<!-- n19&#45;&gt;n43 -->
<g id="edge21" class="edge">
<title>n19&#45;&gt;n43</title>
<path fill="none" stroke="#ff0000" d="M1460.4198,-1041.6968C1433.8942,-1016.3907 1393.25,-977.6152 1361.5066,-947.3314"/>
<polygon fill="#ff0000" stroke="#ff0000" points="1363.7071,-944.5933 1354.0557,-940.2229 1358.8751,-949.6582 1363.7071,-944.5933"/>
</g>
<!-- n44 -->
<g id="node32" class="node">
<title>n44</title>
<path fill="#b8860b" stroke="#000000" d="M1399.9906,-588C1399.9906,-588 1227.9906,-588 1227.9906,-588 1221.9906,-588 1215.9906,-582 1215.9906,-576 1215.9906,-576 1215.9906,-564 1215.9906,-564 1215.9906,-558 1221.9906,-552 1227.9906,-552 1227.9906,-552 1399.9906,-552 1399.9906,-552 1405.9906,-552 1411.9906,-558 1411.9906,-564 1411.9906,-564 1411.9906,-576 1411.9906,-576 1411.9906,-582 1405.9906,-588 1399.9906,-588"/>
<text text-anchor="start" x="1260.6466" y="-568" font-family="arial" font-weight="bold" font-size="10.00" fill="#000000">Dating the BCL &#45; GRE.1</text>
</g>
<!-- n19&#45;&gt;n44 -->
<g id="edge30" class="edge">
<title>n19&#45;&gt;n44</title>
<path fill="none" stroke="#ff0000" d="M1488.0642,-1041.9234C1487.2702,-978.6579 1479.315,-813.3085 1420.9906,-692 1402.4847,-653.5097 1368.3756,-617.8243 1343.6317,-595.1188"/>
<polygon fill="#ff0000" stroke="#ff0000" points="1345.7339,-592.302 1335.9587,-588.2158 1341.0521,-597.5061 1345.7339,-592.302"/>
</g>
<!-- n20 -->
<g id="node25" class="node">
<title>n20</title>
<path fill="#ffffff" stroke="#f5f5dc" stroke-width="2" d="M1573.9906,-234C1573.9906,-234 1401.9906,-234 1401.9906,-234 1395.9906,-234 1389.9906,-228 1389.9906,-222 1389.9906,-222 1389.9906,-194 1389.9906,-194 1389.9906,-188 1395.9906,-182 1401.9906,-182 1401.9906,-182 1573.9906,-182 1573.9906,-182 1579.9906,-182 1585.9906,-188 1585.9906,-194 1585.9906,-194 1585.9906,-222 1585.9906,-222 1585.9906,-228 1579.9906,-234 1573.9906,-234"/>
<text text-anchor="start" x="1448.8171" y="-220" font-family="arial" font-weight="bold" font-size="10.00" fill="#000000">Some BCL as ML</text>
<text text-anchor="start" x="1400.4726" y="-203" font-family="arial" font-size="10.00" fill="#000000">Some part of the black Culm Limestone</text>
<text text-anchor="start" x="1423.5336" y="-191" font-family="arial" font-size="10.00" fill="#000000"> is ML in age #pri #chron&#45;hyp</text>
</g>
<!-- n20&#45;&gt;n43 -->
<g id="edge22" class="edge">
<title>n20&#45;&gt;n43</title>
<path fill="none" stroke="#ff0000" d="M1494.9636,-234.0226C1500.8397,-257.3777 1508.7865,-292.6985 1511.9906,-324 1518.9786,-392.2655 1520.8392,-410.3507 1511.9906,-478.4 1491.5982,-635.2277 1509.6212,-691.4214 1420.9906,-822.4 1412.072,-835.5801 1400.229,-847.4209 1387.675,-857.6914"/>
<polygon fill="#ff0000" stroke="#ff0000" points="1385.4929,-854.9547 1379.7862,-863.8813 1389.8141,-860.4618 1385.4929,-854.9547"/>
</g>
<!-- n20&#45;&gt;n44 -->
<g id="edge31" class="edge">
<title>n20&#45;&gt;n44</title>
<path fill="none" stroke="#ff0000" d="M1431.1919,-234.1276C1379.5993,-259.1675 1309.2855,-297.0342 1293.9906,-324 1277.063,-353.8447 1290.3099,-444.2869 1293.9906,-478.4 1296.3262,-500.0454 1301.6806,-524.0767 1306.2618,-542.0924"/>
<polygon fill="#ff0000" stroke="#ff0000" points="1302.9218,-543.1541 1308.8412,-551.941 1309.6934,-541.3805 1302.9218,-543.1541"/>
</g>
<!-- n21 -->
<g id="node26" class="node">
<title>n21</title>
<path fill="#ffffff" stroke="#f5f5dc" stroke-width="2" d="M1145.9906,-234C1145.9906,-234 973.9906,-234 973.9906,-234 967.9906,-234 961.9906,-228 961.9906,-222 961.9906,-222 961.9906,-194 961.9906,-194 961.9906,-188 967.9906,-182 973.9906,-182 973.9906,-182 1145.9906,-182 1145.9906,-182 1151.9906,-182 1157.9906,-188 1157.9906,-194 1157.9906,-194 1157.9906,-222 1157.9906,-222 1157.9906,-228 1151.9906,-234 1145.9906,-234"/>
<text text-anchor="start" x="1016.9276" y="-220" font-family="arial" font-weight="bold" font-size="10.00" fill="#000000">Some BCL as ORS</text>
<text text-anchor="start" x="972.4726" y="-203" font-family="arial" font-size="10.00" fill="#000000">Some part of the black Culm Limestone</text>
<text text-anchor="start" x="991.6441" y="-191" font-family="arial" font-size="10.00" fill="#000000"> is ORS in age #pri #chron&#45;hyp</text>
</g>
<!-- n21&#45;&gt;n43 -->
<g id="edge23" class="edge">
<title>n21&#45;&gt;n43</title>
<path fill="none" stroke="#ff0000" d="M1071.7594,-234.2819C1094.7081,-286.8977 1145.1006,-409.4462 1166.9906,-518 1193.7912,-650.9053 1117.4855,-705.9907 1186.9906,-822.4 1195.2207,-836.184 1206.8601,-847.9473 1219.7874,-857.8633"/>
<polygon fill="#ff0000" stroke="#ff0000" points="1217.8322,-860.7688 1227.984,-863.8003 1221.9384,-855.0996 1217.8322,-860.7688"/>
</g>
<!-- n21&#45;&gt;n44 -->
<g id="edge32" class="edge">
<title>n21&#45;&gt;n44</title>
<path fill="none" stroke="#ff0000" d="M1092.8906,-234.0873C1119.2185,-256.1062 1155.921,-289.4835 1181.9906,-324 1228.6946,-385.8365 1226.1397,-410.231 1262.9906,-478.4 1274.7839,-500.2159 1288.4704,-524.7569 1298.6941,-542.9426"/>
<polygon fill="#ff0000" stroke="#ff0000" points="1295.7397,-544.8293 1303.6965,-551.8251 1301.839,-541.3943 1295.7397,-544.8293"/>
</g>
<!-- n22 -->
<g id="node27" class="node">
<title>n22</title>
<path fill="#ffffff" stroke="#f5f5dc" stroke-width="2" d="M1359.9906,-234C1359.9906,-234 1187.9906,-234 1187.9906,-234 1181.9906,-234 1175.9906,-228 1175.9906,-222 1175.9906,-222 1175.9906,-194 1175.9906,-194 1175.9906,-188 1181.9906,-182 1187.9906,-182 1187.9906,-182 1359.9906,-182 1359.9906,-182 1365.9906,-182 1371.9906,-188 1371.9906,-194 1371.9906,-194 1371.9906,-222 1371.9906,-222 1371.9906,-228 1365.9906,-234 1359.9906,-234"/>
<text text-anchor="start" x="1234.2576" y="-220" font-family="arial" font-weight="bold" font-size="10.00" fill="#000000">Some BCL as SIL</text>
<text text-anchor="start" x="1186.4726" y="-203" font-family="arial" font-size="10.00" fill="#000000">Some part of the black Culm Limestone</text>
<text text-anchor="start" x="1208.9741" y="-191" font-family="arial" font-size="10.00" fill="#000000"> is SIL in age #pri #chron&#45;hyp</text>
</g>
<!-- n22&#45;&gt;n43 -->
<g id="edge24" class="edge">
<title>n22&#45;&gt;n43</title>
<path fill="none" stroke="#ff0000" d="M1266.3339,-234.23C1251.3006,-287.2537 1218.3963,-411.2364 1206.9906,-518 1199.805,-585.2617 1176.6212,-761.9561 1206.9906,-822.4 1213.6627,-835.6794 1223.7157,-847.3038 1235.0348,-857.2683"/>
<polygon fill="#ff0000" stroke="#ff0000" points="1233.1125,-860.2207 1243.0474,-863.9016 1237.5764,-854.8286 1233.1125,-860.2207"/>
</g>
<!-- n22&#45;&gt;n44 -->
<g id="edge33" class="edge">
<title>n22&#45;&gt;n44</title>
<path fill="none" stroke="#ff0000" d="M1271.5199,-234.0361C1267.5588,-282.6132 1261.8566,-390.1337 1278.9906,-478.4 1283.3428,-500.8204 1292.7454,-524.8978 1300.7099,-542.7383"/>
<polygon fill="#ff0000" stroke="#ff0000" points="1297.5903,-544.3321 1304.9454,-551.9579 1303.9512,-541.4099 1297.5903,-544.3321"/>
</g>
<!-- n23 -->
<g id="node28" class="node">
<title>n23</title>
<path fill="#ffffff" stroke="#f5f5dc" stroke-width="2" d="M1399.9906,-768C1399.9906,-768 1227.9906,-768 1227.9906,-768 1221.9906,-768 1215.9906,-762 1215.9906,-756 1215.9906,-756 1215.9906,-728 1215.9906,-728 1215.9906,-722 1221.9906,-716 1227.9906,-716 1227.9906,-716 1399.9906,-716 1399.9906,-716 1405.9906,-716 1411.9906,-722 1411.9906,-728 1411.9906,-728 1411.9906,-756 1411.9906,-756 1411.9906,-762 1405.9906,-768 1399.9906,-768"/>
<text text-anchor="start" x="1270.6526" y="-754" font-family="arial" font-weight="bold" font-size="10.00" fill="#000000">Some BCL as CAM</text>
<text text-anchor="start" x="1226.4726" y="-737" font-family="arial" font-size="10.00" fill="#000000">Some part of the black Culm Limestone</text>
<text text-anchor="start" x="1245.3691" y="-725" font-family="arial" font-size="10.00" fill="#000000"> is CAM in age #pri #chron&#45;hyp</text>
</g>
<!-- n23&#45;&gt;n44 -->
<g id="edge76" class="edge">
<title>n23&#45;&gt;n44</title>
<path fill="none" stroke="#00ff00" d="M1313.9906,-715.8769C1313.9906,-684.299 1313.9906,-631.3392 1313.9906,-598.6633"/>
<polygon fill="#00ff00" stroke="#00ff00" points="1317.4907,-598.4197 1313.9906,-588.4198 1310.4907,-598.4198 1317.4907,-598.4197"/>
</g>
<!-- n45 -->
<g id="node33" class="node">
<title>n45</title>
<path fill="#b8860b" stroke="#000000" d="M1145.9906,-614C1145.9906,-614 973.9906,-614 973.9906,-614 967.9906,-614 961.9906,-608 961.9906,-602 961.9906,-602 961.9906,-538 961.9906,-538 961.9906,-532 967.9906,-526 973.9906,-526 973.9906,-526 1145.9906,-526 1145.9906,-526 1151.9906,-526 1157.9906,-532 1157.9906,-538 1157.9906,-538 1157.9906,-602 1157.9906,-602 1157.9906,-608 1151.9906,-614 1145.9906,-614"/>
<text text-anchor="start" x="1013.0486" y="-600" font-family="arial" font-weight="bold" font-size="10.00" fill="#000000">BCL as CAM &#45; CRTP</text>
<text text-anchor="start" x="976.9081" y="-583" font-family="arial" font-size="10.00" fill="#000000">If strata can be identified by means of</text>
<text text-anchor="start" x="978.3066" y="-571" font-family="arial" font-size="10.00" fill="#000000"> their characteristic rock type and the</text>
<text text-anchor="start" x="978.0231" y="-559" font-family="arial" font-size="10.00" fill="#000000"> BCL strata are not CAM in age, then</text>
<text text-anchor="start" x="983.3106" y="-547" font-family="arial" font-size="10.00" fill="#000000"> they are not of characteristic CAM</text>
<text text-anchor="start" x="1017.1981" y="-535" font-family="arial" font-size="10.00" fill="#000000"> appearance #GRE</text>
</g>
<!-- n23&#45;&gt;n45 -->
<g id="edge34" class="edge">
<title>n23&#45;&gt;n45</title>
<path fill="none" stroke="#ff0000" d="M1275.4135,-715.8769C1237.9172,-690.4857 1180.006,-651.2702 1133.6673,-619.8913"/>
<polygon fill="#ff0000" stroke="#ff0000" points="1135.3998,-616.8375 1125.1571,-614.1285 1131.4748,-622.6336 1135.3998,-616.8375"/>
</g>
<!-- n24 -->
<g id="node29" class="node">
<title>n24</title>
<path fill="#ffffff" stroke="#f5f5dc" stroke-width="2" d="M1359.9906,-1100C1359.9906,-1100 1187.9906,-1100 1187.9906,-1100 1181.9906,-1100 1175.9906,-1094 1175.9906,-1088 1175.9906,-1088 1175.9906,-1048 1175.9906,-1048 1175.9906,-1042 1181.9906,-1036 1187.9906,-1036 1187.9906,-1036 1359.9906,-1036 1359.9906,-1036 1365.9906,-1036 1371.9906,-1042 1371.9906,-1048 1371.9906,-1048 1371.9906,-1088 1371.9906,-1088 1371.9906,-1094 1365.9906,-1100 1359.9906,-1100"/>
<text text-anchor="start" x="1196.2096" y="-1086" font-family="arial" font-weight="bold" font-size="10.00" fill="#000000">BCL as Post&#45;Primary and Pre&#45;NRS</text>
<text text-anchor="start" x="1186.1976" y="-1069" font-family="arial" font-size="10.00" fill="#000000">The black Culm Limestone is older than</text>
<text text-anchor="start" x="1189.8071" y="-1057" font-family="arial" font-size="10.00" fill="#000000"> Primary strata and younger than New</text>
<text text-anchor="start" x="1188.1321" y="-1045" font-family="arial" font-size="10.00" fill="#000000"> Red Sandstone strata #pri #chron&#45;hyp</text>
</g>
<!-- n24&#45;&gt;n43 -->
<g id="edge77" class="edge">
<title>n24&#45;&gt;n43</title>
<path fill="none" stroke="#00ff00" d="M1281.703,-1035.9935C1287.5868,-1011.5759 1295.7871,-977.5448 1302.451,-949.8894"/>
<polygon fill="#00ff00" stroke="#00ff00" points="1305.8895,-950.5604 1304.8295,-940.0187 1299.0842,-948.9205 1305.8895,-950.5604"/>
</g>
<!-- n25 -->
<g id="node30" class="node">
<title>n25</title>
<path fill="#ffffff" stroke="#b8860b" stroke-width="2" d="M1490.9906,-412C1490.9906,-412 1314.9906,-412 1314.9906,-412 1308.9906,-412 1302.9906,-406 1302.9906,-400 1302.9906,-400 1302.9906,-372 1302.9906,-372 1302.9906,-366 1308.9906,-360 1314.9906,-360 1314.9906,-360 1490.9906,-360 1490.9906,-360 1496.9906,-360 1502.9906,-366 1502.9906,-372 1502.9906,-372 1502.9906,-400 1502.9906,-400 1502.9906,-406 1496.9906,-412 1490.9906,-412"/>
<text text-anchor="start" x="1374.1001" y="-398" font-family="arial" font-weight="bold" font-size="10.00" fill="#000000">BCL as CAM</text>
<text text-anchor="start" x="1312.6931" y="-381" font-family="arial" font-size="10.00" fill="#000000">The black Culm Limestone is nothing but</text>
<text text-anchor="start" x="1322.1411" y="-369" font-family="arial" font-size="10.00" fill="#000000"> Cambrian in age #GRE #chron&#45;hyp </text>
</g>
<!-- n25&#45;&gt;n19 -->
<g id="edge25" class="edge">
<title>n25&#45;&gt;n19</title>
<path fill="none" stroke="#ff0000" d="M1409.3107,-412.1875C1415.5857,-438.7431 1425.2215,-481.0742 1431.9906,-518 1460.0181,-670.8916 1469.7284,-709.1275 1482.9906,-864 1488.0097,-922.6111 1488.6214,-991.0135 1488.4316,-1031.8476"/>
<polygon fill="#ff0000" stroke="#ff0000" points="1484.9316,-1031.8373 1488.3661,-1041.86 1491.9315,-1031.8831 1484.9316,-1031.8373"/>
</g>
<!-- n25&#45;&gt;n20 -->
<g id="edge26" class="edge">
<title>n25&#45;&gt;n20</title>
<path fill="none" stroke="#ff0000" d="M1415.5327,-359.7355C1430.2645,-328.8854 1454.7673,-277.5737 1471.1462,-243.2742"/>
<polygon fill="#ff0000" stroke="#ff0000" points="1474.3848,-244.6145 1475.5356,-234.0823 1468.068,-241.598 1474.3848,-244.6145"/>
</g>
<!-- n25&#45;&gt;n21 -->
<g id="edge27" class="edge">
<title>n25&#45;&gt;n21</title>
<path fill="none" stroke="#ff0000" d="M1352.7482,-359.9266C1290.7245,-327.7394 1185.3795,-273.0706 1119.4067,-238.834"/>
<polygon fill="#ff0000" stroke="#ff0000" points="1120.8557,-235.6428 1110.3675,-234.1431 1117.6313,-241.856 1120.8557,-235.6428"/>
</g>
<!-- n25&#45;&gt;n22 -->
<g id="edge28" class="edge">
<title>n25&#45;&gt;n22</title>
<path fill="none" stroke="#ff0000" d="M1383.9562,-359.7355C1361.4075,-328.6217 1323.7752,-276.695 1298.9199,-242.3985"/>
<polygon fill="#ff0000" stroke="#ff0000" points="1301.5952,-240.1256 1292.893,-234.0823 1295.9272,-244.2334 1301.5952,-240.1256"/>
</g>
<!-- n25&#45;&gt;n23 -->
<g id="edge29" class="edge">
<title>n25&#45;&gt;n23</title>
<path fill="none" stroke="#00ff00" d="M1412.0583,-412.2933C1425.8548,-456.7011 1447.8312,-548.6909 1420.9906,-620 1407.7817,-655.093 1379.3854,-686.6727 1355.164,-708.9066"/>
<polygon fill="#00ff00" stroke="#00ff00" points="1352.5898,-706.5133 1347.4711,-715.7896 1357.2574,-711.73 1352.5898,-706.5133"/>
</g>
<!-- n25&#45;&gt;n51 -->
<g id="edge78" class="edge">
<title>n25&#45;&gt;n51</title>
<path fill="none" stroke="#00ff00" d="M1478.6227,-359.9257C1520.6125,-346.6627 1574.0964,-331.7432 1622.9906,-324 2424.741,-197.0291 2650.5059,-403.4706 3447.9906,-252 3453.8238,-250.8921 3459.7516,-249.5651 3465.6967,-248.074"/>
<polygon fill="#00ff00" stroke="#00ff00" points="3466.9362,-251.3664 3475.7046,-245.4194 3465.1415,-244.6003 3466.9362,-251.3664"/>
</g>
<!-- n43&#45;&gt;n23 -->
<g id="edge56" class="edge">
<title>n43&#45;&gt;n23</title>
<path fill="none" stroke="#00ff00" d="M1313.9906,-863.676C1313.9906,-837.6744 1313.9906,-803.5234 1313.9906,-778.0222"/>
<polygon fill="#00ff00" stroke="#00ff00" points="1317.4907,-778.0182 1313.9906,-768.0183 1310.4907,-778.0183 1317.4907,-778.0182"/>
</g>
<!-- n44&#45;&gt;n25 -->
<g id="edge57" class="edge">
<title>n44&#45;&gt;n25</title>
<path fill="none" stroke="#00ff00" d="M1322.8497,-551.6847C1337.482,-521.4336 1366.9514,-460.5081 1385.7878,-421.5654"/>
<polygon fill="#00ff00" stroke="#00ff00" points="1389.1285,-422.6966 1390.3322,-412.1704 1382.827,-419.6485 1389.1285,-422.6966"/>
</g>
<!-- n45&#45;&gt;n7 -->
<g id="edge35" class="edge">
<title>n45&#45;&gt;n7</title>
<path fill="none" stroke="#ff0000" d="M961.7819,-568.2183C724.1037,-562.8926 133.0513,-543.2018 73.9906,-478.4 -22.53,-372.4969 -26.4688,-258.1743 73.9906,-156 112.6539,-116.6767 2006.1918,-138.3201 2058.9906,-122.4 2077.9549,-116.6818 2096.7864,-106.5532 2113.2427,-95.8139"/>
<polygon fill="#ff0000" stroke="#ff0000" points="2115.2875,-98.6565 2121.62,-90.1624 2111.3726,-92.8535 2115.2875,-98.6565"/>
</g>
<!-- n26 -->
<g id="node34" class="node">
<title>n26</title>
<path fill="#ffffff" stroke="#f5f5dc" stroke-width="2" d="M3884.9906,-1094C3884.9906,-1094 3712.9906,-1094 3712.9906,-1094 3706.9906,-1094 3700.9906,-1088 3700.9906,-1082 3700.9906,-1082 3700.9906,-1054 3700.9906,-1054 3700.9906,-1048 3706.9906,-1042 3712.9906,-1042 3712.9906,-1042 3884.9906,-1042 3884.9906,-1042 3890.9906,-1042 3896.9906,-1048 3896.9906,-1054 3896.9906,-1054 3896.9906,-1082 3896.9906,-1082 3896.9906,-1088 3890.9906,-1094 3884.9906,-1094"/>
<text text-anchor="start" x="3746.2146" y="-1080" font-family="arial" font-weight="bold" font-size="10.00" fill="#000000">Some Non&#45;Culm as CM</text>
<text text-anchor="start" x="3710.9236" y="-1063" font-family="arial" font-size="10.00" fill="#000000">Some part of the non&#45;Culm strata is CM</text>
<text text-anchor="start" x="3747.8661" y="-1051" font-family="arial" font-size="10.00" fill="#000000"> in age #pri #chron&#45;hyp</text>
</g>
<!-- n46 -->
<g id="node41" class="node">
<title>n46</title>
<path fill="#f5f5dc" stroke="#000000" d="M4009.9906,-938C4009.9906,-938 3837.9906,-938 3837.9906,-938 3831.9906,-938 3825.9906,-932 3825.9906,-926 3825.9906,-926 3825.9906,-878 3825.9906,-878 3825.9906,-872 3831.9906,-866 3837.9906,-866 3837.9906,-866 4009.9906,-866 4009.9906,-866 4015.9906,-866 4021.9906,-872 4021.9906,-878 4021.9906,-878 4021.9906,-926 4021.9906,-926 4021.9906,-932 4015.9906,-938 4009.9906,-938"/>
<text text-anchor="start" x="3850.3556" y="-924" font-family="arial" font-weight="bold" font-size="10.00" fill="#000000">Standard Sequence as Partition &#45;</text>
<text text-anchor="start" x="3900.1051" y="-914" font-family="arial" font-weight="bold" font-size="10.00" fill="#000000"> Non&#45;Culm</text>
<text text-anchor="start" x="3841.7531" y="-899" font-family="arial" font-size="10.00" fill="#000000">If some part of the non&#45;Culm strata is</text>
<text text-anchor="start" x="3835.9151" y="-887" font-family="arial" font-size="10.00" fill="#000000"> neiter CM, ML, OR nor SIL in age, then</text>
<text text-anchor="start" x="3851.4806" y="-875" font-family="arial" font-size="10.00" fill="#000000"> it is CAM in age #pri #chron&#45;hyp</text>
</g>
<!-- n26&#45;&gt;n46 -->
<g id="edge36" class="edge">
<title>n26&#45;&gt;n46</title>
<path fill="none" stroke="#ff0000" d="M3818.7973,-1041.6968C3838.0523,-1016.1261 3867.6632,-976.8028 3890.5688,-946.3841"/>
<polygon fill="#ff0000" stroke="#ff0000" points="3893.6179,-948.1533 3896.8374,-938.0595 3888.026,-943.9425 3893.6179,-948.1533"/>
</g>
<!-- n47 -->
<g id="node42" class="node">
<title>n47</title>
<path fill="#b8860b" stroke="#000000" d="M4012.9906,-588C4012.9906,-588 3840.9906,-588 3840.9906,-588 3834.9906,-588 3828.9906,-582 3828.9906,-576 3828.9906,-576 3828.9906,-564 3828.9906,-564 3828.9906,-558 3834.9906,-552 3840.9906,-552 3840.9906,-552 4012.9906,-552 4012.9906,-552 4018.9906,-552 4024.9906,-558 4024.9906,-564 4024.9906,-564 4024.9906,-576 4024.9906,-576 4024.9906,-582 4018.9906,-588 4012.9906,-588"/>
<text text-anchor="start" x="3862.2636" y="-568" font-family="arial" font-weight="bold" font-size="10.00" fill="#000000">Dating the Non&#45;Culm&#45; GRE.1</text>
</g>
<!-- n26&#45;&gt;n47 -->
<g id="edge45" class="edge">
<title>n26&#45;&gt;n47</title>
<path fill="none" stroke="#ff0000" d="M3794.0362,-1041.6076C3783.4042,-978.3336 3763.2671,-814.1821 3813.9906,-692 3830.6431,-651.8878 3866.7462,-616.7891 3893.6891,-594.6635"/>
<polygon fill="#ff0000" stroke="#ff0000" points="3896.1112,-597.2076 3901.7249,-588.2222 3891.7331,-591.7457 3896.1112,-597.2076"/>
</g>
<!-- n27 -->
<g id="node35" class="node">
<title>n27</title>
<path fill="#ffffff" stroke="#f5f5dc" stroke-width="2" d="M4099.9906,-234C4099.9906,-234 3927.9906,-234 3927.9906,-234 3921.9906,-234 3915.9906,-228 3915.9906,-222 3915.9906,-222 3915.9906,-194 3915.9906,-194 3915.9906,-188 3921.9906,-182 3927.9906,-182 3927.9906,-182 4099.9906,-182 4099.9906,-182 4105.9906,-182 4111.9906,-188 4111.9906,-194 4111.9906,-194 4111.9906,-222 4111.9906,-222 4111.9906,-228 4105.9906,-234 4099.9906,-234"/>
<text text-anchor="start" x="3962.0446" y="-220" font-family="arial" font-weight="bold" font-size="10.00" fill="#000000">Some Non&#45;Culm as ML</text>
<text text-anchor="start" x="3926.7536" y="-203" font-family="arial" font-size="10.00" fill="#000000">Some part of the non&#45;Culm strata is ML</text>
<text text-anchor="start" x="3962.8661" y="-191" font-family="arial" font-size="10.00" fill="#000000"> in age #pri #chron&#45;hyp</text>
</g>
<!-- n27&#45;&gt;n46 -->
<g id="edge37" class="edge">
<title>n27&#45;&gt;n46</title>
<path fill="none" stroke="#ff0000" d="M4016.3156,-234.0937C4025.9493,-344.4422 4060.992,-769.5313 4033.9906,-822.4 4026.621,-836.8297 4015.279,-849.2491 4002.629,-859.6975"/>
<polygon fill="#ff0000" stroke="#ff0000" points="4000.3437,-857.0411 3994.6074,-865.9487 4004.6466,-862.5625 4000.3437,-857.0411"/>
</g>
<!-- n27&#45;&gt;n47 -->
<g id="edge46" class="edge">
<title>n27&#45;&gt;n47</title>
<path fill="none" stroke="#ff0000" d="M4014.6822,-234.1651C4015.189,-283.4069 4012.5123,-392.6138 3982.9906,-478.4 3974.8817,-501.9635 3959.969,-525.8983 3947.5706,-543.3897"/>
<polygon fill="#ff0000" stroke="#ff0000" points="3944.4215,-541.7686 3941.3656,-551.9132 3950.0807,-545.8885 3944.4215,-541.7686"/>
</g>
<!-- n28 -->
<g id="node36" class="node">
<title>n28</title>
<path fill="#ffffff" stroke="#f5f5dc" stroke-width="2" d="M3885.9906,-234C3885.9906,-234 3707.9906,-234 3707.9906,-234 3701.9906,-234 3695.9906,-228 3695.9906,-222 3695.9906,-222 3695.9906,-194 3695.9906,-194 3695.9906,-188 3701.9906,-182 3707.9906,-182 3707.9906,-182 3885.9906,-182 3885.9906,-182 3891.9906,-182 3897.9906,-188 3897.9906,-194 3897.9906,-194 3897.9906,-222 3897.9906,-222 3897.9906,-228 3891.9906,-234 3885.9906,-234"/>
<text text-anchor="start" x="3741.1551" y="-220" font-family="arial" font-weight="bold" font-size="10.00" fill="#000000">Some Non&#45;Culm as ORS</text>
<text text-anchor="start" x="3705.8641" y="-203" font-family="arial" font-size="10.00" fill="#000000">Some part of the non&#45;Culm strata is ORS</text>
<text text-anchor="start" x="3745.8661" y="-191" font-family="arial" font-size="10.00" fill="#000000"> in age #pri #chron&#45;hyp</text>
</g>
<!-- n28&#45;&gt;n46 -->
<g id="edge38" class="edge">
<title>n28&#45;&gt;n46</title>
<path fill="none" stroke="#ff0000" d="M3784.1131,-234.4248C3773.6483,-257.4555 3759.7169,-292.0777 3753.9906,-324 3741.8745,-391.5441 3748.0731,-410.0334 3753.9906,-478.4 3767.3738,-633.0189 3731.7452,-690.7876 3813.9906,-822.4 3822.8357,-836.5543 3835.2027,-848.9681 3848.4668,-859.5215"/>
<polygon fill="#ff0000" stroke="#ff0000" points="3846.7343,-862.6001 3856.8181,-865.851 3850.9625,-857.0213 3846.7343,-862.6001"/>
</g>
<!-- n28&#45;&gt;n47 -->
<g id="edge47" class="edge">
<title>n28&#45;&gt;n47</title>
<path fill="none" stroke="#ff0000" d="M3863.3096,-234.0469C3901.3831,-252.8508 3945.8989,-282.3187 3967.9906,-324 3984.0587,-354.3162 3975.1575,-444.8457 3967.9906,-478.4 3963.139,-501.1148 3952.2219,-525.0124 3942.8722,-542.701"/>
<polygon fill="#ff0000" stroke="#ff0000" points="3939.6021,-541.3871 3937.8876,-551.8423 3945.7479,-544.7383 3939.6021,-541.3871"/>
</g>
<!-- n29 -->
<g id="node37" class="node">
<title>n29</title>
<path fill="#ffffff" stroke="#f5f5dc" stroke-width="2" d="M4313.9906,-234C4313.9906,-234 4141.9906,-234 4141.9906,-234 4135.9906,-234 4129.9906,-228 4129.9906,-222 4129.9906,-222 4129.9906,-194 4129.9906,-194 4129.9906,-188 4135.9906,-182 4141.9906,-182 4141.9906,-182 4313.9906,-182 4313.9906,-182 4319.9906,-182 4325.9906,-188 4325.9906,-194 4325.9906,-194 4325.9906,-222 4325.9906,-222 4325.9906,-228 4319.9906,-234 4313.9906,-234"/>
<text text-anchor="start" x="4175.4851" y="-220" font-family="arial" font-weight="bold" font-size="10.00" fill="#000000">Some Non&#45;Culm as SIL</text>
<text text-anchor="start" x="4140.1941" y="-203" font-family="arial" font-size="10.00" fill="#000000">Some part of the non&#45;Culm strata is SIL</text>
<text text-anchor="start" x="4176.8661" y="-191" font-family="arial" font-size="10.00" fill="#000000"> in age #pri #chron&#45;hyp</text>
</g>
<!-- n29&#45;&gt;n46 -->
<g id="edge39" class="edge">
<title>n29&#45;&gt;n46</title>
<path fill="none" stroke="#ff0000" d="M4239.0447,-234.016C4265.8672,-301.2663 4327.94,-485.0345 4267.9906,-620 4217.5547,-733.5477 4094.6433,-815.7552 4010.2741,-861.1671"/>
<polygon fill="#ff0000" stroke="#ff0000" points="4008.3981,-858.2005 4001.2105,-865.9843 4011.6834,-864.3817 4008.3981,-858.2005"/>
</g>
<!-- n29&#45;&gt;n47 -->
<g id="edge48" class="edge">
<title>n29&#45;&gt;n47</title>
<path fill="none" stroke="#ff0000" d="M4206.2612,-234.1331C4150.8365,-300.79 4004.6585,-476.5921 3948.9662,-543.5709"/>
<polygon fill="#ff0000" stroke="#ff0000" points="3946.0334,-541.6238 3942.3311,-551.5507 3951.4158,-546.0992 3946.0334,-541.6238"/>
</g>
<!-- n30 -->
<g id="node38" class="node">
<title>n30</title>
<path fill="#ffffff" stroke="#f5f5dc" stroke-width="2" d="M4012.9906,-768C4012.9906,-768 3834.9906,-768 3834.9906,-768 3828.9906,-768 3822.9906,-762 3822.9906,-756 3822.9906,-756 3822.9906,-728 3822.9906,-728 3822.9906,-722 3828.9906,-716 3834.9906,-716 3834.9906,-716 4012.9906,-716 4012.9906,-716 4018.9906,-716 4024.9906,-722 4024.9906,-728 4024.9906,-728 4024.9906,-756 4024.9906,-756 4024.9906,-762 4018.9906,-768 4012.9906,-768"/>
<text text-anchor="start" x="3867.8801" y="-754" font-family="arial" font-weight="bold" font-size="10.00" fill="#000000">Some Non&#45;Culm as CAM</text>
<text text-anchor="start" x="3832.5891" y="-737" font-family="arial" font-size="10.00" fill="#000000">Some part of the non&#45;Culm strata is CAM</text>
<text text-anchor="start" x="3872.8661" y="-725" font-family="arial" font-size="10.00" fill="#000000"> in age #pri #chron&#45;hyp</text>
</g>
<!-- n30&#45;&gt;n47 -->
<g id="edge79" class="edge">
<title>n30&#45;&gt;n47</title>
<path fill="none" stroke="#00ff00" d="M3924.4463,-715.8769C3924.9971,-684.299 3925.9208,-631.3392 3926.4907,-598.6633"/>
<polygon fill="#00ff00" stroke="#00ff00" points="3929.9943,-598.4793 3926.6694,-588.4198 3922.9954,-598.3572 3929.9943,-598.4793"/>
</g>
<!-- n48 -->
<g id="node43" class="node">
<title>n48</title>
<path fill="#b8860b" stroke="#000000" d="M4246.9906,-614C4246.9906,-614 4074.9906,-614 4074.9906,-614 4068.9906,-614 4062.9906,-608 4062.9906,-602 4062.9906,-602 4062.9906,-538 4062.9906,-538 4062.9906,-532 4068.9906,-526 4074.9906,-526 4074.9906,-526 4246.9906,-526 4246.9906,-526 4252.9906,-526 4258.9906,-532 4258.9906,-538 4258.9906,-538 4258.9906,-602 4258.9906,-602 4258.9906,-608 4252.9906,-614 4246.9906,-614"/>
<text text-anchor="start" x="4101.2761" y="-600" font-family="arial" font-weight="bold" font-size="10.00" fill="#000000">Non&#45;Culm as CAM &#45; CRTP</text>
<text text-anchor="start" x="4077.9081" y="-583" font-family="arial" font-size="10.00" fill="#000000">If strata can be identified by means of</text>
<text text-anchor="start" x="4079.3066" y="-571" font-family="arial" font-size="10.00" fill="#000000"> their characteristic rock type and the</text>
<text text-anchor="start" x="4078.1981" y="-559" font-family="arial" font-size="10.00" fill="#000000"> non&#45;Culm strata are not CAM in age,</text>
<text text-anchor="start" x="4085.6911" y="-547" font-family="arial" font-size="10.00" fill="#000000"> then they are not of characteristic</text>
<text text-anchor="start" x="4105.7001" y="-535" font-family="arial" font-size="10.00" fill="#000000"> CAM appearance #GRE</text>
</g>
<!-- n30&#45;&gt;n48 -->
<g id="edge49" class="edge">
<title>n30&#45;&gt;n48</title>
<path fill="none" stroke="#ff0000" d="M3959.9858,-715.8769C3994.8999,-690.5384 4048.7837,-651.4329 4091.9758,-620.0867"/>
<polygon fill="#ff0000" stroke="#ff0000" points="4094.1482,-622.8348 4100.1857,-614.1285 4090.0367,-617.1695 4094.1482,-622.8348"/>
</g>
<!-- n31 -->
<g id="node39" class="node">
<title>n31</title>
<path fill="#ffffff" stroke="#f5f5dc" stroke-width="2" d="M4104.4906,-1100C4104.4906,-1100 3927.4906,-1100 3927.4906,-1100 3921.4906,-1100 3915.4906,-1094 3915.4906,-1088 3915.4906,-1088 3915.4906,-1048 3915.4906,-1048 3915.4906,-1042 3921.4906,-1036 3927.4906,-1036 3927.4906,-1036 4104.4906,-1036 4104.4906,-1036 4110.4906,-1036 4116.4906,-1042 4116.4906,-1048 4116.4906,-1048 4116.4906,-1088 4116.4906,-1088 4116.4906,-1094 4110.4906,-1100 4104.4906,-1100"/>
<text text-anchor="start" x="3925.9371" y="-1086" font-family="arial" font-weight="bold" font-size="10.00" fill="#000000">Non&#45;Culm as Post&#45;Primary and Pre&#45;NRS</text>
<text text-anchor="start" x="3938.6971" y="-1069" font-family="arial" font-size="10.00" fill="#000000">The non&#45;Culm strata are older than</text>
<text text-anchor="start" x="3932.3071" y="-1057" font-family="arial" font-size="10.00" fill="#000000"> Primary strata and younger than New</text>
<text text-anchor="start" x="3930.6321" y="-1045" font-family="arial" font-size="10.00" fill="#000000"> Red Sandstone strata #pri #chron&#45;hyp</text>
</g>
<!-- n31&#45;&gt;n46 -->
<g id="edge80" class="edge">
<title>n31&#45;&gt;n46</title>
<path fill="none" stroke="#00ff00" d="M3998.2521,-1035.9935C3984.2587,-1010.7445 3964.5683,-975.2163 3948.9789,-947.0874"/>
<polygon fill="#00ff00" stroke="#00ff00" points="3951.9827,-945.287 3944.0738,-938.2371 3945.8601,-948.6803 3951.9827,-945.287"/>
</g>
<!-- n32 -->
<g id="node40" class="node">
<title>n32</title>
<path fill="#ffffff" stroke="#b8860b" stroke-width="2" d="M3946.9906,-412C3946.9906,-412 3774.9906,-412 3774.9906,-412 3768.9906,-412 3762.9906,-406 3762.9906,-400 3762.9906,-400 3762.9906,-372 3762.9906,-372 3762.9906,-366 3768.9906,-360 3774.9906,-360 3774.9906,-360 3946.9906,-360 3946.9906,-360 3952.9906,-360 3958.9906,-366 3958.9906,-372 3958.9906,-372 3958.9906,-400 3958.9906,-400 3958.9906,-406 3952.9906,-412 3946.9906,-412"/>
<text text-anchor="start" x="3819.3276" y="-398" font-family="arial" font-weight="bold" font-size="10.00" fill="#000000">Non&#45;Culm as CAM</text>
<text text-anchor="start" x="3784.3066" y="-381" font-family="arial" font-size="10.00" fill="#000000">The non&#45;Culm strata is nothing but</text>
<text text-anchor="start" x="3780.1411" y="-369" font-family="arial" font-size="10.00" fill="#000000"> Cambrian in age #GRE #chron&#45;hyp </text>
</g>
<!-- n32&#45;&gt;n26 -->
<g id="edge40" class="edge">
<title>n32&#45;&gt;n26</title>
<path fill="none" stroke="#ff0000" d="M3847.846,-412.1134C3835.2312,-438.2624 3816.5789,-479.9726 3805.9906,-518 3753.3746,-706.9688 3757.5933,-763.2042 3776.9906,-958.4 3779.448,-983.1287 3784.9512,-1010.5397 3789.8384,-1031.763"/>
<polygon fill="#ff0000" stroke="#ff0000" points="3786.4675,-1032.7179 3792.172,-1041.6458 3793.2801,-1031.1091 3786.4675,-1032.7179"/>
</g>
<!-- n32&#45;&gt;n27 -->
<g id="edge41" class="edge">
<title>n32&#45;&gt;n27</title>
<path fill="none" stroke="#ff0000" d="M3883.5663,-359.7355C3910.4235,-328.4899 3955.3224,-276.2546 3984.7973,-241.9635"/>
<polygon fill="#ff0000" stroke="#ff0000" points="3987.7074,-243.9473 3991.5716,-234.0823 3982.3989,-239.3844 3987.7074,-243.9473"/>
</g>
<!-- n32&#45;&gt;n28 -->
<g id="edge42" class="edge">
<title>n32&#45;&gt;n28</title>
<path fill="none" stroke="#ff0000" d="M3851.5472,-359.7355C3840.5025,-329.0172 3822.1634,-278.0118 3809.832,-243.7149"/>
<polygon fill="#ff0000" stroke="#ff0000" points="3813.0456,-242.3083 3806.3686,-234.0823 3806.4585,-244.6768 3813.0456,-242.3083"/>
</g>
<!-- n32&#45;&gt;n29 -->
<g id="edge43" class="edge">
<title>n32&#45;&gt;n29</title>
<path fill="none" stroke="#ff0000" d="M3914.7486,-359.9266C3981.2479,-327.6736 4094.2894,-272.8469 4164.8497,-238.6242"/>
<polygon fill="#ff0000" stroke="#ff0000" points="4166.6187,-241.6563 4174.0888,-234.1431 4163.5639,-235.358 4166.6187,-241.6563"/>
</g>
<!-- n32&#45;&gt;n30 -->
<g id="edge44" class="edge">
<title>n32&#45;&gt;n30</title>
<path fill="none" stroke="#00ff00" d="M3847.8502,-412.0618C3827.4958,-456.1284 3793.33,-547.6285 3819.9906,-620 3832.839,-654.8774 3860.5845,-686.5667 3884.1879,-708.9027"/>
<polygon fill="#00ff00" stroke="#00ff00" points="3881.959,-711.6085 3891.6816,-715.8182 3886.7063,-706.4642 3881.959,-711.6085"/>
</g>
<!-- n32&#45;&gt;n51 -->
<g id="edge81" class="edge">
<title>n32&#45;&gt;n51</title>
<path fill="none" stroke="#00ff00" d="M3818.951,-359.9266C3773.062,-331.4658 3698.8319,-285.4277 3644.0961,-251.48"/>
<polygon fill="#00ff00" stroke="#00ff00" points="3645.8291,-248.4364 3635.4861,-246.14 3642.1396,-254.3851 3645.8291,-248.4364"/>
</g>
<!-- n46&#45;&gt;n30 -->
<g id="edge58" class="edge">
<title>n46&#45;&gt;n30</title>
<path fill="none" stroke="#00ff00" d="M3923.9906,-865.6935C3923.9906,-839.6 3923.9906,-804.5605 3923.9906,-778.4372"/>
<polygon fill="#00ff00" stroke="#00ff00" points="3927.4907,-778.194 3923.9906,-768.1941 3920.4907,-778.1941 3927.4907,-778.194"/>
</g>
<!-- n47&#45;&gt;n32 -->
<g id="edge59" class="edge">
<title>n47&#45;&gt;n32</title>
<path fill="none" stroke="#00ff00" d="M3920.421,-551.6847C3909.616,-521.5617 3887.9014,-461.0238 3873.9258,-422.0616"/>
<polygon fill="#00ff00" stroke="#00ff00" points="3877.0487,-420.4014 3870.3778,-412.1704 3870.4597,-422.7649 3877.0487,-420.4014"/>
</g>
<!-- n48&#45;&gt;n7 -->
<g id="edge50" class="edge">
<title>n48&#45;&gt;n7</title>
<path fill="none" stroke="#ff0000" d="M4207.2253,-525.9674C4288.8223,-443.1644 4440.2472,-262.9856 4334.9906,-156 4294.8151,-115.1645 2327.8423,-138.9201 2272.9906,-122.4 2254.0246,-116.6878 2235.1926,-106.561 2218.7363,-95.8215"/>
<polygon fill="#ff0000" stroke="#ff0000" points="2220.6064,-92.8611 2210.3591,-90.1697 2216.6914,-98.664 2220.6064,-92.8611"/>
</g>
<!-- n33 -->
<g id="node44" class="node">
<title>n33</title>
<path fill="#ffffff" stroke="#b8860b" stroke-width="2" d="M715.9906,-418C715.9906,-418 543.9906,-418 543.9906,-418 537.9906,-418 531.9906,-412 531.9906,-406 531.9906,-406 531.9906,-366 531.9906,-366 531.9906,-360 537.9906,-354 543.9906,-354 543.9906,-354 715.9906,-354 715.9906,-354 721.9906,-354 727.9906,-360 727.9906,-366 727.9906,-366 727.9906,-406 727.9906,-406 727.9906,-412 721.9906,-418 715.9906,-418"/>
<text text-anchor="start" x="581.9346" y="-404" font-family="arial" font-weight="bold" font-size="10.00" fill="#000000">Traversing Northward</text>
<text text-anchor="start" x="550.5251" y="-387" font-family="arial" font-size="10.00" fill="#000000">The strata south of Exmoor become</text>
<text text-anchor="start" x="547.4666" y="-375" font-family="arial" font-size="10.00" fill="#000000"> progessively younger the furhter one</text>
<text text-anchor="start" x="543.0311" y="-363" font-family="arial" font-size="10.00" fill="#000000"> traverses northward #GRE #chron&#45;hyp</text>
</g>
<!-- n33&#45;&gt;n49 -->
<g id="edge82" class="edge">
<title>n33&#45;&gt;n49</title>
<path fill="none" stroke="#00ff00" d="M629.9906,-353.7655C629.9906,-328.3139 629.9906,-292.2322 629.9906,-262.3357"/>
<polygon fill="#00ff00" stroke="#00ff00" points="633.4907,-262.0464 629.9906,-252.0464 626.4907,-262.0465 633.4907,-262.0464"/>
</g>
<!-- n34 -->
<g id="node45" class="node">
<title>n34</title>
<path fill="#ffffff" stroke="#b8860b" stroke-width="2" d="M501.4906,-448C501.4906,-448 316.4906,-448 316.4906,-448 310.4906,-448 304.4906,-442 304.4906,-436 304.4906,-436 304.4906,-336 304.4906,-336 304.4906,-330 310.4906,-324 316.4906,-324 316.4906,-324 501.4906,-324 501.4906,-324 507.4906,-324 513.4906,-330 513.4906,-336 513.4906,-336 513.4906,-436 513.4906,-436 513.4906,-442 507.4906,-448 501.4906,-448"/>
<text text-anchor="start" x="329.4701" y="-434" font-family="arial" font-weight="bold" font-size="10.00" fill="#000000">Exmoor Trough as Best Explanation</text>
<text text-anchor="start" x="336.4101" y="-417" font-family="arial" font-size="10.00" fill="#000000">Assuming that the strata south of</text>
<text text-anchor="start" x="314.7466" y="-405" font-family="arial" font-size="10.00" fill="#000000"> Exmoor become progessively younger the</text>
<text text-anchor="start" x="328.6371" y="-393" font-family="arial" font-size="10.00" fill="#000000"> furhter one traverses northward and</text>
<text text-anchor="start" x="332.8076" y="-381" font-family="arial" font-size="10.00" fill="#000000"> that, originally, younger strata rest</text>
<text text-anchor="start" x="330.2916" y="-369" font-family="arial" font-size="10.00" fill="#000000"> upon older ones, the existence of a</text>
<text text-anchor="start" x="328.3576" y="-357" font-family="arial" font-size="10.00" fill="#000000"> trough running trough Exmoor is the</text>
<text text-anchor="start" x="331.1276" y="-345" font-family="arial" font-size="10.00" fill="#000000"> best explanation of the strata north</text>
<text text-anchor="start" x="330.5811" y="-333" font-family="arial" font-size="10.00" fill="#000000"> of Exmoor being older &#160;#GRE #aux</text>
</g>
<!-- n34&#45;&gt;n49 -->
<g id="edge83" class="edge">
<title>n34&#45;&gt;n49</title>
<path fill="none" stroke="#00ff00" d="M485.9755,-323.9941C512.5033,-302.6278 541.8776,-278.9689 567.1414,-258.6207"/>
<polygon fill="#00ff00" stroke="#00ff00" points="569.5981,-261.1361 575.1907,-252.1375 565.2072,-255.6845 569.5981,-261.1361"/>
</g>
<!-- n35 -->
<g id="node46" class="node">
<title>n35</title>
<path fill="#ffffff" stroke="#b8860b" stroke-width="2" d="M273.9906,-424C273.9906,-424 97.9906,-424 97.9906,-424 91.9906,-424 85.9906,-418 85.9906,-412 85.9906,-412 85.9906,-360 85.9906,-360 85.9906,-354 91.9906,-348 97.9906,-348 97.9906,-348 273.9906,-348 273.9906,-348 279.9906,-348 285.9906,-354 285.9906,-360 285.9906,-360 285.9906,-412 285.9906,-412 285.9906,-418 279.9906,-424 273.9906,-424"/>
<text text-anchor="start" x="109.8591" y="-410" font-family="arial" font-weight="bold" font-size="10.00" fill="#000000">Exmoor Youngest Devonian strata</text>
<text text-anchor="start" x="106.8026" y="-393" font-family="arial" font-size="10.00" fill="#000000">In Devon, among all the strata older</text>
<text text-anchor="start" x="95.6791" y="-381" font-family="arial" font-size="10.00" fill="#000000"> than the New Red Sandstone, the strata</text>
<text text-anchor="start" x="108.1901" y="-369" font-family="arial" font-size="10.00" fill="#000000"> of Exmoor are the youngest #GRE</text>
<text text-anchor="start" x="159.5951" y="-357" font-family="arial" font-size="10.00" fill="#000000"> #chron&#45;hyp</text>
</g>
<!-- n50 -->
<g id="node48" class="node">
<title>n50</title>
<path fill="#b8860b" stroke="#000000" d="M501.9906,-252C501.9906,-252 329.9906,-252 329.9906,-252 323.9906,-252 317.9906,-246 317.9906,-240 317.9906,-240 317.9906,-176 317.9906,-176 317.9906,-170 323.9906,-164 329.9906,-164 329.9906,-164 501.9906,-164 501.9906,-164 507.9906,-164 513.9906,-170 513.9906,-176 513.9906,-176 513.9906,-240 513.9906,-240 513.9906,-246 507.9906,-252 501.9906,-252"/>
<text text-anchor="start" x="351.8076" y="-238" font-family="arial" font-weight="bold" font-size="10.00" fill="#000000">Exmoor and Devonian Strata</text>
<text text-anchor="start" x="340.9756" y="-221" font-family="arial" font-size="10.00" fill="#000000">Assuming that, originally, younger</text>
<text text-anchor="start" x="335.1331" y="-209" font-family="arial" font-size="10.00" fill="#000000"> strata rest upon older ones, it holds:</text>
<text text-anchor="start" x="349.3051" y="-197" font-family="arial" font-size="10.00" fill="#000000"> If the Exmoor strata is not the</text>
<text text-anchor="start" x="341.5161" y="-185" font-family="arial" font-size="10.00" fill="#000000"> youngest, then there is no trough</text>
<text text-anchor="start" x="362.6456" y="-173" font-family="arial" font-size="10.00" fill="#000000"> through Exmoor &#160;#GRE</text>
</g>
<!-- n35&#45;&gt;n50 -->
<g id="edge51" class="edge">
<title>n35&#45;&gt;n50</title>
<path fill="none" stroke="#ff0000" d="M235.3314,-347.8145C269.0779,-321.6977 314.1685,-286.8015 350.8595,-258.4058"/>
<polygon fill="#ff0000" stroke="#ff0000" points="353.2655,-260.9696 359.0317,-252.0813 348.9812,-255.4337 353.2655,-260.9696"/>
</g>
<!-- n49&#45;&gt;n5 -->
<g id="edge60" class="edge">
<title>n49&#45;&gt;n5</title>
<path fill="none" stroke="#00ff00" d="M728.1423,-185.7715C853.9617,-157.2771 1071.3949,-108.0349 1201.8529,-78.49"/>
<polygon fill="#00ff00" stroke="#00ff00" points="1202.8888,-81.8441 1211.8688,-76.2217 1201.3427,-75.017 1202.8888,-81.8441"/>
</g>
<!-- n50&#45;&gt;n5 -->
<g id="edge52" class="edge">
<title>n50&#45;&gt;n5</title>
<path fill="none" stroke="#ff0000" d="M500.2596,-163.9898C507.8267,-160.9761 515.4713,-158.249 522.9906,-156 758.3131,-85.6156 1047.5529,-63.7953 1201.4884,-57.0336"/>
<polygon fill="#ff0000" stroke="#ff0000" points="1202.0407,-60.5134 1211.8827,-56.591 1201.7428,-53.5197 1202.0407,-60.5134"/>
</g>
<!-- n36 -->
<g id="node49" class="node">
<title>n36</title>
<path fill="#ffffff" stroke="#f5f5dc" stroke-width="2" d="M3659.9906,-424C3659.9906,-424 3487.9906,-424 3487.9906,-424 3481.9906,-424 3475.9906,-418 3475.9906,-412 3475.9906,-412 3475.9906,-360 3475.9906,-360 3475.9906,-354 3481.9906,-348 3487.9906,-348 3487.9906,-348 3659.9906,-348 3659.9906,-348 3665.9906,-348 3671.9906,-354 3671.9906,-360 3671.9906,-360 3671.9906,-412 3671.9906,-412 3671.9906,-418 3665.9906,-424 3659.9906,-424"/>
<text text-anchor="start" x="3510.9086" y="-410" font-family="arial" font-weight="bold" font-size="10.00" fill="#000000">Gap in a Sequence of Strata</text>
<text text-anchor="start" x="3492.2971" y="-393" font-family="arial" font-size="10.00" fill="#000000">There is a gap in a local sequence of</text>
<text text-anchor="start" x="3518.1441" y="-381" font-family="arial" font-size="10.00" fill="#000000"> strata, iff there are strata</text>
<text text-anchor="start" x="3492.0136" y="-369" font-family="arial" font-size="10.00" fill="#000000"> juxtaposed belonging to different but</text>
<text text-anchor="start" x="3488.4161" y="-357" font-family="arial" font-size="10.00" fill="#000000"> not successive geological periods #pri</text>
</g>
<!-- n36&#45;&gt;n51 -->
<g id="edge84" class="edge">
<title>n36&#45;&gt;n51</title>
<path fill="none" stroke="#00ff00" d="M3573.9906,-347.8145C3573.9906,-321.0664 3573.9906,-285.1094 3573.9906,-256.3584"/>
<polygon fill="#00ff00" stroke="#00ff00" points="3577.4907,-256.1223 3573.9906,-246.1223 3570.4907,-256.1223 3577.4907,-256.1223"/>
</g>
<!-- n51&#45;&gt;n2 -->
<g id="edge61" class="edge">
<title>n51&#45;&gt;n2</title>
<path fill="none" stroke="#00ff00" d="M3491.4578,-169.8923C3477.2012,-164.4861 3462.3454,-159.5633 3447.9906,-156 3268.0833,-111.3418 2722.314,-74.4672 2488.3573,-60.2691"/>
<polygon fill="#00ff00" stroke="#00ff00" points="2488.3251,-56.7608 2478.1321,-59.6509 2487.9026,-63.7481 2488.3251,-56.7608"/>
</g>
<!-- n0 -->
<g id="node51" class="node">
<title>n0</title>
<path fill="#ffffff" stroke="#f5f5dc" stroke-width="2" d="M2668.9906,-1124C2668.9906,-1124 2496.9906,-1124 2496.9906,-1124 2490.9906,-1124 2484.9906,-1118 2484.9906,-1112 2484.9906,-1112 2484.9906,-1024 2484.9906,-1024 2484.9906,-1018 2490.9906,-1012 2496.9906,-1012 2496.9906,-1012 2668.9906,-1012 2668.9906,-1012 2674.9906,-1012 2680.9906,-1018 2680.9906,-1024 2680.9906,-1024 2680.9906,-1112 2680.9906,-1112 2680.9906,-1118 2674.9906,-1124 2668.9906,-1124"/>
<text text-anchor="start" x="2538.8036" y="-1110" font-family="arial" font-weight="bold" font-size="10.00" fill="#000000">Standard Sequence</text>
<text text-anchor="start" x="2501.8526" y="-1093" font-family="arial" font-size="10.00" fill="#000000">Given the strata are undisturbed, the</text>
<text text-anchor="start" x="2516.3191" y="-1081" font-family="arial" font-size="10.00" fill="#000000"> Primary strata are overlain by</text>
<text text-anchor="start" x="2502.1486" y="-1069" font-family="arial" font-size="10.00" fill="#000000"> Cambrian strata, Silurian strata, Old</text>
<text text-anchor="start" x="2509.9101" y="-1057" font-family="arial" font-size="10.00" fill="#000000"> Red Sandstone strata, Mountain</text>
<text text-anchor="start" x="2508.2546" y="-1045" font-family="arial" font-size="10.00" fill="#000000"> Limestone strata, Coal Measures</text>
<text text-anchor="start" x="2496.8526" y="-1033" font-family="arial" font-size="10.00" fill="#000000"> strata, New Red Sandstone strata and</text>
<text text-anchor="start" x="2516.5941" y="-1021" font-family="arial" font-size="10.00" fill="#000000"> Oolitic stata, respectively #pri</text>
</g>
<!-- n0&#45;&gt;n40 -->
<g id="edge63" class="edge">
<title>n0&#45;&gt;n40</title>
<path fill="none" stroke="#00ff00" d="M2681.0517,-1054.1732C2883.181,-1023.4548 3334.8275,-942.6197 3424.9906,-822.4 3459.7636,-776.0352 3461.2375,-737.2218 3424.9906,-692 3371.1351,-624.8096 3130.2574,-592.2095 2986.7228,-578.4878"/>
<polygon fill="#00ff00" stroke="#00ff00" points="2986.8442,-574.9839 2976.5605,-577.5322 2986.1889,-581.9531 2986.8442,-574.9839"/>
</g>
<!-- n0&#45;&gt;n39 -->
<g id="edge62" class="edge">
<title>n0&#45;&gt;n39</title>
<path fill="none" stroke="#00ff00" d="M2484.6347,-1055.5538C2266.2362,-1025.9477 1750.6718,-944.5499 1630.9906,-822.4 1605.2938,-796.1731 1611.9906,-778.7176 1611.9906,-742 1611.9906,-742 1611.9906,-742 1611.9906,-570 1611.9906,-460.341 1587.1718,-424.5236 1630.9906,-324 1641.4773,-299.9429 1659.0961,-277.6487 1677.0419,-259.1661"/>
<polygon fill="#00ff00" stroke="#00ff00" points="1679.5977,-261.56 1684.1899,-252.012 1674.6459,-256.6123 1679.5977,-261.56"/>
</g>
<!-- n0&#45;&gt;n43 -->
<g id="edge64" class="edge">
<title>n0&#45;&gt;n43</title>
<path fill="none" stroke="#00ff00" d="M2484.7603,-1059.8642C2307.1574,-1044.5337 1921.0687,-1008.3616 1597.9906,-958.4 1539.653,-949.3785 1475.0766,-936.7659 1422.2606,-925.7551"/>
<polygon fill="#00ff00" stroke="#00ff00" points="1422.7054,-922.2723 1412.2002,-923.6475 1421.27,-929.1236 1422.7054,-922.2723"/>
</g>
<!-- n0&#45;&gt;n46 -->
<g id="edge65" class="edge">
<title>n0&#45;&gt;n46</title>
<path fill="none" stroke="#00ff00" d="M2681.0087,-1056.125C2845.6756,-1036.1466 3188.2738,-994.4574 3477.9906,-958.4 3593.3268,-944.0456 3725.3986,-927.3064 3815.7075,-915.8143"/>
<polygon fill="#00ff00" stroke="#00ff00" points="3816.2066,-919.2791 3825.6847,-914.5444 3815.3227,-912.3351 3816.2066,-919.2791"/>
</g>
<!-- n1 -->
<g id="node52" class="node">
<title>n1</title>
<path fill="#ffffff" stroke="#f5f5dc" stroke-width="2" d="M933.9906,-424C933.9906,-424 757.9906,-424 757.9906,-424 751.9906,-424 745.9906,-418 745.9906,-412 745.9906,-412 745.9906,-360 745.9906,-360 745.9906,-354 751.9906,-348 757.9906,-348 757.9906,-348 933.9906,-348 933.9906,-348 939.9906,-348 945.9906,-354 945.9906,-360 945.9906,-360 945.9906,-412 945.9906,-412 945.9906,-418 939.9906,-424 933.9906,-424"/>
<text text-anchor="start" x="804.0396" y="-410" font-family="arial" font-weight="bold" font-size="10.00" fill="#000000">Formation of strata</text>
<text text-anchor="start" x="774.5966" y="-393" font-family="arial" font-size="10.00" fill="#000000">Strata are originally formed from</text>
<text text-anchor="start" x="763.4681" y="-381" font-family="arial" font-size="10.00" fill="#000000"> sediments that were deposited in flat</text>
<text text-anchor="start" x="775.9696" y="-369" font-family="arial" font-size="10.00" fill="#000000"> horizontal sheets &#45; the younger</text>
<text text-anchor="start" x="755.9636" y="-357" font-family="arial" font-size="10.00" fill="#000000"> sediments deposited on older ones. #pri</text>
</g>
<!-- n1&#45;&gt;n49 -->
<g id="edge66" class="edge">
<title>n1&#45;&gt;n49</title>
<path fill="none" stroke="#00ff00" d="M799.6532,-347.8145C768.0941,-321.8075 725.9706,-287.0946 691.592,-258.7641"/>
<polygon fill="#00ff00" stroke="#00ff00" points="693.4256,-255.7398 683.4825,-252.0813 688.9739,-261.1419 693.4256,-255.7398"/>
</g>
<!-- n1&#45;&gt;n50 -->
<g id="edge67" class="edge">
<title>n1&#45;&gt;n50</title>
<path fill="none" stroke="#00ff00" d="M785.7709,-347.862C771.1028,-339.3948 755.239,-330.8976 739.9906,-324 650.3009,-283.4288 620.144,-287.0638 523.6795,-252.1685"/>
<polygon fill="#00ff00" stroke="#00ff00" points="524.7267,-248.8247 514.133,-248.6685 522.3171,-255.3969 524.7267,-248.8247"/>
</g>
</g>
</svg>
