
<!-- Generated by graphviz version 2.40.1 (20161225.0304)
 -->
<!-- Title: Argument Map Pages: 1 -->
<svg width="720pt" height="397pt"
 viewBox="0.00 0.00 720.00 396.70" xmlns="http://www.w3.org/2000/svg" xmlns:xlink="http://www.w3.org/1999/xlink">
<g id="graph0" class="graph" transform="scale(.388 .388) rotate(0) translate(4 1018.4)">
<title>Argument Map</title>
<g id="clust1" class="cluster">
<title>cluster_1</title>
<polygon fill="#ffff00" stroke="#ffff00" points="234,-702 234,-804.4 450,-804.4 450,-702 234,-702"/>
<text text-anchor="start" x="295.3272" y="-789.6" font-family="arial" font-size="12.00" fill="#000000">Rival Hypotheses</text>
</g>
<g id="clust2" class="cluster">
<title>cluster_2</title>
<polygon fill="#ffff00" stroke="#ffff00" points="591,-8 591,-270.4 1663,-270.4 1663,-8 591,-8"/>
<text text-anchor="start" x="1102.3256" y="-255.6" font-family="arial" font-size="12.00" fill="#000000">Evidence</text>
</g>
<g id="clust3" class="cluster">
<title>cluster_3</title>
<polygon fill="#f0ffff" stroke="#f0ffff" points="8,-500 8,-816.4 226,-816.4 226,-500 8,-500"/>
<text text-anchor="start" x="60.6408" y="-801.6" font-family="arial" font-size="12.00" fill="#000000">Gap in the Sequence</text>
</g>
<g id="clust4" class="cluster">
<title>cluster_4</title>
<polygon fill="#f0f8ff" stroke="#f0f8ff" points="234,-512 234,-602.4 446,-602.4 446,-512 234,-512"/>
<text text-anchor="start" x="259.6534" y="-587.6" font-family="arial" font-size="12.00" fill="#000000">Dating of the Non&#45;Culm Strata</text>
</g>
<g id="clust5" class="cluster">
<title>cluster_5</title>
<polygon fill="#bfefff" stroke="#bfefff" points="454,-512 454,-602.4 672,-602.4 672,-512 454,-512"/>
<text text-anchor="start" x="513.3248" y="-587.6" font-family="arial" font-size="12.00" fill="#000000">Dating of the Culm</text>
</g>
<g id="clust6" class="cluster">
<title>cluster_6</title>
<polygon fill="#c6e2ff" stroke="#c6e2ff" points="1129,-690 1129,-988.4 1559,-988.4 1559,-690 1129,-690"/>
<text text-anchor="start" x="1260.3132" y="-973.6" font-family="arial" font-size="12.00" fill="#000000">Aporia I : Coal in Ancient Strata</text>
</g>
<g id="clust7" class="cluster">
<title>cluster_7</title>
<polygon fill="#9fb6cd" stroke="#9fb6cd" points="680,-304 680,-1006.4 900,-1006.4 900,-304 680,-304"/>
<text text-anchor="start" x="689.3122" y="-991.6" font-family="arial" font-size="12.00" fill="#000000">Aporia II : CM Plants in Ancient Strata</text>
</g>
<g id="clust8" class="cluster">
<title>cluster_8</title>
<polygon fill="#e6e6fa" stroke="#e6e6fa" points="908,-310 908,-638.4 1780,-638.4 1780,-310 908,-310"/>
<text text-anchor="start" x="1273.9752" y="-623.6" font-family="arial" font-size="12.00" fill="#000000">Youngest Devonian Strata</text>
</g>
<!-- n0 -->
<g id="node1" class="node">
<title>n0</title>
<path fill="#ffffff" stroke="#f4a460" stroke-width="2" d="M430,-774C430,-774 254,-774 254,-774 248,-774 242,-768 242,-762 242,-762 242,-722 242,-722 242,-716 248,-710 254,-710 254,-710 430,-710 430,-710 436,-710 442,-716 442,-722 442,-722 442,-762 442,-762 442,-768 436,-774 430,-774"/>
<text text-anchor="start" x="286.99" y="-760" font-family="arial" font-weight="bold" font-size="10.00" fill="#000000">Devonian Strata as CAM</text>
<text text-anchor="start" x="265.3125" y="-743" font-family="arial" font-size="10.00" fill="#000000">In Devon, all the strata &#45; older than</text>
<text text-anchor="start" x="251.703" y="-731" font-family="arial" font-size="10.00" fill="#000000"> the New Red Sandstone &#45; are Cambrian</text>
<text text-anchor="start" x="285.5955" y="-719" font-family="arial" font-size="10.00" fill="#000000"> in age #GRE #chron&#45;hyp</text>
</g>
<!-- n18 -->
<g id="node9" class="node">
<title>n18</title>
<path fill="#f4a460" stroke="#000000" d="M206,-584C206,-584 34,-584 34,-584 28,-584 22,-578 22,-572 22,-572 22,-520 22,-520 22,-514 28,-508 34,-508 34,-508 206,-508 206,-508 212,-508 218,-514 218,-520 218,-520 218,-572 218,-572 218,-578 212,-584 206,-584"/>
<text text-anchor="start" x="52.202" y="-570" font-family="arial" font-weight="bold" font-size="10.00" fill="#000000">Unbroken Sequence &#45; GRE.1a</text>
<text text-anchor="start" x="56.095" y="-553" font-family="arial" font-size="10.00" fill="#000000">If, in Devon, all the strata are</text>
<text text-anchor="start" x="35.5295" y="-541" font-family="arial" font-size="10.00" fill="#000000"> Cambrian in age, i.e. belonging to the</text>
<text text-anchor="start" x="36.9225" y="-529" font-family="arial" font-size="10.00" fill="#000000"> same geological period, then there is</text>
<text text-anchor="start" x="38.581" y="-517" font-family="arial" font-size="10.00" fill="#000000"> no gap in the local sequence. #GRE</text>
</g>
<!-- n0&#45;&gt;n18 -->
<g id="edge14" class="edge">
<title>n0&#45;&gt;n18</title>
<path fill="none" stroke="#00ff00" d="M305.3412,-709.6346C268.6655,-677.2542 211.9501,-627.1812 170.9155,-590.9524"/>
<polygon fill="#00ff00" stroke="#00ff00" points="172.9994,-588.1234 163.1865,-584.1286 168.3665,-593.3709 172.9994,-588.1234"/>
</g>
<!-- n8 -->
<g id="node10" class="node">
<title>n8</title>
<path fill="#ffffff" stroke="#f4a460" stroke-width="2" d="M426,-572C426,-572 254,-572 254,-572 248,-572 242,-566 242,-560 242,-560 242,-532 242,-532 242,-526 248,-520 254,-520 254,-520 426,-520 426,-520 432,-520 438,-526 438,-532 438,-532 438,-560 438,-560 438,-566 432,-572 426,-572"/>
<text text-anchor="start" x="283.6105" y="-558" font-family="arial" font-weight="bold" font-size="10.00" fill="#000000">Non&#45;Culm Strata as CAM</text>
<text text-anchor="start" x="264.7055" y="-541" font-family="arial" font-size="10.00" fill="#000000">In Devon, the non&#45;Culm strata are</text>
<text text-anchor="start" x="260.54" y="-529" font-family="arial" font-size="10.00" fill="#000000"> Cambrian in age #GRE #chron&#45;hyp</text>
</g>
<!-- n0&#45;&gt;n8 -->
<g id="edge4" class="edge">
<title>n0&#45;&gt;n8</title>
<path fill="none" stroke="#00ff00" d="M341.6697,-709.6346C341.3123,-674.6025 340.7435,-618.8611 340.3709,-582.3475"/>
<polygon fill="#00ff00" stroke="#00ff00" points="343.8686,-582.0987 340.2667,-572.1349 336.869,-582.1702 343.8686,-582.0987"/>
</g>
<!-- n9 -->
<g id="node11" class="node">
<title>n9</title>
<path fill="#ffffff" stroke="#f4a460" stroke-width="2" d="M651.5,-572C651.5,-572 474.5,-572 474.5,-572 468.5,-572 462.5,-566 462.5,-560 462.5,-560 462.5,-532 462.5,-532 462.5,-526 468.5,-520 474.5,-520 474.5,-520 651.5,-520 651.5,-520 657.5,-520 663.5,-526 663.5,-532 663.5,-532 663.5,-560 663.5,-560 663.5,-566 657.5,-572 651.5,-572"/>
<text text-anchor="start" x="532.67" y="-558" font-family="arial" font-weight="bold" font-size="10.00" fill="#000000">Culm as CAM</text>
<text text-anchor="start" x="472.653" y="-541" font-family="arial" font-size="10.00" fill="#000000">The whole Culm strata of Devonshire are</text>
<text text-anchor="start" x="484.04" y="-529" font-family="arial" font-size="10.00" fill="#000000"> Cambrian in age #GRE #chron&#45;hyp</text>
</g>
<!-- n0&#45;&gt;n9 -->
<g id="edge3" class="edge">
<title>n0&#45;&gt;n9</title>
<path fill="none" stroke="#00ff00" d="M378.4937,-709.6346C419.2656,-673.4748 484.9158,-615.2512 525.9232,-578.8826"/>
<polygon fill="#00ff00" stroke="#00ff00" points="528.3723,-581.3887 533.5315,-572.1349 523.7276,-576.1516 528.3723,-581.3887"/>
</g>
<!-- n1 -->
<g id="node2" class="node">
<title>n1</title>
<path fill="#ffffff" stroke="#66a61e" stroke-width="2" d="M783,-234C783,-234 611,-234 611,-234 605,-234 599,-228 599,-222 599,-222 599,-182 599,-182 599,-176 605,-170 611,-170 611,-170 783,-170 783,-170 789,-170 795,-176 795,-182 795,-182 795,-222 795,-222 795,-228 789,-234 783,-234"/>
<text text-anchor="start" x="615.305" y="-220" font-family="arial" font-weight="bold" font-size="10.00" fill="#000000">Unbroken Sequence of Devon Strata</text>
<text text-anchor="start" x="620.3125" y="-203" font-family="arial" font-size="10.00" fill="#000000">In Devon, all the strata &#45; older than</text>
<text text-anchor="start" x="620.0355" y="-191" font-family="arial" font-size="10.00" fill="#000000"> the New Red Sandstone &#45; form an</text>
<text text-anchor="start" x="612.5205" y="-179" font-family="arial" font-size="10.00" fill="#000000"> unbroken sequence of strata #ev #E1</text>
</g>
<!-- n6 -->
<g id="node7" class="node">
<title>n6</title>
<path fill="#ffffff" stroke="#66a61e" stroke-width="2" d="M783,-92C783,-92 611,-92 611,-92 605,-92 599,-86 599,-80 599,-80 599,-28 599,-28 599,-22 605,-16 611,-16 611,-16 783,-16 783,-16 789,-16 795,-22 795,-28 795,-28 795,-80 795,-80 795,-86 789,-92 783,-92"/>
<text text-anchor="start" x="646.439" y="-78" font-family="arial" font-weight="bold" font-size="10.00" fill="#000000">Unconformity in Devon</text>
<text text-anchor="start" x="622.2545" y="-61" font-family="arial" font-size="10.00" fill="#000000">Between the Devon Culm and the</text>
<text text-anchor="start" x="620.866" y="-49" font-family="arial" font-size="10.00" fill="#000000"> juxtaposed strata, there is at least</text>
<text text-anchor="start" x="626.9895" y="-37" font-family="arial" font-size="10.00" fill="#000000"> one formation missing from the</text>
<text text-anchor="start" x="633.361" y="-25" font-family="arial" font-size="10.00" fill="#000000"> standard sequence #ev #E6</text>
</g>
<!-- n1&#45;&gt;n6 -->
<g id="edge2" class="edge">
<title>n1&#45;&gt;n6</title>
<path fill="none" stroke="#ff0000" d="M691.3216,-169.8862C690.1843,-150.1437 689.9523,-124.4703 690.6254,-102.3074"/>
<polygon fill="#ff0000" stroke="#ff0000" points="694.1318,-102.2046 691.0134,-92.0791 687.1368,-101.9393 694.1318,-102.2046"/>
</g>
<!-- n2 -->
<g id="node3" class="node">
<title>n2</title>
<path fill="#ffffff" stroke="#66a61e" stroke-width="2" d="M997,-228C997,-228 825,-228 825,-228 819,-228 813,-222 813,-216 813,-216 813,-188 813,-188 813,-182 819,-176 825,-176 825,-176 997,-176 997,-176 1003,-176 1009,-182 1009,-188 1009,-188 1009,-216 1009,-216 1009,-222 1003,-228 997,-228"/>
<text text-anchor="start" x="853.7755" y="-214" font-family="arial" font-weight="bold" font-size="10.00" fill="#000000">CM Plants in Devon Culm</text>
<text text-anchor="start" x="825.1475" y="-197" font-family="arial" font-size="10.00" fill="#000000">In Devon, the Culm strata contain Coal</text>
<text text-anchor="start" x="840.4275" y="-185" font-family="arial" font-size="10.00" fill="#000000"> Measures fossil plants #ev #E2</text>
</g>
<!-- n3 -->
<g id="node4" class="node">
<title>n3</title>
<path fill="#ffffff" stroke="#66a61e" stroke-width="2" d="M1425,-228C1425,-228 1253,-228 1253,-228 1247,-228 1241,-222 1241,-216 1241,-216 1241,-188 1241,-188 1241,-182 1247,-176 1253,-176 1253,-176 1425,-176 1425,-176 1431,-176 1437,-182 1437,-188 1437,-188 1437,-216 1437,-216 1437,-222 1431,-228 1425,-228"/>
<text text-anchor="start" x="1302.607" y="-214" font-family="arial" font-weight="bold" font-size="10.00" fill="#000000">North of Exmoor</text>
<text text-anchor="start" x="1252.871" y="-197" font-family="arial" font-size="10.00" fill="#000000">Passing Exmoor northwards, the strata</text>
<text text-anchor="start" x="1287.5945" y="-185" font-family="arial" font-size="10.00" fill="#000000"> become older #ev #E3</text>
</g>
<!-- n22 -->
<g id="node23" class="node">
<title>n22</title>
<path fill="#f4a460" stroke="#000000" d="M1425,-406C1425,-406 1253,-406 1253,-406 1247,-406 1241,-400 1241,-394 1241,-394 1241,-330 1241,-330 1241,-324 1247,-318 1253,-318 1253,-318 1425,-318 1425,-318 1431,-318 1437,-324 1437,-330 1437,-330 1437,-394 1437,-394 1437,-400 1431,-406 1425,-406"/>
<text text-anchor="start" x="1263.9845" y="-392" font-family="arial" font-weight="bold" font-size="10.00" fill="#000000">Trough through Exmoor &#45; GRE.1a</text>
<text text-anchor="start" x="1262.0265" y="-375" font-family="arial" font-size="10.00" fill="#000000">If the existence of a trough running</text>
<text text-anchor="start" x="1253.697" y="-363" font-family="arial" font-size="10.00" fill="#000000"> trough Exmoor is the best explanation</text>
<text text-anchor="start" x="1253.417" y="-351" font-family="arial" font-size="10.00" fill="#000000"> of the Exmoor strata being juxtaposed</text>
<text text-anchor="start" x="1261.4815" y="-339" font-family="arial" font-size="10.00" fill="#000000"> solely by older strata, then there is</text>
<text text-anchor="start" x="1265.9245" y="-327" font-family="arial" font-size="10.00" fill="#000000"> a trough through Exmoor &#160;#GRE</text>
</g>
<!-- n3&#45;&gt;n22 -->
<g id="edge15" class="edge">
<title>n3&#45;&gt;n22</title>
<path fill="none" stroke="#00ff00" d="M1339,-228.0127C1339,-249.5378 1339,-280.8391 1339,-307.7754"/>
<polygon fill="#00ff00" stroke="#00ff00" points="1335.5001,-307.8557 1339,-317.8558 1342.5001,-307.8558 1335.5001,-307.8557"/>
</g>
<!-- n4 -->
<g id="node5" class="node">
<title>n4</title>
<path fill="#ffffff" stroke="#66a61e" stroke-width="2" d="M1211,-240C1211,-240 1039,-240 1039,-240 1033,-240 1027,-234 1027,-228 1027,-228 1027,-176 1027,-176 1027,-170 1033,-164 1039,-164 1039,-164 1211,-164 1211,-164 1217,-164 1223,-170 1223,-176 1223,-176 1223,-228 1223,-228 1223,-234 1217,-240 1211,-240"/>
<text text-anchor="start" x="1072.21" y="-226" font-family="arial" font-weight="bold" font-size="10.00" fill="#000000">Trough through Exmoor</text>
<text text-anchor="start" x="1047.206" y="-209" font-family="arial" font-size="10.00" fill="#000000">There is a trough through Exmoor &#45;</text>
<text text-anchor="start" x="1038.308" y="-197" font-family="arial" font-size="10.00" fill="#000000"> formed by a band of limestone running</text>
<text text-anchor="start" x="1046.362" y="-185" font-family="arial" font-size="10.00" fill="#000000"> out to the north coast at Ilfracombe</text>
<text text-anchor="start" x="1051.0795" y="-173" font-family="arial" font-size="10.00" fill="#000000"> and south of Barnstaple #ev #E4</text>
</g>
<!-- n5 -->
<g id="node6" class="node">
<title>n5</title>
<path fill="#ffffff" stroke="#66a61e" stroke-width="2" d="M1643,-234C1643,-234 1467,-234 1467,-234 1461,-234 1455,-228 1455,-222 1455,-222 1455,-182 1455,-182 1455,-176 1461,-170 1467,-170 1467,-170 1643,-170 1643,-170 1649,-170 1655,-176 1655,-182 1655,-182 1655,-222 1655,-222 1655,-228 1649,-234 1643,-234"/>
<text text-anchor="start" x="1478.3105" y="-220" font-family="arial" font-weight="bold" font-size="10.00" fill="#000000">Instances of Coal in Ancient Strata</text>
<text text-anchor="start" x="1464.9725" y="-203" font-family="arial" font-size="10.00" fill="#000000">In Munster and Pennsylvannia, there are</text>
<text text-anchor="start" x="1465.2525" y="-191" font-family="arial" font-size="10.00" fill="#000000"> coal deposits in pre&#45;Old Red Sandstone</text>
<text text-anchor="start" x="1521.3765" y="-179" font-family="arial" font-size="10.00" fill="#000000"> strata #ev #E5</text>
</g>
<!-- n6&#45;&gt;n1 -->
<g id="edge1" class="edge">
<title>n6&#45;&gt;n1</title>
<path fill="none" stroke="#ff0000" d="M702.9866,-92.0791C703.9421,-112.7991 704.0006,-138.4796 703.1621,-159.8069"/>
<polygon fill="#ff0000" stroke="#ff0000" points="699.6619,-159.7299 702.6784,-169.8862 706.6538,-160.0655 699.6619,-159.7299"/>
</g>
<!-- n7 -->
<g id="node8" class="node">
<title>n7</title>
<path fill="#ffffff" stroke="#f4a460" stroke-width="2" d="M205.5,-786C205.5,-786 28.5,-786 28.5,-786 22.5,-786 16.5,-780 16.5,-774 16.5,-774 16.5,-710 16.5,-710 16.5,-704 22.5,-698 28.5,-698 28.5,-698 205.5,-698 205.5,-698 211.5,-698 217.5,-704 217.5,-710 217.5,-710 217.5,-774 217.5,-774 217.5,-780 211.5,-786 205.5,-786"/>
<text text-anchor="start" x="54.418" y="-772" font-family="arial" font-weight="bold" font-size="10.00" fill="#000000">Gap in a Sequence of Strata</text>
<text text-anchor="start" x="35.8065" y="-755" font-family="arial" font-size="10.00" fill="#000000">There is a gap in a local sequence of</text>
<text text-anchor="start" x="61.6535" y="-743" font-family="arial" font-size="10.00" fill="#000000"> strata, iff there are strata</text>
<text text-anchor="start" x="35.523" y="-731" font-family="arial" font-size="10.00" fill="#000000"> juxtaposed belonging to different but</text>
<text text-anchor="start" x="26.6455" y="-719" font-family="arial" font-size="10.00" fill="#000000"> not successive geological periods #GRE</text>
<text text-anchor="start" x="107.7775" y="-707" font-family="arial" font-size="10.00" fill="#000000"> #pri</text>
</g>
<!-- n7&#45;&gt;n18 -->
<g id="edge16" class="edge">
<title>n7&#45;&gt;n18</title>
<path fill="none" stroke="#00ff00" d="M117.6807,-697.5246C118.1514,-666.7777 118.7772,-625.8911 119.2601,-594.3392"/>
<polygon fill="#00ff00" stroke="#00ff00" points="122.7644,-594.0774 119.418,-584.025 115.7653,-593.9702 122.7644,-594.0774"/>
</g>
<!-- n18&#45;&gt;n1 -->
<g id="edge11" class="edge">
<title>n18&#45;&gt;n1</title>
<path fill="none" stroke="#00ff00" d="M183.9537,-507.8716C295.3687,-441.4474 523.7118,-305.3122 634.2666,-239.4008"/>
<polygon fill="#00ff00" stroke="#00ff00" points="636.1876,-242.3304 642.9847,-234.2033 632.603,-236.3179 636.1876,-242.3304"/>
</g>
<!-- n20 -->
<g id="node17" class="node">
<title>n20</title>
<path fill="#f4a460" stroke="#000000" d="M880,-412C880,-412 700,-412 700,-412 694,-412 688,-406 688,-400 688,-400 688,-324 688,-324 688,-318 694,-312 700,-312 700,-312 880,-312 880,-312 886,-312 892,-318 892,-324 892,-324 892,-400 892,-400 892,-406 886,-412 880,-412"/>
<text text-anchor="start" x="744.1635" y="-398" font-family="arial" font-weight="bold" font-size="10.00" fill="#000000">Culm and CM Plants</text>
<text text-anchor="start" x="709.432" y="-381" font-family="arial" font-size="10.00" fill="#000000">If the Devon Culm strata are pre&#45;Old</text>
<text text-anchor="start" x="701.0735" y="-369" font-family="arial" font-size="10.00" fill="#000000"> Red Sandstone in age and there are no</text>
<text text-anchor="start" x="706.3765" y="-357" font-family="arial" font-size="10.00" fill="#000000"> Coal Measures plants in pre&#45;Old Red</text>
<text text-anchor="start" x="709.967" y="-345" font-family="arial" font-size="10.00" fill="#000000"> Sandstone strata, then there are no</text>
<text text-anchor="start" x="697.7625" y="-333" font-family="arial" font-size="10.00" fill="#000000"> Coal Measures plants in the Devon Culm</text>
<text text-anchor="start" x="759.716" y="-321" font-family="arial" font-size="10.00" fill="#000000"> strata &#160;#GRE</text>
</g>
<!-- n9&#45;&gt;n20 -->
<g id="edge17" class="edge">
<title>n9&#45;&gt;n20</title>
<path fill="none" stroke="#00ff00" d="M595.5236,-519.6373C627.8864,-493.4049 678.5767,-452.3167 720.0919,-418.6656"/>
<polygon fill="#00ff00" stroke="#00ff00" points="722.4325,-421.2738 727.997,-412.2579 718.0246,-415.8359 722.4325,-421.2738"/>
</g>
<!-- n10 -->
<g id="node12" class="node">
<title>n10</title>
<path fill="#ffffff" stroke="#f4a460" stroke-width="2" d="M1321,-952C1321,-952 1149,-952 1149,-952 1143,-952 1137,-946 1137,-940 1137,-940 1137,-912 1137,-912 1137,-906 1143,-900 1149,-900 1149,-900 1321,-900 1321,-900 1327,-900 1333,-906 1333,-912 1333,-912 1333,-940 1333,-940 1333,-946 1327,-952 1321,-952"/>
<text text-anchor="start" x="1186.6555" y="-938" font-family="arial" font-weight="bold" font-size="10.00" fill="#000000">Coal in Ancient Strata</text>
<text text-anchor="start" x="1148.8725" y="-921" font-family="arial" font-size="10.00" fill="#000000">There are coal deposits in pre&#45;Old Red</text>
<text text-anchor="start" x="1171.0925" y="-909" font-family="arial" font-size="10.00" fill="#000000"> Sandstone strata #GRE #pri</text>
</g>
<!-- n19 -->
<g id="node14" class="node">
<title>n19</title>
<path fill="#f4a460" stroke="#000000" d="M1537,-786C1537,-786 1365,-786 1365,-786 1359,-786 1353,-780 1353,-774 1353,-774 1353,-710 1353,-710 1353,-704 1359,-698 1365,-698 1365,-698 1537,-698 1537,-698 1543,-698 1549,-704 1549,-710 1549,-710 1549,-774 1549,-774 1549,-780 1543,-786 1537,-786"/>
<text text-anchor="start" x="1402.6555" y="-772" font-family="arial" font-weight="bold" font-size="10.00" fill="#000000">Coal in Ancient Strata</text>
<text text-anchor="start" x="1384.0345" y="-755" font-family="arial" font-size="10.00" fill="#000000">If there are no coal deposits in</text>
<text text-anchor="start" x="1370.1415" y="-743" font-family="arial" font-size="10.00" fill="#000000"> Pre&#45;Old Red Sandstone strata, then</text>
<text text-anchor="start" x="1378.4755" y="-731" font-family="arial" font-size="10.00" fill="#000000"> there are no coal deposits in the</text>
<text text-anchor="start" x="1377.645" y="-719" font-family="arial" font-size="10.00" fill="#000000"> pre&#45;Old Red Sandstone strata of</text>
<text text-anchor="start" x="1372.9235" y="-707" font-family="arial" font-size="10.00" fill="#000000"> Munster and Pennsylvannia #GRE</text>
</g>
<!-- n10&#45;&gt;n19 -->
<g id="edge5" class="edge">
<title>n10&#45;&gt;n19</title>
<path fill="none" stroke="#ff0000" d="M1265.9475,-899.6373C1298.6051,-871.8178 1350.876,-827.2908 1391.5475,-792.6447"/>
<polygon fill="#ff0000" stroke="#ff0000" points="1393.9155,-795.2253 1399.2583,-786.0762 1389.3762,-789.8966 1393.9155,-795.2253"/>
</g>
<!-- n21 -->
<g id="node18" class="node">
<title>n21</title>
<path fill="#f4a460" stroke="#000000" d="M879,-804C879,-804 707,-804 707,-804 701,-804 695,-798 695,-792 695,-792 695,-692 695,-692 695,-686 701,-680 707,-680 707,-680 879,-680 879,-680 885,-680 891,-686 891,-692 891,-692 891,-792 891,-792 891,-798 885,-804 879,-804"/>
<text text-anchor="start" x="748.5485" y="-790" font-family="arial" font-weight="bold" font-size="10.00" fill="#000000">Coal and CM Plants</text>
<text text-anchor="start" x="713.263" y="-773" font-family="arial" font-size="10.00" fill="#000000">If the similarity between the floras of</text>
<text text-anchor="start" x="711.316" y="-761" font-family="arial" font-size="10.00" fill="#000000"> the Coal Measures and pre&#45;Old Red</text>
<text text-anchor="start" x="718.8095" y="-749" font-family="arial" font-size="10.00" fill="#000000"> Sandstone formations is the best</text>
<text text-anchor="start" x="711.8615" y="-737" font-family="arial" font-size="10.00" fill="#000000"> explanation for the existence of coal</text>
<text text-anchor="start" x="711.3105" y="-725" font-family="arial" font-size="10.00" fill="#000000"> deposists in pre&#45;Old Red Sandstone</text>
<text text-anchor="start" x="710.202" y="-713" font-family="arial" font-size="10.00" fill="#000000"> strata, then there are Coal Measures</text>
<text text-anchor="start" x="719.09" y="-701" font-family="arial" font-size="10.00" fill="#000000"> plants in pre&#45;Old Red Sandstone</text>
<text text-anchor="start" x="762.716" y="-689" font-family="arial" font-size="10.00" fill="#000000"> strata. #GRE</text>
</g>
<!-- n10&#45;&gt;n21 -->
<g id="edge18" class="edge">
<title>n10&#45;&gt;n21</title>
<path fill="none" stroke="#00ff00" d="M1172.1416,-899.8327C1101.5012,-870.4258 985.5928,-822.1744 900.4985,-786.7505"/>
<polygon fill="#00ff00" stroke="#00ff00" points="901.6397,-783.4344 891.0625,-782.8224 898.9494,-789.8969 901.6397,-783.4344"/>
</g>
<!-- n11 -->
<g id="node13" class="node">
<title>n11</title>
<path fill="#ffffff" stroke="#f4a460" stroke-width="2" d="M1539,-958C1539,-958 1363,-958 1363,-958 1357,-958 1351,-952 1351,-946 1351,-946 1351,-906 1351,-906 1351,-900 1357,-894 1363,-894 1363,-894 1539,-894 1539,-894 1545,-894 1551,-900 1551,-906 1551,-906 1551,-946 1551,-946 1551,-952 1545,-958 1539,-958"/>
<text text-anchor="start" x="1391.2565" y="-944" font-family="arial" font-weight="bold" font-size="10.00" fill="#000000">Instances of Ancient Strata</text>
<text text-anchor="start" x="1360.9725" y="-927" font-family="arial" font-size="10.00" fill="#000000">In Munster and Pennsylvannia, there are</text>
<text text-anchor="start" x="1368.201" y="-915" font-family="arial" font-size="10.00" fill="#000000"> pre&#45;Old Red Sandstone strata #GRE</text>
<text text-anchor="start" x="1424.6045" y="-903" font-family="arial" font-size="10.00" fill="#000000"> #chron&#45;hyp</text>
</g>
<!-- n11&#45;&gt;n19 -->
<g id="edge19" class="edge">
<title>n11&#45;&gt;n19</title>
<path fill="none" stroke="#00ff00" d="M1451,-893.9496C1451,-867.0062 1451,-827.9123 1451,-796.126"/>
<polygon fill="#00ff00" stroke="#00ff00" points="1454.5001,-796.0872 1451,-786.0872 1447.5001,-796.0872 1454.5001,-796.0872"/>
</g>
<!-- n19&#45;&gt;n5 -->
<g id="edge6" class="edge">
<title>n19&#45;&gt;n5</title>
<path fill="none" stroke="#ff0000" d="M1549.2424,-724.6751C1636.9609,-706.969 1755.823,-676.6754 1784,-638.4 1872.1101,-518.7122 1864.9358,-428.6514 1784,-304 1757.3372,-262.936 1709.8868,-238.2653 1665.0671,-223.5101"/>
<polygon fill="#ff0000" stroke="#ff0000" points="1665.8424,-220.0848 1655.2529,-220.4196 1663.7399,-226.7616 1665.8424,-220.0848"/>
</g>
<!-- n12 -->
<g id="node15" class="node">
<title>n12</title>
<path fill="#ffffff" stroke="#f4a460" stroke-width="2" d="M878,-578C878,-578 706,-578 706,-578 700,-578 694,-572 694,-566 694,-566 694,-526 694,-526 694,-520 700,-514 706,-514 706,-514 878,-514 878,-514 884,-514 890,-520 890,-526 890,-526 890,-566 890,-566 890,-572 884,-578 878,-578"/>
<text text-anchor="start" x="730.8775" y="-564" font-family="arial" font-weight="bold" font-size="10.00" fill="#000000">CM Plants in Ancient Strata</text>
<text text-anchor="start" x="705.863" y="-547" font-family="arial" font-size="10.00" fill="#000000">In pre&#45;Old Red Sandstone strata, there</text>
<text text-anchor="start" x="715.3215" y="-535" font-family="arial" font-size="10.00" fill="#000000"> are fossil plants similar to those of</text>
<text text-anchor="start" x="722.5435" y="-523" font-family="arial" font-size="10.00" fill="#000000"> the Coal Measures &#160;#GRE #pri</text>
</g>
<!-- n12&#45;&gt;n20 -->
<g id="edge7" class="edge">
<title>n12&#45;&gt;n20</title>
<path fill="none" stroke="#ff0000" d="M791.6516,-513.9496C791.3771,-488.6955 790.9866,-452.7666 790.6542,-422.186"/>
<polygon fill="#ff0000" stroke="#ff0000" points="794.1525,-422.0047 790.5439,-412.0434 787.1529,-422.0808 794.1525,-422.0047"/>
</g>
<!-- n13 -->
<g id="node16" class="node">
<title>n13</title>
<path fill="#ffffff" stroke="#f4a460" stroke-width="2" d="M879,-976C879,-976 707,-976 707,-976 701,-976 695,-970 695,-964 695,-964 695,-888 695,-888 695,-882 701,-876 707,-876 707,-876 879,-876 879,-876 885,-876 891,-882 891,-888 891,-888 891,-964 891,-964 891,-970 885,-976 879,-976"/>
<text text-anchor="start" x="710.492" y="-962" font-family="arial" font-weight="bold" font-size="10.00" fill="#000000">Flora Similarities as Best Explanation</text>
<text text-anchor="start" x="710.191" y="-945" font-family="arial" font-size="10.00" fill="#000000">The best explanation of the existence</text>
<text text-anchor="start" x="725.484" y="-933" font-family="arial" font-size="10.00" fill="#000000"> of coal in some strata G is the</text>
<text text-anchor="start" x="713.827" y="-921" font-family="arial" font-size="10.00" fill="#000000"> similarity between G&#39;s flora and the</text>
<text text-anchor="start" x="712.7015" y="-909" font-family="arial" font-size="10.00" fill="#000000"> one of the Coal Measures (the Coal</text>
<text text-anchor="start" x="713.8065" y="-897" font-family="arial" font-size="10.00" fill="#000000"> Measures being noted for the great</text>
<text text-anchor="start" x="711.3105" y="-885" font-family="arial" font-size="10.00" fill="#000000"> amounts of coal they contain) #GRE</text>
</g>
<!-- n13&#45;&gt;n21 -->
<g id="edge20" class="edge">
<title>n13&#45;&gt;n21</title>
<path fill="none" stroke="#00ff00" d="M793,-875.7212C793,-856.7879 793,-834.8637 793,-814.3142"/>
<polygon fill="#00ff00" stroke="#00ff00" points="796.5001,-814.0375 793,-804.0375 789.5001,-814.0375 796.5001,-814.0375"/>
</g>
<!-- n20&#45;&gt;n2 -->
<g id="edge8" class="edge">
<title>n20&#45;&gt;n2</title>
<path fill="none" stroke="#ff0000" d="M827.9532,-311.814C846.5129,-287.2722 868.3761,-258.3621 885.0101,-236.3668"/>
<polygon fill="#ff0000" stroke="#ff0000" points="887.8712,-238.3861 891.1114,-228.2989 882.2879,-234.1638 887.8712,-238.3861"/>
</g>
<!-- n21&#45;&gt;n12 -->
<g id="edge12" class="edge">
<title>n21&#45;&gt;n12</title>
<path fill="none" stroke="#00ff00" d="M792.6836,-679.9844C792.531,-650.0836 792.352,-614.9928 792.2154,-588.2247"/>
<polygon fill="#00ff00" stroke="#00ff00" points="795.7145,-588.0184 792.1635,-578.0364 788.7146,-588.0542 795.7145,-588.0184"/>
</g>
<!-- n14 -->
<g id="node19" class="node">
<title>n14</title>
<path fill="#ffffff" stroke="#f4a460" stroke-width="2" d="M1318,-590C1318,-590 1146,-590 1146,-590 1140,-590 1134,-584 1134,-578 1134,-578 1134,-514 1134,-514 1134,-508 1140,-502 1146,-502 1146,-502 1318,-502 1318,-502 1324,-502 1330,-508 1330,-514 1330,-514 1330,-578 1330,-578 1330,-584 1324,-590 1318,-590"/>
<text text-anchor="start" x="1190.049" y="-576" font-family="arial" font-weight="bold" font-size="10.00" fill="#000000">Formation of strata</text>
<text text-anchor="start" x="1160.606" y="-559" font-family="arial" font-size="10.00" fill="#000000">Strata are originally formed from</text>
<text text-anchor="start" x="1149.4775" y="-547" font-family="arial" font-size="10.00" fill="#000000"> sediments that were deposited in flat</text>
<text text-anchor="start" x="1161.979" y="-535" font-family="arial" font-size="10.00" fill="#000000"> horizontal sheets &#45; the younger</text>
<text text-anchor="start" x="1151.6955" y="-523" font-family="arial" font-size="10.00" fill="#000000"> sediments deposited on older ones.</text>
<text text-anchor="start" x="1207.275" y="-511" font-family="arial" font-size="10.00" fill="#000000"> #GRE #pri</text>
</g>
<!-- n14&#45;&gt;n22 -->
<g id="edge21" class="edge">
<title>n14&#45;&gt;n22</title>
<path fill="none" stroke="#00ff00" d="M1257.6292,-501.9274C1272.8594,-475.7371 1292.2705,-442.3572 1308.3138,-414.7688"/>
<polygon fill="#00ff00" stroke="#00ff00" points="1311.3933,-416.4355 1313.3947,-406.0315 1305.3421,-412.9166 1311.3933,-416.4355"/>
</g>
<!-- n23 -->
<g id="node24" class="node">
<title>n23</title>
<path fill="#f4a460" stroke="#000000" d="M1211,-406C1211,-406 1039,-406 1039,-406 1033,-406 1027,-400 1027,-394 1027,-394 1027,-330 1027,-330 1027,-324 1033,-318 1039,-318 1039,-318 1211,-318 1211,-318 1217,-318 1223,-324 1223,-330 1223,-330 1223,-394 1223,-394 1223,-400 1217,-406 1211,-406"/>
<text text-anchor="start" x="1060.817" y="-392" font-family="arial" font-weight="bold" font-size="10.00" fill="#000000">Exmoor and Devonian Strata</text>
<text text-anchor="start" x="1049.985" y="-375" font-family="arial" font-size="10.00" fill="#000000">Assuming that, originally, younger</text>
<text text-anchor="start" x="1044.1425" y="-363" font-family="arial" font-size="10.00" fill="#000000"> strata rest upon older ones, it holds:</text>
<text text-anchor="start" x="1058.3145" y="-351" font-family="arial" font-size="10.00" fill="#000000"> If the Exmoor strata is not the</text>
<text text-anchor="start" x="1050.5255" y="-339" font-family="arial" font-size="10.00" fill="#000000"> youngest, then there is no trough</text>
<text text-anchor="start" x="1071.655" y="-327" font-family="arial" font-size="10.00" fill="#000000"> through Exmoor &#160;#GRE</text>
</g>
<!-- n14&#45;&gt;n23 -->
<g id="edge22" class="edge">
<title>n14&#45;&gt;n23</title>
<path fill="none" stroke="#00ff00" d="M1206.3708,-501.9274C1191.1406,-475.7371 1171.7295,-442.3572 1155.6862,-414.7688"/>
<polygon fill="#00ff00" stroke="#00ff00" points="1158.6579,-412.9166 1150.6053,-406.0315 1152.6067,-416.4355 1158.6579,-412.9166"/>
</g>
<!-- n15 -->
<g id="node20" class="node">
<title>n15</title>
<path fill="#ffffff" stroke="#f4a460" stroke-width="2" d="M1760,-578C1760,-578 1588,-578 1588,-578 1582,-578 1576,-572 1576,-566 1576,-566 1576,-526 1576,-526 1576,-520 1582,-514 1588,-514 1588,-514 1760,-514 1760,-514 1766,-514 1772,-520 1772,-526 1772,-526 1772,-566 1772,-566 1772,-572 1766,-578 1760,-578"/>
<text text-anchor="start" x="1625.944" y="-564" font-family="arial" font-weight="bold" font-size="10.00" fill="#000000">Traversing Northward</text>
<text text-anchor="start" x="1594.5345" y="-547" font-family="arial" font-size="10.00" fill="#000000">The strata south of Exmoor become</text>
<text text-anchor="start" x="1591.476" y="-535" font-family="arial" font-size="10.00" fill="#000000"> progessively younger the furhter one</text>
<text text-anchor="start" x="1587.0405" y="-523" font-family="arial" font-size="10.00" fill="#000000"> traverses northward #GRE #chron&#45;hyp</text>
</g>
<!-- n15&#45;&gt;n22 -->
<g id="edge23" class="edge">
<title>n15&#45;&gt;n22</title>
<path fill="none" stroke="#00ff00" d="M1618.6711,-513.8415C1601.8158,-504.1518 1583.1979,-493.5554 1566,-484 1521.9124,-459.5042 1472.6361,-432.9253 1431.2895,-410.8477"/>
<polygon fill="#00ff00" stroke="#00ff00" points="1432.7917,-407.6822 1422.3213,-406.0632 1429.4968,-413.8583 1432.7917,-407.6822"/>
</g>
<!-- n16 -->
<g id="node21" class="node">
<title>n16</title>
<path fill="#ffffff" stroke="#f4a460" stroke-width="2" d="M1545.5,-608C1545.5,-608 1360.5,-608 1360.5,-608 1354.5,-608 1348.5,-602 1348.5,-596 1348.5,-596 1348.5,-496 1348.5,-496 1348.5,-490 1354.5,-484 1360.5,-484 1360.5,-484 1545.5,-484 1545.5,-484 1551.5,-484 1557.5,-490 1557.5,-496 1557.5,-496 1557.5,-596 1557.5,-596 1557.5,-602 1551.5,-608 1545.5,-608"/>
<text text-anchor="start" x="1373.4795" y="-594" font-family="arial" font-weight="bold" font-size="10.00" fill="#000000">Exmoor Trough as Best Explanation</text>
<text text-anchor="start" x="1380.4195" y="-577" font-family="arial" font-size="10.00" fill="#000000">Assuming that the strata south of</text>
<text text-anchor="start" x="1358.756" y="-565" font-family="arial" font-size="10.00" fill="#000000"> Exmoor become progessively younger the</text>
<text text-anchor="start" x="1372.6465" y="-553" font-family="arial" font-size="10.00" fill="#000000"> furhter one traverses northward and</text>
<text text-anchor="start" x="1376.817" y="-541" font-family="arial" font-size="10.00" fill="#000000"> that, originally, younger strata rest</text>
<text text-anchor="start" x="1374.301" y="-529" font-family="arial" font-size="10.00" fill="#000000"> upon older ones, the existence of a</text>
<text text-anchor="start" x="1372.367" y="-517" font-family="arial" font-size="10.00" fill="#000000"> trough running trough Exmoor is the</text>
<text text-anchor="start" x="1375.137" y="-505" font-family="arial" font-size="10.00" fill="#000000"> best explanation of the strata north</text>
<text text-anchor="start" x="1374.5905" y="-493" font-family="arial" font-size="10.00" fill="#000000"> of Exmoor being older &#160;#GRE #aux</text>
</g>
<!-- n16&#45;&gt;n22 -->
<g id="edge24" class="edge">
<title>n16&#45;&gt;n22</title>
<path fill="none" stroke="#00ff00" d="M1414.5637,-483.9625C1400.6448,-461.4968 1385.068,-436.3553 1371.6897,-414.7624"/>
<polygon fill="#00ff00" stroke="#00ff00" points="1374.5374,-412.713 1366.2954,-406.0557 1368.5869,-416.3997 1374.5374,-412.713"/>
</g>
<!-- n17 -->
<g id="node22" class="node">
<title>n17</title>
<path fill="#ffffff" stroke="#f4a460" stroke-width="2" d="M1104,-584C1104,-584 928,-584 928,-584 922,-584 916,-578 916,-572 916,-572 916,-520 916,-520 916,-514 922,-508 928,-508 928,-508 1104,-508 1104,-508 1110,-508 1116,-514 1116,-520 1116,-520 1116,-572 1116,-572 1116,-578 1110,-584 1104,-584"/>
<text text-anchor="start" x="939.8685" y="-570" font-family="arial" font-weight="bold" font-size="10.00" fill="#000000">Exmoor Youngest Devonian strata</text>
<text text-anchor="start" x="936.812" y="-553" font-family="arial" font-size="10.00" fill="#000000">In Devon, among all the strata older</text>
<text text-anchor="start" x="925.6885" y="-541" font-family="arial" font-size="10.00" fill="#000000"> than the New Red Sandstone, the strata</text>
<text text-anchor="start" x="938.1995" y="-529" font-family="arial" font-size="10.00" fill="#000000"> of Exmoor are the youngest #GRE</text>
<text text-anchor="start" x="989.6045" y="-517" font-family="arial" font-size="10.00" fill="#000000"> #chron&#45;hyp</text>
</g>
<!-- n17&#45;&gt;n23 -->
<g id="edge9" class="edge">
<title>n17&#45;&gt;n23</title>
<path fill="none" stroke="#ff0000" d="M1038.5849,-507.8751C1054.4645,-481.0692 1075.9254,-444.8415 1093.4873,-415.1958"/>
<polygon fill="#ff0000" stroke="#ff0000" points="1096.7164,-416.6119 1098.8019,-406.2244 1090.6938,-413.0442 1096.7164,-416.6119"/>
</g>
<!-- n22&#45;&gt;n4 -->
<g id="edge13" class="edge">
<title>n22&#45;&gt;n4</title>
<path fill="none" stroke="#00ff00" d="M1279.9571,-317.8558C1250.1028,-295.5348 1213.9684,-268.5184 1184.1053,-246.1909"/>
<polygon fill="#00ff00" stroke="#00ff00" points="1185.964,-243.2104 1175.8592,-240.0255 1181.7723,-248.8167 1185.964,-243.2104"/>
</g>
<!-- n23&#45;&gt;n4 -->
<g id="edge10" class="edge">
<title>n23&#45;&gt;n4</title>
<path fill="none" stroke="#ff0000" d="M1125,-317.8558C1125,-296.8702 1125,-271.7343 1125,-250.2467"/>
<polygon fill="#ff0000" stroke="#ff0000" points="1128.5001,-250.0255 1125,-240.0255 1121.5001,-250.0256 1128.5001,-250.0255"/>
</g>
</g>
</svg>
