
<!-- Generated by graphviz version 2.40.1 (20161225.0304)
 -->
<!-- Title: Argument Map Pages: 1 -->
<svg width="720pt" height="384pt"
 viewBox="0.00 0.00 720.00 383.97" xmlns="http://www.w3.org/2000/svg" xmlns:xlink="http://www.w3.org/1999/xlink">
<g id="graph0" class="graph" transform="scale(.4391 .4391) rotate(0) translate(4 870.4)">
<title>Argument Map</title>
<g id="clust1" class="cluster">
<title>cluster_1</title>
<polygon fill="#ffff00" stroke="#ffff00" points="234,-554 234,-656.4 450,-656.4 450,-554 234,-554"/>
<text text-anchor="start" x="295.3272" y="-641.6" font-family="arial" font-size="12.00" fill="#000000">Rival Hypotheses</text>
</g>
<g id="clust2" class="cluster">
<title>cluster_2</title>
<polygon fill="#ffff00" stroke="#ffff00" points="375,-8 375,-122.4 1447,-122.4 1447,-8 375,-8"/>
<text text-anchor="start" x="886.3256" y="-107.6" font-family="arial" font-size="12.00" fill="#000000">Evidence</text>
</g>
<g id="clust3" class="cluster">
<title>cluster_3</title>
<polygon fill="#f0ffff" stroke="#f0ffff" points="8,-352 8,-668.4 226,-668.4 226,-352 8,-352"/>
<text text-anchor="start" x="60.6408" y="-653.6" font-family="arial" font-size="12.00" fill="#000000">Gap in the Sequence</text>
</g>
<g id="clust4" class="cluster">
<title>cluster_4</title>
<polygon fill="#bfefff" stroke="#bfefff" points="234,-364 234,-454.4 452,-454.4 452,-364 234,-364"/>
<text text-anchor="start" x="293.3248" y="-439.6" font-family="arial" font-size="12.00" fill="#000000">Dating of the Culm</text>
</g>
<g id="clust5" class="cluster">
<title>cluster_5</title>
<polygon fill="#c6e2ff" stroke="#c6e2ff" points="913,-542 913,-840.4 1343,-840.4 1343,-542 913,-542"/>
<text text-anchor="start" x="1044.3132" y="-825.6" font-family="arial" font-size="12.00" fill="#000000">Aporia I : Coal in Ancient Strata</text>
</g>
<g id="clust6" class="cluster">
<title>cluster_6</title>
<polygon fill="#9fb6cd" stroke="#9fb6cd" points="460,-156 460,-858.4 684,-858.4 684,-156 460,-156"/>
<text text-anchor="start" x="471.3122" y="-843.6" font-family="arial" font-size="12.00" fill="#000000">Aporia II : CM Plants in Ancient Strata</text>
</g>
<g id="clust7" class="cluster">
<title>cluster_7</title>
<polygon fill="#e6e6fa" stroke="#e6e6fa" points="692,-162 692,-490.4 1564,-490.4 1564,-162 692,-162"/>
<text text-anchor="start" x="1057.9752" y="-475.6" font-family="arial" font-size="12.00" fill="#000000">Youngest Devonian Strata</text>
</g>
<!-- n0 -->
<g id="node1" class="node">
<title>n0</title>
<path fill="#ffffff" stroke="#f4a460" stroke-width="2" d="M430,-626C430,-626 254,-626 254,-626 248,-626 242,-620 242,-614 242,-614 242,-574 242,-574 242,-568 248,-562 254,-562 254,-562 430,-562 430,-562 436,-562 442,-568 442,-574 442,-574 442,-614 442,-614 442,-620 436,-626 430,-626"/>
<text text-anchor="start" x="286.99" y="-612" font-family="arial" font-weight="bold" font-size="10.00" fill="#000000">Devonian Strata as CAM</text>
<text text-anchor="start" x="265.3125" y="-595" font-family="arial" font-size="10.00" fill="#000000">In Devon, all the strata &#45; older than</text>
<text text-anchor="start" x="251.703" y="-583" font-family="arial" font-size="10.00" fill="#000000"> the New Red Sandstone &#45; are Cambrian</text>
<text text-anchor="start" x="285.5955" y="-571" font-family="arial" font-size="10.00" fill="#000000"> in age #GRE #chron&#45;hyp</text>
</g>
<!-- n16 -->
<g id="node8" class="node">
<title>n16</title>
<path fill="#f4a460" stroke="#000000" d="M206,-436C206,-436 34,-436 34,-436 28,-436 22,-430 22,-424 22,-424 22,-372 22,-372 22,-366 28,-360 34,-360 34,-360 206,-360 206,-360 212,-360 218,-366 218,-372 218,-372 218,-424 218,-424 218,-430 212,-436 206,-436"/>
<text text-anchor="start" x="52.202" y="-422" font-family="arial" font-weight="bold" font-size="10.00" fill="#000000">Unbroken Sequence &#45; GRE.1a</text>
<text text-anchor="start" x="56.095" y="-405" font-family="arial" font-size="10.00" fill="#000000">If, in Devon, all the strata are</text>
<text text-anchor="start" x="35.5295" y="-393" font-family="arial" font-size="10.00" fill="#000000"> Cambrian in age, i.e. belonging to the</text>
<text text-anchor="start" x="36.9225" y="-381" font-family="arial" font-size="10.00" fill="#000000"> same geological period, then there is</text>
<text text-anchor="start" x="38.581" y="-369" font-family="arial" font-size="10.00" fill="#000000"> no gap in the local sequence. #GRE</text>
</g>
<!-- n0&#45;&gt;n16 -->
<g id="edge11" class="edge">
<title>n0&#45;&gt;n16</title>
<path fill="none" stroke="#00ff00" d="M305.3412,-561.6346C268.6655,-529.2542 211.9501,-479.1812 170.9155,-442.9524"/>
<polygon fill="#00ff00" stroke="#00ff00" points="172.9994,-440.1234 163.1865,-436.1286 168.3665,-445.3709 172.9994,-440.1234"/>
</g>
<!-- n7 -->
<g id="node9" class="node">
<title>n7</title>
<path fill="#ffffff" stroke="#f4a460" stroke-width="2" d="M431.5,-424C431.5,-424 254.5,-424 254.5,-424 248.5,-424 242.5,-418 242.5,-412 242.5,-412 242.5,-384 242.5,-384 242.5,-378 248.5,-372 254.5,-372 254.5,-372 431.5,-372 431.5,-372 437.5,-372 443.5,-378 443.5,-384 443.5,-384 443.5,-412 443.5,-412 443.5,-418 437.5,-424 431.5,-424"/>
<text text-anchor="start" x="312.67" y="-410" font-family="arial" font-weight="bold" font-size="10.00" fill="#000000">Culm as CAM</text>
<text text-anchor="start" x="252.653" y="-393" font-family="arial" font-size="10.00" fill="#000000">The whole Culm strata of Devonshire are</text>
<text text-anchor="start" x="264.04" y="-381" font-family="arial" font-size="10.00" fill="#000000"> Cambrian in age #GRE #chron&#45;hyp</text>
</g>
<!-- n0&#45;&gt;n7 -->
<g id="edge1" class="edge">
<title>n0&#45;&gt;n7</title>
<path fill="none" stroke="#00ff00" d="M342.1651,-561.6346C342.3439,-526.6025 342.6283,-470.8611 342.8146,-434.3475"/>
<polygon fill="#00ff00" stroke="#00ff00" points="346.3155,-434.1527 342.8667,-424.1349 339.3156,-434.1169 346.3155,-434.1527"/>
</g>
<!-- n1 -->
<g id="node2" class="node">
<title>n1</title>
<path fill="#ffffff" stroke="#e7298a" stroke-width="2" d="M567,-86C567,-86 395,-86 395,-86 389,-86 383,-80 383,-74 383,-74 383,-34 383,-34 383,-28 389,-22 395,-22 395,-22 567,-22 567,-22 573,-22 579,-28 579,-34 579,-34 579,-74 579,-74 579,-80 573,-86 567,-86"/>
<text text-anchor="start" x="399.305" y="-72" font-family="arial" font-weight="bold" font-size="10.00" fill="#000000">Unbroken Sequence of Devon Strata</text>
<text text-anchor="start" x="404.3125" y="-55" font-family="arial" font-size="10.00" fill="#000000">In Devon, all the strata &#45; older than</text>
<text text-anchor="start" x="404.0355" y="-43" font-family="arial" font-size="10.00" fill="#000000"> the New Red Sandstone &#45; form an</text>
<text text-anchor="start" x="396.5205" y="-31" font-family="arial" font-size="10.00" fill="#000000"> unbroken sequence of strata #ev #E1</text>
</g>
<!-- n2 -->
<g id="node3" class="node">
<title>n2</title>
<path fill="#ffffff" stroke="#e7298a" stroke-width="2" d="M781,-80C781,-80 609,-80 609,-80 603,-80 597,-74 597,-68 597,-68 597,-40 597,-40 597,-34 603,-28 609,-28 609,-28 781,-28 781,-28 787,-28 793,-34 793,-40 793,-40 793,-68 793,-68 793,-74 787,-80 781,-80"/>
<text text-anchor="start" x="637.7755" y="-66" font-family="arial" font-weight="bold" font-size="10.00" fill="#000000">CM Plants in Devon Culm</text>
<text text-anchor="start" x="609.1475" y="-49" font-family="arial" font-size="10.00" fill="#000000">In Devon, the Culm strata contain Coal</text>
<text text-anchor="start" x="624.4275" y="-37" font-family="arial" font-size="10.00" fill="#000000"> Measures fossil plants #ev #E2</text>
</g>
<!-- n3 -->
<g id="node4" class="node">
<title>n3</title>
<path fill="#ffffff" stroke="#e7298a" stroke-width="2" d="M1209,-80C1209,-80 1037,-80 1037,-80 1031,-80 1025,-74 1025,-68 1025,-68 1025,-40 1025,-40 1025,-34 1031,-28 1037,-28 1037,-28 1209,-28 1209,-28 1215,-28 1221,-34 1221,-40 1221,-40 1221,-68 1221,-68 1221,-74 1215,-80 1209,-80"/>
<text text-anchor="start" x="1086.607" y="-66" font-family="arial" font-weight="bold" font-size="10.00" fill="#000000">North of Exmoor</text>
<text text-anchor="start" x="1036.871" y="-49" font-family="arial" font-size="10.00" fill="#000000">Passing Exmoor northwards, the strata</text>
<text text-anchor="start" x="1071.5945" y="-37" font-family="arial" font-size="10.00" fill="#000000"> become older #ev #E3</text>
</g>
<!-- n20 -->
<g id="node21" class="node">
<title>n20</title>
<path fill="#f4a460" stroke="#000000" d="M1209,-258C1209,-258 1037,-258 1037,-258 1031,-258 1025,-252 1025,-246 1025,-246 1025,-182 1025,-182 1025,-176 1031,-170 1037,-170 1037,-170 1209,-170 1209,-170 1215,-170 1221,-176 1221,-182 1221,-182 1221,-246 1221,-246 1221,-252 1215,-258 1209,-258"/>
<text text-anchor="start" x="1047.9845" y="-244" font-family="arial" font-weight="bold" font-size="10.00" fill="#000000">Trough through Exmoor &#45; GRE.1a</text>
<text text-anchor="start" x="1046.0265" y="-227" font-family="arial" font-size="10.00" fill="#000000">If the existence of a trough running</text>
<text text-anchor="start" x="1037.697" y="-215" font-family="arial" font-size="10.00" fill="#000000"> trough Exmoor is the best explanation</text>
<text text-anchor="start" x="1037.417" y="-203" font-family="arial" font-size="10.00" fill="#000000"> of the Exmoor strata being juxtaposed</text>
<text text-anchor="start" x="1045.4815" y="-191" font-family="arial" font-size="10.00" fill="#000000"> solely by older strata, then there is</text>
<text text-anchor="start" x="1049.9245" y="-179" font-family="arial" font-size="10.00" fill="#000000"> a trough through Exmoor &#160;#GRE</text>
</g>
<!-- n3&#45;&gt;n20 -->
<g id="edge12" class="edge">
<title>n3&#45;&gt;n20</title>
<path fill="none" stroke="#00ff00" d="M1123,-80.0127C1123,-101.5378 1123,-132.8391 1123,-159.7754"/>
<polygon fill="#00ff00" stroke="#00ff00" points="1119.5001,-159.8557 1123,-169.8558 1126.5001,-159.8558 1119.5001,-159.8557"/>
</g>
<!-- n4 -->
<g id="node5" class="node">
<title>n4</title>
<path fill="#ffffff" stroke="#e7298a" stroke-width="2" d="M995,-92C995,-92 823,-92 823,-92 817,-92 811,-86 811,-80 811,-80 811,-28 811,-28 811,-22 817,-16 823,-16 823,-16 995,-16 995,-16 1001,-16 1007,-22 1007,-28 1007,-28 1007,-80 1007,-80 1007,-86 1001,-92 995,-92"/>
<text text-anchor="start" x="856.21" y="-78" font-family="arial" font-weight="bold" font-size="10.00" fill="#000000">Trough through Exmoor</text>
<text text-anchor="start" x="831.206" y="-61" font-family="arial" font-size="10.00" fill="#000000">There is a trough through Exmoor &#45;</text>
<text text-anchor="start" x="822.308" y="-49" font-family="arial" font-size="10.00" fill="#000000"> formed by a band of limestone running</text>
<text text-anchor="start" x="830.362" y="-37" font-family="arial" font-size="10.00" fill="#000000"> out to the north coast at Ilfracombe</text>
<text text-anchor="start" x="835.0795" y="-25" font-family="arial" font-size="10.00" fill="#000000"> and south of Barnstaple #ev #E4</text>
</g>
<!-- n5 -->
<g id="node6" class="node">
<title>n5</title>
<path fill="#ffffff" stroke="#e7298a" stroke-width="2" d="M1427,-86C1427,-86 1251,-86 1251,-86 1245,-86 1239,-80 1239,-74 1239,-74 1239,-34 1239,-34 1239,-28 1245,-22 1251,-22 1251,-22 1427,-22 1427,-22 1433,-22 1439,-28 1439,-34 1439,-34 1439,-74 1439,-74 1439,-80 1433,-86 1427,-86"/>
<text text-anchor="start" x="1262.3105" y="-72" font-family="arial" font-weight="bold" font-size="10.00" fill="#000000">Instances of Coal in Ancient Strata</text>
<text text-anchor="start" x="1248.9725" y="-55" font-family="arial" font-size="10.00" fill="#000000">In Munster and Pennsylvannia, there are</text>
<text text-anchor="start" x="1249.2525" y="-43" font-family="arial" font-size="10.00" fill="#000000"> coal deposits in pre&#45;Old Red Sandstone</text>
<text text-anchor="start" x="1305.3765" y="-31" font-family="arial" font-size="10.00" fill="#000000"> strata #ev #E5</text>
</g>
<!-- n6 -->
<g id="node7" class="node">
<title>n6</title>
<path fill="#ffffff" stroke="#f4a460" stroke-width="2" d="M205.5,-638C205.5,-638 28.5,-638 28.5,-638 22.5,-638 16.5,-632 16.5,-626 16.5,-626 16.5,-562 16.5,-562 16.5,-556 22.5,-550 28.5,-550 28.5,-550 205.5,-550 205.5,-550 211.5,-550 217.5,-556 217.5,-562 217.5,-562 217.5,-626 217.5,-626 217.5,-632 211.5,-638 205.5,-638"/>
<text text-anchor="start" x="54.418" y="-624" font-family="arial" font-weight="bold" font-size="10.00" fill="#000000">Gap in a Sequence of Strata</text>
<text text-anchor="start" x="35.8065" y="-607" font-family="arial" font-size="10.00" fill="#000000">There is a gap in a local sequence of</text>
<text text-anchor="start" x="61.6535" y="-595" font-family="arial" font-size="10.00" fill="#000000"> strata, iff there are strata</text>
<text text-anchor="start" x="35.523" y="-583" font-family="arial" font-size="10.00" fill="#000000"> juxtaposed belonging to different but</text>
<text text-anchor="start" x="26.6455" y="-571" font-family="arial" font-size="10.00" fill="#000000"> not successive geological periods #GRE</text>
<text text-anchor="start" x="107.7775" y="-559" font-family="arial" font-size="10.00" fill="#000000"> #pri</text>
</g>
<!-- n6&#45;&gt;n16 -->
<g id="edge13" class="edge">
<title>n6&#45;&gt;n16</title>
<path fill="none" stroke="#00ff00" d="M117.6807,-549.5246C118.1514,-518.7777 118.7772,-477.8911 119.2601,-446.3392"/>
<polygon fill="#00ff00" stroke="#00ff00" points="122.7644,-446.0774 119.418,-436.025 115.7653,-445.9702 122.7644,-446.0774"/>
</g>
<!-- n16&#45;&gt;n1 -->
<g id="edge8" class="edge">
<title>n16&#45;&gt;n1</title>
<path fill="none" stroke="#00ff00" d="M160.0126,-359.8716C229.0902,-294.047 370.009,-159.7643 439.8598,-93.2029"/>
<polygon fill="#00ff00" stroke="#00ff00" points="442.3803,-95.6357 447.2053,-86.2033 437.5513,-90.568 442.3803,-95.6357"/>
</g>
<!-- n18 -->
<g id="node15" class="node">
<title>n18</title>
<path fill="#f4a460" stroke="#000000" d="M663,-264C663,-264 483,-264 483,-264 477,-264 471,-258 471,-252 471,-252 471,-176 471,-176 471,-170 477,-164 483,-164 483,-164 663,-164 663,-164 669,-164 675,-170 675,-176 675,-176 675,-252 675,-252 675,-258 669,-264 663,-264"/>
<text text-anchor="start" x="527.1635" y="-250" font-family="arial" font-weight="bold" font-size="10.00" fill="#000000">Culm and CM Plants</text>
<text text-anchor="start" x="492.432" y="-233" font-family="arial" font-size="10.00" fill="#000000">If the Devon Culm strata are pre&#45;Old</text>
<text text-anchor="start" x="484.0735" y="-221" font-family="arial" font-size="10.00" fill="#000000"> Red Sandstone in age and there are no</text>
<text text-anchor="start" x="489.3765" y="-209" font-family="arial" font-size="10.00" fill="#000000"> Coal Measures plants in pre&#45;Old Red</text>
<text text-anchor="start" x="492.967" y="-197" font-family="arial" font-size="10.00" fill="#000000"> Sandstone strata, then there are no</text>
<text text-anchor="start" x="480.7625" y="-185" font-family="arial" font-size="10.00" fill="#000000"> Coal Measures plants in the Devon Culm</text>
<text text-anchor="start" x="542.716" y="-173" font-family="arial" font-size="10.00" fill="#000000"> strata &#160;#GRE</text>
</g>
<!-- n7&#45;&gt;n18 -->
<g id="edge14" class="edge">
<title>n7&#45;&gt;n18</title>
<path fill="none" stroke="#00ff00" d="M375.9534,-371.6373C408.7439,-345.4049 460.1042,-304.3167 502.168,-270.6656"/>
<polygon fill="#00ff00" stroke="#00ff00" points="504.5553,-273.2379 510.1776,-264.2579 500.1825,-267.7718 504.5553,-273.2379"/>
</g>
<!-- n8 -->
<g id="node10" class="node">
<title>n8</title>
<path fill="#ffffff" stroke="#f4a460" stroke-width="2" d="M1105,-804C1105,-804 933,-804 933,-804 927,-804 921,-798 921,-792 921,-792 921,-764 921,-764 921,-758 927,-752 933,-752 933,-752 1105,-752 1105,-752 1111,-752 1117,-758 1117,-764 1117,-764 1117,-792 1117,-792 1117,-798 1111,-804 1105,-804"/>
<text text-anchor="start" x="970.6555" y="-790" font-family="arial" font-weight="bold" font-size="10.00" fill="#000000">Coal in Ancient Strata</text>
<text text-anchor="start" x="932.8725" y="-773" font-family="arial" font-size="10.00" fill="#000000">There are coal deposits in pre&#45;Old Red</text>
<text text-anchor="start" x="955.0925" y="-761" font-family="arial" font-size="10.00" fill="#000000"> Sandstone strata #GRE #pri</text>
</g>
<!-- n17 -->
<g id="node12" class="node">
<title>n17</title>
<path fill="#f4a460" stroke="#000000" d="M1321,-638C1321,-638 1149,-638 1149,-638 1143,-638 1137,-632 1137,-626 1137,-626 1137,-562 1137,-562 1137,-556 1143,-550 1149,-550 1149,-550 1321,-550 1321,-550 1327,-550 1333,-556 1333,-562 1333,-562 1333,-626 1333,-626 1333,-632 1327,-638 1321,-638"/>
<text text-anchor="start" x="1186.6555" y="-624" font-family="arial" font-weight="bold" font-size="10.00" fill="#000000">Coal in Ancient Strata</text>
<text text-anchor="start" x="1168.0345" y="-607" font-family="arial" font-size="10.00" fill="#000000">If there are no coal deposits in</text>
<text text-anchor="start" x="1154.1415" y="-595" font-family="arial" font-size="10.00" fill="#000000"> Pre&#45;Old Red Sandstone strata, then</text>
<text text-anchor="start" x="1162.4755" y="-583" font-family="arial" font-size="10.00" fill="#000000"> there are no coal deposits in the</text>
<text text-anchor="start" x="1161.645" y="-571" font-family="arial" font-size="10.00" fill="#000000"> pre&#45;Old Red Sandstone strata of</text>
<text text-anchor="start" x="1156.9235" y="-559" font-family="arial" font-size="10.00" fill="#000000"> Munster and Pennsylvannia #GRE</text>
</g>
<!-- n8&#45;&gt;n17 -->
<g id="edge2" class="edge">
<title>n8&#45;&gt;n17</title>
<path fill="none" stroke="#ff0000" d="M1049.9475,-751.6373C1082.6051,-723.8178 1134.876,-679.2908 1175.5475,-644.6447"/>
<polygon fill="#ff0000" stroke="#ff0000" points="1177.9155,-647.2253 1183.2583,-638.0762 1173.3762,-641.8966 1177.9155,-647.2253"/>
</g>
<!-- n19 -->
<g id="node16" class="node">
<title>n19</title>
<path fill="#f4a460" stroke="#000000" d="M659,-656C659,-656 487,-656 487,-656 481,-656 475,-650 475,-644 475,-644 475,-544 475,-544 475,-538 481,-532 487,-532 487,-532 659,-532 659,-532 665,-532 671,-538 671,-544 671,-544 671,-644 671,-644 671,-650 665,-656 659,-656"/>
<text text-anchor="start" x="528.5485" y="-642" font-family="arial" font-weight="bold" font-size="10.00" fill="#000000">Coal and CM Plants</text>
<text text-anchor="start" x="493.263" y="-625" font-family="arial" font-size="10.00" fill="#000000">If the similarity between the floras of</text>
<text text-anchor="start" x="491.316" y="-613" font-family="arial" font-size="10.00" fill="#000000"> the Coal Measures and pre&#45;Old Red</text>
<text text-anchor="start" x="498.8095" y="-601" font-family="arial" font-size="10.00" fill="#000000"> Sandstone formations is the best</text>
<text text-anchor="start" x="491.8615" y="-589" font-family="arial" font-size="10.00" fill="#000000"> explanation for the existence of coal</text>
<text text-anchor="start" x="491.3105" y="-577" font-family="arial" font-size="10.00" fill="#000000"> deposists in pre&#45;Old Red Sandstone</text>
<text text-anchor="start" x="490.202" y="-565" font-family="arial" font-size="10.00" fill="#000000"> strata, then there are Coal Measures</text>
<text text-anchor="start" x="499.09" y="-553" font-family="arial" font-size="10.00" fill="#000000"> plants in pre&#45;Old Red Sandstone</text>
<text text-anchor="start" x="542.716" y="-541" font-family="arial" font-size="10.00" fill="#000000"> strata. #GRE</text>
</g>
<!-- n8&#45;&gt;n19 -->
<g id="edge15" class="edge">
<title>n8&#45;&gt;n19</title>
<path fill="none" stroke="#00ff00" d="M955.5727,-751.8327C883.9888,-722.3003 766.3364,-673.7621 680.3735,-638.2976"/>
<polygon fill="#00ff00" stroke="#00ff00" points="681.6858,-635.0529 671.1067,-634.4745 679.0161,-641.5238 681.6858,-635.0529"/>
</g>
<!-- n9 -->
<g id="node11" class="node">
<title>n9</title>
<path fill="#ffffff" stroke="#f4a460" stroke-width="2" d="M1323,-810C1323,-810 1147,-810 1147,-810 1141,-810 1135,-804 1135,-798 1135,-798 1135,-758 1135,-758 1135,-752 1141,-746 1147,-746 1147,-746 1323,-746 1323,-746 1329,-746 1335,-752 1335,-758 1335,-758 1335,-798 1335,-798 1335,-804 1329,-810 1323,-810"/>
<text text-anchor="start" x="1175.2565" y="-796" font-family="arial" font-weight="bold" font-size="10.00" fill="#000000">Instances of Ancient Strata</text>
<text text-anchor="start" x="1144.9725" y="-779" font-family="arial" font-size="10.00" fill="#000000">In Munster and Pennsylvannia, there are</text>
<text text-anchor="start" x="1152.201" y="-767" font-family="arial" font-size="10.00" fill="#000000"> pre&#45;Old Red Sandstone strata #GRE</text>
<text text-anchor="start" x="1208.6045" y="-755" font-family="arial" font-size="10.00" fill="#000000"> #chron&#45;hyp</text>
</g>
<!-- n9&#45;&gt;n17 -->
<g id="edge16" class="edge">
<title>n9&#45;&gt;n17</title>
<path fill="none" stroke="#00ff00" d="M1235,-745.9496C1235,-719.0062 1235,-679.9123 1235,-648.126"/>
<polygon fill="#00ff00" stroke="#00ff00" points="1238.5001,-648.0872 1235,-638.0872 1231.5001,-648.0872 1238.5001,-648.0872"/>
</g>
<!-- n17&#45;&gt;n5 -->
<g id="edge3" class="edge">
<title>n17&#45;&gt;n5</title>
<path fill="none" stroke="#ff0000" d="M1333.2424,-576.6751C1420.9609,-558.969 1539.823,-528.6754 1568,-490.4 1656.1101,-370.7122 1648.9358,-280.6514 1568,-156 1541.3372,-114.936 1493.8868,-90.2653 1449.0671,-75.5101"/>
<polygon fill="#ff0000" stroke="#ff0000" points="1449.8424,-72.0848 1439.2529,-72.4196 1447.7399,-78.7616 1449.8424,-72.0848"/>
</g>
<!-- n10 -->
<g id="node13" class="node">
<title>n10</title>
<path fill="#ffffff" stroke="#f4a460" stroke-width="2" d="M659,-430C659,-430 487,-430 487,-430 481,-430 475,-424 475,-418 475,-418 475,-378 475,-378 475,-372 481,-366 487,-366 487,-366 659,-366 659,-366 665,-366 671,-372 671,-378 671,-378 671,-418 671,-418 671,-424 665,-430 659,-430"/>
<text text-anchor="start" x="511.8775" y="-416" font-family="arial" font-weight="bold" font-size="10.00" fill="#000000">CM Plants in Ancient Strata</text>
<text text-anchor="start" x="486.863" y="-399" font-family="arial" font-size="10.00" fill="#000000">In pre&#45;Old Red Sandstone strata, there</text>
<text text-anchor="start" x="496.3215" y="-387" font-family="arial" font-size="10.00" fill="#000000"> are fossil plants similar to those of</text>
<text text-anchor="start" x="503.5435" y="-375" font-family="arial" font-size="10.00" fill="#000000"> the Coal Measures &#160;#GRE #pri</text>
</g>
<!-- n10&#45;&gt;n18 -->
<g id="edge4" class="edge">
<title>n10&#45;&gt;n18</title>
<path fill="none" stroke="#ff0000" d="M573,-365.9496C573,-340.6955 573,-304.7666 573,-274.186"/>
<polygon fill="#ff0000" stroke="#ff0000" points="576.5001,-274.0433 573,-264.0434 569.5001,-274.0434 576.5001,-274.0433"/>
</g>
<!-- n11 -->
<g id="node14" class="node">
<title>n11</title>
<path fill="#ffffff" stroke="#f4a460" stroke-width="2" d="M663.5,-828C663.5,-828 480.5,-828 480.5,-828 474.5,-828 468.5,-822 468.5,-816 468.5,-816 468.5,-740 468.5,-740 468.5,-734 474.5,-728 480.5,-728 480.5,-728 663.5,-728 663.5,-728 669.5,-728 675.5,-734 675.5,-740 675.5,-740 675.5,-816 675.5,-816 675.5,-822 669.5,-828 663.5,-828"/>
<text text-anchor="start" x="489.992" y="-814" font-family="arial" font-weight="bold" font-size="10.00" fill="#000000">Flora Similarities as Best Explanation</text>
<text text-anchor="start" x="489.691" y="-797" font-family="arial" font-size="10.00" fill="#000000">The best explanation of the existence</text>
<text text-anchor="start" x="504.984" y="-785" font-family="arial" font-size="10.00" fill="#000000"> of coal in some strata G is the</text>
<text text-anchor="start" x="493.327" y="-773" font-family="arial" font-size="10.00" fill="#000000"> similarity between G&#39;s flora and the</text>
<text text-anchor="start" x="492.2015" y="-761" font-family="arial" font-size="10.00" fill="#000000"> one of the Coal Measures (the Coal</text>
<text text-anchor="start" x="493.3065" y="-749" font-family="arial" font-size="10.00" fill="#000000"> Measures being noted for the great</text>
<text text-anchor="start" x="478.5825" y="-737" font-family="arial" font-size="10.00" fill="#000000"> amounts of coal they contain) #GRE #aux</text>
</g>
<!-- n11&#45;&gt;n19 -->
<g id="edge17" class="edge">
<title>n11&#45;&gt;n19</title>
<path fill="none" stroke="#00ff00" d="M572.2733,-727.7212C572.3762,-708.7879 572.4953,-686.8637 572.607,-666.3142"/>
<polygon fill="#00ff00" stroke="#00ff00" points="576.1083,-666.0564 572.6628,-656.0375 569.1084,-666.0183 576.1083,-666.0564"/>
</g>
<!-- n18&#45;&gt;n2 -->
<g id="edge5" class="edge">
<title>n18&#45;&gt;n2</title>
<path fill="none" stroke="#ff0000" d="M611.2668,-163.814C629.98,-139.2722 652.0239,-110.3621 668.7953,-88.3668"/>
<polygon fill="#ff0000" stroke="#ff0000" points="671.6668,-90.3732 674.9471,-80.2989 666.1004,-86.1288 671.6668,-90.3732"/>
</g>
<!-- n19&#45;&gt;n10 -->
<g id="edge9" class="edge">
<title>n19&#45;&gt;n10</title>
<path fill="none" stroke="#00ff00" d="M573,-531.9844C573,-502.0836 573,-466.9928 573,-440.2247"/>
<polygon fill="#00ff00" stroke="#00ff00" points="576.5001,-440.0364 573,-430.0364 569.5001,-440.0364 576.5001,-440.0364"/>
</g>
<!-- n12 -->
<g id="node17" class="node">
<title>n12</title>
<path fill="#ffffff" stroke="#f4a460" stroke-width="2" d="M1102,-442C1102,-442 930,-442 930,-442 924,-442 918,-436 918,-430 918,-430 918,-366 918,-366 918,-360 924,-354 930,-354 930,-354 1102,-354 1102,-354 1108,-354 1114,-360 1114,-366 1114,-366 1114,-430 1114,-430 1114,-436 1108,-442 1102,-442"/>
<text text-anchor="start" x="974.049" y="-428" font-family="arial" font-weight="bold" font-size="10.00" fill="#000000">Formation of strata</text>
<text text-anchor="start" x="944.606" y="-411" font-family="arial" font-size="10.00" fill="#000000">Strata are originally formed from</text>
<text text-anchor="start" x="933.4775" y="-399" font-family="arial" font-size="10.00" fill="#000000"> sediments that were deposited in flat</text>
<text text-anchor="start" x="945.979" y="-387" font-family="arial" font-size="10.00" fill="#000000"> horizontal sheets &#45; the younger</text>
<text text-anchor="start" x="935.6955" y="-375" font-family="arial" font-size="10.00" fill="#000000"> sediments deposited on older ones.</text>
<text text-anchor="start" x="991.275" y="-363" font-family="arial" font-size="10.00" fill="#000000"> #GRE #pri</text>
</g>
<!-- n12&#45;&gt;n20 -->
<g id="edge18" class="edge">
<title>n12&#45;&gt;n20</title>
<path fill="none" stroke="#00ff00" d="M1041.6292,-353.9274C1056.8594,-327.7371 1076.2705,-294.3572 1092.3138,-266.7688"/>
<polygon fill="#00ff00" stroke="#00ff00" points="1095.3933,-268.4355 1097.3947,-258.0315 1089.3421,-264.9166 1095.3933,-268.4355"/>
</g>
<!-- n21 -->
<g id="node22" class="node">
<title>n21</title>
<path fill="#f4a460" stroke="#000000" d="M995,-258C995,-258 823,-258 823,-258 817,-258 811,-252 811,-246 811,-246 811,-182 811,-182 811,-176 817,-170 823,-170 823,-170 995,-170 995,-170 1001,-170 1007,-176 1007,-182 1007,-182 1007,-246 1007,-246 1007,-252 1001,-258 995,-258"/>
<text text-anchor="start" x="844.817" y="-244" font-family="arial" font-weight="bold" font-size="10.00" fill="#000000">Exmoor and Devonian Strata</text>
<text text-anchor="start" x="833.985" y="-227" font-family="arial" font-size="10.00" fill="#000000">Assuming that, originally, younger</text>
<text text-anchor="start" x="828.1425" y="-215" font-family="arial" font-size="10.00" fill="#000000"> strata rest upon older ones, it holds:</text>
<text text-anchor="start" x="842.3145" y="-203" font-family="arial" font-size="10.00" fill="#000000"> If the Exmoor strata is not the</text>
<text text-anchor="start" x="834.5255" y="-191" font-family="arial" font-size="10.00" fill="#000000"> youngest, then there is no trough</text>
<text text-anchor="start" x="855.655" y="-179" font-family="arial" font-size="10.00" fill="#000000"> through Exmoor &#160;#GRE</text>
</g>
<!-- n12&#45;&gt;n21 -->
<g id="edge19" class="edge">
<title>n12&#45;&gt;n21</title>
<path fill="none" stroke="#00ff00" d="M990.3708,-353.9274C975.1406,-327.7371 955.7295,-294.3572 939.6862,-266.7688"/>
<polygon fill="#00ff00" stroke="#00ff00" points="942.6579,-264.9166 934.6053,-258.0315 936.6067,-268.4355 942.6579,-264.9166"/>
</g>
<!-- n13 -->
<g id="node18" class="node">
<title>n13</title>
<path fill="#ffffff" stroke="#f4a460" stroke-width="2" d="M1544,-430C1544,-430 1372,-430 1372,-430 1366,-430 1360,-424 1360,-418 1360,-418 1360,-378 1360,-378 1360,-372 1366,-366 1372,-366 1372,-366 1544,-366 1544,-366 1550,-366 1556,-372 1556,-378 1556,-378 1556,-418 1556,-418 1556,-424 1550,-430 1544,-430"/>
<text text-anchor="start" x="1409.944" y="-416" font-family="arial" font-weight="bold" font-size="10.00" fill="#000000">Traversing Northward</text>
<text text-anchor="start" x="1378.5345" y="-399" font-family="arial" font-size="10.00" fill="#000000">The strata south of Exmoor become</text>
<text text-anchor="start" x="1375.476" y="-387" font-family="arial" font-size="10.00" fill="#000000"> progessively younger the furhter one</text>
<text text-anchor="start" x="1371.0405" y="-375" font-family="arial" font-size="10.00" fill="#000000"> traverses northward #GRE #chron&#45;hyp</text>
</g>
<!-- n13&#45;&gt;n20 -->
<g id="edge20" class="edge">
<title>n13&#45;&gt;n20</title>
<path fill="none" stroke="#00ff00" d="M1402.6711,-365.8415C1385.8158,-356.1518 1367.1979,-345.5554 1350,-336 1305.9124,-311.5042 1256.6361,-284.9253 1215.2895,-262.8477"/>
<polygon fill="#00ff00" stroke="#00ff00" points="1216.7917,-259.6822 1206.3213,-258.0632 1213.4968,-265.8583 1216.7917,-259.6822"/>
</g>
<!-- n14 -->
<g id="node19" class="node">
<title>n14</title>
<path fill="#ffffff" stroke="#f4a460" stroke-width="2" d="M1329.5,-460C1329.5,-460 1144.5,-460 1144.5,-460 1138.5,-460 1132.5,-454 1132.5,-448 1132.5,-448 1132.5,-348 1132.5,-348 1132.5,-342 1138.5,-336 1144.5,-336 1144.5,-336 1329.5,-336 1329.5,-336 1335.5,-336 1341.5,-342 1341.5,-348 1341.5,-348 1341.5,-448 1341.5,-448 1341.5,-454 1335.5,-460 1329.5,-460"/>
<text text-anchor="start" x="1157.4795" y="-446" font-family="arial" font-weight="bold" font-size="10.00" fill="#000000">Exmoor Trough as Best Explanation</text>
<text text-anchor="start" x="1164.4195" y="-429" font-family="arial" font-size="10.00" fill="#000000">Assuming that the strata south of</text>
<text text-anchor="start" x="1142.756" y="-417" font-family="arial" font-size="10.00" fill="#000000"> Exmoor become progessively younger the</text>
<text text-anchor="start" x="1156.6465" y="-405" font-family="arial" font-size="10.00" fill="#000000"> furhter one traverses northward and</text>
<text text-anchor="start" x="1160.817" y="-393" font-family="arial" font-size="10.00" fill="#000000"> that, originally, younger strata rest</text>
<text text-anchor="start" x="1158.301" y="-381" font-family="arial" font-size="10.00" fill="#000000"> upon older ones, the existence of a</text>
<text text-anchor="start" x="1156.367" y="-369" font-family="arial" font-size="10.00" fill="#000000"> trough running trough Exmoor is the</text>
<text text-anchor="start" x="1159.137" y="-357" font-family="arial" font-size="10.00" fill="#000000"> best explanation of the strata north</text>
<text text-anchor="start" x="1158.5905" y="-345" font-family="arial" font-size="10.00" fill="#000000"> of Exmoor being older &#160;#GRE #aux</text>
</g>
<!-- n14&#45;&gt;n20 -->
<g id="edge21" class="edge">
<title>n14&#45;&gt;n20</title>
<path fill="none" stroke="#00ff00" d="M1198.5637,-335.9625C1184.6448,-313.4968 1169.068,-288.3553 1155.6897,-266.7624"/>
<polygon fill="#00ff00" stroke="#00ff00" points="1158.5374,-264.713 1150.2954,-258.0557 1152.5869,-268.3997 1158.5374,-264.713"/>
</g>
<!-- n15 -->
<g id="node20" class="node">
<title>n15</title>
<path fill="#ffffff" stroke="#f4a460" stroke-width="2" d="M888,-436C888,-436 712,-436 712,-436 706,-436 700,-430 700,-424 700,-424 700,-372 700,-372 700,-366 706,-360 712,-360 712,-360 888,-360 888,-360 894,-360 900,-366 900,-372 900,-372 900,-424 900,-424 900,-430 894,-436 888,-436"/>
<text text-anchor="start" x="723.8685" y="-422" font-family="arial" font-weight="bold" font-size="10.00" fill="#000000">Exmoor Youngest Devonian strata</text>
<text text-anchor="start" x="720.812" y="-405" font-family="arial" font-size="10.00" fill="#000000">In Devon, among all the strata older</text>
<text text-anchor="start" x="709.6885" y="-393" font-family="arial" font-size="10.00" fill="#000000"> than the New Red Sandstone, the strata</text>
<text text-anchor="start" x="722.1995" y="-381" font-family="arial" font-size="10.00" fill="#000000"> of Exmoor are the youngest #GRE</text>
<text text-anchor="start" x="773.6045" y="-369" font-family="arial" font-size="10.00" fill="#000000"> #chron&#45;hyp</text>
</g>
<!-- n15&#45;&gt;n21 -->
<g id="edge6" class="edge">
<title>n15&#45;&gt;n21</title>
<path fill="none" stroke="#ff0000" d="M822.5849,-359.8751C838.4645,-333.0692 859.9254,-296.8415 877.4873,-267.1958"/>
<polygon fill="#ff0000" stroke="#ff0000" points="880.7164,-268.6119 882.8019,-258.2244 874.6938,-265.0442 880.7164,-268.6119"/>
</g>
<!-- n20&#45;&gt;n4 -->
<g id="edge10" class="edge">
<title>n20&#45;&gt;n4</title>
<path fill="none" stroke="#00ff00" d="M1063.9571,-169.8558C1034.1028,-147.5348 997.9684,-120.5184 968.1053,-98.1909"/>
<polygon fill="#00ff00" stroke="#00ff00" points="969.964,-95.2104 959.8592,-92.0255 965.7723,-100.8167 969.964,-95.2104"/>
</g>
<!-- n21&#45;&gt;n4 -->
<g id="edge7" class="edge">
<title>n21&#45;&gt;n4</title>
<path fill="none" stroke="#ff0000" d="M909,-169.8558C909,-148.8702 909,-123.7343 909,-102.2467"/>
<polygon fill="#ff0000" stroke="#ff0000" points="912.5001,-102.0255 909,-92.0255 905.5001,-102.0256 912.5001,-102.0255"/>
</g>
</g>
</svg>
