
<!-- Generated by graphviz version 2.40.1 (20161225.0304)
 -->
<!-- Title: Argument Map Pages: 1 -->
<svg width="720pt" height="355pt"
 viewBox="0.00 0.00 720.00 355.27" xmlns="http://www.w3.org/2000/svg" xmlns:xlink="http://www.w3.org/1999/xlink">
<g id="graph0" class="graph" transform="scale(.3475 .3475) rotate(0) translate(4 1018.4)">
<title>Argument Map</title>
<g id="clust3" class="cluster">
<title>cluster_3</title>
<polygon fill="#f0ffff" stroke="#f0ffff" points="8,-500 8,-816.4 226,-816.4 226,-500 8,-500"/>
<text text-anchor="start" x="60.6408" y="-801.6" font-family="arial" font-size="12.00" fill="#000000">Gap in the Sequence</text>
</g>
<g id="clust6" class="cluster">
<title>cluster_6</title>
<polygon fill="#c6e2ff" stroke="#c6e2ff" points="1343,-690 1343,-988.4 1773,-988.4 1773,-690 1343,-690"/>
<text text-anchor="start" x="1474.3132" y="-973.6" font-family="arial" font-size="12.00" fill="#000000">Aporia I : Coal in Ancient Strata</text>
</g>
<g id="clust8" class="cluster">
<title>cluster_8</title>
<polygon fill="#e6e6fa" stroke="#e6e6fa" points="1122,-310 1122,-638.4 1994,-638.4 1994,-310 1122,-310"/>
<text text-anchor="start" x="1487.9752" y="-623.6" font-family="arial" font-size="12.00" fill="#000000">Youngest Devonian Strata</text>
</g>
<g id="clust2" class="cluster">
<title>cluster_2</title>
<polygon fill="#ffff00" stroke="#ffff00" points="263,-8 263,-270.4 1551,-270.4 1551,-8 263,-8"/>
<text text-anchor="start" x="882.3256" y="-255.6" font-family="arial" font-size="12.00" fill="#000000">Evidence</text>
</g>
<g id="clust7" class="cluster">
<title>cluster_7</title>
<polygon fill="#9fb6cd" stroke="#9fb6cd" points="680,-304 680,-1006.4 1114,-1006.4 1114,-304 680,-304"/>
<text text-anchor="start" x="796.3122" y="-991.6" font-family="arial" font-size="12.00" fill="#000000">Aporia II : CM Plants in Ancient Strata</text>
</g>
<g id="clust4" class="cluster">
<title>cluster_4</title>
<polygon fill="#f0f8ff" stroke="#f0f8ff" points="234,-512 234,-602.4 446,-602.4 446,-512 234,-512"/>
<text text-anchor="start" x="259.6534" y="-587.6" font-family="arial" font-size="12.00" fill="#000000">Dating of the Non&#45;Culm Strata</text>
</g>
<g id="clust1" class="cluster">
<title>cluster_1</title>
<polygon fill="#ffff00" stroke="#ffff00" points="234,-702 234,-804.4 450,-804.4 450,-702 234,-702"/>
<text text-anchor="start" x="295.3272" y="-789.6" font-family="arial" font-size="12.00" fill="#000000">Rival Hypotheses</text>
</g>
<g id="clust5" class="cluster">
<title>cluster_5</title>
<polygon fill="#bfefff" stroke="#bfefff" points="454,-512 454,-602.4 672,-602.4 672,-512 454,-512"/>
<text text-anchor="start" x="513.3248" y="-587.6" font-family="arial" font-size="12.00" fill="#000000">Dating of the Culm</text>
</g>
<!-- n0 -->
<g id="node1" class="node">
<title>n0</title>
<path fill="#ffffff" stroke="#f4a460" stroke-width="2" d="M430,-774C430,-774 254,-774 254,-774 248,-774 242,-768 242,-762 242,-762 242,-722 242,-722 242,-716 248,-710 254,-710 254,-710 430,-710 430,-710 436,-710 442,-716 442,-722 442,-722 442,-762 442,-762 442,-768 436,-774 430,-774"/>
<text text-anchor="start" x="286.99" y="-760" font-family="arial" font-weight="bold" font-size="10.00" fill="#000000">Devonian Strata as CAM</text>
<text text-anchor="start" x="265.3125" y="-743" font-family="arial" font-size="10.00" fill="#000000">In Devon, all the strata &#45; older than</text>
<text text-anchor="start" x="251.703" y="-731" font-family="arial" font-size="10.00" fill="#000000"> the New Red Sandstone &#45; are Cambrian</text>
<text text-anchor="start" x="285.5955" y="-719" font-family="arial" font-size="10.00" fill="#000000"> in age #GRE #chron&#45;hyp</text>
</g>
<!-- n21 -->
<g id="node11" class="node">
<title>n21</title>
<path fill="#f4a460" stroke="#000000" d="M206,-584C206,-584 34,-584 34,-584 28,-584 22,-578 22,-572 22,-572 22,-520 22,-520 22,-514 28,-508 34,-508 34,-508 206,-508 206,-508 212,-508 218,-514 218,-520 218,-520 218,-572 218,-572 218,-578 212,-584 206,-584"/>
<text text-anchor="start" x="52.202" y="-570" font-family="arial" font-weight="bold" font-size="10.00" fill="#000000">Unbroken Sequence &#45; GRE.1a</text>
<text text-anchor="start" x="56.095" y="-553" font-family="arial" font-size="10.00" fill="#000000">If, in Devon, all the strata are</text>
<text text-anchor="start" x="35.5295" y="-541" font-family="arial" font-size="10.00" fill="#000000"> Cambrian in age, i.e. belonging to the</text>
<text text-anchor="start" x="36.9225" y="-529" font-family="arial" font-size="10.00" fill="#000000"> same geological period, then there is</text>
<text text-anchor="start" x="38.581" y="-517" font-family="arial" font-size="10.00" fill="#000000"> no gap in the local sequence. #GRE</text>
</g>
<!-- n0&#45;&gt;n21 -->
<g id="edge17" class="edge">
<title>n0&#45;&gt;n21</title>
<path fill="none" stroke="#00ff00" d="M305.3412,-709.6346C268.6655,-677.2542 211.9501,-627.1812 170.9155,-590.9524"/>
<polygon fill="#00ff00" stroke="#00ff00" points="172.9994,-588.1234 163.1865,-584.1286 168.3665,-593.3709 172.9994,-588.1234"/>
</g>
<!-- n10 -->
<g id="node12" class="node">
<title>n10</title>
<path fill="#ffffff" stroke="#f4a460" stroke-width="2" d="M426,-572C426,-572 254,-572 254,-572 248,-572 242,-566 242,-560 242,-560 242,-532 242,-532 242,-526 248,-520 254,-520 254,-520 426,-520 426,-520 432,-520 438,-526 438,-532 438,-532 438,-560 438,-560 438,-566 432,-572 426,-572"/>
<text text-anchor="start" x="283.6105" y="-558" font-family="arial" font-weight="bold" font-size="10.00" fill="#000000">Non&#45;Culm Strata as CAM</text>
<text text-anchor="start" x="264.7055" y="-541" font-family="arial" font-size="10.00" fill="#000000">In Devon, the non&#45;Culm strata are</text>
<text text-anchor="start" x="260.54" y="-529" font-family="arial" font-size="10.00" fill="#000000"> Cambrian in age #GRE #chron&#45;hyp</text>
</g>
<!-- n0&#45;&gt;n10 -->
<g id="edge5" class="edge">
<title>n0&#45;&gt;n10</title>
<path fill="none" stroke="#00ff00" d="M341.6697,-709.6346C341.3123,-674.6025 340.7435,-618.8611 340.3709,-582.3475"/>
<polygon fill="#00ff00" stroke="#00ff00" points="343.8686,-582.0987 340.2667,-572.1349 336.869,-582.1702 343.8686,-582.0987"/>
</g>
<!-- n11 -->
<g id="node13" class="node">
<title>n11</title>
<path fill="#ffffff" stroke="#f4a460" stroke-width="2" d="M651.5,-572C651.5,-572 474.5,-572 474.5,-572 468.5,-572 462.5,-566 462.5,-560 462.5,-560 462.5,-532 462.5,-532 462.5,-526 468.5,-520 474.5,-520 474.5,-520 651.5,-520 651.5,-520 657.5,-520 663.5,-526 663.5,-532 663.5,-532 663.5,-560 663.5,-560 663.5,-566 657.5,-572 651.5,-572"/>
<text text-anchor="start" x="532.67" y="-558" font-family="arial" font-weight="bold" font-size="10.00" fill="#000000">Culm as CAM</text>
<text text-anchor="start" x="472.653" y="-541" font-family="arial" font-size="10.00" fill="#000000">The whole Culm strata of Devonshire are</text>
<text text-anchor="start" x="484.04" y="-529" font-family="arial" font-size="10.00" fill="#000000"> Cambrian in age #GRE #chron&#45;hyp</text>
</g>
<!-- n0&#45;&gt;n11 -->
<g id="edge4" class="edge">
<title>n0&#45;&gt;n11</title>
<path fill="none" stroke="#00ff00" d="M378.4937,-709.6346C419.2656,-673.4748 484.9158,-615.2512 525.9232,-578.8826"/>
<polygon fill="#00ff00" stroke="#00ff00" points="528.3723,-581.3887 533.5315,-572.1349 523.7276,-576.1516 528.3723,-581.3887"/>
</g>
<!-- n1 -->
<g id="node2" class="node">
<title>n1</title>
<path fill="#ffffff" stroke="#66a61e" stroke-width="2" d="M455,-234C455,-234 283,-234 283,-234 277,-234 271,-228 271,-222 271,-222 271,-182 271,-182 271,-176 277,-170 283,-170 283,-170 455,-170 455,-170 461,-170 467,-176 467,-182 467,-182 467,-222 467,-222 467,-228 461,-234 455,-234"/>
<text text-anchor="start" x="287.305" y="-220" font-family="arial" font-weight="bold" font-size="10.00" fill="#000000">Unbroken Sequence of Devon Strata</text>
<text text-anchor="start" x="292.3125" y="-203" font-family="arial" font-size="10.00" fill="#000000">In Devon, all the strata &#45; older than</text>
<text text-anchor="start" x="292.0355" y="-191" font-family="arial" font-size="10.00" fill="#000000"> the New Red Sandstone &#45; form an</text>
<text text-anchor="start" x="284.5205" y="-179" font-family="arial" font-size="10.00" fill="#000000"> unbroken sequence of strata #ev #E1</text>
</g>
<!-- n6 -->
<g id="node7" class="node">
<title>n6</title>
<path fill="#ffffff" stroke="#66a61e" stroke-width="2" d="M455,-92C455,-92 283,-92 283,-92 277,-92 271,-86 271,-80 271,-80 271,-28 271,-28 271,-22 277,-16 283,-16 283,-16 455,-16 455,-16 461,-16 467,-22 467,-28 467,-28 467,-80 467,-80 467,-86 461,-92 455,-92"/>
<text text-anchor="start" x="318.439" y="-78" font-family="arial" font-weight="bold" font-size="10.00" fill="#000000">Unconformity in Devon</text>
<text text-anchor="start" x="294.2545" y="-61" font-family="arial" font-size="10.00" fill="#000000">Between the Devon Culm and the</text>
<text text-anchor="start" x="292.866" y="-49" font-family="arial" font-size="10.00" fill="#000000"> juxtaposed strata, there is at least</text>
<text text-anchor="start" x="298.9895" y="-37" font-family="arial" font-size="10.00" fill="#000000"> one formation missing from the</text>
<text text-anchor="start" x="305.361" y="-25" font-family="arial" font-size="10.00" fill="#000000"> standard sequence #ev #E6</text>
</g>
<!-- n1&#45;&gt;n6 -->
<g id="edge2" class="edge">
<title>n1&#45;&gt;n6</title>
<path fill="none" stroke="#ff0000" d="M363.3216,-169.8862C362.1843,-150.1437 361.9523,-124.4703 362.6254,-102.3074"/>
<polygon fill="#ff0000" stroke="#ff0000" points="366.1318,-102.2046 363.0134,-92.0791 359.1368,-101.9393 366.1318,-102.2046"/>
</g>
<!-- n2 -->
<g id="node3" class="node">
<title>n2</title>
<path fill="#ffffff" stroke="#66a61e" stroke-width="2" d="M889,-228C889,-228 717,-228 717,-228 711,-228 705,-222 705,-216 705,-216 705,-188 705,-188 705,-182 711,-176 717,-176 717,-176 889,-176 889,-176 895,-176 901,-182 901,-188 901,-188 901,-216 901,-216 901,-222 895,-228 889,-228"/>
<text text-anchor="start" x="745.7755" y="-214" font-family="arial" font-weight="bold" font-size="10.00" fill="#000000">CM Plants in Devon Culm</text>
<text text-anchor="start" x="717.1475" y="-197" font-family="arial" font-size="10.00" fill="#000000">In Devon, the Culm strata contain Coal</text>
<text text-anchor="start" x="732.4275" y="-185" font-family="arial" font-size="10.00" fill="#000000"> Measures fossil plants #ev #E2</text>
</g>
<!-- n3 -->
<g id="node4" class="node">
<title>n3</title>
<path fill="#ffffff" stroke="#66a61e" stroke-width="2" d="M1531,-228C1531,-228 1359,-228 1359,-228 1353,-228 1347,-222 1347,-216 1347,-216 1347,-188 1347,-188 1347,-182 1353,-176 1359,-176 1359,-176 1531,-176 1531,-176 1537,-176 1543,-182 1543,-188 1543,-188 1543,-216 1543,-216 1543,-222 1537,-228 1531,-228"/>
<text text-anchor="start" x="1408.607" y="-214" font-family="arial" font-weight="bold" font-size="10.00" fill="#000000">North of Exmoor</text>
<text text-anchor="start" x="1358.871" y="-197" font-family="arial" font-size="10.00" fill="#000000">Passing Exmoor northwards, the strata</text>
<text text-anchor="start" x="1393.5945" y="-185" font-family="arial" font-size="10.00" fill="#000000"> become older #ev #E3</text>
</g>
<!-- n26 -->
<g id="node27" class="node">
<title>n26</title>
<path fill="#f4a460" stroke="#000000" d="M1532,-406C1532,-406 1360,-406 1360,-406 1354,-406 1348,-400 1348,-394 1348,-394 1348,-330 1348,-330 1348,-324 1354,-318 1360,-318 1360,-318 1532,-318 1532,-318 1538,-318 1544,-324 1544,-330 1544,-330 1544,-394 1544,-394 1544,-400 1538,-406 1532,-406"/>
<text text-anchor="start" x="1370.9845" y="-392" font-family="arial" font-weight="bold" font-size="10.00" fill="#000000">Trough through Exmoor &#45; GRE.1a</text>
<text text-anchor="start" x="1369.0265" y="-375" font-family="arial" font-size="10.00" fill="#000000">If the existence of a trough running</text>
<text text-anchor="start" x="1360.697" y="-363" font-family="arial" font-size="10.00" fill="#000000"> trough Exmoor is the best explanation</text>
<text text-anchor="start" x="1360.417" y="-351" font-family="arial" font-size="10.00" fill="#000000"> of the Exmoor strata being juxtaposed</text>
<text text-anchor="start" x="1368.4815" y="-339" font-family="arial" font-size="10.00" fill="#000000"> solely by older strata, then there is</text>
<text text-anchor="start" x="1372.9245" y="-327" font-family="arial" font-size="10.00" fill="#000000"> a trough through Exmoor &#160;#GRE</text>
</g>
<!-- n3&#45;&gt;n26 -->
<g id="edge18" class="edge">
<title>n3&#45;&gt;n26</title>
<path fill="none" stroke="#00ff00" d="M1445.1626,-228.0127C1445.2971,-249.5378 1445.4927,-280.8391 1445.6611,-307.7754"/>
<polygon fill="#00ff00" stroke="#00ff00" points="1442.1616,-307.8779 1445.7241,-317.8558 1449.1614,-307.834 1442.1616,-307.8779"/>
</g>
<!-- n4 -->
<g id="node5" class="node">
<title>n4</title>
<path fill="#ffffff" stroke="#66a61e" stroke-width="2" d="M1317,-240C1317,-240 1145,-240 1145,-240 1139,-240 1133,-234 1133,-228 1133,-228 1133,-176 1133,-176 1133,-170 1139,-164 1145,-164 1145,-164 1317,-164 1317,-164 1323,-164 1329,-170 1329,-176 1329,-176 1329,-228 1329,-228 1329,-234 1323,-240 1317,-240"/>
<text text-anchor="start" x="1178.21" y="-226" font-family="arial" font-weight="bold" font-size="10.00" fill="#000000">Trough through Exmoor</text>
<text text-anchor="start" x="1153.206" y="-209" font-family="arial" font-size="10.00" fill="#000000">There is a trough through Exmoor &#45;</text>
<text text-anchor="start" x="1144.308" y="-197" font-family="arial" font-size="10.00" fill="#000000"> formed by a band of limestone running</text>
<text text-anchor="start" x="1152.362" y="-185" font-family="arial" font-size="10.00" fill="#000000"> out to the north coast at Ilfracombe</text>
<text text-anchor="start" x="1157.0795" y="-173" font-family="arial" font-size="10.00" fill="#000000"> and south of Barnstaple #ev #E4</text>
</g>
<!-- n5 -->
<g id="node6" class="node">
<title>n5</title>
<path fill="#ffffff" stroke="#66a61e" stroke-width="2" d="M1102,-86C1102,-86 926,-86 926,-86 920,-86 914,-80 914,-74 914,-74 914,-34 914,-34 914,-28 920,-22 926,-22 926,-22 1102,-22 1102,-22 1108,-22 1114,-28 1114,-34 1114,-34 1114,-74 1114,-74 1114,-80 1108,-86 1102,-86"/>
<text text-anchor="start" x="937.3105" y="-72" font-family="arial" font-weight="bold" font-size="10.00" fill="#000000">Instances of Coal in Ancient Strata</text>
<text text-anchor="start" x="923.9725" y="-55" font-family="arial" font-size="10.00" fill="#000000">In Munster and Pennsylvannia, there are</text>
<text text-anchor="start" x="924.2525" y="-43" font-family="arial" font-size="10.00" fill="#000000"> coal deposits in pre&#45;Old Red Sandstone</text>
<text text-anchor="start" x="980.3765" y="-31" font-family="arial" font-size="10.00" fill="#000000"> strata #ev #E5</text>
</g>
<!-- n6&#45;&gt;n1 -->
<g id="edge1" class="edge">
<title>n6&#45;&gt;n1</title>
<path fill="none" stroke="#ff0000" d="M374.9866,-92.0791C375.9421,-112.7991 376.0006,-138.4796 375.1621,-159.8069"/>
<polygon fill="#ff0000" stroke="#ff0000" points="371.6619,-159.7299 374.6784,-169.8862 378.6538,-160.0655 371.6619,-159.7299"/>
</g>
<!-- n7 -->
<g id="node8" class="node">
<title>n7</title>
<path fill="#ffffff" stroke="#66a61e" stroke-width="2" d="M1103,-240C1103,-240 931,-240 931,-240 925,-240 919,-234 919,-228 919,-228 919,-176 919,-176 919,-170 925,-164 931,-164 931,-164 1103,-164 1103,-164 1109,-164 1115,-170 1115,-176 1115,-176 1115,-228 1115,-228 1115,-234 1109,-240 1103,-240"/>
<text text-anchor="start" x="938.9305" y="-226" font-family="arial" font-weight="bold" font-size="10.00" fill="#000000">CM Plants in Ancient French Strata</text>
<text text-anchor="start" x="942.53" y="-209" font-family="arial" font-size="10.00" fill="#000000">In the Bocage, the limestones are</text>
<text text-anchor="start" x="938.361" y="-197" font-family="arial" font-size="10.00" fill="#000000"> pre&#45;Old Red Sandstone in age and</text>
<text text-anchor="start" x="938.099" y="-185" font-family="arial" font-size="10.00" fill="#000000"> contain some Coal Measures fossil</text>
<text text-anchor="start" x="982.5415" y="-173" font-family="arial" font-size="10.00" fill="#000000"> plants #ev #E7</text>
</g>
<!-- n8 -->
<g id="node9" class="node">
<title>n8</title>
<path fill="#ffffff" stroke="#66a61e" stroke-width="2" d="M674.5,-234C674.5,-234 497.5,-234 497.5,-234 491.5,-234 485.5,-228 485.5,-222 485.5,-222 485.5,-182 485.5,-182 485.5,-176 491.5,-170 497.5,-170 497.5,-170 674.5,-170 674.5,-170 680.5,-170 686.5,-176 686.5,-182 686.5,-182 686.5,-222 686.5,-222 686.5,-228 680.5,-234 674.5,-234"/>
<text text-anchor="start" x="517.323" y="-220" font-family="arial" font-weight="bold" font-size="10.00" fill="#000000">Munster Coal as Carboniferous</text>
<text text-anchor="start" x="510.0905" y="-203" font-family="arial" font-size="10.00" fill="#000000">In Munster, the limestone and coal</text>
<text text-anchor="start" x="495.6475" y="-191" font-family="arial" font-size="10.00" fill="#000000"> seams are pre&#45;Carboniferous in age #ev</text>
<text text-anchor="start" x="576.217" y="-179" font-family="arial" font-size="10.00" fill="#000000"> #E8</text>
</g>
<!-- n8&#45;&gt;n5 -->
<g id="edge3" class="edge">
<title>n8&#45;&gt;n5</title>
<path fill="none" stroke="#ff0000" d="M678.606,-169.9774C747.1554,-146.2734 840.5362,-113.9828 911.3595,-89.4925"/>
<polygon fill="#ff0000" stroke="#ff0000" points="912.8913,-92.6662 921.1984,-86.0903 910.6036,-86.0506 912.8913,-92.6662"/>
</g>
<!-- n9 -->
<g id="node10" class="node">
<title>n9</title>
<path fill="#ffffff" stroke="#f4a460" stroke-width="2" d="M205.5,-786C205.5,-786 28.5,-786 28.5,-786 22.5,-786 16.5,-780 16.5,-774 16.5,-774 16.5,-710 16.5,-710 16.5,-704 22.5,-698 28.5,-698 28.5,-698 205.5,-698 205.5,-698 211.5,-698 217.5,-704 217.5,-710 217.5,-710 217.5,-774 217.5,-774 217.5,-780 211.5,-786 205.5,-786"/>
<text text-anchor="start" x="54.418" y="-772" font-family="arial" font-weight="bold" font-size="10.00" fill="#000000">Gap in a Sequence of Strata</text>
<text text-anchor="start" x="35.8065" y="-755" font-family="arial" font-size="10.00" fill="#000000">There is a gap in a local sequence of</text>
<text text-anchor="start" x="61.6535" y="-743" font-family="arial" font-size="10.00" fill="#000000"> strata, iff there are strata</text>
<text text-anchor="start" x="35.523" y="-731" font-family="arial" font-size="10.00" fill="#000000"> juxtaposed belonging to different but</text>
<text text-anchor="start" x="26.6455" y="-719" font-family="arial" font-size="10.00" fill="#000000"> not successive geological periods #GRE</text>
<text text-anchor="start" x="107.7775" y="-707" font-family="arial" font-size="10.00" fill="#000000"> #pri</text>
</g>
<!-- n9&#45;&gt;n21 -->
<g id="edge19" class="edge">
<title>n9&#45;&gt;n21</title>
<path fill="none" stroke="#00ff00" d="M117.6807,-697.5246C118.1514,-666.7777 118.7772,-625.8911 119.2601,-594.3392"/>
<polygon fill="#00ff00" stroke="#00ff00" points="122.7644,-594.0774 119.418,-584.025 115.7653,-593.9702 122.7644,-594.0774"/>
</g>
<!-- n21&#45;&gt;n1 -->
<g id="edge14" class="edge">
<title>n21&#45;&gt;n1</title>
<path fill="none" stroke="#00ff00" d="M147.5987,-507.8716C194.9557,-442.4468 291.2651,-309.3928 339.7403,-242.423"/>
<polygon fill="#00ff00" stroke="#00ff00" points="342.6618,-244.3561 345.6901,-234.2033 336.9913,-240.2516 342.6618,-244.3561"/>
</g>
<!-- n23 -->
<g id="node20" class="node">
<title>n23</title>
<path fill="#f4a460" stroke="#000000" d="M880,-412C880,-412 700,-412 700,-412 694,-412 688,-406 688,-400 688,-400 688,-324 688,-324 688,-318 694,-312 700,-312 700,-312 880,-312 880,-312 886,-312 892,-318 892,-324 892,-324 892,-400 892,-400 892,-406 886,-412 880,-412"/>
<text text-anchor="start" x="744.1635" y="-398" font-family="arial" font-weight="bold" font-size="10.00" fill="#000000">Culm and CM Plants</text>
<text text-anchor="start" x="709.432" y="-381" font-family="arial" font-size="10.00" fill="#000000">If the Devon Culm strata are pre&#45;Old</text>
<text text-anchor="start" x="701.0735" y="-369" font-family="arial" font-size="10.00" fill="#000000"> Red Sandstone in age and there are no</text>
<text text-anchor="start" x="706.3765" y="-357" font-family="arial" font-size="10.00" fill="#000000"> Coal Measures plants in pre&#45;Old Red</text>
<text text-anchor="start" x="709.967" y="-345" font-family="arial" font-size="10.00" fill="#000000"> Sandstone strata, then there are no</text>
<text text-anchor="start" x="697.7625" y="-333" font-family="arial" font-size="10.00" fill="#000000"> Coal Measures plants in the Devon Culm</text>
<text text-anchor="start" x="759.716" y="-321" font-family="arial" font-size="10.00" fill="#000000"> strata &#160;#GRE</text>
</g>
<!-- n11&#45;&gt;n23 -->
<g id="edge20" class="edge">
<title>n11&#45;&gt;n23</title>
<path fill="none" stroke="#00ff00" d="M595.5236,-519.6373C627.8864,-493.4049 678.5767,-452.3167 720.0919,-418.6656"/>
<polygon fill="#00ff00" stroke="#00ff00" points="722.4325,-421.2738 727.997,-412.2579 718.0246,-415.8359 722.4325,-421.2738"/>
</g>
<!-- n12 -->
<g id="node14" class="node">
<title>n12</title>
<path fill="#ffffff" stroke="#f4a460" stroke-width="2" d="M1535,-952C1535,-952 1363,-952 1363,-952 1357,-952 1351,-946 1351,-940 1351,-940 1351,-912 1351,-912 1351,-906 1357,-900 1363,-900 1363,-900 1535,-900 1535,-900 1541,-900 1547,-906 1547,-912 1547,-912 1547,-940 1547,-940 1547,-946 1541,-952 1535,-952"/>
<text text-anchor="start" x="1400.6555" y="-938" font-family="arial" font-weight="bold" font-size="10.00" fill="#000000">Coal in Ancient Strata</text>
<text text-anchor="start" x="1362.8725" y="-921" font-family="arial" font-size="10.00" fill="#000000">There are coal deposits in pre&#45;Old Red</text>
<text text-anchor="start" x="1385.0925" y="-909" font-family="arial" font-size="10.00" fill="#000000"> Sandstone strata #GRE #pri</text>
</g>
<!-- n22 -->
<g id="node16" class="node">
<title>n22</title>
<path fill="#f4a460" stroke="#000000" d="M1751,-786C1751,-786 1579,-786 1579,-786 1573,-786 1567,-780 1567,-774 1567,-774 1567,-710 1567,-710 1567,-704 1573,-698 1579,-698 1579,-698 1751,-698 1751,-698 1757,-698 1763,-704 1763,-710 1763,-710 1763,-774 1763,-774 1763,-780 1757,-786 1751,-786"/>
<text text-anchor="start" x="1616.6555" y="-772" font-family="arial" font-weight="bold" font-size="10.00" fill="#000000">Coal in Ancient Strata</text>
<text text-anchor="start" x="1598.0345" y="-755" font-family="arial" font-size="10.00" fill="#000000">If there are no coal deposits in</text>
<text text-anchor="start" x="1584.1415" y="-743" font-family="arial" font-size="10.00" fill="#000000"> Pre&#45;Old Red Sandstone strata, then</text>
<text text-anchor="start" x="1592.4755" y="-731" font-family="arial" font-size="10.00" fill="#000000"> there are no coal deposits in the</text>
<text text-anchor="start" x="1591.645" y="-719" font-family="arial" font-size="10.00" fill="#000000"> pre&#45;Old Red Sandstone strata of</text>
<text text-anchor="start" x="1586.9235" y="-707" font-family="arial" font-size="10.00" fill="#000000"> Munster and Pennsylvannia #GRE</text>
</g>
<!-- n12&#45;&gt;n22 -->
<g id="edge6" class="edge">
<title>n12&#45;&gt;n22</title>
<path fill="none" stroke="#ff0000" d="M1479.9475,-899.6373C1512.6051,-871.8178 1564.876,-827.2908 1605.5475,-792.6447"/>
<polygon fill="#ff0000" stroke="#ff0000" points="1607.9155,-795.2253 1613.2583,-786.0762 1603.3762,-789.8966 1607.9155,-795.2253"/>
</g>
<!-- n24 -->
<g id="node21" class="node">
<title>n24</title>
<path fill="#f4a460" stroke="#000000" d="M987,-804C987,-804 815,-804 815,-804 809,-804 803,-798 803,-792 803,-792 803,-692 803,-692 803,-686 809,-680 815,-680 815,-680 987,-680 987,-680 993,-680 999,-686 999,-692 999,-692 999,-792 999,-792 999,-798 993,-804 987,-804"/>
<text text-anchor="start" x="856.5485" y="-790" font-family="arial" font-weight="bold" font-size="10.00" fill="#000000">Coal and CM Plants</text>
<text text-anchor="start" x="821.263" y="-773" font-family="arial" font-size="10.00" fill="#000000">If the similarity between the floras of</text>
<text text-anchor="start" x="819.316" y="-761" font-family="arial" font-size="10.00" fill="#000000"> the Coal Measures and pre&#45;Old Red</text>
<text text-anchor="start" x="826.8095" y="-749" font-family="arial" font-size="10.00" fill="#000000"> Sandstone formations is the best</text>
<text text-anchor="start" x="819.8615" y="-737" font-family="arial" font-size="10.00" fill="#000000"> explanation for the existence of coal</text>
<text text-anchor="start" x="819.3105" y="-725" font-family="arial" font-size="10.00" fill="#000000"> deposists in pre&#45;Old Red Sandstone</text>
<text text-anchor="start" x="818.202" y="-713" font-family="arial" font-size="10.00" fill="#000000"> strata, then there are Coal Measures</text>
<text text-anchor="start" x="827.09" y="-701" font-family="arial" font-size="10.00" fill="#000000"> plants in pre&#45;Old Red Sandstone</text>
<text text-anchor="start" x="870.716" y="-689" font-family="arial" font-size="10.00" fill="#000000"> strata. #GRE</text>
</g>
<!-- n12&#45;&gt;n24 -->
<g id="edge21" class="edge">
<title>n12&#45;&gt;n24</title>
<path fill="none" stroke="#00ff00" d="M1371.3573,-899.9302C1276.4882,-868.0763 1115.4559,-814.0071 1008.6617,-778.1492"/>
<polygon fill="#00ff00" stroke="#00ff00" points="1009.7377,-774.8185 999.1437,-774.9534 1007.5095,-781.4544 1009.7377,-774.8185"/>
</g>
<!-- n13 -->
<g id="node15" class="node">
<title>n13</title>
<path fill="#ffffff" stroke="#f4a460" stroke-width="2" d="M1753,-958C1753,-958 1577,-958 1577,-958 1571,-958 1565,-952 1565,-946 1565,-946 1565,-906 1565,-906 1565,-900 1571,-894 1577,-894 1577,-894 1753,-894 1753,-894 1759,-894 1765,-900 1765,-906 1765,-906 1765,-946 1765,-946 1765,-952 1759,-958 1753,-958"/>
<text text-anchor="start" x="1605.2565" y="-944" font-family="arial" font-weight="bold" font-size="10.00" fill="#000000">Instances of Ancient Strata</text>
<text text-anchor="start" x="1574.9725" y="-927" font-family="arial" font-size="10.00" fill="#000000">In Munster and Pennsylvannia, there are</text>
<text text-anchor="start" x="1582.201" y="-915" font-family="arial" font-size="10.00" fill="#000000"> pre&#45;Old Red Sandstone strata #GRE</text>
<text text-anchor="start" x="1638.6045" y="-903" font-family="arial" font-size="10.00" fill="#000000"> #chron&#45;hyp</text>
</g>
<!-- n13&#45;&gt;n22 -->
<g id="edge22" class="edge">
<title>n13&#45;&gt;n22</title>
<path fill="none" stroke="#00ff00" d="M1665,-893.9496C1665,-867.0062 1665,-827.9123 1665,-796.126"/>
<polygon fill="#00ff00" stroke="#00ff00" points="1668.5001,-796.0872 1665,-786.0872 1661.5001,-796.0872 1668.5001,-796.0872"/>
</g>
<!-- n22&#45;&gt;n5 -->
<g id="edge7" class="edge">
<title>n22&#45;&gt;n5</title>
<path fill="none" stroke="#ff0000" d="M1763.2424,-724.6751C1850.9609,-706.969 1969.823,-676.6754 1998,-638.4 2086.1101,-518.7122 2085.9579,-423.7997 1998,-304 1894.3779,-162.8656 1358.9562,-90.2214 1124.3486,-64.7633"/>
<polygon fill="#ff0000" stroke="#ff0000" points="1124.4044,-61.2492 1114.0873,-63.6591 1123.6554,-68.209 1124.4044,-61.2492"/>
</g>
<!-- n14 -->
<g id="node17" class="node">
<title>n14</title>
<path fill="#ffffff" stroke="#f4a460" stroke-width="2" d="M880,-578C880,-578 708,-578 708,-578 702,-578 696,-572 696,-566 696,-566 696,-526 696,-526 696,-520 702,-514 708,-514 708,-514 880,-514 880,-514 886,-514 892,-520 892,-526 892,-526 892,-566 892,-566 892,-572 886,-578 880,-578"/>
<text text-anchor="start" x="732.8775" y="-564" font-family="arial" font-weight="bold" font-size="10.00" fill="#000000">CM Plants in Ancient Strata</text>
<text text-anchor="start" x="707.863" y="-547" font-family="arial" font-size="10.00" fill="#000000">In pre&#45;Old Red Sandstone strata, there</text>
<text text-anchor="start" x="717.3215" y="-535" font-family="arial" font-size="10.00" fill="#000000"> are fossil plants similar to those of</text>
<text text-anchor="start" x="724.5435" y="-523" font-family="arial" font-size="10.00" fill="#000000"> the Coal Measures &#160;#GRE #pri</text>
</g>
<!-- n14&#45;&gt;n23 -->
<g id="edge8" class="edge">
<title>n14&#45;&gt;n23</title>
<path fill="none" stroke="#ff0000" d="M793.3033,-513.9496C792.7542,-488.6955 791.9732,-452.7666 791.3084,-422.186"/>
<polygon fill="#ff0000" stroke="#ff0000" points="794.8045,-421.9649 791.0879,-412.0434 787.8062,-422.1171 794.8045,-421.9649"/>
</g>
<!-- n25 -->
<g id="node22" class="node">
<title>n25</title>
<path fill="#f4a460" stroke="#000000" d="M1094,-406C1094,-406 922,-406 922,-406 916,-406 910,-400 910,-394 910,-394 910,-330 910,-330 910,-324 916,-318 922,-318 922,-318 1094,-318 1094,-318 1100,-318 1106,-324 1106,-330 1106,-330 1106,-394 1106,-394 1106,-400 1100,-406 1094,-406"/>
<text text-anchor="start" x="925.481" y="-392" font-family="arial" font-weight="bold" font-size="10.00" fill="#000000">French Ancient Strata and CM Plants</text>
<text text-anchor="start" x="921.868" y="-375" font-family="arial" font-size="10.00" fill="#000000">If there are no Coal Measures plants in</text>
<text text-anchor="start" x="927.6965" y="-363" font-family="arial" font-size="10.00" fill="#000000"> pre&#45;Old Red Sandstone strata, then</text>
<text text-anchor="start" x="921.0375" y="-351" font-family="arial" font-size="10.00" fill="#000000"> there were no Coal Measures plants in</text>
<text text-anchor="start" x="921.867" y="-339" font-family="arial" font-size="10.00" fill="#000000"> French pre&#45;Old Red Sandstone strata </text>
<text text-anchor="start" x="992.9975" y="-327" font-family="arial" font-size="10.00" fill="#000000"> #GRE</text>
</g>
<!-- n14&#45;&gt;n25 -->
<g id="edge10" class="edge">
<title>n14&#45;&gt;n25</title>
<path fill="none" stroke="#ff0000" d="M831.276,-513.9496C863.6976,-486.0731 911.2465,-445.1899 948.8585,-412.8506"/>
<polygon fill="#ff0000" stroke="#ff0000" points="951.4239,-415.2607 956.7247,-406.0872 946.8602,-409.9529 951.4239,-415.2607"/>
</g>
<!-- n15 -->
<g id="node18" class="node">
<title>n15</title>
<path fill="#ffffff" stroke="#f4a460" stroke-width="2" d="M987,-976C987,-976 815,-976 815,-976 809,-976 803,-970 803,-964 803,-964 803,-888 803,-888 803,-882 809,-876 815,-876 815,-876 987,-876 987,-876 993,-876 999,-882 999,-888 999,-888 999,-964 999,-964 999,-970 993,-976 987,-976"/>
<text text-anchor="start" x="818.492" y="-962" font-family="arial" font-weight="bold" font-size="10.00" fill="#000000">Flora Similarities as Best Explanation</text>
<text text-anchor="start" x="818.191" y="-945" font-family="arial" font-size="10.00" fill="#000000">The best explanation of the existence</text>
<text text-anchor="start" x="833.484" y="-933" font-family="arial" font-size="10.00" fill="#000000"> of coal in some strata G is the</text>
<text text-anchor="start" x="821.827" y="-921" font-family="arial" font-size="10.00" fill="#000000"> similarity between G&#39;s flora and the</text>
<text text-anchor="start" x="820.7015" y="-909" font-family="arial" font-size="10.00" fill="#000000"> one of the Coal Measures (the Coal</text>
<text text-anchor="start" x="821.8065" y="-897" font-family="arial" font-size="10.00" fill="#000000"> Measures being noted for the great</text>
<text text-anchor="start" x="819.3105" y="-885" font-family="arial" font-size="10.00" fill="#000000"> amounts of coal they contain) #GRE</text>
</g>
<!-- n15&#45;&gt;n24 -->
<g id="edge23" class="edge">
<title>n15&#45;&gt;n24</title>
<path fill="none" stroke="#00ff00" d="M901,-875.7212C901,-856.7879 901,-834.8637 901,-814.3142"/>
<polygon fill="#00ff00" stroke="#00ff00" points="904.5001,-814.0375 901,-804.0375 897.5001,-814.0375 904.5001,-814.0375"/>
</g>
<!-- n16 -->
<g id="node19" class="node">
<title>n16</title>
<path fill="#ffffff" stroke="#f4a460" stroke-width="2" d="M1094,-572C1094,-572 922,-572 922,-572 916,-572 910,-566 910,-560 910,-560 910,-532 910,-532 910,-526 916,-520 922,-520 922,-520 1094,-520 1094,-520 1100,-520 1106,-526 1106,-532 1106,-532 1106,-560 1106,-560 1106,-566 1100,-572 1094,-572"/>
<text text-anchor="start" x="959.6545" y="-558" font-family="arial" font-weight="bold" font-size="10.00" fill="#000000">Ancient French Strata</text>
<text text-anchor="start" x="925.7525" y="-541" font-family="arial" font-size="10.00" fill="#000000">In the Bocage, there are pre&#45;Old Red</text>
<text text-anchor="start" x="926.03" y="-529" font-family="arial" font-size="10.00" fill="#000000"> Sandstone strata. #GRE #chron&#45;hyp</text>
</g>
<!-- n16&#45;&gt;n25 -->
<g id="edge24" class="edge">
<title>n16&#45;&gt;n25</title>
<path fill="none" stroke="#00ff00" d="M1008,-519.6373C1008,-492.8011 1008,-450.4174 1008,-416.3541"/>
<polygon fill="#00ff00" stroke="#00ff00" points="1011.5001,-416.0762 1008,-406.0762 1004.5001,-416.0763 1011.5001,-416.0762"/>
</g>
<!-- n23&#45;&gt;n2 -->
<g id="edge9" class="edge">
<title>n23&#45;&gt;n2</title>
<path fill="none" stroke="#ff0000" d="M794.0776,-311.814C796.0101,-288.029 798.276,-260.141 800.0408,-238.421"/>
<polygon fill="#ff0000" stroke="#ff0000" points="803.5418,-238.5495 800.8632,-228.2989 796.5648,-237.9826 803.5418,-238.5495"/>
</g>
<!-- n24&#45;&gt;n14 -->
<g id="edge15" class="edge">
<title>n24&#45;&gt;n14</title>
<path fill="none" stroke="#00ff00" d="M867.1445,-679.9844C850.6045,-649.6867 831.1553,-614.0602 816.4717,-587.1631"/>
<polygon fill="#00ff00" stroke="#00ff00" points="819.353,-585.1366 811.4893,-578.0364 813.2089,-588.4908 819.353,-585.1366"/>
</g>
<!-- n25&#45;&gt;n7 -->
<g id="edge11" class="edge">
<title>n25&#45;&gt;n7</title>
<path fill="none" stroke="#ff0000" d="M1010.4831,-317.8558C1011.6635,-296.8702 1013.0774,-271.7343 1014.2861,-250.2467"/>
<polygon fill="#ff0000" stroke="#ff0000" points="1017.7938,-250.2064 1014.8611,-240.0255 1010.8049,-249.8132 1017.7938,-250.2064"/>
</g>
<!-- n17 -->
<g id="node23" class="node">
<title>n17</title>
<path fill="#ffffff" stroke="#f4a460" stroke-width="2" d="M1532,-590C1532,-590 1360,-590 1360,-590 1354,-590 1348,-584 1348,-578 1348,-578 1348,-514 1348,-514 1348,-508 1354,-502 1360,-502 1360,-502 1532,-502 1532,-502 1538,-502 1544,-508 1544,-514 1544,-514 1544,-578 1544,-578 1544,-584 1538,-590 1532,-590"/>
<text text-anchor="start" x="1404.049" y="-576" font-family="arial" font-weight="bold" font-size="10.00" fill="#000000">Formation of strata</text>
<text text-anchor="start" x="1374.606" y="-559" font-family="arial" font-size="10.00" fill="#000000">Strata are originally formed from</text>
<text text-anchor="start" x="1363.4775" y="-547" font-family="arial" font-size="10.00" fill="#000000"> sediments that were deposited in flat</text>
<text text-anchor="start" x="1375.979" y="-535" font-family="arial" font-size="10.00" fill="#000000"> horizontal sheets &#45; the younger</text>
<text text-anchor="start" x="1365.6955" y="-523" font-family="arial" font-size="10.00" fill="#000000"> sediments deposited on older ones.</text>
<text text-anchor="start" x="1421.275" y="-511" font-family="arial" font-size="10.00" fill="#000000"> #GRE #pri</text>
</g>
<!-- n17&#45;&gt;n26 -->
<g id="edge25" class="edge">
<title>n17&#45;&gt;n26</title>
<path fill="none" stroke="#00ff00" d="M1446,-501.9274C1446,-476.1906 1446,-443.5111 1446,-416.2071"/>
<polygon fill="#00ff00" stroke="#00ff00" points="1449.5001,-416.0314 1446,-406.0315 1442.5001,-416.0315 1449.5001,-416.0314"/>
</g>
<!-- n27 -->
<g id="node28" class="node">
<title>n27</title>
<path fill="#f4a460" stroke="#000000" d="M1317,-406C1317,-406 1145,-406 1145,-406 1139,-406 1133,-400 1133,-394 1133,-394 1133,-330 1133,-330 1133,-324 1139,-318 1145,-318 1145,-318 1317,-318 1317,-318 1323,-318 1329,-324 1329,-330 1329,-330 1329,-394 1329,-394 1329,-400 1323,-406 1317,-406"/>
<text text-anchor="start" x="1166.817" y="-392" font-family="arial" font-weight="bold" font-size="10.00" fill="#000000">Exmoor and Devonian Strata</text>
<text text-anchor="start" x="1155.985" y="-375" font-family="arial" font-size="10.00" fill="#000000">Assuming that, originally, younger</text>
<text text-anchor="start" x="1150.1425" y="-363" font-family="arial" font-size="10.00" fill="#000000"> strata rest upon older ones, it holds:</text>
<text text-anchor="start" x="1164.3145" y="-351" font-family="arial" font-size="10.00" fill="#000000"> If the Exmoor strata is not the</text>
<text text-anchor="start" x="1156.5255" y="-339" font-family="arial" font-size="10.00" fill="#000000"> youngest, then there is no trough</text>
<text text-anchor="start" x="1177.655" y="-327" font-family="arial" font-size="10.00" fill="#000000"> through Exmoor &#160;#GRE</text>
</g>
<!-- n17&#45;&gt;n27 -->
<g id="edge26" class="edge">
<title>n17&#45;&gt;n27</title>
<path fill="none" stroke="#00ff00" d="M1394.5021,-501.9274C1363.1044,-475.0568 1322.8638,-440.6183 1290.1612,-412.631"/>
<polygon fill="#00ff00" stroke="#00ff00" points="1292.3231,-409.8744 1282.4498,-406.0315 1287.7716,-415.1927 1292.3231,-409.8744"/>
</g>
<!-- n18 -->
<g id="node24" class="node">
<title>n18</title>
<path fill="#ffffff" stroke="#f4a460" stroke-width="2" d="M1974,-578C1974,-578 1802,-578 1802,-578 1796,-578 1790,-572 1790,-566 1790,-566 1790,-526 1790,-526 1790,-520 1796,-514 1802,-514 1802,-514 1974,-514 1974,-514 1980,-514 1986,-520 1986,-526 1986,-526 1986,-566 1986,-566 1986,-572 1980,-578 1974,-578"/>
<text text-anchor="start" x="1839.944" y="-564" font-family="arial" font-weight="bold" font-size="10.00" fill="#000000">Traversing Northward</text>
<text text-anchor="start" x="1808.5345" y="-547" font-family="arial" font-size="10.00" fill="#000000">The strata south of Exmoor become</text>
<text text-anchor="start" x="1805.476" y="-535" font-family="arial" font-size="10.00" fill="#000000"> progessively younger the furhter one</text>
<text text-anchor="start" x="1801.0405" y="-523" font-family="arial" font-size="10.00" fill="#000000"> traverses northward #GRE #chron&#45;hyp</text>
</g>
<!-- n18&#45;&gt;n26 -->
<g id="edge27" class="edge">
<title>n18&#45;&gt;n26</title>
<path fill="none" stroke="#00ff00" d="M1836.2223,-513.8818C1818.7079,-503.6677 1798.8163,-492.7592 1780,-484 1706.3865,-449.7323 1620.2466,-418.4716 1553.8851,-396.1741"/>
<polygon fill="#00ff00" stroke="#00ff00" points="1554.8352,-392.8014 1544.2414,-392.95 1552.6157,-399.4402 1554.8352,-392.8014"/>
</g>
<!-- n19 -->
<g id="node25" class="node">
<title>n19</title>
<path fill="#ffffff" stroke="#f4a460" stroke-width="2" d="M1759.5,-608C1759.5,-608 1574.5,-608 1574.5,-608 1568.5,-608 1562.5,-602 1562.5,-596 1562.5,-596 1562.5,-496 1562.5,-496 1562.5,-490 1568.5,-484 1574.5,-484 1574.5,-484 1759.5,-484 1759.5,-484 1765.5,-484 1771.5,-490 1771.5,-496 1771.5,-496 1771.5,-596 1771.5,-596 1771.5,-602 1765.5,-608 1759.5,-608"/>
<text text-anchor="start" x="1587.4795" y="-594" font-family="arial" font-weight="bold" font-size="10.00" fill="#000000">Exmoor Trough as Best Explanation</text>
<text text-anchor="start" x="1594.4195" y="-577" font-family="arial" font-size="10.00" fill="#000000">Assuming that the strata south of</text>
<text text-anchor="start" x="1572.756" y="-565" font-family="arial" font-size="10.00" fill="#000000"> Exmoor become progessively younger the</text>
<text text-anchor="start" x="1586.6465" y="-553" font-family="arial" font-size="10.00" fill="#000000"> furhter one traverses northward and</text>
<text text-anchor="start" x="1590.817" y="-541" font-family="arial" font-size="10.00" fill="#000000"> that, originally, younger strata rest</text>
<text text-anchor="start" x="1588.301" y="-529" font-family="arial" font-size="10.00" fill="#000000"> upon older ones, the existence of a</text>
<text text-anchor="start" x="1586.367" y="-517" font-family="arial" font-size="10.00" fill="#000000"> trough running trough Exmoor is the</text>
<text text-anchor="start" x="1589.137" y="-505" font-family="arial" font-size="10.00" fill="#000000"> best explanation of the strata north</text>
<text text-anchor="start" x="1588.5905" y="-493" font-family="arial" font-size="10.00" fill="#000000"> of Exmoor being older &#160;#GRE #aux</text>
</g>
<!-- n19&#45;&gt;n26 -->
<g id="edge28" class="edge">
<title>n19&#45;&gt;n26</title>
<path fill="none" stroke="#00ff00" d="M1592.4876,-483.9625C1564.5449,-460.6981 1533.1558,-434.5641 1506.6223,-412.4729"/>
<polygon fill="#00ff00" stroke="#00ff00" points="1508.8392,-409.7644 1498.9147,-406.0557 1504.3603,-415.1439 1508.8392,-409.7644"/>
</g>
<!-- n20 -->
<g id="node26" class="node">
<title>n20</title>
<path fill="#ffffff" stroke="#f4a460" stroke-width="2" d="M1318,-584C1318,-584 1142,-584 1142,-584 1136,-584 1130,-578 1130,-572 1130,-572 1130,-520 1130,-520 1130,-514 1136,-508 1142,-508 1142,-508 1318,-508 1318,-508 1324,-508 1330,-514 1330,-520 1330,-520 1330,-572 1330,-572 1330,-578 1324,-584 1318,-584"/>
<text text-anchor="start" x="1153.8685" y="-570" font-family="arial" font-weight="bold" font-size="10.00" fill="#000000">Exmoor Youngest Devonian strata</text>
<text text-anchor="start" x="1150.812" y="-553" font-family="arial" font-size="10.00" fill="#000000">In Devon, among all the strata older</text>
<text text-anchor="start" x="1139.6885" y="-541" font-family="arial" font-size="10.00" fill="#000000"> than the New Red Sandstone, the strata</text>
<text text-anchor="start" x="1152.1995" y="-529" font-family="arial" font-size="10.00" fill="#000000"> of Exmoor are the youngest #GRE</text>
<text text-anchor="start" x="1203.6045" y="-517" font-family="arial" font-size="10.00" fill="#000000"> #chron&#45;hyp</text>
</g>
<!-- n20&#45;&gt;n27 -->
<g id="edge12" class="edge">
<title>n20&#45;&gt;n27</title>
<path fill="none" stroke="#ff0000" d="M1230.2072,-507.8751C1230.351,-481.4158 1230.5447,-445.7769 1230.7046,-416.3491"/>
<polygon fill="#ff0000" stroke="#ff0000" points="1234.2052,-416.2433 1230.7597,-406.2244 1227.2053,-416.2052 1234.2052,-416.2433"/>
</g>
<!-- n26&#45;&gt;n4 -->
<g id="edge16" class="edge">
<title>n26&#45;&gt;n4</title>
<path fill="none" stroke="#00ff00" d="M1386.6812,-317.8558C1356.6874,-295.5348 1320.3841,-268.5184 1290.3815,-246.1909"/>
<polygon fill="#00ff00" stroke="#00ff00" points="1292.2087,-243.1879 1282.0968,-240.0255 1288.0296,-248.8035 1292.2087,-243.1879"/>
</g>
<!-- n27&#45;&gt;n4 -->
<g id="edge13" class="edge">
<title>n27&#45;&gt;n4</title>
<path fill="none" stroke="#ff0000" d="M1231,-317.8558C1231,-296.8702 1231,-271.7343 1231,-250.2467"/>
<polygon fill="#ff0000" stroke="#ff0000" points="1234.5001,-250.0255 1231,-240.0255 1227.5001,-250.0256 1234.5001,-250.0255"/>
</g>
</g>
</svg>
