
<!-- Generated by graphviz version 2.40.1 (20161225.0304)
 -->
<!-- Title: Argument Map Pages: 1 -->
<svg width="720pt" height="324pt"
 viewBox="0.00 0.00 720.00 323.76" xmlns="http://www.w3.org/2000/svg" xmlns:xlink="http://www.w3.org/1999/xlink">
<g id="graph0" class="graph" transform="scale(.3204 .3204) rotate(0) translate(4 1006.4)">
<title>Argument Map</title>
<g id="clust1" class="cluster">
<title>cluster_1</title>
<polygon fill="#ffff00" stroke="#ffff00" points="234,-690 234,-792.4 450,-792.4 450,-690 234,-690"/>
<text text-anchor="start" x="295.3272" y="-777.6" font-family="arial" font-size="12.00" fill="#000000">Rival Hypotheses</text>
</g>
<g id="clust5" class="cluster">
<title>cluster_5</title>
<polygon fill="#c6e2ff" stroke="#c6e2ff" points="1117,-678 1117,-976.4 1547,-976.4 1547,-678 1117,-678"/>
<text text-anchor="start" x="1248.3132" y="-961.6" font-family="arial" font-size="12.00" fill="#000000">Aporia I : Coal in Ancient Strata</text>
</g>
<g id="clust3" class="cluster">
<title>cluster_3</title>
<polygon fill="#f0ffff" stroke="#f0ffff" points="8,-512 8,-804.4 226,-804.4 226,-512 8,-512"/>
<text text-anchor="start" x="60.6408" y="-789.6" font-family="arial" font-size="12.00" fill="#000000">Gap in the Sequence</text>
</g>
<g id="clust6" class="cluster">
<title>cluster_6</title>
<polygon fill="#9fb6cd" stroke="#9fb6cd" points="675,-328 675,-994.4 1109,-994.4 1109,-328 675,-328"/>
<text text-anchor="start" x="791.3122" y="-979.6" font-family="arial" font-size="12.00" fill="#000000">Aporia II : CM Plants in Ancient Strata</text>
</g>
<g id="clust7" class="cluster">
<title>cluster_7</title>
<polygon fill="#e6e6fa" stroke="#e6e6fa" points="1359,-156 1359,-478.4 2231,-478.4 2231,-156 1359,-156"/>
<text text-anchor="start" x="1724.9752" y="-463.6" font-family="arial" font-size="12.00" fill="#000000">Youngest Devonian Strata</text>
</g>
<g id="clust2" class="cluster">
<title>cluster_2</title>
<polygon fill="#ffff00" stroke="#ffff00" points="37,-8 37,-276.4 1319,-276.4 1319,-8 37,-8"/>
<text text-anchor="start" x="653.3256" y="-261.6" font-family="arial" font-size="12.00" fill="#000000">Evidence</text>
</g>
<g id="clust4" class="cluster">
<title>cluster_4</title>
<polygon fill="#bfefff" stroke="#bfefff" points="234,-352 234,-614.4 667,-614.4 667,-352 234,-352"/>
<text text-anchor="start" x="400.8248" y="-599.6" font-family="arial" font-size="12.00" fill="#000000">Dating of the Culm</text>
</g>
<!-- n0 -->
<g id="node1" class="node">
<title>n0</title>
<path fill="#ffffff" stroke="#f4a460" stroke-width="2" d="M430,-762C430,-762 254,-762 254,-762 248,-762 242,-756 242,-750 242,-750 242,-710 242,-710 242,-704 248,-698 254,-698 254,-698 430,-698 430,-698 436,-698 442,-704 442,-710 442,-710 442,-750 442,-750 442,-756 436,-762 430,-762"/>
<text text-anchor="start" x="286.99" y="-748" font-family="arial" font-weight="bold" font-size="10.00" fill="#000000">Devonian Strata as CAM</text>
<text text-anchor="start" x="265.3125" y="-731" font-family="arial" font-size="10.00" fill="#000000">In Devon, all the strata &#45; older than</text>
<text text-anchor="start" x="251.703" y="-719" font-family="arial" font-size="10.00" fill="#000000"> the New Red Sandstone &#45; are Cambrian</text>
<text text-anchor="start" x="285.5955" y="-707" font-family="arial" font-size="10.00" fill="#000000"> in age #GRE #chron&#45;hyp</text>
</g>
<!-- n23 -->
<g id="node12" class="node">
<title>n23</title>
<path fill="#f4a460" stroke="#000000" d="M206,-596C206,-596 34,-596 34,-596 28,-596 22,-590 22,-584 22,-584 22,-532 22,-532 22,-526 28,-520 34,-520 34,-520 206,-520 206,-520 212,-520 218,-526 218,-532 218,-532 218,-584 218,-584 218,-590 212,-596 206,-596"/>
<text text-anchor="start" x="52.202" y="-582" font-family="arial" font-weight="bold" font-size="10.00" fill="#000000">Unbroken Sequence &#45; GRE.1a</text>
<text text-anchor="start" x="56.095" y="-565" font-family="arial" font-size="10.00" fill="#000000">If, in Devon, all the strata are</text>
<text text-anchor="start" x="35.5295" y="-553" font-family="arial" font-size="10.00" fill="#000000"> Cambrian in age, i.e. belonging to the</text>
<text text-anchor="start" x="36.9225" y="-541" font-family="arial" font-size="10.00" fill="#000000"> same geological period, then there is</text>
<text text-anchor="start" x="38.581" y="-529" font-family="arial" font-size="10.00" fill="#000000"> no gap in the local sequence. #GRE</text>
</g>
<!-- n0&#45;&gt;n23 -->
<g id="edge19" class="edge">
<title>n0&#45;&gt;n23</title>
<path fill="none" stroke="#00ff00" d="M300.5039,-697.8499C265.8234,-670.9803 215.9963,-632.3755 177.4757,-602.5308"/>
<polygon fill="#00ff00" stroke="#00ff00" points="179.4857,-599.6604 169.437,-596.3026 175.1984,-605.194 179.4857,-599.6604"/>
</g>
<!-- n11 -->
<g id="node13" class="node">
<title>n11</title>
<path fill="#ffffff" stroke="#f4a460" stroke-width="2" d="M538.5,-584C538.5,-584 361.5,-584 361.5,-584 355.5,-584 349.5,-578 349.5,-572 349.5,-572 349.5,-544 349.5,-544 349.5,-538 355.5,-532 361.5,-532 361.5,-532 538.5,-532 538.5,-532 544.5,-532 550.5,-538 550.5,-544 550.5,-544 550.5,-572 550.5,-572 550.5,-578 544.5,-584 538.5,-584"/>
<text text-anchor="start" x="419.67" y="-570" font-family="arial" font-weight="bold" font-size="10.00" fill="#000000">Culm as CAM</text>
<text text-anchor="start" x="359.653" y="-553" font-family="arial" font-size="10.00" fill="#000000">The whole Culm strata of Devonshire are</text>
<text text-anchor="start" x="371.04" y="-541" font-family="arial" font-size="10.00" fill="#000000"> Cambrian in age #GRE #chron&#45;hyp</text>
</g>
<!-- n0&#45;&gt;n11 -->
<g id="edge5" class="edge">
<title>n0&#45;&gt;n11</title>
<path fill="none" stroke="#00ff00" d="M362.314,-697.6481C381.1114,-667.7115 408.9761,-623.3343 428.2259,-592.6773"/>
<polygon fill="#00ff00" stroke="#00ff00" points="431.304,-594.3569 433.6576,-584.0268 425.3758,-590.6345 431.304,-594.3569"/>
</g>
<!-- n1 -->
<g id="node2" class="node">
<title>n1</title>
<path fill="#ffffff" stroke="#66a61e" stroke-width="2" d="M229,-240C229,-240 57,-240 57,-240 51,-240 45,-234 45,-228 45,-228 45,-188 45,-188 45,-182 51,-176 57,-176 57,-176 229,-176 229,-176 235,-176 241,-182 241,-188 241,-188 241,-228 241,-228 241,-234 235,-240 229,-240"/>
<text text-anchor="start" x="61.305" y="-226" font-family="arial" font-weight="bold" font-size="10.00" fill="#000000">Unbroken Sequence of Devon Strata</text>
<text text-anchor="start" x="66.3125" y="-209" font-family="arial" font-size="10.00" fill="#000000">In Devon, all the strata &#45; older than</text>
<text text-anchor="start" x="66.0355" y="-197" font-family="arial" font-size="10.00" fill="#000000"> the New Red Sandstone &#45; form an</text>
<text text-anchor="start" x="58.5205" y="-185" font-family="arial" font-size="10.00" fill="#000000"> unbroken sequence of strata #ev #E1</text>
</g>
<!-- n6 -->
<g id="node7" class="node">
<title>n6</title>
<path fill="#ffffff" stroke="#66a61e" stroke-width="2" d="M229,-92C229,-92 57,-92 57,-92 51,-92 45,-86 45,-80 45,-80 45,-28 45,-28 45,-22 51,-16 57,-16 57,-16 229,-16 229,-16 235,-16 241,-22 241,-28 241,-28 241,-80 241,-80 241,-86 235,-92 229,-92"/>
<text text-anchor="start" x="92.439" y="-78" font-family="arial" font-weight="bold" font-size="10.00" fill="#000000">Unconformity in Devon</text>
<text text-anchor="start" x="68.2545" y="-61" font-family="arial" font-size="10.00" fill="#000000">Between the Devon Culm and the</text>
<text text-anchor="start" x="66.866" y="-49" font-family="arial" font-size="10.00" fill="#000000"> juxtaposed strata, there is at least</text>
<text text-anchor="start" x="72.9895" y="-37" font-family="arial" font-size="10.00" fill="#000000"> one formation missing from the</text>
<text text-anchor="start" x="79.361" y="-25" font-family="arial" font-size="10.00" fill="#000000"> standard sequence #ev #E6</text>
</g>
<!-- n1&#45;&gt;n6 -->
<g id="edge2" class="edge">
<title>n1&#45;&gt;n6</title>
<path fill="none" stroke="#ff0000" d="M137.3855,-175.7166C136.1634,-154.5117 135.9278,-126.3828 136.6787,-102.5083"/>
<polygon fill="#ff0000" stroke="#ff0000" points="140.1873,-102.353 137.0769,-92.2251 133.1925,-102.0821 140.1873,-102.353"/>
</g>
<!-- n2 -->
<g id="node3" class="node">
<title>n2</title>
<path fill="#ffffff" stroke="#66a61e" stroke-width="2" d="M871,-234C871,-234 699,-234 699,-234 693,-234 687,-228 687,-222 687,-222 687,-194 687,-194 687,-188 693,-182 699,-182 699,-182 871,-182 871,-182 877,-182 883,-188 883,-194 883,-194 883,-222 883,-222 883,-228 877,-234 871,-234"/>
<text text-anchor="start" x="727.7755" y="-220" font-family="arial" font-weight="bold" font-size="10.00" fill="#000000">CM Plants in Devon Culm</text>
<text text-anchor="start" x="699.1475" y="-203" font-family="arial" font-size="10.00" fill="#000000">In Devon, the Culm strata contain Coal</text>
<text text-anchor="start" x="714.4275" y="-191" font-family="arial" font-size="10.00" fill="#000000"> Measures fossil plants #ev #E2</text>
</g>
<!-- n3 -->
<g id="node4" class="node">
<title>n3</title>
<path fill="#ffffff" stroke="#66a61e" stroke-width="2" d="M1299,-234C1299,-234 1127,-234 1127,-234 1121,-234 1115,-228 1115,-222 1115,-222 1115,-194 1115,-194 1115,-188 1121,-182 1127,-182 1127,-182 1299,-182 1299,-182 1305,-182 1311,-188 1311,-194 1311,-194 1311,-222 1311,-222 1311,-228 1305,-234 1299,-234"/>
<text text-anchor="start" x="1176.607" y="-220" font-family="arial" font-weight="bold" font-size="10.00" fill="#000000">North of Exmoor</text>
<text text-anchor="start" x="1126.871" y="-203" font-family="arial" font-size="10.00" fill="#000000">Passing Exmoor northwards, the strata</text>
<text text-anchor="start" x="1161.5945" y="-191" font-family="arial" font-size="10.00" fill="#000000"> become older #ev #E3</text>
</g>
<!-- n28 -->
<g id="node29" class="node">
<title>n28</title>
<path fill="#f4a460" stroke="#000000" d="M1769,-252C1769,-252 1597,-252 1597,-252 1591,-252 1585,-246 1585,-240 1585,-240 1585,-176 1585,-176 1585,-170 1591,-164 1597,-164 1597,-164 1769,-164 1769,-164 1775,-164 1781,-170 1781,-176 1781,-176 1781,-240 1781,-240 1781,-246 1775,-252 1769,-252"/>
<text text-anchor="start" x="1607.9845" y="-238" font-family="arial" font-weight="bold" font-size="10.00" fill="#000000">Trough through Exmoor &#45; GRE.1a</text>
<text text-anchor="start" x="1606.0265" y="-221" font-family="arial" font-size="10.00" fill="#000000">If the existence of a trough running</text>
<text text-anchor="start" x="1597.697" y="-209" font-family="arial" font-size="10.00" fill="#000000"> trough Exmoor is the best explanation</text>
<text text-anchor="start" x="1597.417" y="-197" font-family="arial" font-size="10.00" fill="#000000"> of the Exmoor strata being juxtaposed</text>
<text text-anchor="start" x="1605.4815" y="-185" font-family="arial" font-size="10.00" fill="#000000"> solely by older strata, then there is</text>
<text text-anchor="start" x="1609.9245" y="-173" font-family="arial" font-size="10.00" fill="#000000"> a trough through Exmoor &#160;#GRE</text>
</g>
<!-- n3&#45;&gt;n28 -->
<g id="edge20" class="edge">
<title>n3&#45;&gt;n28</title>
<path fill="none" stroke="#00ff00" d="M1244.1253,-234.1494C1273.0694,-256.6323 1318.4633,-287.3967 1364,-300.2 1449.9988,-324.3797 1480.5343,-329.2859 1565,-300.2 1589.956,-291.6063 1613.6763,-275.3282 1633.216,-258.8122"/>
<polygon fill="#00ff00" stroke="#00ff00" points="1635.5229,-261.4444 1640.7695,-252.2398 1630.928,-256.1636 1635.5229,-261.4444"/>
</g>
<!-- n4 -->
<g id="node5" class="node">
<title>n4</title>
<path fill="#ffffff" stroke="#66a61e" stroke-width="2" d="M1299,-92C1299,-92 1127,-92 1127,-92 1121,-92 1115,-86 1115,-80 1115,-80 1115,-28 1115,-28 1115,-22 1121,-16 1127,-16 1127,-16 1299,-16 1299,-16 1305,-16 1311,-22 1311,-28 1311,-28 1311,-80 1311,-80 1311,-86 1305,-92 1299,-92"/>
<text text-anchor="start" x="1160.21" y="-78" font-family="arial" font-weight="bold" font-size="10.00" fill="#000000">Trough through Exmoor</text>
<text text-anchor="start" x="1135.206" y="-61" font-family="arial" font-size="10.00" fill="#000000">There is a trough through Exmoor &#45;</text>
<text text-anchor="start" x="1126.308" y="-49" font-family="arial" font-size="10.00" fill="#000000"> formed by a band of limestone running</text>
<text text-anchor="start" x="1134.362" y="-37" font-family="arial" font-size="10.00" fill="#000000"> out to the north coast at Ilfracombe</text>
<text text-anchor="start" x="1139.0795" y="-25" font-family="arial" font-size="10.00" fill="#000000"> and south of Barnstaple #ev #E4</text>
</g>
<!-- n5 -->
<g id="node6" class="node">
<title>n5</title>
<path fill="#ffffff" stroke="#66a61e" stroke-width="2" d="M766,-86C766,-86 590,-86 590,-86 584,-86 578,-80 578,-74 578,-74 578,-34 578,-34 578,-28 584,-22 590,-22 590,-22 766,-22 766,-22 772,-22 778,-28 778,-34 778,-34 778,-74 778,-74 778,-80 772,-86 766,-86"/>
<text text-anchor="start" x="601.3105" y="-72" font-family="arial" font-weight="bold" font-size="10.00" fill="#000000">Instances of Coal in Ancient Strata</text>
<text text-anchor="start" x="587.9725" y="-55" font-family="arial" font-size="10.00" fill="#000000">In Munster and Pennsylvannia, there are</text>
<text text-anchor="start" x="588.2525" y="-43" font-family="arial" font-size="10.00" fill="#000000"> coal deposits in pre&#45;Old Red Sandstone</text>
<text text-anchor="start" x="644.3765" y="-31" font-family="arial" font-size="10.00" fill="#000000"> strata #ev #E5</text>
</g>
<!-- n6&#45;&gt;n1 -->
<g id="edge1" class="edge">
<title>n6&#45;&gt;n1</title>
<path fill="none" stroke="#ff0000" d="M148.9231,-92.2251C149.9614,-114.4953 150.0219,-142.6212 149.1047,-165.5742"/>
<polygon fill="#ff0000" stroke="#ff0000" points="145.6014,-165.5592 148.6145,-175.7166 152.5932,-165.8972 145.6014,-165.5592"/>
</g>
<!-- n7 -->
<g id="node8" class="node">
<title>n7</title>
<path fill="#ffffff" stroke="#66a61e" stroke-width="2" d="M1085,-246C1085,-246 913,-246 913,-246 907,-246 901,-240 901,-234 901,-234 901,-182 901,-182 901,-176 907,-170 913,-170 913,-170 1085,-170 1085,-170 1091,-170 1097,-176 1097,-182 1097,-182 1097,-234 1097,-234 1097,-240 1091,-246 1085,-246"/>
<text text-anchor="start" x="920.9305" y="-232" font-family="arial" font-weight="bold" font-size="10.00" fill="#000000">CM Plants in Ancient French Strata</text>
<text text-anchor="start" x="924.53" y="-215" font-family="arial" font-size="10.00" fill="#000000">In the Bocage, the limestones are</text>
<text text-anchor="start" x="920.361" y="-203" font-family="arial" font-size="10.00" fill="#000000"> pre&#45;Old Red Sandstone in age and</text>
<text text-anchor="start" x="920.099" y="-191" font-family="arial" font-size="10.00" fill="#000000"> contain some Coal Measures fossil</text>
<text text-anchor="start" x="964.5415" y="-179" font-family="arial" font-size="10.00" fill="#000000"> plants #ev #E7</text>
</g>
<!-- n8 -->
<g id="node9" class="node">
<title>n8</title>
<path fill="#ffffff" stroke="#66a61e" stroke-width="2" d="M443,-246C443,-246 271,-246 271,-246 265,-246 259,-240 259,-234 259,-234 259,-182 259,-182 259,-176 265,-170 271,-170 271,-170 443,-170 443,-170 449,-170 455,-176 455,-182 455,-182 455,-234 455,-234 455,-240 449,-246 443,-246"/>
<text text-anchor="start" x="287.823" y="-232" font-family="arial" font-weight="bold" font-size="10.00" fill="#000000">Munster Coal as Carboniferous</text>
<text text-anchor="start" x="280.5905" y="-215" font-family="arial" font-size="10.00" fill="#000000">In Munster, the limestone and coal</text>
<text text-anchor="start" x="274.2065" y="-203" font-family="arial" font-size="10.00" fill="#000000"> seams are pre&#45;Carboniferous in age,</text>
<text text-anchor="start" x="279.7615" y="-191" font-family="arial" font-size="10.00" fill="#000000"> i.e there are no coal seams in pre&#45;</text>
<text text-anchor="start" x="278.36" y="-179" font-family="arial" font-size="10.00" fill="#000000"> Old Red Sandstone strata #ev #E8</text>
</g>
<!-- n8&#45;&gt;n5 -->
<g id="edge3" class="edge">
<title>n8&#45;&gt;n5</title>
<path fill="none" stroke="#ff0000" d="M435.2732,-169.8761C444.9426,-165.1914 454.6947,-160.4786 464,-156 509.5106,-134.0957 560.5647,-109.7528 601.3893,-90.3428"/>
<polygon fill="#ff0000" stroke="#ff0000" points="602.9406,-93.4807 610.4697,-86.0266 599.9355,-87.1586 602.9406,-93.4807"/>
</g>
<!-- n9 -->
<g id="node10" class="node">
<title>n9</title>
<path fill="#ffffff" stroke="#66a61e" stroke-width="2" d="M657,-244C657,-244 485,-244 485,-244 479,-244 473,-238 473,-232 473,-232 473,-184 473,-184 473,-178 479,-172 485,-172 485,-172 657,-172 657,-172 663,-172 669,-178 669,-184 669,-184 669,-232 669,-232 669,-238 663,-244 657,-244"/>
<text text-anchor="start" x="487.651" y="-230" font-family="arial" font-weight="bold" font-size="10.00" fill="#000000">Distinct Limestones at Ilfracombe and</text>
<text text-anchor="start" x="545.715" y="-220" font-family="arial" font-weight="bold" font-size="10.00" fill="#000000"> Barnstaple</text>
<text text-anchor="start" x="491.2565" y="-205" font-family="arial" font-size="10.00" fill="#000000">The limestone at Ilfracombe and the</text>
<text text-anchor="start" x="495.1455" y="-193" font-family="arial" font-size="10.00" fill="#000000"> limestone south of Barnstaple are</text>
<text text-anchor="start" x="531.5425" y="-181" font-family="arial" font-size="10.00" fill="#000000"> distinct #ev #E10</text>
</g>
<!-- n9&#45;&gt;n4 -->
<g id="edge4" class="edge">
<title>n9&#45;&gt;n4</title>
<path fill="none" stroke="#ff0000" d="M638.3726,-171.9472C651.2777,-165.9967 664.866,-160.358 678,-156 821.8116,-108.2814 995.2118,-80.3363 1104.8074,-66.1073"/>
<polygon fill="#ff0000" stroke="#ff0000" points="1105.4091,-69.5588 1114.8823,-64.8146 1104.5181,-62.6158 1105.4091,-69.5588"/>
</g>
<!-- n10 -->
<g id="node11" class="node">
<title>n10</title>
<path fill="#ffffff" stroke="#f4a460" stroke-width="2" d="M205.5,-774C205.5,-774 28.5,-774 28.5,-774 22.5,-774 16.5,-768 16.5,-762 16.5,-762 16.5,-698 16.5,-698 16.5,-692 22.5,-686 28.5,-686 28.5,-686 205.5,-686 205.5,-686 211.5,-686 217.5,-692 217.5,-698 217.5,-698 217.5,-762 217.5,-762 217.5,-768 211.5,-774 205.5,-774"/>
<text text-anchor="start" x="54.418" y="-760" font-family="arial" font-weight="bold" font-size="10.00" fill="#000000">Gap in a Sequence of Strata</text>
<text text-anchor="start" x="35.8065" y="-743" font-family="arial" font-size="10.00" fill="#000000">There is a gap in a local sequence of</text>
<text text-anchor="start" x="61.6535" y="-731" font-family="arial" font-size="10.00" fill="#000000"> strata, iff there are strata</text>
<text text-anchor="start" x="35.523" y="-719" font-family="arial" font-size="10.00" fill="#000000"> juxtaposed belonging to different but</text>
<text text-anchor="start" x="26.6455" y="-707" font-family="arial" font-size="10.00" fill="#000000"> not successive geological periods #GRE</text>
<text text-anchor="start" x="107.7775" y="-695" font-family="arial" font-size="10.00" fill="#000000"> #pri</text>
</g>
<!-- n10&#45;&gt;n23 -->
<g id="edge21" class="edge">
<title>n10&#45;&gt;n23</title>
<path fill="none" stroke="#00ff00" d="M117.7726,-685.7057C118.1964,-661.4065 118.7225,-631.2462 119.1569,-606.3382"/>
<polygon fill="#00ff00" stroke="#00ff00" points="122.6619,-606.0769 119.3369,-596.0173 115.663,-605.9548 122.6619,-606.0769"/>
</g>
<!-- n23&#45;&gt;n1 -->
<g id="edge16" class="edge">
<title>n23&#45;&gt;n1</title>
<path fill="none" stroke="#00ff00" d="M122.5052,-519.8776C126.8352,-453.9857 135.6885,-319.2626 140.2091,-250.4706"/>
<polygon fill="#00ff00" stroke="#00ff00" points="143.7065,-250.6238 140.8698,-240.4158 136.7215,-250.1648 143.7065,-250.6238"/>
</g>
<!-- n12 -->
<g id="node14" class="node">
<title>n12</title>
<path fill="#ffffff" stroke="#f4a460" stroke-width="2" d="M427.5,-412C427.5,-412 254.5,-412 254.5,-412 248.5,-412 242.5,-406 242.5,-400 242.5,-400 242.5,-372 242.5,-372 242.5,-366 248.5,-360 254.5,-360 254.5,-360 427.5,-360 427.5,-360 433.5,-360 439.5,-366 439.5,-372 439.5,-372 439.5,-400 439.5,-400 439.5,-406 433.5,-412 427.5,-412"/>
<text text-anchor="start" x="274.5485" y="-398" font-family="arial" font-weight="bold" font-size="10.00" fill="#000000">Main part of the Culm as CAM</text>
<text text-anchor="start" x="252.8785" y="-381" font-family="arial" font-size="10.00" fill="#000000">Then main part of the Culm is Cambrian</text>
<text text-anchor="start" x="285.0955" y="-369" font-family="arial" font-size="10.00" fill="#000000"> in age #GRE #chron&#45;hyp</text>
</g>
<!-- n11&#45;&gt;n12 -->
<g id="edge6" class="edge">
<title>n11&#45;&gt;n12</title>
<path fill="none" stroke="#00ff00" d="M433.4452,-531.8769C414.6643,-502.241 383.9486,-453.7721 363.1246,-420.9122"/>
<polygon fill="#00ff00" stroke="#00ff00" points="365.8409,-418.6598 357.5316,-412.0866 359.9282,-422.4068 365.8409,-418.6598"/>
</g>
<!-- n13 -->
<g id="node15" class="node">
<title>n13</title>
<path fill="#ffffff" stroke="#f4a460" stroke-width="2" d="M646.5,-412C646.5,-412 469.5,-412 469.5,-412 463.5,-412 457.5,-406 457.5,-400 457.5,-400 457.5,-372 457.5,-372 457.5,-366 463.5,-360 469.5,-360 469.5,-360 646.5,-360 646.5,-360 652.5,-360 658.5,-366 658.5,-372 658.5,-372 658.5,-400 658.5,-400 658.5,-406 652.5,-412 646.5,-412"/>
<text text-anchor="start" x="489.6065" y="-398" font-family="arial" font-weight="bold" font-size="10.00" fill="#000000">Black Culm Limestone as CAM</text>
<text text-anchor="start" x="467.6625" y="-381" font-family="arial" font-size="10.00" fill="#000000">The black Culm limestone is Cambrian in</text>
<text text-anchor="start" x="507.374" y="-369" font-family="arial" font-size="10.00" fill="#000000"> age #GRE #chron&#45;hyp</text>
</g>
<!-- n11&#45;&gt;n13 -->
<g id="edge7" class="edge">
<title>n11&#45;&gt;n13</title>
<path fill="none" stroke="#00ff00" d="M466.4029,-531.8769C485.0115,-502.241 515.4454,-453.7721 536.0784,-420.9122"/>
<polygon fill="#00ff00" stroke="#00ff00" points="539.2664,-422.4167 541.62,-412.0866 533.3382,-418.6943 539.2664,-422.4167"/>
</g>
<!-- n25 -->
<g id="node22" class="node">
<title>n25</title>
<path fill="#f4a460" stroke="#000000" d="M875,-436C875,-436 695,-436 695,-436 689,-436 683,-430 683,-424 683,-424 683,-348 683,-348 683,-342 689,-336 695,-336 695,-336 875,-336 875,-336 881,-336 887,-342 887,-348 887,-348 887,-424 887,-424 887,-430 881,-436 875,-436"/>
<text text-anchor="start" x="739.1635" y="-422" font-family="arial" font-weight="bold" font-size="10.00" fill="#000000">Culm and CM Plants</text>
<text text-anchor="start" x="704.432" y="-405" font-family="arial" font-size="10.00" fill="#000000">If the Devon Culm strata are pre&#45;Old</text>
<text text-anchor="start" x="696.0735" y="-393" font-family="arial" font-size="10.00" fill="#000000"> Red Sandstone in age and there are no</text>
<text text-anchor="start" x="701.3765" y="-381" font-family="arial" font-size="10.00" fill="#000000"> Coal Measures plants in pre&#45;Old Red</text>
<text text-anchor="start" x="704.967" y="-369" font-family="arial" font-size="10.00" fill="#000000"> Sandstone strata, then there are no</text>
<text text-anchor="start" x="692.7625" y="-357" font-family="arial" font-size="10.00" fill="#000000"> Coal Measures plants in the Devon Culm</text>
<text text-anchor="start" x="754.716" y="-345" font-family="arial" font-size="10.00" fill="#000000"> strata &#160;#GRE</text>
</g>
<!-- n11&#45;&gt;n25 -->
<g id="edge22" class="edge">
<title>n11&#45;&gt;n25</title>
<path fill="none" stroke="#00ff00" d="M543.6174,-531.9823C584.1512,-518.7931 631.303,-500.7835 671,-478.4 688.9267,-468.2919 706.8911,-455.3625 723.0844,-442.3988"/>
<polygon fill="#00ff00" stroke="#00ff00" points="725.3419,-445.0742 730.8837,-436.0443 720.9203,-439.6474 725.3419,-445.0742"/>
</g>
<!-- n14 -->
<g id="node16" class="node">
<title>n14</title>
<path fill="#ffffff" stroke="#f4a460" stroke-width="2" d="M1309,-940C1309,-940 1137,-940 1137,-940 1131,-940 1125,-934 1125,-928 1125,-928 1125,-900 1125,-900 1125,-894 1131,-888 1137,-888 1137,-888 1309,-888 1309,-888 1315,-888 1321,-894 1321,-900 1321,-900 1321,-928 1321,-928 1321,-934 1315,-940 1309,-940"/>
<text text-anchor="start" x="1174.6555" y="-926" font-family="arial" font-weight="bold" font-size="10.00" fill="#000000">Coal in Ancient Strata</text>
<text text-anchor="start" x="1136.8725" y="-909" font-family="arial" font-size="10.00" fill="#000000">There are coal deposits in pre&#45;Old Red</text>
<text text-anchor="start" x="1159.0925" y="-897" font-family="arial" font-size="10.00" fill="#000000"> Sandstone strata #GRE #pri</text>
</g>
<!-- n24 -->
<g id="node18" class="node">
<title>n24</title>
<path fill="#f4a460" stroke="#000000" d="M1425,-774C1425,-774 1253,-774 1253,-774 1247,-774 1241,-768 1241,-762 1241,-762 1241,-698 1241,-698 1241,-692 1247,-686 1253,-686 1253,-686 1425,-686 1425,-686 1431,-686 1437,-692 1437,-698 1437,-698 1437,-762 1437,-762 1437,-768 1431,-774 1425,-774"/>
<text text-anchor="start" x="1290.6555" y="-760" font-family="arial" font-weight="bold" font-size="10.00" fill="#000000">Coal in Ancient Strata</text>
<text text-anchor="start" x="1272.0345" y="-743" font-family="arial" font-size="10.00" fill="#000000">If there are no coal deposits in</text>
<text text-anchor="start" x="1258.1415" y="-731" font-family="arial" font-size="10.00" fill="#000000"> Pre&#45;Old Red Sandstone strata, then</text>
<text text-anchor="start" x="1266.4755" y="-719" font-family="arial" font-size="10.00" fill="#000000"> there are no coal deposits in the</text>
<text text-anchor="start" x="1265.645" y="-707" font-family="arial" font-size="10.00" fill="#000000"> pre&#45;Old Red Sandstone strata of</text>
<text text-anchor="start" x="1260.9235" y="-695" font-family="arial" font-size="10.00" fill="#000000"> Munster and Pennsylvannia #GRE</text>
</g>
<!-- n14&#45;&gt;n24 -->
<g id="edge8" class="edge">
<title>n14&#45;&gt;n24</title>
<path fill="none" stroke="#ff0000" d="M1239.62,-887.6373C1256.8302,-860.3384 1284.1829,-816.9512 1305.8393,-782.5997"/>
<polygon fill="#ff0000" stroke="#ff0000" points="1308.8405,-784.4021 1311.2128,-774.0762 1302.919,-780.6689 1308.8405,-784.4021"/>
</g>
<!-- n26 -->
<g id="node23" class="node">
<title>n26</title>
<path fill="#f4a460" stroke="#000000" d="M982,-792C982,-792 810,-792 810,-792 804,-792 798,-786 798,-780 798,-780 798,-680 798,-680 798,-674 804,-668 810,-668 810,-668 982,-668 982,-668 988,-668 994,-674 994,-680 994,-680 994,-780 994,-780 994,-786 988,-792 982,-792"/>
<text text-anchor="start" x="851.5485" y="-778" font-family="arial" font-weight="bold" font-size="10.00" fill="#000000">Coal and CM Plants</text>
<text text-anchor="start" x="816.263" y="-761" font-family="arial" font-size="10.00" fill="#000000">If the similarity between the floras of</text>
<text text-anchor="start" x="814.316" y="-749" font-family="arial" font-size="10.00" fill="#000000"> the Coal Measures and pre&#45;Old Red</text>
<text text-anchor="start" x="821.8095" y="-737" font-family="arial" font-size="10.00" fill="#000000"> Sandstone formations is the best</text>
<text text-anchor="start" x="814.8615" y="-725" font-family="arial" font-size="10.00" fill="#000000"> explanation for the existence of coal</text>
<text text-anchor="start" x="814.3105" y="-713" font-family="arial" font-size="10.00" fill="#000000"> deposists in pre&#45;Old Red Sandstone</text>
<text text-anchor="start" x="813.202" y="-701" font-family="arial" font-size="10.00" fill="#000000"> strata, then there are Coal Measures</text>
<text text-anchor="start" x="822.09" y="-689" font-family="arial" font-size="10.00" fill="#000000"> plants in pre&#45;Old Red Sandstone</text>
<text text-anchor="start" x="865.716" y="-677" font-family="arial" font-size="10.00" fill="#000000"> strata. #GRE</text>
</g>
<!-- n14&#45;&gt;n26 -->
<g id="edge23" class="edge">
<title>n14&#45;&gt;n26</title>
<path fill="none" stroke="#00ff00" d="M1176.4961,-887.8327C1131.5482,-862.5409 1061.8271,-823.3095 1003.1429,-790.2883"/>
<polygon fill="#00ff00" stroke="#00ff00" points="1004.6288,-787.1084 994.1974,-785.2548 1001.196,-793.209 1004.6288,-787.1084"/>
</g>
<!-- n15 -->
<g id="node17" class="node">
<title>n15</title>
<path fill="#ffffff" stroke="#f4a460" stroke-width="2" d="M1527,-946C1527,-946 1351,-946 1351,-946 1345,-946 1339,-940 1339,-934 1339,-934 1339,-894 1339,-894 1339,-888 1345,-882 1351,-882 1351,-882 1527,-882 1527,-882 1533,-882 1539,-888 1539,-894 1539,-894 1539,-934 1539,-934 1539,-940 1533,-946 1527,-946"/>
<text text-anchor="start" x="1379.2565" y="-932" font-family="arial" font-weight="bold" font-size="10.00" fill="#000000">Instances of Ancient Strata</text>
<text text-anchor="start" x="1348.9725" y="-915" font-family="arial" font-size="10.00" fill="#000000">In Munster and Pennsylvannia, there are</text>
<text text-anchor="start" x="1356.201" y="-903" font-family="arial" font-size="10.00" fill="#000000"> pre&#45;Old Red Sandstone strata #GRE</text>
<text text-anchor="start" x="1412.6045" y="-891" font-family="arial" font-size="10.00" fill="#000000"> #chron&#45;hyp</text>
</g>
<!-- n15&#45;&gt;n24 -->
<g id="edge24" class="edge">
<title>n15&#45;&gt;n24</title>
<path fill="none" stroke="#00ff00" d="M1421.5813,-881.9496C1406.748,-854.6563 1385.1385,-814.8948 1367.7453,-782.8913"/>
<polygon fill="#00ff00" stroke="#00ff00" points="1370.8108,-781.2022 1362.9604,-774.0872 1364.6604,-784.5448 1370.8108,-781.2022"/>
</g>
<!-- n24&#45;&gt;n5 -->
<g id="edge9" class="edge">
<title>n24&#45;&gt;n5</title>
<path fill="none" stroke="#ff0000" d="M1340.7034,-685.7764C1345.1893,-558.0769 1354.7231,-195.3384 1320,-156 1285.2924,-116.6792 962.4783,-80.6808 788.2684,-63.9128"/>
<polygon fill="#ff0000" stroke="#ff0000" points="788.582,-60.4269 778.294,-62.9581 787.915,-67.395 788.582,-60.4269"/>
</g>
<!-- n16 -->
<g id="node19" class="node">
<title>n16</title>
<path fill="#ffffff" stroke="#f4a460" stroke-width="2" d="M875,-590C875,-590 703,-590 703,-590 697,-590 691,-584 691,-578 691,-578 691,-538 691,-538 691,-532 697,-526 703,-526 703,-526 875,-526 875,-526 881,-526 887,-532 887,-538 887,-538 887,-578 887,-578 887,-584 881,-590 875,-590"/>
<text text-anchor="start" x="727.8775" y="-576" font-family="arial" font-weight="bold" font-size="10.00" fill="#000000">CM Plants in Ancient Strata</text>
<text text-anchor="start" x="702.863" y="-559" font-family="arial" font-size="10.00" fill="#000000">In pre&#45;Old Red Sandstone strata, there</text>
<text text-anchor="start" x="712.3215" y="-547" font-family="arial" font-size="10.00" fill="#000000"> are fossil plants similar to those of</text>
<text text-anchor="start" x="719.5435" y="-535" font-family="arial" font-size="10.00" fill="#000000"> the Coal Measures &#160;#GRE #pri</text>
</g>
<!-- n16&#45;&gt;n25 -->
<g id="edge10" class="edge">
<title>n16&#45;&gt;n25</title>
<path fill="none" stroke="#ff0000" d="M788.2476,-525.6481C787.7279,-503.2992 787.021,-472.9023 786.3994,-446.174"/>
<polygon fill="#ff0000" stroke="#ff0000" points="789.8976,-446.05 786.1659,-436.1342 782.8994,-446.2129 789.8976,-446.05"/>
</g>
<!-- n27 -->
<g id="node24" class="node">
<title>n27</title>
<path fill="#f4a460" stroke="#000000" d="M1089,-430C1089,-430 917,-430 917,-430 911,-430 905,-424 905,-418 905,-418 905,-354 905,-354 905,-348 911,-342 917,-342 917,-342 1089,-342 1089,-342 1095,-342 1101,-348 1101,-354 1101,-354 1101,-418 1101,-418 1101,-424 1095,-430 1089,-430"/>
<text text-anchor="start" x="920.481" y="-416" font-family="arial" font-weight="bold" font-size="10.00" fill="#000000">French Ancient Strata and CM Plants</text>
<text text-anchor="start" x="916.868" y="-399" font-family="arial" font-size="10.00" fill="#000000">If there are no Coal Measures plants in</text>
<text text-anchor="start" x="922.6965" y="-387" font-family="arial" font-size="10.00" fill="#000000"> pre&#45;Old Red Sandstone strata, then</text>
<text text-anchor="start" x="916.0375" y="-375" font-family="arial" font-size="10.00" fill="#000000"> there were no Coal Measures plants in</text>
<text text-anchor="start" x="916.867" y="-363" font-family="arial" font-size="10.00" fill="#000000"> French pre&#45;Old Red Sandstone strata </text>
<text text-anchor="start" x="987.9975" y="-351" font-family="arial" font-size="10.00" fill="#000000"> #GRE</text>
</g>
<!-- n16&#45;&gt;n27 -->
<g id="edge12" class="edge">
<title>n16&#45;&gt;n27</title>
<path fill="none" stroke="#ff0000" d="M833.5382,-525.9847C852.967,-511.7335 875.861,-494.5513 896,-478.4 912.4546,-465.2035 929.9196,-450.4544 945.8624,-436.6822"/>
<polygon fill="#ff0000" stroke="#ff0000" points="948.2936,-439.2067 953.5555,-430.0109 943.7075,-433.9182 948.2936,-439.2067"/>
</g>
<!-- n17 -->
<g id="node20" class="node">
<title>n17</title>
<path fill="#ffffff" stroke="#f4a460" stroke-width="2" d="M982,-964C982,-964 810,-964 810,-964 804,-964 798,-958 798,-952 798,-952 798,-876 798,-876 798,-870 804,-864 810,-864 810,-864 982,-864 982,-864 988,-864 994,-870 994,-876 994,-876 994,-952 994,-952 994,-958 988,-964 982,-964"/>
<text text-anchor="start" x="813.492" y="-950" font-family="arial" font-weight="bold" font-size="10.00" fill="#000000">Flora Similarities as Best Explanation</text>
<text text-anchor="start" x="813.191" y="-933" font-family="arial" font-size="10.00" fill="#000000">The best explanation of the existence</text>
<text text-anchor="start" x="828.484" y="-921" font-family="arial" font-size="10.00" fill="#000000"> of coal in some strata G is the</text>
<text text-anchor="start" x="816.827" y="-909" font-family="arial" font-size="10.00" fill="#000000"> similarity between G&#39;s flora and the</text>
<text text-anchor="start" x="815.7015" y="-897" font-family="arial" font-size="10.00" fill="#000000"> one of the Coal Measures (the Coal</text>
<text text-anchor="start" x="816.8065" y="-885" font-family="arial" font-size="10.00" fill="#000000"> Measures being noted for the great</text>
<text text-anchor="start" x="814.3105" y="-873" font-family="arial" font-size="10.00" fill="#000000"> amounts of coal they contain) #GRE</text>
</g>
<!-- n17&#45;&gt;n26 -->
<g id="edge25" class="edge">
<title>n17&#45;&gt;n26</title>
<path fill="none" stroke="#00ff00" d="M896,-863.7212C896,-844.7879 896,-822.8637 896,-802.3142"/>
<polygon fill="#00ff00" stroke="#00ff00" points="899.5001,-802.0375 896,-792.0375 892.5001,-802.0375 899.5001,-802.0375"/>
</g>
<!-- n18 -->
<g id="node21" class="node">
<title>n18</title>
<path fill="#ffffff" stroke="#f4a460" stroke-width="2" d="M1089,-584C1089,-584 917,-584 917,-584 911,-584 905,-578 905,-572 905,-572 905,-544 905,-544 905,-538 911,-532 917,-532 917,-532 1089,-532 1089,-532 1095,-532 1101,-538 1101,-544 1101,-544 1101,-572 1101,-572 1101,-578 1095,-584 1089,-584"/>
<text text-anchor="start" x="954.6545" y="-570" font-family="arial" font-weight="bold" font-size="10.00" fill="#000000">Ancient French Strata</text>
<text text-anchor="start" x="920.7525" y="-553" font-family="arial" font-size="10.00" fill="#000000">In the Bocage, there are pre&#45;Old Red</text>
<text text-anchor="start" x="921.03" y="-541" font-family="arial" font-size="10.00" fill="#000000"> Sandstone strata. #GRE #chron&#45;hyp</text>
</g>
<!-- n18&#45;&gt;n27 -->
<g id="edge26" class="edge">
<title>n18&#45;&gt;n27</title>
<path fill="none" stroke="#00ff00" d="M1003,-531.8769C1003,-507.6447 1003,-470.8213 1003,-440.2349"/>
<polygon fill="#00ff00" stroke="#00ff00" points="1006.5001,-440.1284 1003,-430.1285 999.5001,-440.1285 1006.5001,-440.1284"/>
</g>
<!-- n25&#45;&gt;n2 -->
<g id="edge11" class="edge">
<title>n25&#45;&gt;n2</title>
<path fill="none" stroke="#ff0000" d="M785,-335.9434C785,-306.8422 785,-270.8216 785,-244.4222"/>
<polygon fill="#ff0000" stroke="#ff0000" points="788.5001,-244.1017 785,-234.1017 781.5001,-244.1017 788.5001,-244.1017"/>
</g>
<!-- n26&#45;&gt;n16 -->
<g id="edge17" class="edge">
<title>n26&#45;&gt;n16</title>
<path fill="none" stroke="#00ff00" d="M857.3705,-667.9041C843.0189,-644.834 827.1163,-619.2711 814.2622,-598.6084"/>
<polygon fill="#00ff00" stroke="#00ff00" points="817.2075,-596.7168 808.9534,-590.0746 811.2638,-600.4144 817.2075,-596.7168"/>
</g>
<!-- n27&#45;&gt;n7 -->
<g id="edge13" class="edge">
<title>n27&#45;&gt;n7</title>
<path fill="none" stroke="#ff0000" d="M1002.0112,-342C1001.4271,-316.0065 1000.6868,-283.0633 1000.0864,-256.3458"/>
<polygon fill="#ff0000" stroke="#ff0000" points="1003.5793,-255.9848 999.8554,-246.066 996.5811,-256.1422 1003.5793,-255.9848"/>
</g>
<!-- n19 -->
<g id="node25" class="node">
<title>n19</title>
<path fill="#ffffff" stroke="#f4a460" stroke-width="2" d="M1769,-430C1769,-430 1597,-430 1597,-430 1591,-430 1585,-424 1585,-418 1585,-418 1585,-354 1585,-354 1585,-348 1591,-342 1597,-342 1597,-342 1769,-342 1769,-342 1775,-342 1781,-348 1781,-354 1781,-354 1781,-418 1781,-418 1781,-424 1775,-430 1769,-430"/>
<text text-anchor="start" x="1641.049" y="-416" font-family="arial" font-weight="bold" font-size="10.00" fill="#000000">Formation of strata</text>
<text text-anchor="start" x="1611.606" y="-399" font-family="arial" font-size="10.00" fill="#000000">Strata are originally formed from</text>
<text text-anchor="start" x="1600.4775" y="-387" font-family="arial" font-size="10.00" fill="#000000"> sediments that were deposited in flat</text>
<text text-anchor="start" x="1612.979" y="-375" font-family="arial" font-size="10.00" fill="#000000"> horizontal sheets &#45; the younger</text>
<text text-anchor="start" x="1602.6955" y="-363" font-family="arial" font-size="10.00" fill="#000000"> sediments deposited on older ones.</text>
<text text-anchor="start" x="1658.275" y="-351" font-family="arial" font-size="10.00" fill="#000000"> #GRE #pri</text>
</g>
<!-- n19&#45;&gt;n28 -->
<g id="edge27" class="edge">
<title>n19&#45;&gt;n28</title>
<path fill="none" stroke="#00ff00" d="M1683,-342C1683,-317.9312 1683,-287.9038 1683,-262.3778"/>
<polygon fill="#00ff00" stroke="#00ff00" points="1686.5001,-262.1107 1683,-252.1107 1679.5001,-262.1108 1686.5001,-262.1107"/>
</g>
<!-- n29 -->
<g id="node30" class="node">
<title>n29</title>
<path fill="#f4a460" stroke="#000000" d="M1553,-252C1553,-252 1381,-252 1381,-252 1375,-252 1369,-246 1369,-240 1369,-240 1369,-176 1369,-176 1369,-170 1375,-164 1381,-164 1381,-164 1553,-164 1553,-164 1559,-164 1565,-170 1565,-176 1565,-176 1565,-240 1565,-240 1565,-246 1559,-252 1553,-252"/>
<text text-anchor="start" x="1402.817" y="-238" font-family="arial" font-weight="bold" font-size="10.00" fill="#000000">Exmoor and Devonian Strata</text>
<text text-anchor="start" x="1391.985" y="-221" font-family="arial" font-size="10.00" fill="#000000">Assuming that, originally, younger</text>
<text text-anchor="start" x="1386.1425" y="-209" font-family="arial" font-size="10.00" fill="#000000"> strata rest upon older ones, it holds:</text>
<text text-anchor="start" x="1400.3145" y="-197" font-family="arial" font-size="10.00" fill="#000000"> If the Exmoor strata is not the</text>
<text text-anchor="start" x="1392.5255" y="-185" font-family="arial" font-size="10.00" fill="#000000"> youngest, then there is no trough</text>
<text text-anchor="start" x="1413.655" y="-173" font-family="arial" font-size="10.00" fill="#000000"> through Exmoor &#160;#GRE</text>
</g>
<!-- n19&#45;&gt;n29 -->
<g id="edge28" class="edge">
<title>n19&#45;&gt;n29</title>
<path fill="none" stroke="#00ff00" d="M1629.6067,-342C1598.9717,-316.7545 1560.3818,-284.9535 1528.4841,-258.6675"/>
<polygon fill="#00ff00" stroke="#00ff00" points="1530.4708,-255.7693 1520.5276,-252.1107 1526.019,-261.1714 1530.4708,-255.7693"/>
</g>
<!-- n20 -->
<g id="node26" class="node">
<title>n20</title>
<path fill="#ffffff" stroke="#f4a460" stroke-width="2" d="M2211,-418C2211,-418 2039,-418 2039,-418 2033,-418 2027,-412 2027,-406 2027,-406 2027,-366 2027,-366 2027,-360 2033,-354 2039,-354 2039,-354 2211,-354 2211,-354 2217,-354 2223,-360 2223,-366 2223,-366 2223,-406 2223,-406 2223,-412 2217,-418 2211,-418"/>
<text text-anchor="start" x="2076.944" y="-404" font-family="arial" font-weight="bold" font-size="10.00" fill="#000000">Traversing Northward</text>
<text text-anchor="start" x="2045.5345" y="-387" font-family="arial" font-size="10.00" fill="#000000">The strata south of Exmoor become</text>
<text text-anchor="start" x="2042.476" y="-375" font-family="arial" font-size="10.00" fill="#000000"> progessively younger the furhter one</text>
<text text-anchor="start" x="2038.0405" y="-363" font-family="arial" font-size="10.00" fill="#000000"> traverses northward #GRE #chron&#45;hyp</text>
</g>
<!-- n20&#45;&gt;n28 -->
<g id="edge29" class="edge">
<title>n20&#45;&gt;n28</title>
<path fill="none" stroke="#00ff00" d="M2074.3587,-353.9891C2056.8842,-343.6679 2036.9361,-332.6674 2018,-324 1944.2566,-290.2462 1857.6729,-260.507 1791.005,-239.5924"/>
<polygon fill="#00ff00" stroke="#00ff00" points="1791.9058,-236.2071 1781.3172,-236.5712 1789.8217,-242.8897 1791.9058,-236.2071"/>
</g>
<!-- n21 -->
<g id="node27" class="node">
<title>n21</title>
<path fill="#ffffff" stroke="#f4a460" stroke-width="2" d="M1996.5,-448C1996.5,-448 1811.5,-448 1811.5,-448 1805.5,-448 1799.5,-442 1799.5,-436 1799.5,-436 1799.5,-336 1799.5,-336 1799.5,-330 1805.5,-324 1811.5,-324 1811.5,-324 1996.5,-324 1996.5,-324 2002.5,-324 2008.5,-330 2008.5,-336 2008.5,-336 2008.5,-436 2008.5,-436 2008.5,-442 2002.5,-448 1996.5,-448"/>
<text text-anchor="start" x="1824.4795" y="-434" font-family="arial" font-weight="bold" font-size="10.00" fill="#000000">Exmoor Trough as Best Explanation</text>
<text text-anchor="start" x="1831.4195" y="-417" font-family="arial" font-size="10.00" fill="#000000">Assuming that the strata south of</text>
<text text-anchor="start" x="1809.756" y="-405" font-family="arial" font-size="10.00" fill="#000000"> Exmoor become progessively younger the</text>
<text text-anchor="start" x="1823.6465" y="-393" font-family="arial" font-size="10.00" fill="#000000"> furhter one traverses northward and</text>
<text text-anchor="start" x="1827.817" y="-381" font-family="arial" font-size="10.00" fill="#000000"> that, originally, younger strata rest</text>
<text text-anchor="start" x="1825.301" y="-369" font-family="arial" font-size="10.00" fill="#000000"> upon older ones, the existence of a</text>
<text text-anchor="start" x="1823.367" y="-357" font-family="arial" font-size="10.00" fill="#000000"> trough running trough Exmoor is the</text>
<text text-anchor="start" x="1826.137" y="-345" font-family="arial" font-size="10.00" fill="#000000"> best explanation of the strata north</text>
<text text-anchor="start" x="1825.5905" y="-333" font-family="arial" font-size="10.00" fill="#000000"> of Exmoor being older &#160;#GRE #aux</text>
</g>
<!-- n21&#45;&gt;n28 -->
<g id="edge30" class="edge">
<title>n21&#45;&gt;n28</title>
<path fill="none" stroke="#00ff00" d="M1827.0152,-323.9941C1800.4874,-302.6278 1771.1131,-278.9689 1745.8493,-258.6207"/>
<polygon fill="#00ff00" stroke="#00ff00" points="1747.7835,-255.6845 1737.8,-252.1375 1743.3926,-261.1361 1747.7835,-255.6845"/>
</g>
<!-- n22 -->
<g id="node28" class="node">
<title>n22</title>
<path fill="#ffffff" stroke="#f4a460" stroke-width="2" d="M1555,-424C1555,-424 1379,-424 1379,-424 1373,-424 1367,-418 1367,-412 1367,-412 1367,-360 1367,-360 1367,-354 1373,-348 1379,-348 1379,-348 1555,-348 1555,-348 1561,-348 1567,-354 1567,-360 1567,-360 1567,-412 1567,-412 1567,-418 1561,-424 1555,-424"/>
<text text-anchor="start" x="1390.8685" y="-410" font-family="arial" font-weight="bold" font-size="10.00" fill="#000000">Exmoor Youngest Devonian strata</text>
<text text-anchor="start" x="1387.812" y="-393" font-family="arial" font-size="10.00" fill="#000000">In Devon, among all the strata older</text>
<text text-anchor="start" x="1376.6885" y="-381" font-family="arial" font-size="10.00" fill="#000000"> than the New Red Sandstone, the strata</text>
<text text-anchor="start" x="1389.1995" y="-369" font-family="arial" font-size="10.00" fill="#000000"> of Exmoor are the youngest #GRE</text>
<text text-anchor="start" x="1440.6045" y="-357" font-family="arial" font-size="10.00" fill="#000000"> #chron&#45;hyp</text>
</g>
<!-- n22&#45;&gt;n29 -->
<g id="edge14" class="edge">
<title>n22&#45;&gt;n29</title>
<path fill="none" stroke="#ff0000" d="M1467,-347.8145C1467,-322.9048 1467,-290.0084 1467,-262.3832"/>
<polygon fill="#ff0000" stroke="#ff0000" points="1470.5001,-262.0812 1467,-252.0813 1463.5001,-262.0813 1470.5001,-262.0812"/>
</g>
<!-- n28&#45;&gt;n4 -->
<g id="edge18" class="edge">
<title>n28&#45;&gt;n4</title>
<path fill="none" stroke="#00ff00" d="M1593.7062,-163.9217C1587.0917,-161.1133 1580.4749,-158.439 1574,-156 1490.9069,-124.6997 1393.9293,-97.8084 1321.4237,-79.5075"/>
<polygon fill="#00ff00" stroke="#00ff00" points="1321.9103,-76.0212 1311.3592,-76.9826 1320.207,-82.8108 1321.9103,-76.0212"/>
</g>
<!-- n29&#45;&gt;n4 -->
<g id="edge15" class="edge">
<title>n29&#45;&gt;n4</title>
<path fill="none" stroke="#ff0000" d="M1394.2138,-163.8698C1359.7526,-142.976 1318.7351,-118.1071 1284.4465,-97.3179"/>
<polygon fill="#ff0000" stroke="#ff0000" points="1286.2478,-94.317 1275.8821,-92.1254 1282.6186,-100.3028 1286.2478,-94.317"/>
</g>
</g>
</svg>
