
<!-- Generated by graphviz version 2.40.1 (20161225.0304)
 -->
<!-- Title: Argument Map Pages: 1 -->
<svg width="720pt" height="328pt"
 viewBox="0.00 0.00 720.00 327.99" xmlns="http://www.w3.org/2000/svg" xmlns:xlink="http://www.w3.org/1999/xlink">
<g id="graph0" class="graph" transform="scale(.3246 .3246) rotate(0) translate(4 1006.4)">
<title>Argument Map</title>
<g id="clust1" class="cluster">
<title>cluster_1</title>
<polygon fill="#ffff00" stroke="#ffff00" points="268,-690 268,-792.4 484,-792.4 484,-690 268,-690"/>
<text text-anchor="start" x="329.3272" y="-777.6" font-family="arial" font-size="12.00" fill="#000000">Rival Hypotheses</text>
</g>
<g id="clust2" class="cluster">
<title>cluster_2</title>
<polygon fill="#ffff00" stroke="#ffff00" points="8,-8 8,-276.4 1290,-276.4 1290,-8 8,-8"/>
<text text-anchor="start" x="624.3256" y="-261.6" font-family="arial" font-size="12.00" fill="#000000">Evidence</text>
</g>
<g id="clust3" class="cluster">
<title>cluster_3</title>
<polygon fill="#f0ffff" stroke="#f0ffff" points="42,-512 42,-804.4 260,-804.4 260,-512 42,-512"/>
<text text-anchor="start" x="94.6408" y="-789.6" font-family="arial" font-size="12.00" fill="#000000">Gap in the Sequence</text>
</g>
<g id="clust4" class="cluster">
<title>cluster_4</title>
<polygon fill="#bfefff" stroke="#bfefff" points="358,-352 358,-614.4 791,-614.4 791,-352 358,-352"/>
<text text-anchor="start" x="524.8248" y="-599.6" font-family="arial" font-size="12.00" fill="#000000">Dating of the Culm</text>
</g>
<g id="clust5" class="cluster">
<title>cluster_5</title>
<polygon fill="#c6e2ff" stroke="#c6e2ff" points="1286,-678 1286,-976.4 1716,-976.4 1716,-678 1286,-678"/>
<text text-anchor="start" x="1417.3132" y="-961.6" font-family="arial" font-size="12.00" fill="#000000">Aporia I : Coal in Ancient Strata</text>
</g>
<g id="clust6" class="cluster">
<title>cluster_6</title>
<polygon fill="#9fb6cd" stroke="#9fb6cd" points="844,-328 844,-994.4 1278,-994.4 1278,-328 844,-328"/>
<text text-anchor="start" x="960.3122" y="-979.6" font-family="arial" font-size="12.00" fill="#000000">Aporia II : CM Plants in Ancient Strata</text>
</g>
<g id="clust7" class="cluster">
<title>cluster_7</title>
<polygon fill="#e6e6fa" stroke="#e6e6fa" points="1330,-156 1330,-478.4 2202,-478.4 2202,-156 1330,-156"/>
<text text-anchor="start" x="1695.9752" y="-463.6" font-family="arial" font-size="12.00" fill="#000000">Youngest Devonian Strata</text>
</g>
<!-- n0 -->
<g id="node1" class="node">
<title>n0</title>
<path fill="#ffffff" stroke="#f4a460" stroke-width="2" d="M464,-762C464,-762 288,-762 288,-762 282,-762 276,-756 276,-750 276,-750 276,-710 276,-710 276,-704 282,-698 288,-698 288,-698 464,-698 464,-698 470,-698 476,-704 476,-710 476,-710 476,-750 476,-750 476,-756 470,-762 464,-762"/>
<text text-anchor="start" x="320.99" y="-748" font-family="arial" font-weight="bold" font-size="10.00" fill="#000000">Devonian Strata as CAM</text>
<text text-anchor="start" x="299.3125" y="-731" font-family="arial" font-size="10.00" fill="#000000">In Devon, all the strata &#45; older than</text>
<text text-anchor="start" x="285.703" y="-719" font-family="arial" font-size="10.00" fill="#000000"> the New Red Sandstone &#45; are Cambrian</text>
<text text-anchor="start" x="319.5955" y="-707" font-family="arial" font-size="10.00" fill="#000000"> in age #GRE #chron&#45;hyp</text>
</g>
<!-- n24 -->
<g id="node13" class="node">
<title>n24</title>
<path fill="#f4a460" stroke="#000000" d="M237,-596C237,-596 65,-596 65,-596 59,-596 53,-590 53,-584 53,-584 53,-532 53,-532 53,-526 59,-520 65,-520 65,-520 237,-520 237,-520 243,-520 249,-526 249,-532 249,-532 249,-584 249,-584 249,-590 243,-596 237,-596"/>
<text text-anchor="start" x="83.202" y="-582" font-family="arial" font-weight="bold" font-size="10.00" fill="#000000">Unbroken Sequence &#45; GRE.1a</text>
<text text-anchor="start" x="87.095" y="-565" font-family="arial" font-size="10.00" fill="#000000">If, in Devon, all the strata are</text>
<text text-anchor="start" x="66.5295" y="-553" font-family="arial" font-size="10.00" fill="#000000"> Cambrian in age, i.e. belonging to the</text>
<text text-anchor="start" x="67.9225" y="-541" font-family="arial" font-size="10.00" fill="#000000"> same geological period, then there is</text>
<text text-anchor="start" x="69.581" y="-529" font-family="arial" font-size="10.00" fill="#000000"> no gap in the local sequence. #GRE</text>
</g>
<!-- n0&#45;&gt;n24 -->
<g id="edge21" class="edge">
<title>n0&#45;&gt;n24</title>
<path fill="none" stroke="#00ff00" d="M333.9432,-697.8499C298.794,-670.9803 248.2936,-632.3755 209.2524,-602.5308"/>
<polygon fill="#00ff00" stroke="#00ff00" points="211.1753,-599.5952 201.1051,-596.3026 206.9241,-605.1564 211.1753,-599.5952"/>
</g>
<!-- n12 -->
<g id="node14" class="node">
<title>n12</title>
<path fill="#ffffff" stroke="#f4a460" stroke-width="2" d="M662.5,-584C662.5,-584 485.5,-584 485.5,-584 479.5,-584 473.5,-578 473.5,-572 473.5,-572 473.5,-544 473.5,-544 473.5,-538 479.5,-532 485.5,-532 485.5,-532 662.5,-532 662.5,-532 668.5,-532 674.5,-538 674.5,-544 674.5,-544 674.5,-572 674.5,-572 674.5,-578 668.5,-584 662.5,-584"/>
<text text-anchor="start" x="543.67" y="-570" font-family="arial" font-weight="bold" font-size="10.00" fill="#000000">Culm as CAM</text>
<text text-anchor="start" x="483.653" y="-553" font-family="arial" font-size="10.00" fill="#000000">The whole Culm strata of Devonshire are</text>
<text text-anchor="start" x="495.04" y="-541" font-family="arial" font-size="10.00" fill="#000000"> Cambrian in age #GRE #chron&#45;hyp</text>
</g>
<!-- n0&#45;&gt;n12 -->
<g id="edge7" class="edge">
<title>n0&#45;&gt;n12</title>
<path fill="none" stroke="#00ff00" d="M413.2423,-697.6481C448.4438,-667.0691 500.9897,-621.4231 536.3306,-590.7229"/>
<polygon fill="#00ff00" stroke="#00ff00" points="538.7849,-593.2271 544.039,-584.0268 534.1943,-587.9425 538.7849,-593.2271"/>
</g>
<!-- n1 -->
<g id="node2" class="node">
<title>n1</title>
<path fill="#ffffff" stroke="#66a61e" stroke-width="2" d="M200,-240C200,-240 28,-240 28,-240 22,-240 16,-234 16,-228 16,-228 16,-188 16,-188 16,-182 22,-176 28,-176 28,-176 200,-176 200,-176 206,-176 212,-182 212,-188 212,-188 212,-228 212,-228 212,-234 206,-240 200,-240"/>
<text text-anchor="start" x="32.305" y="-226" font-family="arial" font-weight="bold" font-size="10.00" fill="#000000">Unbroken Sequence of Devon Strata</text>
<text text-anchor="start" x="37.3125" y="-209" font-family="arial" font-size="10.00" fill="#000000">In Devon, all the strata &#45; older than</text>
<text text-anchor="start" x="37.0355" y="-197" font-family="arial" font-size="10.00" fill="#000000"> the New Red Sandstone &#45; form an</text>
<text text-anchor="start" x="29.5205" y="-185" font-family="arial" font-size="10.00" fill="#000000"> unbroken sequence of strata #ev #E1</text>
</g>
<!-- n6 -->
<g id="node7" class="node">
<title>n6</title>
<path fill="#ffffff" stroke="#66a61e" stroke-width="2" d="M200,-92C200,-92 28,-92 28,-92 22,-92 16,-86 16,-80 16,-80 16,-28 16,-28 16,-22 22,-16 28,-16 28,-16 200,-16 200,-16 206,-16 212,-22 212,-28 212,-28 212,-80 212,-80 212,-86 206,-92 200,-92"/>
<text text-anchor="start" x="63.439" y="-78" font-family="arial" font-weight="bold" font-size="10.00" fill="#000000">Unconformity in Devon</text>
<text text-anchor="start" x="39.2545" y="-61" font-family="arial" font-size="10.00" fill="#000000">Between the Devon Culm and the</text>
<text text-anchor="start" x="37.866" y="-49" font-family="arial" font-size="10.00" fill="#000000"> juxtaposed strata, there is at least</text>
<text text-anchor="start" x="43.9895" y="-37" font-family="arial" font-size="10.00" fill="#000000"> one formation missing from the</text>
<text text-anchor="start" x="50.361" y="-25" font-family="arial" font-size="10.00" fill="#000000"> standard sequence #ev #E6</text>
</g>
<!-- n1&#45;&gt;n6 -->
<g id="edge2" class="edge">
<title>n1&#45;&gt;n6</title>
<path fill="none" stroke="#ff0000" d="M108.3855,-175.7166C107.1634,-154.5117 106.9278,-126.3828 107.6787,-102.5083"/>
<polygon fill="#ff0000" stroke="#ff0000" points="111.1873,-102.353 108.0769,-92.2251 104.1925,-102.0821 111.1873,-102.353"/>
</g>
<!-- n10 -->
<g id="node11" class="node">
<title>n10</title>
<path fill="#ffffff" stroke="#66a61e" stroke-width="2" d="M422.5,-92C422.5,-92 241.5,-92 241.5,-92 235.5,-92 229.5,-86 229.5,-80 229.5,-80 229.5,-28 229.5,-28 229.5,-22 235.5,-16 241.5,-16 241.5,-16 422.5,-16 422.5,-16 428.5,-16 434.5,-22 434.5,-28 434.5,-28 434.5,-80 434.5,-80 434.5,-86 428.5,-92 422.5,-92"/>
<text text-anchor="start" x="277.7705" y="-78" font-family="arial" font-weight="bold" font-size="10.00" fill="#000000">Unconformity in Devon II</text>
<text text-anchor="start" x="239.699" y="-61" font-family="arial" font-size="10.00" fill="#000000">Between the main part of the Devon Culm</text>
<text text-anchor="start" x="255.816" y="-49" font-family="arial" font-size="10.00" fill="#000000"> and its black limestone, there is at</text>
<text text-anchor="start" x="250.542" y="-37" font-family="arial" font-size="10.00" fill="#000000"> least one formation missing from the</text>
<text text-anchor="start" x="266.0815" y="-25" font-family="arial" font-size="10.00" fill="#000000"> standard sequence #ev #E11</text>
</g>
<!-- n1&#45;&gt;n10 -->
<g id="edge6" class="edge">
<title>n1&#45;&gt;n10</title>
<path fill="none" stroke="#ff0000" d="M153.831,-175.904C184.5192,-153.2986 227.5682,-122.7564 263.6957,-97.8987"/>
<polygon fill="#ff0000" stroke="#ff0000" points="265.9747,-100.5798 272.2412,-92.0369 262.015,-94.8073 265.9747,-100.5798"/>
</g>
<!-- n2 -->
<g id="node3" class="node">
<title>n2</title>
<path fill="#ffffff" stroke="#66a61e" stroke-width="2" d="M1056,-234C1056,-234 884,-234 884,-234 878,-234 872,-228 872,-222 872,-222 872,-194 872,-194 872,-188 878,-182 884,-182 884,-182 1056,-182 1056,-182 1062,-182 1068,-188 1068,-194 1068,-194 1068,-222 1068,-222 1068,-228 1062,-234 1056,-234"/>
<text text-anchor="start" x="912.7755" y="-220" font-family="arial" font-weight="bold" font-size="10.00" fill="#000000">CM Plants in Devon Culm</text>
<text text-anchor="start" x="884.1475" y="-203" font-family="arial" font-size="10.00" fill="#000000">In Devon, the Culm strata contain Coal</text>
<text text-anchor="start" x="899.4275" y="-191" font-family="arial" font-size="10.00" fill="#000000"> Measures fossil plants #ev #E2</text>
</g>
<!-- n3 -->
<g id="node4" class="node">
<title>n3</title>
<path fill="#ffffff" stroke="#66a61e" stroke-width="2" d="M628,-234C628,-234 456,-234 456,-234 450,-234 444,-228 444,-222 444,-222 444,-194 444,-194 444,-188 450,-182 456,-182 456,-182 628,-182 628,-182 634,-182 640,-188 640,-194 640,-194 640,-222 640,-222 640,-228 634,-234 628,-234"/>
<text text-anchor="start" x="505.607" y="-220" font-family="arial" font-weight="bold" font-size="10.00" fill="#000000">North of Exmoor</text>
<text text-anchor="start" x="455.871" y="-203" font-family="arial" font-size="10.00" fill="#000000">Passing Exmoor northwards, the strata</text>
<text text-anchor="start" x="490.5945" y="-191" font-family="arial" font-size="10.00" fill="#000000"> become older #ev #E3</text>
</g>
<!-- n29 -->
<g id="node30" class="node">
<title>n29</title>
<path fill="#f4a460" stroke="#000000" d="M1740,-252C1740,-252 1568,-252 1568,-252 1562,-252 1556,-246 1556,-240 1556,-240 1556,-176 1556,-176 1556,-170 1562,-164 1568,-164 1568,-164 1740,-164 1740,-164 1746,-164 1752,-170 1752,-176 1752,-176 1752,-240 1752,-240 1752,-246 1746,-252 1740,-252"/>
<text text-anchor="start" x="1578.9845" y="-238" font-family="arial" font-weight="bold" font-size="10.00" fill="#000000">Trough through Exmoor &#45; GRE.1a</text>
<text text-anchor="start" x="1577.0265" y="-221" font-family="arial" font-size="10.00" fill="#000000">If the existence of a trough running</text>
<text text-anchor="start" x="1568.697" y="-209" font-family="arial" font-size="10.00" fill="#000000"> trough Exmoor is the best explanation</text>
<text text-anchor="start" x="1568.417" y="-197" font-family="arial" font-size="10.00" fill="#000000"> of the Exmoor strata being juxtaposed</text>
<text text-anchor="start" x="1576.4815" y="-185" font-family="arial" font-size="10.00" fill="#000000"> solely by older strata, then there is</text>
<text text-anchor="start" x="1580.9245" y="-173" font-family="arial" font-size="10.00" fill="#000000"> a trough through Exmoor &#160;#GRE</text>
</g>
<!-- n3&#45;&gt;n29 -->
<g id="edge22" class="edge">
<title>n3&#45;&gt;n29</title>
<path fill="none" stroke="#00ff00" d="M564.757,-234.0298C586.2155,-256.4321 620.5955,-287.1456 658,-300.2 704.0536,-316.273 1489.8801,-316.0815 1536,-300.2 1560.956,-291.6063 1584.6763,-275.3282 1604.216,-258.8122"/>
<polygon fill="#00ff00" stroke="#00ff00" points="1606.5229,-261.4444 1611.7695,-252.2398 1601.928,-256.1636 1606.5229,-261.4444"/>
</g>
<!-- n4 -->
<g id="node5" class="node">
<title>n4</title>
<path fill="#ffffff" stroke="#66a61e" stroke-width="2" d="M1270,-92C1270,-92 1098,-92 1098,-92 1092,-92 1086,-86 1086,-80 1086,-80 1086,-28 1086,-28 1086,-22 1092,-16 1098,-16 1098,-16 1270,-16 1270,-16 1276,-16 1282,-22 1282,-28 1282,-28 1282,-80 1282,-80 1282,-86 1276,-92 1270,-92"/>
<text text-anchor="start" x="1131.21" y="-78" font-family="arial" font-weight="bold" font-size="10.00" fill="#000000">Trough through Exmoor</text>
<text text-anchor="start" x="1106.206" y="-61" font-family="arial" font-size="10.00" fill="#000000">There is a trough through Exmoor &#45;</text>
<text text-anchor="start" x="1097.308" y="-49" font-family="arial" font-size="10.00" fill="#000000"> formed by a band of limestone running</text>
<text text-anchor="start" x="1105.362" y="-37" font-family="arial" font-size="10.00" fill="#000000"> out to the north coast at Ilfracombe</text>
<text text-anchor="start" x="1110.0795" y="-25" font-family="arial" font-size="10.00" fill="#000000"> and south of Barnstaple #ev #E4</text>
</g>
<!-- n5 -->
<g id="node6" class="node">
<title>n5</title>
<path fill="#ffffff" stroke="#66a61e" stroke-width="2" d="M849,-86C849,-86 673,-86 673,-86 667,-86 661,-80 661,-74 661,-74 661,-34 661,-34 661,-28 667,-22 673,-22 673,-22 849,-22 849,-22 855,-22 861,-28 861,-34 861,-34 861,-74 861,-74 861,-80 855,-86 849,-86"/>
<text text-anchor="start" x="684.3105" y="-72" font-family="arial" font-weight="bold" font-size="10.00" fill="#000000">Instances of Coal in Ancient Strata</text>
<text text-anchor="start" x="670.9725" y="-55" font-family="arial" font-size="10.00" fill="#000000">In Munster and Pennsylvannia, there are</text>
<text text-anchor="start" x="671.2525" y="-43" font-family="arial" font-size="10.00" fill="#000000"> coal deposits in pre&#45;Old Red Sandstone</text>
<text text-anchor="start" x="727.3765" y="-31" font-family="arial" font-size="10.00" fill="#000000"> strata #ev #E5</text>
</g>
<!-- n6&#45;&gt;n1 -->
<g id="edge1" class="edge">
<title>n6&#45;&gt;n1</title>
<path fill="none" stroke="#ff0000" d="M119.9231,-92.2251C120.9614,-114.4953 121.0219,-142.6212 120.1047,-165.5742"/>
<polygon fill="#ff0000" stroke="#ff0000" points="116.6014,-165.5592 119.6145,-175.7166 123.5932,-165.8972 116.6014,-165.5592"/>
</g>
<!-- n7 -->
<g id="node8" class="node">
<title>n7</title>
<path fill="#ffffff" stroke="#66a61e" stroke-width="2" d="M1270,-246C1270,-246 1098,-246 1098,-246 1092,-246 1086,-240 1086,-234 1086,-234 1086,-182 1086,-182 1086,-176 1092,-170 1098,-170 1098,-170 1270,-170 1270,-170 1276,-170 1282,-176 1282,-182 1282,-182 1282,-234 1282,-234 1282,-240 1276,-246 1270,-246"/>
<text text-anchor="start" x="1105.9305" y="-232" font-family="arial" font-weight="bold" font-size="10.00" fill="#000000">CM Plants in Ancient French Strata</text>
<text text-anchor="start" x="1109.53" y="-215" font-family="arial" font-size="10.00" fill="#000000">In the Bocage, the limestones are</text>
<text text-anchor="start" x="1105.361" y="-203" font-family="arial" font-size="10.00" fill="#000000"> pre&#45;Old Red Sandstone in age and</text>
<text text-anchor="start" x="1105.099" y="-191" font-family="arial" font-size="10.00" fill="#000000"> contain some Coal Measures fossil</text>
<text text-anchor="start" x="1149.5415" y="-179" font-family="arial" font-size="10.00" fill="#000000"> plants #ev #E7</text>
</g>
<!-- n8 -->
<g id="node9" class="node">
<title>n8</title>
<path fill="#ffffff" stroke="#66a61e" stroke-width="2" d="M414,-246C414,-246 242,-246 242,-246 236,-246 230,-240 230,-234 230,-234 230,-182 230,-182 230,-176 236,-170 242,-170 242,-170 414,-170 414,-170 420,-170 426,-176 426,-182 426,-182 426,-234 426,-234 426,-240 420,-246 414,-246"/>
<text text-anchor="start" x="258.823" y="-232" font-family="arial" font-weight="bold" font-size="10.00" fill="#000000">Munster Coal as Carboniferous</text>
<text text-anchor="start" x="251.5905" y="-215" font-family="arial" font-size="10.00" fill="#000000">In Munster, the limestone and coal</text>
<text text-anchor="start" x="245.2065" y="-203" font-family="arial" font-size="10.00" fill="#000000"> seams are pre&#45;Carboniferous in age,</text>
<text text-anchor="start" x="250.7615" y="-191" font-family="arial" font-size="10.00" fill="#000000"> i.e there are no coal seams in pre&#45;</text>
<text text-anchor="start" x="249.36" y="-179" font-family="arial" font-size="10.00" fill="#000000"> Old Red Sandstone strata #ev #E8</text>
</g>
<!-- n8&#45;&gt;n5 -->
<g id="edge3" class="edge">
<title>n8&#45;&gt;n5</title>
<path fill="none" stroke="#ff0000" d="M402.7785,-169.9189C413.4809,-164.9803 424.4415,-160.1903 435,-156 505.6484,-127.962 587.2715,-102.4314 651.1708,-83.9256"/>
<polygon fill="#ff0000" stroke="#ff0000" points="652.2275,-87.2636 660.8676,-81.1318 650.2895,-80.5373 652.2275,-87.2636"/>
</g>
<!-- n9 -->
<g id="node10" class="node">
<title>n9</title>
<path fill="#ffffff" stroke="#66a61e" stroke-width="2" d="M842,-244C842,-244 670,-244 670,-244 664,-244 658,-238 658,-232 658,-232 658,-184 658,-184 658,-178 664,-172 670,-172 670,-172 842,-172 842,-172 848,-172 854,-178 854,-184 854,-184 854,-232 854,-232 854,-238 848,-244 842,-244"/>
<text text-anchor="start" x="672.651" y="-230" font-family="arial" font-weight="bold" font-size="10.00" fill="#000000">Distinct Limestones at Ilfracombe and</text>
<text text-anchor="start" x="730.715" y="-220" font-family="arial" font-weight="bold" font-size="10.00" fill="#000000"> Barnstaple</text>
<text text-anchor="start" x="676.2565" y="-205" font-family="arial" font-size="10.00" fill="#000000">The limestone at Ilfracombe and the</text>
<text text-anchor="start" x="680.1455" y="-193" font-family="arial" font-size="10.00" fill="#000000"> limestone south of Barnstaple are</text>
<text text-anchor="start" x="716.5425" y="-181" font-family="arial" font-size="10.00" fill="#000000"> distinct #ev #E10</text>
</g>
<!-- n9&#45;&gt;n4 -->
<g id="edge4" class="edge">
<title>n9&#45;&gt;n4</title>
<path fill="none" stroke="#ff0000" d="M826.4344,-171.992C838.5002,-166.338 851.0123,-160.7883 863,-156 932.5867,-128.2047 1012.9394,-102.6785 1075.844,-84.1142"/>
<polygon fill="#ff0000" stroke="#ff0000" points="1077.1768,-87.3707 1085.7857,-81.1953 1075.2047,-80.6542 1077.1768,-87.3707"/>
</g>
<!-- n10&#45;&gt;n1 -->
<g id="edge5" class="edge">
<title>n10&#45;&gt;n1</title>
<path fill="none" stroke="#ff0000" d="M284.0698,-92.0369C251.5535,-115.7949 208.4092,-146.2724 173.6759,-170.0197"/>
<polygon fill="#ff0000" stroke="#ff0000" points="171.3322,-167.3813 165.0382,-175.904 175.2733,-173.1665 171.3322,-167.3813"/>
</g>
<!-- n11 -->
<g id="node12" class="node">
<title>n11</title>
<path fill="#ffffff" stroke="#f4a460" stroke-width="2" d="M239.5,-774C239.5,-774 62.5,-774 62.5,-774 56.5,-774 50.5,-768 50.5,-762 50.5,-762 50.5,-698 50.5,-698 50.5,-692 56.5,-686 62.5,-686 62.5,-686 239.5,-686 239.5,-686 245.5,-686 251.5,-692 251.5,-698 251.5,-698 251.5,-762 251.5,-762 251.5,-768 245.5,-774 239.5,-774"/>
<text text-anchor="start" x="88.418" y="-760" font-family="arial" font-weight="bold" font-size="10.00" fill="#000000">Gap in a Sequence of Strata</text>
<text text-anchor="start" x="69.8065" y="-743" font-family="arial" font-size="10.00" fill="#000000">There is a gap in a local sequence of</text>
<text text-anchor="start" x="95.6535" y="-731" font-family="arial" font-size="10.00" fill="#000000"> strata, iff there are strata</text>
<text text-anchor="start" x="69.523" y="-719" font-family="arial" font-size="10.00" fill="#000000"> juxtaposed belonging to different but</text>
<text text-anchor="start" x="60.6455" y="-707" font-family="arial" font-size="10.00" fill="#000000"> not successive geological periods #GRE</text>
<text text-anchor="start" x="141.7775" y="-695" font-family="arial" font-size="10.00" fill="#000000"> #pri</text>
</g>
<!-- n11&#45;&gt;n24 -->
<g id="edge23" class="edge">
<title>n11&#45;&gt;n24</title>
<path fill="none" stroke="#00ff00" d="M151,-685.7057C151,-661.4065 151,-631.2462 151,-606.3382"/>
<polygon fill="#00ff00" stroke="#00ff00" points="154.5001,-606.0173 151,-596.0173 147.5001,-606.0174 154.5001,-606.0173"/>
</g>
<!-- n24&#45;&gt;n1 -->
<g id="edge18" class="edge">
<title>n24&#45;&gt;n1</title>
<path fill="none" stroke="#00ff00" d="M146.9699,-519.8776C140.0042,-453.9857 125.762,-319.2626 118.4897,-250.4706"/>
<polygon fill="#00ff00" stroke="#00ff00" points="121.9588,-249.9924 117.4268,-240.4158 114.9976,-250.7284 121.9588,-249.9924"/>
</g>
<!-- n13 -->
<g id="node15" class="node">
<title>n13</title>
<path fill="#ffffff" stroke="#f4a460" stroke-width="2" d="M551.5,-412C551.5,-412 378.5,-412 378.5,-412 372.5,-412 366.5,-406 366.5,-400 366.5,-400 366.5,-372 366.5,-372 366.5,-366 372.5,-360 378.5,-360 378.5,-360 551.5,-360 551.5,-360 557.5,-360 563.5,-366 563.5,-372 563.5,-372 563.5,-400 563.5,-400 563.5,-406 557.5,-412 551.5,-412"/>
<text text-anchor="start" x="398.5485" y="-398" font-family="arial" font-weight="bold" font-size="10.00" fill="#000000">Main part of the Culm as CAM</text>
<text text-anchor="start" x="376.8785" y="-381" font-family="arial" font-size="10.00" fill="#000000">Then main part of the Culm is Cambrian</text>
<text text-anchor="start" x="409.0955" y="-369" font-family="arial" font-size="10.00" fill="#000000"> in age #GRE #chron&#45;hyp</text>
</g>
<!-- n12&#45;&gt;n13 -->
<g id="edge8" class="edge">
<title>n12&#45;&gt;n13</title>
<path fill="none" stroke="#00ff00" d="M557.4452,-531.8769C538.6643,-502.241 507.9486,-453.7721 487.1246,-420.9122"/>
<polygon fill="#00ff00" stroke="#00ff00" points="489.8409,-418.6598 481.5316,-412.0866 483.9282,-422.4068 489.8409,-418.6598"/>
</g>
<!-- n14 -->
<g id="node16" class="node">
<title>n14</title>
<path fill="#ffffff" stroke="#f4a460" stroke-width="2" d="M770.5,-412C770.5,-412 593.5,-412 593.5,-412 587.5,-412 581.5,-406 581.5,-400 581.5,-400 581.5,-372 581.5,-372 581.5,-366 587.5,-360 593.5,-360 593.5,-360 770.5,-360 770.5,-360 776.5,-360 782.5,-366 782.5,-372 782.5,-372 782.5,-400 782.5,-400 782.5,-406 776.5,-412 770.5,-412"/>
<text text-anchor="start" x="613.6065" y="-398" font-family="arial" font-weight="bold" font-size="10.00" fill="#000000">Black Culm Limestone as CAM</text>
<text text-anchor="start" x="591.6625" y="-381" font-family="arial" font-size="10.00" fill="#000000">The black Culm limestone is Cambrian in</text>
<text text-anchor="start" x="631.374" y="-369" font-family="arial" font-size="10.00" fill="#000000"> age #GRE #chron&#45;hyp</text>
</g>
<!-- n12&#45;&gt;n14 -->
<g id="edge9" class="edge">
<title>n12&#45;&gt;n14</title>
<path fill="none" stroke="#00ff00" d="M590.4029,-531.8769C609.0115,-502.241 639.4454,-453.7721 660.0784,-420.9122"/>
<polygon fill="#00ff00" stroke="#00ff00" points="663.2664,-422.4167 665.62,-412.0866 657.3382,-418.6943 663.2664,-422.4167"/>
</g>
<!-- n26 -->
<g id="node23" class="node">
<title>n26</title>
<path fill="#f4a460" stroke="#000000" d="M1044,-436C1044,-436 864,-436 864,-436 858,-436 852,-430 852,-424 852,-424 852,-348 852,-348 852,-342 858,-336 864,-336 864,-336 1044,-336 1044,-336 1050,-336 1056,-342 1056,-348 1056,-348 1056,-424 1056,-424 1056,-430 1050,-436 1044,-436"/>
<text text-anchor="start" x="908.1635" y="-422" font-family="arial" font-weight="bold" font-size="10.00" fill="#000000">Culm and CM Plants</text>
<text text-anchor="start" x="873.432" y="-405" font-family="arial" font-size="10.00" fill="#000000">If the Devon Culm strata are pre&#45;Old</text>
<text text-anchor="start" x="865.0735" y="-393" font-family="arial" font-size="10.00" fill="#000000"> Red Sandstone in age and there are no</text>
<text text-anchor="start" x="870.3765" y="-381" font-family="arial" font-size="10.00" fill="#000000"> Coal Measures plants in pre&#45;Old Red</text>
<text text-anchor="start" x="873.967" y="-369" font-family="arial" font-size="10.00" fill="#000000"> Sandstone strata, then there are no</text>
<text text-anchor="start" x="861.7625" y="-357" font-family="arial" font-size="10.00" fill="#000000"> Coal Measures plants in the Devon Culm</text>
<text text-anchor="start" x="923.716" y="-345" font-family="arial" font-size="10.00" fill="#000000"> strata &#160;#GRE</text>
</g>
<!-- n12&#45;&gt;n26 -->
<g id="edge24" class="edge">
<title>n12&#45;&gt;n26</title>
<path fill="none" stroke="#00ff00" d="M657.2893,-531.9747C699.3106,-517.8524 750.6425,-499.0702 795,-478.4 818.3762,-467.5069 842.8309,-454.2885 865.356,-441.2967"/>
<polygon fill="#00ff00" stroke="#00ff00" points="867.3339,-444.1953 874.2172,-436.141 863.8136,-438.1449 867.3339,-444.1953"/>
</g>
<!-- n15 -->
<g id="node17" class="node">
<title>n15</title>
<path fill="#ffffff" stroke="#f4a460" stroke-width="2" d="M1478,-940C1478,-940 1306,-940 1306,-940 1300,-940 1294,-934 1294,-928 1294,-928 1294,-900 1294,-900 1294,-894 1300,-888 1306,-888 1306,-888 1478,-888 1478,-888 1484,-888 1490,-894 1490,-900 1490,-900 1490,-928 1490,-928 1490,-934 1484,-940 1478,-940"/>
<text text-anchor="start" x="1343.6555" y="-926" font-family="arial" font-weight="bold" font-size="10.00" fill="#000000">Coal in Ancient Strata</text>
<text text-anchor="start" x="1305.8725" y="-909" font-family="arial" font-size="10.00" fill="#000000">There are coal deposits in pre&#45;Old Red</text>
<text text-anchor="start" x="1328.0925" y="-897" font-family="arial" font-size="10.00" fill="#000000"> Sandstone strata #GRE #pri</text>
</g>
<!-- n25 -->
<g id="node19" class="node">
<title>n25</title>
<path fill="#f4a460" stroke="#000000" d="M1478,-774C1478,-774 1306,-774 1306,-774 1300,-774 1294,-768 1294,-762 1294,-762 1294,-698 1294,-698 1294,-692 1300,-686 1306,-686 1306,-686 1478,-686 1478,-686 1484,-686 1490,-692 1490,-698 1490,-698 1490,-762 1490,-762 1490,-768 1484,-774 1478,-774"/>
<text text-anchor="start" x="1343.6555" y="-760" font-family="arial" font-weight="bold" font-size="10.00" fill="#000000">Coal in Ancient Strata</text>
<text text-anchor="start" x="1325.0345" y="-743" font-family="arial" font-size="10.00" fill="#000000">If there are no coal deposits in</text>
<text text-anchor="start" x="1311.1415" y="-731" font-family="arial" font-size="10.00" fill="#000000"> Pre&#45;Old Red Sandstone strata, then</text>
<text text-anchor="start" x="1319.4755" y="-719" font-family="arial" font-size="10.00" fill="#000000"> there are no coal deposits in the</text>
<text text-anchor="start" x="1318.645" y="-707" font-family="arial" font-size="10.00" fill="#000000"> pre&#45;Old Red Sandstone strata of</text>
<text text-anchor="start" x="1313.9235" y="-695" font-family="arial" font-size="10.00" fill="#000000"> Munster and Pennsylvannia #GRE</text>
</g>
<!-- n15&#45;&gt;n25 -->
<g id="edge10" class="edge">
<title>n15&#45;&gt;n25</title>
<path fill="none" stroke="#ff0000" d="M1392,-887.6373C1392,-860.8011 1392,-818.4174 1392,-784.3541"/>
<polygon fill="#ff0000" stroke="#ff0000" points="1395.5001,-784.0762 1392,-774.0762 1388.5001,-784.0763 1395.5001,-784.0762"/>
</g>
<!-- n27 -->
<g id="node24" class="node">
<title>n27</title>
<path fill="#f4a460" stroke="#000000" d="M1151,-792C1151,-792 979,-792 979,-792 973,-792 967,-786 967,-780 967,-780 967,-680 967,-680 967,-674 973,-668 979,-668 979,-668 1151,-668 1151,-668 1157,-668 1163,-674 1163,-680 1163,-680 1163,-780 1163,-780 1163,-786 1157,-792 1151,-792"/>
<text text-anchor="start" x="1020.5485" y="-778" font-family="arial" font-weight="bold" font-size="10.00" fill="#000000">Coal and CM Plants</text>
<text text-anchor="start" x="985.263" y="-761" font-family="arial" font-size="10.00" fill="#000000">If the similarity between the floras of</text>
<text text-anchor="start" x="983.316" y="-749" font-family="arial" font-size="10.00" fill="#000000"> the Coal Measures and pre&#45;Old Red</text>
<text text-anchor="start" x="990.8095" y="-737" font-family="arial" font-size="10.00" fill="#000000"> Sandstone formations is the best</text>
<text text-anchor="start" x="983.8615" y="-725" font-family="arial" font-size="10.00" fill="#000000"> explanation for the existence of coal</text>
<text text-anchor="start" x="983.3105" y="-713" font-family="arial" font-size="10.00" fill="#000000"> deposists in pre&#45;Old Red Sandstone</text>
<text text-anchor="start" x="982.202" y="-701" font-family="arial" font-size="10.00" fill="#000000"> strata, then there are Coal Measures</text>
<text text-anchor="start" x="991.09" y="-689" font-family="arial" font-size="10.00" fill="#000000"> plants in pre&#45;Old Red Sandstone</text>
<text text-anchor="start" x="1034.716" y="-677" font-family="arial" font-size="10.00" fill="#000000"> strata. #GRE</text>
</g>
<!-- n15&#45;&gt;n27 -->
<g id="edge25" class="edge">
<title>n15&#45;&gt;n27</title>
<path fill="none" stroke="#00ff00" d="M1345.4961,-887.8327C1300.5482,-862.5409 1230.8271,-823.3095 1172.1429,-790.2883"/>
<polygon fill="#00ff00" stroke="#00ff00" points="1173.6288,-787.1084 1163.1974,-785.2548 1170.196,-793.209 1173.6288,-787.1084"/>
</g>
<!-- n16 -->
<g id="node18" class="node">
<title>n16</title>
<path fill="#ffffff" stroke="#f4a460" stroke-width="2" d="M1696,-946C1696,-946 1520,-946 1520,-946 1514,-946 1508,-940 1508,-934 1508,-934 1508,-894 1508,-894 1508,-888 1514,-882 1520,-882 1520,-882 1696,-882 1696,-882 1702,-882 1708,-888 1708,-894 1708,-894 1708,-934 1708,-934 1708,-940 1702,-946 1696,-946"/>
<text text-anchor="start" x="1548.2565" y="-932" font-family="arial" font-weight="bold" font-size="10.00" fill="#000000">Instances of Ancient Strata</text>
<text text-anchor="start" x="1517.9725" y="-915" font-family="arial" font-size="10.00" fill="#000000">In Munster and Pennsylvannia, there are</text>
<text text-anchor="start" x="1525.201" y="-903" font-family="arial" font-size="10.00" fill="#000000"> pre&#45;Old Red Sandstone strata #GRE</text>
<text text-anchor="start" x="1581.6045" y="-891" font-family="arial" font-size="10.00" fill="#000000"> #chron&#45;hyp</text>
</g>
<!-- n16&#45;&gt;n25 -->
<g id="edge26" class="edge">
<title>n16&#45;&gt;n25</title>
<path fill="none" stroke="#00ff00" d="M1570.3757,-881.9496C1537.6511,-854.0731 1489.6577,-813.1899 1451.6942,-780.8506"/>
<polygon fill="#00ff00" stroke="#00ff00" points="1453.6366,-777.9075 1443.7545,-774.0872 1449.0974,-783.2363 1453.6366,-777.9075"/>
</g>
<!-- n25&#45;&gt;n5 -->
<g id="edge11" class="edge">
<title>n25&#45;&gt;n5</title>
<path fill="none" stroke="#ff0000" d="M1378.3037,-685.9092C1363.3087,-636.0251 1339.5931,-552.1203 1326,-478.4 1312.9324,-407.5293 1339.8267,-209.0036 1291,-156 1262.7625,-125.3469 1017.7928,-88.0355 870.9736,-68.1254"/>
<polygon fill="#ff0000" stroke="#ff0000" points="871.3908,-64.65 861.0124,-66.7808 870.4543,-71.5871 871.3908,-64.65"/>
</g>
<!-- n17 -->
<g id="node20" class="node">
<title>n17</title>
<path fill="#ffffff" stroke="#f4a460" stroke-width="2" d="M1044,-590C1044,-590 872,-590 872,-590 866,-590 860,-584 860,-578 860,-578 860,-538 860,-538 860,-532 866,-526 872,-526 872,-526 1044,-526 1044,-526 1050,-526 1056,-532 1056,-538 1056,-538 1056,-578 1056,-578 1056,-584 1050,-590 1044,-590"/>
<text text-anchor="start" x="896.8775" y="-576" font-family="arial" font-weight="bold" font-size="10.00" fill="#000000">CM Plants in Ancient Strata</text>
<text text-anchor="start" x="871.863" y="-559" font-family="arial" font-size="10.00" fill="#000000">In pre&#45;Old Red Sandstone strata, there</text>
<text text-anchor="start" x="881.3215" y="-547" font-family="arial" font-size="10.00" fill="#000000"> are fossil plants similar to those of</text>
<text text-anchor="start" x="888.5435" y="-535" font-family="arial" font-size="10.00" fill="#000000"> the Coal Measures &#160;#GRE #pri</text>
</g>
<!-- n17&#45;&gt;n26 -->
<g id="edge12" class="edge">
<title>n17&#45;&gt;n26</title>
<path fill="none" stroke="#ff0000" d="M957.2476,-525.6481C956.7279,-503.2992 956.021,-472.9023 955.3994,-446.174"/>
<polygon fill="#ff0000" stroke="#ff0000" points="958.8976,-446.05 955.1659,-436.1342 951.8994,-446.2129 958.8976,-446.05"/>
</g>
<!-- n28 -->
<g id="node25" class="node">
<title>n28</title>
<path fill="#f4a460" stroke="#000000" d="M1258,-430C1258,-430 1086,-430 1086,-430 1080,-430 1074,-424 1074,-418 1074,-418 1074,-354 1074,-354 1074,-348 1080,-342 1086,-342 1086,-342 1258,-342 1258,-342 1264,-342 1270,-348 1270,-354 1270,-354 1270,-418 1270,-418 1270,-424 1264,-430 1258,-430"/>
<text text-anchor="start" x="1089.481" y="-416" font-family="arial" font-weight="bold" font-size="10.00" fill="#000000">French Ancient Strata and CM Plants</text>
<text text-anchor="start" x="1085.868" y="-399" font-family="arial" font-size="10.00" fill="#000000">If there are no Coal Measures plants in</text>
<text text-anchor="start" x="1091.6965" y="-387" font-family="arial" font-size="10.00" fill="#000000"> pre&#45;Old Red Sandstone strata, then</text>
<text text-anchor="start" x="1085.0375" y="-375" font-family="arial" font-size="10.00" fill="#000000"> there were no Coal Measures plants in</text>
<text text-anchor="start" x="1085.867" y="-363" font-family="arial" font-size="10.00" fill="#000000"> French pre&#45;Old Red Sandstone strata </text>
<text text-anchor="start" x="1156.9975" y="-351" font-family="arial" font-size="10.00" fill="#000000"> #GRE</text>
</g>
<!-- n17&#45;&gt;n28 -->
<g id="edge14" class="edge">
<title>n17&#45;&gt;n28</title>
<path fill="none" stroke="#ff0000" d="M1002.5382,-525.9847C1021.967,-511.7335 1044.861,-494.5513 1065,-478.4 1081.4546,-465.2035 1098.9196,-450.4544 1114.8624,-436.6822"/>
<polygon fill="#ff0000" stroke="#ff0000" points="1117.2936,-439.2067 1122.5555,-430.0109 1112.7075,-433.9182 1117.2936,-439.2067"/>
</g>
<!-- n18 -->
<g id="node21" class="node">
<title>n18</title>
<path fill="#ffffff" stroke="#f4a460" stroke-width="2" d="M1151,-964C1151,-964 979,-964 979,-964 973,-964 967,-958 967,-952 967,-952 967,-876 967,-876 967,-870 973,-864 979,-864 979,-864 1151,-864 1151,-864 1157,-864 1163,-870 1163,-876 1163,-876 1163,-952 1163,-952 1163,-958 1157,-964 1151,-964"/>
<text text-anchor="start" x="982.492" y="-950" font-family="arial" font-weight="bold" font-size="10.00" fill="#000000">Flora Similarities as Best Explanation</text>
<text text-anchor="start" x="982.191" y="-933" font-family="arial" font-size="10.00" fill="#000000">The best explanation of the existence</text>
<text text-anchor="start" x="997.484" y="-921" font-family="arial" font-size="10.00" fill="#000000"> of coal in some strata G is the</text>
<text text-anchor="start" x="985.827" y="-909" font-family="arial" font-size="10.00" fill="#000000"> similarity between G&#39;s flora and the</text>
<text text-anchor="start" x="984.7015" y="-897" font-family="arial" font-size="10.00" fill="#000000"> one of the Coal Measures (the Coal</text>
<text text-anchor="start" x="985.8065" y="-885" font-family="arial" font-size="10.00" fill="#000000"> Measures being noted for the great</text>
<text text-anchor="start" x="983.3105" y="-873" font-family="arial" font-size="10.00" fill="#000000"> amounts of coal they contain) #GRE</text>
</g>
<!-- n18&#45;&gt;n27 -->
<g id="edge27" class="edge">
<title>n18&#45;&gt;n27</title>
<path fill="none" stroke="#00ff00" d="M1065,-863.7212C1065,-844.7879 1065,-822.8637 1065,-802.3142"/>
<polygon fill="#00ff00" stroke="#00ff00" points="1068.5001,-802.0375 1065,-792.0375 1061.5001,-802.0375 1068.5001,-802.0375"/>
</g>
<!-- n19 -->
<g id="node22" class="node">
<title>n19</title>
<path fill="#ffffff" stroke="#f4a460" stroke-width="2" d="M1258,-584C1258,-584 1086,-584 1086,-584 1080,-584 1074,-578 1074,-572 1074,-572 1074,-544 1074,-544 1074,-538 1080,-532 1086,-532 1086,-532 1258,-532 1258,-532 1264,-532 1270,-538 1270,-544 1270,-544 1270,-572 1270,-572 1270,-578 1264,-584 1258,-584"/>
<text text-anchor="start" x="1123.6545" y="-570" font-family="arial" font-weight="bold" font-size="10.00" fill="#000000">Ancient French Strata</text>
<text text-anchor="start" x="1089.7525" y="-553" font-family="arial" font-size="10.00" fill="#000000">In the Bocage, there are pre&#45;Old Red</text>
<text text-anchor="start" x="1090.03" y="-541" font-family="arial" font-size="10.00" fill="#000000"> Sandstone strata. #GRE #chron&#45;hyp</text>
</g>
<!-- n19&#45;&gt;n28 -->
<g id="edge28" class="edge">
<title>n19&#45;&gt;n28</title>
<path fill="none" stroke="#00ff00" d="M1172,-531.8769C1172,-507.6447 1172,-470.8213 1172,-440.2349"/>
<polygon fill="#00ff00" stroke="#00ff00" points="1175.5001,-440.1284 1172,-430.1285 1168.5001,-440.1285 1175.5001,-440.1284"/>
</g>
<!-- n26&#45;&gt;n2 -->
<g id="edge13" class="edge">
<title>n26&#45;&gt;n2</title>
<path fill="none" stroke="#ff0000" d="M958.4995,-335.9434C961.1269,-306.7129 964.3819,-270.5013 966.7577,-244.0708"/>
<polygon fill="#ff0000" stroke="#ff0000" points="970.2444,-244.3749 967.6538,-234.1017 963.2725,-243.7482 970.2444,-244.3749"/>
</g>
<!-- n27&#45;&gt;n17 -->
<g id="edge19" class="edge">
<title>n27&#45;&gt;n17</title>
<path fill="none" stroke="#00ff00" d="M1026.3705,-667.9041C1012.0189,-644.834 996.1163,-619.2711 983.2622,-598.6084"/>
<polygon fill="#00ff00" stroke="#00ff00" points="986.2075,-596.7168 977.9534,-590.0746 980.2638,-600.4144 986.2075,-596.7168"/>
</g>
<!-- n28&#45;&gt;n7 -->
<g id="edge15" class="edge">
<title>n28&#45;&gt;n7</title>
<path fill="none" stroke="#ff0000" d="M1174.9663,-342C1176.7187,-316.0065 1178.9396,-283.0633 1180.7407,-256.3458"/>
<polygon fill="#ff0000" stroke="#ff0000" points="1184.2531,-256.2788 1181.4338,-246.066 1177.269,-255.8079 1184.2531,-256.2788"/>
</g>
<!-- n20 -->
<g id="node26" class="node">
<title>n20</title>
<path fill="#ffffff" stroke="#f4a460" stroke-width="2" d="M1740,-430C1740,-430 1568,-430 1568,-430 1562,-430 1556,-424 1556,-418 1556,-418 1556,-354 1556,-354 1556,-348 1562,-342 1568,-342 1568,-342 1740,-342 1740,-342 1746,-342 1752,-348 1752,-354 1752,-354 1752,-418 1752,-418 1752,-424 1746,-430 1740,-430"/>
<text text-anchor="start" x="1612.049" y="-416" font-family="arial" font-weight="bold" font-size="10.00" fill="#000000">Formation of strata</text>
<text text-anchor="start" x="1582.606" y="-399" font-family="arial" font-size="10.00" fill="#000000">Strata are originally formed from</text>
<text text-anchor="start" x="1571.4775" y="-387" font-family="arial" font-size="10.00" fill="#000000"> sediments that were deposited in flat</text>
<text text-anchor="start" x="1583.979" y="-375" font-family="arial" font-size="10.00" fill="#000000"> horizontal sheets &#45; the younger</text>
<text text-anchor="start" x="1573.6955" y="-363" font-family="arial" font-size="10.00" fill="#000000"> sediments deposited on older ones.</text>
<text text-anchor="start" x="1629.275" y="-351" font-family="arial" font-size="10.00" fill="#000000"> #GRE #pri</text>
</g>
<!-- n20&#45;&gt;n29 -->
<g id="edge29" class="edge">
<title>n20&#45;&gt;n29</title>
<path fill="none" stroke="#00ff00" d="M1654,-342C1654,-317.9312 1654,-287.9038 1654,-262.3778"/>
<polygon fill="#00ff00" stroke="#00ff00" points="1657.5001,-262.1107 1654,-252.1107 1650.5001,-262.1108 1657.5001,-262.1107"/>
</g>
<!-- n30 -->
<g id="node31" class="node">
<title>n30</title>
<path fill="#f4a460" stroke="#000000" d="M1524,-252C1524,-252 1352,-252 1352,-252 1346,-252 1340,-246 1340,-240 1340,-240 1340,-176 1340,-176 1340,-170 1346,-164 1352,-164 1352,-164 1524,-164 1524,-164 1530,-164 1536,-170 1536,-176 1536,-176 1536,-240 1536,-240 1536,-246 1530,-252 1524,-252"/>
<text text-anchor="start" x="1373.817" y="-238" font-family="arial" font-weight="bold" font-size="10.00" fill="#000000">Exmoor and Devonian Strata</text>
<text text-anchor="start" x="1362.985" y="-221" font-family="arial" font-size="10.00" fill="#000000">Assuming that, originally, younger</text>
<text text-anchor="start" x="1357.1425" y="-209" font-family="arial" font-size="10.00" fill="#000000"> strata rest upon older ones, it holds:</text>
<text text-anchor="start" x="1371.3145" y="-197" font-family="arial" font-size="10.00" fill="#000000"> If the Exmoor strata is not the</text>
<text text-anchor="start" x="1363.5255" y="-185" font-family="arial" font-size="10.00" fill="#000000"> youngest, then there is no trough</text>
<text text-anchor="start" x="1384.655" y="-173" font-family="arial" font-size="10.00" fill="#000000"> through Exmoor &#160;#GRE</text>
</g>
<!-- n20&#45;&gt;n30 -->
<g id="edge30" class="edge">
<title>n20&#45;&gt;n30</title>
<path fill="none" stroke="#00ff00" d="M1600.6067,-342C1569.9717,-316.7545 1531.3818,-284.9535 1499.4841,-258.6675"/>
<polygon fill="#00ff00" stroke="#00ff00" points="1501.4708,-255.7693 1491.5276,-252.1107 1497.019,-261.1714 1501.4708,-255.7693"/>
</g>
<!-- n21 -->
<g id="node27" class="node">
<title>n21</title>
<path fill="#ffffff" stroke="#f4a460" stroke-width="2" d="M2182,-418C2182,-418 2010,-418 2010,-418 2004,-418 1998,-412 1998,-406 1998,-406 1998,-366 1998,-366 1998,-360 2004,-354 2010,-354 2010,-354 2182,-354 2182,-354 2188,-354 2194,-360 2194,-366 2194,-366 2194,-406 2194,-406 2194,-412 2188,-418 2182,-418"/>
<text text-anchor="start" x="2047.944" y="-404" font-family="arial" font-weight="bold" font-size="10.00" fill="#000000">Traversing Northward</text>
<text text-anchor="start" x="2016.5345" y="-387" font-family="arial" font-size="10.00" fill="#000000">The strata south of Exmoor become</text>
<text text-anchor="start" x="2013.476" y="-375" font-family="arial" font-size="10.00" fill="#000000"> progessively younger the furhter one</text>
<text text-anchor="start" x="2009.0405" y="-363" font-family="arial" font-size="10.00" fill="#000000"> traverses northward #GRE #chron&#45;hyp</text>
</g>
<!-- n21&#45;&gt;n29 -->
<g id="edge31" class="edge">
<title>n21&#45;&gt;n29</title>
<path fill="none" stroke="#00ff00" d="M2045.3587,-353.9891C2027.8842,-343.6679 2007.9361,-332.6674 1989,-324 1915.2566,-290.2462 1828.6729,-260.507 1762.005,-239.5924"/>
<polygon fill="#00ff00" stroke="#00ff00" points="1762.9058,-236.2071 1752.3172,-236.5712 1760.8217,-242.8897 1762.9058,-236.2071"/>
</g>
<!-- n22 -->
<g id="node28" class="node">
<title>n22</title>
<path fill="#ffffff" stroke="#f4a460" stroke-width="2" d="M1967.5,-448C1967.5,-448 1782.5,-448 1782.5,-448 1776.5,-448 1770.5,-442 1770.5,-436 1770.5,-436 1770.5,-336 1770.5,-336 1770.5,-330 1776.5,-324 1782.5,-324 1782.5,-324 1967.5,-324 1967.5,-324 1973.5,-324 1979.5,-330 1979.5,-336 1979.5,-336 1979.5,-436 1979.5,-436 1979.5,-442 1973.5,-448 1967.5,-448"/>
<text text-anchor="start" x="1795.4795" y="-434" font-family="arial" font-weight="bold" font-size="10.00" fill="#000000">Exmoor Trough as Best Explanation</text>
<text text-anchor="start" x="1802.4195" y="-417" font-family="arial" font-size="10.00" fill="#000000">Assuming that the strata south of</text>
<text text-anchor="start" x="1780.756" y="-405" font-family="arial" font-size="10.00" fill="#000000"> Exmoor become progessively younger the</text>
<text text-anchor="start" x="1794.6465" y="-393" font-family="arial" font-size="10.00" fill="#000000"> furhter one traverses northward and</text>
<text text-anchor="start" x="1798.817" y="-381" font-family="arial" font-size="10.00" fill="#000000"> that, originally, younger strata rest</text>
<text text-anchor="start" x="1796.301" y="-369" font-family="arial" font-size="10.00" fill="#000000"> upon older ones, the existence of a</text>
<text text-anchor="start" x="1794.367" y="-357" font-family="arial" font-size="10.00" fill="#000000"> trough running trough Exmoor is the</text>
<text text-anchor="start" x="1797.137" y="-345" font-family="arial" font-size="10.00" fill="#000000"> best explanation of the strata north</text>
<text text-anchor="start" x="1796.5905" y="-333" font-family="arial" font-size="10.00" fill="#000000"> of Exmoor being older &#160;#GRE #aux</text>
</g>
<!-- n22&#45;&gt;n29 -->
<g id="edge32" class="edge">
<title>n22&#45;&gt;n29</title>
<path fill="none" stroke="#00ff00" d="M1798.0152,-323.9941C1771.4874,-302.6278 1742.1131,-278.9689 1716.8493,-258.6207"/>
<polygon fill="#00ff00" stroke="#00ff00" points="1718.7835,-255.6845 1708.8,-252.1375 1714.3926,-261.1361 1718.7835,-255.6845"/>
</g>
<!-- n23 -->
<g id="node29" class="node">
<title>n23</title>
<path fill="#ffffff" stroke="#f4a460" stroke-width="2" d="M1526,-424C1526,-424 1350,-424 1350,-424 1344,-424 1338,-418 1338,-412 1338,-412 1338,-360 1338,-360 1338,-354 1344,-348 1350,-348 1350,-348 1526,-348 1526,-348 1532,-348 1538,-354 1538,-360 1538,-360 1538,-412 1538,-412 1538,-418 1532,-424 1526,-424"/>
<text text-anchor="start" x="1361.8685" y="-410" font-family="arial" font-weight="bold" font-size="10.00" fill="#000000">Exmoor Youngest Devonian strata</text>
<text text-anchor="start" x="1358.812" y="-393" font-family="arial" font-size="10.00" fill="#000000">In Devon, among all the strata older</text>
<text text-anchor="start" x="1347.6885" y="-381" font-family="arial" font-size="10.00" fill="#000000"> than the New Red Sandstone, the strata</text>
<text text-anchor="start" x="1360.1995" y="-369" font-family="arial" font-size="10.00" fill="#000000"> of Exmoor are the youngest #GRE</text>
<text text-anchor="start" x="1411.6045" y="-357" font-family="arial" font-size="10.00" fill="#000000"> #chron&#45;hyp</text>
</g>
<!-- n23&#45;&gt;n30 -->
<g id="edge16" class="edge">
<title>n23&#45;&gt;n30</title>
<path fill="none" stroke="#ff0000" d="M1438,-347.8145C1438,-322.9048 1438,-290.0084 1438,-262.3832"/>
<polygon fill="#ff0000" stroke="#ff0000" points="1441.5001,-262.0812 1438,-252.0813 1434.5001,-262.0813 1441.5001,-262.0812"/>
</g>
<!-- n29&#45;&gt;n4 -->
<g id="edge20" class="edge">
<title>n29&#45;&gt;n4</title>
<path fill="none" stroke="#00ff00" d="M1564.7062,-163.9217C1558.0917,-161.1133 1551.4749,-158.439 1545,-156 1461.9069,-124.6997 1364.9293,-97.8084 1292.4237,-79.5075"/>
<polygon fill="#00ff00" stroke="#00ff00" points="1292.9103,-76.0212 1282.3592,-76.9826 1291.207,-82.8108 1292.9103,-76.0212"/>
</g>
<!-- n30&#45;&gt;n4 -->
<g id="edge17" class="edge">
<title>n30&#45;&gt;n4</title>
<path fill="none" stroke="#ff0000" d="M1365.2138,-163.8698C1330.7526,-142.976 1289.7351,-118.1071 1255.4465,-97.3179"/>
<polygon fill="#ff0000" stroke="#ff0000" points="1257.2478,-94.317 1246.8821,-92.1254 1253.6186,-100.3028 1257.2478,-94.317"/>
</g>
</g>
</svg>
