
<!-- Generated by graphviz version 2.40.1 (20161225.0304)
 -->
<!-- Title: Argument Map Pages: 1 -->
<svg width="720pt" height="117pt"
 viewBox="0.00 0.00 720.00 116.88" xmlns="http://www.w3.org/2000/svg" xmlns:xlink="http://www.w3.org/1999/xlink">
<g id="graph0" class="graph" transform="scale(.2767 .2767) rotate(0) translate(4 418.4)">
<title>Argument Map</title>
<g id="clust3" class="cluster">
<title>cluster_3</title>
<polygon fill="#eedfcc" stroke="#eedfcc" points="2374,-286 2374,-400.4 2586,-400.4 2586,-286 2374,-286"/>
<text text-anchor="start" x="2415.6578" y="-385.6" font-family="arial" font-size="12.00" fill="#000000">Dating of the Main Culm</text>
</g>
<g id="clust1" class="cluster">
<title>cluster_1</title>
<polygon fill="#ffff00" stroke="#ffff00" points="8,-144 8,-400.4 1290,-400.4 1290,-144 8,-144"/>
<text text-anchor="start" x="624.3256" y="-385.6" font-family="arial" font-size="12.00" fill="#000000">Evidence</text>
</g>
<g id="clust2" class="cluster">
<title>cluster_2</title>
<polygon fill="#c6e2ff" stroke="#c6e2ff" points="1298,-8 1298,-406.4 2366,-406.4 2366,-8 1298,-8"/>
<text text-anchor="start" x="1735.3328" y="-391.6" font-family="arial" font-size="12.00" fill="#000000">Rocks, Fossils and Time &#45; Principles</text>
</g>
<!-- n0 -->
<g id="node1" class="node">
<title>n0</title>
<path fill="#ffffff" stroke="#ffff00" stroke-width="2" d="M200,-216C200,-216 28,-216 28,-216 22,-216 16,-210 16,-204 16,-204 16,-164 16,-164 16,-158 22,-152 28,-152 28,-152 200,-152 200,-152 206,-152 212,-158 212,-164 212,-164 212,-204 212,-204 212,-210 206,-216 200,-216"/>
<text text-anchor="start" x="32.305" y="-202" font-family="arial" font-weight="bold" font-size="10.00" fill="#000000">Unbroken Sequence of Devon Strata</text>
<text text-anchor="start" x="37.3125" y="-185" font-family="arial" font-size="10.00" fill="#000000">In Devon, all the strata &#45; older than</text>
<text text-anchor="start" x="37.0355" y="-173" font-family="arial" font-size="10.00" fill="#000000"> the New Red Sandstone &#45; form an</text>
<text text-anchor="start" x="39.8035" y="-161" font-family="arial" font-size="10.00" fill="#000000"> unbroken sequence of strata #ev</text>
</g>
<!-- n1 -->
<g id="node2" class="node">
<title>n1</title>
<path fill="#ffffff" stroke="#ffff00" stroke-width="2" d="M1270,-370C1270,-370 1098,-370 1098,-370 1092,-370 1086,-364 1086,-358 1086,-358 1086,-306 1086,-306 1086,-300 1092,-294 1098,-294 1098,-294 1270,-294 1270,-294 1276,-294 1282,-300 1282,-306 1282,-306 1282,-358 1282,-358 1282,-364 1276,-370 1270,-370"/>
<text text-anchor="start" x="1126.7755" y="-356" font-family="arial" font-weight="bold" font-size="10.00" fill="#000000">CM Plants in Devon Culm</text>
<text text-anchor="start" x="1097.5985" y="-339" font-family="arial" font-size="10.00" fill="#000000">Near Bideford (North Devon), there are</text>
<text text-anchor="start" x="1105.932" y="-327" font-family="arial" font-size="10.00" fill="#000000"> CM fossil plants in the main part of</text>
<text text-anchor="start" x="1102.321" y="-315" font-family="arial" font-size="10.00" fill="#000000"> the Culm strata (in close association</text>
<text text-anchor="start" x="1095.6525" y="-303" font-family="arial" font-size="10.00" fill="#000000"> with seams of imperfect anthracite) #ev</text>
</g>
<!-- n2 -->
<g id="node3" class="node">
<title>n2</title>
<path fill="#ffffff" stroke="#ffff00" stroke-width="2" d="M1056,-358C1056,-358 884,-358 884,-358 878,-358 872,-352 872,-346 872,-346 872,-318 872,-318 872,-312 878,-306 884,-306 884,-306 1056,-306 1056,-306 1062,-306 1068,-312 1068,-318 1068,-318 1068,-346 1068,-346 1068,-352 1062,-358 1056,-358"/>
<text text-anchor="start" x="933.607" y="-344" font-family="arial" font-weight="bold" font-size="10.00" fill="#000000">North of Exmoor</text>
<text text-anchor="start" x="883.871" y="-327" font-family="arial" font-size="10.00" fill="#000000">Passing Exmoor northwards, the strata</text>
<text text-anchor="start" x="928.8775" y="-315" font-family="arial" font-size="10.00" fill="#000000"> become older #ev</text>
</g>
<!-- n3 -->
<g id="node4" class="node">
<title>n3</title>
<path fill="#ffffff" stroke="#ffff00" stroke-width="2" d="M842,-370C842,-370 670,-370 670,-370 664,-370 658,-364 658,-358 658,-358 658,-306 658,-306 658,-300 664,-294 670,-294 670,-294 842,-294 842,-294 848,-294 854,-300 854,-306 854,-306 854,-358 854,-358 854,-364 848,-370 842,-370"/>
<text text-anchor="start" x="703.21" y="-356" font-family="arial" font-weight="bold" font-size="10.00" fill="#000000">Trough through Exmoor</text>
<text text-anchor="start" x="678.206" y="-339" font-family="arial" font-size="10.00" fill="#000000">There is a trough through Exmoor &#45;</text>
<text text-anchor="start" x="669.308" y="-327" font-family="arial" font-size="10.00" fill="#000000"> formed by a band of limestone running</text>
<text text-anchor="start" x="677.362" y="-315" font-family="arial" font-size="10.00" fill="#000000"> out to the north coast at Ilfracombe</text>
<text text-anchor="start" x="692.3625" y="-303" font-family="arial" font-size="10.00" fill="#000000"> and south of Barnstaple #ev</text>
</g>
<!-- n4 -->
<g id="node5" class="node">
<title>n4</title>
<path fill="#ffffff" stroke="#ffff00" stroke-width="2" d="M628,-364C628,-364 456,-364 456,-364 450,-364 444,-358 444,-352 444,-352 444,-312 444,-312 444,-306 450,-300 456,-300 456,-300 628,-300 628,-300 634,-300 640,-306 640,-312 640,-312 640,-352 640,-352 640,-358 634,-364 628,-364"/>
<text text-anchor="start" x="465.3105" y="-350" font-family="arial" font-weight="bold" font-size="10.00" fill="#000000">Instances of Coal in Ancient Strata</text>
<text text-anchor="start" x="460.3215" y="-333" font-family="arial" font-size="10.00" fill="#000000">In Munster, North America and North</text>
<text text-anchor="start" x="468.9245" y="-321" font-family="arial" font-size="10.00" fill="#000000"> Devon there are coal deposits in</text>
<text text-anchor="start" x="464.755" y="-309" font-family="arial" font-size="10.00" fill="#000000"> pre&#45;Old Red Sandstone strata #ev</text>
</g>
<!-- n5 -->
<g id="node6" class="node">
<title>n5</title>
<path fill="#ffffff" stroke="#ffff00" stroke-width="2" d="M414,-368C414,-368 242,-368 242,-368 236,-368 230,-362 230,-356 230,-356 230,-308 230,-308 230,-302 236,-296 242,-296 242,-296 414,-296 414,-296 420,-296 426,-302 426,-308 426,-308 426,-356 426,-356 426,-362 420,-368 414,-368"/>
<text text-anchor="start" x="242.4445" y="-354" font-family="arial" font-weight="bold" font-size="10.00" fill="#000000">Devonshire &#45; Characteristic CAM Rock</text>
<text text-anchor="start" x="315.497" y="-344" font-family="arial" font-weight="bold" font-size="10.00" fill="#000000"> Type</text>
<text text-anchor="start" x="251.3125" y="-329" font-family="arial" font-size="10.00" fill="#000000">In Devon, all the strata &#45; older than</text>
<text text-anchor="start" x="255.2" y="-317" font-family="arial" font-size="10.00" fill="#000000"> the New Red Sandstone &#45; are of</text>
<text text-anchor="start" x="248.819" y="-305" font-family="arial" font-size="10.00" fill="#000000"> caracteristic CAM appearance #ev </text>
</g>
<!-- n6 -->
<g id="node7" class="node">
<title>n6</title>
<path fill="#ffffff" stroke="#ffff00" stroke-width="2" d="M200,-370C200,-370 28,-370 28,-370 22,-370 16,-364 16,-358 16,-358 16,-306 16,-306 16,-300 22,-294 28,-294 28,-294 200,-294 200,-294 206,-294 212,-300 212,-306 212,-306 212,-358 212,-358 212,-364 206,-370 200,-370"/>
<text text-anchor="start" x="63.439" y="-356" font-family="arial" font-weight="bold" font-size="10.00" fill="#000000">Unconformity in Devon</text>
<text text-anchor="start" x="39.2545" y="-339" font-family="arial" font-size="10.00" fill="#000000">Between the Devon Culm and the</text>
<text text-anchor="start" x="37.866" y="-327" font-family="arial" font-size="10.00" fill="#000000"> juxtaposed strata, there is at least</text>
<text text-anchor="start" x="43.9895" y="-315" font-family="arial" font-size="10.00" fill="#000000"> one formation missing from the</text>
<text text-anchor="start" x="60.644" y="-303" font-family="arial" font-size="10.00" fill="#000000"> standard sequence #ev</text>
</g>
<!-- n6&#45;&gt;n0 -->
<g id="edge1" class="edge">
<title>n6&#45;&gt;n0</title>
<path fill="none" stroke="#ff0000" d="M114,-283.7151C114,-265.2946 114,-244.4462 114,-226.5927"/>
<polygon fill="#ff0000" stroke="#ff0000" points="110.5001,-283.8863 114,-293.8863 117.5001,-283.8864 110.5001,-283.8863"/>
<polygon fill="#ff0000" stroke="#ff0000" points="117.5001,-226.4678 114,-216.4678 110.5001,-226.4678 117.5001,-226.4678"/>
</g>
<!-- n7 -->
<g id="node8" class="node">
<title>n7</title>
<path fill="#ffffff" stroke="#c6e2ff" stroke-width="2" d="M2346,-370C2346,-370 2174,-370 2174,-370 2168,-370 2162,-364 2162,-358 2162,-358 2162,-306 2162,-306 2162,-300 2168,-294 2174,-294 2174,-294 2346,-294 2346,-294 2352,-294 2358,-300 2358,-306 2358,-306 2358,-358 2358,-358 2358,-364 2352,-370 2346,-370"/>
<text text-anchor="start" x="2201.664" y="-356" font-family="arial" font-weight="bold" font-size="10.00" fill="#000000">Characteristic Rock Types</text>
<text text-anchor="start" x="2188.8835" y="-339" font-family="arial" font-size="10.00" fill="#000000">A rock type r is characteristic for</text>
<text text-anchor="start" x="2187.777" y="-327" font-family="arial" font-size="10.00" fill="#000000"> some time interval dt iff (i) r only</text>
<text text-anchor="start" x="2184.9875" y="-315" font-family="arial" font-size="10.00" fill="#000000"> exisits during dt and (ii) during dt,</text>
<text text-anchor="start" x="2186.3745" y="-303" font-family="arial" font-size="10.00" fill="#000000"> every region supports r #dat&#45;met</text>
</g>
<!-- n10 -->
<g id="node11" class="node">
<title>n10</title>
<path fill="#ffffff" stroke="#c6e2ff" stroke-width="2" d="M2239,-216C2239,-216 2067,-216 2067,-216 2061,-216 2055,-210 2055,-204 2055,-204 2055,-164 2055,-164 2055,-158 2061,-152 2067,-152 2067,-152 2239,-152 2239,-152 2245,-152 2251,-158 2251,-164 2251,-164 2251,-204 2251,-204 2251,-210 2245,-216 2239,-216"/>
<text text-anchor="start" x="2076.6085" y="-202" font-family="arial" font-weight="bold" font-size="10.00" fill="#000000">Characteristic Rock Type Principle</text>
<text text-anchor="start" x="2067.1385" y="-185" font-family="arial" font-size="10.00" fill="#000000">There is a bijection between the age of</text>
<text text-anchor="start" x="2075.765" y="-173" font-family="arial" font-size="10.00" fill="#000000"> some strata t and its characteristic</text>
<text text-anchor="start" x="2107.713" y="-161" font-family="arial" font-size="10.00" fill="#000000"> rock types #dat&#45;met</text>
</g>
<!-- n7&#45;&gt;n10 -->
<g id="edge2" class="edge">
<title>n7&#45;&gt;n10</title>
<path fill="none" stroke="#00ff00" d="M2232.4448,-293.8863C2217.1388,-272.7154 2198.0946,-246.3738 2182.4893,-224.7889"/>
<polygon fill="#00ff00" stroke="#00ff00" points="2185.1686,-222.5211 2176.4733,-216.4678 2179.4959,-226.6223 2185.1686,-222.5211"/>
</g>
<!-- n8 -->
<g id="node9" class="node">
<title>n8</title>
<path fill="#ffffff" stroke="#c6e2ff" stroke-width="2" d="M2132,-364C2132,-364 1960,-364 1960,-364 1954,-364 1948,-358 1948,-352 1948,-352 1948,-312 1948,-312 1948,-306 1954,-300 1960,-300 1960,-300 2132,-300 2132,-300 2138,-300 2144,-306 2144,-312 2144,-312 2144,-352 2144,-352 2144,-358 2138,-364 2132,-364"/>
<text text-anchor="start" x="1959.044" y="-350" font-family="arial" font-weight="bold" font-size="10.00" fill="#000000">Existence of Characteristic Rock Types</text>
<text text-anchor="start" x="1970.7165" y="-333" font-family="arial" font-size="10.00" fill="#000000">For every time intervall dt, there is</text>
<text text-anchor="start" x="1976.827" y="-321" font-family="arial" font-size="10.00" fill="#000000"> some charactersitic rock type r</text>
<text text-anchor="start" x="2024.8845" y="-309" font-family="arial" font-size="10.00" fill="#000000"> #dat&#45;met</text>
</g>
<!-- n8&#45;&gt;n10 -->
<g id="edge3" class="edge">
<title>n8&#45;&gt;n10</title>
<path fill="none" stroke="#00ff00" d="M2069.2174,-299.8862C2085.272,-277.6799 2106.7514,-247.97 2123.9421,-224.1922"/>
<polygon fill="#00ff00" stroke="#00ff00" points="2126.8053,-226.2057 2129.8279,-216.0511 2121.1326,-222.1044 2126.8053,-226.2057"/>
</g>
<!-- n9 -->
<g id="node10" class="node">
<title>n9</title>
<path fill="#ffffff" stroke="#c6e2ff" stroke-width="2" d="M2239,-80C2239,-80 2067,-80 2067,-80 2061,-80 2055,-74 2055,-68 2055,-68 2055,-28 2055,-28 2055,-22 2061,-16 2067,-16 2067,-16 2239,-16 2239,-16 2245,-16 2251,-22 2251,-28 2251,-28 2251,-68 2251,-68 2251,-74 2245,-80 2239,-80"/>
<text text-anchor="start" x="2132.169" y="-66" font-family="arial" font-weight="bold" font-size="10.00" fill="#000000">CRTP &#45; 2</text>
<text text-anchor="start" x="2087.1485" y="-49" font-family="arial" font-size="10.00" fill="#000000">If two strata support the same</text>
<text text-anchor="start" x="2074.649" y="-37" font-family="arial" font-size="10.00" fill="#000000"> characteristic rock types, then they</text>
<text text-anchor="start" x="2086.034" y="-25" font-family="arial" font-size="10.00" fill="#000000"> are of the same age #dat&#45;met</text>
</g>
<!-- n10&#45;&gt;n9 -->
<g id="edge4" class="edge">
<title>n10&#45;&gt;n9</title>
<path fill="none" stroke="#00ff00" d="M2153,-151.7699C2153,-133.4422 2153,-110.2682 2153,-90.4712"/>
<polygon fill="#00ff00" stroke="#00ff00" points="2156.5001,-90.47 2153,-80.4701 2149.5001,-90.4701 2156.5001,-90.47"/>
</g>
<!-- n11 -->
<g id="node12" class="node">
<title>n11</title>
<path fill="#ffffff" stroke="#c6e2ff" stroke-width="2" d="M1918,-370C1918,-370 1746,-370 1746,-370 1740,-370 1734,-364 1734,-358 1734,-358 1734,-306 1734,-306 1734,-300 1740,-294 1746,-294 1746,-294 1918,-294 1918,-294 1924,-294 1930,-300 1930,-306 1930,-306 1930,-358 1930,-358 1930,-364 1924,-370 1918,-370"/>
<text text-anchor="start" x="1784.503" y="-356" font-family="arial" font-weight="bold" font-size="10.00" fill="#000000">Characteristic Fossils</text>
<text text-anchor="start" x="1758.938" y="-339" font-family="arial" font-size="10.00" fill="#000000">A fossil species f is characteristic</text>
<text text-anchor="start" x="1763.387" y="-327" font-family="arial" font-size="10.00" fill="#000000"> for some time interval dt iff (i) f</text>
<text text-anchor="start" x="1753.3775" y="-315" font-family="arial" font-size="10.00" fill="#000000"> only exisits during dt and (ii) during</text>
<text text-anchor="start" x="1751.7015" y="-303" font-family="arial" font-size="10.00" fill="#000000"> dt, every region supports f #dat&#45;met</text>
</g>
<!-- n14 -->
<g id="node15" class="node">
<title>n14</title>
<path fill="#ffffff" stroke="#c6e2ff" stroke-width="2" d="M1811,-216C1811,-216 1639,-216 1639,-216 1633,-216 1627,-210 1627,-204 1627,-204 1627,-164 1627,-164 1627,-158 1633,-152 1639,-152 1639,-152 1811,-152 1811,-152 1817,-152 1823,-158 1823,-164 1823,-164 1823,-204 1823,-204 1823,-210 1817,-216 1811,-216"/>
<text text-anchor="start" x="1656.9475" y="-202" font-family="arial" font-weight="bold" font-size="10.00" fill="#000000">Characteristic Fossils Principle</text>
<text text-anchor="start" x="1639.1385" y="-185" font-family="arial" font-size="10.00" fill="#000000">There is a bijection between the age of</text>
<text text-anchor="start" x="1647.765" y="-173" font-family="arial" font-size="10.00" fill="#000000"> some strata t and its characteristic</text>
<text text-anchor="start" x="1688.607" y="-161" font-family="arial" font-size="10.00" fill="#000000"> fossils #dat&#45;met</text>
</g>
<!-- n11&#45;&gt;n14 -->
<g id="edge5" class="edge">
<title>n11&#45;&gt;n14</title>
<path fill="none" stroke="#00ff00" d="M1804.4448,-293.8863C1789.1388,-272.7154 1770.0946,-246.3738 1754.4893,-224.7889"/>
<polygon fill="#00ff00" stroke="#00ff00" points="1757.1686,-222.5211 1748.4733,-216.4678 1751.4959,-226.6223 1757.1686,-222.5211"/>
</g>
<!-- n12 -->
<g id="node13" class="node">
<title>n12</title>
<path fill="#ffffff" stroke="#c6e2ff" stroke-width="2" d="M1704,-364C1704,-364 1532,-364 1532,-364 1526,-364 1520,-358 1520,-352 1520,-352 1520,-312 1520,-312 1520,-306 1526,-300 1532,-300 1532,-300 1704,-300 1704,-300 1710,-300 1716,-306 1716,-312 1716,-312 1716,-352 1716,-352 1716,-358 1710,-364 1704,-364"/>
<text text-anchor="start" x="1541.883" y="-350" font-family="arial" font-weight="bold" font-size="10.00" fill="#000000">Existence of Characteristic Fossils</text>
<text text-anchor="start" x="1542.7165" y="-333" font-family="arial" font-size="10.00" fill="#000000">For every time intervall dt, there is</text>
<text text-anchor="start" x="1539.6585" y="-321" font-family="arial" font-size="10.00" fill="#000000"> some charactersitic fossil species f</text>
<text text-anchor="start" x="1596.8845" y="-309" font-family="arial" font-size="10.00" fill="#000000"> #dat&#45;met</text>
</g>
<!-- n12&#45;&gt;n14 -->
<g id="edge6" class="edge">
<title>n12&#45;&gt;n14</title>
<path fill="none" stroke="#00ff00" d="M1641.2174,-299.8862C1657.272,-277.6799 1678.7514,-247.97 1695.9421,-224.1922"/>
<polygon fill="#00ff00" stroke="#00ff00" points="1698.8053,-226.2057 1701.8279,-216.0511 1693.1326,-222.1044 1698.8053,-226.2057"/>
</g>
<!-- n13 -->
<g id="node14" class="node">
<title>n13</title>
<path fill="#ffffff" stroke="#c6e2ff" stroke-width="2" d="M1811,-80C1811,-80 1639,-80 1639,-80 1633,-80 1627,-74 1627,-68 1627,-68 1627,-28 1627,-28 1627,-22 1633,-16 1639,-16 1639,-16 1811,-16 1811,-16 1817,-16 1823,-22 1823,-28 1823,-28 1823,-68 1823,-68 1823,-74 1817,-80 1811,-80"/>
<text text-anchor="start" x="1707.7785" y="-66" font-family="arial" font-weight="bold" font-size="10.00" fill="#000000">CFP &#45; 2</text>
<text text-anchor="start" x="1659.1485" y="-49" font-family="arial" font-size="10.00" fill="#000000">If two strata support the same</text>
<text text-anchor="start" x="1646.93" y="-37" font-family="arial" font-size="10.00" fill="#000000"> characteristic fossils, then they are</text>
<text text-anchor="start" x="1666.647" y="-25" font-family="arial" font-size="10.00" fill="#000000"> of the same age #dat&#45;met</text>
</g>
<!-- n14&#45;&gt;n13 -->
<g id="edge7" class="edge">
<title>n14&#45;&gt;n13</title>
<path fill="none" stroke="#00ff00" d="M1725,-151.7699C1725,-133.4422 1725,-110.2682 1725,-90.4712"/>
<polygon fill="#00ff00" stroke="#00ff00" points="1728.5001,-90.47 1725,-80.4701 1721.5001,-90.4701 1728.5001,-90.47"/>
</g>
<!-- n15 -->
<g id="node16" class="node">
<title>n15</title>
<path fill="#ffffff" stroke="#c6e2ff" stroke-width="2" d="M1490,-376C1490,-376 1318,-376 1318,-376 1312,-376 1306,-370 1306,-364 1306,-364 1306,-300 1306,-300 1306,-294 1312,-288 1318,-288 1318,-288 1490,-288 1490,-288 1496,-288 1502,-294 1502,-300 1502,-300 1502,-364 1502,-364 1502,-370 1496,-376 1490,-376"/>
<text text-anchor="start" x="1366.498" y="-362" font-family="arial" font-weight="bold" font-size="10.00" fill="#000000">Lyellian Principle</text>
<text text-anchor="start" x="1333.43" y="-345" font-family="arial" font-size="10.00" fill="#000000">At the earth&#39;s surface, there is a</text>
<text text-anchor="start" x="1319.8015" y="-333" font-family="arial" font-size="10.00" fill="#000000"> constant but piecemeal change in the</text>
<text text-anchor="start" x="1320.917" y="-321" font-family="arial" font-size="10.00" fill="#000000"> composition of the faunas and floras,</text>
<text text-anchor="start" x="1330.6555" y="-309" font-family="arial" font-size="10.00" fill="#000000"> in correlation with ever&#45;changing</text>
<text text-anchor="start" x="1332.043" y="-297" font-family="arial" font-size="10.00" fill="#000000"> physical environments #dat&#45;met</text>
</g>
<!-- n16 -->
<g id="node17" class="node">
<title>n16</title>
<path fill="#ffffff" stroke="#c6e2ff" stroke-width="2" d="M1490,-216C1490,-216 1318,-216 1318,-216 1312,-216 1306,-210 1306,-204 1306,-204 1306,-164 1306,-164 1306,-158 1312,-152 1318,-152 1318,-152 1490,-152 1490,-152 1496,-152 1502,-158 1502,-164 1502,-164 1502,-204 1502,-204 1502,-210 1496,-216 1490,-216"/>
<text text-anchor="start" x="1328.9995" y="-202" font-family="arial" font-weight="bold" font-size="10.00" fill="#000000">L2 &#45; Maximal Difference in Fossils</text>
<text text-anchor="start" x="1339.264" y="-185" font-family="arial" font-size="10.00" fill="#000000">If two strata are suffienciently</text>
<text text-anchor="start" x="1330.912" y="-173" font-family="arial" font-size="10.00" fill="#000000"> different in age, then they do not</text>
<text text-anchor="start" x="1317.8815" y="-161" font-family="arial" font-size="10.00" fill="#000000"> support similar fossil species #dat&#45;met</text>
</g>
<!-- n15&#45;&gt;n16 -->
<g id="edge8" class="edge">
<title>n15&#45;&gt;n16</title>
<path fill="none" stroke="#00ff00" d="M1404,-287.9958C1404,-268.4946 1404,-245.6478 1404,-226.3431"/>
<polygon fill="#00ff00" stroke="#00ff00" points="1407.5001,-226.3177 1404,-216.3178 1400.5001,-226.3178 1407.5001,-226.3177"/>
</g>
<!-- n17 -->
<g id="node18" class="node">
<title>n17</title>
<path fill="#ffffff" stroke="#ff8c00" stroke-width="2" d="M2566,-370C2566,-370 2394,-370 2394,-370 2388,-370 2382,-364 2382,-358 2382,-358 2382,-306 2382,-306 2382,-300 2388,-294 2394,-294 2394,-294 2566,-294 2566,-294 2572,-294 2578,-300 2578,-306 2578,-306 2578,-358 2578,-358 2578,-364 2572,-370 2566,-370"/>
<text text-anchor="start" x="2394.451" y="-356" font-family="arial" font-weight="bold" font-size="10.00" fill="#000000">Characteristic CM fossils in Main Culm</text>
<text text-anchor="start" x="2397.492" y="-339" font-family="arial" font-size="10.00" fill="#000000">Near Bideford (North Devon), the CM</text>
<text text-anchor="start" x="2396.3705" y="-327" font-family="arial" font-size="10.00" fill="#000000"> fossil plants supported by some main</text>
<text text-anchor="start" x="2404.4445" y="-315" font-family="arial" font-size="10.00" fill="#000000"> Culm strata are characteristic CM</text>
<text text-anchor="start" x="2429.1585" y="-303" font-family="arial" font-size="10.00" fill="#000000"> fossils #COA #fos&#45;hyp</text>
</g>
</g>
</svg>
