
<!-- Generated by graphviz version 2.40.1 (20161225.0304)
 -->
<!-- Title: Argument Map Pages: 1 -->
<svg width="720pt" height="224pt"
 viewBox="0.00 0.00 720.00 224.49" xmlns="http://www.w3.org/2000/svg" xmlns:xlink="http://www.w3.org/1999/xlink">
<g id="graph0" class="graph" transform="scale(.1855 .1855) rotate(0) translate(4 1206.4)">
<title>Argument Map</title>
<g id="clust1" class="cluster">
<title>cluster_1</title>
<polygon fill="#ffff00" stroke="#ffff00" points="1084,-588 1084,-862.4 3866,-862.4 3866,-588 1084,-588"/>
<text text-anchor="start" x="2450.3256" y="-847.6" font-family="arial" font-size="12.00" fill="#000000">Evidence</text>
</g>
<g id="clust2" class="cluster">
<title>cluster_2</title>
<polygon fill="#c6e2ff" stroke="#c6e2ff" points="8,-8 8,-1194.4 1076,-1194.4 1076,-8 8,-8"/>
<text text-anchor="start" x="445.3328" y="-1179.6" font-family="arial" font-size="12.00" fill="#000000">Rocks, Fossils and Time &#45; Principles</text>
</g>
<g id="clust3" class="cluster">
<title>cluster_3</title>
<polygon fill="#eedfcc" stroke="#eedfcc" points="1084,-144 1084,-258.4 1296,-258.4 1296,-144 1084,-144"/>
<text text-anchor="start" x="1125.6578" y="-243.6" font-family="arial" font-size="12.00" fill="#000000">Dating of the Main Culm</text>
</g>
<g id="clust4" class="cluster">
<title>cluster_4</title>
<polygon fill="#9fb6cd" stroke="#9fb6cd" points="1304,-144 1304,-258.4 1524,-258.4 1524,-144 1304,-144"/>
<text text-anchor="start" x="1311.9862" y="-243.6" font-family="arial" font-size="12.00" fill="#000000">Aporia II : CM Plants in non&#45;CM Strata</text>
</g>
<!-- n0 -->
<g id="node1" class="node">
<title>n0</title>
<path fill="#ffffff" stroke="#ffff00" stroke-width="2" d="M1490,-826C1490,-826 1318,-826 1318,-826 1312,-826 1306,-820 1306,-814 1306,-814 1306,-774 1306,-774 1306,-768 1312,-762 1318,-762 1318,-762 1490,-762 1490,-762 1496,-762 1502,-768 1502,-774 1502,-774 1502,-814 1502,-814 1502,-820 1496,-826 1490,-826"/>
<text text-anchor="start" x="1322.305" y="-812" font-family="arial" font-weight="bold" font-size="10.00" fill="#000000">Unbroken Sequence of Devon Strata</text>
<text text-anchor="start" x="1327.3125" y="-795" font-family="arial" font-size="10.00" fill="#000000">In Devon, all the strata &#45; older than</text>
<text text-anchor="start" x="1327.0355" y="-783" font-family="arial" font-size="10.00" fill="#000000"> the New Red Sandstone &#45; form an</text>
<text text-anchor="start" x="1329.8035" y="-771" font-family="arial" font-size="10.00" fill="#000000"> unbroken sequence of strata #ev</text>
</g>
<!-- n6 -->
<g id="node7" class="node">
<title>n6</title>
<path fill="#ffffff" stroke="#ffff00" stroke-width="2" d="M1490,-672C1490,-672 1318,-672 1318,-672 1312,-672 1306,-666 1306,-660 1306,-660 1306,-608 1306,-608 1306,-602 1312,-596 1318,-596 1318,-596 1490,-596 1490,-596 1496,-596 1502,-602 1502,-608 1502,-608 1502,-660 1502,-660 1502,-666 1496,-672 1490,-672"/>
<text text-anchor="start" x="1353.439" y="-658" font-family="arial" font-weight="bold" font-size="10.00" fill="#000000">Unconformity in Devon</text>
<text text-anchor="start" x="1329.2545" y="-641" font-family="arial" font-size="10.00" fill="#000000">Between the Devon Culm and the</text>
<text text-anchor="start" x="1327.866" y="-629" font-family="arial" font-size="10.00" fill="#000000"> juxtaposed strata, there is at least</text>
<text text-anchor="start" x="1333.9895" y="-617" font-family="arial" font-size="10.00" fill="#000000"> one formation missing from the</text>
<text text-anchor="start" x="1350.644" y="-605" font-family="arial" font-size="10.00" fill="#000000"> standard sequence #ev</text>
</g>
<!-- n0&#45;&gt;n6 -->
<g id="edge2" class="edge">
<title>n0&#45;&gt;n6</title>
<path fill="none" stroke="#ff0000" d="M1398.4514,-761.6216C1397.14,-738.9092 1396.9022,-708.1451 1397.738,-682.5126"/>
<polygon fill="#ff0000" stroke="#ff0000" points="1401.2461,-682.3752 1398.1446,-672.2445 1394.2516,-682.0982 1401.2461,-682.3752"/>
</g>
<!-- n1 -->
<g id="node2" class="node">
<title>n1</title>
<path fill="#ffffff" stroke="#ffff00" stroke-width="2" d="M3632,-832C3632,-832 3460,-832 3460,-832 3454,-832 3448,-826 3448,-820 3448,-820 3448,-768 3448,-768 3448,-762 3454,-756 3460,-756 3460,-756 3632,-756 3632,-756 3638,-756 3644,-762 3644,-768 3644,-768 3644,-820 3644,-820 3644,-826 3638,-832 3632,-832"/>
<text text-anchor="start" x="3488.7755" y="-818" font-family="arial" font-weight="bold" font-size="10.00" fill="#000000">CM Plants in Devon Culm</text>
<text text-anchor="start" x="3459.5985" y="-801" font-family="arial" font-size="10.00" fill="#000000">Near Bideford (North Devon), there are</text>
<text text-anchor="start" x="3467.932" y="-789" font-family="arial" font-size="10.00" fill="#000000"> CM fossil plants in the main part of</text>
<text text-anchor="start" x="3464.321" y="-777" font-family="arial" font-size="10.00" fill="#000000"> the Culm strata (in close association</text>
<text text-anchor="start" x="3457.6525" y="-765" font-family="arial" font-size="10.00" fill="#000000"> with seams of imperfect anthracite) #ev</text>
</g>
<!-- n2 -->
<g id="node3" class="node">
<title>n2</title>
<path fill="#ffffff" stroke="#ffff00" stroke-width="2" d="M3418,-820C3418,-820 3246,-820 3246,-820 3240,-820 3234,-814 3234,-808 3234,-808 3234,-780 3234,-780 3234,-774 3240,-768 3246,-768 3246,-768 3418,-768 3418,-768 3424,-768 3430,-774 3430,-780 3430,-780 3430,-808 3430,-808 3430,-814 3424,-820 3418,-820"/>
<text text-anchor="start" x="3295.607" y="-806" font-family="arial" font-weight="bold" font-size="10.00" fill="#000000">North of Exmoor</text>
<text text-anchor="start" x="3245.871" y="-789" font-family="arial" font-size="10.00" fill="#000000">Passing Exmoor northwards, the strata</text>
<text text-anchor="start" x="3290.8775" y="-777" font-family="arial" font-size="10.00" fill="#000000"> become older #ev</text>
</g>
<!-- n3 -->
<g id="node4" class="node">
<title>n3</title>
<path fill="#ffffff" stroke="#ffff00" stroke-width="2" d="M3204,-832C3204,-832 3032,-832 3032,-832 3026,-832 3020,-826 3020,-820 3020,-820 3020,-768 3020,-768 3020,-762 3026,-756 3032,-756 3032,-756 3204,-756 3204,-756 3210,-756 3216,-762 3216,-768 3216,-768 3216,-820 3216,-820 3216,-826 3210,-832 3204,-832"/>
<text text-anchor="start" x="3065.21" y="-818" font-family="arial" font-weight="bold" font-size="10.00" fill="#000000">Trough through Exmoor</text>
<text text-anchor="start" x="3040.206" y="-801" font-family="arial" font-size="10.00" fill="#000000">There is a trough through Exmoor &#45;</text>
<text text-anchor="start" x="3031.308" y="-789" font-family="arial" font-size="10.00" fill="#000000"> formed by a band of limestone running</text>
<text text-anchor="start" x="3039.362" y="-777" font-family="arial" font-size="10.00" fill="#000000"> out to the north coast at Ilfracombe</text>
<text text-anchor="start" x="3054.3625" y="-765" font-family="arial" font-size="10.00" fill="#000000"> and south of Barnstaple #ev</text>
</g>
<!-- n4 -->
<g id="node5" class="node">
<title>n4</title>
<path fill="#ffffff" stroke="#ffff00" stroke-width="2" d="M2990,-826C2990,-826 2818,-826 2818,-826 2812,-826 2806,-820 2806,-814 2806,-814 2806,-774 2806,-774 2806,-768 2812,-762 2818,-762 2818,-762 2990,-762 2990,-762 2996,-762 3002,-768 3002,-774 3002,-774 3002,-814 3002,-814 3002,-820 2996,-826 2990,-826"/>
<text text-anchor="start" x="2827.3105" y="-812" font-family="arial" font-weight="bold" font-size="10.00" fill="#000000">Instances of Coal in Ancient Strata</text>
<text text-anchor="start" x="2822.3215" y="-795" font-family="arial" font-size="10.00" fill="#000000">In Munster, North America and North</text>
<text text-anchor="start" x="2830.9245" y="-783" font-family="arial" font-size="10.00" fill="#000000"> Devon there are coal deposits in</text>
<text text-anchor="start" x="2826.755" y="-771" font-family="arial" font-size="10.00" fill="#000000"> pre&#45;Old Red Sandstone strata #ev</text>
</g>
<!-- n5 -->
<g id="node6" class="node">
<title>n5</title>
<path fill="#ffffff" stroke="#ffff00" stroke-width="2" d="M1704,-830C1704,-830 1532,-830 1532,-830 1526,-830 1520,-824 1520,-818 1520,-818 1520,-770 1520,-770 1520,-764 1526,-758 1532,-758 1532,-758 1704,-758 1704,-758 1710,-758 1716,-764 1716,-770 1716,-770 1716,-818 1716,-818 1716,-824 1710,-830 1704,-830"/>
<text text-anchor="start" x="1532.4445" y="-816" font-family="arial" font-weight="bold" font-size="10.00" fill="#000000">Devonshire &#45; Characteristic CAM Rock</text>
<text text-anchor="start" x="1605.497" y="-806" font-family="arial" font-weight="bold" font-size="10.00" fill="#000000"> Type</text>
<text text-anchor="start" x="1541.3125" y="-791" font-family="arial" font-size="10.00" fill="#000000">In Devon, all the strata &#45; older than</text>
<text text-anchor="start" x="1545.2" y="-779" font-family="arial" font-size="10.00" fill="#000000"> the New Red Sandstone &#45; are of</text>
<text text-anchor="start" x="1536.0395" y="-767" font-family="arial" font-size="10.00" fill="#000000"> carachteristic CAM appearance #ev </text>
</g>
<!-- n6&#45;&gt;n0 -->
<g id="edge1" class="edge">
<title>n6&#45;&gt;n0</title>
<path fill="none" stroke="#ff0000" d="M1409.8554,-672.2445C1410.982,-696.1062 1411.0445,-726.8542 1410.043,-751.4803"/>
<polygon fill="#ff0000" stroke="#ff0000" points="1406.5398,-751.463 1409.5486,-761.6216 1413.5315,-751.8039 1406.5398,-751.463"/>
</g>
<!-- n7 -->
<g id="node8" class="node">
<title>n7</title>
<path fill="#ffffff" stroke="#ffff00" stroke-width="2" d="M2560,-820C2560,-820 2388,-820 2388,-820 2382,-820 2376,-814 2376,-808 2376,-808 2376,-780 2376,-780 2376,-774 2382,-768 2388,-768 2388,-768 2560,-768 2560,-768 2566,-768 2572,-774 2572,-780 2572,-780 2572,-808 2572,-808 2572,-814 2566,-820 2560,-820"/>
<text text-anchor="start" x="2405.104" y="-806" font-family="arial" font-weight="bold" font-size="10.00" fill="#000000">Coal in French Pre&#45;ORS Strata</text>
<text text-anchor="start" x="2396.481" y="-789" font-family="arial" font-size="10.00" fill="#000000">In northwest France, there are coal</text>
<text text-anchor="start" x="2402.874" y="-777" font-family="arial" font-size="10.00" fill="#000000"> deposits in pre&#45;ORS strata. #ev</text>
</g>
<!-- n8 -->
<g id="node9" class="node">
<title>n8</title>
<path fill="#ffffff" stroke="#ffff00" stroke-width="2" d="M2346,-826C2346,-826 2174,-826 2174,-826 2168,-826 2162,-820 2162,-814 2162,-814 2162,-774 2162,-774 2162,-768 2168,-762 2174,-762 2174,-762 2346,-762 2346,-762 2352,-762 2358,-768 2358,-774 2358,-774 2358,-814 2358,-814 2358,-820 2352,-826 2346,-826"/>
<text text-anchor="start" x="2181.9305" y="-812" font-family="arial" font-weight="bold" font-size="10.00" fill="#000000">CM Plants in Ancient French Strata</text>
<text text-anchor="start" x="2172.763" y="-795" font-family="arial" font-size="10.00" fill="#000000">In northwest France, in pre&#45;ORS strata,</text>
<text text-anchor="start" x="2178.0355" y="-783" font-family="arial" font-size="10.00" fill="#000000"> associated with seams of coal, there</text>
<text text-anchor="start" x="2190.268" y="-771" font-family="arial" font-size="10.00" fill="#000000"> are some CM fossil plants #ev </text>
</g>
<!-- n9 -->
<g id="node10" class="node">
<title>n9</title>
<path fill="#ffffff" stroke="#ffff00" stroke-width="2" d="M3846,-832C3846,-832 3674,-832 3674,-832 3668,-832 3662,-826 3662,-820 3662,-820 3662,-768 3662,-768 3662,-762 3668,-756 3674,-756 3674,-756 3846,-756 3846,-756 3852,-756 3858,-762 3858,-768 3858,-768 3858,-820 3858,-820 3858,-826 3852,-832 3846,-832"/>
<text text-anchor="start" x="3733.3295" y="-818" font-family="arial" font-weight="bold" font-size="10.00" fill="#000000">French Alps</text>
<text text-anchor="start" x="3683.0355" y="-801" font-family="arial" font-size="10.00" fill="#000000">In the French Alps, there are some</text>
<text text-anchor="start" x="3701.1115" y="-789" font-family="arial" font-size="10.00" fill="#000000"> characteristic Oolitic fossil</text>
<text text-anchor="start" x="3678.8755" y="-777" font-family="arial" font-size="10.00" fill="#000000"> belemnites and CM plants in closely</text>
<text text-anchor="start" x="3711.3735" y="-765" font-family="arial" font-size="10.00" fill="#000000"> associated strata #ev</text>
</g>
<!-- n11 -->
<g id="node11" class="node">
<title>n11</title>
<path fill="#ffffff" stroke="#ffff00" stroke-width="2" d="M1918,-826C1918,-826 1746,-826 1746,-826 1740,-826 1734,-820 1734,-814 1734,-814 1734,-774 1734,-774 1734,-768 1740,-762 1746,-762 1746,-762 1918,-762 1918,-762 1924,-762 1930,-768 1930,-774 1930,-774 1930,-814 1930,-814 1930,-820 1924,-826 1918,-826"/>
<text text-anchor="start" x="1749.487" y="-812" font-family="arial" font-weight="bold" font-size="10.00" fill="#000000">Munster Coal in Carboniferous Strata</text>
<text text-anchor="start" x="1762.8225" y="-795" font-family="arial" font-size="10.00" fill="#000000">In Munster, some strata closely</text>
<text text-anchor="start" x="1747.256" y="-783" font-family="arial" font-size="10.00" fill="#000000"> associated with seams of coal are not</text>
<text text-anchor="start" x="1785.0445" y="-771" font-family="arial" font-size="10.00" fill="#000000"> pre&#45;ORS in age #ev </text>
</g>
<!-- n12 -->
<g id="node12" class="node">
<title>n12</title>
<path fill="#ffffff" stroke="#ffff00" stroke-width="2" d="M2776,-832C2776,-832 2602,-832 2602,-832 2596,-832 2590,-826 2590,-820 2590,-820 2590,-768 2590,-768 2590,-762 2596,-756 2602,-756 2602,-756 2776,-756 2776,-756 2782,-756 2788,-762 2788,-768 2788,-768 2788,-820 2788,-820 2788,-826 2782,-832 2776,-832"/>
<text text-anchor="start" x="2655.3855" y="-818" font-family="arial" font-weight="bold" font-size="10.00" fill="#000000">Pembrokeshire</text>
<text text-anchor="start" x="2620.098" y="-801" font-family="arial" font-size="10.00" fill="#000000">The strata near Pembrokeshire</text>
<text text-anchor="start" x="2632.326" y="-789" font-family="arial" font-size="10.00" fill="#000000"> (southwest Wales) are of</text>
<text text-anchor="start" x="2599.5365" y="-777" font-family="arial" font-size="10.00" fill="#000000"> characteristic pre&#45;ORS appearance and</text>
<text text-anchor="start" x="2653.992" y="-765" font-family="arial" font-size="10.00" fill="#000000"> CM in age #ev </text>
</g>
<!-- n14 -->
<g id="node13" class="node">
<title>n14</title>
<path fill="#ffffff" stroke="#ffff00" stroke-width="2" d="M2132,-820C2132,-820 1960,-820 1960,-820 1954,-820 1948,-814 1948,-808 1948,-808 1948,-780 1948,-780 1948,-774 1954,-768 1960,-768 1960,-768 2132,-768 2132,-768 2138,-768 2144,-774 2144,-780 2144,-780 2144,-808 2144,-808 2144,-814 2138,-820 2132,-820"/>
<text text-anchor="start" x="1979.5935" y="-806" font-family="arial" font-weight="bold" font-size="10.00" fill="#000000">LV in Fauna and Flora &#45;Today</text>
<text text-anchor="start" x="1969.596" y="-789" font-family="arial" font-size="10.00" fill="#000000">Today, there are local variations in</text>
<text text-anchor="start" x="2001.8145" y="-777" font-family="arial" font-size="10.00" fill="#000000"> fauna and flora #ev</text>
</g>
<!-- n15 -->
<g id="node14" class="node">
<title>n15</title>
<path fill="#ffffff" stroke="#ffff00" stroke-width="2" d="M1276,-820C1276,-820 1104,-820 1104,-820 1098,-820 1092,-814 1092,-808 1092,-808 1092,-780 1092,-780 1092,-774 1098,-768 1104,-768 1104,-768 1276,-768 1276,-768 1282,-768 1288,-774 1288,-780 1288,-780 1288,-808 1288,-808 1288,-814 1282,-820 1276,-820"/>
<text text-anchor="start" x="1131.101" y="-806" font-family="arial" font-weight="bold" font-size="10.00" fill="#000000">LV in Evironments &#45; Today</text>
<text text-anchor="start" x="1113.596" y="-789" font-family="arial" font-size="10.00" fill="#000000">Today, there are local variations in</text>
<text text-anchor="start" x="1123.8725" y="-777" font-family="arial" font-size="10.00" fill="#000000"> environmental conditions #ev</text>
</g>
<!-- n31 -->
<g id="node30" class="node">
<title>n31</title>
<path fill="#c6e2ff" stroke="#000000" d="M1056,-1004C1056,-1004 884,-1004 884,-1004 878,-1004 872,-998 872,-992 872,-992 872,-916 872,-916 872,-910 878,-904 884,-904 884,-904 1056,-904 1056,-904 1062,-904 1068,-910 1068,-916 1068,-916 1068,-992 1068,-992 1068,-998 1062,-1004 1056,-1004"/>
<text text-anchor="start" x="903.5985" y="-990" font-family="arial" font-weight="bold" font-size="10.00" fill="#000000">Local Environmental Variation</text>
<text text-anchor="start" x="892.482" y="-973" font-family="arial" font-size="10.00" fill="#000000">If today there are local variations in</text>
<text text-anchor="start" x="884.417" y="-961" font-family="arial" font-size="10.00" fill="#000000"> environmental conditions and the past</text>
<text text-anchor="start" x="895.2565" y="-949" font-family="arial" font-size="10.00" fill="#000000"> can be inferred from today, in the</text>
<text text-anchor="start" x="897.47" y="-937" font-family="arial" font-size="10.00" fill="#000000"> past, then there have been local</text>
<text text-anchor="start" x="885.262" y="-925" font-family="arial" font-size="10.00" fill="#000000"> variations in environmental conditions</text>
<text text-anchor="start" x="948.8845" y="-913" font-family="arial" font-size="10.00" fill="#000000"> #dat&#45;met</text>
</g>
<!-- n15&#45;&gt;n31 -->
<g id="edge19" class="edge">
<title>n15&#45;&gt;n31</title>
<path fill="none" stroke="#00ff00" d="M1154.1473,-820.0747C1125.2454,-841.0943 1083.5654,-871.407 1047.166,-897.8793"/>
<polygon fill="#00ff00" stroke="#00ff00" points="1045.0345,-895.1017 1039.0058,-903.814 1049.1518,-900.7628 1045.0345,-895.1017"/>
</g>
<!-- n32 -->
<g id="node31" class="node">
<title>n32</title>
<path fill="#c6e2ff" stroke="#000000" d="M1056,-684C1056,-684 884,-684 884,-684 878,-684 872,-678 872,-672 872,-672 872,-596 872,-596 872,-590 878,-584 884,-584 884,-584 1056,-584 1056,-584 1062,-584 1068,-590 1068,-596 1068,-596 1068,-672 1068,-672 1068,-678 1062,-684 1056,-684"/>
<text text-anchor="start" x="899.714" y="-670" font-family="arial" font-weight="bold" font-size="10.00" fill="#000000">Local Ecological Variations &#45; FF</text>
<text text-anchor="start" x="884.7075" y="-653" font-family="arial" font-size="10.00" fill="#000000">If there are always local environmental</text>
<text text-anchor="start" x="893.311" y="-641" font-family="arial" font-size="10.00" fill="#000000"> variations and a bijection between</text>
<text text-anchor="start" x="888.3065" y="-629" font-family="arial" font-size="10.00" fill="#000000"> environmental conditions, fauna and</text>
<text text-anchor="start" x="896.651" y="-617" font-family="arial" font-size="10.00" fill="#000000"> flora, then there are always local</text>
<text text-anchor="start" x="898.866" y="-605" font-family="arial" font-size="10.00" fill="#000000"> variations in the fauna and flora</text>
<text text-anchor="start" x="948.8845" y="-593" font-family="arial" font-size="10.00" fill="#000000"> #dat&#45;met</text>
</g>
<!-- n15&#45;&gt;n32 -->
<g id="edge20" class="edge">
<title>n15&#45;&gt;n32</title>
<path fill="none" stroke="#00ff00" d="M1154.1636,-767.9371C1125.2986,-746.9444 1083.6805,-716.6767 1047.3078,-690.2239"/>
<polygon fill="#00ff00" stroke="#00ff00" points="1049.299,-687.3443 1039.153,-684.2931 1045.1818,-693.0054 1049.299,-687.3443"/>
</g>
<!-- n10 -->
<g id="node15" class="node">
<title>n10</title>
<path fill="#ffffff" stroke="#c6e2ff" stroke-width="2" d="M1056,-370C1056,-370 884,-370 884,-370 878,-370 872,-364 872,-358 872,-358 872,-318 872,-318 872,-312 878,-306 884,-306 884,-306 1056,-306 1056,-306 1062,-306 1068,-312 1068,-318 1068,-318 1068,-358 1068,-358 1068,-364 1062,-370 1056,-370"/>
<text text-anchor="start" x="914.7245" y="-356" font-family="arial" font-weight="bold" font-size="10.00" fill="#000000">No Characteristic Fossils</text>
<text text-anchor="start" x="889.425" y="-339" font-family="arial" font-size="10.00" fill="#000000">There is no fossil species FS and no</text>
<text text-anchor="start" x="896.6515" y="-327" font-family="arial" font-size="10.00" fill="#000000"> time intervall dt such that, during</text>
<text text-anchor="start" x="884.702" y="-315" font-family="arial" font-size="10.00" fill="#000000"> dt, every region supports FS #dat&#45;met</text>
</g>
<!-- n10&#45;&gt;n9 -->
<g id="edge3" class="edge">
<title>n10&#45;&gt;n9</title>
<path fill="none" stroke="#ff0000" d="M1068.1741,-346.6152C1420.4565,-378.9279 2652.5665,-504.0207 3652.0644,-755.8834"/>
<polygon fill="#ff0000" stroke="#ff0000" points="3651.4194,-759.3303 3661.9721,-758.3861 3653.1339,-752.5435 3651.4194,-759.3303"/>
</g>
<!-- n21 -->
<g id="node22" class="node">
<title>n21</title>
<path fill="#ffffff" stroke="#c6e2ff" stroke-width="2" d="M949,-222C949,-222 777,-222 777,-222 771,-222 765,-216 765,-210 765,-210 765,-170 765,-170 765,-164 771,-158 777,-158 777,-158 949,-158 949,-158 955,-158 961,-164 961,-170 961,-170 961,-210 961,-210 961,-216 955,-222 949,-222"/>
<text text-anchor="start" x="794.9475" y="-208" font-family="arial" font-weight="bold" font-size="10.00" fill="#000000">Characteristic Fossils Principle</text>
<text text-anchor="start" x="777.1385" y="-191" font-family="arial" font-size="10.00" fill="#000000">There is a bijection between the age of</text>
<text text-anchor="start" x="785.765" y="-179" font-family="arial" font-size="10.00" fill="#000000"> some strata t and its characteristic</text>
<text text-anchor="start" x="826.607" y="-167" font-family="arial" font-size="10.00" fill="#000000"> fossils #dat&#45;met</text>
</g>
<!-- n10&#45;&gt;n21 -->
<g id="edge12" class="edge">
<title>n10&#45;&gt;n21</title>
<path fill="none" stroke="#ff0000" d="M946.7826,-305.8862C930.728,-283.6799 909.2486,-253.97 892.0579,-230.1922"/>
<polygon fill="#ff0000" stroke="#ff0000" points="894.8674,-228.1044 886.1721,-222.0511 889.1947,-232.2057 894.8674,-228.1044"/>
</g>
<!-- n29 -->
<g id="node32" class="node">
<title>n29</title>
<path fill="#ffffff" stroke="#ff8c00" stroke-width="2" d="M1276,-228C1276,-228 1104,-228 1104,-228 1098,-228 1092,-222 1092,-216 1092,-216 1092,-164 1092,-164 1092,-158 1098,-152 1104,-152 1104,-152 1276,-152 1276,-152 1282,-152 1288,-158 1288,-164 1288,-164 1288,-216 1288,-216 1288,-222 1282,-228 1276,-228"/>
<text text-anchor="start" x="1104.451" y="-214" font-family="arial" font-weight="bold" font-size="10.00" fill="#000000">Characteristic CM fossils in Main Culm</text>
<text text-anchor="start" x="1107.492" y="-197" font-family="arial" font-size="10.00" fill="#000000">Near Bideford (North Devon), the CM</text>
<text text-anchor="start" x="1106.3705" y="-185" font-family="arial" font-size="10.00" fill="#000000"> fossil plants supported by some main</text>
<text text-anchor="start" x="1114.4445" y="-173" font-family="arial" font-size="10.00" fill="#000000"> Culm strata are characteristic CM</text>
<text text-anchor="start" x="1139.1585" y="-161" font-family="arial" font-size="10.00" fill="#000000"> fossils #COA #fos&#45;hyp</text>
</g>
<!-- n10&#45;&gt;n29 -->
<g id="edge13" class="edge">
<title>n10&#45;&gt;n29</title>
<path fill="none" stroke="#ff0000" d="M1017.7367,-305.8862C1049.0756,-284.8037 1090.4681,-256.9579 1124.8235,-233.846"/>
<polygon fill="#ff0000" stroke="#ff0000" points="1127.0523,-236.565 1133.3959,-228.0791 1123.145,-230.7569 1127.0523,-236.565"/>
</g>
<!-- n30 -->
<g id="node33" class="node">
<title>n30</title>
<path fill="#ffffff" stroke="#ff8c00" stroke-width="2" d="M1499.5,-228C1499.5,-228 1324.5,-228 1324.5,-228 1318.5,-228 1312.5,-222 1312.5,-216 1312.5,-216 1312.5,-164 1312.5,-164 1312.5,-158 1318.5,-152 1324.5,-152 1324.5,-152 1499.5,-152 1499.5,-152 1505.5,-152 1511.5,-158 1511.5,-164 1511.5,-164 1511.5,-216 1511.5,-216 1511.5,-222 1505.5,-228 1499.5,-228"/>
<text text-anchor="start" x="1322.501" y="-214" font-family="arial" font-weight="bold" font-size="10.00" fill="#000000">Characteristic CM Fossils in French Alps</text>
<text text-anchor="start" x="1338.8785" y="-197" font-family="arial" font-size="10.00" fill="#000000">The French alpine fossils, closely</text>
<text text-anchor="start" x="1334.7105" y="-185" font-family="arial" font-size="10.00" fill="#000000"> associated with Oolitic belemnites,</text>
<text text-anchor="start" x="1326.377" y="-173" font-family="arial" font-size="10.00" fill="#000000"> are characteristic of the CM era #COA</text>
<text text-anchor="start" x="1391.9385" y="-161" font-family="arial" font-size="10.00" fill="#000000"> #fos&#45;hyp</text>
</g>
<!-- n10&#45;&gt;n30 -->
<g id="edge16" class="edge">
<title>n10&#45;&gt;n30</title>
<path fill="none" stroke="#ff0000" d="M1068.1705,-322.6139C1135.1566,-310.1324 1224.99,-289.4505 1300,-258.4 1316.3659,-251.6253 1333.1206,-242.6574 1348.5187,-233.453"/>
<polygon fill="#ff0000" stroke="#ff0000" points="1350.704,-236.2195 1357.4149,-228.0211 1347.0561,-230.2452 1350.704,-236.2195"/>
</g>
<!-- n13 -->
<g id="node16" class="node">
<title>n13</title>
<path fill="#ffffff" stroke="#c6e2ff" stroke-width="2" d="M1056,-1152C1056,-1152 884,-1152 884,-1152 878,-1152 872,-1146 872,-1140 872,-1140 872,-1100 872,-1100 872,-1094 878,-1088 884,-1088 884,-1088 1056,-1088 1056,-1088 1062,-1088 1068,-1094 1068,-1100 1068,-1100 1068,-1140 1068,-1140 1068,-1146 1062,-1152 1056,-1152"/>
<text text-anchor="start" x="906.3855" y="-1138" font-family="arial" font-weight="bold" font-size="10.00" fill="#000000">No Characteristic Rock Type</text>
<text text-anchor="start" x="892.7605" y="-1121" font-family="arial" font-size="10.00" fill="#000000">There is no rock type r and no time</text>
<text text-anchor="start" x="900.536" y="-1109" font-family="arial" font-size="10.00" fill="#000000"> intervall dt such that, during dt,</text>
<text text-anchor="start" x="896.3745" y="-1097" font-family="arial" font-size="10.00" fill="#000000"> every region supports r #dat&#45;met</text>
</g>
<!-- n13&#45;&gt;n5 -->
<g id="edge15" class="edge">
<title>n13&#45;&gt;n5</title>
<path fill="none" stroke="#ff0000" d="M1044.9722,-1087.8518C1150.7828,-1041.6873 1349.0872,-952.2431 1511,-862.4 1525.6879,-854.2499 1541.1103,-844.8927 1555.5292,-835.7687"/>
<polygon fill="#ff0000" stroke="#ff0000" points="1557.8158,-838.4614 1564.3617,-830.1307 1554.0494,-832.561 1557.8158,-838.4614"/>
</g>
<!-- n13&#45;&gt;n12 -->
<g id="edge4" class="edge">
<title>n13&#45;&gt;n12</title>
<path fill="none" stroke="#00ff00" d="M1068.3702,-1117.964C1325.5206,-1109.7757 2035.5805,-1068.6719 2581,-862.4 2597.5724,-856.1325 2614.3115,-847.1223 2629.5016,-837.6894"/>
<polygon fill="#00ff00" stroke="#00ff00" points="2631.7066,-840.4343 2638.2534,-832.1042 2627.9408,-834.5335 2631.7066,-840.4343"/>
</g>
<!-- n18 -->
<g id="node19" class="node">
<title>n18</title>
<path fill="#ffffff" stroke="#c6e2ff" stroke-width="2" d="M842,-986C842,-986 670,-986 670,-986 664,-986 658,-980 658,-974 658,-974 658,-934 658,-934 658,-928 664,-922 670,-922 670,-922 842,-922 842,-922 848,-922 854,-928 854,-934 854,-934 854,-974 854,-974 854,-980 848,-986 842,-986"/>
<text text-anchor="start" x="679.6085" y="-972" font-family="arial" font-weight="bold" font-size="10.00" fill="#000000">Characteristic Rock Type Principle</text>
<text text-anchor="start" x="670.1385" y="-955" font-family="arial" font-size="10.00" fill="#000000">There is a bijection between the age of</text>
<text text-anchor="start" x="678.765" y="-943" font-family="arial" font-size="10.00" fill="#000000"> some strata t and its characteristic</text>
<text text-anchor="start" x="710.713" y="-931" font-family="arial" font-size="10.00" fill="#000000"> rock types #dat&#45;met</text>
</g>
<!-- n13&#45;&gt;n18 -->
<g id="edge14" class="edge">
<title>n13&#45;&gt;n18</title>
<path fill="none" stroke="#ff0000" d="M928.7386,-1087.9935C893.6215,-1060.7531 843.0801,-1021.5481 805.7339,-992.5787"/>
<polygon fill="#ff0000" stroke="#ff0000" points="807.5459,-989.5547 797.4992,-986.191 803.2555,-995.0857 807.5459,-989.5547"/>
</g>
<!-- n16 -->
<g id="node17" class="node">
<title>n16</title>
<path fill="#ffffff" stroke="#c6e2ff" stroke-width="2" d="M628,-1158C628,-1158 456,-1158 456,-1158 450,-1158 444,-1152 444,-1146 444,-1146 444,-1094 444,-1094 444,-1088 450,-1082 456,-1082 456,-1082 628,-1082 628,-1082 634,-1082 640,-1088 640,-1094 640,-1094 640,-1146 640,-1146 640,-1152 634,-1158 628,-1158"/>
<text text-anchor="start" x="483.664" y="-1144" font-family="arial" font-weight="bold" font-size="10.00" fill="#000000">Characteristic Rock Types</text>
<text text-anchor="start" x="470.8835" y="-1127" font-family="arial" font-size="10.00" fill="#000000">A rock type r is characteristic for</text>
<text text-anchor="start" x="469.777" y="-1115" font-family="arial" font-size="10.00" fill="#000000"> some time interval dt iff (i) r only</text>
<text text-anchor="start" x="466.9875" y="-1103" font-family="arial" font-size="10.00" fill="#000000"> exisits during dt and (ii) during dt,</text>
<text text-anchor="start" x="468.3745" y="-1091" font-family="arial" font-size="10.00" fill="#000000"> every region supports r #dat&#45;met</text>
</g>
<!-- n16&#45;&gt;n18 -->
<g id="edge5" class="edge">
<title>n16&#45;&gt;n18</title>
<path fill="none" stroke="#00ff00" d="M591.0959,-1081.9162C625.7107,-1055.0655 671.895,-1019.2403 706.5814,-992.334"/>
<polygon fill="#00ff00" stroke="#00ff00" points="708.9339,-994.9388 714.6901,-986.0441 704.6434,-989.4078 708.9339,-994.9388"/>
</g>
<!-- n17 -->
<g id="node18" class="node">
<title>n17</title>
<path fill="#ffffff" stroke="#c6e2ff" stroke-width="2" d="M842,-826C842,-826 670,-826 670,-826 664,-826 658,-820 658,-814 658,-814 658,-774 658,-774 658,-768 664,-762 670,-762 670,-762 842,-762 842,-762 848,-762 854,-768 854,-774 854,-774 854,-814 854,-814 854,-820 848,-826 842,-826"/>
<text text-anchor="start" x="735.169" y="-812" font-family="arial" font-weight="bold" font-size="10.00" fill="#000000">CRTP &#45; 2</text>
<text text-anchor="start" x="690.1485" y="-795" font-family="arial" font-size="10.00" fill="#000000">If two strata support the same</text>
<text text-anchor="start" x="677.649" y="-783" font-family="arial" font-size="10.00" fill="#000000"> characteristic rock types, then they</text>
<text text-anchor="start" x="689.034" y="-771" font-family="arial" font-size="10.00" fill="#000000"> are of the same age #dat&#45;met</text>
</g>
<!-- n18&#45;&gt;n17 -->
<g id="edge6" class="edge">
<title>n18&#45;&gt;n17</title>
<path fill="none" stroke="#00ff00" d="M756,-921.6216C756,-897.0348 756,-863.0124 756,-836.2786"/>
<polygon fill="#00ff00" stroke="#00ff00" points="759.5001,-836.0568 756,-826.0568 752.5001,-836.0569 759.5001,-836.0568"/>
</g>
<!-- n19 -->
<g id="node20" class="node">
<title>n19</title>
<path fill="#ffffff" stroke="#c6e2ff" stroke-width="2" d="M842,-376C842,-376 670,-376 670,-376 664,-376 658,-370 658,-364 658,-364 658,-312 658,-312 658,-306 664,-300 670,-300 670,-300 842,-300 842,-300 848,-300 854,-306 854,-312 854,-312 854,-364 854,-364 854,-370 848,-376 842,-376"/>
<text text-anchor="start" x="708.503" y="-362" font-family="arial" font-weight="bold" font-size="10.00" fill="#000000">Characteristic Fossils</text>
<text text-anchor="start" x="682.938" y="-345" font-family="arial" font-size="10.00" fill="#000000">A fossil species f is characteristic</text>
<text text-anchor="start" x="687.387" y="-333" font-family="arial" font-size="10.00" fill="#000000"> for some time interval dt iff (i) f</text>
<text text-anchor="start" x="677.3775" y="-321" font-family="arial" font-size="10.00" fill="#000000"> only exisits during dt and (ii) during</text>
<text text-anchor="start" x="675.7015" y="-309" font-family="arial" font-size="10.00" fill="#000000"> dt, every region supports f #dat&#45;met</text>
</g>
<!-- n19&#45;&gt;n21 -->
<g id="edge7" class="edge">
<title>n19&#45;&gt;n21</title>
<path fill="none" stroke="#00ff00" d="M783.5552,-299.8863C798.8612,-278.7154 817.9054,-252.3738 833.5107,-230.7889"/>
<polygon fill="#00ff00" stroke="#00ff00" points="836.5041,-232.6223 839.5267,-222.4678 830.8314,-228.5211 836.5041,-232.6223"/>
</g>
<!-- n20 -->
<g id="node21" class="node">
<title>n20</title>
<path fill="#ffffff" stroke="#c6e2ff" stroke-width="2" d="M949,-80C949,-80 777,-80 777,-80 771,-80 765,-74 765,-68 765,-68 765,-28 765,-28 765,-22 771,-16 777,-16 777,-16 949,-16 949,-16 955,-16 961,-22 961,-28 961,-28 961,-68 961,-68 961,-74 955,-80 949,-80"/>
<text text-anchor="start" x="845.7785" y="-66" font-family="arial" font-weight="bold" font-size="10.00" fill="#000000">CFP &#45; 2</text>
<text text-anchor="start" x="797.1485" y="-49" font-family="arial" font-size="10.00" fill="#000000">If two strata support the same</text>
<text text-anchor="start" x="784.93" y="-37" font-family="arial" font-size="10.00" fill="#000000"> characteristic fossils, then they are</text>
<text text-anchor="start" x="804.647" y="-25" font-family="arial" font-size="10.00" fill="#000000"> of the same age #dat&#45;met</text>
</g>
<!-- n21&#45;&gt;n20 -->
<g id="edge8" class="edge">
<title>n21&#45;&gt;n20</title>
<path fill="none" stroke="#00ff00" d="M863,-157.778C863,-137.8068 863,-111.9309 863,-90.3177"/>
<polygon fill="#00ff00" stroke="#00ff00" points="866.5001,-90.0944 863,-80.0945 859.5001,-90.0945 866.5001,-90.0944"/>
</g>
<!-- n22 -->
<g id="node23" class="node">
<title>n22</title>
<path fill="#ffffff" stroke="#c6e2ff" stroke-width="2" d="M200,-1164C200,-1164 28,-1164 28,-1164 22,-1164 16,-1158 16,-1152 16,-1152 16,-1088 16,-1088 16,-1082 22,-1076 28,-1076 28,-1076 200,-1076 200,-1076 206,-1076 212,-1082 212,-1088 212,-1088 212,-1152 212,-1152 212,-1158 206,-1164 200,-1164"/>
<text text-anchor="start" x="76.498" y="-1150" font-family="arial" font-weight="bold" font-size="10.00" fill="#000000">Lyellian Principle</text>
<text text-anchor="start" x="43.43" y="-1133" font-family="arial" font-size="10.00" fill="#000000">At the earth&#39;s surface, there is a</text>
<text text-anchor="start" x="29.8015" y="-1121" font-family="arial" font-size="10.00" fill="#000000"> constant but piecemeal change in the</text>
<text text-anchor="start" x="30.917" y="-1109" font-family="arial" font-size="10.00" fill="#000000"> composition of the faunas and floras,</text>
<text text-anchor="start" x="40.6555" y="-1097" font-family="arial" font-size="10.00" fill="#000000"> in correlation with ever&#45;changing</text>
<text text-anchor="start" x="42.043" y="-1085" font-family="arial" font-size="10.00" fill="#000000"> physical environments #dat&#45;met</text>
</g>
<!-- n23 -->
<g id="node24" class="node">
<title>n23</title>
<path fill="#ffffff" stroke="#c6e2ff" stroke-width="2" d="M200,-986C200,-986 28,-986 28,-986 22,-986 16,-980 16,-974 16,-974 16,-934 16,-934 16,-928 22,-922 28,-922 28,-922 200,-922 200,-922 206,-922 212,-928 212,-934 212,-934 212,-974 212,-974 212,-980 206,-986 200,-986"/>
<text text-anchor="start" x="38.9995" y="-972" font-family="arial" font-weight="bold" font-size="10.00" fill="#000000">L2 &#45; Maximal Difference in Fossils</text>
<text text-anchor="start" x="49.264" y="-955" font-family="arial" font-size="10.00" fill="#000000">If two strata are suffienciently</text>
<text text-anchor="start" x="40.912" y="-943" font-family="arial" font-size="10.00" fill="#000000"> different in age, then they do not</text>
<text text-anchor="start" x="27.8815" y="-931" font-family="arial" font-size="10.00" fill="#000000"> support similar fossil species #dat&#45;met</text>
</g>
<!-- n22&#45;&gt;n23 -->
<g id="edge9" class="edge">
<title>n22&#45;&gt;n23</title>
<path fill="none" stroke="#00ff00" d="M114,-1075.9509C114,-1051.2416 114,-1020.5761 114,-996.1775"/>
<polygon fill="#00ff00" stroke="#00ff00" points="117.5001,-996.1402 114,-986.1402 110.5001,-996.1402 117.5001,-996.1402"/>
</g>
<!-- n24 -->
<g id="node25" class="node">
<title>n24</title>
<path fill="#ffffff" stroke="#c6e2ff" stroke-width="2" d="M414,-1150C414,-1150 242,-1150 242,-1150 236,-1150 230,-1144 230,-1138 230,-1138 230,-1102 230,-1102 230,-1096 236,-1090 242,-1090 242,-1090 414,-1090 414,-1090 420,-1090 426,-1096 426,-1102 426,-1102 426,-1138 426,-1138 426,-1144 420,-1150 414,-1150"/>
<text text-anchor="start" x="249.376" y="-1136" font-family="arial" font-weight="bold" font-size="10.00" fill="#000000">Local Variations in Evironments &#45; In</text>
<text text-anchor="start" x="308.269" y="-1126" font-family="arial" font-weight="bold" font-size="10.00" fill="#000000"> the Past</text>
<text text-anchor="start" x="247.4225" y="-1111" font-family="arial" font-size="10.00" fill="#000000">In the past, there are local variations</text>
<text text-anchor="start" x="244.927" y="-1099" font-family="arial" font-size="10.00" fill="#000000"> in environmental conditions #dat&#45;met</text>
</g>
<!-- n25 -->
<g id="node26" class="node">
<title>n25</title>
<path fill="#ffffff" stroke="#c6e2ff" stroke-width="2" d="M842,-1158C842,-1158 670,-1158 670,-1158 664,-1158 658,-1152 658,-1146 658,-1146 658,-1094 658,-1094 658,-1088 664,-1082 670,-1082 670,-1082 842,-1082 842,-1082 848,-1082 854,-1088 854,-1094 854,-1094 854,-1146 854,-1146 854,-1152 848,-1158 842,-1158"/>
<text text-anchor="start" x="717.118" y="-1144" font-family="arial" font-weight="bold" font-size="10.00" fill="#000000">Uniformitarianism</text>
<text text-anchor="start" x="671.8145" y="-1127" font-family="arial" font-size="10.00" fill="#000000">The same natural laws and processes</text>
<text text-anchor="start" x="685.4185" y="-1115" font-family="arial" font-size="10.00" fill="#000000"> that operate today have always</text>
<text text-anchor="start" x="687.3595" y="-1103" font-family="arial" font-size="10.00" fill="#000000"> operated in the past and apply</text>
<text text-anchor="start" x="707.659" y="-1091" font-family="arial" font-size="10.00" fill="#000000"> everywhere #dat&#45;met</text>
</g>
<!-- n25&#45;&gt;n31 -->
<g id="edge21" class="edge">
<title>n25&#45;&gt;n31</title>
<path fill="none" stroke="#00ff00" d="M805.0959,-1081.9162C832.3955,-1060.74 866.8912,-1033.9816 897.2675,-1010.4187"/>
<polygon fill="#00ff00" stroke="#00ff00" points="899.5479,-1013.0794 905.3042,-1004.1846 895.2575,-1007.5483 899.5479,-1013.0794"/>
</g>
<!-- n26 -->
<g id="node27" class="node">
<title>n26</title>
<path fill="#ffffff" stroke="#c6e2ff" stroke-width="2" d="M1056,-826C1056,-826 884,-826 884,-826 878,-826 872,-820 872,-814 872,-814 872,-774 872,-774 872,-768 878,-762 884,-762 884,-762 1056,-762 1056,-762 1062,-762 1068,-768 1068,-774 1068,-774 1068,-814 1068,-814 1068,-820 1062,-826 1056,-826"/>
<text text-anchor="start" x="901.094" y="-812" font-family="arial" font-weight="bold" font-size="10.00" fill="#000000">LV in Evironments &#45; In the Past</text>
<text text-anchor="start" x="896.0805" y="-795" font-family="arial" font-size="10.00" fill="#000000">In the past, there have been local</text>
<text text-anchor="start" x="885.262" y="-783" font-family="arial" font-size="10.00" fill="#000000"> variations in environmental conditions</text>
<text text-anchor="start" x="948.8845" y="-771" font-family="arial" font-size="10.00" fill="#000000"> #dat&#45;met</text>
</g>
<!-- n26&#45;&gt;n32 -->
<g id="edge22" class="edge">
<title>n26&#45;&gt;n32</title>
<path fill="none" stroke="#00ff00" d="M970,-761.6216C970,-742.3794 970,-717.3581 970,-694.5743"/>
<polygon fill="#00ff00" stroke="#00ff00" points="973.5001,-694.2922 970,-684.2922 966.5001,-694.2923 973.5001,-694.2922"/>
</g>
<!-- n27 -->
<g id="node28" class="node">
<title>n27</title>
<path fill="#ffffff" stroke="#c6e2ff" stroke-width="2" d="M628,-830C628,-830 456,-830 456,-830 450,-830 444,-824 444,-818 444,-818 444,-770 444,-770 444,-764 450,-758 456,-758 456,-758 628,-758 628,-758 634,-758 640,-764 640,-770 640,-770 640,-818 640,-818 640,-824 634,-830 628,-830"/>
<text text-anchor="start" x="458.3665" y="-816" font-family="arial" font-weight="bold" font-size="10.00" fill="#000000">Environmental Conditions, Fauna and</text>
<text text-anchor="start" x="529.223" y="-806" font-family="arial" font-weight="bold" font-size="10.00" fill="#000000"> Flora</text>
<text text-anchor="start" x="479.763" y="-791" font-family="arial" font-size="10.00" fill="#000000">There is a bijection between</text>
<text text-anchor="start" x="460.3065" y="-779" font-family="arial" font-size="10.00" fill="#000000"> environmental conditions, fauna and</text>
<text text-anchor="start" x="509.7725" y="-767" font-family="arial" font-size="10.00" fill="#000000"> flora #dat&#45;met</text>
</g>
<!-- n27&#45;&gt;n32 -->
<g id="edge23" class="edge">
<title>n27&#45;&gt;n32</title>
<path fill="none" stroke="#00ff00" d="M638.3183,-757.9932C704.8282,-733.1296 793.3482,-700.038 862.2112,-674.2949"/>
<polygon fill="#00ff00" stroke="#00ff00" points="863.6519,-677.4929 871.7932,-670.7128 861.2007,-670.9361 863.6519,-677.4929"/>
</g>
<!-- n28 -->
<g id="node29" class="node">
<title>n28</title>
<path fill="#ffffff" stroke="#c6e2ff" stroke-width="2" d="M1056,-512C1056,-512 884,-512 884,-512 878,-512 872,-506 872,-500 872,-500 872,-460 872,-460 872,-454 878,-448 884,-448 884,-448 1056,-448 1056,-448 1062,-448 1068,-454 1068,-460 1068,-460 1068,-500 1068,-500 1068,-506 1062,-512 1056,-512"/>
<text text-anchor="start" x="920.5405" y="-498" font-family="arial" font-weight="bold" font-size="10.00" fill="#000000">LV in Fauna and Flora</text>
<text text-anchor="start" x="896.661" y="-481" font-family="arial" font-size="10.00" fill="#000000">For every time intervall, there are</text>
<text text-anchor="start" x="898.3105" y="-469" font-family="arial" font-size="10.00" fill="#000000"> local variations in the fauna and</text>
<text text-anchor="start" x="937.7725" y="-457" font-family="arial" font-size="10.00" fill="#000000"> flora #dat&#45;met</text>
</g>
<!-- n28&#45;&gt;n14 -->
<g id="edge10" class="edge">
<title>n28&#45;&gt;n14</title>
<path fill="none" stroke="#00ff00" d="M1068.0267,-493.2886C1177.3976,-509.3923 1358.9618,-539.9543 1511,-584 1684.8528,-634.3654 1880.9473,-718.7945 1980.4723,-763.7247"/>
<polygon fill="#00ff00" stroke="#00ff00" points="1979.2448,-767.011 1989.7983,-767.947 1982.132,-760.6341 1979.2448,-767.011"/>
</g>
<!-- n28&#45;&gt;n10 -->
<g id="edge11" class="edge">
<title>n28&#45;&gt;n10</title>
<path fill="none" stroke="#00ff00" d="M970,-447.778C970,-427.8068 970,-401.9309 970,-380.3177"/>
<polygon fill="#00ff00" stroke="#00ff00" points="973.5001,-380.0944 970,-370.0945 966.5001,-380.0945 973.5001,-380.0944"/>
</g>
<!-- n31&#45;&gt;n26 -->
<g id="edge17" class="edge">
<title>n31&#45;&gt;n26</title>
<path fill="none" stroke="#00ff00" d="M970,-903.814C970,-882.1755 970,-857.1412 970,-836.4446"/>
<polygon fill="#00ff00" stroke="#00ff00" points="973.5001,-836.3633 970,-826.3633 966.5001,-836.3634 973.5001,-836.3633"/>
</g>
<!-- n32&#45;&gt;n28 -->
<g id="edge18" class="edge">
<title>n32&#45;&gt;n28</title>
<path fill="none" stroke="#00ff00" d="M970,-583.5746C970,-563.7388 970,-541.2213 970,-522.2598"/>
<polygon fill="#00ff00" stroke="#00ff00" points="973.5001,-522.1311 970,-512.1311 966.5001,-522.1311 973.5001,-522.1311"/>
</g>
</g>
</svg>
