
<!-- Generated by graphviz version 2.40.1 (20161225.0304)
 -->
<!-- Title: Argument Map Pages: 1 -->
<svg width="720pt" height="232pt"
 viewBox="0.00 0.00 720.00 232.45" xmlns="http://www.w3.org/2000/svg" xmlns:xlink="http://www.w3.org/1999/xlink">
<g id="graph0" class="graph" transform="scale(.1758 .1758) rotate(0) translate(4 1318.4)">
<title>Argument Map</title>
<g id="clust1" class="cluster">
<title>cluster_1</title>
<polygon fill="#ffff00" stroke="#ffff00" points="870,-700 870,-974.4 4080,-974.4 4080,-700 870,-700"/>
<text text-anchor="start" x="2450.3256" y="-959.6" font-family="arial" font-size="12.00" fill="#000000">Evidence</text>
</g>
<g id="clust2" class="cluster">
<title>cluster_2</title>
<polygon fill="#c6e2ff" stroke="#c6e2ff" points="8,-8 8,-1306.4 862,-1306.4 862,-8 8,-8"/>
<text text-anchor="start" x="338.3328" y="-1291.6" font-family="arial" font-size="12.00" fill="#000000">Rocks, Fossils and Time &#45; Principles</text>
</g>
<g id="clust3" class="cluster">
<title>cluster_3</title>
<polygon fill="#eedfcc" stroke="#eedfcc" points="870,-280 870,-394.4 1082,-394.4 1082,-280 870,-280"/>
<text text-anchor="start" x="911.6578" y="-379.6" font-family="arial" font-size="12.00" fill="#000000">Dating of the Main Culm</text>
</g>
<g id="clust4" class="cluster">
<title>cluster_4</title>
<polygon fill="#9fb6cd" stroke="#9fb6cd" points="1090,-280 1090,-394.4 1310,-394.4 1310,-280 1090,-280"/>
<text text-anchor="start" x="1097.9862" y="-379.6" font-family="arial" font-size="12.00" fill="#000000">Aporia II : CM Plants in non&#45;CM Strata</text>
</g>
<!-- n0 -->
<g id="node1" class="node">
<title>n0</title>
<path fill="#ffffff" stroke="#ffff00" stroke-width="2" d="M1918,-778C1918,-778 1746,-778 1746,-778 1740,-778 1734,-772 1734,-766 1734,-766 1734,-726 1734,-726 1734,-720 1740,-714 1746,-714 1746,-714 1918,-714 1918,-714 1924,-714 1930,-720 1930,-726 1930,-726 1930,-766 1930,-766 1930,-772 1924,-778 1918,-778"/>
<text text-anchor="start" x="1750.305" y="-764" font-family="arial" font-weight="bold" font-size="10.00" fill="#000000">Unbroken Sequence of Devon Strata</text>
<text text-anchor="start" x="1755.3125" y="-747" font-family="arial" font-size="10.00" fill="#000000">In Devon, all the strata &#45; older than</text>
<text text-anchor="start" x="1755.0355" y="-735" font-family="arial" font-size="10.00" fill="#000000"> the New Red Sandstone &#45; form an</text>
<text text-anchor="start" x="1757.8035" y="-723" font-family="arial" font-size="10.00" fill="#000000"> unbroken sequence of strata #ev</text>
</g>
<!-- n1 -->
<g id="node2" class="node">
<title>n1</title>
<path fill="#ffffff" stroke="#ffff00" stroke-width="2" d="M4060,-944C4060,-944 3888,-944 3888,-944 3882,-944 3876,-938 3876,-932 3876,-932 3876,-880 3876,-880 3876,-874 3882,-868 3888,-868 3888,-868 4060,-868 4060,-868 4066,-868 4072,-874 4072,-880 4072,-880 4072,-932 4072,-932 4072,-938 4066,-944 4060,-944"/>
<text text-anchor="start" x="3916.7755" y="-930" font-family="arial" font-weight="bold" font-size="10.00" fill="#000000">CM Plants in Devon Culm</text>
<text text-anchor="start" x="3887.5985" y="-913" font-family="arial" font-size="10.00" fill="#000000">Near Bideford (North Devon), there are</text>
<text text-anchor="start" x="3895.932" y="-901" font-family="arial" font-size="10.00" fill="#000000"> CM fossil plants in the main part of</text>
<text text-anchor="start" x="3892.321" y="-889" font-family="arial" font-size="10.00" fill="#000000"> the Culm strata (in close association</text>
<text text-anchor="start" x="3885.6525" y="-877" font-family="arial" font-size="10.00" fill="#000000"> with seams of imperfect anthracite) #ev</text>
</g>
<!-- n2 -->
<g id="node3" class="node">
<title>n2</title>
<path fill="#ffffff" stroke="#ffff00" stroke-width="2" d="M3846,-932C3846,-932 3674,-932 3674,-932 3668,-932 3662,-926 3662,-920 3662,-920 3662,-892 3662,-892 3662,-886 3668,-880 3674,-880 3674,-880 3846,-880 3846,-880 3852,-880 3858,-886 3858,-892 3858,-892 3858,-920 3858,-920 3858,-926 3852,-932 3846,-932"/>
<text text-anchor="start" x="3723.607" y="-918" font-family="arial" font-weight="bold" font-size="10.00" fill="#000000">North of Exmoor</text>
<text text-anchor="start" x="3673.871" y="-901" font-family="arial" font-size="10.00" fill="#000000">Passing Exmoor northwards, the strata</text>
<text text-anchor="start" x="3718.8775" y="-889" font-family="arial" font-size="10.00" fill="#000000"> become older #ev</text>
</g>
<!-- n3 -->
<g id="node4" class="node">
<title>n3</title>
<path fill="#ffffff" stroke="#ffff00" stroke-width="2" d="M1704,-784C1704,-784 1532,-784 1532,-784 1526,-784 1520,-778 1520,-772 1520,-772 1520,-720 1520,-720 1520,-714 1526,-708 1532,-708 1532,-708 1704,-708 1704,-708 1710,-708 1716,-714 1716,-720 1716,-720 1716,-772 1716,-772 1716,-778 1710,-784 1704,-784"/>
<text text-anchor="start" x="1565.21" y="-770" font-family="arial" font-weight="bold" font-size="10.00" fill="#000000">Trough through Exmoor</text>
<text text-anchor="start" x="1540.206" y="-753" font-family="arial" font-size="10.00" fill="#000000">There is a trough through Exmoor &#45;</text>
<text text-anchor="start" x="1531.308" y="-741" font-family="arial" font-size="10.00" fill="#000000"> formed by a band of limestone running</text>
<text text-anchor="start" x="1539.362" y="-729" font-family="arial" font-size="10.00" fill="#000000"> out to the north coast at Ilfracombe</text>
<text text-anchor="start" x="1554.3625" y="-717" font-family="arial" font-size="10.00" fill="#000000"> and south of Barnstaple #ev</text>
</g>
<!-- n4 -->
<g id="node5" class="node">
<title>n4</title>
<path fill="#ffffff" stroke="#ffff00" stroke-width="2" d="M3632,-938C3632,-938 3460,-938 3460,-938 3454,-938 3448,-932 3448,-926 3448,-926 3448,-886 3448,-886 3448,-880 3454,-874 3460,-874 3460,-874 3632,-874 3632,-874 3638,-874 3644,-880 3644,-886 3644,-886 3644,-926 3644,-926 3644,-932 3638,-938 3632,-938"/>
<text text-anchor="start" x="3469.3105" y="-924" font-family="arial" font-weight="bold" font-size="10.00" fill="#000000">Instances of Coal in Ancient Strata</text>
<text text-anchor="start" x="3464.3215" y="-907" font-family="arial" font-size="10.00" fill="#000000">In Munster, North America and North</text>
<text text-anchor="start" x="3472.9245" y="-895" font-family="arial" font-size="10.00" fill="#000000"> Devon there are coal deposits in</text>
<text text-anchor="start" x="3468.755" y="-883" font-family="arial" font-size="10.00" fill="#000000"> pre&#45;Old Red Sandstone strata #ev</text>
</g>
<!-- n5 -->
<g id="node6" class="node">
<title>n5</title>
<path fill="#ffffff" stroke="#ffff00" stroke-width="2" d="M2132,-942C2132,-942 1960,-942 1960,-942 1954,-942 1948,-936 1948,-930 1948,-930 1948,-882 1948,-882 1948,-876 1954,-870 1960,-870 1960,-870 2132,-870 2132,-870 2138,-870 2144,-876 2144,-882 2144,-882 2144,-930 2144,-930 2144,-936 2138,-942 2132,-942"/>
<text text-anchor="start" x="1960.4445" y="-928" font-family="arial" font-weight="bold" font-size="10.00" fill="#000000">Devonshire &#45; Characteristic CAM Rock</text>
<text text-anchor="start" x="2033.497" y="-918" font-family="arial" font-weight="bold" font-size="10.00" fill="#000000"> Type</text>
<text text-anchor="start" x="1969.3125" y="-903" font-family="arial" font-size="10.00" fill="#000000">In Devon, all the strata &#45; older than</text>
<text text-anchor="start" x="1973.2" y="-891" font-family="arial" font-size="10.00" fill="#000000"> the New Red Sandstone &#45; are of</text>
<text text-anchor="start" x="1966.819" y="-879" font-family="arial" font-size="10.00" fill="#000000"> caracteristic CAM appearance #ev </text>
</g>
<!-- n6 -->
<g id="node7" class="node">
<title>n6</title>
<path fill="#ffffff" stroke="#ffff00" stroke-width="2" d="M1918,-944C1918,-944 1746,-944 1746,-944 1740,-944 1734,-938 1734,-932 1734,-932 1734,-880 1734,-880 1734,-874 1740,-868 1746,-868 1746,-868 1918,-868 1918,-868 1924,-868 1930,-874 1930,-880 1930,-880 1930,-932 1930,-932 1930,-938 1924,-944 1918,-944"/>
<text text-anchor="start" x="1781.439" y="-930" font-family="arial" font-weight="bold" font-size="10.00" fill="#000000">Unconformity in Devon</text>
<text text-anchor="start" x="1757.2545" y="-913" font-family="arial" font-size="10.00" fill="#000000">Between the Devon Culm and the</text>
<text text-anchor="start" x="1755.866" y="-901" font-family="arial" font-size="10.00" fill="#000000"> juxtaposed strata, there is at least</text>
<text text-anchor="start" x="1761.9895" y="-889" font-family="arial" font-size="10.00" fill="#000000"> one formation missing from the</text>
<text text-anchor="start" x="1778.644" y="-877" font-family="arial" font-size="10.00" fill="#000000"> standard sequence #ev</text>
</g>
<!-- n6&#45;&gt;n0 -->
<g id="edge1" class="edge">
<title>n6&#45;&gt;n0</title>
<path fill="none" stroke="#ff0000" d="M1832,-857.3724C1832,-835.2688 1832,-809.3686 1832,-788.11"/>
<polygon fill="#ff0000" stroke="#ff0000" points="1828.5001,-857.676 1832,-867.676 1835.5001,-857.676 1828.5001,-857.676"/>
<polygon fill="#ff0000" stroke="#ff0000" points="1835.5001,-788.0838 1832,-778.0838 1828.5001,-788.0839 1835.5001,-788.0838"/>
</g>
<!-- n7 -->
<g id="node8" class="node">
<title>n7</title>
<path fill="#ffffff" stroke="#ffff00" stroke-width="2" d="M2988,-932C2988,-932 2816,-932 2816,-932 2810,-932 2804,-926 2804,-920 2804,-920 2804,-892 2804,-892 2804,-886 2810,-880 2816,-880 2816,-880 2988,-880 2988,-880 2994,-880 3000,-886 3000,-892 3000,-892 3000,-920 3000,-920 3000,-926 2994,-932 2988,-932"/>
<text text-anchor="start" x="2833.104" y="-918" font-family="arial" font-weight="bold" font-size="10.00" fill="#000000">Coal in French Pre&#45;ORS Strata</text>
<text text-anchor="start" x="2824.481" y="-901" font-family="arial" font-size="10.00" fill="#000000">In northwest France, there are coal</text>
<text text-anchor="start" x="2830.874" y="-889" font-family="arial" font-size="10.00" fill="#000000"> deposits in pre&#45;ORS strata. #ev</text>
</g>
<!-- n8 -->
<g id="node9" class="node">
<title>n8</title>
<path fill="#ffffff" stroke="#ffff00" stroke-width="2" d="M2774,-938C2774,-938 2602,-938 2602,-938 2596,-938 2590,-932 2590,-926 2590,-926 2590,-886 2590,-886 2590,-880 2596,-874 2602,-874 2602,-874 2774,-874 2774,-874 2780,-874 2786,-880 2786,-886 2786,-886 2786,-926 2786,-926 2786,-932 2780,-938 2774,-938"/>
<text text-anchor="start" x="2609.9305" y="-924" font-family="arial" font-weight="bold" font-size="10.00" fill="#000000">CM Plants in Ancient French Strata</text>
<text text-anchor="start" x="2600.763" y="-907" font-family="arial" font-size="10.00" fill="#000000">In northwest France, in pre&#45;ORS strata,</text>
<text text-anchor="start" x="2606.0355" y="-895" font-family="arial" font-size="10.00" fill="#000000"> associated with seams of coal, there</text>
<text text-anchor="start" x="2618.268" y="-883" font-family="arial" font-size="10.00" fill="#000000"> are some CM fossil plants #ev </text>
</g>
<!-- n9 -->
<g id="node10" class="node">
<title>n9</title>
<path fill="#ffffff" stroke="#ffff00" stroke-width="2" d="M3202,-944C3202,-944 3030,-944 3030,-944 3024,-944 3018,-938 3018,-932 3018,-932 3018,-880 3018,-880 3018,-874 3024,-868 3030,-868 3030,-868 3202,-868 3202,-868 3208,-868 3214,-874 3214,-880 3214,-880 3214,-932 3214,-932 3214,-938 3208,-944 3202,-944"/>
<text text-anchor="start" x="3089.3295" y="-930" font-family="arial" font-weight="bold" font-size="10.00" fill="#000000">French Alps</text>
<text text-anchor="start" x="3039.0355" y="-913" font-family="arial" font-size="10.00" fill="#000000">In the French Alps, there are some</text>
<text text-anchor="start" x="3057.1115" y="-901" font-family="arial" font-size="10.00" fill="#000000"> characteristic Oolitic fossil</text>
<text text-anchor="start" x="3034.8755" y="-889" font-family="arial" font-size="10.00" fill="#000000"> belemnites and CM plants in closely</text>
<text text-anchor="start" x="3067.3735" y="-877" font-family="arial" font-size="10.00" fill="#000000"> associated strata #ev</text>
</g>
<!-- n11 -->
<g id="node11" class="node">
<title>n11</title>
<path fill="#ffffff" stroke="#ffff00" stroke-width="2" d="M2346,-938C2346,-938 2174,-938 2174,-938 2168,-938 2162,-932 2162,-926 2162,-926 2162,-886 2162,-886 2162,-880 2168,-874 2174,-874 2174,-874 2346,-874 2346,-874 2352,-874 2358,-880 2358,-886 2358,-886 2358,-926 2358,-926 2358,-932 2352,-938 2346,-938"/>
<text text-anchor="start" x="2177.487" y="-924" font-family="arial" font-weight="bold" font-size="10.00" fill="#000000">Munster Coal in Carboniferous Strata</text>
<text text-anchor="start" x="2190.8225" y="-907" font-family="arial" font-size="10.00" fill="#000000">In Munster, some strata closely</text>
<text text-anchor="start" x="2175.256" y="-895" font-family="arial" font-size="10.00" fill="#000000"> associated with seams of coal are not</text>
<text text-anchor="start" x="2213.0445" y="-883" font-family="arial" font-size="10.00" fill="#000000"> pre&#45;ORS in age #ev </text>
</g>
<!-- n12 -->
<g id="node12" class="node">
<title>n12</title>
<path fill="#ffffff" stroke="#ffff00" stroke-width="2" d="M3418,-944C3418,-944 3244,-944 3244,-944 3238,-944 3232,-938 3232,-932 3232,-932 3232,-880 3232,-880 3232,-874 3238,-868 3244,-868 3244,-868 3418,-868 3418,-868 3424,-868 3430,-874 3430,-880 3430,-880 3430,-932 3430,-932 3430,-938 3424,-944 3418,-944"/>
<text text-anchor="start" x="3297.3855" y="-930" font-family="arial" font-weight="bold" font-size="10.00" fill="#000000">Pembrokeshire</text>
<text text-anchor="start" x="3262.098" y="-913" font-family="arial" font-size="10.00" fill="#000000">The strata near Pembrokeshire</text>
<text text-anchor="start" x="3274.326" y="-901" font-family="arial" font-size="10.00" fill="#000000"> (southwest Wales) are of</text>
<text text-anchor="start" x="3241.5365" y="-889" font-family="arial" font-size="10.00" fill="#000000"> characteristic pre&#45;ORS appearance and</text>
<text text-anchor="start" x="3295.992" y="-877" font-family="arial" font-size="10.00" fill="#000000"> CM in age #ev </text>
</g>
<!-- n14 -->
<g id="node13" class="node">
<title>n14</title>
<path fill="#ffffff" stroke="#ffff00" stroke-width="2" d="M2560,-932C2560,-932 2388,-932 2388,-932 2382,-932 2376,-926 2376,-920 2376,-920 2376,-892 2376,-892 2376,-886 2382,-880 2388,-880 2388,-880 2560,-880 2560,-880 2566,-880 2572,-886 2572,-892 2572,-892 2572,-920 2572,-920 2572,-926 2566,-932 2560,-932"/>
<text text-anchor="start" x="2407.5935" y="-918" font-family="arial" font-weight="bold" font-size="10.00" fill="#000000">LV in Fauna and Flora &#45;Today</text>
<text text-anchor="start" x="2397.596" y="-901" font-family="arial" font-size="10.00" fill="#000000">Today, there are local variations in</text>
<text text-anchor="start" x="2429.8145" y="-889" font-family="arial" font-size="10.00" fill="#000000"> fauna and flora #ev</text>
</g>
<!-- n15 -->
<g id="node14" class="node">
<title>n15</title>
<path fill="#ffffff" stroke="#ffff00" stroke-width="2" d="M1062,-932C1062,-932 890,-932 890,-932 884,-932 878,-926 878,-920 878,-920 878,-892 878,-892 878,-886 884,-880 890,-880 890,-880 1062,-880 1062,-880 1068,-880 1074,-886 1074,-892 1074,-892 1074,-920 1074,-920 1074,-926 1068,-932 1062,-932"/>
<text text-anchor="start" x="917.101" y="-918" font-family="arial" font-weight="bold" font-size="10.00" fill="#000000">LV in Evironments &#45; Today</text>
<text text-anchor="start" x="899.596" y="-901" font-family="arial" font-size="10.00" fill="#000000">Today, there are local variations in</text>
<text text-anchor="start" x="909.8725" y="-889" font-family="arial" font-size="10.00" fill="#000000"> environmental conditions #ev</text>
</g>
<!-- n36 -->
<g id="node35" class="node">
<title>n36</title>
<path fill="#c6e2ff" stroke="#000000" d="M842,-1116C842,-1116 670,-1116 670,-1116 664,-1116 658,-1110 658,-1104 658,-1104 658,-1028 658,-1028 658,-1022 664,-1016 670,-1016 670,-1016 842,-1016 842,-1016 848,-1016 854,-1022 854,-1028 854,-1028 854,-1104 854,-1104 854,-1110 848,-1116 842,-1116"/>
<text text-anchor="start" x="689.5985" y="-1102" font-family="arial" font-weight="bold" font-size="10.00" fill="#000000">Local Environmental Variation</text>
<text text-anchor="start" x="678.482" y="-1085" font-family="arial" font-size="10.00" fill="#000000">If today there are local variations in</text>
<text text-anchor="start" x="670.417" y="-1073" font-family="arial" font-size="10.00" fill="#000000"> environmental conditions and the past</text>
<text text-anchor="start" x="681.2565" y="-1061" font-family="arial" font-size="10.00" fill="#000000"> can be inferred from today, in the</text>
<text text-anchor="start" x="683.47" y="-1049" font-family="arial" font-size="10.00" fill="#000000"> past, then there have been local</text>
<text text-anchor="start" x="671.262" y="-1037" font-family="arial" font-size="10.00" fill="#000000"> variations in environmental conditions</text>
<text text-anchor="start" x="734.8845" y="-1025" font-family="arial" font-size="10.00" fill="#000000"> #dat&#45;met</text>
</g>
<!-- n15&#45;&gt;n36 -->
<g id="edge21" class="edge">
<title>n15&#45;&gt;n36</title>
<path fill="none" stroke="#00ff00" d="M940.1473,-932.0747C911.2454,-953.0943 869.5654,-983.407 833.166,-1009.8793"/>
<polygon fill="#00ff00" stroke="#00ff00" points="831.0345,-1007.1017 825.0058,-1015.814 835.1518,-1012.7628 831.0345,-1007.1017"/>
</g>
<!-- n37 -->
<g id="node36" class="node">
<title>n37</title>
<path fill="#c6e2ff" stroke="#000000" d="M842,-796C842,-796 670,-796 670,-796 664,-796 658,-790 658,-784 658,-784 658,-708 658,-708 658,-702 664,-696 670,-696 670,-696 842,-696 842,-696 848,-696 854,-702 854,-708 854,-708 854,-784 854,-784 854,-790 848,-796 842,-796"/>
<text text-anchor="start" x="685.714" y="-782" font-family="arial" font-weight="bold" font-size="10.00" fill="#000000">Local Ecological Variations &#45; FF</text>
<text text-anchor="start" x="670.7075" y="-765" font-family="arial" font-size="10.00" fill="#000000">If there are always local environmental</text>
<text text-anchor="start" x="679.311" y="-753" font-family="arial" font-size="10.00" fill="#000000"> variations and a bijection between</text>
<text text-anchor="start" x="674.3065" y="-741" font-family="arial" font-size="10.00" fill="#000000"> environmental conditions, fauna and</text>
<text text-anchor="start" x="682.651" y="-729" font-family="arial" font-size="10.00" fill="#000000"> flora, then there are always local</text>
<text text-anchor="start" x="684.866" y="-717" font-family="arial" font-size="10.00" fill="#000000"> variations in the fauna and flora</text>
<text text-anchor="start" x="734.8845" y="-705" font-family="arial" font-size="10.00" fill="#000000"> #dat&#45;met</text>
</g>
<!-- n15&#45;&gt;n37 -->
<g id="edge22" class="edge">
<title>n15&#45;&gt;n37</title>
<path fill="none" stroke="#00ff00" d="M940.1636,-879.9371C911.2986,-858.9444 869.6805,-828.6767 833.3078,-802.2239"/>
<polygon fill="#00ff00" stroke="#00ff00" points="835.299,-799.3443 825.153,-796.2931 831.1818,-805.0054 835.299,-799.3443"/>
</g>
<!-- n16 -->
<g id="node15" class="node">
<title>n16</title>
<path fill="#ffffff" stroke="#ffff00" stroke-width="2" d="M1490,-938C1490,-938 1318,-938 1318,-938 1312,-938 1306,-932 1306,-926 1306,-926 1306,-886 1306,-886 1306,-880 1312,-874 1318,-874 1318,-874 1490,-874 1490,-874 1496,-874 1502,-880 1502,-886 1502,-886 1502,-926 1502,-926 1502,-932 1496,-938 1490,-938"/>
<text text-anchor="start" x="1361.7685" y="-924" font-family="arial" font-weight="bold" font-size="10.00" fill="#000000">SIL in North Devon</text>
<text text-anchor="start" x="1322.037" y="-907" font-family="arial" font-size="10.00" fill="#000000">In north Devon (around Pilton), some</text>
<text text-anchor="start" x="1325.3775" y="-895" font-family="arial" font-size="10.00" fill="#000000"> non&#45;Culm strata are Silurian in age</text>
<text text-anchor="start" x="1393.162" y="-883" font-family="arial" font-size="10.00" fill="#000000"> #ev </text>
</g>
<!-- n17 -->
<g id="node16" class="node">
<title>n17</title>
<path fill="#ffffff" stroke="#ffff00" stroke-width="2" d="M1276,-932C1276,-932 1104,-932 1104,-932 1098,-932 1092,-926 1092,-920 1092,-920 1092,-892 1092,-892 1092,-886 1098,-880 1104,-880 1104,-880 1276,-880 1276,-880 1282,-880 1288,-886 1288,-892 1288,-892 1288,-920 1288,-920 1288,-926 1282,-932 1276,-932"/>
<text text-anchor="start" x="1124.1585" y="-918" font-family="arial" font-weight="bold" font-size="10.00" fill="#000000">Culm trough in Central Devon</text>
<text text-anchor="start" x="1117.21" y="-901" font-family="arial" font-size="10.00" fill="#000000">In central Devon, there is a Culm</text>
<text text-anchor="start" x="1164.99" y="-889" font-family="arial" font-size="10.00" fill="#000000"> trough #ev</text>
</g>
<!-- n18 -->
<g id="node17" class="node">
<title>n18</title>
<path fill="#ffffff" stroke="#ffff00" stroke-width="2" d="M1704,-942C1704,-942 1532,-942 1532,-942 1526,-942 1520,-936 1520,-930 1520,-930 1520,-882 1520,-882 1520,-876 1526,-870 1532,-870 1532,-870 1704,-870 1704,-870 1710,-870 1716,-876 1716,-882 1716,-882 1716,-930 1716,-930 1716,-936 1710,-942 1704,-942"/>
<text text-anchor="start" x="1534.651" y="-928" font-family="arial" font-weight="bold" font-size="10.00" fill="#000000">Distinct Limestones at Ilfracombe and</text>
<text text-anchor="start" x="1592.715" y="-918" font-family="arial" font-weight="bold" font-size="10.00" fill="#000000"> Barnstaple</text>
<text text-anchor="start" x="1538.2565" y="-903" font-family="arial" font-size="10.00" fill="#000000">The limestone at Ilfracombe and the</text>
<text text-anchor="start" x="1542.1455" y="-891" font-family="arial" font-size="10.00" fill="#000000"> limestone south of Barnstaple are</text>
<text text-anchor="start" x="1591.605" y="-879" font-family="arial" font-size="10.00" fill="#000000"> distinct #ev</text>
</g>
<!-- n18&#45;&gt;n3 -->
<g id="edge4" class="edge">
<title>n18&#45;&gt;n3</title>
<path fill="none" stroke="#ff0000" d="M1618,-859.4255C1618,-838.9545 1618,-814.9232 1618,-794.2626"/>
<polygon fill="#ff0000" stroke="#ff0000" points="1614.5001,-859.6935 1618,-869.6935 1621.5001,-859.6936 1614.5001,-859.6935"/>
<polygon fill="#ff0000" stroke="#ff0000" points="1621.5001,-794.1127 1618,-784.1128 1614.5001,-794.1128 1621.5001,-794.1127"/>
</g>
<!-- n10 -->
<g id="node18" class="node">
<title>n10</title>
<path fill="#ffffff" stroke="#c6e2ff" stroke-width="2" d="M842,-488C842,-488 670,-488 670,-488 664,-488 658,-482 658,-476 658,-476 658,-448 658,-448 658,-442 664,-436 670,-436 670,-436 842,-436 842,-436 848,-436 854,-442 854,-448 854,-448 854,-476 854,-476 854,-482 848,-488 842,-488"/>
<text text-anchor="start" x="700.7245" y="-474" font-family="arial" font-weight="bold" font-size="10.00" fill="#000000">No Characteristic Fossils</text>
<text text-anchor="start" x="673.768" y="-457" font-family="arial" font-size="10.00" fill="#000000">For no time intervall dt, there is some</text>
<text text-anchor="start" x="672.935" y="-445" font-family="arial" font-size="10.00" fill="#000000"> characteristic fossil species #dat&#45;met</text>
</g>
<!-- n10&#45;&gt;n9 -->
<g id="edge2" class="edge">
<title>n10&#45;&gt;n9</title>
<path fill="none" stroke="#ff0000" d="M864.6148,-474.8423C1191.0967,-514.8672 2191.039,-647.8778 3008.2291,-867.8925"/>
<polygon fill="#ff0000" stroke="#ff0000" points="864.5693,-471.3107 854.2184,-473.5713 863.7198,-478.259 864.5693,-471.3107"/>
<polygon fill="#ff0000" stroke="#ff0000" points="3007.3723,-871.2864 3017.9389,-870.5131 3009.1964,-864.5282 3007.3723,-871.2864"/>
</g>
<!-- n24 -->
<g id="node25" class="node">
<title>n24</title>
<path fill="#ffffff" stroke="#c6e2ff" stroke-width="2" d="M628,-358C628,-358 456,-358 456,-358 450,-358 444,-352 444,-346 444,-346 444,-306 444,-306 444,-300 450,-294 456,-294 456,-294 628,-294 628,-294 634,-294 640,-300 640,-306 640,-306 640,-346 640,-346 640,-352 634,-358 628,-358"/>
<text text-anchor="start" x="465.883" y="-344" font-family="arial" font-weight="bold" font-size="10.00" fill="#000000">Existence of Characteristic Fossils</text>
<text text-anchor="start" x="466.7165" y="-327" font-family="arial" font-size="10.00" fill="#000000">For every time intervall dt, there is</text>
<text text-anchor="start" x="463.6585" y="-315" font-family="arial" font-size="10.00" fill="#000000"> some charactersitic fossil species f</text>
<text text-anchor="start" x="520.8845" y="-303" font-family="arial" font-size="10.00" fill="#000000"> #dat&#45;met</text>
</g>
<!-- n10&#45;&gt;n24 -->
<g id="edge14" class="edge">
<title>n10&#45;&gt;n24</title>
<path fill="none" stroke="#ff0000" d="M705.9479,-430.4554C687.9765,-419.1088 667.5668,-406.1993 649,-394.4 633.2995,-384.4222 616.3252,-373.5914 600.6221,-363.5536"/>
<polygon fill="#ff0000" stroke="#ff0000" points="704.231,-433.5106 714.5556,-435.8883 707.9672,-427.591 704.231,-433.5106"/>
<polygon fill="#ff0000" stroke="#ff0000" points="602.3556,-360.5077 592.0452,-358.0691 598.5845,-366.4051 602.3556,-360.5077"/>
</g>
<!-- n34 -->
<g id="node37" class="node">
<title>n34</title>
<path fill="#ffffff" stroke="#ff8c00" stroke-width="2" d="M1062,-364C1062,-364 890,-364 890,-364 884,-364 878,-358 878,-352 878,-352 878,-300 878,-300 878,-294 884,-288 890,-288 890,-288 1062,-288 1062,-288 1068,-288 1074,-294 1074,-300 1074,-300 1074,-352 1074,-352 1074,-358 1068,-364 1062,-364"/>
<text text-anchor="start" x="890.451" y="-350" font-family="arial" font-weight="bold" font-size="10.00" fill="#000000">Characteristic CM fossils in Main Culm</text>
<text text-anchor="start" x="893.492" y="-333" font-family="arial" font-size="10.00" fill="#000000">Near Bideford (North Devon), the CM</text>
<text text-anchor="start" x="892.3705" y="-321" font-family="arial" font-size="10.00" fill="#000000"> fossil plants supported by some main</text>
<text text-anchor="start" x="900.4445" y="-309" font-family="arial" font-size="10.00" fill="#000000"> Culm strata are characteristic CM</text>
<text text-anchor="start" x="925.1585" y="-297" font-family="arial" font-size="10.00" fill="#000000"> fossils #COA #fos&#45;hyp</text>
</g>
<!-- n10&#45;&gt;n34 -->
<g id="edge15" class="edge">
<title>n10&#45;&gt;n34</title>
<path fill="none" stroke="#ff0000" d="M807.2023,-430.6109C825.7384,-419.2271 846.8246,-406.2538 866,-394.4 879.0237,-386.349 892.9007,-377.7423 906.2559,-369.4448"/>
<polygon fill="#ff0000" stroke="#ff0000" points="805.2959,-427.6742 798.6051,-435.8891 808.9584,-433.6397 805.2959,-427.6742"/>
<polygon fill="#ff0000" stroke="#ff0000" points="908.2969,-372.2973 914.9426,-364.0458 904.6018,-366.352 908.2969,-372.2973"/>
</g>
<!-- n35 -->
<g id="node38" class="node">
<title>n35</title>
<path fill="#ffffff" stroke="#ff8c00" stroke-width="2" d="M1285.5,-364C1285.5,-364 1110.5,-364 1110.5,-364 1104.5,-364 1098.5,-358 1098.5,-352 1098.5,-352 1098.5,-300 1098.5,-300 1098.5,-294 1104.5,-288 1110.5,-288 1110.5,-288 1285.5,-288 1285.5,-288 1291.5,-288 1297.5,-294 1297.5,-300 1297.5,-300 1297.5,-352 1297.5,-352 1297.5,-358 1291.5,-364 1285.5,-364"/>
<text text-anchor="start" x="1108.501" y="-350" font-family="arial" font-weight="bold" font-size="10.00" fill="#000000">Characteristic CM Fossils in French Alps</text>
<text text-anchor="start" x="1124.8785" y="-333" font-family="arial" font-size="10.00" fill="#000000">The French alpine fossils, closely</text>
<text text-anchor="start" x="1120.7105" y="-321" font-family="arial" font-size="10.00" fill="#000000"> associated with Oolitic belemnites,</text>
<text text-anchor="start" x="1112.377" y="-309" font-family="arial" font-size="10.00" fill="#000000"> are characteristic of the CM era #COA</text>
<text text-anchor="start" x="1177.9385" y="-297" font-family="arial" font-size="10.00" fill="#000000"> #fos&#45;hyp</text>
</g>
<!-- n10&#45;&gt;n35 -->
<g id="edge18" class="edge">
<title>n10&#45;&gt;n35</title>
<path fill="none" stroke="#ff0000" d="M864.1791,-449.4718C929.9449,-439.5213 1014.7046,-422.4767 1086,-394.4 1102.8136,-387.7787 1119.9593,-378.6947 1135.6176,-369.3096"/>
<polygon fill="#ff0000" stroke="#ff0000" points="863.5849,-446.0216 854.2055,-450.9487 864.6104,-452.9461 863.5849,-446.0216"/>
<polygon fill="#ff0000" stroke="#ff0000" points="1137.4552,-372.2885 1144.152,-364.0784 1133.797,-366.3204 1137.4552,-372.2885"/>
</g>
<!-- n13 -->
<g id="node19" class="node">
<title>n13</title>
<path fill="#ffffff" stroke="#c6e2ff" stroke-width="2" d="M842,-1258C842,-1258 670,-1258 670,-1258 664,-1258 658,-1252 658,-1246 658,-1246 658,-1218 658,-1218 658,-1212 664,-1206 670,-1206 670,-1206 842,-1206 842,-1206 848,-1206 854,-1212 854,-1218 854,-1218 854,-1246 854,-1246 854,-1252 848,-1258 842,-1258"/>
<text text-anchor="start" x="692.3855" y="-1244" font-family="arial" font-weight="bold" font-size="10.00" fill="#000000">No Characteristic Rock Type</text>
<text text-anchor="start" x="673.768" y="-1227" font-family="arial" font-size="10.00" fill="#000000">For no time intervall dt, there is some</text>
<text text-anchor="start" x="682.3785" y="-1215" font-family="arial" font-size="10.00" fill="#000000"> characteristic rock type #dat&#45;met</text>
</g>
<!-- n13&#45;&gt;n5 -->
<g id="edge17" class="edge">
<title>n13&#45;&gt;n5</title>
<path fill="none" stroke="#ff0000" d="M864.402,-1221.3573C1077.318,-1197.6835 1562.1899,-1129.992 1939,-974.4 1956.1085,-967.3356 1973.5033,-957.5484 1989.1565,-947.5841"/>
<polygon fill="#ff0000" stroke="#ff0000" points="863.7183,-1217.9114 854.1616,-1222.4853 864.4847,-1224.8693 863.7183,-1217.9114"/>
<polygon fill="#ff0000" stroke="#ff0000" points="1991.1907,-950.4362 1997.6607,-942.0464 1987.3709,-944.5703 1991.1907,-950.4362"/>
</g>
<!-- n13&#45;&gt;n12 -->
<g id="edge3" class="edge">
<title>n13&#45;&gt;n12</title>
<path fill="none" stroke="#00ff00" d="M854.132,-1227.7361C1255.5566,-1209.3801 2772.6105,-1130.8394 3223,-974.4 3240.2473,-968.4093 3257.5625,-959.2054 3273.1209,-949.4721"/>
<polygon fill="#00ff00" stroke="#00ff00" points="3275.0612,-952.3855 3281.5721,-944.0273 3271.2701,-946.501 3275.0612,-952.3855"/>
</g>
<!-- n20 -->
<g id="node21" class="node">
<title>n20</title>
<path fill="#ffffff" stroke="#c6e2ff" stroke-width="2" d="M628,-1098C628,-1098 456,-1098 456,-1098 450,-1098 444,-1092 444,-1086 444,-1086 444,-1046 444,-1046 444,-1040 450,-1034 456,-1034 456,-1034 628,-1034 628,-1034 634,-1034 640,-1040 640,-1046 640,-1046 640,-1086 640,-1086 640,-1092 634,-1098 628,-1098"/>
<text text-anchor="start" x="455.044" y="-1084" font-family="arial" font-weight="bold" font-size="10.00" fill="#000000">Existence of Characteristic Rock Types</text>
<text text-anchor="start" x="466.7165" y="-1067" font-family="arial" font-size="10.00" fill="#000000">For every time intervall dt, there is</text>
<text text-anchor="start" x="472.827" y="-1055" font-family="arial" font-size="10.00" fill="#000000"> some charactersitic rock type r</text>
<text text-anchor="start" x="520.8845" y="-1043" font-family="arial" font-size="10.00" fill="#000000"> #dat&#45;met</text>
</g>
<!-- n13&#45;&gt;n20 -->
<g id="edge16" class="edge">
<title>n13&#45;&gt;n20</title>
<path fill="none" stroke="#ff0000" d="M713.8337,-1199.2916C678.721,-1172.0546 628.6566,-1133.2196 591.6186,-1104.4892"/>
<polygon fill="#ff0000" stroke="#ff0000" points="712.0444,-1202.3331 722.0911,-1205.6968 716.3348,-1196.8021 712.0444,-1202.3331"/>
<polygon fill="#ff0000" stroke="#ff0000" points="593.4973,-1101.517 583.4506,-1098.1533 589.2069,-1107.048 593.4973,-1101.517"/>
</g>
<!-- n19 -->
<g id="node20" class="node">
<title>n19</title>
<path fill="#ffffff" stroke="#c6e2ff" stroke-width="2" d="M200,-1104C200,-1104 28,-1104 28,-1104 22,-1104 16,-1098 16,-1092 16,-1092 16,-1040 16,-1040 16,-1034 22,-1028 28,-1028 28,-1028 200,-1028 200,-1028 206,-1028 212,-1034 212,-1040 212,-1040 212,-1092 212,-1092 212,-1098 206,-1104 200,-1104"/>
<text text-anchor="start" x="55.664" y="-1090" font-family="arial" font-weight="bold" font-size="10.00" fill="#000000">Characteristic Rock Types</text>
<text text-anchor="start" x="42.8835" y="-1073" font-family="arial" font-size="10.00" fill="#000000">A rock type r is characteristic for</text>
<text text-anchor="start" x="41.777" y="-1061" font-family="arial" font-size="10.00" fill="#000000"> some time interval dt iff (i) r only</text>
<text text-anchor="start" x="38.9875" y="-1049" font-family="arial" font-size="10.00" fill="#000000"> exisits during dt and (ii) during dt,</text>
<text text-anchor="start" x="40.3745" y="-1037" font-family="arial" font-size="10.00" fill="#000000"> every region supports r #dat&#45;met</text>
</g>
<!-- n22 -->
<g id="node23" class="node">
<title>n22</title>
<path fill="#ffffff" stroke="#c6e2ff" stroke-width="2" d="M307,-938C307,-938 135,-938 135,-938 129,-938 123,-932 123,-926 123,-926 123,-886 123,-886 123,-880 129,-874 135,-874 135,-874 307,-874 307,-874 313,-874 319,-880 319,-886 319,-886 319,-926 319,-926 319,-932 313,-938 307,-938"/>
<text text-anchor="start" x="144.6085" y="-924" font-family="arial" font-weight="bold" font-size="10.00" fill="#000000">Characteristic Rock Type Principle</text>
<text text-anchor="start" x="135.1385" y="-907" font-family="arial" font-size="10.00" fill="#000000">There is a bijection between the age of</text>
<text text-anchor="start" x="143.765" y="-895" font-family="arial" font-size="10.00" fill="#000000"> some strata t and its characteristic</text>
<text text-anchor="start" x="175.713" y="-883" font-family="arial" font-size="10.00" fill="#000000"> rock types #dat&#45;met</text>
</g>
<!-- n19&#45;&gt;n22 -->
<g id="edge5" class="edge">
<title>n19&#45;&gt;n22</title>
<path fill="none" stroke="#00ff00" d="M139.6292,-1027.676C155.9996,-1003.1969 177.2003,-971.4949 193.8571,-946.5875"/>
<polygon fill="#00ff00" stroke="#00ff00" points="196.8943,-948.342 199.5439,-938.0838 191.0755,-944.4507 196.8943,-948.342"/>
</g>
<!-- n20&#45;&gt;n22 -->
<g id="edge6" class="edge">
<title>n20&#45;&gt;n22</title>
<path fill="none" stroke="#00ff00" d="M477.427,-1033.8141C424.5321,-1007.449 349.6812,-970.1401 294.4962,-942.6336"/>
<polygon fill="#00ff00" stroke="#00ff00" points="295.981,-939.4631 285.4698,-938.1345 292.8583,-945.728 295.981,-939.4631"/>
</g>
<!-- n21 -->
<g id="node22" class="node">
<title>n21</title>
<path fill="#ffffff" stroke="#c6e2ff" stroke-width="2" d="M307,-778C307,-778 135,-778 135,-778 129,-778 123,-772 123,-766 123,-766 123,-726 123,-726 123,-720 129,-714 135,-714 135,-714 307,-714 307,-714 313,-714 319,-720 319,-726 319,-726 319,-766 319,-766 319,-772 313,-778 307,-778"/>
<text text-anchor="start" x="200.169" y="-764" font-family="arial" font-weight="bold" font-size="10.00" fill="#000000">CRTP &#45; 2</text>
<text text-anchor="start" x="155.1485" y="-747" font-family="arial" font-size="10.00" fill="#000000">If two strata support the same</text>
<text text-anchor="start" x="142.649" y="-735" font-family="arial" font-size="10.00" fill="#000000"> characteristic rock types, then they</text>
<text text-anchor="start" x="154.034" y="-723" font-family="arial" font-size="10.00" fill="#000000"> are of the same age #dat&#45;met</text>
</g>
<!-- n22&#45;&gt;n21 -->
<g id="edge7" class="edge">
<title>n22&#45;&gt;n21</title>
<path fill="none" stroke="#00ff00" d="M221,-873.6216C221,-849.0348 221,-815.0124 221,-788.2786"/>
<polygon fill="#00ff00" stroke="#00ff00" points="224.5001,-788.0568 221,-778.0568 217.5001,-788.0569 224.5001,-788.0568"/>
</g>
<!-- n23 -->
<g id="node24" class="node">
<title>n23</title>
<path fill="#ffffff" stroke="#c6e2ff" stroke-width="2" d="M842,-364C842,-364 670,-364 670,-364 664,-364 658,-358 658,-352 658,-352 658,-300 658,-300 658,-294 664,-288 670,-288 670,-288 842,-288 842,-288 848,-288 854,-294 854,-300 854,-300 854,-352 854,-352 854,-358 848,-364 842,-364"/>
<text text-anchor="start" x="708.503" y="-350" font-family="arial" font-weight="bold" font-size="10.00" fill="#000000">Characteristic Fossils</text>
<text text-anchor="start" x="682.938" y="-333" font-family="arial" font-size="10.00" fill="#000000">A fossil species f is characteristic</text>
<text text-anchor="start" x="687.387" y="-321" font-family="arial" font-size="10.00" fill="#000000"> for some time interval dt iff (i) f</text>
<text text-anchor="start" x="677.3775" y="-309" font-family="arial" font-size="10.00" fill="#000000"> only exisits during dt and (ii) during</text>
<text text-anchor="start" x="675.7015" y="-297" font-family="arial" font-size="10.00" fill="#000000"> dt, every region supports f #dat&#45;met</text>
</g>
<!-- n26 -->
<g id="node27" class="node">
<title>n26</title>
<path fill="#ffffff" stroke="#c6e2ff" stroke-width="2" d="M735,-216C735,-216 563,-216 563,-216 557,-216 551,-210 551,-204 551,-204 551,-164 551,-164 551,-158 557,-152 563,-152 563,-152 735,-152 735,-152 741,-152 747,-158 747,-164 747,-164 747,-204 747,-204 747,-210 741,-216 735,-216"/>
<text text-anchor="start" x="580.9475" y="-202" font-family="arial" font-weight="bold" font-size="10.00" fill="#000000">Characteristic Fossils Principle</text>
<text text-anchor="start" x="563.1385" y="-185" font-family="arial" font-size="10.00" fill="#000000">There is a bijection between the age of</text>
<text text-anchor="start" x="571.765" y="-173" font-family="arial" font-size="10.00" fill="#000000"> some strata t and its characteristic</text>
<text text-anchor="start" x="612.607" y="-161" font-family="arial" font-size="10.00" fill="#000000"> fossils #dat&#45;met</text>
</g>
<!-- n23&#45;&gt;n26 -->
<g id="edge8" class="edge">
<title>n23&#45;&gt;n26</title>
<path fill="none" stroke="#00ff00" d="M727.326,-287.9466C712.5271,-268.307 694.4719,-244.3459 679.4276,-224.3805"/>
<polygon fill="#00ff00" stroke="#00ff00" points="682.2104,-222.2576 673.3971,-216.3775 676.6198,-226.4703 682.2104,-222.2576"/>
</g>
<!-- n24&#45;&gt;n26 -->
<g id="edge9" class="edge">
<title>n24&#45;&gt;n26</title>
<path fill="none" stroke="#00ff00" d="M566.28,-293.778C581.8075,-273.1714 602.072,-246.2783 618.6573,-224.2678"/>
<polygon fill="#00ff00" stroke="#00ff00" points="621.5934,-226.1873 624.8161,-216.0945 616.0028,-221.9747 621.5934,-226.1873"/>
</g>
<!-- n25 -->
<g id="node26" class="node">
<title>n25</title>
<path fill="#ffffff" stroke="#c6e2ff" stroke-width="2" d="M735,-80C735,-80 563,-80 563,-80 557,-80 551,-74 551,-68 551,-68 551,-28 551,-28 551,-22 557,-16 563,-16 563,-16 735,-16 735,-16 741,-16 747,-22 747,-28 747,-28 747,-68 747,-68 747,-74 741,-80 735,-80"/>
<text text-anchor="start" x="631.7785" y="-66" font-family="arial" font-weight="bold" font-size="10.00" fill="#000000">CFP &#45; 2</text>
<text text-anchor="start" x="583.1485" y="-49" font-family="arial" font-size="10.00" fill="#000000">If two strata support the same</text>
<text text-anchor="start" x="570.93" y="-37" font-family="arial" font-size="10.00" fill="#000000"> characteristic fossils, then they are</text>
<text text-anchor="start" x="590.647" y="-25" font-family="arial" font-size="10.00" fill="#000000"> of the same age #dat&#45;met</text>
</g>
<!-- n26&#45;&gt;n25 -->
<g id="edge10" class="edge">
<title>n26&#45;&gt;n25</title>
<path fill="none" stroke="#00ff00" d="M649,-151.7699C649,-133.4422 649,-110.2682 649,-90.4712"/>
<polygon fill="#00ff00" stroke="#00ff00" points="652.5001,-90.47 649,-80.4701 645.5001,-90.4701 652.5001,-90.47"/>
</g>
<!-- n27 -->
<g id="node28" class="node">
<title>n27</title>
<path fill="#ffffff" stroke="#c6e2ff" stroke-width="2" d="M200,-1276C200,-1276 28,-1276 28,-1276 22,-1276 16,-1270 16,-1264 16,-1264 16,-1200 16,-1200 16,-1194 22,-1188 28,-1188 28,-1188 200,-1188 200,-1188 206,-1188 212,-1194 212,-1200 212,-1200 212,-1264 212,-1264 212,-1270 206,-1276 200,-1276"/>
<text text-anchor="start" x="76.498" y="-1262" font-family="arial" font-weight="bold" font-size="10.00" fill="#000000">Lyellian Principle</text>
<text text-anchor="start" x="43.43" y="-1245" font-family="arial" font-size="10.00" fill="#000000">At the earth&#39;s surface, there is a</text>
<text text-anchor="start" x="29.8015" y="-1233" font-family="arial" font-size="10.00" fill="#000000"> constant but piecemeal change in the</text>
<text text-anchor="start" x="30.917" y="-1221" font-family="arial" font-size="10.00" fill="#000000"> composition of the faunas and floras,</text>
<text text-anchor="start" x="40.6555" y="-1209" font-family="arial" font-size="10.00" fill="#000000"> in correlation with ever&#45;changing</text>
<text text-anchor="start" x="42.043" y="-1197" font-family="arial" font-size="10.00" fill="#000000"> physical environments #dat&#45;met</text>
</g>
<!-- n28 -->
<g id="node29" class="node">
<title>n28</title>
<path fill="#ffffff" stroke="#c6e2ff" stroke-width="2" d="M414,-1098C414,-1098 242,-1098 242,-1098 236,-1098 230,-1092 230,-1086 230,-1086 230,-1046 230,-1046 230,-1040 236,-1034 242,-1034 242,-1034 414,-1034 414,-1034 420,-1034 426,-1040 426,-1046 426,-1046 426,-1086 426,-1086 426,-1092 420,-1098 414,-1098"/>
<text text-anchor="start" x="252.9995" y="-1084" font-family="arial" font-weight="bold" font-size="10.00" fill="#000000">L2 &#45; Maximal Difference in Fossils</text>
<text text-anchor="start" x="263.264" y="-1067" font-family="arial" font-size="10.00" fill="#000000">If two strata are suffienciently</text>
<text text-anchor="start" x="254.912" y="-1055" font-family="arial" font-size="10.00" fill="#000000"> different in age, then they do not</text>
<text text-anchor="start" x="241.8815" y="-1043" font-family="arial" font-size="10.00" fill="#000000"> support similar fossil species #dat&#45;met</text>
</g>
<!-- n27&#45;&gt;n28 -->
<g id="edge11" class="edge">
<title>n27&#45;&gt;n28</title>
<path fill="none" stroke="#00ff00" d="M170.7862,-1187.9509C204.3468,-1161.9179 246.4306,-1129.2734 278.6097,-1104.3121"/>
<polygon fill="#00ff00" stroke="#00ff00" points="280.81,-1107.0349 286.5662,-1098.1402 276.5195,-1101.5039 280.81,-1107.0349"/>
</g>
<!-- n29 -->
<g id="node30" class="node">
<title>n29</title>
<path fill="#ffffff" stroke="#c6e2ff" stroke-width="2" d="M414,-1262C414,-1262 242,-1262 242,-1262 236,-1262 230,-1256 230,-1250 230,-1250 230,-1214 230,-1214 230,-1208 236,-1202 242,-1202 242,-1202 414,-1202 414,-1202 420,-1202 426,-1208 426,-1214 426,-1214 426,-1250 426,-1250 426,-1256 420,-1262 414,-1262"/>
<text text-anchor="start" x="249.376" y="-1248" font-family="arial" font-weight="bold" font-size="10.00" fill="#000000">Local Variations in Evironments &#45; In</text>
<text text-anchor="start" x="308.269" y="-1238" font-family="arial" font-weight="bold" font-size="10.00" fill="#000000"> the Past</text>
<text text-anchor="start" x="247.4225" y="-1223" font-family="arial" font-size="10.00" fill="#000000">In the past, there are local variations</text>
<text text-anchor="start" x="244.927" y="-1211" font-family="arial" font-size="10.00" fill="#000000"> in environmental conditions #dat&#45;met</text>
</g>
<!-- n30 -->
<g id="node31" class="node">
<title>n30</title>
<path fill="#ffffff" stroke="#c6e2ff" stroke-width="2" d="M628,-1270C628,-1270 456,-1270 456,-1270 450,-1270 444,-1264 444,-1258 444,-1258 444,-1206 444,-1206 444,-1200 450,-1194 456,-1194 456,-1194 628,-1194 628,-1194 634,-1194 640,-1200 640,-1206 640,-1206 640,-1258 640,-1258 640,-1264 634,-1270 628,-1270"/>
<text text-anchor="start" x="503.118" y="-1256" font-family="arial" font-weight="bold" font-size="10.00" fill="#000000">Uniformitarianism</text>
<text text-anchor="start" x="457.8145" y="-1239" font-family="arial" font-size="10.00" fill="#000000">The same natural laws and processes</text>
<text text-anchor="start" x="471.4185" y="-1227" font-family="arial" font-size="10.00" fill="#000000"> that operate today have always</text>
<text text-anchor="start" x="473.3595" y="-1215" font-family="arial" font-size="10.00" fill="#000000"> operated in the past and apply</text>
<text text-anchor="start" x="493.659" y="-1203" font-family="arial" font-size="10.00" fill="#000000"> everywhere #dat&#45;met</text>
</g>
<!-- n30&#45;&gt;n36 -->
<g id="edge23" class="edge">
<title>n30&#45;&gt;n36</title>
<path fill="none" stroke="#00ff00" d="M591.0959,-1193.9162C618.3955,-1172.74 652.8912,-1145.9816 683.2675,-1122.4187"/>
<polygon fill="#00ff00" stroke="#00ff00" points="685.5479,-1125.0794 691.3042,-1116.1846 681.2575,-1119.5483 685.5479,-1125.0794"/>
</g>
<!-- n31 -->
<g id="node32" class="node">
<title>n31</title>
<path fill="#ffffff" stroke="#c6e2ff" stroke-width="2" d="M842,-938C842,-938 670,-938 670,-938 664,-938 658,-932 658,-926 658,-926 658,-886 658,-886 658,-880 664,-874 670,-874 670,-874 842,-874 842,-874 848,-874 854,-880 854,-886 854,-886 854,-926 854,-926 854,-932 848,-938 842,-938"/>
<text text-anchor="start" x="687.094" y="-924" font-family="arial" font-weight="bold" font-size="10.00" fill="#000000">LV in Evironments &#45; In the Past</text>
<text text-anchor="start" x="682.0805" y="-907" font-family="arial" font-size="10.00" fill="#000000">In the past, there have been local</text>
<text text-anchor="start" x="671.262" y="-895" font-family="arial" font-size="10.00" fill="#000000"> variations in environmental conditions</text>
<text text-anchor="start" x="734.8845" y="-883" font-family="arial" font-size="10.00" fill="#000000"> #dat&#45;met</text>
</g>
<!-- n31&#45;&gt;n37 -->
<g id="edge24" class="edge">
<title>n31&#45;&gt;n37</title>
<path fill="none" stroke="#00ff00" d="M756,-873.6216C756,-854.3794 756,-829.3581 756,-806.5743"/>
<polygon fill="#00ff00" stroke="#00ff00" points="759.5001,-806.2922 756,-796.2922 752.5001,-806.2923 759.5001,-806.2922"/>
</g>
<!-- n32 -->
<g id="node33" class="node">
<title>n32</title>
<path fill="#ffffff" stroke="#c6e2ff" stroke-width="2" d="M628,-942C628,-942 456,-942 456,-942 450,-942 444,-936 444,-930 444,-930 444,-882 444,-882 444,-876 450,-870 456,-870 456,-870 628,-870 628,-870 634,-870 640,-876 640,-882 640,-882 640,-930 640,-930 640,-936 634,-942 628,-942"/>
<text text-anchor="start" x="458.3665" y="-928" font-family="arial" font-weight="bold" font-size="10.00" fill="#000000">Environmental Conditions, Fauna and</text>
<text text-anchor="start" x="529.223" y="-918" font-family="arial" font-weight="bold" font-size="10.00" fill="#000000"> Flora</text>
<text text-anchor="start" x="479.763" y="-903" font-family="arial" font-size="10.00" fill="#000000">There is a bijection between</text>
<text text-anchor="start" x="460.3065" y="-891" font-family="arial" font-size="10.00" fill="#000000"> environmental conditions, fauna and</text>
<text text-anchor="start" x="509.7725" y="-879" font-family="arial" font-size="10.00" fill="#000000"> flora #dat&#45;met</text>
</g>
<!-- n32&#45;&gt;n37 -->
<g id="edge25" class="edge">
<title>n32&#45;&gt;n37</title>
<path fill="none" stroke="#00ff00" d="M590.2926,-869.8934C616.8855,-850.0109 650.4854,-824.8894 680.4673,-802.4731"/>
<polygon fill="#00ff00" stroke="#00ff00" points="682.9058,-805.02 688.8189,-796.2288 678.7141,-799.4137 682.9058,-805.02"/>
</g>
<!-- n33 -->
<g id="node34" class="node">
<title>n33</title>
<path fill="#ffffff" stroke="#c6e2ff" stroke-width="2" d="M842,-624C842,-624 670,-624 670,-624 664,-624 658,-618 658,-612 658,-612 658,-572 658,-572 658,-566 664,-560 670,-560 670,-560 842,-560 842,-560 848,-560 854,-566 854,-572 854,-572 854,-612 854,-612 854,-618 848,-624 842,-624"/>
<text text-anchor="start" x="706.5405" y="-610" font-family="arial" font-weight="bold" font-size="10.00" fill="#000000">LV in Fauna and Flora</text>
<text text-anchor="start" x="682.661" y="-593" font-family="arial" font-size="10.00" fill="#000000">For every time intervall, there are</text>
<text text-anchor="start" x="684.3105" y="-581" font-family="arial" font-size="10.00" fill="#000000"> local variations in the fauna and</text>
<text text-anchor="start" x="723.7725" y="-569" font-family="arial" font-size="10.00" fill="#000000"> flora #dat&#45;met</text>
</g>
<!-- n33&#45;&gt;n14 -->
<g id="edge12" class="edge">
<title>n33&#45;&gt;n14</title>
<path fill="none" stroke="#00ff00" d="M854.1002,-597.0045C1099.2074,-610.0889 1733.4038,-647.6733 1939,-696 2117.7868,-738.025 2316.0499,-828.1786 2413.3583,-875.5275"/>
<polygon fill="#00ff00" stroke="#00ff00" points="2411.9347,-878.7273 2422.4561,-879.973 2415.0079,-872.438 2411.9347,-878.7273"/>
</g>
<!-- n33&#45;&gt;n10 -->
<g id="edge13" class="edge">
<title>n33&#45;&gt;n10</title>
<path fill="none" stroke="#00ff00" d="M756,-559.8652C756,-541.2136 756,-517.6627 756,-498.3381"/>
<polygon fill="#00ff00" stroke="#00ff00" points="759.5001,-498.0949 756,-488.0949 752.5001,-498.095 759.5001,-498.0949"/>
</g>
<!-- n36&#45;&gt;n31 -->
<g id="edge19" class="edge">
<title>n36&#45;&gt;n31</title>
<path fill="none" stroke="#00ff00" d="M756,-1015.814C756,-994.1755 756,-969.1412 756,-948.4446"/>
<polygon fill="#00ff00" stroke="#00ff00" points="759.5001,-948.3633 756,-938.3633 752.5001,-948.3634 759.5001,-948.3633"/>
</g>
<!-- n37&#45;&gt;n33 -->
<g id="edge20" class="edge">
<title>n37&#45;&gt;n33</title>
<path fill="none" stroke="#00ff00" d="M756,-695.5746C756,-675.7388 756,-653.2213 756,-634.2598"/>
<polygon fill="#00ff00" stroke="#00ff00" points="759.5001,-634.1311 756,-624.1311 752.5001,-634.1311 759.5001,-634.1311"/>
</g>
</g>
</svg>
