
<!-- Generated by graphviz version 2.40.1 (20161225.0304)
 -->
<!-- Title: Argument Map Pages: 1 -->
<svg width="720pt" height="194pt"
 viewBox="0.00 0.00 720.00 193.64" xmlns="http://www.w3.org/2000/svg" xmlns:xlink="http://www.w3.org/1999/xlink">
<g id="graph0" class="graph" transform="scale(.4718 .4718) rotate(0) translate(4 406.4)">
<title>Argument Map</title>
<g id="clust1" class="cluster">
<title>cluster_1</title>
<polygon fill="#ffff00" stroke="#ffff00" points="8,-280 8,-394.4 1290,-394.4 1290,-280 8,-280"/>
<text text-anchor="start" x="624.3256" y="-379.6" font-family="arial" font-size="12.00" fill="#000000">Evidence</text>
</g>
<g id="clust2" class="cluster">
<title>cluster_2</title>
<polygon fill="#c6e2ff" stroke="#c6e2ff" points="1298,-8 1298,-394.4 1510,-394.4 1510,-8 1298,-8"/>
<text text-anchor="start" x="1307.3328" y="-379.6" font-family="arial" font-size="12.00" fill="#000000">Rocks, Fossils and Time &#45; Principles</text>
</g>
<!-- n0 -->
<g id="node1" class="node">
<title>n0</title>
<path fill="#ffffff" stroke="#ffff00" stroke-width="2" d="M1270,-358C1270,-358 1098,-358 1098,-358 1092,-358 1086,-352 1086,-346 1086,-346 1086,-306 1086,-306 1086,-300 1092,-294 1098,-294 1098,-294 1270,-294 1270,-294 1276,-294 1282,-300 1282,-306 1282,-306 1282,-346 1282,-346 1282,-352 1276,-358 1270,-358"/>
<text text-anchor="start" x="1102.305" y="-344" font-family="arial" font-weight="bold" font-size="10.00" fill="#000000">Unbroken Sequence of Devon Strata</text>
<text text-anchor="start" x="1107.3125" y="-327" font-family="arial" font-size="10.00" fill="#000000">In Devon, all the strata &#45; older than</text>
<text text-anchor="start" x="1107.0355" y="-315" font-family="arial" font-size="10.00" fill="#000000"> the New Red Sandstone &#45; form an</text>
<text text-anchor="start" x="1109.8035" y="-303" font-family="arial" font-size="10.00" fill="#000000"> unbroken sequence of strata #ev</text>
</g>
<!-- n1 -->
<g id="node2" class="node">
<title>n1</title>
<path fill="#ffffff" stroke="#ffff00" stroke-width="2" d="M1056,-364C1056,-364 884,-364 884,-364 878,-364 872,-358 872,-352 872,-352 872,-300 872,-300 872,-294 878,-288 884,-288 884,-288 1056,-288 1056,-288 1062,-288 1068,-294 1068,-300 1068,-300 1068,-352 1068,-352 1068,-358 1062,-364 1056,-364"/>
<text text-anchor="start" x="912.7755" y="-350" font-family="arial" font-weight="bold" font-size="10.00" fill="#000000">CM Plants in Devon Culm</text>
<text text-anchor="start" x="883.5985" y="-333" font-family="arial" font-size="10.00" fill="#000000">Near Bideford (North Devon), there are</text>
<text text-anchor="start" x="891.932" y="-321" font-family="arial" font-size="10.00" fill="#000000"> CM fossil plants in the main part of</text>
<text text-anchor="start" x="888.321" y="-309" font-family="arial" font-size="10.00" fill="#000000"> the Culm strata (in close association</text>
<text text-anchor="start" x="881.6525" y="-297" font-family="arial" font-size="10.00" fill="#000000"> with seams of imperfect anthracite) #ev</text>
</g>
<!-- n2 -->
<g id="node3" class="node">
<title>n2</title>
<path fill="#ffffff" stroke="#ffff00" stroke-width="2" d="M842,-352C842,-352 670,-352 670,-352 664,-352 658,-346 658,-340 658,-340 658,-312 658,-312 658,-306 664,-300 670,-300 670,-300 842,-300 842,-300 848,-300 854,-306 854,-312 854,-312 854,-340 854,-340 854,-346 848,-352 842,-352"/>
<text text-anchor="start" x="719.607" y="-338" font-family="arial" font-weight="bold" font-size="10.00" fill="#000000">North of Exmoor</text>
<text text-anchor="start" x="669.871" y="-321" font-family="arial" font-size="10.00" fill="#000000">Passing Exmoor northwards, the strata</text>
<text text-anchor="start" x="714.8775" y="-309" font-family="arial" font-size="10.00" fill="#000000"> become older #ev</text>
</g>
<!-- n3 -->
<g id="node4" class="node">
<title>n3</title>
<path fill="#ffffff" stroke="#ffff00" stroke-width="2" d="M628,-364C628,-364 456,-364 456,-364 450,-364 444,-358 444,-352 444,-352 444,-300 444,-300 444,-294 450,-288 456,-288 456,-288 628,-288 628,-288 634,-288 640,-294 640,-300 640,-300 640,-352 640,-352 640,-358 634,-364 628,-364"/>
<text text-anchor="start" x="489.21" y="-350" font-family="arial" font-weight="bold" font-size="10.00" fill="#000000">Trough through Exmoor</text>
<text text-anchor="start" x="464.206" y="-333" font-family="arial" font-size="10.00" fill="#000000">There is a trough through Exmoor &#45;</text>
<text text-anchor="start" x="455.308" y="-321" font-family="arial" font-size="10.00" fill="#000000"> formed by a band of limestone running</text>
<text text-anchor="start" x="463.362" y="-309" font-family="arial" font-size="10.00" fill="#000000"> out to the north coast at Ilfracombe</text>
<text text-anchor="start" x="478.3625" y="-297" font-family="arial" font-size="10.00" fill="#000000"> and south of Barnstaple #ev</text>
</g>
<!-- n4 -->
<g id="node5" class="node">
<title>n4</title>
<path fill="#ffffff" stroke="#ffff00" stroke-width="2" d="M414,-358C414,-358 242,-358 242,-358 236,-358 230,-352 230,-346 230,-346 230,-306 230,-306 230,-300 236,-294 242,-294 242,-294 414,-294 414,-294 420,-294 426,-300 426,-306 426,-306 426,-346 426,-346 426,-352 420,-358 414,-358"/>
<text text-anchor="start" x="251.3105" y="-344" font-family="arial" font-weight="bold" font-size="10.00" fill="#000000">Instances of Coal in Ancient Strata</text>
<text text-anchor="start" x="246.3215" y="-327" font-family="arial" font-size="10.00" fill="#000000">In Munster, North America and North</text>
<text text-anchor="start" x="254.9245" y="-315" font-family="arial" font-size="10.00" fill="#000000"> Devon there are coal deposits in</text>
<text text-anchor="start" x="250.755" y="-303" font-family="arial" font-size="10.00" fill="#000000"> pre&#45;Old Red Sandstone strata #ev</text>
</g>
<!-- n5 -->
<g id="node6" class="node">
<title>n5</title>
<path fill="#ffffff" stroke="#ffff00" stroke-width="2" d="M200,-362C200,-362 28,-362 28,-362 22,-362 16,-356 16,-350 16,-350 16,-302 16,-302 16,-296 22,-290 28,-290 28,-290 200,-290 200,-290 206,-290 212,-296 212,-302 212,-302 212,-350 212,-350 212,-356 206,-362 200,-362"/>
<text text-anchor="start" x="28.4445" y="-348" font-family="arial" font-weight="bold" font-size="10.00" fill="#000000">Devonshire &#45; Characteristic CAM Rock</text>
<text text-anchor="start" x="101.497" y="-338" font-family="arial" font-weight="bold" font-size="10.00" fill="#000000"> Type</text>
<text text-anchor="start" x="37.3125" y="-323" font-family="arial" font-size="10.00" fill="#000000">In Devon, all the strata &#45; older than</text>
<text text-anchor="start" x="41.2" y="-311" font-family="arial" font-size="10.00" fill="#000000"> the New Red Sandstone &#45; are of</text>
<text text-anchor="start" x="32.0395" y="-299" font-family="arial" font-size="10.00" fill="#000000"> carachteristic CAM appearance #ev </text>
</g>
<!-- n6 -->
<g id="node7" class="node">
<title>n6</title>
<path fill="#ffffff" stroke="#c6e2ff" stroke-width="2" d="M1490,-364C1490,-364 1318,-364 1318,-364 1312,-364 1306,-358 1306,-352 1306,-352 1306,-300 1306,-300 1306,-294 1312,-288 1318,-288 1318,-288 1490,-288 1490,-288 1496,-288 1502,-294 1502,-300 1502,-300 1502,-352 1502,-352 1502,-358 1496,-364 1490,-364"/>
<text text-anchor="start" x="1345.664" y="-350" font-family="arial" font-weight="bold" font-size="10.00" fill="#000000">Characteristic Rock Types</text>
<text text-anchor="start" x="1332.8835" y="-333" font-family="arial" font-size="10.00" fill="#000000">A rock type r is characteristic for</text>
<text text-anchor="start" x="1331.777" y="-321" font-family="arial" font-size="10.00" fill="#000000"> some time interval dt iff (i) r only</text>
<text text-anchor="start" x="1328.9875" y="-309" font-family="arial" font-size="10.00" fill="#000000"> exisits during dt and (ii) during dt,</text>
<text text-anchor="start" x="1330.3745" y="-297" font-family="arial" font-size="10.00" fill="#000000"> every region supports r #dat&#45;met</text>
</g>
<!-- n8 -->
<g id="node9" class="node">
<title>n8</title>
<path fill="#ffffff" stroke="#c6e2ff" stroke-width="2" d="M1490,-216C1490,-216 1318,-216 1318,-216 1312,-216 1306,-210 1306,-204 1306,-204 1306,-164 1306,-164 1306,-158 1312,-152 1318,-152 1318,-152 1490,-152 1490,-152 1496,-152 1502,-158 1502,-164 1502,-164 1502,-204 1502,-204 1502,-210 1496,-216 1490,-216"/>
<text text-anchor="start" x="1327.6085" y="-202" font-family="arial" font-weight="bold" font-size="10.00" fill="#000000">Characteristic Rock Type Principle</text>
<text text-anchor="start" x="1318.1385" y="-185" font-family="arial" font-size="10.00" fill="#000000">There is a bijection between the age of</text>
<text text-anchor="start" x="1326.765" y="-173" font-family="arial" font-size="10.00" fill="#000000"> some strata t and its characteristic</text>
<text text-anchor="start" x="1358.713" y="-161" font-family="arial" font-size="10.00" fill="#000000"> rock types #dat&#45;met</text>
</g>
<!-- n6&#45;&gt;n8 -->
<g id="edge1" class="edge">
<title>n6&#45;&gt;n8</title>
<path fill="none" stroke="#00ff00" d="M1404,-287.9466C1404,-269.0053 1404,-246.0443 1404,-226.5249"/>
<polygon fill="#00ff00" stroke="#00ff00" points="1407.5001,-226.3774 1404,-216.3775 1400.5001,-226.3775 1407.5001,-226.3774"/>
</g>
<!-- n7 -->
<g id="node8" class="node">
<title>n7</title>
<path fill="#ffffff" stroke="#c6e2ff" stroke-width="2" d="M1490,-80C1490,-80 1318,-80 1318,-80 1312,-80 1306,-74 1306,-68 1306,-68 1306,-28 1306,-28 1306,-22 1312,-16 1318,-16 1318,-16 1490,-16 1490,-16 1496,-16 1502,-22 1502,-28 1502,-28 1502,-68 1502,-68 1502,-74 1496,-80 1490,-80"/>
<text text-anchor="start" x="1383.169" y="-66" font-family="arial" font-weight="bold" font-size="10.00" fill="#000000">CRTP &#45; 2</text>
<text text-anchor="start" x="1338.1485" y="-49" font-family="arial" font-size="10.00" fill="#000000">If two strata support the same</text>
<text text-anchor="start" x="1325.649" y="-37" font-family="arial" font-size="10.00" fill="#000000"> characteristic rock types, then they</text>
<text text-anchor="start" x="1337.034" y="-25" font-family="arial" font-size="10.00" fill="#000000"> are of the same age #dat&#45;met</text>
</g>
<!-- n8&#45;&gt;n7 -->
<g id="edge2" class="edge">
<title>n8&#45;&gt;n7</title>
<path fill="none" stroke="#00ff00" d="M1404,-151.7699C1404,-133.4422 1404,-110.2682 1404,-90.4712"/>
<polygon fill="#00ff00" stroke="#00ff00" points="1407.5001,-90.47 1404,-80.4701 1400.5001,-90.4701 1407.5001,-90.47"/>
</g>
</g>
</svg>
