
<!-- Generated by graphviz version 2.40.1 (20161225.0304)
 -->
<!-- Title: Argument Map Pages: 1 -->
<svg width="720pt" height="120pt"
 viewBox="0.00 0.00 720.00 120.20" xmlns="http://www.w3.org/2000/svg" xmlns:xlink="http://www.w3.org/1999/xlink">
<g id="graph0" class="graph" transform="scale(.2767 .2767) rotate(0) translate(4 430.4)">
<title>Argument Map</title>
<g id="clust1" class="cluster">
<title>cluster_1</title>
<polygon fill="#ffff00" stroke="#ffff00" points="8,-144 8,-412.4 1290,-412.4 1290,-144 8,-144"/>
<text text-anchor="start" x="624.3256" y="-397.6" font-family="arial" font-size="12.00" fill="#000000">Evidence</text>
</g>
<g id="clust3" class="cluster">
<title>cluster_3</title>
<polygon fill="#eedfcc" stroke="#eedfcc" points="2374,-298 2374,-412.4 2586,-412.4 2586,-298 2374,-298"/>
<text text-anchor="start" x="2415.6578" y="-397.6" font-family="arial" font-size="12.00" fill="#000000">Dating of the Main Culm</text>
</g>
<g id="clust2" class="cluster">
<title>cluster_2</title>
<polygon fill="#c6e2ff" stroke="#c6e2ff" points="1298,-8 1298,-418.4 2366,-418.4 2366,-8 1298,-8"/>
<text text-anchor="start" x="1735.3328" y="-403.6" font-family="arial" font-size="12.00" fill="#000000">Rocks, Fossils and Time &#45; Principles</text>
</g>
<!-- n0 -->
<g id="node1" class="node">
<title>n0</title>
<path fill="#ffffff" stroke="#ffff00" stroke-width="2" d="M1270,-376C1270,-376 1098,-376 1098,-376 1092,-376 1086,-370 1086,-364 1086,-364 1086,-324 1086,-324 1086,-318 1092,-312 1098,-312 1098,-312 1270,-312 1270,-312 1276,-312 1282,-318 1282,-324 1282,-324 1282,-364 1282,-364 1282,-370 1276,-376 1270,-376"/>
<text text-anchor="start" x="1102.305" y="-362" font-family="arial" font-weight="bold" font-size="10.00" fill="#000000">Unbroken Sequence of Devon Strata</text>
<text text-anchor="start" x="1107.3125" y="-345" font-family="arial" font-size="10.00" fill="#000000">In Devon, all the strata &#45; older than</text>
<text text-anchor="start" x="1107.0355" y="-333" font-family="arial" font-size="10.00" fill="#000000"> the New Red Sandstone &#45; form an</text>
<text text-anchor="start" x="1109.8035" y="-321" font-family="arial" font-size="10.00" fill="#000000"> unbroken sequence of strata #ev</text>
</g>
<!-- n6 -->
<g id="node7" class="node">
<title>n6</title>
<path fill="#ffffff" stroke="#ffff00" stroke-width="2" d="M1270,-228C1270,-228 1098,-228 1098,-228 1092,-228 1086,-222 1086,-216 1086,-216 1086,-164 1086,-164 1086,-158 1092,-152 1098,-152 1098,-152 1270,-152 1270,-152 1276,-152 1282,-158 1282,-164 1282,-164 1282,-216 1282,-216 1282,-222 1276,-228 1270,-228"/>
<text text-anchor="start" x="1133.439" y="-214" font-family="arial" font-weight="bold" font-size="10.00" fill="#000000">Unconformity in Devon</text>
<text text-anchor="start" x="1109.2545" y="-197" font-family="arial" font-size="10.00" fill="#000000">Between the Devon Culm and the</text>
<text text-anchor="start" x="1107.866" y="-185" font-family="arial" font-size="10.00" fill="#000000"> juxtaposed strata, there is at least</text>
<text text-anchor="start" x="1113.9895" y="-173" font-family="arial" font-size="10.00" fill="#000000"> one formation missing from the</text>
<text text-anchor="start" x="1130.644" y="-161" font-family="arial" font-size="10.00" fill="#000000"> standard sequence #ev</text>
</g>
<!-- n0&#45;&gt;n6 -->
<g id="edge2" class="edge">
<title>n0&#45;&gt;n6</title>
<path fill="none" stroke="#ff0000" d="M1178.3855,-311.7166C1177.1634,-290.5117 1176.9278,-262.3828 1177.6787,-238.5083"/>
<polygon fill="#ff0000" stroke="#ff0000" points="1181.1873,-238.353 1178.0769,-228.2251 1174.1925,-238.0821 1181.1873,-238.353"/>
</g>
<!-- n1 -->
<g id="node2" class="node">
<title>n1</title>
<path fill="#ffffff" stroke="#ffff00" stroke-width="2" d="M1056,-382C1056,-382 884,-382 884,-382 878,-382 872,-376 872,-370 872,-370 872,-318 872,-318 872,-312 878,-306 884,-306 884,-306 1056,-306 1056,-306 1062,-306 1068,-312 1068,-318 1068,-318 1068,-370 1068,-370 1068,-376 1062,-382 1056,-382"/>
<text text-anchor="start" x="912.7755" y="-368" font-family="arial" font-weight="bold" font-size="10.00" fill="#000000">CM Plants in Devon Culm</text>
<text text-anchor="start" x="883.5985" y="-351" font-family="arial" font-size="10.00" fill="#000000">Near Bideford (North Devon), there are</text>
<text text-anchor="start" x="891.932" y="-339" font-family="arial" font-size="10.00" fill="#000000"> CM fossil plants in the main part of</text>
<text text-anchor="start" x="888.321" y="-327" font-family="arial" font-size="10.00" fill="#000000"> the Culm strata (in close association</text>
<text text-anchor="start" x="881.6525" y="-315" font-family="arial" font-size="10.00" fill="#000000"> with seams of imperfect anthracite) #ev</text>
</g>
<!-- n2 -->
<g id="node3" class="node">
<title>n2</title>
<path fill="#ffffff" stroke="#ffff00" stroke-width="2" d="M842,-370C842,-370 670,-370 670,-370 664,-370 658,-364 658,-358 658,-358 658,-330 658,-330 658,-324 664,-318 670,-318 670,-318 842,-318 842,-318 848,-318 854,-324 854,-330 854,-330 854,-358 854,-358 854,-364 848,-370 842,-370"/>
<text text-anchor="start" x="719.607" y="-356" font-family="arial" font-weight="bold" font-size="10.00" fill="#000000">North of Exmoor</text>
<text text-anchor="start" x="669.871" y="-339" font-family="arial" font-size="10.00" fill="#000000">Passing Exmoor northwards, the strata</text>
<text text-anchor="start" x="714.8775" y="-327" font-family="arial" font-size="10.00" fill="#000000"> become older #ev</text>
</g>
<!-- n3 -->
<g id="node4" class="node">
<title>n3</title>
<path fill="#ffffff" stroke="#ffff00" stroke-width="2" d="M628,-382C628,-382 456,-382 456,-382 450,-382 444,-376 444,-370 444,-370 444,-318 444,-318 444,-312 450,-306 456,-306 456,-306 628,-306 628,-306 634,-306 640,-312 640,-318 640,-318 640,-370 640,-370 640,-376 634,-382 628,-382"/>
<text text-anchor="start" x="489.21" y="-368" font-family="arial" font-weight="bold" font-size="10.00" fill="#000000">Trough through Exmoor</text>
<text text-anchor="start" x="464.206" y="-351" font-family="arial" font-size="10.00" fill="#000000">There is a trough through Exmoor &#45;</text>
<text text-anchor="start" x="455.308" y="-339" font-family="arial" font-size="10.00" fill="#000000"> formed by a band of limestone running</text>
<text text-anchor="start" x="463.362" y="-327" font-family="arial" font-size="10.00" fill="#000000"> out to the north coast at Ilfracombe</text>
<text text-anchor="start" x="478.3625" y="-315" font-family="arial" font-size="10.00" fill="#000000"> and south of Barnstaple #ev</text>
</g>
<!-- n4 -->
<g id="node5" class="node">
<title>n4</title>
<path fill="#ffffff" stroke="#ffff00" stroke-width="2" d="M414,-376C414,-376 242,-376 242,-376 236,-376 230,-370 230,-364 230,-364 230,-324 230,-324 230,-318 236,-312 242,-312 242,-312 414,-312 414,-312 420,-312 426,-318 426,-324 426,-324 426,-364 426,-364 426,-370 420,-376 414,-376"/>
<text text-anchor="start" x="251.3105" y="-362" font-family="arial" font-weight="bold" font-size="10.00" fill="#000000">Instances of Coal in Ancient Strata</text>
<text text-anchor="start" x="246.3215" y="-345" font-family="arial" font-size="10.00" fill="#000000">In Munster, North America and North</text>
<text text-anchor="start" x="254.9245" y="-333" font-family="arial" font-size="10.00" fill="#000000"> Devon there are coal deposits in</text>
<text text-anchor="start" x="250.755" y="-321" font-family="arial" font-size="10.00" fill="#000000"> pre&#45;Old Red Sandstone strata #ev</text>
</g>
<!-- n5 -->
<g id="node6" class="node">
<title>n5</title>
<path fill="#ffffff" stroke="#ffff00" stroke-width="2" d="M200,-380C200,-380 28,-380 28,-380 22,-380 16,-374 16,-368 16,-368 16,-320 16,-320 16,-314 22,-308 28,-308 28,-308 200,-308 200,-308 206,-308 212,-314 212,-320 212,-320 212,-368 212,-368 212,-374 206,-380 200,-380"/>
<text text-anchor="start" x="28.4445" y="-366" font-family="arial" font-weight="bold" font-size="10.00" fill="#000000">Devonshire &#45; Characteristic CAM Rock</text>
<text text-anchor="start" x="101.497" y="-356" font-family="arial" font-weight="bold" font-size="10.00" fill="#000000"> Type</text>
<text text-anchor="start" x="37.3125" y="-341" font-family="arial" font-size="10.00" fill="#000000">In Devon, all the strata &#45; older than</text>
<text text-anchor="start" x="41.2" y="-329" font-family="arial" font-size="10.00" fill="#000000"> the New Red Sandstone &#45; are of</text>
<text text-anchor="start" x="32.0395" y="-317" font-family="arial" font-size="10.00" fill="#000000"> carachteristic CAM appearance #ev </text>
</g>
<!-- n6&#45;&gt;n0 -->
<g id="edge1" class="edge">
<title>n6&#45;&gt;n0</title>
<path fill="none" stroke="#ff0000" d="M1189.9231,-228.2251C1190.9614,-250.4953 1191.0219,-278.6212 1190.1047,-301.5742"/>
<polygon fill="#ff0000" stroke="#ff0000" points="1186.6014,-301.5592 1189.6145,-311.7166 1193.5932,-301.8972 1186.6014,-301.5592"/>
</g>
<!-- n7 -->
<g id="node8" class="node">
<title>n7</title>
<path fill="#ffffff" stroke="#c6e2ff" stroke-width="2" d="M2346,-382C2346,-382 2174,-382 2174,-382 2168,-382 2162,-376 2162,-370 2162,-370 2162,-318 2162,-318 2162,-312 2168,-306 2174,-306 2174,-306 2346,-306 2346,-306 2352,-306 2358,-312 2358,-318 2358,-318 2358,-370 2358,-370 2358,-376 2352,-382 2346,-382"/>
<text text-anchor="start" x="2201.664" y="-368" font-family="arial" font-weight="bold" font-size="10.00" fill="#000000">Characteristic Rock Types</text>
<text text-anchor="start" x="2188.8835" y="-351" font-family="arial" font-size="10.00" fill="#000000">A rock type r is characteristic for</text>
<text text-anchor="start" x="2187.777" y="-339" font-family="arial" font-size="10.00" fill="#000000"> some time interval dt iff (i) r only</text>
<text text-anchor="start" x="2184.9875" y="-327" font-family="arial" font-size="10.00" fill="#000000"> exisits during dt and (ii) during dt,</text>
<text text-anchor="start" x="2186.3745" y="-315" font-family="arial" font-size="10.00" fill="#000000"> every region supports r #dat&#45;met</text>
</g>
<!-- n10 -->
<g id="node11" class="node">
<title>n10</title>
<path fill="#ffffff" stroke="#c6e2ff" stroke-width="2" d="M2239,-222C2239,-222 2067,-222 2067,-222 2061,-222 2055,-216 2055,-210 2055,-210 2055,-170 2055,-170 2055,-164 2061,-158 2067,-158 2067,-158 2239,-158 2239,-158 2245,-158 2251,-164 2251,-170 2251,-170 2251,-210 2251,-210 2251,-216 2245,-222 2239,-222"/>
<text text-anchor="start" x="2076.6085" y="-208" font-family="arial" font-weight="bold" font-size="10.00" fill="#000000">Characteristic Rock Type Principle</text>
<text text-anchor="start" x="2067.1385" y="-191" font-family="arial" font-size="10.00" fill="#000000">There is a bijection between the age of</text>
<text text-anchor="start" x="2075.765" y="-179" font-family="arial" font-size="10.00" fill="#000000"> some strata t and its characteristic</text>
<text text-anchor="start" x="2107.713" y="-167" font-family="arial" font-size="10.00" fill="#000000"> rock types #dat&#45;met</text>
</g>
<!-- n7&#45;&gt;n10 -->
<g id="edge3" class="edge">
<title>n7&#45;&gt;n10</title>
<path fill="none" stroke="#00ff00" d="M2233.5506,-305.9326C2217.6216,-283.0068 2197.3511,-253.8325 2181.1298,-230.4859"/>
<polygon fill="#00ff00" stroke="#00ff00" points="2183.9326,-228.3859 2175.3523,-222.1706 2178.184,-232.3801 2183.9326,-228.3859"/>
</g>
<!-- n8 -->
<g id="node9" class="node">
<title>n8</title>
<path fill="#ffffff" stroke="#c6e2ff" stroke-width="2" d="M2132,-376C2132,-376 1960,-376 1960,-376 1954,-376 1948,-370 1948,-364 1948,-364 1948,-324 1948,-324 1948,-318 1954,-312 1960,-312 1960,-312 2132,-312 2132,-312 2138,-312 2144,-318 2144,-324 2144,-324 2144,-364 2144,-364 2144,-370 2138,-376 2132,-376"/>
<text text-anchor="start" x="1959.044" y="-362" font-family="arial" font-weight="bold" font-size="10.00" fill="#000000">Existence of Characteristic Rock Types</text>
<text text-anchor="start" x="1970.7165" y="-345" font-family="arial" font-size="10.00" fill="#000000">For every time intervall dt, there is</text>
<text text-anchor="start" x="1976.827" y="-333" font-family="arial" font-size="10.00" fill="#000000"> some charactersitic rock type r</text>
<text text-anchor="start" x="2024.8845" y="-321" font-family="arial" font-size="10.00" fill="#000000"> #dat&#45;met</text>
</g>
<!-- n8&#45;&gt;n10 -->
<g id="edge4" class="edge">
<title>n8&#45;&gt;n10</title>
<path fill="none" stroke="#00ff00" d="M2068.4307,-311.7166C2084.8377,-288.1027 2107.2106,-255.9025 2124.8237,-230.5528"/>
<polygon fill="#00ff00" stroke="#00ff00" points="2127.7671,-232.4504 2130.5988,-222.2409 2122.0185,-228.4562 2127.7671,-232.4504"/>
</g>
<!-- n9 -->
<g id="node10" class="node">
<title>n9</title>
<path fill="#ffffff" stroke="#c6e2ff" stroke-width="2" d="M2239,-80C2239,-80 2067,-80 2067,-80 2061,-80 2055,-74 2055,-68 2055,-68 2055,-28 2055,-28 2055,-22 2061,-16 2067,-16 2067,-16 2239,-16 2239,-16 2245,-16 2251,-22 2251,-28 2251,-28 2251,-68 2251,-68 2251,-74 2245,-80 2239,-80"/>
<text text-anchor="start" x="2132.169" y="-66" font-family="arial" font-weight="bold" font-size="10.00" fill="#000000">CRTP &#45; 2</text>
<text text-anchor="start" x="2087.1485" y="-49" font-family="arial" font-size="10.00" fill="#000000">If two strata support the same</text>
<text text-anchor="start" x="2074.649" y="-37" font-family="arial" font-size="10.00" fill="#000000"> characteristic rock types, then they</text>
<text text-anchor="start" x="2086.034" y="-25" font-family="arial" font-size="10.00" fill="#000000"> are of the same age #dat&#45;met</text>
</g>
<!-- n10&#45;&gt;n9 -->
<g id="edge5" class="edge">
<title>n10&#45;&gt;n9</title>
<path fill="none" stroke="#00ff00" d="M2153,-157.778C2153,-137.8068 2153,-111.9309 2153,-90.3177"/>
<polygon fill="#00ff00" stroke="#00ff00" points="2156.5001,-90.0944 2153,-80.0945 2149.5001,-90.0945 2156.5001,-90.0944"/>
</g>
<!-- n11 -->
<g id="node12" class="node">
<title>n11</title>
<path fill="#ffffff" stroke="#c6e2ff" stroke-width="2" d="M1918,-382C1918,-382 1746,-382 1746,-382 1740,-382 1734,-376 1734,-370 1734,-370 1734,-318 1734,-318 1734,-312 1740,-306 1746,-306 1746,-306 1918,-306 1918,-306 1924,-306 1930,-312 1930,-318 1930,-318 1930,-370 1930,-370 1930,-376 1924,-382 1918,-382"/>
<text text-anchor="start" x="1784.503" y="-368" font-family="arial" font-weight="bold" font-size="10.00" fill="#000000">Characteristic Fossils</text>
<text text-anchor="start" x="1758.938" y="-351" font-family="arial" font-size="10.00" fill="#000000">A fossil species f is characteristic</text>
<text text-anchor="start" x="1763.387" y="-339" font-family="arial" font-size="10.00" fill="#000000"> for some time interval dt iff (i) f</text>
<text text-anchor="start" x="1753.3775" y="-327" font-family="arial" font-size="10.00" fill="#000000"> only exisits during dt and (ii) during</text>
<text text-anchor="start" x="1751.7015" y="-315" font-family="arial" font-size="10.00" fill="#000000"> dt, every region supports f #dat&#45;met</text>
</g>
<!-- n14 -->
<g id="node15" class="node">
<title>n14</title>
<path fill="#ffffff" stroke="#c6e2ff" stroke-width="2" d="M1811,-222C1811,-222 1639,-222 1639,-222 1633,-222 1627,-216 1627,-210 1627,-210 1627,-170 1627,-170 1627,-164 1633,-158 1639,-158 1639,-158 1811,-158 1811,-158 1817,-158 1823,-164 1823,-170 1823,-170 1823,-210 1823,-210 1823,-216 1817,-222 1811,-222"/>
<text text-anchor="start" x="1656.9475" y="-208" font-family="arial" font-weight="bold" font-size="10.00" fill="#000000">Characteristic Fossils Principle</text>
<text text-anchor="start" x="1639.1385" y="-191" font-family="arial" font-size="10.00" fill="#000000">There is a bijection between the age of</text>
<text text-anchor="start" x="1647.765" y="-179" font-family="arial" font-size="10.00" fill="#000000"> some strata t and its characteristic</text>
<text text-anchor="start" x="1688.607" y="-167" font-family="arial" font-size="10.00" fill="#000000"> fossils #dat&#45;met</text>
</g>
<!-- n11&#45;&gt;n14 -->
<g id="edge6" class="edge">
<title>n11&#45;&gt;n14</title>
<path fill="none" stroke="#00ff00" d="M1805.5506,-305.9326C1789.6216,-283.0068 1769.3511,-253.8325 1753.1298,-230.4859"/>
<polygon fill="#00ff00" stroke="#00ff00" points="1755.9326,-228.3859 1747.3523,-222.1706 1750.184,-232.3801 1755.9326,-228.3859"/>
</g>
<!-- n12 -->
<g id="node13" class="node">
<title>n12</title>
<path fill="#ffffff" stroke="#c6e2ff" stroke-width="2" d="M1704,-376C1704,-376 1532,-376 1532,-376 1526,-376 1520,-370 1520,-364 1520,-364 1520,-324 1520,-324 1520,-318 1526,-312 1532,-312 1532,-312 1704,-312 1704,-312 1710,-312 1716,-318 1716,-324 1716,-324 1716,-364 1716,-364 1716,-370 1710,-376 1704,-376"/>
<text text-anchor="start" x="1541.883" y="-362" font-family="arial" font-weight="bold" font-size="10.00" fill="#000000">Existence of Characteristic Fossils</text>
<text text-anchor="start" x="1542.7165" y="-345" font-family="arial" font-size="10.00" fill="#000000">For every time intervall dt, there is</text>
<text text-anchor="start" x="1539.6585" y="-333" font-family="arial" font-size="10.00" fill="#000000"> some charactersitic fossil species f</text>
<text text-anchor="start" x="1596.8845" y="-321" font-family="arial" font-size="10.00" fill="#000000"> #dat&#45;met</text>
</g>
<!-- n12&#45;&gt;n14 -->
<g id="edge7" class="edge">
<title>n12&#45;&gt;n14</title>
<path fill="none" stroke="#00ff00" d="M1640.4307,-311.7166C1656.8377,-288.1027 1679.2106,-255.9025 1696.8237,-230.5528"/>
<polygon fill="#00ff00" stroke="#00ff00" points="1699.7671,-232.4504 1702.5988,-222.2409 1694.0185,-228.4562 1699.7671,-232.4504"/>
</g>
<!-- n13 -->
<g id="node14" class="node">
<title>n13</title>
<path fill="#ffffff" stroke="#c6e2ff" stroke-width="2" d="M1811,-80C1811,-80 1639,-80 1639,-80 1633,-80 1627,-74 1627,-68 1627,-68 1627,-28 1627,-28 1627,-22 1633,-16 1639,-16 1639,-16 1811,-16 1811,-16 1817,-16 1823,-22 1823,-28 1823,-28 1823,-68 1823,-68 1823,-74 1817,-80 1811,-80"/>
<text text-anchor="start" x="1707.7785" y="-66" font-family="arial" font-weight="bold" font-size="10.00" fill="#000000">CFP &#45; 2</text>
<text text-anchor="start" x="1659.1485" y="-49" font-family="arial" font-size="10.00" fill="#000000">If two strata support the same</text>
<text text-anchor="start" x="1646.93" y="-37" font-family="arial" font-size="10.00" fill="#000000"> characteristic fossils, then they are</text>
<text text-anchor="start" x="1666.647" y="-25" font-family="arial" font-size="10.00" fill="#000000"> of the same age #dat&#45;met</text>
</g>
<!-- n14&#45;&gt;n13 -->
<g id="edge8" class="edge">
<title>n14&#45;&gt;n13</title>
<path fill="none" stroke="#00ff00" d="M1725,-157.778C1725,-137.8068 1725,-111.9309 1725,-90.3177"/>
<polygon fill="#00ff00" stroke="#00ff00" points="1728.5001,-90.0944 1725,-80.0945 1721.5001,-90.0945 1728.5001,-90.0944"/>
</g>
<!-- n15 -->
<g id="node16" class="node">
<title>n15</title>
<path fill="#ffffff" stroke="#c6e2ff" stroke-width="2" d="M1490,-388C1490,-388 1318,-388 1318,-388 1312,-388 1306,-382 1306,-376 1306,-376 1306,-312 1306,-312 1306,-306 1312,-300 1318,-300 1318,-300 1490,-300 1490,-300 1496,-300 1502,-306 1502,-312 1502,-312 1502,-376 1502,-376 1502,-382 1496,-388 1490,-388"/>
<text text-anchor="start" x="1366.498" y="-374" font-family="arial" font-weight="bold" font-size="10.00" fill="#000000">Lyellian Principle</text>
<text text-anchor="start" x="1333.43" y="-357" font-family="arial" font-size="10.00" fill="#000000">At the earth&#39;s surface, there is a</text>
<text text-anchor="start" x="1319.8015" y="-345" font-family="arial" font-size="10.00" fill="#000000"> constant but piecemeal change in the</text>
<text text-anchor="start" x="1320.917" y="-333" font-family="arial" font-size="10.00" fill="#000000"> composition of the faunas and floras,</text>
<text text-anchor="start" x="1330.6555" y="-321" font-family="arial" font-size="10.00" fill="#000000"> in correlation with ever&#45;changing</text>
<text text-anchor="start" x="1332.043" y="-309" font-family="arial" font-size="10.00" fill="#000000"> physical environments #dat&#45;met</text>
</g>
<!-- n16 -->
<g id="node17" class="node">
<title>n16</title>
<path fill="#ffffff" stroke="#c6e2ff" stroke-width="2" d="M1490,-222C1490,-222 1318,-222 1318,-222 1312,-222 1306,-216 1306,-210 1306,-210 1306,-170 1306,-170 1306,-164 1312,-158 1318,-158 1318,-158 1490,-158 1490,-158 1496,-158 1502,-164 1502,-170 1502,-170 1502,-210 1502,-210 1502,-216 1496,-222 1490,-222"/>
<text text-anchor="start" x="1328.9995" y="-208" font-family="arial" font-weight="bold" font-size="10.00" fill="#000000">L2 &#45; Maximal Difference in Fossils</text>
<text text-anchor="start" x="1339.264" y="-191" font-family="arial" font-size="10.00" fill="#000000">If two strata are suffienciently</text>
<text text-anchor="start" x="1330.912" y="-179" font-family="arial" font-size="10.00" fill="#000000"> different in age, then they do not</text>
<text text-anchor="start" x="1317.8815" y="-167" font-family="arial" font-size="10.00" fill="#000000"> support similar fossil species #dat&#45;met</text>
</g>
<!-- n15&#45;&gt;n16 -->
<g id="edge9" class="edge">
<title>n15&#45;&gt;n16</title>
<path fill="none" stroke="#00ff00" d="M1404,-299.8698C1404,-278.7322 1404,-253.5264 1404,-232.5921"/>
<polygon fill="#00ff00" stroke="#00ff00" points="1407.5001,-232.3875 1404,-222.3876 1400.5001,-232.3876 1407.5001,-232.3875"/>
</g>
<!-- n17 -->
<g id="node18" class="node">
<title>n17</title>
<path fill="#ffffff" stroke="#ff8c00" stroke-width="2" d="M2566,-382C2566,-382 2394,-382 2394,-382 2388,-382 2382,-376 2382,-370 2382,-370 2382,-318 2382,-318 2382,-312 2388,-306 2394,-306 2394,-306 2566,-306 2566,-306 2572,-306 2578,-312 2578,-318 2578,-318 2578,-370 2578,-370 2578,-376 2572,-382 2566,-382"/>
<text text-anchor="start" x="2394.451" y="-368" font-family="arial" font-weight="bold" font-size="10.00" fill="#000000">Characteristic CM fossils in Main Culm</text>
<text text-anchor="start" x="2397.492" y="-351" font-family="arial" font-size="10.00" fill="#000000">Near Bideford (North Devon), the CM</text>
<text text-anchor="start" x="2396.3705" y="-339" font-family="arial" font-size="10.00" fill="#000000"> fossil plants supported by some main</text>
<text text-anchor="start" x="2404.4445" y="-327" font-family="arial" font-size="10.00" fill="#000000"> Culm strata are characteristic CM</text>
<text text-anchor="start" x="2429.1585" y="-315" font-family="arial" font-size="10.00" fill="#000000"> fossils #COA #fos&#45;hyp</text>
</g>
</g>
</svg>
