
<!-- Generated by graphviz version 2.40.1 (20161225.0304)
 -->
<!-- Title: Argument Map Pages: 1 -->
<svg width="720pt" height="170pt"
 viewBox="0.00 0.00 720.00 169.82" xmlns="http://www.w3.org/2000/svg" xmlns:xlink="http://www.w3.org/1999/xlink">
<g id="graph0" class="graph" transform="scale(.4138 .4138) rotate(0) translate(4 406.4)">
<title>Argument Map</title>
<g id="clust1" class="cluster">
<title>cluster_1</title>
<polygon fill="#ffff00" stroke="#ffff00" points="8,-280 8,-394.4 1290,-394.4 1290,-280 8,-280"/>
<text text-anchor="start" x="624.3256" y="-379.6" font-family="arial" font-size="12.00" fill="#000000">Evidence</text>
</g>
<g id="clust2" class="cluster">
<title>cluster_2</title>
<polygon fill="#c6e2ff" stroke="#c6e2ff" points="1298,-8 1298,-394.4 1724,-394.4 1724,-8 1298,-8"/>
<text text-anchor="start" x="1414.3328" y="-379.6" font-family="arial" font-size="12.00" fill="#000000">Rocks, Fossils and Time &#45; Principles</text>
</g>
<!-- n0 -->
<g id="node1" class="node">
<title>n0</title>
<path fill="#ffffff" stroke="#ffff00" stroke-width="2" d="M1270,-358C1270,-358 1098,-358 1098,-358 1092,-358 1086,-352 1086,-346 1086,-346 1086,-306 1086,-306 1086,-300 1092,-294 1098,-294 1098,-294 1270,-294 1270,-294 1276,-294 1282,-300 1282,-306 1282,-306 1282,-346 1282,-346 1282,-352 1276,-358 1270,-358"/>
<text text-anchor="start" x="1102.305" y="-344" font-family="arial" font-weight="bold" font-size="10.00" fill="#000000">Unbroken Sequence of Devon Strata</text>
<text text-anchor="start" x="1107.3125" y="-327" font-family="arial" font-size="10.00" fill="#000000">In Devon, all the strata &#45; older than</text>
<text text-anchor="start" x="1107.0355" y="-315" font-family="arial" font-size="10.00" fill="#000000"> the New Red Sandstone &#45; form an</text>
<text text-anchor="start" x="1109.8035" y="-303" font-family="arial" font-size="10.00" fill="#000000"> unbroken sequence of strata #ev</text>
</g>
<!-- n1 -->
<g id="node2" class="node">
<title>n1</title>
<path fill="#ffffff" stroke="#ffff00" stroke-width="2" d="M1056,-364C1056,-364 884,-364 884,-364 878,-364 872,-358 872,-352 872,-352 872,-300 872,-300 872,-294 878,-288 884,-288 884,-288 1056,-288 1056,-288 1062,-288 1068,-294 1068,-300 1068,-300 1068,-352 1068,-352 1068,-358 1062,-364 1056,-364"/>
<text text-anchor="start" x="912.7755" y="-350" font-family="arial" font-weight="bold" font-size="10.00" fill="#000000">CM Plants in Devon Culm</text>
<text text-anchor="start" x="883.5985" y="-333" font-family="arial" font-size="10.00" fill="#000000">Near Bideford (North Devon), there are</text>
<text text-anchor="start" x="891.932" y="-321" font-family="arial" font-size="10.00" fill="#000000"> CM fossil plants in the main part of</text>
<text text-anchor="start" x="888.321" y="-309" font-family="arial" font-size="10.00" fill="#000000"> the Culm strata (in close association</text>
<text text-anchor="start" x="881.6525" y="-297" font-family="arial" font-size="10.00" fill="#000000"> with seams of imperfect anthracite) #ev</text>
</g>
<!-- n2 -->
<g id="node3" class="node">
<title>n2</title>
<path fill="#ffffff" stroke="#ffff00" stroke-width="2" d="M842,-352C842,-352 670,-352 670,-352 664,-352 658,-346 658,-340 658,-340 658,-312 658,-312 658,-306 664,-300 670,-300 670,-300 842,-300 842,-300 848,-300 854,-306 854,-312 854,-312 854,-340 854,-340 854,-346 848,-352 842,-352"/>
<text text-anchor="start" x="719.607" y="-338" font-family="arial" font-weight="bold" font-size="10.00" fill="#000000">North of Exmoor</text>
<text text-anchor="start" x="669.871" y="-321" font-family="arial" font-size="10.00" fill="#000000">Passing Exmoor northwards, the strata</text>
<text text-anchor="start" x="714.8775" y="-309" font-family="arial" font-size="10.00" fill="#000000"> become older #ev</text>
</g>
<!-- n3 -->
<g id="node4" class="node">
<title>n3</title>
<path fill="#ffffff" stroke="#ffff00" stroke-width="2" d="M628,-364C628,-364 456,-364 456,-364 450,-364 444,-358 444,-352 444,-352 444,-300 444,-300 444,-294 450,-288 456,-288 456,-288 628,-288 628,-288 634,-288 640,-294 640,-300 640,-300 640,-352 640,-352 640,-358 634,-364 628,-364"/>
<text text-anchor="start" x="489.21" y="-350" font-family="arial" font-weight="bold" font-size="10.00" fill="#000000">Trough through Exmoor</text>
<text text-anchor="start" x="464.206" y="-333" font-family="arial" font-size="10.00" fill="#000000">There is a trough through Exmoor &#45;</text>
<text text-anchor="start" x="455.308" y="-321" font-family="arial" font-size="10.00" fill="#000000"> formed by a band of limestone running</text>
<text text-anchor="start" x="463.362" y="-309" font-family="arial" font-size="10.00" fill="#000000"> out to the north coast at Ilfracombe</text>
<text text-anchor="start" x="478.3625" y="-297" font-family="arial" font-size="10.00" fill="#000000"> and south of Barnstaple #ev</text>
</g>
<!-- n4 -->
<g id="node5" class="node">
<title>n4</title>
<path fill="#ffffff" stroke="#ffff00" stroke-width="2" d="M414,-358C414,-358 242,-358 242,-358 236,-358 230,-352 230,-346 230,-346 230,-306 230,-306 230,-300 236,-294 242,-294 242,-294 414,-294 414,-294 420,-294 426,-300 426,-306 426,-306 426,-346 426,-346 426,-352 420,-358 414,-358"/>
<text text-anchor="start" x="251.3105" y="-344" font-family="arial" font-weight="bold" font-size="10.00" fill="#000000">Instances of Coal in Ancient Strata</text>
<text text-anchor="start" x="246.3215" y="-327" font-family="arial" font-size="10.00" fill="#000000">In Munster, North America and North</text>
<text text-anchor="start" x="254.9245" y="-315" font-family="arial" font-size="10.00" fill="#000000"> Devon there are coal deposits in</text>
<text text-anchor="start" x="250.755" y="-303" font-family="arial" font-size="10.00" fill="#000000"> pre&#45;Old Red Sandstone strata #ev</text>
</g>
<!-- n5 -->
<g id="node6" class="node">
<title>n5</title>
<path fill="#ffffff" stroke="#ffff00" stroke-width="2" d="M200,-362C200,-362 28,-362 28,-362 22,-362 16,-356 16,-350 16,-350 16,-302 16,-302 16,-296 22,-290 28,-290 28,-290 200,-290 200,-290 206,-290 212,-296 212,-302 212,-302 212,-350 212,-350 212,-356 206,-362 200,-362"/>
<text text-anchor="start" x="28.4445" y="-348" font-family="arial" font-weight="bold" font-size="10.00" fill="#000000">Devonshire &#45; Characteristic CAM Rock</text>
<text text-anchor="start" x="101.497" y="-338" font-family="arial" font-weight="bold" font-size="10.00" fill="#000000"> Type</text>
<text text-anchor="start" x="37.3125" y="-323" font-family="arial" font-size="10.00" fill="#000000">In Devon, all the strata &#45; older than</text>
<text text-anchor="start" x="41.2" y="-311" font-family="arial" font-size="10.00" fill="#000000"> the New Red Sandstone &#45; are of</text>
<text text-anchor="start" x="34.819" y="-299" font-family="arial" font-size="10.00" fill="#000000"> caracteristic CAM appearance #ev </text>
</g>
<!-- n6 -->
<g id="node7" class="node">
<title>n6</title>
<path fill="#ffffff" stroke="#c6e2ff" stroke-width="2" d="M1704,-364C1704,-364 1532,-364 1532,-364 1526,-364 1520,-358 1520,-352 1520,-352 1520,-300 1520,-300 1520,-294 1526,-288 1532,-288 1532,-288 1704,-288 1704,-288 1710,-288 1716,-294 1716,-300 1716,-300 1716,-352 1716,-352 1716,-358 1710,-364 1704,-364"/>
<text text-anchor="start" x="1559.664" y="-350" font-family="arial" font-weight="bold" font-size="10.00" fill="#000000">Characteristic Rock Types</text>
<text text-anchor="start" x="1546.8835" y="-333" font-family="arial" font-size="10.00" fill="#000000">A rock type r is characteristic for</text>
<text text-anchor="start" x="1545.777" y="-321" font-family="arial" font-size="10.00" fill="#000000"> some time interval dt iff (i) r only</text>
<text text-anchor="start" x="1542.9875" y="-309" font-family="arial" font-size="10.00" fill="#000000"> exisits during dt and (ii) during dt,</text>
<text text-anchor="start" x="1544.3745" y="-297" font-family="arial" font-size="10.00" fill="#000000"> every region supports r #dat&#45;met</text>
</g>
<!-- n9 -->
<g id="node10" class="node">
<title>n9</title>
<path fill="#ffffff" stroke="#c6e2ff" stroke-width="2" d="M1597,-216C1597,-216 1425,-216 1425,-216 1419,-216 1413,-210 1413,-204 1413,-204 1413,-164 1413,-164 1413,-158 1419,-152 1425,-152 1425,-152 1597,-152 1597,-152 1603,-152 1609,-158 1609,-164 1609,-164 1609,-204 1609,-204 1609,-210 1603,-216 1597,-216"/>
<text text-anchor="start" x="1434.6085" y="-202" font-family="arial" font-weight="bold" font-size="10.00" fill="#000000">Characteristic Rock Type Principle</text>
<text text-anchor="start" x="1425.1385" y="-185" font-family="arial" font-size="10.00" fill="#000000">There is a bijection between the age of</text>
<text text-anchor="start" x="1433.765" y="-173" font-family="arial" font-size="10.00" fill="#000000"> some strata t and its characteristic</text>
<text text-anchor="start" x="1465.713" y="-161" font-family="arial" font-size="10.00" fill="#000000"> rock types #dat&#45;met</text>
</g>
<!-- n6&#45;&gt;n9 -->
<g id="edge1" class="edge">
<title>n6&#45;&gt;n9</title>
<path fill="none" stroke="#00ff00" d="M1589.326,-287.9466C1574.5271,-268.307 1556.4719,-244.3459 1541.4276,-224.3805"/>
<polygon fill="#00ff00" stroke="#00ff00" points="1544.2104,-222.2576 1535.3971,-216.3775 1538.6198,-226.4703 1544.2104,-222.2576"/>
</g>
<!-- n7 -->
<g id="node8" class="node">
<title>n7</title>
<path fill="#ffffff" stroke="#c6e2ff" stroke-width="2" d="M1490,-358C1490,-358 1318,-358 1318,-358 1312,-358 1306,-352 1306,-346 1306,-346 1306,-306 1306,-306 1306,-300 1312,-294 1318,-294 1318,-294 1490,-294 1490,-294 1496,-294 1502,-300 1502,-306 1502,-306 1502,-346 1502,-346 1502,-352 1496,-358 1490,-358"/>
<text text-anchor="start" x="1317.044" y="-344" font-family="arial" font-weight="bold" font-size="10.00" fill="#000000">Existence of Characteristic Rock Types</text>
<text text-anchor="start" x="1328.7165" y="-327" font-family="arial" font-size="10.00" fill="#000000">For every time intervall dt, there is</text>
<text text-anchor="start" x="1334.827" y="-315" font-family="arial" font-size="10.00" fill="#000000"> some charactersitic rock type r</text>
<text text-anchor="start" x="1382.8845" y="-303" font-family="arial" font-size="10.00" fill="#000000"> #dat&#45;met</text>
</g>
<!-- n7&#45;&gt;n9 -->
<g id="edge2" class="edge">
<title>n7&#45;&gt;n9</title>
<path fill="none" stroke="#00ff00" d="M1428.28,-293.778C1443.8075,-273.1714 1464.072,-246.2783 1480.6573,-224.2678"/>
<polygon fill="#00ff00" stroke="#00ff00" points="1483.5934,-226.1873 1486.8161,-216.0945 1478.0028,-221.9747 1483.5934,-226.1873"/>
</g>
<!-- n8 -->
<g id="node9" class="node">
<title>n8</title>
<path fill="#ffffff" stroke="#c6e2ff" stroke-width="2" d="M1597,-80C1597,-80 1425,-80 1425,-80 1419,-80 1413,-74 1413,-68 1413,-68 1413,-28 1413,-28 1413,-22 1419,-16 1425,-16 1425,-16 1597,-16 1597,-16 1603,-16 1609,-22 1609,-28 1609,-28 1609,-68 1609,-68 1609,-74 1603,-80 1597,-80"/>
<text text-anchor="start" x="1490.169" y="-66" font-family="arial" font-weight="bold" font-size="10.00" fill="#000000">CRTP &#45; 2</text>
<text text-anchor="start" x="1445.1485" y="-49" font-family="arial" font-size="10.00" fill="#000000">If two strata support the same</text>
<text text-anchor="start" x="1432.649" y="-37" font-family="arial" font-size="10.00" fill="#000000"> characteristic rock types, then they</text>
<text text-anchor="start" x="1444.034" y="-25" font-family="arial" font-size="10.00" fill="#000000"> are of the same age #dat&#45;met</text>
</g>
<!-- n9&#45;&gt;n8 -->
<g id="edge3" class="edge">
<title>n9&#45;&gt;n8</title>
<path fill="none" stroke="#00ff00" d="M1511,-151.7699C1511,-133.4422 1511,-110.2682 1511,-90.4712"/>
<polygon fill="#00ff00" stroke="#00ff00" points="1514.5001,-90.47 1511,-80.4701 1507.5001,-90.4701 1514.5001,-90.47"/>
</g>
</g>
</svg>
