
<!-- Generated by graphviz version 2.40.1 (20161225.0304)
 -->
<!-- Title: Argument Map Pages: 1 -->
<svg width="720pt" height="260pt"
 viewBox="0.00 0.00 720.00 259.58" xmlns="http://www.w3.org/2000/svg" xmlns:xlink="http://www.w3.org/1999/xlink">
<g id="graph0" class="graph" transform="scale(.1963 .1963) rotate(0) translate(4 1318.4)">
<title>Argument Map</title>
<g id="clust1" class="cluster">
<title>cluster_1</title>
<polygon fill="#ffff00" stroke="#ffff00" points="870,-700 870,-974.4 3652,-974.4 3652,-700 870,-700"/>
<text text-anchor="start" x="2236.3256" y="-959.6" font-family="arial" font-size="12.00" fill="#000000">Evidence</text>
</g>
<g id="clust2" class="cluster">
<title>cluster_2</title>
<polygon fill="#c6e2ff" stroke="#c6e2ff" points="8,-8 8,-1306.4 862,-1306.4 862,-8 8,-8"/>
<text text-anchor="start" x="338.3328" y="-1291.6" font-family="arial" font-size="12.00" fill="#000000">Rocks, Fossils and Time &#45; Principles</text>
</g>
<g id="clust3" class="cluster">
<title>cluster_3</title>
<polygon fill="#eedfcc" stroke="#eedfcc" points="870,-280 870,-394.4 1082,-394.4 1082,-280 870,-280"/>
<text text-anchor="start" x="911.6578" y="-379.6" font-family="arial" font-size="12.00" fill="#000000">Dating of the Main Culm</text>
</g>
<g id="clust4" class="cluster">
<title>cluster_4</title>
<polygon fill="#9fb6cd" stroke="#9fb6cd" points="1090,-280 1090,-394.4 1310,-394.4 1310,-280 1090,-280"/>
<text text-anchor="start" x="1097.9862" y="-379.6" font-family="arial" font-size="12.00" fill="#000000">Aporia II : CM Plants in non&#45;CM Strata</text>
</g>
<!-- n0 -->
<g id="node1" class="node">
<title>n0</title>
<path fill="#ffffff" stroke="#ffff00" stroke-width="2" d="M1276,-938C1276,-938 1104,-938 1104,-938 1098,-938 1092,-932 1092,-926 1092,-926 1092,-886 1092,-886 1092,-880 1098,-874 1104,-874 1104,-874 1276,-874 1276,-874 1282,-874 1288,-880 1288,-886 1288,-886 1288,-926 1288,-926 1288,-932 1282,-938 1276,-938"/>
<text text-anchor="start" x="1108.305" y="-924" font-family="arial" font-weight="bold" font-size="10.00" fill="#000000">Unbroken Sequence of Devon Strata</text>
<text text-anchor="start" x="1113.3125" y="-907" font-family="arial" font-size="10.00" fill="#000000">In Devon, all the strata &#45; older than</text>
<text text-anchor="start" x="1113.0355" y="-895" font-family="arial" font-size="10.00" fill="#000000"> the New Red Sandstone &#45; form an</text>
<text text-anchor="start" x="1115.8035" y="-883" font-family="arial" font-size="10.00" fill="#000000"> unbroken sequence of strata #ev</text>
</g>
<!-- n6 -->
<g id="node7" class="node">
<title>n6</title>
<path fill="#ffffff" stroke="#ffff00" stroke-width="2" d="M1276,-784C1276,-784 1104,-784 1104,-784 1098,-784 1092,-778 1092,-772 1092,-772 1092,-720 1092,-720 1092,-714 1098,-708 1104,-708 1104,-708 1276,-708 1276,-708 1282,-708 1288,-714 1288,-720 1288,-720 1288,-772 1288,-772 1288,-778 1282,-784 1276,-784"/>
<text text-anchor="start" x="1139.439" y="-770" font-family="arial" font-weight="bold" font-size="10.00" fill="#000000">Unconformity in Devon</text>
<text text-anchor="start" x="1115.2545" y="-753" font-family="arial" font-size="10.00" fill="#000000">Between the Devon Culm and the</text>
<text text-anchor="start" x="1113.866" y="-741" font-family="arial" font-size="10.00" fill="#000000"> juxtaposed strata, there is at least</text>
<text text-anchor="start" x="1119.9895" y="-729" font-family="arial" font-size="10.00" fill="#000000"> one formation missing from the</text>
<text text-anchor="start" x="1136.644" y="-717" font-family="arial" font-size="10.00" fill="#000000"> standard sequence #ev</text>
</g>
<!-- n0&#45;&gt;n6 -->
<g id="edge2" class="edge">
<title>n0&#45;&gt;n6</title>
<path fill="none" stroke="#ff0000" d="M1184.4514,-873.6216C1183.14,-850.9092 1182.9022,-820.1451 1183.738,-794.5126"/>
<polygon fill="#ff0000" stroke="#ff0000" points="1187.2461,-794.3752 1184.1446,-784.2445 1180.2516,-794.0982 1187.2461,-794.3752"/>
</g>
<!-- n1 -->
<g id="node2" class="node">
<title>n1</title>
<path fill="#ffffff" stroke="#ffff00" stroke-width="2" d="M3418,-944C3418,-944 3246,-944 3246,-944 3240,-944 3234,-938 3234,-932 3234,-932 3234,-880 3234,-880 3234,-874 3240,-868 3246,-868 3246,-868 3418,-868 3418,-868 3424,-868 3430,-874 3430,-880 3430,-880 3430,-932 3430,-932 3430,-938 3424,-944 3418,-944"/>
<text text-anchor="start" x="3274.7755" y="-930" font-family="arial" font-weight="bold" font-size="10.00" fill="#000000">CM Plants in Devon Culm</text>
<text text-anchor="start" x="3245.5985" y="-913" font-family="arial" font-size="10.00" fill="#000000">Near Bideford (North Devon), there are</text>
<text text-anchor="start" x="3253.932" y="-901" font-family="arial" font-size="10.00" fill="#000000"> CM fossil plants in the main part of</text>
<text text-anchor="start" x="3250.321" y="-889" font-family="arial" font-size="10.00" fill="#000000"> the Culm strata (in close association</text>
<text text-anchor="start" x="3243.6525" y="-877" font-family="arial" font-size="10.00" fill="#000000"> with seams of imperfect anthracite) #ev</text>
</g>
<!-- n2 -->
<g id="node3" class="node">
<title>n2</title>
<path fill="#ffffff" stroke="#ffff00" stroke-width="2" d="M3204,-932C3204,-932 3032,-932 3032,-932 3026,-932 3020,-926 3020,-920 3020,-920 3020,-892 3020,-892 3020,-886 3026,-880 3032,-880 3032,-880 3204,-880 3204,-880 3210,-880 3216,-886 3216,-892 3216,-892 3216,-920 3216,-920 3216,-926 3210,-932 3204,-932"/>
<text text-anchor="start" x="3081.607" y="-918" font-family="arial" font-weight="bold" font-size="10.00" fill="#000000">North of Exmoor</text>
<text text-anchor="start" x="3031.871" y="-901" font-family="arial" font-size="10.00" fill="#000000">Passing Exmoor northwards, the strata</text>
<text text-anchor="start" x="3076.8775" y="-889" font-family="arial" font-size="10.00" fill="#000000"> become older #ev</text>
</g>
<!-- n3 -->
<g id="node4" class="node">
<title>n3</title>
<path fill="#ffffff" stroke="#ffff00" stroke-width="2" d="M2990,-944C2990,-944 2818,-944 2818,-944 2812,-944 2806,-938 2806,-932 2806,-932 2806,-880 2806,-880 2806,-874 2812,-868 2818,-868 2818,-868 2990,-868 2990,-868 2996,-868 3002,-874 3002,-880 3002,-880 3002,-932 3002,-932 3002,-938 2996,-944 2990,-944"/>
<text text-anchor="start" x="2851.21" y="-930" font-family="arial" font-weight="bold" font-size="10.00" fill="#000000">Trough through Exmoor</text>
<text text-anchor="start" x="2826.206" y="-913" font-family="arial" font-size="10.00" fill="#000000">There is a trough through Exmoor &#45;</text>
<text text-anchor="start" x="2817.308" y="-901" font-family="arial" font-size="10.00" fill="#000000"> formed by a band of limestone running</text>
<text text-anchor="start" x="2825.362" y="-889" font-family="arial" font-size="10.00" fill="#000000"> out to the north coast at Ilfracombe</text>
<text text-anchor="start" x="2840.3625" y="-877" font-family="arial" font-size="10.00" fill="#000000"> and south of Barnstaple #ev</text>
</g>
<!-- n4 -->
<g id="node5" class="node">
<title>n4</title>
<path fill="#ffffff" stroke="#ffff00" stroke-width="2" d="M2776,-938C2776,-938 2604,-938 2604,-938 2598,-938 2592,-932 2592,-926 2592,-926 2592,-886 2592,-886 2592,-880 2598,-874 2604,-874 2604,-874 2776,-874 2776,-874 2782,-874 2788,-880 2788,-886 2788,-886 2788,-926 2788,-926 2788,-932 2782,-938 2776,-938"/>
<text text-anchor="start" x="2613.3105" y="-924" font-family="arial" font-weight="bold" font-size="10.00" fill="#000000">Instances of Coal in Ancient Strata</text>
<text text-anchor="start" x="2608.3215" y="-907" font-family="arial" font-size="10.00" fill="#000000">In Munster, North America and North</text>
<text text-anchor="start" x="2616.9245" y="-895" font-family="arial" font-size="10.00" fill="#000000"> Devon there are coal deposits in</text>
<text text-anchor="start" x="2612.755" y="-883" font-family="arial" font-size="10.00" fill="#000000"> pre&#45;Old Red Sandstone strata #ev</text>
</g>
<!-- n5 -->
<g id="node6" class="node">
<title>n5</title>
<path fill="#ffffff" stroke="#ffff00" stroke-width="2" d="M1490,-942C1490,-942 1318,-942 1318,-942 1312,-942 1306,-936 1306,-930 1306,-930 1306,-882 1306,-882 1306,-876 1312,-870 1318,-870 1318,-870 1490,-870 1490,-870 1496,-870 1502,-876 1502,-882 1502,-882 1502,-930 1502,-930 1502,-936 1496,-942 1490,-942"/>
<text text-anchor="start" x="1318.4445" y="-928" font-family="arial" font-weight="bold" font-size="10.00" fill="#000000">Devonshire &#45; Characteristic CAM Rock</text>
<text text-anchor="start" x="1391.497" y="-918" font-family="arial" font-weight="bold" font-size="10.00" fill="#000000"> Type</text>
<text text-anchor="start" x="1327.3125" y="-903" font-family="arial" font-size="10.00" fill="#000000">In Devon, all the strata &#45; older than</text>
<text text-anchor="start" x="1331.2" y="-891" font-family="arial" font-size="10.00" fill="#000000"> the New Red Sandstone &#45; are of</text>
<text text-anchor="start" x="1322.0395" y="-879" font-family="arial" font-size="10.00" fill="#000000"> carachteristic CAM appearance #ev </text>
</g>
<!-- n6&#45;&gt;n0 -->
<g id="edge1" class="edge">
<title>n6&#45;&gt;n0</title>
<path fill="none" stroke="#ff0000" d="M1195.8554,-784.2445C1196.982,-808.1062 1197.0445,-838.8542 1196.043,-863.4803"/>
<polygon fill="#ff0000" stroke="#ff0000" points="1192.5398,-863.463 1195.5486,-873.6216 1199.5315,-863.8039 1192.5398,-863.463"/>
</g>
<!-- n7 -->
<g id="node8" class="node">
<title>n7</title>
<path fill="#ffffff" stroke="#ffff00" stroke-width="2" d="M2346,-932C2346,-932 2174,-932 2174,-932 2168,-932 2162,-926 2162,-920 2162,-920 2162,-892 2162,-892 2162,-886 2168,-880 2174,-880 2174,-880 2346,-880 2346,-880 2352,-880 2358,-886 2358,-892 2358,-892 2358,-920 2358,-920 2358,-926 2352,-932 2346,-932"/>
<text text-anchor="start" x="2191.104" y="-918" font-family="arial" font-weight="bold" font-size="10.00" fill="#000000">Coal in French Pre&#45;ORS Strata</text>
<text text-anchor="start" x="2182.481" y="-901" font-family="arial" font-size="10.00" fill="#000000">In northwest France, there are coal</text>
<text text-anchor="start" x="2188.874" y="-889" font-family="arial" font-size="10.00" fill="#000000"> deposits in pre&#45;ORS strata. #ev</text>
</g>
<!-- n8 -->
<g id="node9" class="node">
<title>n8</title>
<path fill="#ffffff" stroke="#ffff00" stroke-width="2" d="M2132,-938C2132,-938 1960,-938 1960,-938 1954,-938 1948,-932 1948,-926 1948,-926 1948,-886 1948,-886 1948,-880 1954,-874 1960,-874 1960,-874 2132,-874 2132,-874 2138,-874 2144,-880 2144,-886 2144,-886 2144,-926 2144,-926 2144,-932 2138,-938 2132,-938"/>
<text text-anchor="start" x="1967.9305" y="-924" font-family="arial" font-weight="bold" font-size="10.00" fill="#000000">CM Plants in Ancient French Strata</text>
<text text-anchor="start" x="1958.763" y="-907" font-family="arial" font-size="10.00" fill="#000000">In northwest France, in pre&#45;ORS strata,</text>
<text text-anchor="start" x="1964.0355" y="-895" font-family="arial" font-size="10.00" fill="#000000"> associated with seams of coal, there</text>
<text text-anchor="start" x="1976.268" y="-883" font-family="arial" font-size="10.00" fill="#000000"> are some CM fossil plants #ev </text>
</g>
<!-- n9 -->
<g id="node10" class="node">
<title>n9</title>
<path fill="#ffffff" stroke="#ffff00" stroke-width="2" d="M3632,-944C3632,-944 3460,-944 3460,-944 3454,-944 3448,-938 3448,-932 3448,-932 3448,-880 3448,-880 3448,-874 3454,-868 3460,-868 3460,-868 3632,-868 3632,-868 3638,-868 3644,-874 3644,-880 3644,-880 3644,-932 3644,-932 3644,-938 3638,-944 3632,-944"/>
<text text-anchor="start" x="3519.3295" y="-930" font-family="arial" font-weight="bold" font-size="10.00" fill="#000000">French Alps</text>
<text text-anchor="start" x="3469.0355" y="-913" font-family="arial" font-size="10.00" fill="#000000">In the French Alps, there are some</text>
<text text-anchor="start" x="3487.1115" y="-901" font-family="arial" font-size="10.00" fill="#000000"> characteristic Oolitic fossil</text>
<text text-anchor="start" x="3464.8755" y="-889" font-family="arial" font-size="10.00" fill="#000000"> belemnites and CM plants in closely</text>
<text text-anchor="start" x="3497.3735" y="-877" font-family="arial" font-size="10.00" fill="#000000"> associated strata #ev</text>
</g>
<!-- n11 -->
<g id="node11" class="node">
<title>n11</title>
<path fill="#ffffff" stroke="#ffff00" stroke-width="2" d="M1704,-938C1704,-938 1532,-938 1532,-938 1526,-938 1520,-932 1520,-926 1520,-926 1520,-886 1520,-886 1520,-880 1526,-874 1532,-874 1532,-874 1704,-874 1704,-874 1710,-874 1716,-880 1716,-886 1716,-886 1716,-926 1716,-926 1716,-932 1710,-938 1704,-938"/>
<text text-anchor="start" x="1535.487" y="-924" font-family="arial" font-weight="bold" font-size="10.00" fill="#000000">Munster Coal in Carboniferous Strata</text>
<text text-anchor="start" x="1548.8225" y="-907" font-family="arial" font-size="10.00" fill="#000000">In Munster, some strata closely</text>
<text text-anchor="start" x="1533.256" y="-895" font-family="arial" font-size="10.00" fill="#000000"> associated with seams of coal are not</text>
<text text-anchor="start" x="1571.0445" y="-883" font-family="arial" font-size="10.00" fill="#000000"> pre&#45;ORS in age #ev </text>
</g>
<!-- n12 -->
<g id="node12" class="node">
<title>n12</title>
<path fill="#ffffff" stroke="#ffff00" stroke-width="2" d="M2562,-944C2562,-944 2388,-944 2388,-944 2382,-944 2376,-938 2376,-932 2376,-932 2376,-880 2376,-880 2376,-874 2382,-868 2388,-868 2388,-868 2562,-868 2562,-868 2568,-868 2574,-874 2574,-880 2574,-880 2574,-932 2574,-932 2574,-938 2568,-944 2562,-944"/>
<text text-anchor="start" x="2441.3855" y="-930" font-family="arial" font-weight="bold" font-size="10.00" fill="#000000">Pembrokeshire</text>
<text text-anchor="start" x="2406.098" y="-913" font-family="arial" font-size="10.00" fill="#000000">The strata near Pembrokeshire</text>
<text text-anchor="start" x="2418.326" y="-901" font-family="arial" font-size="10.00" fill="#000000"> (southwest Wales) are of</text>
<text text-anchor="start" x="2385.5365" y="-889" font-family="arial" font-size="10.00" fill="#000000"> characteristic pre&#45;ORS appearance and</text>
<text text-anchor="start" x="2439.992" y="-877" font-family="arial" font-size="10.00" fill="#000000"> CM in age #ev </text>
</g>
<!-- n14 -->
<g id="node13" class="node">
<title>n14</title>
<path fill="#ffffff" stroke="#ffff00" stroke-width="2" d="M1918,-932C1918,-932 1746,-932 1746,-932 1740,-932 1734,-926 1734,-920 1734,-920 1734,-892 1734,-892 1734,-886 1740,-880 1746,-880 1746,-880 1918,-880 1918,-880 1924,-880 1930,-886 1930,-892 1930,-892 1930,-920 1930,-920 1930,-926 1924,-932 1918,-932"/>
<text text-anchor="start" x="1765.5935" y="-918" font-family="arial" font-weight="bold" font-size="10.00" fill="#000000">LV in Fauna and Flora &#45;Today</text>
<text text-anchor="start" x="1755.596" y="-901" font-family="arial" font-size="10.00" fill="#000000">Today, there are local variations in</text>
<text text-anchor="start" x="1787.8145" y="-889" font-family="arial" font-size="10.00" fill="#000000"> fauna and flora #ev</text>
</g>
<!-- n15 -->
<g id="node14" class="node">
<title>n15</title>
<path fill="#ffffff" stroke="#ffff00" stroke-width="2" d="M1062,-932C1062,-932 890,-932 890,-932 884,-932 878,-926 878,-920 878,-920 878,-892 878,-892 878,-886 884,-880 890,-880 890,-880 1062,-880 1062,-880 1068,-880 1074,-886 1074,-892 1074,-892 1074,-920 1074,-920 1074,-926 1068,-932 1062,-932"/>
<text text-anchor="start" x="917.101" y="-918" font-family="arial" font-weight="bold" font-size="10.00" fill="#000000">LV in Evironments &#45; Today</text>
<text text-anchor="start" x="899.596" y="-901" font-family="arial" font-size="10.00" fill="#000000">Today, there are local variations in</text>
<text text-anchor="start" x="909.8725" y="-889" font-family="arial" font-size="10.00" fill="#000000"> environmental conditions #ev</text>
</g>
<!-- n33 -->
<g id="node32" class="node">
<title>n33</title>
<path fill="#c6e2ff" stroke="#000000" d="M842,-1116C842,-1116 670,-1116 670,-1116 664,-1116 658,-1110 658,-1104 658,-1104 658,-1028 658,-1028 658,-1022 664,-1016 670,-1016 670,-1016 842,-1016 842,-1016 848,-1016 854,-1022 854,-1028 854,-1028 854,-1104 854,-1104 854,-1110 848,-1116 842,-1116"/>
<text text-anchor="start" x="689.5985" y="-1102" font-family="arial" font-weight="bold" font-size="10.00" fill="#000000">Local Environmental Variation</text>
<text text-anchor="start" x="678.482" y="-1085" font-family="arial" font-size="10.00" fill="#000000">If today there are local variations in</text>
<text text-anchor="start" x="670.417" y="-1073" font-family="arial" font-size="10.00" fill="#000000"> environmental conditions and the past</text>
<text text-anchor="start" x="681.2565" y="-1061" font-family="arial" font-size="10.00" fill="#000000"> can be inferred from today, in the</text>
<text text-anchor="start" x="683.47" y="-1049" font-family="arial" font-size="10.00" fill="#000000"> past, then there have been local</text>
<text text-anchor="start" x="671.262" y="-1037" font-family="arial" font-size="10.00" fill="#000000"> variations in environmental conditions</text>
<text text-anchor="start" x="734.8845" y="-1025" font-family="arial" font-size="10.00" fill="#000000"> #dat&#45;met</text>
</g>
<!-- n15&#45;&gt;n33 -->
<g id="edge23" class="edge">
<title>n15&#45;&gt;n33</title>
<path fill="none" stroke="#00ff00" d="M940.1473,-932.0747C911.2454,-953.0943 869.5654,-983.407 833.166,-1009.8793"/>
<polygon fill="#00ff00" stroke="#00ff00" points="831.0345,-1007.1017 825.0058,-1015.814 835.1518,-1012.7628 831.0345,-1007.1017"/>
</g>
<!-- n34 -->
<g id="node33" class="node">
<title>n34</title>
<path fill="#c6e2ff" stroke="#000000" d="M842,-796C842,-796 670,-796 670,-796 664,-796 658,-790 658,-784 658,-784 658,-708 658,-708 658,-702 664,-696 670,-696 670,-696 842,-696 842,-696 848,-696 854,-702 854,-708 854,-708 854,-784 854,-784 854,-790 848,-796 842,-796"/>
<text text-anchor="start" x="685.714" y="-782" font-family="arial" font-weight="bold" font-size="10.00" fill="#000000">Local Ecological Variations &#45; FF</text>
<text text-anchor="start" x="670.7075" y="-765" font-family="arial" font-size="10.00" fill="#000000">If there are always local environmental</text>
<text text-anchor="start" x="679.311" y="-753" font-family="arial" font-size="10.00" fill="#000000"> variations and a bijection between</text>
<text text-anchor="start" x="674.3065" y="-741" font-family="arial" font-size="10.00" fill="#000000"> environmental conditions, fauna and</text>
<text text-anchor="start" x="682.651" y="-729" font-family="arial" font-size="10.00" fill="#000000"> flora, then there are always local</text>
<text text-anchor="start" x="684.866" y="-717" font-family="arial" font-size="10.00" fill="#000000"> variations in the fauna and flora</text>
<text text-anchor="start" x="734.8845" y="-705" font-family="arial" font-size="10.00" fill="#000000"> #dat&#45;met</text>
</g>
<!-- n15&#45;&gt;n34 -->
<g id="edge24" class="edge">
<title>n15&#45;&gt;n34</title>
<path fill="none" stroke="#00ff00" d="M940.1636,-879.9371C911.2986,-858.9444 869.6805,-828.6767 833.3078,-802.2239"/>
<polygon fill="#00ff00" stroke="#00ff00" points="835.299,-799.3443 825.153,-796.2931 831.1818,-805.0054 835.299,-799.3443"/>
</g>
<!-- n10 -->
<g id="node15" class="node">
<title>n10</title>
<path fill="#ffffff" stroke="#c6e2ff" stroke-width="2" d="M842,-488C842,-488 670,-488 670,-488 664,-488 658,-482 658,-476 658,-476 658,-448 658,-448 658,-442 664,-436 670,-436 670,-436 842,-436 842,-436 848,-436 854,-442 854,-448 854,-448 854,-476 854,-476 854,-482 848,-488 842,-488"/>
<text text-anchor="start" x="700.7245" y="-474" font-family="arial" font-weight="bold" font-size="10.00" fill="#000000">No Characteristic Fossils</text>
<text text-anchor="start" x="673.768" y="-457" font-family="arial" font-size="10.00" fill="#000000">For no time intervall dt, there is some</text>
<text text-anchor="start" x="672.935" y="-445" font-family="arial" font-size="10.00" fill="#000000"> characteristic fossil species #dat&#45;met</text>
</g>
<!-- n10&#45;&gt;n9 -->
<g id="edge3" class="edge">
<title>n10&#45;&gt;n9</title>
<path fill="none" stroke="#ff0000" d="M854.1824,-470.0306C1206.4927,-500.2763 2438.6856,-618.4023 3438.0698,-867.8897"/>
<polygon fill="#ff0000" stroke="#ff0000" points="3437.4259,-871.3364 3447.9764,-870.369 3439.1254,-864.5458 3437.4259,-871.3364"/>
</g>
<!-- n21 -->
<g id="node22" class="node">
<title>n21</title>
<path fill="#ffffff" stroke="#c6e2ff" stroke-width="2" d="M628,-358C628,-358 456,-358 456,-358 450,-358 444,-352 444,-346 444,-346 444,-306 444,-306 444,-300 450,-294 456,-294 456,-294 628,-294 628,-294 634,-294 640,-300 640,-306 640,-306 640,-346 640,-346 640,-352 634,-358 628,-358"/>
<text text-anchor="start" x="465.883" y="-344" font-family="arial" font-weight="bold" font-size="10.00" fill="#000000">Existence of Characteristic Fossils</text>
<text text-anchor="start" x="466.7165" y="-327" font-family="arial" font-size="10.00" fill="#000000">For every time intervall dt, there is</text>
<text text-anchor="start" x="463.6585" y="-315" font-family="arial" font-size="10.00" fill="#000000"> some charactersitic fossil species f</text>
<text text-anchor="start" x="520.8845" y="-303" font-family="arial" font-size="10.00" fill="#000000"> #dat&#45;met</text>
</g>
<!-- n10&#45;&gt;n21 -->
<g id="edge14" class="edge">
<title>n10&#45;&gt;n21</title>
<path fill="none" stroke="#ff0000" d="M706.4038,-435.8883C685.7054,-423.3634 661.605,-408.1301 640,-394.4 624.2995,-384.4222 607.3252,-373.5914 591.9444,-363.5536"/>
<polygon fill="#ff0000" stroke="#ff0000" points="593.8632,-360.6265 583.5816,-358.0691 590.0243,-366.48 593.8632,-360.6265"/>
</g>
<!-- n31 -->
<g id="node34" class="node">
<title>n31</title>
<path fill="#ffffff" stroke="#ff8c00" stroke-width="2" d="M1062,-364C1062,-364 890,-364 890,-364 884,-364 878,-358 878,-352 878,-352 878,-300 878,-300 878,-294 884,-288 890,-288 890,-288 1062,-288 1062,-288 1068,-288 1074,-294 1074,-300 1074,-300 1074,-352 1074,-352 1074,-358 1068,-364 1062,-364"/>
<text text-anchor="start" x="890.451" y="-350" font-family="arial" font-weight="bold" font-size="10.00" fill="#000000">Characteristic CM fossils in Main Culm</text>
<text text-anchor="start" x="893.492" y="-333" font-family="arial" font-size="10.00" fill="#000000">Near Bideford (North Devon), the CM</text>
<text text-anchor="start" x="892.3705" y="-321" font-family="arial" font-size="10.00" fill="#000000"> fossil plants supported by some main</text>
<text text-anchor="start" x="900.4445" y="-309" font-family="arial" font-size="10.00" fill="#000000"> Culm strata are characteristic CM</text>
<text text-anchor="start" x="925.1585" y="-297" font-family="arial" font-size="10.00" fill="#000000"> fossils #COA #fos&#45;hyp</text>
</g>
<!-- n10&#45;&gt;n31 -->
<g id="edge16" class="edge">
<title>n10&#45;&gt;n31</title>
<path fill="none" stroke="#ff0000" d="M798.6051,-435.8891C819.0116,-423.3644 843.7878,-408.1311 866,-394.4 879.0237,-386.349 892.9007,-377.7423 906.2559,-369.4448"/>
<polygon fill="#ff0000" stroke="#ff0000" points="908.2969,-372.2973 914.9426,-364.0458 904.6018,-366.352 908.2969,-372.2973"/>
</g>
<!-- n32 -->
<g id="node35" class="node">
<title>n32</title>
<path fill="#ffffff" stroke="#ff8c00" stroke-width="2" d="M1285.5,-364C1285.5,-364 1110.5,-364 1110.5,-364 1104.5,-364 1098.5,-358 1098.5,-352 1098.5,-352 1098.5,-300 1098.5,-300 1098.5,-294 1104.5,-288 1110.5,-288 1110.5,-288 1285.5,-288 1285.5,-288 1291.5,-288 1297.5,-294 1297.5,-300 1297.5,-300 1297.5,-352 1297.5,-352 1297.5,-358 1291.5,-364 1285.5,-364"/>
<text text-anchor="start" x="1108.501" y="-350" font-family="arial" font-weight="bold" font-size="10.00" fill="#000000">Characteristic CM Fossils in French Alps</text>
<text text-anchor="start" x="1124.8785" y="-333" font-family="arial" font-size="10.00" fill="#000000">The French alpine fossils, closely</text>
<text text-anchor="start" x="1120.7105" y="-321" font-family="arial" font-size="10.00" fill="#000000"> associated with Oolitic belemnites,</text>
<text text-anchor="start" x="1112.377" y="-309" font-family="arial" font-size="10.00" fill="#000000"> are characteristic of the CM era #COA</text>
<text text-anchor="start" x="1177.9385" y="-297" font-family="arial" font-size="10.00" fill="#000000"> #fos&#45;hyp</text>
</g>
<!-- n10&#45;&gt;n32 -->
<g id="edge20" class="edge">
<title>n10&#45;&gt;n32</title>
<path fill="none" stroke="#ff0000" d="M854.2055,-450.9487C921.2072,-441.2422 1011.0447,-423.918 1086,-394.4 1102.8136,-387.7787 1119.9593,-378.6947 1135.6176,-369.3096"/>
<polygon fill="#ff0000" stroke="#ff0000" points="1137.4552,-372.2885 1144.152,-364.0784 1133.797,-366.3204 1137.4552,-372.2885"/>
</g>
<!-- n13 -->
<g id="node16" class="node">
<title>n13</title>
<path fill="#ffffff" stroke="#c6e2ff" stroke-width="2" d="M842,-1258C842,-1258 670,-1258 670,-1258 664,-1258 658,-1252 658,-1246 658,-1246 658,-1218 658,-1218 658,-1212 664,-1206 670,-1206 670,-1206 842,-1206 842,-1206 848,-1206 854,-1212 854,-1218 854,-1218 854,-1246 854,-1246 854,-1252 848,-1258 842,-1258"/>
<text text-anchor="start" x="692.3855" y="-1244" font-family="arial" font-weight="bold" font-size="10.00" fill="#000000">No Characteristic Rock Type</text>
<text text-anchor="start" x="673.768" y="-1227" font-family="arial" font-size="10.00" fill="#000000">For no time intervall dt, there is some</text>
<text text-anchor="start" x="682.3785" y="-1215" font-family="arial" font-size="10.00" fill="#000000"> characteristic rock type #dat&#45;met</text>
</g>
<!-- n13&#45;&gt;n5 -->
<g id="edge19" class="edge">
<title>n13&#45;&gt;n5</title>
<path fill="none" stroke="#ff0000" d="M816.8686,-1205.9876C918.3225,-1161.9776 1127.5828,-1068.4072 1297,-974.4 1311.6879,-966.2499 1327.1103,-956.8927 1341.5292,-947.7687"/>
<polygon fill="#ff0000" stroke="#ff0000" points="1343.8158,-950.4614 1350.3617,-942.1307 1340.0494,-944.561 1343.8158,-950.4614"/>
</g>
<!-- n13&#45;&gt;n12 -->
<g id="edge4" class="edge">
<title>n13&#45;&gt;n12</title>
<path fill="none" stroke="#00ff00" d="M854.3702,-1229.964C1111.5206,-1221.7757 1821.5805,-1180.6719 2367,-974.4 2383.5724,-968.1325 2400.3115,-959.1223 2415.5016,-949.6894"/>
<polygon fill="#00ff00" stroke="#00ff00" points="2417.7066,-952.4343 2424.2534,-944.1042 2413.9408,-946.5335 2417.7066,-952.4343"/>
</g>
<!-- n17 -->
<g id="node18" class="node">
<title>n17</title>
<path fill="#ffffff" stroke="#c6e2ff" stroke-width="2" d="M628,-1098C628,-1098 456,-1098 456,-1098 450,-1098 444,-1092 444,-1086 444,-1086 444,-1046 444,-1046 444,-1040 450,-1034 456,-1034 456,-1034 628,-1034 628,-1034 634,-1034 640,-1040 640,-1046 640,-1046 640,-1086 640,-1086 640,-1092 634,-1098 628,-1098"/>
<text text-anchor="start" x="455.044" y="-1084" font-family="arial" font-weight="bold" font-size="10.00" fill="#000000">Existence of Characteristic Rock Types</text>
<text text-anchor="start" x="466.7165" y="-1067" font-family="arial" font-size="10.00" fill="#000000">For every time intervall dt, there is</text>
<text text-anchor="start" x="472.827" y="-1055" font-family="arial" font-size="10.00" fill="#000000"> some charactersitic rock type r</text>
<text text-anchor="start" x="520.8845" y="-1043" font-family="arial" font-size="10.00" fill="#000000"> #dat&#45;met</text>
</g>
<!-- n13&#45;&gt;n17 -->
<g id="edge17" class="edge">
<title>n13&#45;&gt;n17</title>
<path fill="none" stroke="#ff0000" d="M717.0023,-1205.6968C679.9602,-1178.4702 624.5221,-1135.6521 585.9469,-1104.5927"/>
<polygon fill="#ff0000" stroke="#ff0000" points="587.9605,-1101.7198 577.984,-1098.1533 583.5589,-1107.1628 587.9605,-1101.7198"/>
</g>
<!-- n16 -->
<g id="node17" class="node">
<title>n16</title>
<path fill="#ffffff" stroke="#c6e2ff" stroke-width="2" d="M200,-1104C200,-1104 28,-1104 28,-1104 22,-1104 16,-1098 16,-1092 16,-1092 16,-1040 16,-1040 16,-1034 22,-1028 28,-1028 28,-1028 200,-1028 200,-1028 206,-1028 212,-1034 212,-1040 212,-1040 212,-1092 212,-1092 212,-1098 206,-1104 200,-1104"/>
<text text-anchor="start" x="55.664" y="-1090" font-family="arial" font-weight="bold" font-size="10.00" fill="#000000">Characteristic Rock Types</text>
<text text-anchor="start" x="42.8835" y="-1073" font-family="arial" font-size="10.00" fill="#000000">A rock type r is characteristic for</text>
<text text-anchor="start" x="41.777" y="-1061" font-family="arial" font-size="10.00" fill="#000000"> some time interval dt iff (i) r only</text>
<text text-anchor="start" x="38.9875" y="-1049" font-family="arial" font-size="10.00" fill="#000000"> exisits during dt and (ii) during dt,</text>
<text text-anchor="start" x="40.3745" y="-1037" font-family="arial" font-size="10.00" fill="#000000"> every region supports r #dat&#45;met</text>
</g>
<!-- n19 -->
<g id="node20" class="node">
<title>n19</title>
<path fill="#ffffff" stroke="#c6e2ff" stroke-width="2" d="M307,-938C307,-938 135,-938 135,-938 129,-938 123,-932 123,-926 123,-926 123,-886 123,-886 123,-880 129,-874 135,-874 135,-874 307,-874 307,-874 313,-874 319,-880 319,-886 319,-886 319,-926 319,-926 319,-932 313,-938 307,-938"/>
<text text-anchor="start" x="144.6085" y="-924" font-family="arial" font-weight="bold" font-size="10.00" fill="#000000">Characteristic Rock Type Principle</text>
<text text-anchor="start" x="135.1385" y="-907" font-family="arial" font-size="10.00" fill="#000000">There is a bijection between the age of</text>
<text text-anchor="start" x="143.765" y="-895" font-family="arial" font-size="10.00" fill="#000000"> some strata t and its characteristic</text>
<text text-anchor="start" x="175.713" y="-883" font-family="arial" font-size="10.00" fill="#000000"> rock types #dat&#45;met</text>
</g>
<!-- n16&#45;&gt;n19 -->
<g id="edge5" class="edge">
<title>n16&#45;&gt;n19</title>
<path fill="none" stroke="#00ff00" d="M139.6292,-1027.676C155.9996,-1003.1969 177.2003,-971.4949 193.8571,-946.5875"/>
<polygon fill="#00ff00" stroke="#00ff00" points="196.8943,-948.342 199.5439,-938.0838 191.0755,-944.4507 196.8943,-948.342"/>
</g>
<!-- n17&#45;&gt;n13 -->
<g id="edge18" class="edge">
<title>n17&#45;&gt;n13</title>
<path fill="none" stroke="#ff0000" d="M588.9172,-1098.1533C628.1654,-1127.2791 683.2431,-1169.9946 719.3324,-1199.2916"/>
<polygon fill="#ff0000" stroke="#ff0000" points="717.2196,-1202.0849 727.1798,-1205.6968 721.646,-1196.662 717.2196,-1202.0849"/>
</g>
<!-- n17&#45;&gt;n19 -->
<g id="edge6" class="edge">
<title>n17&#45;&gt;n19</title>
<path fill="none" stroke="#00ff00" d="M477.427,-1033.8141C424.5321,-1007.449 349.6812,-970.1401 294.4962,-942.6336"/>
<polygon fill="#00ff00" stroke="#00ff00" points="295.981,-939.4631 285.4698,-938.1345 292.8583,-945.728 295.981,-939.4631"/>
</g>
<!-- n18 -->
<g id="node19" class="node">
<title>n18</title>
<path fill="#ffffff" stroke="#c6e2ff" stroke-width="2" d="M307,-778C307,-778 135,-778 135,-778 129,-778 123,-772 123,-766 123,-766 123,-726 123,-726 123,-720 129,-714 135,-714 135,-714 307,-714 307,-714 313,-714 319,-720 319,-726 319,-726 319,-766 319,-766 319,-772 313,-778 307,-778"/>
<text text-anchor="start" x="200.169" y="-764" font-family="arial" font-weight="bold" font-size="10.00" fill="#000000">CRTP &#45; 2</text>
<text text-anchor="start" x="155.1485" y="-747" font-family="arial" font-size="10.00" fill="#000000">If two strata support the same</text>
<text text-anchor="start" x="142.649" y="-735" font-family="arial" font-size="10.00" fill="#000000"> characteristic rock types, then they</text>
<text text-anchor="start" x="154.034" y="-723" font-family="arial" font-size="10.00" fill="#000000"> are of the same age #dat&#45;met</text>
</g>
<!-- n19&#45;&gt;n18 -->
<g id="edge7" class="edge">
<title>n19&#45;&gt;n18</title>
<path fill="none" stroke="#00ff00" d="M221,-873.6216C221,-849.0348 221,-815.0124 221,-788.2786"/>
<polygon fill="#00ff00" stroke="#00ff00" points="224.5001,-788.0568 221,-778.0568 217.5001,-788.0569 224.5001,-788.0568"/>
</g>
<!-- n20 -->
<g id="node21" class="node">
<title>n20</title>
<path fill="#ffffff" stroke="#c6e2ff" stroke-width="2" d="M842,-364C842,-364 670,-364 670,-364 664,-364 658,-358 658,-352 658,-352 658,-300 658,-300 658,-294 664,-288 670,-288 670,-288 842,-288 842,-288 848,-288 854,-294 854,-300 854,-300 854,-352 854,-352 854,-358 848,-364 842,-364"/>
<text text-anchor="start" x="708.503" y="-350" font-family="arial" font-weight="bold" font-size="10.00" fill="#000000">Characteristic Fossils</text>
<text text-anchor="start" x="682.938" y="-333" font-family="arial" font-size="10.00" fill="#000000">A fossil species f is characteristic</text>
<text text-anchor="start" x="687.387" y="-321" font-family="arial" font-size="10.00" fill="#000000"> for some time interval dt iff (i) f</text>
<text text-anchor="start" x="677.3775" y="-309" font-family="arial" font-size="10.00" fill="#000000"> only exisits during dt and (ii) during</text>
<text text-anchor="start" x="675.7015" y="-297" font-family="arial" font-size="10.00" fill="#000000"> dt, every region supports f #dat&#45;met</text>
</g>
<!-- n23 -->
<g id="node24" class="node">
<title>n23</title>
<path fill="#ffffff" stroke="#c6e2ff" stroke-width="2" d="M735,-216C735,-216 563,-216 563,-216 557,-216 551,-210 551,-204 551,-204 551,-164 551,-164 551,-158 557,-152 563,-152 563,-152 735,-152 735,-152 741,-152 747,-158 747,-164 747,-164 747,-204 747,-204 747,-210 741,-216 735,-216"/>
<text text-anchor="start" x="580.9475" y="-202" font-family="arial" font-weight="bold" font-size="10.00" fill="#000000">Characteristic Fossils Principle</text>
<text text-anchor="start" x="563.1385" y="-185" font-family="arial" font-size="10.00" fill="#000000">There is a bijection between the age of</text>
<text text-anchor="start" x="571.765" y="-173" font-family="arial" font-size="10.00" fill="#000000"> some strata t and its characteristic</text>
<text text-anchor="start" x="612.607" y="-161" font-family="arial" font-size="10.00" fill="#000000"> fossils #dat&#45;met</text>
</g>
<!-- n20&#45;&gt;n23 -->
<g id="edge8" class="edge">
<title>n20&#45;&gt;n23</title>
<path fill="none" stroke="#00ff00" d="M727.326,-287.9466C712.5271,-268.307 694.4719,-244.3459 679.4276,-224.3805"/>
<polygon fill="#00ff00" stroke="#00ff00" points="682.2104,-222.2576 673.3971,-216.3775 676.6198,-226.4703 682.2104,-222.2576"/>
</g>
<!-- n21&#45;&gt;n10 -->
<g id="edge15" class="edge">
<title>n21&#45;&gt;n10</title>
<path fill="none" stroke="#ff0000" d="M600.5087,-358.0691C618.9947,-369.5507 639.3921,-382.5745 658,-394.4 676.3191,-406.0419 696.4321,-418.7645 713.7101,-430.0003"/>
<polygon fill="#ff0000" stroke="#ff0000" points="712.1781,-433.1805 722.4625,-435.7268 716.0107,-427.3229 712.1781,-433.1805"/>
</g>
<!-- n21&#45;&gt;n23 -->
<g id="edge9" class="edge">
<title>n21&#45;&gt;n23</title>
<path fill="none" stroke="#00ff00" d="M566.28,-293.778C581.8075,-273.1714 602.072,-246.2783 618.6573,-224.2678"/>
<polygon fill="#00ff00" stroke="#00ff00" points="621.5934,-226.1873 624.8161,-216.0945 616.0028,-221.9747 621.5934,-226.1873"/>
</g>
<!-- n22 -->
<g id="node23" class="node">
<title>n22</title>
<path fill="#ffffff" stroke="#c6e2ff" stroke-width="2" d="M735,-80C735,-80 563,-80 563,-80 557,-80 551,-74 551,-68 551,-68 551,-28 551,-28 551,-22 557,-16 563,-16 563,-16 735,-16 735,-16 741,-16 747,-22 747,-28 747,-28 747,-68 747,-68 747,-74 741,-80 735,-80"/>
<text text-anchor="start" x="631.7785" y="-66" font-family="arial" font-weight="bold" font-size="10.00" fill="#000000">CFP &#45; 2</text>
<text text-anchor="start" x="583.1485" y="-49" font-family="arial" font-size="10.00" fill="#000000">If two strata support the same</text>
<text text-anchor="start" x="570.93" y="-37" font-family="arial" font-size="10.00" fill="#000000"> characteristic fossils, then they are</text>
<text text-anchor="start" x="590.647" y="-25" font-family="arial" font-size="10.00" fill="#000000"> of the same age #dat&#45;met</text>
</g>
<!-- n23&#45;&gt;n22 -->
<g id="edge10" class="edge">
<title>n23&#45;&gt;n22</title>
<path fill="none" stroke="#00ff00" d="M649,-151.7699C649,-133.4422 649,-110.2682 649,-90.4712"/>
<polygon fill="#00ff00" stroke="#00ff00" points="652.5001,-90.47 649,-80.4701 645.5001,-90.4701 652.5001,-90.47"/>
</g>
<!-- n24 -->
<g id="node25" class="node">
<title>n24</title>
<path fill="#ffffff" stroke="#c6e2ff" stroke-width="2" d="M200,-1276C200,-1276 28,-1276 28,-1276 22,-1276 16,-1270 16,-1264 16,-1264 16,-1200 16,-1200 16,-1194 22,-1188 28,-1188 28,-1188 200,-1188 200,-1188 206,-1188 212,-1194 212,-1200 212,-1200 212,-1264 212,-1264 212,-1270 206,-1276 200,-1276"/>
<text text-anchor="start" x="76.498" y="-1262" font-family="arial" font-weight="bold" font-size="10.00" fill="#000000">Lyellian Principle</text>
<text text-anchor="start" x="43.43" y="-1245" font-family="arial" font-size="10.00" fill="#000000">At the earth&#39;s surface, there is a</text>
<text text-anchor="start" x="29.8015" y="-1233" font-family="arial" font-size="10.00" fill="#000000"> constant but piecemeal change in the</text>
<text text-anchor="start" x="30.917" y="-1221" font-family="arial" font-size="10.00" fill="#000000"> composition of the faunas and floras,</text>
<text text-anchor="start" x="40.6555" y="-1209" font-family="arial" font-size="10.00" fill="#000000"> in correlation with ever&#45;changing</text>
<text text-anchor="start" x="42.043" y="-1197" font-family="arial" font-size="10.00" fill="#000000"> physical environments #dat&#45;met</text>
</g>
<!-- n25 -->
<g id="node26" class="node">
<title>n25</title>
<path fill="#ffffff" stroke="#c6e2ff" stroke-width="2" d="M414,-1098C414,-1098 242,-1098 242,-1098 236,-1098 230,-1092 230,-1086 230,-1086 230,-1046 230,-1046 230,-1040 236,-1034 242,-1034 242,-1034 414,-1034 414,-1034 420,-1034 426,-1040 426,-1046 426,-1046 426,-1086 426,-1086 426,-1092 420,-1098 414,-1098"/>
<text text-anchor="start" x="252.9995" y="-1084" font-family="arial" font-weight="bold" font-size="10.00" fill="#000000">L2 &#45; Maximal Difference in Fossils</text>
<text text-anchor="start" x="263.264" y="-1067" font-family="arial" font-size="10.00" fill="#000000">If two strata are suffienciently</text>
<text text-anchor="start" x="254.912" y="-1055" font-family="arial" font-size="10.00" fill="#000000"> different in age, then they do not</text>
<text text-anchor="start" x="241.8815" y="-1043" font-family="arial" font-size="10.00" fill="#000000"> support similar fossil species #dat&#45;met</text>
</g>
<!-- n24&#45;&gt;n25 -->
<g id="edge11" class="edge">
<title>n24&#45;&gt;n25</title>
<path fill="none" stroke="#00ff00" d="M170.7862,-1187.9509C204.3468,-1161.9179 246.4306,-1129.2734 278.6097,-1104.3121"/>
<polygon fill="#00ff00" stroke="#00ff00" points="280.81,-1107.0349 286.5662,-1098.1402 276.5195,-1101.5039 280.81,-1107.0349"/>
</g>
<!-- n26 -->
<g id="node27" class="node">
<title>n26</title>
<path fill="#ffffff" stroke="#c6e2ff" stroke-width="2" d="M414,-1262C414,-1262 242,-1262 242,-1262 236,-1262 230,-1256 230,-1250 230,-1250 230,-1214 230,-1214 230,-1208 236,-1202 242,-1202 242,-1202 414,-1202 414,-1202 420,-1202 426,-1208 426,-1214 426,-1214 426,-1250 426,-1250 426,-1256 420,-1262 414,-1262"/>
<text text-anchor="start" x="249.376" y="-1248" font-family="arial" font-weight="bold" font-size="10.00" fill="#000000">Local Variations in Evironments &#45; In</text>
<text text-anchor="start" x="308.269" y="-1238" font-family="arial" font-weight="bold" font-size="10.00" fill="#000000"> the Past</text>
<text text-anchor="start" x="247.4225" y="-1223" font-family="arial" font-size="10.00" fill="#000000">In the past, there are local variations</text>
<text text-anchor="start" x="244.927" y="-1211" font-family="arial" font-size="10.00" fill="#000000"> in environmental conditions #dat&#45;met</text>
</g>
<!-- n27 -->
<g id="node28" class="node">
<title>n27</title>
<path fill="#ffffff" stroke="#c6e2ff" stroke-width="2" d="M628,-1270C628,-1270 456,-1270 456,-1270 450,-1270 444,-1264 444,-1258 444,-1258 444,-1206 444,-1206 444,-1200 450,-1194 456,-1194 456,-1194 628,-1194 628,-1194 634,-1194 640,-1200 640,-1206 640,-1206 640,-1258 640,-1258 640,-1264 634,-1270 628,-1270"/>
<text text-anchor="start" x="503.118" y="-1256" font-family="arial" font-weight="bold" font-size="10.00" fill="#000000">Uniformitarianism</text>
<text text-anchor="start" x="457.8145" y="-1239" font-family="arial" font-size="10.00" fill="#000000">The same natural laws and processes</text>
<text text-anchor="start" x="471.4185" y="-1227" font-family="arial" font-size="10.00" fill="#000000"> that operate today have always</text>
<text text-anchor="start" x="473.3595" y="-1215" font-family="arial" font-size="10.00" fill="#000000"> operated in the past and apply</text>
<text text-anchor="start" x="493.659" y="-1203" font-family="arial" font-size="10.00" fill="#000000"> everywhere #dat&#45;met</text>
</g>
<!-- n27&#45;&gt;n33 -->
<g id="edge25" class="edge">
<title>n27&#45;&gt;n33</title>
<path fill="none" stroke="#00ff00" d="M591.0959,-1193.9162C618.3955,-1172.74 652.8912,-1145.9816 683.2675,-1122.4187"/>
<polygon fill="#00ff00" stroke="#00ff00" points="685.5479,-1125.0794 691.3042,-1116.1846 681.2575,-1119.5483 685.5479,-1125.0794"/>
</g>
<!-- n28 -->
<g id="node29" class="node">
<title>n28</title>
<path fill="#ffffff" stroke="#c6e2ff" stroke-width="2" d="M842,-938C842,-938 670,-938 670,-938 664,-938 658,-932 658,-926 658,-926 658,-886 658,-886 658,-880 664,-874 670,-874 670,-874 842,-874 842,-874 848,-874 854,-880 854,-886 854,-886 854,-926 854,-926 854,-932 848,-938 842,-938"/>
<text text-anchor="start" x="687.094" y="-924" font-family="arial" font-weight="bold" font-size="10.00" fill="#000000">LV in Evironments &#45; In the Past</text>
<text text-anchor="start" x="682.0805" y="-907" font-family="arial" font-size="10.00" fill="#000000">In the past, there have been local</text>
<text text-anchor="start" x="671.262" y="-895" font-family="arial" font-size="10.00" fill="#000000"> variations in environmental conditions</text>
<text text-anchor="start" x="734.8845" y="-883" font-family="arial" font-size="10.00" fill="#000000"> #dat&#45;met</text>
</g>
<!-- n28&#45;&gt;n34 -->
<g id="edge26" class="edge">
<title>n28&#45;&gt;n34</title>
<path fill="none" stroke="#00ff00" d="M756,-873.6216C756,-854.3794 756,-829.3581 756,-806.5743"/>
<polygon fill="#00ff00" stroke="#00ff00" points="759.5001,-806.2922 756,-796.2922 752.5001,-806.2923 759.5001,-806.2922"/>
</g>
<!-- n29 -->
<g id="node30" class="node">
<title>n29</title>
<path fill="#ffffff" stroke="#c6e2ff" stroke-width="2" d="M628,-942C628,-942 456,-942 456,-942 450,-942 444,-936 444,-930 444,-930 444,-882 444,-882 444,-876 450,-870 456,-870 456,-870 628,-870 628,-870 634,-870 640,-876 640,-882 640,-882 640,-930 640,-930 640,-936 634,-942 628,-942"/>
<text text-anchor="start" x="458.3665" y="-928" font-family="arial" font-weight="bold" font-size="10.00" fill="#000000">Environmental Conditions, Fauna and</text>
<text text-anchor="start" x="529.223" y="-918" font-family="arial" font-weight="bold" font-size="10.00" fill="#000000"> Flora</text>
<text text-anchor="start" x="479.763" y="-903" font-family="arial" font-size="10.00" fill="#000000">There is a bijection between</text>
<text text-anchor="start" x="460.3065" y="-891" font-family="arial" font-size="10.00" fill="#000000"> environmental conditions, fauna and</text>
<text text-anchor="start" x="509.7725" y="-879" font-family="arial" font-size="10.00" fill="#000000"> flora #dat&#45;met</text>
</g>
<!-- n29&#45;&gt;n34 -->
<g id="edge27" class="edge">
<title>n29&#45;&gt;n34</title>
<path fill="none" stroke="#00ff00" d="M590.2926,-869.8934C616.8855,-850.0109 650.4854,-824.8894 680.4673,-802.4731"/>
<polygon fill="#00ff00" stroke="#00ff00" points="682.9058,-805.02 688.8189,-796.2288 678.7141,-799.4137 682.9058,-805.02"/>
</g>
<!-- n30 -->
<g id="node31" class="node">
<title>n30</title>
<path fill="#ffffff" stroke="#c6e2ff" stroke-width="2" d="M842,-624C842,-624 670,-624 670,-624 664,-624 658,-618 658,-612 658,-612 658,-572 658,-572 658,-566 664,-560 670,-560 670,-560 842,-560 842,-560 848,-560 854,-566 854,-572 854,-572 854,-612 854,-612 854,-618 848,-624 842,-624"/>
<text text-anchor="start" x="706.5405" y="-610" font-family="arial" font-weight="bold" font-size="10.00" fill="#000000">LV in Fauna and Flora</text>
<text text-anchor="start" x="682.661" y="-593" font-family="arial" font-size="10.00" fill="#000000">For every time intervall, there are</text>
<text text-anchor="start" x="684.3105" y="-581" font-family="arial" font-size="10.00" fill="#000000"> local variations in the fauna and</text>
<text text-anchor="start" x="723.7725" y="-569" font-family="arial" font-size="10.00" fill="#000000"> flora #dat&#45;met</text>
</g>
<!-- n30&#45;&gt;n14 -->
<g id="edge12" class="edge">
<title>n30&#45;&gt;n14</title>
<path fill="none" stroke="#00ff00" d="M854.0267,-605.2886C963.3976,-621.3923 1144.9618,-651.9543 1297,-696 1470.8528,-746.3654 1666.9473,-830.7945 1766.4723,-875.7247"/>
<polygon fill="#00ff00" stroke="#00ff00" points="1765.2448,-879.011 1775.7983,-879.947 1768.132,-872.6341 1765.2448,-879.011"/>
</g>
<!-- n30&#45;&gt;n10 -->
<g id="edge13" class="edge">
<title>n30&#45;&gt;n10</title>
<path fill="none" stroke="#00ff00" d="M756,-559.8652C756,-541.2136 756,-517.6627 756,-498.3381"/>
<polygon fill="#00ff00" stroke="#00ff00" points="759.5001,-498.0949 756,-488.0949 752.5001,-498.095 759.5001,-498.0949"/>
</g>
<!-- n33&#45;&gt;n28 -->
<g id="edge21" class="edge">
<title>n33&#45;&gt;n28</title>
<path fill="none" stroke="#00ff00" d="M756,-1015.814C756,-994.1755 756,-969.1412 756,-948.4446"/>
<polygon fill="#00ff00" stroke="#00ff00" points="759.5001,-948.3633 756,-938.3633 752.5001,-948.3634 759.5001,-948.3633"/>
</g>
<!-- n34&#45;&gt;n30 -->
<g id="edge22" class="edge">
<title>n34&#45;&gt;n30</title>
<path fill="none" stroke="#00ff00" d="M756,-695.5746C756,-675.7388 756,-653.2213 756,-634.2598"/>
<polygon fill="#00ff00" stroke="#00ff00" points="759.5001,-634.1311 756,-624.1311 752.5001,-634.1311 759.5001,-634.1311"/>
</g>
</g>
</svg>
