
<!-- Generated by graphviz version 2.40.1 (20161225.0304)
 -->
<!-- Title: Argument Map Pages: 1 -->
<svg width="707pt" height="720pt"
 viewBox="0.00 0.00 706.74 720.00" xmlns="http://www.w3.org/2000/svg" xmlns:xlink="http://www.w3.org/1999/xlink">
<g id="graph0" class="graph" transform="scale(.5668 .5668) rotate(0) translate(4 1266.4)">
<title>Argument Map</title>
<g id="clust1" class="cluster">
<title>cluster_1</title>
<polygon fill="#ffff00" stroke="#ffff00" points="821,-482 821,-572.4 1033,-572.4 1033,-482 821,-482"/>
<text text-anchor="start" x="880.3272" y="-557.6" font-family="arial" font-size="12.00" fill="#000000">Rival Hypotheses</text>
</g>
<g id="clust2" class="cluster">
<title>cluster_2</title>
<polygon fill="#ffff00" stroke="#ffff00" points="8,-8 8,-258.4 654,-258.4 654,-8 8,-8"/>
<text text-anchor="start" x="306.3256" y="-243.6" font-family="arial" font-size="12.00" fill="#000000">Evidence</text>
</g>
<g id="clust3" class="cluster">
<title>cluster_3</title>
<polygon fill="#9fb6cd" stroke="#9fb6cd" points="605,-796 605,-1254.4 822,-1254.4 822,-796 605,-796"/>
<text text-anchor="start" x="612.8122" y="-1239.6" font-family="arial" font-size="12.00" fill="#000000">Aporia II : CM Plants in Ancient Strata</text>
</g>
<g id="clust4" class="cluster">
<title>cluster_4</title>
<polygon fill="#bfefff" stroke="#bfefff" points="181,-292 181,-572.4 607,-572.4 607,-292 181,-292"/>
<text text-anchor="start" x="344.3248" y="-557.6" font-family="arial" font-size="12.00" fill="#000000">Dating of the Culm</text>
</g>
<g id="clust5" class="cluster">
<title>cluster_5</title>
<polygon fill="#e6e6fa" stroke="#e6e6fa" points="756,-156 756,-412.4 980,-412.4 980,-156 756,-156"/>
<text text-anchor="start" x="797.9752" y="-397.6" font-family="arial" font-size="12.00" fill="#000000">Youngest Devonian Strata</text>
</g>
<g id="clust6" class="cluster">
<title>cluster_6</title>
<polygon fill="#f0ffff" stroke="#f0ffff" points="988,-298 988,-412.4 1200,-412.4 1200,-298 988,-298"/>
<text text-anchor="start" x="1037.6408" y="-397.6" font-family="arial" font-size="12.00" fill="#000000">Gap in the Sequence</text>
</g>
<!-- n0 -->
<g id="node1" class="node">
<title>n0</title>
<path fill="#ffffff" stroke="#ffc1c1" stroke-width="2" d="M1013,-542C1013,-542 841,-542 841,-542 835,-542 829,-536 829,-530 829,-530 829,-502 829,-502 829,-496 835,-490 841,-490 841,-490 1013,-490 1013,-490 1019,-490 1025,-496 1025,-502 1025,-502 1025,-530 1025,-530 1025,-536 1019,-542 1013,-542"/>
<text text-anchor="start" x="899.5045" y="-528" font-family="arial" font-weight="bold" font-size="10.00" fill="#000000">Culm as CM</text>
<text text-anchor="start" x="848.6555" y="-511" font-family="arial" font-size="10.00" fill="#000000">The Devonian Culm strata are Coal</text>
<text text-anchor="start" x="847.259" y="-499" font-family="arial" font-size="10.00" fill="#000000"> Measures in age #COA #chron&#45;hyp</text>
</g>
<!-- n9 -->
<g id="node10" class="node">
<title>n9</title>
<path fill="#ffffff" stroke="#ffc1c1" stroke-width="2" d="M587,-370C587,-370 415,-370 415,-370 409,-370 403,-364 403,-358 403,-358 403,-330 403,-330 403,-324 409,-318 415,-318 415,-318 587,-318 587,-318 593,-318 599,-324 599,-330 599,-330 599,-358 599,-358 599,-364 593,-370 587,-370"/>
<text text-anchor="start" x="445.161" y="-356" font-family="arial" font-weight="bold" font-size="10.00" fill="#000000">Some CM dating of Culm</text>
<text text-anchor="start" x="415.712" y="-339" font-family="arial" font-size="10.00" fill="#000000">Some part of the Devon Culm is CM in</text>
<text text-anchor="start" x="449.874" y="-327" font-family="arial" font-size="10.00" fill="#000000"> age #COA #chron&#45;hyp</text>
</g>
<!-- n0&#45;&gt;n9 -->
<g id="edge4" class="edge">
<title>n0&#45;&gt;n9</title>
<path fill="none" stroke="#00ff00" d="M880.5227,-489.9502C861.9678,-480.0081 840.2381,-468.928 820,-460 744.4844,-426.6865 656.1135,-395.1031 591.5578,-373.3284"/>
<polygon fill="#00ff00" stroke="#00ff00" points="592.4032,-369.9203 581.8092,-370.0537 590.1741,-376.5559 592.4032,-369.9203"/>
</g>
<!-- n10 -->
<g id="node11" class="node">
<title>n10</title>
<path fill="#ffffff" stroke="#ffc1c1" stroke-width="2" d="M585,-542C585,-542 413,-542 413,-542 407,-542 401,-536 401,-530 401,-530 401,-502 401,-502 401,-496 407,-490 413,-490 413,-490 585,-490 585,-490 591,-490 597,-496 597,-502 597,-502 597,-530 597,-530 597,-536 591,-542 585,-542"/>
<text text-anchor="start" x="449.83" y="-528" font-family="arial" font-weight="bold" font-size="10.00" fill="#000000">No CM dating of Culm</text>
<text text-anchor="start" x="410.653" y="-511" font-family="arial" font-size="10.00" fill="#000000">No part of the Devon Culm is CM in age</text>
<text text-anchor="start" x="456.2125" y="-499" font-family="arial" font-size="10.00" fill="#000000"> #COA #chron&#45;hyp </text>
</g>
<!-- n0&#45;&gt;n10 -->
<g id="edge7" class="edge">
<title>n0&#45;&gt;n10</title>
<path fill="none" stroke="#ff0000" d="M904.243,-542.0298C882.7845,-564.4321 848.4045,-595.1456 811,-608.2 728.754,-636.9044 697.246,-636.9044 615,-608.2 581.5405,-596.5224 550.5011,-570.7143 528.9662,-549.3649"/>
<polygon fill="#ff0000" stroke="#ff0000" points="531.2628,-546.7085 521.757,-542.0298 526.2704,-551.6152 531.2628,-546.7085"/>
</g>
<!-- n17 -->
<g id="node14" class="node">
<title>n17</title>
<path fill="#ffc1c1" stroke="#000000" d="M957,-382C957,-382 785,-382 785,-382 779,-382 773,-376 773,-370 773,-370 773,-318 773,-318 773,-312 779,-306 785,-306 785,-306 957,-306 957,-306 963,-306 969,-312 969,-318 969,-318 969,-370 969,-370 969,-376 963,-382 957,-382"/>
<text text-anchor="start" x="815.4305" y="-368" font-family="arial" font-weight="bold" font-size="10.00" fill="#000000">Culm as Youngest Strata</text>
<text text-anchor="start" x="784.599" y="-351" font-family="arial" font-size="10.00" fill="#000000">If, the non&#45;Culm strata are Cambrian in</text>
<text text-anchor="start" x="785.144" y="-339" font-family="arial" font-size="10.00" fill="#000000"> age, then the Culm strata &#45; being Coal</text>
<text text-anchor="start" x="790.9755" y="-327" font-family="arial" font-size="10.00" fill="#000000"> Measures in age &#45; are the youngest</text>
<text text-anchor="start" x="819.5995" y="-315" font-family="arial" font-size="10.00" fill="#000000"> Devonian strata #COA</text>
</g>
<!-- n0&#45;&gt;n17 -->
<g id="edge14" class="edge">
<title>n0&#45;&gt;n17</title>
<path fill="none" stroke="#00ff00" d="M918.4948,-489.8769C910.0375,-463.9009 896.8696,-423.4565 886.5419,-391.736"/>
<polygon fill="#00ff00" stroke="#00ff00" points="889.8603,-390.6225 883.4364,-382.1974 883.2042,-392.7897 889.8603,-390.6225"/>
</g>
<!-- n14 -->
<g id="node15" class="node">
<title>n14</title>
<path fill="#ffc1c1" stroke="#000000" d="M1180,-382C1180,-382 1008,-382 1008,-382 1002,-382 996,-376 996,-370 996,-370 996,-318 996,-318 996,-312 1002,-306 1008,-306 1008,-306 1180,-306 1180,-306 1186,-306 1192,-312 1192,-318 1192,-318 1192,-370 1192,-370 1192,-376 1186,-382 1180,-382"/>
<text text-anchor="start" x="1020.375" y="-368" font-family="arial" font-weight="bold" font-size="10.00" fill="#000000">Postulating A Major Gap &#45; COA.1</text>
<text text-anchor="start" x="1007.043" y="-351" font-family="arial" font-size="10.00" fill="#000000">If the Culm strata are Coal Measures in</text>
<text text-anchor="start" x="1015.6455" y="-339" font-family="arial" font-size="10.00" fill="#000000"> age and juxtaposed with Cambrian</text>
<text text-anchor="start" x="1016.7575" y="-327" font-family="arial" font-size="10.00" fill="#000000"> strata, then there is a major gap in</text>
<text text-anchor="start" x="1035.9255" y="-315" font-family="arial" font-size="10.00" fill="#000000"> the local sequence #COA</text>
</g>
<!-- n0&#45;&gt;n14 -->
<g id="edge13" class="edge">
<title>n0&#45;&gt;n14</title>
<path fill="none" stroke="#00ff00" d="M952.3637,-489.8769C978.1281,-463.3411 1018.5524,-421.7065 1049.631,-389.6974"/>
<polygon fill="#00ff00" stroke="#00ff00" points="1052.4581,-391.8101 1056.913,-382.1974 1047.4358,-386.9339 1052.4581,-391.8101"/>
</g>
<!-- n1 -->
<g id="node2" class="node">
<title>n1</title>
<path fill="#ffffff" stroke="#66a61e" stroke-width="2" d="M634,-228C634,-228 462,-228 462,-228 456,-228 450,-222 450,-216 450,-216 450,-176 450,-176 450,-170 456,-164 462,-164 462,-164 634,-164 634,-164 640,-164 646,-170 646,-176 646,-176 646,-216 646,-216 646,-222 640,-228 634,-228"/>
<text text-anchor="start" x="466.305" y="-214" font-family="arial" font-weight="bold" font-size="10.00" fill="#000000">Unbroken Sequence of Devon Strata</text>
<text text-anchor="start" x="471.3125" y="-197" font-family="arial" font-size="10.00" fill="#000000">In Devon, all the strata &#45; older than</text>
<text text-anchor="start" x="471.0355" y="-185" font-family="arial" font-size="10.00" fill="#000000"> the New Red Sandstone &#45; form an</text>
<text text-anchor="start" x="463.5205" y="-173" font-family="arial" font-size="10.00" fill="#000000"> unbroken sequence of strata #ev #E1</text>
</g>
<!-- n4 -->
<g id="node5" class="node">
<title>n4</title>
<path fill="#ffffff" stroke="#66a61e" stroke-width="2" d="M634,-92C634,-92 462,-92 462,-92 456,-92 450,-86 450,-80 450,-80 450,-28 450,-28 450,-22 456,-16 462,-16 462,-16 634,-16 634,-16 640,-16 646,-22 646,-28 646,-28 646,-80 646,-80 646,-86 640,-92 634,-92"/>
<text text-anchor="start" x="497.439" y="-78" font-family="arial" font-weight="bold" font-size="10.00" fill="#000000">Unconformity in Devon</text>
<text text-anchor="start" x="473.2545" y="-61" font-family="arial" font-size="10.00" fill="#000000">Between the Devon Culm and the</text>
<text text-anchor="start" x="471.866" y="-49" font-family="arial" font-size="10.00" fill="#000000"> juxtaposed strata, there is at least</text>
<text text-anchor="start" x="477.9895" y="-37" font-family="arial" font-size="10.00" fill="#000000"> one formation missing from the</text>
<text text-anchor="start" x="484.361" y="-25" font-family="arial" font-size="10.00" fill="#000000"> standard sequence #ev #E6</text>
</g>
<!-- n1&#45;&gt;n4 -->
<g id="edge2" class="edge">
<title>n1&#45;&gt;n4</title>
<path fill="none" stroke="#ff0000" d="M542.2392,-163.778C541.2044,-145.5777 540.9815,-122.4732 541.5705,-102.1603"/>
<polygon fill="#ff0000" stroke="#ff0000" points="545.069,-102.2627 541.9386,-92.1409 538.0737,-102.0057 545.069,-102.2627"/>
</g>
<!-- n2 -->
<g id="node3" class="node">
<title>n2</title>
<path fill="#ffffff" stroke="#66a61e" stroke-width="2" d="M420,-222C420,-222 248,-222 248,-222 242,-222 236,-216 236,-210 236,-210 236,-182 236,-182 236,-176 242,-170 248,-170 248,-170 420,-170 420,-170 426,-170 432,-176 432,-182 432,-182 432,-210 432,-210 432,-216 426,-222 420,-222"/>
<text text-anchor="start" x="276.7755" y="-208" font-family="arial" font-weight="bold" font-size="10.00" fill="#000000">CM Plants in Devon Culm</text>
<text text-anchor="start" x="248.1475" y="-191" font-family="arial" font-size="10.00" fill="#000000">In Devon, the Culm strata contain Coal</text>
<text text-anchor="start" x="263.4275" y="-179" font-family="arial" font-size="10.00" fill="#000000"> Measures fossil plants #ev #E2</text>
</g>
<!-- n3 -->
<g id="node4" class="node">
<title>n3</title>
<path fill="#ffffff" stroke="#66a61e" stroke-width="2" d="M205,-86C205,-86 29,-86 29,-86 23,-86 17,-80 17,-74 17,-74 17,-34 17,-34 17,-28 23,-22 29,-22 29,-22 205,-22 205,-22 211,-22 217,-28 217,-34 217,-34 217,-74 217,-74 217,-80 211,-86 205,-86"/>
<text text-anchor="start" x="40.3105" y="-72" font-family="arial" font-weight="bold" font-size="10.00" fill="#000000">Instances of Coal in Ancient Strata</text>
<text text-anchor="start" x="26.9725" y="-55" font-family="arial" font-size="10.00" fill="#000000">In Munster and Pennsylvannia, there are</text>
<text text-anchor="start" x="27.2525" y="-43" font-family="arial" font-size="10.00" fill="#000000"> coal deposits in pre&#45;Old Red Sandstone</text>
<text text-anchor="start" x="83.3765" y="-31" font-family="arial" font-size="10.00" fill="#000000"> strata #ev #E5</text>
</g>
<!-- n4&#45;&gt;n1 -->
<g id="edge1" class="edge">
<title>n4&#45;&gt;n1</title>
<path fill="none" stroke="#ff0000" d="M554.0614,-92.1409C554.9169,-111.116 554.9753,-134.1084 554.2364,-153.6314"/>
<polygon fill="#ff0000" stroke="#ff0000" points="550.733,-153.6251 553.7608,-163.778 557.7253,-153.9529 550.733,-153.6251"/>
</g>
<!-- n5 -->
<g id="node6" class="node">
<title>n5</title>
<path fill="#ffffff" stroke="#66a61e" stroke-width="2" d="M205.5,-228C205.5,-228 28.5,-228 28.5,-228 22.5,-228 16.5,-222 16.5,-216 16.5,-216 16.5,-176 16.5,-176 16.5,-170 22.5,-164 28.5,-164 28.5,-164 205.5,-164 205.5,-164 211.5,-164 217.5,-170 217.5,-176 217.5,-176 217.5,-216 217.5,-216 217.5,-222 211.5,-228 205.5,-228"/>
<text text-anchor="start" x="48.323" y="-214" font-family="arial" font-weight="bold" font-size="10.00" fill="#000000">Munster Coal as Carboniferous</text>
<text text-anchor="start" x="41.0905" y="-197" font-family="arial" font-size="10.00" fill="#000000">In Munster, the limestone and coal</text>
<text text-anchor="start" x="26.6475" y="-185" font-family="arial" font-size="10.00" fill="#000000"> seams are pre&#45;Carboniferous in age #ev</text>
<text text-anchor="start" x="107.217" y="-173" font-family="arial" font-size="10.00" fill="#000000"> #E8</text>
</g>
<!-- n5&#45;&gt;n3 -->
<g id="edge3" class="edge">
<title>n5&#45;&gt;n3</title>
<path fill="none" stroke="#ff0000" d="M117,-163.778C117,-143.8068 117,-117.9309 117,-96.3177"/>
<polygon fill="#ff0000" stroke="#ff0000" points="120.5001,-96.0944 117,-86.0945 113.5001,-96.0945 120.5001,-96.0944"/>
</g>
<!-- n8 -->
<g id="node7" class="node">
<title>n8</title>
<path fill="#ffffff" stroke="#ffc1c1" stroke-width="2" d="M799,-868C799,-868 627,-868 627,-868 621,-868 615,-862 615,-856 615,-856 615,-816 615,-816 615,-810 621,-804 627,-804 627,-804 799,-804 799,-804 805,-804 811,-810 811,-816 811,-816 811,-856 811,-856 811,-862 805,-868 799,-868"/>
<text text-anchor="start" x="673.551" y="-854" font-family="arial" font-weight="bold" font-size="10.00" fill="#000000">Common Species</text>
<text text-anchor="start" x="634.9305" y="-837" font-family="arial" font-size="10.00" fill="#000000">Two formations deposited at widely</text>
<text text-anchor="start" x="636.865" y="-825" font-family="arial" font-size="10.00" fill="#000000"> separated periods have few if any</text>
<text text-anchor="start" x="644.102" y="-813" font-family="arial" font-size="10.00" fill="#000000"> species in common #COA #pri</text>
</g>
<!-- n13 -->
<g id="node18" class="node">
<title>n13</title>
<path fill="#ffc1c1" stroke="#000000" d="M799,-732C799,-732 627,-732 627,-732 621,-732 615,-726 615,-720 615,-720 615,-656 615,-656 615,-650 621,-644 627,-644 627,-644 799,-644 799,-644 805,-644 811,-650 811,-656 811,-656 811,-720 811,-720 811,-726 805,-732 799,-732"/>
<text text-anchor="start" x="629.1055" y="-718" font-family="arial" font-weight="bold" font-size="10.00" fill="#000000">Fossil Criterion and Common Species</text>
<text text-anchor="start" x="632.427" y="-701" font-family="arial" font-size="10.00" fill="#000000">If two formations deposited at widely</text>
<text text-anchor="start" x="636.865" y="-689" font-family="arial" font-size="10.00" fill="#000000"> separated periods have few if any</text>
<text text-anchor="start" x="626.031" y="-677" font-family="arial" font-size="10.00" fill="#000000"> species in common, then strata can be</text>
<text text-anchor="start" x="628.533" y="-665" font-family="arial" font-size="10.00" fill="#000000"> identified by means of their imbedded</text>
<text text-anchor="start" x="682.72" y="-653" font-family="arial" font-size="10.00" fill="#000000"> fossils #COA</text>
</g>
<!-- n8&#45;&gt;n13 -->
<g id="edge17" class="edge">
<title>n8&#45;&gt;n13</title>
<path fill="none" stroke="#00ff00" d="M713,-803.8862C713,-785.9223 713,-763.0482 713,-742.3762"/>
<polygon fill="#00ff00" stroke="#00ff00" points="716.5001,-742.1214 713,-732.1215 709.5001,-742.1215 716.5001,-742.1214"/>
</g>
<!-- n11 -->
<g id="node8" class="node">
<title>n11</title>
<path fill="#ffffff" stroke="#ffc1c1" stroke-width="2" d="M799,-1224C799,-1224 627,-1224 627,-1224 621,-1224 615,-1218 615,-1212 615,-1212 615,-1148 615,-1148 615,-1142 621,-1136 627,-1136 627,-1136 799,-1136 799,-1136 805,-1136 811,-1142 811,-1148 811,-1148 811,-1212 811,-1212 811,-1218 805,-1224 799,-1224"/>
<text text-anchor="start" x="672.998" y="-1210" font-family="arial" font-weight="bold" font-size="10.00" fill="#000000">Lyellian Principals</text>
<text text-anchor="start" x="642.43" y="-1193" font-family="arial" font-size="10.00" fill="#000000">At the earth&#39;s surface, there is a</text>
<text text-anchor="start" x="628.8015" y="-1181" font-family="arial" font-size="10.00" fill="#000000"> constant but piecemeal change in the</text>
<text text-anchor="start" x="631.3065" y="-1169" font-family="arial" font-size="10.00" fill="#000000"> composition of the faunas and floras</text>
<text text-anchor="start" x="637.991" y="-1157" font-family="arial" font-size="10.00" fill="#000000"> (in correlation with ever&#45;changing</text>
<text text-anchor="start" x="635.769" y="-1145" font-family="arial" font-size="10.00" fill="#000000"> physical environments) #COA #pri</text>
</g>
<!-- n16 -->
<g id="node9" class="node">
<title>n16</title>
<path fill="#ffc1c1" stroke="#000000" d="M799,-1064C799,-1064 627,-1064 627,-1064 621,-1064 615,-1058 615,-1052 615,-1052 615,-952 615,-952 615,-946 621,-940 627,-940 627,-940 799,-940 799,-940 805,-940 811,-946 811,-952 811,-952 811,-1052 811,-1052 811,-1058 805,-1064 799,-1064"/>
<text text-anchor="start" x="658.2635" y="-1050" font-family="arial" font-weight="bold" font-size="10.00" fill="#000000">Assemblages of Species</text>
<text text-anchor="start" x="638.556" y="-1033" font-family="arial" font-size="10.00" fill="#000000">From Lyellian principals, it follows</text>
<text text-anchor="start" x="636.601" y="-1021" font-family="arial" font-size="10.00" fill="#000000"> that while particular species might</text>
<text text-anchor="start" x="648.8135" y="-1009" font-family="arial" font-size="10.00" fill="#000000"> have long ranges in time, an</text>
<text text-anchor="start" x="626.5845" y="-997" font-family="arial" font-size="10.00" fill="#000000"> assemblage of many species does not</text>
<text text-anchor="start" x="627.9735" y="-985" font-family="arial" font-size="10.00" fill="#000000"> remain unchanged for long; therefore,</text>
<text text-anchor="start" x="635.206" y="-973" font-family="arial" font-size="10.00" fill="#000000"> two formations deposited at widely</text>
<text text-anchor="start" x="636.865" y="-961" font-family="arial" font-size="10.00" fill="#000000"> separated periods have few if any</text>
<text text-anchor="start" x="653.8245" y="-949" font-family="arial" font-size="10.00" fill="#000000"> species in common #COA</text>
</g>
<!-- n11&#45;&gt;n16 -->
<g id="edge19" class="edge">
<title>n11&#45;&gt;n16</title>
<path fill="none" stroke="#00ff00" d="M713,-1136C713,-1117.4206 713,-1095.2905 713,-1074.4213"/>
<polygon fill="#00ff00" stroke="#00ff00" points="716.5001,-1074.2987 713,-1064.2987 709.5001,-1074.2988 716.5001,-1074.2987"/>
</g>
<!-- n16&#45;&gt;n8 -->
<g id="edge11" class="edge">
<title>n16&#45;&gt;n8</title>
<path fill="none" stroke="#00ff00" d="M713,-939.7154C713,-919.3177 713,-897.1367 713,-878.5421"/>
<polygon fill="#00ff00" stroke="#00ff00" points="716.5001,-878.3327 713,-868.3327 709.5001,-878.3327 716.5001,-878.3327"/>
</g>
<!-- n10&#45;&gt;n0 -->
<g id="edge6" class="edge">
<title>n10&#45;&gt;n0</title>
<path fill="none" stroke="#ff0000" d="M521.757,-542.0298C543.2155,-564.4321 577.5955,-595.1456 615,-608.2 697.246,-636.9044 728.754,-636.9044 811,-608.2 844.4595,-596.5224 875.4989,-570.7143 897.0338,-549.3649"/>
<polygon fill="#ff0000" stroke="#ff0000" points="899.7296,-551.6152 904.243,-542.0298 894.7372,-546.7085 899.7296,-551.6152"/>
</g>
<!-- n10&#45;&gt;n9 -->
<g id="edge5" class="edge">
<title>n10&#45;&gt;n9</title>
<path fill="none" stroke="#ff0000" d="M499.4463,-477.6224C499.7764,-449.2308 500.2241,-410.7259 500.5542,-382.3426"/>
<polygon fill="#ff0000" stroke="#ff0000" points="499.4434,-477.8777 503.3733,-483.9238 499.3038,-489.8769 495.3738,-483.8308 499.4434,-477.8777"/>
<polygon fill="#ff0000" stroke="#ff0000" points="500.557,-382.0858 496.6271,-376.0396 500.6967,-370.0866 504.6266,-376.1327 500.557,-382.0858"/>
</g>
<!-- n15 -->
<g id="node12" class="node">
<title>n15</title>
<path fill="#ffc1c1" stroke="#000000" d="M373,-388C373,-388 201,-388 201,-388 195,-388 189,-382 189,-376 189,-376 189,-312 189,-312 189,-306 195,-300 201,-300 201,-300 373,-300 373,-300 379,-300 385,-306 385,-312 385,-312 385,-376 385,-376 385,-382 379,-388 373,-388"/>
<text text-anchor="start" x="259.5045" y="-374" font-family="arial" font-weight="bold" font-size="10.00" fill="#000000">Culm as CM</text>
<text text-anchor="start" x="203.9175" y="-357" font-family="arial" font-size="10.00" fill="#000000">If strata can be identified by means of</text>
<text text-anchor="start" x="204.4815" y="-345" font-family="arial" font-size="10.00" fill="#000000"> their embedded fossils and the Culm</text>
<text text-anchor="start" x="204.757" y="-333" font-family="arial" font-size="10.00" fill="#000000"> strata are not Coal Measures in age,</text>
<text text-anchor="start" x="207.807" y="-321" font-family="arial" font-size="10.00" fill="#000000"> then the Culm strata do not contain</text>
<text text-anchor="start" x="222.2665" y="-309" font-family="arial" font-size="10.00" fill="#000000"> Coal Measures plants #COA</text>
</g>
<!-- n10&#45;&gt;n15 -->
<g id="edge18" class="edge">
<title>n10&#45;&gt;n15</title>
<path fill="none" stroke="#00ff00" d="M466.8018,-489.8769C435.7654,-464.6964 387.9713,-425.9201 349.4588,-394.6741"/>
<polygon fill="#00ff00" stroke="#00ff00" points="351.3617,-391.7109 341.3909,-388.1285 346.9514,-397.1469 351.3617,-391.7109"/>
</g>
<!-- n15&#45;&gt;n2 -->
<g id="edge8" class="edge">
<title>n15&#45;&gt;n2</title>
<path fill="none" stroke="#ff0000" d="M300.9743,-299.9958C307.904,-278.1747 316.1639,-252.1646 322.6897,-231.6155"/>
<polygon fill="#ff0000" stroke="#ff0000" points="326.0495,-232.599 325.7405,-222.0086 319.3779,-230.4802 326.0495,-232.599"/>
</g>
<!-- n12 -->
<g id="node13" class="node">
<title>n12</title>
<path fill="#ffffff" stroke="#ffc1c1" stroke-width="2" d="M959.5,-228C959.5,-228 776.5,-228 776.5,-228 770.5,-228 764.5,-222 764.5,-216 764.5,-216 764.5,-176 764.5,-176 764.5,-170 770.5,-164 776.5,-164 776.5,-164 959.5,-164 959.5,-164 965.5,-164 971.5,-170 971.5,-176 971.5,-176 971.5,-216 971.5,-216 971.5,-222 965.5,-228 959.5,-228"/>
<text text-anchor="start" x="797.0935" y="-214" font-family="arial" font-weight="bold" font-size="10.00" fill="#000000">Culm Youngest Devonian Strata</text>
<text text-anchor="start" x="789.312" y="-197" font-family="arial" font-size="10.00" fill="#000000">In Devon, among all the strata older</text>
<text text-anchor="start" x="779.028" y="-185" font-family="arial" font-size="10.00" fill="#000000"> than the New Red Sandstone, the Culm</text>
<text text-anchor="start" x="774.5825" y="-173" font-family="arial" font-size="10.00" fill="#000000"> strata are the youngest #COA #chron&#45;hyp</text>
</g>
<!-- n17&#45;&gt;n12 -->
<g id="edge12" class="edge">
<title>n17&#45;&gt;n12</title>
<path fill="none" stroke="#00ff00" d="M870.2274,-305.8863C869.8097,-285.2775 869.2926,-259.7689 868.8618,-238.5179"/>
<polygon fill="#00ff00" stroke="#00ff00" points="872.3602,-238.3948 868.6581,-228.4678 865.3616,-238.5367 872.3602,-238.3948"/>
</g>
<!-- n14&#45;&gt;n4 -->
<g id="edge10" class="edge">
<title>n14&#45;&gt;n4</title>
<path fill="none" stroke="#00ff00" d="M1082.0648,-305.998C1066.5202,-262.8942 1035.1232,-193.7154 984,-156 932.6122,-118.0893 767.6108,-86.8283 655.9866,-69.2958"/>
<polygon fill="#00ff00" stroke="#00ff00" points="656.4496,-65.8258 646.0302,-67.746 655.3729,-72.7425 656.4496,-65.8258"/>
</g>
<!-- n6 -->
<g id="node16" class="node">
<title>n6</title>
<path fill="#ffffff" stroke="#ffc1c1" stroke-width="2" d="M1227,-572C1227,-572 1055,-572 1055,-572 1049,-572 1043,-566 1043,-560 1043,-560 1043,-472 1043,-472 1043,-466 1049,-460 1055,-460 1055,-460 1227,-460 1227,-460 1233,-460 1239,-466 1239,-472 1239,-472 1239,-560 1239,-560 1239,-566 1233,-572 1227,-572"/>
<text text-anchor="start" x="1096.813" y="-558" font-family="arial" font-weight="bold" font-size="10.00" fill="#000000">Standard Sequence</text>
<text text-anchor="start" x="1068.2" y="-541" font-family="arial" font-size="10.00" fill="#000000">Given the strata are undisturbed,</text>
<text text-anchor="start" x="1069.8795" y="-529" font-family="arial" font-size="10.00" fill="#000000"> Cambrian strata are overlain by</text>
<text text-anchor="start" x="1062.6465" y="-517" font-family="arial" font-size="10.00" fill="#000000"> Silurian strata, Old Red Sandstone</text>
<text text-anchor="start" x="1064.036" y="-505" font-family="arial" font-size="10.00" fill="#000000"> strata, Mountain Limestone strata,</text>
<text text-anchor="start" x="1060.43" y="-493" font-family="arial" font-size="10.00" fill="#000000"> Coal Measures strata and New Red</text>
<text text-anchor="start" x="1057.645" y="-481" font-family="arial" font-size="10.00" fill="#000000"> Sandstone strata, respectively #COA</text>
<text text-anchor="start" x="1131.2775" y="-469" font-family="arial" font-size="10.00" fill="#000000"> #pri</text>
</g>
<!-- n6&#45;&gt;n14 -->
<g id="edge15" class="edge">
<title>n6&#45;&gt;n14</title>
<path fill="none" stroke="#00ff00" d="M1125.6104,-459.6808C1119.6245,-437.7749 1112.8384,-412.9405 1107.0925,-391.913"/>
<polygon fill="#00ff00" stroke="#00ff00" points="1110.4604,-390.9595 1104.4481,-382.2358 1103.7079,-392.8047 1110.4604,-390.9595"/>
</g>
<!-- n7 -->
<g id="node17" class="node">
<title>n7</title>
<path fill="#ffffff" stroke="#ffc1c1" stroke-width="2" d="M799,-542C799,-542 627,-542 627,-542 621,-542 615,-536 615,-530 615,-530 615,-502 615,-502 615,-496 621,-490 627,-490 627,-490 799,-490 799,-490 805,-490 811,-496 811,-502 811,-502 811,-530 811,-530 811,-536 805,-542 799,-542"/>
<text text-anchor="start" x="679.672" y="-528" font-family="arial" font-weight="bold" font-size="10.00" fill="#000000">Fossil Criterion</text>
<text text-anchor="start" x="633.2515" y="-511" font-family="arial" font-size="10.00" fill="#000000">Strata can be identified by means of</text>
<text text-anchor="start" x="638.545" y="-499" font-family="arial" font-size="10.00" fill="#000000"> their imbedded fossils #COA #pri</text>
</g>
<!-- n7&#45;&gt;n15 -->
<g id="edge16" class="edge">
<title>n7&#45;&gt;n15</title>
<path fill="none" stroke="#00ff00" d="M671.614,-489.7511C653.5632,-479.2449 631.805,-467.8076 611,-460 518.5576,-425.3086 485.2344,-450.1541 394,-412.4 381.3772,-407.1765 368.5965,-400.4746 356.4739,-393.3159"/>
<polygon fill="#00ff00" stroke="#00ff00" points="358.1396,-390.2327 347.7747,-388.0372 354.5082,-396.2172 358.1396,-390.2327"/>
</g>
<!-- n13&#45;&gt;n7 -->
<g id="edge9" class="edge">
<title>n13&#45;&gt;n7</title>
<path fill="none" stroke="#00ff00" d="M713,-643.7057C713,-615.3232 713,-578.9442 713,-552.2791"/>
<polygon fill="#00ff00" stroke="#00ff00" points="716.5001,-552.2152 713,-542.2152 709.5001,-552.2152 716.5001,-552.2152"/>
</g>
</g>
</svg>
