
<!-- Generated by graphviz version 2.40.1 (20161225.0304)
 -->
<!-- Title: Argument Map Pages: 1 -->
<svg width="609pt" height="720pt"
 viewBox="0.00 0.00 608.69 720.00" xmlns="http://www.w3.org/2000/svg" xmlns:xlink="http://www.w3.org/1999/xlink">
<g id="graph0" class="graph" transform="scale(.5668 .5668) rotate(0) translate(4 1266.4)">
<title>Argument Map</title>
<g id="clust1" class="cluster">
<title>cluster_1</title>
<polygon fill="#ffff00" stroke="#ffff00" points="648,-482 648,-572.4 860,-572.4 860,-482 648,-482"/>
<text text-anchor="start" x="707.3272" y="-557.6" font-family="arial" font-size="12.00" fill="#000000">Rival Hypotheses</text>
</g>
<g id="clust2" class="cluster">
<title>cluster_2</title>
<polygon fill="#ffff00" stroke="#ffff00" points="32,-8 32,-258.4 458,-258.4 458,-8 32,-8"/>
<text text-anchor="start" x="220.3256" y="-243.6" font-family="arial" font-size="12.00" fill="#000000">Evidence</text>
</g>
<g id="clust3" class="cluster">
<title>cluster_3</title>
<polygon fill="#9fb6cd" stroke="#9fb6cd" points="432,-796 432,-1254.4 649,-1254.4 649,-796 432,-796"/>
<text text-anchor="start" x="439.8122" y="-1239.6" font-family="arial" font-size="12.00" fill="#000000">Aporia II : CM Plants in Ancient Strata</text>
</g>
<g id="clust4" class="cluster">
<title>cluster_4</title>
<polygon fill="#bfefff" stroke="#bfefff" points="8,-292 8,-572.4 434,-572.4 434,-292 8,-292"/>
<text text-anchor="start" x="171.3248" y="-557.6" font-family="arial" font-size="12.00" fill="#000000">Dating of the Culm</text>
</g>
<g id="clust5" class="cluster">
<title>cluster_5</title>
<polygon fill="#e6e6fa" stroke="#e6e6fa" points="560,-156 560,-412.4 784,-412.4 784,-156 560,-156"/>
<text text-anchor="start" x="601.9752" y="-397.6" font-family="arial" font-size="12.00" fill="#000000">Youngest Devonian Strata</text>
</g>
<g id="clust6" class="cluster">
<title>cluster_6</title>
<polygon fill="#f0ffff" stroke="#f0ffff" points="792,-298 792,-412.4 1004,-412.4 1004,-298 792,-298"/>
<text text-anchor="start" x="841.6408" y="-397.6" font-family="arial" font-size="12.00" fill="#000000">Gap in the Sequence</text>
</g>
<!-- n0 -->
<g id="node1" class="node">
<title>n0</title>
<path fill="#ffffff" stroke="#ffc1c1" stroke-width="2" d="M840,-542C840,-542 668,-542 668,-542 662,-542 656,-536 656,-530 656,-530 656,-502 656,-502 656,-496 662,-490 668,-490 668,-490 840,-490 840,-490 846,-490 852,-496 852,-502 852,-502 852,-530 852,-530 852,-536 846,-542 840,-542"/>
<text text-anchor="start" x="726.5045" y="-528" font-family="arial" font-weight="bold" font-size="10.00" fill="#000000">Culm as CM</text>
<text text-anchor="start" x="675.6555" y="-511" font-family="arial" font-size="10.00" fill="#000000">The Devonian Culm strata are Coal</text>
<text text-anchor="start" x="674.259" y="-499" font-family="arial" font-size="10.00" fill="#000000"> Measures in age #COA #chron&#45;hyp</text>
</g>
<!-- n7 -->
<g id="node8" class="node">
<title>n7</title>
<path fill="#ffffff" stroke="#ffc1c1" stroke-width="2" d="M414,-370C414,-370 242,-370 242,-370 236,-370 230,-364 230,-358 230,-358 230,-330 230,-330 230,-324 236,-318 242,-318 242,-318 414,-318 414,-318 420,-318 426,-324 426,-330 426,-330 426,-358 426,-358 426,-364 420,-370 414,-370"/>
<text text-anchor="start" x="272.161" y="-356" font-family="arial" font-weight="bold" font-size="10.00" fill="#000000">Some CM dating of Culm</text>
<text text-anchor="start" x="242.712" y="-339" font-family="arial" font-size="10.00" fill="#000000">Some part of the Devon Culm is CM in</text>
<text text-anchor="start" x="276.874" y="-327" font-family="arial" font-size="10.00" fill="#000000"> age #COA #chron&#45;hyp</text>
</g>
<!-- n0&#45;&gt;n7 -->
<g id="edge3" class="edge">
<title>n0&#45;&gt;n7</title>
<path fill="none" stroke="#00ff00" d="M707.5227,-489.9502C688.9678,-480.0081 667.2381,-468.928 647,-460 571.4844,-426.6865 483.1135,-395.1031 418.5578,-373.3284"/>
<polygon fill="#00ff00" stroke="#00ff00" points="419.4032,-369.9203 408.8092,-370.0537 417.1741,-376.5559 419.4032,-369.9203"/>
</g>
<!-- n8 -->
<g id="node9" class="node">
<title>n8</title>
<path fill="#ffffff" stroke="#ffc1c1" stroke-width="2" d="M412,-542C412,-542 240,-542 240,-542 234,-542 228,-536 228,-530 228,-530 228,-502 228,-502 228,-496 234,-490 240,-490 240,-490 412,-490 412,-490 418,-490 424,-496 424,-502 424,-502 424,-530 424,-530 424,-536 418,-542 412,-542"/>
<text text-anchor="start" x="276.83" y="-528" font-family="arial" font-weight="bold" font-size="10.00" fill="#000000">No CM dating of Culm</text>
<text text-anchor="start" x="237.653" y="-511" font-family="arial" font-size="10.00" fill="#000000">No part of the Devon Culm is CM in age</text>
<text text-anchor="start" x="283.2125" y="-499" font-family="arial" font-size="10.00" fill="#000000"> #COA #chron&#45;hyp </text>
</g>
<!-- n0&#45;&gt;n8 -->
<g id="edge6" class="edge">
<title>n0&#45;&gt;n8</title>
<path fill="none" stroke="#ff0000" d="M731.243,-542.0298C709.7845,-564.4321 675.4045,-595.1456 638,-608.2 555.754,-636.9044 524.246,-636.9044 442,-608.2 408.5405,-596.5224 377.5011,-570.7143 355.9662,-549.3649"/>
<polygon fill="#ff0000" stroke="#ff0000" points="358.2628,-546.7085 348.757,-542.0298 353.2704,-551.6152 358.2628,-546.7085"/>
</g>
<!-- n15 -->
<g id="node12" class="node">
<title>n15</title>
<path fill="#ffc1c1" stroke="#000000" d="M761,-382C761,-382 589,-382 589,-382 583,-382 577,-376 577,-370 577,-370 577,-318 577,-318 577,-312 583,-306 589,-306 589,-306 761,-306 761,-306 767,-306 773,-312 773,-318 773,-318 773,-370 773,-370 773,-376 767,-382 761,-382"/>
<text text-anchor="start" x="619.4305" y="-368" font-family="arial" font-weight="bold" font-size="10.00" fill="#000000">Culm as Youngest Strata</text>
<text text-anchor="start" x="588.599" y="-351" font-family="arial" font-size="10.00" fill="#000000">If, the non&#45;Culm strata are Cambrian in</text>
<text text-anchor="start" x="589.144" y="-339" font-family="arial" font-size="10.00" fill="#000000"> age, then the Culm strata &#45; being Coal</text>
<text text-anchor="start" x="594.9755" y="-327" font-family="arial" font-size="10.00" fill="#000000"> Measures in age &#45; are the youngest</text>
<text text-anchor="start" x="623.5995" y="-315" font-family="arial" font-size="10.00" fill="#000000"> Devonian strata #COA</text>
</g>
<!-- n0&#45;&gt;n15 -->
<g id="edge13" class="edge">
<title>n0&#45;&gt;n15</title>
<path fill="none" stroke="#00ff00" d="M742.0016,-489.8769C730.0194,-463.789 711.3343,-423.1076 696.7371,-391.3263"/>
<polygon fill="#00ff00" stroke="#00ff00" points="699.8986,-389.8239 692.5442,-382.1974 693.5375,-392.7456 699.8986,-389.8239"/>
</g>
<!-- n12 -->
<g id="node13" class="node">
<title>n12</title>
<path fill="#ffc1c1" stroke="#000000" d="M984,-382C984,-382 812,-382 812,-382 806,-382 800,-376 800,-370 800,-370 800,-318 800,-318 800,-312 806,-306 812,-306 812,-306 984,-306 984,-306 990,-306 996,-312 996,-318 996,-318 996,-370 996,-370 996,-376 990,-382 984,-382"/>
<text text-anchor="start" x="824.375" y="-368" font-family="arial" font-weight="bold" font-size="10.00" fill="#000000">Postulating A Major Gap &#45; COA.1</text>
<text text-anchor="start" x="811.043" y="-351" font-family="arial" font-size="10.00" fill="#000000">If the Culm strata are Coal Measures in</text>
<text text-anchor="start" x="819.6455" y="-339" font-family="arial" font-size="10.00" fill="#000000"> age and juxtaposed with Cambrian</text>
<text text-anchor="start" x="820.7575" y="-327" font-family="arial" font-size="10.00" fill="#000000"> strata, then there is a major gap in</text>
<text text-anchor="start" x="839.9255" y="-315" font-family="arial" font-size="10.00" fill="#000000"> the local sequence #COA</text>
</g>
<!-- n0&#45;&gt;n12 -->
<g id="edge12" class="edge">
<title>n0&#45;&gt;n12</title>
<path fill="none" stroke="#00ff00" d="M775.8705,-489.8769C797.9928,-463.4531 832.6495,-422.0576 859.402,-390.1031"/>
<polygon fill="#00ff00" stroke="#00ff00" points="862.285,-392.1118 866.0208,-382.1974 856.9177,-387.6182 862.285,-392.1118"/>
</g>
<!-- n1 -->
<g id="node2" class="node">
<title>n1</title>
<path fill="#ffffff" stroke="#66a61e" stroke-width="2" d="M438,-228C438,-228 266,-228 266,-228 260,-228 254,-222 254,-216 254,-216 254,-176 254,-176 254,-170 260,-164 266,-164 266,-164 438,-164 438,-164 444,-164 450,-170 450,-176 450,-176 450,-216 450,-216 450,-222 444,-228 438,-228"/>
<text text-anchor="start" x="270.305" y="-214" font-family="arial" font-weight="bold" font-size="10.00" fill="#000000">Unbroken Sequence of Devon Strata</text>
<text text-anchor="start" x="275.3125" y="-197" font-family="arial" font-size="10.00" fill="#000000">In Devon, all the strata &#45; older than</text>
<text text-anchor="start" x="275.0355" y="-185" font-family="arial" font-size="10.00" fill="#000000"> the New Red Sandstone &#45; form an</text>
<text text-anchor="start" x="267.5205" y="-173" font-family="arial" font-size="10.00" fill="#000000"> unbroken sequence of strata #ev #E1</text>
</g>
<!-- n3 -->
<g id="node4" class="node">
<title>n3</title>
<path fill="#ffffff" stroke="#66a61e" stroke-width="2" d="M438,-92C438,-92 266,-92 266,-92 260,-92 254,-86 254,-80 254,-80 254,-28 254,-28 254,-22 260,-16 266,-16 266,-16 438,-16 438,-16 444,-16 450,-22 450,-28 450,-28 450,-80 450,-80 450,-86 444,-92 438,-92"/>
<text text-anchor="start" x="301.439" y="-78" font-family="arial" font-weight="bold" font-size="10.00" fill="#000000">Unconformity in Devon</text>
<text text-anchor="start" x="277.2545" y="-61" font-family="arial" font-size="10.00" fill="#000000">Between the Devon Culm and the</text>
<text text-anchor="start" x="275.866" y="-49" font-family="arial" font-size="10.00" fill="#000000"> juxtaposed strata, there is at least</text>
<text text-anchor="start" x="281.9895" y="-37" font-family="arial" font-size="10.00" fill="#000000"> one formation missing from the</text>
<text text-anchor="start" x="288.361" y="-25" font-family="arial" font-size="10.00" fill="#000000"> standard sequence #ev #E6</text>
</g>
<!-- n1&#45;&gt;n3 -->
<g id="edge2" class="edge">
<title>n1&#45;&gt;n3</title>
<path fill="none" stroke="#ff0000" d="M346.2392,-163.778C345.2044,-145.5777 344.9815,-122.4732 345.5705,-102.1603"/>
<polygon fill="#ff0000" stroke="#ff0000" points="349.069,-102.2627 345.9386,-92.1409 342.0737,-102.0057 349.069,-102.2627"/>
</g>
<!-- n2 -->
<g id="node3" class="node">
<title>n2</title>
<path fill="#ffffff" stroke="#66a61e" stroke-width="2" d="M224,-222C224,-222 52,-222 52,-222 46,-222 40,-216 40,-210 40,-210 40,-182 40,-182 40,-176 46,-170 52,-170 52,-170 224,-170 224,-170 230,-170 236,-176 236,-182 236,-182 236,-210 236,-210 236,-216 230,-222 224,-222"/>
<text text-anchor="start" x="80.7755" y="-208" font-family="arial" font-weight="bold" font-size="10.00" fill="#000000">CM Plants in Devon Culm</text>
<text text-anchor="start" x="52.1475" y="-191" font-family="arial" font-size="10.00" fill="#000000">In Devon, the Culm strata contain Coal</text>
<text text-anchor="start" x="67.4275" y="-179" font-family="arial" font-size="10.00" fill="#000000"> Measures fossil plants #ev #E2</text>
</g>
<!-- n3&#45;&gt;n1 -->
<g id="edge1" class="edge">
<title>n3&#45;&gt;n1</title>
<path fill="none" stroke="#ff0000" d="M358.0614,-92.1409C358.9169,-111.116 358.9753,-134.1084 358.2364,-153.6314"/>
<polygon fill="#ff0000" stroke="#ff0000" points="354.733,-153.6251 357.7608,-163.778 361.7253,-153.9529 354.733,-153.6251"/>
</g>
<!-- n6 -->
<g id="node5" class="node">
<title>n6</title>
<path fill="#ffffff" stroke="#ffc1c1" stroke-width="2" d="M626,-868C626,-868 454,-868 454,-868 448,-868 442,-862 442,-856 442,-856 442,-816 442,-816 442,-810 448,-804 454,-804 454,-804 626,-804 626,-804 632,-804 638,-810 638,-816 638,-816 638,-856 638,-856 638,-862 632,-868 626,-868"/>
<text text-anchor="start" x="500.551" y="-854" font-family="arial" font-weight="bold" font-size="10.00" fill="#000000">Common Species</text>
<text text-anchor="start" x="461.9305" y="-837" font-family="arial" font-size="10.00" fill="#000000">Two formations deposited at widely</text>
<text text-anchor="start" x="463.865" y="-825" font-family="arial" font-size="10.00" fill="#000000"> separated periods have few if any</text>
<text text-anchor="start" x="471.102" y="-813" font-family="arial" font-size="10.00" fill="#000000"> species in common #COA #pri</text>
</g>
<!-- n11 -->
<g id="node16" class="node">
<title>n11</title>
<path fill="#ffc1c1" stroke="#000000" d="M626,-732C626,-732 454,-732 454,-732 448,-732 442,-726 442,-720 442,-720 442,-656 442,-656 442,-650 448,-644 454,-644 454,-644 626,-644 626,-644 632,-644 638,-650 638,-656 638,-656 638,-720 638,-720 638,-726 632,-732 626,-732"/>
<text text-anchor="start" x="456.1055" y="-718" font-family="arial" font-weight="bold" font-size="10.00" fill="#000000">Fossil Criterion and Common Species</text>
<text text-anchor="start" x="459.427" y="-701" font-family="arial" font-size="10.00" fill="#000000">If two formations deposited at widely</text>
<text text-anchor="start" x="463.865" y="-689" font-family="arial" font-size="10.00" fill="#000000"> separated periods have few if any</text>
<text text-anchor="start" x="453.031" y="-677" font-family="arial" font-size="10.00" fill="#000000"> species in common, then strata can be</text>
<text text-anchor="start" x="455.533" y="-665" font-family="arial" font-size="10.00" fill="#000000"> identified by means of their imbedded</text>
<text text-anchor="start" x="509.72" y="-653" font-family="arial" font-size="10.00" fill="#000000"> fossils #COA</text>
</g>
<!-- n6&#45;&gt;n11 -->
<g id="edge16" class="edge">
<title>n6&#45;&gt;n11</title>
<path fill="none" stroke="#00ff00" d="M540,-803.8862C540,-785.9223 540,-763.0482 540,-742.3762"/>
<polygon fill="#00ff00" stroke="#00ff00" points="543.5001,-742.1214 540,-732.1215 536.5001,-742.1215 543.5001,-742.1214"/>
</g>
<!-- n9 -->
<g id="node6" class="node">
<title>n9</title>
<path fill="#ffffff" stroke="#ffc1c1" stroke-width="2" d="M626,-1224C626,-1224 454,-1224 454,-1224 448,-1224 442,-1218 442,-1212 442,-1212 442,-1148 442,-1148 442,-1142 448,-1136 454,-1136 454,-1136 626,-1136 626,-1136 632,-1136 638,-1142 638,-1148 638,-1148 638,-1212 638,-1212 638,-1218 632,-1224 626,-1224"/>
<text text-anchor="start" x="499.998" y="-1210" font-family="arial" font-weight="bold" font-size="10.00" fill="#000000">Lyellian Principals</text>
<text text-anchor="start" x="469.43" y="-1193" font-family="arial" font-size="10.00" fill="#000000">At the earth&#39;s surface, there is a</text>
<text text-anchor="start" x="455.8015" y="-1181" font-family="arial" font-size="10.00" fill="#000000"> constant but piecemeal change in the</text>
<text text-anchor="start" x="458.3065" y="-1169" font-family="arial" font-size="10.00" fill="#000000"> composition of the faunas and floras</text>
<text text-anchor="start" x="464.991" y="-1157" font-family="arial" font-size="10.00" fill="#000000"> (in correlation with ever&#45;changing</text>
<text text-anchor="start" x="462.769" y="-1145" font-family="arial" font-size="10.00" fill="#000000"> physical environments) #COA #pri</text>
</g>
<!-- n14 -->
<g id="node7" class="node">
<title>n14</title>
<path fill="#ffc1c1" stroke="#000000" d="M626,-1064C626,-1064 454,-1064 454,-1064 448,-1064 442,-1058 442,-1052 442,-1052 442,-952 442,-952 442,-946 448,-940 454,-940 454,-940 626,-940 626,-940 632,-940 638,-946 638,-952 638,-952 638,-1052 638,-1052 638,-1058 632,-1064 626,-1064"/>
<text text-anchor="start" x="485.2635" y="-1050" font-family="arial" font-weight="bold" font-size="10.00" fill="#000000">Assemblages of Species</text>
<text text-anchor="start" x="465.556" y="-1033" font-family="arial" font-size="10.00" fill="#000000">From Lyellian principals, it follows</text>
<text text-anchor="start" x="463.601" y="-1021" font-family="arial" font-size="10.00" fill="#000000"> that while particular species might</text>
<text text-anchor="start" x="475.8135" y="-1009" font-family="arial" font-size="10.00" fill="#000000"> have long ranges in time, an</text>
<text text-anchor="start" x="453.5845" y="-997" font-family="arial" font-size="10.00" fill="#000000"> assemblage of many species does not</text>
<text text-anchor="start" x="454.9735" y="-985" font-family="arial" font-size="10.00" fill="#000000"> remain unchanged for long; therefore,</text>
<text text-anchor="start" x="462.206" y="-973" font-family="arial" font-size="10.00" fill="#000000"> two formations deposited at widely</text>
<text text-anchor="start" x="463.865" y="-961" font-family="arial" font-size="10.00" fill="#000000"> separated periods have few if any</text>
<text text-anchor="start" x="480.8245" y="-949" font-family="arial" font-size="10.00" fill="#000000"> species in common #COA</text>
</g>
<!-- n9&#45;&gt;n14 -->
<g id="edge18" class="edge">
<title>n9&#45;&gt;n14</title>
<path fill="none" stroke="#00ff00" d="M540,-1136C540,-1117.4206 540,-1095.2905 540,-1074.4213"/>
<polygon fill="#00ff00" stroke="#00ff00" points="543.5001,-1074.2987 540,-1064.2987 536.5001,-1074.2988 543.5001,-1074.2987"/>
</g>
<!-- n14&#45;&gt;n6 -->
<g id="edge10" class="edge">
<title>n14&#45;&gt;n6</title>
<path fill="none" stroke="#00ff00" d="M540,-939.7154C540,-919.3177 540,-897.1367 540,-878.5421"/>
<polygon fill="#00ff00" stroke="#00ff00" points="543.5001,-878.3327 540,-868.3327 536.5001,-878.3327 543.5001,-878.3327"/>
</g>
<!-- n8&#45;&gt;n0 -->
<g id="edge5" class="edge">
<title>n8&#45;&gt;n0</title>
<path fill="none" stroke="#ff0000" d="M348.757,-542.0298C370.2155,-564.4321 404.5955,-595.1456 442,-608.2 524.246,-636.9044 555.754,-636.9044 638,-608.2 671.4595,-596.5224 702.4989,-570.7143 724.0338,-549.3649"/>
<polygon fill="#ff0000" stroke="#ff0000" points="726.7296,-551.6152 731.243,-542.0298 721.7372,-546.7085 726.7296,-551.6152"/>
</g>
<!-- n8&#45;&gt;n7 -->
<g id="edge4" class="edge">
<title>n8&#45;&gt;n7</title>
<path fill="none" stroke="#ff0000" d="M326.4463,-477.6224C326.7764,-449.2308 327.2241,-410.7259 327.5542,-382.3426"/>
<polygon fill="#ff0000" stroke="#ff0000" points="326.4434,-477.8777 330.3733,-483.9238 326.3038,-489.8769 322.3738,-483.8308 326.4434,-477.8777"/>
<polygon fill="#ff0000" stroke="#ff0000" points="327.557,-382.0858 323.6271,-376.0396 327.6967,-370.0866 331.6266,-376.1327 327.557,-382.0858"/>
</g>
<!-- n13 -->
<g id="node10" class="node">
<title>n13</title>
<path fill="#ffc1c1" stroke="#000000" d="M200,-388C200,-388 28,-388 28,-388 22,-388 16,-382 16,-376 16,-376 16,-312 16,-312 16,-306 22,-300 28,-300 28,-300 200,-300 200,-300 206,-300 212,-306 212,-312 212,-312 212,-376 212,-376 212,-382 206,-388 200,-388"/>
<text text-anchor="start" x="86.5045" y="-374" font-family="arial" font-weight="bold" font-size="10.00" fill="#000000">Culm as CM</text>
<text text-anchor="start" x="30.9175" y="-357" font-family="arial" font-size="10.00" fill="#000000">If strata can be identified by means of</text>
<text text-anchor="start" x="31.4815" y="-345" font-family="arial" font-size="10.00" fill="#000000"> their embedded fossils and the Culm</text>
<text text-anchor="start" x="31.757" y="-333" font-family="arial" font-size="10.00" fill="#000000"> strata are not Coal Measures in age,</text>
<text text-anchor="start" x="34.807" y="-321" font-family="arial" font-size="10.00" fill="#000000"> then the Culm strata do not contain</text>
<text text-anchor="start" x="49.2665" y="-309" font-family="arial" font-size="10.00" fill="#000000"> Coal Measures plants #COA</text>
</g>
<!-- n8&#45;&gt;n13 -->
<g id="edge17" class="edge">
<title>n8&#45;&gt;n13</title>
<path fill="none" stroke="#00ff00" d="M293.8018,-489.8769C262.7654,-464.6964 214.9713,-425.9201 176.4588,-394.6741"/>
<polygon fill="#00ff00" stroke="#00ff00" points="178.3617,-391.7109 168.3909,-388.1285 173.9514,-397.1469 178.3617,-391.7109"/>
</g>
<!-- n13&#45;&gt;n2 -->
<g id="edge7" class="edge">
<title>n13&#45;&gt;n2</title>
<path fill="none" stroke="#ff0000" d="M121.1358,-299.9958C124.6583,-278.2738 128.8539,-252.401 132.179,-231.896"/>
<polygon fill="#ff0000" stroke="#ff0000" points="135.6365,-232.44 133.7824,-222.0086 128.7267,-231.3194 135.6365,-232.44"/>
</g>
<!-- n10 -->
<g id="node11" class="node">
<title>n10</title>
<path fill="#ffffff" stroke="#ffc1c1" stroke-width="2" d="M763.5,-228C763.5,-228 580.5,-228 580.5,-228 574.5,-228 568.5,-222 568.5,-216 568.5,-216 568.5,-176 568.5,-176 568.5,-170 574.5,-164 580.5,-164 580.5,-164 763.5,-164 763.5,-164 769.5,-164 775.5,-170 775.5,-176 775.5,-176 775.5,-216 775.5,-216 775.5,-222 769.5,-228 763.5,-228"/>
<text text-anchor="start" x="601.0935" y="-214" font-family="arial" font-weight="bold" font-size="10.00" fill="#000000">Culm Youngest Devonian Strata</text>
<text text-anchor="start" x="593.312" y="-197" font-family="arial" font-size="10.00" fill="#000000">In Devon, among all the strata older</text>
<text text-anchor="start" x="583.028" y="-185" font-family="arial" font-size="10.00" fill="#000000"> than the New Red Sandstone, the Culm</text>
<text text-anchor="start" x="578.5825" y="-173" font-family="arial" font-size="10.00" fill="#000000"> strata are the youngest #COA #chron&#45;hyp</text>
</g>
<!-- n15&#45;&gt;n10 -->
<g id="edge11" class="edge">
<title>n15&#45;&gt;n10</title>
<path fill="none" stroke="#00ff00" d="M674.2274,-305.8863C673.8097,-285.2775 673.2926,-259.7689 672.8618,-238.5179"/>
<polygon fill="#00ff00" stroke="#00ff00" points="676.3602,-238.3948 672.6581,-228.4678 669.3616,-238.5367 676.3602,-238.3948"/>
</g>
<!-- n12&#45;&gt;n3 -->
<g id="edge9" class="edge">
<title>n12&#45;&gt;n3</title>
<path fill="none" stroke="#00ff00" d="M886.0648,-305.998C870.5202,-262.8942 839.1232,-193.7154 788,-156 736.6122,-118.0893 571.6108,-86.8283 459.9866,-69.2958"/>
<polygon fill="#00ff00" stroke="#00ff00" points="460.4496,-65.8258 450.0302,-67.746 459.3729,-72.7425 460.4496,-65.8258"/>
</g>
<!-- n4 -->
<g id="node14" class="node">
<title>n4</title>
<path fill="#ffffff" stroke="#ffc1c1" stroke-width="2" d="M1054,-572C1054,-572 882,-572 882,-572 876,-572 870,-566 870,-560 870,-560 870,-472 870,-472 870,-466 876,-460 882,-460 882,-460 1054,-460 1054,-460 1060,-460 1066,-466 1066,-472 1066,-472 1066,-560 1066,-560 1066,-566 1060,-572 1054,-572"/>
<text text-anchor="start" x="923.813" y="-558" font-family="arial" font-weight="bold" font-size="10.00" fill="#000000">Standard Sequence</text>
<text text-anchor="start" x="895.2" y="-541" font-family="arial" font-size="10.00" fill="#000000">Given the strata are undisturbed,</text>
<text text-anchor="start" x="896.8795" y="-529" font-family="arial" font-size="10.00" fill="#000000"> Cambrian strata are overlain by</text>
<text text-anchor="start" x="889.6465" y="-517" font-family="arial" font-size="10.00" fill="#000000"> Silurian strata, Old Red Sandstone</text>
<text text-anchor="start" x="891.036" y="-505" font-family="arial" font-size="10.00" fill="#000000"> strata, Mountain Limestone strata,</text>
<text text-anchor="start" x="887.43" y="-493" font-family="arial" font-size="10.00" fill="#000000"> Coal Measures strata and New Red</text>
<text text-anchor="start" x="884.645" y="-481" font-family="arial" font-size="10.00" fill="#000000"> Sandstone strata, respectively #COA</text>
<text text-anchor="start" x="958.2775" y="-469" font-family="arial" font-size="10.00" fill="#000000"> #pri</text>
</g>
<!-- n4&#45;&gt;n12 -->
<g id="edge14" class="edge">
<title>n4&#45;&gt;n12</title>
<path fill="none" stroke="#00ff00" d="M945.0794,-459.6808C936.1239,-437.6758 925.9657,-412.7157 917.3834,-391.6278"/>
<polygon fill="#00ff00" stroke="#00ff00" points="920.5725,-390.1787 913.5611,-382.2358 914.0889,-392.8175 920.5725,-390.1787"/>
</g>
<!-- n5 -->
<g id="node15" class="node">
<title>n5</title>
<path fill="#ffffff" stroke="#ffc1c1" stroke-width="2" d="M626,-542C626,-542 454,-542 454,-542 448,-542 442,-536 442,-530 442,-530 442,-502 442,-502 442,-496 448,-490 454,-490 454,-490 626,-490 626,-490 632,-490 638,-496 638,-502 638,-502 638,-530 638,-530 638,-536 632,-542 626,-542"/>
<text text-anchor="start" x="506.672" y="-528" font-family="arial" font-weight="bold" font-size="10.00" fill="#000000">Fossil Criterion</text>
<text text-anchor="start" x="460.2515" y="-511" font-family="arial" font-size="10.00" fill="#000000">Strata can be identified by means of</text>
<text text-anchor="start" x="465.545" y="-499" font-family="arial" font-size="10.00" fill="#000000"> their imbedded fossils #COA #pri</text>
</g>
<!-- n5&#45;&gt;n13 -->
<g id="edge15" class="edge">
<title>n5&#45;&gt;n13</title>
<path fill="none" stroke="#00ff00" d="M498.614,-489.7511C480.5632,-479.2449 458.805,-467.8076 438,-460 345.5576,-425.3086 312.2344,-450.1541 221,-412.4 208.3772,-407.1765 195.5965,-400.4746 183.4739,-393.3159"/>
<polygon fill="#00ff00" stroke="#00ff00" points="185.1396,-390.2327 174.7747,-388.0372 181.5082,-396.2172 185.1396,-390.2327"/>
</g>
<!-- n11&#45;&gt;n5 -->
<g id="edge8" class="edge">
<title>n11&#45;&gt;n5</title>
<path fill="none" stroke="#00ff00" d="M540,-643.7057C540,-615.3232 540,-578.9442 540,-552.2791"/>
<polygon fill="#00ff00" stroke="#00ff00" points="543.5001,-552.2152 540,-542.2152 536.5001,-552.2152 543.5001,-552.2152"/>
</g>
</g>
</svg>
