
<!-- Generated by graphviz version 2.40.1 (20161225.0304)
 -->
<!-- Title: Argument Map Pages: 1 -->
<svg width="720pt" height="466pt"
 viewBox="0.00 0.00 720.00 465.99" xmlns="http://www.w3.org/2000/svg" xmlns:xlink="http://www.w3.org/1999/xlink">
<g id="graph0" class="graph" transform="scale(.275 .275) rotate(0) translate(4 1690.4)">
<title>Argument Map</title>
<g id="clust1" class="cluster">
<title>cluster_1</title>
<polygon fill="#b9d3ee" stroke="#b9d3ee" points="722,-760 722,-874.4 1152,-874.4 1152,-760 722,-760"/>
<text text-anchor="start" x="853.3132" y="-859.6" font-family="arial" font-size="12.00" fill="#000000">Aporia I : Coal in Ancient Strata</text>
</g>
<g id="clust2" class="cluster">
<title>cluster_2</title>
<polygon fill="#eedfcc" stroke="#eedfcc" points="8,-638 8,-1672.4 714,-1672.4 714,-638 8,-638"/>
<text text-anchor="start" x="296.6578" y="-1657.6" font-family="arial" font-size="12.00" fill="#000000">Dating of the Main Culm</text>
</g>
<g id="clust3" class="cluster">
<title>cluster_3</title>
<polygon fill="#eeb4b4" stroke="#eeb4b4" points="1160,-8 1160,-1672.4 1716,-1672.4 1716,-8 1160,-8"/>
<text text-anchor="start" x="1358.9842" y="-1657.6" font-family="arial" font-size="12.00" fill="#000000">Dating of the Culm Limestone</text>
</g>
<g id="clust4" class="cluster">
<title>cluster_4</title>
<polygon fill="#cd9b9b" stroke="#cd9b9b" points="1724,-494 1724,-1678.4 2156,-1678.4 2156,-494 1724,-494"/>
<text text-anchor="start" x="1877.3252" y="-1663.6" font-family="arial" font-size="12.00" fill="#000000">Dating of the Non&#45;Culm</text>
</g>
<g id="clust5" class="cluster">
<title>cluster_5</title>
<polygon fill="#8b6969" stroke="#8b6969" points="2164,-1428 2164,-1678.4 2602,-1678.4 2602,-1428 2164,-1428"/>
<text text-anchor="start" x="2312.9752" y="-1663.6" font-family="arial" font-size="12.00" fill="#000000">Youngest Devonian Strata</text>
</g>
<!-- n0 -->
<g id="node1" class="node">
<title>n0</title>
<path fill="#ffffff" stroke="#b8860b" stroke-width="2" d="M1132,-844C1132,-844 960,-844 960,-844 954,-844 948,-838 948,-832 948,-832 948,-780 948,-780 948,-774 954,-768 960,-768 960,-768 1132,-768 1132,-768 1138,-768 1144,-774 1144,-780 1144,-780 1144,-832 1144,-832 1144,-838 1138,-844 1132,-844"/>
<text text-anchor="start" x="982.652" y="-830" font-family="arial" font-weight="bold" font-size="10.00" fill="#000000">Instances of Pre&#45;ORS Strata</text>
<text text-anchor="start" x="964.3215" y="-813" font-family="arial" font-size="10.00" fill="#000000">In Munster, North America and North</text>
<text text-anchor="start" x="959.3145" y="-801" font-family="arial" font-size="10.00" fill="#000000"> Devon, some strata closely associated</text>
<text text-anchor="start" x="958.7625" y="-789" font-family="arial" font-size="10.00" fill="#000000"> with seams of coal are pre&#45;ORS in age</text>
<text text-anchor="start" x="1004.602" y="-777" font-family="arial" font-size="10.00" fill="#000000"> #GRE #chron&#45;hyp</text>
</g>
<!-- n2 -->
<g id="node2" class="node">
<title>n2</title>
<path fill="#ffffff" stroke="#b8860b" stroke-width="2" d="M918,-838C918,-838 742,-838 742,-838 736,-838 730,-832 730,-826 730,-826 730,-786 730,-786 730,-780 736,-774 742,-774 742,-774 918,-774 918,-774 924,-774 930,-780 930,-786 930,-786 930,-826 930,-826 930,-832 924,-838 918,-838"/>
<text text-anchor="start" x="749.711" y="-824" font-family="arial" font-weight="bold" font-size="10.00" fill="#000000">Pre&#45;ORS Strata in northwest France</text>
<text text-anchor="start" x="741.6465" y="-807" font-family="arial" font-size="10.00" fill="#000000">The whole strata supporting coal seams</text>
<text text-anchor="start" x="739.9835" y="-795" font-family="arial" font-size="10.00" fill="#000000"> in northwest France are pre&#45;ORS in age</text>
<text text-anchor="start" x="788.602" y="-783" font-family="arial" font-size="10.00" fill="#000000"> #GRE #chron&#45;hyp</text>
</g>
<!-- n1 -->
<g id="node3" class="node">
<title>n1</title>
<path fill="#ffffff" stroke="#b8860b" stroke-width="2" d="M398,-1642C398,-1642 226,-1642 226,-1642 220,-1642 214,-1636 214,-1630 214,-1630 214,-1602 214,-1602 214,-1596 220,-1590 226,-1590 226,-1590 398,-1590 398,-1590 404,-1590 410,-1596 410,-1602 410,-1602 410,-1630 410,-1630 410,-1636 404,-1642 398,-1642"/>
<text text-anchor="start" x="268.9475" y="-1628" font-family="arial" font-weight="bold" font-size="10.00" fill="#000000">Main Culm as CAM</text>
<text text-anchor="start" x="226.9925" y="-1611" font-family="arial" font-size="10.00" fill="#000000">The whole of the main Culm is CAM in</text>
<text text-anchor="start" x="259.4845" y="-1599" font-family="arial" font-size="10.00" fill="#000000"> age #GRE #chron&#45;hyp </text>
</g>
<!-- n1&#45;&gt;n0 -->
<g id="edge1" class="edge">
<title>n1&#45;&gt;n0</title>
<path fill="none" stroke="#00ff00" d="M410.2143,-1609.1429C571.3126,-1591.9759 874,-1532.2748 874,-1326 874,-1326 874,-1326 874,-1066 874,-979.2571 941.4165,-899.2188 991.8354,-851.4895"/>
<polygon fill="#00ff00" stroke="#00ff00" points="994.5191,-853.7731 999.4543,-844.3979 989.7498,-848.6492 994.5191,-853.7731"/>
</g>
<!-- n3 -->
<g id="node4" class="node">
<title>n3</title>
<path fill="#ffffff" stroke="#f5f5dc" stroke-width="2" d="M401,-1500C401,-1500 223,-1500 223,-1500 217,-1500 211,-1494 211,-1488 211,-1488 211,-1460 211,-1460 211,-1454 217,-1448 223,-1448 223,-1448 401,-1448 401,-1448 407,-1448 413,-1454 413,-1460 413,-1460 413,-1488 413,-1488 413,-1494 407,-1500 401,-1500"/>
<text text-anchor="start" x="257.8345" y="-1486" font-family="arial" font-weight="bold" font-size="10.00" fill="#000000">Some Main Culm as CM</text>
<text text-anchor="start" x="220.599" y="-1469" font-family="arial" font-size="10.00" fill="#000000">Some part of the main Culm is CM in age</text>
<text text-anchor="start" x="275.882" y="-1457" font-family="arial" font-size="10.00" fill="#000000"> #pri #chron&#45;hyp</text>
</g>
<!-- n1&#45;&gt;n3 -->
<g id="edge6" class="edge">
<title>n1&#45;&gt;n3</title>
<path fill="none" stroke="#ff0000" d="M312,-1579.8438C312,-1558.6384 312,-1531.9193 312,-1510.6322"/>
<polygon fill="#ff0000" stroke="#ff0000" points="308.5001,-1579.955 312,-1589.955 315.5001,-1579.955 308.5001,-1579.955"/>
<polygon fill="#ff0000" stroke="#ff0000" points="315.5001,-1510.3607 312,-1500.3608 308.5001,-1510.3608 315.5001,-1510.3607"/>
</g>
<!-- n4 -->
<g id="node5" class="node">
<title>n4</title>
<path fill="#ffffff" stroke="#f5f5dc" stroke-width="2" d="M245.5,-832C245.5,-832 68.5,-832 68.5,-832 62.5,-832 56.5,-826 56.5,-820 56.5,-820 56.5,-792 56.5,-792 56.5,-786 62.5,-780 68.5,-780 68.5,-780 245.5,-780 245.5,-780 251.5,-780 257.5,-786 257.5,-792 257.5,-792 257.5,-820 257.5,-820 257.5,-826 251.5,-832 245.5,-832"/>
<text text-anchor="start" x="104.1645" y="-818" font-family="arial" font-weight="bold" font-size="10.00" fill="#000000">Some Main Culm as ML</text>
<text text-anchor="start" x="66.929" y="-801" font-family="arial" font-size="10.00" fill="#000000">Some part of the main Culm is ML in age</text>
<text text-anchor="start" x="121.382" y="-789" font-family="arial" font-size="10.00" fill="#000000"> #pri #chron&#45;hyp</text>
</g>
<!-- n1&#45;&gt;n4 -->
<g id="edge7" class="edge">
<title>n1&#45;&gt;n4</title>
<path fill="none" stroke="#ff0000" d="M254.1127,-1584.3635C227.2486,-1566.6452 197.4609,-1542.0447 180,-1512 137.9945,-1439.7215 152,-1409.5981 152,-1326 152,-1326 152,-1326 152,-1066 152,-986.1273 154.3879,-892.478 155.8633,-842.2399"/>
<polygon fill="#ff0000" stroke="#ff0000" points="252.4044,-1587.4257 262.7128,-1589.8726 256.1802,-1581.5313 252.4044,-1587.4257"/>
<polygon fill="#ff0000" stroke="#ff0000" points="159.363,-842.2991 156.1631,-832.1991 152.3661,-842.0901 159.363,-842.2991"/>
</g>
<!-- n5 -->
<g id="node6" class="node">
<title>n5</title>
<path fill="#ffffff" stroke="#f5f5dc" stroke-width="2" d="M460,-832C460,-832 288,-832 288,-832 282,-832 276,-826 276,-820 276,-820 276,-792 276,-792 276,-786 282,-780 288,-780 288,-780 460,-780 460,-780 466,-780 472,-786 472,-792 472,-792 472,-820 472,-820 472,-826 466,-832 460,-832"/>
<text text-anchor="start" x="316.775" y="-818" font-family="arial" font-weight="bold" font-size="10.00" fill="#000000">Some Main Culm as ORS</text>
<text text-anchor="start" x="289.2675" y="-801" font-family="arial" font-size="10.00" fill="#000000">Some part of the main Culm is ORS in</text>
<text text-anchor="start" x="328.154" y="-789" font-family="arial" font-size="10.00" fill="#000000"> age #pri #chron&#45;hyp</text>
</g>
<!-- n1&#45;&gt;n5 -->
<g id="edge8" class="edge">
<title>n1&#45;&gt;n5</title>
<path fill="none" stroke="#ff0000" d="M263.5027,-1583.7068C240.5652,-1565.5724 215.3334,-1540.8011 202,-1512 167.2205,-1436.874 192,-1408.7861 192,-1326 192,-1326 192,-1326 192,-1190 192,-1061.9591 218.7217,-1027.8744 281,-916 296.7082,-887.7823 320.2345,-860.0415 339.6937,-839.4771"/>
<polygon fill="#ff0000" stroke="#ff0000" points="261.4326,-1586.53 271.4971,-1589.8401 265.6935,-1580.9761 261.4326,-1586.53"/>
<polygon fill="#ff0000" stroke="#ff0000" points="342.247,-841.8714 346.6568,-832.2379 337.202,-837.0187 342.247,-841.8714"/>
</g>
<!-- n6 -->
<g id="node7" class="node">
<title>n6</title>
<path fill="#ffffff" stroke="#f5f5dc" stroke-width="2" d="M674,-832C674,-832 502,-832 502,-832 496,-832 490,-826 490,-820 490,-820 490,-792 490,-792 490,-786 496,-780 502,-780 502,-780 674,-780 674,-780 680,-780 686,-786 686,-792 686,-792 686,-820 686,-820 686,-826 680,-832 674,-832"/>
<text text-anchor="start" x="534.105" y="-818" font-family="arial" font-weight="bold" font-size="10.00" fill="#000000">Some Main Culm as SIL</text>
<text text-anchor="start" x="506.5975" y="-801" font-family="arial" font-size="10.00" fill="#000000">Some part of the main Culm is SIL in</text>
<text text-anchor="start" x="542.154" y="-789" font-family="arial" font-size="10.00" fill="#000000"> age #pri #chron&#45;hyp</text>
</g>
<!-- n1&#45;&gt;n6 -->
<g id="edge9" class="edge">
<title>n1&#45;&gt;n6</title>
<path fill="none" stroke="#ff0000" d="M420.4004,-1596.3247C508.507,-1578.0118 622.9481,-1548.1459 653,-1512 706.1853,-1448.0296 674,-1409.1919 674,-1326 674,-1326 674,-1326 674,-1066 674,-997.9245 665.299,-980.3197 643,-916 633.9833,-889.9921 620.0995,-862.2819 608.5375,-841.1799"/>
<polygon fill="#ff0000" stroke="#ff0000" points="419.4293,-1592.951 410.3373,-1598.3903 420.8368,-1599.8081 419.4293,-1592.951"/>
<polygon fill="#ff0000" stroke="#ff0000" points="611.5017,-839.3087 603.5804,-832.2728 605.3851,-842.7128 611.5017,-839.3087"/>
</g>
<!-- n7 -->
<g id="node8" class="node">
<title>n7</title>
<path fill="#ffffff" stroke="#f5f5dc" stroke-width="2" d="M620,-1216C620,-1216 448,-1216 448,-1216 442,-1216 436,-1210 436,-1204 436,-1204 436,-1176 436,-1176 436,-1170 442,-1164 448,-1164 448,-1164 620,-1164 620,-1164 626,-1164 632,-1170 632,-1176 632,-1176 632,-1204 632,-1204 632,-1210 626,-1216 620,-1216"/>
<text text-anchor="start" x="476.5" y="-1202" font-family="arial" font-weight="bold" font-size="10.00" fill="#000000">Some Main Culm as CAM</text>
<text text-anchor="start" x="448.9925" y="-1185" font-family="arial" font-size="10.00" fill="#000000">Some part of the main Culm is CAM in</text>
<text text-anchor="start" x="488.154" y="-1173" font-family="arial" font-size="10.00" fill="#000000"> age #pri #chron&#45;hyp</text>
</g>
<!-- n1&#45;&gt;n7 -->
<g id="edge10" class="edge">
<title>n1&#45;&gt;n7</title>
<path fill="none" stroke="#00ff00" d="M410.3745,-1598.4277C497.7952,-1580.5727 615.9724,-1550.1502 644,-1512 656.3311,-1495.2153 659.354,-1326.437 642,-1288 629.9902,-1261.3998 606.8982,-1238.8847 585.1395,-1222.1693"/>
<polygon fill="#00ff00" stroke="#00ff00" points="587.008,-1219.1975 576.8914,-1216.0504 582.8374,-1224.8194 587.008,-1219.1975"/>
</g>
<!-- n31 -->
<g id="node11" class="node">
<title>n31</title>
<path fill="#f5f5dc" stroke="#000000" d="M620.5,-1362C620.5,-1362 447.5,-1362 447.5,-1362 441.5,-1362 435.5,-1356 435.5,-1350 435.5,-1350 435.5,-1302 435.5,-1302 435.5,-1296 441.5,-1290 447.5,-1290 447.5,-1290 620.5,-1290 620.5,-1290 626.5,-1290 632.5,-1296 632.5,-1302 632.5,-1302 632.5,-1350 632.5,-1350 632.5,-1356 626.5,-1362 620.5,-1362"/>
<text text-anchor="start" x="448.6425" y="-1348" font-family="arial" font-weight="bold" font-size="10.00" fill="#000000">Standard Sequence as Partition &#45; Main</text>
<text text-anchor="start" x="521.4475" y="-1338" font-family="arial" font-weight="bold" font-size="10.00" fill="#000000"> Culm</text>
<text text-anchor="start" x="445.8835" y="-1323" font-family="arial" font-size="10.00" fill="#000000">If some main Culm strata are neiter CM,</text>
<text text-anchor="start" x="449.4835" y="-1311" font-family="arial" font-size="10.00" fill="#000000"> ML, OR nor SIL in age, then it is CAM</text>
<text text-anchor="start" x="483.3755" y="-1299" font-family="arial" font-size="10.00" fill="#000000"> in age #pri #chron&#45;hyp</text>
</g>
<!-- n3&#45;&gt;n31 -->
<g id="edge2" class="edge">
<title>n3&#45;&gt;n31</title>
<path fill="none" stroke="#ff0000" d="M351.1781,-1447.8813C384.3909,-1425.7394 432.6379,-1393.5748 471.2295,-1367.847"/>
<polygon fill="#ff0000" stroke="#ff0000" points="473.4301,-1370.5864 479.8092,-1362.1272 469.5472,-1364.7621 473.4301,-1370.5864"/>
</g>
<!-- n32 -->
<g id="node12" class="node">
<title>n32</title>
<path fill="#b8860b" stroke="#000000" d="M351,-682C351,-682 179,-682 179,-682 173,-682 167,-676 167,-670 167,-670 167,-658 167,-658 167,-652 173,-646 179,-646 179,-646 351,-646 351,-646 357,-646 363,-652 363,-658 363,-658 363,-670 363,-670 363,-676 357,-682 351,-682"/>
<text text-anchor="start" x="197.494" y="-662" font-family="arial" font-weight="bold" font-size="10.00" fill="#000000">Dating the Main Culm &#45; GRE.1</text>
</g>
<!-- n3&#45;&gt;n32 -->
<g id="edge11" class="edge">
<title>n3&#45;&gt;n32</title>
<path fill="none" stroke="#ff0000" d="M295.6231,-1447.872C245.868,-1366.7509 96.8424,-1110.4744 47,-874.4 36.4967,-824.6522 19.2215,-802.5854 47,-760 71.7863,-722.0017 115.3628,-698.941 157.0733,-684.9933"/>
<polygon fill="#ff0000" stroke="#ff0000" points="158.3139,-688.2714 166.7767,-681.8971 156.1859,-681.6027 158.3139,-688.2714"/>
</g>
<!-- n33 -->
<g id="node13" class="node">
<title>n33</title>
<path fill="#ff8c00" stroke="#000000" d="M480,-1084C480,-1084 308,-1084 308,-1084 302,-1084 296,-1078 296,-1072 296,-1072 296,-1060 296,-1060 296,-1054 302,-1048 308,-1048 308,-1048 480,-1048 480,-1048 486,-1048 492,-1054 492,-1060 492,-1060 492,-1072 492,-1072 492,-1078 486,-1084 480,-1084"/>
<text text-anchor="start" x="320.935" y="-1064" font-family="arial" font-weight="bold" font-size="10.00" fill="#000000">Redating the Main Culm &#45; COA.1</text>
</g>
<!-- n3&#45;&gt;n33 -->
<g id="edge92" class="edge">
<title>n3&#45;&gt;n33</title>
<path fill="none" stroke="#00ff00" d="M317.2542,-1447.8571C331.9099,-1374.9362 373.1558,-1169.7128 388.3167,-1094.2777"/>
<polygon fill="#00ff00" stroke="#00ff00" points="391.819,-1094.6145 390.3581,-1084.1209 384.9562,-1093.2352 391.819,-1094.6145"/>
</g>
<!-- n4&#45;&gt;n31 -->
<g id="edge3" class="edge">
<title>n4&#45;&gt;n31</title>
<path fill="none" stroke="#ff0000" d="M161.3675,-832.0067C174.4266,-902.4203 219.2849,-1099.3079 329,-1216 356.3657,-1245.106 393.1878,-1268.1416 428.0736,-1285.4527"/>
<polygon fill="#ff0000" stroke="#ff0000" points="426.8459,-1288.747 437.3715,-1289.9567 429.8976,-1282.4472 426.8459,-1288.747"/>
</g>
<!-- n4&#45;&gt;n32 -->
<g id="edge12" class="edge">
<title>n4&#45;&gt;n32</title>
<path fill="none" stroke="#ff0000" d="M176.8089,-779.955C196.1766,-754.49 225.5129,-715.9183 244.9596,-690.3495"/>
<polygon fill="#ff0000" stroke="#ff0000" points="247.8788,-692.2928 251.1467,-682.2145 242.3072,-688.0552 247.8788,-692.2928"/>
</g>
<!-- n4&#45;&gt;n33 -->
<g id="edge21" class="edge">
<title>n4&#45;&gt;n33</title>
<path fill="none" stroke="#ff0000" d="M180.8301,-832.1428C226.381,-882.1142 325.2958,-990.6283 370.5489,-1040.2731"/>
<polygon fill="#ff0000" stroke="#ff0000" points="368.0113,-1042.6847 377.3346,-1047.7173 373.1846,-1037.9691 368.0113,-1042.6847"/>
</g>
<!-- n5&#45;&gt;n31 -->
<g id="edge4" class="edge">
<title>n5&#45;&gt;n31</title>
<path fill="none" stroke="#ff0000" d="M353.8797,-832.321C317.3297,-883.5561 247.319,-999.747 287,-1092 322.9832,-1175.6563 405.2057,-1243.418 464.9253,-1284.0897"/>
<polygon fill="#ff0000" stroke="#ff0000" points="463.312,-1287.2223 473.5649,-1289.8926 467.215,-1281.4114 463.312,-1287.2223"/>
</g>
<!-- n5&#45;&gt;n32 -->
<g id="edge13" class="edge">
<title>n5&#45;&gt;n32</title>
<path fill="none" stroke="#ff0000" d="M354.0077,-779.955C334.4606,-754.49 304.8528,-715.9183 285.226,-690.3495"/>
<polygon fill="#ff0000" stroke="#ff0000" points="287.847,-688.0158 278.9815,-682.2145 282.2942,-692.2781 287.847,-688.0158"/>
</g>
<!-- n5&#45;&gt;n33 -->
<g id="edge22" class="edge">
<title>n5&#45;&gt;n33</title>
<path fill="none" stroke="#ff0000" d="M376.011,-832.1428C379.7838,-881.1888 387.8946,-986.6294 391.8042,-1037.4552"/>
<polygon fill="#ff0000" stroke="#ff0000" points="388.3369,-1038.0152 392.5936,-1047.7173 395.3163,-1037.4783 388.3369,-1038.0152"/>
</g>
<!-- n6&#45;&gt;n31 -->
<g id="edge5" class="edge">
<title>n6&#45;&gt;n31</title>
<path fill="none" stroke="#ff0000" d="M600.0643,-832.1021C629.0732,-898.7721 696.3649,-1079.6797 641,-1216 630.5106,-1241.8273 610.7209,-1264.9181 590.9857,-1283.1948"/>
<polygon fill="#ff0000" stroke="#ff0000" points="588.5513,-1280.6768 583.4442,-1289.9595 593.2254,-1285.8876 588.5513,-1280.6768"/>
</g>
<!-- n6&#45;&gt;n32 -->
<g id="edge14" class="edge">
<title>n6&#45;&gt;n32</title>
<path fill="none" stroke="#ff0000" d="M528.7568,-779.955C467.5124,-753.0302 372.9386,-711.4529 315.2362,-686.0853"/>
<polygon fill="#ff0000" stroke="#ff0000" points="316.5173,-682.8252 305.9542,-682.0047 313.7001,-689.2333 316.5173,-682.8252"/>
</g>
<!-- n6&#45;&gt;n33 -->
<g id="edge23" class="edge">
<title>n6&#45;&gt;n33</title>
<path fill="none" stroke="#ff0000" d="M548.7951,-832.038C528.7356,-845.1099 503.7998,-860.9781 481,-874.4 447.4797,-894.1329 425.0235,-883.2737 404,-916 391.514,-935.4364 391.5145,-999.719 392.7031,-1037.5309"/>
<polygon fill="#ff0000" stroke="#ff0000" points="389.2184,-1038.0196 393.0789,-1047.8861 396.2138,-1037.7657 389.2184,-1038.0196"/>
</g>
<!-- n7&#45;&gt;n32 -->
<g id="edge93" class="edge">
<title>n7&#45;&gt;n32</title>
<path fill="none" stroke="#00ff00" d="M552.8494,-1163.8483C589.0342,-1111.842 667.1151,-990.4244 695,-874.4 706.8814,-824.9633 726.7952,-799.6765 695,-760 655.4171,-710.6055 487.2895,-684.9536 373.3707,-672.9903"/>
<polygon fill="#00ff00" stroke="#00ff00" points="373.5151,-669.4867 363.2093,-671.9442 372.7982,-676.4499 373.5151,-669.4867"/>
</g>
<!-- n7&#45;&gt;n33 -->
<g id="edge24" class="edge">
<title>n7&#45;&gt;n33</title>
<path fill="none" stroke="#ff0000" d="M504.3096,-1163.7028C480.0796,-1142.2419 446.0749,-1112.1235 422.2449,-1091.0169"/>
<polygon fill="#ff0000" stroke="#ff0000" points="424.3888,-1088.2403 414.5823,-1084.23 419.7475,-1093.4805 424.3888,-1088.2403"/>
</g>
<!-- n8 -->
<g id="node9" class="node">
<title>n8</title>
<path fill="#ffffff" stroke="#f5f5dc" stroke-width="2" d="M622.5,-1506C622.5,-1506 443.5,-1506 443.5,-1506 437.5,-1506 431.5,-1500 431.5,-1494 431.5,-1494 431.5,-1454 431.5,-1454 431.5,-1448 437.5,-1442 443.5,-1442 443.5,-1442 622.5,-1442 622.5,-1442 628.5,-1442 634.5,-1448 634.5,-1454 634.5,-1454 634.5,-1494 634.5,-1494 634.5,-1500 628.5,-1506 622.5,-1506"/>
<text text-anchor="start" x="441.557" y="-1492" font-family="arial" font-weight="bold" font-size="10.00" fill="#000000">Main Culm as Post&#45;Primary and Pre&#45;NRS</text>
<text text-anchor="start" x="453.487" y="-1475" font-family="arial" font-size="10.00" fill="#000000">The main Culm strata are older than</text>
<text text-anchor="start" x="449.3165" y="-1463" font-family="arial" font-size="10.00" fill="#000000"> Primary strata and younger than New</text>
<text text-anchor="start" x="447.6415" y="-1451" font-family="arial" font-size="10.00" fill="#000000"> Red Sandstone strata #pri #chron&#45;hyp</text>
</g>
<!-- n8&#45;&gt;n31 -->
<g id="edge94" class="edge">
<title>n8&#45;&gt;n31</title>
<path fill="none" stroke="#00ff00" d="M533.217,-1441.8862C533.3545,-1421.5383 533.5345,-1394.8901 533.6873,-1372.2787"/>
<polygon fill="#00ff00" stroke="#00ff00" points="537.1876,-1372.2342 533.7553,-1362.2108 530.1877,-1372.1869 537.1876,-1372.2342"/>
</g>
<!-- n9 -->
<g id="node10" class="node">
<title>n9</title>
<path fill="#ffffff" stroke="#ff8c00" stroke-width="2" d="M603,-968C603,-968 425,-968 425,-968 419,-968 413,-962 413,-956 413,-956 413,-928 413,-928 413,-922 419,-916 425,-916 425,-916 603,-916 603,-916 609,-916 615,-922 615,-928 615,-928 615,-956 615,-956 615,-962 609,-968 603,-968"/>
<text text-anchor="start" x="474.282" y="-954" font-family="arial" font-weight="bold" font-size="10.00" fill="#000000">Main Culm as CM</text>
<text text-anchor="start" x="422.599" y="-937" font-family="arial" font-size="10.00" fill="#000000">The whole of the main Culm is CM in age</text>
<text text-anchor="start" x="471.2125" y="-925" font-family="arial" font-size="10.00" fill="#000000"> #COA #chron&#45;hyp </text>
</g>
<!-- n9&#45;&gt;n0 -->
<g id="edge20" class="edge">
<title>n9&#45;&gt;n0</title>
<path fill="none" stroke="#ff0000" d="M625.2139,-929.5329C731.3792,-916.6933 883.1851,-895.6169 939,-874.4 955.4525,-868.1459 972.0491,-859.1408 987.1001,-849.7085"/>
<polygon fill="#ff0000" stroke="#ff0000" points="624.5982,-926.0816 615.0871,-930.7495 625.4332,-933.0317 624.5982,-926.0816"/>
<polygon fill="#ff0000" stroke="#ff0000" points="989.2592,-852.4811 995.7705,-844.1232 985.4683,-846.5964 989.2592,-852.4811"/>
</g>
<!-- n9&#45;&gt;n3 -->
<g id="edge15" class="edge">
<title>n9&#45;&gt;n3</title>
<path fill="none" stroke="#00ff00" d="M517.0522,-968.0915C519.5273,-999.1878 519.9828,-1051.9665 501,-1092 481.3396,-1133.4626 452.0386,-1125.5455 427,-1164 396.3998,-1210.9961 345.5181,-1366.8413 323.1403,-1438.0014"/>
<polygon fill="#00ff00" stroke="#00ff00" points="319.7006,-1437.2739 320.0513,-1447.8629 326.3805,-1439.3664 319.7006,-1437.2739"/>
</g>
<!-- n9&#45;&gt;n4 -->
<g id="edge16" class="edge">
<title>n9&#45;&gt;n4</title>
<path fill="none" stroke="#ff0000" d="M403.1507,-918.9199C359.7259,-908.0215 310.0871,-893.2155 267,-874.4 244.3801,-864.5223 220.9363,-850.5413 201.533,-837.7912"/>
<polygon fill="#ff0000" stroke="#ff0000" points="402.3437,-922.3257 412.8912,-921.3256 404.0222,-915.5299 402.3437,-922.3257"/>
<polygon fill="#ff0000" stroke="#ff0000" points="203.4606,-834.8699 193.2002,-832.2291 199.5743,-840.692 203.4606,-834.8699"/>
</g>
<!-- n9&#45;&gt;n5 -->
<g id="edge17" class="edge">
<title>n9&#45;&gt;n5</title>
<path fill="none" stroke="#ff0000" d="M479.7437,-908.7225C458.0282,-887.6274 430.0404,-860.4392 408.3138,-839.3334"/>
<polygon fill="#ff0000" stroke="#ff0000" points="477.395,-911.3204 487.0066,-915.7778 482.2725,-906.2995 477.395,-911.3204"/>
<polygon fill="#ff0000" stroke="#ff0000" points="410.5221,-836.5991 400.9105,-832.1417 405.6446,-841.62 410.5221,-836.5991"/>
</g>
<!-- n9&#45;&gt;n6 -->
<g id="edge18" class="edge">
<title>n9&#45;&gt;n6</title>
<path fill="none" stroke="#ff0000" d="M533.1106,-906.8779C544.1259,-886.6334 557.9272,-861.2689 568.9349,-841.0386"/>
<polygon fill="#ff0000" stroke="#ff0000" points="529.9731,-905.3211 528.2679,-915.7778 536.1218,-908.6668 529.9731,-905.3211"/>
<polygon fill="#ff0000" stroke="#ff0000" points="572.0707,-842.5984 573.7759,-832.1417 565.922,-839.2527 572.0707,-842.5984"/>
</g>
<!-- n9&#45;&gt;n7 -->
<g id="edge19" class="edge">
<title>n9&#45;&gt;n7</title>
<path fill="none" stroke="#ff0000" d="M516.9138,-978.1316C520.7032,-1025.1203 527.285,-1106.7336 531.0783,-1153.7703"/>
<polygon fill="#ff0000" stroke="#ff0000" points="520.397,-977.7807 516.1044,-968.0944 513.4196,-978.3434 520.397,-977.7807"/>
<polygon fill="#ff0000" stroke="#ff0000" points="527.6048,-1154.2421 531.8975,-1163.9284 534.5822,-1153.6794 527.6048,-1154.2421"/>
</g>
<!-- n31&#45;&gt;n7 -->
<g id="edge82" class="edge">
<title>n31&#45;&gt;n7</title>
<path fill="none" stroke="#00ff00" d="M534,-1289.9116C534,-1270.3005 534,-1246.1097 534,-1226.4438"/>
<polygon fill="#00ff00" stroke="#00ff00" points="537.5001,-1226.3317 534,-1216.3317 530.5001,-1226.3318 537.5001,-1226.3317"/>
</g>
<!-- n32&#45;&gt;n1 -->
<g id="edge83" class="edge">
<title>n32&#45;&gt;n1</title>
<path fill="none" stroke="#00ff00" d="M166.872,-678.5182C116.9625,-691.2822 60.1903,-715.2088 28,-760 -19.2925,-825.8052 17,-860.9635 17,-942 17,-1326 17,-1326 17,-1326 17,-1452.068 155.7023,-1541.5991 242.892,-1585.4253"/>
<polygon fill="#00ff00" stroke="#00ff00" points="241.4318,-1588.6078 251.9468,-1589.9061 244.5365,-1582.3339 241.4318,-1588.6078"/>
</g>
<!-- n33&#45;&gt;n9 -->
<g id="edge84" class="edge">
<title>n33&#45;&gt;n9</title>
<path fill="none" stroke="#00ff00" d="M411.449,-1047.9693C429.7495,-1029.0588 458.9309,-998.9047 481.4939,-975.5896"/>
<polygon fill="#00ff00" stroke="#00ff00" points="484.1257,-977.903 488.5648,-968.283 479.0955,-973.0351 484.1257,-977.903"/>
</g>
<!-- n10 -->
<g id="node14" class="node">
<title>n10</title>
<path fill="#ffffff" stroke="#f5f5dc" stroke-width="2" d="M1586,-1500C1586,-1500 1414,-1500 1414,-1500 1408,-1500 1402,-1494 1402,-1488 1402,-1488 1402,-1460 1402,-1460 1402,-1454 1408,-1448 1414,-1448 1414,-1448 1586,-1448 1586,-1448 1592,-1448 1598,-1454 1598,-1460 1598,-1460 1598,-1488 1598,-1488 1598,-1494 1592,-1500 1586,-1500"/>
<text text-anchor="start" x="1459.9965" y="-1486" font-family="arial" font-weight="bold" font-size="10.00" fill="#000000">Some BCL as CM</text>
<text text-anchor="start" x="1412.482" y="-1469" font-family="arial" font-size="10.00" fill="#000000">Some part of the black Culm Limestone</text>
<text text-anchor="start" x="1434.713" y="-1457" font-family="arial" font-size="10.00" fill="#000000"> is CM in age #pri #chron&#45;hyp</text>
</g>
<!-- n34 -->
<g id="node24" class="node">
<title>n34</title>
<path fill="#f5f5dc" stroke="#000000" d="M1392,-1364C1392,-1364 1220,-1364 1220,-1364 1214,-1364 1208,-1358 1208,-1352 1208,-1352 1208,-1300 1208,-1300 1208,-1294 1214,-1288 1220,-1288 1220,-1288 1392,-1288 1392,-1288 1398,-1288 1404,-1294 1404,-1300 1404,-1300 1404,-1352 1404,-1352 1404,-1358 1398,-1364 1392,-1364"/>
<text text-anchor="start" x="1221.252" y="-1350" font-family="arial" font-weight="bold" font-size="10.00" fill="#000000">Standard Sequence as Partition &#45; BCL</text>
<text text-anchor="start" x="1239.5985" y="-1333" font-family="arial" font-size="10.00" fill="#000000">If some part of the black Culm</text>
<text text-anchor="start" x="1221.547" y="-1321" font-family="arial" font-size="10.00" fill="#000000"> Limestone is neiter CM, ML, ORS nor</text>
<text text-anchor="start" x="1223.479" y="-1309" font-family="arial" font-size="10.00" fill="#000000"> SIL in age, then it is CAM in age #pri</text>
<text text-anchor="start" x="1279.6045" y="-1297" font-family="arial" font-size="10.00" fill="#000000"> #chron&#45;hyp</text>
</g>
<!-- n10&#45;&gt;n34 -->
<g id="edge25" class="edge">
<title>n10&#45;&gt;n34</title>
<path fill="none" stroke="#ff0000" d="M1465.7633,-1447.8813C1437.6853,-1426.461 1397.3118,-1395.6605 1364.1767,-1370.3823"/>
<polygon fill="#ff0000" stroke="#ff0000" points="1365.9939,-1367.3663 1355.9204,-1364.0836 1361.7481,-1372.9317 1365.9939,-1367.3663"/>
</g>
<!-- n35 -->
<g id="node25" class="node">
<title>n35</title>
<path fill="#b8860b" stroke="#000000" d="M1496,-1084C1496,-1084 1324,-1084 1324,-1084 1318,-1084 1312,-1078 1312,-1072 1312,-1072 1312,-1060 1312,-1060 1312,-1054 1318,-1048 1324,-1048 1324,-1048 1496,-1048 1496,-1048 1502,-1048 1508,-1054 1508,-1060 1508,-1060 1508,-1072 1508,-1072 1508,-1078 1502,-1084 1496,-1084"/>
<text text-anchor="start" x="1356.656" y="-1064" font-family="arial" font-weight="bold" font-size="10.00" fill="#000000">Dating the BCL &#45; GRE.1</text>
</g>
<!-- n10&#45;&gt;n35 -->
<g id="edge34" class="edge">
<title>n10&#45;&gt;n35</title>
<path fill="none" stroke="#ff0000" d="M1489.8894,-1447.8755C1465.4825,-1384.7098 1405.1823,-1228.0057 1403,-1216 1398.8667,-1193.2615 1402.1762,-1187.0964 1403,-1164 1403.8414,-1140.412 1405.8183,-1113.6913 1407.4575,-1094.1162"/>
<polygon fill="#ff0000" stroke="#ff0000" points="1410.9541,-1094.3047 1408.324,-1084.0416 1403.9798,-1093.7048 1410.9541,-1094.3047"/>
</g>
<!-- n36 -->
<g id="node26" class="node">
<title>n36</title>
<path fill="#ff8c00" stroke="#000000" d="M1571,-300C1571,-300 1399,-300 1399,-300 1393,-300 1387,-294 1387,-288 1387,-288 1387,-276 1387,-276 1387,-270 1393,-264 1399,-264 1399,-264 1571,-264 1571,-264 1577,-264 1583,-270 1583,-276 1583,-276 1583,-288 1583,-288 1583,-294 1577,-300 1571,-300"/>
<text text-anchor="start" x="1426.097" y="-280" font-family="arial" font-weight="bold" font-size="10.00" fill="#000000">Redating the BCL &#45; COA.1</text>
</g>
<!-- n10&#45;&gt;n36 -->
<g id="edge95" class="edge">
<title>n10&#45;&gt;n36</title>
<path fill="none" stroke="#00ff00" d="M1531.8059,-1447.915C1555.293,-1427.2332 1586.5982,-1396.4897 1607,-1364 1679.9267,-1247.8646 1687,-1203.134 1687,-1066 1687,-1066 1687,-1066 1687,-528 1687,-426.8153 1583.6642,-344.528 1524.8117,-305.8683"/>
<polygon fill="#00ff00" stroke="#00ff00" points="1526.4207,-302.7412 1516.1198,-300.2628 1522.6268,-308.624 1526.4207,-302.7412"/>
</g>
<!-- n37 -->
<g id="node27" class="node">
<title>n37</title>
<path fill="#ff8c00" stroke="#000000" d="M1636,-682C1636,-682 1464,-682 1464,-682 1458,-682 1452,-676 1452,-670 1452,-670 1452,-658 1452,-658 1452,-652 1458,-646 1464,-646 1464,-646 1636,-646 1636,-646 1642,-646 1648,-652 1648,-658 1648,-658 1648,-670 1648,-670 1648,-676 1642,-682 1636,-682"/>
<text text-anchor="start" x="1486.928" y="-662" font-family="arial" font-weight="bold" font-size="10.00" fill="#000000">Redating the BCL &#45; COA.3.2</text>
</g>
<!-- n10&#45;&gt;n37 -->
<g id="edge57" class="edge">
<title>n10&#45;&gt;n37</title>
<path fill="none" stroke="#ff0000" d="M1516.577,-1447.9666C1555.0213,-1385.0129 1647,-1218.4635 1647,-1066 1647,-1066 1647,-1066 1647,-942 1647,-860.3516 1653.0422,-835.5172 1622,-760 1611.1474,-733.5986 1591.2869,-707.9582 1575.1696,-689.8272"/>
<polygon fill="#ff0000" stroke="#ff0000" points="1577.3991,-687.0778 1568.0736,-682.0493 1572.2279,-691.7958 1577.3991,-687.0778"/>
</g>
<!-- n11 -->
<g id="node15" class="node">
<title>n11</title>
<path fill="#ffffff" stroke="#f5f5dc" stroke-width="2" d="M1512,-68C1512,-68 1340,-68 1340,-68 1334,-68 1328,-62 1328,-56 1328,-56 1328,-28 1328,-28 1328,-22 1334,-16 1340,-16 1340,-16 1512,-16 1512,-16 1518,-16 1524,-22 1524,-28 1524,-28 1524,-56 1524,-56 1524,-62 1518,-68 1512,-68"/>
<text text-anchor="start" x="1386.8265" y="-54" font-family="arial" font-weight="bold" font-size="10.00" fill="#000000">Some BCL as ML</text>
<text text-anchor="start" x="1338.482" y="-37" font-family="arial" font-size="10.00" fill="#000000">Some part of the black Culm Limestone</text>
<text text-anchor="start" x="1361.543" y="-25" font-family="arial" font-size="10.00" fill="#000000"> is ML in age #pri #chron&#45;hyp</text>
</g>
<!-- n11&#45;&gt;n34 -->
<g id="edge26" class="edge">
<title>n11&#45;&gt;n34</title>
<path fill="none" stroke="#ff0000" d="M1327.9924,-61.6325C1284.0583,-75.7536 1236.119,-99.7044 1209,-140 1078.8757,-333.3492 1189,-430.9415 1189,-664 1189,-1066 1189,-1066 1189,-1066 1189,-1146.4817 1236.1969,-1229.6125 1270.6382,-1279.5616"/>
<polygon fill="#ff0000" stroke="#ff0000" points="1267.8702,-1281.7104 1276.476,-1287.8903 1273.6024,-1277.6926 1267.8702,-1281.7104"/>
</g>
<!-- n11&#45;&gt;n35 -->
<g id="edge35" class="edge">
<title>n11&#45;&gt;n35</title>
<path fill="none" stroke="#ff0000" d="M1344.9823,-68.0902C1311.089,-83.408 1274.9924,-106.5052 1255,-140 1202.1352,-228.5682 1250.3334,-268.863 1249,-372 1248.7012,-395.1092 1247.1702,-400.9614 1249,-424 1250.0031,-436.6302 1312.3766,-865.1175 1321,-874.4 1375.7064,-933.2878 1447.1278,-852.9657 1497,-916 1529.1269,-956.6058 1478.8156,-1010.3563 1442.3361,-1041.2606"/>
<polygon fill="#ff0000" stroke="#ff0000" points="1439.8206,-1038.7988 1434.3383,-1047.8649 1444.2777,-1044.1964 1439.8206,-1038.7988"/>
</g>
<!-- n11&#45;&gt;n36 -->
<g id="edge43" class="edge">
<title>n11&#45;&gt;n36</title>
<path fill="none" stroke="#ff0000" d="M1443.9475,-68.1154C1455.9644,-87.1298 1470.8454,-114.0016 1478,-140 1488.511,-178.1949 1488.5939,-224.3114 1487.1928,-253.4042"/>
<polygon fill="#ff0000" stroke="#ff0000" points="1483.6825,-253.4842 1486.6019,-263.6688 1490.6709,-253.8866 1483.6825,-253.4842"/>
</g>
<!-- n11&#45;&gt;n37 -->
<g id="edge58" class="edge">
<title>n11&#45;&gt;n37</title>
<path fill="none" stroke="#ff0000" d="M1476.7019,-68.1373C1541.9486,-105.8253 1647,-182.0284 1647,-282 1647,-398 1647,-398 1647,-398 1647,-470.5466 1653.9142,-492.6306 1627,-560 1615.133,-589.7046 1592.6473,-618.5381 1575.0257,-638.2807"/>
<polygon fill="#ff0000" stroke="#ff0000" points="1572.223,-636.1592 1568.0596,-645.9018 1577.3898,-640.882 1572.223,-636.1592"/>
</g>
<!-- n12 -->
<g id="node16" class="node">
<title>n12</title>
<path fill="#ffffff" stroke="#f5f5dc" stroke-width="2" d="M1442,-424C1442,-424 1270,-424 1270,-424 1264,-424 1258,-418 1258,-412 1258,-412 1258,-384 1258,-384 1258,-378 1264,-372 1270,-372 1270,-372 1442,-372 1442,-372 1448,-372 1454,-378 1454,-384 1454,-384 1454,-412 1454,-412 1454,-418 1448,-424 1442,-424"/>
<text text-anchor="start" x="1312.937" y="-410" font-family="arial" font-weight="bold" font-size="10.00" fill="#000000">Some BCL as ORS</text>
<text text-anchor="start" x="1268.482" y="-393" font-family="arial" font-size="10.00" fill="#000000">Some part of the black Culm Limestone</text>
<text text-anchor="start" x="1287.6535" y="-381" font-family="arial" font-size="10.00" fill="#000000"> is ORS in age #pri #chron&#45;hyp</text>
</g>
<!-- n12&#45;&gt;n34 -->
<g id="edge27" class="edge">
<title>n12&#45;&gt;n34</title>
<path fill="none" stroke="#ff0000" d="M1323.4704,-424.2607C1304.1694,-441.8248 1281.1621,-466.6688 1269,-494 1214.9261,-615.5168 1238.6499,-959.1027 1244,-1092 1246.224,-1147.2453 1239.7309,-1162.583 1254,-1216 1259.739,-1237.4842 1269.5514,-1259.9003 1279.1166,-1278.8489"/>
<polygon fill="#ff0000" stroke="#ff0000" points="1276.0708,-1280.5785 1283.7735,-1287.853 1282.2884,-1277.3628 1276.0708,-1280.5785"/>
</g>
<!-- n12&#45;&gt;n35 -->
<g id="edge36" class="edge">
<title>n12&#45;&gt;n35</title>
<path fill="none" stroke="#ff0000" d="M1334.7516,-424.0455C1320.877,-442.4692 1303.6114,-468.3628 1294,-494 1234.5686,-652.5259 1269.4829,-705.1601 1274,-874.4 1275.1115,-916.0445 1259.3594,-931.2611 1279,-968 1296.8389,-1001.3688 1331.5866,-1026.5468 1360.814,-1043.0225"/>
<polygon fill="#ff0000" stroke="#ff0000" points="1359.227,-1046.1436 1369.6826,-1047.8557 1362.5767,-1039.9971 1359.227,-1046.1436"/>
</g>
<!-- n12&#45;&gt;n36 -->
<g id="edge44" class="edge">
<title>n12&#45;&gt;n36</title>
<path fill="none" stroke="#ff0000" d="M1384.9501,-371.9673C1406.6504,-352.4539 1436.1579,-325.92 1457.4995,-306.7291"/>
<polygon fill="#ff0000" stroke="#ff0000" points="1459.8676,-309.3066 1464.9632,-300.0176 1455.1871,-304.1015 1459.8676,-309.3066"/>
</g>
<!-- n12&#45;&gt;n37 -->
<g id="edge96" class="edge">
<title>n12&#45;&gt;n37</title>
<path fill="none" stroke="#00ff00" d="M1454.2013,-421.622C1519.7769,-439.611 1597.455,-465.9859 1617,-494 1648.9285,-539.7636 1605.3492,-602.8974 1574.9517,-637.9257"/>
<polygon fill="#00ff00" stroke="#00ff00" points="1571.9858,-635.9926 1567.9407,-645.7849 1577.2094,-640.6525 1571.9858,-635.9926"/>
</g>
<!-- n13 -->
<g id="node17" class="node">
<title>n13</title>
<path fill="#ffffff" stroke="#f5f5dc" stroke-width="2" d="M1514,-832C1514,-832 1342,-832 1342,-832 1336,-832 1330,-826 1330,-820 1330,-820 1330,-792 1330,-792 1330,-786 1336,-780 1342,-780 1342,-780 1514,-780 1514,-780 1520,-780 1526,-786 1526,-792 1526,-792 1526,-820 1526,-820 1526,-826 1520,-832 1514,-832"/>
<text text-anchor="start" x="1388.267" y="-818" font-family="arial" font-weight="bold" font-size="10.00" fill="#000000">Some BCL as SIL</text>
<text text-anchor="start" x="1340.482" y="-801" font-family="arial" font-size="10.00" fill="#000000">Some part of the black Culm Limestone</text>
<text text-anchor="start" x="1362.9835" y="-789" font-family="arial" font-size="10.00" fill="#000000"> is SIL in age #pri #chron&#45;hyp</text>
</g>
<!-- n13&#45;&gt;n34 -->
<g id="edge28" class="edge">
<title>n13&#45;&gt;n34</title>
<path fill="none" stroke="#ff0000" d="M1369.6939,-832.171C1336.5512,-850.4741 1297.9795,-878.397 1279,-916 1219.0465,-1034.7825 1260.7909,-1198.1281 1287.8655,-1278.042"/>
<polygon fill="#ff0000" stroke="#ff0000" points="1284.6735,-1279.521 1291.2498,-1287.8278 1291.2891,-1277.233 1284.6735,-1279.521"/>
</g>
<!-- n13&#45;&gt;n35 -->
<g id="edge37" class="edge">
<title>n13&#45;&gt;n35</title>
<path fill="none" stroke="#ff0000" d="M1457.498,-832.0664C1489.3971,-863.5948 1533.0449,-918.5962 1512,-968 1498.8858,-998.7863 1470.833,-1024.5646 1447.4605,-1041.9436"/>
<polygon fill="#ff0000" stroke="#ff0000" points="1445.1712,-1039.2789 1439.0976,-1047.9601 1449.2592,-1044.9612 1445.1712,-1039.2789"/>
</g>
<!-- n13&#45;&gt;n36 -->
<g id="edge45" class="edge">
<title>n13&#45;&gt;n36</title>
<path fill="none" stroke="#ff0000" d="M1408.6331,-779.5713C1394.2593,-758.2256 1375.8475,-726.7752 1368,-696 1345.817,-609.0059 1324.7981,-572.6997 1368,-494 1395.8853,-443.202 1448.8722,-474.0959 1478,-424 1498.4208,-388.8791 1495.4763,-340.2201 1490.7703,-309.9498"/>
<polygon fill="#ff0000" stroke="#ff0000" points="1494.2139,-309.323 1489.0676,-300.062 1487.3155,-310.5109 1494.2139,-309.323"/>
</g>
<!-- n13&#45;&gt;n37 -->
<g id="edge97" class="edge">
<title>n13&#45;&gt;n37</title>
<path fill="none" stroke="#00ff00" d="M1450.3767,-779.955C1472.3502,-754.3793 1505.6825,-715.5826 1527.6476,-690.0167"/>
<polygon fill="#00ff00" stroke="#00ff00" points="1530.489,-692.0804 1534.3509,-682.2145 1525.1794,-687.5187 1530.489,-692.0804"/>
</g>
<!-- n14 -->
<g id="node18" class="node">
<title>n14</title>
<path fill="#ffffff" stroke="#f5f5dc" stroke-width="2" d="M1596,-1216C1596,-1216 1424,-1216 1424,-1216 1418,-1216 1412,-1210 1412,-1204 1412,-1204 1412,-1176 1412,-1176 1412,-1170 1418,-1164 1424,-1164 1424,-1164 1596,-1164 1596,-1164 1602,-1164 1608,-1170 1608,-1176 1608,-1176 1608,-1204 1608,-1204 1608,-1210 1602,-1216 1596,-1216"/>
<text text-anchor="start" x="1466.662" y="-1202" font-family="arial" font-weight="bold" font-size="10.00" fill="#000000">Some BCL as CAM</text>
<text text-anchor="start" x="1422.482" y="-1185" font-family="arial" font-size="10.00" fill="#000000">Some part of the black Culm Limestone</text>
<text text-anchor="start" x="1441.3785" y="-1173" font-family="arial" font-size="10.00" fill="#000000"> is CAM in age #pri #chron&#45;hyp</text>
</g>
<!-- n14&#45;&gt;n35 -->
<g id="edge98" class="edge">
<title>n14&#45;&gt;n35</title>
<path fill="none" stroke="#00ff00" d="M1488.7926,-1163.7028C1471.7864,-1142.6151 1448.0391,-1113.1685 1431.0695,-1092.1262"/>
<polygon fill="#00ff00" stroke="#00ff00" points="1433.7036,-1089.817 1424.7016,-1084.23 1428.2547,-1094.2113 1433.7036,-1089.817"/>
</g>
<!-- n14&#45;&gt;n36 -->
<g id="edge46" class="edge">
<title>n14&#45;&gt;n36</title>
<path fill="none" stroke="#ff0000" d="M1515.5107,-1163.9291C1519.427,-1144.2598 1524.4303,-1116.5591 1527,-1092 1537.0711,-995.749 1533.2219,-971.1601 1535,-874.4 1535.9342,-823.5641 1562.8676,-802.5271 1535,-760 1495.9445,-700.3997 1427.0555,-755.6003 1388,-696 1363.3966,-658.4542 1367.0855,-533.719 1388,-494 1413.617,-445.3504 1464.383,-472.6496 1490,-424 1508.8144,-388.2694 1501.5226,-340.1714 1493.8186,-310.1327"/>
<polygon fill="#ff0000" stroke="#ff0000" points="1497.1441,-309.0253 1491.1186,-300.3107 1490.3945,-310.8808 1497.1441,-309.0253"/>
</g>
<!-- n14&#45;&gt;n37 -->
<g id="edge59" class="edge">
<title>n14&#45;&gt;n37</title>
<path fill="none" stroke="#ff0000" d="M1550.1898,-1163.8915C1572.9787,-1146.5648 1599.3925,-1121.5966 1612,-1092 1640.9148,-1024.1212 1629.7547,-830.8015 1609,-760 1601.4806,-734.3489 1585.1796,-708.7308 1571.6136,-690.4184"/>
<polygon fill="#ff0000" stroke="#ff0000" points="1574.0737,-687.8728 1565.2241,-682.0473 1568.5094,-692.12 1574.0737,-687.8728"/>
</g>
<!-- n15 -->
<g id="node19" class="node">
<title>n15</title>
<path fill="#ffffff" stroke="#f5f5dc" stroke-width="2" d="M1372,-1506C1372,-1506 1200,-1506 1200,-1506 1194,-1506 1188,-1500 1188,-1494 1188,-1494 1188,-1454 1188,-1454 1188,-1448 1194,-1442 1200,-1442 1200,-1442 1372,-1442 1372,-1442 1378,-1442 1384,-1448 1384,-1454 1384,-1454 1384,-1494 1384,-1494 1384,-1500 1378,-1506 1372,-1506"/>
<text text-anchor="start" x="1208.219" y="-1492" font-family="arial" font-weight="bold" font-size="10.00" fill="#000000">BCL as Post&#45;Primary and Pre&#45;NRS</text>
<text text-anchor="start" x="1198.207" y="-1475" font-family="arial" font-size="10.00" fill="#000000">The black Culm Limestone is older than</text>
<text text-anchor="start" x="1201.8165" y="-1463" font-family="arial" font-size="10.00" fill="#000000"> Primary strata and younger than New</text>
<text text-anchor="start" x="1200.1415" y="-1451" font-family="arial" font-size="10.00" fill="#000000"> Red Sandstone strata #pri #chron&#45;hyp</text>
</g>
<!-- n15&#45;&gt;n34 -->
<g id="edge99" class="edge">
<title>n15&#45;&gt;n34</title>
<path fill="none" stroke="#00ff00" d="M1290.3397,-1441.8862C1293.0197,-1422.0543 1296.5084,-1396.2378 1299.5126,-1374.0067"/>
<polygon fill="#00ff00" stroke="#00ff00" points="1302.9834,-1374.4578 1300.8542,-1364.0791 1296.0464,-1373.5203 1302.9834,-1374.4578"/>
</g>
<!-- n16 -->
<g id="node20" class="node">
<title>n16</title>
<path fill="#ffffff" stroke="#b8860b" stroke-width="2" d="M1476,-968C1476,-968 1300,-968 1300,-968 1294,-968 1288,-962 1288,-956 1288,-956 1288,-928 1288,-928 1288,-922 1294,-916 1300,-916 1300,-916 1476,-916 1476,-916 1482,-916 1488,-922 1488,-928 1488,-928 1488,-956 1488,-956 1488,-962 1482,-968 1476,-968"/>
<text text-anchor="start" x="1359.1095" y="-954" font-family="arial" font-weight="bold" font-size="10.00" fill="#000000">BCL as CAM</text>
<text text-anchor="start" x="1297.7025" y="-937" font-family="arial" font-size="10.00" fill="#000000">The black Culm Limestone is nothing but</text>
<text text-anchor="start" x="1307.1505" y="-925" font-family="arial" font-size="10.00" fill="#000000"> Cambrian in age #GRE #chron&#45;hyp </text>
</g>
<!-- n16&#45;&gt;n10 -->
<g id="edge29" class="edge">
<title>n16&#45;&gt;n10</title>
<path fill="none" stroke="#ff0000" d="M1348.2964,-975.3559C1330.8403,-992.6248 1312.2343,-1015.2602 1303,-1040 1294.9183,-1061.652 1297.1545,-1069.6404 1303,-1092 1328.266,-1188.6442 1378.4525,-1194.272 1413,-1288 1424.9073,-1320.3048 1414.9991,-1332.1196 1428,-1364 1439.0596,-1391.12 1457.1221,-1418.6899 1472.3884,-1439.4448"/>
<polygon fill="#ff0000" stroke="#ff0000" points="1350.8718,-977.7358 1355.6765,-968.2931 1346.0319,-972.6786 1350.8718,-977.7358"/>
<polygon fill="#ff0000" stroke="#ff0000" points="1469.7151,-1441.7139 1478.5135,-1447.6163 1475.3163,-1437.5154 1469.7151,-1441.7139"/>
</g>
<!-- n16&#45;&gt;n11 -->
<g id="edge30" class="edge">
<title>n16&#45;&gt;n11</title>
<path fill="none" stroke="#ff0000" d="M1311.2891,-910.5711C1296.3822,-901.0749 1282.4674,-889.1423 1273,-874.4 1199.3614,-759.7324 1203.1154,-399.8412 1214,-264 1218.4587,-208.355 1201.1399,-185.1271 1234,-140 1256.4522,-109.1662 1291.4586,-87.3506 1325.4646,-72.2597"/>
<polygon fill="#ff0000" stroke="#ff0000" points="1309.7777,-913.7456 1320.1546,-915.8835 1313.3758,-907.7411 1309.7777,-913.7456"/>
<polygon fill="#ff0000" stroke="#ff0000" points="1327.1964,-75.326 1335.0182,-68.1797 1324.4471,-68.8884 1327.1964,-75.326"/>
</g>
<!-- n16&#45;&gt;n12 -->
<g id="edge31" class="edge">
<title>n16&#45;&gt;n12</title>
<path fill="none" stroke="#ff0000" d="M1334.4755,-909.4594C1322.9898,-899.72 1312.3943,-887.9585 1306,-874.4 1234.6715,-723.1557 1306.2404,-515.5931 1340.2333,-433.4914"/>
<polygon fill="#ff0000" stroke="#ff0000" points="1332.5267,-912.3818 1342.5287,-915.8762 1336.8889,-906.9071 1332.5267,-912.3818"/>
<polygon fill="#ff0000" stroke="#ff0000" points="1343.527,-434.6878 1344.1804,-424.1131 1337.0752,-431.9723 1343.527,-434.6878"/>
</g>
<!-- n16&#45;&gt;n13 -->
<g id="edge32" class="edge">
<title>n16&#45;&gt;n13</title>
<path fill="none" stroke="#ff0000" d="M1398.6045,-905.9446C1404.4179,-886.1793 1411.6017,-861.7543 1417.4124,-841.998"/>
<polygon fill="#ff0000" stroke="#ff0000" points="1395.1764,-905.1966 1395.7124,-915.7778 1401.8919,-907.1718 1395.1764,-905.1966"/>
<polygon fill="#ff0000" stroke="#ff0000" points="1420.8473,-842.7229 1420.3113,-832.1417 1414.1318,-840.7477 1420.8473,-842.7229"/>
</g>
<!-- n16&#45;&gt;n14 -->
<g id="edge33" class="edge">
<title>n16&#45;&gt;n14</title>
<path fill="none" stroke="#00ff00" d="M1442.8255,-968.1793C1470.501,-984.5961 1501.437,-1008.6323 1517,-1040 1534.7218,-1075.7187 1528.7691,-1122.2991 1521.105,-1154.0129"/>
<polygon fill="#00ff00" stroke="#00ff00" points="1517.701,-1153.1967 1518.5843,-1163.7546 1524.4778,-1154.9502 1517.701,-1153.1967"/>
</g>
<!-- n17 -->
<g id="node21" class="node">
<title>n17</title>
<path fill="#ffffff" stroke="#ff8c00" stroke-width="2" d="M1456.5,-192C1456.5,-192 1275.5,-192 1275.5,-192 1269.5,-192 1263.5,-186 1263.5,-180 1263.5,-180 1263.5,-152 1263.5,-152 1263.5,-146 1269.5,-140 1275.5,-140 1275.5,-140 1456.5,-140 1456.5,-140 1462.5,-140 1468.5,-146 1468.5,-152 1468.5,-152 1468.5,-180 1468.5,-180 1468.5,-186 1462.5,-192 1456.5,-192"/>
<text text-anchor="start" x="1340.944" y="-178" font-family="arial" font-weight="bold" font-size="10.00" fill="#000000">BCL as CM</text>
<text text-anchor="start" x="1276.2025" y="-161" font-family="arial" font-size="10.00" fill="#000000">The black Culm Limestone is nothing but</text>
<text text-anchor="start" x="1273.702" y="-149" font-family="arial" font-size="10.00" fill="#000000"> Coal Mesaures in age #COA #chron&#45;hyp </text>
</g>
<!-- n17&#45;&gt;n10 -->
<g id="edge38" class="edge">
<title>n17&#45;&gt;n10</title>
<path fill="none" stroke="#00ff00" d="M1346.1415,-192.2648C1318.9284,-229.843 1270.9301,-302.1508 1249,-372 1190.9759,-556.8117 1209,-612.2936 1209,-806 1209,-1066 1209,-1066 1209,-1066 1209,-1164.7667 1201.2228,-1189.2583 1199,-1288 1198.2398,-1321.7692 1179.2074,-1336.6286 1199,-1364 1252.2015,-1437.5728 1308.1022,-1395.8175 1393,-1428 1405.8563,-1432.8735 1419.4318,-1438.4033 1432.4374,-1443.897"/>
<polygon fill="#00ff00" stroke="#00ff00" points="1431.2166,-1447.1813 1441.7884,-1447.881 1433.9604,-1440.7414 1431.2166,-1447.1813"/>
</g>
<!-- n17&#45;&gt;n11 -->
<g id="edge39" class="edge">
<title>n17&#45;&gt;n11</title>
<path fill="none" stroke="#ff0000" d="M1383.106,-130.6476C1391.14,-114.044 1400.6977,-94.2915 1408.7498,-77.6504"/>
<polygon fill="#ff0000" stroke="#ff0000" points="1379.9296,-129.1767 1378.7245,-139.7028 1386.2307,-132.2257 1379.9296,-129.1767"/>
<polygon fill="#ff0000" stroke="#ff0000" points="1412.0888,-78.7854 1413.2939,-68.2593 1405.7877,-75.7364 1412.0888,-78.7854"/>
</g>
<!-- n17&#45;&gt;n12 -->
<g id="edge40" class="edge">
<title>n17&#45;&gt;n12</title>
<path fill="none" stroke="#ff0000" d="M1364.4396,-202.2018C1362.5646,-245.7018 1359.4374,-318.252 1357.5618,-361.7663"/>
<polygon fill="#ff0000" stroke="#ff0000" points="1367.9425,-202.2082 1364.8764,-192.0668 1360.949,-201.9067 1367.9425,-202.2082"/>
<polygon fill="#ff0000" stroke="#ff0000" points="1354.0617,-361.6961 1357.1277,-371.8376 1361.0552,-361.9977 1354.0617,-361.6961"/>
</g>
<!-- n17&#45;&gt;n13 -->
<g id="edge41" class="edge">
<title>n17&#45;&gt;n13</title>
<path fill="none" stroke="#ff0000" d="M1362.0388,-202.2729C1360.6021,-230.4762 1362.3077,-269.7593 1378,-300 1400.8036,-343.9449 1442.1809,-327.0809 1463,-372 1472.7184,-392.9684 1474.6176,-404.0211 1463,-424 1431.3814,-478.3747 1371.6186,-439.6253 1340,-494 1317.4215,-532.8284 1331.8912,-653.7016 1347,-696 1357.1416,-724.3923 1377.185,-751.7117 1394.7953,-772.0224"/>
<polygon fill="#ff0000" stroke="#ff0000" points="1365.5475,-202.2589 1362.7208,-192.0482 1358.563,-201.7931 1365.5475,-202.2589"/>
<polygon fill="#ff0000" stroke="#ff0000" points="1392.3883,-774.5825 1401.6507,-779.7263 1397.6177,-769.9291 1392.3883,-774.5825"/>
</g>
<!-- n17&#45;&gt;n14 -->
<g id="edge42" class="edge">
<title>n17&#45;&gt;n14</title>
<path fill="none" stroke="#ff0000" d="M1478.3921,-187.1878C1521.4578,-201.3751 1566.3659,-224.944 1592,-264 1637.0099,-332.577 1558.3849,-366.3814 1500,-424 1462.1595,-461.3439 1427.2122,-446.6688 1403,-494 1382.4007,-534.2684 1401.4323,-659.3936 1428,-696 1463.0437,-744.285 1515.4839,-708.7333 1546,-760 1622.2477,-888.0952 1558.2093,-1076.8583 1525.9054,-1154.5799"/>
<polygon fill="#ff0000" stroke="#ff0000" points="1479.251,-183.789 1468.6616,-184.1272 1477.1507,-190.4665 1479.251,-183.789"/>
<polygon fill="#ff0000" stroke="#ff0000" points="1522.6228,-1153.3562 1521.9481,-1163.9295 1529.0691,-1156.0847 1522.6228,-1153.3562"/>
</g>
<!-- n18 -->
<g id="node22" class="node">
<title>n18</title>
<path fill="#ffffff" stroke="#ff8c00" stroke-width="2" d="M1696,-1642C1696,-1642 1520,-1642 1520,-1642 1514,-1642 1508,-1636 1508,-1630 1508,-1630 1508,-1602 1508,-1602 1508,-1596 1514,-1590 1520,-1590 1520,-1590 1696,-1590 1696,-1590 1702,-1590 1708,-1596 1708,-1602 1708,-1602 1708,-1630 1708,-1630 1708,-1636 1702,-1642 1696,-1642"/>
<text text-anchor="start" x="1582.7145" y="-1628" font-family="arial" font-weight="bold" font-size="10.00" fill="#000000">BCL as SIL</text>
<text text-anchor="start" x="1517.7025" y="-1611" font-family="arial" font-size="10.00" fill="#000000">The black Culm Limestone is nothing but</text>
<text text-anchor="start" x="1541.313" y="-1599" font-family="arial" font-size="10.00" fill="#000000"> SIL in age #COA #chron&#45;hyp </text>
</g>
<!-- n18&#45;&gt;n10 -->
<g id="edge47" class="edge">
<title>n18&#45;&gt;n10</title>
<path fill="none" stroke="#ff0000" d="M1582.0033,-1581.8192C1565.1265,-1559.6293 1543.2043,-1530.8057 1526.2729,-1508.544"/>
<polygon fill="#ff0000" stroke="#ff0000" points="1579.3516,-1584.1143 1588.1911,-1589.955 1584.9232,-1579.8767 1579.3516,-1584.1143"/>
<polygon fill="#ff0000" stroke="#ff0000" points="1528.8886,-1506.2014 1520.049,-1500.3608 1523.3169,-1510.439 1528.8886,-1506.2014"/>
</g>
<!-- n18&#45;&gt;n11 -->
<g id="edge48" class="edge">
<title>n18&#45;&gt;n11</title>
<path fill="none" stroke="#ff0000" d="M1628.4528,-1580.8167C1657.4422,-1527.5354 1707,-1422.3587 1707,-1326 1707,-1326 1707,-1326 1707,-282 1707,-176.9813 1592.1111,-108.1388 1509.2577,-72.1467"/>
<polygon fill="#ff0000" stroke="#ff0000" points="1625.2403,-1579.3939 1623.4688,-1589.8395 1631.3677,-1582.7785 1625.2403,-1579.3939"/>
<polygon fill="#ff0000" stroke="#ff0000" points="1510.4013,-68.8296 1499.8294,-68.1315 1507.6585,-75.2699 1510.4013,-68.8296"/>
</g>
<!-- n18&#45;&gt;n12 -->
<g id="edge49" class="edge">
<title>n18&#45;&gt;n12</title>
<path fill="none" stroke="#ff0000" d="M1497.7706,-1604.1638C1384.5148,-1589.5242 1219.2341,-1560.4188 1179,-1512 1126.0909,-1448.3277 1169,-1408.7861 1169,-1326 1169,-1326 1169,-1326 1169,-664 1169,-581.0554 1196.5141,-560.5653 1246,-494 1263.9686,-469.8297 1288.9543,-447.4153 1310.5723,-430.3337"/>
<polygon fill="#ff0000" stroke="#ff0000" points="1497.5163,-1607.6595 1507.8781,-1605.4499 1498.3999,-1600.7155 1497.5163,-1607.6595"/>
<polygon fill="#ff0000" stroke="#ff0000" points="1312.912,-432.9485 1318.6711,-424.0556 1308.6233,-427.4161 1312.912,-432.9485"/>
</g>
<!-- n18&#45;&gt;n13 -->
<g id="edge50" class="edge">
<title>n18&#45;&gt;n13</title>
<path fill="none" stroke="#00ff00" d="M1612.2415,-1589.9494C1622.809,-1520.1502 1647.3542,-1323.4092 1617,-1164 1594.8309,-1047.576 1579.2957,-1018.0316 1519,-916 1502.6755,-888.376 1479.5896,-860.5599 1460.7556,-839.8106"/>
<polygon fill="#00ff00" stroke="#00ff00" points="1463.116,-837.2069 1453.7684,-832.2194 1457.9655,-841.9475 1463.116,-837.2069"/>
</g>
<!-- n18&#45;&gt;n14 -->
<g id="edge51" class="edge">
<title>n18&#45;&gt;n14</title>
<path fill="none" stroke="#ff0000" d="M1611.8489,-1579.7231C1614.9617,-1541.5577 1617.3216,-1479.9404 1607,-1428 1591.9795,-1352.4136 1553.0746,-1270.4867 1529.3503,-1225.1798"/>
<polygon fill="#ff0000" stroke="#ff0000" points="1608.3489,-1579.5705 1610.9609,-1589.8383 1615.3221,-1580.1827 1608.3489,-1579.5705"/>
<polygon fill="#ff0000" stroke="#ff0000" points="1532.3058,-1223.282 1524.5323,-1216.0831 1526.1199,-1226.5583 1532.3058,-1223.282"/>
</g>
<!-- n19 -->
<g id="node23" class="node">
<title>n19</title>
<path fill="#ffffff" stroke="#ff8c00" stroke-width="2" d="M1596,-560C1596,-560 1424,-560 1424,-560 1418,-560 1412,-554 1412,-548 1412,-548 1412,-508 1412,-508 1412,-502 1418,-496 1424,-496 1424,-496 1596,-496 1596,-496 1602,-496 1608,-502 1608,-508 1608,-508 1608,-548 1608,-548 1608,-554 1602,-560 1596,-560"/>
<text text-anchor="start" x="1462.7635" y="-546" font-family="arial" font-weight="bold" font-size="10.00" fill="#000000">BCL as SIL and ORS</text>
<text text-anchor="start" x="1422.766" y="-529" font-family="arial" font-size="10.00" fill="#000000">The black Culm Limestone ranges from</text>
<text text-anchor="start" x="1426.363" y="-517" font-family="arial" font-size="10.00" fill="#000000"> Silurian to Old Red Sandstone in age</text>
<text text-anchor="start" x="1467.2125" y="-505" font-family="arial" font-size="10.00" fill="#000000"> #COA #chron&#45;hyp </text>
</g>
<!-- n19&#45;&gt;n10 -->
<g id="edge52" class="edge">
<title>n19&#45;&gt;n10</title>
<path fill="none" stroke="#ff0000" d="M1589.1688,-565.5828C1615.3081,-582.1445 1641.6104,-604.2425 1657,-632 1694.56,-699.7454 1667,-728.5391 1667,-806 1667,-1066 1667,-1066 1667,-1066 1667,-1203.4857 1648.5812,-1242.6262 1584,-1364 1569.3877,-1391.4622 1548.0724,-1419.2801 1530.5705,-1440.0708"/>
<polygon fill="#ff0000" stroke="#ff0000" points="1590.6842,-562.407 1580.3264,-560.1782 1587.0336,-568.3797 1590.6842,-562.407"/>
<polygon fill="#ff0000" stroke="#ff0000" points="1527.905,-1437.8026 1524.0714,-1447.6795 1533.2276,-1442.349 1527.905,-1437.8026"/>
</g>
<!-- n19&#45;&gt;n11 -->
<g id="edge53" class="edge">
<title>n19&#45;&gt;n11</title>
<path fill="none" stroke="#ff0000" d="M1542.9938,-487.7268C1581.1505,-436.0349 1635.3105,-343.525 1607,-264 1578.9951,-185.3334 1509.8546,-114.3522 1465.5915,-74.8201"/>
<polygon fill="#ff0000" stroke="#ff0000" points="1540.0055,-485.877 1536.7871,-495.9712 1545.5979,-490.0872 1540.0055,-485.877"/>
<polygon fill="#ff0000" stroke="#ff0000" points="1467.7189,-72.0297 1457.902,-68.0446 1463.0911,-77.2817 1467.7189,-72.0297"/>
</g>
<!-- n19&#45;&gt;n12 -->
<g id="edge54" class="edge">
<title>n19&#45;&gt;n12</title>
<path fill="none" stroke="#00ff00" d="M1471.9326,-495.8652C1448.4056,-476.0047 1418.298,-450.5892 1394.6614,-430.6363"/>
<polygon fill="#00ff00" stroke="#00ff00" points="1396.8116,-427.871 1386.9125,-424.0949 1392.2962,-433.22 1396.8116,-427.871"/>
</g>
<!-- n19&#45;&gt;n13 -->
<g id="edge55" class="edge">
<title>n19&#45;&gt;n13</title>
<path fill="none" stroke="#00ff00" d="M1475.383,-560.0434C1457.5055,-579.0069 1437.4928,-604.6284 1428,-632 1412.2343,-677.4588 1416.0867,-733.7069 1421.2483,-769.7213"/>
<polygon fill="#00ff00" stroke="#00ff00" points="1417.814,-770.4156 1422.7975,-779.7652 1424.7321,-769.3485 1417.814,-770.4156"/>
</g>
<!-- n19&#45;&gt;n14 -->
<g id="edge56" class="edge">
<title>n19&#45;&gt;n14</title>
<path fill="none" stroke="#ff0000" d="M1473.42,-568.2613C1445.9003,-603.6609 1417.0213,-655.6787 1443,-696 1480.2736,-753.8522 1545.2567,-703.1216 1584,-760 1623.0836,-817.3779 1590.2216,-846.5983 1592,-916 1594.0037,-994.1966 1618.7025,-1018.4766 1592,-1092 1583.0544,-1116.631 1564.9054,-1139.3967 1547.9509,-1156.7744"/>
<polygon fill="#ff0000" stroke="#ff0000" points="1476.4544,-570.0722 1479.9835,-560.0824 1470.9949,-565.691 1476.4544,-570.0722"/>
<polygon fill="#ff0000" stroke="#ff0000" points="1545.4214,-1154.3537 1540.7882,-1163.8818 1550.3519,-1159.3226 1545.4214,-1154.3537"/>
</g>
<!-- n34&#45;&gt;n14 -->
<g id="edge85" class="edge">
<title>n34&#45;&gt;n14</title>
<path fill="none" stroke="#00ff00" d="M1363.0966,-1287.9356C1394.3156,-1267.1229 1432.5463,-1241.6358 1462.1804,-1221.8797"/>
<polygon fill="#00ff00" stroke="#00ff00" points="1464.3108,-1224.666 1470.6899,-1216.2068 1460.4279,-1218.8416 1464.3108,-1224.666"/>
</g>
<!-- n35&#45;&gt;n16 -->
<g id="edge86" class="edge">
<title>n35&#45;&gt;n16</title>
<path fill="none" stroke="#00ff00" d="M1406.801,-1047.9693C1403.5766,-1029.7956 1398.5099,-1001.2373 1394.4483,-978.3448"/>
<polygon fill="#00ff00" stroke="#00ff00" points="1397.8563,-977.5178 1392.6631,-968.283 1390.9639,-978.7407 1397.8563,-977.5178"/>
</g>
<!-- n36&#45;&gt;n17 -->
<g id="edge87" class="edge">
<title>n36&#45;&gt;n17</title>
<path fill="none" stroke="#00ff00" d="M1466.4063,-263.875C1448.747,-246.661 1421.7702,-220.3642 1400.2246,-199.3618"/>
<polygon fill="#00ff00" stroke="#00ff00" points="1402.4582,-196.6513 1392.8543,-192.1773 1397.572,-201.6638 1402.4582,-196.6513"/>
</g>
<!-- n37&#45;&gt;n19 -->
<g id="edge88" class="edge">
<title>n37&#45;&gt;n19</title>
<path fill="none" stroke="#00ff00" d="M1544.6883,-645.9403C1539.0225,-626.6763 1529.8515,-595.4951 1522.3621,-570.0312"/>
<polygon fill="#00ff00" stroke="#00ff00" points="1525.6601,-568.8402 1519.4806,-560.2341 1518.9446,-570.8154 1525.6601,-568.8402"/>
</g>
<!-- n20 -->
<g id="node28" class="node">
<title>n20</title>
<path fill="#ffffff" stroke="#f5f5dc" stroke-width="2" d="M2136,-1642C2136,-1642 1964,-1642 1964,-1642 1958,-1642 1952,-1636 1952,-1630 1952,-1630 1952,-1602 1952,-1602 1952,-1596 1958,-1590 1964,-1590 1964,-1590 2136,-1590 2136,-1590 2142,-1590 2148,-1596 2148,-1602 2148,-1602 2148,-1630 2148,-1630 2148,-1636 2142,-1642 2136,-1642"/>
<text text-anchor="start" x="1997.224" y="-1628" font-family="arial" font-weight="bold" font-size="10.00" fill="#000000">Some Non&#45;Culm as CM</text>
<text text-anchor="start" x="1961.933" y="-1611" font-family="arial" font-size="10.00" fill="#000000">Some part of the non&#45;Culm strata is CM</text>
<text text-anchor="start" x="1998.8755" y="-1599" font-family="arial" font-size="10.00" fill="#000000"> in age #pri #chron&#45;hyp</text>
</g>
<!-- n38 -->
<g id="node36" class="node">
<title>n38</title>
<path fill="#f5f5dc" stroke="#000000" d="M1958,-1510C1958,-1510 1786,-1510 1786,-1510 1780,-1510 1774,-1504 1774,-1498 1774,-1498 1774,-1450 1774,-1450 1774,-1444 1780,-1438 1786,-1438 1786,-1438 1958,-1438 1958,-1438 1964,-1438 1970,-1444 1970,-1450 1970,-1450 1970,-1498 1970,-1498 1970,-1504 1964,-1510 1958,-1510"/>
<text text-anchor="start" x="1798.365" y="-1496" font-family="arial" font-weight="bold" font-size="10.00" fill="#000000">Standard Sequence as Partition &#45;</text>
<text text-anchor="start" x="1848.1145" y="-1486" font-family="arial" font-weight="bold" font-size="10.00" fill="#000000"> Non&#45;Culm</text>
<text text-anchor="start" x="1789.7625" y="-1471" font-family="arial" font-size="10.00" fill="#000000">If some part of the non&#45;Culm strata is</text>
<text text-anchor="start" x="1783.9245" y="-1459" font-family="arial" font-size="10.00" fill="#000000"> neiter CM, ML, OR nor SIL in age, then</text>
<text text-anchor="start" x="1799.49" y="-1447" font-family="arial" font-size="10.00" fill="#000000"> it is CAM in age #pri #chron&#45;hyp</text>
</g>
<!-- n20&#45;&gt;n38 -->
<g id="edge60" class="edge">
<title>n20&#45;&gt;n38</title>
<path fill="none" stroke="#ff0000" d="M2017.3521,-1589.955C1991.555,-1569.3753 1955.0276,-1540.2355 1925.0447,-1516.3165"/>
<polygon fill="#ff0000" stroke="#ff0000" points="1927.1758,-1513.5394 1917.1758,-1510.0391 1922.8104,-1519.0114 1927.1758,-1513.5394"/>
</g>
<!-- n39 -->
<g id="node37" class="node">
<title>n39</title>
<path fill="#b8860b" stroke="#000000" d="M2076,-1208C2076,-1208 1904,-1208 1904,-1208 1898,-1208 1892,-1202 1892,-1196 1892,-1196 1892,-1184 1892,-1184 1892,-1178 1898,-1172 1904,-1172 1904,-1172 2076,-1172 2076,-1172 2082,-1172 2088,-1178 2088,-1184 2088,-1184 2088,-1196 2088,-1196 2088,-1202 2082,-1208 2076,-1208"/>
<text text-anchor="start" x="1925.273" y="-1188" font-family="arial" font-weight="bold" font-size="10.00" fill="#000000">Dating the Non&#45;Culm&#45; GRE.1</text>
</g>
<!-- n20&#45;&gt;n39 -->
<g id="edge69" class="edge">
<title>n20&#45;&gt;n39</title>
<path fill="none" stroke="#ff0000" d="M2046.3371,-1589.9931C2035.7179,-1514.5969 2004.9752,-1296.3238 1993.9739,-1218.2144"/>
<polygon fill="#ff0000" stroke="#ff0000" points="1997.4172,-1217.5666 1992.5567,-1208.1525 1990.4857,-1218.5429 1997.4172,-1217.5666"/>
</g>
<!-- n40 -->
<g id="node38" class="node">
<title>n40</title>
<path fill="#ff8c00" stroke="#000000" d="M1975.5,-824C1975.5,-824 1784.5,-824 1784.5,-824 1778.5,-824 1772.5,-818 1772.5,-812 1772.5,-812 1772.5,-800 1772.5,-800 1772.5,-794 1778.5,-788 1784.5,-788 1784.5,-788 1975.5,-788 1975.5,-788 1981.5,-788 1987.5,-794 1987.5,-800 1987.5,-800 1987.5,-812 1987.5,-812 1987.5,-818 1981.5,-824 1975.5,-824"/>
<text text-anchor="start" x="1782.7085" y="-804" font-family="arial" font-weight="bold" font-size="10.00" fill="#000000">Extending the Non&#45;Culm Upwards &#45; COA.2a</text>
</g>
<!-- n20&#45;&gt;n40 -->
<g id="edge80" class="edge">
<title>n20&#45;&gt;n40</title>
<path fill="none" stroke="#ff0000" d="M1963.4246,-1589.9102C1884.0358,-1565.1192 1777.0016,-1529.1552 1765,-1512 1701.9121,-1421.8213 1786.2351,-991.1228 1812,-916 1822.6269,-885.0151 1843.2276,-853.6194 1858.982,-832.3451"/>
<polygon fill="#ff0000" stroke="#ff0000" points="1861.9358,-834.2418 1865.179,-824.1556 1856.3538,-830.0179 1861.9358,-834.2418"/>
</g>
<!-- n21 -->
<g id="node29" class="node">
<title>n21</title>
<path fill="#ffffff" stroke="#f5f5dc" stroke-width="2" d="M2136,-554C2136,-554 1964,-554 1964,-554 1958,-554 1952,-548 1952,-542 1952,-542 1952,-514 1952,-514 1952,-508 1958,-502 1964,-502 1964,-502 2136,-502 2136,-502 2142,-502 2148,-508 2148,-514 2148,-514 2148,-542 2148,-542 2148,-548 2142,-554 2136,-554"/>
<text text-anchor="start" x="1998.054" y="-540" font-family="arial" font-weight="bold" font-size="10.00" fill="#000000">Some Non&#45;Culm as ML</text>
<text text-anchor="start" x="1962.763" y="-523" font-family="arial" font-size="10.00" fill="#000000">Some part of the non&#45;Culm strata is ML</text>
<text text-anchor="start" x="1998.8755" y="-511" font-family="arial" font-size="10.00" fill="#000000"> in age #pri #chron&#45;hyp</text>
</g>
<!-- n21&#45;&gt;n38 -->
<g id="edge61" class="edge">
<title>n21&#45;&gt;n38</title>
<path fill="none" stroke="#ff0000" d="M2064.4598,-554.1591C2075.2406,-574.738 2089.5125,-604.443 2098,-632 2121.0773,-706.9267 2127,-727.5999 2127,-806 2127,-942 2127,-942 2127,-942 2127,-1137.4848 2131.7652,-1216.9155 2003,-1364 1981.4706,-1388.5923 1954.2404,-1412.3705 1930.1904,-1431.4891"/>
<polygon fill="#ff0000" stroke="#ff0000" points="1927.8719,-1428.8596 1922.1691,-1437.7887 1932.1954,-1434.3648 1927.8719,-1428.8596"/>
</g>
<!-- n21&#45;&gt;n39 -->
<g id="edge70" class="edge">
<title>n21&#45;&gt;n39</title>
<path fill="none" stroke="#ff0000" d="M2061.1186,-554.0073C2069.5277,-574.7512 2080.6724,-604.7452 2087,-632 2104.604,-707.8258 2107,-728.1575 2107,-806 2107,-942 2107,-942 2107,-942 2107,-1008.8147 2125.9369,-1031.7766 2097,-1092 2082.1662,-1122.8722 2052.9053,-1148.5957 2028.7272,-1165.9308"/>
<polygon fill="#ff0000" stroke="#ff0000" points="2026.6315,-1163.125 2020.419,-1171.7073 2030.6275,-1168.8723 2026.6315,-1163.125"/>
</g>
<!-- n21&#45;&gt;n40 -->
<g id="edge79" class="edge">
<title>n21&#45;&gt;n40</title>
<path fill="none" stroke="#ff0000" d="M1979.7145,-554.0603C1926.0442,-575.5543 1858.7013,-606.5399 1843,-632 1814.5766,-678.0894 1842.4428,-742.6655 1862.8269,-778.7862"/>
<polygon fill="#ff0000" stroke="#ff0000" points="1860,-780.8858 1868.0668,-787.7544 1866.044,-777.3544 1860,-780.8858"/>
</g>
<!-- n22 -->
<g id="node30" class="node">
<title>n22</title>
<path fill="#ffffff" stroke="#f5f5dc" stroke-width="2" d="M1922,-554C1922,-554 1744,-554 1744,-554 1738,-554 1732,-548 1732,-542 1732,-542 1732,-514 1732,-514 1732,-508 1738,-502 1744,-502 1744,-502 1922,-502 1922,-502 1928,-502 1934,-508 1934,-514 1934,-514 1934,-542 1934,-542 1934,-548 1928,-554 1922,-554"/>
<text text-anchor="start" x="1777.1645" y="-540" font-family="arial" font-weight="bold" font-size="10.00" fill="#000000">Some Non&#45;Culm as ORS</text>
<text text-anchor="start" x="1741.8735" y="-523" font-family="arial" font-size="10.00" fill="#000000">Some part of the non&#45;Culm strata is ORS</text>
<text text-anchor="start" x="1781.8755" y="-511" font-family="arial" font-size="10.00" fill="#000000"> in age #pri #chron&#45;hyp</text>
</g>
<!-- n22&#45;&gt;n38 -->
<g id="edge62" class="edge">
<title>n22&#45;&gt;n38</title>
<path fill="none" stroke="#ff0000" d="M1812.0185,-554.2284C1796.9598,-574.3678 1777.3886,-603.4759 1766,-632 1736.8137,-705.1007 1733,-727.2881 1733,-806 1733,-942 1733,-942 1733,-942 1733,-1130.3548 1696.0598,-1191.6323 1772,-1364 1783.0235,-1389.0209 1802.0481,-1412.1706 1820.5641,-1430.713"/>
<polygon fill="#ff0000" stroke="#ff0000" points="1818.2845,-1433.3786 1827.8909,-1437.8473 1823.168,-1428.3633 1818.2845,-1433.3786"/>
</g>
<!-- n22&#45;&gt;n39 -->
<g id="edge71" class="edge">
<title>n22&#45;&gt;n39</title>
<path fill="none" stroke="#ff0000" d="M1820.0849,-554.21C1793.1899,-612.2011 1735.9202,-755.6472 1764,-874.4 1788.8902,-979.6634 1805.9184,-1007.1474 1873,-1092 1896.0311,-1121.1324 1928.9134,-1147.7402 1953.9568,-1165.8557"/>
<polygon fill="#ff0000" stroke="#ff0000" points="1951.9462,-1168.7206 1962.1237,-1171.665 1956.0037,-1163.0165 1951.9462,-1168.7206"/>
</g>
<!-- n22&#45;&gt;n40 -->
<g id="edge78" class="edge">
<title>n22&#45;&gt;n40</title>
<path fill="none" stroke="#ff0000" d="M1828.2328,-554.2851C1823.079,-587.6821 1816.9764,-646.8872 1828,-696 1834.7299,-725.983 1850.6026,-757.4104 1863.0541,-778.9587"/>
<polygon fill="#ff0000" stroke="#ff0000" points="1860.2075,-781.0206 1868.3164,-787.8394 1866.2296,-777.4521 1860.2075,-781.0206"/>
</g>
<!-- n23 -->
<g id="node31" class="node">
<title>n23</title>
<path fill="#ffffff" stroke="#f5f5dc" stroke-width="2" d="M2036,-968C2036,-968 1864,-968 1864,-968 1858,-968 1852,-962 1852,-956 1852,-956 1852,-928 1852,-928 1852,-922 1858,-916 1864,-916 1864,-916 2036,-916 2036,-916 2042,-916 2048,-922 2048,-928 2048,-928 2048,-956 2048,-956 2048,-962 2042,-968 2036,-968"/>
<text text-anchor="start" x="1897.4945" y="-954" font-family="arial" font-weight="bold" font-size="10.00" fill="#000000">Some Non&#45;Culm as SIL</text>
<text text-anchor="start" x="1862.2035" y="-937" font-family="arial" font-size="10.00" fill="#000000">Some part of the non&#45;Culm strata is SIL</text>
<text text-anchor="start" x="1898.8755" y="-925" font-family="arial" font-size="10.00" fill="#000000"> in age #pri #chron&#45;hyp</text>
</g>
<!-- n23&#45;&gt;n38 -->
<g id="edge63" class="edge">
<title>n23&#45;&gt;n38</title>
<path fill="none" stroke="#ff0000" d="M1925.6025,-968.2238C1909.0505,-987.0757 1887.6048,-1013.7081 1873,-1040 1816.0609,-1142.503 1803.3068,-1172.5159 1783,-1288 1777.1502,-1321.2674 1771.7314,-1332.1573 1783,-1364 1791.6767,-1388.5184 1808.3993,-1411.5713 1825.0286,-1430.1771"/>
<polygon fill="#ff0000" stroke="#ff0000" points="1822.7727,-1432.8935 1832.1261,-1437.87 1827.9176,-1428.1469 1822.7727,-1432.8935"/>
</g>
<!-- n23&#45;&gt;n39 -->
<g id="edge72" class="edge">
<title>n23&#45;&gt;n39</title>
<path fill="none" stroke="#ff0000" d="M1924.1435,-968.2451C1897.9648,-998.1579 1863.8691,-1048.5359 1883,-1092 1896.7983,-1123.3487 1926.1236,-1149.0426 1950.5899,-1166.2451"/>
<polygon fill="#ff0000" stroke="#ff0000" points="1948.7708,-1169.2407 1959.0078,-1171.971 1952.7078,-1163.4528 1948.7708,-1169.2407"/>
</g>
<!-- n23&#45;&gt;n40 -->
<g id="edge100" class="edge">
<title>n23&#45;&gt;n40</title>
<path fill="none" stroke="#00ff00" d="M1936.5033,-915.7778C1924.2978,-892.0644 1906.3962,-857.284 1894.0286,-833.2556"/>
<polygon fill="#00ff00" stroke="#00ff00" points="1897.1108,-831.5958 1889.4223,-824.3062 1890.8868,-834.7994 1897.1108,-831.5958"/>
</g>
<!-- n24 -->
<g id="node32" class="node">
<title>n24</title>
<path fill="#ffffff" stroke="#f5f5dc" stroke-width="2" d="M1982,-1352C1982,-1352 1804,-1352 1804,-1352 1798,-1352 1792,-1346 1792,-1340 1792,-1340 1792,-1312 1792,-1312 1792,-1306 1798,-1300 1804,-1300 1804,-1300 1982,-1300 1982,-1300 1988,-1300 1994,-1306 1994,-1312 1994,-1312 1994,-1340 1994,-1340 1994,-1346 1988,-1352 1982,-1352"/>
<text text-anchor="start" x="1836.8895" y="-1338" font-family="arial" font-weight="bold" font-size="10.00" fill="#000000">Some Non&#45;Culm as CAM</text>
<text text-anchor="start" x="1801.5985" y="-1321" font-family="arial" font-size="10.00" fill="#000000">Some part of the non&#45;Culm strata is CAM</text>
<text text-anchor="start" x="1841.8755" y="-1309" font-family="arial" font-size="10.00" fill="#000000"> in age #pri #chron&#45;hyp</text>
</g>
<!-- n24&#45;&gt;n39 -->
<g id="edge101" class="edge">
<title>n24&#45;&gt;n39</title>
<path fill="none" stroke="#00ff00" d="M1911.7026,-1299.7778C1928.7655,-1275.8545 1953.8621,-1240.6675 1971.0135,-1216.6203"/>
<polygon fill="#00ff00" stroke="#00ff00" points="1973.9861,-1218.48 1976.9433,-1208.3062 1968.2871,-1214.4153 1973.9861,-1218.48"/>
</g>
<!-- n24&#45;&gt;n40 -->
<g id="edge102" class="edge">
<title>n24&#45;&gt;n40</title>
<path fill="none" stroke="#00ff00" d="M1872.0406,-1299.8286C1856.4808,-1278.6248 1836.5401,-1247.2397 1828,-1216 1792.8402,-1087.386 1798.7991,-1046.0965 1828,-916 1834.7299,-886.017 1850.6026,-854.5896 1863.0541,-833.0413"/>
<polygon fill="#00ff00" stroke="#00ff00" points="1866.2296,-834.5479 1868.3164,-824.1606 1860.2075,-830.9794 1866.2296,-834.5479"/>
</g>
<!-- n25 -->
<g id="node33" class="node">
<title>n25</title>
<path fill="#ffffff" stroke="#f5f5dc" stroke-width="2" d="M1921.5,-1648C1921.5,-1648 1744.5,-1648 1744.5,-1648 1738.5,-1648 1732.5,-1642 1732.5,-1636 1732.5,-1636 1732.5,-1596 1732.5,-1596 1732.5,-1590 1738.5,-1584 1744.5,-1584 1744.5,-1584 1921.5,-1584 1921.5,-1584 1927.5,-1584 1933.5,-1590 1933.5,-1596 1933.5,-1596 1933.5,-1636 1933.5,-1636 1933.5,-1642 1927.5,-1648 1921.5,-1648"/>
<text text-anchor="start" x="1742.9465" y="-1634" font-family="arial" font-weight="bold" font-size="10.00" fill="#000000">Non&#45;Culm as Post&#45;Primary and Pre&#45;NRS</text>
<text text-anchor="start" x="1755.7065" y="-1617" font-family="arial" font-size="10.00" fill="#000000">The non&#45;Culm strata are older than</text>
<text text-anchor="start" x="1749.3165" y="-1605" font-family="arial" font-size="10.00" fill="#000000"> Primary strata and younger than New</text>
<text text-anchor="start" x="1747.6415" y="-1593" font-family="arial" font-size="10.00" fill="#000000"> Red Sandstone strata #pri #chron&#45;hyp</text>
</g>
<!-- n25&#45;&gt;n38 -->
<g id="edge103" class="edge">
<title>n25&#45;&gt;n38</title>
<path fill="none" stroke="#00ff00" d="M1841.8497,-1583.778C1847.0257,-1564.932 1853.6459,-1540.8278 1859.3636,-1520.0094"/>
<polygon fill="#00ff00" stroke="#00ff00" points="1862.8143,-1520.6607 1862.0877,-1510.0908 1856.0642,-1518.8068 1862.8143,-1520.6607"/>
</g>
<!-- n26 -->
<g id="node34" class="node">
<title>n26</title>
<path fill="#ffffff" stroke="#b8860b" stroke-width="2" d="M2076,-1092C2076,-1092 1904,-1092 1904,-1092 1898,-1092 1892,-1086 1892,-1080 1892,-1080 1892,-1052 1892,-1052 1892,-1046 1898,-1040 1904,-1040 1904,-1040 2076,-1040 2076,-1040 2082,-1040 2088,-1046 2088,-1052 2088,-1052 2088,-1080 2088,-1080 2088,-1086 2082,-1092 2076,-1092"/>
<text text-anchor="start" x="1948.337" y="-1078" font-family="arial" font-weight="bold" font-size="10.00" fill="#000000">Non&#45;Culm as CAM</text>
<text text-anchor="start" x="1913.316" y="-1061" font-family="arial" font-size="10.00" fill="#000000">The non&#45;Culm strata is nothing but</text>
<text text-anchor="start" x="1909.1505" y="-1049" font-family="arial" font-size="10.00" fill="#000000"> Cambrian in age #GRE #chron&#45;hyp </text>
</g>
<!-- n26&#45;&gt;n20 -->
<g id="edge64" class="edge">
<title>n26&#45;&gt;n20</title>
<path fill="none" stroke="#ff0000" d="M2040.8477,-1098.1901C2062.4437,-1114.91 2085.3019,-1137.4228 2097,-1164 2160.322,-1307.8632 2096.619,-1501.5627 2065.2512,-1580.398"/>
<polygon fill="#ff0000" stroke="#ff0000" points="2042.7639,-1095.2526 2032.6586,-1092.0692 2038.573,-1100.8596 2042.7639,-1095.2526"/>
<polygon fill="#ff0000" stroke="#ff0000" points="2061.9249,-1579.2875 2061.4163,-1589.8701 2068.4133,-1581.9144 2061.9249,-1579.2875"/>
</g>
<!-- n26&#45;&gt;n21 -->
<g id="edge65" class="edge">
<title>n26&#45;&gt;n21</title>
<path fill="none" stroke="#ff0000" d="M2027.9509,-1032.7744C2044.9054,-1015.3967 2063.0544,-992.631 2072,-968 2123.6614,-825.7542 2082.3203,-640.5413 2060.8804,-563.7584"/>
<polygon fill="#ff0000" stroke="#ff0000" points="2025.4214,-1030.3537 2020.7882,-1039.8818 2030.3519,-1035.3226 2025.4214,-1030.3537"/>
<polygon fill="#ff0000" stroke="#ff0000" points="2064.2305,-562.7431 2058.1231,-554.0857 2057.4986,-564.6621 2064.2305,-562.7431"/>
</g>
<!-- n26&#45;&gt;n22 -->
<g id="edge66" class="edge">
<title>n26&#45;&gt;n22</title>
<path fill="none" stroke="#ff0000" d="M2021.2492,-1031.4055C2035.087,-1013.7695 2049.8328,-991.1825 2057,-968 2068.0271,-932.3324 2077.0853,-663.4699 2057,-632 2040.9727,-606.8883 1976.3437,-578.3952 1920.599,-557.5907"/>
<polygon fill="#ff0000" stroke="#ff0000" points="2018.1466,-1029.6747 2014.5663,-1039.6463 2023.5835,-1034.0838 2018.1466,-1029.6747"/>
<polygon fill="#ff0000" stroke="#ff0000" points="1921.618,-554.2361 1911.0247,-554.0593 1919.1956,-560.8036 1921.618,-554.2361"/>
</g>
<!-- n26&#45;&gt;n23 -->
<g id="edge67" class="edge">
<title>n26&#45;&gt;n23</title>
<path fill="none" stroke="#ff0000" d="M1978.4217,-1030.1072C1973.1424,-1013.7414 1966.9053,-994.4063 1961.6208,-978.0246"/>
<polygon fill="#ff0000" stroke="#ff0000" points="1975.116,-1031.2602 1981.517,-1039.7028 1981.7779,-1029.1112 1975.116,-1031.2602"/>
<polygon fill="#ff0000" stroke="#ff0000" points="1964.8718,-976.7019 1958.4707,-968.2593 1958.2099,-978.8509 1964.8718,-976.7019"/>
</g>
<!-- n26&#45;&gt;n24 -->
<g id="edge68" class="edge">
<title>n26&#45;&gt;n24</title>
<path fill="none" stroke="#00ff00" d="M1947.3414,-1092.0692C1923.5789,-1109.2242 1896.1926,-1134.0274 1883,-1164 1865.2538,-1204.3182 1872.9103,-1255.8053 1881.5624,-1289.7859"/>
<polygon fill="#00ff00" stroke="#00ff00" points="1878.2642,-1290.9976 1884.2525,-1299.7378 1885.0217,-1289.1709 1878.2642,-1290.9976"/>
</g>
<!-- n27 -->
<g id="node35" class="node">
<title>n27</title>
<path fill="#ffffff" stroke="#ff8c00" stroke-width="2" d="M2036,-696C2036,-696 1864,-696 1864,-696 1858,-696 1852,-690 1852,-684 1852,-684 1852,-644 1852,-644 1852,-638 1858,-632 1864,-632 1864,-632 2036,-632 2036,-632 2042,-632 2048,-638 2048,-644 2048,-644 2048,-684 2048,-684 2048,-690 2042,-696 2036,-696"/>
<text text-anchor="start" x="1889.716" y="-682" font-family="arial" font-weight="bold" font-size="10.00" fill="#000000">Non&#45;Culm as SIL and CAM</text>
<text text-anchor="start" x="1869.1465" y="-665" font-family="arial" font-size="10.00" fill="#000000">In Devon, the non&#45;Culm strata range</text>
<text text-anchor="start" x="1861.934" y="-653" font-family="arial" font-size="10.00" fill="#000000"> from Cambrian to Silurian in age #COA</text>
<text text-anchor="start" x="1923.6045" y="-641" font-family="arial" font-size="10.00" fill="#000000"> #chron&#45;hyp</text>
</g>
<!-- n27&#45;&gt;n20 -->
<g id="edge73" class="edge">
<title>n27&#45;&gt;n20</title>
<path fill="none" stroke="#ff0000" d="M1985.3085,-704.3023C2041.9936,-773.3063 2147,-920.7369 2147,-1066 2147,-1326 2147,-1326 2147,-1326 2147,-1410.748 2134.3995,-1432.5148 2105,-1512 2096.1306,-1535.9794 2082.785,-1561.3738 2071.4612,-1581.0662"/>
<polygon fill="#ff0000" stroke="#ff0000" points="1987.7277,-701.7371 1978.6455,-696.2814 1982.3431,-706.21 1987.7277,-701.7371"/>
<polygon fill="#ff0000" stroke="#ff0000" points="2068.2843,-1579.5655 2066.259,-1589.965 2074.3275,-1583.0983 2068.2843,-1579.5655"/>
</g>
<!-- n27&#45;&gt;n21 -->
<g id="edge74" class="edge">
<title>n27&#45;&gt;n21</title>
<path fill="none" stroke="#ff0000" d="M1979.8371,-623.4216C1994.1602,-603.9422 2011.1349,-580.8566 2024.8001,-562.2719"/>
<polygon fill="#ff0000" stroke="#ff0000" points="1976.8028,-621.64 1973.6986,-631.7699 1982.4423,-625.7867 1976.8028,-621.64"/>
<polygon fill="#ff0000" stroke="#ff0000" points="2027.7202,-564.2087 2030.8244,-554.0788 2022.0807,-560.062 2027.7202,-564.2087"/>
</g>
<!-- n27&#45;&gt;n22 -->
<g id="edge75" class="edge">
<title>n27&#45;&gt;n22</title>
<path fill="none" stroke="#ff0000" d="M1915.6004,-624.0142C1898.6074,-604.2616 1878.3264,-580.6871 1862.1134,-561.8412"/>
<polygon fill="#ff0000" stroke="#ff0000" points="1913.0977,-626.4717 1922.2726,-631.7699 1918.4042,-621.9065 1913.0977,-626.4717"/>
<polygon fill="#ff0000" stroke="#ff0000" points="1864.6104,-559.377 1855.4355,-554.0788 1859.3039,-563.9422 1864.6104,-559.377"/>
</g>
<!-- n27&#45;&gt;n23 -->
<g id="edge76" class="edge">
<title>n27&#45;&gt;n23</title>
<path fill="none" stroke="#00ff00" d="M1977.5514,-696.289C1990.7528,-713.8919 2005.1546,-736.7829 2012,-760 2026.3792,-808.7688 2030.4386,-827.0167 2012,-874.4 2007.1219,-886.9357 1998.7129,-898.5587 1989.6342,-908.5064"/>
<polygon fill="#00ff00" stroke="#00ff00" points="1987.0423,-906.1518 1982.6085,-915.7743 1992.0752,-911.017 1987.0423,-906.1518"/>
</g>
<!-- n27&#45;&gt;n24 -->
<g id="edge77" class="edge">
<title>n27&#45;&gt;n24</title>
<path fill="none" stroke="#00ff00" d="M1970.4592,-696.3694C1980.6176,-714.3591 1991.807,-737.5831 1997,-760 2002.7373,-784.7664 2012.4556,-854.2155 1997,-874.4 1953.8974,-930.6908 1886.1026,-859.7092 1843,-916 1828.9495,-934.3496 1841.8395,-944.918 1843,-968 1848.5626,-1078.6411 1850.135,-1106.6691 1868,-1216 1872.0712,-1240.9149 1878.3812,-1268.6292 1883.643,-1290.0066"/>
<polygon fill="#00ff00" stroke="#00ff00" points="1880.3081,-1291.0983 1886.1276,-1299.9518 1887.0994,-1289.4017 1880.3081,-1291.0983"/>
</g>
<!-- n38&#45;&gt;n24 -->
<g id="edge89" class="edge">
<title>n38&#45;&gt;n24</title>
<path fill="none" stroke="#00ff00" d="M1877.1372,-1437.7951C1880.4015,-1414.7897 1884.611,-1385.1226 1887.8732,-1362.1314"/>
<polygon fill="#00ff00" stroke="#00ff00" points="1891.359,-1362.4781 1889.2987,-1352.0856 1884.4284,-1361.4947 1891.359,-1362.4781"/>
</g>
<!-- n39&#45;&gt;n26 -->
<g id="edge90" class="edge">
<title>n39&#45;&gt;n26</title>
<path fill="none" stroke="#00ff00" d="M1990,-1171.9693C1990,-1153.7956 1990,-1125.2373 1990,-1102.3448"/>
<polygon fill="#00ff00" stroke="#00ff00" points="1993.5001,-1102.283 1990,-1092.283 1986.5001,-1102.283 1993.5001,-1102.283"/>
</g>
<!-- n40&#45;&gt;n27 -->
<g id="edge91" class="edge">
<title>n40&#45;&gt;n27</title>
<path fill="none" stroke="#00ff00" d="M1889.008,-787.7267C1899.2146,-767.0219 1916.1771,-732.6121 1929.6263,-705.3295"/>
<polygon fill="#00ff00" stroke="#00ff00" points="1932.9378,-706.5277 1934.2201,-696.0107 1926.6592,-703.4326 1932.9378,-706.5277"/>
</g>
<!-- n28 -->
<g id="node39" class="node">
<title>n28</title>
<path fill="#ffffff" stroke="#b8860b" stroke-width="2" d="M2582,-1648C2582,-1648 2410,-1648 2410,-1648 2404,-1648 2398,-1642 2398,-1636 2398,-1636 2398,-1596 2398,-1596 2398,-1590 2404,-1584 2410,-1584 2410,-1584 2582,-1584 2582,-1584 2588,-1584 2594,-1590 2594,-1596 2594,-1596 2594,-1636 2594,-1636 2594,-1642 2588,-1648 2582,-1648"/>
<text text-anchor="start" x="2447.944" y="-1634" font-family="arial" font-weight="bold" font-size="10.00" fill="#000000">Traversing Northward</text>
<text text-anchor="start" x="2416.5345" y="-1617" font-family="arial" font-size="10.00" fill="#000000">The strata south of Exmoor become</text>
<text text-anchor="start" x="2413.476" y="-1605" font-family="arial" font-size="10.00" fill="#000000"> progessively younger the furhter one</text>
<text text-anchor="start" x="2409.0405" y="-1593" font-family="arial" font-size="10.00" fill="#000000"> traverses northward #GRE #chron&#45;hyp</text>
</g>
<!-- n29 -->
<g id="node40" class="node">
<title>n29</title>
<path fill="#ffffff" stroke="#b8860b" stroke-width="2" d="M2364,-1512C2364,-1512 2188,-1512 2188,-1512 2182,-1512 2176,-1506 2176,-1500 2176,-1500 2176,-1448 2176,-1448 2176,-1442 2182,-1436 2188,-1436 2188,-1436 2364,-1436 2364,-1436 2370,-1436 2376,-1442 2376,-1448 2376,-1448 2376,-1500 2376,-1500 2376,-1506 2370,-1512 2364,-1512"/>
<text text-anchor="start" x="2199.8685" y="-1498" font-family="arial" font-weight="bold" font-size="10.00" fill="#000000">Exmoor Youngest Devonian strata</text>
<text text-anchor="start" x="2196.812" y="-1481" font-family="arial" font-size="10.00" fill="#000000">In Devon, among all the strata older</text>
<text text-anchor="start" x="2185.6885" y="-1469" font-family="arial" font-size="10.00" fill="#000000"> than the New Red Sandstone, the strata</text>
<text text-anchor="start" x="2198.1995" y="-1457" font-family="arial" font-size="10.00" fill="#000000"> of Exmoor are the youngest #GRE</text>
<text text-anchor="start" x="2249.6045" y="-1445" font-family="arial" font-size="10.00" fill="#000000"> #chron&#45;hyp</text>
</g>
<!-- n30 -->
<g id="node41" class="node">
<title>n30</title>
<path fill="#ffffff" stroke="#ff8c00" stroke-width="2" d="M2367.5,-1648C2367.5,-1648 2184.5,-1648 2184.5,-1648 2178.5,-1648 2172.5,-1642 2172.5,-1636 2172.5,-1636 2172.5,-1596 2172.5,-1596 2172.5,-1590 2178.5,-1584 2184.5,-1584 2184.5,-1584 2367.5,-1584 2367.5,-1584 2373.5,-1584 2379.5,-1590 2379.5,-1596 2379.5,-1596 2379.5,-1636 2379.5,-1636 2379.5,-1642 2373.5,-1648 2367.5,-1648"/>
<text text-anchor="start" x="2205.0935" y="-1634" font-family="arial" font-weight="bold" font-size="10.00" fill="#000000">Culm Youngest Devonian Strata</text>
<text text-anchor="start" x="2197.312" y="-1617" font-family="arial" font-size="10.00" fill="#000000">In Devon, among all the strata older</text>
<text text-anchor="start" x="2187.028" y="-1605" font-family="arial" font-size="10.00" fill="#000000"> than the New Red Sandstone, the Culm</text>
<text text-anchor="start" x="2182.5825" y="-1593" font-family="arial" font-size="10.00" fill="#000000"> strata are the youngest #COA #chron&#45;hyp</text>
</g>
<!-- n30&#45;&gt;n29 -->
<g id="edge81" class="edge">
<title>n30&#45;&gt;n29</title>
<path fill="none" stroke="#ff0000" d="M2276,-1573.6314C2276,-1557.4639 2276,-1538.9172 2276,-1522.243"/>
<polygon fill="#ff0000" stroke="#ff0000" points="2272.5001,-1573.778 2276,-1583.778 2279.5001,-1573.778 2272.5001,-1573.778"/>
<polygon fill="#ff0000" stroke="#ff0000" points="2279.5001,-1522.1409 2276,-1512.1409 2272.5001,-1522.141 2279.5001,-1522.1409"/>
</g>
</g>
</svg>
