
<!-- Generated by graphviz version 2.40.1 (20161225.0304)
 -->
<!-- Title: Argument Map Pages: 1 -->
<svg width="720pt" height="520pt"
 viewBox="0.00 0.00 720.00 519.88" xmlns="http://www.w3.org/2000/svg" xmlns:xlink="http://www.w3.org/1999/xlink">
<g id="graph0" class="graph" transform="scale(.2688 .2688) rotate(0) translate(4 1930.4)">
<title>Argument Map</title>
<g id="clust1" class="cluster">
<title>cluster_1</title>
<polygon fill="#b9d3ee" stroke="#b9d3ee" points="555,-608 555,-722.4 985,-722.4 985,-608 555,-608"/>
<text text-anchor="start" x="686.3132" y="-707.6" font-family="arial" font-size="12.00" fill="#000000">Aporia I : Coal in Ancient Strata</text>
</g>
<g id="clust2" class="cluster">
<title>cluster_2</title>
<polygon fill="#eedfcc" stroke="#eedfcc" points="8,-500 8,-1906.4 547,-1906.4 547,-500 8,-500"/>
<text text-anchor="start" x="213.1578" y="-1891.6" font-family="arial" font-size="12.00" fill="#000000">Dating of the Main Culm</text>
</g>
<g id="clust3" class="cluster">
<title>cluster_3</title>
<polygon fill="#eeb4b4" stroke="#eeb4b4" points="993,-8 993,-1906.4 1785,-1906.4 1785,-8 993,-8"/>
<text text-anchor="start" x="1309.9842" y="-1891.6" font-family="arial" font-size="12.00" fill="#000000">Dating of the Culm Limestone</text>
</g>
<g id="clust4" class="cluster">
<title>cluster_4</title>
<polygon fill="#cd9b9b" stroke="#cd9b9b" points="1793,-756 1793,-1912.4 2225,-1912.4 2225,-756 1793,-756"/>
<text text-anchor="start" x="1946.3252" y="-1897.6" font-family="arial" font-size="12.00" fill="#000000">Dating of the Non&#45;Culm</text>
</g>
<g id="clust5" class="cluster">
<title>cluster_5</title>
<polygon fill="#8b6969" stroke="#8b6969" points="2233,-1664 2233,-1918.4 2663,-1918.4 2663,-1664 2233,-1664"/>
<text text-anchor="start" x="2377.9752" y="-1903.6" font-family="arial" font-size="12.00" fill="#000000">Youngest Devonian Strata</text>
</g>
<!-- n0 -->
<g id="node1" class="node">
<title>n0</title>
<path fill="#ffffff" stroke="#b8860b" stroke-width="2" d="M965,-692C965,-692 793,-692 793,-692 787,-692 781,-686 781,-680 781,-680 781,-628 781,-628 781,-622 787,-616 793,-616 793,-616 965,-616 965,-616 971,-616 977,-622 977,-628 977,-628 977,-680 977,-680 977,-686 971,-692 965,-692"/>
<text text-anchor="start" x="815.652" y="-678" font-family="arial" font-weight="bold" font-size="10.00" fill="#000000">Instances of Pre&#45;ORS Strata</text>
<text text-anchor="start" x="797.3215" y="-661" font-family="arial" font-size="10.00" fill="#000000">In Munster, North America and North</text>
<text text-anchor="start" x="792.3145" y="-649" font-family="arial" font-size="10.00" fill="#000000"> Devon, some strata closely associated</text>
<text text-anchor="start" x="791.7625" y="-637" font-family="arial" font-size="10.00" fill="#000000"> with seams of coal are pre&#45;ORS in age</text>
<text text-anchor="start" x="837.602" y="-625" font-family="arial" font-size="10.00" fill="#000000"> #GRE #chron&#45;hyp</text>
</g>
<!-- n2 -->
<g id="node2" class="node">
<title>n2</title>
<path fill="#ffffff" stroke="#b8860b" stroke-width="2" d="M751,-686C751,-686 575,-686 575,-686 569,-686 563,-680 563,-674 563,-674 563,-634 563,-634 563,-628 569,-622 575,-622 575,-622 751,-622 751,-622 757,-622 763,-628 763,-634 763,-634 763,-674 763,-674 763,-680 757,-686 751,-686"/>
<text text-anchor="start" x="582.711" y="-672" font-family="arial" font-weight="bold" font-size="10.00" fill="#000000">Pre&#45;ORS Strata in northwest France</text>
<text text-anchor="start" x="574.6465" y="-655" font-family="arial" font-size="10.00" fill="#000000">The whole strata supporting coal seams</text>
<text text-anchor="start" x="572.9835" y="-643" font-family="arial" font-size="10.00" fill="#000000"> in northwest France are pre&#45;ORS in age</text>
<text text-anchor="start" x="621.602" y="-631" font-family="arial" font-size="10.00" fill="#000000"> #GRE #chron&#45;hyp</text>
</g>
<!-- n1 -->
<g id="node3" class="node">
<title>n1</title>
<path fill="#ffffff" stroke="#b8860b" stroke-width="2" d="M527,-1876C527,-1876 355,-1876 355,-1876 349,-1876 343,-1870 343,-1864 343,-1864 343,-1836 343,-1836 343,-1830 349,-1824 355,-1824 355,-1824 527,-1824 527,-1824 533,-1824 539,-1830 539,-1836 539,-1836 539,-1864 539,-1864 539,-1870 533,-1876 527,-1876"/>
<text text-anchor="start" x="397.9475" y="-1862" font-family="arial" font-weight="bold" font-size="10.00" fill="#000000">Main Culm as CAM</text>
<text text-anchor="start" x="355.9925" y="-1845" font-family="arial" font-size="10.00" fill="#000000">The whole of the main Culm is CAM in</text>
<text text-anchor="start" x="388.4845" y="-1833" font-family="arial" font-size="10.00" fill="#000000"> age #GRE #chron&#45;hyp </text>
</g>
<!-- n1&#45;&gt;n0 -->
<g id="edge1" class="edge">
<title>n1&#45;&gt;n0</title>
<path fill="none" stroke="#00ff00" d="M527.9806,-1823.904C637.0731,-1785.1613 810,-1701.169 810,-1558 810,-1558 810,-1558 810,-920 810,-841.6259 838.4128,-754.3038 858.7734,-701.7905"/>
<polygon fill="#00ff00" stroke="#00ff00" points="862.0637,-702.9871 862.4728,-692.4001 855.5509,-700.4213 862.0637,-702.9871"/>
</g>
<!-- n3 -->
<g id="node4" class="node">
<title>n3</title>
<path fill="#ffffff" stroke="#f5f5dc" stroke-width="2" d="M467,-1730C467,-1730 289,-1730 289,-1730 283,-1730 277,-1724 277,-1718 277,-1718 277,-1690 277,-1690 277,-1684 283,-1678 289,-1678 289,-1678 467,-1678 467,-1678 473,-1678 479,-1684 479,-1690 479,-1690 479,-1718 479,-1718 479,-1724 473,-1730 467,-1730"/>
<text text-anchor="start" x="323.8345" y="-1716" font-family="arial" font-weight="bold" font-size="10.00" fill="#000000">Some Main Culm as CM</text>
<text text-anchor="start" x="286.599" y="-1699" font-family="arial" font-size="10.00" fill="#000000">Some part of the main Culm is CM in age</text>
<text text-anchor="start" x="341.882" y="-1687" font-family="arial" font-size="10.00" fill="#000000"> #pri #chron&#45;hyp</text>
</g>
<!-- n1&#45;&gt;n3 -->
<g id="edge6" class="edge">
<title>n1&#45;&gt;n3</title>
<path fill="none" stroke="#ff0000" d="M429.7369,-1823.8981C419.6314,-1800.4792 404.7073,-1765.8931 393.4816,-1739.8779"/>
<polygon fill="#ff0000" stroke="#ff0000" points="396.5536,-1738.1631 389.378,-1730.3682 390.1265,-1740.9365 396.5536,-1738.1631"/>
</g>
<!-- n4 -->
<g id="node5" class="node">
<title>n4</title>
<path fill="#ffffff" stroke="#f5f5dc" stroke-width="2" d="M483.5,-680C483.5,-680 306.5,-680 306.5,-680 300.5,-680 294.5,-674 294.5,-668 294.5,-668 294.5,-640 294.5,-640 294.5,-634 300.5,-628 306.5,-628 306.5,-628 483.5,-628 483.5,-628 489.5,-628 495.5,-634 495.5,-640 495.5,-640 495.5,-668 495.5,-668 495.5,-674 489.5,-680 483.5,-680"/>
<text text-anchor="start" x="342.1645" y="-666" font-family="arial" font-weight="bold" font-size="10.00" fill="#000000">Some Main Culm as ML</text>
<text text-anchor="start" x="304.929" y="-649" font-family="arial" font-size="10.00" fill="#000000">Some part of the main Culm is ML in age</text>
<text text-anchor="start" x="359.382" y="-637" font-family="arial" font-size="10.00" fill="#000000"> #pri #chron&#45;hyp</text>
</g>
<!-- n1&#45;&gt;n4 -->
<g id="edge7" class="edge">
<title>n1&#45;&gt;n4</title>
<path fill="none" stroke="#ff0000" d="M464.4256,-1823.5879C481.7179,-1802.497 504.2137,-1771.3741 516,-1740 544.6535,-1663.7268 538,-1639.4777 538,-1558 538,-1558 538,-1558 538,-1174 538,-987.2418 574.3793,-925.0489 495,-756 482.2888,-728.9297 459.3626,-704.729 438.6662,-686.7013"/>
<polygon fill="#ff0000" stroke="#ff0000" points="440.7631,-683.8907 430.8692,-680.1011 436.2404,-689.2335 440.7631,-683.8907"/>
</g>
<!-- n5 -->
<g id="node6" class="node">
<title>n5</title>
<path fill="#ffffff" stroke="#f5f5dc" stroke-width="2" d="M264,-680C264,-680 92,-680 92,-680 86,-680 80,-674 80,-668 80,-668 80,-640 80,-640 80,-634 86,-628 92,-628 92,-628 264,-628 264,-628 270,-628 276,-634 276,-640 276,-640 276,-668 276,-668 276,-674 270,-680 264,-680"/>
<text text-anchor="start" x="120.775" y="-666" font-family="arial" font-weight="bold" font-size="10.00" fill="#000000">Some Main Culm as ORS</text>
<text text-anchor="start" x="93.2675" y="-649" font-family="arial" font-size="10.00" fill="#000000">Some part of the main Culm is ORS in</text>
<text text-anchor="start" x="132.154" y="-637" font-family="arial" font-size="10.00" fill="#000000"> age #pri #chron&#45;hyp</text>
</g>
<!-- n1&#45;&gt;n5 -->
<g id="edge8" class="edge">
<title>n1&#45;&gt;n5</title>
<path fill="none" stroke="#ff0000" d="M342.5436,-1835.8857C238.024,-1818.7033 82.8895,-1786.1532 46,-1740 20.7175,-1708.3685 37,-1598.4939 37,-1558 37,-1558 37,-1558 37,-1174 37,-986.5624 15.5016,-926.6659 93,-756 104.5918,-730.4727 124.3551,-706.1781 141.909,-687.7069"/>
<polygon fill="#ff0000" stroke="#ff0000" points="144.7916,-689.764 149.2665,-680.1606 139.7795,-684.8773 144.7916,-689.764"/>
</g>
<!-- n6 -->
<g id="node7" class="node">
<title>n6</title>
<path fill="#ffffff" stroke="#f5f5dc" stroke-width="2" d="M340,-1076C340,-1076 168,-1076 168,-1076 162,-1076 156,-1070 156,-1064 156,-1064 156,-1036 156,-1036 156,-1030 162,-1024 168,-1024 168,-1024 340,-1024 340,-1024 346,-1024 352,-1030 352,-1036 352,-1036 352,-1064 352,-1064 352,-1070 346,-1076 340,-1076"/>
<text text-anchor="start" x="200.105" y="-1062" font-family="arial" font-weight="bold" font-size="10.00" fill="#000000">Some Main Culm as SIL</text>
<text text-anchor="start" x="172.5975" y="-1045" font-family="arial" font-size="10.00" fill="#000000">Some part of the main Culm is SIL in</text>
<text text-anchor="start" x="208.154" y="-1033" font-family="arial" font-size="10.00" fill="#000000"> age #pri #chron&#45;hyp</text>
</g>
<!-- n1&#45;&gt;n6 -->
<g id="edge9" class="edge">
<title>n1&#45;&gt;n6</title>
<path fill="none" stroke="#ff0000" d="M458.0531,-1823.8457C479.7671,-1787.0177 511.778,-1718.3085 488,-1664 431.2343,-1534.348 340.8196,-1559.7781 254,-1448 215.5747,-1398.5283 202.3576,-1384.7297 187,-1324 175.6681,-1279.1894 202.5308,-1152.6829 204,-1148 210.8653,-1126.1178 222.2898,-1103.2037 232.4865,-1085.0395"/>
<polygon fill="#ff0000" stroke="#ff0000" points="235.7304,-1086.419 237.6762,-1076.0043 229.6604,-1082.9325 235.7304,-1086.419"/>
</g>
<!-- n7 -->
<g id="node8" class="node">
<title>n7</title>
<path fill="#ffffff" stroke="#f5f5dc" stroke-width="2" d="M447,-1448C447,-1448 275,-1448 275,-1448 269,-1448 263,-1442 263,-1436 263,-1436 263,-1408 263,-1408 263,-1402 269,-1396 275,-1396 275,-1396 447,-1396 447,-1396 453,-1396 459,-1402 459,-1408 459,-1408 459,-1436 459,-1436 459,-1442 453,-1448 447,-1448"/>
<text text-anchor="start" x="303.5" y="-1434" font-family="arial" font-weight="bold" font-size="10.00" fill="#000000">Some Main Culm as CAM</text>
<text text-anchor="start" x="275.9925" y="-1417" font-family="arial" font-size="10.00" fill="#000000">Some part of the main Culm is CAM in</text>
<text text-anchor="start" x="315.154" y="-1405" font-family="arial" font-size="10.00" fill="#000000"> age #pri #chron&#45;hyp</text>
</g>
<!-- n1&#45;&gt;n7 -->
<g id="edge10" class="edge">
<title>n1&#45;&gt;n7</title>
<path fill="none" stroke="#00ff00" d="M461.0044,-1823.6724C475.8528,-1802.3825 494.8763,-1770.9577 503,-1740 527.9202,-1645.0343 531.4458,-1605.3962 483,-1520 467.5908,-1492.8379 441.4227,-1470.31 417.2642,-1453.7309"/>
<polygon fill="#00ff00" stroke="#00ff00" points="419.0886,-1450.7409 408.8238,-1448.117 415.2118,-1456.5694 419.0886,-1450.7409"/>
</g>
<!-- n35 -->
<g id="node12" class="node">
<title>n35</title>
<path fill="#f5f5dc" stroke="#000000" d="M261.5,-1594C261.5,-1594 88.5,-1594 88.5,-1594 82.5,-1594 76.5,-1588 76.5,-1582 76.5,-1582 76.5,-1534 76.5,-1534 76.5,-1528 82.5,-1522 88.5,-1522 88.5,-1522 261.5,-1522 261.5,-1522 267.5,-1522 273.5,-1528 273.5,-1534 273.5,-1534 273.5,-1582 273.5,-1582 273.5,-1588 267.5,-1594 261.5,-1594"/>
<text text-anchor="start" x="89.6425" y="-1580" font-family="arial" font-weight="bold" font-size="10.00" fill="#000000">Standard Sequence as Partition &#45; Main</text>
<text text-anchor="start" x="162.4475" y="-1570" font-family="arial" font-weight="bold" font-size="10.00" fill="#000000"> Culm</text>
<text text-anchor="start" x="86.8835" y="-1555" font-family="arial" font-size="10.00" fill="#000000">If some main Culm strata are neiter CM,</text>
<text text-anchor="start" x="90.4835" y="-1543" font-family="arial" font-size="10.00" fill="#000000"> ML, OR nor SIL in age, then it is CAM</text>
<text text-anchor="start" x="124.3755" y="-1531" font-family="arial" font-size="10.00" fill="#000000"> in age #pri #chron&#45;hyp</text>
</g>
<!-- n3&#45;&gt;n35 -->
<g id="edge2" class="edge">
<title>n3&#45;&gt;n35</title>
<path fill="none" stroke="#ff0000" d="M341.7077,-1677.8981C311.6177,-1656.2571 268.2688,-1625.08 233.3172,-1599.9424"/>
<polygon fill="#ff0000" stroke="#ff0000" points="235.2461,-1597.0185 225.0841,-1594.0211 231.1589,-1602.7014 235.2461,-1597.0185"/>
</g>
<!-- n36 -->
<g id="node13" class="node">
<title>n36</title>
<path fill="#b8860b" stroke="#000000" d="M232,-544C232,-544 60,-544 60,-544 54,-544 48,-538 48,-532 48,-532 48,-520 48,-520 48,-514 54,-508 60,-508 60,-508 232,-508 232,-508 238,-508 244,-514 244,-520 244,-520 244,-532 244,-532 244,-538 238,-544 232,-544"/>
<text text-anchor="start" x="78.494" y="-524" font-family="arial" font-weight="bold" font-size="10.00" fill="#000000">Dating the Main Culm &#45; GRE.1</text>
</g>
<!-- n3&#45;&gt;n36 -->
<g id="edge11" class="edge">
<title>n3&#45;&gt;n36</title>
<path fill="none" stroke="#ff0000" d="M306.4153,-1677.9884C293.3182,-1673.2906 279.7598,-1668.4678 267,-1664 178.3888,-1632.973 123.8361,-1670.728 67,-1596 20.1073,-1534.3455 57,-1499.4609 57,-1422 57,-1422 57,-1422 57,-1174 57,-1048.222 7.7228,-723.2922 58,-608 68.3253,-584.3228 89.2177,-564.3822 108.0548,-550.0951"/>
<polygon fill="#ff0000" stroke="#ff0000" points="110.2205,-552.8477 116.2416,-544.13 106.0983,-547.1902 110.2205,-552.8477"/>
</g>
<!-- n37 -->
<g id="node14" class="node">
<title>n37</title>
<path fill="#ff8c00" stroke="#000000" d="M380,-1316C380,-1316 208,-1316 208,-1316 202,-1316 196,-1310 196,-1304 196,-1304 196,-1292 196,-1292 196,-1286 202,-1280 208,-1280 208,-1280 380,-1280 380,-1280 386,-1280 392,-1286 392,-1292 392,-1292 392,-1304 392,-1304 392,-1310 386,-1316 380,-1316"/>
<text text-anchor="start" x="220.935" y="-1296" font-family="arial" font-weight="bold" font-size="10.00" fill="#000000">Redating the Main Culm &#45; COA.1</text>
</g>
<!-- n3&#45;&gt;n37 -->
<g id="edge124" class="edge">
<title>n3&#45;&gt;n37</title>
<path fill="none" stroke="#00ff00" d="M367.9703,-1677.8766C353.7929,-1641.7238 326.4347,-1574.7062 298,-1520 280.7042,-1486.7242 264.1574,-1484.1005 254,-1448 241.9459,-1405.1585 262.0852,-1355.175 277.9015,-1325.0883"/>
<polygon fill="#00ff00" stroke="#00ff00" points="281.1148,-1326.5069 282.8385,-1316.0533 274.972,-1323.1503 281.1148,-1326.5069"/>
</g>
<!-- n38 -->
<g id="node15" class="node">
<title>n38</title>
<path fill="#eead0e" stroke="#000000" d="M320,-938C320,-938 148,-938 148,-938 142,-938 136,-932 136,-926 136,-926 136,-914 136,-914 136,-908 142,-902 148,-902 148,-902 320,-902 320,-902 326,-902 332,-908 332,-914 332,-914 332,-926 332,-926 332,-932 326,-938 320,-938"/>
<text text-anchor="start" x="161.49" y="-918" font-family="arial" font-weight="bold" font-size="10.00" fill="#000000">Redating the Main Culm &#45; DEV.1</text>
</g>
<!-- n3&#45;&gt;n38 -->
<g id="edge31" class="edge">
<title>n3&#45;&gt;n38</title>
<path fill="none" stroke="#ff0000" d="M353.3727,-1677.6696C335.3685,-1656.9868 311.7783,-1626.6457 298,-1596 283.8454,-1564.5174 296.18,-1551.4711 282,-1520 231.4987,-1407.9174 117,-1420.9345 117,-1298 117,-1298 117,-1298 117,-1174 117,-1106.855 106.3942,-1084.7466 135,-1024 150.0391,-992.0632 178.7329,-963.6361 201.3731,-944.6081"/>
<polygon fill="#ff0000" stroke="#ff0000" points="203.883,-947.0767 209.4038,-938.034 199.4488,-941.6602 203.883,-947.0767"/>
</g>
<!-- n4&#45;&gt;n35 -->
<g id="edge3" class="edge">
<title>n4&#45;&gt;n35</title>
<path fill="none" stroke="#ff0000" d="M353.2609,-680.0618C332.7257,-692.8564 307.5899,-708.4767 285,-722.4 260.6148,-737.4298 251.3781,-736.934 230,-756 174.4642,-805.5294 154.8476,-818.9935 127,-888 79.1705,-1006.5215 97,-1046.1915 97,-1174 97,-1298 97,-1298 97,-1298 97,-1376.0825 129.6734,-1462.0037 152.7266,-1512.909"/>
<polygon fill="#ff0000" stroke="#ff0000" points="149.5489,-1514.376 156.9092,-1521.9968 155.9077,-1511.4494 149.5489,-1514.376"/>
</g>
<!-- n4&#45;&gt;n36 -->
<g id="edge12" class="edge">
<title>n4&#45;&gt;n36</title>
<path fill="none" stroke="#ff0000" d="M344.311,-627.943C299.1371,-604.7211 233.6723,-571.0685 190.4892,-548.8699"/>
<polygon fill="#ff0000" stroke="#ff0000" points="191.854,-545.6362 181.3601,-544.1771 188.6537,-551.8618 191.854,-545.6362"/>
</g>
<!-- n4&#45;&gt;n37 -->
<g id="edge21" class="edge">
<title>n4&#45;&gt;n37</title>
<path fill="none" stroke="#ff0000" d="M343.8886,-680.115C315.8962,-697.4619 283.7714,-723.1049 268,-756 256.4713,-780.0458 256.5805,-791.9021 268,-816 289.6402,-861.666 331.0865,-844.0341 356,-888 386.1199,-941.1539 371.5437,-963.0682 376,-1024 377.6858,-1047.0495 387.3868,-1055.8887 376,-1076 345.3557,-1130.1237 286.6443,-1093.8763 256,-1148 233.7133,-1187.3625 257.183,-1239.8365 275.8598,-1271.1458"/>
<polygon fill="#ff0000" stroke="#ff0000" points="272.9592,-1273.1097 281.202,-1279.766 278.9092,-1269.4222 272.9592,-1273.1097"/>
</g>
<!-- n4&#45;&gt;n38 -->
<g id="edge125" class="edge">
<title>n4&#45;&gt;n38</title>
<path fill="none" stroke="#00ff00" d="M350.978,-680.0796C313.828,-703.0341 264.848,-735.8533 253,-756 228.2204,-798.1359 228.0241,-856.9146 230.6543,-891.4618"/>
<polygon fill="#00ff00" stroke="#00ff00" points="227.2,-892.1282 231.5801,-901.7752 234.172,-891.5023 227.2,-892.1282"/>
</g>
<!-- n5&#45;&gt;n35 -->
<g id="edge4" class="edge">
<title>n5&#45;&gt;n35</title>
<path fill="none" stroke="#ff0000" d="M160.6375,-680.3063C131.7601,-726.6771 77,-826.8858 77,-920 77,-1298 77,-1298 77,-1298 77,-1364.9992 67.5825,-1385.6087 92,-1448 101.3837,-1471.9771 117.5472,-1495.2357 133.1314,-1514.1421"/>
<polygon fill="#ff0000" stroke="#ff0000" points="130.622,-1516.5949 139.7534,-1521.9677 135.9656,-1512.0731 130.622,-1516.5949"/>
</g>
<!-- n5&#45;&gt;n36 -->
<g id="edge13" class="edge">
<title>n5&#45;&gt;n36</title>
<path fill="none" stroke="#ff0000" d="M171.4471,-627.7884C166.0801,-606.3205 158.5036,-576.0146 153.0148,-554.0591"/>
<polygon fill="#ff0000" stroke="#ff0000" points="156.402,-553.1769 150.5811,-544.3244 149.611,-554.8747 156.402,-553.1769"/>
</g>
<!-- n5&#45;&gt;n37 -->
<g id="edge22" class="edge">
<title>n5&#45;&gt;n37</title>
<path fill="none" stroke="#ff0000" d="M179.8377,-680.1277C183.4404,-714.4571 194.0327,-775.166 225,-816 261.6661,-864.3485 307.7129,-837.2659 341,-888 349.3787,-900.7703 359.8859,-1008.767 361,-1024 362.6858,-1047.0495 372.3119,-1055.8465 361,-1076 330.9296,-1129.5742 273.0704,-1094.4258 243,-1148 220.3572,-1188.341 249.4791,-1240.4193 272.122,-1271.4002"/>
<polygon fill="#ff0000" stroke="#ff0000" points="269.464,-1273.6879 278.2883,-1279.5516 275.0466,-1269.4649 269.464,-1273.6879"/>
</g>
<!-- n5&#45;&gt;n38 -->
<g id="edge32" class="edge">
<title>n5&#45;&gt;n38</title>
<path fill="none" stroke="#ff0000" d="M172.5907,-680.077C166.8931,-712.5518 160.3502,-769.4301 173,-816 180.7909,-844.682 198.7048,-873.5408 213.1157,-893.5569"/>
<polygon fill="#ff0000" stroke="#ff0000" points="210.4775,-895.8758 219.239,-901.8328 216.1046,-891.7122 210.4775,-895.8758"/>
</g>
<!-- n6&#45;&gt;n35 -->
<g id="edge5" class="edge">
<title>n6&#45;&gt;n35</title>
<path fill="none" stroke="#ff0000" d="M223.2118,-1076.1182C204.4679,-1094.1368 182.2235,-1119.8503 172,-1148 126.5941,-1273.0218 149.0722,-1433.974 164.5258,-1511.7937"/>
<polygon fill="#ff0000" stroke="#ff0000" points="161.1309,-1512.6627 166.5581,-1521.762 167.9898,-1511.2643 161.1309,-1512.6627"/>
</g>
<!-- n6&#45;&gt;n36 -->
<g id="edge14" class="edge">
<title>n6&#45;&gt;n36</title>
<path fill="none" stroke="#ff0000" d="M205.7008,-1023.8138C178.6754,-1006.7706 146.5803,-982.1216 127,-952 69.754,-863.9351 83.534,-826.6853 71,-722.4 64.9327,-671.9189 52.5939,-655.3959 71,-608 79.7029,-585.59 97.7032,-565.5681 113.8879,-550.919"/>
<polygon fill="#ff0000" stroke="#ff0000" points="116.3938,-553.378 121.6385,-544.1723 111.7978,-548.0981 116.3938,-553.378"/>
</g>
<!-- n6&#45;&gt;n37 -->
<g id="edge23" class="edge">
<title>n6&#45;&gt;n37</title>
<path fill="none" stroke="#ff0000" d="M237.1995,-1076.1297C219.968,-1106.3651 197.6917,-1157.4501 213,-1200 223.2653,-1228.5326 245.8384,-1254.6631 264.554,-1272.7533"/>
<polygon fill="#ff0000" stroke="#ff0000" points="262.5996,-1275.718 272.2917,-1279.9975 267.3837,-1270.608 262.5996,-1275.718"/>
</g>
<!-- n6&#45;&gt;n38 -->
<g id="edge33" class="edge">
<title>n6&#45;&gt;n38</title>
<path fill="none" stroke="#ff0000" d="M249.9527,-1023.6926C246.5828,-1001.7879 241.7948,-970.6659 238.3447,-948.2405"/>
<polygon fill="#ff0000" stroke="#ff0000" points="241.7971,-947.6629 236.8171,-938.3115 234.8785,-948.7274 241.7971,-947.6629"/>
</g>
<!-- n7&#45;&gt;n36 -->
<g id="edge126" class="edge">
<title>n7&#45;&gt;n36</title>
<path fill="none" stroke="#00ff00" d="M382.2843,-1395.6818C412.795,-1356.0717 467.539,-1277.4911 488,-1200 521.5976,-1072.7573 586.014,-710.9233 504,-608 473.137,-569.2686 347.9129,-547.3488 254.2074,-536.0991"/>
<polygon fill="#00ff00" stroke="#00ff00" points="254.436,-532.602 244.096,-534.9116 253.6194,-539.5542 254.436,-532.602"/>
</g>
<!-- n7&#45;&gt;n37 -->
<g id="edge24" class="edge">
<title>n7&#45;&gt;n37</title>
<path fill="none" stroke="#ff0000" d="M346.791,-1395.7028C335.5986,-1374.9884 320.048,-1346.2082 308.7245,-1325.2513"/>
<polygon fill="#ff0000" stroke="#ff0000" points="311.6831,-1323.3641 303.8501,-1316.23 305.5246,-1326.6917 311.6831,-1323.3641"/>
</g>
<!-- n7&#45;&gt;n38 -->
<g id="edge34" class="edge">
<title>n7&#45;&gt;n38</title>
<path fill="none" stroke="#ff0000" d="M282.8863,-1395.9288C248.2119,-1380.404 210.1016,-1357.1319 187,-1324 148.5322,-1268.8304 124.0444,-1087.2179 147,-1024 158.3278,-992.8041 183.5663,-964.4254 203.9574,-945.2228"/>
<polygon fill="#ff0000" stroke="#ff0000" points="206.4805,-947.6583 211.4961,-938.3258 201.7554,-942.4936 206.4805,-947.6583"/>
</g>
<!-- n8 -->
<g id="node9" class="node">
<title>n8</title>
<path fill="#ffffff" stroke="#f5f5dc" stroke-width="2" d="M246.5,-1736C246.5,-1736 67.5,-1736 67.5,-1736 61.5,-1736 55.5,-1730 55.5,-1724 55.5,-1724 55.5,-1684 55.5,-1684 55.5,-1678 61.5,-1672 67.5,-1672 67.5,-1672 246.5,-1672 246.5,-1672 252.5,-1672 258.5,-1678 258.5,-1684 258.5,-1684 258.5,-1724 258.5,-1724 258.5,-1730 252.5,-1736 246.5,-1736"/>
<text text-anchor="start" x="65.557" y="-1722" font-family="arial" font-weight="bold" font-size="10.00" fill="#000000">Main Culm as Post&#45;Primary and Pre&#45;NRS</text>
<text text-anchor="start" x="77.487" y="-1705" font-family="arial" font-size="10.00" fill="#000000">The main Culm strata are older than</text>
<text text-anchor="start" x="73.3165" y="-1693" font-family="arial" font-size="10.00" fill="#000000"> Primary strata and younger than New</text>
<text text-anchor="start" x="71.6415" y="-1681" font-family="arial" font-size="10.00" fill="#000000"> Red Sandstone strata #pri #chron&#45;hyp</text>
</g>
<!-- n8&#45;&gt;n35 -->
<g id="edge127" class="edge">
<title>n8&#45;&gt;n35</title>
<path fill="none" stroke="#00ff00" d="M160.9502,-1671.9597C163.3981,-1652.1045 166.5829,-1626.2721 169.3013,-1604.2232"/>
<polygon fill="#00ff00" stroke="#00ff00" points="172.8029,-1604.424 170.5529,-1594.0709 165.8555,-1603.5674 172.8029,-1604.424"/>
</g>
<!-- n9 -->
<g id="node10" class="node">
<title>n9</title>
<path fill="#ffffff" stroke="#ff8c00" stroke-width="2" d="M467,-1200C467,-1200 289,-1200 289,-1200 283,-1200 277,-1194 277,-1188 277,-1188 277,-1160 277,-1160 277,-1154 283,-1148 289,-1148 289,-1148 467,-1148 467,-1148 473,-1148 479,-1154 479,-1160 479,-1160 479,-1188 479,-1188 479,-1194 473,-1200 467,-1200"/>
<text text-anchor="start" x="338.282" y="-1186" font-family="arial" font-weight="bold" font-size="10.00" fill="#000000">Main Culm as CM</text>
<text text-anchor="start" x="286.599" y="-1169" font-family="arial" font-size="10.00" fill="#000000">The whole of the main Culm is CM in age</text>
<text text-anchor="start" x="335.2125" y="-1157" font-family="arial" font-size="10.00" fill="#000000"> #COA #chron&#45;hyp </text>
</g>
<!-- n9&#45;&gt;n0 -->
<g id="edge20" class="edge">
<title>n9&#45;&gt;n0</title>
<path fill="none" stroke="#ff0000" d="M403.188,-1147.8568C483.3143,-1064.6918 733.0204,-805.5157 834.9741,-699.6956"/>
<polygon fill="#ff0000" stroke="#ff0000" points="837.6372,-701.9759 842.055,-692.3461 832.5962,-697.1191 837.6372,-701.9759"/>
</g>
<!-- n9&#45;&gt;n3 -->
<g id="edge15" class="edge">
<title>n9&#45;&gt;n3</title>
<path fill="none" stroke="#00ff00" d="M392.9269,-1200.2381C414.9328,-1240.6964 454.8915,-1321.4527 468,-1396 485.7754,-1497.0879 431.3478,-1612.204 399.4391,-1668.7958"/>
<polygon fill="#00ff00" stroke="#00ff00" points="396.2765,-1667.275 394.3357,-1677.6906 402.3481,-1670.7587 396.2765,-1667.275"/>
</g>
<!-- n9&#45;&gt;n4 -->
<g id="edge16" class="edge">
<title>n9&#45;&gt;n4</title>
<path fill="none" stroke="#ff0000" d="M396.8634,-1147.8021C409.7226,-1128.7488 426.1449,-1101.8645 436,-1076 477.9284,-965.9597 475.6133,-933.2058 487,-816 489.5786,-789.4583 496.5672,-780.8914 487,-756 476.7278,-729.2744 455.8549,-705.1816 436.5841,-687.1306"/>
<polygon fill="#ff0000" stroke="#ff0000" points="438.7806,-684.3976 429.0231,-680.2694 434.0766,-689.5814 438.7806,-684.3976"/>
</g>
<!-- n9&#45;&gt;n5 -->
<g id="edge17" class="edge">
<title>n9&#45;&gt;n5</title>
<path fill="none" stroke="#ff0000" d="M382.9368,-1147.8222C391.5168,-1094.8296 403.9979,-972.704 356,-888 331.0865,-844.0341 300.4032,-854.7777 268,-816 235.2823,-776.8459 208.562,-724.0323 192.9645,-689.5094"/>
<polygon fill="#ff0000" stroke="#ff0000" points="196.124,-688.0004 188.8644,-680.2837 189.7273,-690.8433 196.124,-688.0004"/>
</g>
<!-- n9&#45;&gt;n6 -->
<g id="edge18" class="edge">
<title>n9&#45;&gt;n6</title>
<path fill="none" stroke="#ff0000" d="M351.7028,-1147.7028C332.9612,-1128.9612 307.617,-1103.617 287.4381,-1083.4381"/>
<polygon fill="#ff0000" stroke="#ff0000" points="289.8053,-1080.8555 280.2593,-1076.2593 284.8555,-1085.8053 289.8053,-1080.8555"/>
</g>
<!-- n9&#45;&gt;n7 -->
<g id="edge19" class="edge">
<title>n9&#45;&gt;n7</title>
<path fill="none" stroke="#ff0000" d="M392.6996,-1200.0451C407.719,-1229.9874 427.3474,-1280.5954 416,-1324 410.1053,-1346.5478 397.7366,-1369.3907 386.2191,-1387.3441"/>
<polygon fill="#ff0000" stroke="#ff0000" points="383.2621,-1385.4703 380.6655,-1395.7421 389.1009,-1389.3315 383.2621,-1385.4703"/>
</g>
<!-- n10 -->
<g id="node11" class="node">
<title>n10</title>
<path fill="#ffffff" stroke="#eead0e" stroke-width="2" d="M466.5,-816C466.5,-816 289.5,-816 289.5,-816 283.5,-816 277.5,-810 277.5,-804 277.5,-804 277.5,-776 277.5,-776 277.5,-770 283.5,-764 289.5,-764 289.5,-764 466.5,-764 466.5,-764 472.5,-764 478.5,-770 478.5,-776 478.5,-776 478.5,-804 478.5,-804 478.5,-810 472.5,-816 466.5,-816"/>
<text text-anchor="start" x="339.612" y="-802" font-family="arial" font-weight="bold" font-size="10.00" fill="#000000">Main Culm as ML</text>
<text text-anchor="start" x="287.929" y="-785" font-family="arial" font-size="10.00" fill="#000000">The whole of the main Culm is ML in age</text>
<text text-anchor="start" x="337.657" y="-773" font-family="arial" font-size="10.00" fill="#000000"> #DEV #chron&#45;hyp</text>
</g>
<!-- n10&#45;&gt;n0 -->
<g id="edge30" class="edge">
<title>n10&#45;&gt;n0</title>
<path fill="none" stroke="#ff0000" d="M478.8856,-783.7793C560.2809,-776.1674 676.5352,-759.356 772,-722.4 788.3281,-716.0791 804.8227,-707.0976 819.8091,-697.7145"/>
<polygon fill="#ff0000" stroke="#ff0000" points="821.9279,-700.5132 828.4459,-692.1606 818.1418,-694.6255 821.9279,-700.5132"/>
</g>
<!-- n10&#45;&gt;n3 -->
<g id="edge25" class="edge">
<title>n10&#45;&gt;n3</title>
<path fill="none" stroke="#ff0000" d="M389.0738,-816.3103C412.9745,-874.6932 468.7852,-1020.0438 488,-1148 517.6585,-1345.5034 526.5743,-1410.3282 453,-1596 442.3567,-1622.8594 423.9059,-1649.558 407.9689,-1669.6899"/>
<polygon fill="#ff0000" stroke="#ff0000" points="405.1213,-1667.645 401.5517,-1677.6204 410.563,-1672.0483 405.1213,-1667.645"/>
</g>
<!-- n10&#45;&gt;n4 -->
<g id="edge26" class="edge">
<title>n10&#45;&gt;n4</title>
<path fill="none" stroke="#00ff00" d="M381.2778,-763.7778C383.8883,-742.8938 387.5717,-713.4262 390.4652,-690.2787"/>
<polygon fill="#00ff00" stroke="#00ff00" points="393.9648,-690.4986 391.7323,-680.1417 387.0189,-689.6303 393.9648,-690.4986"/>
</g>
<!-- n10&#45;&gt;n5 -->
<g id="edge27" class="edge">
<title>n10&#45;&gt;n5</title>
<path fill="none" stroke="#ff0000" d="M339.438,-763.7778C306.7894,-741.5768 259.8756,-709.6754 225.0274,-685.9786"/>
<polygon fill="#ff0000" stroke="#ff0000" points="226.681,-682.8706 216.4436,-680.1417 222.7448,-688.6591 226.681,-682.8706"/>
</g>
<!-- n10&#45;&gt;n6 -->
<g id="edge28" class="edge">
<title>n10&#45;&gt;n6</title>
<path fill="none" stroke="#ff0000" d="M376.0559,-816.0503C372.706,-849.2417 363.8376,-907.6224 341,-952 328.6115,-976.073 308.9415,-998.9415 291.4364,-1016.5235"/>
<polygon fill="#ff0000" stroke="#ff0000" points="288.7839,-1014.2226 284.0943,-1023.7231 293.6849,-1019.2207 288.7839,-1014.2226"/>
</g>
<!-- n10&#45;&gt;n7 -->
<g id="edge29" class="edge">
<title>n10&#45;&gt;n7</title>
<path fill="none" stroke="#ff0000" d="M388.7681,-816.3027C408.7113,-869.5228 445.1029,-992.0414 396,-1076 363.048,-1132.3428 300.952,-1091.6572 268,-1148 256.3325,-1167.9497 256.1712,-1180.1455 268,-1200 302.4033,-1257.7454 366.5967,-1214.2546 401,-1272 422.3438,-1307.8253 403.2752,-1355.1399 384.8479,-1386.9686"/>
<polygon fill="#ff0000" stroke="#ff0000" points="381.6189,-1385.5453 379.4491,-1395.9156 387.6123,-1389.1619 381.6189,-1385.5453"/>
</g>
<!-- n35&#45;&gt;n7 -->
<g id="edge111" class="edge">
<title>n35&#45;&gt;n7</title>
<path fill="none" stroke="#00ff00" d="M224.3563,-1521.9116C253.1288,-1500.8735 289.1093,-1474.5652 316.9257,-1454.2264"/>
<polygon fill="#00ff00" stroke="#00ff00" points="319.2727,-1456.8461 325.2792,-1448.1184 315.1411,-1451.1955 319.2727,-1456.8461"/>
</g>
<!-- n36&#45;&gt;n1 -->
<g id="edge112" class="edge">
<title>n36&#45;&gt;n1</title>
<path fill="none" stroke="#00ff00" d="M106.4559,-544.0673C81.2199,-557.8179 50.2894,-579.2829 34,-608 -6.0832,-678.6642 17,-708.759 17,-790 17,-1558 17,-1558 17,-1558 17,-1639.0365 -23.2966,-1677.2659 28,-1740 66.3171,-1786.8606 223.5492,-1818.6707 332.5561,-1835.5803"/>
<polygon fill="#00ff00" stroke="#00ff00" points="332.2047,-1839.0672 342.6191,-1837.1204 333.2638,-1832.1478 332.2047,-1839.0672"/>
</g>
<!-- n37&#45;&gt;n9 -->
<g id="edge113" class="edge">
<title>n37&#45;&gt;n9</title>
<path fill="none" stroke="#00ff00" d="M306.2143,-1279.9693C318.8028,-1261.3863 338.7465,-1231.9457 354.4212,-1208.8068"/>
<polygon fill="#00ff00" stroke="#00ff00" points="357.4846,-1210.5252 360.1954,-1200.283 351.6891,-1206.5992 357.4846,-1210.5252"/>
</g>
<!-- n38&#45;&gt;n10 -->
<g id="edge114" class="edge">
<title>n38&#45;&gt;n10</title>
<path fill="none" stroke="#00ff00" d="M254.0226,-901.9241C276.5563,-881.5811 313.6341,-848.1081 341.3817,-823.0582"/>
<polygon fill="#00ff00" stroke="#00ff00" points="343.8634,-825.5331 348.9407,-816.2341 339.1726,-820.3372 343.8634,-825.5331"/>
</g>
<!-- n11 -->
<g id="node16" class="node">
<title>n11</title>
<path fill="#ffffff" stroke="#f5f5dc" stroke-width="2" d="M1202,-1730C1202,-1730 1030,-1730 1030,-1730 1024,-1730 1018,-1724 1018,-1718 1018,-1718 1018,-1690 1018,-1690 1018,-1684 1024,-1678 1030,-1678 1030,-1678 1202,-1678 1202,-1678 1208,-1678 1214,-1684 1214,-1690 1214,-1690 1214,-1718 1214,-1718 1214,-1724 1208,-1730 1202,-1730"/>
<text text-anchor="start" x="1075.9965" y="-1716" font-family="arial" font-weight="bold" font-size="10.00" fill="#000000">Some BCL as CM</text>
<text text-anchor="start" x="1028.482" y="-1699" font-family="arial" font-size="10.00" fill="#000000">Some part of the black Culm Limestone</text>
<text text-anchor="start" x="1050.713" y="-1687" font-family="arial" font-size="10.00" fill="#000000"> is CM in age #pri #chron&#45;hyp</text>
</g>
<!-- n39 -->
<g id="node29" class="node">
<title>n39</title>
<path fill="#f5f5dc" stroke="#000000" d="M1574,-1596C1574,-1596 1402,-1596 1402,-1596 1396,-1596 1390,-1590 1390,-1584 1390,-1584 1390,-1532 1390,-1532 1390,-1526 1396,-1520 1402,-1520 1402,-1520 1574,-1520 1574,-1520 1580,-1520 1586,-1526 1586,-1532 1586,-1532 1586,-1584 1586,-1584 1586,-1590 1580,-1596 1574,-1596"/>
<text text-anchor="start" x="1403.252" y="-1582" font-family="arial" font-weight="bold" font-size="10.00" fill="#000000">Standard Sequence as Partition &#45; BCL</text>
<text text-anchor="start" x="1421.5985" y="-1565" font-family="arial" font-size="10.00" fill="#000000">If some part of the black Culm</text>
<text text-anchor="start" x="1403.547" y="-1553" font-family="arial" font-size="10.00" fill="#000000"> Limestone is neiter CM, ML, ORS nor</text>
<text text-anchor="start" x="1405.479" y="-1541" font-family="arial" font-size="10.00" fill="#000000"> SIL in age, then it is CAM in age #pri</text>
<text text-anchor="start" x="1461.6045" y="-1529" font-family="arial" font-size="10.00" fill="#000000"> #chron&#45;hyp</text>
</g>
<!-- n11&#45;&gt;n39 -->
<g id="edge35" class="edge">
<title>n11&#45;&gt;n39</title>
<path fill="none" stroke="#ff0000" d="M1182.5061,-1677.8981C1237.7811,-1656.2042 1317.472,-1624.9277 1381.6022,-1599.7583"/>
<polygon fill="#ff0000" stroke="#ff0000" points="1382.9164,-1603.0025 1390.9464,-1596.0909 1380.3589,-1596.4864 1382.9164,-1603.0025"/>
</g>
<!-- n40 -->
<g id="node30" class="node">
<title>n40</title>
<path fill="#b8860b" stroke="#000000" d="M1468,-1316C1468,-1316 1296,-1316 1296,-1316 1290,-1316 1284,-1310 1284,-1304 1284,-1304 1284,-1292 1284,-1292 1284,-1286 1290,-1280 1296,-1280 1296,-1280 1468,-1280 1468,-1280 1474,-1280 1480,-1286 1480,-1292 1480,-1292 1480,-1304 1480,-1304 1480,-1310 1474,-1316 1468,-1316"/>
<text text-anchor="start" x="1328.656" y="-1296" font-family="arial" font-weight="bold" font-size="10.00" fill="#000000">Dating the BCL &#45; GRE.1</text>
</g>
<!-- n11&#45;&gt;n40 -->
<g id="edge44" class="edge">
<title>n11&#45;&gt;n40</title>
<path fill="none" stroke="#ff0000" d="M1137.2553,-1677.9446C1154.5126,-1656.4188 1179.1524,-1624.8262 1199,-1596 1265.7465,-1499.0587 1336.3451,-1378.0492 1366.6857,-1325.0149"/>
<polygon fill="#ff0000" stroke="#ff0000" points="1369.7896,-1326.6374 1371.7058,-1316.2172 1363.7098,-1323.1681 1369.7896,-1326.6374"/>
</g>
<!-- n41 -->
<g id="node31" class="node">
<title>n41</title>
<path fill="#ff8c00" stroke="#000000" d="M1634,-188C1634,-188 1462,-188 1462,-188 1456,-188 1450,-182 1450,-176 1450,-176 1450,-164 1450,-164 1450,-158 1456,-152 1462,-152 1462,-152 1634,-152 1634,-152 1640,-152 1646,-158 1646,-164 1646,-164 1646,-176 1646,-176 1646,-182 1640,-188 1634,-188"/>
<text text-anchor="start" x="1489.097" y="-168" font-family="arial" font-weight="bold" font-size="10.00" fill="#000000">Redating the BCL &#45; COA.1</text>
</g>
<!-- n11&#45;&gt;n41 -->
<g id="edge128" class="edge">
<title>n11&#45;&gt;n41</title>
<path fill="none" stroke="#00ff00" d="M1106.54,-1677.7112C1099.0931,-1656.05 1089.0013,-1624.3891 1083,-1596 1066.8896,-1519.7897 1062,-1499.8945 1062,-1422 1062,-1422 1062,-1422 1062,-654 1062,-473.618 1171.891,-373.6573 1317,-260 1358.9149,-227.17 1414.2587,-205.0533 1460.2668,-190.9619"/>
<polygon fill="#00ff00" stroke="#00ff00" points="1461.3536,-194.2902 1469.9346,-188.0758 1459.3512,-187.5827 1461.3536,-194.2902"/>
</g>
<!-- n42 -->
<g id="node32" class="node">
<title>n42</title>
<path fill="#ff8c00" stroke="#000000" d="M1245,-188C1245,-188 1073,-188 1073,-188 1067,-188 1061,-182 1061,-176 1061,-176 1061,-164 1061,-164 1061,-158 1067,-152 1073,-152 1073,-152 1245,-152 1245,-152 1251,-152 1257,-158 1257,-164 1257,-164 1257,-176 1257,-176 1257,-182 1251,-188 1245,-188"/>
<text text-anchor="start" x="1095.928" y="-168" font-family="arial" font-weight="bold" font-size="10.00" fill="#000000">Redating the BCL &#45; COA.3.2</text>
</g>
<!-- n11&#45;&gt;n42 -->
<g id="edge67" class="edge">
<title>n11&#45;&gt;n42</title>
<path fill="none" stroke="#ff0000" d="M1097.6719,-1677.8571C1083.9325,-1656.7922 1066.0093,-1625.8642 1057,-1596 1034.5817,-1521.6878 1042,-1499.6202 1042,-1422 1042,-1422 1042,-1422 1042,-654 1042,-585.2316 1043.4433,-567.4188 1057,-500 1080.0367,-385.4368 1127.1054,-254.0701 1148.2704,-197.8655"/>
<polygon fill="#ff0000" stroke="#ff0000" points="1151.6372,-198.8579 1151.9093,-188.2665 1145.0918,-196.3765 1151.6372,-198.8579"/>
</g>
<!-- n43 -->
<g id="node33" class="node">
<title>n43</title>
<path fill="#ff8c00" stroke="#000000" d="M1505,-544C1505,-544 1333,-544 1333,-544 1327,-544 1321,-538 1321,-532 1321,-532 1321,-520 1321,-520 1321,-514 1327,-508 1333,-508 1333,-508 1505,-508 1505,-508 1511,-508 1517,-514 1517,-520 1517,-520 1517,-532 1517,-532 1517,-538 1511,-544 1505,-544"/>
<text text-anchor="start" x="1355.928" y="-524" font-family="arial" font-weight="bold" font-size="10.00" fill="#000000">Redating the BCL &#45; COA.2.b</text>
</g>
<!-- n11&#45;&gt;n43 -->
<g id="edge75" class="edge">
<title>n11&#45;&gt;n43</title>
<path fill="none" stroke="#ff0000" d="M1113.8432,-1677.9728C1109.9161,-1628.2641 1102,-1516.3609 1102,-1422 1102,-1422 1102,-1422 1102,-920 1102,-772.3668 1109.1939,-709.9216 1216,-608 1246.5468,-578.8502 1288.8071,-559.5581 1326.8635,-547.0574"/>
<polygon fill="#ff0000" stroke="#ff0000" points="1327.9627,-550.3807 1336.4386,-544.0237 1325.8485,-543.7076 1327.9627,-550.3807"/>
</g>
<!-- n44 -->
<g id="node34" class="node">
<title>n44</title>
<path fill="#eead0e" stroke="#000000" d="M1425,-938C1425,-938 1253,-938 1253,-938 1247,-938 1241,-932 1241,-926 1241,-926 1241,-914 1241,-914 1241,-908 1247,-902 1253,-902 1253,-902 1425,-902 1425,-902 1431,-902 1437,-908 1437,-914 1437,-914 1437,-926 1437,-926 1437,-932 1431,-938 1425,-938"/>
<text text-anchor="start" x="1280.652" y="-918" font-family="arial" font-weight="bold" font-size="10.00" fill="#000000">Redating the BCL &#45; DEV.1</text>
</g>
<!-- n11&#45;&gt;n44 -->
<g id="edge84" class="edge">
<title>n11&#45;&gt;n44</title>
<path fill="none" stroke="#ff0000" d="M1129.0312,-1677.636C1139.002,-1656.1942 1152.1658,-1624.8689 1159,-1596 1176.8809,-1520.4675 1174,-1499.6202 1174,-1422 1174,-1422 1174,-1422 1174,-1174 1174,-1104.5244 1180.3293,-1082.3762 1218,-1024 1239.3454,-990.9222 1274.2825,-962.5186 1301.1417,-943.7938"/>
<polygon fill="#ff0000" stroke="#ff0000" points="1303.26,-946.5857 1309.5509,-938.0608 1299.3168,-940.802 1303.26,-946.5857"/>
</g>
<!-- n12 -->
<g id="node17" class="node">
<title>n12</title>
<path fill="#ffffff" stroke="#f5f5dc" stroke-width="2" d="M1574,-312C1574,-312 1402,-312 1402,-312 1396,-312 1390,-306 1390,-300 1390,-300 1390,-272 1390,-272 1390,-266 1396,-260 1402,-260 1402,-260 1574,-260 1574,-260 1580,-260 1586,-266 1586,-272 1586,-272 1586,-300 1586,-300 1586,-306 1580,-312 1574,-312"/>
<text text-anchor="start" x="1448.8265" y="-298" font-family="arial" font-weight="bold" font-size="10.00" fill="#000000">Some BCL as ML</text>
<text text-anchor="start" x="1400.482" y="-281" font-family="arial" font-size="10.00" fill="#000000">Some part of the black Culm Limestone</text>
<text text-anchor="start" x="1423.543" y="-269" font-family="arial" font-size="10.00" fill="#000000"> is ML in age #pri #chron&#45;hyp</text>
</g>
<!-- n12&#45;&gt;n39 -->
<g id="edge36" class="edge">
<title>n12&#45;&gt;n39</title>
<path fill="none" stroke="#ff0000" d="M1526.9402,-312.1763C1549.2637,-329.6091 1575.3024,-354.6651 1588,-384 1653.6911,-535.7644 1592.9695,-590.6562 1596,-756 1597.0752,-814.6635 1597.5555,-829.3283 1598,-888 1598.2155,-916.4436 1600.5504,-923.6701 1598,-952 1596.7359,-966.0423 1522.8492,-1368.5027 1496.8955,-1509.6511"/>
<polygon fill="#ff0000" stroke="#ff0000" points="1493.4054,-1509.2785 1495.0389,-1519.7467 1500.2899,-1510.5446 1493.4054,-1509.2785"/>
</g>
<!-- n12&#45;&gt;n40 -->
<g id="edge45" class="edge">
<title>n12&#45;&gt;n40</title>
<path fill="none" stroke="#ff0000" d="M1521.4757,-312.117C1541.567,-329.9542 1565.4085,-355.4675 1577,-384 1603.7733,-449.9025 1581.598,-472.8692 1581,-544 1578.5311,-837.6517 1649.0079,-945.7834 1502,-1200 1483.6721,-1231.6939 1450.9102,-1257.3893 1424.2444,-1274.5051"/>
<polygon fill="#ff0000" stroke="#ff0000" points="1422.1001,-1271.7174 1415.4646,-1279.977 1425.8026,-1277.6581 1422.1001,-1271.7174"/>
</g>
<!-- n12&#45;&gt;n41 -->
<g id="edge53" class="edge">
<title>n12&#45;&gt;n41</title>
<path fill="none" stroke="#ff0000" d="M1501.4652,-259.9673C1511.1599,-241.2242 1524.2049,-216.0039 1534.0163,-197.0351"/>
<polygon fill="#ff0000" stroke="#ff0000" points="1537.195,-198.5078 1538.6806,-188.0176 1530.9775,-195.2918 1537.195,-198.5078"/>
</g>
<!-- n12&#45;&gt;n42 -->
<g id="edge68" class="edge">
<title>n12&#45;&gt;n42</title>
<path fill="none" stroke="#ff0000" d="M1414.166,-259.9673C1355.545,-239.2985 1274.5846,-210.7532 1219.6959,-191.4004"/>
<polygon fill="#ff0000" stroke="#ff0000" points="1220.6964,-188.042 1210.1016,-188.0176 1218.3687,-194.6437 1220.6964,-188.042"/>
</g>
<!-- n12&#45;&gt;n43 -->
<g id="edge129" class="edge">
<title>n12&#45;&gt;n43</title>
<path fill="none" stroke="#00ff00" d="M1426.8213,-312.0538C1397.2948,-328.1332 1364.7156,-351.8951 1348,-384 1326.8509,-424.6201 1363.063,-472.3292 1391.0866,-500.8144"/>
<polygon fill="#00ff00" stroke="#00ff00" points="1388.7748,-503.45 1398.3564,-507.9715 1393.6858,-498.4617 1388.7748,-503.45"/>
</g>
<!-- n12&#45;&gt;n44 -->
<g id="edge85" class="edge">
<title>n12&#45;&gt;n44</title>
<path fill="none" stroke="#ff0000" d="M1426.1291,-312.047C1394.8236,-328.3008 1358.9109,-352.2255 1337,-384 1316.635,-413.5327 1290.5611,-507.983 1312,-544 1342.5161,-595.2667 1399.4839,-556.7333 1430,-608 1456.0062,-651.6902 1433.2394,-671.6589 1430,-722.4 1427.3279,-764.2553 1433.8897,-777.1861 1418,-816 1405.7144,-846.01 1382.5001,-874.9475 1364.4021,-894.6447"/>
<polygon fill="#ff0000" stroke="#ff0000" points="1361.8039,-892.2986 1357.503,-901.9812 1366.9033,-897.0941 1361.8039,-892.2986"/>
</g>
<!-- n13 -->
<g id="node18" class="node">
<title>n13</title>
<path fill="#ffffff" stroke="#f5f5dc" stroke-width="2" d="M1409,-680C1409,-680 1237,-680 1237,-680 1231,-680 1225,-674 1225,-668 1225,-668 1225,-640 1225,-640 1225,-634 1231,-628 1237,-628 1237,-628 1409,-628 1409,-628 1415,-628 1421,-634 1421,-640 1421,-640 1421,-668 1421,-668 1421,-674 1415,-680 1409,-680"/>
<text text-anchor="start" x="1279.937" y="-666" font-family="arial" font-weight="bold" font-size="10.00" fill="#000000">Some BCL as ORS</text>
<text text-anchor="start" x="1235.482" y="-649" font-family="arial" font-size="10.00" fill="#000000">Some part of the black Culm Limestone</text>
<text text-anchor="start" x="1254.6535" y="-637" font-family="arial" font-size="10.00" fill="#000000"> is ORS in age #pri #chron&#45;hyp</text>
</g>
<!-- n13&#45;&gt;n39 -->
<g id="edge37" class="edge">
<title>n13&#45;&gt;n39</title>
<path fill="none" stroke="#ff0000" d="M1362.2229,-680.1261C1386.5141,-698.4457 1416.1846,-725.1225 1433,-756 1528.5101,-931.3816 1505.9026,-1000.3361 1502,-1200 1499.8322,-1310.9097 1493.8902,-1441.0365 1490.4847,-1509.7765"/>
<polygon fill="#ff0000" stroke="#ff0000" points="1486.984,-1509.7045 1489.9812,-1519.8666 1493.9753,-1510.0535 1486.984,-1509.7045"/>
</g>
<!-- n13&#45;&gt;n40 -->
<g id="edge46" class="edge">
<title>n13&#45;&gt;n40</title>
<path fill="none" stroke="#ff0000" d="M1269.6508,-680.1393C1240.9511,-697.3525 1208.2011,-722.8525 1192,-756 1129.3424,-884.198 1181.5139,-938.0527 1218,-1076 1233.4159,-1134.2848 1237.5794,-1151.2132 1273,-1200 1293.997,-1228.9204 1324.7609,-1255.6036 1348.2562,-1273.8003"/>
<polygon fill="#ff0000" stroke="#ff0000" points="1346.1583,-1276.602 1356.2357,-1279.8725 1350.3973,-1271.0314 1346.1583,-1276.602"/>
</g>
<!-- n13&#45;&gt;n41 -->
<g id="edge54" class="edge">
<title>n13&#45;&gt;n41</title>
<path fill="none" stroke="#ff0000" d="M1308.5651,-627.8235C1297.4602,-606.1088 1283.0275,-574.0369 1277,-544 1270.4368,-511.2939 1269.6941,-414.3525 1281,-384 1305.7131,-317.6539 1326.5415,-305.2418 1381,-260 1415.156,-231.6247 1459.6554,-208.1744 1494.1296,-192.3319"/>
<polygon fill="#ff0000" stroke="#ff0000" points="1495.8977,-195.3738 1503.5703,-188.0675 1493.0161,-188.9944 1495.8977,-195.3738"/>
</g>
<!-- n13&#45;&gt;n42 -->
<g id="edge130" class="edge">
<title>n13&#45;&gt;n42</title>
<path fill="none" stroke="#00ff00" d="M1269.9117,-627.8393C1238.1993,-609.1572 1200.4173,-580.8255 1181,-544 1149.4829,-484.2268 1154.6343,-275.1035 1157.6931,-198.4455"/>
<polygon fill="#00ff00" stroke="#00ff00" points="1161.2035,-198.2676 1158.1245,-188.13 1154.2096,-197.9749 1161.2035,-198.2676"/>
</g>
<!-- n13&#45;&gt;n43 -->
<g id="edge76" class="edge">
<title>n13&#45;&gt;n43</title>
<path fill="none" stroke="#ff0000" d="M1342.6587,-627.7884C1359.1239,-605.8348 1382.5209,-574.6387 1399.0635,-552.582"/>
<polygon fill="#ff0000" stroke="#ff0000" points="1402.0567,-554.4244 1405.2567,-544.3244 1396.4567,-550.2244 1402.0567,-554.4244"/>
</g>
<!-- n13&#45;&gt;n44 -->
<g id="edge131" class="edge">
<title>n13&#45;&gt;n44</title>
<path fill="none" stroke="#00ff00" d="M1354.7718,-680.235C1374.8325,-698.9723 1398.9734,-726.0806 1410,-756 1419.2215,-781.0215 1417.868,-790.5205 1410,-816 1400.8158,-845.7419 1379.8847,-874.5712 1363.1146,-894.3027"/>
<polygon fill="#00ff00" stroke="#00ff00" points="1360.4044,-892.0851 1356.4615,-901.9189 1365.6763,-896.6903 1360.4044,-892.0851"/>
</g>
<!-- n14 -->
<g id="node19" class="node">
<title>n14</title>
<path fill="#ffffff" stroke="#f5f5dc" stroke-width="2" d="M1411,-1076C1411,-1076 1239,-1076 1239,-1076 1233,-1076 1227,-1070 1227,-1064 1227,-1064 1227,-1036 1227,-1036 1227,-1030 1233,-1024 1239,-1024 1239,-1024 1411,-1024 1411,-1024 1417,-1024 1423,-1030 1423,-1036 1423,-1036 1423,-1064 1423,-1064 1423,-1070 1417,-1076 1411,-1076"/>
<text text-anchor="start" x="1285.267" y="-1062" font-family="arial" font-weight="bold" font-size="10.00" fill="#000000">Some BCL as SIL</text>
<text text-anchor="start" x="1237.482" y="-1045" font-family="arial" font-size="10.00" fill="#000000">Some part of the black Culm Limestone</text>
<text text-anchor="start" x="1259.9835" y="-1033" font-family="arial" font-size="10.00" fill="#000000"> is SIL in age #pri #chron&#45;hyp</text>
</g>
<!-- n14&#45;&gt;n39 -->
<g id="edge38" class="edge">
<title>n14&#45;&gt;n39</title>
<path fill="none" stroke="#ff0000" d="M1306.6568,-1076.0117C1294.4534,-1094.9773 1279.5122,-1121.8333 1273,-1148 1254.1076,-1223.9117 1246.1809,-1251.2747 1275,-1324 1306.1209,-1402.5339 1376.7079,-1471.1511 1428.1192,-1513.4289"/>
<polygon fill="#ff0000" stroke="#ff0000" points="1426.2269,-1516.4008 1436.1968,-1519.9856 1430.6385,-1510.9659 1426.2269,-1516.4008"/>
</g>
<!-- n14&#45;&gt;n40 -->
<g id="edge47" class="edge">
<title>n14&#45;&gt;n40</title>
<path fill="none" stroke="#ff0000" d="M1307.6438,-1076.1341C1289.7246,-1106.5925 1266.6434,-1158.0976 1284,-1200 1296.5471,-1230.2915 1323.5032,-1256.1017 1345.9739,-1273.6189"/>
<polygon fill="#ff0000" stroke="#ff0000" points="1343.9251,-1276.4575 1354.0147,-1279.6903 1348.1432,-1270.8712 1343.9251,-1276.4575"/>
</g>
<!-- n14&#45;&gt;n41 -->
<g id="edge55" class="edge">
<title>n14&#45;&gt;n41</title>
<path fill="none" stroke="#ff0000" d="M1419.6247,-1023.9936C1461.1263,-1008.6529 1507.8343,-985.5137 1541,-952 1604.9173,-887.4121 1678.6211,-560.519 1681,-544 1698.9915,-419.0666 1740.1742,-371.492 1681,-260 1664.7242,-229.3342 1632.8138,-207.207 1604.3297,-192.5673"/>
<polygon fill="#ff0000" stroke="#ff0000" points="1605.7427,-189.3616 1595.2261,-188.0759 1602.6455,-195.6392 1605.7427,-189.3616"/>
</g>
<!-- n14&#45;&gt;n42 -->
<g id="edge132" class="edge">
<title>n14&#45;&gt;n42</title>
<path fill="none" stroke="#00ff00" d="M1287.853,-1023.9933C1265.086,-1006.2001 1237.1198,-980.6944 1220,-952 1149.8543,-834.4292 1142,-790.9062 1142,-654 1142,-654 1142,-654 1142,-410 1142,-333.2073 1150.7671,-242.9379 1155.7095,-198.151"/>
<polygon fill="#00ff00" stroke="#00ff00" points="1159.2078,-198.3617 1156.8469,-188.0333 1152.2516,-197.5796 1159.2078,-198.3617"/>
</g>
<!-- n14&#45;&gt;n43 -->
<g id="edge77" class="edge">
<title>n14&#45;&gt;n43</title>
<path fill="none" stroke="#ff0000" d="M1375.2627,-1023.8337C1401.5617,-1007.1565 1431.2794,-982.8657 1446,-952 1511.3723,-814.93 1454.7861,-624.3379 1429.603,-553.7393"/>
<polygon fill="#ff0000" stroke="#ff0000" points="1432.8448,-552.4126 1426.1336,-544.2144 1426.2676,-554.8084 1432.8448,-552.4126"/>
</g>
<!-- n14&#45;&gt;n44 -->
<g id="edge86" class="edge">
<title>n14&#45;&gt;n44</title>
<path fill="none" stroke="#ff0000" d="M1327.8331,-1023.6926C1330.1814,-1001.887 1333.5134,-970.9473 1335.9259,-948.5455"/>
<polygon fill="#ff0000" stroke="#ff0000" points="1339.4371,-948.6288 1337.028,-938.3115 1332.4773,-947.8792 1339.4371,-948.6288"/>
</g>
<!-- n15 -->
<g id="node20" class="node">
<title>n15</title>
<path fill="#ffffff" stroke="#f5f5dc" stroke-width="2" d="M1711,-1448C1711,-1448 1539,-1448 1539,-1448 1533,-1448 1527,-1442 1527,-1436 1527,-1436 1527,-1408 1527,-1408 1527,-1402 1533,-1396 1539,-1396 1539,-1396 1711,-1396 1711,-1396 1717,-1396 1723,-1402 1723,-1408 1723,-1408 1723,-1436 1723,-1436 1723,-1442 1717,-1448 1711,-1448"/>
<text text-anchor="start" x="1581.662" y="-1434" font-family="arial" font-weight="bold" font-size="10.00" fill="#000000">Some BCL as CAM</text>
<text text-anchor="start" x="1537.482" y="-1417" font-family="arial" font-size="10.00" fill="#000000">Some part of the black Culm Limestone</text>
<text text-anchor="start" x="1556.3785" y="-1405" font-family="arial" font-size="10.00" fill="#000000"> is CAM in age #pri #chron&#45;hyp</text>
</g>
<!-- n15&#45;&gt;n40 -->
<g id="edge133" class="edge">
<title>n15&#45;&gt;n40</title>
<path fill="none" stroke="#00ff00" d="M1573.7629,-1395.8543C1530.1368,-1373.5924 1468.0967,-1341.9341 1426.5143,-1320.7151"/>
<polygon fill="#00ff00" stroke="#00ff00" points="1427.9457,-1317.5162 1417.4475,-1316.0885 1424.764,-1323.7514 1427.9457,-1317.5162"/>
</g>
<!-- n15&#45;&gt;n41 -->
<g id="edge56" class="edge">
<title>n15&#45;&gt;n41</title>
<path fill="none" stroke="#ff0000" d="M1650.4136,-1395.829C1667.1387,-1377.2077 1688.2254,-1350.8258 1701,-1324 1730.4328,-1262.1928 1736,-1242.4574 1736,-1174 1736,-1174 1736,-1174 1736,-526 1736,-406.4486 1762.2002,-359.5494 1696,-260 1675.3253,-228.9101 1639.8932,-206.8075 1608.8809,-192.2875"/>
<polygon fill="#ff0000" stroke="#ff0000" points="1609.9745,-188.9414 1599.4196,-188.0232 1607.0982,-195.3231 1609.9745,-188.9414"/>
</g>
<!-- n15&#45;&gt;n42 -->
<g id="edge69" class="edge">
<title>n15&#45;&gt;n42</title>
<path fill="none" stroke="#ff0000" d="M1637.9833,-1395.6121C1646.9586,-1376.2467 1658.4253,-1349.0629 1665,-1324 1710.9227,-1148.9426 1716,-1100.9806 1716,-920 1716,-920 1716,-920 1716,-790 1716,-548.3836 1788.4208,-404.7994 1595,-260 1544.1739,-221.9504 1379.0132,-195.671 1267.2029,-181.7256"/>
<polygon fill="#ff0000" stroke="#ff0000" points="1267.5826,-178.246 1257.2296,-180.4967 1266.7264,-185.1935 1267.5826,-178.246"/>
</g>
<!-- n15&#45;&gt;n43 -->
<g id="edge78" class="edge">
<title>n15&#45;&gt;n43</title>
<path fill="none" stroke="#ff0000" d="M1620.4832,-1395.955C1615.2507,-1366.0128 1606.2852,-1315.4048 1598,-1272 1541.5522,-976.2787 1567.3799,-890.7544 1464,-608 1456.9147,-588.6211 1445.777,-568.2783 1436.3551,-552.7026"/>
<polygon fill="#ff0000" stroke="#ff0000" points="1439.2869,-550.7889 1431.0495,-544.1259 1433.3339,-554.4716 1439.2869,-550.7889"/>
</g>
<!-- n15&#45;&gt;n44 -->
<g id="edge87" class="edge">
<title>n15&#45;&gt;n44</title>
<path fill="none" stroke="#ff0000" d="M1614.2479,-1395.941C1593.7652,-1346.801 1547.1554,-1237.3519 1502,-1148 1473.4554,-1091.5169 1468.8625,-1075.4421 1432,-1024 1411.4831,-995.3685 1384.2659,-965.7062 1364.5811,-945.4231"/>
<polygon fill="#ff0000" stroke="#ff0000" points="1366.934,-942.8235 1357.4352,-938.1304 1361.9341,-947.7226 1366.934,-942.8235"/>
</g>
<!-- n16 -->
<g id="node21" class="node">
<title>n16</title>
<path fill="#ffffff" stroke="#f5f5dc" stroke-width="2" d="M1574,-1736C1574,-1736 1402,-1736 1402,-1736 1396,-1736 1390,-1730 1390,-1724 1390,-1724 1390,-1684 1390,-1684 1390,-1678 1396,-1672 1402,-1672 1402,-1672 1574,-1672 1574,-1672 1580,-1672 1586,-1678 1586,-1684 1586,-1684 1586,-1724 1586,-1724 1586,-1730 1580,-1736 1574,-1736"/>
<text text-anchor="start" x="1410.219" y="-1722" font-family="arial" font-weight="bold" font-size="10.00" fill="#000000">BCL as Post&#45;Primary and Pre&#45;NRS</text>
<text text-anchor="start" x="1400.207" y="-1705" font-family="arial" font-size="10.00" fill="#000000">The black Culm Limestone is older than</text>
<text text-anchor="start" x="1403.8165" y="-1693" font-family="arial" font-size="10.00" fill="#000000"> Primary strata and younger than New</text>
<text text-anchor="start" x="1402.1415" y="-1681" font-family="arial" font-size="10.00" fill="#000000"> Red Sandstone strata #pri #chron&#45;hyp</text>
</g>
<!-- n16&#45;&gt;n39 -->
<g id="edge134" class="edge">
<title>n16&#45;&gt;n39</title>
<path fill="none" stroke="#00ff00" d="M1488,-1671.9597C1488,-1652.7714 1488,-1628.0008 1488,-1606.4575"/>
<polygon fill="#00ff00" stroke="#00ff00" points="1491.5001,-1606.1795 1488,-1596.1795 1484.5001,-1606.1795 1491.5001,-1606.1795"/>
</g>
<!-- n17 -->
<g id="node22" class="node">
<title>n17</title>
<path fill="#ffffff" stroke="#b8860b" stroke-width="2" d="M1481,-1200C1481,-1200 1305,-1200 1305,-1200 1299,-1200 1293,-1194 1293,-1188 1293,-1188 1293,-1160 1293,-1160 1293,-1154 1299,-1148 1305,-1148 1305,-1148 1481,-1148 1481,-1148 1487,-1148 1493,-1154 1493,-1160 1493,-1160 1493,-1188 1493,-1188 1493,-1194 1487,-1200 1481,-1200"/>
<text text-anchor="start" x="1364.1095" y="-1186" font-family="arial" font-weight="bold" font-size="10.00" fill="#000000">BCL as CAM</text>
<text text-anchor="start" x="1302.7025" y="-1169" font-family="arial" font-size="10.00" fill="#000000">The black Culm Limestone is nothing but</text>
<text text-anchor="start" x="1312.1505" y="-1157" font-family="arial" font-size="10.00" fill="#000000"> Cambrian in age #GRE #chron&#45;hyp </text>
</g>
<!-- n17&#45;&gt;n11 -->
<g id="edge39" class="edge">
<title>n17&#45;&gt;n11</title>
<path fill="none" stroke="#ff0000" d="M1350.4795,-1200.1113C1325.2488,-1217.6024 1294.4852,-1242.7433 1275,-1272 1211.097,-1367.9494 1230.5644,-1409.1237 1199,-1520 1189.4367,-1553.5931 1192.3663,-1563.7309 1179,-1596 1168.3153,-1621.7952 1152.4633,-1648.9336 1139.3338,-1669.5535"/>
<polygon fill="#ff0000" stroke="#ff0000" points="1136.3839,-1667.6698 1133.8966,-1677.9685 1142.2634,-1671.4687 1136.3839,-1667.6698"/>
</g>
<!-- n17&#45;&gt;n12 -->
<g id="edge40" class="edge">
<title>n17&#45;&gt;n12</title>
<path fill="none" stroke="#ff0000" d="M1409.4011,-1147.8135C1454.3186,-1073.5098 1576,-853.7844 1576,-654 1576,-654 1576,-654 1576,-526 1576,-462.7326 1588.9538,-442.9567 1566,-384 1556.6956,-360.1017 1539.4096,-337.4237 1523.4708,-319.9136"/>
<polygon fill="#ff0000" stroke="#ff0000" points="1525.6711,-317.1435 1516.2759,-312.2463 1520.5666,-321.9335 1525.6711,-317.1435"/>
</g>
<!-- n17&#45;&gt;n13 -->
<g id="edge41" class="edge">
<title>n17&#45;&gt;n13</title>
<path fill="none" stroke="#ff0000" d="M1405.7392,-1147.6011C1414.5291,-1128.2304 1425.7226,-1101.0447 1432,-1076 1452.3707,-994.7271 1454.7408,-971.3297 1446,-888 1439.7436,-828.3552 1445.6646,-809.21 1418,-756 1404.4004,-729.8426 1382.2298,-705.4811 1362.7258,-687.1302"/>
<polygon fill="#ff0000" stroke="#ff0000" points="1364.8585,-684.3368 1355.126,-680.1499 1360.1233,-689.4922 1364.8585,-684.3368"/>
</g>
<!-- n17&#45;&gt;n14 -->
<g id="edge42" class="edge">
<title>n17&#45;&gt;n14</title>
<path fill="none" stroke="#ff0000" d="M1378.5789,-1147.7028C1368.5718,-1129.4544 1355.1319,-1104.9463 1344.2164,-1085.0417"/>
<polygon fill="#ff0000" stroke="#ff0000" points="1347.2775,-1083.3445 1339.4003,-1076.2593 1341.1398,-1086.7104 1347.2775,-1083.3445"/>
</g>
<!-- n17&#45;&gt;n15 -->
<g id="edge43" class="edge">
<title>n17&#45;&gt;n15</title>
<path fill="none" stroke="#00ff00" d="M1419.3569,-1200.3511C1438.804,-1219.9275 1465.804,-1247.388 1489,-1272 1526.0704,-1311.3335 1567.672,-1357.5301 1594.9885,-1388.156"/>
<polygon fill="#00ff00" stroke="#00ff00" points="1592.6908,-1390.8385 1601.956,-1395.9773 1597.9177,-1386.1823 1592.6908,-1390.8385"/>
</g>
<!-- n18 -->
<g id="node23" class="node">
<title>n18</title>
<path fill="#ffffff" stroke="#ff8c00" stroke-width="2" d="M1687.5,-74C1687.5,-74 1506.5,-74 1506.5,-74 1500.5,-74 1494.5,-68 1494.5,-62 1494.5,-62 1494.5,-34 1494.5,-34 1494.5,-28 1500.5,-22 1506.5,-22 1506.5,-22 1687.5,-22 1687.5,-22 1693.5,-22 1699.5,-28 1699.5,-34 1699.5,-34 1699.5,-62 1699.5,-62 1699.5,-68 1693.5,-74 1687.5,-74"/>
<text text-anchor="start" x="1571.944" y="-60" font-family="arial" font-weight="bold" font-size="10.00" fill="#000000">BCL as CM</text>
<text text-anchor="start" x="1507.2025" y="-43" font-family="arial" font-size="10.00" fill="#000000">The black Culm Limestone is nothing but</text>
<text text-anchor="start" x="1504.702" y="-31" font-family="arial" font-size="10.00" fill="#000000"> Coal Mesaures in age #COA #chron&#45;hyp </text>
</g>
<!-- n18&#45;&gt;n11 -->
<g id="edge48" class="edge">
<title>n18&#45;&gt;n11</title>
<path fill="none" stroke="#00ff00" d="M1494.4997,-60.9589C1345.0746,-80.8246 1081.8633,-119.8796 1052,-152 1032.3492,-173.1361 1022,-381.1402 1022,-410 1022,-1422 1022,-1422 1022,-1422 1022,-1499.6202 1009.7459,-1523.3219 1037,-1596 1047.2974,-1623.4598 1066.6501,-1650.1005 1083.623,-1670.0521"/>
<polygon fill="#00ff00" stroke="#00ff00" points="1081.0199,-1672.3925 1090.2296,-1677.6302 1086.2963,-1667.7924 1081.0199,-1672.3925"/>
</g>
<!-- n18&#45;&gt;n12 -->
<g id="edge49" class="edge">
<title>n18&#45;&gt;n12</title>
<path fill="none" stroke="#ff0000" d="M1621.9532,-74.2139C1646.2417,-103.0599 1676.5716,-150.3297 1655,-188 1637.5911,-218.401 1606.6814,-240.2908 1576.1477,-255.5609"/>
<polygon fill="#ff0000" stroke="#ff0000" points="1574.6293,-252.4073 1567.1299,-259.8913 1577.6595,-258.7175 1574.6293,-252.4073"/>
</g>
<!-- n18&#45;&gt;n13 -->
<g id="edge50" class="edge">
<title>n18&#45;&gt;n13</title>
<path fill="none" stroke="#ff0000" d="M1545.2498,-74.0658C1482.31,-108.3449 1377.0575,-174.3983 1317,-260 1243.4348,-364.8546 1238.5716,-419.3393 1268,-544 1274.2816,-570.6092 1288.04,-598.1204 1300.2238,-618.9738"/>
<polygon fill="#ff0000" stroke="#ff0000" points="1297.3545,-620.9945 1305.5,-627.7696 1303.3574,-617.3937 1297.3545,-620.9945"/>
</g>
<!-- n18&#45;&gt;n14 -->
<g id="edge51" class="edge">
<title>n18&#45;&gt;n14</title>
<path fill="none" stroke="#ff0000" d="M1619.5676,-74.155C1635.148,-94.0306 1654.5282,-122.8397 1663,-152 1667.4638,-167.3647 1664.3477,-172.0569 1663,-188 1610.7065,-806.6112 1594.4165,-696.9868 1553,-816 1530.7233,-880.0135 1529.9011,-902.1296 1484,-952 1458.417,-979.7953 1423.1902,-1002.588 1392.3952,-1019.1749"/>
<polygon fill="#ff0000" stroke="#ff0000" points="1390.6344,-1016.1464 1383.4187,-1023.9043 1393.8974,-1022.3395 1390.6344,-1016.1464"/>
</g>
<!-- n18&#45;&gt;n15 -->
<g id="edge52" class="edge">
<title>n18&#45;&gt;n15</title>
<path fill="none" stroke="#ff0000" d="M1635.4,-74.1952C1687.9961,-113.5243 1776,-193.1959 1776,-286 1776,-1174 1776,-1174 1776,-1174 1776,-1240.9992 1794.4664,-1265.9579 1761,-1324 1744.7397,-1352.2008 1716.7247,-1374.4672 1690.3314,-1390.6012"/>
<polygon fill="#ff0000" stroke="#ff0000" points="1688.2941,-1387.7395 1681.4621,-1395.8373 1691.8528,-1393.7674 1688.2941,-1387.7395"/>
</g>
<!-- n19 -->
<g id="node24" class="node">
<title>n19</title>
<path fill="#ffffff" stroke="#ff8c00" stroke-width="2" d="M1403,-1876C1403,-1876 1227,-1876 1227,-1876 1221,-1876 1215,-1870 1215,-1864 1215,-1864 1215,-1836 1215,-1836 1215,-1830 1221,-1824 1227,-1824 1227,-1824 1403,-1824 1403,-1824 1409,-1824 1415,-1830 1415,-1836 1415,-1836 1415,-1864 1415,-1864 1415,-1870 1409,-1876 1403,-1876"/>
<text text-anchor="start" x="1289.7145" y="-1862" font-family="arial" font-weight="bold" font-size="10.00" fill="#000000">BCL as SIL</text>
<text text-anchor="start" x="1224.7025" y="-1845" font-family="arial" font-size="10.00" fill="#000000">The black Culm Limestone is nothing but</text>
<text text-anchor="start" x="1248.313" y="-1833" font-family="arial" font-size="10.00" fill="#000000"> SIL in age #COA #chron&#45;hyp </text>
</g>
<!-- n19&#45;&gt;n11 -->
<g id="edge57" class="edge">
<title>n19&#45;&gt;n11</title>
<path fill="none" stroke="#ff0000" d="M1279.4228,-1823.8981C1245.9928,-1799.3716 1195.868,-1762.5966 1159.9522,-1736.2463"/>
<polygon fill="#ff0000" stroke="#ff0000" points="1161.7373,-1733.2151 1151.6041,-1730.1216 1157.5965,-1738.859 1161.7373,-1733.2151"/>
</g>
<!-- n19&#45;&gt;n12 -->
<g id="edge58" class="edge">
<title>n19&#45;&gt;n12</title>
<path fill="none" stroke="#ff0000" d="M1415.3214,-1835.2191C1480.2114,-1820.9007 1562.4492,-1793.1571 1617,-1740 1716.895,-1642.6573 1705.9881,-1585.0328 1732,-1448 1771.5465,-1239.6656 1659.848,-708.8286 1623,-500 1613.8957,-448.4035 1628.0293,-429.4705 1602,-384 1586.872,-357.5729 1561.8545,-334.8787 1539.1039,-318.004"/>
<polygon fill="#ff0000" stroke="#ff0000" points="1541.0065,-315.061 1530.8472,-312.0542 1536.9141,-320.7401 1541.0065,-315.061"/>
</g>
<!-- n19&#45;&gt;n13 -->
<g id="edge59" class="edge">
<title>n19&#45;&gt;n13</title>
<path fill="none" stroke="#ff0000" d="M1307.109,-1823.8452C1274.1991,-1712.1673 1150.0414,-1263.8437 1160,-888 1161.5561,-829.2715 1137.6889,-806.9148 1167,-756 1185.0736,-724.6053 1217.1722,-701.1628 1247.5734,-684.7211"/>
<polygon fill="#ff0000" stroke="#ff0000" points="1249.2659,-687.7858 1256.5115,-680.0559 1246.0269,-681.5802 1249.2659,-687.7858"/>
</g>
<!-- n19&#45;&gt;n14 -->
<g id="edge60" class="edge">
<title>n19&#45;&gt;n14</title>
<path fill="none" stroke="#00ff00" d="M1310.9456,-1823.8193C1299.3118,-1747.2048 1265.9552,-1516.7033 1255,-1324 1253.6883,-1300.9261 1254.8136,-1295.1104 1255,-1272 1255.4445,-1216.8835 1240.114,-1200.468 1257,-1148 1264.5373,-1124.5803 1279.724,-1101.7915 1293.8369,-1084.092"/>
<polygon fill="#00ff00" stroke="#00ff00" points="1296.5678,-1086.2814 1300.2143,-1076.3339 1291.1603,-1081.8363 1296.5678,-1086.2814"/>
</g>
<!-- n19&#45;&gt;n15 -->
<g id="edge61" class="edge">
<title>n19&#45;&gt;n15</title>
<path fill="none" stroke="#ff0000" d="M1415.1076,-1837.2612C1477.0496,-1823.8409 1552.5962,-1796.3315 1595,-1740 1658.1829,-1656.0645 1644.2789,-1522.2012 1632.7808,-1458.2778"/>
<polygon fill="#ff0000" stroke="#ff0000" points="1636.1869,-1457.4524 1630.8966,-1448.2729 1629.3079,-1458.748 1636.1869,-1457.4524"/>
</g>
<!-- n20 -->
<g id="node25" class="node">
<title>n20</title>
<path fill="#ffffff" stroke="#ff8c00" stroke-width="2" d="M1303,-80C1303,-80 1131,-80 1131,-80 1125,-80 1119,-74 1119,-68 1119,-68 1119,-28 1119,-28 1119,-22 1125,-16 1131,-16 1131,-16 1303,-16 1303,-16 1309,-16 1315,-22 1315,-28 1315,-28 1315,-68 1315,-68 1315,-74 1309,-80 1303,-80"/>
<text text-anchor="start" x="1169.7635" y="-66" font-family="arial" font-weight="bold" font-size="10.00" fill="#000000">BCL as SIL and ORS</text>
<text text-anchor="start" x="1129.766" y="-49" font-family="arial" font-size="10.00" fill="#000000">The black Culm Limestone ranges from</text>
<text text-anchor="start" x="1133.363" y="-37" font-family="arial" font-size="10.00" fill="#000000"> Silurian to Old Red Sandstone in age</text>
<text text-anchor="start" x="1174.2125" y="-25" font-family="arial" font-size="10.00" fill="#000000"> #COA #chron&#45;hyp </text>
</g>
<!-- n20&#45;&gt;n11 -->
<g id="edge62" class="edge">
<title>n20&#45;&gt;n11</title>
<path fill="none" stroke="#ff0000" d="M1137.8444,-80.1923C1104.7395,-97.1795 1068.3779,-121.0158 1044,-152 1005.4078,-201.0505 1002,-223.5876 1002,-286 1002,-1422 1002,-1422 1002,-1422 1002,-1499.6202 985.7775,-1524.9364 1017,-1596 1029.7573,-1625.0361 1053.573,-1651.4082 1074.6485,-1670.8231"/>
<polygon fill="#ff0000" stroke="#ff0000" points="1072.4823,-1673.5818 1082.2637,-1677.6532 1077.1562,-1668.3707 1072.4823,-1673.5818"/>
</g>
<!-- n20&#45;&gt;n12 -->
<g id="edge63" class="edge">
<title>n20&#45;&gt;n12</title>
<path fill="none" stroke="#ff0000" d="M1253.7162,-80.2452C1305.2735,-125.5243 1398.6179,-207.5021 1450.562,-253.1209"/>
<polygon fill="#ff0000" stroke="#ff0000" points="1448.3997,-255.88 1458.2231,-259.849 1453.0189,-250.6204 1448.3997,-255.88"/>
</g>
<!-- n20&#45;&gt;n13 -->
<g id="edge64" class="edge">
<title>n20&#45;&gt;n13</title>
<path fill="none" stroke="#00ff00" d="M1240.2052,-80.1927C1257.6197,-108.3524 1276.7553,-150.4986 1266,-188 1255.5969,-224.2736 1231.4031,-223.7264 1221,-260 1186.2027,-381.331 1174.9045,-426.4957 1221,-544 1232.9537,-574.4717 1257.7548,-601.5365 1279.9075,-621.1951"/>
<polygon fill="#00ff00" stroke="#00ff00" points="1277.748,-623.9544 1287.6074,-627.8331 1282.3187,-618.6526 1277.748,-623.9544"/>
</g>
<!-- n20&#45;&gt;n14 -->
<g id="edge65" class="edge">
<title>n20&#45;&gt;n14</title>
<path fill="none" stroke="#00ff00" d="M1132.6021,-80.2122C1101.497,-96.6856 1069.5854,-120.1287 1052,-152 1044.2703,-166.009 1050.8747,-172.0396 1052,-188 1091.2568,-744.7739 1087.4875,-824.5453 1180,-952 1200.2924,-979.9568 1231.1606,-1002.4111 1259.2082,-1018.7362"/>
<polygon fill="#00ff00" stroke="#00ff00" points="1257.7711,-1021.9443 1268.1985,-1023.8203 1261.2169,-1015.8511 1257.7711,-1021.9443"/>
</g>
<!-- n20&#45;&gt;n15 -->
<g id="edge66" class="edge">
<title>n20&#45;&gt;n15</title>
<path fill="none" stroke="#ff0000" d="M1315.1436,-61.896C1427.3086,-79.375 1602.2061,-111.998 1655,-152 1753.148,-226.3669 1756,-286.86 1756,-410 1756,-1174 1756,-1174 1756,-1174 1756,-1242.9963 1749.3502,-1263.5992 1716,-1324 1702.6451,-1348.1872 1682.0428,-1371.0637 1663.8167,-1388.6216"/>
<polygon fill="#ff0000" stroke="#ff0000" points="1661.0628,-1386.4071 1656.179,-1395.8092 1665.8601,-1391.5048 1661.0628,-1386.4071"/>
</g>
<!-- n21 -->
<g id="node26" class="node">
<title>n21</title>
<path fill="#ffffff" stroke="#ff8c00" stroke-width="2" d="M1185,-1876C1185,-1876 1013,-1876 1013,-1876 1007,-1876 1001,-1870 1001,-1864 1001,-1864 1001,-1836 1001,-1836 1001,-1830 1007,-1824 1013,-1824 1013,-1824 1185,-1824 1185,-1824 1191,-1824 1197,-1830 1197,-1836 1197,-1836 1197,-1864 1197,-1864 1197,-1870 1191,-1876 1185,-1876"/>
<text text-anchor="start" x="1038.4355" y="-1862" font-family="arial" font-weight="bold" font-size="10.00" fill="#000000">Yorkshire Limestone as ML</text>
<text text-anchor="start" x="1021.211" y="-1845" font-family="arial" font-size="10.00" fill="#000000">In Yorkshire, the limestone is ML in</text>
<text text-anchor="start" x="1047.874" y="-1833" font-family="arial" font-size="10.00" fill="#000000"> age #COA #chron&#45;hyp</text>
</g>
<!-- n22 -->
<g id="node27" class="node">
<title>n22</title>
<path fill="#ffffff" stroke="#ff8c00" stroke-width="2" d="M1545,-436C1545,-436 1369,-436 1369,-436 1363,-436 1357,-430 1357,-424 1357,-424 1357,-396 1357,-396 1357,-390 1363,-384 1369,-384 1369,-384 1545,-384 1545,-384 1551,-384 1557,-390 1557,-396 1557,-396 1557,-424 1557,-424 1557,-430 1551,-436 1545,-436"/>
<text text-anchor="start" x="1432.274" y="-422" font-family="arial" font-weight="bold" font-size="10.00" fill="#000000">BCL as ML</text>
<text text-anchor="start" x="1366.7025" y="-405" font-family="arial" font-size="10.00" fill="#000000">The black Culm Limestone is nothing but</text>
<text text-anchor="start" x="1390.8725" y="-393" font-family="arial" font-size="10.00" fill="#000000"> ML in age #COA #chron&#45;hyp </text>
</g>
<!-- n22&#45;&gt;n11 -->
<g id="edge70" class="edge">
<title>n22&#45;&gt;n11</title>
<path fill="none" stroke="#ff0000" d="M1375.2271,-436.0005C1297.8098,-465.0856 1184.7891,-520.0226 1125,-608 1046.3212,-723.7728 1082,-780.0226 1082,-920 1082,-1422 1082,-1422 1082,-1422 1082,-1510.7632 1098.8091,-1614.1197 1108.7895,-1667.6644"/>
<polygon fill="#ff0000" stroke="#ff0000" points="1105.3884,-1668.5157 1110.6875,-1677.6901 1112.2662,-1667.2136 1105.3884,-1668.5157"/>
</g>
<!-- n22&#45;&gt;n12 -->
<g id="edge71" class="edge">
<title>n22&#45;&gt;n12</title>
<path fill="none" stroke="#00ff00" d="M1463.5743,-383.7028C1468.0542,-365.7832 1474.0431,-341.8275 1478.9695,-322.1221"/>
<polygon fill="#00ff00" stroke="#00ff00" points="1482.4052,-322.8096 1481.4352,-312.2593 1475.6142,-321.1118 1482.4052,-322.8096"/>
</g>
<!-- n22&#45;&gt;n13 -->
<g id="edge72" class="edge">
<title>n22&#45;&gt;n13</title>
<path fill="none" stroke="#ff0000" d="M1486.85,-436.2007C1514.2968,-463.5924 1547.6892,-507.5785 1526,-544 1503.5951,-581.6234 1463.3462,-607.1676 1424.5622,-624.0904"/>
<polygon fill="#ff0000" stroke="#ff0000" points="1423.1346,-620.8939 1415.2727,-627.996 1425.8476,-627.3467 1423.1346,-620.8939"/>
</g>
<!-- n22&#45;&gt;n14 -->
<g id="edge73" class="edge">
<title>n22&#45;&gt;n14</title>
<path fill="none" stroke="#ff0000" d="M1488.2622,-436.1008C1505.328,-452.4584 1524.8081,-475.1169 1534,-500 1604.5134,-690.8844 1569.388,-779.7762 1461,-952 1443.4522,-979.8827 1414.8301,-1002.2689 1388.3592,-1018.5676"/>
<polygon fill="#ff0000" stroke="#ff0000" points="1386.2796,-1015.7326 1379.4837,-1023.8607 1389.865,-1021.7447 1386.2796,-1015.7326"/>
</g>
<!-- n22&#45;&gt;n15 -->
<g id="edge74" class="edge">
<title>n22&#45;&gt;n15</title>
<path fill="none" stroke="#ff0000" d="M1489.49,-436.1563C1508.1136,-452.6961 1530.5812,-475.5223 1545,-500 1672.538,-716.5109 1676,-798.7175 1676,-1050 1676,-1174 1676,-1174 1676,-1174 1676,-1250.9454 1652.1544,-1338.6178 1637.0737,-1386.3707"/>
<polygon fill="#ff0000" stroke="#ff0000" points="1633.727,-1385.3452 1634.0004,-1395.9365 1640.3915,-1387.4864 1633.727,-1385.3452"/>
</g>
<!-- n23 -->
<g id="node28" class="node">
<title>n23</title>
<path fill="#ffffff" stroke="#eead0e" stroke-width="2" d="M1389,-816C1389,-816 1213,-816 1213,-816 1207,-816 1201,-810 1201,-804 1201,-804 1201,-776 1201,-776 1201,-770 1207,-764 1213,-764 1213,-764 1389,-764 1389,-764 1395,-764 1401,-770 1401,-776 1401,-776 1401,-804 1401,-804 1401,-810 1395,-816 1389,-816"/>
<text text-anchor="start" x="1272.3845" y="-802" font-family="arial" font-weight="bold" font-size="10.00" fill="#000000">BCL as ORS</text>
<text text-anchor="start" x="1210.7025" y="-785" font-family="arial" font-size="10.00" fill="#000000">The black Culm Limestone is nothing but</text>
<text text-anchor="start" x="1231.538" y="-773" font-family="arial" font-size="10.00" fill="#000000"> ORS in age #DEV #chron&#45;hyp </text>
</g>
<!-- n23&#45;&gt;n11 -->
<g id="edge79" class="edge">
<title>n23&#45;&gt;n11</title>
<path fill="none" stroke="#ff0000" d="M1273.665,-816.3747C1255.9628,-834.8846 1233.7304,-861.0565 1220,-888 1160.7692,-1004.2299 1154,-1043.5482 1154,-1174 1154,-1422 1154,-1422 1154,-1422 1154,-1510.9215 1135.2134,-1614.2136 1124.0588,-1667.7063"/>
<polygon fill="#ff0000" stroke="#ff0000" points="1120.5856,-1667.2136 1121.9375,-1677.7218 1127.4337,-1668.6641 1120.5856,-1667.2136"/>
</g>
<!-- n23&#45;&gt;n12 -->
<g id="edge80" class="edge">
<title>n23&#45;&gt;n12</title>
<path fill="none" stroke="#ff0000" d="M1253.4548,-763.8799C1238.6595,-753.131 1224.1102,-739.2123 1216,-722.4 1149.459,-584.4615 1181.6927,-500.5881 1281,-384 1307.5612,-352.8168 1346.2669,-330.8607 1383.0413,-315.7554"/>
<polygon fill="#ff0000" stroke="#ff0000" points="1384.3392,-319.0059 1392.3405,-312.0612 1381.7548,-312.5004 1384.3392,-319.0059"/>
</g>
<!-- n23&#45;&gt;n13 -->
<g id="edge81" class="edge">
<title>n23&#45;&gt;n13</title>
<path fill="none" stroke="#00ff00" d="M1305.2418,-763.7778C1308.6201,-742.8938 1313.3869,-713.4262 1317.1314,-690.2787"/>
<polygon fill="#00ff00" stroke="#00ff00" points="1320.6293,-690.5723 1318.7712,-680.1417 1313.7191,-689.4544 1320.6293,-690.5723"/>
</g>
<!-- n23&#45;&gt;n14 -->
<g id="edge82" class="edge">
<title>n23&#45;&gt;n14</title>
<path fill="none" stroke="#ff0000" d="M1275.7124,-816.2237C1259.7633,-834.668 1240.6075,-860.8236 1232,-888 1223.4114,-915.1168 1221.4596,-925.5806 1232,-952 1242.1601,-977.4662 1262.4322,-1000.1088 1281.4633,-1017.1967"/>
<polygon fill="#ff0000" stroke="#ff0000" points="1279.3825,-1020.0252 1289.2291,-1023.9362 1283.9706,-1014.7384 1279.3825,-1020.0252"/>
</g>
<!-- n23&#45;&gt;n15 -->
<g id="edge83" class="edge">
<title>n23&#45;&gt;n15</title>
<path fill="none" stroke="#ff0000" d="M1356.1429,-816.0225C1386.4157,-832.7922 1422.475,-857.2214 1446,-888 1508.6352,-969.9477 1589.6046,-1279.5044 1616.1489,-1385.8594"/>
<polygon fill="#ff0000" stroke="#ff0000" points="1612.8087,-1386.9314 1618.6169,-1395.7923 1619.6022,-1385.2433 1612.8087,-1386.9314"/>
</g>
<!-- n39&#45;&gt;n15 -->
<g id="edge115" class="edge">
<title>n39&#45;&gt;n15</title>
<path fill="none" stroke="#00ff00" d="M1526.5267,-1519.7545C1546.8782,-1499.5516 1571.6266,-1474.9838 1591.2217,-1455.5318"/>
<polygon fill="#00ff00" stroke="#00ff00" points="1593.8283,-1457.8759 1598.4594,-1448.3469 1588.8967,-1452.9081 1593.8283,-1457.8759"/>
</g>
<!-- n40&#45;&gt;n17 -->
<g id="edge116" class="edge">
<title>n40&#45;&gt;n17</title>
<path fill="none" stroke="#00ff00" d="M1383.5995,-1279.9693C1385.2117,-1261.7956 1387.7451,-1233.2373 1389.7759,-1210.3448"/>
<polygon fill="#00ff00" stroke="#00ff00" points="1393.271,-1210.5532 1390.6684,-1200.283 1386.2984,-1209.9346 1393.271,-1210.5532"/>
</g>
<!-- n41&#45;&gt;n18 -->
<g id="edge117" class="edge">
<title>n41&#45;&gt;n18</title>
<path fill="none" stroke="#00ff00" d="M1555.2301,-151.9985C1562.4189,-134.0998 1573.6439,-106.1519 1582.6478,-83.734"/>
<polygon fill="#00ff00" stroke="#00ff00" points="1585.9996,-84.7795 1586.4789,-74.1955 1579.504,-82.1705 1585.9996,-84.7795"/>
</g>
<!-- n42&#45;&gt;n20 -->
<g id="edge118" class="edge">
<title>n42&#45;&gt;n20</title>
<path fill="none" stroke="#00ff00" d="M1167.5581,-151.9985C1175.3536,-135.601 1187.1589,-110.7692 1197.279,-89.4821"/>
<polygon fill="#00ff00" stroke="#00ff00" points="1200.5099,-90.8376 1201.6426,-80.3035 1194.188,-87.8321 1200.5099,-90.8376"/>
</g>
<!-- n43&#45;&gt;n22 -->
<g id="edge119" class="edge">
<title>n43&#45;&gt;n22</title>
<path fill="none" stroke="#00ff00" d="M1424.9375,-507.875C1430.355,-491.3375 1438.5185,-466.4172 1445.2522,-445.8617"/>
<polygon fill="#00ff00" stroke="#00ff00" points="1448.6376,-446.77 1448.4247,-436.1773 1441.9854,-444.5908 1448.6376,-446.77"/>
</g>
<!-- n44&#45;&gt;n23 -->
<g id="edge120" class="edge">
<title>n44&#45;&gt;n23</title>
<path fill="none" stroke="#00ff00" d="M1333.7163,-901.9241C1328.0165,-882.4249 1318.7905,-850.8622 1311.5865,-826.217"/>
<polygon fill="#00ff00" stroke="#00ff00" points="1314.9037,-825.0903 1308.7385,-816.4739 1308.1849,-827.0543 1314.9037,-825.0903"/>
</g>
<!-- n24 -->
<g id="node35" class="node">
<title>n24</title>
<path fill="#ffffff" stroke="#f5f5dc" stroke-width="2" d="M1985,-1876C1985,-1876 1813,-1876 1813,-1876 1807,-1876 1801,-1870 1801,-1864 1801,-1864 1801,-1836 1801,-1836 1801,-1830 1807,-1824 1813,-1824 1813,-1824 1985,-1824 1985,-1824 1991,-1824 1997,-1830 1997,-1836 1997,-1836 1997,-1864 1997,-1864 1997,-1870 1991,-1876 1985,-1876"/>
<text text-anchor="start" x="1846.224" y="-1862" font-family="arial" font-weight="bold" font-size="10.00" fill="#000000">Some Non&#45;Culm as CM</text>
<text text-anchor="start" x="1810.933" y="-1845" font-family="arial" font-size="10.00" fill="#000000">Some part of the non&#45;Culm strata is CM</text>
<text text-anchor="start" x="1847.8755" y="-1833" font-family="arial" font-size="10.00" fill="#000000"> in age #pri #chron&#45;hyp</text>
</g>
<!-- n45 -->
<g id="node43" class="node">
<title>n45</title>
<path fill="#f5f5dc" stroke="#000000" d="M2203,-1740C2203,-1740 2031,-1740 2031,-1740 2025,-1740 2019,-1734 2019,-1728 2019,-1728 2019,-1680 2019,-1680 2019,-1674 2025,-1668 2031,-1668 2031,-1668 2203,-1668 2203,-1668 2209,-1668 2215,-1674 2215,-1680 2215,-1680 2215,-1728 2215,-1728 2215,-1734 2209,-1740 2203,-1740"/>
<text text-anchor="start" x="2043.365" y="-1726" font-family="arial" font-weight="bold" font-size="10.00" fill="#000000">Standard Sequence as Partition &#45;</text>
<text text-anchor="start" x="2093.1145" y="-1716" font-family="arial" font-weight="bold" font-size="10.00" fill="#000000"> Non&#45;Culm</text>
<text text-anchor="start" x="2034.7625" y="-1701" font-family="arial" font-size="10.00" fill="#000000">If some part of the non&#45;Culm strata is</text>
<text text-anchor="start" x="2028.9245" y="-1689" font-family="arial" font-size="10.00" fill="#000000"> neiter CM, ML, OR nor SIL in age, then</text>
<text text-anchor="start" x="2044.49" y="-1677" font-family="arial" font-size="10.00" fill="#000000"> it is CAM in age #pri #chron&#45;hyp</text>
</g>
<!-- n24&#45;&gt;n45 -->
<g id="edge88" class="edge">
<title>n24&#45;&gt;n45</title>
<path fill="none" stroke="#ff0000" d="M1937.974,-1823.8981C1970.4237,-1802.1658 2017.2325,-1770.8168 2054.8483,-1745.6245"/>
<polygon fill="#ff0000" stroke="#ff0000" points="2056.8539,-1748.4938 2063.2151,-1740.0211 2052.9587,-1742.6776 2056.8539,-1748.4938"/>
</g>
<!-- n46 -->
<g id="node44" class="node">
<title>n46</title>
<path fill="#b8860b" stroke="#000000" d="M2065,-1440C2065,-1440 1893,-1440 1893,-1440 1887,-1440 1881,-1434 1881,-1428 1881,-1428 1881,-1416 1881,-1416 1881,-1410 1887,-1404 1893,-1404 1893,-1404 2065,-1404 2065,-1404 2071,-1404 2077,-1410 2077,-1416 2077,-1416 2077,-1428 2077,-1428 2077,-1434 2071,-1440 2065,-1440"/>
<text text-anchor="start" x="1914.273" y="-1420" font-family="arial" font-weight="bold" font-size="10.00" fill="#000000">Dating the Non&#45;Culm&#45; GRE.1</text>
</g>
<!-- n24&#45;&gt;n46 -->
<g id="edge97" class="edge">
<title>n24&#45;&gt;n46</title>
<path fill="none" stroke="#ff0000" d="M1901.1046,-1823.5991C1905.958,-1767.2343 1919.5944,-1631.2008 1946,-1520 1951.7572,-1495.7551 1960.9728,-1468.9909 1968.2039,-1449.5671"/>
<polygon fill="#ff0000" stroke="#ff0000" points="1971.5089,-1450.7225 1971.7756,-1440.131 1964.9622,-1448.2444 1971.5089,-1450.7225"/>
</g>
<!-- n47 -->
<g id="node45" class="node">
<title>n47</title>
<path fill="#ff8c00" stroke="#000000" d="M2064.5,-1068C2064.5,-1068 1873.5,-1068 1873.5,-1068 1867.5,-1068 1861.5,-1062 1861.5,-1056 1861.5,-1056 1861.5,-1044 1861.5,-1044 1861.5,-1038 1867.5,-1032 1873.5,-1032 1873.5,-1032 2064.5,-1032 2064.5,-1032 2070.5,-1032 2076.5,-1038 2076.5,-1044 2076.5,-1044 2076.5,-1056 2076.5,-1056 2076.5,-1062 2070.5,-1068 2064.5,-1068"/>
<text text-anchor="start" x="1871.7085" y="-1048" font-family="arial" font-weight="bold" font-size="10.00" fill="#000000">Extending the Non&#45;Culm Upwards &#45; COA.2a</text>
</g>
<!-- n24&#45;&gt;n47 -->
<g id="edge108" class="edge">
<title>n24&#45;&gt;n47</title>
<path fill="none" stroke="#ff0000" d="M1889.476,-1823.701C1881.8874,-1801.6471 1871.6323,-1769.1689 1866,-1740 1841.057,-1610.8238 1817.8314,-1267.8933 1872,-1148 1885.4594,-1118.2098 1912.1596,-1092.3165 1934.1452,-1074.6391"/>
<polygon fill="#ff0000" stroke="#ff0000" points="1936.5711,-1077.1857 1942.3032,-1068.2753 1932.2656,-1071.6664 1936.5711,-1077.1857"/>
</g>
<!-- n25 -->
<g id="node36" class="node">
<title>n25</title>
<path fill="#ffffff" stroke="#f5f5dc" stroke-width="2" d="M1985,-816C1985,-816 1813,-816 1813,-816 1807,-816 1801,-810 1801,-804 1801,-804 1801,-776 1801,-776 1801,-770 1807,-764 1813,-764 1813,-764 1985,-764 1985,-764 1991,-764 1997,-770 1997,-776 1997,-776 1997,-804 1997,-804 1997,-810 1991,-816 1985,-816"/>
<text text-anchor="start" x="1847.054" y="-802" font-family="arial" font-weight="bold" font-size="10.00" fill="#000000">Some Non&#45;Culm as ML</text>
<text text-anchor="start" x="1811.763" y="-785" font-family="arial" font-size="10.00" fill="#000000">Some part of the non&#45;Culm strata is ML</text>
<text text-anchor="start" x="1847.8755" y="-773" font-family="arial" font-size="10.00" fill="#000000"> in age #pri #chron&#45;hyp</text>
</g>
<!-- n25&#45;&gt;n45 -->
<g id="edge89" class="edge">
<title>n25&#45;&gt;n45</title>
<path fill="none" stroke="#ff0000" d="M1982.9675,-816.0633C2023.723,-831.9001 2071.2564,-855.4422 2106,-888 2166.1007,-944.3197 2196,-967.635 2196,-1050 2196,-1422 2196,-1422 2196,-1422 2196,-1499.793 2200.5781,-1521.8662 2177,-1596 2170.0409,-1617.8807 2158.4106,-1640.3464 2147.2326,-1659.082"/>
<polygon fill="#ff0000" stroke="#ff0000" points="2144.203,-1657.3275 2141.9761,-1667.6857 2150.1764,-1660.977 2144.203,-1657.3275"/>
</g>
<!-- n25&#45;&gt;n46 -->
<g id="edge98" class="edge">
<title>n25&#45;&gt;n46</title>
<path fill="none" stroke="#ff0000" d="M1880.3233,-816.0549C1867.7574,-835.0408 1852.0645,-861.9033 1844,-888 1803.0583,-1020.4878 1819.2986,-1063.9255 1846,-1200 1857.0265,-1256.1928 1852.0386,-1274.5991 1881,-1324 1897.941,-1352.8971 1925.438,-1379.3465 1947.0001,-1397.4647"/>
<polygon fill="#ff0000" stroke="#ff0000" points="1944.9909,-1400.3438 1954.9391,-1403.9885 1949.4351,-1394.9355 1944.9909,-1400.3438"/>
</g>
<!-- n25&#45;&gt;n47 -->
<g id="edge107" class="edge">
<title>n25&#45;&gt;n47</title>
<path fill="none" stroke="#ff0000" d="M1892.1216,-816.0989C1884.7735,-848.8403 1876.1731,-906.2395 1892,-952 1901.7159,-980.0917 1923.1773,-1006.2545 1940.9807,-1024.4692"/>
<polygon fill="#ff0000" stroke="#ff0000" points="1938.7775,-1027.2136 1948.3419,-1031.7713 1943.7073,-1022.2439 1938.7775,-1027.2136"/>
</g>
<!-- n26 -->
<g id="node37" class="node">
<title>n26</title>
<path fill="#ffffff" stroke="#f5f5dc" stroke-width="2" d="M2205,-816C2205,-816 2027,-816 2027,-816 2021,-816 2015,-810 2015,-804 2015,-804 2015,-776 2015,-776 2015,-770 2021,-764 2027,-764 2027,-764 2205,-764 2205,-764 2211,-764 2217,-770 2217,-776 2217,-776 2217,-804 2217,-804 2217,-810 2211,-816 2205,-816"/>
<text text-anchor="start" x="2060.1645" y="-802" font-family="arial" font-weight="bold" font-size="10.00" fill="#000000">Some Non&#45;Culm as ORS</text>
<text text-anchor="start" x="2024.8735" y="-785" font-family="arial" font-size="10.00" fill="#000000">Some part of the non&#45;Culm strata is ORS</text>
<text text-anchor="start" x="2064.8755" y="-773" font-family="arial" font-size="10.00" fill="#000000"> in age #pri #chron&#45;hyp</text>
</g>
<!-- n26&#45;&gt;n45 -->
<g id="edge90" class="edge">
<title>n26&#45;&gt;n45</title>
<path fill="none" stroke="#ff0000" d="M2147.0179,-816.2426C2166.0795,-834.3122 2189.0646,-860.0359 2201,-888 2229.3846,-954.5038 2216,-977.692 2216,-1050 2216,-1422 2216,-1422 2216,-1422 2216,-1499.6202 2229.3231,-1523.7318 2201,-1596 2191.8232,-1619.4151 2175.8693,-1641.9352 2160.3136,-1660.2955"/>
<polygon fill="#ff0000" stroke="#ff0000" points="2157.6194,-1658.0599 2153.6922,-1667.9 2162.8986,-1662.6566 2157.6194,-1658.0599"/>
</g>
<!-- n26&#45;&gt;n46 -->
<g id="edge99" class="edge">
<title>n26&#45;&gt;n46</title>
<path fill="none" stroke="#ff0000" d="M2122.7855,-816.3683C2134.1976,-863.1035 2156,-963.6838 2156,-1050 2156,-1174 2156,-1174 2156,-1174 2156,-1244.2728 2146.6974,-1266.7113 2106,-1324 2083.8056,-1355.2425 2048.7764,-1381.2134 2021.1234,-1398.5528"/>
<polygon fill="#ff0000" stroke="#ff0000" points="2019.1312,-1395.6686 2012.4299,-1403.8749 2022.7861,-1401.6387 2019.1312,-1395.6686"/>
</g>
<!-- n26&#45;&gt;n47 -->
<g id="edge106" class="edge">
<title>n26&#45;&gt;n47</title>
<path fill="none" stroke="#ff0000" d="M2120.8907,-816.0134C2125.837,-849.682 2129.7537,-909.1075 2106,-952 2087.2546,-985.8489 2051.2894,-1010.8872 2020.9118,-1027.1803"/>
<polygon fill="#ff0000" stroke="#ff0000" points="2018.9596,-1024.2497 2011.689,-1031.956 2022.1785,-1030.4657 2018.9596,-1024.2497"/>
</g>
<!-- n27 -->
<g id="node38" class="node">
<title>n27</title>
<path fill="#ffffff" stroke="#f5f5dc" stroke-width="2" d="M2065,-1200C2065,-1200 1893,-1200 1893,-1200 1887,-1200 1881,-1194 1881,-1188 1881,-1188 1881,-1160 1881,-1160 1881,-1154 1887,-1148 1893,-1148 1893,-1148 2065,-1148 2065,-1148 2071,-1148 2077,-1154 2077,-1160 2077,-1160 2077,-1188 2077,-1188 2077,-1194 2071,-1200 2065,-1200"/>
<text text-anchor="start" x="1926.4945" y="-1186" font-family="arial" font-weight="bold" font-size="10.00" fill="#000000">Some Non&#45;Culm as SIL</text>
<text text-anchor="start" x="1891.2035" y="-1169" font-family="arial" font-size="10.00" fill="#000000">Some part of the non&#45;Culm strata is SIL</text>
<text text-anchor="start" x="1927.8755" y="-1157" font-family="arial" font-size="10.00" fill="#000000"> in age #pri #chron&#45;hyp</text>
</g>
<!-- n27&#45;&gt;n45 -->
<g id="edge91" class="edge">
<title>n27&#45;&gt;n45</title>
<path fill="none" stroke="#ff0000" d="M2027.3198,-1200.1728C2054.3524,-1217.2114 2086.4476,-1241.8603 2106,-1272 2185.7023,-1394.8603 2196.9531,-1452.8602 2166,-1596 2161.3252,-1617.618 2151.9459,-1640.1099 2142.6333,-1658.9359"/>
<polygon fill="#ff0000" stroke="#ff0000" points="2139.5062,-1657.3638 2138.0879,-1667.8633 2145.7442,-1660.5399 2139.5062,-1657.3638"/>
</g>
<!-- n27&#45;&gt;n46 -->
<g id="edge100" class="edge">
<title>n27&#45;&gt;n46</title>
<path fill="none" stroke="#ff0000" d="M1945.932,-1200.1394C1926.1546,-1217.9855 1902.8252,-1243.5003 1892,-1272 1883.7936,-1293.6051 1883.7936,-1302.3949 1892,-1324 1903.0543,-1353.1028 1927.1477,-1379.0931 1947.1827,-1396.9834"/>
<polygon fill="#ff0000" stroke="#ff0000" points="1945.0548,-1399.7705 1954.9067,-1403.6679 1949.6356,-1394.4774 1945.0548,-1399.7705"/>
</g>
<!-- n27&#45;&gt;n47 -->
<g id="edge135" class="edge">
<title>n27&#45;&gt;n47</title>
<path fill="none" stroke="#00ff00" d="M1976.8793,-1147.7028C1975.2388,-1127.3616 1972.9712,-1099.2427 1971.2896,-1078.3916"/>
<polygon fill="#00ff00" stroke="#00ff00" points="1974.7628,-1077.9163 1970.4702,-1068.23 1967.7854,-1078.479 1974.7628,-1077.9163"/>
</g>
<!-- n28 -->
<g id="node39" class="node">
<title>n28</title>
<path fill="#ffffff" stroke="#f5f5dc" stroke-width="2" d="M2145,-1584C2145,-1584 1967,-1584 1967,-1584 1961,-1584 1955,-1578 1955,-1572 1955,-1572 1955,-1544 1955,-1544 1955,-1538 1961,-1532 1967,-1532 1967,-1532 2145,-1532 2145,-1532 2151,-1532 2157,-1538 2157,-1544 2157,-1544 2157,-1572 2157,-1572 2157,-1578 2151,-1584 2145,-1584"/>
<text text-anchor="start" x="1999.8895" y="-1570" font-family="arial" font-weight="bold" font-size="10.00" fill="#000000">Some Non&#45;Culm as CAM</text>
<text text-anchor="start" x="1964.5985" y="-1553" font-family="arial" font-size="10.00" fill="#000000">Some part of the non&#45;Culm strata is CAM</text>
<text text-anchor="start" x="2004.8755" y="-1541" font-family="arial" font-size="10.00" fill="#000000"> in age #pri #chron&#45;hyp</text>
</g>
<!-- n28&#45;&gt;n46 -->
<g id="edge136" class="edge">
<title>n28&#45;&gt;n46</title>
<path fill="none" stroke="#00ff00" d="M2041.1536,-1531.7778C2027.7276,-1508.0644 2008.0358,-1473.284 1994.4315,-1449.2556"/>
<polygon fill="#00ff00" stroke="#00ff00" points="1997.3372,-1447.2839 1989.3646,-1440.3062 1991.2458,-1450.7327 1997.3372,-1447.2839"/>
</g>
<!-- n28&#45;&gt;n47 -->
<g id="edge137" class="edge">
<title>n28&#45;&gt;n47</title>
<path fill="none" stroke="#00ff00" d="M2067.2986,-1531.8175C2094.9475,-1463.4171 2158.6353,-1275.8286 2086,-1148 2068.1235,-1116.5398 2036.0252,-1090.7568 2009.9652,-1073.5466"/>
<polygon fill="#00ff00" stroke="#00ff00" points="2011.6947,-1070.4978 2001.3882,-1068.0429 2007.9143,-1076.3893 2011.6947,-1070.4978"/>
</g>
<!-- n29 -->
<g id="node40" class="node">
<title>n29</title>
<path fill="#ffffff" stroke="#f5f5dc" stroke-width="2" d="M2204.5,-1882C2204.5,-1882 2027.5,-1882 2027.5,-1882 2021.5,-1882 2015.5,-1876 2015.5,-1870 2015.5,-1870 2015.5,-1830 2015.5,-1830 2015.5,-1824 2021.5,-1818 2027.5,-1818 2027.5,-1818 2204.5,-1818 2204.5,-1818 2210.5,-1818 2216.5,-1824 2216.5,-1830 2216.5,-1830 2216.5,-1870 2216.5,-1870 2216.5,-1876 2210.5,-1882 2204.5,-1882"/>
<text text-anchor="start" x="2025.9465" y="-1868" font-family="arial" font-weight="bold" font-size="10.00" fill="#000000">Non&#45;Culm as Post&#45;Primary and Pre&#45;NRS</text>
<text text-anchor="start" x="2038.7065" y="-1851" font-family="arial" font-size="10.00" fill="#000000">The non&#45;Culm strata are older than</text>
<text text-anchor="start" x="2032.3165" y="-1839" font-family="arial" font-size="10.00" fill="#000000"> Primary strata and younger than New</text>
<text text-anchor="start" x="2030.6415" y="-1827" font-family="arial" font-size="10.00" fill="#000000"> Red Sandstone strata #pri #chron&#45;hyp</text>
</g>
<!-- n29&#45;&gt;n45 -->
<g id="edge138" class="edge">
<title>n29&#45;&gt;n45</title>
<path fill="none" stroke="#00ff00" d="M2116.2195,-1817.9597C2116.3554,-1798.1045 2116.5324,-1772.2721 2116.6834,-1750.2232"/>
<polygon fill="#00ff00" stroke="#00ff00" points="2120.1843,-1750.0946 2116.7529,-1740.0709 2113.1844,-1750.0466 2120.1843,-1750.0946"/>
</g>
<!-- n30 -->
<g id="node41" class="node">
<title>n30</title>
<path fill="#ffffff" stroke="#b8860b" stroke-width="2" d="M2085,-1324C2085,-1324 1913,-1324 1913,-1324 1907,-1324 1901,-1318 1901,-1312 1901,-1312 1901,-1284 1901,-1284 1901,-1278 1907,-1272 1913,-1272 1913,-1272 2085,-1272 2085,-1272 2091,-1272 2097,-1278 2097,-1284 2097,-1284 2097,-1312 2097,-1312 2097,-1318 2091,-1324 2085,-1324"/>
<text text-anchor="start" x="1957.337" y="-1310" font-family="arial" font-weight="bold" font-size="10.00" fill="#000000">Non&#45;Culm as CAM</text>
<text text-anchor="start" x="1922.316" y="-1293" font-family="arial" font-size="10.00" fill="#000000">The non&#45;Culm strata is nothing but</text>
<text text-anchor="start" x="1918.1505" y="-1281" font-family="arial" font-size="10.00" fill="#000000"> Cambrian in age #GRE #chron&#45;hyp </text>
</g>
<!-- n30&#45;&gt;n24 -->
<g id="edge92" class="edge">
<title>n30&#45;&gt;n24</title>
<path fill="none" stroke="#ff0000" d="M1945.3301,-1324.1788C1917.9937,-1340.6596 1887.3547,-1364.7569 1872,-1396 1836.0404,-1469.1694 1875.6657,-1719.7193 1892.3308,-1813.8602"/>
<polygon fill="#ff0000" stroke="#ff0000" points="1888.8973,-1814.5428 1894.1031,-1823.7705 1895.788,-1813.3105 1888.8973,-1814.5428"/>
</g>
<!-- n30&#45;&gt;n25 -->
<g id="edge93" class="edge">
<title>n30&#45;&gt;n25</title>
<path fill="none" stroke="#ff0000" d="M1948.7614,-1271.8323C1921.6097,-1255.0149 1890.0368,-1230.5864 1872,-1200 1800.5633,-1078.8592 1855.1679,-901.143 1884.0492,-825.8352"/>
<polygon fill="#ff0000" stroke="#ff0000" points="1887.3858,-826.9133 1887.7701,-816.3254 1880.867,-824.3627 1887.3858,-826.9133"/>
</g>
<!-- n30&#45;&gt;n26 -->
<g id="edge94" class="edge">
<title>n30&#45;&gt;n26</title>
<path fill="none" stroke="#ff0000" d="M2030.3699,-1271.7337C2049.725,-1253.6544 2073.2201,-1227.9287 2086,-1200 2144.0254,-1073.1935 2130.9519,-901.1134 2121.509,-826.7395"/>
<polygon fill="#ff0000" stroke="#ff0000" points="2124.9345,-825.9458 2120.151,-816.4923 2117.9952,-826.8655 2124.9345,-825.9458"/>
</g>
<!-- n30&#45;&gt;n27 -->
<g id="edge95" class="edge">
<title>n30&#45;&gt;n27</title>
<path fill="none" stroke="#ff0000" d="M1994.7585,-1271.7028C1991.8815,-1253.8654 1988.0399,-1230.0471 1984.8699,-1210.3935"/>
<polygon fill="#ff0000" stroke="#ff0000" points="1988.2831,-1209.5744 1983.2354,-1200.2593 1981.3724,-1210.6891 1988.2831,-1209.5744"/>
</g>
<!-- n30&#45;&gt;n28 -->
<g id="edge96" class="edge">
<title>n30&#45;&gt;n28</title>
<path fill="none" stroke="#00ff00" d="M2032.068,-1324.1394C2051.8454,-1341.9855 2075.1748,-1367.5003 2086,-1396 2101.8998,-1437.8594 2087.1354,-1489.1031 2073.2641,-1522.6007"/>
<polygon fill="#00ff00" stroke="#00ff00" points="2069.9669,-1521.4077 2069.2128,-1531.9757 2076.3926,-1524.1846 2069.9669,-1521.4077"/>
</g>
<!-- n31 -->
<g id="node42" class="node">
<title>n31</title>
<path fill="#ffffff" stroke="#ff8c00" stroke-width="2" d="M2085,-952C2085,-952 1913,-952 1913,-952 1907,-952 1901,-946 1901,-940 1901,-940 1901,-900 1901,-900 1901,-894 1907,-888 1913,-888 1913,-888 2085,-888 2085,-888 2091,-888 2097,-894 2097,-900 2097,-900 2097,-940 2097,-940 2097,-946 2091,-952 2085,-952"/>
<text text-anchor="start" x="1938.716" y="-938" font-family="arial" font-weight="bold" font-size="10.00" fill="#000000">Non&#45;Culm as SIL and CAM</text>
<text text-anchor="start" x="1918.1465" y="-921" font-family="arial" font-size="10.00" fill="#000000">In Devon, the non&#45;Culm strata range</text>
<text text-anchor="start" x="1910.934" y="-909" font-family="arial" font-size="10.00" fill="#000000"> from Cambrian to Silurian in age #COA</text>
<text text-anchor="start" x="1972.6045" y="-897" font-family="arial" font-size="10.00" fill="#000000"> #chron&#45;hyp</text>
</g>
<!-- n31&#45;&gt;n24 -->
<g id="edge101" class="edge">
<title>n31&#45;&gt;n24</title>
<path fill="none" stroke="#ff0000" d="M1944.4007,-952.0615C1907.6099,-974.8731 1863.8788,-1004.7681 1853,-1024 1765.6449,-1178.4299 1822,-1244.5754 1822,-1422 1822,-1558 1822,-1558 1822,-1558 1822,-1639.8406 1826.9225,-1661.4805 1850,-1740 1857.5661,-1765.743 1869.8617,-1793.3218 1880.2428,-1814.4253"/>
<polygon fill="#ff0000" stroke="#ff0000" points="1877.2476,-1816.2608 1884.854,-1823.636 1883.507,-1813.1271 1877.2476,-1816.2608"/>
</g>
<!-- n31&#45;&gt;n25 -->
<g id="edge102" class="edge">
<title>n31&#45;&gt;n25</title>
<path fill="none" stroke="#ff0000" d="M1974.2809,-887.8652C1959.4022,-868.5228 1940.4704,-843.9115 1925.3144,-824.2088"/>
<polygon fill="#ff0000" stroke="#ff0000" points="1927.9444,-821.8872 1919.073,-816.0949 1922.396,-826.1552 1927.9444,-821.8872"/>
</g>
<!-- n31&#45;&gt;n26 -->
<g id="edge103" class="edge">
<title>n31&#45;&gt;n26</title>
<path fill="none" stroke="#ff0000" d="M2027.9214,-887.8652C2045.4849,-868.3501 2067.8756,-843.4715 2085.686,-823.6822"/>
<polygon fill="#ff0000" stroke="#ff0000" points="2088.4264,-825.8693 2092.5146,-816.0949 2083.2233,-821.1865 2088.4264,-825.8693"/>
</g>
<!-- n31&#45;&gt;n27 -->
<g id="edge104" class="edge">
<title>n31&#45;&gt;n27</title>
<path fill="none" stroke="#00ff00" d="M2037.0723,-952.2492C2068.6841,-983.1707 2105.5511,-1031.5812 2086,-1076 2074.3019,-1102.5772 2051.4437,-1125.09 2029.8477,-1141.8099"/>
<polygon fill="#00ff00" stroke="#00ff00" points="2027.573,-1139.1404 2021.6586,-1147.9308 2031.7639,-1144.7474 2027.573,-1139.1404"/>
</g>
<!-- n31&#45;&gt;n28 -->
<g id="edge105" class="edge">
<title>n31&#45;&gt;n28</title>
<path fill="none" stroke="#00ff00" d="M2037.6971,-952.1011C2057.6193,-970.899 2080.3277,-996.3427 2093,-1024 2148.8355,-1145.8606 2133.1245,-1190.2676 2124,-1324 2120.2134,-1379.4976 2122.6501,-1394.6203 2107,-1448 2099.365,-1474.0418 2086.4856,-1501.7518 2075.5804,-1522.8452"/>
<polygon fill="#00ff00" stroke="#00ff00" points="2072.4548,-1521.269 2070.8922,-1531.748 2078.6485,-1524.5307 2072.4548,-1521.269"/>
</g>
<!-- n45&#45;&gt;n28 -->
<g id="edge121" class="edge">
<title>n45&#45;&gt;n28</title>
<path fill="none" stroke="#00ff00" d="M2101.9213,-1667.9101C2092.4131,-1645.1527 2080.1915,-1615.9009 2070.7473,-1593.2967"/>
<polygon fill="#00ff00" stroke="#00ff00" points="2073.9704,-1591.9322 2066.8858,-1584.0545 2067.5115,-1594.6309 2073.9704,-1591.9322"/>
</g>
<!-- n46&#45;&gt;n30 -->
<g id="edge122" class="edge">
<title>n46&#45;&gt;n30</title>
<path fill="none" stroke="#00ff00" d="M1981.9082,-1403.9693C1984.8394,-1385.7956 1989.4456,-1357.2373 1993.1379,-1334.3448"/>
<polygon fill="#00ff00" stroke="#00ff00" points="1996.6237,-1334.7127 1994.7608,-1324.283 1989.7131,-1333.5981 1996.6237,-1334.7127"/>
</g>
<!-- n47&#45;&gt;n31 -->
<g id="edge123" class="edge">
<title>n47&#45;&gt;n31</title>
<path fill="none" stroke="#00ff00" d="M1973.1714,-1031.9241C1977.3272,-1013.9156 1983.8575,-985.6176 1989.3118,-961.9822"/>
<polygon fill="#00ff00" stroke="#00ff00" points="1992.7351,-962.7127 1991.5734,-952.1818 1985.9144,-961.1387 1992.7351,-962.7127"/>
</g>
<!-- n32 -->
<g id="node46" class="node">
<title>n32</title>
<path fill="#ffffff" stroke="#b8860b" stroke-width="2" d="M2643,-1882C2643,-1882 2471,-1882 2471,-1882 2465,-1882 2459,-1876 2459,-1870 2459,-1870 2459,-1830 2459,-1830 2459,-1824 2465,-1818 2471,-1818 2471,-1818 2643,-1818 2643,-1818 2649,-1818 2655,-1824 2655,-1830 2655,-1830 2655,-1870 2655,-1870 2655,-1876 2649,-1882 2643,-1882"/>
<text text-anchor="start" x="2508.944" y="-1868" font-family="arial" font-weight="bold" font-size="10.00" fill="#000000">Traversing Northward</text>
<text text-anchor="start" x="2477.5345" y="-1851" font-family="arial" font-size="10.00" fill="#000000">The strata south of Exmoor become</text>
<text text-anchor="start" x="2474.476" y="-1839" font-family="arial" font-size="10.00" fill="#000000"> progessively younger the furhter one</text>
<text text-anchor="start" x="2470.0405" y="-1827" font-family="arial" font-size="10.00" fill="#000000"> traverses northward #GRE #chron&#45;hyp</text>
</g>
<!-- n33 -->
<g id="node47" class="node">
<title>n33</title>
<path fill="#ffffff" stroke="#b8860b" stroke-width="2" d="M2429,-1888C2429,-1888 2253,-1888 2253,-1888 2247,-1888 2241,-1882 2241,-1876 2241,-1876 2241,-1824 2241,-1824 2241,-1818 2247,-1812 2253,-1812 2253,-1812 2429,-1812 2429,-1812 2435,-1812 2441,-1818 2441,-1824 2441,-1824 2441,-1876 2441,-1876 2441,-1882 2435,-1888 2429,-1888"/>
<text text-anchor="start" x="2264.8685" y="-1874" font-family="arial" font-weight="bold" font-size="10.00" fill="#000000">Exmoor Youngest Devonian strata</text>
<text text-anchor="start" x="2261.812" y="-1857" font-family="arial" font-size="10.00" fill="#000000">In Devon, among all the strata older</text>
<text text-anchor="start" x="2250.6885" y="-1845" font-family="arial" font-size="10.00" fill="#000000"> than the New Red Sandstone, the strata</text>
<text text-anchor="start" x="2263.1995" y="-1833" font-family="arial" font-size="10.00" fill="#000000"> of Exmoor are the youngest #GRE</text>
<text text-anchor="start" x="2314.6045" y="-1821" font-family="arial" font-size="10.00" fill="#000000"> #chron&#45;hyp</text>
</g>
<!-- n34 -->
<g id="node48" class="node">
<title>n34</title>
<path fill="#ffffff" stroke="#ff8c00" stroke-width="2" d="M2436.5,-1736C2436.5,-1736 2253.5,-1736 2253.5,-1736 2247.5,-1736 2241.5,-1730 2241.5,-1724 2241.5,-1724 2241.5,-1684 2241.5,-1684 2241.5,-1678 2247.5,-1672 2253.5,-1672 2253.5,-1672 2436.5,-1672 2436.5,-1672 2442.5,-1672 2448.5,-1678 2448.5,-1684 2448.5,-1684 2448.5,-1724 2448.5,-1724 2448.5,-1730 2442.5,-1736 2436.5,-1736"/>
<text text-anchor="start" x="2274.0935" y="-1722" font-family="arial" font-weight="bold" font-size="10.00" fill="#000000">Culm Youngest Devonian Strata</text>
<text text-anchor="start" x="2266.312" y="-1705" font-family="arial" font-size="10.00" fill="#000000">In Devon, among all the strata older</text>
<text text-anchor="start" x="2256.028" y="-1693" font-family="arial" font-size="10.00" fill="#000000"> than the New Red Sandstone, the Culm</text>
<text text-anchor="start" x="2251.5825" y="-1681" font-family="arial" font-size="10.00" fill="#000000"> strata are the youngest #COA #chron&#45;hyp</text>
</g>
<!-- n33&#45;&gt;n34 -->
<g id="edge110" class="edge">
<title>n33&#45;&gt;n34</title>
<path fill="none" stroke="#ff0000" d="M2336.0277,-1811.6402C2335.6673,-1791.5475 2336.288,-1766.8969 2337.6552,-1746.2577"/>
<polygon fill="#ff0000" stroke="#ff0000" points="2341.1531,-1746.4153 2338.4109,-1736.1815 2334.1727,-1745.8917 2341.1531,-1746.4153"/>
</g>
<!-- n34&#45;&gt;n33 -->
<g id="edge109" class="edge">
<title>n34&#45;&gt;n33</title>
<path fill="none" stroke="#ff0000" d="M2349.8258,-1736.1815C2350.3977,-1755.3076 2349.9547,-1779.9429 2348.7346,-1801.4001"/>
<polygon fill="#ff0000" stroke="#ff0000" points="2345.2251,-1801.4357 2348.0742,-1811.6402 2352.2106,-1801.8862 2345.2251,-1801.4357"/>
</g>
</g>
</svg>
