
<!-- Generated by graphviz version 2.40.1 (20161225.0304)
 -->
<!-- Title: Argument Map Pages: 1 -->
<svg width="720pt" height="241pt"
 viewBox="0.00 0.00 720.00 241.17" xmlns="http://www.w3.org/2000/svg" xmlns:xlink="http://www.w3.org/1999/xlink">
<g id="graph0" class="graph" transform="scale(.1935 .1935) rotate(0) translate(4 1242.4)">
<title>Argument Map</title>
<g id="clust1" class="cluster">
<title>cluster_1</title>
<polygon fill="#c6e2ff" stroke="#c6e2ff" points="8,-1122 8,-1224.4 224,-1224.4 224,-1122 8,-1122"/>
<text text-anchor="start" x="32.3132" y="-1209.6" font-family="arial" font-size="12.00" fill="#000000">Aporia I : Coal in Ancient Strata</text>
</g>
<g id="clust2" class="cluster">
<title>cluster_2</title>
<polygon fill="#ffe1ff" stroke="#ffe1ff" points="232,-150 232,-1218.4 1098,-1218.4 1098,-150 232,-150"/>
<text text-anchor="start" x="600.6578" y="-1203.6" font-family="arial" font-size="12.00" fill="#000000">Dating of the Main Culm</text>
</g>
<g id="clust3" class="cluster">
<title>cluster_3</title>
<polygon fill="#9fb6cd" stroke="#9fb6cd" points="1106,-1128 1106,-1218.4 1323,-1218.4 1323,-1128 1106,-1128"/>
<text text-anchor="start" x="1113.8122" y="-1203.6" font-family="arial" font-size="12.00" fill="#000000">Aporia II : CM Plants in Ancient Strata</text>
</g>
<g id="clust4" class="cluster">
<title>cluster_4</title>
<polygon fill="#d8bfd8" stroke="#d8bfd8" points="1331,-144 1331,-1218.4 2191,-1218.4 2191,-144 1331,-144"/>
<text text-anchor="start" x="1698.3252" y="-1203.6" font-family="arial" font-size="12.00" fill="#000000">Dating of the Non&#45;Culm</text>
</g>
<g id="clust5" class="cluster">
<title>cluster_5</title>
<polygon fill="#eed2ee" stroke="#eed2ee" points="2199,-8 2199,-1218.4 3267,-1218.4 3267,-8 2199,-8"/>
<text text-anchor="start" x="2653.9842" y="-1203.6" font-family="arial" font-size="12.00" fill="#000000">Dating of the Culm Limestone</text>
</g>
<g id="clust6" class="cluster">
<title>cluster_6</title>
<polygon fill="#e6e6fa" stroke="#e6e6fa" points="3275,-974 3275,-1230.4 3705,-1230.4 3705,-974 3275,-974"/>
<text text-anchor="start" x="3419.9752" y="-1215.6" font-family="arial" font-size="12.00" fill="#000000">Youngest Devonian Strata</text>
</g>
<!-- n0 -->
<g id="node1" class="node">
<title>n0</title>
<path fill="#ffffff" stroke="#f4a460" stroke-width="2" d="M204,-1194C204,-1194 28,-1194 28,-1194 22,-1194 16,-1188 16,-1182 16,-1182 16,-1142 16,-1142 16,-1136 22,-1130 28,-1130 28,-1130 204,-1130 204,-1130 210,-1130 216,-1136 216,-1142 216,-1142 216,-1182 216,-1182 216,-1188 210,-1194 204,-1194"/>
<text text-anchor="start" x="56.2565" y="-1180" font-family="arial" font-weight="bold" font-size="10.00" fill="#000000">Instances of Ancient Strata</text>
<text text-anchor="start" x="25.9725" y="-1163" font-family="arial" font-size="10.00" fill="#000000">In Munster and Pennsylvannia, there are</text>
<text text-anchor="start" x="33.201" y="-1151" font-family="arial" font-size="10.00" fill="#000000"> pre&#45;Old Red Sandstone strata #GRE</text>
<text text-anchor="start" x="89.6045" y="-1139" font-family="arial" font-size="10.00" fill="#000000"> #chron&#45;hyp</text>
</g>
<!-- n1 -->
<g id="node2" class="node">
<title>n1</title>
<path fill="#ffffff" stroke="#f4a460" stroke-width="2" d="M691,-636C691,-636 519,-636 519,-636 513,-636 507,-630 507,-624 507,-624 507,-596 507,-596 507,-590 513,-584 519,-584 519,-584 691,-584 691,-584 697,-584 703,-590 703,-596 703,-596 703,-624 703,-624 703,-630 697,-636 691,-636"/>
<text text-anchor="start" x="561.9475" y="-622" font-family="arial" font-weight="bold" font-size="10.00" fill="#000000">Main Culm as CAM</text>
<text text-anchor="start" x="519.9925" y="-605" font-family="arial" font-size="10.00" fill="#000000">The whole of the main Culm is CAM in</text>
<text text-anchor="start" x="552.4845" y="-593" font-family="arial" font-size="10.00" fill="#000000"> age #GRE #chron&#45;hyp </text>
</g>
<!-- n6 -->
<g id="node3" class="node">
<title>n6</title>
<path fill="#ffffff" stroke="#ffc1c1" stroke-width="2" d="M930,-506C930,-506 752,-506 752,-506 746,-506 740,-500 740,-494 740,-494 740,-466 740,-466 740,-460 746,-454 752,-454 752,-454 930,-454 930,-454 936,-454 942,-460 942,-466 942,-466 942,-494 942,-494 942,-500 936,-506 930,-506"/>
<text text-anchor="start" x="801.282" y="-492" font-family="arial" font-weight="bold" font-size="10.00" fill="#000000">Main Culm as CM</text>
<text text-anchor="start" x="749.599" y="-475" font-family="arial" font-size="10.00" fill="#000000">The whole of the main Culm is CM in age</text>
<text text-anchor="start" x="798.2125" y="-463" font-family="arial" font-size="10.00" fill="#000000"> #COA #chron&#45;hyp </text>
</g>
<!-- n1&#45;&gt;n6 -->
<g id="edge14" class="edge">
<title>n1&#45;&gt;n6</title>
<path fill="none" stroke="#ff0000" d="M646.9367,-583.8489C683.6767,-562.7807 737.4355,-533.1115 779.1021,-510.8772"/>
<polygon fill="#ff0000" stroke="#ff0000" points="780.8816,-513.895 788.0671,-506.1093 777.5946,-507.7147 780.8816,-513.895"/>
</g>
<!-- n11 -->
<g id="node4" class="node">
<title>n11</title>
<path fill="#ffffff" stroke="#eedd82" stroke-width="2" d="M810.5,-210C810.5,-210 633.5,-210 633.5,-210 627.5,-210 621.5,-204 621.5,-198 621.5,-198 621.5,-170 621.5,-170 621.5,-164 627.5,-158 633.5,-158 633.5,-158 810.5,-158 810.5,-158 816.5,-158 822.5,-164 822.5,-170 822.5,-170 822.5,-198 822.5,-198 822.5,-204 816.5,-210 810.5,-210"/>
<text text-anchor="start" x="683.612" y="-196" font-family="arial" font-weight="bold" font-size="10.00" fill="#000000">Main Culm as ML</text>
<text text-anchor="start" x="631.929" y="-179" font-family="arial" font-size="10.00" fill="#000000">The whole of the main Culm is ML in age</text>
<text text-anchor="start" x="680.2675" y="-167" font-family="arial" font-size="10.00" fill="#000000"> #DEV #chron&#45;hyp </text>
</g>
<!-- n1&#45;&gt;n11 -->
<g id="edge20" class="edge">
<title>n1&#45;&gt;n11</title>
<path fill="none" stroke="#ff0000" d="M594.7028,-583.9376C579.8645,-527.2287 561.2041,-389.5819 606,-288 618.6695,-259.2699 643.3285,-234.4313 666.7387,-216.2398"/>
<polygon fill="#ff0000" stroke="#ff0000" points="669.0439,-218.886 674.9454,-210.0869 664.8449,-213.2853 669.0439,-218.886"/>
</g>
<!-- n13 -->
<g id="node5" class="node">
<title>n13</title>
<path fill="#ffffff" stroke="#f4a460" stroke-width="2" d="M808,-358C808,-358 636,-358 636,-358 630,-358 624,-352 624,-346 624,-346 624,-318 624,-318 624,-312 630,-306 636,-306 636,-306 808,-306 808,-306 814,-306 820,-312 820,-318 820,-318 820,-346 820,-346 820,-352 814,-358 808,-358"/>
<text text-anchor="start" x="682.5525" y="-344" font-family="arial" font-weight="bold" font-size="10.00" fill="#000000">Main Culm as SIL</text>
<text text-anchor="start" x="641.4275" y="-327" font-family="arial" font-size="10.00" fill="#000000">The main part of the Culm is nothing</text>
<text text-anchor="start" x="637.8125" y="-315" font-family="arial" font-size="10.00" fill="#000000"> but Silurian in age #GRE #chron&#45;hyp </text>
</g>
<!-- n1&#45;&gt;n13 -->
<g id="edge28" class="edge">
<title>n1&#45;&gt;n13</title>
<path fill="none" stroke="#ff0000" d="M611.8609,-583.8464C629.6615,-533.7595 675.5675,-424.2514 702.3374,-367.5715"/>
<polygon fill="#ff0000" stroke="#ff0000" points="705.6211,-368.8176 706.7821,-358.2866 699.3073,-365.7951 705.6211,-368.8176"/>
</g>
<!-- n6&#45;&gt;n1 -->
<g id="edge13" class="edge">
<title>n6&#45;&gt;n1</title>
<path fill="none" stroke="#ff0000" d="M799.1361,-506.1093C762.4187,-527.1662 708.6632,-556.8346 666.9806,-579.0787"/>
<polygon fill="#ff0000" stroke="#ff0000" points="665.1971,-576.063 658.0117,-583.8489 668.4842,-582.2432 665.1971,-576.063"/>
</g>
<!-- n6&#45;&gt;n11 -->
<g id="edge22" class="edge">
<title>n6&#45;&gt;n11</title>
<path fill="none" stroke="#ff0000" d="M839.2246,-453.7232C840.8456,-415.3518 845.1166,-342.6188 820,-288 806.8905,-259.492 782.2327,-234.6787 760.8428,-216.4459"/>
<polygon fill="#ff0000" stroke="#ff0000" points="763.0624,-213.7396 753.1376,-210.0316 758.5838,-219.1195 763.0624,-213.7396"/>
</g>
<!-- n6&#45;&gt;n13 -->
<g id="edge30" class="edge">
<title>n6&#45;&gt;n13</title>
<path fill="none" stroke="#ff0000" d="M814.7077,-453.8813C793.4507,-429.6201 764.0925,-393.3256 744.0431,-366.6507"/>
<polygon fill="#ff0000" stroke="#ff0000" points="746.6548,-364.297 737.8828,-358.3555 741.035,-368.4705 746.6548,-364.297"/>
</g>
<!-- n11&#45;&gt;n1 -->
<g id="edge19" class="edge">
<title>n11&#45;&gt;n1</title>
<path fill="none" stroke="#ff0000" d="M690.2763,-210.0869C667.31,-228.6283 638.1633,-255.8825 624,-288 581.6538,-384.0266 596.0133,-512.2815 603.1565,-573.9267"/>
<polygon fill="#ff0000" stroke="#ff0000" points="599.6883,-574.4046 604.3114,-583.9376 606.6422,-573.6023 599.6883,-574.4046"/>
</g>
<!-- n11&#45;&gt;n6 -->
<g id="edge21" class="edge">
<title>n11&#45;&gt;n6</title>
<path fill="none" stroke="#ff0000" d="M768.4388,-210.0316C794.0023,-228.64 823.2806,-255.991 838,-288 861.1053,-338.2451 859.3412,-403.8193 852.7775,-443.871"/>
<polygon fill="#ff0000" stroke="#ff0000" points="849.3321,-443.2554 850.9675,-453.7232 856.2169,-444.5202 849.3321,-443.2554"/>
</g>
<!-- n11&#45;&gt;n13 -->
<g id="edge32" class="edge">
<title>n11&#45;&gt;n13</title>
<path fill="none" stroke="#ff0000" d="M727.3085,-210.3555C729.0103,-234.1677 729.2053,-269.4308 727.8935,-295.8674"/>
<polygon fill="#ff0000" stroke="#ff0000" points="724.398,-295.6892 727.2915,-305.8813 731.3854,-296.1094 724.398,-295.6892"/>
</g>
<!-- n13&#45;&gt;n1 -->
<g id="edge27" class="edge">
<title>n13&#45;&gt;n1</title>
<path fill="none" stroke="#ff0000" d="M715.0918,-358.2866C697.2416,-408.4785 651.3276,-517.9924 624.5916,-574.5788"/>
<polygon fill="#ff0000" stroke="#ff0000" points="621.316,-573.3156 620.1532,-583.8464 627.6293,-576.3392 621.316,-573.3156"/>
</g>
<!-- n13&#45;&gt;n6 -->
<g id="edge29" class="edge">
<title>n13&#45;&gt;n6</title>
<path fill="none" stroke="#ff0000" d="M748.4997,-358.3555C769.8091,-382.6946 799.1632,-418.9967 819.1519,-445.6089"/>
<polygon fill="#ff0000" stroke="#ff0000" points="816.5207,-447.9365 825.2906,-453.8813 822.142,-443.765 816.5207,-447.9365"/>
</g>
<!-- n13&#45;&gt;n11 -->
<g id="edge31" class="edge">
<title>n13&#45;&gt;n11</title>
<path fill="none" stroke="#ff0000" d="M716.7085,-305.8813C714.9967,-282.1452 714.7917,-246.8911 716.0935,-220.3961"/>
<polygon fill="#ff0000" stroke="#ff0000" points="719.5907,-220.5459 716.6915,-210.3555 712.6031,-220.1296 719.5907,-220.5459"/>
</g>
<!-- n15 -->
<g id="node6" class="node">
<title>n15</title>
<path fill="#ffffff" stroke="#ffe4b5" stroke-width="2" d="M864,-1188C864,-1188 686,-1188 686,-1188 680,-1188 674,-1182 674,-1176 674,-1176 674,-1148 674,-1148 674,-1142 680,-1136 686,-1136 686,-1136 864,-1136 864,-1136 870,-1136 876,-1142 876,-1148 876,-1148 876,-1176 876,-1176 876,-1182 870,-1188 864,-1188"/>
<text text-anchor="start" x="720.8345" y="-1174" font-family="arial" font-weight="bold" font-size="10.00" fill="#000000">Some Main Culm as CM</text>
<text text-anchor="start" x="683.599" y="-1157" font-family="arial" font-size="10.00" fill="#000000">Some part of the main Culm is CM in age</text>
<text text-anchor="start" x="738.882" y="-1145" font-family="arial" font-size="10.00" fill="#000000"> #pri #chron&#45;hyp</text>
</g>
<!-- n36 -->
<g id="node11" class="node">
<title>n36</title>
<path fill="#ffe4b5" stroke="#000000" d="M740,-1050C740,-1050 568,-1050 568,-1050 562,-1050 556,-1044 556,-1038 556,-1038 556,-990 556,-990 556,-984 562,-978 568,-978 568,-978 740,-978 740,-978 746,-978 752,-984 752,-990 752,-990 752,-1038 752,-1038 752,-1044 746,-1050 740,-1050"/>
<text text-anchor="start" x="568.1425" y="-1036" font-family="arial" font-weight="bold" font-size="10.00" fill="#000000">Standard Sequence as Partition &#45; Main</text>
<text text-anchor="start" x="640.9475" y="-1026" font-family="arial" font-weight="bold" font-size="10.00" fill="#000000"> Culm</text>
<text text-anchor="start" x="568.9975" y="-1011" font-family="arial" font-size="10.00" fill="#000000">If some main Culm strata is neiter CM,</text>
<text text-anchor="start" x="568.9835" y="-999" font-family="arial" font-size="10.00" fill="#000000"> ML, OR nor SIL in age, then it is CAM</text>
<text text-anchor="start" x="602.8755" y="-987" font-family="arial" font-size="10.00" fill="#000000"> in age #pri #chron&#45;hyp</text>
</g>
<!-- n15&#45;&gt;n36 -->
<g id="edge1" class="edge">
<title>n15&#45;&gt;n36</title>
<path fill="none" stroke="#ff0000" d="M753.6462,-1135.8813C736.0761,-1114.3906 710.7867,-1083.4581 690.082,-1058.1334"/>
<polygon fill="#ff0000" stroke="#ff0000" points="692.5757,-1055.6538 683.5364,-1050.1272 687.1563,-1060.0845 692.5757,-1055.6538"/>
</g>
<!-- n37 -->
<g id="node12" class="node">
<title>n37</title>
<path fill="#f4a460" stroke="#000000" d="M644,-752C644,-752 472,-752 472,-752 466,-752 460,-746 460,-740 460,-740 460,-728 460,-728 460,-722 466,-716 472,-716 472,-716 644,-716 644,-716 650,-716 656,-722 656,-728 656,-728 656,-740 656,-740 656,-746 650,-752 644,-752"/>
<text text-anchor="start" x="490.494" y="-732" font-family="arial" font-weight="bold" font-size="10.00" fill="#000000">Dating the Main Culm &#45; GRE.1</text>
</g>
<!-- n15&#45;&gt;n37 -->
<g id="edge5" class="edge">
<title>n15&#45;&gt;n37</title>
<path fill="none" stroke="#ff0000" d="M781.3748,-1135.7101C789.3123,-1096.1312 797.733,-1020.8929 761,-974 699.2904,-895.2221 605.7398,-985.0164 547,-904 516.6117,-862.0872 532.9229,-798.011 546.2784,-761.6759"/>
<polygon fill="#ff0000" stroke="#ff0000" points="549.5982,-762.7944 549.9257,-752.2046 543.0658,-760.2788 549.5982,-762.7944"/>
</g>
<!-- n38 -->
<g id="node13" class="node">
<title>n38</title>
<path fill="#ffc1c1" stroke="#000000" d="M1072,-752C1072,-752 900,-752 900,-752 894,-752 888,-746 888,-740 888,-740 888,-728 888,-728 888,-722 894,-716 900,-716 900,-716 1072,-716 1072,-716 1078,-716 1084,-722 1084,-728 1084,-728 1084,-740 1084,-740 1084,-746 1078,-752 1072,-752"/>
<text text-anchor="start" x="912.935" y="-732" font-family="arial" font-weight="bold" font-size="10.00" fill="#000000">Redating the Main Culm &#45; COA.1</text>
</g>
<!-- n15&#45;&gt;n38 -->
<g id="edge119" class="edge">
<title>n15&#45;&gt;n38</title>
<path fill="none" stroke="#00ff00" d="M805.7722,-1135.8139C828.4627,-1115.0791 858.6314,-1084.3136 878,-1052 936.715,-954.0427 968.807,-819.8177 980.6427,-762.1729"/>
<polygon fill="#00ff00" stroke="#00ff00" points="984.1457,-762.5049 982.6803,-752.0119 977.2823,-761.1285 984.1457,-762.5049"/>
</g>
<!-- n39 -->
<g id="node14" class="node">
<title>n39</title>
<path fill="#eedd82" stroke="#000000" d="M430,-752C430,-752 258,-752 258,-752 252,-752 246,-746 246,-740 246,-740 246,-728 246,-728 246,-722 252,-716 258,-716 258,-716 430,-716 430,-716 436,-716 442,-722 442,-728 442,-728 442,-740 442,-740 442,-746 436,-752 430,-752"/>
<text text-anchor="start" x="271.49" y="-732" font-family="arial" font-weight="bold" font-size="10.00" fill="#000000">Redating the Main Culm &#45; DEV.1</text>
</g>
<!-- n15&#45;&gt;n39 -->
<g id="edge15" class="edge">
<title>n15&#45;&gt;n39</title>
<path fill="none" stroke="#ff0000" d="M711.4829,-1135.9997C653.4723,-1111.435 572.9219,-1075.0156 547,-1052 449.7699,-965.6712 381.2652,-822.0086 355.4026,-761.843"/>
<polygon fill="#ff0000" stroke="#ff0000" points="358.469,-760.1087 351.3448,-752.2667 352.0237,-762.8398 358.469,-760.1087"/>
</g>
<!-- n40 -->
<g id="node15" class="node">
<title>n40</title>
<path fill="#f4a460" stroke="#000000" d="M858,-752C858,-752 686,-752 686,-752 680,-752 674,-746 674,-740 674,-740 674,-728 674,-728 674,-722 680,-716 686,-716 686,-716 858,-716 858,-716 864,-716 870,-722 870,-728 870,-728 870,-740 870,-740 870,-746 864,-752 858,-752"/>
<text text-anchor="start" x="698.935" y="-732" font-family="arial" font-weight="bold" font-size="10.00" fill="#000000">Redating the Main Culm &#45; GRE.2</text>
</g>
<!-- n15&#45;&gt;n40 -->
<g id="edge23" class="edge">
<title>n15&#45;&gt;n40</title>
<path fill="none" stroke="#ff0000" d="M781.4069,-1135.9733C786.5157,-1113.8089 793.2534,-1081.0336 796,-1052 805.2087,-954.6568 807.7135,-929.0736 796,-832 793.1006,-807.9719 786.3398,-781.3336 780.7304,-761.9019"/>
<polygon fill="#ff0000" stroke="#ff0000" points="784.046,-760.772 777.8466,-752.1803 777.335,-762.7628 784.046,-760.772"/>
</g>
<!-- n16 -->
<g id="node7" class="node">
<title>n16</title>
<path fill="#ffffff" stroke="#ffe4b5" stroke-width="2" d="M643.5,-1188C643.5,-1188 466.5,-1188 466.5,-1188 460.5,-1188 454.5,-1182 454.5,-1176 454.5,-1176 454.5,-1148 454.5,-1148 454.5,-1142 460.5,-1136 466.5,-1136 466.5,-1136 643.5,-1136 643.5,-1136 649.5,-1136 655.5,-1142 655.5,-1148 655.5,-1148 655.5,-1176 655.5,-1176 655.5,-1182 649.5,-1188 643.5,-1188"/>
<text text-anchor="start" x="502.1645" y="-1174" font-family="arial" font-weight="bold" font-size="10.00" fill="#000000">Some Main Culm as ML</text>
<text text-anchor="start" x="464.929" y="-1157" font-family="arial" font-size="10.00" fill="#000000">Some part of the main Culm is ML in age</text>
<text text-anchor="start" x="519.382" y="-1145" font-family="arial" font-size="10.00" fill="#000000"> #pri #chron&#45;hyp</text>
</g>
<!-- n16&#45;&gt;n36 -->
<g id="edge2" class="edge">
<title>n16&#45;&gt;n36</title>
<path fill="none" stroke="#ff0000" d="M572.4713,-1135.8813C586.7846,-1114.4837 607.3591,-1083.7258 624.2581,-1058.4626"/>
<polygon fill="#ff0000" stroke="#ff0000" points="627.183,-1060.3851 629.8338,-1050.1272 621.3647,-1056.4931 627.183,-1060.3851"/>
</g>
<!-- n16&#45;&gt;n37 -->
<g id="edge6" class="edge">
<title>n16&#45;&gt;n37</title>
<path fill="none" stroke="#ff0000" d="M545.3988,-1135.6258C526.2413,-1079.3123 487.1619,-943.3715 512,-832 517.6605,-806.619 530.6392,-780.0469 541.3721,-760.9852"/>
<polygon fill="#ff0000" stroke="#ff0000" points="544.4369,-762.6769 546.4187,-752.2691 538.379,-759.1694 544.4369,-762.6769"/>
</g>
<!-- n16&#45;&gt;n38 -->
<g id="edge9" class="edge">
<title>n16&#45;&gt;n38</title>
<path fill="none" stroke="#ff0000" d="M629.2437,-1135.9752C674.588,-1117.5025 731.7706,-1089.3479 774,-1052 872.8714,-964.5574 946.0943,-820.9976 973.8294,-761.3317"/>
<polygon fill="#ff0000" stroke="#ff0000" points="977.0435,-762.7194 978.0351,-752.171 970.6819,-759.7987 977.0435,-762.7194"/>
</g>
<!-- n16&#45;&gt;n39 -->
<g id="edge120" class="edge">
<title>n16&#45;&gt;n39</title>
<path fill="none" stroke="#00ff00" d="M509.9098,-1135.8557C480.2947,-1116.3965 443.081,-1087.1802 421,-1052 361.7082,-957.5341 348.0718,-820.9103 344.9361,-762.3665"/>
<polygon fill="#00ff00" stroke="#00ff00" points="348.417,-761.8769 344.4512,-752.0523 341.4247,-762.2057 348.417,-761.8769"/>
</g>
<!-- n16&#45;&gt;n40 -->
<g id="edge24" class="edge">
<title>n16&#45;&gt;n40</title>
<path fill="none" stroke="#ff0000" d="M619.7108,-1135.9178C673.7542,-1112.6939 744.5382,-1078.406 761,-1052 790.7514,-1004.2764 780.136,-831.3093 774.5448,-762.5098"/>
<polygon fill="#ff0000" stroke="#ff0000" points="778.0203,-762.0702 773.6975,-752.3974 771.0448,-762.6548 778.0203,-762.0702"/>
</g>
<!-- n17 -->
<g id="node8" class="node">
<title>n17</title>
<path fill="#ffffff" stroke="#ffe4b5" stroke-width="2" d="M424,-1188C424,-1188 252,-1188 252,-1188 246,-1188 240,-1182 240,-1176 240,-1176 240,-1148 240,-1148 240,-1142 246,-1136 252,-1136 252,-1136 424,-1136 424,-1136 430,-1136 436,-1142 436,-1148 436,-1148 436,-1176 436,-1176 436,-1182 430,-1188 424,-1188"/>
<text text-anchor="start" x="280.775" y="-1174" font-family="arial" font-weight="bold" font-size="10.00" fill="#000000">Some Main Culm as ORS</text>
<text text-anchor="start" x="253.2675" y="-1157" font-family="arial" font-size="10.00" fill="#000000">Some part of the main Culm is ORS in</text>
<text text-anchor="start" x="292.154" y="-1145" font-family="arial" font-size="10.00" fill="#000000"> age #pri #chron&#45;hyp</text>
</g>
<!-- n17&#45;&gt;n36 -->
<g id="edge3" class="edge">
<title>n17&#45;&gt;n36</title>
<path fill="none" stroke="#ff0000" d="M393.7671,-1135.8813C441.9368,-1113.3208 512.3234,-1080.3549 567.7519,-1054.3947"/>
<polygon fill="#ff0000" stroke="#ff0000" points="569.2921,-1057.5383 576.8635,-1050.1272 566.323,-1051.1991 569.2921,-1057.5383"/>
</g>
<!-- n17&#45;&gt;n37 -->
<g id="edge7" class="edge">
<title>n17&#45;&gt;n37</title>
<path fill="none" stroke="#ff0000" d="M350.2919,-1135.5966C376.6974,-1079.2272 441.2952,-943.1852 501,-832 514.1028,-807.5993 530.0229,-780.414 541.7043,-760.8776"/>
<polygon fill="#ff0000" stroke="#ff0000" points="544.76,-762.5875 546.9074,-752.2125 538.7588,-758.9839 544.76,-762.5875"/>
</g>
<!-- n17&#45;&gt;n38 -->
<g id="edge10" class="edge">
<title>n17&#45;&gt;n38</title>
<path fill="none" stroke="#ff0000" d="M360.4317,-1135.7648C396.1078,-1095.569 469.6865,-1018.7136 547,-974 633.6261,-923.9006 672.3119,-950.3514 761,-904 839.3055,-863.0749 919.0238,-795.3669 959.2481,-758.9758"/>
<polygon fill="#ff0000" stroke="#ff0000" points="961.7225,-761.4561 966.7542,-752.1323 957.0063,-756.2833 961.7225,-761.4561"/>
</g>
<!-- n17&#45;&gt;n39 -->
<g id="edge16" class="edge">
<title>n17&#45;&gt;n39</title>
<path fill="none" stroke="#ff0000" d="M338.3663,-1135.871C339.4282,-1060.1208 342.5025,-840.823 343.6026,-762.3468"/>
<polygon fill="#ff0000" stroke="#ff0000" points="347.1037,-762.2858 343.7443,-752.2377 340.1044,-762.1876 347.1037,-762.2858"/>
</g>
<!-- n17&#45;&gt;n40 -->
<g id="edge25" class="edge">
<title>n17&#45;&gt;n40</title>
<path fill="none" stroke="#ff0000" d="M356.5725,-1135.5828C371.9908,-1113.4586 394.3357,-1080.9435 413,-1052 444.0228,-1003.8916 503.8602,-869.627 547,-832 588.893,-795.4605 646.5262,-770.711 692.9745,-755.2247"/>
<polygon fill="#ff0000" stroke="#ff0000" points="694.2793,-758.4809 702.7066,-752.0598 692.1144,-751.8241 694.2793,-758.4809"/>
</g>
<!-- n18 -->
<g id="node9" class="node">
<title>n18</title>
<path fill="#ffffff" stroke="#ffe4b5" stroke-width="2" d="M1078,-1188C1078,-1188 906,-1188 906,-1188 900,-1188 894,-1182 894,-1176 894,-1176 894,-1148 894,-1148 894,-1142 900,-1136 906,-1136 906,-1136 1078,-1136 1078,-1136 1084,-1136 1090,-1142 1090,-1148 1090,-1148 1090,-1176 1090,-1176 1090,-1182 1084,-1188 1078,-1188"/>
<text text-anchor="start" x="938.105" y="-1174" font-family="arial" font-weight="bold" font-size="10.00" fill="#000000">Some Main Culm as SIL</text>
<text text-anchor="start" x="910.5975" y="-1157" font-family="arial" font-size="10.00" fill="#000000">Some part of the main Culm is SIL in</text>
<text text-anchor="start" x="946.154" y="-1145" font-family="arial" font-size="10.00" fill="#000000"> age #pri #chron&#45;hyp</text>
</g>
<!-- n18&#45;&gt;n36 -->
<g id="edge4" class="edge">
<title>n18&#45;&gt;n36</title>
<path fill="none" stroke="#ff0000" d="M932.3504,-1135.8813C880.7209,-1113.2742 805.2296,-1080.2189 745.8862,-1054.2342"/>
<polygon fill="#ff0000" stroke="#ff0000" points="747.071,-1050.9322 736.5067,-1050.1272 744.2632,-1057.3444 747.071,-1050.9322"/>
</g>
<!-- n18&#45;&gt;n37 -->
<g id="edge8" class="edge">
<title>n18&#45;&gt;n37</title>
<path fill="none" stroke="#ff0000" d="M979.6428,-1135.914C949.8135,-1075.3263 868.3309,-923.3091 761,-832 720.402,-797.4623 665.5426,-771.9353 623.0882,-755.6073"/>
<polygon fill="#ff0000" stroke="#ff0000" points="624.2719,-752.3131 613.68,-752.0605 621.8025,-758.8631 624.2719,-752.3131"/>
</g>
<!-- n18&#45;&gt;n38 -->
<g id="edge11" class="edge">
<title>n18&#45;&gt;n38</title>
<path fill="none" stroke="#ff0000" d="M991.6337,-1135.871C990.5718,-1060.1208 987.4975,-840.823 986.3974,-762.3468"/>
<polygon fill="#ff0000" stroke="#ff0000" points="989.8956,-762.1876 986.2557,-752.2377 982.8963,-762.2858 989.8956,-762.1876"/>
</g>
<!-- n18&#45;&gt;n39 -->
<g id="edge17" class="edge">
<title>n18&#45;&gt;n39</title>
<path fill="none" stroke="#ff0000" d="M966.623,-1135.9163C926.41,-1095.9233 844.0573,-1019.3347 761,-974 673.1626,-926.0562 634.4991,-952.5586 547,-904 474.7643,-863.912 403.9056,-796.3279 368.0906,-759.6098"/>
<polygon fill="#ff0000" stroke="#ff0000" points="370.458,-757.023 360.9921,-752.2641 365.4243,-761.8873 370.458,-757.023"/>
</g>
<!-- n18&#45;&gt;n40 -->
<g id="edge121" class="edge">
<title>n18&#45;&gt;n40</title>
<path fill="none" stroke="#00ff00" d="M991.6285,-1135.9713C989.5886,-1076.7896 977.6584,-929.7072 911,-832 888.5305,-799.0644 851.0922,-773.608 820.7276,-756.9042"/>
<polygon fill="#00ff00" stroke="#00ff00" points="822.0248,-753.629 811.5556,-752.0026 818.7255,-759.8028 822.0248,-753.629"/>
</g>
<!-- n19 -->
<g id="node10" class="node">
<title>n19</title>
<path fill="#ffffff" stroke="#ffe4b5" stroke-width="2" d="M740,-894C740,-894 568,-894 568,-894 562,-894 556,-888 556,-882 556,-882 556,-854 556,-854 556,-848 562,-842 568,-842 568,-842 740,-842 740,-842 746,-842 752,-848 752,-854 752,-854 752,-882 752,-882 752,-888 746,-894 740,-894"/>
<text text-anchor="start" x="596.5" y="-880" font-family="arial" font-weight="bold" font-size="10.00" fill="#000000">Some Main Culm as CAM</text>
<text text-anchor="start" x="568.9925" y="-863" font-family="arial" font-size="10.00" fill="#000000">Some part of the main Culm is CAM in</text>
<text text-anchor="start" x="608.154" y="-851" font-family="arial" font-size="10.00" fill="#000000"> age #pri #chron&#45;hyp</text>
</g>
<!-- n19&#45;&gt;n37 -->
<g id="edge122" class="edge">
<title>n19&#45;&gt;n37</title>
<path fill="none" stroke="#00ff00" d="M635.2623,-841.8453C618.4475,-818.3746 593.8854,-784.0901 576.9928,-760.5108"/>
<polygon fill="#00ff00" stroke="#00ff00" points="579.8138,-758.4387 571.1447,-752.3479 574.1234,-762.5154 579.8138,-758.4387"/>
</g>
<!-- n19&#45;&gt;n38 -->
<g id="edge12" class="edge">
<title>n19&#45;&gt;n38</title>
<path fill="none" stroke="#ff0000" d="M718.8011,-841.8453C780.8293,-816.8098 873.3419,-779.4704 931.6318,-755.9438"/>
<polygon fill="#ff0000" stroke="#ff0000" points="933.0743,-759.136 941.0375,-752.1475 930.4544,-752.6447 933.0743,-759.136"/>
</g>
<!-- n19&#45;&gt;n39 -->
<g id="edge18" class="edge">
<title>n19&#45;&gt;n39</title>
<path fill="none" stroke="#ff0000" d="M593.493,-841.8453C535.8138,-816.9131 449.9048,-779.7782 395.4404,-756.2355"/>
<polygon fill="#ff0000" stroke="#ff0000" points="396.5509,-752.9026 385.983,-752.1475 393.7735,-759.328 396.5509,-752.9026"/>
</g>
<!-- n19&#45;&gt;n40 -->
<g id="edge26" class="edge">
<title>n19&#45;&gt;n40</title>
<path fill="none" stroke="#ff0000" d="M677.0317,-841.8453C697.8812,-818.1688 728.4212,-783.4877 749.1989,-759.8927"/>
<polygon fill="#ff0000" stroke="#ff0000" points="751.8608,-762.1659 755.8429,-752.3479 746.6073,-757.5397 751.8608,-762.1659"/>
</g>
<!-- n36&#45;&gt;n19 -->
<g id="edge103" class="edge">
<title>n36&#45;&gt;n19</title>
<path fill="none" stroke="#00ff00" d="M654,-977.9101C654,-955.4575 654,-926.6832 654,-904.2085"/>
<polygon fill="#00ff00" stroke="#00ff00" points="657.5001,-904.0545 654,-894.0545 650.5001,-904.0546 657.5001,-904.0545"/>
</g>
<!-- n37&#45;&gt;n1 -->
<g id="edge104" class="edge">
<title>n37&#45;&gt;n1</title>
<path fill="none" stroke="#00ff00" d="M564.8342,-715.9693C571.7847,-697.6319 582.7425,-668.7219 591.4581,-645.7275"/>
<polygon fill="#00ff00" stroke="#00ff00" points="594.7664,-646.8744 595.0379,-636.283 588.2208,-644.3933 594.7664,-646.8744"/>
</g>
<!-- n38&#45;&gt;n6 -->
<g id="edge105" class="edge">
<title>n38&#45;&gt;n6</title>
<path fill="none" stroke="#00ff00" d="M975.572,-715.7329C951.6319,-673.7966 892.3943,-570.0287 861.1047,-515.218"/>
<polygon fill="#00ff00" stroke="#00ff00" points="863.9645,-513.1677 855.9672,-506.2184 857.8853,-516.6381 863.9645,-513.1677"/>
</g>
<!-- n39&#45;&gt;n11 -->
<g id="edge106" class="edge">
<title>n39&#45;&gt;n11</title>
<path fill="none" stroke="#00ff00" d="M350.7831,-715.8104C375.2437,-651.8691 464.0697,-433.446 588,-288 611.783,-260.088 644.1339,-234.7231 671.0903,-216.0314"/>
<polygon fill="#00ff00" stroke="#00ff00" points="673.3466,-218.7291 679.6352,-210.2024 669.4019,-212.9465 673.3466,-218.7291"/>
</g>
<!-- n40&#45;&gt;n13 -->
<g id="edge107" class="edge">
<title>n40&#45;&gt;n13</title>
<path fill="none" stroke="#00ff00" d="M767.8333,-715.9941C759.3101,-678.3553 739.9361,-588.4949 731,-512 725.2009,-462.3588 723.1347,-404.5878 722.4008,-368.1586"/>
<polygon fill="#00ff00" stroke="#00ff00" points="725.8978,-367.9587 722.22,-358.0227 718.899,-368.0836 725.8978,-367.9587"/>
</g>
<!-- n2 -->
<g id="node16" class="node">
<title>n2</title>
<path fill="#ffffff" stroke="#f4a460" stroke-width="2" d="M1300,-1188C1300,-1188 1128,-1188 1128,-1188 1122,-1188 1116,-1182 1116,-1176 1116,-1176 1116,-1148 1116,-1148 1116,-1142 1122,-1136 1128,-1136 1128,-1136 1300,-1136 1300,-1136 1306,-1136 1312,-1142 1312,-1148 1312,-1148 1312,-1176 1312,-1176 1312,-1182 1306,-1188 1300,-1188"/>
<text text-anchor="start" x="1165.6545" y="-1174" font-family="arial" font-weight="bold" font-size="10.00" fill="#000000">Ancient French Strata</text>
<text text-anchor="start" x="1131.7525" y="-1157" font-family="arial" font-size="10.00" fill="#000000">In the Bocage, there are pre&#45;Old Red</text>
<text text-anchor="start" x="1132.03" y="-1145" font-family="arial" font-size="10.00" fill="#000000"> Sandstone strata. #GRE #chron&#45;hyp</text>
</g>
<!-- n3 -->
<g id="node17" class="node">
<title>n3</title>
<path fill="#ffffff" stroke="#ffc1c1" stroke-width="2" d="M1827,-512C1827,-512 1655,-512 1655,-512 1649,-512 1643,-506 1643,-500 1643,-500 1643,-460 1643,-460 1643,-454 1649,-448 1655,-448 1655,-448 1827,-448 1827,-448 1833,-448 1839,-454 1839,-460 1839,-460 1839,-500 1839,-500 1839,-506 1833,-512 1827,-512"/>
<text text-anchor="start" x="1680.716" y="-498" font-family="arial" font-weight="bold" font-size="10.00" fill="#000000">Non&#45;Culm as SIL and CAM</text>
<text text-anchor="start" x="1660.1465" y="-481" font-family="arial" font-size="10.00" fill="#000000">In Devon, the non&#45;Culm strata range</text>
<text text-anchor="start" x="1652.934" y="-469" font-family="arial" font-size="10.00" fill="#000000"> from Cambrian to Silurian in age #COA</text>
<text text-anchor="start" x="1714.6045" y="-457" font-family="arial" font-size="10.00" fill="#000000"> #chron&#45;hyp</text>
</g>
<!-- n5 -->
<g id="node18" class="node">
<title>n5</title>
<path fill="#ffffff" stroke="#f4a460" stroke-width="2" d="M1758,-358C1758,-358 1586,-358 1586,-358 1580,-358 1574,-352 1574,-346 1574,-346 1574,-318 1574,-318 1574,-312 1580,-306 1586,-306 1586,-306 1758,-306 1758,-306 1764,-306 1770,-312 1770,-318 1770,-318 1770,-346 1770,-346 1770,-352 1764,-358 1758,-358"/>
<text text-anchor="start" x="1630.337" y="-344" font-family="arial" font-weight="bold" font-size="10.00" fill="#000000">Non&#45;Culm as CAM</text>
<text text-anchor="start" x="1595.316" y="-327" font-family="arial" font-size="10.00" fill="#000000">The non&#45;Culm strata is nothing but</text>
<text text-anchor="start" x="1591.1505" y="-315" font-family="arial" font-size="10.00" fill="#000000"> Cambrian in age #GRE #chron&#45;hyp </text>
</g>
<!-- n3&#45;&gt;n5 -->
<g id="edge91" class="edge">
<title>n3&#45;&gt;n5</title>
<path fill="none" stroke="#ff0000" d="M1720.3496,-447.8862C1707.9263,-424.1695 1692.8191,-391.8939 1682.6586,-367.427"/>
<polygon fill="#ff0000" stroke="#ff0000" points="1685.8923,-366.0873 1678.8918,-358.1347 1679.405,-368.7171 1685.8923,-366.0873"/>
</g>
<!-- n14 -->
<g id="node19" class="node">
<title>n14</title>
<path fill="#ffffff" stroke="#ffc1c1" stroke-width="2" d="M1875,-216C1875,-216 1703,-216 1703,-216 1697,-216 1691,-210 1691,-204 1691,-204 1691,-164 1691,-164 1691,-158 1697,-152 1703,-152 1703,-152 1875,-152 1875,-152 1881,-152 1887,-158 1887,-164 1887,-164 1887,-204 1887,-204 1887,-210 1881,-216 1875,-216"/>
<text text-anchor="start" x="1728.991" y="-202" font-family="arial" font-weight="bold" font-size="10.00" fill="#000000">Non&#45;Culm as SIL and ORS</text>
<text text-anchor="start" x="1708.1465" y="-185" font-family="arial" font-size="10.00" fill="#000000">In Devon, the non&#45;Culm strata range</text>
<text text-anchor="start" x="1703.7035" y="-173" font-family="arial" font-size="10.00" fill="#000000"> from Silurian to Old Red Sandstone in</text>
<text text-anchor="start" x="1737.874" y="-161" font-family="arial" font-size="10.00" fill="#000000"> age #COA #chron&#45;hyp</text>
</g>
<!-- n3&#45;&gt;n14 -->
<g id="edge100" class="edge">
<title>n3&#45;&gt;n14</title>
<path fill="none" stroke="#ff0000" d="M1747.7747,-447.9365C1754.9851,-427.7361 1764.9297,-400.8627 1770,-376 1780.3472,-325.262 1781.8259,-265.5088 1783.3879,-226.2998"/>
<polygon fill="#ff0000" stroke="#ff0000" points="1786.8849,-226.442 1783.815,-216.3017 1779.8913,-226.1432 1786.8849,-226.442"/>
</g>
<!-- n5&#45;&gt;n3 -->
<g id="edge92" class="edge">
<title>n5&#45;&gt;n3</title>
<path fill="none" stroke="#ff0000" d="M1689.477,-358.1347C1701.4288,-380.3378 1716.7574,-412.6109 1727.7303,-438.3681"/>
<polygon fill="#ff0000" stroke="#ff0000" points="1724.6222,-440.0081 1731.7064,-447.8862 1731.0813,-437.3098 1724.6222,-440.0081"/>
</g>
<!-- n5&#45;&gt;n14 -->
<g id="edge98" class="edge">
<title>n5&#45;&gt;n14</title>
<path fill="none" stroke="#ff0000" d="M1687.3565,-305.8813C1703.6731,-283.1695 1729.7057,-249.9125 1751.4117,-223.8736"/>
<polygon fill="#ff0000" stroke="#ff0000" points="1754.2378,-225.9509 1757.9935,-216.044 1748.8796,-221.4465 1754.2378,-225.9509"/>
</g>
<!-- n14&#45;&gt;n3 -->
<g id="edge99" class="edge">
<title>n14&#45;&gt;n3</title>
<path fill="none" stroke="#ff0000" d="M1796.6364,-216.3017C1800.0194,-254.7575 1799.2718,-320.728 1788,-376 1783.6625,-397.2693 1775.7579,-420.01 1767.5046,-438.7858"/>
<polygon fill="#ff0000" stroke="#ff0000" points="1764.2952,-437.3878 1763.3071,-447.9365 1770.6578,-440.3064 1764.2952,-437.3878"/>
</g>
<!-- n14&#45;&gt;n5 -->
<g id="edge97" class="edge">
<title>n14&#45;&gt;n5</title>
<path fill="none" stroke="#ff0000" d="M1769.3423,-216.044C1751.5719,-240.2943 1725.3365,-273.5226 1704.4979,-298.194"/>
<polygon fill="#ff0000" stroke="#ff0000" points="1701.7673,-296.0021 1697.9394,-305.8813 1707.0925,-300.5454 1701.7673,-296.0021"/>
</g>
<!-- n27 -->
<g id="node20" class="node">
<title>n27</title>
<path fill="#ffffff" stroke="#ffe4b5" stroke-width="2" d="M2171,-1040C2171,-1040 1999,-1040 1999,-1040 1993,-1040 1987,-1034 1987,-1028 1987,-1028 1987,-1000 1987,-1000 1987,-994 1993,-988 1999,-988 1999,-988 2171,-988 2171,-988 2177,-988 2183,-994 2183,-1000 2183,-1000 2183,-1028 2183,-1028 2183,-1034 2177,-1040 2171,-1040"/>
<text text-anchor="start" x="2032.224" y="-1026" font-family="arial" font-weight="bold" font-size="10.00" fill="#000000">Some Non&#45;Culm as CM</text>
<text text-anchor="start" x="1996.933" y="-1009" font-family="arial" font-size="10.00" fill="#000000">Some part of the non&#45;Culm strata is CM</text>
<text text-anchor="start" x="2033.8755" y="-997" font-family="arial" font-size="10.00" fill="#000000"> in age #pri #chron&#45;hyp</text>
</g>
<!-- n48 -->
<g id="node26" class="node">
<title>n48</title>
<path fill="#ffe4b5" stroke="#000000" d="M1870,-904C1870,-904 1698,-904 1698,-904 1692,-904 1686,-898 1686,-892 1686,-892 1686,-844 1686,-844 1686,-838 1692,-832 1698,-832 1698,-832 1870,-832 1870,-832 1876,-832 1882,-838 1882,-844 1882,-844 1882,-892 1882,-892 1882,-898 1876,-904 1870,-904"/>
<text text-anchor="start" x="1710.365" y="-890" font-family="arial" font-weight="bold" font-size="10.00" fill="#000000">Standard Sequence as Partition &#45;</text>
<text text-anchor="start" x="1760.1145" y="-880" font-family="arial" font-weight="bold" font-size="10.00" fill="#000000"> Non&#45;Culm</text>
<text text-anchor="start" x="1701.7625" y="-865" font-family="arial" font-size="10.00" fill="#000000">If some part of the non&#45;Culm strata is</text>
<text text-anchor="start" x="1695.9245" y="-853" font-family="arial" font-size="10.00" fill="#000000"> neiter CM, ML, OR nor SIL in age, then</text>
<text text-anchor="start" x="1711.49" y="-841" font-family="arial" font-size="10.00" fill="#000000"> it is CAM in age #pri #chron&#45;hyp</text>
</g>
<!-- n27&#45;&gt;n48 -->
<g id="edge80" class="edge">
<title>n27&#45;&gt;n48</title>
<path fill="none" stroke="#ff0000" d="M2031.1872,-987.8981C1985.7239,-965.8462 1919.8472,-933.8927 1867.5319,-908.5171"/>
<polygon fill="#ff0000" stroke="#ff0000" points="1868.7876,-905.2362 1858.2627,-904.0211 1865.7326,-911.5345 1868.7876,-905.2362"/>
</g>
<!-- n49 -->
<g id="node27" class="node">
<title>n49</title>
<path fill="#f4a460" stroke="#000000" d="M1603,-628C1603,-628 1431,-628 1431,-628 1425,-628 1419,-622 1419,-616 1419,-616 1419,-604 1419,-604 1419,-598 1425,-592 1431,-592 1431,-592 1603,-592 1603,-592 1609,-592 1615,-598 1615,-604 1615,-604 1615,-616 1615,-616 1615,-622 1609,-628 1603,-628"/>
<text text-anchor="start" x="1452.273" y="-608" font-family="arial" font-weight="bold" font-size="10.00" fill="#000000">Dating the Non&#45;Culm&#45; GRE.1</text>
</g>
<!-- n27&#45;&gt;n49 -->
<g id="edge84" class="edge">
<title>n27&#45;&gt;n49</title>
<path fill="none" stroke="#ff0000" d="M2056.807,-987.8374C2032.864,-965.5901 1997.6136,-932.7693 1967,-904 1933.0937,-872.1363 1931.5106,-854.8874 1891,-832 1786.6046,-773.0195 1730.2624,-827.2611 1631,-760 1584.0969,-728.218 1548.474,-670.7724 1530.3395,-636.9426"/>
<polygon fill="#ff0000" stroke="#ff0000" points="1533.4324,-635.3041 1525.6935,-628.068 1527.2308,-638.5507 1533.4324,-635.3041"/>
</g>
<!-- n50 -->
<g id="node28" class="node">
<title>n50</title>
<path fill="#ffc1c1" stroke="#000000" d="M1836.5,-628C1836.5,-628 1645.5,-628 1645.5,-628 1639.5,-628 1633.5,-622 1633.5,-616 1633.5,-616 1633.5,-604 1633.5,-604 1633.5,-598 1639.5,-592 1645.5,-592 1645.5,-592 1836.5,-592 1836.5,-592 1842.5,-592 1848.5,-598 1848.5,-604 1848.5,-604 1848.5,-616 1848.5,-616 1848.5,-622 1842.5,-628 1836.5,-628"/>
<text text-anchor="start" x="1643.7085" y="-608" font-family="arial" font-weight="bold" font-size="10.00" fill="#000000">Extending the Non&#45;Culm Upwards &#45; COA.2a</text>
</g>
<!-- n27&#45;&gt;n50 -->
<g id="edge90" class="edge">
<title>n27&#45;&gt;n50</title>
<path fill="none" stroke="#ff0000" d="M2070.3877,-987.8319C2038.628,-932.3314 1958.9711,-800.3435 1870,-708 1842.1782,-679.1236 1805.3352,-652.0154 1778.1482,-633.6622"/>
<polygon fill="#ff0000" stroke="#ff0000" points="1779.9462,-630.6544 1769.6842,-628.0198 1776.0634,-636.4789 1779.9462,-630.6544"/>
</g>
<!-- n51 -->
<g id="node29" class="node">
<title>n51</title>
<path fill="#ffc1c1" stroke="#000000" d="M2065,-628C2065,-628 1879,-628 1879,-628 1873,-628 1867,-622 1867,-616 1867,-616 1867,-604 1867,-604 1867,-598 1873,-592 1879,-592 1879,-592 2065,-592 2065,-592 2071,-592 2077,-598 2077,-604 2077,-604 2077,-616 2077,-616 2077,-622 2071,-628 2065,-628"/>
<text text-anchor="start" x="1876.988" y="-608" font-family="arial" font-weight="bold" font-size="10.00" fill="#000000">Extending the Non&#45;Culm Upwards &#45; COA.4</text>
</g>
<!-- n27&#45;&gt;n51 -->
<g id="edge94" class="edge">
<title>n27&#45;&gt;n51</title>
<path fill="none" stroke="#ff0000" d="M2078.95,-987.6035C2066.5782,-934.3561 2036.9322,-810.4214 2006,-708 1998.7731,-684.0705 1989.3875,-657.2797 1982.3089,-637.7654"/>
<polygon fill="#ff0000" stroke="#ff0000" points="1985.5613,-636.4684 1978.8411,-628.2776 1978.9867,-638.8714 1985.5613,-636.4684"/>
</g>
<!-- n28 -->
<g id="node21" class="node">
<title>n28</title>
<path fill="#ffffff" stroke="#ffe4b5" stroke-width="2" d="M1523,-1040C1523,-1040 1351,-1040 1351,-1040 1345,-1040 1339,-1034 1339,-1028 1339,-1028 1339,-1000 1339,-1000 1339,-994 1345,-988 1351,-988 1351,-988 1523,-988 1523,-988 1529,-988 1535,-994 1535,-1000 1535,-1000 1535,-1028 1535,-1028 1535,-1034 1529,-1040 1523,-1040"/>
<text text-anchor="start" x="1385.054" y="-1026" font-family="arial" font-weight="bold" font-size="10.00" fill="#000000">Some Non&#45;Culm as ML</text>
<text text-anchor="start" x="1349.763" y="-1009" font-family="arial" font-size="10.00" fill="#000000">Some part of the non&#45;Culm strata is ML</text>
<text text-anchor="start" x="1385.8755" y="-997" font-family="arial" font-size="10.00" fill="#000000"> in age #pri #chron&#45;hyp</text>
</g>
<!-- n28&#45;&gt;n48 -->
<g id="edge81" class="edge">
<title>n28&#45;&gt;n48</title>
<path fill="none" stroke="#ff0000" d="M1499.0366,-987.8981C1551.7734,-965.7092 1628.3364,-933.4953 1688.8244,-908.0451"/>
<polygon fill="#ff0000" stroke="#ff0000" points="1690.5283,-911.1254 1698.3882,-904.0211 1687.8135,-904.6733 1690.5283,-911.1254"/>
</g>
<!-- n28&#45;&gt;n49 -->
<g id="edge85" class="edge">
<title>n28&#45;&gt;n49</title>
<path fill="none" stroke="#ff0000" d="M1442.1874,-987.8037C1456.5099,-915.475 1496.5225,-713.4112 1511.3652,-638.4558"/>
<polygon fill="#ff0000" stroke="#ff0000" points="1514.8572,-638.8391 1513.3664,-628.3497 1507.9905,-637.4793 1514.8572,-638.8391"/>
</g>
<!-- n28&#45;&gt;n50 -->
<g id="edge89" class="edge">
<title>n28&#45;&gt;n50</title>
<path fill="none" stroke="#ff0000" d="M1447.4477,-987.9932C1470.7197,-932.2385 1531.1268,-798.8968 1611,-708 1637.2622,-678.1132 1673.9488,-651.4634 1701.6554,-633.527"/>
<polygon fill="#ff0000" stroke="#ff0000" points="1703.7549,-636.3395 1710.3109,-628.0166 1699.9956,-630.4346 1703.7549,-636.3395"/>
</g>
<!-- n28&#45;&gt;n51 -->
<g id="edge95" class="edge">
<title>n28&#45;&gt;n51</title>
<path fill="none" stroke="#ff0000" d="M1460.4751,-987.8692C1496.6492,-949.001 1569.7502,-875.8415 1645,-832 1728.8014,-783.1763 1784.3459,-830.4532 1851,-760 1867.5307,-742.5271 1853.3719,-728.4719 1866,-708 1884.1641,-678.5534 1913.5616,-652.3677 1936.7956,-634.4887"/>
<polygon fill="#ff0000" stroke="#ff0000" points="1939.1548,-637.0939 1945.0444,-628.2869 1934.9482,-631.4988 1939.1548,-637.0939"/>
</g>
<!-- n29 -->
<g id="node22" class="node">
<title>n29</title>
<path fill="#ffffff" stroke="#ffe4b5" stroke-width="2" d="M1743,-1040C1743,-1040 1565,-1040 1565,-1040 1559,-1040 1553,-1034 1553,-1028 1553,-1028 1553,-1000 1553,-1000 1553,-994 1559,-988 1565,-988 1565,-988 1743,-988 1743,-988 1749,-988 1755,-994 1755,-1000 1755,-1000 1755,-1028 1755,-1028 1755,-1034 1749,-1040 1743,-1040"/>
<text text-anchor="start" x="1598.1645" y="-1026" font-family="arial" font-weight="bold" font-size="10.00" fill="#000000">Some Non&#45;Culm as ORS</text>
<text text-anchor="start" x="1562.8735" y="-1009" font-family="arial" font-size="10.00" fill="#000000">Some part of the non&#45;Culm strata is ORS</text>
<text text-anchor="start" x="1602.8755" y="-997" font-family="arial" font-size="10.00" fill="#000000"> in age #pri #chron&#45;hyp</text>
</g>
<!-- n29&#45;&gt;n48 -->
<g id="edge82" class="edge">
<title>n29&#45;&gt;n48</title>
<path fill="none" stroke="#ff0000" d="M1677.2414,-987.8981C1696.1043,-966.7136 1723.1037,-936.3913 1745.2304,-911.5413"/>
<polygon fill="#ff0000" stroke="#ff0000" points="1747.8904,-913.8171 1751.9264,-904.0211 1742.6624,-909.1621 1747.8904,-913.8171"/>
</g>
<!-- n29&#45;&gt;n49 -->
<g id="edge86" class="edge">
<title>n29&#45;&gt;n49</title>
<path fill="none" stroke="#ff0000" d="M1642.324,-987.966C1632.515,-965.7972 1618.3253,-933.0194 1607,-904 1582.3159,-840.7507 1575.8941,-824.9153 1556,-760 1543.0936,-717.8859 1530.7463,-668.2971 1523.5203,-638.0133"/>
<polygon fill="#ff0000" stroke="#ff0000" points="1526.8951,-637.0752 1521.1855,-628.1505 1520.0834,-638.6879 1526.8951,-637.0752"/>
</g>
<!-- n29&#45;&gt;n50 -->
<g id="edge88" class="edge">
<title>n29&#45;&gt;n50</title>
<path fill="none" stroke="#ff0000" d="M1644.0557,-987.9914C1624.8274,-933.3483 1588.06,-803.7651 1631,-708 1645.1349,-676.4762 1674.9774,-650.9355 1700.0167,-633.8403"/>
<polygon fill="#ff0000" stroke="#ff0000" points="1702.221,-636.5791 1708.6394,-628.1497 1698.3653,-630.7367 1702.221,-636.5791"/>
</g>
<!-- n29&#45;&gt;n51 -->
<g id="edge131" class="edge">
<title>n29&#45;&gt;n51</title>
<path fill="none" stroke="#00ff00" d="M1649.5917,-987.9584C1644.6266,-949.5338 1641.3719,-877.3175 1677,-832 1732.556,-761.3351 1794.9772,-815.0978 1866,-760 1909.1112,-726.5554 1941.9475,-670.8063 1958.9843,-637.5106"/>
<polygon fill="#00ff00" stroke="#00ff00" points="1962.2227,-638.8598 1963.5623,-628.35 1955.9611,-635.7305 1962.2227,-638.8598"/>
</g>
<!-- n30 -->
<g id="node23" class="node">
<title>n30</title>
<path fill="#ffffff" stroke="#ffe4b5" stroke-width="2" d="M1957,-1040C1957,-1040 1785,-1040 1785,-1040 1779,-1040 1773,-1034 1773,-1028 1773,-1028 1773,-1000 1773,-1000 1773,-994 1779,-988 1785,-988 1785,-988 1957,-988 1957,-988 1963,-988 1969,-994 1969,-1000 1969,-1000 1969,-1028 1969,-1028 1969,-1034 1963,-1040 1957,-1040"/>
<text text-anchor="start" x="1818.4945" y="-1026" font-family="arial" font-weight="bold" font-size="10.00" fill="#000000">Some Non&#45;Culm as SIL</text>
<text text-anchor="start" x="1783.2035" y="-1009" font-family="arial" font-size="10.00" fill="#000000">Some part of the non&#45;Culm strata is SIL</text>
<text text-anchor="start" x="1819.8755" y="-997" font-family="arial" font-size="10.00" fill="#000000"> in age #pri #chron&#45;hyp</text>
</g>
<!-- n30&#45;&gt;n48 -->
<g id="edge83" class="edge">
<title>n30&#45;&gt;n48</title>
<path fill="none" stroke="#ff0000" d="M1855.4461,-987.8981C1843.0402,-967.0789 1825.3752,-937.4342 1810.7146,-912.8314"/>
<polygon fill="#ff0000" stroke="#ff0000" points="1813.5903,-910.8199 1805.4646,-904.0211 1807.577,-914.4032 1813.5903,-910.8199"/>
</g>
<!-- n30&#45;&gt;n49 -->
<g id="edge87" class="edge">
<title>n30&#45;&gt;n49</title>
<path fill="none" stroke="#ff0000" d="M1805.7682,-987.9027C1765.0601,-969.1648 1713.6234,-940.7489 1677,-904 1596.6774,-823.4022 1545.6214,-694.0939 1526.054,-637.7463"/>
<polygon fill="#ff0000" stroke="#ff0000" points="1529.306,-636.4383 1522.7668,-628.1022 1522.6803,-638.6967 1529.306,-636.4383"/>
</g>
<!-- n30&#45;&gt;n50 -->
<g id="edge132" class="edge">
<title>n30&#45;&gt;n50</title>
<path fill="none" stroke="#00ff00" d="M1877.1024,-987.9549C1881.9682,-965.7793 1888.3853,-932.9978 1891,-904 1898.9843,-815.4526 1899.5395,-782.487 1851,-708 1831.6387,-678.2888 1800.9823,-652.0138 1776.9454,-634.1685"/>
<polygon fill="#00ff00" stroke="#00ff00" points="1778.8969,-631.2601 1768.7487,-628.2161 1774.7837,-636.9242 1778.8969,-631.2601"/>
</g>
<!-- n30&#45;&gt;n51 -->
<g id="edge133" class="edge">
<title>n30&#45;&gt;n51</title>
<path fill="none" stroke="#00ff00" d="M1879.9915,-987.9642C1887.4771,-965.7944 1898.143,-933.016 1906,-904 1932.2226,-807.1598 1956.1976,-690.4104 1966.5752,-637.9343"/>
<polygon fill="#00ff00" stroke="#00ff00" points="1970.0272,-638.5187 1968.5227,-628.0313 1963.1588,-637.1679 1970.0272,-638.5187"/>
</g>
<!-- n31 -->
<g id="node24" class="node">
<title>n31</title>
<path fill="#ffffff" stroke="#ffe4b5" stroke-width="2" d="M1830,-760C1830,-760 1652,-760 1652,-760 1646,-760 1640,-754 1640,-748 1640,-748 1640,-720 1640,-720 1640,-714 1646,-708 1652,-708 1652,-708 1830,-708 1830,-708 1836,-708 1842,-714 1842,-720 1842,-720 1842,-748 1842,-748 1842,-754 1836,-760 1830,-760"/>
<text text-anchor="start" x="1684.8895" y="-746" font-family="arial" font-weight="bold" font-size="10.00" fill="#000000">Some Non&#45;Culm as CAM</text>
<text text-anchor="start" x="1649.5985" y="-729" font-family="arial" font-size="10.00" fill="#000000">Some part of the non&#45;Culm strata is CAM</text>
<text text-anchor="start" x="1689.8755" y="-717" font-family="arial" font-size="10.00" fill="#000000"> in age #pri #chron&#45;hyp</text>
</g>
<!-- n31&#45;&gt;n49 -->
<g id="edge134" class="edge">
<title>n31&#45;&gt;n49</title>
<path fill="none" stroke="#00ff00" d="M1693.7691,-707.8543C1653.723,-685.686 1596.8451,-654.2 1558.518,-632.9832"/>
<polygon fill="#00ff00" stroke="#00ff00" points="1560.12,-629.8695 1549.6759,-628.0885 1556.7297,-635.9938 1560.12,-629.8695"/>
</g>
<!-- n31&#45;&gt;n50 -->
<g id="edge135" class="edge">
<title>n31&#45;&gt;n50</title>
<path fill="none" stroke="#00ff00" d="M1741,-707.7028C1741,-687.3616 1741,-659.2427 1741,-638.3916"/>
<polygon fill="#00ff00" stroke="#00ff00" points="1744.5001,-638.23 1741,-628.23 1737.5001,-638.23 1744.5001,-638.23"/>
</g>
<!-- n31&#45;&gt;n51 -->
<g id="edge96" class="edge">
<title>n31&#45;&gt;n51</title>
<path fill="none" stroke="#ff0000" d="M1789.7069,-707.8543C1831.0044,-685.686 1889.6597,-654.2 1929.1846,-632.9832"/>
<polygon fill="#ff0000" stroke="#ff0000" points="1931.1475,-635.9019 1938.303,-628.0885 1927.8367,-629.7343 1931.1475,-635.9019"/>
</g>
<!-- n32 -->
<g id="node25" class="node">
<title>n32</title>
<path fill="#ffffff" stroke="#eedd82" stroke-width="2" d="M1740,-1188C1740,-1188 1568,-1188 1568,-1188 1562,-1188 1556,-1182 1556,-1176 1556,-1176 1556,-1148 1556,-1148 1556,-1142 1562,-1136 1568,-1136 1568,-1136 1740,-1136 1740,-1136 1746,-1136 1752,-1142 1752,-1148 1752,-1148 1752,-1176 1752,-1176 1752,-1182 1746,-1188 1740,-1188"/>
<text text-anchor="start" x="1608.4385" y="-1174" font-family="arial" font-weight="bold" font-size="10.00" fill="#000000">ORS in North Devon</text>
<text text-anchor="start" x="1569.2615" y="-1157" font-family="arial" font-size="10.00" fill="#000000">In north Devon, some non&#45;Culm strata</text>
<text text-anchor="start" x="1577.3145" y="-1145" font-family="arial" font-size="10.00" fill="#000000"> are ORS in age #DEV #chron&#45;hyp</text>
</g>
<!-- n32&#45;&gt;n29 -->
<g id="edge93" class="edge">
<title>n32&#45;&gt;n29</title>
<path fill="none" stroke="#00ff00" d="M1654,-1135.8813C1654,-1112.1452 1654,-1076.8911 1654,-1050.3961"/>
<polygon fill="#00ff00" stroke="#00ff00" points="1657.5001,-1050.3554 1654,-1040.3555 1650.5001,-1050.3555 1657.5001,-1050.3554"/>
</g>
<!-- n48&#45;&gt;n31 -->
<g id="edge115" class="edge">
<title>n48&#45;&gt;n31</title>
<path fill="none" stroke="#00ff00" d="M1772.3636,-831.7377C1766.1789,-812.4645 1758.604,-788.859 1752.448,-769.675"/>
<polygon fill="#00ff00" stroke="#00ff00" points="1755.7611,-768.5447 1749.3729,-760.0924 1749.0959,-770.6836 1755.7611,-768.5447"/>
</g>
<!-- n49&#45;&gt;n5 -->
<g id="edge116" class="edge">
<title>n49&#45;&gt;n5</title>
<path fill="none" stroke="#00ff00" d="M1527.17,-591.7596C1552.5502,-546.2389 1619.0271,-427.0095 1652.3561,-367.2322"/>
<polygon fill="#00ff00" stroke="#00ff00" points="1655.5964,-368.6078 1657.4093,-358.1692 1649.4825,-365.1989 1655.5964,-368.6078"/>
</g>
<!-- n50&#45;&gt;n3 -->
<g id="edge117" class="edge">
<title>n50&#45;&gt;n3</title>
<path fill="none" stroke="#00ff00" d="M1741,-591.9241C1741,-573.996 1741,-545.8701 1741,-522.299"/>
<polygon fill="#00ff00" stroke="#00ff00" points="1744.5001,-522.1818 1741,-512.1818 1737.5001,-522.1818 1744.5001,-522.1818"/>
</g>
<!-- n51&#45;&gt;n14 -->
<g id="edge118" class="edge">
<title>n51&#45;&gt;n14</title>
<path fill="none" stroke="#00ff00" d="M1964.2536,-591.9674C1937.1122,-528.7858 1845.8569,-316.3555 1806.886,-225.6362"/>
<polygon fill="#00ff00" stroke="#00ff00" points="1810.0028,-224.0241 1802.8399,-216.2174 1803.5711,-226.787 1810.0028,-224.0241"/>
</g>
<!-- n4 -->
<g id="node30" class="node">
<title>n4</title>
<path fill="#ffffff" stroke="#f4a460" stroke-width="2" d="M3035,-636C3035,-636 2859,-636 2859,-636 2853,-636 2847,-630 2847,-624 2847,-624 2847,-596 2847,-596 2847,-590 2853,-584 2859,-584 2859,-584 3035,-584 3035,-584 3041,-584 3047,-590 3047,-596 3047,-596 3047,-624 3047,-624 3047,-630 3041,-636 3035,-636"/>
<text text-anchor="start" x="2918.1095" y="-622" font-family="arial" font-weight="bold" font-size="10.00" fill="#000000">BCL as CAM</text>
<text text-anchor="start" x="2856.7025" y="-605" font-family="arial" font-size="10.00" fill="#000000">The black Culm Limestone is nothing but</text>
<text text-anchor="start" x="2866.1505" y="-593" font-family="arial" font-size="10.00" fill="#000000"> Cambrian in age #GRE #chron&#45;hyp </text>
</g>
<!-- n7 -->
<g id="node31" class="node">
<title>n7</title>
<path fill="#ffffff" stroke="#ffc1c1" stroke-width="2" d="M3037.5,-506C3037.5,-506 2856.5,-506 2856.5,-506 2850.5,-506 2844.5,-500 2844.5,-494 2844.5,-494 2844.5,-466 2844.5,-466 2844.5,-460 2850.5,-454 2856.5,-454 2856.5,-454 3037.5,-454 3037.5,-454 3043.5,-454 3049.5,-460 3049.5,-466 3049.5,-466 3049.5,-494 3049.5,-494 3049.5,-500 3043.5,-506 3037.5,-506"/>
<text text-anchor="start" x="2921.944" y="-492" font-family="arial" font-weight="bold" font-size="10.00" fill="#000000">BCL as CM</text>
<text text-anchor="start" x="2857.2025" y="-475" font-family="arial" font-size="10.00" fill="#000000">The black Culm Limestone is nothing but</text>
<text text-anchor="start" x="2854.702" y="-463" font-family="arial" font-size="10.00" fill="#000000"> Coal Mesaures in age #COA #chron&#45;hyp </text>
</g>
<!-- n4&#45;&gt;n7 -->
<g id="edge46" class="edge">
<title>n4&#45;&gt;n7</title>
<path fill="none" stroke="#ff0000" d="M2941.4514,-583.6926C2940.074,-564.3099 2939.881,-537.7101 2940.8723,-516.3047"/>
<polygon fill="#ff0000" stroke="#ff0000" points="2944.3695,-516.4541 2941.4541,-506.2683 2937.3812,-516.049 2944.3695,-516.4541"/>
</g>
<!-- n8 -->
<g id="node32" class="node">
<title>n8</title>
<path fill="#ffffff" stroke="#ffc1c1" stroke-width="2" d="M3121,-74C3121,-74 2945,-74 2945,-74 2939,-74 2933,-68 2933,-62 2933,-62 2933,-34 2933,-34 2933,-28 2939,-22 2945,-22 2945,-22 3121,-22 3121,-22 3127,-22 3133,-28 3133,-34 3133,-34 3133,-62 3133,-62 3133,-68 3127,-74 3121,-74"/>
<text text-anchor="start" x="3007.7145" y="-60" font-family="arial" font-weight="bold" font-size="10.00" fill="#000000">BCL as SIL</text>
<text text-anchor="start" x="2942.7025" y="-43" font-family="arial" font-size="10.00" fill="#000000">The black Culm Limestone is nothing but</text>
<text text-anchor="start" x="2966.313" y="-31" font-family="arial" font-size="10.00" fill="#000000"> SIL in age #COA #chron&#45;hyp </text>
</g>
<!-- n4&#45;&gt;n8 -->
<g id="edge48" class="edge">
<title>n4&#45;&gt;n8</title>
<path fill="none" stroke="#ff0000" d="M2984.3267,-583.9834C3007.8959,-566.9985 3036.2275,-542.3513 3050,-512 3116.6609,-365.0948 3063.3302,-164.613 3041.0689,-83.8638"/>
<polygon fill="#ff0000" stroke="#ff0000" points="3044.4289,-82.8822 3038.3949,-74.1735 3037.6811,-84.7443 3044.4289,-82.8822"/>
</g>
<!-- n10 -->
<g id="node34" class="node">
<title>n10</title>
<path fill="#ffffff" stroke="#ffc1c1" stroke-width="2" d="M2894,-210C2894,-210 2718,-210 2718,-210 2712,-210 2706,-204 2706,-198 2706,-198 2706,-170 2706,-170 2706,-164 2712,-158 2718,-158 2718,-158 2894,-158 2894,-158 2900,-158 2906,-164 2906,-170 2906,-170 2906,-198 2906,-198 2906,-204 2900,-210 2894,-210"/>
<text text-anchor="start" x="2781.274" y="-196" font-family="arial" font-weight="bold" font-size="10.00" fill="#000000">BCL as ML</text>
<text text-anchor="start" x="2715.7025" y="-179" font-family="arial" font-size="10.00" fill="#000000">The black Culm Limestone is nothing but</text>
<text text-anchor="start" x="2739.8725" y="-167" font-family="arial" font-size="10.00" fill="#000000"> ML in age #COA #chron&#45;hyp </text>
</g>
<!-- n4&#45;&gt;n10 -->
<g id="edge59" class="edge">
<title>n4&#45;&gt;n10</title>
<path fill="none" stroke="#ff0000" d="M2893.7628,-583.9626C2866.4474,-566.7411 2835.1177,-541.8579 2816,-512 2757.6089,-420.8052 2775.372,-284.4871 2792.1227,-220.1219"/>
<polygon fill="#ff0000" stroke="#ff0000" points="2795.5117,-220.9977 2794.7906,-210.4274 2788.7626,-219.1403 2795.5117,-220.9977"/>
</g>
<!-- n12 -->
<g id="node35" class="node">
<title>n12</title>
<path fill="#ffffff" stroke="#eedd82" stroke-width="2" d="M3013,-358C3013,-358 2837,-358 2837,-358 2831,-358 2825,-352 2825,-346 2825,-346 2825,-318 2825,-318 2825,-312 2831,-306 2837,-306 2837,-306 3013,-306 3013,-306 3019,-306 3025,-312 3025,-318 3025,-318 3025,-346 3025,-346 3025,-352 3019,-358 3013,-358"/>
<text text-anchor="start" x="2896.3845" y="-344" font-family="arial" font-weight="bold" font-size="10.00" fill="#000000">BCL as ORS</text>
<text text-anchor="start" x="2834.7025" y="-327" font-family="arial" font-size="10.00" fill="#000000">The black Culm Limestone is nothing but</text>
<text text-anchor="start" x="2855.538" y="-315" font-family="arial" font-size="10.00" fill="#000000"> ORS in age #DEV #chron&#45;hyp </text>
</g>
<!-- n4&#45;&gt;n12 -->
<g id="edge71" class="edge">
<title>n4&#45;&gt;n12</title>
<path fill="none" stroke="#ff0000" d="M2894.3696,-583.8928C2868.7145,-566.8767 2840.6358,-542.2285 2827,-512 2803.6472,-460.2302 2846.0593,-401.4552 2882.3108,-365.5563"/>
<polygon fill="#ff0000" stroke="#ff0000" points="2885.1311,-367.701 2889.927,-358.2538 2880.2865,-362.6482 2885.1311,-367.701"/>
</g>
<!-- n7&#45;&gt;n4 -->
<g id="edge45" class="edge">
<title>n7&#45;&gt;n4</title>
<path fill="none" stroke="#ff0000" d="M2952.5459,-506.2683C2953.9248,-525.6413 2954.1194,-552.2397 2953.1297,-573.652"/>
<polygon fill="#ff0000" stroke="#ff0000" points="2949.6323,-573.507 2952.5486,-583.6926 2956.6206,-573.9115 2949.6323,-573.507"/>
</g>
<!-- n7&#45;&gt;n8 -->
<g id="edge50" class="edge">
<title>n7&#45;&gt;n8</title>
<path fill="none" stroke="#ff0000" d="M2970.3488,-453.9593C2989.1428,-434.7736 3013.832,-406.7559 3025,-376 3061.4705,-275.563 3043.939,-146.1396 3035.5207,-84.1848"/>
<polygon fill="#ff0000" stroke="#ff0000" points="3038.9696,-83.5704 3034.1635,-74.1284 3032.0325,-84.5067 3038.9696,-83.5704"/>
</g>
<!-- n7&#45;&gt;n10 -->
<g id="edge61" class="edge">
<title>n7&#45;&gt;n10</title>
<path fill="none" stroke="#ff0000" d="M2888.1286,-453.8094C2858.0646,-436.0521 2824.3619,-409.6844 2807,-376 2781.6076,-326.7353 2784.9481,-260.6033 2792.8867,-220.2107"/>
<polygon fill="#ff0000" stroke="#ff0000" points="2796.3422,-220.7911 2795.0484,-210.2755 2789.5023,-219.3027 2796.3422,-220.7911"/>
</g>
<!-- n7&#45;&gt;n12 -->
<g id="edge73" class="edge">
<title>n7&#45;&gt;n12</title>
<path fill="none" stroke="#ff0000" d="M2937.826,-453.8813C2932.5859,-430.1452 2927.1404,-394.8911 2924.5037,-368.3961"/>
<polygon fill="#ff0000" stroke="#ff0000" points="2927.9829,-368.0054 2923.6092,-358.3555 2921.0105,-368.6266 2927.9829,-368.0054"/>
</g>
<!-- n8&#45;&gt;n4 -->
<g id="edge47" class="edge">
<title>n8&#45;&gt;n4</title>
<path fill="none" stroke="#ff0000" d="M3046.6703,-74.1735C3076.5488,-147.3658 3137.512,-358.8117 3068,-512 3055.7339,-539.0317 3031.9193,-561.5387 3008.5789,-578.1378"/>
<polygon fill="#ff0000" stroke="#ff0000" points="3006.3058,-575.452 3000.0236,-583.9834 3010.2549,-581.2317 3006.3058,-575.452"/>
</g>
<!-- n8&#45;&gt;n7 -->
<g id="edge49" class="edge">
<title>n8&#45;&gt;n7</title>
<path fill="none" stroke="#ff0000" d="M3043.7721,-74.1284C3059.7298,-131.068 3081.5804,-269.7526 3043,-376 3033.0971,-403.2719 3012.5629,-428.3907 2992.9257,-447.108"/>
<polygon fill="#ff0000" stroke="#ff0000" points="2990.464,-444.6167 2985.4674,-453.9593 2995.1996,-449.7717 2990.464,-444.6167"/>
</g>
<!-- n8&#45;&gt;n10 -->
<g id="edge63" class="edge">
<title>n8&#45;&gt;n10</title>
<path fill="none" stroke="#ff0000" d="M2994.7183,-74.2046C2958.837,-96.6661 2904.8642,-129.0663 2863.7711,-152.8499"/>
<polygon fill="#ff0000" stroke="#ff0000" points="2861.8604,-149.9114 2854.9457,-157.9387 2865.3571,-155.9755 2861.8604,-149.9114"/>
</g>
<!-- n8&#45;&gt;n12 -->
<g id="edge75" class="edge">
<title>n8&#45;&gt;n12</title>
<path fill="none" stroke="#ff0000" d="M3027.1665,-74.1456C3011.0639,-125.2388 2968.2184,-238.3885 2943.2291,-296.3148"/>
<polygon fill="#ff0000" stroke="#ff0000" points="2939.8848,-295.2268 2939.0801,-305.791 2946.2971,-298.0344 2939.8848,-295.2268"/>
</g>
<!-- n9 -->
<g id="node33" class="node">
<title>n9</title>
<path fill="#ffffff" stroke="#ffc1c1" stroke-width="2" d="M2892,-80C2892,-80 2720,-80 2720,-80 2714,-80 2708,-74 2708,-68 2708,-68 2708,-28 2708,-28 2708,-22 2714,-16 2720,-16 2720,-16 2892,-16 2892,-16 2898,-16 2904,-22 2904,-28 2904,-28 2904,-68 2904,-68 2904,-74 2898,-80 2892,-80"/>
<text text-anchor="start" x="2758.7635" y="-66" font-family="arial" font-weight="bold" font-size="10.00" fill="#000000">BCL as SIL and ORS</text>
<text text-anchor="start" x="2718.766" y="-49" font-family="arial" font-size="10.00" fill="#000000">The black Culm Limestone ranges from</text>
<text text-anchor="start" x="2722.363" y="-37" font-family="arial" font-size="10.00" fill="#000000"> Silurian to Old Red Sandstone in age</text>
<text text-anchor="start" x="2763.2125" y="-25" font-family="arial" font-size="10.00" fill="#000000"> #COA #chron&#45;hyp </text>
</g>
<!-- n9&#45;&gt;n10 -->
<g id="edge65" class="edge">
<title>n9&#45;&gt;n10</title>
<path fill="none" stroke="#ff0000" d="M2811.8484,-80.381C2812.9781,-100.6167 2813.0462,-126.7159 2812.0525,-147.6581"/>
<polygon fill="#ff0000" stroke="#ff0000" points="2808.5506,-147.5897 2811.458,-157.7778 2815.5386,-148.0003 2808.5506,-147.5897"/>
</g>
<!-- n9&#45;&gt;n12 -->
<g id="edge77" class="edge">
<title>n9&#45;&gt;n12</title>
<path fill="none" stroke="#ff0000" d="M2866.3424,-80.1763C2888.688,-96.4514 2911.5268,-118.24 2924,-144 2947.4712,-192.4734 2944.8707,-256.4332 2937.6369,-295.8616"/>
<polygon fill="#ff0000" stroke="#ff0000" points="2934.1759,-295.3171 2935.6019,-305.8155 2941.034,-296.7192 2934.1759,-295.3171"/>
</g>
<!-- n10&#45;&gt;n4 -->
<g id="edge58" class="edge">
<title>n10&#45;&gt;n4</title>
<path fill="none" stroke="#ff0000" d="M2804.2075,-210.4274C2795.4905,-269.7725 2772.4851,-415.9265 2834,-512 2851.0267,-538.5922 2877.7401,-561.2384 2900.9926,-578.0404"/>
<polygon fill="#ff0000" stroke="#ff0000" points="2899.1909,-581.0528 2909.3783,-583.9626 2903.229,-575.3349 2899.1909,-581.0528"/>
</g>
<!-- n10&#45;&gt;n7 -->
<g id="edge60" class="edge">
<title>n10&#45;&gt;n7</title>
<path fill="none" stroke="#ff0000" d="M2806.7391,-210.2755C2803.7473,-248.9621 2797.3973,-322.4469 2825,-376 2840.5986,-406.2634 2869.3873,-430.6207 2895.1476,-448.1338"/>
<polygon fill="#ff0000" stroke="#ff0000" points="2893.4705,-451.2206 2903.7442,-453.8094 2897.3273,-445.3788 2893.4705,-451.2206"/>
</g>
<!-- n10&#45;&gt;n8 -->
<g id="edge62" class="edge">
<title>n10&#45;&gt;n8</title>
<path fill="none" stroke="#ff0000" d="M2844.0528,-157.9387C2879.857,-135.5196 2933.8185,-103.1223 2974.9663,-79.3021"/>
<polygon fill="#ff0000" stroke="#ff0000" points="2976.8909,-82.2326 2983.8048,-74.2046 2973.3936,-76.1688 2976.8909,-82.2326"/>
</g>
<!-- n10&#45;&gt;n9 -->
<g id="edge64" class="edge">
<title>n10&#45;&gt;n9</title>
<path fill="none" stroke="#ff0000" d="M2800.542,-157.7778C2799.1773,-138.7203 2798.8937,-112.5151 2799.6913,-90.4874"/>
<polygon fill="#ff0000" stroke="#ff0000" points="2803.1929,-90.5299 2800.1516,-80.381 2796.2002,-90.2114 2803.1929,-90.5299"/>
</g>
<!-- n10&#45;&gt;n12 -->
<g id="edge79" class="edge">
<title>n10&#45;&gt;n12</title>
<path fill="none" stroke="#ff0000" d="M2832.4997,-210.3555C2853.8091,-234.6946 2883.1632,-270.9967 2903.1519,-297.6089"/>
<polygon fill="#ff0000" stroke="#ff0000" points="2900.5207,-299.9365 2909.2906,-305.8813 2906.142,-295.765 2900.5207,-299.9365"/>
</g>
<!-- n12&#45;&gt;n4 -->
<g id="edge70" class="edge">
<title>n12&#45;&gt;n4</title>
<path fill="none" stroke="#ff0000" d="M2902.2262,-358.2538C2870.4256,-393.0584 2819.9861,-456.5478 2845,-512 2857.0911,-538.8042 2880.5383,-561.2207 2901.9764,-577.8191"/>
<polygon fill="#ff0000" stroke="#ff0000" points="2899.968,-580.6879 2910.0665,-583.8928 2904.1707,-575.0899 2899.968,-580.6879"/>
</g>
<!-- n12&#45;&gt;n7 -->
<g id="edge72" class="edge">
<title>n12&#45;&gt;n7</title>
<path fill="none" stroke="#ff0000" d="M2934.2262,-358.3555C2939.4676,-382.1677 2944.9044,-417.4308 2947.5224,-443.8674"/>
<polygon fill="#ff0000" stroke="#ff0000" points="2944.0407,-444.2289 2948.4089,-453.8813 2951.0134,-443.6115 2944.0407,-444.2289"/>
</g>
<!-- n12&#45;&gt;n8 -->
<g id="edge74" class="edge">
<title>n12&#45;&gt;n8</title>
<path fill="none" stroke="#ff0000" d="M2930.8535,-305.791C2946.9781,-254.6466 2989.8274,-141.4941 3014.8018,-83.6134"/>
<polygon fill="#ff0000" stroke="#ff0000" points="3018.1425,-84.7098 3018.9481,-74.1456 3011.7305,-81.9017 3018.1425,-84.7098"/>
</g>
<!-- n12&#45;&gt;n9 -->
<g id="edge76" class="edge">
<title>n12&#45;&gt;n9</title>
<path fill="none" stroke="#ff0000" d="M2923.807,-305.8155C2926.1977,-267.9879 2931.5686,-196.805 2906,-144 2895.0859,-121.46 2876.2357,-101.9606 2857.7748,-86.5349"/>
<polygon fill="#ff0000" stroke="#ff0000" points="2859.8877,-83.7424 2849.9111,-80.1763 2855.4863,-89.1855 2859.8877,-83.7424"/>
</g>
<!-- n12&#45;&gt;n10 -->
<g id="edge78" class="edge">
<title>n12&#45;&gt;n10</title>
<path fill="none" stroke="#ff0000" d="M2898.7077,-305.8813C2877.4507,-281.6201 2848.0925,-245.3256 2828.0431,-218.6507"/>
<polygon fill="#ff0000" stroke="#ff0000" points="2830.6548,-216.297 2821.8828,-210.3555 2825.035,-220.4705 2830.6548,-216.297"/>
</g>
<!-- n20 -->
<g id="node36" class="node">
<title>n20</title>
<path fill="#ffffff" stroke="#ffe4b5" stroke-width="2" d="M2527,-1188C2527,-1188 2355,-1188 2355,-1188 2349,-1188 2343,-1182 2343,-1176 2343,-1176 2343,-1148 2343,-1148 2343,-1142 2349,-1136 2355,-1136 2355,-1136 2527,-1136 2527,-1136 2533,-1136 2539,-1142 2539,-1148 2539,-1148 2539,-1176 2539,-1176 2539,-1182 2533,-1188 2527,-1188"/>
<text text-anchor="start" x="2400.9965" y="-1174" font-family="arial" font-weight="bold" font-size="10.00" fill="#000000">Some BCL as CM</text>
<text text-anchor="start" x="2353.482" y="-1157" font-family="arial" font-size="10.00" fill="#000000">Some part of the black Culm Limestone</text>
<text text-anchor="start" x="2375.713" y="-1145" font-family="arial" font-size="10.00" fill="#000000"> is CM in age #pri #chron&#45;hyp</text>
</g>
<!-- n41 -->
<g id="node43" class="node">
<title>n41</title>
<path fill="#ffe4b5" stroke="#000000" d="M2763,-1052C2763,-1052 2587,-1052 2587,-1052 2581,-1052 2575,-1046 2575,-1040 2575,-1040 2575,-988 2575,-988 2575,-982 2581,-976 2587,-976 2587,-976 2763,-976 2763,-976 2769,-976 2775,-982 2775,-988 2775,-988 2775,-1040 2775,-1040 2775,-1046 2769,-1052 2763,-1052"/>
<text text-anchor="start" x="2590.252" y="-1038" font-family="arial" font-weight="bold" font-size="10.00" fill="#000000">Standard Sequence as Partition &#45; BCL</text>
<text text-anchor="start" x="2608.5985" y="-1021" font-family="arial" font-size="10.00" fill="#000000">If some part of the black Culm</text>
<text text-anchor="start" x="2584.9885" y="-1009" font-family="arial" font-size="10.00" fill="#000000"> Limestone is neiter CM, ML, OR nor SIL</text>
<text text-anchor="start" x="2601.372" y="-997" font-family="arial" font-size="10.00" fill="#000000"> in age, then it is CAM in age #pri</text>
<text text-anchor="start" x="2648.6045" y="-985" font-family="arial" font-size="10.00" fill="#000000"> #chron&#45;hyp</text>
</g>
<!-- n20&#45;&gt;n41 -->
<g id="edge33" class="edge">
<title>n20&#45;&gt;n41</title>
<path fill="none" stroke="#ff0000" d="M2482.2959,-1135.8813C2516.5218,-1114.2341 2565.8945,-1083.0069 2606.0952,-1057.5808"/>
<polygon fill="#ff0000" stroke="#ff0000" points="2608.2061,-1060.3871 2614.7867,-1052.0836 2604.4643,-1054.471 2608.2061,-1060.3871"/>
</g>
<!-- n42 -->
<g id="node44" class="node">
<title>n42</title>
<path fill="#f4a460" stroke="#000000" d="M3033,-752C3033,-752 2861,-752 2861,-752 2855,-752 2849,-746 2849,-740 2849,-740 2849,-728 2849,-728 2849,-722 2855,-716 2861,-716 2861,-716 3033,-716 3033,-716 3039,-716 3045,-722 3045,-728 3045,-728 3045,-740 3045,-740 3045,-746 3039,-752 3033,-752"/>
<text text-anchor="start" x="2893.656" y="-732" font-family="arial" font-weight="bold" font-size="10.00" fill="#000000">Dating the BCL &#45; GRE.1</text>
</g>
<!-- n20&#45;&gt;n42 -->
<g id="edge37" class="edge">
<title>n20&#45;&gt;n42</title>
<path fill="none" stroke="#ff0000" d="M2451.0037,-1135.9887C2468.1286,-1095.024 2507.0219,-1015.845 2566,-974 2668.5089,-901.27 2742.6023,-983.4444 2840,-904 2867.5717,-881.5106 2856.6136,-862.4617 2875,-832 2890.3955,-806.4933 2910.6961,-779.3285 2925.8158,-760.0841"/>
<polygon fill="#ff0000" stroke="#ff0000" points="2928.6828,-762.1018 2932.1551,-752.0921 2923.1985,-757.7516 2928.6828,-762.1018"/>
</g>
<!-- n43 -->
<g id="node45" class="node">
<title>n43</title>
<path fill="#ffc1c1" stroke="#000000" d="M3247,-752C3247,-752 3075,-752 3075,-752 3069,-752 3063,-746 3063,-740 3063,-740 3063,-728 3063,-728 3063,-722 3069,-716 3075,-716 3075,-716 3247,-716 3247,-716 3253,-716 3259,-722 3259,-728 3259,-728 3259,-740 3259,-740 3259,-746 3253,-752 3247,-752"/>
<text text-anchor="start" x="3102.097" y="-732" font-family="arial" font-weight="bold" font-size="10.00" fill="#000000">Redating the BCL &#45; COA.1</text>
</g>
<!-- n20&#45;&gt;n43 -->
<g id="edge123" class="edge">
<title>n20&#45;&gt;n43</title>
<path fill="none" stroke="#00ff00" d="M2508.3852,-1135.9995C2521.4686,-1131.1812 2535.1178,-1126.3126 2548,-1122 2651.7464,-1087.2686 2687.7019,-1103.9255 2784,-1052 2793.9708,-1046.6236 3045.1965,-832.7311 3131.9004,-758.8184"/>
<polygon fill="#00ff00" stroke="#00ff00" points="3134.4249,-761.2656 3139.7639,-752.1143 3129.8834,-755.9387 3134.4249,-761.2656"/>
</g>
<!-- n44 -->
<g id="node46" class="node">
<title>n44</title>
<path fill="#ffc1c1" stroke="#000000" d="M2391,-752C2391,-752 2219,-752 2219,-752 2213,-752 2207,-746 2207,-740 2207,-740 2207,-728 2207,-728 2207,-722 2213,-716 2219,-716 2219,-716 2391,-716 2391,-716 2397,-716 2403,-722 2403,-728 2403,-728 2403,-740 2403,-740 2403,-746 2397,-752 2391,-752"/>
<text text-anchor="start" x="2241.928" y="-732" font-family="arial" font-weight="bold" font-size="10.00" fill="#000000">Redating the BCL &#45; COA.3.2</text>
</g>
<!-- n20&#45;&gt;n44 -->
<g id="edge51" class="edge">
<title>n20&#45;&gt;n44</title>
<path fill="none" stroke="#ff0000" d="M2432.6973,-1135.871C2408.578,-1059.9659 2338.6586,-839.9255 2313.855,-761.8671"/>
<polygon fill="#ff0000" stroke="#ff0000" points="2317.1592,-760.7082 2310.7952,-752.2377 2310.4879,-762.8281 2317.1592,-760.7082"/>
</g>
<!-- n46 -->
<g id="node48" class="node">
<title>n46</title>
<path fill="#ffc1c1" stroke="#000000" d="M2605,-752C2605,-752 2433,-752 2433,-752 2427,-752 2421,-746 2421,-740 2421,-740 2421,-728 2421,-728 2421,-722 2427,-716 2433,-716 2433,-716 2605,-716 2605,-716 2611,-716 2617,-722 2617,-728 2617,-728 2617,-740 2617,-740 2617,-746 2611,-752 2605,-752"/>
<text text-anchor="start" x="2455.928" y="-732" font-family="arial" font-weight="bold" font-size="10.00" fill="#000000">Redating the BCL &#45; COA.2.b</text>
</g>
<!-- n20&#45;&gt;n46 -->
<g id="edge54" class="edge">
<title>n20&#45;&gt;n46</title>
<path fill="none" stroke="#ff0000" d="M2444.8512,-1135.7897C2450.2721,-1099.4092 2460.6521,-1031.5793 2471,-974 2484.8469,-896.9515 2503.623,-806.5038 2513.0624,-761.8455"/>
<polygon fill="#ff0000" stroke="#ff0000" points="2516.4957,-762.5267 2515.1453,-752.0183 2509.6478,-761.0752 2516.4957,-762.5267"/>
</g>
<!-- n47 -->
<g id="node49" class="node">
<title>n47</title>
<path fill="#eedd82" stroke="#000000" d="M2819,-752C2819,-752 2647,-752 2647,-752 2641,-752 2635,-746 2635,-740 2635,-740 2635,-728 2635,-728 2635,-722 2641,-716 2647,-716 2647,-716 2819,-716 2819,-716 2825,-716 2831,-722 2831,-728 2831,-728 2831,-740 2831,-740 2831,-746 2825,-752 2819,-752"/>
<text text-anchor="start" x="2674.652" y="-732" font-family="arial" font-weight="bold" font-size="10.00" fill="#000000">Redating the BCL &#45; DEV.1</text>
</g>
<!-- n20&#45;&gt;n47 -->
<g id="edge66" class="edge">
<title>n20&#45;&gt;n47</title>
<path fill="none" stroke="#ff0000" d="M2446.446,-1135.6378C2459.9245,-1075.7642 2499.7131,-927.3422 2580,-832 2607.7658,-799.0276 2649.4849,-773.3322 2682.3491,-756.5401"/>
<polygon fill="#ff0000" stroke="#ff0000" points="2683.9796,-759.6381 2691.3647,-752.0414 2680.8541,-753.3746 2683.9796,-759.6381"/>
</g>
<!-- n21 -->
<g id="node37" class="node">
<title>n21</title>
<path fill="#ffffff" stroke="#ffe4b5" stroke-width="2" d="M3169,-1188C3169,-1188 2997,-1188 2997,-1188 2991,-1188 2985,-1182 2985,-1176 2985,-1176 2985,-1148 2985,-1148 2985,-1142 2991,-1136 2997,-1136 2997,-1136 3169,-1136 3169,-1136 3175,-1136 3181,-1142 3181,-1148 3181,-1148 3181,-1176 3181,-1176 3181,-1182 3175,-1188 3169,-1188"/>
<text text-anchor="start" x="3043.8265" y="-1174" font-family="arial" font-weight="bold" font-size="10.00" fill="#000000">Some BCL as ML</text>
<text text-anchor="start" x="2995.482" y="-1157" font-family="arial" font-size="10.00" fill="#000000">Some part of the black Culm Limestone</text>
<text text-anchor="start" x="3018.543" y="-1145" font-family="arial" font-size="10.00" fill="#000000"> is ML in age #pri #chron&#45;hyp</text>
</g>
<!-- n21&#45;&gt;n41 -->
<g id="edge34" class="edge">
<title>n21&#45;&gt;n41</title>
<path fill="none" stroke="#ff0000" d="M3013.6923,-1135.938C3001.1578,-1131.2681 2988.1974,-1126.4679 2976,-1122 2912.7976,-1098.849 2841.9504,-1073.4037 2784.8741,-1053.0294"/>
<polygon fill="#ff0000" stroke="#ff0000" points="2785.7053,-1049.6099 2775.1107,-1049.5457 2783.3529,-1056.2028 2785.7053,-1049.6099"/>
</g>
<!-- n21&#45;&gt;n42 -->
<g id="edge38" class="edge">
<title>n21&#45;&gt;n42</title>
<path fill="none" stroke="#ff0000" d="M3074.6973,-1135.871C3050.578,-1059.9659 2980.6586,-839.9255 2955.855,-761.8671"/>
<polygon fill="#ff0000" stroke="#ff0000" points="2959.1592,-760.7082 2952.7952,-752.2377 2952.4879,-762.8281 2959.1592,-760.7082"/>
</g>
<!-- n21&#45;&gt;n43 -->
<g id="edge41" class="edge">
<title>n21&#45;&gt;n43</title>
<path fill="none" stroke="#ff0000" d="M3087.7618,-1135.871C3101.5668,-1060.1208 3141.5323,-840.823 3155.834,-762.3468"/>
<polygon fill="#ff0000" stroke="#ff0000" points="3159.3266,-762.7032 3157.6763,-752.2377 3152.44,-761.4481 3159.3266,-762.7032"/>
</g>
<!-- n21&#45;&gt;n44 -->
<g id="edge52" class="edge">
<title>n21&#45;&gt;n44</title>
<path fill="none" stroke="#ff0000" d="M3032.7225,-1135.7992C2994.6471,-1115.0568 2941.7753,-1084.2881 2899,-1052 2858.5964,-1021.5021 2859.8373,-999.3151 2816,-974 2722.7322,-920.1398 2681.0135,-950.7781 2584,-904 2533.3611,-879.5829 2527.6904,-861.7678 2480,-832 2436.2074,-804.6651 2384.4469,-776.124 2348.6337,-756.9409"/>
<polygon fill="#ff0000" stroke="#ff0000" points="2349.9019,-753.6506 2339.4318,-752.03 2346.6061,-759.8261 2349.9019,-753.6506"/>
</g>
<!-- n21&#45;&gt;n46 -->
<g id="edge124" class="edge">
<title>n21&#45;&gt;n46</title>
<path fill="none" stroke="#00ff00" d="M3050.3931,-1135.9837C3024.4525,-1114.6177 2987.8486,-1082.9404 2959,-1052 2929.1738,-1020.0111 2935.5107,-998.0802 2899,-974 2794.436,-905.036 2724.3288,-981.5959 2626,-904 2597.5958,-881.5849 2606.8984,-862.8559 2588,-832 2572.6635,-806.9597 2553.2685,-779.7471 2538.9496,-760.3659"/>
<polygon fill="#00ff00" stroke="#00ff00" points="2541.7327,-758.2431 2532.9559,-752.3086 2536.1163,-762.4211 2541.7327,-758.2431"/>
</g>
<!-- n21&#45;&gt;n47 -->
<g id="edge67" class="edge">
<title>n21&#45;&gt;n47</title>
<path fill="none" stroke="#ff0000" d="M3066.5028,-1135.6213C3023.3167,-1066.9384 2906.9145,-884.28 2858,-832 2831.2559,-803.4158 2795.7368,-776.3992 2769.3975,-758.0006"/>
<polygon fill="#ff0000" stroke="#ff0000" points="2771.0623,-754.8971 2760.8429,-752.1016 2767.0885,-760.6599 2771.0623,-754.8971"/>
</g>
<!-- n22 -->
<g id="node38" class="node">
<title>n22</title>
<path fill="#ffffff" stroke="#ffe4b5" stroke-width="2" d="M2741,-1188C2741,-1188 2569,-1188 2569,-1188 2563,-1188 2557,-1182 2557,-1176 2557,-1176 2557,-1148 2557,-1148 2557,-1142 2563,-1136 2569,-1136 2569,-1136 2741,-1136 2741,-1136 2747,-1136 2753,-1142 2753,-1148 2753,-1148 2753,-1176 2753,-1176 2753,-1182 2747,-1188 2741,-1188"/>
<text text-anchor="start" x="2611.937" y="-1174" font-family="arial" font-weight="bold" font-size="10.00" fill="#000000">Some BCL as ORS</text>
<text text-anchor="start" x="2567.482" y="-1157" font-family="arial" font-size="10.00" fill="#000000">Some part of the black Culm Limestone</text>
<text text-anchor="start" x="2586.6535" y="-1145" font-family="arial" font-size="10.00" fill="#000000"> is ORS in age #pri #chron&#45;hyp</text>
</g>
<!-- n22&#45;&gt;n41 -->
<g id="edge35" class="edge">
<title>n22&#45;&gt;n41</title>
<path fill="none" stroke="#ff0000" d="M2658.5296,-1135.8813C2661.277,-1115.5501 2665.1664,-1086.7685 2668.4758,-1062.2791"/>
<polygon fill="#ff0000" stroke="#ff0000" points="2671.9828,-1062.4623 2669.8536,-1052.0836 2665.0458,-1061.5248 2671.9828,-1062.4623"/>
</g>
<!-- n22&#45;&gt;n42 -->
<g id="edge39" class="edge">
<title>n22&#45;&gt;n42</title>
<path fill="none" stroke="#ff0000" d="M2696.389,-1135.838C2724.7229,-1115.9803 2761.1622,-1086.2978 2784,-1052 2804.1764,-1021.699 2790.5,-1005.3526 2809,-974 2830.7298,-937.1739 2851.6274,-939.806 2875,-904 2905.2172,-857.7081 2927.3996,-796.6278 2938.6578,-761.6982"/>
<polygon fill="#ff0000" stroke="#ff0000" points="2941.9966,-762.7479 2941.6697,-752.1581 2935.3214,-760.6404 2941.9966,-762.7479"/>
</g>
<!-- n22&#45;&gt;n43 -->
<g id="edge42" class="edge">
<title>n22&#45;&gt;n43</title>
<path fill="none" stroke="#ff0000" d="M2691.3481,-1135.9247C2721.2877,-1114.1373 2764.5829,-1081.9143 2801,-1052 2914.3411,-958.8976 2936.7141,-928.702 3047,-832 3075.6135,-806.9108 3108.6146,-778.6098 3131.7229,-758.8948"/>
<polygon fill="#ff0000" stroke="#ff0000" points="3134.121,-761.4497 3139.4606,-752.2987 3129.5798,-756.1225 3134.121,-761.4497"/>
</g>
<!-- n22&#45;&gt;n44 -->
<g id="edge125" class="edge">
<title>n22&#45;&gt;n44</title>
<path fill="none" stroke="#00ff00" d="M2619.1206,-1135.7986C2591.6873,-1114.8209 2553.8072,-1083.7476 2525,-1052 2435.9022,-953.8078 2353.3351,-817.8477 2320.2543,-760.8415"/>
<polygon fill="#00ff00" stroke="#00ff00" points="2323.2258,-758.9881 2315.197,-752.0751 2317.1624,-762.486 2323.2258,-758.9881"/>
</g>
<!-- n22&#45;&gt;n46 -->
<g id="edge55" class="edge">
<title>n22&#45;&gt;n46</title>
<path fill="none" stroke="#ff0000" d="M2621.8065,-1135.93C2598.6306,-1115.7001 2569.2198,-1085.522 2554,-1052 2509.1318,-953.1767 2512.3677,-819.9401 2516.4132,-762.4039"/>
<polygon fill="#ff0000" stroke="#ff0000" points="2519.9167,-762.4908 2517.1928,-752.2522 2512.9373,-761.9548 2519.9167,-762.4908"/>
</g>
<!-- n22&#45;&gt;n47 -->
<g id="edge126" class="edge">
<title>n22&#45;&gt;n47</title>
<path fill="none" stroke="#00ff00" d="M2625.1365,-1135.9805C2604.1162,-1115.558 2577.7191,-1085.1158 2566,-1052 2554.4349,-1019.3193 2559.1165,-1007.9764 2566,-974 2579.6042,-906.8505 2586.4969,-887.9788 2626,-832 2646.3087,-803.221 2676.3543,-776.6432 2699.4412,-758.4479"/>
<polygon fill="#00ff00" stroke="#00ff00" points="2701.8334,-761.0224 2707.6011,-752.1351 2697.5501,-755.4858 2701.8334,-761.0224"/>
</g>
<!-- n23 -->
<g id="node39" class="node">
<title>n23</title>
<path fill="#ffffff" stroke="#ffe4b5" stroke-width="2" d="M2955,-1188C2955,-1188 2783,-1188 2783,-1188 2777,-1188 2771,-1182 2771,-1176 2771,-1176 2771,-1148 2771,-1148 2771,-1142 2777,-1136 2783,-1136 2783,-1136 2955,-1136 2955,-1136 2961,-1136 2967,-1142 2967,-1148 2967,-1148 2967,-1176 2967,-1176 2967,-1182 2961,-1188 2955,-1188"/>
<text text-anchor="start" x="2829.267" y="-1174" font-family="arial" font-weight="bold" font-size="10.00" fill="#000000">Some BCL as SIL</text>
<text text-anchor="start" x="2781.482" y="-1157" font-family="arial" font-size="10.00" fill="#000000">Some part of the black Culm Limestone</text>
<text text-anchor="start" x="2803.9835" y="-1145" font-family="arial" font-size="10.00" fill="#000000"> is SIL in age #pri #chron&#45;hyp</text>
</g>
<!-- n23&#45;&gt;n41 -->
<g id="edge36" class="edge">
<title>n23&#45;&gt;n41</title>
<path fill="none" stroke="#ff0000" d="M2834.7633,-1135.8813C2806.6853,-1114.461 2766.3118,-1083.6605 2733.1767,-1058.3823"/>
<polygon fill="#ff0000" stroke="#ff0000" points="2734.9939,-1055.3663 2724.9204,-1052.0836 2730.7481,-1060.9317 2734.9939,-1055.3663"/>
</g>
<!-- n23&#45;&gt;n42 -->
<g id="edge40" class="edge">
<title>n23&#45;&gt;n42</title>
<path fill="none" stroke="#ff0000" d="M2891.6695,-1135.6C2908.2419,-1114.5156 2929.4277,-1083.3955 2939,-1052 2970.3965,-949.0247 2958.6167,-818.4864 2951.2107,-762.0708"/>
<polygon fill="#ff0000" stroke="#ff0000" points="2954.6715,-761.546 2949.846,-752.1139 2947.7364,-762.4966 2954.6715,-761.546"/>
</g>
<!-- n23&#45;&gt;n43 -->
<g id="edge43" class="edge">
<title>n23&#45;&gt;n43</title>
<path fill="none" stroke="#ff0000" d="M2889.3128,-1135.6372C2906.1743,-1113.5453 2930.6069,-1081.0472 2951,-1052 3025.5421,-945.8246 3109.0964,-815.7344 3144.1243,-760.656"/>
<polygon fill="#ff0000" stroke="#ff0000" points="3147.106,-762.4896 3149.5133,-752.1719 3141.1972,-758.7365 3147.106,-762.4896"/>
</g>
<!-- n23&#45;&gt;n44 -->
<g id="edge127" class="edge">
<title>n23&#45;&gt;n44</title>
<path fill="none" stroke="#00ff00" d="M2864.4921,-1135.9235C2856.0734,-1095.2321 2834.0662,-1016.8639 2784,-974 2695.3746,-898.1238 2635.6748,-955.5252 2531,-904 2451.2974,-864.7671 2371.3625,-796.0696 2331.3389,-759.1567"/>
<polygon fill="#00ff00" stroke="#00ff00" points="2333.5839,-756.4648 2323.8783,-752.216 2328.816,-761.59 2333.5839,-756.4648"/>
</g>
<!-- n23&#45;&gt;n46 -->
<g id="edge56" class="edge">
<title>n23&#45;&gt;n46</title>
<path fill="none" stroke="#ff0000" d="M2872.7529,-1135.9929C2876.9608,-1096.1024 2878.6813,-1019.6488 2839,-974 2769.4573,-893.999 2693.0013,-971.1725 2611,-904 2565.0835,-866.3868 2538.6988,-799.5988 2526.7748,-761.9045"/>
<polygon fill="#ff0000" stroke="#ff0000" points="2530.0491,-760.6416 2523.7909,-752.0926 2523.352,-762.6784 2530.0491,-760.6416"/>
</g>
<!-- n23&#45;&gt;n47 -->
<g id="edge68" class="edge">
<title>n23&#45;&gt;n47</title>
<path fill="none" stroke="#ff0000" d="M2873.1452,-1135.7355C2881.0503,-1077.306 2893.0996,-933.7109 2840,-832 2824.0446,-801.4379 2794.5666,-775.5437 2770.5853,-758.0615"/>
<polygon fill="#ff0000" stroke="#ff0000" points="2772.546,-755.1612 2762.3633,-752.2349 2768.4986,-760.8725 2772.546,-755.1612"/>
</g>
<!-- n24 -->
<g id="node40" class="node">
<title>n24</title>
<path fill="#ffffff" stroke="#ffe4b5" stroke-width="2" d="M2819,-894C2819,-894 2647,-894 2647,-894 2641,-894 2635,-888 2635,-882 2635,-882 2635,-854 2635,-854 2635,-848 2641,-842 2647,-842 2647,-842 2819,-842 2819,-842 2825,-842 2831,-848 2831,-854 2831,-854 2831,-882 2831,-882 2831,-888 2825,-894 2819,-894"/>
<text text-anchor="start" x="2689.662" y="-880" font-family="arial" font-weight="bold" font-size="10.00" fill="#000000">Some BCL as CAM</text>
<text text-anchor="start" x="2645.482" y="-863" font-family="arial" font-size="10.00" fill="#000000">Some part of the black Culm Limestone</text>
<text text-anchor="start" x="2664.3785" y="-851" font-family="arial" font-size="10.00" fill="#000000"> is CAM in age #pri #chron&#45;hyp</text>
</g>
<!-- n24&#45;&gt;n42 -->
<g id="edge128" class="edge">
<title>n24&#45;&gt;n42</title>
<path fill="none" stroke="#00ff00" d="M2774.7694,-841.8453C2813.8446,-817.3777 2871.6882,-781.1579 2909.3654,-757.5656"/>
<polygon fill="#00ff00" stroke="#00ff00" points="2911.4001,-760.4211 2918.0182,-752.1475 2907.6851,-754.4882 2911.4001,-760.4211"/>
</g>
<!-- n24&#45;&gt;n43 -->
<g id="edge44" class="edge">
<title>n24&#45;&gt;n43</title>
<path fill="none" stroke="#ff0000" d="M2816.2843,-841.925C2897.1598,-816.6042 3018.4101,-778.6426 3093.4621,-755.1451"/>
<polygon fill="#ff0000" stroke="#ff0000" points="3094.7864,-758.398 3103.2839,-752.07 3092.6949,-751.7178 3094.7864,-758.398"/>
</g>
<!-- n24&#45;&gt;n44 -->
<g id="edge53" class="edge">
<title>n24&#45;&gt;n44</title>
<path fill="none" stroke="#ff0000" d="M2649.7157,-841.925C2568.8402,-816.6042 2447.5899,-778.6426 2372.5379,-755.1451"/>
<polygon fill="#ff0000" stroke="#ff0000" points="2373.3051,-751.7178 2362.7161,-752.07 2371.2136,-758.398 2373.3051,-751.7178"/>
</g>
<!-- n24&#45;&gt;n46 -->
<g id="edge57" class="edge">
<title>n24&#45;&gt;n46</title>
<path fill="none" stroke="#ff0000" d="M2691.2306,-841.8453C2652.1554,-817.3777 2594.3118,-781.1579 2556.6346,-757.5656"/>
<polygon fill="#ff0000" stroke="#ff0000" points="2558.3149,-754.4882 2547.9818,-752.1475 2554.5999,-760.4211 2558.3149,-754.4882"/>
</g>
<!-- n24&#45;&gt;n47 -->
<g id="edge69" class="edge">
<title>n24&#45;&gt;n47</title>
<path fill="none" stroke="#ff0000" d="M2733,-841.8453C2733,-818.9923 2733,-785.887 2733,-762.3941"/>
<polygon fill="#ff0000" stroke="#ff0000" points="2736.5001,-762.3478 2733,-752.3479 2729.5001,-762.3479 2736.5001,-762.3478"/>
</g>
<!-- n25 -->
<g id="node41" class="node">
<title>n25</title>
<path fill="#ffffff" stroke="#ffc1c1" stroke-width="2" d="M2735,-506C2735,-506 2563,-506 2563,-506 2557,-506 2551,-500 2551,-494 2551,-494 2551,-466 2551,-466 2551,-460 2557,-454 2563,-454 2563,-454 2735,-454 2735,-454 2741,-454 2747,-460 2747,-466 2747,-466 2747,-494 2747,-494 2747,-500 2741,-506 2735,-506"/>
<text text-anchor="start" x="2588.4355" y="-492" font-family="arial" font-weight="bold" font-size="10.00" fill="#000000">Yorkshire Limestone as ML</text>
<text text-anchor="start" x="2562.8725" y="-475" font-family="arial" font-size="10.00" fill="#000000">In Yorkshire, the limestone is Mountain</text>
<text text-anchor="start" x="2568.145" y="-463" font-family="arial" font-size="10.00" fill="#000000"> Limestone in age #COA #chron&#45;hyp</text>
</g>
<!-- n45 -->
<g id="node47" class="node">
<title>n45</title>
<path fill="#ffc1c1" stroke="#000000" d="M2735,-376C2735,-376 2563,-376 2563,-376 2557,-376 2551,-370 2551,-364 2551,-364 2551,-300 2551,-300 2551,-294 2557,-288 2563,-288 2563,-288 2735,-288 2735,-288 2741,-288 2747,-294 2747,-300 2747,-300 2747,-364 2747,-364 2747,-370 2741,-376 2735,-376"/>
<text text-anchor="start" x="2562.876" y="-362" font-family="arial" font-weight="bold" font-size="10.00" fill="#000000">Black Culm Limestone and Yorkshire II</text>
<text text-anchor="start" x="2569.266" y="-345" font-family="arial" font-size="10.00" fill="#000000">If the black Culm limestone is as old</text>
<text text-anchor="start" x="2575.0945" y="-333" font-family="arial" font-size="10.00" fill="#000000"> as the Yorkshire limestone being</text>
<text text-anchor="start" x="2566.7475" y="-321" font-family="arial" font-size="10.00" fill="#000000"> Mountain Limestone in age, then the</text>
<text text-anchor="start" x="2561.767" y="-309" font-family="arial" font-size="10.00" fill="#000000"> Culm limestone is Mountain Limestone</text>
<text text-anchor="start" x="2582.868" y="-297" font-family="arial" font-size="10.00" fill="#000000"> in age, too #COA #chron&#45;hyp</text>
</g>
<!-- n25&#45;&gt;n45 -->
<g id="edge129" class="edge">
<title>n25&#45;&gt;n45</title>
<path fill="none" stroke="#00ff00" d="M2649,-453.8813C2649,-435.1589 2649,-409.2706 2649,-386.1669"/>
<polygon fill="#00ff00" stroke="#00ff00" points="2652.5001,-386.1253 2649,-376.1254 2645.5001,-386.1254 2652.5001,-386.1253"/>
</g>
<!-- n26 -->
<g id="node42" class="node">
<title>n26</title>
<path fill="#ffffff" stroke="#ffc1c1" stroke-width="2" d="M2521,-506C2521,-506 2335,-506 2335,-506 2329,-506 2323,-500 2323,-494 2323,-494 2323,-466 2323,-466 2323,-460 2329,-454 2335,-454 2335,-454 2521,-454 2521,-454 2527,-454 2533,-460 2533,-466 2533,-466 2533,-494 2533,-494 2533,-500 2527,-506 2521,-506"/>
<text text-anchor="start" x="2359.6575" y="-492" font-family="arial" font-weight="bold" font-size="10.00" fill="#000000">Yorkshire and Culm Limestone</text>
<text text-anchor="start" x="2344.1005" y="-475" font-family="arial" font-size="10.00" fill="#000000">The black Culm limestone is as old as</text>
<text text-anchor="start" x="2332.9825" y="-463" font-family="arial" font-size="10.00" fill="#000000"> the Yorkshire limestone #COA #chron&#45;hyp</text>
</g>
<!-- n26&#45;&gt;n45 -->
<g id="edge130" class="edge">
<title>n26&#45;&gt;n45</title>
<path fill="none" stroke="#00ff00" d="M2467.0016,-453.8813C2496.7138,-433.9835 2538.5123,-405.9917 2574.5604,-381.851"/>
<polygon fill="#00ff00" stroke="#00ff00" points="2576.7487,-384.5979 2583.1101,-376.1254 2572.8536,-378.7816 2576.7487,-384.5979"/>
</g>
<!-- n41&#45;&gt;n24 -->
<g id="edge108" class="edge">
<title>n41&#45;&gt;n24</title>
<path fill="none" stroke="#00ff00" d="M2690.2388,-975.6402C2699.0869,-953.3674 2710.16,-925.4938 2718.821,-903.6919"/>
<polygon fill="#00ff00" stroke="#00ff00" points="2722.1748,-904.7297 2722.614,-894.144 2715.6693,-902.1453 2722.1748,-904.7297"/>
</g>
<!-- n42&#45;&gt;n4 -->
<g id="edge109" class="edge">
<title>n42&#45;&gt;n4</title>
<path fill="none" stroke="#00ff00" d="M2947,-715.9693C2947,-697.7956 2947,-669.2373 2947,-646.3448"/>
<polygon fill="#00ff00" stroke="#00ff00" points="2950.5001,-646.283 2947,-636.283 2943.5001,-646.283 2950.5001,-646.283"/>
</g>
<!-- n43&#45;&gt;n7 -->
<g id="edge110" class="edge">
<title>n43&#45;&gt;n7</title>
<path fill="none" stroke="#00ff00" d="M3149.8002,-715.6063C3131.6837,-686.4451 3094.1166,-628.3641 3056,-584 3034.1964,-558.6227 3006.9674,-532.6397 2985.1787,-512.9926"/>
<polygon fill="#00ff00" stroke="#00ff00" points="2987.5037,-510.3763 2977.7166,-506.3188 2982.8372,-515.594 2987.5037,-510.3763"/>
</g>
<!-- n44&#45;&gt;n9 -->
<g id="edge111" class="edge">
<title>n44&#45;&gt;n9</title>
<path fill="none" stroke="#00ff00" d="M2304.8794,-715.8285C2304.6134,-674.1419 2304,-568.4156 2304,-480 2304,-480 2304,-480 2304,-332 2304,-152.5051 2550.1344,-85.1346 2697.7069,-60.8727"/>
<polygon fill="#00ff00" stroke="#00ff00" points="2698.399,-64.3066 2707.7189,-59.2678 2697.291,-57.3948 2698.399,-64.3066"/>
</g>
<!-- n45&#45;&gt;n10 -->
<g id="edge112" class="edge">
<title>n45&#45;&gt;n10</title>
<path fill="none" stroke="#00ff00" d="M2695.6801,-287.9958C2719.7752,-265.282 2748.6849,-238.0295 2770.8643,-217.1216"/>
<polygon fill="#00ff00" stroke="#00ff00" points="2773.534,-219.4149 2778.4098,-210.0086 2768.7324,-214.3213 2773.534,-219.4149"/>
</g>
<!-- n46&#45;&gt;n10 -->
<g id="edge113" class="edge">
<title>n46&#45;&gt;n10</title>
<path fill="none" stroke="#00ff00" d="M2549.4362,-715.9371C2601.9402,-682.9202 2708.4666,-607.3639 2756,-512 2800.6657,-422.3894 2762.4829,-386.5811 2780,-288 2784.0482,-265.2179 2790.2968,-240.0346 2795.6536,-220.156"/>
<polygon fill="#00ff00" stroke="#00ff00" points="2799.0912,-220.8544 2798.3573,-210.285 2792.3398,-219.0052 2799.0912,-220.8544"/>
</g>
<!-- n47&#45;&gt;n12 -->
<g id="edge114" class="edge">
<title>n47&#45;&gt;n12</title>
<path fill="none" stroke="#00ff00" d="M2740.6431,-715.7575C2748.6977,-696.2115 2761.5078,-664.1893 2771,-636 2798.7428,-553.6115 2783.6591,-524.4752 2825,-448 2841.7399,-417.0335 2867.9102,-387.0721 2889.28,-365.358"/>
<polygon fill="#00ff00" stroke="#00ff00" points="2892.0121,-367.576 2896.6152,-358.0333 2887.0659,-362.6227 2892.0121,-367.576"/>
</g>
<!-- n33 -->
<g id="node50" class="node">
<title>n33</title>
<path fill="#ffffff" stroke="#f4a460" stroke-width="2" d="M3685,-1194C3685,-1194 3513,-1194 3513,-1194 3507,-1194 3501,-1188 3501,-1182 3501,-1182 3501,-1142 3501,-1142 3501,-1136 3507,-1130 3513,-1130 3513,-1130 3685,-1130 3685,-1130 3691,-1130 3697,-1136 3697,-1142 3697,-1142 3697,-1182 3697,-1182 3697,-1188 3691,-1194 3685,-1194"/>
<text text-anchor="start" x="3550.944" y="-1180" font-family="arial" font-weight="bold" font-size="10.00" fill="#000000">Traversing Northward</text>
<text text-anchor="start" x="3519.5345" y="-1163" font-family="arial" font-size="10.00" fill="#000000">The strata south of Exmoor become</text>
<text text-anchor="start" x="3516.476" y="-1151" font-family="arial" font-size="10.00" fill="#000000"> progessively younger the furhter one</text>
<text text-anchor="start" x="3512.0405" y="-1139" font-family="arial" font-size="10.00" fill="#000000"> traverses northward #GRE #chron&#45;hyp</text>
</g>
<!-- n34 -->
<g id="node51" class="node">
<title>n34</title>
<path fill="#ffffff" stroke="#f4a460" stroke-width="2" d="M3471,-1200C3471,-1200 3295,-1200 3295,-1200 3289,-1200 3283,-1194 3283,-1188 3283,-1188 3283,-1136 3283,-1136 3283,-1130 3289,-1124 3295,-1124 3295,-1124 3471,-1124 3471,-1124 3477,-1124 3483,-1130 3483,-1136 3483,-1136 3483,-1188 3483,-1188 3483,-1194 3477,-1200 3471,-1200"/>
<text text-anchor="start" x="3306.8685" y="-1186" font-family="arial" font-weight="bold" font-size="10.00" fill="#000000">Exmoor Youngest Devonian strata</text>
<text text-anchor="start" x="3303.812" y="-1169" font-family="arial" font-size="10.00" fill="#000000">In Devon, among all the strata older</text>
<text text-anchor="start" x="3292.6885" y="-1157" font-family="arial" font-size="10.00" fill="#000000"> than the New Red Sandstone, the strata</text>
<text text-anchor="start" x="3305.1995" y="-1145" font-family="arial" font-size="10.00" fill="#000000"> of Exmoor are the youngest #GRE</text>
<text text-anchor="start" x="3356.6045" y="-1133" font-family="arial" font-size="10.00" fill="#000000"> #chron&#45;hyp</text>
</g>
<!-- n35 -->
<g id="node52" class="node">
<title>n35</title>
<path fill="#ffffff" stroke="#ffc1c1" stroke-width="2" d="M3478.5,-1046C3478.5,-1046 3295.5,-1046 3295.5,-1046 3289.5,-1046 3283.5,-1040 3283.5,-1034 3283.5,-1034 3283.5,-994 3283.5,-994 3283.5,-988 3289.5,-982 3295.5,-982 3295.5,-982 3478.5,-982 3478.5,-982 3484.5,-982 3490.5,-988 3490.5,-994 3490.5,-994 3490.5,-1034 3490.5,-1034 3490.5,-1040 3484.5,-1046 3478.5,-1046"/>
<text text-anchor="start" x="3316.0935" y="-1032" font-family="arial" font-weight="bold" font-size="10.00" fill="#000000">Culm Youngest Devonian Strata</text>
<text text-anchor="start" x="3308.312" y="-1015" font-family="arial" font-size="10.00" fill="#000000">In Devon, among all the strata older</text>
<text text-anchor="start" x="3298.028" y="-1003" font-family="arial" font-size="10.00" fill="#000000"> than the New Red Sandstone, the Culm</text>
<text text-anchor="start" x="3293.5825" y="-991" font-family="arial" font-size="10.00" fill="#000000"> strata are the youngest #COA #chron&#45;hyp</text>
</g>
<!-- n34&#45;&gt;n35 -->
<g id="edge102" class="edge">
<title>n34&#45;&gt;n35</title>
<path fill="none" stroke="#ff0000" d="M3378.0419,-1123.8863C3377.6497,-1103.2775 3378.277,-1077.7689 3379.6761,-1056.5179"/>
<polygon fill="#ff0000" stroke="#ff0000" points="3383.1721,-1056.6999 3380.4238,-1046.4678 3376.1914,-1056.1805 3383.1721,-1056.6999"/>
</g>
<!-- n35&#45;&gt;n34 -->
<g id="edge101" class="edge">
<title>n35&#45;&gt;n34</title>
<path fill="none" stroke="#ff0000" d="M3391.8212,-1046.4678C3392.4088,-1066.1693 3391.9444,-1091.6793 3390.6789,-1113.7151"/>
<polygon fill="#ff0000" stroke="#ff0000" points="3387.1738,-1113.6805 3390.0183,-1123.8863 3394.1591,-1114.1342 3387.1738,-1113.6805"/>
</g>
</g>
</svg>
