
<!-- Generated by graphviz version 2.40.1 (20161225.0304)
 -->
<!-- Title: Argument Map Pages: 1 -->
<svg width="720pt" height="188pt"
 viewBox="0.00 0.00 720.00 187.73" xmlns="http://www.w3.org/2000/svg" xmlns:xlink="http://www.w3.org/1999/xlink">
<g id="graph0" class="graph" transform="scale(.2053 .2053) rotate(0) translate(4 910.4)">
<title>Argument Map</title>
<g id="clust6" class="cluster">
<title>cluster_6</title>
<polygon fill="#e6e6fa" stroke="#e6e6fa" points="3061,-642 3061,-898.4 3491,-898.4 3491,-642 3061,-642"/>
<text text-anchor="start" x="3205.9752" y="-883.6" font-family="arial" font-size="12.00" fill="#000000">Youngest Devonian Strata</text>
</g>
<g id="clust2" class="cluster">
<title>cluster_2</title>
<polygon fill="#ffe1ff" stroke="#ffe1ff" points="232,-138 232,-886.4 1098,-886.4 1098,-138 232,-138"/>
<text text-anchor="start" x="600.6578" y="-871.6" font-family="arial" font-size="12.00" fill="#000000">Dating of the Main Culm</text>
</g>
<g id="clust4" class="cluster">
<title>cluster_4</title>
<polygon fill="#eed2ee" stroke="#eed2ee" points="1331,-8 1331,-886.4 2185,-886.4 2185,-8 1331,-8"/>
<text text-anchor="start" x="1678.9842" y="-871.6" font-family="arial" font-size="12.00" fill="#000000">Dating of the Culm Limestone</text>
</g>
<g id="clust5" class="cluster">
<title>cluster_5</title>
<polygon fill="#d8bfd8" stroke="#d8bfd8" points="2193,-132 2193,-886.4 3053,-886.4 3053,-132 2193,-132"/>
<text text-anchor="start" x="2560.3252" y="-871.6" font-family="arial" font-size="12.00" fill="#000000">Dating of the Non&#45;Culm</text>
</g>
<g id="clust3" class="cluster">
<title>cluster_3</title>
<polygon fill="#9fb6cd" stroke="#9fb6cd" points="1106,-796 1106,-886.4 1323,-886.4 1323,-796 1106,-796"/>
<text text-anchor="start" x="1113.8122" y="-871.6" font-family="arial" font-size="12.00" fill="#000000">Aporia II : CM Plants in Ancient Strata</text>
</g>
<g id="clust1" class="cluster">
<title>cluster_1</title>
<polygon fill="#c6e2ff" stroke="#c6e2ff" points="8,-790 8,-892.4 224,-892.4 224,-790 8,-790"/>
<text text-anchor="start" x="32.3132" y="-877.6" font-family="arial" font-size="12.00" fill="#000000">Aporia I : Coal in Ancient Strata</text>
</g>
<!-- n0 -->
<g id="node1" class="node">
<title>n0</title>
<path fill="#ffffff" stroke="#f4a460" stroke-width="2" d="M204,-862C204,-862 28,-862 28,-862 22,-862 16,-856 16,-850 16,-850 16,-810 16,-810 16,-804 22,-798 28,-798 28,-798 204,-798 204,-798 210,-798 216,-804 216,-810 216,-810 216,-850 216,-850 216,-856 210,-862 204,-862"/>
<text text-anchor="start" x="56.2565" y="-848" font-family="arial" font-weight="bold" font-size="10.00" fill="#000000">Instances of Ancient Strata</text>
<text text-anchor="start" x="25.9725" y="-831" font-family="arial" font-size="10.00" fill="#000000">In Munster and Pennsylvannia, there are</text>
<text text-anchor="start" x="33.201" y="-819" font-family="arial" font-size="10.00" fill="#000000"> pre&#45;Old Red Sandstone strata #GRE</text>
<text text-anchor="start" x="89.6045" y="-807" font-family="arial" font-size="10.00" fill="#000000"> #chron&#45;hyp</text>
</g>
<!-- n1 -->
<g id="node2" class="node">
<title>n1</title>
<path fill="#ffffff" stroke="#f4a460" stroke-width="2" d="M746,-334C746,-334 574,-334 574,-334 568,-334 562,-328 562,-322 562,-322 562,-294 562,-294 562,-288 568,-282 574,-282 574,-282 746,-282 746,-282 752,-282 758,-288 758,-294 758,-294 758,-322 758,-322 758,-328 752,-334 746,-334"/>
<text text-anchor="start" x="616.9475" y="-320" font-family="arial" font-weight="bold" font-size="10.00" fill="#000000">Main Culm as CAM</text>
<text text-anchor="start" x="574.9925" y="-303" font-family="arial" font-size="10.00" fill="#000000">The whole of the main Culm is CAM in</text>
<text text-anchor="start" x="607.4845" y="-291" font-family="arial" font-size="10.00" fill="#000000"> age #GRE #chron&#45;hyp </text>
</g>
<!-- n5 -->
<g id="node3" class="node">
<title>n5</title>
<path fill="#ffffff" stroke="#ffc1c1" stroke-width="2" d="M749,-198C749,-198 571,-198 571,-198 565,-198 559,-192 559,-186 559,-186 559,-158 559,-158 559,-152 565,-146 571,-146 571,-146 749,-146 749,-146 755,-146 761,-152 761,-158 761,-158 761,-186 761,-186 761,-192 755,-198 749,-198"/>
<text text-anchor="start" x="620.282" y="-184" font-family="arial" font-weight="bold" font-size="10.00" fill="#000000">Main Culm as CM</text>
<text text-anchor="start" x="568.599" y="-167" font-family="arial" font-size="10.00" fill="#000000">The whole of the main Culm is CM in age</text>
<text text-anchor="start" x="617.2125" y="-155" font-family="arial" font-size="10.00" fill="#000000"> #COA #chron&#45;hyp </text>
</g>
<!-- n1&#45;&gt;n5 -->
<g id="edge14" class="edge">
<title>n1&#45;&gt;n5</title>
<path fill="none" stroke="#ff0000" d="M654.542,-281.7778C653.0465,-260.8938 652.8493,-231.4262 653.9505,-208.2787"/>
<polygon fill="#ff0000" stroke="#ff0000" points="657.4534,-208.3303 654.5478,-198.1417 650.4655,-207.9184 657.4534,-208.3303"/>
</g>
<!-- n5&#45;&gt;n1 -->
<g id="edge13" class="edge">
<title>n5&#45;&gt;n1</title>
<path fill="none" stroke="#ff0000" d="M665.4522,-198.1417C666.9511,-219.0036 667.1516,-248.4683 666.0538,-271.632"/>
<polygon fill="#ff0000" stroke="#ff0000" points="662.5503,-271.5898 665.458,-281.7778 669.5383,-272.0002 662.5503,-271.5898"/>
</g>
<!-- n10 -->
<g id="node4" class="node">
<title>n10</title>
<path fill="#ffffff" stroke="#ffe4b5" stroke-width="2" d="M650,-856C650,-856 472,-856 472,-856 466,-856 460,-850 460,-844 460,-844 460,-816 460,-816 460,-810 466,-804 472,-804 472,-804 650,-804 650,-804 656,-804 662,-810 662,-816 662,-816 662,-844 662,-844 662,-850 656,-856 650,-856"/>
<text text-anchor="start" x="506.8345" y="-842" font-family="arial" font-weight="bold" font-size="10.00" fill="#000000">Some Main Culm as CM</text>
<text text-anchor="start" x="469.599" y="-825" font-family="arial" font-size="10.00" fill="#000000">Some part of the main Culm is CM in age</text>
<text text-anchor="start" x="524.882" y="-813" font-family="arial" font-size="10.00" fill="#000000"> #pri #chron&#45;hyp</text>
</g>
<!-- n28 -->
<g id="node9" class="node">
<title>n28</title>
<path fill="#ffe4b5" stroke="#000000" d="M755,-718C755,-718 583,-718 583,-718 577,-718 571,-712 571,-706 571,-706 571,-658 571,-658 571,-652 577,-646 583,-646 583,-646 755,-646 755,-646 761,-646 767,-652 767,-658 767,-658 767,-706 767,-706 767,-712 761,-718 755,-718"/>
<text text-anchor="start" x="583.1425" y="-704" font-family="arial" font-weight="bold" font-size="10.00" fill="#000000">Standard Sequence as Partition &#45; Main</text>
<text text-anchor="start" x="655.9475" y="-694" font-family="arial" font-weight="bold" font-size="10.00" fill="#000000"> Culm</text>
<text text-anchor="start" x="583.9975" y="-679" font-family="arial" font-size="10.00" fill="#000000">If some main Culm strata is neiter CM,</text>
<text text-anchor="start" x="583.9835" y="-667" font-family="arial" font-size="10.00" fill="#000000"> ML, OR nor SIL in age, then it is CAM</text>
<text text-anchor="start" x="617.8755" y="-655" font-family="arial" font-size="10.00" fill="#000000"> in age #pri #chron&#45;hyp</text>
</g>
<!-- n10&#45;&gt;n28 -->
<g id="edge1" class="edge">
<title>n10&#45;&gt;n28</title>
<path fill="none" stroke="#ff0000" d="M580.0596,-803.8813C595.6741,-782.4837 618.119,-751.7258 636.5543,-726.4626"/>
<polygon fill="#ff0000" stroke="#ff0000" points="639.5694,-728.2683 642.6369,-718.1272 633.9149,-724.142 639.5694,-728.2683"/>
</g>
<!-- n29 -->
<g id="node10" class="node">
<title>n29</title>
<path fill="#f4a460" stroke="#000000" d="M698,-448C698,-448 526,-448 526,-448 520,-448 514,-442 514,-436 514,-436 514,-424 514,-424 514,-418 520,-412 526,-412 526,-412 698,-412 698,-412 704,-412 710,-418 710,-424 710,-424 710,-436 710,-436 710,-442 704,-448 698,-448"/>
<text text-anchor="start" x="544.494" y="-428" font-family="arial" font-weight="bold" font-size="10.00" fill="#000000">Dating the Main Culm &#45; GRE.1</text>
</g>
<!-- n10&#45;&gt;n29 -->
<g id="edge5" class="edge">
<title>n10&#45;&gt;n29</title>
<path fill="none" stroke="#ff0000" d="M555.8317,-803.8428C546.1935,-749.39 529.2635,-620.5614 562,-520 569.3502,-497.4213 582.536,-474.0406 593.5217,-456.7702"/>
<polygon fill="#ff0000" stroke="#ff0000" points="596.4933,-458.6209 599.0234,-448.3325 590.6297,-454.7975 596.4933,-458.6209"/>
</g>
<!-- n30 -->
<g id="node11" class="node">
<title>n30</title>
<path fill="#ffc1c1" stroke="#000000" d="M912,-448C912,-448 740,-448 740,-448 734,-448 728,-442 728,-436 728,-436 728,-424 728,-424 728,-418 734,-412 740,-412 740,-412 912,-412 912,-412 918,-412 924,-418 924,-424 924,-424 924,-436 924,-436 924,-442 918,-448 912,-448"/>
<text text-anchor="start" x="752.935" y="-428" font-family="arial" font-weight="bold" font-size="10.00" fill="#000000">Redating the Main Culm &#45; COA.1</text>
</g>
<!-- n10&#45;&gt;n30 -->
<g id="edge61" class="edge">
<title>n10&#45;&gt;n30</title>
<path fill="none" stroke="#00ff00" d="M557.5225,-803.9516C552.0299,-758.4773 543.7324,-667.055 562,-642 620.9551,-561.1401 704.4509,-641.9625 776,-572 807.2282,-541.4643 818.9922,-490.2866 823.3966,-458.4275"/>
<polygon fill="#00ff00" stroke="#00ff00" points="826.8803,-458.7736 824.6257,-448.4214 819.9326,-457.9201 826.8803,-458.7736"/>
</g>
<!-- n11 -->
<g id="node5" class="node">
<title>n11</title>
<path fill="#ffffff" stroke="#ffe4b5" stroke-width="2" d="M429.5,-856C429.5,-856 252.5,-856 252.5,-856 246.5,-856 240.5,-850 240.5,-844 240.5,-844 240.5,-816 240.5,-816 240.5,-810 246.5,-804 252.5,-804 252.5,-804 429.5,-804 429.5,-804 435.5,-804 441.5,-810 441.5,-816 441.5,-816 441.5,-844 441.5,-844 441.5,-850 435.5,-856 429.5,-856"/>
<text text-anchor="start" x="288.1645" y="-842" font-family="arial" font-weight="bold" font-size="10.00" fill="#000000">Some Main Culm as ML</text>
<text text-anchor="start" x="250.929" y="-825" font-family="arial" font-size="10.00" fill="#000000">Some part of the main Culm is ML in age</text>
<text text-anchor="start" x="305.382" y="-813" font-family="arial" font-size="10.00" fill="#000000"> #pri #chron&#45;hyp</text>
</g>
<!-- n11&#45;&gt;n28 -->
<g id="edge2" class="edge">
<title>n11&#45;&gt;n28</title>
<path fill="none" stroke="#ff0000" d="M398.8848,-803.8813C448.8837,-781.3208 521.9433,-748.3549 579.4766,-722.3947"/>
<polygon fill="#ff0000" stroke="#ff0000" points="581.2588,-725.4304 588.9343,-718.1272 578.3797,-719.0499 581.2588,-725.4304"/>
</g>
<!-- n11&#45;&gt;n29 -->
<g id="edge6" class="edge">
<title>n11&#45;&gt;n29</title>
<path fill="none" stroke="#ff0000" d="M358.0215,-803.6399C392.8518,-749.8685 475.0447,-623.8347 547,-520 562.0006,-498.3535 579.5059,-474.1745 592.5686,-456.3334"/>
<polygon fill="#ff0000" stroke="#ff0000" points="595.4992,-458.2558 598.5939,-448.123 589.8558,-454.1142 595.4992,-458.2558"/>
</g>
<!-- n11&#45;&gt;n30 -->
<g id="edge9" class="edge">
<title>n11&#45;&gt;n30</title>
<path fill="none" stroke="#ff0000" d="M368.3866,-803.7521C390.1049,-782.2551 420.5922,-750.5146 444,-720 491.1403,-658.5475 498.1966,-639.5982 536,-572 548.6119,-549.448 542.5375,-536.9961 562,-520 589.6373,-495.8651 677.0694,-468.7653 743.8164,-450.6688"/>
<polygon fill="#ff0000" stroke="#ff0000" points="744.7555,-454.0407 753.5046,-448.0656 742.9389,-447.2805 744.7555,-454.0407"/>
</g>
<!-- n12 -->
<g id="node6" class="node">
<title>n12</title>
<path fill="#ffffff" stroke="#ffe4b5" stroke-width="2" d="M1078,-856C1078,-856 906,-856 906,-856 900,-856 894,-850 894,-844 894,-844 894,-816 894,-816 894,-810 900,-804 906,-804 906,-804 1078,-804 1078,-804 1084,-804 1090,-810 1090,-816 1090,-816 1090,-844 1090,-844 1090,-850 1084,-856 1078,-856"/>
<text text-anchor="start" x="934.775" y="-842" font-family="arial" font-weight="bold" font-size="10.00" fill="#000000">Some Main Culm as ORS</text>
<text text-anchor="start" x="907.2675" y="-825" font-family="arial" font-size="10.00" fill="#000000">Some part of the main Culm is ORS in</text>
<text text-anchor="start" x="946.154" y="-813" font-family="arial" font-size="10.00" fill="#000000"> age #pri #chron&#45;hyp</text>
</g>
<!-- n12&#45;&gt;n28 -->
<g id="edge3" class="edge">
<title>n12&#45;&gt;n28</title>
<path fill="none" stroke="#ff0000" d="M934.9976,-803.8813C885.7608,-781.3208 813.815,-748.3549 757.1587,-722.3947"/>
<polygon fill="#ff0000" stroke="#ff0000" points="758.3943,-719.111 747.8452,-718.1272 755.4783,-725.4747 758.3943,-719.111"/>
</g>
<!-- n12&#45;&gt;n29 -->
<g id="edge7" class="edge">
<title>n12&#45;&gt;n29</title>
<path fill="none" stroke="#ff0000" d="M972.4409,-803.6079C956.2026,-781.4986 932.6672,-748.9914 913,-720 853.7535,-632.6648 862.8919,-591.2069 785,-520 752.1983,-490.0135 707.5485,-467.1153 671.826,-451.9206"/>
<polygon fill="#ff0000" stroke="#ff0000" points="673.0553,-448.6413 662.478,-448.0321 670.3668,-455.1044 673.0553,-448.6413"/>
</g>
<!-- n12&#45;&gt;n30 -->
<g id="edge10" class="edge">
<title>n12&#45;&gt;n30</title>
<path fill="none" stroke="#ff0000" d="M981.1083,-803.7549C951.2101,-731.7111 868.0612,-531.3524 837.4786,-457.6592"/>
<polygon fill="#ff0000" stroke="#ff0000" points="840.5889,-456.0227 833.5231,-448.128 834.1235,-458.7058 840.5889,-456.0227"/>
</g>
<!-- n13 -->
<g id="node7" class="node">
<title>n13</title>
<path fill="#ffffff" stroke="#ffe4b5" stroke-width="2" d="M864,-856C864,-856 692,-856 692,-856 686,-856 680,-850 680,-844 680,-844 680,-816 680,-816 680,-810 686,-804 692,-804 692,-804 864,-804 864,-804 870,-804 876,-810 876,-816 876,-816 876,-844 876,-844 876,-850 870,-856 864,-856"/>
<text text-anchor="start" x="724.105" y="-842" font-family="arial" font-weight="bold" font-size="10.00" fill="#000000">Some Main Culm as SIL</text>
<text text-anchor="start" x="696.5975" y="-825" font-family="arial" font-size="10.00" fill="#000000">Some part of the main Culm is SIL in</text>
<text text-anchor="start" x="732.154" y="-813" font-family="arial" font-size="10.00" fill="#000000"> age #pri #chron&#45;hyp</text>
</g>
<!-- n13&#45;&gt;n28 -->
<g id="edge4" class="edge">
<title>n13&#45;&gt;n28</title>
<path fill="none" stroke="#ff0000" d="M758.7639,-803.8813C743.0049,-782.4837 720.3521,-751.7258 701.7461,-726.4626"/>
<polygon fill="#ff0000" stroke="#ff0000" points="704.3556,-724.1036 695.6072,-718.1272 698.7192,-728.2547 704.3556,-724.1036"/>
</g>
<!-- n13&#45;&gt;n29 -->
<g id="edge8" class="edge">
<title>n13&#45;&gt;n29</title>
<path fill="none" stroke="#ff0000" d="M779.3271,-803.9268C782.6952,-733.6626 790.333,-544.0379 776,-520 756.4633,-487.235 720.33,-465.5901 686.9425,-451.7586"/>
<polygon fill="#ff0000" stroke="#ff0000" points="688.2005,-448.4924 677.6144,-448.0618 685.6215,-455 688.2005,-448.4924"/>
</g>
<!-- n13&#45;&gt;n30 -->
<g id="edge11" class="edge">
<title>n13&#45;&gt;n30</title>
<path fill="none" stroke="#ff0000" d="M781.5642,-803.6532C787.8324,-756.9971 801.1026,-656.7701 811,-572 815.5885,-532.6999 820.2862,-487.2067 823.1733,-458.5197"/>
<polygon fill="#ff0000" stroke="#ff0000" points="826.6731,-458.695 824.1871,-448.3959 819.708,-457.9974 826.6731,-458.695"/>
</g>
<!-- n14 -->
<g id="node8" class="node">
<title>n14</title>
<path fill="#ffffff" stroke="#ffe4b5" stroke-width="2" d="M755,-572C755,-572 583,-572 583,-572 577,-572 571,-566 571,-560 571,-560 571,-532 571,-532 571,-526 577,-520 583,-520 583,-520 755,-520 755,-520 761,-520 767,-526 767,-532 767,-532 767,-560 767,-560 767,-566 761,-572 755,-572"/>
<text text-anchor="start" x="611.5" y="-558" font-family="arial" font-weight="bold" font-size="10.00" fill="#000000">Some Main Culm as CAM</text>
<text text-anchor="start" x="583.9925" y="-541" font-family="arial" font-size="10.00" fill="#000000">Some part of the main Culm is CAM in</text>
<text text-anchor="start" x="623.154" y="-529" font-family="arial" font-size="10.00" fill="#000000"> age #pri #chron&#45;hyp</text>
</g>
<!-- n14&#45;&gt;n29 -->
<g id="edge62" class="edge">
<title>n14&#45;&gt;n29</title>
<path fill="none" stroke="#00ff00" d="M656.2081,-519.9673C646.9981,-501.2242 634.6053,-476.0039 625.2845,-457.0351"/>
<polygon fill="#00ff00" stroke="#00ff00" points="628.4049,-455.449 620.8535,-448.0176 622.1224,-458.5362 628.4049,-455.449"/>
</g>
<!-- n14&#45;&gt;n30 -->
<g id="edge12" class="edge">
<title>n14&#45;&gt;n30</title>
<path fill="none" stroke="#ff0000" d="M704.2339,-519.9673C730.9918,-500.1972 767.5032,-473.2205 793.5505,-453.9754"/>
<polygon fill="#ff0000" stroke="#ff0000" points="795.6512,-456.7751 801.6141,-448.0176 791.4914,-451.1451 795.6512,-456.7751"/>
</g>
<!-- n28&#45;&gt;n14 -->
<g id="edge51" class="edge">
<title>n28&#45;&gt;n14</title>
<path fill="none" stroke="#00ff00" d="M669,-645.9116C669,-626.3005 669,-602.1097 669,-582.4438"/>
<polygon fill="#00ff00" stroke="#00ff00" points="672.5001,-582.3317 669,-572.3317 665.5001,-582.3318 672.5001,-582.3317"/>
</g>
<!-- n29&#45;&gt;n1 -->
<g id="edge52" class="edge">
<title>n29&#45;&gt;n1</title>
<path fill="none" stroke="#00ff00" d="M619.0826,-411.9985C626.1247,-394.0998 637.1206,-366.1519 645.9407,-343.734"/>
<polygon fill="#00ff00" stroke="#00ff00" points="649.2893,-344.7826 649.6936,-334.1955 642.7753,-342.2197 649.2893,-344.7826"/>
</g>
<!-- n30&#45;&gt;n5 -->
<g id="edge53" class="edge">
<title>n30&#45;&gt;n5</title>
<path fill="none" stroke="#00ff00" d="M821.752,-411.7276C814.1726,-381.6122 796.3064,-320.4647 767,-276 749.2244,-249.0303 723.381,-223.6607 701.5457,-204.7304"/>
<polygon fill="#00ff00" stroke="#00ff00" points="703.5884,-201.8729 693.7048,-198.0564 699.0512,-207.2033 703.5884,-201.8729"/>
</g>
<!-- n2 -->
<g id="node12" class="node">
<title>n2</title>
<path fill="#ffffff" stroke="#f4a460" stroke-width="2" d="M1300,-856C1300,-856 1128,-856 1128,-856 1122,-856 1116,-850 1116,-844 1116,-844 1116,-816 1116,-816 1116,-810 1122,-804 1128,-804 1128,-804 1300,-804 1300,-804 1306,-804 1312,-810 1312,-816 1312,-816 1312,-844 1312,-844 1312,-850 1306,-856 1300,-856"/>
<text text-anchor="start" x="1165.6545" y="-842" font-family="arial" font-weight="bold" font-size="10.00" fill="#000000">Ancient French Strata</text>
<text text-anchor="start" x="1131.7525" y="-825" font-family="arial" font-size="10.00" fill="#000000">In the Bocage, there are pre&#45;Old Red</text>
<text text-anchor="start" x="1132.03" y="-813" font-family="arial" font-size="10.00" fill="#000000"> Sandstone strata. #GRE #chron&#45;hyp</text>
</g>
<!-- n3 -->
<g id="node13" class="node">
<title>n3</title>
<path fill="#ffffff" stroke="#f4a460" stroke-width="2" d="M1710,-334C1710,-334 1534,-334 1534,-334 1528,-334 1522,-328 1522,-322 1522,-322 1522,-294 1522,-294 1522,-288 1528,-282 1534,-282 1534,-282 1710,-282 1710,-282 1716,-282 1722,-288 1722,-294 1722,-294 1722,-322 1722,-322 1722,-328 1716,-334 1710,-334"/>
<text text-anchor="start" x="1593.1095" y="-320" font-family="arial" font-weight="bold" font-size="10.00" fill="#000000">BCL as CAM</text>
<text text-anchor="start" x="1531.7025" y="-303" font-family="arial" font-size="10.00" fill="#000000">The black Culm Limestone is nothing but</text>
<text text-anchor="start" x="1541.1505" y="-291" font-family="arial" font-size="10.00" fill="#000000"> Cambrian in age #GRE #chron&#45;hyp </text>
</g>
<!-- n6 -->
<g id="node14" class="node">
<title>n6</title>
<path fill="#ffffff" stroke="#ffc1c1" stroke-width="2" d="M1833.5,-198C1833.5,-198 1652.5,-198 1652.5,-198 1646.5,-198 1640.5,-192 1640.5,-186 1640.5,-186 1640.5,-158 1640.5,-158 1640.5,-152 1646.5,-146 1652.5,-146 1652.5,-146 1833.5,-146 1833.5,-146 1839.5,-146 1845.5,-152 1845.5,-158 1845.5,-158 1845.5,-186 1845.5,-186 1845.5,-192 1839.5,-198 1833.5,-198"/>
<text text-anchor="start" x="1717.944" y="-184" font-family="arial" font-weight="bold" font-size="10.00" fill="#000000">BCL as CM</text>
<text text-anchor="start" x="1653.2025" y="-167" font-family="arial" font-size="10.00" fill="#000000">The black Culm Limestone is nothing but</text>
<text text-anchor="start" x="1650.702" y="-155" font-family="arial" font-size="10.00" fill="#000000"> Coal Mesaures in age #COA #chron&#45;hyp </text>
</g>
<!-- n3&#45;&gt;n6 -->
<g id="edge28" class="edge">
<title>n3&#45;&gt;n6</title>
<path fill="none" stroke="#ff0000" d="M1639.872,-281.7778C1657.6498,-260.0471 1685.1019,-229.0228 1707.2895,-205.4956"/>
<polygon fill="#ff0000" stroke="#ff0000" points="1709.93,-207.7981 1714.2894,-198.1417 1704.8597,-202.9719 1709.93,-207.7981"/>
</g>
<!-- n8 -->
<g id="node15" class="node">
<title>n8</title>
<path fill="#ffffff" stroke="#ffc1c1" stroke-width="2" d="M1770,-68C1770,-68 1594,-68 1594,-68 1588,-68 1582,-62 1582,-56 1582,-56 1582,-28 1582,-28 1582,-22 1588,-16 1594,-16 1594,-16 1770,-16 1770,-16 1776,-16 1782,-22 1782,-28 1782,-28 1782,-56 1782,-56 1782,-62 1776,-68 1770,-68"/>
<text text-anchor="start" x="1656.7145" y="-54" font-family="arial" font-weight="bold" font-size="10.00" fill="#000000">BCL as SIL</text>
<text text-anchor="start" x="1591.7025" y="-37" font-family="arial" font-size="10.00" fill="#000000">The black Culm Limestone is nothing but</text>
<text text-anchor="start" x="1615.313" y="-25" font-family="arial" font-size="10.00" fill="#000000"> SIL in age #COA #chron&#45;hyp </text>
</g>
<!-- n3&#45;&gt;n8 -->
<g id="edge30" class="edge">
<title>n3&#45;&gt;n8</title>
<path fill="none" stroke="#ff0000" d="M1613.5126,-281.7301C1608.3227,-246.7762 1607.0326,-183.4075 1622,-132 1627.6762,-112.5043 1638.2865,-92.6742 1649.1406,-76.6078"/>
<polygon fill="#ff0000" stroke="#ff0000" points="1652.2453,-78.2796 1655.166,-68.0953 1646.5318,-74.2354 1652.2453,-78.2796"/>
</g>
<!-- n6&#45;&gt;n3 -->
<g id="edge27" class="edge">
<title>n6&#45;&gt;n3</title>
<path fill="none" stroke="#ff0000" d="M1725.1938,-198.1417C1707.44,-219.8494 1679.9933,-250.8715 1657.7927,-274.4171"/>
<polygon fill="#ff0000" stroke="#ff0000" points="1655.1463,-272.1209 1650.788,-281.7778 1660.2172,-276.9465 1655.1463,-272.1209"/>
</g>
<!-- n6&#45;&gt;n8 -->
<g id="edge32" class="edge">
<title>n6&#45;&gt;n8</title>
<path fill="none" stroke="#ff0000" d="M1725.1071,-145.6926C1714.5396,-126.1337 1701.7297,-99.2258 1692.6616,-77.7222"/>
<polygon fill="#ff0000" stroke="#ff0000" points="1695.816,-76.1896 1688.78,-68.2683 1689.3405,-78.8483 1695.816,-76.1896"/>
</g>
<!-- n8&#45;&gt;n3 -->
<g id="edge29" class="edge">
<title>n8&#45;&gt;n3</title>
<path fill="none" stroke="#ff0000" d="M1670.5845,-68.0953C1660.3854,-85.3182 1646.7274,-108.894 1640,-132 1626.3773,-178.7889 1626.2221,-235.4862 1625.8819,-271.6501"/>
<polygon fill="#ff0000" stroke="#ff0000" points="1622.3813,-271.6894 1625.7626,-281.7301 1629.3808,-271.7723 1622.3813,-271.6894"/>
</g>
<!-- n8&#45;&gt;n6 -->
<g id="edge31" class="edge">
<title>n8&#45;&gt;n6</title>
<path fill="none" stroke="#ff0000" d="M1699.8718,-68.2683C1710.4363,-87.8174 1723.2472,-114.7239 1732.3202,-136.2347"/>
<polygon fill="#ff0000" stroke="#ff0000" points="1729.1678,-137.7719 1736.2044,-145.6926 1735.643,-135.1126 1729.1678,-137.7719"/>
</g>
<!-- n9 -->
<g id="node16" class="node">
<title>n9</title>
<path fill="#ffffff" stroke="#ffc1c1" stroke-width="2" d="M2090,-340C2090,-340 1918,-340 1918,-340 1912,-340 1906,-334 1906,-328 1906,-328 1906,-288 1906,-288 1906,-282 1912,-276 1918,-276 1918,-276 2090,-276 2090,-276 2096,-276 2102,-282 2102,-288 2102,-288 2102,-328 2102,-328 2102,-334 2096,-340 2090,-340"/>
<text text-anchor="start" x="1956.7635" y="-326" font-family="arial" font-weight="bold" font-size="10.00" fill="#000000">BCL as SIL and ORS</text>
<text text-anchor="start" x="1916.766" y="-309" font-family="arial" font-size="10.00" fill="#000000">The black Culm Limestone ranges from</text>
<text text-anchor="start" x="1920.363" y="-297" font-family="arial" font-size="10.00" fill="#000000"> Silurian to Old Red Sandstone in age</text>
<text text-anchor="start" x="1961.2125" y="-285" font-family="arial" font-size="10.00" fill="#000000"> #COA #chron&#45;hyp </text>
</g>
<!-- n15 -->
<g id="node17" class="node">
<title>n15</title>
<path fill="#ffffff" stroke="#ffe4b5" stroke-width="2" d="M2165,-856C2165,-856 1993,-856 1993,-856 1987,-856 1981,-850 1981,-844 1981,-844 1981,-816 1981,-816 1981,-810 1987,-804 1993,-804 1993,-804 2165,-804 2165,-804 2171,-804 2177,-810 2177,-816 2177,-816 2177,-844 2177,-844 2177,-850 2171,-856 2165,-856"/>
<text text-anchor="start" x="2038.9965" y="-842" font-family="arial" font-weight="bold" font-size="10.00" fill="#000000">Some BCL as CM</text>
<text text-anchor="start" x="1991.482" y="-825" font-family="arial" font-size="10.00" fill="#000000">Some part of the black Culm Limestone</text>
<text text-anchor="start" x="2013.713" y="-813" font-family="arial" font-size="10.00" fill="#000000"> is CM in age #pri #chron&#45;hyp</text>
</g>
<!-- n31 -->
<g id="node22" class="node">
<title>n31</title>
<path fill="#ffe4b5" stroke="#000000" d="M1878,-720C1878,-720 1702,-720 1702,-720 1696,-720 1690,-714 1690,-708 1690,-708 1690,-656 1690,-656 1690,-650 1696,-644 1702,-644 1702,-644 1878,-644 1878,-644 1884,-644 1890,-650 1890,-656 1890,-656 1890,-708 1890,-708 1890,-714 1884,-720 1878,-720"/>
<text text-anchor="start" x="1705.252" y="-706" font-family="arial" font-weight="bold" font-size="10.00" fill="#000000">Standard Sequence as Partition &#45; BCL</text>
<text text-anchor="start" x="1723.5985" y="-689" font-family="arial" font-size="10.00" fill="#000000">If some part of the black Culm</text>
<text text-anchor="start" x="1699.9885" y="-677" font-family="arial" font-size="10.00" fill="#000000"> Limestone is neiter CM, ML, OR nor SIL</text>
<text text-anchor="start" x="1716.372" y="-665" font-family="arial" font-size="10.00" fill="#000000"> in age, then it is CAM in age #pri</text>
<text text-anchor="start" x="1763.6045" y="-653" font-family="arial" font-size="10.00" fill="#000000"> #chron&#45;hyp</text>
</g>
<!-- n15&#45;&gt;n31 -->
<g id="edge15" class="edge">
<title>n15&#45;&gt;n31</title>
<path fill="none" stroke="#ff0000" d="M2027.9979,-803.8813C1985.2843,-782.0072 1923.4696,-750.3512 1873.5428,-724.7832"/>
<polygon fill="#ff0000" stroke="#ff0000" points="1874.8621,-721.5266 1864.366,-720.0836 1871.6714,-727.7571 1874.8621,-721.5266"/>
</g>
<!-- n32 -->
<g id="node23" class="node">
<title>n32</title>
<path fill="#f4a460" stroke="#000000" d="M1662,-448C1662,-448 1490,-448 1490,-448 1484,-448 1478,-442 1478,-436 1478,-436 1478,-424 1478,-424 1478,-418 1484,-412 1490,-412 1490,-412 1662,-412 1662,-412 1668,-412 1674,-418 1674,-424 1674,-424 1674,-436 1674,-436 1674,-442 1668,-448 1662,-448"/>
<text text-anchor="start" x="1522.656" y="-428" font-family="arial" font-weight="bold" font-size="10.00" fill="#000000">Dating the BCL &#45; GRE.1</text>
</g>
<!-- n15&#45;&gt;n32 -->
<g id="edge19" class="edge">
<title>n15&#45;&gt;n32</title>
<path fill="none" stroke="#ff0000" d="M2060.7677,-803.9076C2031.2686,-763.5518 1969.2411,-686.0635 1899,-642 1813.5131,-588.3726 1765.1785,-630.5713 1683,-572 1640.4008,-541.6382 1607.3116,-489.2464 1589.8095,-457.2971"/>
<polygon fill="#ff0000" stroke="#ff0000" points="1592.686,-455.254 1584.8849,-448.0851 1586.5128,-458.5542 1592.686,-455.254"/>
</g>
<!-- n33 -->
<g id="node24" class="node">
<title>n33</title>
<path fill="#ffc1c1" stroke="#000000" d="M1876,-448C1876,-448 1704,-448 1704,-448 1698,-448 1692,-442 1692,-436 1692,-436 1692,-424 1692,-424 1692,-418 1698,-412 1704,-412 1704,-412 1876,-412 1876,-412 1882,-412 1888,-418 1888,-424 1888,-424 1888,-436 1888,-436 1888,-442 1882,-448 1876,-448"/>
<text text-anchor="start" x="1731.097" y="-428" font-family="arial" font-weight="bold" font-size="10.00" fill="#000000">Redating the BCL &#45; COA.1</text>
</g>
<!-- n15&#45;&gt;n33 -->
<g id="edge63" class="edge">
<title>n15&#45;&gt;n33</title>
<path fill="none" stroke="#00ff00" d="M2069.1343,-803.6074C2047.0782,-747.0349 1989.4073,-611.7874 1910,-520 1887.0621,-493.486 1855.0629,-469.9686 1829.8764,-453.6287"/>
<polygon fill="#00ff00" stroke="#00ff00" points="1831.5932,-450.5726 1821.2778,-448.1552 1827.8343,-456.4777 1831.5932,-450.5726"/>
</g>
<!-- n34 -->
<g id="node25" class="node">
<title>n34</title>
<path fill="#ffc1c1" stroke="#000000" d="M2090,-448C2090,-448 1918,-448 1918,-448 1912,-448 1906,-442 1906,-436 1906,-436 1906,-424 1906,-424 1906,-418 1912,-412 1918,-412 1918,-412 2090,-412 2090,-412 2096,-412 2102,-418 2102,-424 2102,-424 2102,-436 2102,-436 2102,-442 2096,-448 2090,-448"/>
<text text-anchor="start" x="1940.928" y="-428" font-family="arial" font-weight="bold" font-size="10.00" fill="#000000">Redating the BCL &#45; COA.3.2</text>
</g>
<!-- n15&#45;&gt;n34 -->
<g id="edge33" class="edge">
<title>n15&#45;&gt;n34</title>
<path fill="none" stroke="#ff0000" d="M2074.079,-803.7549C2060.5985,-731.8585 2023.1571,-532.1713 2009.2712,-458.1129"/>
<polygon fill="#ff0000" stroke="#ff0000" points="2012.682,-457.3117 2007.399,-448.128 2005.8019,-458.6018 2012.682,-457.3117"/>
</g>
<!-- n16 -->
<g id="node18" class="node">
<title>n16</title>
<path fill="#ffffff" stroke="#ffe4b5" stroke-width="2" d="M1737,-856C1737,-856 1565,-856 1565,-856 1559,-856 1553,-850 1553,-844 1553,-844 1553,-816 1553,-816 1553,-810 1559,-804 1565,-804 1565,-804 1737,-804 1737,-804 1743,-804 1749,-810 1749,-816 1749,-816 1749,-844 1749,-844 1749,-850 1743,-856 1737,-856"/>
<text text-anchor="start" x="1611.8265" y="-842" font-family="arial" font-weight="bold" font-size="10.00" fill="#000000">Some BCL as ML</text>
<text text-anchor="start" x="1563.482" y="-825" font-family="arial" font-size="10.00" fill="#000000">Some part of the black Culm Limestone</text>
<text text-anchor="start" x="1586.543" y="-813" font-family="arial" font-size="10.00" fill="#000000"> is ML in age #pri #chron&#45;hyp</text>
</g>
<!-- n16&#45;&gt;n31 -->
<g id="edge16" class="edge">
<title>n16&#45;&gt;n31</title>
<path fill="none" stroke="#ff0000" d="M1675.5304,-803.8813C1695.3072,-782.824 1723.5975,-752.7019 1747.1051,-727.6723"/>
<polygon fill="#ff0000" stroke="#ff0000" points="1749.9375,-729.769 1754.2323,-720.0836 1744.835,-724.9768 1749.9375,-729.769"/>
</g>
<!-- n16&#45;&gt;n32 -->
<g id="edge20" class="edge">
<title>n16&#45;&gt;n32</title>
<path fill="none" stroke="#ff0000" d="M1644.6499,-803.857C1639.3471,-781.6217 1631.7528,-748.8075 1626,-720 1606.8983,-624.3475 1588.4785,-510.0718 1580.3477,-458.1514"/>
<polygon fill="#ff0000" stroke="#ff0000" points="1583.7712,-457.3891 1578.7723,-448.0477 1576.8548,-458.4676 1583.7712,-457.3891"/>
</g>
<!-- n16&#45;&gt;n33 -->
<g id="edge23" class="edge">
<title>n16&#45;&gt;n33</title>
<path fill="none" stroke="#ff0000" d="M1647.2026,-803.9109C1640.3735,-747.9279 1631.1735,-613.7581 1683,-520 1698.3744,-492.1866 1726.0086,-469.2825 1749.3419,-453.5408"/>
<polygon fill="#ff0000" stroke="#ff0000" points="1751.2573,-456.4703 1757.7131,-448.0695 1747.4276,-450.6108 1751.2573,-456.4703"/>
</g>
<!-- n16&#45;&gt;n34 -->
<g id="edge34" class="edge">
<title>n16&#45;&gt;n34</title>
<path fill="none" stroke="#ff0000" d="M1651.7704,-803.9894C1653.6621,-758.1245 1660.0402,-665.4903 1681,-642 1758.105,-555.5861 1842.4411,-645.4285 1932,-572 1941.68,-564.0634 1973.712,-496.2576 1991.6161,-457.2847"/>
<polygon fill="#ff0000" stroke="#ff0000" points="1994.8627,-458.6011 1995.8414,-448.0516 1988.4975,-455.6882 1994.8627,-458.6011"/>
</g>
<!-- n17 -->
<g id="node19" class="node">
<title>n17</title>
<path fill="#ffffff" stroke="#ffe4b5" stroke-width="2" d="M1951,-856C1951,-856 1779,-856 1779,-856 1773,-856 1767,-850 1767,-844 1767,-844 1767,-816 1767,-816 1767,-810 1773,-804 1779,-804 1779,-804 1951,-804 1951,-804 1957,-804 1963,-810 1963,-816 1963,-816 1963,-844 1963,-844 1963,-850 1957,-856 1951,-856"/>
<text text-anchor="start" x="1821.937" y="-842" font-family="arial" font-weight="bold" font-size="10.00" fill="#000000">Some BCL as ORS</text>
<text text-anchor="start" x="1777.482" y="-825" font-family="arial" font-size="10.00" fill="#000000">Some part of the black Culm Limestone</text>
<text text-anchor="start" x="1796.6535" y="-813" font-family="arial" font-size="10.00" fill="#000000"> is ORS in age #pri #chron&#45;hyp</text>
</g>
<!-- n17&#45;&gt;n31 -->
<g id="edge17" class="edge">
<title>n17&#45;&gt;n31</title>
<path fill="none" stroke="#ff0000" d="M1851.7641,-803.8813C1841.3232,-783.2779 1826.4845,-753.9961 1813.9683,-729.2975"/>
<polygon fill="#ff0000" stroke="#ff0000" points="1816.9415,-727.4216 1809.2991,-720.0836 1810.6975,-730.5858 1816.9415,-727.4216"/>
</g>
<!-- n17&#45;&gt;n32 -->
<g id="edge21" class="edge">
<title>n17&#45;&gt;n32</title>
<path fill="none" stroke="#ff0000" d="M1798.4228,-803.8355C1759.4769,-785.5347 1712.0224,-757.6121 1681,-720 1646.6282,-678.3271 1601.2123,-522.1992 1583.5125,-457.9194"/>
<polygon fill="#ff0000" stroke="#ff0000" points="1586.8341,-456.7966 1580.8209,-448.0736 1580.0819,-458.6426 1586.8341,-456.7966"/>
</g>
<!-- n17&#45;&gt;n33 -->
<g id="edge24" class="edge">
<title>n17&#45;&gt;n33</title>
<path fill="none" stroke="#ff0000" d="M1876.4392,-803.9519C1898.9296,-748.612 1942.8953,-616.5003 1897,-520 1883.4899,-491.5935 1856.2403,-468.8844 1832.6227,-453.3835"/>
<polygon fill="#ff0000" stroke="#ff0000" points="1834.4398,-450.3914 1824.118,-448.0015 1830.6966,-456.3066 1834.4398,-450.3914"/>
</g>
<!-- n17&#45;&gt;n34 -->
<g id="edge64" class="edge">
<title>n17&#45;&gt;n34</title>
<path fill="none" stroke="#00ff00" d="M1878.423,-803.7724C1889.3797,-781.761 1904.8228,-749.3052 1916,-720 1951.8723,-625.9477 1983.2766,-510.5032 1996.8557,-458.1711"/>
<polygon fill="#00ff00" stroke="#00ff00" points="2000.298,-458.8384 1999.4041,-448.2813 1993.5195,-457.0917 2000.298,-458.8384"/>
</g>
<!-- n18 -->
<g id="node20" class="node">
<title>n18</title>
<path fill="#ffffff" stroke="#ffe4b5" stroke-width="2" d="M1523,-856C1523,-856 1351,-856 1351,-856 1345,-856 1339,-850 1339,-844 1339,-844 1339,-816 1339,-816 1339,-810 1345,-804 1351,-804 1351,-804 1523,-804 1523,-804 1529,-804 1535,-810 1535,-816 1535,-816 1535,-844 1535,-844 1535,-850 1529,-856 1523,-856"/>
<text text-anchor="start" x="1397.267" y="-842" font-family="arial" font-weight="bold" font-size="10.00" fill="#000000">Some BCL as SIL</text>
<text text-anchor="start" x="1349.482" y="-825" font-family="arial" font-size="10.00" fill="#000000">Some part of the black Culm Limestone</text>
<text text-anchor="start" x="1371.9835" y="-813" font-family="arial" font-size="10.00" fill="#000000"> is SIL in age #pri #chron&#45;hyp</text>
</g>
<!-- n18&#45;&gt;n31 -->
<g id="edge18" class="edge">
<title>n18&#45;&gt;n31</title>
<path fill="none" stroke="#ff0000" d="M1499.2967,-803.8813C1552.0106,-781.7803 1628.5421,-749.6934 1689.8495,-723.9895"/>
<polygon fill="#ff0000" stroke="#ff0000" points="1691.2965,-727.178 1699.1654,-720.0836 1688.5898,-720.7225 1691.2965,-727.178"/>
</g>
<!-- n18&#45;&gt;n32 -->
<g id="edge22" class="edge">
<title>n18&#45;&gt;n32</title>
<path fill="none" stroke="#ff0000" d="M1445.741,-803.8042C1463.6311,-750.332 1505.8688,-624.8154 1543,-520 1550.3863,-499.1498 1558.9983,-475.6895 1565.5722,-457.9499"/>
<polygon fill="#ff0000" stroke="#ff0000" points="1568.9819,-458.822 1569.1827,-448.2291 1562.4198,-456.3847 1568.9819,-458.822"/>
</g>
<!-- n18&#45;&gt;n33 -->
<g id="edge25" class="edge">
<title>n18&#45;&gt;n33</title>
<path fill="none" stroke="#ff0000" d="M1451.4935,-803.5733C1483.4288,-746.9345 1564.4987,-611.5659 1658,-520 1684.9732,-493.5852 1720.5795,-469.8167 1748.0133,-453.348"/>
<polygon fill="#ff0000" stroke="#ff0000" points="1750.1509,-456.1503 1756.9794,-448.0495 1746.5896,-450.1239 1750.1509,-456.1503"/>
</g>
<!-- n18&#45;&gt;n34 -->
<g id="edge65" class="edge">
<title>n18&#45;&gt;n34</title>
<path fill="none" stroke="#00ff00" d="M1460.1495,-803.8186C1497.3227,-763.3424 1574.3699,-685.6937 1655,-642 1753.4399,-588.6551 1806.5275,-637.9607 1897,-572 1919.511,-555.588 1915.5067,-542.4515 1932,-520 1948.0854,-498.1038 1967.3625,-474.1161 1981.9205,-456.4155"/>
<polygon fill="#00ff00" stroke="#00ff00" points="1984.9813,-458.2059 1988.6534,-448.2678 1979.5853,-453.7469 1984.9813,-458.2059"/>
</g>
<!-- n19 -->
<g id="node21" class="node">
<title>n19</title>
<path fill="#ffffff" stroke="#ffe4b5" stroke-width="2" d="M1876,-572C1876,-572 1704,-572 1704,-572 1698,-572 1692,-566 1692,-560 1692,-560 1692,-532 1692,-532 1692,-526 1698,-520 1704,-520 1704,-520 1876,-520 1876,-520 1882,-520 1888,-526 1888,-532 1888,-532 1888,-560 1888,-560 1888,-566 1882,-572 1876,-572"/>
<text text-anchor="start" x="1746.662" y="-558" font-family="arial" font-weight="bold" font-size="10.00" fill="#000000">Some BCL as CAM</text>
<text text-anchor="start" x="1702.482" y="-541" font-family="arial" font-size="10.00" fill="#000000">Some part of the black Culm Limestone</text>
<text text-anchor="start" x="1721.3785" y="-529" font-family="arial" font-size="10.00" fill="#000000"> is CAM in age #pri #chron&#45;hyp</text>
</g>
<!-- n19&#45;&gt;n32 -->
<g id="edge66" class="edge">
<title>n19&#45;&gt;n32</title>
<path fill="none" stroke="#00ff00" d="M1741.9742,-519.9673C1704.8701,-499.8548 1654.0069,-472.2841 1618.3991,-452.9827"/>
<polygon fill="#00ff00" stroke="#00ff00" points="1619.6988,-449.7061 1609.2393,-448.0176 1616.3629,-455.8601 1619.6988,-449.7061"/>
</g>
<!-- n19&#45;&gt;n33 -->
<g id="edge26" class="edge">
<title>n19&#45;&gt;n33</title>
<path fill="none" stroke="#ff0000" d="M1790,-519.9673C1790,-501.5665 1790,-476.923 1790,-458.0807"/>
<polygon fill="#ff0000" stroke="#ff0000" points="1793.5001,-458.0176 1790,-448.0176 1786.5001,-458.0176 1793.5001,-458.0176"/>
</g>
<!-- n19&#45;&gt;n34 -->
<g id="edge35" class="edge">
<title>n19&#45;&gt;n34</title>
<path fill="none" stroke="#ff0000" d="M1838.0258,-519.9673C1875.1299,-499.8548 1925.9931,-472.2841 1961.6009,-452.9827"/>
<polygon fill="#ff0000" stroke="#ff0000" points="1963.6371,-455.8601 1970.7607,-448.0176 1960.3012,-449.7061 1963.6371,-455.8601"/>
</g>
<!-- n31&#45;&gt;n19 -->
<g id="edge54" class="edge">
<title>n31&#45;&gt;n19</title>
<path fill="none" stroke="#00ff00" d="M1790,-643.7545C1790,-624.5306 1790,-601.3546 1790,-582.3946"/>
<polygon fill="#00ff00" stroke="#00ff00" points="1793.5001,-582.3468 1790,-572.3469 1786.5001,-582.3469 1793.5001,-582.3468"/>
</g>
<!-- n32&#45;&gt;n3 -->
<g id="edge55" class="edge">
<title>n32&#45;&gt;n3</title>
<path fill="none" stroke="#00ff00" d="M1582.7875,-411.9985C1589.5362,-394.0998 1600.0739,-366.1519 1608.5265,-343.734"/>
<polygon fill="#00ff00" stroke="#00ff00" points="1611.8699,-344.7873 1612.123,-334.1955 1605.32,-342.3176 1611.8699,-344.7873"/>
</g>
<!-- n33&#45;&gt;n6 -->
<g id="edge56" class="edge">
<title>n33&#45;&gt;n6</title>
<path fill="none" stroke="#00ff00" d="M1786.6951,-411.8579C1779.0038,-369.6381 1759.7875,-264.1526 1749.5927,-208.1895"/>
<polygon fill="#00ff00" stroke="#00ff00" points="1753.0345,-207.5535 1747.7989,-198.3427 1746.1478,-208.8081 1753.0345,-207.5535"/>
</g>
<!-- n34&#45;&gt;n9 -->
<g id="edge57" class="edge">
<title>n34&#45;&gt;n9</title>
<path fill="none" stroke="#00ff00" d="M2004,-411.9985C2004,-395.8215 2004,-371.4358 2004,-350.3432"/>
<polygon fill="#00ff00" stroke="#00ff00" points="2007.5001,-350.3035 2004,-340.3035 2000.5001,-350.3035 2007.5001,-350.3035"/>
</g>
<!-- n4 -->
<g id="node26" class="node">
<title>n4</title>
<path fill="#ffffff" stroke="#f4a460" stroke-width="2" d="M2692,-334C2692,-334 2520,-334 2520,-334 2514,-334 2508,-328 2508,-322 2508,-322 2508,-294 2508,-294 2508,-288 2514,-282 2520,-282 2520,-282 2692,-282 2692,-282 2698,-282 2704,-288 2704,-294 2704,-294 2704,-322 2704,-322 2704,-328 2698,-334 2692,-334"/>
<text text-anchor="start" x="2564.337" y="-320" font-family="arial" font-weight="bold" font-size="10.00" fill="#000000">Non&#45;Culm as CAM</text>
<text text-anchor="start" x="2529.316" y="-303" font-family="arial" font-size="10.00" fill="#000000">The non&#45;Culm strata is nothing but</text>
<text text-anchor="start" x="2525.1505" y="-291" font-family="arial" font-size="10.00" fill="#000000"> Cambrian in age #GRE #chron&#45;hyp </text>
</g>
<!-- n7 -->
<g id="node27" class="node">
<title>n7</title>
<path fill="#ffffff" stroke="#ffc1c1" stroke-width="2" d="M2692,-204C2692,-204 2520,-204 2520,-204 2514,-204 2508,-198 2508,-192 2508,-192 2508,-152 2508,-152 2508,-146 2514,-140 2520,-140 2520,-140 2692,-140 2692,-140 2698,-140 2704,-146 2704,-152 2704,-152 2704,-192 2704,-192 2704,-198 2698,-204 2692,-204"/>
<text text-anchor="start" x="2545.716" y="-190" font-family="arial" font-weight="bold" font-size="10.00" fill="#000000">Non&#45;Culm as SIL and CAM</text>
<text text-anchor="start" x="2525.1465" y="-173" font-family="arial" font-size="10.00" fill="#000000">In Devon, the non&#45;Culm strata range</text>
<text text-anchor="start" x="2517.934" y="-161" font-family="arial" font-size="10.00" fill="#000000"> from Cambrian to Silurian in age #COA</text>
<text text-anchor="start" x="2579.6045" y="-149" font-family="arial" font-size="10.00" fill="#000000"> #chron&#45;hyp</text>
</g>
<!-- n4&#45;&gt;n7 -->
<g id="edge48" class="edge">
<title>n4&#45;&gt;n7</title>
<path fill="none" stroke="#ff0000" d="M2600.542,-281.7778C2599.1773,-262.7203 2598.8937,-236.5151 2599.6913,-214.4874"/>
<polygon fill="#ff0000" stroke="#ff0000" points="2603.1929,-214.5299 2600.1516,-204.381 2596.2002,-214.2114 2603.1929,-214.5299"/>
</g>
<!-- n7&#45;&gt;n4 -->
<g id="edge47" class="edge">
<title>n7&#45;&gt;n4</title>
<path fill="none" stroke="#ff0000" d="M2611.8484,-204.381C2612.9781,-224.6167 2613.0462,-250.7159 2612.0525,-271.6581"/>
<polygon fill="#ff0000" stroke="#ff0000" points="2608.5506,-271.5897 2611.458,-281.7778 2615.5386,-272.0003 2608.5506,-271.5897"/>
</g>
<!-- n20 -->
<g id="node28" class="node">
<title>n20</title>
<path fill="#ffffff" stroke="#ffe4b5" stroke-width="2" d="M2599,-856C2599,-856 2427,-856 2427,-856 2421,-856 2415,-850 2415,-844 2415,-844 2415,-816 2415,-816 2415,-810 2421,-804 2427,-804 2427,-804 2599,-804 2599,-804 2605,-804 2611,-810 2611,-816 2611,-816 2611,-844 2611,-844 2611,-850 2605,-856 2599,-856"/>
<text text-anchor="start" x="2460.224" y="-842" font-family="arial" font-weight="bold" font-size="10.00" fill="#000000">Some Non&#45;Culm as CM</text>
<text text-anchor="start" x="2424.933" y="-825" font-family="arial" font-size="10.00" fill="#000000">Some part of the non&#45;Culm strata is CM</text>
<text text-anchor="start" x="2461.8755" y="-813" font-family="arial" font-size="10.00" fill="#000000"> in age #pri #chron&#45;hyp</text>
</g>
<!-- n35 -->
<g id="node33" class="node">
<title>n35</title>
<path fill="#ffe4b5" stroke="#000000" d="M2706,-718C2706,-718 2534,-718 2534,-718 2528,-718 2522,-712 2522,-706 2522,-706 2522,-658 2522,-658 2522,-652 2528,-646 2534,-646 2534,-646 2706,-646 2706,-646 2712,-646 2718,-652 2718,-658 2718,-658 2718,-706 2718,-706 2718,-712 2712,-718 2706,-718"/>
<text text-anchor="start" x="2546.365" y="-704" font-family="arial" font-weight="bold" font-size="10.00" fill="#000000">Standard Sequence as Partition &#45;</text>
<text text-anchor="start" x="2596.1145" y="-694" font-family="arial" font-weight="bold" font-size="10.00" fill="#000000"> Non&#45;Culm</text>
<text text-anchor="start" x="2537.7625" y="-679" font-family="arial" font-size="10.00" fill="#000000">If some part of the non&#45;Culm strata is</text>
<text text-anchor="start" x="2531.9245" y="-667" font-family="arial" font-size="10.00" fill="#000000"> neiter CM, ML, OR nor SIL in age, then</text>
<text text-anchor="start" x="2547.49" y="-655" font-family="arial" font-size="10.00" fill="#000000"> it is CAM in age #pri #chron&#45;hyp</text>
</g>
<!-- n20&#45;&gt;n35 -->
<g id="edge36" class="edge">
<title>n20&#45;&gt;n35</title>
<path fill="none" stroke="#ff0000" d="M2531.8831,-803.8813C2547.353,-782.4837 2569.5902,-751.7258 2587.8547,-726.4626"/>
<polygon fill="#ff0000" stroke="#ff0000" points="2590.8584,-728.2818 2593.881,-718.1272 2585.1857,-724.1805 2590.8584,-728.2818"/>
</g>
<!-- n36 -->
<g id="node34" class="node">
<title>n36</title>
<path fill="#f4a460" stroke="#000000" d="M2639,-448C2639,-448 2467,-448 2467,-448 2461,-448 2455,-442 2455,-436 2455,-436 2455,-424 2455,-424 2455,-418 2461,-412 2467,-412 2467,-412 2639,-412 2639,-412 2645,-412 2651,-418 2651,-424 2651,-424 2651,-436 2651,-436 2651,-442 2645,-448 2639,-448"/>
<text text-anchor="start" x="2488.273" y="-428" font-family="arial" font-weight="bold" font-size="10.00" fill="#000000">Dating the Non&#45;Culm&#45; GRE.1</text>
</g>
<!-- n20&#45;&gt;n36 -->
<g id="edge40" class="edge">
<title>n20&#45;&gt;n36</title>
<path fill="none" stroke="#ff0000" d="M2507.4767,-803.6384C2497.1795,-749.3398 2478.5465,-621.5967 2507,-520 2513.2689,-497.6162 2525.367,-474.2992 2535.5831,-457.0083"/>
<polygon fill="#ff0000" stroke="#ff0000" points="2538.8146,-458.43 2541.0161,-448.0664 2532.8323,-454.7951 2538.8146,-458.43"/>
</g>
<!-- n37 -->
<g id="node35" class="node">
<title>n37</title>
<path fill="#ffc1c1" stroke="#000000" d="M2872.5,-448C2872.5,-448 2681.5,-448 2681.5,-448 2675.5,-448 2669.5,-442 2669.5,-436 2669.5,-436 2669.5,-424 2669.5,-424 2669.5,-418 2675.5,-412 2681.5,-412 2681.5,-412 2872.5,-412 2872.5,-412 2878.5,-412 2884.5,-418 2884.5,-424 2884.5,-424 2884.5,-436 2884.5,-436 2884.5,-442 2878.5,-448 2872.5,-448"/>
<text text-anchor="start" x="2679.7085" y="-428" font-family="arial" font-weight="bold" font-size="10.00" fill="#000000">Extending the Non&#45;Culm Upwards &#45; COA.2a</text>
</g>
<!-- n20&#45;&gt;n37 -->
<g id="edge46" class="edge">
<title>n20&#45;&gt;n37</title>
<path fill="none" stroke="#ff0000" d="M2509.3708,-803.9612C2503.6153,-758.5021 2494.7993,-667.1031 2513,-642 2571.7398,-560.9836 2655.4509,-641.9625 2727,-572 2758.2282,-541.4643 2769.9922,-490.2866 2774.3966,-458.4275"/>
<polygon fill="#ff0000" stroke="#ff0000" points="2777.8803,-458.7736 2775.6257,-448.4214 2770.9326,-457.9201 2777.8803,-458.7736"/>
</g>
<!-- n21 -->
<g id="node29" class="node">
<title>n21</title>
<path fill="#ffffff" stroke="#ffe4b5" stroke-width="2" d="M2385,-856C2385,-856 2213,-856 2213,-856 2207,-856 2201,-850 2201,-844 2201,-844 2201,-816 2201,-816 2201,-810 2207,-804 2213,-804 2213,-804 2385,-804 2385,-804 2391,-804 2397,-810 2397,-816 2397,-816 2397,-844 2397,-844 2397,-850 2391,-856 2385,-856"/>
<text text-anchor="start" x="2247.054" y="-842" font-family="arial" font-weight="bold" font-size="10.00" fill="#000000">Some Non&#45;Culm as ML</text>
<text text-anchor="start" x="2211.763" y="-825" font-family="arial" font-size="10.00" fill="#000000">Some part of the non&#45;Culm strata is ML</text>
<text text-anchor="start" x="2247.8755" y="-813" font-family="arial" font-size="10.00" fill="#000000"> in age #pri #chron&#45;hyp</text>
</g>
<!-- n21&#45;&gt;n35 -->
<g id="edge37" class="edge">
<title>n21&#45;&gt;n35</title>
<path fill="none" stroke="#ff0000" d="M2355.6494,-803.8813C2404.5813,-781.3208 2476.0817,-748.3549 2532.3872,-722.3947"/>
<polygon fill="#ff0000" stroke="#ff0000" points="2534.0272,-725.4927 2541.643,-718.1272 2531.0963,-719.1358 2534.0272,-725.4927"/>
</g>
<!-- n21&#45;&gt;n36 -->
<g id="edge41" class="edge">
<title>n21&#45;&gt;n36</title>
<path fill="none" stroke="#ff0000" d="M2315.2707,-803.7666C2348.5288,-750.226 2426.8302,-624.591 2494,-520 2507.6697,-498.7147 2523.384,-474.7688 2535.1562,-456.931"/>
<polygon fill="#ff0000" stroke="#ff0000" points="2538.3284,-458.4788 2540.9212,-448.2061 2532.4882,-454.6198 2538.3284,-458.4788"/>
</g>
<!-- n21&#45;&gt;n37 -->
<g id="edge45" class="edge">
<title>n21&#45;&gt;n37</title>
<path fill="none" stroke="#ff0000" d="M2325.1295,-803.6838C2345.8344,-782.1482 2374.8615,-750.3891 2397,-720 2441.9276,-658.3288 2449.177,-639.891 2484,-572 2495.5334,-549.5145 2488.3051,-537.0035 2507,-520 2534.4797,-495.0065 2622.8173,-468.326 2691.0468,-450.5617"/>
<polygon fill="#ff0000" stroke="#ff0000" points="2692.1482,-453.8923 2700.9579,-448.0067 2690.4007,-447.1139 2692.1482,-453.8923"/>
</g>
<!-- n22 -->
<g id="node30" class="node">
<title>n22</title>
<path fill="#ffffff" stroke="#ffe4b5" stroke-width="2" d="M3033,-856C3033,-856 2855,-856 2855,-856 2849,-856 2843,-850 2843,-844 2843,-844 2843,-816 2843,-816 2843,-810 2849,-804 2855,-804 2855,-804 3033,-804 3033,-804 3039,-804 3045,-810 3045,-816 3045,-816 3045,-844 3045,-844 3045,-850 3039,-856 3033,-856"/>
<text text-anchor="start" x="2888.1645" y="-842" font-family="arial" font-weight="bold" font-size="10.00" fill="#000000">Some Non&#45;Culm as ORS</text>
<text text-anchor="start" x="2852.8735" y="-825" font-family="arial" font-size="10.00" fill="#000000">Some part of the non&#45;Culm strata is ORS</text>
<text text-anchor="start" x="2892.8755" y="-813" font-family="arial" font-size="10.00" fill="#000000"> in age #pri #chron&#45;hyp</text>
</g>
<!-- n22&#45;&gt;n35 -->
<g id="edge38" class="edge">
<title>n22&#45;&gt;n35</title>
<path fill="none" stroke="#ff0000" d="M2886.8211,-803.8813C2837.4319,-781.3208 2765.2633,-748.3549 2708.4316,-722.3947"/>
<polygon fill="#ff0000" stroke="#ff0000" points="2709.6395,-719.0986 2699.0893,-718.1272 2706.731,-725.4658 2709.6395,-719.0986"/>
</g>
<!-- n22&#45;&gt;n36 -->
<g id="edge42" class="edge">
<title>n22&#45;&gt;n36</title>
<path fill="none" stroke="#ff0000" d="M2924.153,-803.6427C2907.6851,-781.554 2883.8391,-749.0577 2864,-720 2804.493,-632.8421 2814.6927,-590.321 2736,-520 2701.684,-489.3347 2655.0365,-466.6071 2617.4272,-451.6622"/>
<polygon fill="#ff0000" stroke="#ff0000" points="2618.6621,-448.3872 2608.0732,-448.0303 2616.1284,-454.9126 2618.6621,-448.3872"/>
</g>
<!-- n22&#45;&gt;n37 -->
<g id="edge44" class="edge">
<title>n22&#45;&gt;n37</title>
<path fill="none" stroke="#ff0000" d="M2933.0427,-803.7549C2902.9644,-731.7111 2819.3146,-531.3524 2788.5477,-457.6592"/>
<polygon fill="#ff0000" stroke="#ff0000" points="2791.651,-456.0076 2784.5684,-448.128 2785.1914,-458.7045 2791.651,-456.0076"/>
</g>
<!-- n23 -->
<g id="node31" class="node">
<title>n23</title>
<path fill="#ffffff" stroke="#ffe4b5" stroke-width="2" d="M2813,-856C2813,-856 2641,-856 2641,-856 2635,-856 2629,-850 2629,-844 2629,-844 2629,-816 2629,-816 2629,-810 2635,-804 2641,-804 2641,-804 2813,-804 2813,-804 2819,-804 2825,-810 2825,-816 2825,-816 2825,-844 2825,-844 2825,-850 2819,-856 2813,-856"/>
<text text-anchor="start" x="2674.4945" y="-842" font-family="arial" font-weight="bold" font-size="10.00" fill="#000000">Some Non&#45;Culm as SIL</text>
<text text-anchor="start" x="2639.2035" y="-825" font-family="arial" font-size="10.00" fill="#000000">Some part of the non&#45;Culm strata is SIL</text>
<text text-anchor="start" x="2675.8755" y="-813" font-family="arial" font-size="10.00" fill="#000000"> in age #pri #chron&#45;hyp</text>
</g>
<!-- n23&#45;&gt;n35 -->
<g id="edge39" class="edge">
<title>n23&#45;&gt;n35</title>
<path fill="none" stroke="#ff0000" d="M2708.1169,-803.8813C2692.647,-782.4837 2670.4098,-751.7258 2652.1453,-726.4626"/>
<polygon fill="#ff0000" stroke="#ff0000" points="2654.8143,-724.1805 2646.119,-718.1272 2649.1416,-728.2818 2654.8143,-724.1805"/>
</g>
<!-- n23&#45;&gt;n36 -->
<g id="edge43" class="edge">
<title>n23&#45;&gt;n36</title>
<path fill="none" stroke="#ff0000" d="M2728.5345,-803.913C2732.4562,-733.6134 2741.5498,-543.9066 2727,-520 2706.7974,-486.8053 2669.9674,-465.3134 2635.3767,-451.6903"/>
<polygon fill="#ff0000" stroke="#ff0000" points="2636.2875,-448.2937 2625.6954,-448.0534 2633.8258,-454.8466 2636.2875,-448.2937"/>
</g>
<!-- n23&#45;&gt;n37 -->
<g id="edge67" class="edge">
<title>n23&#45;&gt;n37</title>
<path fill="none" stroke="#00ff00" d="M2730.5852,-803.7751C2733.6296,-781.4898 2738.111,-748.6482 2742,-720 2750.9286,-654.2276 2754.0684,-637.9001 2762,-572 2766.7281,-532.7164 2771.3913,-487.2192 2774.2326,-458.5267"/>
<polygon fill="#00ff00" stroke="#00ff00" points="2777.7328,-458.6955 2775.2287,-448.4009 2770.7665,-458.0102 2777.7328,-458.6955"/>
</g>
<!-- n24 -->
<g id="node32" class="node">
<title>n24</title>
<path fill="#ffffff" stroke="#ffe4b5" stroke-width="2" d="M2706,-572C2706,-572 2528,-572 2528,-572 2522,-572 2516,-566 2516,-560 2516,-560 2516,-532 2516,-532 2516,-526 2522,-520 2528,-520 2528,-520 2706,-520 2706,-520 2712,-520 2718,-526 2718,-532 2718,-532 2718,-560 2718,-560 2718,-566 2712,-572 2706,-572"/>
<text text-anchor="start" x="2560.8895" y="-558" font-family="arial" font-weight="bold" font-size="10.00" fill="#000000">Some Non&#45;Culm as CAM</text>
<text text-anchor="start" x="2525.5985" y="-541" font-family="arial" font-size="10.00" fill="#000000">Some part of the non&#45;Culm strata is CAM</text>
<text text-anchor="start" x="2565.8755" y="-529" font-family="arial" font-size="10.00" fill="#000000"> in age #pri #chron&#45;hyp</text>
</g>
<!-- n24&#45;&gt;n36 -->
<g id="edge68" class="edge">
<title>n24&#45;&gt;n36</title>
<path fill="none" stroke="#00ff00" d="M2602.6372,-519.9673C2592.2489,-501.1386 2578.2543,-475.7734 2567.7728,-456.7757"/>
<polygon fill="#00ff00" stroke="#00ff00" points="2570.8361,-455.0826 2562.9407,-448.0176 2564.707,-458.4642 2570.8361,-455.0826"/>
</g>
<!-- n24&#45;&gt;n37 -->
<g id="edge69" class="edge">
<title>n24&#45;&gt;n37</title>
<path fill="none" stroke="#00ff00" d="M2652.9071,-519.9673C2680.1763,-500.1972 2717.3855,-473.2205 2743.9305,-453.9754"/>
<polygon fill="#00ff00" stroke="#00ff00" points="2746.1064,-456.7209 2752.1482,-448.0176 2741.9976,-451.0537 2746.1064,-456.7209"/>
</g>
<!-- n35&#45;&gt;n24 -->
<g id="edge58" class="edge">
<title>n35&#45;&gt;n24</title>
<path fill="none" stroke="#00ff00" d="M2619.2039,-645.9116C2618.7713,-626.3005 2618.2377,-602.1097 2617.8039,-582.4438"/>
<polygon fill="#00ff00" stroke="#00ff00" points="2621.3006,-582.2521 2617.5808,-572.3317 2614.3023,-582.4065 2621.3006,-582.2521"/>
</g>
<!-- n36&#45;&gt;n4 -->
<g id="edge59" class="edge">
<title>n36&#45;&gt;n4</title>
<path fill="none" stroke="#00ff00" d="M2560.8203,-411.9985C2568.6309,-394.0195 2580.8463,-365.901 2590.6071,-343.4328"/>
<polygon fill="#00ff00" stroke="#00ff00" points="2593.8456,-344.762 2594.62,-334.1955 2587.4253,-341.9728 2593.8456,-344.762"/>
</g>
<!-- n37&#45;&gt;n7 -->
<g id="edge60" class="edge">
<title>n37&#45;&gt;n7</title>
<path fill="none" stroke="#00ff00" d="M2772.0494,-411.7457C2763.335,-381.6562 2743.2625,-320.5453 2713,-276 2696.6709,-251.9641 2674.1087,-229.0248 2653.9108,-210.8358"/>
<polygon fill="#00ff00" stroke="#00ff00" points="2656.112,-208.11 2646.3034,-204.1048 2651.4734,-213.3526 2656.112,-208.11"/>
</g>
<!-- n25 -->
<g id="node36" class="node">
<title>n25</title>
<path fill="#ffffff" stroke="#f4a460" stroke-width="2" d="M3471,-862C3471,-862 3299,-862 3299,-862 3293,-862 3287,-856 3287,-850 3287,-850 3287,-810 3287,-810 3287,-804 3293,-798 3299,-798 3299,-798 3471,-798 3471,-798 3477,-798 3483,-804 3483,-810 3483,-810 3483,-850 3483,-850 3483,-856 3477,-862 3471,-862"/>
<text text-anchor="start" x="3336.944" y="-848" font-family="arial" font-weight="bold" font-size="10.00" fill="#000000">Traversing Northward</text>
<text text-anchor="start" x="3305.5345" y="-831" font-family="arial" font-size="10.00" fill="#000000">The strata south of Exmoor become</text>
<text text-anchor="start" x="3302.476" y="-819" font-family="arial" font-size="10.00" fill="#000000"> progessively younger the furhter one</text>
<text text-anchor="start" x="3298.0405" y="-807" font-family="arial" font-size="10.00" fill="#000000"> traverses northward #GRE #chron&#45;hyp</text>
</g>
<!-- n26 -->
<g id="node37" class="node">
<title>n26</title>
<path fill="#ffffff" stroke="#f4a460" stroke-width="2" d="M3257,-868C3257,-868 3081,-868 3081,-868 3075,-868 3069,-862 3069,-856 3069,-856 3069,-804 3069,-804 3069,-798 3075,-792 3081,-792 3081,-792 3257,-792 3257,-792 3263,-792 3269,-798 3269,-804 3269,-804 3269,-856 3269,-856 3269,-862 3263,-868 3257,-868"/>
<text text-anchor="start" x="3092.8685" y="-854" font-family="arial" font-weight="bold" font-size="10.00" fill="#000000">Exmoor Youngest Devonian strata</text>
<text text-anchor="start" x="3089.812" y="-837" font-family="arial" font-size="10.00" fill="#000000">In Devon, among all the strata older</text>
<text text-anchor="start" x="3078.6885" y="-825" font-family="arial" font-size="10.00" fill="#000000"> than the New Red Sandstone, the strata</text>
<text text-anchor="start" x="3091.1995" y="-813" font-family="arial" font-size="10.00" fill="#000000"> of Exmoor are the youngest #GRE</text>
<text text-anchor="start" x="3142.6045" y="-801" font-family="arial" font-size="10.00" fill="#000000"> #chron&#45;hyp</text>
</g>
<!-- n27 -->
<g id="node38" class="node">
<title>n27</title>
<path fill="#ffffff" stroke="#ffc1c1" stroke-width="2" d="M3264.5,-714C3264.5,-714 3081.5,-714 3081.5,-714 3075.5,-714 3069.5,-708 3069.5,-702 3069.5,-702 3069.5,-662 3069.5,-662 3069.5,-656 3075.5,-650 3081.5,-650 3081.5,-650 3264.5,-650 3264.5,-650 3270.5,-650 3276.5,-656 3276.5,-662 3276.5,-662 3276.5,-702 3276.5,-702 3276.5,-708 3270.5,-714 3264.5,-714"/>
<text text-anchor="start" x="3102.0935" y="-700" font-family="arial" font-weight="bold" font-size="10.00" fill="#000000">Culm Youngest Devonian Strata</text>
<text text-anchor="start" x="3094.312" y="-683" font-family="arial" font-size="10.00" fill="#000000">In Devon, among all the strata older</text>
<text text-anchor="start" x="3084.028" y="-671" font-family="arial" font-size="10.00" fill="#000000"> than the New Red Sandstone, the Culm</text>
<text text-anchor="start" x="3079.5825" y="-659" font-family="arial" font-size="10.00" fill="#000000"> strata are the youngest #COA #chron&#45;hyp</text>
</g>
<!-- n26&#45;&gt;n27 -->
<g id="edge50" class="edge">
<title>n26&#45;&gt;n27</title>
<path fill="none" stroke="#ff0000" d="M3164.0419,-791.8863C3163.6497,-771.2775 3164.277,-745.7689 3165.6761,-724.5179"/>
<polygon fill="#ff0000" stroke="#ff0000" points="3169.1721,-724.6999 3166.4238,-714.4678 3162.1914,-724.1805 3169.1721,-724.6999"/>
</g>
<!-- n27&#45;&gt;n26 -->
<g id="edge49" class="edge">
<title>n27&#45;&gt;n26</title>
<path fill="none" stroke="#ff0000" d="M3177.8212,-714.4678C3178.4088,-734.1693 3177.9444,-759.6793 3176.6789,-781.7151"/>
<polygon fill="#ff0000" stroke="#ff0000" points="3173.1738,-781.6805 3176.0183,-791.8863 3180.1591,-782.1342 3173.1738,-781.6805"/>
</g>
</g>
</svg>
