
<!-- Generated by graphviz version 2.40.1 (20161225.0304)
 -->
<!-- Title: Argument Map Pages: 1 -->
<svg width="720pt" height="348pt"
 viewBox="0.00 0.00 720.00 348.48" xmlns="http://www.w3.org/2000/svg" xmlns:xlink="http://www.w3.org/1999/xlink">
<g id="graph0" class="graph" transform="scale(.2908 .2908) rotate(0) translate(4 1194.4)">
<title>Argument Map</title>
<g id="clust1" class="cluster">
<title>cluster_1</title>
<polygon fill="#b9d3ee" stroke="#b9d3ee" points="722,-256 722,-370.4 934,-370.4 934,-256 722,-256"/>
<text text-anchor="start" x="744.3132" y="-355.6" font-family="arial" font-size="12.00" fill="#000000">Aporia I : Coal in Ancient Strata</text>
</g>
<g id="clust2" class="cluster">
<title>cluster_2</title>
<polygon fill="#eedfcc" stroke="#eedfcc" points="8,-140 8,-1170.4 714,-1170.4 714,-140 8,-140"/>
<text text-anchor="start" x="296.6578" y="-1155.6" font-family="arial" font-size="12.00" fill="#000000">Dating of the Main Culm</text>
</g>
<g id="clust3" class="cluster">
<title>cluster_3</title>
<polygon fill="#eeb4b4" stroke="#eeb4b4" points="942,-8 942,-1176.4 1368,-1176.4 1368,-8 942,-8"/>
<text text-anchor="start" x="1075.9842" y="-1161.6" font-family="arial" font-size="12.00" fill="#000000">Dating of the Culm Limestone</text>
</g>
<g id="clust4" class="cluster">
<title>cluster_4</title>
<polygon fill="#cd9b9b" stroke="#cd9b9b" points="1376,-404 1376,-1176.4 2022,-1176.4 2022,-404 1376,-404"/>
<text text-anchor="start" x="1636.3252" y="-1161.6" font-family="arial" font-size="12.00" fill="#000000">Dating of the Non&#45;Culm</text>
</g>
<g id="clust5" class="cluster">
<title>cluster_5</title>
<polygon fill="#8b6969" stroke="#8b6969" points="2030,-926 2030,-1182.4 2460,-1182.4 2460,-926 2030,-926"/>
<text text-anchor="start" x="2174.9752" y="-1167.6" font-family="arial" font-size="12.00" fill="#000000">Youngest Devonian Strata</text>
</g>
<!-- n0 -->
<g id="node1" class="node">
<title>n0</title>
<path fill="#ffffff" stroke="#b8860b" stroke-width="2" d="M914,-340C914,-340 742,-340 742,-340 736,-340 730,-334 730,-328 730,-328 730,-276 730,-276 730,-270 736,-264 742,-264 742,-264 914,-264 914,-264 920,-264 926,-270 926,-276 926,-276 926,-328 926,-328 926,-334 920,-340 914,-340"/>
<text text-anchor="start" x="764.652" y="-326" font-family="arial" font-weight="bold" font-size="10.00" fill="#000000">Instances of Pre&#45;ORS Strata</text>
<text text-anchor="start" x="746.3215" y="-309" font-family="arial" font-size="10.00" fill="#000000">In Munster, North America and North</text>
<text text-anchor="start" x="741.3145" y="-297" font-family="arial" font-size="10.00" fill="#000000"> Devon, some strata closely associated</text>
<text text-anchor="start" x="740.7625" y="-285" font-family="arial" font-size="10.00" fill="#000000"> with seams of coal are pre&#45;ORS in age</text>
<text text-anchor="start" x="786.602" y="-273" font-family="arial" font-size="10.00" fill="#000000"> #GRE #chron&#45;hyp</text>
</g>
<!-- n1 -->
<g id="node2" class="node">
<title>n1</title>
<path fill="#ffffff" stroke="#b8860b" stroke-width="2" d="M551,-1140C551,-1140 379,-1140 379,-1140 373,-1140 367,-1134 367,-1128 367,-1128 367,-1100 367,-1100 367,-1094 373,-1088 379,-1088 379,-1088 551,-1088 551,-1088 557,-1088 563,-1094 563,-1100 563,-1100 563,-1128 563,-1128 563,-1134 557,-1140 551,-1140"/>
<text text-anchor="start" x="421.9475" y="-1126" font-family="arial" font-weight="bold" font-size="10.00" fill="#000000">Main Culm as CAM</text>
<text text-anchor="start" x="379.9925" y="-1109" font-family="arial" font-size="10.00" fill="#000000">The whole of the main Culm is CAM in</text>
<text text-anchor="start" x="412.4845" y="-1097" font-family="arial" font-size="10.00" fill="#000000"> age #GRE #chron&#45;hyp </text>
</g>
<!-- n1&#45;&gt;n0 -->
<g id="edge1" class="edge">
<title>n1&#45;&gt;n0</title>
<path fill="none" stroke="#00ff00" d="M563.2366,-1092.547C613.2825,-1076.5143 670.6641,-1049.2908 705,-1004 755.0146,-938.0283 734,-902.7872 734,-820 734,-820 734,-820 734,-562 734,-483.6661 772.2027,-399.5415 799.8994,-348.8452"/>
<polygon fill="#00ff00" stroke="#00ff00" points="802.9697,-350.5254 804.764,-340.0836 796.8498,-347.1274 802.9697,-350.5254"/>
</g>
<!-- n2 -->
<g id="node3" class="node">
<title>n2</title>
<path fill="#ffffff" stroke="#f5f5dc" stroke-width="2" d="M674,-992C674,-992 496,-992 496,-992 490,-992 484,-986 484,-980 484,-980 484,-952 484,-952 484,-946 490,-940 496,-940 496,-940 674,-940 674,-940 680,-940 686,-946 686,-952 686,-952 686,-980 686,-980 686,-986 680,-992 674,-992"/>
<text text-anchor="start" x="530.8345" y="-978" font-family="arial" font-weight="bold" font-size="10.00" fill="#000000">Some Main Culm as CM</text>
<text text-anchor="start" x="493.599" y="-961" font-family="arial" font-size="10.00" fill="#000000">Some part of the main Culm is CM in age</text>
<text text-anchor="start" x="548.882" y="-949" font-family="arial" font-size="10.00" fill="#000000"> #pri #chron&#45;hyp</text>
</g>
<!-- n1&#45;&gt;n2 -->
<g id="edge6" class="edge">
<title>n1&#45;&gt;n2</title>
<path fill="none" stroke="#ff0000" d="M486.1774,-1087.8813C505.9337,-1063.515 535.5315,-1027.0111 557.1853,-1000.3048"/>
<polygon fill="#ff0000" stroke="#ff0000" points="560.0513,-1002.3274 563.6307,-992.3555 554.614,-997.9187 560.0513,-1002.3274"/>
</g>
<!-- n3 -->
<g id="node4" class="node">
<title>n3</title>
<path fill="#ffffff" stroke="#f5f5dc" stroke-width="2" d="M225.5,-328C225.5,-328 48.5,-328 48.5,-328 42.5,-328 36.5,-322 36.5,-316 36.5,-316 36.5,-288 36.5,-288 36.5,-282 42.5,-276 48.5,-276 48.5,-276 225.5,-276 225.5,-276 231.5,-276 237.5,-282 237.5,-288 237.5,-288 237.5,-316 237.5,-316 237.5,-322 231.5,-328 225.5,-328"/>
<text text-anchor="start" x="84.1645" y="-314" font-family="arial" font-weight="bold" font-size="10.00" fill="#000000">Some Main Culm as ML</text>
<text text-anchor="start" x="46.929" y="-297" font-family="arial" font-size="10.00" fill="#000000">Some part of the main Culm is ML in age</text>
<text text-anchor="start" x="101.382" y="-285" font-family="arial" font-size="10.00" fill="#000000"> #pri #chron&#45;hyp</text>
</g>
<!-- n1&#45;&gt;n3 -->
<g id="edge7" class="edge">
<title>n1&#45;&gt;n3</title>
<path fill="none" stroke="#ff0000" d="M366.7175,-1092.1898C313.553,-1075.8738 250.3043,-1048.4931 208,-1004 147.9256,-940.8173 140,-907.1836 140,-820 140,-820 140,-820 140,-562 140,-482.1368 138.5672,-388.4839 137.682,-338.2426"/>
<polygon fill="#ff0000" stroke="#ff0000" points="141.1808,-338.1368 137.5021,-328.2011 134.1819,-338.2622 141.1808,-338.1368"/>
</g>
<!-- n4 -->
<g id="node5" class="node">
<title>n4</title>
<path fill="#ffffff" stroke="#f5f5dc" stroke-width="2" d="M654,-328C654,-328 482,-328 482,-328 476,-328 470,-322 470,-316 470,-316 470,-288 470,-288 470,-282 476,-276 482,-276 482,-276 654,-276 654,-276 660,-276 666,-282 666,-288 666,-288 666,-316 666,-316 666,-322 660,-328 654,-328"/>
<text text-anchor="start" x="510.775" y="-314" font-family="arial" font-weight="bold" font-size="10.00" fill="#000000">Some Main Culm as ORS</text>
<text text-anchor="start" x="483.2675" y="-297" font-family="arial" font-size="10.00" fill="#000000">Some part of the main Culm is ORS in</text>
<text text-anchor="start" x="522.154" y="-285" font-family="arial" font-size="10.00" fill="#000000"> age #pri #chron&#45;hyp</text>
</g>
<!-- n1&#45;&gt;n4 -->
<g id="edge8" class="edge">
<title>n1&#45;&gt;n4</title>
<path fill="none" stroke="#ff0000" d="M563.2303,-1093.0746C611.7433,-1077.2516 665.9727,-1050.0589 695,-1004 710.3739,-979.6055 733.5275,-623.5957 647,-404 637.0131,-378.6544 618.684,-354.3689 602.1936,-335.8571"/>
<polygon fill="#ff0000" stroke="#ff0000" points="604.602,-333.3045 595.2686,-328.2907 599.4382,-338.0305 604.602,-333.3045"/>
</g>
<!-- n5 -->
<g id="node6" class="node">
<title>n5</title>
<path fill="#ffffff" stroke="#f5f5dc" stroke-width="2" d="M440,-328C440,-328 268,-328 268,-328 262,-328 256,-322 256,-316 256,-316 256,-288 256,-288 256,-282 262,-276 268,-276 268,-276 440,-276 440,-276 446,-276 452,-282 452,-288 452,-288 452,-316 452,-316 452,-322 446,-328 440,-328"/>
<text text-anchor="start" x="300.105" y="-314" font-family="arial" font-weight="bold" font-size="10.00" fill="#000000">Some Main Culm as SIL</text>
<text text-anchor="start" x="272.5975" y="-297" font-family="arial" font-size="10.00" fill="#000000">Some part of the main Culm is SIL in</text>
<text text-anchor="start" x="308.154" y="-285" font-family="arial" font-size="10.00" fill="#000000"> age #pri #chron&#45;hyp</text>
</g>
<!-- n1&#45;&gt;n5 -->
<g id="edge9" class="edge">
<title>n1&#45;&gt;n5</title>
<path fill="none" stroke="#ff0000" d="M366.9665,-1092.501C318.5772,-1076.53 264.2276,-1049.3784 234,-1004 188.6093,-935.8583 225,-901.8755 225,-820 225,-820 225,-820 225,-562 225,-473.1631 286.1812,-383.3747 324.2757,-336.0783"/>
<polygon fill="#ff0000" stroke="#ff0000" points="327.013,-338.2599 330.6391,-328.3048 321.5964,-333.8258 327.013,-338.2599"/>
</g>
<!-- n6 -->
<g id="node7" class="node">
<title>n6</title>
<path fill="#ffffff" stroke="#f5f5dc" stroke-width="2" d="M551,-712C551,-712 379,-712 379,-712 373,-712 367,-706 367,-700 367,-700 367,-672 367,-672 367,-666 373,-660 379,-660 379,-660 551,-660 551,-660 557,-660 563,-666 563,-672 563,-672 563,-700 563,-700 563,-706 557,-712 551,-712"/>
<text text-anchor="start" x="407.5" y="-698" font-family="arial" font-weight="bold" font-size="10.00" fill="#000000">Some Main Culm as CAM</text>
<text text-anchor="start" x="379.9925" y="-681" font-family="arial" font-size="10.00" fill="#000000">Some part of the main Culm is CAM in</text>
<text text-anchor="start" x="419.154" y="-669" font-family="arial" font-size="10.00" fill="#000000"> age #pri #chron&#45;hyp</text>
</g>
<!-- n1&#45;&gt;n6 -->
<g id="edge10" class="edge">
<title>n1&#45;&gt;n6</title>
<path fill="none" stroke="#00ff00" d="M465,-1087.871C465,-1014.5088 465,-806.5067 465,-722.1794"/>
<polygon fill="#00ff00" stroke="#00ff00" points="468.5001,-722.0583 465,-712.0584 461.5001,-722.0584 468.5001,-722.0583"/>
</g>
<!-- n27 -->
<g id="node10" class="node">
<title>n27</title>
<path fill="#f5f5dc" stroke="#000000" d="M432.5,-856C432.5,-856 259.5,-856 259.5,-856 253.5,-856 247.5,-850 247.5,-844 247.5,-844 247.5,-796 247.5,-796 247.5,-790 253.5,-784 259.5,-784 259.5,-784 432.5,-784 432.5,-784 438.5,-784 444.5,-790 444.5,-796 444.5,-796 444.5,-844 444.5,-844 444.5,-850 438.5,-856 432.5,-856"/>
<text text-anchor="start" x="260.6425" y="-842" font-family="arial" font-weight="bold" font-size="10.00" fill="#000000">Standard Sequence as Partition &#45; Main</text>
<text text-anchor="start" x="333.4475" y="-832" font-family="arial" font-weight="bold" font-size="10.00" fill="#000000"> Culm</text>
<text text-anchor="start" x="257.8835" y="-817" font-family="arial" font-size="10.00" fill="#000000">If some main Culm strata are neiter CM,</text>
<text text-anchor="start" x="261.4835" y="-805" font-family="arial" font-size="10.00" fill="#000000"> ML, OR nor SIL in age, then it is CAM</text>
<text text-anchor="start" x="295.3755" y="-793" font-family="arial" font-size="10.00" fill="#000000"> in age #pri #chron&#45;hyp</text>
</g>
<!-- n2&#45;&gt;n27 -->
<g id="edge2" class="edge">
<title>n2&#45;&gt;n27</title>
<path fill="none" stroke="#ff0000" d="M542.2716,-939.8981C506.5465,-918.0744 454.9466,-886.5532 413.6195,-861.3073"/>
<polygon fill="#ff0000" stroke="#ff0000" points="415.3243,-858.2474 404.966,-856.0211 411.6752,-864.221 415.3243,-858.2474"/>
</g>
<!-- n28 -->
<g id="node11" class="node">
<title>n28</title>
<path fill="#b8860b" stroke="#000000" d="M547,-184C547,-184 375,-184 375,-184 369,-184 363,-178 363,-172 363,-172 363,-160 363,-160 363,-154 369,-148 375,-148 375,-148 547,-148 547,-148 553,-148 559,-154 559,-160 559,-160 559,-172 559,-172 559,-178 553,-184 547,-184"/>
<text text-anchor="start" x="393.494" y="-164" font-family="arial" font-weight="bold" font-size="10.00" fill="#000000">Dating the Main Culm &#45; GRE.1</text>
</g>
<!-- n2&#45;&gt;n28 -->
<g id="edge11" class="edge">
<title>n2&#45;&gt;n28</title>
<path fill="none" stroke="#ff0000" d="M593.4114,-939.762C629.3901,-825.3955 765.0186,-371.0467 687,-256 660.224,-216.516 613.0745,-194.3535 568.7447,-181.9138"/>
<polygon fill="#ff0000" stroke="#ff0000" points="569.6053,-178.5211 559.0413,-179.3296 567.8037,-185.2853 569.6053,-178.5211"/>
</g>
<!-- n29 -->
<g id="node12" class="node">
<title>n29</title>
<path fill="#ff8c00" stroke="#000000" d="M543,-580C543,-580 371,-580 371,-580 365,-580 359,-574 359,-568 359,-568 359,-556 359,-556 359,-550 365,-544 371,-544 371,-544 543,-544 543,-544 549,-544 555,-550 555,-556 555,-556 555,-568 555,-568 555,-574 549,-580 543,-580"/>
<text text-anchor="start" x="383.935" y="-560" font-family="arial" font-weight="bold" font-size="10.00" fill="#000000">Redating the Main Culm &#45; COA.1</text>
</g>
<!-- n2&#45;&gt;n29 -->
<g id="edge70" class="edge">
<title>n2&#45;&gt;n29</title>
<path fill="none" stroke="#00ff00" d="M590.5634,-939.7342C600.8629,-884.6043 617.9163,-754.1509 572,-660 556.4527,-628.1204 525.2466,-602.5775 499.2606,-585.5712"/>
<polygon fill="#00ff00" stroke="#00ff00" points="500.9988,-582.5292 490.6782,-580.1343 497.2527,-588.4425 500.9988,-582.5292"/>
</g>
<!-- n3&#45;&gt;n27 -->
<g id="edge3" class="edge">
<title>n3&#45;&gt;n27</title>
<path fill="none" stroke="#ff0000" d="M147.5438,-328.1325C181.0193,-411.1005 285.1837,-669.2688 327.6743,-774.5804"/>
<polygon fill="#ff0000" stroke="#ff0000" points="324.482,-776.0225 331.4695,-783.9865 330.9735,-773.4033 324.482,-776.0225"/>
</g>
<!-- n3&#45;&gt;n28 -->
<g id="edge12" class="edge">
<title>n3&#45;&gt;n28</title>
<path fill="none" stroke="#ff0000" d="M199.0871,-275.9387C259.8333,-250.4403 351.3297,-212.0345 408.5394,-188.0205"/>
<polygon fill="#ff0000" stroke="#ff0000" points="409.898,-191.2461 417.764,-184.1485 407.1887,-184.7917 409.898,-191.2461"/>
</g>
<!-- n3&#45;&gt;n29 -->
<g id="edge21" class="edge">
<title>n3&#45;&gt;n29</title>
<path fill="none" stroke="#ff0000" d="M169.2451,-328.1991C231.2547,-378.582 366.3242,-488.3259 426.7384,-537.4125"/>
<polygon fill="#ff0000" stroke="#ff0000" points="424.784,-540.3342 434.7523,-543.9237 429.1982,-534.9014 424.784,-540.3342"/>
</g>
<!-- n4&#45;&gt;n27 -->
<g id="edge4" class="edge">
<title>n4&#45;&gt;n27</title>
<path fill="none" stroke="#ff0000" d="M591.568,-328.3445C607.2602,-347.7407 626.5013,-375.5818 635,-404 675.0334,-537.8652 660.6031,-603.9627 572,-712 541.9406,-748.6526 496.5042,-773.6729 454.236,-790.3217"/>
<polygon fill="#ff0000" stroke="#ff0000" points="452.8035,-787.1221 444.7081,-793.9569 455.2988,-793.6622 452.8035,-787.1221"/>
</g>
<!-- n4&#45;&gt;n28 -->
<g id="edge13" class="edge">
<title>n4&#45;&gt;n28</title>
<path fill="none" stroke="#ff0000" d="M547.3693,-275.7778C528.4648,-251.7496 500.6204,-216.3586 481.6954,-192.3045"/>
<polygon fill="#ff0000" stroke="#ff0000" points="484.3368,-190.0013 475.4027,-184.3062 478.8353,-194.3296 484.3368,-190.0013"/>
</g>
<!-- n4&#45;&gt;n29 -->
<g id="edge22" class="edge">
<title>n4&#45;&gt;n29</title>
<path fill="none" stroke="#ff0000" d="M526.9179,-328.0291C482.6806,-356.2587 418.154,-398.1068 415,-404 392.1077,-446.7747 418.5098,-502.8674 438.5848,-535.4238"/>
<polygon fill="#ff0000" stroke="#ff0000" points="435.6997,-537.4089 444.033,-543.9516 441.5986,-533.6402 435.6997,-537.4089"/>
</g>
<!-- n5&#45;&gt;n27 -->
<g id="edge5" class="edge">
<title>n5&#45;&gt;n27</title>
<path fill="none" stroke="#ff0000" d="M353.5243,-328.319C352.7473,-371.6287 351.1748,-460.6388 350,-536 348.6939,-619.78 347.3594,-717.4654 346.6096,-773.6842"/>
<polygon fill="#ff0000" stroke="#ff0000" points="343.1099,-773.6405 346.4765,-783.6862 350.1093,-773.7337 343.1099,-773.6405"/>
</g>
<!-- n5&#45;&gt;n28 -->
<g id="edge14" class="edge">
<title>n5&#45;&gt;n28</title>
<path fill="none" stroke="#ff0000" d="M374.6307,-275.7778C393.5352,-251.7496 421.3796,-216.3586 440.3046,-192.3045"/>
<polygon fill="#ff0000" stroke="#ff0000" points="443.1647,-194.3296 446.5973,-184.3062 437.6632,-190.0013 443.1647,-194.3296"/>
</g>
<!-- n5&#45;&gt;n29 -->
<g id="edge23" class="edge">
<title>n5&#45;&gt;n29</title>
<path fill="none" stroke="#ff0000" d="M359.3184,-328.2145C366.4123,-360.8295 380.3939,-417.8509 400,-464 410.7632,-489.3347 426.7777,-516.2359 439.0937,-535.4312"/>
<polygon fill="#ff0000" stroke="#ff0000" points="436.2413,-537.4649 444.6314,-543.9345 442.1071,-533.6448 436.2413,-537.4649"/>
</g>
<!-- n6&#45;&gt;n28 -->
<g id="edge71" class="edge">
<title>n6&#45;&gt;n28</title>
<path fill="none" stroke="#00ff00" d="M499.3337,-659.9732C521.9474,-641.6145 551.1234,-615.4803 572,-588 636.7263,-502.7993 653.5404,-475.2243 675,-370.4 685.1974,-320.5886 703.1333,-298.3518 675,-256 650.9471,-219.7908 609.1772,-198.1171 568.888,-185.1581"/>
<polygon fill="#00ff00" stroke="#00ff00" points="569.823,-181.7841 559.2366,-182.2064 567.7757,-188.478 569.823,-181.7841"/>
</g>
<!-- n6&#45;&gt;n29 -->
<g id="edge24" class="edge">
<title>n6&#45;&gt;n29</title>
<path fill="none" stroke="#ff0000" d="M463.3034,-659.7028C461.9911,-639.3616 460.1769,-611.2427 458.8317,-590.3916"/>
<polygon fill="#ff0000" stroke="#ff0000" points="462.3128,-589.9839 458.1761,-580.23 455.3273,-590.4346 462.3128,-589.9839"/>
</g>
<!-- n7 -->
<g id="node8" class="node">
<title>n7</title>
<path fill="#ffffff" stroke="#f5f5dc" stroke-width="2" d="M434.5,-998C434.5,-998 255.5,-998 255.5,-998 249.5,-998 243.5,-992 243.5,-986 243.5,-986 243.5,-946 243.5,-946 243.5,-940 249.5,-934 255.5,-934 255.5,-934 434.5,-934 434.5,-934 440.5,-934 446.5,-940 446.5,-946 446.5,-946 446.5,-986 446.5,-986 446.5,-992 440.5,-998 434.5,-998"/>
<text text-anchor="start" x="253.557" y="-984" font-family="arial" font-weight="bold" font-size="10.00" fill="#000000">Main Culm as Post&#45;Primary and Pre&#45;NRS</text>
<text text-anchor="start" x="265.487" y="-967" font-family="arial" font-size="10.00" fill="#000000">The main Culm strata are older than</text>
<text text-anchor="start" x="261.3165" y="-955" font-family="arial" font-size="10.00" fill="#000000"> Primary strata and younger than New</text>
<text text-anchor="start" x="259.6415" y="-943" font-family="arial" font-size="10.00" fill="#000000"> Red Sandstone strata #pri #chron&#45;hyp</text>
</g>
<!-- n7&#45;&gt;n27 -->
<g id="edge72" class="edge">
<title>n7&#45;&gt;n27</title>
<path fill="none" stroke="#00ff00" d="M345.2195,-933.9597C345.3554,-914.1045 345.5324,-888.2721 345.6834,-866.2232"/>
<polygon fill="#00ff00" stroke="#00ff00" points="349.1843,-866.0946 345.7529,-856.0709 342.1844,-866.0466 349.1843,-866.0946"/>
</g>
<!-- n8 -->
<g id="node9" class="node">
<title>n8</title>
<path fill="#ffffff" stroke="#ff8c00" stroke-width="2" d="M614,-464C614,-464 436,-464 436,-464 430,-464 424,-458 424,-452 424,-452 424,-424 424,-424 424,-418 430,-412 436,-412 436,-412 614,-412 614,-412 620,-412 626,-418 626,-424 626,-424 626,-452 626,-452 626,-458 620,-464 614,-464"/>
<text text-anchor="start" x="485.282" y="-450" font-family="arial" font-weight="bold" font-size="10.00" fill="#000000">Main Culm as CM</text>
<text text-anchor="start" x="433.599" y="-433" font-family="arial" font-size="10.00" fill="#000000">The whole of the main Culm is CM in age</text>
<text text-anchor="start" x="482.2125" y="-421" font-family="arial" font-size="10.00" fill="#000000"> #COA #chron&#45;hyp </text>
</g>
<!-- n8&#45;&gt;n0 -->
<g id="edge20" class="edge">
<title>n8&#45;&gt;n0</title>
<path fill="none" stroke="#ff0000" d="M612.1373,-411.9929C645.8689,-400.766 684.3783,-386.5006 718,-370.4 733.0328,-363.2011 748.5815,-354.4373 763.0871,-345.618"/>
<polygon fill="#ff0000" stroke="#ff0000" points="765.3003,-348.365 771.9703,-340.1332 761.6227,-342.4089 765.3003,-348.365"/>
</g>
<!-- n8&#45;&gt;n2 -->
<g id="edge15" class="edge">
<title>n8&#45;&gt;n2</title>
<path fill="none" stroke="#00ff00" d="M540.2999,-464.1344C550.8674,-483.377 564.3482,-510.5182 572,-536 613.133,-672.9802 619.4699,-713.613 606,-856 603.6397,-880.9507 598.3318,-908.6648 593.6432,-930.0331"/>
<polygon fill="#00ff00" stroke="#00ff00" points="590.1872,-929.4489 591.4069,-939.9733 597.0165,-930.9853 590.1872,-929.4489"/>
</g>
<!-- n8&#45;&gt;n3 -->
<g id="edge16" class="edge">
<title>n8&#45;&gt;n3</title>
<path fill="none" stroke="#ff0000" d="M423.8022,-421.4335C369.9796,-410.6425 303.4474,-394.0942 247,-370.4 224.0605,-360.771 200.405,-346.6906 180.9363,-333.8043"/>
<polygon fill="#ff0000" stroke="#ff0000" points="182.8338,-330.8626 172.5841,-328.1803 178.924,-336.6689 182.8338,-330.8626"/>
</g>
<!-- n8&#45;&gt;n4 -->
<g id="edge17" class="edge">
<title>n8&#45;&gt;n4</title>
<path fill="none" stroke="#ff0000" d="M533.2908,-411.7778C539.9236,-390.7997 549.2948,-361.1605 556.6283,-337.9663"/>
<polygon fill="#ff0000" stroke="#ff0000" points="560.0571,-338.7316 559.7346,-328.1417 553.3827,-336.6213 560.0571,-338.7316"/>
</g>
<!-- n8&#45;&gt;n5 -->
<g id="edge18" class="edge">
<title>n8&#45;&gt;n5</title>
<path fill="none" stroke="#ff0000" d="M492.0295,-411.7778C464.3515,-389.7649 424.6826,-358.2154 394.9681,-334.5828"/>
<polygon fill="#ff0000" stroke="#ff0000" points="396.8745,-331.627 386.8693,-328.1417 392.5172,-337.1056 396.8745,-331.627"/>
</g>
<!-- n8&#45;&gt;n6 -->
<g id="edge19" class="edge">
<title>n8&#45;&gt;n6</title>
<path fill="none" stroke="#ff0000" d="M541.8269,-464.1989C559.17,-494.7182 581.405,-546.2805 564,-588 553.1901,-613.9111 531.8259,-636.4748 511.7025,-653.3987"/>
<polygon fill="#ff0000" stroke="#ff0000" points="509.3356,-650.8122 503.782,-659.8349 513.7501,-656.2448 509.3356,-650.8122"/>
</g>
<!-- n27&#45;&gt;n6 -->
<g id="edge62" class="edge">
<title>n27&#45;&gt;n6</title>
<path fill="none" stroke="#00ff00" d="M378.2031,-783.7377C395.9469,-763.7573 417.8257,-739.1207 435.1778,-719.5813"/>
<polygon fill="#00ff00" stroke="#00ff00" points="437.8052,-721.8937 441.8284,-712.0924 432.5711,-717.2455 437.8052,-721.8937"/>
</g>
<!-- n28&#45;&gt;n1 -->
<g id="edge63" class="edge">
<title>n28&#45;&gt;n1</title>
<path fill="none" stroke="#00ff00" d="M362.9263,-172.7281C248.6182,-182.7963 69.8532,-206.2044 27,-256 -25.8428,-317.4036 17,-356.9891 17,-438 17,-820 17,-820 17,-820 17,-982.1183 224.5934,-1059.7558 357.1548,-1092.8058"/>
<polygon fill="#00ff00" stroke="#00ff00" points="356.4162,-1096.2283 366.9614,-1095.2039 358.079,-1089.4286 356.4162,-1096.2283"/>
</g>
<!-- n29&#45;&gt;n8 -->
<g id="edge64" class="edge">
<title>n29&#45;&gt;n8</title>
<path fill="none" stroke="#00ff00" d="M466.8878,-543.9693C477.0336,-525.4682 493.0812,-496.2048 505.7445,-473.113"/>
<polygon fill="#00ff00" stroke="#00ff00" points="508.8472,-474.7341 510.5867,-464.283 502.7095,-471.3682 508.8472,-474.7341"/>
</g>
<!-- n9 -->
<g id="node13" class="node">
<title>n9</title>
<path fill="#ffffff" stroke="#f5f5dc" stroke-width="2" d="M1348,-1140C1348,-1140 1176,-1140 1176,-1140 1170,-1140 1164,-1134 1164,-1128 1164,-1128 1164,-1100 1164,-1100 1164,-1094 1170,-1088 1176,-1088 1176,-1088 1348,-1088 1348,-1088 1354,-1088 1360,-1094 1360,-1100 1360,-1100 1360,-1128 1360,-1128 1360,-1134 1354,-1140 1348,-1140"/>
<text text-anchor="start" x="1221.9965" y="-1126" font-family="arial" font-weight="bold" font-size="10.00" fill="#000000">Some BCL as CM</text>
<text text-anchor="start" x="1174.482" y="-1109" font-family="arial" font-size="10.00" fill="#000000">Some part of the black Culm Limestone</text>
<text text-anchor="start" x="1196.713" y="-1097" font-family="arial" font-size="10.00" fill="#000000"> is CM in age #pri #chron&#45;hyp</text>
</g>
<!-- n30 -->
<g id="node21" class="node">
<title>n30</title>
<path fill="#f5f5dc" stroke="#000000" d="M1184,-1004C1184,-1004 1012,-1004 1012,-1004 1006,-1004 1000,-998 1000,-992 1000,-992 1000,-940 1000,-940 1000,-934 1006,-928 1012,-928 1012,-928 1184,-928 1184,-928 1190,-928 1196,-934 1196,-940 1196,-940 1196,-992 1196,-992 1196,-998 1190,-1004 1184,-1004"/>
<text text-anchor="start" x="1013.252" y="-990" font-family="arial" font-weight="bold" font-size="10.00" fill="#000000">Standard Sequence as Partition &#45; BCL</text>
<text text-anchor="start" x="1031.5985" y="-973" font-family="arial" font-size="10.00" fill="#000000">If some part of the black Culm</text>
<text text-anchor="start" x="1013.547" y="-961" font-family="arial" font-size="10.00" fill="#000000"> Limestone is neiter CM, ML, ORS nor</text>
<text text-anchor="start" x="1015.479" y="-949" font-family="arial" font-size="10.00" fill="#000000"> SIL in age, then it is CAM in age #pri</text>
<text text-anchor="start" x="1071.6045" y="-937" font-family="arial" font-size="10.00" fill="#000000"> #chron&#45;hyp</text>
</g>
<!-- n9&#45;&gt;n30 -->
<g id="edge25" class="edge">
<title>n9&#45;&gt;n30</title>
<path fill="none" stroke="#ff0000" d="M1233.0576,-1087.8813C1209.5228,-1066.6425 1175.7691,-1036.1819 1147.8938,-1011.0261"/>
<polygon fill="#ff0000" stroke="#ff0000" points="1149.9696,-1008.1849 1140.2008,-1004.0836 1145.2798,-1013.3817 1149.9696,-1008.1849"/>
</g>
<!-- n31 -->
<g id="node22" class="node">
<title>n31</title>
<path fill="#b8860b" stroke="#000000" d="M1234,-704C1234,-704 1062,-704 1062,-704 1056,-704 1050,-698 1050,-692 1050,-692 1050,-680 1050,-680 1050,-674 1056,-668 1062,-668 1062,-668 1234,-668 1234,-668 1240,-668 1246,-674 1246,-680 1246,-680 1246,-692 1246,-692 1246,-698 1240,-704 1234,-704"/>
<text text-anchor="start" x="1094.656" y="-684" font-family="arial" font-weight="bold" font-size="10.00" fill="#000000">Dating the BCL &#45; GRE.1</text>
</g>
<!-- n9&#45;&gt;n31 -->
<g id="edge34" class="edge">
<title>n9&#45;&gt;n31</title>
<path fill="none" stroke="#ff0000" d="M1262.2481,-1087.7393C1261.9459,-1030.5057 1256.6013,-891.0739 1215,-784 1204.597,-757.2247 1185.6622,-730.5561 1170.569,-711.8145"/>
<polygon fill="#ff0000" stroke="#ff0000" points="1173.2223,-709.5307 1164.161,-704.0404 1167.8208,-713.9831 1173.2223,-709.5307"/>
</g>
<!-- n32 -->
<g id="node23" class="node">
<title>n32</title>
<path fill="#ff8c00" stroke="#000000" d="M1174,-320C1174,-320 1002,-320 1002,-320 996,-320 990,-314 990,-308 990,-308 990,-296 990,-296 990,-290 996,-284 1002,-284 1002,-284 1174,-284 1174,-284 1180,-284 1186,-290 1186,-296 1186,-296 1186,-308 1186,-308 1186,-314 1180,-320 1174,-320"/>
<text text-anchor="start" x="1029.097" y="-300" font-family="arial" font-weight="bold" font-size="10.00" fill="#000000">Redating the BCL &#45; COA.1</text>
</g>
<!-- n9&#45;&gt;n32 -->
<g id="edge73" class="edge">
<title>n9&#45;&gt;n32</title>
<path fill="none" stroke="#00ff00" d="M1192.6543,-1087.8829C1114.5288,-1058.1589 997.4924,-1012.5984 991,-1004 941.4314,-938.3527 971,-902.2595 971,-820 971,-820 971,-820 971,-562 971,-490.0755 974.8732,-468.8403 1006,-404 1019.976,-374.8866 1043.7097,-346.6592 1062.0579,-327.3082"/>
<polygon fill="#00ff00" stroke="#00ff00" points="1064.6045,-329.7097 1069.0445,-320.09 1059.5747,-324.8412 1064.6045,-329.7097"/>
</g>
<!-- n10 -->
<g id="node14" class="node">
<title>n10</title>
<path fill="#ffffff" stroke="#f5f5dc" stroke-width="2" d="M1134,-68C1134,-68 962,-68 962,-68 956,-68 950,-62 950,-56 950,-56 950,-28 950,-28 950,-22 956,-16 962,-16 962,-16 1134,-16 1134,-16 1140,-16 1146,-22 1146,-28 1146,-28 1146,-56 1146,-56 1146,-62 1140,-68 1134,-68"/>
<text text-anchor="start" x="1008.8265" y="-54" font-family="arial" font-weight="bold" font-size="10.00" fill="#000000">Some BCL as ML</text>
<text text-anchor="start" x="960.482" y="-37" font-family="arial" font-size="10.00" fill="#000000">Some part of the black Culm Limestone</text>
<text text-anchor="start" x="983.543" y="-25" font-family="arial" font-size="10.00" fill="#000000"> is ML in age #pri #chron&#45;hyp</text>
</g>
<!-- n10&#45;&gt;n30 -->
<g id="edge26" class="edge">
<title>n10&#45;&gt;n30</title>
<path fill="none" stroke="#ff0000" d="M1027.9221,-68.0613C1014.2168,-87.0502 996.6751,-113.9137 986,-140 958.1018,-208.1738 951,-228.3388 951,-302 951,-686 951,-686 951,-686 951,-763.5183 952.7768,-788.0035 990,-856 1003.2757,-880.2511 1023.4233,-902.842 1042.735,-921.1636"/>
<polygon fill="#ff0000" stroke="#ff0000" points="1040.366,-923.7401 1050.0794,-927.9711 1045.1246,-918.6062 1040.366,-923.7401"/>
</g>
<!-- n10&#45;&gt;n31 -->
<g id="edge35" class="edge">
<title>n10&#45;&gt;n31</title>
<path fill="none" stroke="#ff0000" d="M1035.2218,-68.0288C1009.5549,-123.6522 956.2256,-258.1801 981,-370.4 1006.8338,-487.4186 1088.8812,-607.6735 1127.5123,-659.5483"/>
<polygon fill="#ff0000" stroke="#ff0000" points="1124.9515,-661.9661 1133.7616,-667.8509 1130.5442,-657.7564 1124.9515,-661.9661"/>
</g>
<!-- n10&#45;&gt;n32 -->
<g id="edge43" class="edge">
<title>n10&#45;&gt;n32</title>
<path fill="none" stroke="#ff0000" d="M1046.4225,-68.24C1045.1362,-98.3612 1044.5766,-149.133 1052,-192 1056.9952,-220.845 1067.9641,-252.4843 1076.4898,-274.3956"/>
<polygon fill="#ff0000" stroke="#ff0000" points="1073.256,-275.7356 1080.2048,-283.7334 1079.7602,-273.1479 1073.256,-275.7356"/>
</g>
<!-- n11 -->
<g id="node15" class="node">
<title>n11</title>
<path fill="#ffffff" stroke="#f5f5dc" stroke-width="2" d="M1348,-68C1348,-68 1176,-68 1176,-68 1170,-68 1164,-62 1164,-56 1164,-56 1164,-28 1164,-28 1164,-22 1170,-16 1176,-16 1176,-16 1348,-16 1348,-16 1354,-16 1360,-22 1360,-28 1360,-28 1360,-56 1360,-56 1360,-62 1354,-68 1348,-68"/>
<text text-anchor="start" x="1218.937" y="-54" font-family="arial" font-weight="bold" font-size="10.00" fill="#000000">Some BCL as ORS</text>
<text text-anchor="start" x="1174.482" y="-37" font-family="arial" font-size="10.00" fill="#000000">Some part of the black Culm Limestone</text>
<text text-anchor="start" x="1193.6535" y="-25" font-family="arial" font-size="10.00" fill="#000000"> is ORS in age #pri #chron&#45;hyp</text>
</g>
<!-- n11&#45;&gt;n30 -->
<g id="edge27" class="edge">
<title>n11&#45;&gt;n30</title>
<path fill="none" stroke="#ff0000" d="M1283.6865,-68.1204C1298.09,-86.9248 1316.1081,-113.543 1326,-140 1395.7322,-326.5058 1377.1497,-396.3889 1323,-588 1288.0763,-711.5791 1287.4739,-749.9859 1215,-856 1198.5343,-880.0858 1175.9793,-902.8613 1155.0649,-921.3729"/>
<polygon fill="#ff0000" stroke="#ff0000" points="1152.6986,-918.7922 1147.4481,-927.9945 1157.2913,-924.075 1152.6986,-918.7922"/>
</g>
<!-- n11&#45;&gt;n31 -->
<g id="edge36" class="edge">
<title>n11&#45;&gt;n31</title>
<path fill="none" stroke="#ff0000" d="M1281.3122,-68.3125C1293.9304,-87.2051 1309.2722,-113.8497 1316,-140 1340.8083,-236.4276 1358.5459,-501.6349 1309,-588 1288.298,-624.0863 1248.4486,-648.5005 1213.5764,-663.9356"/>
<polygon fill="#ff0000" stroke="#ff0000" points="1212.1922,-660.7208 1204.3641,-667.8603 1214.9359,-667.1608 1212.1922,-660.7208"/>
</g>
<!-- n11&#45;&gt;n32 -->
<g id="edge44" class="edge">
<title>n11&#45;&gt;n32</title>
<path fill="none" stroke="#ff0000" d="M1176.8987,-68.2018C1142.6822,-83.3899 1106.721,-106.3535 1087,-140 1062.6402,-181.5609 1071.3247,-240.0272 1079.7405,-274.1724"/>
<polygon fill="#ff0000" stroke="#ff0000" points="1076.3811,-275.16 1082.3068,-283.9428 1083.1515,-273.3816 1076.3811,-275.16"/>
</g>
<!-- n12 -->
<g id="node16" class="node">
<title>n12</title>
<path fill="#ffffff" stroke="#f5f5dc" stroke-width="2" d="M1234,-464C1234,-464 1062,-464 1062,-464 1056,-464 1050,-458 1050,-452 1050,-452 1050,-424 1050,-424 1050,-418 1056,-412 1062,-412 1062,-412 1234,-412 1234,-412 1240,-412 1246,-418 1246,-424 1246,-424 1246,-452 1246,-452 1246,-458 1240,-464 1234,-464"/>
<text text-anchor="start" x="1108.267" y="-450" font-family="arial" font-weight="bold" font-size="10.00" fill="#000000">Some BCL as SIL</text>
<text text-anchor="start" x="1060.482" y="-433" font-family="arial" font-size="10.00" fill="#000000">Some part of the black Culm Limestone</text>
<text text-anchor="start" x="1082.9835" y="-421" font-family="arial" font-size="10.00" fill="#000000"> is SIL in age #pri #chron&#45;hyp</text>
</g>
<!-- n12&#45;&gt;n30 -->
<g id="edge28" class="edge">
<title>n12&#45;&gt;n30</title>
<path fill="none" stroke="#ff0000" d="M1127.4168,-464.248C1113.1996,-483.325 1094.6464,-510.2169 1082,-536 1030.9378,-640.1038 1019.0177,-669.4561 1001,-784 996.0276,-815.6113 989.6871,-826.0664 1001,-856 1010.0971,-880.0706 1027.1287,-902.2794 1044.4125,-920.3452"/>
<polygon fill="#ff0000" stroke="#ff0000" points="1042.2923,-923.1787 1051.8129,-927.8273 1047.2692,-918.2562 1042.2923,-923.1787"/>
</g>
<!-- n12&#45;&gt;n31 -->
<g id="edge37" class="edge">
<title>n12&#45;&gt;n31</title>
<path fill="none" stroke="#ff0000" d="M1127.6285,-464.1466C1114.3156,-482.9631 1098.1233,-509.585 1091,-536 1084.9826,-558.314 1084.9826,-565.686 1091,-588 1098.0784,-614.2488 1114.1121,-640.7017 1127.3767,-659.4971"/>
<polygon fill="#ff0000" stroke="#ff0000" points="1124.7142,-661.7871 1133.424,-667.8196 1130.3772,-657.6723 1124.7142,-661.7871"/>
</g>
<!-- n12&#45;&gt;n32 -->
<g id="edge45" class="edge">
<title>n12&#45;&gt;n32</title>
<path fill="none" stroke="#ff0000" d="M1136.4314,-411.7778C1126.0159,-388.1693 1110.761,-353.5915 1100.1655,-329.5752"/>
<polygon fill="#ff0000" stroke="#ff0000" points="1103.315,-328.0427 1096.0763,-320.3062 1096.9105,-330.8682 1103.315,-328.0427"/>
</g>
<!-- n13 -->
<g id="node17" class="node">
<title>n13</title>
<path fill="#ffffff" stroke="#f5f5dc" stroke-width="2" d="M1194,-846C1194,-846 1022,-846 1022,-846 1016,-846 1010,-840 1010,-834 1010,-834 1010,-806 1010,-806 1010,-800 1016,-794 1022,-794 1022,-794 1194,-794 1194,-794 1200,-794 1206,-800 1206,-806 1206,-806 1206,-834 1206,-834 1206,-840 1200,-846 1194,-846"/>
<text text-anchor="start" x="1064.662" y="-832" font-family="arial" font-weight="bold" font-size="10.00" fill="#000000">Some BCL as CAM</text>
<text text-anchor="start" x="1020.482" y="-815" font-family="arial" font-size="10.00" fill="#000000">Some part of the black Culm Limestone</text>
<text text-anchor="start" x="1039.3785" y="-803" font-family="arial" font-size="10.00" fill="#000000"> is CAM in age #pri #chron&#45;hyp</text>
</g>
<!-- n13&#45;&gt;n31 -->
<g id="edge74" class="edge">
<title>n13&#45;&gt;n31</title>
<path fill="none" stroke="#00ff00" d="M1115.8074,-793.8453C1122.6599,-770.8894 1132.6004,-737.5886 1139.6187,-714.0773"/>
<polygon fill="#00ff00" stroke="#00ff00" points="1143.0164,-714.9312 1142.523,-704.3479 1136.3088,-712.9289 1143.0164,-714.9312"/>
</g>
<!-- n13&#45;&gt;n32 -->
<g id="edge46" class="edge">
<title>n13&#45;&gt;n32</title>
<path fill="none" stroke="#ff0000" d="M1080.0444,-793.6725C1060.7281,-773.4469 1036.6649,-743.6829 1026,-712 982.329,-582.2641 989.0808,-535.8163 1026,-404 1033.8871,-375.8398 1051.9185,-347.7314 1066.5136,-328.1746"/>
<polygon fill="#ff0000" stroke="#ff0000" points="1069.4125,-330.1461 1072.7233,-320.0818 1063.859,-325.8848 1069.4125,-330.1461"/>
</g>
<!-- n14 -->
<g id="node18" class="node">
<title>n14</title>
<path fill="#ffffff" stroke="#f5f5dc" stroke-width="2" d="M1134,-1146C1134,-1146 962,-1146 962,-1146 956,-1146 950,-1140 950,-1134 950,-1134 950,-1094 950,-1094 950,-1088 956,-1082 962,-1082 962,-1082 1134,-1082 1134,-1082 1140,-1082 1146,-1088 1146,-1094 1146,-1094 1146,-1134 1146,-1134 1146,-1140 1140,-1146 1134,-1146"/>
<text text-anchor="start" x="970.219" y="-1132" font-family="arial" font-weight="bold" font-size="10.00" fill="#000000">BCL as Post&#45;Primary and Pre&#45;NRS</text>
<text text-anchor="start" x="960.207" y="-1115" font-family="arial" font-size="10.00" fill="#000000">The black Culm Limestone is older than</text>
<text text-anchor="start" x="963.8165" y="-1103" font-family="arial" font-size="10.00" fill="#000000"> Primary strata and younger than New</text>
<text text-anchor="start" x="962.1415" y="-1091" font-family="arial" font-size="10.00" fill="#000000"> Red Sandstone strata #pri #chron&#45;hyp</text>
</g>
<!-- n14&#45;&gt;n30 -->
<g id="edge75" class="edge">
<title>n14&#45;&gt;n30</title>
<path fill="none" stroke="#00ff00" d="M1058.8493,-1081.8862C1065.5794,-1061.965 1074.3496,-1036.0051 1081.8829,-1013.7065"/>
<polygon fill="#00ff00" stroke="#00ff00" points="1085.2506,-1014.6733 1085.1354,-1004.0791 1078.6188,-1012.4328 1085.2506,-1014.6733"/>
</g>
<!-- n15 -->
<g id="node19" class="node">
<title>n15</title>
<path fill="#ffffff" stroke="#b8860b" stroke-width="2" d="M1288,-588C1288,-588 1112,-588 1112,-588 1106,-588 1100,-582 1100,-576 1100,-576 1100,-548 1100,-548 1100,-542 1106,-536 1112,-536 1112,-536 1288,-536 1288,-536 1294,-536 1300,-542 1300,-548 1300,-548 1300,-576 1300,-576 1300,-582 1294,-588 1288,-588"/>
<text text-anchor="start" x="1171.1095" y="-574" font-family="arial" font-weight="bold" font-size="10.00" fill="#000000">BCL as CAM</text>
<text text-anchor="start" x="1109.7025" y="-557" font-family="arial" font-size="10.00" fill="#000000">The black Culm Limestone is nothing but</text>
<text text-anchor="start" x="1119.1505" y="-545" font-family="arial" font-size="10.00" fill="#000000"> Cambrian in age #GRE #chron&#45;hyp </text>
</g>
<!-- n15&#45;&gt;n9 -->
<g id="edge29" class="edge">
<title>n15&#45;&gt;n9</title>
<path fill="none" stroke="#ff0000" d="M1222.8026,-588.1995C1237.4418,-606.8336 1255.1344,-633.219 1263,-660 1306.965,-809.6928 1282.3444,-999.3204 1268.9153,-1077.6346"/>
<polygon fill="#ff0000" stroke="#ff0000" points="1265.3896,-1077.4752 1267.1029,-1087.9306 1272.2836,-1078.6888 1265.3896,-1077.4752"/>
</g>
<!-- n15&#45;&gt;n10 -->
<g id="edge30" class="edge">
<title>n15&#45;&gt;n10</title>
<path fill="none" stroke="#ff0000" d="M1219.6655,-535.7421C1232.5153,-516.8745 1248.1407,-490.2374 1255,-464 1261.7449,-438.2004 1260.1037,-430.1737 1255,-404 1241.4155,-334.3344 1241.2925,-309.8036 1195,-256 1158.6098,-213.7053 1120.5486,-236.5823 1087,-192 1061.9627,-158.7282 1052.9441,-110.869 1049.7267,-78.2167"/>
<polygon fill="#ff0000" stroke="#ff0000" points="1053.2087,-77.8545 1048.873,-68.1875 1046.2339,-78.4483 1053.2087,-77.8545"/>
</g>
<!-- n15&#45;&gt;n11 -->
<g id="edge31" class="edge">
<title>n15&#45;&gt;n11</title>
<path fill="none" stroke="#ff0000" d="M1224.0317,-535.7882C1239.7152,-517.1486 1259.2138,-490.7617 1270,-464 1315.6775,-350.6698 1301.0874,-313.8636 1310,-192 1311.6858,-168.9505 1315.2176,-162.5144 1310,-140 1304.9009,-117.997 1294.1411,-95.2338 1284.0988,-77.1903"/>
<polygon fill="#ff0000" stroke="#ff0000" points="1286.9602,-75.1445 1278.9465,-68.214 1280.8892,-78.6292 1286.9602,-75.1445"/>
</g>
<!-- n15&#45;&gt;n12 -->
<g id="edge32" class="edge">
<title>n15&#45;&gt;n12</title>
<path fill="none" stroke="#ff0000" d="M1188.9721,-535.7028C1181.3885,-517.6188 1171.227,-493.3874 1162.921,-473.5808"/>
<polygon fill="#ff0000" stroke="#ff0000" points="1166.107,-472.1277 1159.012,-464.2593 1159.6516,-474.8348 1166.107,-472.1277"/>
</g>
<!-- n15&#45;&gt;n13 -->
<g id="edge33" class="edge">
<title>n15&#45;&gt;n13</title>
<path fill="none" stroke="#00ff00" d="M1222.4892,-588.25C1245.7818,-618.8173 1276.0448,-670.4246 1255,-712 1238.0778,-745.431 1205.3962,-771.03 1175.1377,-788.8951"/>
<polygon fill="#00ff00" stroke="#00ff00" points="1173.2149,-785.9625 1166.2654,-793.9597 1176.6852,-792.0418 1173.2149,-785.9625"/>
</g>
<!-- n16 -->
<g id="node20" class="node">
<title>n16</title>
<path fill="#ffffff" stroke="#ff8c00" stroke-width="2" d="M1288.5,-192C1288.5,-192 1107.5,-192 1107.5,-192 1101.5,-192 1095.5,-186 1095.5,-180 1095.5,-180 1095.5,-152 1095.5,-152 1095.5,-146 1101.5,-140 1107.5,-140 1107.5,-140 1288.5,-140 1288.5,-140 1294.5,-140 1300.5,-146 1300.5,-152 1300.5,-152 1300.5,-180 1300.5,-180 1300.5,-186 1294.5,-192 1288.5,-192"/>
<text text-anchor="start" x="1172.944" y="-178" font-family="arial" font-weight="bold" font-size="10.00" fill="#000000">BCL as CM</text>
<text text-anchor="start" x="1108.2025" y="-161" font-family="arial" font-size="10.00" fill="#000000">The black Culm Limestone is nothing but</text>
<text text-anchor="start" x="1105.702" y="-149" font-family="arial" font-size="10.00" fill="#000000"> Coal Mesaures in age #COA #chron&#45;hyp </text>
</g>
<!-- n16&#45;&gt;n9 -->
<g id="edge38" class="edge">
<title>n16&#45;&gt;n9</title>
<path fill="none" stroke="#00ff00" d="M1212.2877,-192.1736C1251.6904,-266.8842 1359,-488.4828 1359,-686 1359,-820 1359,-820 1359,-820 1359,-917.6046 1310.1901,-1024.6744 1281.8181,-1078.6668"/>
<polygon fill="#00ff00" stroke="#00ff00" points="1278.5622,-1077.3341 1276.9437,-1087.8045 1284.7384,-1080.6287 1278.5622,-1077.3341"/>
</g>
<!-- n16&#45;&gt;n10 -->
<g id="edge39" class="edge">
<title>n16&#45;&gt;n10</title>
<path fill="none" stroke="#ff0000" d="M1166.1889,-139.7028C1143.1416,-120.6504 1111.8404,-94.7747 1087.2404,-74.4387"/>
<polygon fill="#ff0000" stroke="#ff0000" points="1089.4452,-71.7203 1079.5078,-68.0464 1084.9852,-77.1155 1089.4452,-71.7203"/>
</g>
<!-- n16&#45;&gt;n11 -->
<g id="edge40" class="edge">
<title>n16&#45;&gt;n11</title>
<path fill="none" stroke="#ff0000" d="M1211.5728,-139.7028C1220.9489,-121.5366 1233.5267,-97.167 1243.775,-77.311"/>
<polygon fill="#ff0000" stroke="#ff0000" points="1246.9705,-78.7508 1248.4468,-68.2593 1240.7502,-75.5403 1246.9705,-78.7508"/>
</g>
<!-- n16&#45;&gt;n12 -->
<g id="edge41" class="edge">
<title>n16&#45;&gt;n12</title>
<path fill="none" stroke="#ff0000" d="M1206.3096,-192.25C1217.4987,-232.2335 1233.4618,-310.1082 1210,-370.4 1205.1219,-382.9357 1196.7129,-394.5587 1187.6342,-404.5064"/>
<polygon fill="#ff0000" stroke="#ff0000" points="1185.0423,-402.1518 1180.6085,-411.7743 1190.0752,-407.017 1185.0423,-402.1518"/>
</g>
<!-- n16&#45;&gt;n13 -->
<g id="edge42" class="edge">
<title>n16&#45;&gt;n13</title>
<path fill="none" stroke="#ff0000" d="M1201.4827,-192.2265C1207.374,-241.1739 1216.6764,-343.885 1195,-370.4 1150.6605,-424.6371 1084.9403,-349.439 1041,-404 1019.5348,-430.6535 1031.6204,-679.0882 1041,-712 1048.6199,-738.7373 1064.9696,-765.3179 1079.6098,-785.419"/>
<polygon fill="#ff0000" stroke="#ff0000" points="1076.9539,-787.7114 1085.7491,-793.6186 1082.5573,-783.516 1076.9539,-787.7114"/>
</g>
<!-- n30&#45;&gt;n13 -->
<g id="edge65" class="edge">
<title>n30&#45;&gt;n13</title>
<path fill="none" stroke="#00ff00" d="M1100.6274,-927.6402C1102.1392,-905.568 1104.0277,-877.9956 1105.5149,-856.2826"/>
<polygon fill="#00ff00" stroke="#00ff00" points="1109.0177,-856.3598 1106.2093,-846.144 1102.0341,-855.8814 1109.0177,-856.3598"/>
</g>
<!-- n31&#45;&gt;n15 -->
<g id="edge66" class="edge">
<title>n31&#45;&gt;n15</title>
<path fill="none" stroke="#00ff00" d="M1155.5612,-667.9693C1163.2511,-649.6319 1175.3747,-620.7219 1185.0175,-597.7275"/>
<polygon fill="#00ff00" stroke="#00ff00" points="1188.3385,-598.8585 1188.9781,-588.283 1181.8831,-596.1514 1188.3385,-598.8585"/>
</g>
<!-- n32&#45;&gt;n16 -->
<g id="edge67" class="edge">
<title>n32&#45;&gt;n16</title>
<path fill="none" stroke="#00ff00" d="M1102.6072,-283.9403C1119.873,-262.5934 1148.9751,-226.6126 1170.505,-199.9939"/>
<polygon fill="#00ff00" stroke="#00ff00" points="1173.3546,-202.0362 1176.9221,-192.06 1167.912,-197.6341 1173.3546,-202.0362"/>
</g>
<!-- n17 -->
<g id="node24" class="node">
<title>n17</title>
<path fill="#ffffff" stroke="#f5f5dc" stroke-width="2" d="M1895,-1140C1895,-1140 1723,-1140 1723,-1140 1717,-1140 1711,-1134 1711,-1128 1711,-1128 1711,-1100 1711,-1100 1711,-1094 1717,-1088 1723,-1088 1723,-1088 1895,-1088 1895,-1088 1901,-1088 1907,-1094 1907,-1100 1907,-1100 1907,-1128 1907,-1128 1907,-1134 1901,-1140 1895,-1140"/>
<text text-anchor="start" x="1756.224" y="-1126" font-family="arial" font-weight="bold" font-size="10.00" fill="#000000">Some Non&#45;Culm as CM</text>
<text text-anchor="start" x="1720.933" y="-1109" font-family="arial" font-size="10.00" fill="#000000">Some part of the non&#45;Culm strata is CM</text>
<text text-anchor="start" x="1757.8755" y="-1097" font-family="arial" font-size="10.00" fill="#000000"> in age #pri #chron&#45;hyp</text>
</g>
<!-- n33 -->
<g id="node31" class="node">
<title>n33</title>
<path fill="#f5f5dc" stroke="#000000" d="M1721,-1002C1721,-1002 1549,-1002 1549,-1002 1543,-1002 1537,-996 1537,-990 1537,-990 1537,-942 1537,-942 1537,-936 1543,-930 1549,-930 1549,-930 1721,-930 1721,-930 1727,-930 1733,-936 1733,-942 1733,-942 1733,-990 1733,-990 1733,-996 1727,-1002 1721,-1002"/>
<text text-anchor="start" x="1561.365" y="-988" font-family="arial" font-weight="bold" font-size="10.00" fill="#000000">Standard Sequence as Partition &#45;</text>
<text text-anchor="start" x="1611.1145" y="-978" font-family="arial" font-weight="bold" font-size="10.00" fill="#000000"> Non&#45;Culm</text>
<text text-anchor="start" x="1552.7625" y="-963" font-family="arial" font-size="10.00" fill="#000000">If some part of the non&#45;Culm strata is</text>
<text text-anchor="start" x="1546.9245" y="-951" font-family="arial" font-size="10.00" fill="#000000"> neiter CM, ML, OR nor SIL in age, then</text>
<text text-anchor="start" x="1562.49" y="-939" font-family="arial" font-size="10.00" fill="#000000"> it is CAM in age #pri #chron&#45;hyp</text>
</g>
<!-- n17&#45;&gt;n33 -->
<g id="edge47" class="edge">
<title>n17&#45;&gt;n33</title>
<path fill="none" stroke="#ff0000" d="M1778.2928,-1087.8813C1752.5893,-1066.0185 1715.3974,-1034.384 1685.3459,-1008.823"/>
<polygon fill="#ff0000" stroke="#ff0000" points="1687.3588,-1005.9402 1677.4739,-1002.1272 1682.8235,-1011.2723 1687.3588,-1005.9402"/>
</g>
<!-- n34 -->
<g id="node32" class="node">
<title>n34</title>
<path fill="#b8860b" stroke="#000000" d="M1765,-704C1765,-704 1593,-704 1593,-704 1587,-704 1581,-698 1581,-692 1581,-692 1581,-680 1581,-680 1581,-674 1587,-668 1593,-668 1593,-668 1765,-668 1765,-668 1771,-668 1777,-674 1777,-680 1777,-680 1777,-692 1777,-692 1777,-698 1771,-704 1765,-704"/>
<text text-anchor="start" x="1614.273" y="-684" font-family="arial" font-weight="bold" font-size="10.00" fill="#000000">Dating the Non&#45;Culm&#45; GRE.1</text>
</g>
<!-- n17&#45;&gt;n34 -->
<g id="edge56" class="edge">
<title>n17&#45;&gt;n34</title>
<path fill="none" stroke="#ff0000" d="M1809.9478,-1087.7375C1812.0185,-1019.3393 1814.8719,-837.3165 1789,-784 1773.8177,-752.7125 1743.7322,-727.0149 1718.8575,-709.7953"/>
<polygon fill="#ff0000" stroke="#ff0000" points="1720.564,-706.7256 1710.3092,-704.0628 1716.6653,-712.5394 1720.564,-706.7256"/>
</g>
<!-- n18 -->
<g id="node25" class="node">
<title>n18</title>
<path fill="#ffffff" stroke="#f5f5dc" stroke-width="2" d="M1782,-464C1782,-464 1610,-464 1610,-464 1604,-464 1598,-458 1598,-452 1598,-452 1598,-424 1598,-424 1598,-418 1604,-412 1610,-412 1610,-412 1782,-412 1782,-412 1788,-412 1794,-418 1794,-424 1794,-424 1794,-452 1794,-452 1794,-458 1788,-464 1782,-464"/>
<text text-anchor="start" x="1644.054" y="-450" font-family="arial" font-weight="bold" font-size="10.00" fill="#000000">Some Non&#45;Culm as ML</text>
<text text-anchor="start" x="1608.763" y="-433" font-family="arial" font-size="10.00" fill="#000000">Some part of the non&#45;Culm strata is ML</text>
<text text-anchor="start" x="1644.8755" y="-421" font-family="arial" font-size="10.00" fill="#000000"> in age #pri #chron&#45;hyp</text>
</g>
<!-- n18&#45;&gt;n33 -->
<g id="edge48" class="edge">
<title>n18&#45;&gt;n33</title>
<path fill="none" stroke="#ff0000" d="M1675.7314,-464.1515C1646.33,-503.8607 1593.0658,-582.9219 1572,-660 1565.7007,-683.0487 1562.5722,-832.7937 1569,-856 1575.3926,-879.0793 1588.0597,-902.178 1600.6023,-921.2078"/>
<polygon fill="#ff0000" stroke="#ff0000" points="1597.8209,-923.3423 1606.3333,-929.6502 1603.6125,-919.4107 1597.8209,-923.3423"/>
</g>
<!-- n18&#45;&gt;n34 -->
<g id="edge57" class="edge">
<title>n18&#45;&gt;n34</title>
<path fill="none" stroke="#ff0000" d="M1688.4207,-464.3521C1683.1989,-483.929 1676.7284,-511.3898 1674,-536 1669.3205,-578.2088 1672.6262,-627.4725 1675.6461,-657.6993"/>
<polygon fill="#ff0000" stroke="#ff0000" points="1672.1954,-658.3507 1676.7304,-667.9258 1679.1564,-657.6125 1672.1954,-658.3507"/>
</g>
<!-- n19 -->
<g id="node26" class="node">
<title>n19</title>
<path fill="#ffffff" stroke="#f5f5dc" stroke-width="2" d="M2002,-464C2002,-464 1824,-464 1824,-464 1818,-464 1812,-458 1812,-452 1812,-452 1812,-424 1812,-424 1812,-418 1818,-412 1824,-412 1824,-412 2002,-412 2002,-412 2008,-412 2014,-418 2014,-424 2014,-424 2014,-452 2014,-452 2014,-458 2008,-464 2002,-464"/>
<text text-anchor="start" x="1857.1645" y="-450" font-family="arial" font-weight="bold" font-size="10.00" fill="#000000">Some Non&#45;Culm as ORS</text>
<text text-anchor="start" x="1821.8735" y="-433" font-family="arial" font-size="10.00" fill="#000000">Some part of the non&#45;Culm strata is ORS</text>
<text text-anchor="start" x="1861.8755" y="-421" font-family="arial" font-size="10.00" fill="#000000"> in age #pri #chron&#45;hyp</text>
</g>
<!-- n19&#45;&gt;n33 -->
<g id="edge49" class="edge">
<title>n19&#45;&gt;n33</title>
<path fill="none" stroke="#ff0000" d="M1913.881,-464.14C1914.3006,-494.3848 1913.1526,-545.4786 1903,-588 1872.9393,-713.9004 1870.0244,-755.0564 1789,-856 1767.3792,-882.9361 1737.5465,-906.299 1709.8921,-924.4812"/>
<polygon fill="#ff0000" stroke="#ff0000" points="1707.9035,-921.5988 1701.3911,-929.9559 1711.6936,-927.484 1707.9035,-921.5988"/>
</g>
<!-- n19&#45;&gt;n34 -->
<g id="edge58" class="edge">
<title>n19&#45;&gt;n34</title>
<path fill="none" stroke="#ff0000" d="M1830.4998,-464.0134C1774.0605,-483.5949 1706.4177,-511.2101 1689,-536 1675.7191,-554.9021 1676.024,-619.3894 1677.4761,-657.3784"/>
<polygon fill="#ff0000" stroke="#ff0000" points="1673.9973,-657.9456 1677.9277,-667.7844 1680.9908,-657.6421 1673.9973,-657.9456"/>
</g>
<!-- n20 -->
<g id="node27" class="node">
<title>n20</title>
<path fill="#ffffff" stroke="#f5f5dc" stroke-width="2" d="M1568,-464C1568,-464 1396,-464 1396,-464 1390,-464 1384,-458 1384,-452 1384,-452 1384,-424 1384,-424 1384,-418 1390,-412 1396,-412 1396,-412 1568,-412 1568,-412 1574,-412 1580,-418 1580,-424 1580,-424 1580,-452 1580,-452 1580,-458 1574,-464 1568,-464"/>
<text text-anchor="start" x="1429.4945" y="-450" font-family="arial" font-weight="bold" font-size="10.00" fill="#000000">Some Non&#45;Culm as SIL</text>
<text text-anchor="start" x="1394.2035" y="-433" font-family="arial" font-size="10.00" fill="#000000">Some part of the non&#45;Culm strata is SIL</text>
<text text-anchor="start" x="1430.8755" y="-421" font-family="arial" font-size="10.00" fill="#000000"> in age #pri #chron&#45;hyp</text>
</g>
<!-- n20&#45;&gt;n33 -->
<g id="edge50" class="edge">
<title>n20&#45;&gt;n33</title>
<path fill="none" stroke="#ff0000" d="M1483.3119,-464.4826C1487.4353,-532.1515 1503.5106,-715.9385 1561,-856 1570.5164,-879.1848 1585.3249,-902.5472 1599.2021,-921.7417"/>
<polygon fill="#ff0000" stroke="#ff0000" points="1596.5258,-924.0095 1605.2815,-929.9752 1602.1571,-919.8515 1596.5258,-924.0095"/>
</g>
<!-- n20&#45;&gt;n34 -->
<g id="edge59" class="edge">
<title>n20&#45;&gt;n34</title>
<path fill="none" stroke="#ff0000" d="M1502.864,-464.2653C1540.7271,-511.9305 1620.3284,-612.1393 1658.168,-659.775"/>
<polygon fill="#ff0000" stroke="#ff0000" points="1655.5535,-662.1107 1664.5141,-667.764 1661.0347,-657.7567 1655.5535,-662.1107"/>
</g>
<!-- n21 -->
<g id="node28" class="node">
<title>n21</title>
<path fill="#ffffff" stroke="#f5f5dc" stroke-width="2" d="M1768,-846C1768,-846 1590,-846 1590,-846 1584,-846 1578,-840 1578,-834 1578,-834 1578,-806 1578,-806 1578,-800 1584,-794 1590,-794 1590,-794 1768,-794 1768,-794 1774,-794 1780,-800 1780,-806 1780,-806 1780,-834 1780,-834 1780,-840 1774,-846 1768,-846"/>
<text text-anchor="start" x="1622.8895" y="-832" font-family="arial" font-weight="bold" font-size="10.00" fill="#000000">Some Non&#45;Culm as CAM</text>
<text text-anchor="start" x="1587.5985" y="-815" font-family="arial" font-size="10.00" fill="#000000">Some part of the non&#45;Culm strata is CAM</text>
<text text-anchor="start" x="1627.8755" y="-803" font-family="arial" font-size="10.00" fill="#000000"> in age #pri #chron&#45;hyp</text>
</g>
<!-- n21&#45;&gt;n34 -->
<g id="edge76" class="edge">
<title>n21&#45;&gt;n34</title>
<path fill="none" stroke="#00ff00" d="M1679,-793.8453C1679,-770.9923 1679,-737.887 1679,-714.3941"/>
<polygon fill="#00ff00" stroke="#00ff00" points="1682.5001,-714.3478 1679,-704.3479 1675.5001,-714.3479 1682.5001,-714.3478"/>
</g>
<!-- n22 -->
<g id="node29" class="node">
<title>n22</title>
<path fill="#ffffff" stroke="#f5f5dc" stroke-width="2" d="M1680.5,-1146C1680.5,-1146 1503.5,-1146 1503.5,-1146 1497.5,-1146 1491.5,-1140 1491.5,-1134 1491.5,-1134 1491.5,-1094 1491.5,-1094 1491.5,-1088 1497.5,-1082 1503.5,-1082 1503.5,-1082 1680.5,-1082 1680.5,-1082 1686.5,-1082 1692.5,-1088 1692.5,-1094 1692.5,-1094 1692.5,-1134 1692.5,-1134 1692.5,-1140 1686.5,-1146 1680.5,-1146"/>
<text text-anchor="start" x="1501.9465" y="-1132" font-family="arial" font-weight="bold" font-size="10.00" fill="#000000">Non&#45;Culm as Post&#45;Primary and Pre&#45;NRS</text>
<text text-anchor="start" x="1514.7065" y="-1115" font-family="arial" font-size="10.00" fill="#000000">The non&#45;Culm strata are older than</text>
<text text-anchor="start" x="1508.3165" y="-1103" font-family="arial" font-size="10.00" fill="#000000"> Primary strata and younger than New</text>
<text text-anchor="start" x="1506.6415" y="-1091" font-family="arial" font-size="10.00" fill="#000000"> Red Sandstone strata #pri #chron&#45;hyp</text>
</g>
<!-- n22&#45;&gt;n33 -->
<g id="edge77" class="edge">
<title>n22&#45;&gt;n33</title>
<path fill="none" stroke="#00ff00" d="M1601.3304,-1081.8862C1607.2689,-1061.4466 1615.0544,-1034.6499 1621.6429,-1011.9733"/>
<polygon fill="#00ff00" stroke="#00ff00" points="1625.0502,-1012.7902 1624.4793,-1002.2108 1618.3282,-1010.8372 1625.0502,-1012.7902"/>
</g>
<!-- n23 -->
<g id="node30" class="node">
<title>n23</title>
<path fill="#ffffff" stroke="#b8860b" stroke-width="2" d="M1882,-588C1882,-588 1710,-588 1710,-588 1704,-588 1698,-582 1698,-576 1698,-576 1698,-548 1698,-548 1698,-542 1704,-536 1710,-536 1710,-536 1882,-536 1882,-536 1888,-536 1894,-542 1894,-548 1894,-548 1894,-576 1894,-576 1894,-582 1888,-588 1882,-588"/>
<text text-anchor="start" x="1754.337" y="-574" font-family="arial" font-weight="bold" font-size="10.00" fill="#000000">Non&#45;Culm as CAM</text>
<text text-anchor="start" x="1719.316" y="-557" font-family="arial" font-size="10.00" fill="#000000">The non&#45;Culm strata is nothing but</text>
<text text-anchor="start" x="1715.1505" y="-545" font-family="arial" font-size="10.00" fill="#000000"> Cambrian in age #GRE #chron&#45;hyp </text>
</g>
<!-- n23&#45;&gt;n17 -->
<g id="edge51" class="edge">
<title>n23&#45;&gt;n17</title>
<path fill="none" stroke="#ff0000" d="M1798.2231,-588.1444C1803.7816,-656.4721 1817.5885,-846.0253 1814,-1004 1813.4429,-1028.5246 1812.188,-1056.101 1811.0749,-1077.508"/>
<polygon fill="#ff0000" stroke="#ff0000" points="1807.5644,-1077.613 1810.5269,-1087.7853 1814.5545,-1077.9858 1807.5644,-1077.613"/>
</g>
<!-- n23&#45;&gt;n18 -->
<g id="edge52" class="edge">
<title>n23&#45;&gt;n18</title>
<path fill="none" stroke="#ff0000" d="M1774.7926,-535.7028C1759.8772,-517.2078 1739.7764,-492.2828 1723.6107,-472.2373"/>
<polygon fill="#ff0000" stroke="#ff0000" points="1726.1789,-469.8463 1717.1769,-464.2593 1720.73,-474.2406 1726.1789,-469.8463"/>
</g>
<!-- n23&#45;&gt;n19 -->
<g id="edge53" class="edge">
<title>n23&#45;&gt;n19</title>
<path fill="none" stroke="#ff0000" d="M1820.8127,-535.7028C1838.4188,-517.0434 1862.2001,-491.8392 1881.1987,-471.7039"/>
<polygon fill="#ff0000" stroke="#ff0000" points="1883.9059,-473.9347 1888.2231,-464.2593 1878.8146,-469.1307 1883.9059,-473.9347"/>
</g>
<!-- n23&#45;&gt;n20 -->
<g id="edge54" class="edge">
<title>n23&#45;&gt;n20</title>
<path fill="none" stroke="#ff0000" d="M1729.7924,-535.8543C1679.3997,-515.954 1609.9935,-488.5452 1557.4532,-467.7968"/>
<polygon fill="#ff0000" stroke="#ff0000" points="1558.4341,-464.4212 1547.8475,-464.0035 1555.8629,-470.9319 1558.4341,-464.4212"/>
</g>
<!-- n23&#45;&gt;n21 -->
<g id="edge55" class="edge">
<title>n23&#45;&gt;n21</title>
<path fill="none" stroke="#00ff00" d="M1799.6028,-588.2657C1802.6827,-619.2998 1804.1327,-671.7914 1786,-712 1772.5085,-741.9169 1746.8807,-768.2503 1724.0885,-787.4236"/>
<polygon fill="#00ff00" stroke="#00ff00" points="1721.694,-784.8605 1716.1695,-793.901 1726.1259,-790.2789 1721.694,-784.8605"/>
</g>
<!-- n33&#45;&gt;n21 -->
<g id="edge68" class="edge">
<title>n33&#45;&gt;n21</title>
<path fill="none" stroke="#00ff00" d="M1645.8764,-929.9101C1652.6736,-907.3559 1661.3932,-878.4227 1668.1797,-855.9038"/>
<polygon fill="#00ff00" stroke="#00ff00" points="1671.6135,-856.6391 1671.148,-846.0545 1664.9112,-854.6192 1671.6135,-856.6391"/>
</g>
<!-- n34&#45;&gt;n23 -->
<g id="edge69" class="edge">
<title>n34&#45;&gt;n23</title>
<path fill="none" stroke="#00ff00" d="M1696.0128,-667.9693C1713.8558,-649.0588 1742.3076,-618.9047 1764.3066,-595.5896"/>
<polygon fill="#00ff00" stroke="#00ff00" points="1766.8836,-597.9584 1771.2007,-588.283 1761.7922,-593.1544 1766.8836,-597.9584"/>
</g>
<!-- n24 -->
<g id="node33" class="node">
<title>n24</title>
<path fill="#ffffff" stroke="#b8860b" stroke-width="2" d="M2440,-1146C2440,-1146 2268,-1146 2268,-1146 2262,-1146 2256,-1140 2256,-1134 2256,-1134 2256,-1094 2256,-1094 2256,-1088 2262,-1082 2268,-1082 2268,-1082 2440,-1082 2440,-1082 2446,-1082 2452,-1088 2452,-1094 2452,-1094 2452,-1134 2452,-1134 2452,-1140 2446,-1146 2440,-1146"/>
<text text-anchor="start" x="2305.944" y="-1132" font-family="arial" font-weight="bold" font-size="10.00" fill="#000000">Traversing Northward</text>
<text text-anchor="start" x="2274.5345" y="-1115" font-family="arial" font-size="10.00" fill="#000000">The strata south of Exmoor become</text>
<text text-anchor="start" x="2271.476" y="-1103" font-family="arial" font-size="10.00" fill="#000000"> progessively younger the furhter one</text>
<text text-anchor="start" x="2267.0405" y="-1091" font-family="arial" font-size="10.00" fill="#000000"> traverses northward #GRE #chron&#45;hyp</text>
</g>
<!-- n25 -->
<g id="node34" class="node">
<title>n25</title>
<path fill="#ffffff" stroke="#b8860b" stroke-width="2" d="M2226,-1152C2226,-1152 2050,-1152 2050,-1152 2044,-1152 2038,-1146 2038,-1140 2038,-1140 2038,-1088 2038,-1088 2038,-1082 2044,-1076 2050,-1076 2050,-1076 2226,-1076 2226,-1076 2232,-1076 2238,-1082 2238,-1088 2238,-1088 2238,-1140 2238,-1140 2238,-1146 2232,-1152 2226,-1152"/>
<text text-anchor="start" x="2061.8685" y="-1138" font-family="arial" font-weight="bold" font-size="10.00" fill="#000000">Exmoor Youngest Devonian strata</text>
<text text-anchor="start" x="2058.812" y="-1121" font-family="arial" font-size="10.00" fill="#000000">In Devon, among all the strata older</text>
<text text-anchor="start" x="2047.6885" y="-1109" font-family="arial" font-size="10.00" fill="#000000"> than the New Red Sandstone, the strata</text>
<text text-anchor="start" x="2060.1995" y="-1097" font-family="arial" font-size="10.00" fill="#000000"> of Exmoor are the youngest #GRE</text>
<text text-anchor="start" x="2111.6045" y="-1085" font-family="arial" font-size="10.00" fill="#000000"> #chron&#45;hyp</text>
</g>
<!-- n26 -->
<g id="node35" class="node">
<title>n26</title>
<path fill="#ffffff" stroke="#ff8c00" stroke-width="2" d="M2233.5,-998C2233.5,-998 2050.5,-998 2050.5,-998 2044.5,-998 2038.5,-992 2038.5,-986 2038.5,-986 2038.5,-946 2038.5,-946 2038.5,-940 2044.5,-934 2050.5,-934 2050.5,-934 2233.5,-934 2233.5,-934 2239.5,-934 2245.5,-940 2245.5,-946 2245.5,-946 2245.5,-986 2245.5,-986 2245.5,-992 2239.5,-998 2233.5,-998"/>
<text text-anchor="start" x="2071.0935" y="-984" font-family="arial" font-weight="bold" font-size="10.00" fill="#000000">Culm Youngest Devonian Strata</text>
<text text-anchor="start" x="2063.312" y="-967" font-family="arial" font-size="10.00" fill="#000000">In Devon, among all the strata older</text>
<text text-anchor="start" x="2053.028" y="-955" font-family="arial" font-size="10.00" fill="#000000"> than the New Red Sandstone, the Culm</text>
<text text-anchor="start" x="2048.5825" y="-943" font-family="arial" font-size="10.00" fill="#000000"> strata are the youngest #COA #chron&#45;hyp</text>
</g>
<!-- n25&#45;&gt;n26 -->
<g id="edge61" class="edge">
<title>n25&#45;&gt;n26</title>
<path fill="none" stroke="#ff0000" d="M2133.0419,-1075.8863C2132.6497,-1055.2775 2133.277,-1029.7689 2134.6761,-1008.5179"/>
<polygon fill="#ff0000" stroke="#ff0000" points="2138.1721,-1008.6999 2135.4238,-998.4678 2131.1914,-1008.1805 2138.1721,-1008.6999"/>
</g>
<!-- n26&#45;&gt;n25 -->
<g id="edge60" class="edge">
<title>n26&#45;&gt;n25</title>
<path fill="none" stroke="#ff0000" d="M2146.8212,-998.4678C2147.4088,-1018.1693 2146.9444,-1043.6793 2145.6789,-1065.7151"/>
<polygon fill="#ff0000" stroke="#ff0000" points="2142.1738,-1065.6805 2145.0183,-1075.8863 2149.1591,-1066.1342 2142.1738,-1065.6805"/>
</g>
</g>
</svg>
