
<!-- Generated by graphviz version 2.40.1 (20161225.0304)
 -->
<!-- Title: Argument Map Pages: 1 -->
<svg width="720pt" height="346pt"
 viewBox="0.00 0.00 720.00 346.42" xmlns="http://www.w3.org/2000/svg" xmlns:xlink="http://www.w3.org/1999/xlink">
<g id="graph0" class="graph" transform="scale(.2891 .2891) rotate(0) translate(4 1194.4)">
<title>Argument Map</title>
<g id="clust1" class="cluster">
<title>cluster_1</title>
<polygon fill="#b9d3ee" stroke="#b9d3ee" points="724.7866,-268 724.7866,-382.4 1154.7866,-382.4 1154.7866,-268 724.7866,-268"/>
<text text-anchor="start" x="856.0998" y="-367.6" font-family="arial" font-size="12.00" fill="#000000">Aporia I : Coal in Ancient Strata</text>
</g>
<g id="clust5" class="cluster">
<title>cluster_5</title>
<polygon fill="#8b6969" stroke="#8b6969" points="2036.7866,-932 2036.7866,-1182.4 2474.7866,-1182.4 2474.7866,-932 2036.7866,-932"/>
<text text-anchor="start" x="2185.7618" y="-1167.6" font-family="arial" font-size="12.00" fill="#000000">Youngest Devonian Strata</text>
</g>
<g id="clust2" class="cluster">
<title>cluster_2</title>
<polygon fill="#eedfcc" stroke="#eedfcc" points="10.7866,-146 10.7866,-1176.4 716.7866,-1176.4 716.7866,-146 10.7866,-146"/>
<text text-anchor="start" x="299.4444" y="-1161.6" font-family="arial" font-size="12.00" fill="#000000">Dating of the Main Culm</text>
</g>
<g id="clust3" class="cluster">
<title>cluster_3</title>
<polygon fill="#eeb4b4" stroke="#eeb4b4" points="1162.7866,-8 1162.7866,-1182.4 1588.7866,-1182.4 1588.7866,-8 1162.7866,-8"/>
<text text-anchor="start" x="1296.7708" y="-1167.6" font-family="arial" font-size="12.00" fill="#000000">Dating of the Culm Limestone</text>
</g>
<g id="clust4" class="cluster">
<title>cluster_4</title>
<polygon fill="#cd9b9b" stroke="#cd9b9b" points="1596.7866,-8 1596.7866,-1182.4 2028.7866,-1182.4 2028.7866,-8 1596.7866,-8"/>
<text text-anchor="start" x="1750.1118" y="-1167.6" font-family="arial" font-size="12.00" fill="#000000">Dating of the Non&#45;Culm</text>
</g>
<!-- n0 -->
<g id="node1" class="node">
<title>n0</title>
<path fill="#ffffff" stroke="#b8860b" stroke-width="2" d="M1134.7866,-352C1134.7866,-352 962.7866,-352 962.7866,-352 956.7866,-352 950.7866,-346 950.7866,-340 950.7866,-340 950.7866,-288 950.7866,-288 950.7866,-282 956.7866,-276 962.7866,-276 962.7866,-276 1134.7866,-276 1134.7866,-276 1140.7866,-276 1146.7866,-282 1146.7866,-288 1146.7866,-288 1146.7866,-340 1146.7866,-340 1146.7866,-346 1140.7866,-352 1134.7866,-352"/>
<text text-anchor="start" x="985.4386" y="-338" font-family="arial" font-weight="bold" font-size="10.00" fill="#000000">Instances of Pre&#45;ORS Strata</text>
<text text-anchor="start" x="967.1081" y="-321" font-family="arial" font-size="10.00" fill="#000000">In Munster, North America and North</text>
<text text-anchor="start" x="962.1011" y="-309" font-family="arial" font-size="10.00" fill="#000000"> Devon, some strata closely associated</text>
<text text-anchor="start" x="961.5491" y="-297" font-family="arial" font-size="10.00" fill="#000000"> with seams of coal are pre&#45;ORS in age</text>
<text text-anchor="start" x="1007.3886" y="-285" font-family="arial" font-size="10.00" fill="#000000"> #GRE #chron&#45;hyp</text>
</g>
<!-- n2 -->
<g id="node2" class="node">
<title>n2</title>
<path fill="#ffffff" stroke="#b8860b" stroke-width="2" d="M920.7866,-346C920.7866,-346 744.7866,-346 744.7866,-346 738.7866,-346 732.7866,-340 732.7866,-334 732.7866,-334 732.7866,-294 732.7866,-294 732.7866,-288 738.7866,-282 744.7866,-282 744.7866,-282 920.7866,-282 920.7866,-282 926.7866,-282 932.7866,-288 932.7866,-294 932.7866,-294 932.7866,-334 932.7866,-334 932.7866,-340 926.7866,-346 920.7866,-346"/>
<text text-anchor="start" x="752.4976" y="-332" font-family="arial" font-weight="bold" font-size="10.00" fill="#000000">Pre&#45;ORS Strata in northwest France</text>
<text text-anchor="start" x="744.4331" y="-315" font-family="arial" font-size="10.00" fill="#000000">The whole strata supporting coal seams</text>
<text text-anchor="start" x="742.7701" y="-303" font-family="arial" font-size="10.00" fill="#000000"> in northwest France are pre&#45;ORS in age</text>
<text text-anchor="start" x="791.3886" y="-291" font-family="arial" font-size="10.00" fill="#000000"> #GRE #chron&#45;hyp</text>
</g>
<!-- n1 -->
<g id="node3" class="node">
<title>n1</title>
<path fill="#ffffff" stroke="#b8860b" stroke-width="2" d="M633.7866,-1146C633.7866,-1146 461.7866,-1146 461.7866,-1146 455.7866,-1146 449.7866,-1140 449.7866,-1134 449.7866,-1134 449.7866,-1106 449.7866,-1106 449.7866,-1100 455.7866,-1094 461.7866,-1094 461.7866,-1094 633.7866,-1094 633.7866,-1094 639.7866,-1094 645.7866,-1100 645.7866,-1106 645.7866,-1106 645.7866,-1134 645.7866,-1134 645.7866,-1140 639.7866,-1146 633.7866,-1146"/>
<text text-anchor="start" x="504.7341" y="-1132" font-family="arial" font-weight="bold" font-size="10.00" fill="#000000">Main Culm as CAM</text>
<text text-anchor="start" x="462.7791" y="-1115" font-family="arial" font-size="10.00" fill="#000000">The whole of the main Culm is CAM in</text>
<text text-anchor="start" x="495.2711" y="-1103" font-family="arial" font-size="10.00" fill="#000000"> age #GRE #chron&#45;hyp </text>
</g>
<!-- n1&#45;&gt;n0 -->
<g id="edge1" class="edge">
<title>n1&#45;&gt;n0</title>
<path fill="none" stroke="#00ff00" d="M615.6884,-1093.9797C650.4249,-1077.0826 690.071,-1051.5139 712.7866,-1016 757.2242,-946.5257 736.7866,-914.4705 736.7866,-832 736.7866,-832 736.7866,-832 736.7866,-574 736.7866,-541.8212 895.4378,-423.3259 986.475,-357.9797"/>
<polygon fill="#00ff00" stroke="#00ff00" points="988.7048,-360.6878 994.7965,-352.0193 984.6287,-354.997 988.7048,-360.6878"/>
</g>
<!-- n3 -->
<g id="node4" class="node">
<title>n3</title>
<path fill="#ffffff" stroke="#f5f5dc" stroke-width="2" d="M636.7866,-1004C636.7866,-1004 458.7866,-1004 458.7866,-1004 452.7866,-1004 446.7866,-998 446.7866,-992 446.7866,-992 446.7866,-964 446.7866,-964 446.7866,-958 452.7866,-952 458.7866,-952 458.7866,-952 636.7866,-952 636.7866,-952 642.7866,-952 648.7866,-958 648.7866,-964 648.7866,-964 648.7866,-992 648.7866,-992 648.7866,-998 642.7866,-1004 636.7866,-1004"/>
<text text-anchor="start" x="493.6211" y="-990" font-family="arial" font-weight="bold" font-size="10.00" fill="#000000">Some Main Culm as CM</text>
<text text-anchor="start" x="456.3856" y="-973" font-family="arial" font-size="10.00" fill="#000000">Some part of the main Culm is CM in age</text>
<text text-anchor="start" x="511.6686" y="-961" font-family="arial" font-size="10.00" fill="#000000"> #pri #chron&#45;hyp</text>
</g>
<!-- n1&#45;&gt;n3 -->
<g id="edge6" class="edge">
<title>n1&#45;&gt;n3</title>
<path fill="none" stroke="#ff0000" d="M547.7866,-1083.8438C547.7866,-1062.6384 547.7866,-1035.9193 547.7866,-1014.6322"/>
<polygon fill="#ff0000" stroke="#ff0000" points="544.2867,-1083.955 547.7866,-1093.955 551.2867,-1083.955 544.2867,-1083.955"/>
<polygon fill="#ff0000" stroke="#ff0000" points="551.2867,-1014.3607 547.7866,-1004.3608 544.2867,-1014.3608 551.2867,-1014.3607"/>
</g>
<!-- n4 -->
<g id="node5" class="node">
<title>n4</title>
<path fill="#ffffff" stroke="#f5f5dc" stroke-width="2" d="M228.2866,-340C228.2866,-340 51.2866,-340 51.2866,-340 45.2866,-340 39.2866,-334 39.2866,-328 39.2866,-328 39.2866,-300 39.2866,-300 39.2866,-294 45.2866,-288 51.2866,-288 51.2866,-288 228.2866,-288 228.2866,-288 234.2866,-288 240.2866,-294 240.2866,-300 240.2866,-300 240.2866,-328 240.2866,-328 240.2866,-334 234.2866,-340 228.2866,-340"/>
<text text-anchor="start" x="86.9511" y="-326" font-family="arial" font-weight="bold" font-size="10.00" fill="#000000">Some Main Culm as ML</text>
<text text-anchor="start" x="49.7156" y="-309" font-family="arial" font-size="10.00" fill="#000000">Some part of the main Culm is ML in age</text>
<text text-anchor="start" x="104.1686" y="-297" font-family="arial" font-size="10.00" fill="#000000"> #pri #chron&#45;hyp</text>
</g>
<!-- n1&#45;&gt;n4 -->
<g id="edge7" class="edge">
<title>n1&#45;&gt;n4</title>
<path fill="none" stroke="#ff0000" d="M439.7387,-1102.7868C341.3212,-1084.9773 205.7248,-1054.3947 167.7866,-1016 108.3842,-955.8829 119.7866,-916.5146 119.7866,-832 119.7866,-832 119.7866,-832 119.7866,-574 119.7866,-493.9062 129.3384,-400.3414 135.2399,-350.1765"/>
<polygon fill="#ff0000" stroke="#ff0000" points="439.2816,-1106.2605 449.7417,-1104.5763 440.5144,-1099.3699 439.2816,-1106.2605"/>
<polygon fill="#ff0000" stroke="#ff0000" points="138.7265,-350.496 136.4391,-340.1511 131.7761,-349.6646 138.7265,-350.496"/>
</g>
<!-- n5 -->
<g id="node6" class="node">
<title>n5</title>
<path fill="#ffffff" stroke="#f5f5dc" stroke-width="2" d="M656.7866,-340C656.7866,-340 484.7866,-340 484.7866,-340 478.7866,-340 472.7866,-334 472.7866,-328 472.7866,-328 472.7866,-300 472.7866,-300 472.7866,-294 478.7866,-288 484.7866,-288 484.7866,-288 656.7866,-288 656.7866,-288 662.7866,-288 668.7866,-294 668.7866,-300 668.7866,-300 668.7866,-328 668.7866,-328 668.7866,-334 662.7866,-340 656.7866,-340"/>
<text text-anchor="start" x="513.5616" y="-326" font-family="arial" font-weight="bold" font-size="10.00" fill="#000000">Some Main Culm as ORS</text>
<text text-anchor="start" x="486.0541" y="-309" font-family="arial" font-size="10.00" fill="#000000">Some part of the main Culm is ORS in</text>
<text text-anchor="start" x="524.9406" y="-297" font-family="arial" font-size="10.00" fill="#000000"> age #pri #chron&#45;hyp</text>
</g>
<!-- n1&#45;&gt;n5 -->
<g id="edge8" class="edge">
<title>n1&#45;&gt;n5</title>
<path fill="none" stroke="#ff0000" d="M596.2769,-1087.7035C619.2126,-1069.5683 644.4448,-1044.7972 657.7866,-1016 692.2149,-941.6895 667.7866,-913.8985 667.7866,-832 667.7866,-832 667.7866,-832 667.7866,-574 667.7866,-488.9095 621.6168,-397.4747 592.9833,-348.9507"/>
<polygon fill="#ff0000" stroke="#ff0000" points="594.0862,-1084.9728 588.2832,-1093.8372 598.3475,-1090.5263 594.0862,-1084.9728"/>
<polygon fill="#ff0000" stroke="#ff0000" points="595.8291,-346.8907 587.6827,-340.1166 589.8267,-350.4923 595.8291,-346.8907"/>
</g>
<!-- n6 -->
<g id="node7" class="node">
<title>n6</title>
<path fill="#ffffff" stroke="#f5f5dc" stroke-width="2" d="M442.7866,-340C442.7866,-340 270.7866,-340 270.7866,-340 264.7866,-340 258.7866,-334 258.7866,-328 258.7866,-328 258.7866,-300 258.7866,-300 258.7866,-294 264.7866,-288 270.7866,-288 270.7866,-288 442.7866,-288 442.7866,-288 448.7866,-288 454.7866,-294 454.7866,-300 454.7866,-300 454.7866,-328 454.7866,-328 454.7866,-334 448.7866,-340 442.7866,-340"/>
<text text-anchor="start" x="302.8916" y="-326" font-family="arial" font-weight="bold" font-size="10.00" fill="#000000">Some Main Culm as SIL</text>
<text text-anchor="start" x="275.3841" y="-309" font-family="arial" font-size="10.00" fill="#000000">Some part of the main Culm is SIL in</text>
<text text-anchor="start" x="310.9406" y="-297" font-family="arial" font-size="10.00" fill="#000000"> age #pri #chron&#45;hyp</text>
</g>
<!-- n1&#45;&gt;n6 -->
<g id="edge9" class="edge">
<title>n1&#45;&gt;n6</title>
<path fill="none" stroke="#ff0000" d="M439.659,-1102.001C348.1043,-1084.3555 227.0417,-1054.5193 196.7866,-1016 146.2125,-951.6116 187.7866,-913.8755 187.7866,-832 187.7866,-832 187.7866,-832 187.7866,-574 187.7866,-479.7156 266.8785,-392.7522 316.848,-347.2181"/>
<polygon fill="#ff0000" stroke="#ff0000" points="439.0658,-1105.4509 449.5437,-1103.8812 440.3738,-1098.5741 439.0658,-1105.4509"/>
<polygon fill="#ff0000" stroke="#ff0000" points="319.4892,-349.5511 324.6012,-340.2711 314.8179,-344.3377 319.4892,-349.5511"/>
</g>
<!-- n7 -->
<g id="node8" class="node">
<title>n7</title>
<path fill="#ffffff" stroke="#f5f5dc" stroke-width="2" d="M471.7866,-724C471.7866,-724 299.7866,-724 299.7866,-724 293.7866,-724 287.7866,-718 287.7866,-712 287.7866,-712 287.7866,-684 287.7866,-684 287.7866,-678 293.7866,-672 299.7866,-672 299.7866,-672 471.7866,-672 471.7866,-672 477.7866,-672 483.7866,-678 483.7866,-684 483.7866,-684 483.7866,-712 483.7866,-712 483.7866,-718 477.7866,-724 471.7866,-724"/>
<text text-anchor="start" x="328.2866" y="-710" font-family="arial" font-weight="bold" font-size="10.00" fill="#000000">Some Main Culm as CAM</text>
<text text-anchor="start" x="300.7791" y="-693" font-family="arial" font-size="10.00" fill="#000000">Some part of the main Culm is CAM in</text>
<text text-anchor="start" x="339.9406" y="-681" font-family="arial" font-size="10.00" fill="#000000"> age #pri #chron&#45;hyp</text>
</g>
<!-- n1&#45;&gt;n7 -->
<g id="edge10" class="edge">
<title>n1&#45;&gt;n7</title>
<path fill="none" stroke="#00ff00" d="M508.0023,-1093.8344C483.3153,-1075.2603 453.4139,-1047.9991 437.7866,-1016 416.2351,-971.8702 426.5804,-844.1247 416.7866,-796 412.5229,-775.0491 405.4599,-752.243 399.1518,-733.9074"/>
<polygon fill="#00ff00" stroke="#00ff00" points="402.3653,-732.4948 395.7475,-724.221 395.7613,-734.8158 402.3653,-732.4948"/>
</g>
<!-- n29 -->
<g id="node11" class="node">
<title>n29</title>
<path fill="#f5f5dc" stroke="#000000" d="M395.2866,-868C395.2866,-868 222.2866,-868 222.2866,-868 216.2866,-868 210.2866,-862 210.2866,-856 210.2866,-856 210.2866,-808 210.2866,-808 210.2866,-802 216.2866,-796 222.2866,-796 222.2866,-796 395.2866,-796 395.2866,-796 401.2866,-796 407.2866,-802 407.2866,-808 407.2866,-808 407.2866,-856 407.2866,-856 407.2866,-862 401.2866,-868 395.2866,-868"/>
<text text-anchor="start" x="223.4291" y="-854" font-family="arial" font-weight="bold" font-size="10.00" fill="#000000">Standard Sequence as Partition &#45; Main</text>
<text text-anchor="start" x="296.2341" y="-844" font-family="arial" font-weight="bold" font-size="10.00" fill="#000000"> Culm</text>
<text text-anchor="start" x="220.6701" y="-829" font-family="arial" font-size="10.00" fill="#000000">If some main Culm strata are neiter CM,</text>
<text text-anchor="start" x="224.2701" y="-817" font-family="arial" font-size="10.00" fill="#000000"> ML, OR nor SIL in age, then it is CAM</text>
<text text-anchor="start" x="258.1621" y="-805" font-family="arial" font-size="10.00" fill="#000000"> in age #pri #chron&#45;hyp</text>
</g>
<!-- n3&#45;&gt;n29 -->
<g id="edge2" class="edge">
<title>n3&#45;&gt;n29</title>
<path fill="none" stroke="#ff0000" d="M505.0582,-951.8981C469.3331,-930.0744 417.7332,-898.5532 376.4061,-873.3073"/>
<polygon fill="#ff0000" stroke="#ff0000" points="378.1109,-870.2474 367.7526,-868.0211 374.4618,-876.221 378.1109,-870.2474"/>
</g>
<!-- n30 -->
<g id="node12" class="node">
<title>n30</title>
<path fill="#b8860b" stroke="#000000" d="M549.7866,-190C549.7866,-190 377.7866,-190 377.7866,-190 371.7866,-190 365.7866,-184 365.7866,-178 365.7866,-178 365.7866,-166 365.7866,-166 365.7866,-160 371.7866,-154 377.7866,-154 377.7866,-154 549.7866,-154 549.7866,-154 555.7866,-154 561.7866,-160 561.7866,-166 561.7866,-166 561.7866,-178 561.7866,-178 561.7866,-184 555.7866,-190 549.7866,-190"/>
<text text-anchor="start" x="396.2806" y="-170" font-family="arial" font-weight="bold" font-size="10.00" fill="#000000">Dating the Main Culm &#45; GRE.1</text>
</g>
<!-- n3&#45;&gt;n30 -->
<g id="edge11" class="edge">
<title>n3&#45;&gt;n30</title>
<path fill="none" stroke="#ff0000" d="M557.3574,-951.8786C598.3711,-838.0029 753.8063,-385.4207 677.7866,-268 653.3041,-230.184 610.0155,-207.124 568.7476,-193.1287"/>
<polygon fill="#ff0000" stroke="#ff0000" points="569.7425,-189.7719 559.1505,-190.0205 567.5856,-196.4314 569.7425,-189.7719"/>
</g>
<!-- n31 -->
<g id="node13" class="node">
<title>n31</title>
<path fill="#ff8c00" stroke="#000000" d="M471.7866,-592C471.7866,-592 299.7866,-592 299.7866,-592 293.7866,-592 287.7866,-586 287.7866,-580 287.7866,-580 287.7866,-568 287.7866,-568 287.7866,-562 293.7866,-556 299.7866,-556 299.7866,-556 471.7866,-556 471.7866,-556 477.7866,-556 483.7866,-562 483.7866,-568 483.7866,-568 483.7866,-580 483.7866,-580 483.7866,-586 477.7866,-592 471.7866,-592"/>
<text text-anchor="start" x="312.7216" y="-572" font-family="arial" font-weight="bold" font-size="10.00" fill="#000000">Redating the Main Culm &#45; COA.1</text>
</g>
<!-- n3&#45;&gt;n31 -->
<g id="edge78" class="edge">
<title>n3&#45;&gt;n31</title>
<path fill="none" stroke="#00ff00" d="M545.238,-951.7C538.5987,-886.716 519.4185,-720.3401 492.7866,-672 476.0415,-641.6057 446.3341,-615.545 422.4638,-597.9551"/>
<polygon fill="#00ff00" stroke="#00ff00" points="424.46,-595.0798 414.2948,-592.0934 420.3791,-600.7671 424.46,-595.0798"/>
</g>
<!-- n4&#45;&gt;n29 -->
<g id="edge3" class="edge">
<title>n4&#45;&gt;n29</title>
<path fill="none" stroke="#ff0000" d="M146.1193,-340.2632C154.0261,-372.4475 168.2849,-428.5531 182.7866,-476 216.8859,-587.5666 229.4143,-614.1834 268.7866,-724 276.118,-744.4486 284.431,-766.9925 291.5719,-786.1703"/>
<polygon fill="#ff0000" stroke="#ff0000" points="288.3062,-787.4299 295.0806,-795.576 294.8647,-784.9833 288.3062,-787.4299"/>
</g>
<!-- n4&#45;&gt;n30 -->
<g id="edge12" class="edge">
<title>n4&#45;&gt;n30</title>
<path fill="none" stroke="#ff0000" d="M199.2132,-287.955C260.6473,-261.0302 355.5139,-219.4529 413.3949,-194.0853"/>
<polygon fill="#ff0000" stroke="#ff0000" points="414.9515,-197.2245 422.7056,-190.0047 412.1416,-190.8132 414.9515,-197.2245"/>
</g>
<!-- n4&#45;&gt;n31 -->
<g id="edge21" class="edge">
<title>n4&#45;&gt;n31</title>
<path fill="none" stroke="#ff0000" d="M164.5217,-340.1428C211.8024,-390.1142 314.4734,-498.6283 361.445,-548.2731"/>
<polygon fill="#ff0000" stroke="#ff0000" points="359.0732,-550.8588 368.4884,-555.7173 364.1579,-546.0479 359.0732,-550.8588"/>
</g>
<!-- n5&#45;&gt;n29 -->
<g id="edge4" class="edge">
<title>n5&#45;&gt;n29</title>
<path fill="none" stroke="#ff0000" d="M585.5579,-340.2637C601.6802,-372.2143 623.8225,-427.8554 612.7866,-476 585.4283,-595.352 575.8333,-634.0187 492.7866,-724 467.5274,-751.3684 433.7258,-773.8985 401.9885,-791.1691"/>
<polygon fill="#ff0000" stroke="#ff0000" points="400.2831,-788.1119 393.1005,-795.9004 403.5724,-794.2909 400.2831,-788.1119"/>
</g>
<!-- n5&#45;&gt;n30 -->
<g id="edge13" class="edge">
<title>n5&#45;&gt;n30</title>
<path fill="none" stroke="#ff0000" d="M551.1612,-287.955C531.9727,-262.49 502.9081,-223.9183 483.6415,-198.3495"/>
<polygon fill="#ff0000" stroke="#ff0000" points="486.3249,-196.0947 477.5116,-190.2145 480.7343,-200.3073 486.3249,-196.0947"/>
</g>
<!-- n5&#45;&gt;n31 -->
<g id="edge22" class="edge">
<title>n5&#45;&gt;n31</title>
<path fill="none" stroke="#ff0000" d="M530.8781,-340.0304C510.8562,-352.9569 486.1624,-368.7001 463.7866,-382.4 432.5955,-401.4973 411.7066,-392.701 392.7866,-424 380.8493,-443.7476 382.0742,-507.911 383.966,-545.6198"/>
<polygon fill="#ff0000" stroke="#ff0000" points="380.4899,-546.1525 384.5337,-555.9453 387.4793,-545.7682 380.4899,-546.1525"/>
</g>
<!-- n6&#45;&gt;n29 -->
<g id="edge5" class="edge">
<title>n6&#45;&gt;n29</title>
<path fill="none" stroke="#ff0000" d="M344.8935,-340.3138C326.3702,-382.8941 291.4422,-470.0127 278.7866,-548 266.2568,-625.2122 268.222,-646.4945 278.7866,-724 281.6066,-744.6886 287.3328,-767.007 293.0337,-785.9548"/>
<polygon fill="#ff0000" stroke="#ff0000" points="289.6968,-787.0114 295.997,-795.5295 296.3838,-784.9417 289.6968,-787.0114"/>
</g>
<!-- n6&#45;&gt;n30 -->
<g id="edge14" class="edge">
<title>n6&#45;&gt;n30</title>
<path fill="none" stroke="#ff0000" d="M376.4121,-287.955C395.6005,-262.49 424.6651,-223.9183 443.9317,-198.3495"/>
<polygon fill="#ff0000" stroke="#ff0000" points="446.8389,-200.3073 450.0616,-190.2145 441.2483,-196.0947 446.8389,-200.3073"/>
</g>
<!-- n6&#45;&gt;n31 -->
<g id="edge23" class="edge">
<title>n6&#45;&gt;n31</title>
<path fill="none" stroke="#ff0000" d="M359.7025,-340.1428C365.1845,-389.2916 376.9831,-495.0717 382.6383,-545.7741"/>
<polygon fill="#ff0000" stroke="#ff0000" points="379.1604,-546.1669 383.7474,-555.7173 386.1172,-545.3909 379.1604,-546.1669"/>
</g>
<!-- n7&#45;&gt;n30 -->
<g id="edge79" class="edge">
<title>n7&#45;&gt;n30</title>
<path fill="none" stroke="#00ff00" d="M333.7574,-671.8032C207.7693,-605.0179 -94.4571,-422.7295 29.7866,-268 69.8864,-218.0609 240.4479,-192.5223 355.4296,-180.7371"/>
<polygon fill="#00ff00" stroke="#00ff00" points="356.0833,-184.1892 365.6835,-179.7073 355.3837,-177.2242 356.0833,-184.1892"/>
</g>
<!-- n7&#45;&gt;n31 -->
<g id="edge24" class="edge">
<title>n7&#45;&gt;n31</title>
<path fill="none" stroke="#ff0000" d="M385.7866,-671.7028C385.7866,-651.3616 385.7866,-623.2427 385.7866,-602.3916"/>
<polygon fill="#ff0000" stroke="#ff0000" points="389.2867,-602.23 385.7866,-592.23 382.2867,-602.23 389.2867,-602.23"/>
</g>
<!-- n8 -->
<g id="node9" class="node">
<title>n8</title>
<path fill="#ffffff" stroke="#f5f5dc" stroke-width="2" d="M397.2866,-1010C397.2866,-1010 218.2866,-1010 218.2866,-1010 212.2866,-1010 206.2866,-1004 206.2866,-998 206.2866,-998 206.2866,-958 206.2866,-958 206.2866,-952 212.2866,-946 218.2866,-946 218.2866,-946 397.2866,-946 397.2866,-946 403.2866,-946 409.2866,-952 409.2866,-958 409.2866,-958 409.2866,-998 409.2866,-998 409.2866,-1004 403.2866,-1010 397.2866,-1010"/>
<text text-anchor="start" x="216.3436" y="-996" font-family="arial" font-weight="bold" font-size="10.00" fill="#000000">Main Culm as Post&#45;Primary and Pre&#45;NRS</text>
<text text-anchor="start" x="228.2736" y="-979" font-family="arial" font-size="10.00" fill="#000000">The main Culm strata are older than</text>
<text text-anchor="start" x="224.1031" y="-967" font-family="arial" font-size="10.00" fill="#000000"> Primary strata and younger than New</text>
<text text-anchor="start" x="222.4281" y="-955" font-family="arial" font-size="10.00" fill="#000000"> Red Sandstone strata #pri #chron&#45;hyp</text>
</g>
<!-- n8&#45;&gt;n29 -->
<g id="edge80" class="edge">
<title>n8&#45;&gt;n29</title>
<path fill="none" stroke="#00ff00" d="M308.0061,-945.9597C308.1421,-926.1045 308.319,-900.2721 308.47,-878.2232"/>
<polygon fill="#00ff00" stroke="#00ff00" points="311.9709,-878.0946 308.5395,-868.0709 304.971,-878.0466 311.9709,-878.0946"/>
</g>
<!-- n9 -->
<g id="node10" class="node">
<title>n9</title>
<path fill="#ffffff" stroke="#ff8c00" stroke-width="2" d="M591.7866,-476C591.7866,-476 413.7866,-476 413.7866,-476 407.7866,-476 401.7866,-470 401.7866,-464 401.7866,-464 401.7866,-436 401.7866,-436 401.7866,-430 407.7866,-424 413.7866,-424 413.7866,-424 591.7866,-424 591.7866,-424 597.7866,-424 603.7866,-430 603.7866,-436 603.7866,-436 603.7866,-464 603.7866,-464 603.7866,-470 597.7866,-476 591.7866,-476"/>
<text text-anchor="start" x="463.0686" y="-462" font-family="arial" font-weight="bold" font-size="10.00" fill="#000000">Main Culm as CM</text>
<text text-anchor="start" x="411.3856" y="-445" font-family="arial" font-size="10.00" fill="#000000">The whole of the main Culm is CM in age</text>
<text text-anchor="start" x="459.9991" y="-433" font-family="arial" font-size="10.00" fill="#000000"> #COA #chron&#45;hyp </text>
</g>
<!-- n9&#45;&gt;n0 -->
<g id="edge20" class="edge">
<title>n9&#45;&gt;n0</title>
<path fill="none" stroke="#ff0000" d="M613.7731,-435.3416C733.6517,-419.1228 911.6328,-393.777 941.7866,-382.4 958.3407,-376.1541 975.0308,-367.1026 990.1449,-357.6183"/>
<polygon fill="#ff0000" stroke="#ff0000" points="613.247,-431.8808 603.8052,-436.6873 614.1836,-438.8178 613.247,-431.8808"/>
<polygon fill="#ff0000" stroke="#ff0000" points="992.3439,-360.3648 998.8488,-352.0019 988.5485,-354.483 992.3439,-360.3648"/>
</g>
<!-- n9&#45;&gt;n3 -->
<g id="edge15" class="edge">
<title>n9&#45;&gt;n3</title>
<path fill="none" stroke="#00ff00" d="M505.3812,-476.0263C511.084,-533.6445 524.9817,-676.3527 534.7866,-796 538.9193,-846.4305 542.9559,-904.7845 545.4074,-941.5406"/>
<polygon fill="#00ff00" stroke="#00ff00" points="541.9314,-942.0192 546.0856,-951.7656 548.916,-941.5559 541.9314,-942.0192"/>
</g>
<!-- n9&#45;&gt;n4 -->
<g id="edge16" class="edge">
<title>n9&#45;&gt;n4</title>
<path fill="none" stroke="#ff0000" d="M391.854,-427.8595C346.7562,-416.9488 294.7763,-401.8845 249.7866,-382.4 227.137,-372.5907 203.6889,-358.6195 184.2904,-345.8582"/>
<polygon fill="#ff0000" stroke="#ff0000" points="391.1259,-431.284 401.6646,-430.1943 392.7466,-424.4741 391.1259,-431.284"/>
<polygon fill="#ff0000" stroke="#ff0000" points="186.219,-342.9375 175.9603,-340.2898 182.3289,-348.757 186.219,-342.9375"/>
</g>
<!-- n9&#45;&gt;n5 -->
<g id="edge17" class="edge">
<title>n9&#45;&gt;n5</title>
<path fill="none" stroke="#ff0000" d="M520.5028,-414.5676C530.5606,-394.452 543.1073,-369.3585 553.1517,-349.2698"/>
<polygon fill="#ff0000" stroke="#ff0000" points="517.2394,-413.2683 515.8977,-423.7778 523.5004,-416.3988 517.2394,-413.2683"/>
<polygon fill="#ff0000" stroke="#ff0000" points="556.3741,-350.6512 557.7158,-340.1417 550.1131,-347.5207 556.3741,-350.6512"/>
</g>
<!-- n9&#45;&gt;n6 -->
<g id="edge18" class="edge">
<title>n9&#45;&gt;n6</title>
<path fill="none" stroke="#ff0000" d="M467.0622,-416.7225C444.3172,-395.5353 414.9737,-368.2017 392.2746,-347.0573"/>
<polygon fill="#ff0000" stroke="#ff0000" points="464.9335,-419.5228 474.6363,-423.7778 469.7047,-414.4007 464.9335,-419.5228"/>
<polygon fill="#ff0000" stroke="#ff0000" points="394.5533,-344.3967 384.8505,-340.1417 389.7821,-349.5188 394.5533,-344.3967"/>
</g>
<!-- n9&#45;&gt;n7 -->
<g id="edge19" class="edge">
<title>n9&#45;&gt;n7</title>
<path fill="none" stroke="#ff0000" d="M507.6685,-486.2714C510.2729,-517.8928 510.0001,-564.1753 492.7866,-600 480.1138,-626.3745 456.9114,-648.9913 435.3442,-665.8303"/>
<polygon fill="#ff0000" stroke="#ff0000" points="511.1361,-485.7653 506.6953,-476.146 504.1682,-486.435 511.1361,-485.7653"/>
<polygon fill="#ff0000" stroke="#ff0000" points="433.0519,-663.1756 427.1838,-671.9969 437.2722,-668.7603 433.0519,-663.1756"/>
</g>
<!-- n29&#45;&gt;n7 -->
<g id="edge69" class="edge">
<title>n29&#45;&gt;n7</title>
<path fill="none" stroke="#00ff00" d="M329.6239,-795.7377C340.8512,-776.1993 354.6369,-752.2085 365.7404,-732.8855"/>
<polygon fill="#00ff00" stroke="#00ff00" points="368.8455,-734.5067 370.7932,-724.0924 362.7762,-731.0191 368.8455,-734.5067"/>
</g>
<!-- n30&#45;&gt;n1 -->
<g id="edge70" class="edge">
<title>n30&#45;&gt;n1</title>
<path fill="none" stroke="#00ff00" d="M561.8084,-188.6376C609.0846,-201.9382 662.0752,-225.7041 692.7866,-268 740.4744,-333.6759 707.7866,-368.8369 707.7866,-450 707.7866,-832 707.7866,-832 707.7866,-832 707.7866,-915.3283 714.1311,-944.2327 671.7866,-1016 654.5331,-1045.2419 625.9392,-1070.0502 600.5552,-1088.0951"/>
<polygon fill="#00ff00" stroke="#00ff00" points="598.3226,-1085.3837 592.0908,-1093.9519 602.3056,-1091.14 598.3226,-1085.3837"/>
</g>
<!-- n31&#45;&gt;n9 -->
<g id="edge71" class="edge">
<title>n31&#45;&gt;n9</title>
<path fill="none" stroke="#00ff00" d="M402.7994,-555.9693C420.6424,-537.0588 449.0942,-506.9047 471.0932,-483.5896"/>
<polygon fill="#00ff00" stroke="#00ff00" points="473.6702,-485.9584 477.9873,-476.283 468.5788,-481.1544 473.6702,-485.9584"/>
</g>
<!-- n10 -->
<g id="node14" class="node">
<title>n10</title>
<path fill="#ffffff" stroke="#f5f5dc" stroke-width="2" d="M1354.7866,-1146C1354.7866,-1146 1182.7866,-1146 1182.7866,-1146 1176.7866,-1146 1170.7866,-1140 1170.7866,-1134 1170.7866,-1134 1170.7866,-1106 1170.7866,-1106 1170.7866,-1100 1176.7866,-1094 1182.7866,-1094 1182.7866,-1094 1354.7866,-1094 1354.7866,-1094 1360.7866,-1094 1366.7866,-1100 1366.7866,-1106 1366.7866,-1106 1366.7866,-1134 1366.7866,-1134 1366.7866,-1140 1360.7866,-1146 1354.7866,-1146"/>
<text text-anchor="start" x="1228.7831" y="-1132" font-family="arial" font-weight="bold" font-size="10.00" fill="#000000">Some BCL as CM</text>
<text text-anchor="start" x="1181.2686" y="-1115" font-family="arial" font-size="10.00" fill="#000000">Some part of the black Culm Limestone</text>
<text text-anchor="start" x="1203.4996" y="-1103" font-family="arial" font-size="10.00" fill="#000000"> is CM in age #pri #chron&#45;hyp</text>
</g>
<!-- n32 -->
<g id="node22" class="node">
<title>n32</title>
<path fill="#f5f5dc" stroke="#000000" d="M1518.7866,-1016C1518.7866,-1016 1346.7866,-1016 1346.7866,-1016 1340.7866,-1016 1334.7866,-1010 1334.7866,-1004 1334.7866,-1004 1334.7866,-952 1334.7866,-952 1334.7866,-946 1340.7866,-940 1346.7866,-940 1346.7866,-940 1518.7866,-940 1518.7866,-940 1524.7866,-940 1530.7866,-946 1530.7866,-952 1530.7866,-952 1530.7866,-1004 1530.7866,-1004 1530.7866,-1010 1524.7866,-1016 1518.7866,-1016"/>
<text text-anchor="start" x="1348.0386" y="-1002" font-family="arial" font-weight="bold" font-size="10.00" fill="#000000">Standard Sequence as Partition &#45; BCL</text>
<text text-anchor="start" x="1366.3851" y="-985" font-family="arial" font-size="10.00" fill="#000000">If some part of the black Culm</text>
<text text-anchor="start" x="1348.3336" y="-973" font-family="arial" font-size="10.00" fill="#000000"> Limestone is neiter CM, ML, ORS nor</text>
<text text-anchor="start" x="1350.2656" y="-961" font-family="arial" font-size="10.00" fill="#000000"> SIL in age, then it is CAM in age #pri</text>
<text text-anchor="start" x="1406.3911" y="-949" font-family="arial" font-size="10.00" fill="#000000"> #chron&#45;hyp</text>
</g>
<!-- n10&#45;&gt;n32 -->
<g id="edge25" class="edge">
<title>n10&#45;&gt;n32</title>
<path fill="none" stroke="#ff0000" d="M1298.8667,-1093.955C1321.7592,-1074.1335 1353.8231,-1046.3708 1380.8372,-1022.9805"/>
<polygon fill="#ff0000" stroke="#ff0000" points="1383.4069,-1025.3853 1388.6758,-1016.1935 1378.8248,-1020.0933 1383.4069,-1025.3853"/>
</g>
<!-- n33 -->
<g id="node23" class="node">
<title>n33</title>
<path fill="#b8860b" stroke="#000000" d="M1418.7866,-716C1418.7866,-716 1246.7866,-716 1246.7866,-716 1240.7866,-716 1234.7866,-710 1234.7866,-704 1234.7866,-704 1234.7866,-692 1234.7866,-692 1234.7866,-686 1240.7866,-680 1246.7866,-680 1246.7866,-680 1418.7866,-680 1418.7866,-680 1424.7866,-680 1430.7866,-686 1430.7866,-692 1430.7866,-692 1430.7866,-704 1430.7866,-704 1430.7866,-710 1424.7866,-716 1418.7866,-716"/>
<text text-anchor="start" x="1279.4426" y="-696" font-family="arial" font-weight="bold" font-size="10.00" fill="#000000">Dating the BCL &#45; GRE.1</text>
</g>
<!-- n10&#45;&gt;n33 -->
<g id="edge34" class="edge">
<title>n10&#45;&gt;n33</title>
<path fill="none" stroke="#ff0000" d="M1272.7418,-1093.9205C1284.0902,-1019.0916 1316.697,-804.0907 1328.4763,-726.4212"/>
<polygon fill="#ff0000" stroke="#ff0000" points="1331.9567,-726.8138 1329.9958,-716.402 1325.0358,-725.7641 1331.9567,-726.8138"/>
</g>
<!-- n34 -->
<g id="node24" class="node">
<title>n34</title>
<path fill="#ff8c00" stroke="#000000" d="M1488.7866,-332C1488.7866,-332 1316.7866,-332 1316.7866,-332 1310.7866,-332 1304.7866,-326 1304.7866,-320 1304.7866,-320 1304.7866,-308 1304.7866,-308 1304.7866,-302 1310.7866,-296 1316.7866,-296 1316.7866,-296 1488.7866,-296 1488.7866,-296 1494.7866,-296 1500.7866,-302 1500.7866,-308 1500.7866,-308 1500.7866,-320 1500.7866,-320 1500.7866,-326 1494.7866,-332 1488.7866,-332"/>
<text text-anchor="start" x="1343.8836" y="-312" font-family="arial" font-weight="bold" font-size="10.00" fill="#000000">Redating the BCL &#45; COA.1</text>
</g>
<!-- n10&#45;&gt;n34 -->
<g id="edge81" class="edge">
<title>n10&#45;&gt;n34</title>
<path fill="none" stroke="#00ff00" d="M1349.482,-1093.9355C1424.9483,-1068.7881 1527.8147,-1032.2174 1539.7866,-1016 1618.4636,-909.4224 1525.8314,-544.0326 1469.7866,-424 1455.9012,-394.2613 1435.9133,-362.4637 1421.3852,-340.7441"/>
<polygon fill="#00ff00" stroke="#00ff00" points="1424.2238,-338.6937 1415.7214,-332.3724 1418.426,-342.6162 1424.2238,-338.6937"/>
</g>
<!-- n11 -->
<g id="node15" class="node">
<title>n11</title>
<path fill="#ffffff" stroke="#f5f5dc" stroke-width="2" d="M1354.7866,-68C1354.7866,-68 1182.7866,-68 1182.7866,-68 1176.7866,-68 1170.7866,-62 1170.7866,-56 1170.7866,-56 1170.7866,-28 1170.7866,-28 1170.7866,-22 1176.7866,-16 1182.7866,-16 1182.7866,-16 1354.7866,-16 1354.7866,-16 1360.7866,-16 1366.7866,-22 1366.7866,-28 1366.7866,-28 1366.7866,-56 1366.7866,-56 1366.7866,-62 1360.7866,-68 1354.7866,-68"/>
<text text-anchor="start" x="1229.6131" y="-54" font-family="arial" font-weight="bold" font-size="10.00" fill="#000000">Some BCL as ML</text>
<text text-anchor="start" x="1181.2686" y="-37" font-family="arial" font-size="10.00" fill="#000000">Some part of the black Culm Limestone</text>
<text text-anchor="start" x="1204.3296" y="-25" font-family="arial" font-size="10.00" fill="#000000"> is ML in age #pri #chron&#45;hyp</text>
</g>
<!-- n11&#45;&gt;n32 -->
<g id="edge26" class="edge">
<title>n11&#45;&gt;n32</title>
<path fill="none" stroke="#ff0000" d="M1247.7441,-68.3756C1233.6361,-87.2972 1215.7064,-113.9504 1204.7866,-140 1174.3567,-212.5918 1171.7866,-235.2881 1171.7866,-314 1171.7866,-450 1171.7866,-450 1171.7866,-450 1171.7866,-647.3774 1196.3065,-715.6433 1321.7866,-868 1340.3689,-890.5624 1362.9699,-913.6164 1382.916,-932.7522"/>
<polygon fill="#ff0000" stroke="#ff0000" points="1380.7583,-935.5302 1390.4167,-939.8852 1385.5821,-930.4577 1380.7583,-935.5302"/>
</g>
<!-- n11&#45;&gt;n33 -->
<g id="edge35" class="edge">
<title>n11&#45;&gt;n33</title>
<path fill="none" stroke="#ff0000" d="M1253.4198,-68.0181C1242.9544,-87.2045 1229.9268,-114.3262 1223.7866,-140 1176.2266,-338.8599 1145.5046,-414.1662 1230.7866,-600 1244.7438,-630.4134 1272.7422,-656.2158 1295.8793,-673.6989"/>
<polygon fill="#ff0000" stroke="#ff0000" points="1294.0132,-676.6705 1304.1486,-679.7568 1298.15,-671.0236 1294.0132,-676.6705"/>
</g>
<!-- n11&#45;&gt;n34 -->
<g id="edge43" class="edge">
<title>n11&#45;&gt;n34</title>
<path fill="none" stroke="#ff0000" d="M1364.9557,-68.0693C1400.8521,-82.9801 1437.9273,-105.7704 1458.7866,-140 1487.788,-187.5904 1450.6455,-251.7712 1424.461,-287.384"/>
<polygon fill="#ff0000" stroke="#ff0000" points="1421.3372,-285.7111 1418.0869,-295.7951 1426.9163,-289.939 1421.3372,-285.7111"/>
</g>
<!-- n12 -->
<g id="node16" class="node">
<title>n12</title>
<path fill="#ffffff" stroke="#f5f5dc" stroke-width="2" d="M1568.7866,-68C1568.7866,-68 1396.7866,-68 1396.7866,-68 1390.7866,-68 1384.7866,-62 1384.7866,-56 1384.7866,-56 1384.7866,-28 1384.7866,-28 1384.7866,-22 1390.7866,-16 1396.7866,-16 1396.7866,-16 1568.7866,-16 1568.7866,-16 1574.7866,-16 1580.7866,-22 1580.7866,-28 1580.7866,-28 1580.7866,-56 1580.7866,-56 1580.7866,-62 1574.7866,-68 1568.7866,-68"/>
<text text-anchor="start" x="1439.7236" y="-54" font-family="arial" font-weight="bold" font-size="10.00" fill="#000000">Some BCL as ORS</text>
<text text-anchor="start" x="1395.2686" y="-37" font-family="arial" font-size="10.00" fill="#000000">Some part of the black Culm Limestone</text>
<text text-anchor="start" x="1414.4401" y="-25" font-family="arial" font-size="10.00" fill="#000000"> is ORS in age #pri #chron&#45;hyp</text>
</g>
<!-- n12&#45;&gt;n32 -->
<g id="edge27" class="edge">
<title>n12&#45;&gt;n32</title>
<path fill="none" stroke="#ff0000" d="M1497.1529,-68.1316C1521.8633,-115.599 1569.7866,-219.8 1569.7866,-314 1569.7866,-450 1569.7866,-450 1569.7866,-450 1569.7866,-635.9903 1627.6615,-699.098 1549.7866,-868 1538.1416,-893.2568 1517.8063,-915.5327 1497.3217,-933.3157"/>
<polygon fill="#ff0000" stroke="#ff0000" points="1494.8827,-930.7936 1489.4812,-939.9081 1499.3877,-936.1514 1494.8827,-930.7936"/>
</g>
<!-- n12&#45;&gt;n33 -->
<g id="edge36" class="edge">
<title>n12&#45;&gt;n33</title>
<path fill="none" stroke="#ff0000" d="M1494.8199,-68.3974C1502.999,-87.7674 1513.1452,-114.9528 1517.7866,-140 1537.4177,-245.938 1535.4645,-275.6629 1520.7866,-382.4 1507.1035,-481.9029 1515.9545,-516.7341 1459.7866,-600 1438.4255,-631.6666 1403.4987,-657.5319 1375.6739,-674.7224"/>
<polygon fill="#ff0000" stroke="#ff0000" points="1373.6776,-671.8389 1366.9157,-679.9953 1377.2881,-677.8359 1373.6776,-671.8389"/>
</g>
<!-- n12&#45;&gt;n34 -->
<g id="edge44" class="edge">
<title>n12&#45;&gt;n34</title>
<path fill="none" stroke="#ff0000" d="M1485.1189,-68.2762C1487.134,-100.9541 1487.7216,-158.0395 1472.7866,-204 1462.5965,-235.3586 1441.3395,-266.6448 1424.9088,-287.7884"/>
<polygon fill="#ff0000" stroke="#ff0000" points="1422.1429,-285.6433 1418.658,-295.6486 1427.6216,-290.0003 1422.1429,-285.6433"/>
</g>
<!-- n13 -->
<g id="node17" class="node">
<title>n13</title>
<path fill="#ffffff" stroke="#f5f5dc" stroke-width="2" d="M1436.7866,-476C1436.7866,-476 1264.7866,-476 1264.7866,-476 1258.7866,-476 1252.7866,-470 1252.7866,-464 1252.7866,-464 1252.7866,-436 1252.7866,-436 1252.7866,-430 1258.7866,-424 1264.7866,-424 1264.7866,-424 1436.7866,-424 1436.7866,-424 1442.7866,-424 1448.7866,-430 1448.7866,-436 1448.7866,-436 1448.7866,-464 1448.7866,-464 1448.7866,-470 1442.7866,-476 1436.7866,-476"/>
<text text-anchor="start" x="1311.0536" y="-462" font-family="arial" font-weight="bold" font-size="10.00" fill="#000000">Some BCL as SIL</text>
<text text-anchor="start" x="1263.2686" y="-445" font-family="arial" font-size="10.00" fill="#000000">Some part of the black Culm Limestone</text>
<text text-anchor="start" x="1285.7701" y="-433" font-family="arial" font-size="10.00" fill="#000000"> is SIL in age #pri #chron&#45;hyp</text>
</g>
<!-- n13&#45;&gt;n32 -->
<g id="edge28" class="edge">
<title>n13&#45;&gt;n32</title>
<path fill="none" stroke="#ff0000" d="M1394.502,-476.0893C1418.6366,-493.1746 1446.3718,-517.8994 1459.7866,-548 1491.8335,-619.9078 1481.7767,-657.4075 1439.7866,-724 1409.8013,-771.5539 1361.8779,-746.203 1335.7866,-796 1320.9352,-824.3449 1324.4737,-838.0664 1335.7866,-868 1344.8837,-892.0706 1361.9153,-914.2794 1379.1991,-932.3452"/>
<polygon fill="#ff0000" stroke="#ff0000" points="1377.0789,-935.1787 1386.5995,-939.8273 1382.0558,-930.2562 1377.0789,-935.1787"/>
</g>
<!-- n13&#45;&gt;n33 -->
<g id="edge37" class="edge">
<title>n13&#45;&gt;n33</title>
<path fill="none" stroke="#ff0000" d="M1307.0712,-476.0893C1282.9366,-493.1746 1255.2014,-517.8994 1241.7866,-548 1232.3788,-569.1096 1233.3391,-578.4881 1241.7866,-600 1253.4506,-629.7028 1278.8202,-655.7595 1299.8167,-673.5236"/>
<polygon fill="#ff0000" stroke="#ff0000" points="1297.6602,-676.2814 1307.6121,-679.9161 1302.0989,-670.8687 1297.6602,-676.2814"/>
</g>
<!-- n13&#45;&gt;n34 -->
<g id="edge45" class="edge">
<title>n13&#45;&gt;n34</title>
<path fill="none" stroke="#ff0000" d="M1360.8127,-423.7778C1369.7994,-400.2742 1382.943,-365.8987 1392.1205,-341.8961"/>
<polygon fill="#ff0000" stroke="#ff0000" points="1395.4849,-342.8968 1395.7872,-332.3062 1388.9465,-340.3968 1395.4849,-342.8968"/>
</g>
<!-- n14 -->
<g id="node18" class="node">
<title>n14</title>
<path fill="#ffffff" stroke="#f5f5dc" stroke-width="2" d="M1528.7866,-858C1528.7866,-858 1356.7866,-858 1356.7866,-858 1350.7866,-858 1344.7866,-852 1344.7866,-846 1344.7866,-846 1344.7866,-818 1344.7866,-818 1344.7866,-812 1350.7866,-806 1356.7866,-806 1356.7866,-806 1528.7866,-806 1528.7866,-806 1534.7866,-806 1540.7866,-812 1540.7866,-818 1540.7866,-818 1540.7866,-846 1540.7866,-846 1540.7866,-852 1534.7866,-858 1528.7866,-858"/>
<text text-anchor="start" x="1399.4486" y="-844" font-family="arial" font-weight="bold" font-size="10.00" fill="#000000">Some BCL as CAM</text>
<text text-anchor="start" x="1355.2686" y="-827" font-family="arial" font-size="10.00" fill="#000000">Some part of the black Culm Limestone</text>
<text text-anchor="start" x="1374.1651" y="-815" font-family="arial" font-size="10.00" fill="#000000"> is CAM in age #pri #chron&#45;hyp</text>
</g>
<!-- n14&#45;&gt;n33 -->
<g id="edge82" class="edge">
<title>n14&#45;&gt;n33</title>
<path fill="none" stroke="#00ff00" d="M1421.3164,-805.8453C1401.9649,-782.2717 1373.6583,-747.7891 1354.295,-724.2011"/>
<polygon fill="#00ff00" stroke="#00ff00" points="1356.8985,-721.8564 1347.8483,-716.3479 1351.488,-726.2979 1356.8985,-721.8564"/>
</g>
<!-- n14&#45;&gt;n34 -->
<g id="edge46" class="edge">
<title>n14&#45;&gt;n34</title>
<path fill="none" stroke="#ff0000" d="M1452.8491,-805.8467C1460.5863,-784.2641 1470.6325,-752.6428 1474.7866,-724 1493.9547,-591.8355 1497.2458,-551.5846 1457.7866,-424 1448.568,-394.1934 1431.9537,-362.5745 1419.3901,-340.9237"/>
<polygon fill="#ff0000" stroke="#ff0000" points="1422.3882,-339.1175 1414.2871,-332.2894 1416.362,-342.6791 1422.3882,-339.1175"/>
</g>
<!-- n15 -->
<g id="node19" class="node">
<title>n15</title>
<path fill="#ffffff" stroke="#f5f5dc" stroke-width="2" d="M1568.7866,-1152C1568.7866,-1152 1396.7866,-1152 1396.7866,-1152 1390.7866,-1152 1384.7866,-1146 1384.7866,-1140 1384.7866,-1140 1384.7866,-1100 1384.7866,-1100 1384.7866,-1094 1390.7866,-1088 1396.7866,-1088 1396.7866,-1088 1568.7866,-1088 1568.7866,-1088 1574.7866,-1088 1580.7866,-1094 1580.7866,-1100 1580.7866,-1100 1580.7866,-1140 1580.7866,-1140 1580.7866,-1146 1574.7866,-1152 1568.7866,-1152"/>
<text text-anchor="start" x="1405.0056" y="-1138" font-family="arial" font-weight="bold" font-size="10.00" fill="#000000">BCL as Post&#45;Primary and Pre&#45;NRS</text>
<text text-anchor="start" x="1394.9936" y="-1121" font-family="arial" font-size="10.00" fill="#000000">The black Culm Limestone is older than</text>
<text text-anchor="start" x="1398.6031" y="-1109" font-family="arial" font-size="10.00" fill="#000000"> Primary strata and younger than New</text>
<text text-anchor="start" x="1396.9281" y="-1097" font-family="arial" font-size="10.00" fill="#000000"> Red Sandstone strata #pri #chron&#45;hyp</text>
</g>
<!-- n15&#45;&gt;n32 -->
<g id="edge83" class="edge">
<title>n15&#45;&gt;n32</title>
<path fill="none" stroke="#00ff00" d="M1471.4408,-1087.778C1464.9737,-1069.4114 1456.7482,-1046.0508 1449.5488,-1025.6045"/>
<polygon fill="#00ff00" stroke="#00ff00" points="1452.8392,-1024.4108 1446.2165,-1016.1409 1446.2365,-1026.7357 1452.8392,-1024.4108"/>
</g>
<!-- n16 -->
<g id="node20" class="node">
<title>n16</title>
<path fill="#ffffff" stroke="#b8860b" stroke-width="2" d="M1438.7866,-600C1438.7866,-600 1262.7866,-600 1262.7866,-600 1256.7866,-600 1250.7866,-594 1250.7866,-588 1250.7866,-588 1250.7866,-560 1250.7866,-560 1250.7866,-554 1256.7866,-548 1262.7866,-548 1262.7866,-548 1438.7866,-548 1438.7866,-548 1444.7866,-548 1450.7866,-554 1450.7866,-560 1450.7866,-560 1450.7866,-588 1450.7866,-588 1450.7866,-594 1444.7866,-600 1438.7866,-600"/>
<text text-anchor="start" x="1321.8961" y="-586" font-family="arial" font-weight="bold" font-size="10.00" fill="#000000">BCL as CAM</text>
<text text-anchor="start" x="1260.4891" y="-569" font-family="arial" font-size="10.00" fill="#000000">The black Culm Limestone is nothing but</text>
<text text-anchor="start" x="1269.9371" y="-557" font-family="arial" font-size="10.00" fill="#000000"> Cambrian in age #GRE #chron&#45;hyp </text>
</g>
<!-- n16&#45;&gt;n10 -->
<g id="edge29" class="edge">
<title>n16&#45;&gt;n10</title>
<path fill="none" stroke="#ff0000" d="M1289.6315,-605.6649C1265.0382,-621.8957 1239.3341,-644.1641 1225.7866,-672 1157.664,-811.9709 1221.6158,-1005.4137 1253.3301,-1084.3266"/>
<polygon fill="#ff0000" stroke="#ff0000" points="1291.7022,-608.4959 1298.2624,-600.1764 1287.9459,-602.5891 1291.7022,-608.4959"/>
<polygon fill="#ff0000" stroke="#ff0000" points="1250.1839,-1085.8799 1257.2095,-1093.8103 1256.6627,-1083.2295 1250.1839,-1085.8799"/>
</g>
<!-- n16&#45;&gt;n11 -->
<g id="edge30" class="edge">
<title>n16&#45;&gt;n11</title>
<path fill="none" stroke="#ff0000" d="M1300.5402,-541.8445C1278.9474,-525.0708 1255.9206,-502.5039 1243.7866,-476 1212.6964,-408.0907 1223.7102,-213.705 1235.7866,-140 1239.2806,-118.6753 1246.7844,-95.7385 1253.7548,-77.4199"/>
<polygon fill="#ff0000" stroke="#ff0000" points="1298.6215,-544.7806 1308.7199,-547.9857 1302.8243,-539.1827 1298.6215,-544.7806"/>
<polygon fill="#ff0000" stroke="#ff0000" points="1257.0458,-78.6144 1257.435,-68.0267 1250.5282,-76.0608 1257.0458,-78.6144"/>
</g>
<!-- n16&#45;&gt;n12 -->
<g id="edge31" class="edge">
<title>n16&#45;&gt;n12</title>
<path fill="none" stroke="#ff0000" d="M1392.9475,-541.3762C1414.1247,-523.59 1439.1675,-500.2853 1457.7866,-476 1473.6309,-455.334 1472.0736,-446.7267 1484.7866,-424 1495.3173,-405.1745 1504.0213,-403.186 1509.7866,-382.4 1539.6549,-274.7138 1510.8964,-141.0481 1493.6559,-78.0517"/>
<polygon fill="#ff0000" stroke="#ff0000" points="1390.518,-538.8435 1385.0418,-547.9133 1394.9788,-544.2381 1390.518,-538.8435"/>
<polygon fill="#ff0000" stroke="#ff0000" points="1496.9648,-76.8887 1490.8957,-68.2044 1490.2246,-78.778 1496.9648,-76.8887"/>
</g>
<!-- n16&#45;&gt;n13 -->
<g id="edge32" class="edge">
<title>n16&#45;&gt;n13</title>
<path fill="none" stroke="#ff0000" d="M1350.7866,-537.5647C1350.7866,-521.4378 1350.7866,-502.5132 1350.7866,-486.3914"/>
<polygon fill="#ff0000" stroke="#ff0000" points="1347.2867,-537.7028 1350.7866,-547.7028 1354.2867,-537.7028 1347.2867,-537.7028"/>
<polygon fill="#ff0000" stroke="#ff0000" points="1354.2867,-486.2593 1350.7866,-476.2593 1347.2867,-486.2593 1354.2867,-486.2593"/>
</g>
<!-- n16&#45;&gt;n14 -->
<g id="edge33" class="edge">
<title>n16&#45;&gt;n14</title>
<path fill="none" stroke="#00ff00" d="M1384.4153,-600.0555C1404.5677,-617.8682 1428.4197,-643.3772 1439.7866,-672 1455.7015,-712.0751 1453.4219,-762.3668 1449.1594,-795.7574"/>
<polygon fill="#00ff00" stroke="#00ff00" points="1445.65,-795.5809 1447.7264,-805.9703 1452.5821,-796.5537 1445.65,-795.5809"/>
</g>
<!-- n17 -->
<g id="node21" class="node">
<title>n17</title>
<path fill="#ffffff" stroke="#ff8c00" stroke-width="2" d="M1437.2866,-198C1437.2866,-198 1256.2866,-198 1256.2866,-198 1250.2866,-198 1244.2866,-192 1244.2866,-186 1244.2866,-186 1244.2866,-158 1244.2866,-158 1244.2866,-152 1250.2866,-146 1256.2866,-146 1256.2866,-146 1437.2866,-146 1437.2866,-146 1443.2866,-146 1449.2866,-152 1449.2866,-158 1449.2866,-158 1449.2866,-186 1449.2866,-186 1449.2866,-192 1443.2866,-198 1437.2866,-198"/>
<text text-anchor="start" x="1321.7306" y="-184" font-family="arial" font-weight="bold" font-size="10.00" fill="#000000">BCL as CM</text>
<text text-anchor="start" x="1256.9891" y="-167" font-family="arial" font-size="10.00" fill="#000000">The black Culm Limestone is nothing but</text>
<text text-anchor="start" x="1254.4886" y="-155" font-family="arial" font-size="10.00" fill="#000000"> Coal Mesaures in age #COA #chron&#45;hyp </text>
</g>
<!-- n17&#45;&gt;n10 -->
<g id="edge38" class="edge">
<title>n17&#45;&gt;n10</title>
<path fill="none" stroke="#00ff00" d="M1316.2239,-198.2754C1297.6731,-216.0245 1275.2421,-241.0646 1262.7866,-268 1150.0591,-511.7778 1179.925,-599.6399 1190.7866,-868 1193.4555,-933.9397 1181.8272,-953.4231 1202.7866,-1016 1211.1876,-1041.0821 1226.8789,-1066.2063 1240.8542,-1085.476"/>
<polygon fill="#00ff00" stroke="#00ff00" points="1238.1402,-1087.6917 1246.9165,-1093.6269 1243.757,-1083.5142 1238.1402,-1087.6917"/>
</g>
<!-- n17&#45;&gt;n11 -->
<g id="edge39" class="edge">
<title>n17&#45;&gt;n11</title>
<path fill="none" stroke="#ff0000" d="M1325.8489,-137.1038C1314.6849,-118.4972 1300.9865,-95.6665 1289.8097,-77.0385"/>
<polygon fill="#ff0000" stroke="#ff0000" points="1322.8559,-138.9184 1331.0021,-145.6926 1328.8584,-135.3169 1322.8559,-138.9184"/>
<polygon fill="#ff0000" stroke="#ff0000" points="1292.6938,-75.0425 1284.5476,-68.2683 1286.6914,-78.644 1292.6938,-75.0425"/>
</g>
<!-- n17&#45;&gt;n12 -->
<g id="edge40" class="edge">
<title>n17&#45;&gt;n12</title>
<path fill="none" stroke="#ff0000" d="M1381.7924,-138.5386C1402.1655,-119.0643 1427.754,-94.6047 1448.0764,-75.1789"/>
<polygon fill="#ff0000" stroke="#ff0000" points="1379.1185,-136.2527 1374.3082,-145.6926 1383.9554,-141.3128 1379.1185,-136.2527"/>
<polygon fill="#ff0000" stroke="#ff0000" points="1450.4956,-77.7082 1455.3059,-68.2683 1445.6587,-72.6481 1450.4956,-77.7082"/>
</g>
<!-- n17&#45;&gt;n13 -->
<g id="edge41" class="edge">
<title>n17&#45;&gt;n13</title>
<path fill="none" stroke="#ff0000" d="M1315.7076,-206.24C1302.164,-223.4537 1287.7981,-245.4252 1280.7866,-268 1265.7055,-316.5563 1260.9204,-335.5973 1280.7866,-382.4 1286.3109,-395.4147 1295.704,-407.1445 1305.8462,-417.0386"/>
<polygon fill="#ff0000" stroke="#ff0000" points="1318.6603,-208.1566 1322.2545,-198.19 1313.2295,-203.7399 1318.6603,-208.1566"/>
<polygon fill="#ff0000" stroke="#ff0000" points="1303.589,-419.7178 1313.3189,-423.9107 1308.3274,-414.5653 1303.589,-419.7178"/>
</g>
<!-- n17&#45;&gt;n14 -->
<g id="edge42" class="edge">
<title>n17&#45;&gt;n14</title>
<path fill="none" stroke="#ff0000" d="M1322.8675,-206.9916C1312.3342,-224.4875 1301.1481,-246.4796 1295.7866,-268 1289.6408,-292.6682 1280.2055,-362.3123 1295.7866,-382.4 1341.3467,-441.1377 1408.7756,-368.1094 1457.7866,-424 1550.8926,-530.1753 1489.9965,-718.1984 1458.4088,-796.3695"/>
<polygon fill="#ff0000" stroke="#ff0000" points="1325.9766,-208.6195 1328.2819,-198.2785 1320.031,-204.9249 1325.9766,-208.6195"/>
<polygon fill="#ff0000" stroke="#ff0000" points="1455.1043,-795.2025 1454.531,-805.7818 1461.5765,-797.8691 1455.1043,-795.2025"/>
</g>
<!-- n32&#45;&gt;n14 -->
<g id="edge72" class="edge">
<title>n32&#45;&gt;n14</title>
<path fill="none" stroke="#00ff00" d="M1435.414,-939.6402C1436.9258,-917.568 1438.8143,-889.9956 1440.3015,-868.2826"/>
<polygon fill="#00ff00" stroke="#00ff00" points="1443.8043,-868.3598 1440.9959,-858.144 1436.8207,-867.8814 1443.8043,-868.3598"/>
</g>
<!-- n33&#45;&gt;n16 -->
<g id="edge73" class="edge">
<title>n33&#45;&gt;n16</title>
<path fill="none" stroke="#00ff00" d="M1335.404,-679.9693C1338.0421,-661.7956 1342.1876,-633.2373 1345.5107,-610.3448"/>
<polygon fill="#00ff00" stroke="#00ff00" points="1348.9984,-610.6821 1346.9713,-600.283 1342.071,-609.6764 1348.9984,-610.6821"/>
</g>
<!-- n34&#45;&gt;n17 -->
<g id="edge74" class="edge">
<title>n34&#45;&gt;n17</title>
<path fill="none" stroke="#00ff00" d="M1395.5802,-295.7267C1386.8336,-273.5477 1371.8852,-235.6429 1360.8332,-207.6181"/>
<polygon fill="#00ff00" stroke="#00ff00" points="1364.0277,-206.178 1357.103,-198.1594 1357.5158,-208.7462 1364.0277,-206.178"/>
</g>
<!-- n18 -->
<g id="node25" class="node">
<title>n18</title>
<path fill="#ffffff" stroke="#f5f5dc" stroke-width="2" d="M1788.7866,-1146C1788.7866,-1146 1616.7866,-1146 1616.7866,-1146 1610.7866,-1146 1604.7866,-1140 1604.7866,-1134 1604.7866,-1134 1604.7866,-1106 1604.7866,-1106 1604.7866,-1100 1610.7866,-1094 1616.7866,-1094 1616.7866,-1094 1788.7866,-1094 1788.7866,-1094 1794.7866,-1094 1800.7866,-1100 1800.7866,-1106 1800.7866,-1106 1800.7866,-1134 1800.7866,-1134 1800.7866,-1140 1794.7866,-1146 1788.7866,-1146"/>
<text text-anchor="start" x="1650.0106" y="-1132" font-family="arial" font-weight="bold" font-size="10.00" fill="#000000">Some Non&#45;Culm as CM</text>
<text text-anchor="start" x="1614.7196" y="-1115" font-family="arial" font-size="10.00" fill="#000000">Some part of the non&#45;Culm strata is CM</text>
<text text-anchor="start" x="1651.6621" y="-1103" font-family="arial" font-size="10.00" fill="#000000"> in age #pri #chron&#45;hyp</text>
</g>
<!-- n35 -->
<g id="node33" class="node">
<title>n35</title>
<path fill="#f5f5dc" stroke="#000000" d="M1954.7866,-1014C1954.7866,-1014 1782.7866,-1014 1782.7866,-1014 1776.7866,-1014 1770.7866,-1008 1770.7866,-1002 1770.7866,-1002 1770.7866,-954 1770.7866,-954 1770.7866,-948 1776.7866,-942 1782.7866,-942 1782.7866,-942 1954.7866,-942 1954.7866,-942 1960.7866,-942 1966.7866,-948 1966.7866,-954 1966.7866,-954 1966.7866,-1002 1966.7866,-1002 1966.7866,-1008 1960.7866,-1014 1954.7866,-1014"/>
<text text-anchor="start" x="1795.1516" y="-1000" font-family="arial" font-weight="bold" font-size="10.00" fill="#000000">Standard Sequence as Partition &#45;</text>
<text text-anchor="start" x="1844.9011" y="-990" font-family="arial" font-weight="bold" font-size="10.00" fill="#000000"> Non&#45;Culm</text>
<text text-anchor="start" x="1786.5491" y="-975" font-family="arial" font-size="10.00" fill="#000000">If some part of the non&#45;Culm strata is</text>
<text text-anchor="start" x="1780.7111" y="-963" font-family="arial" font-size="10.00" fill="#000000"> neiter CM, ML, OR nor SIL in age, then</text>
<text text-anchor="start" x="1796.2766" y="-951" font-family="arial" font-size="10.00" fill="#000000"> it is CAM in age #pri #chron&#45;hyp</text>
</g>
<!-- n18&#45;&gt;n35 -->
<g id="edge47" class="edge">
<title>n18&#45;&gt;n35</title>
<path fill="none" stroke="#ff0000" d="M1733.2336,-1093.955C1757.1891,-1073.4629 1791.0667,-1044.4833 1818.9607,-1020.6222"/>
<polygon fill="#ff0000" stroke="#ff0000" points="1821.3324,-1023.1992 1826.6564,-1014.0391 1816.7822,-1017.8799 1821.3324,-1023.1992"/>
</g>
<!-- n36 -->
<g id="node34" class="node">
<title>n36</title>
<path fill="#b8860b" stroke="#000000" d="M1848.7866,-716C1848.7866,-716 1676.7866,-716 1676.7866,-716 1670.7866,-716 1664.7866,-710 1664.7866,-704 1664.7866,-704 1664.7866,-692 1664.7866,-692 1664.7866,-686 1670.7866,-680 1676.7866,-680 1676.7866,-680 1848.7866,-680 1848.7866,-680 1854.7866,-680 1860.7866,-686 1860.7866,-692 1860.7866,-692 1860.7866,-704 1860.7866,-704 1860.7866,-710 1854.7866,-716 1848.7866,-716"/>
<text text-anchor="start" x="1698.0596" y="-696" font-family="arial" font-weight="bold" font-size="10.00" fill="#000000">Dating the Non&#45;Culm&#45; GRE.1</text>
</g>
<!-- n18&#45;&gt;n36 -->
<g id="edge56" class="edge">
<title>n18&#45;&gt;n36</title>
<path fill="none" stroke="#ff0000" d="M1706.4946,-1093.9205C1717.1338,-1019.0916 1747.7026,-804.0907 1758.7457,-726.4212"/>
<polygon fill="#ff0000" stroke="#ff0000" points="1762.2276,-726.7952 1760.1702,-716.402 1755.2973,-725.8098 1762.2276,-726.7952"/>
</g>
<!-- n37 -->
<g id="node35" class="node">
<title>n37</title>
<path fill="#ff8c00" stroke="#000000" d="M1933.2866,-332C1933.2866,-332 1742.2866,-332 1742.2866,-332 1736.2866,-332 1730.2866,-326 1730.2866,-320 1730.2866,-320 1730.2866,-308 1730.2866,-308 1730.2866,-302 1736.2866,-296 1742.2866,-296 1742.2866,-296 1933.2866,-296 1933.2866,-296 1939.2866,-296 1945.2866,-302 1945.2866,-308 1945.2866,-308 1945.2866,-320 1945.2866,-320 1945.2866,-326 1939.2866,-332 1933.2866,-332"/>
<text text-anchor="start" x="1740.4951" y="-312" font-family="arial" font-weight="bold" font-size="10.00" fill="#000000">Extending the Non&#45;Culm Upwards &#45; COA.2a</text>
</g>
<!-- n18&#45;&gt;n37 -->
<g id="edge67" class="edge">
<title>n18&#45;&gt;n37</title>
<path fill="none" stroke="#ff0000" d="M1783.982,-1093.9043C1859.9309,-1068.7326 1963.4998,-1032.1435 1975.7866,-1016 2140.4485,-799.652 1922.6272,-440.0389 1856.0226,-340.3345"/>
<polygon fill="#ff0000" stroke="#ff0000" points="1858.9135,-338.3615 1850.4199,-332.0283 1853.1103,-342.2759 1858.9135,-338.3615"/>
</g>
<!-- n19 -->
<g id="node26" class="node">
<title>n19</title>
<path fill="#ffffff" stroke="#f5f5dc" stroke-width="2" d="M1788.7866,-68C1788.7866,-68 1616.7866,-68 1616.7866,-68 1610.7866,-68 1604.7866,-62 1604.7866,-56 1604.7866,-56 1604.7866,-28 1604.7866,-28 1604.7866,-22 1610.7866,-16 1616.7866,-16 1616.7866,-16 1788.7866,-16 1788.7866,-16 1794.7866,-16 1800.7866,-22 1800.7866,-28 1800.7866,-28 1800.7866,-56 1800.7866,-56 1800.7866,-62 1794.7866,-68 1788.7866,-68"/>
<text text-anchor="start" x="1650.8406" y="-54" font-family="arial" font-weight="bold" font-size="10.00" fill="#000000">Some Non&#45;Culm as ML</text>
<text text-anchor="start" x="1615.5496" y="-37" font-family="arial" font-size="10.00" fill="#000000">Some part of the non&#45;Culm strata is ML</text>
<text text-anchor="start" x="1651.6621" y="-25" font-family="arial" font-size="10.00" fill="#000000"> in age #pri #chron&#45;hyp</text>
</g>
<!-- n19&#45;&gt;n35 -->
<g id="edge48" class="edge">
<title>n19&#45;&gt;n35</title>
<path fill="none" stroke="#ff0000" d="M1679.2206,-68.317C1663.8158,-87.0034 1644.6109,-113.4032 1633.7866,-140 1604.2604,-212.5501 1605.7866,-235.6718 1605.7866,-314 1605.7866,-450 1605.7866,-450 1605.7866,-450 1605.7866,-647.3774 1628.1925,-717.4093 1755.7866,-868 1775.569,-891.3478 1799.6183,-915.2772 1820.4373,-934.8295"/>
<polygon fill="#ff0000" stroke="#ff0000" points="1818.2448,-937.5703 1827.9475,-941.8257 1823.0162,-932.4484 1818.2448,-937.5703"/>
</g>
<!-- n19&#45;&gt;n36 -->
<g id="edge57" class="edge">
<title>n19&#45;&gt;n36</title>
<path fill="none" stroke="#ff0000" d="M1683.6661,-68.363C1671.1359,-87.2788 1655.8203,-113.9303 1648.7866,-140 1622.1426,-238.7528 1621.5674,-507.2955 1664.7866,-600 1678.7311,-629.9107 1705.8641,-655.9016 1728.051,-673.5872"/>
<polygon fill="#ff0000" stroke="#ff0000" points="1725.9186,-676.3626 1735.9677,-679.719 1730.205,-670.8284 1725.9186,-676.3626"/>
</g>
<!-- n19&#45;&gt;n37 -->
<g id="edge66" class="edge">
<title>n19&#45;&gt;n37</title>
<path fill="none" stroke="#ff0000" d="M1785.5681,-68.1428C1819.4737,-83.3936 1855.2728,-106.4227 1874.7866,-140 1901.9948,-186.8171 1874.5779,-251.1241 1854.5977,-287.0029"/>
<polygon fill="#ff0000" stroke="#ff0000" points="1851.4264,-285.4962 1849.4637,-295.9077 1857.4907,-288.9926 1851.4264,-285.4962"/>
</g>
<!-- n20 -->
<g id="node27" class="node">
<title>n20</title>
<path fill="#ffffff" stroke="#f5f5dc" stroke-width="2" d="M2008.7866,-68C2008.7866,-68 1830.7866,-68 1830.7866,-68 1824.7866,-68 1818.7866,-62 1818.7866,-56 1818.7866,-56 1818.7866,-28 1818.7866,-28 1818.7866,-22 1824.7866,-16 1830.7866,-16 1830.7866,-16 2008.7866,-16 2008.7866,-16 2014.7866,-16 2020.7866,-22 2020.7866,-28 2020.7866,-28 2020.7866,-56 2020.7866,-56 2020.7866,-62 2014.7866,-68 2008.7866,-68"/>
<text text-anchor="start" x="1863.9511" y="-54" font-family="arial" font-weight="bold" font-size="10.00" fill="#000000">Some Non&#45;Culm as ORS</text>
<text text-anchor="start" x="1828.6601" y="-37" font-family="arial" font-size="10.00" fill="#000000">Some part of the non&#45;Culm strata is ORS</text>
<text text-anchor="start" x="1868.6621" y="-25" font-family="arial" font-size="10.00" fill="#000000"> in age #pri #chron&#45;hyp</text>
</g>
<!-- n20&#45;&gt;n35 -->
<g id="edge49" class="edge">
<title>n20&#45;&gt;n35</title>
<path fill="none" stroke="#ff0000" d="M1938.191,-68.2106C1950.697,-87.2699 1966.5822,-114.1561 1975.7866,-140 2002.0907,-213.8557 2004.7866,-235.5999 2004.7866,-314 2004.7866,-450 2004.7866,-450 2004.7866,-450 2004.7866,-635.8974 2068.0288,-699.3703 1989.7866,-868 1977.4949,-894.4914 1955.5444,-917.4539 1933.682,-935.4462"/>
<polygon fill="#ff0000" stroke="#ff0000" points="1931.2887,-932.878 1925.6495,-941.8474 1935.6513,-938.3523 1931.2887,-932.878"/>
</g>
<!-- n20&#45;&gt;n36 -->
<g id="edge58" class="edge">
<title>n20&#45;&gt;n36</title>
<path fill="none" stroke="#ff0000" d="M1935.2141,-68.0037C1945.7088,-87.1831 1958.7466,-114.3025 1964.7866,-140 1989.4401,-244.8896 1987.4538,-276.2814 1968.7866,-382.4 1950.9615,-483.7316 1950.4785,-516.9197 1889.7866,-600 1867.106,-631.0471 1831.9523,-657.1092 1804.375,-674.5334"/>
<polygon fill="#ff0000" stroke="#ff0000" points="1802.3824,-671.6503 1795.713,-679.8825 1806.0604,-677.6062 1802.3824,-671.6503"/>
</g>
<!-- n20&#45;&gt;n37 -->
<g id="edge65" class="edge">
<title>n20&#45;&gt;n37</title>
<path fill="none" stroke="#ff0000" d="M1917.0658,-68.0407C1913.2019,-100.4785 1904.8609,-157.3191 1889.7866,-204 1880.2871,-233.4172 1864.6554,-265.1483 1853.0069,-286.9345"/>
<polygon fill="#ff0000" stroke="#ff0000" points="1849.8274,-285.4554 1848.13,-295.9134 1855.9786,-288.7965 1849.8274,-285.4554"/>
</g>
<!-- n21 -->
<g id="node28" class="node">
<title>n21</title>
<path fill="#ffffff" stroke="#f5f5dc" stroke-width="2" d="M1868.7866,-476C1868.7866,-476 1696.7866,-476 1696.7866,-476 1690.7866,-476 1684.7866,-470 1684.7866,-464 1684.7866,-464 1684.7866,-436 1684.7866,-436 1684.7866,-430 1690.7866,-424 1696.7866,-424 1696.7866,-424 1868.7866,-424 1868.7866,-424 1874.7866,-424 1880.7866,-430 1880.7866,-436 1880.7866,-436 1880.7866,-464 1880.7866,-464 1880.7866,-470 1874.7866,-476 1868.7866,-476"/>
<text text-anchor="start" x="1730.2811" y="-462" font-family="arial" font-weight="bold" font-size="10.00" fill="#000000">Some Non&#45;Culm as SIL</text>
<text text-anchor="start" x="1694.9901" y="-445" font-family="arial" font-size="10.00" fill="#000000">Some part of the non&#45;Culm strata is SIL</text>
<text text-anchor="start" x="1731.6621" y="-433" font-family="arial" font-size="10.00" fill="#000000"> in age #pri #chron&#45;hyp</text>
</g>
<!-- n21&#45;&gt;n35 -->
<g id="edge50" class="edge">
<title>n21&#45;&gt;n35</title>
<path fill="none" stroke="#ff0000" d="M1825.4452,-476.0692C1849.2077,-493.2242 1876.5941,-518.0274 1889.7866,-548 1921.5018,-620.0547 1911.1596,-657.0224 1869.7866,-724 1841.0052,-770.5933 1794.7546,-747.2567 1769.7866,-796 1755.1977,-824.4809 1758.3222,-838.1241 1769.7866,-868 1779.4973,-893.3056 1798.0168,-916.435 1816.4361,-934.8843"/>
<polygon fill="#ff0000" stroke="#ff0000" points="1814.1315,-937.525 1823.745,-941.9782 1819.0068,-932.5019 1814.1315,-937.525"/>
</g>
<!-- n21&#45;&gt;n36 -->
<g id="edge59" class="edge">
<title>n21&#45;&gt;n36</title>
<path fill="none" stroke="#ff0000" d="M1740.128,-476.0692C1716.3655,-493.2242 1688.9792,-518.0274 1675.7866,-548 1666.4761,-569.1527 1667.5802,-578.3949 1675.7866,-600 1686.8409,-629.1028 1710.9343,-655.0931 1730.9693,-672.9834"/>
<polygon fill="#ff0000" stroke="#ff0000" points="1728.8414,-675.7705 1738.6933,-679.6679 1733.4222,-670.4774 1728.8414,-675.7705"/>
</g>
<!-- n21&#45;&gt;n37 -->
<g id="edge84" class="edge">
<title>n21&#45;&gt;n37</title>
<path fill="none" stroke="#00ff00" d="M1793.3912,-423.7778C1802.8963,-400.2742 1816.7982,-365.8987 1826.5051,-341.8961"/>
<polygon fill="#00ff00" stroke="#00ff00" points="1829.8789,-342.8891 1830.3833,-332.3062 1823.3894,-340.2646 1829.8789,-342.8891"/>
</g>
<!-- n22 -->
<g id="node29" class="node">
<title>n22</title>
<path fill="#ffffff" stroke="#f5f5dc" stroke-width="2" d="M1968.7866,-858C1968.7866,-858 1790.7866,-858 1790.7866,-858 1784.7866,-858 1778.7866,-852 1778.7866,-846 1778.7866,-846 1778.7866,-818 1778.7866,-818 1778.7866,-812 1784.7866,-806 1790.7866,-806 1790.7866,-806 1968.7866,-806 1968.7866,-806 1974.7866,-806 1980.7866,-812 1980.7866,-818 1980.7866,-818 1980.7866,-846 1980.7866,-846 1980.7866,-852 1974.7866,-858 1968.7866,-858"/>
<text text-anchor="start" x="1823.6761" y="-844" font-family="arial" font-weight="bold" font-size="10.00" fill="#000000">Some Non&#45;Culm as CAM</text>
<text text-anchor="start" x="1788.3851" y="-827" font-family="arial" font-size="10.00" fill="#000000">Some part of the non&#45;Culm strata is CAM</text>
<text text-anchor="start" x="1828.6621" y="-815" font-family="arial" font-size="10.00" fill="#000000"> in age #pri #chron&#45;hyp</text>
</g>
<!-- n22&#45;&gt;n36 -->
<g id="edge85" class="edge">
<title>n22&#45;&gt;n36</title>
<path fill="none" stroke="#00ff00" d="M1856.9501,-805.8453C1836.2772,-782.1688 1805.996,-747.4877 1785.3945,-723.8927"/>
<polygon fill="#00ff00" stroke="#00ff00" points="1788.0203,-721.5786 1778.8068,-716.3479 1782.7474,-726.1826 1788.0203,-721.5786"/>
</g>
<!-- n22&#45;&gt;n37 -->
<g id="edge86" class="edge">
<title>n22&#45;&gt;n37</title>
<path fill="none" stroke="#00ff00" d="M1887.6547,-805.6635C1893.7033,-783.9746 1901.5539,-752.2997 1904.7866,-724 1919.9378,-591.3627 1926.8067,-552.2643 1889.7866,-424 1881.2653,-394.4761 1865.6371,-362.9861 1853.7307,-341.298"/>
<polygon fill="#00ff00" stroke="#00ff00" points="1856.6622,-339.3692 1848.7245,-332.3518 1850.5535,-342.7875 1856.6622,-339.3692"/>
</g>
<!-- n23 -->
<g id="node30" class="node">
<title>n23</title>
<path fill="#ffffff" stroke="#f5f5dc" stroke-width="2" d="M2008.2866,-1152C2008.2866,-1152 1831.2866,-1152 1831.2866,-1152 1825.2866,-1152 1819.2866,-1146 1819.2866,-1140 1819.2866,-1140 1819.2866,-1100 1819.2866,-1100 1819.2866,-1094 1825.2866,-1088 1831.2866,-1088 1831.2866,-1088 2008.2866,-1088 2008.2866,-1088 2014.2866,-1088 2020.2866,-1094 2020.2866,-1100 2020.2866,-1100 2020.2866,-1140 2020.2866,-1140 2020.2866,-1146 2014.2866,-1152 2008.2866,-1152"/>
<text text-anchor="start" x="1829.7331" y="-1138" font-family="arial" font-weight="bold" font-size="10.00" fill="#000000">Non&#45;Culm as Post&#45;Primary and Pre&#45;NRS</text>
<text text-anchor="start" x="1842.4931" y="-1121" font-family="arial" font-size="10.00" fill="#000000">The non&#45;Culm strata are older than</text>
<text text-anchor="start" x="1836.1031" y="-1109" font-family="arial" font-size="10.00" fill="#000000"> Primary strata and younger than New</text>
<text text-anchor="start" x="1834.4281" y="-1097" font-family="arial" font-size="10.00" fill="#000000"> Red Sandstone strata #pri #chron&#45;hyp</text>
</g>
<!-- n23&#45;&gt;n35 -->
<g id="edge87" class="edge">
<title>n23&#45;&gt;n35</title>
<path fill="none" stroke="#00ff00" d="M1908.2139,-1087.778C1901.4145,-1068.8463 1892.7094,-1044.6085 1885.2092,-1023.7257"/>
<polygon fill="#00ff00" stroke="#00ff00" points="1888.423,-1022.3192 1881.7488,-1014.0908 1881.835,-1024.6853 1888.423,-1022.3192"/>
</g>
<!-- n24 -->
<g id="node31" class="node">
<title>n24</title>
<path fill="#ffffff" stroke="#b8860b" stroke-width="2" d="M1868.7866,-600C1868.7866,-600 1696.7866,-600 1696.7866,-600 1690.7866,-600 1684.7866,-594 1684.7866,-588 1684.7866,-588 1684.7866,-560 1684.7866,-560 1684.7866,-554 1690.7866,-548 1696.7866,-548 1696.7866,-548 1868.7866,-548 1868.7866,-548 1874.7866,-548 1880.7866,-554 1880.7866,-560 1880.7866,-560 1880.7866,-588 1880.7866,-588 1880.7866,-594 1874.7866,-600 1868.7866,-600"/>
<text text-anchor="start" x="1741.1236" y="-586" font-family="arial" font-weight="bold" font-size="10.00" fill="#000000">Non&#45;Culm as CAM</text>
<text text-anchor="start" x="1706.1026" y="-569" font-family="arial" font-size="10.00" fill="#000000">The non&#45;Culm strata is nothing but</text>
<text text-anchor="start" x="1701.9371" y="-557" font-family="arial" font-size="10.00" fill="#000000"> Cambrian in age #GRE #chron&#45;hyp </text>
</g>
<!-- n24&#45;&gt;n18 -->
<g id="edge51" class="edge">
<title>n24&#45;&gt;n18</title>
<path fill="none" stroke="#ff0000" d="M1720.3789,-605.647C1695.4874,-621.8221 1669.5218,-644.0521 1655.7866,-672 1587.0652,-811.8319 1653.7728,-1005.3521 1686.7388,-1084.3061"/>
<polygon fill="#ff0000" stroke="#ff0000" points="1722.4966,-608.4507 1729.1167,-600.1788 1718.7831,-602.5169 1722.4966,-608.4507"/>
<polygon fill="#ff0000" stroke="#ff0000" points="1683.6385,-1085.9597 1690.7703,-1093.7948 1690.0811,-1083.2224 1683.6385,-1085.9597"/>
</g>
<!-- n24&#45;&gt;n19 -->
<g id="edge52" class="edge">
<title>n24&#45;&gt;n19</title>
<path fill="none" stroke="#ff0000" d="M1732.8459,-541.7021C1711.3194,-524.8976 1688.26,-502.3459 1675.7866,-476 1643.804,-408.4475 1645.7587,-213.2147 1660.7866,-140 1665.2554,-118.2282 1674.7716,-95.321 1683.6174,-77.1329"/>
<polygon fill="#ff0000" stroke="#ff0000" points="1730.9066,-544.6235 1740.9959,-547.8572 1735.1253,-539.0375 1730.9066,-544.6235"/>
<polygon fill="#ff0000" stroke="#ff0000" points="1686.8014,-78.5913 1688.1518,-68.0828 1680.543,-75.4556 1686.8014,-78.5913"/>
</g>
<!-- n24&#45;&gt;n20 -->
<g id="edge53" class="edge">
<title>n24&#45;&gt;n20</title>
<path fill="none" stroke="#ff0000" d="M1825.7249,-541.2221C1846.8846,-523.5475 1871.6765,-500.3895 1889.7866,-476 1905.0741,-455.4118 1900.1602,-445.0629 1914.7866,-424 1929.4165,-402.9321 1945.2038,-406.192 1954.7866,-382.4 1996.8183,-278.0448 1957.5147,-141.8139 1934.2077,-77.9679"/>
<polygon fill="#ff0000" stroke="#ff0000" points="1823.3211,-538.6672 1817.8146,-547.7187 1827.7638,-544.0767 1823.3211,-538.6672"/>
<polygon fill="#ff0000" stroke="#ff0000" points="1937.3965,-76.5022 1930.6193,-68.3584 1930.8388,-78.951 1937.3965,-76.5022"/>
</g>
<!-- n24&#45;&gt;n21 -->
<g id="edge54" class="edge">
<title>n24&#45;&gt;n21</title>
<path fill="none" stroke="#ff0000" d="M1782.7866,-537.5647C1782.7866,-521.4378 1782.7866,-502.5132 1782.7866,-486.3914"/>
<polygon fill="#ff0000" stroke="#ff0000" points="1779.2867,-537.7028 1782.7866,-547.7028 1786.2867,-537.7028 1779.2867,-537.7028"/>
<polygon fill="#ff0000" stroke="#ff0000" points="1786.2867,-486.2593 1782.7866,-476.2593 1779.2867,-486.2593 1786.2867,-486.2593"/>
</g>
<!-- n24&#45;&gt;n22 -->
<g id="edge55" class="edge">
<title>n24&#45;&gt;n22</title>
<path fill="none" stroke="#00ff00" d="M1815.2523,-600.379C1834.7894,-618.3207 1858.0773,-643.852 1869.7866,-672 1886.3775,-711.8829 1886.527,-762.2154 1884.0728,-795.668"/>
<polygon fill="#00ff00" stroke="#00ff00" points="1880.5625,-795.6407 1883.202,-805.9015 1887.5373,-796.2343 1880.5625,-795.6407"/>
</g>
<!-- n25 -->
<g id="node32" class="node">
<title>n25</title>
<path fill="#ffffff" stroke="#ff8c00" stroke-width="2" d="M1853.7866,-204C1853.7866,-204 1681.7866,-204 1681.7866,-204 1675.7866,-204 1669.7866,-198 1669.7866,-192 1669.7866,-192 1669.7866,-152 1669.7866,-152 1669.7866,-146 1675.7866,-140 1681.7866,-140 1681.7866,-140 1853.7866,-140 1853.7866,-140 1859.7866,-140 1865.7866,-146 1865.7866,-152 1865.7866,-152 1865.7866,-192 1865.7866,-192 1865.7866,-198 1859.7866,-204 1853.7866,-204"/>
<text text-anchor="start" x="1707.5026" y="-190" font-family="arial" font-weight="bold" font-size="10.00" fill="#000000">Non&#45;Culm as SIL and CAM</text>
<text text-anchor="start" x="1686.9331" y="-173" font-family="arial" font-size="10.00" fill="#000000">In Devon, the non&#45;Culm strata range</text>
<text text-anchor="start" x="1679.7206" y="-161" font-family="arial" font-size="10.00" fill="#000000"> from Cambrian to Silurian in age #COA</text>
<text text-anchor="start" x="1741.3911" y="-149" font-family="arial" font-size="10.00" fill="#000000"> #chron&#45;hyp</text>
</g>
<!-- n25&#45;&gt;n18 -->
<g id="edge60" class="edge">
<title>n25&#45;&gt;n18</title>
<path fill="none" stroke="#ff0000" d="M1725.9242,-211.9126C1711.5427,-227.9691 1696.8077,-247.5262 1687.7866,-268 1579.6152,-513.5005 1610.0382,-599.9822 1621.7866,-868 1624.6783,-933.9677 1613.181,-953.6037 1634.7866,-1016 1643.5178,-1041.2153 1659.6872,-1066.344 1674.0684,-1085.5827"/>
<polygon fill="#ff0000" stroke="#ff0000" points="1728.7189,-214.0451 1732.9293,-204.3228 1723.575,-209.2975 1728.7189,-214.0451"/>
<polygon fill="#ff0000" stroke="#ff0000" points="1671.4434,-1087.9114 1680.3054,-1093.7179 1676.9986,-1083.6523 1671.4434,-1087.9114"/>
</g>
<!-- n25&#45;&gt;n19 -->
<g id="edge61" class="edge">
<title>n25&#45;&gt;n19</title>
<path fill="none" stroke="#ff0000" d="M1747.1511,-130.7289C1738.5733,-113.5734 1728.7174,-93.8617 1720.4772,-77.3812"/>
<polygon fill="#ff0000" stroke="#ff0000" points="1744.1165,-132.4861 1751.7192,-139.8652 1750.3775,-129.3556 1744.1165,-132.4861"/>
<polygon fill="#ff0000" stroke="#ff0000" points="1723.4368,-75.474 1715.8341,-68.0949 1717.1758,-78.6045 1723.4368,-75.474"/>
</g>
<!-- n25&#45;&gt;n20 -->
<g id="edge62" class="edge">
<title>n25&#45;&gt;n20</title>
<path fill="none" stroke="#ff0000" d="M1813.1455,-133.2062C1834.9479,-114.5594 1860.7911,-92.4567 1881.5762,-74.68"/>
<polygon fill="#ff0000" stroke="#ff0000" points="1810.6844,-130.7056 1805.3596,-139.8652 1815.2342,-136.0253 1810.6844,-130.7056"/>
<polygon fill="#ff0000" stroke="#ff0000" points="1883.9509,-77.2545 1889.2756,-68.0949 1879.4011,-71.9348 1883.9509,-77.2545"/>
</g>
<!-- n25&#45;&gt;n21 -->
<g id="edge63" class="edge">
<title>n25&#45;&gt;n21</title>
<path fill="none" stroke="#00ff00" d="M1740.2352,-204.289C1727.0338,-221.8919 1712.632,-244.7829 1705.7866,-268 1691.4074,-316.7688 1684.8151,-336.082 1705.7866,-382.4 1711.8673,-395.83 1722.0807,-407.6492 1733.1138,-417.493"/>
<polygon fill="#00ff00" stroke="#00ff00" points="1730.9349,-420.2337 1740.8423,-423.9879 1735.4385,-414.8747 1730.9349,-420.2337"/>
</g>
<!-- n25&#45;&gt;n22 -->
<g id="edge64" class="edge">
<title>n25&#45;&gt;n22</title>
<path fill="none" stroke="#00ff00" d="M1746.1541,-204.0973C1719.0306,-248.7408 1680.7689,-329.9867 1721.7866,-382.4 1769.1931,-442.977 1839.2823,-365.9804 1889.7866,-424 1982.4695,-530.4746 1924.8371,-718.3312 1894.7178,-796.4137"/>
<polygon fill="#00ff00" stroke="#00ff00" points="1891.4232,-795.228 1891.0181,-805.8151 1897.937,-797.7914 1891.4232,-795.228"/>
</g>
<!-- n35&#45;&gt;n22 -->
<g id="edge75" class="edge">
<title>n35&#45;&gt;n22</title>
<path fill="none" stroke="#00ff00" d="M1871.5057,-941.9101C1873.1973,-919.4575 1875.3653,-890.6832 1877.0586,-868.2085"/>
<polygon fill="#00ff00" stroke="#00ff00" points="1880.5623,-868.2892 1877.8236,-858.0545 1873.5821,-867.7633 1880.5623,-868.2892"/>
</g>
<!-- n36&#45;&gt;n24 -->
<g id="edge76" class="edge">
<title>n36&#45;&gt;n24</title>
<path fill="none" stroke="#00ff00" d="M1765.6948,-679.9693C1768.626,-661.7956 1773.2322,-633.2373 1776.9245,-610.3448"/>
<polygon fill="#00ff00" stroke="#00ff00" points="1780.4104,-610.7127 1778.5474,-600.283 1773.4997,-609.5981 1780.4104,-610.7127"/>
</g>
<!-- n37&#45;&gt;n25 -->
<g id="edge77" class="edge">
<title>n37&#45;&gt;n25</title>
<path fill="none" stroke="#00ff00" d="M1828.7786,-295.7267C1818.572,-275.0219 1801.6095,-240.6121 1788.1603,-213.3295"/>
<polygon fill="#00ff00" stroke="#00ff00" points="1791.1274,-211.4326 1783.5665,-204.0107 1784.8488,-214.5277 1791.1274,-211.4326"/>
</g>
<!-- n26 -->
<g id="node36" class="node">
<title>n26</title>
<path fill="#ffffff" stroke="#b8860b" stroke-width="2" d="M2454.7866,-1152C2454.7866,-1152 2282.7866,-1152 2282.7866,-1152 2276.7866,-1152 2270.7866,-1146 2270.7866,-1140 2270.7866,-1140 2270.7866,-1100 2270.7866,-1100 2270.7866,-1094 2276.7866,-1088 2282.7866,-1088 2282.7866,-1088 2454.7866,-1088 2454.7866,-1088 2460.7866,-1088 2466.7866,-1094 2466.7866,-1100 2466.7866,-1100 2466.7866,-1140 2466.7866,-1140 2466.7866,-1146 2460.7866,-1152 2454.7866,-1152"/>
<text text-anchor="start" x="2320.7306" y="-1138" font-family="arial" font-weight="bold" font-size="10.00" fill="#000000">Traversing Northward</text>
<text text-anchor="start" x="2289.3211" y="-1121" font-family="arial" font-size="10.00" fill="#000000">The strata south of Exmoor become</text>
<text text-anchor="start" x="2286.2626" y="-1109" font-family="arial" font-size="10.00" fill="#000000"> progessively younger the furhter one</text>
<text text-anchor="start" x="2281.8271" y="-1097" font-family="arial" font-size="10.00" fill="#000000"> traverses northward #GRE #chron&#45;hyp</text>
</g>
<!-- n27 -->
<g id="node37" class="node">
<title>n27</title>
<path fill="#ffffff" stroke="#b8860b" stroke-width="2" d="M2236.7866,-1016C2236.7866,-1016 2060.7866,-1016 2060.7866,-1016 2054.7866,-1016 2048.7866,-1010 2048.7866,-1004 2048.7866,-1004 2048.7866,-952 2048.7866,-952 2048.7866,-946 2054.7866,-940 2060.7866,-940 2060.7866,-940 2236.7866,-940 2236.7866,-940 2242.7866,-940 2248.7866,-946 2248.7866,-952 2248.7866,-952 2248.7866,-1004 2248.7866,-1004 2248.7866,-1010 2242.7866,-1016 2236.7866,-1016"/>
<text text-anchor="start" x="2072.6551" y="-1002" font-family="arial" font-weight="bold" font-size="10.00" fill="#000000">Exmoor Youngest Devonian strata</text>
<text text-anchor="start" x="2069.5986" y="-985" font-family="arial" font-size="10.00" fill="#000000">In Devon, among all the strata older</text>
<text text-anchor="start" x="2058.4751" y="-973" font-family="arial" font-size="10.00" fill="#000000"> than the New Red Sandstone, the strata</text>
<text text-anchor="start" x="2070.9861" y="-961" font-family="arial" font-size="10.00" fill="#000000"> of Exmoor are the youngest #GRE</text>
<text text-anchor="start" x="2122.3911" y="-949" font-family="arial" font-size="10.00" fill="#000000"> #chron&#45;hyp</text>
</g>
<!-- n28 -->
<g id="node38" class="node">
<title>n28</title>
<path fill="#ffffff" stroke="#ff8c00" stroke-width="2" d="M2240.2866,-1152C2240.2866,-1152 2057.2866,-1152 2057.2866,-1152 2051.2866,-1152 2045.2866,-1146 2045.2866,-1140 2045.2866,-1140 2045.2866,-1100 2045.2866,-1100 2045.2866,-1094 2051.2866,-1088 2057.2866,-1088 2057.2866,-1088 2240.2866,-1088 2240.2866,-1088 2246.2866,-1088 2252.2866,-1094 2252.2866,-1100 2252.2866,-1100 2252.2866,-1140 2252.2866,-1140 2252.2866,-1146 2246.2866,-1152 2240.2866,-1152"/>
<text text-anchor="start" x="2077.8801" y="-1138" font-family="arial" font-weight="bold" font-size="10.00" fill="#000000">Culm Youngest Devonian Strata</text>
<text text-anchor="start" x="2070.0986" y="-1121" font-family="arial" font-size="10.00" fill="#000000">In Devon, among all the strata older</text>
<text text-anchor="start" x="2059.8146" y="-1109" font-family="arial" font-size="10.00" fill="#000000"> than the New Red Sandstone, the Culm</text>
<text text-anchor="start" x="2055.3691" y="-1097" font-family="arial" font-size="10.00" fill="#000000"> strata are the youngest #COA #chron&#45;hyp</text>
</g>
<!-- n28&#45;&gt;n27 -->
<g id="edge68" class="edge">
<title>n28&#45;&gt;n27</title>
<path fill="none" stroke="#ff0000" d="M2148.7866,-1077.6314C2148.7866,-1061.4639 2148.7866,-1042.9172 2148.7866,-1026.243"/>
<polygon fill="#ff0000" stroke="#ff0000" points="2145.2867,-1077.778 2148.7866,-1087.778 2152.2867,-1077.778 2145.2867,-1077.778"/>
<polygon fill="#ff0000" stroke="#ff0000" points="2152.2867,-1026.1409 2148.7866,-1016.1409 2145.2867,-1026.141 2152.2867,-1026.1409"/>
</g>
</g>
</svg>
