
<!-- Generated by graphviz version 2.40.1 (20161225.0304)
 -->
<!-- Title: Argument Map Pages: 1 -->
<svg width="720pt" height="168pt"
 viewBox="0.00 0.00 720.00 168.13" xmlns="http://www.w3.org/2000/svg" xmlns:xlink="http://www.w3.org/1999/xlink">
<g id="graph0" class="graph" transform="scale(.2194 .2194) rotate(0) translate(4 762.4)">
<title>Argument Map</title>
<g id="clust5" class="cluster">
<title>cluster_5</title>
<polygon fill="#e6e6fa" stroke="#e6e6fa" points="2836,-494 2836,-750.4 3266,-750.4 3266,-494 2836,-494"/>
<text text-anchor="start" x="2980.9752" y="-735.6" font-family="arial" font-size="12.00" fill="#000000">Youngest Devonian Strata</text>
</g>
<g id="clust1" class="cluster">
<title>cluster_1</title>
<polygon fill="#c6e2ff" stroke="#c6e2ff" points="8,-642 8,-744.4 224,-744.4 224,-642 8,-642"/>
<text text-anchor="start" x="32.3132" y="-729.6" font-family="arial" font-size="12.00" fill="#000000">Aporia I : Coal in Ancient Strata</text>
</g>
<g id="clust4" class="cluster">
<title>cluster_4</title>
<polygon fill="#d8bfd8" stroke="#d8bfd8" points="1968,-132 1968,-738.4 2828,-738.4 2828,-132 1968,-132"/>
<text text-anchor="start" x="2335.3252" y="-723.6" font-family="arial" font-size="12.00" fill="#000000">Dating of the Non&#45;Culm</text>
</g>
<g id="clust2" class="cluster">
<title>cluster_2</title>
<polygon fill="#ffe1ff" stroke="#ffe1ff" points="232,-8 232,-738.4 1098,-738.4 1098,-8 232,-8"/>
<text text-anchor="start" x="600.6578" y="-723.6" font-family="arial" font-size="12.00" fill="#000000">Dating of the Main Culm</text>
</g>
<g id="clust3" class="cluster">
<title>cluster_3</title>
<polygon fill="#eed2ee" stroke="#eed2ee" points="1106,-8 1106,-738.4 1960,-738.4 1960,-8 1106,-8"/>
<text text-anchor="start" x="1453.9842" y="-723.6" font-family="arial" font-size="12.00" fill="#000000">Dating of the Culm Limestone</text>
</g>
<!-- n0 -->
<g id="node1" class="node">
<title>n0</title>
<path fill="#ffffff" stroke="#f4a460" stroke-width="2" d="M204,-714C204,-714 28,-714 28,-714 22,-714 16,-708 16,-702 16,-702 16,-662 16,-662 16,-656 22,-650 28,-650 28,-650 204,-650 204,-650 210,-650 216,-656 216,-662 216,-662 216,-702 216,-702 216,-708 210,-714 204,-714"/>
<text text-anchor="start" x="56.2565" y="-700" font-family="arial" font-weight="bold" font-size="10.00" fill="#000000">Instances of Ancient Strata</text>
<text text-anchor="start" x="25.9725" y="-683" font-family="arial" font-size="10.00" fill="#000000">In Munster and Pennsylvannia, there are</text>
<text text-anchor="start" x="33.201" y="-671" font-family="arial" font-size="10.00" fill="#000000"> pre&#45;Old Red Sandstone strata #GRE</text>
<text text-anchor="start" x="89.6045" y="-659" font-family="arial" font-size="10.00" fill="#000000"> #chron&#45;hyp</text>
</g>
<!-- n1 -->
<g id="node2" class="node">
<title>n1</title>
<path fill="#ffffff" stroke="#f4a460" stroke-width="2" d="M737,-192C737,-192 565,-192 565,-192 559,-192 553,-186 553,-180 553,-180 553,-152 553,-152 553,-146 559,-140 565,-140 565,-140 737,-140 737,-140 743,-140 749,-146 749,-152 749,-152 749,-180 749,-180 749,-186 743,-192 737,-192"/>
<text text-anchor="start" x="607.9475" y="-178" font-family="arial" font-weight="bold" font-size="10.00" fill="#000000">Main Culm as CAM</text>
<text text-anchor="start" x="565.9925" y="-161" font-family="arial" font-size="10.00" fill="#000000">The whole of the main Culm is CAM in</text>
<text text-anchor="start" x="598.4845" y="-149" font-family="arial" font-size="10.00" fill="#000000"> age #GRE #chron&#45;hyp </text>
</g>
<!-- n4 -->
<g id="node3" class="node">
<title>n4</title>
<path fill="#ffffff" stroke="#ffc1c1" stroke-width="2" d="M740,-68C740,-68 562,-68 562,-68 556,-68 550,-62 550,-56 550,-56 550,-28 550,-28 550,-22 556,-16 562,-16 562,-16 740,-16 740,-16 746,-16 752,-22 752,-28 752,-28 752,-56 752,-56 752,-62 746,-68 740,-68"/>
<text text-anchor="start" x="611.282" y="-54" font-family="arial" font-weight="bold" font-size="10.00" fill="#000000">Main Culm as CM</text>
<text text-anchor="start" x="559.599" y="-37" font-family="arial" font-size="10.00" fill="#000000">The whole of the main Culm is CM in age</text>
<text text-anchor="start" x="608.2125" y="-25" font-family="arial" font-size="10.00" fill="#000000"> #COA #chron&#45;hyp </text>
</g>
<!-- n1&#45;&gt;n4 -->
<g id="edge14" class="edge">
<title>n1&#45;&gt;n4</title>
<path fill="none" stroke="#ff0000" d="M645.364,-139.7028C644.1042,-121.8654 643.9129,-98.0471 644.7902,-78.3935"/>
<polygon fill="#ff0000" stroke="#ff0000" points="648.293,-78.442 645.3667,-68.2593 641.3043,-78.0443 648.293,-78.442"/>
</g>
<!-- n4&#45;&gt;n1 -->
<g id="edge13" class="edge">
<title>n4&#45;&gt;n1</title>
<path fill="none" stroke="#ff0000" d="M656.6333,-68.2593C657.8946,-86.0882 658.0874,-109.9052 657.2117,-129.5647"/>
<polygon fill="#ff0000" stroke="#ff0000" points="653.7087,-129.5204 656.636,-139.7028 660.6974,-129.9173 653.7087,-129.5204"/>
</g>
<!-- n6 -->
<g id="node4" class="node">
<title>n6</title>
<path fill="#ffffff" stroke="#ffe4b5" stroke-width="2" d="M1078,-708C1078,-708 900,-708 900,-708 894,-708 888,-702 888,-696 888,-696 888,-668 888,-668 888,-662 894,-656 900,-656 900,-656 1078,-656 1078,-656 1084,-656 1090,-662 1090,-668 1090,-668 1090,-696 1090,-696 1090,-702 1084,-708 1078,-708"/>
<text text-anchor="start" x="934.8345" y="-694" font-family="arial" font-weight="bold" font-size="10.00" fill="#000000">Some Main Culm as CM</text>
<text text-anchor="start" x="897.599" y="-677" font-family="arial" font-size="10.00" fill="#000000">Some part of the main Culm is CM in age</text>
<text text-anchor="start" x="952.882" y="-665" font-family="arial" font-size="10.00" fill="#000000"> #pri #chron&#45;hyp</text>
</g>
<!-- n24 -->
<g id="node9" class="node">
<title>n24</title>
<path fill="#ffe4b5" stroke="#000000" d="M746,-570C746,-570 574,-570 574,-570 568,-570 562,-564 562,-558 562,-558 562,-510 562,-510 562,-504 568,-498 574,-498 574,-498 746,-498 746,-498 752,-498 758,-504 758,-510 758,-510 758,-558 758,-558 758,-564 752,-570 746,-570"/>
<text text-anchor="start" x="574.1425" y="-556" font-family="arial" font-weight="bold" font-size="10.00" fill="#000000">Standard Sequence as Partition &#45; Main</text>
<text text-anchor="start" x="646.9475" y="-546" font-family="arial" font-weight="bold" font-size="10.00" fill="#000000"> Culm</text>
<text text-anchor="start" x="574.9975" y="-531" font-family="arial" font-size="10.00" fill="#000000">If some main Culm strata is neiter CM,</text>
<text text-anchor="start" x="574.9835" y="-519" font-family="arial" font-size="10.00" fill="#000000"> ML, OR nor SIL in age, then it is CAM</text>
<text text-anchor="start" x="608.8755" y="-507" font-family="arial" font-size="10.00" fill="#000000"> in age #pri #chron&#45;hyp</text>
</g>
<!-- n6&#45;&gt;n24 -->
<g id="edge1" class="edge">
<title>n6&#45;&gt;n24</title>
<path fill="none" stroke="#ff0000" d="M930.9387,-655.8813C880.684,-633.2742 807.2028,-600.2189 749.4395,-574.2342"/>
<polygon fill="#ff0000" stroke="#ff0000" points="750.8655,-571.0379 740.3098,-570.1272 747.9937,-577.4217 750.8655,-571.0379"/>
</g>
<!-- n25 -->
<g id="node10" class="node">
<title>n25</title>
<path fill="#f4a460" stroke="#000000" d="M689,-300C689,-300 517,-300 517,-300 511,-300 505,-294 505,-288 505,-288 505,-276 505,-276 505,-270 511,-264 517,-264 517,-264 689,-264 689,-264 695,-264 701,-270 701,-276 701,-276 701,-288 701,-288 701,-294 695,-300 689,-300"/>
<text text-anchor="start" x="535.494" y="-280" font-family="arial" font-weight="bold" font-size="10.00" fill="#000000">Dating the Main Culm &#45; GRE.1</text>
</g>
<!-- n6&#45;&gt;n25 -->
<g id="edge5" class="edge">
<title>n6&#45;&gt;n25</title>
<path fill="none" stroke="#ff0000" d="M968.6586,-655.6572C951.7801,-633.5773 927.3385,-601.0855 907,-572 846.1071,-484.9189 854.8046,-443.2804 776,-372 743.0403,-342.1873 698.3945,-319.2846 662.7134,-304.0443"/>
<polygon fill="#ff0000" stroke="#ff0000" points="663.9537,-300.7693 653.3774,-300.1427 661.2545,-307.228 663.9537,-300.7693"/>
</g>
<!-- n26 -->
<g id="node11" class="node">
<title>n26</title>
<path fill="#ffc1c1" stroke="#000000" d="M903,-300C903,-300 731,-300 731,-300 725,-300 719,-294 719,-288 719,-288 719,-276 719,-276 719,-270 725,-264 731,-264 731,-264 903,-264 903,-264 909,-264 915,-270 915,-276 915,-276 915,-288 915,-288 915,-294 909,-300 903,-300"/>
<text text-anchor="start" x="743.935" y="-280" font-family="arial" font-weight="bold" font-size="10.00" fill="#000000">Redating the Main Culm &#45; COA.1</text>
</g>
<!-- n6&#45;&gt;n26 -->
<g id="edge47" class="edge">
<title>n6&#45;&gt;n26</title>
<path fill="none" stroke="#00ff00" d="M977.7146,-655.7549C946.7358,-583.7111 860.5815,-383.3524 828.8935,-309.6592"/>
<polygon fill="#00ff00" stroke="#00ff00" points="831.9607,-307.9321 824.795,-300.128 825.53,-310.6973 831.9607,-307.9321"/>
</g>
<!-- n7 -->
<g id="node5" class="node">
<title>n7</title>
<path fill="#ffffff" stroke="#ffe4b5" stroke-width="2" d="M857.5,-708C857.5,-708 680.5,-708 680.5,-708 674.5,-708 668.5,-702 668.5,-696 668.5,-696 668.5,-668 668.5,-668 668.5,-662 674.5,-656 680.5,-656 680.5,-656 857.5,-656 857.5,-656 863.5,-656 869.5,-662 869.5,-668 869.5,-668 869.5,-696 869.5,-696 869.5,-702 863.5,-708 857.5,-708"/>
<text text-anchor="start" x="716.1645" y="-694" font-family="arial" font-weight="bold" font-size="10.00" fill="#000000">Some Main Culm as ML</text>
<text text-anchor="start" x="678.929" y="-677" font-family="arial" font-size="10.00" fill="#000000">Some part of the main Culm is ML in age</text>
<text text-anchor="start" x="733.382" y="-665" font-family="arial" font-size="10.00" fill="#000000"> #pri #chron&#45;hyp</text>
</g>
<!-- n7&#45;&gt;n24 -->
<g id="edge2" class="edge">
<title>n7&#45;&gt;n24</title>
<path fill="none" stroke="#ff0000" d="M749.7639,-655.8813C734.0049,-634.4837 711.3521,-603.7258 692.7461,-578.4626"/>
<polygon fill="#ff0000" stroke="#ff0000" points="695.3556,-576.1036 686.6072,-570.1272 689.7192,-580.2547 695.3556,-576.1036"/>
</g>
<!-- n7&#45;&gt;n25 -->
<g id="edge6" class="edge">
<title>n7&#45;&gt;n25</title>
<path fill="none" stroke="#ff0000" d="M770.3271,-655.9268C773.6952,-585.6626 781.333,-396.0379 767,-372 747.4633,-339.235 711.33,-317.5901 677.9425,-303.7586"/>
<polygon fill="#ff0000" stroke="#ff0000" points="679.2005,-300.4924 668.6144,-300.0618 676.6215,-307 679.2005,-300.4924"/>
</g>
<!-- n7&#45;&gt;n26 -->
<g id="edge9" class="edge">
<title>n7&#45;&gt;n26</title>
<path fill="none" stroke="#ff0000" d="M772.5642,-655.6532C778.8324,-608.9971 792.1026,-508.7701 802,-424 806.5885,-384.6999 811.2862,-339.2067 814.1733,-310.5197"/>
<polygon fill="#ff0000" stroke="#ff0000" points="817.6731,-310.695 815.1871,-300.3959 810.708,-309.9974 817.6731,-310.695"/>
</g>
<!-- n8 -->
<g id="node6" class="node">
<title>n8</title>
<path fill="#ffffff" stroke="#ffe4b5" stroke-width="2" d="M638,-708C638,-708 466,-708 466,-708 460,-708 454,-702 454,-696 454,-696 454,-668 454,-668 454,-662 460,-656 466,-656 466,-656 638,-656 638,-656 644,-656 650,-662 650,-668 650,-668 650,-696 650,-696 650,-702 644,-708 638,-708"/>
<text text-anchor="start" x="494.775" y="-694" font-family="arial" font-weight="bold" font-size="10.00" fill="#000000">Some Main Culm as ORS</text>
<text text-anchor="start" x="467.2675" y="-677" font-family="arial" font-size="10.00" fill="#000000">Some part of the main Culm is ORS in</text>
<text text-anchor="start" x="506.154" y="-665" font-family="arial" font-size="10.00" fill="#000000"> age #pri #chron&#45;hyp</text>
</g>
<!-- n8&#45;&gt;n24 -->
<g id="edge3" class="edge">
<title>n8&#45;&gt;n24</title>
<path fill="none" stroke="#ff0000" d="M571.0596,-655.8813C586.6741,-634.4837 609.119,-603.7258 627.5543,-578.4626"/>
<polygon fill="#ff0000" stroke="#ff0000" points="630.5694,-580.2683 633.6369,-570.1272 624.9149,-576.142 630.5694,-580.2683"/>
</g>
<!-- n8&#45;&gt;n25 -->
<g id="edge7" class="edge">
<title>n8&#45;&gt;n25</title>
<path fill="none" stroke="#ff0000" d="M546.8317,-655.8428C537.1935,-601.39 520.2635,-472.5614 553,-372 560.3502,-349.4213 573.536,-326.0406 584.5217,-308.7702"/>
<polygon fill="#ff0000" stroke="#ff0000" points="587.4933,-310.6209 590.0234,-300.3325 581.6297,-306.7975 587.4933,-310.6209"/>
</g>
<!-- n8&#45;&gt;n26 -->
<g id="edge10" class="edge">
<title>n8&#45;&gt;n26</title>
<path fill="none" stroke="#ff0000" d="M548.5225,-655.9516C543.0299,-610.4773 534.7324,-519.055 553,-494 611.9551,-413.1401 695.4509,-493.9625 767,-424 798.2282,-393.4643 809.9922,-342.2866 814.3966,-310.4275"/>
<polygon fill="#ff0000" stroke="#ff0000" points="817.8803,-310.7736 815.6257,-300.4214 810.9326,-309.9201 817.8803,-310.7736"/>
</g>
<!-- n9 -->
<g id="node7" class="node">
<title>n9</title>
<path fill="#ffffff" stroke="#ffe4b5" stroke-width="2" d="M424,-708C424,-708 252,-708 252,-708 246,-708 240,-702 240,-696 240,-696 240,-668 240,-668 240,-662 246,-656 252,-656 252,-656 424,-656 424,-656 430,-656 436,-662 436,-668 436,-668 436,-696 436,-696 436,-702 430,-708 424,-708"/>
<text text-anchor="start" x="284.105" y="-694" font-family="arial" font-weight="bold" font-size="10.00" fill="#000000">Some Main Culm as SIL</text>
<text text-anchor="start" x="256.5975" y="-677" font-family="arial" font-size="10.00" fill="#000000">Some part of the main Culm is SIL in</text>
<text text-anchor="start" x="292.154" y="-665" font-family="arial" font-size="10.00" fill="#000000"> age #pri #chron&#45;hyp</text>
</g>
<!-- n9&#45;&gt;n24 -->
<g id="edge4" class="edge">
<title>n9&#45;&gt;n24</title>
<path fill="none" stroke="#ff0000" d="M394.8259,-655.8813C443.9102,-633.3208 515.6333,-600.3549 572.1143,-574.3947"/>
<polygon fill="#ff0000" stroke="#ff0000" points="573.7744,-577.4837 581.3989,-570.1272 570.851,-571.1234 573.7744,-577.4837"/>
</g>
<!-- n9&#45;&gt;n25 -->
<g id="edge8" class="edge">
<title>n9&#45;&gt;n25</title>
<path fill="none" stroke="#ff0000" d="M354.1414,-655.9789C387.5753,-602.3083 467.1982,-475.6628 538,-372 552.8536,-350.2524 570.3689,-326.0802 583.4728,-308.2674"/>
<polygon fill="#ff0000" stroke="#ff0000" points="586.3988,-310.1969 589.5203,-300.0723 580.7663,-306.0405 586.3988,-310.1969"/>
</g>
<!-- n9&#45;&gt;n26 -->
<g id="edge11" class="edge">
<title>n9&#45;&gt;n26</title>
<path fill="none" stroke="#ff0000" d="M364.6328,-655.7114C385.7432,-634.1914 415.3545,-602.4398 438,-572 483.8141,-510.4173 490.0313,-491.2657 527,-424 539.4452,-401.3556 533.5375,-388.9961 553,-372 580.6373,-347.8651 668.0694,-320.7653 734.8164,-302.6688"/>
<polygon fill="#ff0000" stroke="#ff0000" points="735.7555,-306.0407 744.5046,-300.0656 733.9389,-299.2805 735.7555,-306.0407"/>
</g>
<!-- n10 -->
<g id="node8" class="node">
<title>n10</title>
<path fill="#ffffff" stroke="#ffe4b5" stroke-width="2" d="M746,-424C746,-424 574,-424 574,-424 568,-424 562,-418 562,-412 562,-412 562,-384 562,-384 562,-378 568,-372 574,-372 574,-372 746,-372 746,-372 752,-372 758,-378 758,-384 758,-384 758,-412 758,-412 758,-418 752,-424 746,-424"/>
<text text-anchor="start" x="602.5" y="-410" font-family="arial" font-weight="bold" font-size="10.00" fill="#000000">Some Main Culm as CAM</text>
<text text-anchor="start" x="574.9925" y="-393" font-family="arial" font-size="10.00" fill="#000000">Some part of the main Culm is CAM in</text>
<text text-anchor="start" x="614.154" y="-381" font-family="arial" font-size="10.00" fill="#000000"> age #pri #chron&#45;hyp</text>
</g>
<!-- n10&#45;&gt;n25 -->
<g id="edge48" class="edge">
<title>n10&#45;&gt;n25</title>
<path fill="none" stroke="#00ff00" d="M647.2081,-371.9673C637.9981,-353.2242 625.6053,-328.0039 616.2845,-309.0351"/>
<polygon fill="#00ff00" stroke="#00ff00" points="619.4049,-307.449 611.8535,-300.0176 613.1224,-310.5362 619.4049,-307.449"/>
</g>
<!-- n10&#45;&gt;n26 -->
<g id="edge12" class="edge">
<title>n10&#45;&gt;n26</title>
<path fill="none" stroke="#ff0000" d="M695.2339,-371.9673C721.9918,-352.1972 758.5032,-325.2205 784.5505,-305.9754"/>
<polygon fill="#ff0000" stroke="#ff0000" points="786.6512,-308.7751 792.6141,-300.0176 782.4914,-303.1451 786.6512,-308.7751"/>
</g>
<!-- n24&#45;&gt;n10 -->
<g id="edge39" class="edge">
<title>n24&#45;&gt;n10</title>
<path fill="none" stroke="#00ff00" d="M660,-497.9116C660,-478.3005 660,-454.1097 660,-434.4438"/>
<polygon fill="#00ff00" stroke="#00ff00" points="663.5001,-434.3317 660,-424.3317 656.5001,-434.3318 663.5001,-434.3317"/>
</g>
<!-- n25&#45;&gt;n1 -->
<g id="edge40" class="edge">
<title>n25&#45;&gt;n1</title>
<path fill="none" stroke="#00ff00" d="M610.5,-263.875C617.3742,-247.2623 627.7488,-222.1904 636.2766,-201.5817"/>
<polygon fill="#00ff00" stroke="#00ff00" points="639.5785,-202.7557 640.168,-192.1773 633.1104,-200.0792 639.5785,-202.7557"/>
</g>
<!-- n26&#45;&gt;n4 -->
<g id="edge41" class="edge">
<title>n26&#45;&gt;n4</title>
<path fill="none" stroke="#00ff00" d="M812.9916,-263.9685C805.7567,-234.2992 788.3744,-174.2678 758,-132 742.0639,-109.824 719.4704,-89.7579 699.1483,-74.2299"/>
<polygon fill="#00ff00" stroke="#00ff00" points="701.0091,-71.2515 690.9012,-68.0765 696.823,-76.8619 701.0091,-71.2515"/>
</g>
<!-- n2 -->
<g id="node12" class="node">
<title>n2</title>
<path fill="#ffffff" stroke="#f4a460" stroke-width="2" d="M1609,-192C1609,-192 1433,-192 1433,-192 1427,-192 1421,-186 1421,-180 1421,-180 1421,-152 1421,-152 1421,-146 1427,-140 1433,-140 1433,-140 1609,-140 1609,-140 1615,-140 1621,-146 1621,-152 1621,-152 1621,-180 1621,-180 1621,-186 1615,-192 1609,-192"/>
<text text-anchor="start" x="1492.1095" y="-178" font-family="arial" font-weight="bold" font-size="10.00" fill="#000000">BCL as CAM</text>
<text text-anchor="start" x="1430.7025" y="-161" font-family="arial" font-size="10.00" fill="#000000">The black Culm Limestone is nothing but</text>
<text text-anchor="start" x="1440.1505" y="-149" font-family="arial" font-size="10.00" fill="#000000"> Cambrian in age #GRE #chron&#45;hyp </text>
</g>
<!-- n5 -->
<g id="node13" class="node">
<title>n5</title>
<path fill="#ffffff" stroke="#ffc1c1" stroke-width="2" d="M1611.5,-68C1611.5,-68 1430.5,-68 1430.5,-68 1424.5,-68 1418.5,-62 1418.5,-56 1418.5,-56 1418.5,-28 1418.5,-28 1418.5,-22 1424.5,-16 1430.5,-16 1430.5,-16 1611.5,-16 1611.5,-16 1617.5,-16 1623.5,-22 1623.5,-28 1623.5,-28 1623.5,-56 1623.5,-56 1623.5,-62 1617.5,-68 1611.5,-68"/>
<text text-anchor="start" x="1495.944" y="-54" font-family="arial" font-weight="bold" font-size="10.00" fill="#000000">BCL as CM</text>
<text text-anchor="start" x="1431.2025" y="-37" font-family="arial" font-size="10.00" fill="#000000">The black Culm Limestone is nothing but</text>
<text text-anchor="start" x="1428.702" y="-25" font-family="arial" font-size="10.00" fill="#000000"> Coal Mesaures in age #COA #chron&#45;hyp </text>
</g>
<!-- n2&#45;&gt;n5 -->
<g id="edge28" class="edge">
<title>n2&#45;&gt;n5</title>
<path fill="none" stroke="#ff0000" d="M1515.364,-139.7028C1514.1042,-121.8654 1513.9129,-98.0471 1514.7902,-78.3935"/>
<polygon fill="#ff0000" stroke="#ff0000" points="1518.293,-78.442 1515.3667,-68.2593 1511.3043,-78.0443 1518.293,-78.442"/>
</g>
<!-- n5&#45;&gt;n2 -->
<g id="edge27" class="edge">
<title>n5&#45;&gt;n2</title>
<path fill="none" stroke="#ff0000" d="M1526.6333,-68.2593C1527.8946,-86.0882 1528.0874,-109.9052 1527.2117,-129.5647"/>
<polygon fill="#ff0000" stroke="#ff0000" points="1523.7087,-129.5204 1526.636,-139.7028 1530.6974,-129.9173 1523.7087,-129.5204"/>
</g>
<!-- n11 -->
<g id="node14" class="node">
<title>n11</title>
<path fill="#ffffff" stroke="#ffe4b5" stroke-width="2" d="M1940,-708C1940,-708 1768,-708 1768,-708 1762,-708 1756,-702 1756,-696 1756,-696 1756,-668 1756,-668 1756,-662 1762,-656 1768,-656 1768,-656 1940,-656 1940,-656 1946,-656 1952,-662 1952,-668 1952,-668 1952,-696 1952,-696 1952,-702 1946,-708 1940,-708"/>
<text text-anchor="start" x="1813.9965" y="-694" font-family="arial" font-weight="bold" font-size="10.00" fill="#000000">Some BCL as CM</text>
<text text-anchor="start" x="1766.482" y="-677" font-family="arial" font-size="10.00" fill="#000000">Some part of the black Culm Limestone</text>
<text text-anchor="start" x="1788.713" y="-665" font-family="arial" font-size="10.00" fill="#000000"> is CM in age #pri #chron&#45;hyp</text>
</g>
<!-- n27 -->
<g id="node19" class="node">
<title>n27</title>
<path fill="#ffe4b5" stroke="#000000" d="M1621,-572C1621,-572 1445,-572 1445,-572 1439,-572 1433,-566 1433,-560 1433,-560 1433,-508 1433,-508 1433,-502 1439,-496 1445,-496 1445,-496 1621,-496 1621,-496 1627,-496 1633,-502 1633,-508 1633,-508 1633,-560 1633,-560 1633,-566 1627,-572 1621,-572"/>
<text text-anchor="start" x="1448.252" y="-558" font-family="arial" font-weight="bold" font-size="10.00" fill="#000000">Standard Sequence as Partition &#45; BCL</text>
<text text-anchor="start" x="1466.5985" y="-541" font-family="arial" font-size="10.00" fill="#000000">If some part of the black Culm</text>
<text text-anchor="start" x="1442.9885" y="-529" font-family="arial" font-size="10.00" fill="#000000"> Limestone is neiter CM, ML, OR nor SIL</text>
<text text-anchor="start" x="1459.372" y="-517" font-family="arial" font-size="10.00" fill="#000000"> in age, then it is CAM in age #pri</text>
<text text-anchor="start" x="1506.6045" y="-505" font-family="arial" font-size="10.00" fill="#000000"> #chron&#45;hyp</text>
</g>
<!-- n11&#45;&gt;n27 -->
<g id="edge15" class="edge">
<title>n11&#45;&gt;n27</title>
<path fill="none" stroke="#ff0000" d="M1797.3506,-655.8813C1749.6121,-633.871 1680.3927,-601.9568 1624.7593,-576.3065"/>
<polygon fill="#ff0000" stroke="#ff0000" points="1626.147,-573.0922 1615.6003,-572.0836 1623.2161,-579.4491 1626.147,-573.0922"/>
</g>
<!-- n28 -->
<g id="node20" class="node">
<title>n28</title>
<path fill="#f4a460" stroke="#000000" d="M1560,-300C1560,-300 1388,-300 1388,-300 1382,-300 1376,-294 1376,-288 1376,-288 1376,-276 1376,-276 1376,-270 1382,-264 1388,-264 1388,-264 1560,-264 1560,-264 1566,-264 1572,-270 1572,-276 1572,-276 1572,-288 1572,-288 1572,-294 1566,-300 1560,-300"/>
<text text-anchor="start" x="1420.656" y="-280" font-family="arial" font-weight="bold" font-size="10.00" fill="#000000">Dating the BCL &#45; GRE.1</text>
</g>
<!-- n11&#45;&gt;n28 -->
<g id="edge19" class="edge">
<title>n11&#45;&gt;n28</title>
<path fill="none" stroke="#ff0000" d="M1834.3594,-655.6629C1818.0726,-633.5863 1794.5116,-601.0963 1775,-572 1716.6191,-484.9407 1727.2346,-442.8694 1650,-372 1617.0384,-341.7549 1572.0124,-318.9762 1535.754,-303.902"/>
<polygon fill="#ff0000" stroke="#ff0000" points="1536.8407,-300.5658 1526.2586,-300.0456 1534.2066,-307.0513 1536.8407,-300.5658"/>
</g>
<!-- n29 -->
<g id="node21" class="node">
<title>n29</title>
<path fill="#ffc1c1" stroke="#000000" d="M1774,-300C1774,-300 1602,-300 1602,-300 1596,-300 1590,-294 1590,-288 1590,-288 1590,-276 1590,-276 1590,-270 1596,-264 1602,-264 1602,-264 1774,-264 1774,-264 1780,-264 1786,-270 1786,-276 1786,-276 1786,-288 1786,-288 1786,-294 1780,-300 1774,-300"/>
<text text-anchor="start" x="1629.097" y="-280" font-family="arial" font-weight="bold" font-size="10.00" fill="#000000">Redating the BCL &#45; COA.1</text>
</g>
<!-- n11&#45;&gt;n29 -->
<g id="edge49" class="edge">
<title>n11&#45;&gt;n29</title>
<path fill="none" stroke="#00ff00" d="M1843.1083,-655.7549C1813.2101,-583.7111 1730.0612,-383.3524 1699.4786,-309.6592"/>
<polygon fill="#00ff00" stroke="#00ff00" points="1702.5889,-308.0227 1695.5231,-300.128 1696.1235,-310.7058 1702.5889,-308.0227"/>
</g>
<!-- n12 -->
<g id="node15" class="node">
<title>n12</title>
<path fill="#ffffff" stroke="#ffe4b5" stroke-width="2" d="M1726,-708C1726,-708 1554,-708 1554,-708 1548,-708 1542,-702 1542,-696 1542,-696 1542,-668 1542,-668 1542,-662 1548,-656 1554,-656 1554,-656 1726,-656 1726,-656 1732,-656 1738,-662 1738,-668 1738,-668 1738,-696 1738,-696 1738,-702 1732,-708 1726,-708"/>
<text text-anchor="start" x="1600.8265" y="-694" font-family="arial" font-weight="bold" font-size="10.00" fill="#000000">Some BCL as ML</text>
<text text-anchor="start" x="1552.482" y="-677" font-family="arial" font-size="10.00" fill="#000000">Some part of the black Culm Limestone</text>
<text text-anchor="start" x="1575.543" y="-665" font-family="arial" font-size="10.00" fill="#000000"> is ML in age #pri #chron&#45;hyp</text>
</g>
<!-- n12&#45;&gt;n27 -->
<g id="edge16" class="edge">
<title>n12&#45;&gt;n27</title>
<path fill="none" stroke="#ff0000" d="M1621.1169,-655.8813C1606.0243,-635.0056 1584.4906,-605.2206 1566.4886,-580.3207"/>
<polygon fill="#ff0000" stroke="#ff0000" points="1569.2288,-578.1369 1560.5334,-572.0836 1563.556,-582.2382 1569.2288,-578.1369"/>
</g>
<!-- n12&#45;&gt;n28 -->
<g id="edge20" class="edge">
<title>n12&#45;&gt;n28</title>
<path fill="none" stroke="#ff0000" d="M1643.2313,-655.5889C1650.7869,-589.5168 1666.8737,-419.0064 1638,-372 1617.956,-339.3685 1581.5834,-317.7034 1548.1765,-303.8253"/>
<polygon fill="#ff0000" stroke="#ff0000" points="1549.4343,-300.5589 1538.8487,-300.1148 1546.8469,-307.0632 1549.4343,-300.5589"/>
</g>
<!-- n12&#45;&gt;n29 -->
<g id="edge23" class="edge">
<title>n12&#45;&gt;n29</title>
<path fill="none" stroke="#ff0000" d="M1644.3899,-655.822C1648.0396,-633.5653 1653.2277,-600.7394 1657,-572 1669.5808,-476.1516 1680.6384,-361.9722 1685.4475,-310.1134"/>
<polygon fill="#ff0000" stroke="#ff0000" points="1688.9449,-310.3012 1686.3771,-300.0222 1681.9744,-309.659 1688.9449,-310.3012"/>
</g>
<!-- n13 -->
<g id="node16" class="node">
<title>n13</title>
<path fill="#ffffff" stroke="#ffe4b5" stroke-width="2" d="M1512,-708C1512,-708 1340,-708 1340,-708 1334,-708 1328,-702 1328,-696 1328,-696 1328,-668 1328,-668 1328,-662 1334,-656 1340,-656 1340,-656 1512,-656 1512,-656 1518,-656 1524,-662 1524,-668 1524,-668 1524,-696 1524,-696 1524,-702 1518,-708 1512,-708"/>
<text text-anchor="start" x="1382.937" y="-694" font-family="arial" font-weight="bold" font-size="10.00" fill="#000000">Some BCL as ORS</text>
<text text-anchor="start" x="1338.482" y="-677" font-family="arial" font-size="10.00" fill="#000000">Some part of the black Culm Limestone</text>
<text text-anchor="start" x="1357.6535" y="-665" font-family="arial" font-size="10.00" fill="#000000"> is ORS in age #pri #chron&#45;hyp</text>
</g>
<!-- n13&#45;&gt;n27 -->
<g id="edge17" class="edge">
<title>n13&#45;&gt;n27</title>
<path fill="none" stroke="#ff0000" d="M1444.8831,-655.8813C1459.9757,-635.0056 1481.5094,-605.2206 1499.5114,-580.3207"/>
<polygon fill="#ff0000" stroke="#ff0000" points="1502.444,-582.2382 1505.4666,-572.0836 1496.7712,-578.1369 1502.444,-582.2382"/>
</g>
<!-- n13&#45;&gt;n28 -->
<g id="edge21" class="edge">
<title>n13&#45;&gt;n28</title>
<path fill="none" stroke="#ff0000" d="M1420.4208,-655.843C1409.9608,-601.3907 1391.263,-472.563 1424,-372 1431.3502,-349.4213 1444.536,-326.0406 1455.5217,-308.7702"/>
<polygon fill="#ff0000" stroke="#ff0000" points="1458.4933,-310.6209 1461.0234,-300.3325 1452.6297,-306.7975 1458.4933,-310.6209"/>
</g>
<!-- n13&#45;&gt;n29 -->
<g id="edge24" class="edge">
<title>n13&#45;&gt;n29</title>
<path fill="none" stroke="#ff0000" d="M1422.0403,-655.9615C1415.7164,-610.5029 1405.7983,-519.1045 1424,-494 1482.7398,-412.9836 1566.4509,-493.9625 1638,-424 1669.2282,-393.4643 1680.9922,-342.2866 1685.3966,-310.4275"/>
<polygon fill="#ff0000" stroke="#ff0000" points="1688.8803,-310.7736 1686.6257,-300.4214 1681.9326,-309.9201 1688.8803,-310.7736"/>
</g>
<!-- n14 -->
<g id="node17" class="node">
<title>n14</title>
<path fill="#ffffff" stroke="#ffe4b5" stroke-width="2" d="M1298,-708C1298,-708 1126,-708 1126,-708 1120,-708 1114,-702 1114,-696 1114,-696 1114,-668 1114,-668 1114,-662 1120,-656 1126,-656 1126,-656 1298,-656 1298,-656 1304,-656 1310,-662 1310,-668 1310,-668 1310,-696 1310,-696 1310,-702 1304,-708 1298,-708"/>
<text text-anchor="start" x="1172.267" y="-694" font-family="arial" font-weight="bold" font-size="10.00" fill="#000000">Some BCL as SIL</text>
<text text-anchor="start" x="1124.482" y="-677" font-family="arial" font-size="10.00" fill="#000000">Some part of the black Culm Limestone</text>
<text text-anchor="start" x="1146.9835" y="-665" font-family="arial" font-size="10.00" fill="#000000"> is SIL in age #pri #chron&#45;hyp</text>
</g>
<!-- n14&#45;&gt;n27 -->
<g id="edge18" class="edge">
<title>n14&#45;&gt;n27</title>
<path fill="none" stroke="#ff0000" d="M1268.6494,-655.8813C1316.3879,-633.871 1385.6073,-601.9568 1441.2407,-576.3065"/>
<polygon fill="#ff0000" stroke="#ff0000" points="1442.7839,-579.4491 1450.3997,-572.0836 1439.853,-573.0922 1442.7839,-579.4491"/>
</g>
<!-- n14&#45;&gt;n28 -->
<g id="edge22" class="edge">
<title>n14&#45;&gt;n28</title>
<path fill="none" stroke="#ff0000" d="M1227.8338,-655.9438C1260.6456,-602.2083 1338.8633,-475.4496 1409,-372 1423.7789,-350.2016 1441.2992,-326.0328 1454.4241,-308.2343"/>
<polygon fill="#ff0000" stroke="#ff0000" points="1457.3478,-310.1672 1460.4828,-300.0468 1451.7209,-306.0033 1457.3478,-310.1672"/>
</g>
<!-- n14&#45;&gt;n29 -->
<g id="edge25" class="edge">
<title>n14&#45;&gt;n29</title>
<path fill="none" stroke="#ff0000" d="M1238.0472,-655.6235C1258.7055,-634.0538 1287.7101,-602.2782 1310,-572 1355.5042,-510.188 1362.5538,-491.5502 1399,-424 1411.1764,-401.432 1404.8162,-389.0166 1424,-372 1451.4062,-347.6899 1538.6411,-320.6762 1605.4073,-302.6473"/>
<polygon fill="#ff0000" stroke="#ff0000" points="1606.3444,-306.0197 1615.0999,-300.0539 1604.5351,-299.2576 1606.3444,-306.0197"/>
</g>
<!-- n15 -->
<g id="node18" class="node">
<title>n15</title>
<path fill="#ffffff" stroke="#ffe4b5" stroke-width="2" d="M1617,-424C1617,-424 1445,-424 1445,-424 1439,-424 1433,-418 1433,-412 1433,-412 1433,-384 1433,-384 1433,-378 1439,-372 1445,-372 1445,-372 1617,-372 1617,-372 1623,-372 1629,-378 1629,-384 1629,-384 1629,-412 1629,-412 1629,-418 1623,-424 1617,-424"/>
<text text-anchor="start" x="1487.662" y="-410" font-family="arial" font-weight="bold" font-size="10.00" fill="#000000">Some BCL as CAM</text>
<text text-anchor="start" x="1443.482" y="-393" font-family="arial" font-size="10.00" fill="#000000">Some part of the black Culm Limestone</text>
<text text-anchor="start" x="1462.3785" y="-381" font-family="arial" font-size="10.00" fill="#000000"> is CAM in age #pri #chron&#45;hyp</text>
</g>
<!-- n15&#45;&gt;n28 -->
<g id="edge50" class="edge">
<title>n15&#45;&gt;n28</title>
<path fill="none" stroke="#00ff00" d="M1518.2081,-371.9673C1508.9981,-353.2242 1496.6053,-328.0039 1487.2845,-309.0351"/>
<polygon fill="#00ff00" stroke="#00ff00" points="1490.4049,-307.449 1482.8535,-300.0176 1484.1224,-310.5362 1490.4049,-307.449"/>
</g>
<!-- n15&#45;&gt;n29 -->
<g id="edge26" class="edge">
<title>n15&#45;&gt;n29</title>
<path fill="none" stroke="#ff0000" d="M1566.2339,-371.9673C1592.9918,-352.1972 1629.5032,-325.2205 1655.5505,-305.9754"/>
<polygon fill="#ff0000" stroke="#ff0000" points="1657.6512,-308.7751 1663.6141,-300.0176 1653.4914,-303.1451 1657.6512,-308.7751"/>
</g>
<!-- n27&#45;&gt;n15 -->
<g id="edge42" class="edge">
<title>n27&#45;&gt;n15</title>
<path fill="none" stroke="#00ff00" d="M1532.4376,-495.7545C1532.1549,-476.5306 1531.814,-453.3546 1531.5352,-434.3946"/>
<polygon fill="#00ff00" stroke="#00ff00" points="1535.0342,-434.2943 1531.3875,-424.3469 1528.035,-434.3973 1535.0342,-434.2943"/>
</g>
<!-- n28&#45;&gt;n2 -->
<g id="edge43" class="edge">
<title>n28&#45;&gt;n2</title>
<path fill="none" stroke="#00ff00" d="M1481.3438,-263.875C1488.0748,-247.2623 1498.2332,-222.1904 1506.5833,-201.5817"/>
<polygon fill="#00ff00" stroke="#00ff00" points="1509.8823,-202.7598 1510.3937,-192.1773 1503.3946,-200.1311 1509.8823,-202.7598"/>
</g>
<!-- n29&#45;&gt;n5 -->
<g id="edge44" class="edge">
<title>n29&#45;&gt;n5</title>
<path fill="none" stroke="#00ff00" d="M1684.1754,-263.9359C1677.2296,-234.2195 1660.376,-174.1221 1630,-132 1613.8432,-109.5954 1590.8222,-89.4938 1570.0965,-74.0012"/>
<polygon fill="#00ff00" stroke="#00ff00" points="1572.1264,-71.1497 1561.9857,-68.0807 1567.9992,-76.8036 1572.1264,-71.1497"/>
</g>
<!-- n3 -->
<g id="node22" class="node">
<title>n3</title>
<path fill="#ffffff" stroke="#f4a460" stroke-width="2" d="M2485,-192C2485,-192 2313,-192 2313,-192 2307,-192 2301,-186 2301,-180 2301,-180 2301,-152 2301,-152 2301,-146 2307,-140 2313,-140 2313,-140 2485,-140 2485,-140 2491,-140 2497,-146 2497,-152 2497,-152 2497,-180 2497,-180 2497,-186 2491,-192 2485,-192"/>
<text text-anchor="start" x="2357.337" y="-178" font-family="arial" font-weight="bold" font-size="10.00" fill="#000000">Non&#45;Culm as CAM</text>
<text text-anchor="start" x="2322.316" y="-161" font-family="arial" font-size="10.00" fill="#000000">The non&#45;Culm strata is nothing but</text>
<text text-anchor="start" x="2318.1505" y="-149" font-family="arial" font-size="10.00" fill="#000000"> Cambrian in age #GRE #chron&#45;hyp </text>
</g>
<!-- n16 -->
<g id="node23" class="node">
<title>n16</title>
<path fill="#ffffff" stroke="#ffe4b5" stroke-width="2" d="M2808,-708C2808,-708 2636,-708 2636,-708 2630,-708 2624,-702 2624,-696 2624,-696 2624,-668 2624,-668 2624,-662 2630,-656 2636,-656 2636,-656 2808,-656 2808,-656 2814,-656 2820,-662 2820,-668 2820,-668 2820,-696 2820,-696 2820,-702 2814,-708 2808,-708"/>
<text text-anchor="start" x="2669.224" y="-694" font-family="arial" font-weight="bold" font-size="10.00" fill="#000000">Some Non&#45;Culm as CM</text>
<text text-anchor="start" x="2633.933" y="-677" font-family="arial" font-size="10.00" fill="#000000">Some part of the non&#45;Culm strata is CM</text>
<text text-anchor="start" x="2670.8755" y="-665" font-family="arial" font-size="10.00" fill="#000000"> in age #pri #chron&#45;hyp</text>
</g>
<!-- n30 -->
<g id="node28" class="node">
<title>n30</title>
<path fill="#ffe4b5" stroke="#000000" d="M2485,-570C2485,-570 2313,-570 2313,-570 2307,-570 2301,-564 2301,-558 2301,-558 2301,-510 2301,-510 2301,-504 2307,-498 2313,-498 2313,-498 2485,-498 2485,-498 2491,-498 2497,-504 2497,-510 2497,-510 2497,-558 2497,-558 2497,-564 2491,-570 2485,-570"/>
<text text-anchor="start" x="2325.365" y="-556" font-family="arial" font-weight="bold" font-size="10.00" fill="#000000">Standard Sequence as Partition &#45;</text>
<text text-anchor="start" x="2375.1145" y="-546" font-family="arial" font-weight="bold" font-size="10.00" fill="#000000"> Non&#45;Culm</text>
<text text-anchor="start" x="2316.7625" y="-531" font-family="arial" font-size="10.00" fill="#000000">If some part of the non&#45;Culm strata is</text>
<text text-anchor="start" x="2310.9245" y="-519" font-family="arial" font-size="10.00" fill="#000000"> neiter CM, ML, OR nor SIL in age, then</text>
<text text-anchor="start" x="2326.49" y="-507" font-family="arial" font-size="10.00" fill="#000000"> it is CAM in age #pri #chron&#45;hyp</text>
</g>
<!-- n16&#45;&gt;n30 -->
<g id="edge29" class="edge">
<title>n16&#45;&gt;n30</title>
<path fill="none" stroke="#ff0000" d="M2664.9976,-655.8813C2615.7608,-633.3208 2543.815,-600.3549 2487.1587,-574.3947"/>
<polygon fill="#ff0000" stroke="#ff0000" points="2488.3943,-571.111 2477.8452,-570.1272 2485.4783,-577.4747 2488.3943,-571.111"/>
</g>
<!-- n31 -->
<g id="node29" class="node">
<title>n31</title>
<path fill="#f4a460" stroke="#000000" d="M2485,-300C2485,-300 2313,-300 2313,-300 2307,-300 2301,-294 2301,-288 2301,-288 2301,-276 2301,-276 2301,-270 2307,-264 2313,-264 2313,-264 2485,-264 2485,-264 2491,-264 2497,-270 2497,-276 2497,-276 2497,-288 2497,-288 2497,-294 2491,-300 2485,-300"/>
<text text-anchor="start" x="2334.273" y="-280" font-family="arial" font-weight="bold" font-size="10.00" fill="#000000">Dating the Non&#45;Culm&#45; GRE.1</text>
</g>
<!-- n16&#45;&gt;n31 -->
<g id="edge33" class="edge">
<title>n16&#45;&gt;n31</title>
<path fill="none" stroke="#ff0000" d="M2709.3731,-655.6497C2681.4401,-599.1594 2609.9455,-464.0622 2523,-372 2498.248,-345.7913 2464.9522,-322.1094 2439.095,-305.6239"/>
<polygon fill="#ff0000" stroke="#ff0000" points="2440.6172,-302.4472 2430.2855,-300.1005 2436.8987,-308.3779 2440.6172,-302.4472"/>
</g>
<!-- n17 -->
<g id="node24" class="node">
<title>n17</title>
<path fill="#ffffff" stroke="#ffe4b5" stroke-width="2" d="M2594,-708C2594,-708 2422,-708 2422,-708 2416,-708 2410,-702 2410,-696 2410,-696 2410,-668 2410,-668 2410,-662 2416,-656 2422,-656 2422,-656 2594,-656 2594,-656 2600,-656 2606,-662 2606,-668 2606,-668 2606,-696 2606,-696 2606,-702 2600,-708 2594,-708"/>
<text text-anchor="start" x="2456.054" y="-694" font-family="arial" font-weight="bold" font-size="10.00" fill="#000000">Some Non&#45;Culm as ML</text>
<text text-anchor="start" x="2420.763" y="-677" font-family="arial" font-size="10.00" fill="#000000">Some part of the non&#45;Culm strata is ML</text>
<text text-anchor="start" x="2456.8755" y="-665" font-family="arial" font-size="10.00" fill="#000000"> in age #pri #chron&#45;hyp</text>
</g>
<!-- n17&#45;&gt;n30 -->
<g id="edge30" class="edge">
<title>n17&#45;&gt;n30</title>
<path fill="none" stroke="#ff0000" d="M2488.7639,-655.8813C2473.0049,-634.4837 2450.3521,-603.7258 2431.7461,-578.4626"/>
<polygon fill="#ff0000" stroke="#ff0000" points="2434.3556,-576.1036 2425.6072,-570.1272 2428.7192,-580.2547 2434.3556,-576.1036"/>
</g>
<!-- n17&#45;&gt;n31 -->
<g id="edge34" class="edge">
<title>n17&#45;&gt;n31</title>
<path fill="none" stroke="#ff0000" d="M2515.2636,-655.8821C2529.2081,-600.4083 2554.5183,-468.0546 2509,-372 2495.4014,-343.3037 2467.6757,-320.7145 2443.4634,-305.3443"/>
<polygon fill="#ff0000" stroke="#ff0000" points="2445.0927,-302.2382 2434.7347,-300.0103 2441.4426,-308.2112 2445.0927,-302.2382"/>
</g>
<!-- n18 -->
<g id="node25" class="node">
<title>n18</title>
<path fill="#ffffff" stroke="#ffe4b5" stroke-width="2" d="M2380,-708C2380,-708 2202,-708 2202,-708 2196,-708 2190,-702 2190,-696 2190,-696 2190,-668 2190,-668 2190,-662 2196,-656 2202,-656 2202,-656 2380,-656 2380,-656 2386,-656 2392,-662 2392,-668 2392,-668 2392,-696 2392,-696 2392,-702 2386,-708 2380,-708"/>
<text text-anchor="start" x="2235.1645" y="-694" font-family="arial" font-weight="bold" font-size="10.00" fill="#000000">Some Non&#45;Culm as ORS</text>
<text text-anchor="start" x="2199.8735" y="-677" font-family="arial" font-size="10.00" fill="#000000">Some part of the non&#45;Culm strata is ORS</text>
<text text-anchor="start" x="2239.8755" y="-665" font-family="arial" font-size="10.00" fill="#000000"> in age #pri #chron&#45;hyp</text>
</g>
<!-- n18&#45;&gt;n30 -->
<g id="edge31" class="edge">
<title>n18&#45;&gt;n30</title>
<path fill="none" stroke="#ff0000" d="M2310.0596,-655.8813C2325.6741,-634.4837 2348.119,-603.7258 2366.5543,-578.4626"/>
<polygon fill="#ff0000" stroke="#ff0000" points="2369.5694,-580.2683 2372.6369,-570.1272 2363.9149,-576.142 2369.5694,-580.2683"/>
</g>
<!-- n18&#45;&gt;n31 -->
<g id="edge35" class="edge">
<title>n18&#45;&gt;n31</title>
<path fill="none" stroke="#ff0000" d="M2283.6035,-655.8824C2269.3868,-600.409 2243.481,-468.0561 2289,-372 2302.5986,-343.3037 2330.3243,-320.7145 2354.5366,-305.3443"/>
<polygon fill="#ff0000" stroke="#ff0000" points="2356.5574,-308.2112 2363.2653,-300.0103 2352.9073,-302.2382 2356.5574,-308.2112"/>
</g>
<!-- n19 -->
<g id="node26" class="node">
<title>n19</title>
<path fill="#ffffff" stroke="#ffe4b5" stroke-width="2" d="M2160,-708C2160,-708 1988,-708 1988,-708 1982,-708 1976,-702 1976,-696 1976,-696 1976,-668 1976,-668 1976,-662 1982,-656 1988,-656 1988,-656 2160,-656 2160,-656 2166,-656 2172,-662 2172,-668 2172,-668 2172,-696 2172,-696 2172,-702 2166,-708 2160,-708"/>
<text text-anchor="start" x="2021.4945" y="-694" font-family="arial" font-weight="bold" font-size="10.00" fill="#000000">Some Non&#45;Culm as SIL</text>
<text text-anchor="start" x="1986.2035" y="-677" font-family="arial" font-size="10.00" fill="#000000">Some part of the non&#45;Culm strata is SIL</text>
<text text-anchor="start" x="2022.8755" y="-665" font-family="arial" font-size="10.00" fill="#000000"> in age #pri #chron&#45;hyp</text>
</g>
<!-- n19&#45;&gt;n30 -->
<g id="edge32" class="edge">
<title>n19&#45;&gt;n30</title>
<path fill="none" stroke="#ff0000" d="M2131.3554,-655.8813C2180.897,-633.3208 2253.2883,-600.3549 2310.2954,-574.3947"/>
<polygon fill="#ff0000" stroke="#ff0000" points="2312.0163,-577.4569 2319.6666,-570.1272 2309.1153,-571.0864 2312.0163,-577.4569"/>
</g>
<!-- n19&#45;&gt;n31 -->
<g id="edge36" class="edge">
<title>n19&#45;&gt;n31</title>
<path fill="none" stroke="#ff0000" d="M2085.7693,-655.8802C2112.1949,-599.2604 2180.8123,-463.0001 2268,-372 2293.7261,-345.1489 2328.67,-321.6268 2355.9971,-305.3698"/>
<polygon fill="#ff0000" stroke="#ff0000" points="2358.0791,-308.2071 2364.9483,-300.1408 2354.5482,-302.1628 2358.0791,-308.2071"/>
</g>
<!-- n20 -->
<g id="node27" class="node">
<title>n20</title>
<path fill="#ffffff" stroke="#ffe4b5" stroke-width="2" d="M2488,-424C2488,-424 2310,-424 2310,-424 2304,-424 2298,-418 2298,-412 2298,-412 2298,-384 2298,-384 2298,-378 2304,-372 2310,-372 2310,-372 2488,-372 2488,-372 2494,-372 2500,-378 2500,-384 2500,-384 2500,-412 2500,-412 2500,-418 2494,-424 2488,-424"/>
<text text-anchor="start" x="2342.8895" y="-410" font-family="arial" font-weight="bold" font-size="10.00" fill="#000000">Some Non&#45;Culm as CAM</text>
<text text-anchor="start" x="2307.5985" y="-393" font-family="arial" font-size="10.00" fill="#000000">Some part of the non&#45;Culm strata is CAM</text>
<text text-anchor="start" x="2347.8755" y="-381" font-family="arial" font-size="10.00" fill="#000000"> in age #pri #chron&#45;hyp</text>
</g>
<!-- n20&#45;&gt;n31 -->
<g id="edge51" class="edge">
<title>n20&#45;&gt;n31</title>
<path fill="none" stroke="#00ff00" d="M2399,-371.9673C2399,-353.5665 2399,-328.923 2399,-310.0807"/>
<polygon fill="#00ff00" stroke="#00ff00" points="2402.5001,-310.0176 2399,-300.0176 2395.5001,-310.0176 2402.5001,-310.0176"/>
</g>
<!-- n30&#45;&gt;n20 -->
<g id="edge45" class="edge">
<title>n30&#45;&gt;n20</title>
<path fill="none" stroke="#00ff00" d="M2399,-497.9116C2399,-478.3005 2399,-454.1097 2399,-434.4438"/>
<polygon fill="#00ff00" stroke="#00ff00" points="2402.5001,-434.3317 2399,-424.3317 2395.5001,-434.3318 2402.5001,-434.3317"/>
</g>
<!-- n31&#45;&gt;n3 -->
<g id="edge46" class="edge">
<title>n31&#45;&gt;n3</title>
<path fill="none" stroke="#00ff00" d="M2399,-263.875C2399,-247.4878 2399,-222.8696 2399,-202.4234"/>
<polygon fill="#00ff00" stroke="#00ff00" points="2402.5001,-202.1773 2399,-192.1773 2395.5001,-202.1773 2402.5001,-202.1773"/>
</g>
<!-- n21 -->
<g id="node30" class="node">
<title>n21</title>
<path fill="#ffffff" stroke="#f4a460" stroke-width="2" d="M3246,-714C3246,-714 3074,-714 3074,-714 3068,-714 3062,-708 3062,-702 3062,-702 3062,-662 3062,-662 3062,-656 3068,-650 3074,-650 3074,-650 3246,-650 3246,-650 3252,-650 3258,-656 3258,-662 3258,-662 3258,-702 3258,-702 3258,-708 3252,-714 3246,-714"/>
<text text-anchor="start" x="3111.944" y="-700" font-family="arial" font-weight="bold" font-size="10.00" fill="#000000">Traversing Northward</text>
<text text-anchor="start" x="3080.5345" y="-683" font-family="arial" font-size="10.00" fill="#000000">The strata south of Exmoor become</text>
<text text-anchor="start" x="3077.476" y="-671" font-family="arial" font-size="10.00" fill="#000000"> progessively younger the furhter one</text>
<text text-anchor="start" x="3073.0405" y="-659" font-family="arial" font-size="10.00" fill="#000000"> traverses northward #GRE #chron&#45;hyp</text>
</g>
<!-- n22 -->
<g id="node31" class="node">
<title>n22</title>
<path fill="#ffffff" stroke="#f4a460" stroke-width="2" d="M3032,-720C3032,-720 2856,-720 2856,-720 2850,-720 2844,-714 2844,-708 2844,-708 2844,-656 2844,-656 2844,-650 2850,-644 2856,-644 2856,-644 3032,-644 3032,-644 3038,-644 3044,-650 3044,-656 3044,-656 3044,-708 3044,-708 3044,-714 3038,-720 3032,-720"/>
<text text-anchor="start" x="2867.8685" y="-706" font-family="arial" font-weight="bold" font-size="10.00" fill="#000000">Exmoor Youngest Devonian strata</text>
<text text-anchor="start" x="2864.812" y="-689" font-family="arial" font-size="10.00" fill="#000000">In Devon, among all the strata older</text>
<text text-anchor="start" x="2853.6885" y="-677" font-family="arial" font-size="10.00" fill="#000000"> than the New Red Sandstone, the strata</text>
<text text-anchor="start" x="2866.1995" y="-665" font-family="arial" font-size="10.00" fill="#000000"> of Exmoor are the youngest #GRE</text>
<text text-anchor="start" x="2917.6045" y="-653" font-family="arial" font-size="10.00" fill="#000000"> #chron&#45;hyp</text>
</g>
<!-- n23 -->
<g id="node32" class="node">
<title>n23</title>
<path fill="#ffffff" stroke="#ffc1c1" stroke-width="2" d="M3039.5,-566C3039.5,-566 2856.5,-566 2856.5,-566 2850.5,-566 2844.5,-560 2844.5,-554 2844.5,-554 2844.5,-514 2844.5,-514 2844.5,-508 2850.5,-502 2856.5,-502 2856.5,-502 3039.5,-502 3039.5,-502 3045.5,-502 3051.5,-508 3051.5,-514 3051.5,-514 3051.5,-554 3051.5,-554 3051.5,-560 3045.5,-566 3039.5,-566"/>
<text text-anchor="start" x="2877.0935" y="-552" font-family="arial" font-weight="bold" font-size="10.00" fill="#000000">Culm Youngest Devonian Strata</text>
<text text-anchor="start" x="2869.312" y="-535" font-family="arial" font-size="10.00" fill="#000000">In Devon, among all the strata older</text>
<text text-anchor="start" x="2859.028" y="-523" font-family="arial" font-size="10.00" fill="#000000"> than the New Red Sandstone, the Culm</text>
<text text-anchor="start" x="2854.5825" y="-511" font-family="arial" font-size="10.00" fill="#000000"> strata are the youngest #COA #chron&#45;hyp</text>
</g>
<!-- n22&#45;&gt;n23 -->
<g id="edge38" class="edge">
<title>n22&#45;&gt;n23</title>
<path fill="none" stroke="#ff0000" d="M2939.0419,-643.8863C2938.6497,-623.2775 2939.277,-597.7689 2940.6761,-576.5179"/>
<polygon fill="#ff0000" stroke="#ff0000" points="2944.1721,-576.6999 2941.4238,-566.4678 2937.1914,-576.1805 2944.1721,-576.6999"/>
</g>
<!-- n23&#45;&gt;n22 -->
<g id="edge37" class="edge">
<title>n23&#45;&gt;n22</title>
<path fill="none" stroke="#ff0000" d="M2952.8212,-566.4678C2953.4088,-586.1693 2952.9444,-611.6793 2951.6789,-633.7151"/>
<polygon fill="#ff0000" stroke="#ff0000" points="2948.1738,-633.6805 2951.0183,-643.8863 2955.1591,-634.1342 2948.1738,-633.6805"/>
</g>
</g>
</svg>
