
<!-- Generated by graphviz version 2.40.1 (20161225.0304)
 -->
<!-- Title: Argument Map Pages: 1 -->
<svg width="720pt" height="232pt"
 viewBox="0.00 0.00 720.00 231.89" xmlns="http://www.w3.org/2000/svg" xmlns:xlink="http://www.w3.org/1999/xlink">
<g id="graph0" class="graph" transform="scale(.1935 .1935) rotate(0) translate(4 1194.4)">
<title>Argument Map</title>
<g id="clust1" class="cluster">
<title>cluster_1</title>
<polygon fill="#c6e2ff" stroke="#c6e2ff" points="8,-1074 8,-1176.4 224,-1176.4 224,-1074 8,-1074"/>
<text text-anchor="start" x="32.3132" y="-1161.6" font-family="arial" font-size="12.00" fill="#000000">Aporia I : Coal in Ancient Strata</text>
</g>
<g id="clust2" class="cluster">
<title>cluster_2</title>
<polygon fill="#ffe1ff" stroke="#ffe1ff" points="232,-286 232,-1170.4 1098,-1170.4 1098,-286 232,-286"/>
<text text-anchor="start" x="600.6578" y="-1155.6" font-family="arial" font-size="12.00" fill="#000000">Dating of the Main Culm</text>
</g>
<g id="clust3" class="cluster">
<title>cluster_3</title>
<polygon fill="#9fb6cd" stroke="#9fb6cd" points="1106,-1080 1106,-1170.4 1323,-1170.4 1323,-1080 1106,-1080"/>
<text text-anchor="start" x="1113.8122" y="-1155.6" font-family="arial" font-size="12.00" fill="#000000">Aporia II : CM Plants in Ancient Strata</text>
</g>
<g id="clust4" class="cluster">
<title>cluster_4</title>
<polygon fill="#eed2ee" stroke="#eed2ee" points="1331,-8 1331,-1170.4 2399,-1170.4 2399,-8 1331,-8"/>
<text text-anchor="start" x="1785.9842" y="-1155.6" font-family="arial" font-size="12.00" fill="#000000">Dating of the Culm Limestone</text>
</g>
<g id="clust5" class="cluster">
<title>cluster_5</title>
<polygon fill="#d8bfd8" stroke="#d8bfd8" points="2407,-428 2407,-1170.4 3267,-1170.4 3267,-428 2407,-428"/>
<text text-anchor="start" x="2774.3252" y="-1155.6" font-family="arial" font-size="12.00" fill="#000000">Dating of the Non&#45;Culm</text>
</g>
<g id="clust6" class="cluster">
<title>cluster_6</title>
<polygon fill="#e6e6fa" stroke="#e6e6fa" points="3275,-926 3275,-1182.4 3705,-1182.4 3705,-926 3275,-926"/>
<text text-anchor="start" x="3419.9752" y="-1167.6" font-family="arial" font-size="12.00" fill="#000000">Youngest Devonian Strata</text>
</g>
<!-- n0 -->
<g id="node1" class="node">
<title>n0</title>
<path fill="#ffffff" stroke="#f4a460" stroke-width="2" d="M204,-1146C204,-1146 28,-1146 28,-1146 22,-1146 16,-1140 16,-1134 16,-1134 16,-1094 16,-1094 16,-1088 22,-1082 28,-1082 28,-1082 204,-1082 204,-1082 210,-1082 216,-1088 216,-1094 216,-1094 216,-1134 216,-1134 216,-1140 210,-1146 204,-1146"/>
<text text-anchor="start" x="56.2565" y="-1132" font-family="arial" font-weight="bold" font-size="10.00" fill="#000000">Instances of Ancient Strata</text>
<text text-anchor="start" x="25.9725" y="-1115" font-family="arial" font-size="10.00" fill="#000000">In Munster and Pennsylvannia, there are</text>
<text text-anchor="start" x="33.201" y="-1103" font-family="arial" font-size="10.00" fill="#000000"> pre&#45;Old Red Sandstone strata #GRE</text>
<text text-anchor="start" x="89.6045" y="-1091" font-family="arial" font-size="10.00" fill="#000000"> #chron&#45;hyp</text>
</g>
<!-- n1 -->
<g id="node2" class="node">
<title>n1</title>
<path fill="#ffffff" stroke="#f4a460" stroke-width="2" d="M658,-624C658,-624 486,-624 486,-624 480,-624 474,-618 474,-612 474,-612 474,-584 474,-584 474,-578 480,-572 486,-572 486,-572 658,-572 658,-572 664,-572 670,-578 670,-584 670,-584 670,-612 670,-612 670,-618 664,-624 658,-624"/>
<text text-anchor="start" x="528.9475" y="-610" font-family="arial" font-weight="bold" font-size="10.00" fill="#000000">Main Culm as CAM</text>
<text text-anchor="start" x="486.9925" y="-593" font-family="arial" font-size="10.00" fill="#000000">The whole of the main Culm is CAM in</text>
<text text-anchor="start" x="519.4845" y="-581" font-family="arial" font-size="10.00" fill="#000000"> age #GRE #chron&#45;hyp </text>
</g>
<!-- n5 -->
<g id="node3" class="node">
<title>n5</title>
<path fill="#ffffff" stroke="#ffc1c1" stroke-width="2" d="M781,-494C781,-494 603,-494 603,-494 597,-494 591,-488 591,-482 591,-482 591,-454 591,-454 591,-448 597,-442 603,-442 603,-442 781,-442 781,-442 787,-442 793,-448 793,-454 793,-454 793,-482 793,-482 793,-488 787,-494 781,-494"/>
<text text-anchor="start" x="652.282" y="-480" font-family="arial" font-weight="bold" font-size="10.00" fill="#000000">Main Culm as CM</text>
<text text-anchor="start" x="600.599" y="-463" font-family="arial" font-size="10.00" fill="#000000">The whole of the main Culm is CM in age</text>
<text text-anchor="start" x="649.2125" y="-451" font-family="arial" font-size="10.00" fill="#000000"> #COA #chron&#45;hyp </text>
</g>
<!-- n1&#45;&gt;n5 -->
<g id="edge14" class="edge">
<title>n1&#45;&gt;n5</title>
<path fill="none" stroke="#ff0000" d="M590.7351,-571.6926C608.0002,-551.4288 633.841,-523.277 655.1664,-501.4192"/>
<polygon fill="#ff0000" stroke="#ff0000" points="657.6849,-503.8499 662.2065,-494.2683 652.6967,-498.9389 657.6849,-503.8499"/>
</g>
<!-- n11 -->
<g id="node4" class="node">
<title>n11</title>
<path fill="#ffffff" stroke="#eedd82" stroke-width="2" d="M780.5,-346C780.5,-346 603.5,-346 603.5,-346 597.5,-346 591.5,-340 591.5,-334 591.5,-334 591.5,-306 591.5,-306 591.5,-300 597.5,-294 603.5,-294 603.5,-294 780.5,-294 780.5,-294 786.5,-294 792.5,-300 792.5,-306 792.5,-306 792.5,-334 792.5,-334 792.5,-340 786.5,-346 780.5,-346"/>
<text text-anchor="start" x="653.612" y="-332" font-family="arial" font-weight="bold" font-size="10.00" fill="#000000">Main Culm as ML</text>
<text text-anchor="start" x="601.929" y="-315" font-family="arial" font-size="10.00" fill="#000000">The whole of the main Culm is ML in age</text>
<text text-anchor="start" x="650.2675" y="-303" font-family="arial" font-size="10.00" fill="#000000"> #DEV #chron&#45;hyp </text>
</g>
<!-- n1&#45;&gt;n11 -->
<g id="edge20" class="edge">
<title>n1&#45;&gt;n11</title>
<path fill="none" stroke="#ff0000" d="M561.8142,-571.8584C554.7777,-537.2467 551.5887,-475.1003 573,-428 586.7817,-397.6832 613.1546,-371.3221 637.6558,-352.2339"/>
<polygon fill="#ff0000" stroke="#ff0000" points="639.991,-354.8568 645.8722,-346.0442 635.7791,-349.2657 639.991,-354.8568"/>
</g>
<!-- n5&#45;&gt;n1 -->
<g id="edge13" class="edge">
<title>n5&#45;&gt;n1</title>
<path fill="none" stroke="#ff0000" d="M673.2982,-494.2683C656.0442,-514.5219 630.206,-542.6727 608.8748,-564.5386"/>
<polygon fill="#ff0000" stroke="#ff0000" points="606.3535,-562.1107 601.8324,-571.6926 611.342,-567.0215 606.3535,-562.1107"/>
</g>
<!-- n5&#45;&gt;n11 -->
<g id="edge22" class="edge">
<title>n5&#45;&gt;n11</title>
<path fill="none" stroke="#ff0000" d="M686.7085,-441.8813C684.9967,-418.1452 684.7917,-382.8911 686.0935,-356.3961"/>
<polygon fill="#ff0000" stroke="#ff0000" points="689.5907,-356.5459 686.6915,-346.3555 682.6031,-356.1296 689.5907,-356.5459"/>
</g>
<!-- n11&#45;&gt;n1 -->
<g id="edge19" class="edge">
<title>n11&#45;&gt;n1</title>
<path fill="none" stroke="#ff0000" d="M661.0219,-346.0442C637.2781,-365.4127 606.3397,-394.256 591,-428 571.596,-470.6846 572.3959,-525.7265 573.6741,-561.4329"/>
<polygon fill="#ff0000" stroke="#ff0000" points="570.1926,-561.9963 574.0642,-571.8584 577.1877,-561.7345 570.1926,-561.9963"/>
</g>
<!-- n11&#45;&gt;n5 -->
<g id="edge21" class="edge">
<title>n11&#45;&gt;n5</title>
<path fill="none" stroke="#ff0000" d="M697.3085,-346.3555C699.0103,-370.1677 699.2053,-405.4308 697.8935,-431.8674"/>
<polygon fill="#ff0000" stroke="#ff0000" points="694.398,-431.6892 697.2915,-441.8813 701.3854,-432.1094 694.398,-431.6892"/>
</g>
<!-- n13 -->
<g id="node5" class="node">
<title>n13</title>
<path fill="#ffffff" stroke="#ffe4b5" stroke-width="2" d="M1078,-1140C1078,-1140 900,-1140 900,-1140 894,-1140 888,-1134 888,-1128 888,-1128 888,-1100 888,-1100 888,-1094 894,-1088 900,-1088 900,-1088 1078,-1088 1078,-1088 1084,-1088 1090,-1094 1090,-1100 1090,-1100 1090,-1128 1090,-1128 1090,-1134 1084,-1140 1078,-1140"/>
<text text-anchor="start" x="934.8345" y="-1126" font-family="arial" font-weight="bold" font-size="10.00" fill="#000000">Some Main Culm as CM</text>
<text text-anchor="start" x="897.599" y="-1109" font-family="arial" font-size="10.00" fill="#000000">Some part of the main Culm is CM in age</text>
<text text-anchor="start" x="952.882" y="-1097" font-family="arial" font-size="10.00" fill="#000000"> #pri #chron&#45;hyp</text>
</g>
<!-- n33 -->
<g id="node10" class="node">
<title>n33</title>
<path fill="#ffe4b5" stroke="#000000" d="M778,-1002C778,-1002 606,-1002 606,-1002 600,-1002 594,-996 594,-990 594,-990 594,-942 594,-942 594,-936 600,-930 606,-930 606,-930 778,-930 778,-930 784,-930 790,-936 790,-942 790,-942 790,-990 790,-990 790,-996 784,-1002 778,-1002"/>
<text text-anchor="start" x="606.1425" y="-988" font-family="arial" font-weight="bold" font-size="10.00" fill="#000000">Standard Sequence as Partition &#45; Main</text>
<text text-anchor="start" x="678.9475" y="-978" font-family="arial" font-weight="bold" font-size="10.00" fill="#000000"> Culm</text>
<text text-anchor="start" x="606.9975" y="-963" font-family="arial" font-size="10.00" fill="#000000">If some main Culm strata is neiter CM,</text>
<text text-anchor="start" x="606.9835" y="-951" font-family="arial" font-size="10.00" fill="#000000"> ML, OR nor SIL in age, then it is CAM</text>
<text text-anchor="start" x="640.8755" y="-939" font-family="arial" font-size="10.00" fill="#000000"> in age #pri #chron&#45;hyp</text>
</g>
<!-- n13&#45;&gt;n33 -->
<g id="edge1" class="edge">
<title>n13&#45;&gt;n33</title>
<path fill="none" stroke="#ff0000" d="M936.586,-1087.8813C891.4993,-1065.4138 825.7033,-1032.6266 773.7075,-1006.7162"/>
<polygon fill="#ff0000" stroke="#ff0000" points="775.0099,-1003.4547 764.4985,-1002.1272 771.8878,-1009.72 775.0099,-1003.4547"/>
</g>
<!-- n34 -->
<g id="node11" class="node">
<title>n34</title>
<path fill="#f4a460" stroke="#000000" d="M564,-732C564,-732 392,-732 392,-732 386,-732 380,-726 380,-720 380,-720 380,-708 380,-708 380,-702 386,-696 392,-696 392,-696 564,-696 564,-696 570,-696 576,-702 576,-708 576,-708 576,-720 576,-720 576,-726 570,-732 564,-732"/>
<text text-anchor="start" x="410.494" y="-712" font-family="arial" font-weight="bold" font-size="10.00" fill="#000000">Dating the Main Culm &#45; GRE.1</text>
</g>
<!-- n13&#45;&gt;n34 -->
<g id="edge5" class="edge">
<title>n13&#45;&gt;n34</title>
<path fill="none" stroke="#ff0000" d="M965.4593,-1087.8994C923.5163,-1041.89 836.7252,-949.0321 799,-926 713.5896,-873.8551 666.4106,-914.1922 585,-856 542.4424,-825.5799 509.3397,-773.207 491.8237,-741.2771"/>
<polygon fill="#ff0000" stroke="#ff0000" points="494.7006,-739.2351 486.8949,-732.0711 488.5294,-742.5391 494.7006,-739.2351"/>
</g>
<!-- n35 -->
<g id="node12" class="node">
<title>n35</title>
<path fill="#ffc1c1" stroke="#000000" d="M778,-732C778,-732 606,-732 606,-732 600,-732 594,-726 594,-720 594,-720 594,-708 594,-708 594,-702 600,-696 606,-696 606,-696 778,-696 778,-696 784,-696 790,-702 790,-708 790,-708 790,-720 790,-720 790,-726 784,-732 778,-732"/>
<text text-anchor="start" x="618.935" y="-712" font-family="arial" font-weight="bold" font-size="10.00" fill="#000000">Redating the Main Culm &#45; COA.1</text>
</g>
<!-- n13&#45;&gt;n35 -->
<g id="edge99" class="edge">
<title>n13&#45;&gt;n35</title>
<path fill="none" stroke="#00ff00" d="M978.2388,-1087.6708C954.2892,-1031.2215 892.2329,-896.1992 811,-804 787.7935,-777.6607 755.8081,-753.9865 730.8421,-737.5371"/>
<polygon fill="#00ff00" stroke="#00ff00" points="732.6267,-734.523 722.3299,-732.0275 728.8231,-740.3995 732.6267,-734.523"/>
</g>
<!-- n36 -->
<g id="node13" class="node">
<title>n36</title>
<path fill="#eedd82" stroke="#000000" d="M992,-732C992,-732 820,-732 820,-732 814,-732 808,-726 808,-720 808,-720 808,-708 808,-708 808,-702 814,-696 820,-696 820,-696 992,-696 992,-696 998,-696 1004,-702 1004,-708 1004,-708 1004,-720 1004,-720 1004,-726 998,-732 992,-732"/>
<text text-anchor="start" x="833.49" y="-712" font-family="arial" font-weight="bold" font-size="10.00" fill="#000000">Redating the Main Culm &#45; DEV.1</text>
</g>
<!-- n13&#45;&gt;n36 -->
<g id="edge15" class="edge">
<title>n13&#45;&gt;n36</title>
<path fill="none" stroke="#ff0000" d="M983.5541,-1087.7549C968.6356,-1015.8585 927.2005,-816.1713 911.8334,-742.1129"/>
<polygon fill="#ff0000" stroke="#ff0000" points="915.2204,-741.2083 909.7616,-732.128 908.3664,-742.6306 915.2204,-741.2083"/>
</g>
<!-- n14 -->
<g id="node6" class="node">
<title>n14</title>
<path fill="#ffffff" stroke="#ffe4b5" stroke-width="2" d="M643.5,-1140C643.5,-1140 466.5,-1140 466.5,-1140 460.5,-1140 454.5,-1134 454.5,-1128 454.5,-1128 454.5,-1100 454.5,-1100 454.5,-1094 460.5,-1088 466.5,-1088 466.5,-1088 643.5,-1088 643.5,-1088 649.5,-1088 655.5,-1094 655.5,-1100 655.5,-1100 655.5,-1128 655.5,-1128 655.5,-1134 649.5,-1140 643.5,-1140"/>
<text text-anchor="start" x="502.1645" y="-1126" font-family="arial" font-weight="bold" font-size="10.00" fill="#000000">Some Main Culm as ML</text>
<text text-anchor="start" x="464.929" y="-1109" font-family="arial" font-size="10.00" fill="#000000">Some part of the main Culm is ML in age</text>
<text text-anchor="start" x="519.382" y="-1097" font-family="arial" font-size="10.00" fill="#000000"> #pri #chron&#45;hyp</text>
</g>
<!-- n14&#45;&gt;n33 -->
<g id="edge2" class="edge">
<title>n14&#45;&gt;n33</title>
<path fill="none" stroke="#ff0000" d="M579.1775,-1087.8813C599.2431,-1066.2046 628.2008,-1034.9218 651.7545,-1009.4769"/>
<polygon fill="#ff0000" stroke="#ff0000" points="654.3333,-1011.8434 658.5579,-1002.1272 649.1963,-1007.0882 654.3333,-1011.8434"/>
</g>
<!-- n14&#45;&gt;n34 -->
<g id="edge6" class="edge">
<title>n14&#45;&gt;n34</title>
<path fill="none" stroke="#ff0000" d="M548.6994,-1087.847C543.4269,-1065.6057 535.8492,-1032.7881 530,-1004 510.5556,-908.2994 491.1919,-794.0473 482.6033,-742.1421"/>
<polygon fill="#ff0000" stroke="#ff0000" points="486.0182,-741.3389 480.938,-732.0415 479.1114,-742.4777 486.0182,-741.3389"/>
</g>
<!-- n14&#45;&gt;n35 -->
<g id="edge9" class="edge">
<title>n14&#45;&gt;n35</title>
<path fill="none" stroke="#ff0000" d="M551.0627,-1087.9655C543.9278,-1032.0885 533.9633,-898.1125 585,-804 600.0982,-776.1586 627.6013,-753.3182 650.9422,-737.6133"/>
<polygon fill="#ff0000" stroke="#ff0000" points="652.854,-740.5451 659.3225,-732.1541 649.0332,-734.6798 652.854,-740.5451"/>
</g>
<!-- n14&#45;&gt;n36 -->
<g id="edge100" class="edge">
<title>n14&#45;&gt;n36</title>
<path fill="none" stroke="#00ff00" d="M551.1151,-1087.8768C546.7306,-1047.8309 544.7776,-971.1728 585,-926 661.446,-840.1454 745.1788,-928.9781 834,-856 838.8708,-851.998 873.3723,-781.5691 892.7936,-741.4336"/>
<polygon fill="#00ff00" stroke="#00ff00" points="896.0665,-742.7047 897.2649,-732.1779 889.7634,-739.6597 896.0665,-742.7047"/>
</g>
<!-- n15 -->
<g id="node7" class="node">
<title>n15</title>
<path fill="#ffffff" stroke="#ffe4b5" stroke-width="2" d="M858,-1140C858,-1140 686,-1140 686,-1140 680,-1140 674,-1134 674,-1128 674,-1128 674,-1100 674,-1100 674,-1094 680,-1088 686,-1088 686,-1088 858,-1088 858,-1088 864,-1088 870,-1094 870,-1100 870,-1100 870,-1128 870,-1128 870,-1134 864,-1140 858,-1140"/>
<text text-anchor="start" x="714.775" y="-1126" font-family="arial" font-weight="bold" font-size="10.00" fill="#000000">Some Main Culm as ORS</text>
<text text-anchor="start" x="687.2675" y="-1109" font-family="arial" font-size="10.00" fill="#000000">Some part of the main Culm is ORS in</text>
<text text-anchor="start" x="726.154" y="-1097" font-family="arial" font-size="10.00" fill="#000000"> age #pri #chron&#45;hyp</text>
</g>
<!-- n15&#45;&gt;n33 -->
<g id="edge3" class="edge">
<title>n15&#45;&gt;n33</title>
<path fill="none" stroke="#ff0000" d="M757.8818,-1087.8813C746.4161,-1066.6697 729.9784,-1036.26 716.3907,-1011.1229"/>
<polygon fill="#ff0000" stroke="#ff0000" points="719.3624,-1009.26 711.5282,-1002.1272 713.2045,-1012.5886 719.3624,-1009.26"/>
</g>
<!-- n15&#45;&gt;n34 -->
<g id="edge7" class="edge">
<title>n15&#45;&gt;n34</title>
<path fill="none" stroke="#ff0000" d="M703.9683,-1087.8015C664.5035,-1069.5607 616.5252,-1041.7126 585,-1004 550.2772,-962.4623 503.8212,-806.2564 485.6965,-741.9376"/>
<polygon fill="#ff0000" stroke="#ff0000" points="489.005,-740.7726 482.9398,-732.0856 482.264,-742.6589 489.005,-740.7726"/>
</g>
<!-- n15&#45;&gt;n35 -->
<g id="edge10" class="edge">
<title>n15&#45;&gt;n35</title>
<path fill="none" stroke="#ff0000" d="M782.6404,-1087.9873C803.512,-1032.7151 844.0343,-900.7259 799,-804 785.7688,-775.5817 758.6579,-752.9321 735.0376,-737.4629"/>
<polygon fill="#ff0000" stroke="#ff0000" points="736.8503,-734.4682 726.5255,-732.0913 733.1144,-740.388 736.8503,-734.4682"/>
</g>
<!-- n15&#45;&gt;n36 -->
<g id="edge16" class="edge">
<title>n15&#45;&gt;n36</title>
<path fill="none" stroke="#ff0000" d="M783.9185,-1087.6238C793.689,-1065.5239 807.559,-1033.0217 818,-1004 852.0764,-909.2822 884.369,-794.167 898.5118,-742.0437"/>
<polygon fill="#ff0000" stroke="#ff0000" points="901.9432,-742.7616 901.171,-732.195 895.1852,-740.9369 901.9432,-742.7616"/>
</g>
<!-- n16 -->
<g id="node8" class="node">
<title>n16</title>
<path fill="#ffffff" stroke="#ffe4b5" stroke-width="2" d="M424,-1140C424,-1140 252,-1140 252,-1140 246,-1140 240,-1134 240,-1128 240,-1128 240,-1100 240,-1100 240,-1094 246,-1088 252,-1088 252,-1088 424,-1088 424,-1088 430,-1088 436,-1094 436,-1100 436,-1100 436,-1128 436,-1128 436,-1134 430,-1140 424,-1140"/>
<text text-anchor="start" x="284.105" y="-1126" font-family="arial" font-weight="bold" font-size="10.00" fill="#000000">Some Main Culm as SIL</text>
<text text-anchor="start" x="256.5975" y="-1109" font-family="arial" font-size="10.00" fill="#000000">Some part of the main Culm is SIL in</text>
<text text-anchor="start" x="292.154" y="-1097" font-family="arial" font-size="10.00" fill="#000000"> age #pri #chron&#45;hyp</text>
</g>
<!-- n16&#45;&gt;n33 -->
<g id="edge4" class="edge">
<title>n16&#45;&gt;n33</title>
<path fill="none" stroke="#ff0000" d="M400.4732,-1087.8813C454.658,-1065.2277 533.9371,-1032.0828 596.1476,-1006.0739"/>
<polygon fill="#ff0000" stroke="#ff0000" points="597.7115,-1009.2137 605.5876,-1002.1272 595.0114,-1002.7554 597.7115,-1009.2137"/>
</g>
<!-- n16&#45;&gt;n34 -->
<g id="edge8" class="edge">
<title>n16&#45;&gt;n34</title>
<path fill="none" stroke="#ff0000" d="M342.4158,-1087.8266C352.1787,-1033.3435 378.2639,-904.4614 422,-804 431.8209,-781.4414 446.6575,-757.8984 458.5924,-740.5518"/>
<polygon fill="#ff0000" stroke="#ff0000" points="461.6541,-742.2814 464.5271,-732.0835 455.9217,-738.264 461.6541,-742.2814"/>
</g>
<!-- n16&#45;&gt;n35 -->
<g id="edge11" class="edge">
<title>n16&#45;&gt;n35</title>
<path fill="none" stroke="#ff0000" d="M352.5871,-1087.5794C384.7215,-1030.9526 466.258,-895.6057 560,-804 587.0013,-777.614 622.6059,-753.8437 650.0319,-737.3669"/>
<polygon fill="#ff0000" stroke="#ff0000" points="652.1697,-740.1689 658.9951,-732.0655 648.6061,-734.1439 652.1697,-740.1689"/>
</g>
<!-- n16&#45;&gt;n36 -->
<g id="edge17" class="edge">
<title>n16&#45;&gt;n36</title>
<path fill="none" stroke="#ff0000" d="M360.0393,-1087.684C395.4953,-1047.0253 469.2453,-969.134 548,-926 649.5753,-870.3672 705.0919,-923.7777 799,-856 821.5895,-839.6962 817.5067,-826.4515 834,-804 850.0854,-782.1038 869.3625,-758.1161 883.9205,-740.4155"/>
<polygon fill="#ff0000" stroke="#ff0000" points="886.9813,-742.2059 890.6534,-732.2678 881.5853,-737.7469 886.9813,-742.2059"/>
</g>
<!-- n17 -->
<g id="node9" class="node">
<title>n17</title>
<path fill="#ffffff" stroke="#ffe4b5" stroke-width="2" d="M778,-856C778,-856 606,-856 606,-856 600,-856 594,-850 594,-844 594,-844 594,-816 594,-816 594,-810 600,-804 606,-804 606,-804 778,-804 778,-804 784,-804 790,-810 790,-816 790,-816 790,-844 790,-844 790,-850 784,-856 778,-856"/>
<text text-anchor="start" x="634.5" y="-842" font-family="arial" font-weight="bold" font-size="10.00" fill="#000000">Some Main Culm as CAM</text>
<text text-anchor="start" x="606.9925" y="-825" font-family="arial" font-size="10.00" fill="#000000">Some part of the main Culm is CAM in</text>
<text text-anchor="start" x="646.154" y="-813" font-family="arial" font-size="10.00" fill="#000000"> age #pri #chron&#45;hyp</text>
</g>
<!-- n17&#45;&gt;n34 -->
<g id="edge101" class="edge">
<title>n17&#45;&gt;n34</title>
<path fill="none" stroke="#00ff00" d="M643.9742,-803.9673C606.8701,-783.8548 556.0069,-756.2841 520.3991,-736.9827"/>
<polygon fill="#00ff00" stroke="#00ff00" points="521.6988,-733.7061 511.2393,-732.0176 518.3629,-739.8601 521.6988,-733.7061"/>
</g>
<!-- n17&#45;&gt;n35 -->
<g id="edge12" class="edge">
<title>n17&#45;&gt;n35</title>
<path fill="none" stroke="#ff0000" d="M692,-803.9673C692,-785.5665 692,-760.923 692,-742.0807"/>
<polygon fill="#ff0000" stroke="#ff0000" points="695.5001,-742.0176 692,-732.0176 688.5001,-742.0176 695.5001,-742.0176"/>
</g>
<!-- n17&#45;&gt;n36 -->
<g id="edge18" class="edge">
<title>n17&#45;&gt;n36</title>
<path fill="none" stroke="#ff0000" d="M740.0258,-803.9673C777.1299,-783.8548 827.9931,-756.2841 863.6009,-736.9827"/>
<polygon fill="#ff0000" stroke="#ff0000" points="865.6371,-739.8601 872.7607,-732.0176 862.3012,-733.7061 865.6371,-739.8601"/>
</g>
<!-- n33&#45;&gt;n17 -->
<g id="edge85" class="edge">
<title>n33&#45;&gt;n17</title>
<path fill="none" stroke="#00ff00" d="M692,-929.9116C692,-910.3005 692,-886.1097 692,-866.4438"/>
<polygon fill="#00ff00" stroke="#00ff00" points="695.5001,-866.3317 692,-856.3317 688.5001,-866.3318 695.5001,-866.3317"/>
</g>
<!-- n34&#45;&gt;n1 -->
<g id="edge86" class="edge">
<title>n34&#45;&gt;n1</title>
<path fill="none" stroke="#00ff00" d="M492.6875,-695.875C506.4541,-678.8865 527.3892,-653.0516 544.2944,-632.1899"/>
<polygon fill="#00ff00" stroke="#00ff00" points="547.2108,-634.1502 550.7874,-624.1773 541.7722,-629.7431 547.2108,-634.1502"/>
</g>
<!-- n35&#45;&gt;n5 -->
<g id="edge87" class="edge">
<title>n35&#45;&gt;n5</title>
<path fill="none" stroke="#00ff00" d="M692,-695.911C692,-655.5499 692,-557.5025 692,-504.1069"/>
<polygon fill="#00ff00" stroke="#00ff00" points="695.5001,-504.0534 692,-494.0535 688.5001,-504.0535 695.5001,-504.0534"/>
</g>
<!-- n36&#45;&gt;n11 -->
<g id="edge88" class="edge">
<title>n36&#45;&gt;n11</title>
<path fill="none" stroke="#00ff00" d="M902.3132,-695.6625C892.1915,-648.318 860.7423,-519.3099 802,-428 783.6071,-399.4099 756.3848,-372.6022 733.6235,-352.8469"/>
<polygon fill="#00ff00" stroke="#00ff00" points="735.6614,-349.9851 725.7803,-346.162 731.1206,-355.3126 735.6614,-349.9851"/>
</g>
<!-- n2 -->
<g id="node14" class="node">
<title>n2</title>
<path fill="#ffffff" stroke="#f4a460" stroke-width="2" d="M1300,-1140C1300,-1140 1128,-1140 1128,-1140 1122,-1140 1116,-1134 1116,-1128 1116,-1128 1116,-1100 1116,-1100 1116,-1094 1122,-1088 1128,-1088 1128,-1088 1300,-1088 1300,-1088 1306,-1088 1312,-1094 1312,-1100 1312,-1100 1312,-1128 1312,-1128 1312,-1134 1306,-1140 1300,-1140"/>
<text text-anchor="start" x="1165.6545" y="-1126" font-family="arial" font-weight="bold" font-size="10.00" fill="#000000">Ancient French Strata</text>
<text text-anchor="start" x="1131.7525" y="-1109" font-family="arial" font-size="10.00" fill="#000000">In the Bocage, there are pre&#45;Old Red</text>
<text text-anchor="start" x="1132.03" y="-1097" font-family="arial" font-size="10.00" fill="#000000"> Sandstone strata. #GRE #chron&#45;hyp</text>
</g>
<!-- n3 -->
<g id="node15" class="node">
<title>n3</title>
<path fill="#ffffff" stroke="#f4a460" stroke-width="2" d="M2167,-624C2167,-624 1991,-624 1991,-624 1985,-624 1979,-618 1979,-612 1979,-612 1979,-584 1979,-584 1979,-578 1985,-572 1991,-572 1991,-572 2167,-572 2167,-572 2173,-572 2179,-578 2179,-584 2179,-584 2179,-612 2179,-612 2179,-618 2173,-624 2167,-624"/>
<text text-anchor="start" x="2050.1095" y="-610" font-family="arial" font-weight="bold" font-size="10.00" fill="#000000">BCL as CAM</text>
<text text-anchor="start" x="1988.7025" y="-593" font-family="arial" font-size="10.00" fill="#000000">The black Culm Limestone is nothing but</text>
<text text-anchor="start" x="1998.1505" y="-581" font-family="arial" font-size="10.00" fill="#000000"> Cambrian in age #GRE #chron&#45;hyp </text>
</g>
<!-- n6 -->
<g id="node16" class="node">
<title>n6</title>
<path fill="#ffffff" stroke="#ffc1c1" stroke-width="2" d="M2177.5,-494C2177.5,-494 1996.5,-494 1996.5,-494 1990.5,-494 1984.5,-488 1984.5,-482 1984.5,-482 1984.5,-454 1984.5,-454 1984.5,-448 1990.5,-442 1996.5,-442 1996.5,-442 2177.5,-442 2177.5,-442 2183.5,-442 2189.5,-448 2189.5,-454 2189.5,-454 2189.5,-482 2189.5,-482 2189.5,-488 2183.5,-494 2177.5,-494"/>
<text text-anchor="start" x="2061.944" y="-480" font-family="arial" font-weight="bold" font-size="10.00" fill="#000000">BCL as CM</text>
<text text-anchor="start" x="1997.2025" y="-463" font-family="arial" font-size="10.00" fill="#000000">The black Culm Limestone is nothing but</text>
<text text-anchor="start" x="1994.702" y="-451" font-family="arial" font-size="10.00" fill="#000000"> Coal Mesaures in age #COA #chron&#45;hyp </text>
</g>
<!-- n3&#45;&gt;n6 -->
<g id="edge36" class="edge">
<title>n3&#45;&gt;n6</title>
<path fill="none" stroke="#ff0000" d="M2075.0703,-571.6926C2074.8857,-552.3099 2076.3296,-525.7101 2078.6382,-504.3047"/>
<polygon fill="#ff0000" stroke="#ff0000" points="2082.1262,-504.613 2079.8376,-494.2683 2075.1756,-503.7823 2082.1262,-504.613"/>
</g>
<!-- n8 -->
<g id="node17" class="node">
<title>n8</title>
<path fill="#ffffff" stroke="#ffc1c1" stroke-width="2" d="M2265,-74C2265,-74 2089,-74 2089,-74 2083,-74 2077,-68 2077,-62 2077,-62 2077,-34 2077,-34 2077,-28 2083,-22 2089,-22 2089,-22 2265,-22 2265,-22 2271,-22 2277,-28 2277,-34 2277,-34 2277,-62 2277,-62 2277,-68 2271,-74 2265,-74"/>
<text text-anchor="start" x="2151.7145" y="-60" font-family="arial" font-weight="bold" font-size="10.00" fill="#000000">BCL as SIL</text>
<text text-anchor="start" x="2086.7025" y="-43" font-family="arial" font-size="10.00" fill="#000000">The black Culm Limestone is nothing but</text>
<text text-anchor="start" x="2110.313" y="-31" font-family="arial" font-size="10.00" fill="#000000"> SIL in age #COA #chron&#45;hyp </text>
</g>
<!-- n3&#45;&gt;n8 -->
<g id="edge38" class="edge">
<title>n3&#45;&gt;n8</title>
<path fill="none" stroke="#ff0000" d="M2120.5288,-571.8794C2145.5526,-555.1477 2175.2013,-530.7885 2190,-500 2257.7518,-359.0437 2206.8355,-164.0006 2185.0667,-84.2134"/>
<polygon fill="#ff0000" stroke="#ff0000" points="2188.3368,-82.9024 2182.3242,-74.1789 2181.5844,-84.7479 2188.3368,-82.9024"/>
</g>
<!-- n10 -->
<g id="node19" class="node">
<title>n10</title>
<path fill="#ffffff" stroke="#ffc1c1" stroke-width="2" d="M2038,-204C2038,-204 1862,-204 1862,-204 1856,-204 1850,-198 1850,-192 1850,-192 1850,-164 1850,-164 1850,-158 1856,-152 1862,-152 1862,-152 2038,-152 2038,-152 2044,-152 2050,-158 2050,-164 2050,-164 2050,-192 2050,-192 2050,-198 2044,-204 2038,-204"/>
<text text-anchor="start" x="1925.274" y="-190" font-family="arial" font-weight="bold" font-size="10.00" fill="#000000">BCL as ML</text>
<text text-anchor="start" x="1859.7025" y="-173" font-family="arial" font-size="10.00" fill="#000000">The black Culm Limestone is nothing but</text>
<text text-anchor="start" x="1883.8725" y="-161" font-family="arial" font-size="10.00" fill="#000000"> ML in age #COA #chron&#45;hyp </text>
</g>
<!-- n3&#45;&gt;n10 -->
<g id="edge49" class="edge">
<title>n3&#45;&gt;n10</title>
<path fill="none" stroke="#ff0000" d="M2027.4878,-571.8044C2001.2739,-554.526 1971.4712,-529.6385 1954,-500 1900.3082,-408.9165 1918.8029,-276.8379 1935.7871,-213.9246"/>
<polygon fill="#ff0000" stroke="#ff0000" points="1939.218,-214.6561 1938.5969,-204.0795 1932.4868,-212.735 1939.218,-214.6561"/>
</g>
<!-- n12 -->
<g id="node20" class="node">
<title>n12</title>
<path fill="#ffffff" stroke="#eedd82" stroke-width="2" d="M2157,-346C2157,-346 1981,-346 1981,-346 1975,-346 1969,-340 1969,-334 1969,-334 1969,-306 1969,-306 1969,-300 1975,-294 1981,-294 1981,-294 2157,-294 2157,-294 2163,-294 2169,-300 2169,-306 2169,-306 2169,-334 2169,-334 2169,-340 2163,-346 2157,-346"/>
<text text-anchor="start" x="2040.3845" y="-332" font-family="arial" font-weight="bold" font-size="10.00" fill="#000000">BCL as ORS</text>
<text text-anchor="start" x="1978.7025" y="-315" font-family="arial" font-size="10.00" fill="#000000">The black Culm Limestone is nothing but</text>
<text text-anchor="start" x="1999.538" y="-303" font-family="arial" font-size="10.00" fill="#000000"> ORS in age #DEV #chron&#45;hyp </text>
</g>
<!-- n3&#45;&gt;n12 -->
<g id="edge61" class="edge">
<title>n3&#45;&gt;n12</title>
<path fill="none" stroke="#ff0000" d="M2030.6316,-571.9775C2006.4168,-554.6823 1979.7443,-529.7169 1967,-500 1954.3874,-470.5904 1955.8635,-457.9996 1967,-428 1977.8138,-398.8697 2000.3969,-372.3306 2021.6629,-352.8501"/>
<polygon fill="#ff0000" stroke="#ff0000" points="2024.2381,-355.2453 2029.414,-346.0007 2019.6028,-349.9998 2024.2381,-355.2453"/>
</g>
<!-- n6&#45;&gt;n3 -->
<g id="edge35" class="edge">
<title>n6&#45;&gt;n3</title>
<path fill="none" stroke="#ff0000" d="M2090.9294,-494.2683C2091.1161,-513.6413 2089.6739,-540.2397 2087.3665,-561.652"/>
<polygon fill="#ff0000" stroke="#ff0000" points="2083.878,-561.3481 2086.1676,-571.6926 2090.8286,-562.1781 2083.878,-561.3481"/>
</g>
<!-- n6&#45;&gt;n8 -->
<g id="edge40" class="edge">
<title>n6&#45;&gt;n8</title>
<path fill="none" stroke="#ff0000" d="M2112.1661,-441.8359C2131.8211,-422.7928 2157.3549,-394.9929 2169,-364 2204.9514,-268.317 2188.0432,-144.5308 2179.6434,-84.2284"/>
<polygon fill="#ff0000" stroke="#ff0000" points="2183.0756,-83.4976 2178.2356,-74.0729 2176.1419,-84.4587 2183.0756,-83.4976"/>
</g>
<!-- n6&#45;&gt;n10 -->
<g id="edge51" class="edge">
<title>n6&#45;&gt;n10</title>
<path fill="none" stroke="#ff0000" d="M2030.3465,-441.8492C2000.9911,-423.9529 1967.9444,-397.4256 1951,-364 1926.9069,-316.4724 1929.6861,-253.0694 1937.1262,-213.9178"/>
<polygon fill="#ff0000" stroke="#ff0000" points="1940.5721,-214.5392 1939.2166,-204.0315 1933.7235,-213.0911 1940.5721,-214.5392"/>
</g>
<!-- n6&#45;&gt;n12 -->
<g id="edge63" class="edge">
<title>n6&#45;&gt;n12</title>
<path fill="none" stroke="#ff0000" d="M2078.5319,-441.8813C2073.9333,-418.1452 2069.4406,-382.8911 2067.52,-356.3961"/>
<polygon fill="#ff0000" stroke="#ff0000" points="2071.0097,-356.1194 2066.8969,-346.3555 2064.0231,-356.5531 2071.0097,-356.1194"/>
</g>
<!-- n8&#45;&gt;n3 -->
<g id="edge37" class="edge">
<title>n8&#45;&gt;n3</title>
<path fill="none" stroke="#ff0000" d="M2190.6694,-74.1789C2220.0242,-146.3775 2278.7937,-352.7151 2208,-500 2194.7621,-527.5413 2169.6414,-549.9379 2145.0049,-566.3322"/>
<polygon fill="#ff0000" stroke="#ff0000" points="2142.8699,-563.543 2136.3311,-571.8794 2146.6414,-569.4402 2142.8699,-563.543"/>
</g>
<!-- n8&#45;&gt;n6 -->
<g id="edge39" class="edge">
<title>n8&#45;&gt;n6</title>
<path fill="none" stroke="#ff0000" d="M2187.9704,-74.0729C2203.8223,-129.5648 2225.11,-262.5721 2187,-364 2176.674,-391.482 2155.4279,-416.4534 2135.0775,-435.0352"/>
<polygon fill="#ff0000" stroke="#ff0000" points="2132.5432,-432.6031 2127.3465,-441.8359 2137.1666,-437.859 2132.5432,-432.6031"/>
</g>
<!-- n8&#45;&gt;n10 -->
<g id="edge53" class="edge">
<title>n8&#45;&gt;n10</title>
<path fill="none" stroke="#ff0000" d="M2136.9437,-74.1093C2101.758,-95.122 2050.1992,-124.7102 2010.0925,-146.9387"/>
<polygon fill="#ff0000" stroke="#ff0000" points="2008.2631,-143.9507 2001.2013,-151.8489 2011.6471,-150.0784 2008.2631,-143.9507"/>
</g>
<!-- n8&#45;&gt;n12 -->
<g id="edge65" class="edge">
<title>n8&#45;&gt;n12</title>
<path fill="none" stroke="#ff0000" d="M2170.8494,-74.0015C2154.6388,-122.9859 2112.7324,-228.9939 2087.8272,-284.4924"/>
<polygon fill="#ff0000" stroke="#ff0000" points="2084.4934,-283.3682 2083.5343,-293.9195 2090.8639,-286.2692 2084.4934,-283.3682"/>
</g>
<!-- n9 -->
<g id="node18" class="node">
<title>n9</title>
<path fill="#ffffff" stroke="#ffc1c1" stroke-width="2" d="M2036,-80C2036,-80 1864,-80 1864,-80 1858,-80 1852,-74 1852,-68 1852,-68 1852,-28 1852,-28 1852,-22 1858,-16 1864,-16 1864,-16 2036,-16 2036,-16 2042,-16 2048,-22 2048,-28 2048,-28 2048,-68 2048,-68 2048,-74 2042,-80 2036,-80"/>
<text text-anchor="start" x="1902.7635" y="-66" font-family="arial" font-weight="bold" font-size="10.00" fill="#000000">BCL as SIL and ORS</text>
<text text-anchor="start" x="1862.766" y="-49" font-family="arial" font-size="10.00" fill="#000000">The black Culm Limestone ranges from</text>
<text text-anchor="start" x="1866.363" y="-37" font-family="arial" font-size="10.00" fill="#000000"> Silurian to Old Red Sandstone in age</text>
<text text-anchor="start" x="1907.2125" y="-25" font-family="arial" font-size="10.00" fill="#000000"> #COA #chron&#45;hyp </text>
</g>
<!-- n9&#45;&gt;n10 -->
<g id="edge55" class="edge">
<title>n9&#45;&gt;n10</title>
<path fill="none" stroke="#ff0000" d="M1955.9224,-80.2549C1956.9488,-98.8297 1957.0205,-122.2335 1956.1374,-141.4829"/>
<polygon fill="#ff0000" stroke="#ff0000" points="1952.6303,-141.5076 1955.5486,-151.6926 1959.6187,-141.9107 1952.6303,-141.5076"/>
</g>
<!-- n9&#45;&gt;n12 -->
<g id="edge67" class="edge">
<title>n9&#45;&gt;n12</title>
<path fill="none" stroke="#ff0000" d="M2005.6157,-80.0828C2029.4007,-98.279 2054.6323,-123.1695 2068,-152 2087.5203,-194.0998 2086.6688,-248.6247 2081.0604,-283.9536"/>
<polygon fill="#ff0000" stroke="#ff0000" points="2077.6109,-283.361 2079.2755,-293.8242 2084.4992,-284.6066 2077.6109,-283.361"/>
</g>
<!-- n10&#45;&gt;n3 -->
<g id="edge48" class="edge">
<title>n10&#45;&gt;n3</title>
<path fill="none" stroke="#ff0000" d="M1948.078,-204.0795C1939.0858,-262.0052 1915.3192,-403.8458 1972,-500 1987.4921,-526.281 2012.68,-548.8264 2034.8017,-565.6436"/>
<polygon fill="#ff0000" stroke="#ff0000" points="2032.9872,-568.6556 2043.1034,-571.8044 2037.1588,-563.0344 2032.9872,-568.6556"/>
</g>
<!-- n10&#45;&gt;n6 -->
<g id="edge50" class="edge">
<title>n10&#45;&gt;n6</title>
<path fill="none" stroke="#ff0000" d="M1951.0115,-204.0315C1948.3974,-241.6111 1942.7539,-312.2252 1969,-364 1984.2235,-394.0308 2012.4446,-418.4934 2037.5395,-436.1312"/>
<polygon fill="#ff0000" stroke="#ff0000" points="2035.6758,-439.0967 2045.9068,-441.8492 2039.6253,-433.3173 2035.6758,-439.0967"/>
</g>
<!-- n10&#45;&gt;n8 -->
<g id="edge52" class="edge">
<title>n10&#45;&gt;n8</title>
<path fill="none" stroke="#ff0000" d="M1990.1263,-151.8489C2025.3337,-130.8248 2076.8957,-101.2358 2116.9872,-79.0171"/>
<polygon fill="#ff0000" stroke="#ff0000" points="2118.8127,-82.0073 2125.8747,-74.1093 2115.4288,-75.8795 2118.8127,-82.0073"/>
</g>
<!-- n10&#45;&gt;n9 -->
<g id="edge54" class="edge">
<title>n10&#45;&gt;n9</title>
<path fill="none" stroke="#ff0000" d="M1944.4514,-151.6926C1943.2033,-134.1287 1942.9277,-110.6387 1943.6245,-90.4577"/>
<polygon fill="#ff0000" stroke="#ff0000" points="1947.1305,-90.4003 1944.0776,-80.2549 1940.1373,-90.0897 1947.1305,-90.4003"/>
</g>
<!-- n10&#45;&gt;n12 -->
<g id="edge69" class="edge">
<title>n10&#45;&gt;n12</title>
<path fill="none" stroke="#ff0000" d="M1977.4778,-204.3608C1998.3689,-227.3328 2026.5711,-260.7945 2046.2236,-285.8192"/>
<polygon fill="#ff0000" stroke="#ff0000" points="2043.6415,-288.2008 2052.5376,-293.955 2049.1716,-283.9091 2043.6415,-288.2008"/>
</g>
<!-- n12&#45;&gt;n3 -->
<g id="edge60" class="edge">
<title>n12&#45;&gt;n3</title>
<path fill="none" stroke="#ff0000" d="M2044.4064,-346.0007C2024.1211,-365.8513 1997.1418,-395.2923 1985,-428 1973.8635,-457.9996 1972.3874,-470.5904 1985,-500 1996.2509,-526.2344 2018.3567,-548.7658 2038.3843,-565.5858"/>
<polygon fill="#ff0000" stroke="#ff0000" points="2036.2585,-568.3686 2046.2197,-571.9775 2040.6832,-562.9443 2036.2585,-568.3686"/>
</g>
<!-- n12&#45;&gt;n6 -->
<g id="edge62" class="edge">
<title>n12&#45;&gt;n6</title>
<path fill="none" stroke="#ff0000" d="M2077.5139,-346.3555C2082.1117,-370.1677 2086.5955,-405.4308 2088.499,-431.8674"/>
<polygon fill="#ff0000" stroke="#ff0000" points="2085.0075,-432.115 2089.1149,-441.8813 2091.9943,-431.6852 2085.0075,-432.115"/>
</g>
<!-- n12&#45;&gt;n8 -->
<g id="edge64" class="edge">
<title>n12&#45;&gt;n8</title>
<path fill="none" stroke="#ff0000" d="M2075.1767,-293.9195C2091.4149,-244.8739 2133.326,-138.8625 2158.2129,-83.4182"/>
<polygon fill="#ff0000" stroke="#ff0000" points="2161.5421,-84.5528 2162.5023,-74.0015 2155.1718,-81.651 2161.5421,-84.5528"/>
</g>
<!-- n12&#45;&gt;n9 -->
<g id="edge66" class="edge">
<title>n12&#45;&gt;n9</title>
<path fill="none" stroke="#ff0000" d="M2066.9764,-293.8242C2068.3022,-259.5103 2071.4472,-198.2556 2050,-152 2038.1988,-126.5481 2017.1514,-104.1668 1997.3398,-86.7513"/>
<polygon fill="#ff0000" stroke="#ff0000" points="1999.4153,-83.9209 1989.5401,-80.0828 1994.8664,-89.2415 1999.4153,-83.9209"/>
</g>
<!-- n12&#45;&gt;n10 -->
<g id="edge68" class="edge">
<title>n12&#45;&gt;n10</title>
<path fill="none" stroke="#ff0000" d="M2041.8095,-293.955C2020.9859,-271.0797 1992.7783,-237.6278 1973.0477,-212.5261"/>
<polygon fill="#ff0000" stroke="#ff0000" points="1975.6032,-210.1105 1966.7043,-204.3608 1970.0753,-214.405 1975.6032,-210.1105"/>
</g>
<!-- n18 -->
<g id="node21" class="node">
<title>n18</title>
<path fill="#ffffff" stroke="#ffe4b5" stroke-width="2" d="M2051,-1140C2051,-1140 1879,-1140 1879,-1140 1873,-1140 1867,-1134 1867,-1128 1867,-1128 1867,-1100 1867,-1100 1867,-1094 1873,-1088 1879,-1088 1879,-1088 2051,-1088 2051,-1088 2057,-1088 2063,-1094 2063,-1100 2063,-1100 2063,-1128 2063,-1128 2063,-1134 2057,-1140 2051,-1140"/>
<text text-anchor="start" x="1924.9965" y="-1126" font-family="arial" font-weight="bold" font-size="10.00" fill="#000000">Some BCL as CM</text>
<text text-anchor="start" x="1877.482" y="-1109" font-family="arial" font-size="10.00" fill="#000000">Some part of the black Culm Limestone</text>
<text text-anchor="start" x="1899.713" y="-1097" font-family="arial" font-size="10.00" fill="#000000"> is CM in age #pri #chron&#45;hyp</text>
</g>
<!-- n37 -->
<g id="node28" class="node">
<title>n37</title>
<path fill="#ffe4b5" stroke="#000000" d="M1918,-1004C1918,-1004 1742,-1004 1742,-1004 1736,-1004 1730,-998 1730,-992 1730,-992 1730,-940 1730,-940 1730,-934 1736,-928 1742,-928 1742,-928 1918,-928 1918,-928 1924,-928 1930,-934 1930,-940 1930,-940 1930,-992 1930,-992 1930,-998 1924,-1004 1918,-1004"/>
<text text-anchor="start" x="1745.252" y="-990" font-family="arial" font-weight="bold" font-size="10.00" fill="#000000">Standard Sequence as Partition &#45; BCL</text>
<text text-anchor="start" x="1763.5985" y="-973" font-family="arial" font-size="10.00" fill="#000000">If some part of the black Culm</text>
<text text-anchor="start" x="1739.9885" y="-961" font-family="arial" font-size="10.00" fill="#000000"> Limestone is neiter CM, ML, OR nor SIL</text>
<text text-anchor="start" x="1756.372" y="-949" font-family="arial" font-size="10.00" fill="#000000"> in age, then it is CAM in age #pri</text>
<text text-anchor="start" x="1803.6045" y="-937" font-family="arial" font-size="10.00" fill="#000000"> #chron&#45;hyp</text>
</g>
<!-- n18&#45;&gt;n37 -->
<g id="edge23" class="edge">
<title>n18&#45;&gt;n37</title>
<path fill="none" stroke="#ff0000" d="M1941.1755,-1087.8813C1921.9679,-1066.824 1894.4916,-1036.7019 1871.6605,-1011.6723"/>
<polygon fill="#ff0000" stroke="#ff0000" points="1874.0635,-1009.113 1864.7384,-1004.0836 1868.8918,-1013.8305 1874.0635,-1009.113"/>
</g>
<!-- n38 -->
<g id="node29" class="node">
<title>n38</title>
<path fill="#f4a460" stroke="#000000" d="M2165,-732C2165,-732 1993,-732 1993,-732 1987,-732 1981,-726 1981,-720 1981,-720 1981,-708 1981,-708 1981,-702 1987,-696 1993,-696 1993,-696 2165,-696 2165,-696 2171,-696 2177,-702 2177,-708 2177,-708 2177,-720 2177,-720 2177,-726 2171,-732 2165,-732"/>
<text text-anchor="start" x="2025.656" y="-712" font-family="arial" font-weight="bold" font-size="10.00" fill="#000000">Dating the BCL &#45; GRE.1</text>
</g>
<!-- n18&#45;&gt;n38 -->
<g id="edge27" class="edge">
<title>n18&#45;&gt;n38</title>
<path fill="none" stroke="#ff0000" d="M1972.4799,-1087.7549C1992.9703,-1015.8585 2049.8812,-816.1713 2070.9878,-742.1129"/>
<polygon fill="#ff0000" stroke="#ff0000" points="2074.4586,-742.7044 2073.8335,-732.128 2067.7266,-740.7857 2074.4586,-742.7044"/>
</g>
<!-- n39 -->
<g id="node30" class="node">
<title>n39</title>
<path fill="#ffc1c1" stroke="#000000" d="M2379,-732C2379,-732 2207,-732 2207,-732 2201,-732 2195,-726 2195,-720 2195,-720 2195,-708 2195,-708 2195,-702 2201,-696 2207,-696 2207,-696 2379,-696 2379,-696 2385,-696 2391,-702 2391,-708 2391,-708 2391,-720 2391,-720 2391,-726 2385,-732 2379,-732"/>
<text text-anchor="start" x="2234.097" y="-712" font-family="arial" font-weight="bold" font-size="10.00" fill="#000000">Redating the BCL &#45; COA.1</text>
</g>
<!-- n18&#45;&gt;n39 -->
<g id="edge102" class="edge">
<title>n18&#45;&gt;n39</title>
<path fill="none" stroke="#00ff00" d="M1986.521,-1087.7549C2046.0801,-1015.1218 2212.586,-812.0659 2271.7814,-739.8764"/>
<polygon fill="#00ff00" stroke="#00ff00" points="2274.5006,-742.08 2278.135,-732.128 2269.0878,-737.6414 2274.5006,-742.08"/>
</g>
<!-- n40 -->
<g id="node31" class="node">
<title>n40</title>
<path fill="#ffc1c1" stroke="#000000" d="M1523,-732C1523,-732 1351,-732 1351,-732 1345,-732 1339,-726 1339,-720 1339,-720 1339,-708 1339,-708 1339,-702 1345,-696 1351,-696 1351,-696 1523,-696 1523,-696 1529,-696 1535,-702 1535,-708 1535,-708 1535,-720 1535,-720 1535,-726 1529,-732 1523,-732"/>
<text text-anchor="start" x="1373.928" y="-712" font-family="arial" font-weight="bold" font-size="10.00" fill="#000000">Redating the BCL &#45; COA.3.2</text>
</g>
<!-- n18&#45;&gt;n40 -->
<g id="edge41" class="edge">
<title>n18&#45;&gt;n40</title>
<path fill="none" stroke="#ff0000" d="M1895.6217,-1087.9034C1815.7946,-1057.6897 1694.5186,-1011.1365 1686,-1004 1654.7977,-977.8599 1662.2477,-958.6946 1638,-926 1594.8623,-867.8348 1580.0564,-856.3298 1530,-804 1508.5285,-781.5533 1483.1252,-757.103 1464.2987,-739.3595"/>
<polygon fill="#ff0000" stroke="#ff0000" points="1466.3496,-736.4842 1456.6635,-732.1912 1461.5583,-741.5876 1466.3496,-736.4842"/>
</g>
<!-- n42 -->
<g id="node33" class="node">
<title>n42</title>
<path fill="#ffc1c1" stroke="#000000" d="M1737,-732C1737,-732 1565,-732 1565,-732 1559,-732 1553,-726 1553,-720 1553,-720 1553,-708 1553,-708 1553,-702 1559,-696 1565,-696 1565,-696 1737,-696 1737,-696 1743,-696 1749,-702 1749,-708 1749,-708 1749,-720 1749,-720 1749,-726 1743,-732 1737,-732"/>
<text text-anchor="start" x="1587.928" y="-712" font-family="arial" font-weight="bold" font-size="10.00" fill="#000000">Redating the BCL &#45; COA.2.b</text>
</g>
<!-- n18&#45;&gt;n42 -->
<g id="edge44" class="edge">
<title>n18&#45;&gt;n42</title>
<path fill="none" stroke="#ff0000" d="M1899.3705,-1087.9031C1831.3549,-1060.3137 1733.2498,-1018.7802 1721,-1004 1687.7264,-963.8531 1663.4901,-807.4573 1654.6589,-742.515"/>
<polygon fill="#ff0000" stroke="#ff0000" points="1658.0748,-741.6514 1653.2822,-732.2025 1651.1363,-742.5777 1658.0748,-741.6514"/>
</g>
<!-- n43 -->
<g id="node34" class="node">
<title>n43</title>
<path fill="#eedd82" stroke="#000000" d="M1951,-732C1951,-732 1779,-732 1779,-732 1773,-732 1767,-726 1767,-720 1767,-720 1767,-708 1767,-708 1767,-702 1773,-696 1779,-696 1779,-696 1951,-696 1951,-696 1957,-696 1963,-702 1963,-708 1963,-708 1963,-720 1963,-720 1963,-726 1957,-732 1951,-732"/>
<text text-anchor="start" x="1806.652" y="-712" font-family="arial" font-weight="bold" font-size="10.00" fill="#000000">Redating the BCL &#45; DEV.1</text>
</g>
<!-- n18&#45;&gt;n43 -->
<g id="edge56" class="edge">
<title>n18&#45;&gt;n43</title>
<path fill="none" stroke="#ff0000" d="M1968.9891,-1087.8043C1973.4759,-1048.3485 1975.9032,-973.2687 1939,-926 1887.7039,-860.2957 1811.6638,-925.0712 1765,-856 1736.6746,-814.0731 1788.4523,-766.0975 1827.4885,-738.0184"/>
<polygon fill="#ff0000" stroke="#ff0000" points="1829.9011,-740.6019 1836.0866,-732.0002 1825.887,-734.8672 1829.9011,-740.6019"/>
</g>
<!-- n19 -->
<g id="node22" class="node">
<title>n19</title>
<path fill="#ffffff" stroke="#ffe4b5" stroke-width="2" d="M2265,-1140C2265,-1140 2093,-1140 2093,-1140 2087,-1140 2081,-1134 2081,-1128 2081,-1128 2081,-1100 2081,-1100 2081,-1094 2087,-1088 2093,-1088 2093,-1088 2265,-1088 2265,-1088 2271,-1088 2277,-1094 2277,-1100 2277,-1100 2277,-1128 2277,-1128 2277,-1134 2271,-1140 2265,-1140"/>
<text text-anchor="start" x="2139.8265" y="-1126" font-family="arial" font-weight="bold" font-size="10.00" fill="#000000">Some BCL as ML</text>
<text text-anchor="start" x="2091.482" y="-1109" font-family="arial" font-size="10.00" fill="#000000">Some part of the black Culm Limestone</text>
<text text-anchor="start" x="2114.543" y="-1097" font-family="arial" font-size="10.00" fill="#000000"> is ML in age #pri #chron&#45;hyp</text>
</g>
<!-- n19&#45;&gt;n37 -->
<g id="edge24" class="edge">
<title>n19&#45;&gt;n37</title>
<path fill="none" stroke="#ff0000" d="M2117.4092,-1087.8813C2065.2926,-1065.7803 1989.6283,-1033.6934 1929.0157,-1007.9895"/>
<polygon fill="#ff0000" stroke="#ff0000" points="1930.3782,-1004.7656 1919.8053,-1004.0836 1927.6452,-1011.2101 1930.3782,-1004.7656"/>
</g>
<!-- n19&#45;&gt;n38 -->
<g id="edge28" class="edge">
<title>n19&#45;&gt;n38</title>
<path fill="none" stroke="#ff0000" d="M2172.4387,-1087.7549C2154.4646,-1015.8585 2104.5428,-816.1713 2086.0282,-742.1129"/>
<polygon fill="#ff0000" stroke="#ff0000" points="2089.3529,-740.9805 2083.532,-732.128 2082.5619,-742.6783 2089.3529,-740.9805"/>
</g>
<!-- n19&#45;&gt;n39 -->
<g id="edge31" class="edge">
<title>n19&#45;&gt;n39</title>
<path fill="none" stroke="#ff0000" d="M2186.4799,-1087.7549C2206.9703,-1015.8585 2263.8812,-816.1713 2284.9878,-742.1129"/>
<polygon fill="#ff0000" stroke="#ff0000" points="2288.4586,-742.7044 2287.8335,-732.128 2281.7266,-740.7857 2288.4586,-742.7044"/>
</g>
<!-- n19&#45;&gt;n40 -->
<g id="edge42" class="edge">
<title>n19&#45;&gt;n40</title>
<path fill="none" stroke="#ff0000" d="M2109.4251,-1087.9655C2051.1316,-1064.7733 1974.2765,-1030.5052 1954,-1004 1932.5507,-975.9617 1962.6435,-952.2147 1939,-926 1866.8662,-846.0217 1806.6719,-896.8082 1707,-856 1621.4609,-820.9781 1527.0679,-767.7125 1475.6471,-737.3539"/>
<polygon fill="#ff0000" stroke="#ff0000" points="1477.2473,-734.2337 1466.8609,-732.1423 1473.676,-740.2543 1477.2473,-734.2337"/>
</g>
<!-- n19&#45;&gt;n42 -->
<g id="edge103" class="edge">
<title>n19&#45;&gt;n42</title>
<path fill="none" stroke="#00ff00" d="M2153.8838,-1087.9294C2114.498,-1048.2984 2034.3702,-972.5925 1954,-926 1876.5045,-881.074 1837.668,-908.3761 1765,-856 1721.5826,-824.7065 1685.7357,-772.7045 1666.4332,-741.067"/>
<polygon fill="#00ff00" stroke="#00ff00" points="1669.3461,-739.1184 1661.2093,-732.3328 1663.3386,-742.7115 1669.3461,-739.1184"/>
</g>
<!-- n19&#45;&gt;n43 -->
<g id="edge57" class="edge">
<title>n19&#45;&gt;n43</title>
<path fill="none" stroke="#ff0000" d="M2165.9887,-1087.9239C2137.2917,-1031.9661 2064.2979,-897.8424 1979,-804 1955.8884,-778.5732 1925.0812,-754.7154 1901.3192,-737.9605"/>
<polygon fill="#ff0000" stroke="#ff0000" points="1903.1204,-734.9502 1892.9108,-732.1193 1899.1267,-740.6991 1903.1204,-734.9502"/>
</g>
<!-- n20 -->
<g id="node23" class="node">
<title>n20</title>
<path fill="#ffffff" stroke="#ffe4b5" stroke-width="2" d="M1623,-1140C1623,-1140 1451,-1140 1451,-1140 1445,-1140 1439,-1134 1439,-1128 1439,-1128 1439,-1100 1439,-1100 1439,-1094 1445,-1088 1451,-1088 1451,-1088 1623,-1088 1623,-1088 1629,-1088 1635,-1094 1635,-1100 1635,-1100 1635,-1128 1635,-1128 1635,-1134 1629,-1140 1623,-1140"/>
<text text-anchor="start" x="1493.937" y="-1126" font-family="arial" font-weight="bold" font-size="10.00" fill="#000000">Some BCL as ORS</text>
<text text-anchor="start" x="1449.482" y="-1109" font-family="arial" font-size="10.00" fill="#000000">Some part of the black Culm Limestone</text>
<text text-anchor="start" x="1468.6535" y="-1097" font-family="arial" font-size="10.00" fill="#000000"> is ORS in age #pri #chron&#45;hyp</text>
</g>
<!-- n20&#45;&gt;n37 -->
<g id="edge25" class="edge">
<title>n20&#45;&gt;n37</title>
<path fill="none" stroke="#ff0000" d="M1588.7081,-1087.8813C1632.1027,-1065.9618 1694.9432,-1034.2198 1745.6158,-1008.6241"/>
<polygon fill="#ff0000" stroke="#ff0000" points="1747.2568,-1011.7164 1754.6047,-1004.0836 1744.1007,-1005.4683 1747.2568,-1011.7164"/>
</g>
<!-- n20&#45;&gt;n38 -->
<g id="edge29" class="edge">
<title>n20&#45;&gt;n38</title>
<path fill="none" stroke="#ff0000" d="M1602.7692,-1087.9451C1616.2999,-1083.0007 1630.529,-1078.0987 1644,-1074 1772.9165,-1034.7756 1835.1586,-1089.8778 1939,-1004 1968.2808,-979.7845 1957.7873,-960.3642 1974,-926 2005.5709,-859.0829 2044.704,-781.3643 2065.1227,-741.1829"/>
<polygon fill="#ff0000" stroke="#ff0000" points="2068.3612,-742.5362 2069.7771,-732.0364 2062.1224,-739.3615 2068.3612,-742.5362"/>
</g>
<!-- n20&#45;&gt;n39 -->
<g id="edge32" class="edge">
<title>n20&#45;&gt;n39</title>
<path fill="none" stroke="#ff0000" d="M1602.1482,-1087.9882C1615.8527,-1082.9851 1630.3072,-1078.0494 1644,-1074 1782.3594,-1033.0823 1839.0946,-1081.1794 1961,-1004 2056.0167,-943.8441 2029.3345,-875.666 2116,-804 2151.3619,-774.7583 2197.8018,-751.594 2234.24,-736.0925"/>
<polygon fill="#ff0000" stroke="#ff0000" points="2235.8737,-739.2033 2243.7539,-732.1215 2233.1774,-732.7434 2235.8737,-739.2033"/>
</g>
<!-- n20&#45;&gt;n40 -->
<g id="edge104" class="edge">
<title>n20&#45;&gt;n40</title>
<path fill="none" stroke="#00ff00" d="M1530.4387,-1087.7549C1512.4646,-1015.8585 1462.5428,-816.1713 1444.0282,-742.1129"/>
<polygon fill="#00ff00" stroke="#00ff00" points="1447.3529,-740.9805 1441.532,-732.128 1440.5619,-742.6783 1447.3529,-740.9805"/>
</g>
<!-- n20&#45;&gt;n42 -->
<g id="edge45" class="edge">
<title>n20&#45;&gt;n42</title>
<path fill="none" stroke="#ff0000" d="M1544.4799,-1087.7549C1564.9703,-1015.8585 1621.8812,-816.1713 1642.9878,-742.1129"/>
<polygon fill="#ff0000" stroke="#ff0000" points="1646.4586,-742.7044 1645.8335,-732.128 1639.7266,-740.7857 1646.4586,-742.7044"/>
</g>
<!-- n20&#45;&gt;n43 -->
<g id="edge105" class="edge">
<title>n20&#45;&gt;n43</title>
<path fill="none" stroke="#00ff00" d="M1547.2437,-1087.9623C1570.6953,-1030.9163 1633.0398,-892.9143 1720,-804 1747.5983,-775.7816 1785.7392,-752.56 1815.9767,-736.7762"/>
<polygon fill="#00ff00" stroke="#00ff00" points="1817.7757,-739.7875 1825.0866,-732.1193 1814.5894,-733.5546 1817.7757,-739.7875"/>
</g>
<!-- n21 -->
<g id="node24" class="node">
<title>n21</title>
<path fill="#ffffff" stroke="#ffe4b5" stroke-width="2" d="M1837,-1140C1837,-1140 1665,-1140 1665,-1140 1659,-1140 1653,-1134 1653,-1128 1653,-1128 1653,-1100 1653,-1100 1653,-1094 1659,-1088 1665,-1088 1665,-1088 1837,-1088 1837,-1088 1843,-1088 1849,-1094 1849,-1100 1849,-1100 1849,-1128 1849,-1128 1849,-1134 1843,-1140 1837,-1140"/>
<text text-anchor="start" x="1711.267" y="-1126" font-family="arial" font-weight="bold" font-size="10.00" fill="#000000">Some BCL as SIL</text>
<text text-anchor="start" x="1663.482" y="-1109" font-family="arial" font-size="10.00" fill="#000000">Some part of the black Culm Limestone</text>
<text text-anchor="start" x="1685.9835" y="-1097" font-family="arial" font-size="10.00" fill="#000000"> is SIL in age #pri #chron&#45;hyp</text>
</g>
<!-- n21&#45;&gt;n37 -->
<g id="edge26" class="edge">
<title>n21&#45;&gt;n37</title>
<path fill="none" stroke="#ff0000" d="M1764.9418,-1087.8813C1775.988,-1067.1871 1791.7075,-1037.7379 1804.9274,-1012.9714"/>
<polygon fill="#ff0000" stroke="#ff0000" points="1808.0502,-1014.5537 1809.6716,-1004.0836 1801.8749,-1011.2574 1808.0502,-1014.5537"/>
</g>
<!-- n21&#45;&gt;n38 -->
<g id="edge30" class="edge">
<title>n21&#45;&gt;n38</title>
<path fill="none" stroke="#ff0000" d="M1817.0488,-1087.9013C1874.3972,-1064.1107 1951.654,-1028.9716 1974,-1004 2010.0222,-963.7452 2054.487,-806.8 2071.7097,-742.1103"/>
<polygon fill="#ff0000" stroke="#ff0000" points="2075.1574,-742.7625 2074.3266,-732.2003 2068.3894,-740.9752 2075.1574,-742.7625"/>
</g>
<!-- n21&#45;&gt;n39 -->
<g id="edge33" class="edge">
<title>n21&#45;&gt;n39</title>
<path fill="none" stroke="#ff0000" d="M1820.3022,-1087.923C1832.8373,-1083.2547 1845.7993,-1078.4589 1858,-1074 1944.8797,-1042.2485 1991.6702,-1072.3465 2054,-1004 2078.1153,-977.5568 2057.9086,-957.9665 2074,-926 2105.3971,-863.6279 2122.6897,-852.4244 2173,-804 2198.8469,-779.122 2231.6248,-754.9573 2256.3899,-737.9421"/>
<polygon fill="#ff0000" stroke="#ff0000" points="2258.4877,-740.7482 2264.791,-732.2324 2254.5529,-734.9588 2258.4877,-740.7482"/>
</g>
<!-- n21&#45;&gt;n40 -->
<g id="edge106" class="edge">
<title>n21&#45;&gt;n40</title>
<path fill="none" stroke="#00ff00" d="M1729.6297,-1087.8947C1711.5062,-1065.6825 1684.8835,-1032.8809 1662,-1004 1585.4964,-907.4463 1496.2311,-791.3466 1457.1032,-740.2797"/>
<polygon fill="#00ff00" stroke="#00ff00" points="1459.6871,-737.8972 1450.828,-732.0862 1454.1297,-742.1534 1459.6871,-737.8972"/>
</g>
<!-- n21&#45;&gt;n42 -->
<g id="edge46" class="edge">
<title>n21&#45;&gt;n42</title>
<path fill="none" stroke="#ff0000" d="M1731.378,-1087.9513C1716.3489,-1066.567 1696.4709,-1034.8809 1686,-1004 1654.8333,-912.083 1650.7054,-795.5166 1650.6071,-742.5303"/>
<polygon fill="#ff0000" stroke="#ff0000" points="1654.1079,-742.2312 1650.639,-732.2203 1647.108,-742.2094 1654.1079,-742.2312"/>
</g>
<!-- n21&#45;&gt;n43 -->
<g id="edge58" class="edge">
<title>n21&#45;&gt;n43</title>
<path fill="none" stroke="#ff0000" d="M1741.71,-1087.7346C1734.4354,-1065.7007 1724.9148,-1033.2332 1721,-1004 1709.0606,-914.8456 1703.1933,-879.5577 1752,-804 1769.8769,-776.3248 1799.1625,-753.3535 1823.4405,-737.546"/>
<polygon fill="#ff0000" stroke="#ff0000" points="1825.5477,-740.3545 1832.128,-732.0509 1821.8057,-734.4386 1825.5477,-740.3545"/>
</g>
<!-- n22 -->
<g id="node25" class="node">
<title>n22</title>
<path fill="#ffffff" stroke="#ffe4b5" stroke-width="2" d="M1958,-856C1958,-856 1786,-856 1786,-856 1780,-856 1774,-850 1774,-844 1774,-844 1774,-816 1774,-816 1774,-810 1780,-804 1786,-804 1786,-804 1958,-804 1958,-804 1964,-804 1970,-810 1970,-816 1970,-816 1970,-844 1970,-844 1970,-850 1964,-856 1958,-856"/>
<text text-anchor="start" x="1828.662" y="-842" font-family="arial" font-weight="bold" font-size="10.00" fill="#000000">Some BCL as CAM</text>
<text text-anchor="start" x="1784.482" y="-825" font-family="arial" font-size="10.00" fill="#000000">Some part of the black Culm Limestone</text>
<text text-anchor="start" x="1803.3785" y="-813" font-family="arial" font-size="10.00" fill="#000000"> is CAM in age #pri #chron&#45;hyp</text>
</g>
<!-- n22&#45;&gt;n38 -->
<g id="edge107" class="edge">
<title>n22&#45;&gt;n38</title>
<path fill="none" stroke="#00ff00" d="M1918.4548,-803.9673C1954.3453,-783.8548 2003.5447,-756.2841 2037.9878,-736.9827"/>
<polygon fill="#00ff00" stroke="#00ff00" points="2039.8353,-739.9595 2046.8479,-732.0176 2036.4133,-733.853 2039.8353,-739.9595"/>
</g>
<!-- n22&#45;&gt;n39 -->
<g id="edge34" class="edge">
<title>n22&#45;&gt;n39</title>
<path fill="none" stroke="#ff0000" d="M1966.4806,-803.9673C2042.426,-783.0418 2147.6722,-754.0428 2217.9333,-734.6835"/>
<polygon fill="#ff0000" stroke="#ff0000" points="2218.8976,-738.0483 2227.6086,-732.0176 2217.0381,-731.2998 2218.8976,-738.0483"/>
</g>
<!-- n22&#45;&gt;n40 -->
<g id="edge43" class="edge">
<title>n22&#45;&gt;n40</title>
<path fill="none" stroke="#ff0000" d="M1774.3775,-803.9673C1695.9066,-783.0418 1587.1606,-754.0428 1514.563,-734.6835"/>
<polygon fill="#ff0000" stroke="#ff0000" points="1515.1302,-731.2125 1504.566,-732.0176 1513.3265,-737.9761 1515.1302,-731.2125"/>
</g>
<!-- n22&#45;&gt;n42 -->
<g id="edge47" class="edge">
<title>n22&#45;&gt;n42</title>
<path fill="none" stroke="#ff0000" d="M1822.4033,-803.9673C1783.9224,-783.7692 1731.1113,-756.0493 1694.3174,-736.7367"/>
<polygon fill="#ff0000" stroke="#ff0000" points="1695.8077,-733.5662 1685.3266,-732.0176 1692.5544,-739.7642 1695.8077,-733.5662"/>
</g>
<!-- n22&#45;&gt;n43 -->
<g id="edge59" class="edge">
<title>n22&#45;&gt;n43</title>
<path fill="none" stroke="#ff0000" d="M1870.4291,-803.9673C1869.3187,-785.5665 1867.8316,-760.923 1866.6945,-742.0807"/>
<polygon fill="#ff0000" stroke="#ff0000" points="1870.1834,-741.7886 1866.0873,-732.0176 1863.1961,-742.2103 1870.1834,-741.7886"/>
</g>
<!-- n23 -->
<g id="node26" class="node">
<title>n23</title>
<path fill="#ffffff" stroke="#ffc1c1" stroke-width="2" d="M1635,-494C1635,-494 1463,-494 1463,-494 1457,-494 1451,-488 1451,-482 1451,-482 1451,-454 1451,-454 1451,-448 1457,-442 1463,-442 1463,-442 1635,-442 1635,-442 1641,-442 1647,-448 1647,-454 1647,-454 1647,-482 1647,-482 1647,-488 1641,-494 1635,-494"/>
<text text-anchor="start" x="1488.4355" y="-480" font-family="arial" font-weight="bold" font-size="10.00" fill="#000000">Yorkshire Limestone as ML</text>
<text text-anchor="start" x="1462.8725" y="-463" font-family="arial" font-size="10.00" fill="#000000">In Yorkshire, the limestone is Mountain</text>
<text text-anchor="start" x="1468.145" y="-451" font-family="arial" font-size="10.00" fill="#000000"> Limestone in age #COA #chron&#45;hyp</text>
</g>
<!-- n41 -->
<g id="node32" class="node">
<title>n41</title>
<path fill="#ffc1c1" stroke="#000000" d="M1856,-364C1856,-364 1684,-364 1684,-364 1678,-364 1672,-358 1672,-352 1672,-352 1672,-288 1672,-288 1672,-282 1678,-276 1684,-276 1684,-276 1856,-276 1856,-276 1862,-276 1868,-282 1868,-288 1868,-288 1868,-352 1868,-352 1868,-358 1862,-364 1856,-364"/>
<text text-anchor="start" x="1683.876" y="-350" font-family="arial" font-weight="bold" font-size="10.00" fill="#000000">Black Culm Limestone and Yorkshire II</text>
<text text-anchor="start" x="1690.266" y="-333" font-family="arial" font-size="10.00" fill="#000000">If the black Culm limestone is as old</text>
<text text-anchor="start" x="1696.0945" y="-321" font-family="arial" font-size="10.00" fill="#000000"> as the Yorkshire limestone being</text>
<text text-anchor="start" x="1687.7475" y="-309" font-family="arial" font-size="10.00" fill="#000000"> Mountain Limestone in age, then the</text>
<text text-anchor="start" x="1682.767" y="-297" font-family="arial" font-size="10.00" fill="#000000"> Culm limestone is Mountain Limestone</text>
<text text-anchor="start" x="1703.868" y="-285" font-family="arial" font-size="10.00" fill="#000000"> in age, too #COA #chron&#45;hyp</text>
</g>
<!-- n23&#45;&gt;n41 -->
<g id="edge108" class="edge">
<title>n23&#45;&gt;n41</title>
<path fill="none" stroke="#00ff00" d="M1588.0016,-441.8813C1617.7138,-421.9835 1659.5123,-393.9917 1695.5604,-369.851"/>
<polygon fill="#00ff00" stroke="#00ff00" points="1697.7487,-372.5979 1704.1101,-364.1254 1693.8536,-366.7816 1697.7487,-372.5979"/>
</g>
<!-- n24 -->
<g id="node27" class="node">
<title>n24</title>
<path fill="#ffffff" stroke="#ffc1c1" stroke-width="2" d="M1863,-494C1863,-494 1677,-494 1677,-494 1671,-494 1665,-488 1665,-482 1665,-482 1665,-454 1665,-454 1665,-448 1671,-442 1677,-442 1677,-442 1863,-442 1863,-442 1869,-442 1875,-448 1875,-454 1875,-454 1875,-482 1875,-482 1875,-488 1869,-494 1863,-494"/>
<text text-anchor="start" x="1701.6575" y="-480" font-family="arial" font-weight="bold" font-size="10.00" fill="#000000">Yorkshire and Culm Limestone</text>
<text text-anchor="start" x="1686.1005" y="-463" font-family="arial" font-size="10.00" fill="#000000">The black Culm limestone is as old as</text>
<text text-anchor="start" x="1674.9825" y="-451" font-family="arial" font-size="10.00" fill="#000000"> the Yorkshire limestone #COA #chron&#45;hyp</text>
</g>
<!-- n24&#45;&gt;n41 -->
<g id="edge109" class="edge">
<title>n24&#45;&gt;n41</title>
<path fill="none" stroke="#00ff00" d="M1770,-441.8813C1770,-423.1589 1770,-397.2706 1770,-374.1669"/>
<polygon fill="#00ff00" stroke="#00ff00" points="1773.5001,-374.1253 1770,-364.1254 1766.5001,-374.1254 1773.5001,-374.1253"/>
</g>
<!-- n37&#45;&gt;n22 -->
<g id="edge89" class="edge">
<title>n37&#45;&gt;n22</title>
<path fill="none" stroke="#00ff00" d="M1841.8111,-927.7545C1847.7754,-908.4416 1854.9715,-885.1399 1860.8417,-866.1315"/>
<polygon fill="#00ff00" stroke="#00ff00" points="1864.2568,-866.9344 1863.8635,-856.3469 1857.5685,-864.8688 1864.2568,-866.9344"/>
</g>
<!-- n38&#45;&gt;n3 -->
<g id="edge90" class="edge">
<title>n38&#45;&gt;n3</title>
<path fill="none" stroke="#00ff00" d="M2079,-695.875C2079,-679.4878 2079,-654.8696 2079,-634.4234"/>
<polygon fill="#00ff00" stroke="#00ff00" points="2082.5001,-634.1773 2079,-624.1773 2075.5001,-634.1773 2082.5001,-634.1773"/>
</g>
<!-- n39&#45;&gt;n6 -->
<g id="edge91" class="edge">
<title>n39&#45;&gt;n6</title>
<path fill="none" stroke="#00ff00" d="M2280.8029,-695.929C2261.9452,-668.3678 2224.1078,-614.5451 2188,-572 2166.9682,-547.2186 2141.4536,-520.974 2121.331,-501.0487"/>
<polygon fill="#00ff00" stroke="#00ff00" points="2123.7612,-498.5297 2114.1797,-494.0081 2118.8502,-503.5179 2123.7612,-498.5297"/>
</g>
<!-- n40&#45;&gt;n9 -->
<g id="edge92" class="edge">
<title>n40&#45;&gt;n9</title>
<path fill="none" stroke="#00ff00" d="M1436.3769,-695.7946C1435.0365,-655.0136 1432,-553.2207 1432,-468 1432,-468 1432,-468 1432,-320 1432,-136.5555 1689.8024,-76.5691 1841.6634,-57.1469"/>
<polygon fill="#00ff00" stroke="#00ff00" points="1842.4654,-60.5744 1851.9592,-55.8713 1841.6047,-53.6275 1842.4654,-60.5744"/>
</g>
<!-- n41&#45;&gt;n10 -->
<g id="edge93" class="edge">
<title>n41&#45;&gt;n10</title>
<path fill="none" stroke="#00ff00" d="M1825.9664,-275.8487C1852.7627,-254.7095 1884.2793,-229.8463 1908.8373,-210.4728"/>
<polygon fill="#00ff00" stroke="#00ff00" points="1911.1987,-213.0679 1916.882,-204.1264 1906.8632,-207.5722 1911.1987,-213.0679"/>
</g>
<!-- n42&#45;&gt;n10 -->
<g id="edge94" class="edge">
<title>n42&#45;&gt;n10</title>
<path fill="none" stroke="#00ff00" d="M1681.1461,-695.9262C1732.1407,-663.6052 1834.6808,-590.7174 1884,-500 1932.2306,-411.285 1899.6512,-374.4737 1922,-276 1926.7252,-255.1797 1933.2161,-232.2158 1938.7587,-213.7539"/>
<polygon fill="#00ff00" stroke="#00ff00" points="1942.1631,-214.5883 1941.7231,-204.0026 1935.4658,-212.5522 1942.1631,-214.5883"/>
</g>
<!-- n43&#45;&gt;n12 -->
<g id="edge95" class="edge">
<title>n43&#45;&gt;n12</title>
<path fill="none" stroke="#00ff00" d="M1872.1475,-695.8178C1879.2028,-677.7023 1890.1833,-649.0512 1899,-624 1929.4225,-537.5598 1915.4281,-506.3221 1963,-428 1980.3243,-399.4773 2006.5537,-372.6701 2028.5857,-352.8983"/>
<polygon fill="#00ff00" stroke="#00ff00" points="2030.9917,-355.4432 2036.1822,-346.2069 2026.3648,-350.1904 2030.9917,-355.4432"/>
</g>
<!-- n4 -->
<g id="node35" class="node">
<title>n4</title>
<path fill="#ffffff" stroke="#f4a460" stroke-width="2" d="M2906,-624C2906,-624 2734,-624 2734,-624 2728,-624 2722,-618 2722,-612 2722,-612 2722,-584 2722,-584 2722,-578 2728,-572 2734,-572 2734,-572 2906,-572 2906,-572 2912,-572 2918,-578 2918,-584 2918,-584 2918,-612 2918,-612 2918,-618 2912,-624 2906,-624"/>
<text text-anchor="start" x="2778.337" y="-610" font-family="arial" font-weight="bold" font-size="10.00" fill="#000000">Non&#45;Culm as CAM</text>
<text text-anchor="start" x="2743.316" y="-593" font-family="arial" font-size="10.00" fill="#000000">The non&#45;Culm strata is nothing but</text>
<text text-anchor="start" x="2739.1505" y="-581" font-family="arial" font-size="10.00" fill="#000000"> Cambrian in age #GRE #chron&#45;hyp </text>
</g>
<!-- n7 -->
<g id="node36" class="node">
<title>n7</title>
<path fill="#ffffff" stroke="#ffc1c1" stroke-width="2" d="M2906,-500C2906,-500 2734,-500 2734,-500 2728,-500 2722,-494 2722,-488 2722,-488 2722,-448 2722,-448 2722,-442 2728,-436 2734,-436 2734,-436 2906,-436 2906,-436 2912,-436 2918,-442 2918,-448 2918,-448 2918,-488 2918,-488 2918,-494 2912,-500 2906,-500"/>
<text text-anchor="start" x="2759.716" y="-486" font-family="arial" font-weight="bold" font-size="10.00" fill="#000000">Non&#45;Culm as SIL and CAM</text>
<text text-anchor="start" x="2739.1465" y="-469" font-family="arial" font-size="10.00" fill="#000000">In Devon, the non&#45;Culm strata range</text>
<text text-anchor="start" x="2731.934" y="-457" font-family="arial" font-size="10.00" fill="#000000"> from Cambrian to Silurian in age #COA</text>
<text text-anchor="start" x="2793.6045" y="-445" font-family="arial" font-size="10.00" fill="#000000"> #chron&#45;hyp</text>
</g>
<!-- n4&#45;&gt;n7 -->
<g id="edge82" class="edge">
<title>n4&#45;&gt;n7</title>
<path fill="none" stroke="#ff0000" d="M2814.4514,-571.6926C2813.2033,-554.1287 2812.9277,-530.6387 2813.6245,-510.4577"/>
<polygon fill="#ff0000" stroke="#ff0000" points="2817.1305,-510.4003 2814.0776,-500.2549 2810.1373,-510.0897 2817.1305,-510.4003"/>
</g>
<!-- n7&#45;&gt;n4 -->
<g id="edge81" class="edge">
<title>n7&#45;&gt;n4</title>
<path fill="none" stroke="#ff0000" d="M2825.9224,-500.2549C2826.9488,-518.8297 2827.0205,-542.2335 2826.1374,-561.4829"/>
<polygon fill="#ff0000" stroke="#ff0000" points="2822.6303,-561.5076 2825.5486,-571.6926 2829.6187,-561.9107 2822.6303,-561.5076"/>
</g>
<!-- n25 -->
<g id="node37" class="node">
<title>n25</title>
<path fill="#ffffff" stroke="#ffe4b5" stroke-width="2" d="M2813,-1140C2813,-1140 2641,-1140 2641,-1140 2635,-1140 2629,-1134 2629,-1128 2629,-1128 2629,-1100 2629,-1100 2629,-1094 2635,-1088 2641,-1088 2641,-1088 2813,-1088 2813,-1088 2819,-1088 2825,-1094 2825,-1100 2825,-1100 2825,-1128 2825,-1128 2825,-1134 2819,-1140 2813,-1140"/>
<text text-anchor="start" x="2674.224" y="-1126" font-family="arial" font-weight="bold" font-size="10.00" fill="#000000">Some Non&#45;Culm as CM</text>
<text text-anchor="start" x="2638.933" y="-1109" font-family="arial" font-size="10.00" fill="#000000">Some part of the non&#45;Culm strata is CM</text>
<text text-anchor="start" x="2675.8755" y="-1097" font-family="arial" font-size="10.00" fill="#000000"> in age #pri #chron&#45;hyp</text>
</g>
<!-- n44 -->
<g id="node42" class="node">
<title>n44</title>
<path fill="#ffe4b5" stroke="#000000" d="M2920,-1002C2920,-1002 2748,-1002 2748,-1002 2742,-1002 2736,-996 2736,-990 2736,-990 2736,-942 2736,-942 2736,-936 2742,-930 2748,-930 2748,-930 2920,-930 2920,-930 2926,-930 2932,-936 2932,-942 2932,-942 2932,-990 2932,-990 2932,-996 2926,-1002 2920,-1002"/>
<text text-anchor="start" x="2760.365" y="-988" font-family="arial" font-weight="bold" font-size="10.00" fill="#000000">Standard Sequence as Partition &#45;</text>
<text text-anchor="start" x="2810.1145" y="-978" font-family="arial" font-weight="bold" font-size="10.00" fill="#000000"> Non&#45;Culm</text>
<text text-anchor="start" x="2751.7625" y="-963" font-family="arial" font-size="10.00" fill="#000000">If some part of the non&#45;Culm strata is</text>
<text text-anchor="start" x="2745.9245" y="-951" font-family="arial" font-size="10.00" fill="#000000"> neiter CM, ML, OR nor SIL in age, then</text>
<text text-anchor="start" x="2761.49" y="-939" font-family="arial" font-size="10.00" fill="#000000"> it is CAM in age #pri #chron&#45;hyp</text>
</g>
<!-- n25&#45;&gt;n44 -->
<g id="edge70" class="edge">
<title>n25&#45;&gt;n44</title>
<path fill="none" stroke="#ff0000" d="M2745.8831,-1087.8813C2761.353,-1066.4837 2783.5902,-1035.7258 2801.8547,-1010.4626"/>
<polygon fill="#ff0000" stroke="#ff0000" points="2804.8584,-1012.2818 2807.881,-1002.1272 2799.1857,-1008.1805 2804.8584,-1012.2818"/>
</g>
<!-- n45 -->
<g id="node43" class="node">
<title>n45</title>
<path fill="#f4a460" stroke="#000000" d="M2853,-732C2853,-732 2681,-732 2681,-732 2675,-732 2669,-726 2669,-720 2669,-720 2669,-708 2669,-708 2669,-702 2675,-696 2681,-696 2681,-696 2853,-696 2853,-696 2859,-696 2865,-702 2865,-708 2865,-708 2865,-720 2865,-720 2865,-726 2859,-732 2853,-732"/>
<text text-anchor="start" x="2702.273" y="-712" font-family="arial" font-weight="bold" font-size="10.00" fill="#000000">Dating the Non&#45;Culm&#45; GRE.1</text>
</g>
<!-- n25&#45;&gt;n45 -->
<g id="edge74" class="edge">
<title>n25&#45;&gt;n45</title>
<path fill="none" stroke="#ff0000" d="M2721.4767,-1087.6384C2711.1795,-1033.3398 2692.5465,-905.5967 2721,-804 2727.2689,-781.6162 2739.367,-758.2992 2749.5831,-741.0083"/>
<polygon fill="#ff0000" stroke="#ff0000" points="2752.8146,-742.43 2755.0161,-732.0664 2746.8323,-738.7951 2752.8146,-742.43"/>
</g>
<!-- n46 -->
<g id="node44" class="node">
<title>n46</title>
<path fill="#ffc1c1" stroke="#000000" d="M3086.5,-732C3086.5,-732 2895.5,-732 2895.5,-732 2889.5,-732 2883.5,-726 2883.5,-720 2883.5,-720 2883.5,-708 2883.5,-708 2883.5,-702 2889.5,-696 2895.5,-696 2895.5,-696 3086.5,-696 3086.5,-696 3092.5,-696 3098.5,-702 3098.5,-708 3098.5,-708 3098.5,-720 3098.5,-720 3098.5,-726 3092.5,-732 3086.5,-732"/>
<text text-anchor="start" x="2893.7085" y="-712" font-family="arial" font-weight="bold" font-size="10.00" fill="#000000">Extending the Non&#45;Culm Upwards &#45; COA.2a</text>
</g>
<!-- n25&#45;&gt;n46 -->
<g id="edge80" class="edge">
<title>n25&#45;&gt;n46</title>
<path fill="none" stroke="#ff0000" d="M2723.3708,-1087.9612C2717.6153,-1042.5021 2708.7993,-951.1031 2727,-926 2785.7398,-844.9836 2869.4509,-925.9625 2941,-856 2972.2282,-825.4643 2983.9922,-774.2866 2988.3966,-742.4275"/>
<polygon fill="#ff0000" stroke="#ff0000" points="2991.8803,-742.7736 2989.6257,-732.4214 2984.9326,-741.9201 2991.8803,-742.7736"/>
</g>
<!-- n26 -->
<g id="node38" class="node">
<title>n26</title>
<path fill="#ffffff" stroke="#ffe4b5" stroke-width="2" d="M2599,-1140C2599,-1140 2427,-1140 2427,-1140 2421,-1140 2415,-1134 2415,-1128 2415,-1128 2415,-1100 2415,-1100 2415,-1094 2421,-1088 2427,-1088 2427,-1088 2599,-1088 2599,-1088 2605,-1088 2611,-1094 2611,-1100 2611,-1100 2611,-1128 2611,-1128 2611,-1134 2605,-1140 2599,-1140"/>
<text text-anchor="start" x="2461.054" y="-1126" font-family="arial" font-weight="bold" font-size="10.00" fill="#000000">Some Non&#45;Culm as ML</text>
<text text-anchor="start" x="2425.763" y="-1109" font-family="arial" font-size="10.00" fill="#000000">Some part of the non&#45;Culm strata is ML</text>
<text text-anchor="start" x="2461.8755" y="-1097" font-family="arial" font-size="10.00" fill="#000000"> in age #pri #chron&#45;hyp</text>
</g>
<!-- n26&#45;&gt;n44 -->
<g id="edge71" class="edge">
<title>n26&#45;&gt;n44</title>
<path fill="none" stroke="#ff0000" d="M2569.6494,-1087.8813C2618.5813,-1065.3208 2690.0817,-1032.3549 2746.3872,-1006.3947"/>
<polygon fill="#ff0000" stroke="#ff0000" points="2748.0272,-1009.4927 2755.643,-1002.1272 2745.0963,-1003.1358 2748.0272,-1009.4927"/>
</g>
<!-- n26&#45;&gt;n45 -->
<g id="edge75" class="edge">
<title>n26&#45;&gt;n45</title>
<path fill="none" stroke="#ff0000" d="M2529.0985,-1087.7107C2562.0245,-1034.0682 2639.645,-908.2572 2707,-804 2720.7977,-782.6429 2736.7843,-758.7012 2748.7847,-740.8832"/>
<polygon fill="#ff0000" stroke="#ff0000" points="2751.972,-742.417 2754.664,-732.1698 2746.1694,-738.5016 2751.972,-742.417"/>
</g>
<!-- n26&#45;&gt;n46 -->
<g id="edge79" class="edge">
<title>n26&#45;&gt;n46</title>
<path fill="none" stroke="#ff0000" d="M2538.5426,-1087.5962C2558.7946,-1066.0111 2587.2146,-1034.228 2609,-1004 2653.6116,-942.0998 2660.1052,-923.3304 2696,-856 2708.0636,-833.3715 2701.7585,-820.9512 2721,-804 2748.9608,-779.3674 2837.7016,-752.5185 2905.8944,-734.6159"/>
<polygon fill="#ff0000" stroke="#ff0000" points="2906.9997,-737.945 2915.7969,-732.0408 2905.2379,-731.1703 2906.9997,-737.945"/>
</g>
<!-- n27 -->
<g id="node39" class="node">
<title>n27</title>
<path fill="#ffffff" stroke="#ffe4b5" stroke-width="2" d="M3247,-1140C3247,-1140 3069,-1140 3069,-1140 3063,-1140 3057,-1134 3057,-1128 3057,-1128 3057,-1100 3057,-1100 3057,-1094 3063,-1088 3069,-1088 3069,-1088 3247,-1088 3247,-1088 3253,-1088 3259,-1094 3259,-1100 3259,-1100 3259,-1128 3259,-1128 3259,-1134 3253,-1140 3247,-1140"/>
<text text-anchor="start" x="3102.1645" y="-1126" font-family="arial" font-weight="bold" font-size="10.00" fill="#000000">Some Non&#45;Culm as ORS</text>
<text text-anchor="start" x="3066.8735" y="-1109" font-family="arial" font-size="10.00" fill="#000000">Some part of the non&#45;Culm strata is ORS</text>
<text text-anchor="start" x="3106.8755" y="-1097" font-family="arial" font-size="10.00" fill="#000000"> in age #pri #chron&#45;hyp</text>
</g>
<!-- n27&#45;&gt;n44 -->
<g id="edge72" class="edge">
<title>n27&#45;&gt;n44</title>
<path fill="none" stroke="#ff0000" d="M3100.8211,-1087.8813C3051.4319,-1065.3208 2979.2633,-1032.3549 2922.4316,-1006.3947"/>
<polygon fill="#ff0000" stroke="#ff0000" points="2923.6395,-1003.0986 2913.0893,-1002.1272 2920.731,-1009.4658 2923.6395,-1003.0986"/>
</g>
<!-- n27&#45;&gt;n45 -->
<g id="edge76" class="edge">
<title>n27&#45;&gt;n45</title>
<path fill="none" stroke="#ff0000" d="M3137.8653,-1087.6778C3121.168,-1065.6101 3097.0116,-1033.1247 3077,-1004 3017.2352,-917.0187 3027.6162,-874.4064 2949,-804 2915.0127,-773.562 2868.8685,-750.8961 2831.5486,-735.924"/>
<polygon fill="#ff0000" stroke="#ff0000" points="2832.3578,-732.4821 2821.7701,-732.0945 2829.8052,-739.0001 2832.3578,-732.4821"/>
</g>
<!-- n27&#45;&gt;n46 -->
<g id="edge78" class="edge">
<title>n27&#45;&gt;n46</title>
<path fill="none" stroke="#ff0000" d="M3147.0427,-1087.7549C3116.9644,-1015.7111 3033.3146,-815.3524 3002.5477,-741.6592"/>
<polygon fill="#ff0000" stroke="#ff0000" points="3005.651,-740.0076 2998.5684,-732.128 2999.1914,-742.7045 3005.651,-740.0076"/>
</g>
<!-- n28 -->
<g id="node40" class="node">
<title>n28</title>
<path fill="#ffffff" stroke="#ffe4b5" stroke-width="2" d="M3027,-1140C3027,-1140 2855,-1140 2855,-1140 2849,-1140 2843,-1134 2843,-1128 2843,-1128 2843,-1100 2843,-1100 2843,-1094 2849,-1088 2855,-1088 2855,-1088 3027,-1088 3027,-1088 3033,-1088 3039,-1094 3039,-1100 3039,-1100 3039,-1128 3039,-1128 3039,-1134 3033,-1140 3027,-1140"/>
<text text-anchor="start" x="2888.4945" y="-1126" font-family="arial" font-weight="bold" font-size="10.00" fill="#000000">Some Non&#45;Culm as SIL</text>
<text text-anchor="start" x="2853.2035" y="-1109" font-family="arial" font-size="10.00" fill="#000000">Some part of the non&#45;Culm strata is SIL</text>
<text text-anchor="start" x="2889.8755" y="-1097" font-family="arial" font-size="10.00" fill="#000000"> in age #pri #chron&#45;hyp</text>
</g>
<!-- n28&#45;&gt;n44 -->
<g id="edge73" class="edge">
<title>n28&#45;&gt;n44</title>
<path fill="none" stroke="#ff0000" d="M2922.1169,-1087.8813C2906.647,-1066.4837 2884.4098,-1035.7258 2866.1453,-1010.4626"/>
<polygon fill="#ff0000" stroke="#ff0000" points="2868.8143,-1008.1805 2860.119,-1002.1272 2863.1416,-1012.2818 2868.8143,-1008.1805"/>
</g>
<!-- n28&#45;&gt;n45 -->
<g id="edge77" class="edge">
<title>n28&#45;&gt;n45</title>
<path fill="none" stroke="#ff0000" d="M2942.5345,-1087.913C2946.4562,-1017.6134 2955.5498,-827.9066 2941,-804 2920.7974,-770.8053 2883.9674,-749.3134 2849.3767,-735.6903"/>
<polygon fill="#ff0000" stroke="#ff0000" points="2850.2875,-732.2937 2839.6954,-732.0534 2847.8258,-738.8466 2850.2875,-732.2937"/>
</g>
<!-- n28&#45;&gt;n46 -->
<g id="edge110" class="edge">
<title>n28&#45;&gt;n46</title>
<path fill="none" stroke="#00ff00" d="M2944.5852,-1087.7751C2947.6296,-1065.4898 2952.111,-1032.6482 2956,-1004 2964.9286,-938.2276 2968.0684,-921.9001 2976,-856 2980.7281,-816.7164 2985.3913,-771.2192 2988.2326,-742.5267"/>
<polygon fill="#00ff00" stroke="#00ff00" points="2991.7328,-742.6955 2989.2287,-732.4009 2984.7665,-742.0102 2991.7328,-742.6955"/>
</g>
<!-- n29 -->
<g id="node41" class="node">
<title>n29</title>
<path fill="#ffffff" stroke="#ffe4b5" stroke-width="2" d="M2920,-856C2920,-856 2742,-856 2742,-856 2736,-856 2730,-850 2730,-844 2730,-844 2730,-816 2730,-816 2730,-810 2736,-804 2742,-804 2742,-804 2920,-804 2920,-804 2926,-804 2932,-810 2932,-816 2932,-816 2932,-844 2932,-844 2932,-850 2926,-856 2920,-856"/>
<text text-anchor="start" x="2774.8895" y="-842" font-family="arial" font-weight="bold" font-size="10.00" fill="#000000">Some Non&#45;Culm as CAM</text>
<text text-anchor="start" x="2739.5985" y="-825" font-family="arial" font-size="10.00" fill="#000000">Some part of the non&#45;Culm strata is CAM</text>
<text text-anchor="start" x="2779.8755" y="-813" font-family="arial" font-size="10.00" fill="#000000"> in age #pri #chron&#45;hyp</text>
</g>
<!-- n29&#45;&gt;n45 -->
<g id="edge111" class="edge">
<title>n29&#45;&gt;n45</title>
<path fill="none" stroke="#00ff00" d="M2816.6372,-803.9673C2806.2489,-785.1386 2792.2543,-759.7734 2781.7728,-740.7757"/>
<polygon fill="#00ff00" stroke="#00ff00" points="2784.8361,-739.0826 2776.9407,-732.0176 2778.707,-742.4642 2784.8361,-739.0826"/>
</g>
<!-- n29&#45;&gt;n46 -->
<g id="edge112" class="edge">
<title>n29&#45;&gt;n46</title>
<path fill="none" stroke="#00ff00" d="M2866.9071,-803.9673C2894.1763,-784.1972 2931.3855,-757.2205 2957.9305,-737.9754"/>
<polygon fill="#00ff00" stroke="#00ff00" points="2960.1064,-740.7209 2966.1482,-732.0176 2955.9976,-735.0537 2960.1064,-740.7209"/>
</g>
<!-- n44&#45;&gt;n29 -->
<g id="edge96" class="edge">
<title>n44&#45;&gt;n29</title>
<path fill="none" stroke="#00ff00" d="M2833.2039,-929.9116C2832.7713,-910.3005 2832.2377,-886.1097 2831.8039,-866.4438"/>
<polygon fill="#00ff00" stroke="#00ff00" points="2835.3006,-866.2521 2831.5808,-856.3317 2828.3023,-866.4065 2835.3006,-866.2521"/>
</g>
<!-- n45&#45;&gt;n4 -->
<g id="edge97" class="edge">
<title>n45&#45;&gt;n4</title>
<path fill="none" stroke="#00ff00" d="M2775.2813,-695.875C2782.9059,-679.1871 2794.4305,-653.9634 2803.8706,-633.3022"/>
<polygon fill="#00ff00" stroke="#00ff00" points="2807.0673,-634.7274 2808.0397,-624.1773 2800.7004,-631.8184 2807.0673,-634.7274"/>
</g>
<!-- n46&#45;&gt;n7 -->
<g id="edge98" class="edge">
<title>n46&#45;&gt;n7</title>
<path fill="none" stroke="#00ff00" d="M2985.2861,-695.8292C2975.9068,-667.6696 2955.4103,-612.517 2927,-572 2910.2513,-548.1141 2887.5326,-525.118 2867.3373,-506.8509"/>
<polygon fill="#00ff00" stroke="#00ff00" points="2869.5358,-504.1222 2859.7385,-500.0894 2864.8825,-509.3517 2869.5358,-504.1222"/>
</g>
<!-- n30 -->
<g id="node45" class="node">
<title>n30</title>
<path fill="#ffffff" stroke="#f4a460" stroke-width="2" d="M3685,-1146C3685,-1146 3513,-1146 3513,-1146 3507,-1146 3501,-1140 3501,-1134 3501,-1134 3501,-1094 3501,-1094 3501,-1088 3507,-1082 3513,-1082 3513,-1082 3685,-1082 3685,-1082 3691,-1082 3697,-1088 3697,-1094 3697,-1094 3697,-1134 3697,-1134 3697,-1140 3691,-1146 3685,-1146"/>
<text text-anchor="start" x="3550.944" y="-1132" font-family="arial" font-weight="bold" font-size="10.00" fill="#000000">Traversing Northward</text>
<text text-anchor="start" x="3519.5345" y="-1115" font-family="arial" font-size="10.00" fill="#000000">The strata south of Exmoor become</text>
<text text-anchor="start" x="3516.476" y="-1103" font-family="arial" font-size="10.00" fill="#000000"> progessively younger the furhter one</text>
<text text-anchor="start" x="3512.0405" y="-1091" font-family="arial" font-size="10.00" fill="#000000"> traverses northward #GRE #chron&#45;hyp</text>
</g>
<!-- n31 -->
<g id="node46" class="node">
<title>n31</title>
<path fill="#ffffff" stroke="#f4a460" stroke-width="2" d="M3471,-1152C3471,-1152 3295,-1152 3295,-1152 3289,-1152 3283,-1146 3283,-1140 3283,-1140 3283,-1088 3283,-1088 3283,-1082 3289,-1076 3295,-1076 3295,-1076 3471,-1076 3471,-1076 3477,-1076 3483,-1082 3483,-1088 3483,-1088 3483,-1140 3483,-1140 3483,-1146 3477,-1152 3471,-1152"/>
<text text-anchor="start" x="3306.8685" y="-1138" font-family="arial" font-weight="bold" font-size="10.00" fill="#000000">Exmoor Youngest Devonian strata</text>
<text text-anchor="start" x="3303.812" y="-1121" font-family="arial" font-size="10.00" fill="#000000">In Devon, among all the strata older</text>
<text text-anchor="start" x="3292.6885" y="-1109" font-family="arial" font-size="10.00" fill="#000000"> than the New Red Sandstone, the strata</text>
<text text-anchor="start" x="3305.1995" y="-1097" font-family="arial" font-size="10.00" fill="#000000"> of Exmoor are the youngest #GRE</text>
<text text-anchor="start" x="3356.6045" y="-1085" font-family="arial" font-size="10.00" fill="#000000"> #chron&#45;hyp</text>
</g>
<!-- n32 -->
<g id="node47" class="node">
<title>n32</title>
<path fill="#ffffff" stroke="#ffc1c1" stroke-width="2" d="M3478.5,-998C3478.5,-998 3295.5,-998 3295.5,-998 3289.5,-998 3283.5,-992 3283.5,-986 3283.5,-986 3283.5,-946 3283.5,-946 3283.5,-940 3289.5,-934 3295.5,-934 3295.5,-934 3478.5,-934 3478.5,-934 3484.5,-934 3490.5,-940 3490.5,-946 3490.5,-946 3490.5,-986 3490.5,-986 3490.5,-992 3484.5,-998 3478.5,-998"/>
<text text-anchor="start" x="3316.0935" y="-984" font-family="arial" font-weight="bold" font-size="10.00" fill="#000000">Culm Youngest Devonian Strata</text>
<text text-anchor="start" x="3308.312" y="-967" font-family="arial" font-size="10.00" fill="#000000">In Devon, among all the strata older</text>
<text text-anchor="start" x="3298.028" y="-955" font-family="arial" font-size="10.00" fill="#000000"> than the New Red Sandstone, the Culm</text>
<text text-anchor="start" x="3293.5825" y="-943" font-family="arial" font-size="10.00" fill="#000000"> strata are the youngest #COA #chron&#45;hyp</text>
</g>
<!-- n31&#45;&gt;n32 -->
<g id="edge84" class="edge">
<title>n31&#45;&gt;n32</title>
<path fill="none" stroke="#ff0000" d="M3378.0419,-1075.8863C3377.6497,-1055.2775 3378.277,-1029.7689 3379.6761,-1008.5179"/>
<polygon fill="#ff0000" stroke="#ff0000" points="3383.1721,-1008.6999 3380.4238,-998.4678 3376.1914,-1008.1805 3383.1721,-1008.6999"/>
</g>
<!-- n32&#45;&gt;n31 -->
<g id="edge83" class="edge">
<title>n32&#45;&gt;n31</title>
<path fill="none" stroke="#ff0000" d="M3391.8212,-998.4678C3392.4088,-1018.1693 3391.9444,-1043.6793 3390.6789,-1065.7151"/>
<polygon fill="#ff0000" stroke="#ff0000" points="3387.1738,-1065.6805 3390.0183,-1075.8863 3394.1591,-1066.1342 3387.1738,-1065.6805"/>
</g>
</g>
</svg>
