
<!-- Generated by graphviz version 2.40.1 (20161225.0304)
 -->
<!-- Title: Argument Map Pages: 1 -->
<svg width="720pt" height="186pt"
 viewBox="0.00 0.00 720.00 185.76" xmlns="http://www.w3.org/2000/svg" xmlns:xlink="http://www.w3.org/1999/xlink">
<g id="graph0" class="graph" transform="scale(.2315 .2315) rotate(0) translate(4 798.4)">
<title>Argument Map</title>
<g id="clust1" class="cluster">
<title>cluster_1</title>
<polygon fill="#b9d3ee" stroke="#b9d3ee" points="1142,-524 1142,-638.4 1354,-638.4 1354,-524 1142,-524"/>
<text text-anchor="start" x="1164.3132" y="-623.6" font-family="arial" font-size="12.00" fill="#000000">Aporia I : Coal in Ancient Strata</text>
</g>
<g id="clust2" class="cluster">
<title>cluster_2</title>
<polygon fill="#eedfcc" stroke="#eedfcc" points="8,-140 8,-774.4 1134,-774.4 1134,-140 8,-140"/>
<text text-anchor="start" x="506.6578" y="-759.6" font-family="arial" font-size="12.00" fill="#000000">Dating of the Main Culm</text>
</g>
<g id="clust3" class="cluster">
<title>cluster_3</title>
<polygon fill="#eeb4b4" stroke="#eeb4b4" points="1362,-8 1362,-780.4 2002,-780.4 2002,-8 1362,-8"/>
<text text-anchor="start" x="1602.9842" y="-765.6" font-family="arial" font-size="12.00" fill="#000000">Dating of the Culm Limestone</text>
</g>
<g id="clust4" class="cluster">
<title>cluster_4</title>
<polygon fill="#cd9b9b" stroke="#cd9b9b" points="2010,-8 2010,-780.4 2656,-780.4 2656,-8 2010,-8"/>
<text text-anchor="start" x="2270.3252" y="-765.6" font-family="arial" font-size="12.00" fill="#000000">Dating of the Non&#45;Culm</text>
</g>
<g id="clust5" class="cluster">
<title>cluster_5</title>
<polygon fill="#8b6969" stroke="#8b6969" points="2664,-672 2664,-786.4 3094,-786.4 3094,-672 2664,-672"/>
<text text-anchor="start" x="2808.9752" y="-771.6" font-family="arial" font-size="12.00" fill="#000000">Youngest Devonian Strata</text>
</g>
<!-- n0 -->
<g id="node1" class="node">
<title>n0</title>
<path fill="#ffffff" stroke="#b8860b" stroke-width="2" d="M1334,-608C1334,-608 1162,-608 1162,-608 1156,-608 1150,-602 1150,-596 1150,-596 1150,-544 1150,-544 1150,-538 1156,-532 1162,-532 1162,-532 1334,-532 1334,-532 1340,-532 1346,-538 1346,-544 1346,-544 1346,-596 1346,-596 1346,-602 1340,-608 1334,-608"/>
<text text-anchor="start" x="1184.652" y="-594" font-family="arial" font-weight="bold" font-size="10.00" fill="#000000">Instances of Pre&#45;ORS Strata</text>
<text text-anchor="start" x="1166.3215" y="-577" font-family="arial" font-size="10.00" fill="#000000">In Munster, North America and North</text>
<text text-anchor="start" x="1161.3145" y="-565" font-family="arial" font-size="10.00" fill="#000000"> Devon, some strata closely associated</text>
<text text-anchor="start" x="1160.7625" y="-553" font-family="arial" font-size="10.00" fill="#000000"> with seams of coal are pre&#45;ORS in age</text>
<text text-anchor="start" x="1206.602" y="-541" font-family="arial" font-size="10.00" fill="#000000"> #GRE #chron&#45;hyp</text>
</g>
<!-- n1 -->
<g id="node2" class="node">
<title>n1</title>
<path fill="#ffffff" stroke="#b8860b" stroke-width="2" d="M871,-744C871,-744 699,-744 699,-744 693,-744 687,-738 687,-732 687,-732 687,-704 687,-704 687,-698 693,-692 699,-692 699,-692 871,-692 871,-692 877,-692 883,-698 883,-704 883,-704 883,-732 883,-732 883,-738 877,-744 871,-744"/>
<text text-anchor="start" x="741.9475" y="-730" font-family="arial" font-weight="bold" font-size="10.00" fill="#000000">Main Culm as CAM</text>
<text text-anchor="start" x="699.9925" y="-713" font-family="arial" font-size="10.00" fill="#000000">The whole of the main Culm is CAM in</text>
<text text-anchor="start" x="732.4845" y="-701" font-family="arial" font-size="10.00" fill="#000000"> age #GRE #chron&#45;hyp </text>
</g>
<!-- n1&#45;&gt;n0 -->
<g id="edge1" class="edge">
<title>n1&#45;&gt;n0</title>
<path fill="none" stroke="#00ff00" d="M883.1712,-704.8963C955.5242,-693.1011 1055.3118,-672.2973 1138,-638.4 1154.2633,-631.733 1170.8496,-622.7611 1186.0456,-613.5131"/>
<polygon fill="#00ff00" stroke="#00ff00" points="1188.1794,-616.3076 1194.8192,-608.0515 1184.48,-610.365 1188.1794,-616.3076"/>
</g>
<!-- n2 -->
<g id="node3" class="node">
<title>n2</title>
<path fill="#ffffff" stroke="#f5f5dc" stroke-width="2" d="M874,-596C874,-596 696,-596 696,-596 690,-596 684,-590 684,-584 684,-584 684,-556 684,-556 684,-550 690,-544 696,-544 696,-544 874,-544 874,-544 880,-544 886,-550 886,-556 886,-556 886,-584 886,-584 886,-590 880,-596 874,-596"/>
<text text-anchor="start" x="730.8345" y="-582" font-family="arial" font-weight="bold" font-size="10.00" fill="#000000">Some Main Culm as CM</text>
<text text-anchor="start" x="693.599" y="-565" font-family="arial" font-size="10.00" fill="#000000">Some part of the main Culm is CM in age</text>
<text text-anchor="start" x="748.882" y="-553" font-family="arial" font-size="10.00" fill="#000000"> #pri #chron&#45;hyp</text>
</g>
<!-- n1&#45;&gt;n2 -->
<g id="edge6" class="edge">
<title>n1&#45;&gt;n2</title>
<path fill="none" stroke="#ff0000" d="M785,-681.8674C785,-658.9419 785,-629.3788 785,-606.4016"/>
<polygon fill="#ff0000" stroke="#ff0000" points="781.5001,-681.8812 785,-691.8813 788.5001,-681.8813 781.5001,-681.8812"/>
<polygon fill="#ff0000" stroke="#ff0000" points="788.5001,-606.3554 785,-596.3555 781.5001,-606.3555 788.5001,-606.3554"/>
</g>
<!-- n3 -->
<g id="node4" class="node">
<title>n3</title>
<path fill="#ffffff" stroke="#f5f5dc" stroke-width="2" d="M1093.5,-596C1093.5,-596 916.5,-596 916.5,-596 910.5,-596 904.5,-590 904.5,-584 904.5,-584 904.5,-556 904.5,-556 904.5,-550 910.5,-544 916.5,-544 916.5,-544 1093.5,-544 1093.5,-544 1099.5,-544 1105.5,-550 1105.5,-556 1105.5,-556 1105.5,-584 1105.5,-584 1105.5,-590 1099.5,-596 1093.5,-596"/>
<text text-anchor="start" x="952.1645" y="-582" font-family="arial" font-weight="bold" font-size="10.00" fill="#000000">Some Main Culm as ML</text>
<text text-anchor="start" x="914.929" y="-565" font-family="arial" font-size="10.00" fill="#000000">Some part of the main Culm is ML in age</text>
<text text-anchor="start" x="969.382" y="-553" font-family="arial" font-size="10.00" fill="#000000"> #pri #chron&#45;hyp</text>
</g>
<!-- n1&#45;&gt;n3 -->
<g id="edge7" class="edge">
<title>n1&#45;&gt;n3</title>
<path fill="none" stroke="#ff0000" d="M832.3426,-686.1514C869.3486,-661.2564 920.5496,-626.8121 957.5763,-601.9032"/>
<polygon fill="#ff0000" stroke="#ff0000" points="830.1688,-683.3954 823.8252,-691.8813 834.076,-689.2035 830.1688,-683.3954"/>
<polygon fill="#ff0000" stroke="#ff0000" points="959.85,-604.592 966.1936,-596.1061 955.9427,-598.7839 959.85,-604.592"/>
</g>
<!-- n4 -->
<g id="node5" class="node">
<title>n4</title>
<path fill="#ffffff" stroke="#f5f5dc" stroke-width="2" d="M200,-596C200,-596 28,-596 28,-596 22,-596 16,-590 16,-584 16,-584 16,-556 16,-556 16,-550 22,-544 28,-544 28,-544 200,-544 200,-544 206,-544 212,-550 212,-556 212,-556 212,-584 212,-584 212,-590 206,-596 200,-596"/>
<text text-anchor="start" x="56.775" y="-582" font-family="arial" font-weight="bold" font-size="10.00" fill="#000000">Some Main Culm as ORS</text>
<text text-anchor="start" x="29.2675" y="-565" font-family="arial" font-size="10.00" fill="#000000">Some part of the main Culm is ORS in</text>
<text text-anchor="start" x="68.154" y="-553" font-family="arial" font-size="10.00" fill="#000000"> age #pri #chron&#45;hyp</text>
</g>
<!-- n1&#45;&gt;n4 -->
<g id="edge8" class="edge">
<title>n1&#45;&gt;n4</title>
<path fill="none" stroke="#ff0000" d="M676.7593,-707.8437C538.2929,-693.9453 306.7222,-667.396 226,-638.4 201.6093,-629.6387 176.7812,-615.1588 156.7201,-601.772"/>
<polygon fill="#ff0000" stroke="#ff0000" points="676.6778,-711.3529 686.9759,-708.8632 677.3729,-704.3875 676.6778,-711.3529"/>
<polygon fill="#ff0000" stroke="#ff0000" points="158.664,-598.8613 148.4295,-596.1216 154.7217,-604.6457 158.664,-598.8613"/>
</g>
<!-- n5 -->
<g id="node6" class="node">
<title>n5</title>
<path fill="#ffffff" stroke="#f5f5dc" stroke-width="2" d="M654,-596C654,-596 482,-596 482,-596 476,-596 470,-590 470,-584 470,-584 470,-556 470,-556 470,-550 476,-544 482,-544 482,-544 654,-544 654,-544 660,-544 666,-550 666,-556 666,-556 666,-584 666,-584 666,-590 660,-596 654,-596"/>
<text text-anchor="start" x="514.105" y="-582" font-family="arial" font-weight="bold" font-size="10.00" fill="#000000">Some Main Culm as SIL</text>
<text text-anchor="start" x="486.5975" y="-565" font-family="arial" font-size="10.00" fill="#000000">Some part of the main Culm is SIL in</text>
<text text-anchor="start" x="522.154" y="-553" font-family="arial" font-size="10.00" fill="#000000"> age #pri #chron&#45;hyp</text>
</g>
<!-- n1&#45;&gt;n5 -->
<g id="edge9" class="edge">
<title>n1&#45;&gt;n5</title>
<path fill="none" stroke="#ff0000" d="M738.0548,-685.9821C701.5668,-661.0963 651.1992,-626.7441 614.7586,-601.8906"/>
<polygon fill="#ff0000" stroke="#ff0000" points="736.4707,-689.1382 746.7043,-691.8813 740.4149,-683.3551 736.4707,-689.1382"/>
<polygon fill="#ff0000" stroke="#ff0000" points="616.5108,-598.8492 606.2772,-596.1061 612.5666,-604.6322 616.5108,-598.8492"/>
</g>
<!-- n6 -->
<g id="node7" class="node">
<title>n6</title>
<path fill="#ffffff" stroke="#f5f5dc" stroke-width="2" d="M654,-316C654,-316 482,-316 482,-316 476,-316 470,-310 470,-304 470,-304 470,-276 470,-276 470,-270 476,-264 482,-264 482,-264 654,-264 654,-264 660,-264 666,-270 666,-276 666,-276 666,-304 666,-304 666,-310 660,-316 654,-316"/>
<text text-anchor="start" x="510.5" y="-302" font-family="arial" font-weight="bold" font-size="10.00" fill="#000000">Some Main Culm as CAM</text>
<text text-anchor="start" x="482.9925" y="-285" font-family="arial" font-size="10.00" fill="#000000">Some part of the main Culm is CAM in</text>
<text text-anchor="start" x="522.154" y="-273" font-family="arial" font-size="10.00" fill="#000000"> age #pri #chron&#45;hyp</text>
</g>
<!-- n1&#45;&gt;n6 -->
<g id="edge10" class="edge">
<title>n1&#45;&gt;n6</title>
<path fill="none" stroke="#00ff00" d="M686.9247,-710.5352C538.1815,-698.2069 269.7116,-671.6186 241,-638.4 224.3759,-619.1664 229.3771,-546.6097 241,-524 292.9852,-422.8752 411.1921,-355.7056 490.3101,-320.2197"/>
<polygon fill="#00ff00" stroke="#00ff00" points="492.023,-323.2895 499.7578,-316.0491 489.196,-316.8857 492.023,-323.2895"/>
</g>
<!-- n24 -->
<g id="node9" class="node">
<title>n24</title>
<path fill="#f5f5dc" stroke="#000000" d="M654.5,-460C654.5,-460 481.5,-460 481.5,-460 475.5,-460 469.5,-454 469.5,-448 469.5,-448 469.5,-400 469.5,-400 469.5,-394 475.5,-388 481.5,-388 481.5,-388 654.5,-388 654.5,-388 660.5,-388 666.5,-394 666.5,-400 666.5,-400 666.5,-448 666.5,-448 666.5,-454 660.5,-460 654.5,-460"/>
<text text-anchor="start" x="482.6425" y="-446" font-family="arial" font-weight="bold" font-size="10.00" fill="#000000">Standard Sequence as Partition &#45; Main</text>
<text text-anchor="start" x="555.4475" y="-436" font-family="arial" font-weight="bold" font-size="10.00" fill="#000000"> Culm</text>
<text text-anchor="start" x="479.8835" y="-421" font-family="arial" font-size="10.00" fill="#000000">If some main Culm strata are neiter CM,</text>
<text text-anchor="start" x="483.4835" y="-409" font-family="arial" font-size="10.00" fill="#000000"> ML, OR nor SIL in age, then it is CAM</text>
<text text-anchor="start" x="517.3755" y="-397" font-family="arial" font-size="10.00" fill="#000000"> in age #pri #chron&#45;hyp</text>
</g>
<!-- n2&#45;&gt;n24 -->
<g id="edge2" class="edge">
<title>n2&#45;&gt;n24</title>
<path fill="none" stroke="#ff0000" d="M746.2047,-543.8981C713.9039,-522.1658 667.3099,-490.8168 629.8666,-465.6245"/>
<polygon fill="#ff0000" stroke="#ff0000" points="631.7889,-462.6995 621.5382,-460.0211 627.8813,-468.5073 631.7889,-462.6995"/>
</g>
<!-- n25 -->
<g id="node10" class="node">
<title>n25</title>
<path fill="#b8860b" stroke="#000000" d="M831,-184C831,-184 659,-184 659,-184 653,-184 647,-178 647,-172 647,-172 647,-160 647,-160 647,-154 653,-148 659,-148 659,-148 831,-148 831,-148 837,-148 843,-154 843,-160 843,-160 843,-172 843,-172 843,-178 837,-184 831,-184"/>
<text text-anchor="start" x="677.494" y="-164" font-family="arial" font-weight="bold" font-size="10.00" fill="#000000">Dating the Main Culm &#45; GRE.1</text>
</g>
<!-- n2&#45;&gt;n25 -->
<g id="edge11" class="edge">
<title>n2&#45;&gt;n25</title>
<path fill="none" stroke="#ff0000" d="M782.4063,-543.8037C775.2451,-471.475 755.2387,-269.4112 747.8174,-194.4558"/>
<polygon fill="#ff0000" stroke="#ff0000" points="751.2851,-193.9562 746.8168,-184.3497 744.3192,-194.6459 751.2851,-193.9562"/>
</g>
<!-- n3&#45;&gt;n24 -->
<g id="edge3" class="edge">
<title>n3&#45;&gt;n24</title>
<path fill="none" stroke="#ff0000" d="M945.7666,-543.9627C929.4442,-537.1357 911.6469,-530.0093 895,-524 823.0323,-498.0205 740.6464,-472.8535 676.5737,-454.2657"/>
<polygon fill="#ff0000" stroke="#ff0000" points="677.4336,-450.871 666.8549,-451.4559 675.4894,-457.5956 677.4336,-450.871"/>
</g>
<!-- n3&#45;&gt;n25 -->
<g id="edge12" class="edge">
<title>n3&#45;&gt;n25</title>
<path fill="none" stroke="#ff0000" d="M988.141,-543.8037C941.3067,-471.0304 809.9498,-266.9219 762.4328,-193.0879"/>
<polygon fill="#ff0000" stroke="#ff0000" points="765.1642,-190.8647 756.8092,-184.3497 759.2779,-194.6529 765.1642,-190.8647"/>
</g>
<!-- n4&#45;&gt;n24 -->
<g id="edge4" class="edge">
<title>n4&#45;&gt;n24</title>
<path fill="none" stroke="#ff0000" d="M183.9802,-543.9334C202.4576,-537.2484 222.4262,-530.1994 241,-524 313.4435,-499.8206 395.6551,-474.6897 459.5233,-455.6695"/>
<polygon fill="#ff0000" stroke="#ff0000" points="460.6225,-458.9942 469.2105,-452.7896 458.6277,-452.2845 460.6225,-458.9942"/>
</g>
<!-- n4&#45;&gt;n25 -->
<g id="edge13" class="edge">
<title>n4&#45;&gt;n25</title>
<path fill="none" stroke="#ff0000" d="M135.8992,-543.739C167.2387,-506.9081 227.5692,-438.738 286,-388 357.9754,-325.5007 376.2017,-307.5415 461,-264 526.9024,-230.161 607.0987,-203.7044 665.4417,-186.8548"/>
<polygon fill="#ff0000" stroke="#ff0000" points="666.6867,-190.1392 675.3409,-184.0273 664.7642,-183.4084 666.6867,-190.1392"/>
</g>
<!-- n5&#45;&gt;n24 -->
<g id="edge5" class="edge">
<title>n5&#45;&gt;n24</title>
<path fill="none" stroke="#ff0000" d="M568,-543.8981C568,-523.4441 568,-494.4716 568,-470.1309"/>
<polygon fill="#ff0000" stroke="#ff0000" points="571.5001,-470.0211 568,-460.0211 564.5001,-470.0211 571.5001,-470.0211"/>
</g>
<!-- n5&#45;&gt;n25 -->
<g id="edge14" class="edge">
<title>n5&#45;&gt;n25</title>
<path fill="none" stroke="#ff0000" d="M602.2699,-543.7918C626.4435,-523.4933 657.6677,-493.2897 676,-460 724.8591,-371.2767 739.2704,-249.0314 743.4009,-194.3865"/>
<polygon fill="#ff0000" stroke="#ff0000" points="746.9148,-194.3066 744.1161,-184.0881 739.9316,-193.8216 746.9148,-194.3066"/>
</g>
<!-- n6&#45;&gt;n25 -->
<g id="edge47" class="edge">
<title>n6&#45;&gt;n25</title>
<path fill="none" stroke="#00ff00" d="M605.5371,-263.7028C636.6628,-241.8973 680.5464,-211.1539 710.7318,-190.0071"/>
<polygon fill="#00ff00" stroke="#00ff00" points="713.063,-192.6474 719.2449,-184.0431 709.0466,-186.9143 713.063,-192.6474"/>
</g>
<!-- n7 -->
<g id="node8" class="node">
<title>n7</title>
<path fill="#ffffff" stroke="#f5f5dc" stroke-width="2" d="M440.5,-602C440.5,-602 261.5,-602 261.5,-602 255.5,-602 249.5,-596 249.5,-590 249.5,-590 249.5,-550 249.5,-550 249.5,-544 255.5,-538 261.5,-538 261.5,-538 440.5,-538 440.5,-538 446.5,-538 452.5,-544 452.5,-550 452.5,-550 452.5,-590 452.5,-590 452.5,-596 446.5,-602 440.5,-602"/>
<text text-anchor="start" x="259.557" y="-588" font-family="arial" font-weight="bold" font-size="10.00" fill="#000000">Main Culm as Post&#45;Primary and Pre&#45;NRS</text>
<text text-anchor="start" x="271.487" y="-571" font-family="arial" font-size="10.00" fill="#000000">The main Culm strata are older than</text>
<text text-anchor="start" x="267.3165" y="-559" font-family="arial" font-size="10.00" fill="#000000"> Primary strata and younger than New</text>
<text text-anchor="start" x="265.6415" y="-547" font-family="arial" font-size="10.00" fill="#000000"> Red Sandstone strata #pri #chron&#45;hyp</text>
</g>
<!-- n7&#45;&gt;n24 -->
<g id="edge48" class="edge">
<title>n7&#45;&gt;n24</title>
<path fill="none" stroke="#00ff00" d="M398.6216,-537.9597C430.1354,-516.7569 471.7799,-488.7379 505.8891,-465.7889"/>
<polygon fill="#00ff00" stroke="#00ff00" points="508.0447,-468.5571 514.3878,-460.0709 504.1371,-462.7492 508.0447,-468.5571"/>
</g>
<!-- n24&#45;&gt;n6 -->
<g id="edge41" class="edge">
<title>n24&#45;&gt;n6</title>
<path fill="none" stroke="#00ff00" d="M568,-387.7377C568,-368.6414 568,-345.2918 568,-326.2041"/>
<polygon fill="#00ff00" stroke="#00ff00" points="571.5001,-326.0924 568,-316.0924 564.5001,-326.0925 571.5001,-326.0924"/>
</g>
<!-- n25&#45;&gt;n1 -->
<g id="edge42" class="edge">
<title>n25&#45;&gt;n1</title>
<path fill="none" stroke="#00ff00" d="M776.6236,-184.0312C852.551,-229.4045 1044.0971,-356.7373 1115,-524 1134.8438,-570.8122 1146.4561,-598.4541 1115,-638.4 1087.5994,-673.1958 978.6242,-694.5715 893.305,-706.2913"/>
<polygon fill="#00ff00" stroke="#00ff00" points="892.7327,-702.8367 883.2884,-707.6383 893.6657,-709.7743 892.7327,-702.8367"/>
</g>
<!-- n8 -->
<g id="node11" class="node">
<title>n8</title>
<path fill="#ffffff" stroke="#f5f5dc" stroke-width="2" d="M1796,-744C1796,-744 1624,-744 1624,-744 1618,-744 1612,-738 1612,-732 1612,-732 1612,-704 1612,-704 1612,-698 1618,-692 1624,-692 1624,-692 1796,-692 1796,-692 1802,-692 1808,-698 1808,-704 1808,-704 1808,-732 1808,-732 1808,-738 1802,-744 1796,-744"/>
<text text-anchor="start" x="1669.9965" y="-730" font-family="arial" font-weight="bold" font-size="10.00" fill="#000000">Some BCL as CM</text>
<text text-anchor="start" x="1622.482" y="-713" font-family="arial" font-size="10.00" fill="#000000">Some part of the black Culm Limestone</text>
<text text-anchor="start" x="1644.713" y="-701" font-family="arial" font-size="10.00" fill="#000000"> is CM in age #pri #chron&#45;hyp</text>
</g>
<!-- n26 -->
<g id="node18" class="node">
<title>n26</title>
<path fill="#f5f5dc" stroke="#000000" d="M1611,-608C1611,-608 1439,-608 1439,-608 1433,-608 1427,-602 1427,-596 1427,-596 1427,-544 1427,-544 1427,-538 1433,-532 1439,-532 1439,-532 1611,-532 1611,-532 1617,-532 1623,-538 1623,-544 1623,-544 1623,-596 1623,-596 1623,-602 1617,-608 1611,-608"/>
<text text-anchor="start" x="1440.252" y="-594" font-family="arial" font-weight="bold" font-size="10.00" fill="#000000">Standard Sequence as Partition &#45; BCL</text>
<text text-anchor="start" x="1458.5985" y="-577" font-family="arial" font-size="10.00" fill="#000000">If some part of the black Culm</text>
<text text-anchor="start" x="1440.547" y="-565" font-family="arial" font-size="10.00" fill="#000000"> Limestone is neiter CM, ML, ORS nor</text>
<text text-anchor="start" x="1442.479" y="-553" font-family="arial" font-size="10.00" fill="#000000"> SIL in age, then it is CAM in age #pri</text>
<text text-anchor="start" x="1498.6045" y="-541" font-family="arial" font-size="10.00" fill="#000000"> #chron&#45;hyp</text>
</g>
<!-- n8&#45;&gt;n26 -->
<g id="edge15" class="edge">
<title>n8&#45;&gt;n26</title>
<path fill="none" stroke="#ff0000" d="M1677.3516,-691.8813C1650.5762,-670.461 1612.0756,-639.6605 1580.4778,-614.3823"/>
<polygon fill="#ff0000" stroke="#ff0000" points="1582.5997,-611.5976 1572.6045,-608.0836 1578.2268,-617.0637 1582.5997,-611.5976"/>
</g>
<!-- n27 -->
<g id="node19" class="node">
<title>n27</title>
<path fill="#b8860b" stroke="#000000" d="M1865,-308C1865,-308 1693,-308 1693,-308 1687,-308 1681,-302 1681,-296 1681,-296 1681,-284 1681,-284 1681,-278 1687,-272 1693,-272 1693,-272 1865,-272 1865,-272 1871,-272 1877,-278 1877,-284 1877,-284 1877,-296 1877,-296 1877,-302 1871,-308 1865,-308"/>
<text text-anchor="start" x="1725.656" y="-288" font-family="arial" font-weight="bold" font-size="10.00" fill="#000000">Dating the BCL &#45; GRE.1</text>
</g>
<!-- n8&#45;&gt;n27 -->
<g id="edge24" class="edge">
<title>n8&#45;&gt;n27</title>
<path fill="none" stroke="#ff0000" d="M1732.7476,-691.7143C1769.3489,-647.4829 1839.8518,-553.781 1866,-460 1874.5945,-429.1757 1877.3627,-417.9147 1866,-388 1854.9457,-358.8972 1830.8523,-332.9069 1810.8173,-315.0166"/>
<polygon fill="#ff0000" stroke="#ff0000" points="1812.9452,-312.2295 1803.0933,-308.3321 1808.3644,-317.5226 1812.9452,-312.2295"/>
</g>
<!-- n9 -->
<g id="node12" class="node">
<title>n9</title>
<path fill="#ffffff" stroke="#f5f5dc" stroke-width="2" d="M1768,-68C1768,-68 1596,-68 1596,-68 1590,-68 1584,-62 1584,-56 1584,-56 1584,-28 1584,-28 1584,-22 1590,-16 1596,-16 1596,-16 1768,-16 1768,-16 1774,-16 1780,-22 1780,-28 1780,-28 1780,-56 1780,-56 1780,-62 1774,-68 1768,-68"/>
<text text-anchor="start" x="1642.8265" y="-54" font-family="arial" font-weight="bold" font-size="10.00" fill="#000000">Some BCL as ML</text>
<text text-anchor="start" x="1594.482" y="-37" font-family="arial" font-size="10.00" fill="#000000">Some part of the black Culm Limestone</text>
<text text-anchor="start" x="1617.543" y="-25" font-family="arial" font-size="10.00" fill="#000000"> is ML in age #pri #chron&#45;hyp</text>
</g>
<!-- n9&#45;&gt;n26 -->
<g id="edge16" class="edge">
<title>n9&#45;&gt;n26</title>
<path fill="none" stroke="#ff0000" d="M1628.202,-68.0857C1600.3829,-84.6034 1568.8117,-108.7657 1552,-140 1517.1535,-204.741 1519.9036,-423.6204 1523.0571,-521.7294"/>
<polygon fill="#ff0000" stroke="#ff0000" points="1519.5669,-522.0831 1523.4016,-531.9596 1526.5629,-521.8474 1519.5669,-522.0831"/>
</g>
<!-- n9&#45;&gt;n27 -->
<g id="edge25" class="edge">
<title>n9&#45;&gt;n27</title>
<path fill="none" stroke="#ff0000" d="M1714.8593,-68.2943C1734.6291,-86.2023 1758.1862,-111.7277 1770,-140 1786.5557,-179.6202 1785.543,-230.2998 1782.7092,-261.4396"/>
<polygon fill="#ff0000" stroke="#ff0000" points="1779.2069,-261.2814 1781.6567,-271.5891 1786.1695,-262.0035 1779.2069,-261.2814"/>
</g>
<!-- n10 -->
<g id="node13" class="node">
<title>n10</title>
<path fill="#ffffff" stroke="#f5f5dc" stroke-width="2" d="M1554,-68C1554,-68 1382,-68 1382,-68 1376,-68 1370,-62 1370,-56 1370,-56 1370,-28 1370,-28 1370,-22 1376,-16 1382,-16 1382,-16 1554,-16 1554,-16 1560,-16 1566,-22 1566,-28 1566,-28 1566,-56 1566,-56 1566,-62 1560,-68 1554,-68"/>
<text text-anchor="start" x="1424.937" y="-54" font-family="arial" font-weight="bold" font-size="10.00" fill="#000000">Some BCL as ORS</text>
<text text-anchor="start" x="1380.482" y="-37" font-family="arial" font-size="10.00" fill="#000000">Some part of the black Culm Limestone</text>
<text text-anchor="start" x="1399.6535" y="-25" font-family="arial" font-size="10.00" fill="#000000"> is ORS in age #pri #chron&#45;hyp</text>
</g>
<!-- n10&#45;&gt;n26 -->
<g id="edge17" class="edge">
<title>n10&#45;&gt;n26</title>
<path fill="none" stroke="#ff0000" d="M1470.8176,-68.1002C1479.8245,-151.5321 1508.0131,-412.6473 1519.7696,-521.5495"/>
<polygon fill="#ff0000" stroke="#ff0000" points="1516.3016,-522.0357 1520.8548,-531.6022 1523.2612,-521.2843 1516.3016,-522.0357"/>
</g>
<!-- n10&#45;&gt;n27 -->
<g id="edge26" class="edge">
<title>n10&#45;&gt;n27</title>
<path fill="none" stroke="#ff0000" d="M1476.6729,-68.1722C1488.7766,-101.0718 1513.6583,-157.4152 1552,-192 1592.9912,-228.9747 1650.0838,-253.5318 1696.756,-268.8165"/>
<polygon fill="#ff0000" stroke="#ff0000" points="1695.957,-272.2353 1706.5477,-271.9385 1698.0835,-265.5661 1695.957,-272.2353"/>
</g>
<!-- n11 -->
<g id="node14" class="node">
<title>n11</title>
<path fill="#ffffff" stroke="#f5f5dc" stroke-width="2" d="M1982,-68C1982,-68 1810,-68 1810,-68 1804,-68 1798,-62 1798,-56 1798,-56 1798,-28 1798,-28 1798,-22 1804,-16 1810,-16 1810,-16 1982,-16 1982,-16 1988,-16 1994,-22 1994,-28 1994,-28 1994,-56 1994,-56 1994,-62 1988,-68 1982,-68"/>
<text text-anchor="start" x="1856.267" y="-54" font-family="arial" font-weight="bold" font-size="10.00" fill="#000000">Some BCL as SIL</text>
<text text-anchor="start" x="1808.482" y="-37" font-family="arial" font-size="10.00" fill="#000000">Some part of the black Culm Limestone</text>
<text text-anchor="start" x="1830.9835" y="-25" font-family="arial" font-size="10.00" fill="#000000"> is SIL in age #pri #chron&#45;hyp</text>
</g>
<!-- n11&#45;&gt;n26 -->
<g id="edge18" class="edge">
<title>n11&#45;&gt;n26</title>
<path fill="none" stroke="#ff0000" d="M1903.4262,-68.0911C1922.1947,-140.1016 1963.4205,-343.9573 1866,-460 1835.5925,-496.22 1721.0108,-528.2194 1632.9716,-548.2345"/>
<polygon fill="#ff0000" stroke="#ff0000" points="1632.1767,-544.8257 1623.1882,-550.4345 1633.7125,-551.6552 1632.1767,-544.8257"/>
</g>
<!-- n11&#45;&gt;n27 -->
<g id="edge27" class="edge">
<title>n11&#45;&gt;n27</title>
<path fill="none" stroke="#ff0000" d="M1883.6087,-68.2653C1861.3077,-115.5358 1814.6269,-214.4832 1791.9357,-262.5807"/>
<polygon fill="#ff0000" stroke="#ff0000" points="1788.7047,-261.2265 1787.6033,-271.764 1795.0355,-264.2133 1788.7047,-261.2265"/>
</g>
<!-- n12 -->
<g id="node15" class="node">
<title>n12</title>
<path fill="#ffffff" stroke="#f5f5dc" stroke-width="2" d="M1845,-450C1845,-450 1673,-450 1673,-450 1667,-450 1661,-444 1661,-438 1661,-438 1661,-410 1661,-410 1661,-404 1667,-398 1673,-398 1673,-398 1845,-398 1845,-398 1851,-398 1857,-404 1857,-410 1857,-410 1857,-438 1857,-438 1857,-444 1851,-450 1845,-450"/>
<text text-anchor="start" x="1715.662" y="-436" font-family="arial" font-weight="bold" font-size="10.00" fill="#000000">Some BCL as CAM</text>
<text text-anchor="start" x="1671.482" y="-419" font-family="arial" font-size="10.00" fill="#000000">Some part of the black Culm Limestone</text>
<text text-anchor="start" x="1690.3785" y="-407" font-family="arial" font-size="10.00" fill="#000000"> is CAM in age #pri #chron&#45;hyp</text>
</g>
<!-- n12&#45;&gt;n27 -->
<g id="edge49" class="edge">
<title>n12&#45;&gt;n27</title>
<path fill="none" stroke="#00ff00" d="M1762.9037,-397.8453C1766.3146,-374.9923 1771.2557,-341.887 1774.7621,-318.3941"/>
<polygon fill="#00ff00" stroke="#00ff00" points="1778.2469,-318.755 1776.2615,-308.3479 1771.3236,-317.7216 1778.2469,-318.755"/>
</g>
<!-- n13 -->
<g id="node16" class="node">
<title>n13</title>
<path fill="#ffffff" stroke="#f5f5dc" stroke-width="2" d="M1582,-750C1582,-750 1410,-750 1410,-750 1404,-750 1398,-744 1398,-738 1398,-738 1398,-698 1398,-698 1398,-692 1404,-686 1410,-686 1410,-686 1582,-686 1582,-686 1588,-686 1594,-692 1594,-698 1594,-698 1594,-738 1594,-738 1594,-744 1588,-750 1582,-750"/>
<text text-anchor="start" x="1418.219" y="-736" font-family="arial" font-weight="bold" font-size="10.00" fill="#000000">BCL as Post&#45;Primary and Pre&#45;NRS</text>
<text text-anchor="start" x="1408.207" y="-719" font-family="arial" font-size="10.00" fill="#000000">The black Culm Limestone is older than</text>
<text text-anchor="start" x="1411.8165" y="-707" font-family="arial" font-size="10.00" fill="#000000"> Primary strata and younger than New</text>
<text text-anchor="start" x="1410.1415" y="-695" font-family="arial" font-size="10.00" fill="#000000"> Red Sandstone strata #pri #chron&#45;hyp</text>
</g>
<!-- n13&#45;&gt;n26 -->
<g id="edge50" class="edge">
<title>n13&#45;&gt;n26</title>
<path fill="none" stroke="#00ff00" d="M1502.2926,-685.8862C1506.1785,-666.0543 1511.2372,-640.2378 1515.5933,-618.0067"/>
<polygon fill="#00ff00" stroke="#00ff00" points="1519.0503,-618.5655 1517.5386,-608.0791 1512.1809,-617.2195 1519.0503,-618.5655"/>
</g>
<!-- n14 -->
<g id="node17" class="node">
<title>n14</title>
<path fill="#ffffff" stroke="#b8860b" stroke-width="2" d="M1749,-192C1749,-192 1573,-192 1573,-192 1567,-192 1561,-186 1561,-180 1561,-180 1561,-152 1561,-152 1561,-146 1567,-140 1573,-140 1573,-140 1749,-140 1749,-140 1755,-140 1761,-146 1761,-152 1761,-152 1761,-180 1761,-180 1761,-186 1755,-192 1749,-192"/>
<text text-anchor="start" x="1632.1095" y="-178" font-family="arial" font-weight="bold" font-size="10.00" fill="#000000">BCL as CAM</text>
<text text-anchor="start" x="1570.7025" y="-161" font-family="arial" font-size="10.00" fill="#000000">The black Culm Limestone is nothing but</text>
<text text-anchor="start" x="1580.1505" y="-149" font-family="arial" font-size="10.00" fill="#000000"> Cambrian in age #GRE #chron&#45;hyp </text>
</g>
<!-- n14&#45;&gt;n8 -->
<g id="edge19" class="edge">
<title>n14&#45;&gt;n8</title>
<path fill="none" stroke="#ff0000" d="M1658.4608,-202.2397C1657.2476,-220.7161 1655.8732,-243.5471 1655,-264 1652.6485,-319.0771 1652.6667,-332.8768 1652,-388 1651.613,-419.9977 1648.4691,-428.1954 1652,-460 1660.9383,-540.5124 1685.1093,-632.6063 1699.2682,-682.0673"/>
<polygon fill="#ff0000" stroke="#ff0000" points="1661.9577,-202.4025 1659.1327,-192.1912 1654.9733,-201.9354 1661.9577,-202.4025"/>
<polygon fill="#ff0000" stroke="#ff0000" points="1695.9874,-683.3216 1702.1285,-691.9551 1702.7117,-681.3764 1695.9874,-683.3216"/>
</g>
<!-- n14&#45;&gt;n9 -->
<g id="edge20" class="edge">
<title>n14&#45;&gt;n9</title>
<path fill="none" stroke="#ff0000" d="M1667.1245,-129.8362C1669.8629,-113.6667 1673.0848,-94.642 1675.8287,-78.4402"/>
<polygon fill="#ff0000" stroke="#ff0000" points="1663.6726,-129.2587 1665.4536,-139.7028 1670.5743,-130.4276 1663.6726,-129.2587"/>
<polygon fill="#ff0000" stroke="#ff0000" points="1679.3339,-78.7034 1677.5529,-68.2593 1672.4321,-77.5345 1679.3339,-78.7034"/>
</g>
<!-- n14&#45;&gt;n10 -->
<g id="edge21" class="edge">
<title>n14&#45;&gt;n10</title>
<path fill="none" stroke="#ff0000" d="M1611.3247,-134.0843C1582.4048,-115.5036 1546.0792,-92.1649 1517.235,-73.6328"/>
<polygon fill="#ff0000" stroke="#ff0000" points="1609.7646,-137.242 1620.0697,-139.7028 1613.5483,-131.3527 1609.7646,-137.242"/>
<polygon fill="#ff0000" stroke="#ff0000" points="1518.8451,-70.5072 1508.54,-68.0464 1515.0613,-76.3965 1518.8451,-70.5072"/>
</g>
<!-- n14&#45;&gt;n11 -->
<g id="edge22" class="edge">
<title>n14&#45;&gt;n11</title>
<path fill="none" stroke="#ff0000" d="M1719.7066,-135.0229C1755.7166,-116.0219 1801.6515,-91.7839 1837.6041,-72.8131"/>
<polygon fill="#ff0000" stroke="#ff0000" points="1717.7612,-132.092 1710.5503,-139.8543 1721.028,-138.283 1717.7612,-132.092"/>
<polygon fill="#ff0000" stroke="#ff0000" points="1839.3066,-75.8722 1846.5175,-68.1099 1836.0398,-69.6812 1839.3066,-75.8722"/>
</g>
<!-- n14&#45;&gt;n12 -->
<g id="edge23" class="edge">
<title>n14&#45;&gt;n12</title>
<path fill="none" stroke="#00ff00" d="M1658.3193,-192.2473C1656.1997,-223.0359 1655.8577,-275.0701 1672,-316 1683.1226,-344.2021 1704.3508,-370.7889 1723.0528,-390.5267"/>
<polygon fill="#00ff00" stroke="#00ff00" points="1720.5903,-393.0148 1730.0706,-397.7452 1725.6094,-388.1354 1720.5903,-393.0148"/>
</g>
<!-- n26&#45;&gt;n12 -->
<g id="edge43" class="edge">
<title>n26&#45;&gt;n12</title>
<path fill="none" stroke="#00ff00" d="M1586.1751,-531.8309C1624.1249,-508.1528 1672.3096,-478.0889 1708.1546,-455.724"/>
<polygon fill="#00ff00" stroke="#00ff00" points="1710.3569,-458.4754 1716.9882,-450.2125 1706.6514,-452.5366 1710.3569,-458.4754"/>
</g>
<!-- n27&#45;&gt;n14 -->
<g id="edge44" class="edge">
<title>n27&#45;&gt;n14</title>
<path fill="none" stroke="#00ff00" d="M1761.8418,-271.9693C1743.8463,-253.0588 1715.1513,-222.9047 1692.9643,-199.5896"/>
<polygon fill="#00ff00" stroke="#00ff00" points="1695.4404,-197.1144 1686.0112,-192.283 1690.3694,-201.94 1695.4404,-197.1144"/>
</g>
<!-- n15 -->
<g id="node20" class="node">
<title>n15</title>
<path fill="#ffffff" stroke="#f5f5dc" stroke-width="2" d="M2452,-744C2452,-744 2280,-744 2280,-744 2274,-744 2268,-738 2268,-732 2268,-732 2268,-704 2268,-704 2268,-698 2274,-692 2280,-692 2280,-692 2452,-692 2452,-692 2458,-692 2464,-698 2464,-704 2464,-704 2464,-732 2464,-732 2464,-738 2458,-744 2452,-744"/>
<text text-anchor="start" x="2313.224" y="-730" font-family="arial" font-weight="bold" font-size="10.00" fill="#000000">Some Non&#45;Culm as CM</text>
<text text-anchor="start" x="2277.933" y="-713" font-family="arial" font-size="10.00" fill="#000000">Some part of the non&#45;Culm strata is CM</text>
<text text-anchor="start" x="2314.8755" y="-701" font-family="arial" font-size="10.00" fill="#000000"> in age #pri #chron&#45;hyp</text>
</g>
<!-- n28 -->
<g id="node27" class="node">
<title>n28</title>
<path fill="#f5f5dc" stroke="#000000" d="M2265,-606C2265,-606 2093,-606 2093,-606 2087,-606 2081,-600 2081,-594 2081,-594 2081,-546 2081,-546 2081,-540 2087,-534 2093,-534 2093,-534 2265,-534 2265,-534 2271,-534 2277,-540 2277,-546 2277,-546 2277,-594 2277,-594 2277,-600 2271,-606 2265,-606"/>
<text text-anchor="start" x="2105.365" y="-592" font-family="arial" font-weight="bold" font-size="10.00" fill="#000000">Standard Sequence as Partition &#45;</text>
<text text-anchor="start" x="2155.1145" y="-582" font-family="arial" font-weight="bold" font-size="10.00" fill="#000000"> Non&#45;Culm</text>
<text text-anchor="start" x="2096.7625" y="-567" font-family="arial" font-size="10.00" fill="#000000">If some part of the non&#45;Culm strata is</text>
<text text-anchor="start" x="2090.9245" y="-555" font-family="arial" font-size="10.00" fill="#000000"> neiter CM, ML, OR nor SIL in age, then</text>
<text text-anchor="start" x="2106.49" y="-543" font-family="arial" font-size="10.00" fill="#000000"> it is CAM in age #pri #chron&#45;hyp</text>
</g>
<!-- n15&#45;&gt;n28 -->
<g id="edge28" class="edge">
<title>n15&#45;&gt;n28</title>
<path fill="none" stroke="#ff0000" d="M2332.9986,-691.8813C2305.2572,-669.9255 2265.0638,-638.1146 2232.6955,-612.497"/>
<polygon fill="#ff0000" stroke="#ff0000" points="2234.6606,-609.5887 2224.6472,-606.1272 2230.3165,-615.0777 2234.6606,-609.5887"/>
</g>
<!-- n29 -->
<g id="node28" class="node">
<title>n29</title>
<path fill="#b8860b" stroke="#000000" d="M2519,-308C2519,-308 2347,-308 2347,-308 2341,-308 2335,-302 2335,-296 2335,-296 2335,-284 2335,-284 2335,-278 2341,-272 2347,-272 2347,-272 2519,-272 2519,-272 2525,-272 2531,-278 2531,-284 2531,-284 2531,-296 2531,-296 2531,-302 2525,-308 2519,-308"/>
<text text-anchor="start" x="2368.273" y="-288" font-family="arial" font-weight="bold" font-size="10.00" fill="#000000">Dating the Non&#45;Culm&#45; GRE.1</text>
</g>
<!-- n15&#45;&gt;n29 -->
<g id="edge37" class="edge">
<title>n15&#45;&gt;n29</title>
<path fill="none" stroke="#ff0000" d="M2389.3214,-691.8264C2426.8473,-647.7563 2499.1386,-554.2809 2526,-460 2534.7681,-429.2247 2537.858,-417.7219 2526,-388 2514.1311,-358.2507 2488.4627,-332.3546 2467.0937,-314.6658"/>
<polygon fill="#ff0000" stroke="#ff0000" points="2469.1431,-311.8228 2459.1521,-308.2973 2464.7639,-317.2838 2469.1431,-311.8228"/>
</g>
<!-- n16 -->
<g id="node21" class="node">
<title>n16</title>
<path fill="#ffffff" stroke="#f5f5dc" stroke-width="2" d="M2422,-68C2422,-68 2250,-68 2250,-68 2244,-68 2238,-62 2238,-56 2238,-56 2238,-28 2238,-28 2238,-22 2244,-16 2250,-16 2250,-16 2422,-16 2422,-16 2428,-16 2434,-22 2434,-28 2434,-28 2434,-56 2434,-56 2434,-62 2428,-68 2422,-68"/>
<text text-anchor="start" x="2284.054" y="-54" font-family="arial" font-weight="bold" font-size="10.00" fill="#000000">Some Non&#45;Culm as ML</text>
<text text-anchor="start" x="2248.763" y="-37" font-family="arial" font-size="10.00" fill="#000000">Some part of the non&#45;Culm strata is ML</text>
<text text-anchor="start" x="2284.8755" y="-25" font-family="arial" font-size="10.00" fill="#000000"> in age #pri #chron&#45;hyp</text>
</g>
<!-- n16&#45;&gt;n28 -->
<g id="edge29" class="edge">
<title>n16&#45;&gt;n28</title>
<path fill="none" stroke="#ff0000" d="M2284.1507,-68.0188C2256.8355,-84.6491 2225.6304,-108.9422 2209,-140 2174.0215,-205.3232 2175.2074,-426.8993 2177.5377,-523.8927"/>
<polygon fill="#ff0000" stroke="#ff0000" points="2174.0412,-524.078 2177.7953,-533.9855 2181.0389,-523.8994 2174.0412,-524.078"/>
</g>
<!-- n16&#45;&gt;n29 -->
<g id="edge38" class="edge">
<title>n16&#45;&gt;n29</title>
<path fill="none" stroke="#ff0000" d="M2368.4259,-68.3956C2387.9471,-86.3439 2411.2324,-111.8763 2423,-140 2439.5817,-179.6288 2438.975,-230.306 2436.4277,-261.4429"/>
<polygon fill="#ff0000" stroke="#ff0000" points="2432.9251,-261.3069 2435.4708,-271.5914 2439.8942,-261.9641 2432.9251,-261.3069"/>
</g>
<!-- n17 -->
<g id="node22" class="node">
<title>n17</title>
<path fill="#ffffff" stroke="#f5f5dc" stroke-width="2" d="M2208,-68C2208,-68 2030,-68 2030,-68 2024,-68 2018,-62 2018,-56 2018,-56 2018,-28 2018,-28 2018,-22 2024,-16 2030,-16 2030,-16 2208,-16 2208,-16 2214,-16 2220,-22 2220,-28 2220,-28 2220,-56 2220,-56 2220,-62 2214,-68 2208,-68"/>
<text text-anchor="start" x="2063.1645" y="-54" font-family="arial" font-weight="bold" font-size="10.00" fill="#000000">Some Non&#45;Culm as ORS</text>
<text text-anchor="start" x="2027.8735" y="-37" font-family="arial" font-size="10.00" fill="#000000">Some part of the non&#45;Culm strata is ORS</text>
<text text-anchor="start" x="2067.8755" y="-25" font-family="arial" font-size="10.00" fill="#000000"> in age #pri #chron&#45;hyp</text>
</g>
<!-- n17&#45;&gt;n28 -->
<g id="edge30" class="edge">
<title>n17&#45;&gt;n28</title>
<path fill="none" stroke="#ff0000" d="M2121.9645,-68.0879C2131.5004,-152.0031 2161.4725,-415.758 2173.7135,-523.4787"/>
<polygon fill="#ff0000" stroke="#ff0000" points="2170.2692,-524.1676 2174.876,-533.7084 2177.2244,-523.3772 2170.2692,-524.1676"/>
</g>
<!-- n17&#45;&gt;n29 -->
<g id="edge39" class="edge">
<title>n17&#45;&gt;n29</title>
<path fill="none" stroke="#ff0000" d="M2128.8062,-68.1363C2142.3172,-100.9981 2169.549,-157.3014 2209,-192 2250.5852,-228.5757 2307.9647,-253.3246 2354.2381,-268.8014"/>
<polygon fill="#ff0000" stroke="#ff0000" points="2353.3417,-272.1905 2363.9341,-271.9642 2355.5125,-265.5356 2353.3417,-272.1905"/>
</g>
<!-- n18 -->
<g id="node23" class="node">
<title>n18</title>
<path fill="#ffffff" stroke="#f5f5dc" stroke-width="2" d="M2636,-68C2636,-68 2464,-68 2464,-68 2458,-68 2452,-62 2452,-56 2452,-56 2452,-28 2452,-28 2452,-22 2458,-16 2464,-16 2464,-16 2636,-16 2636,-16 2642,-16 2648,-22 2648,-28 2648,-28 2648,-56 2648,-56 2648,-62 2642,-68 2636,-68"/>
<text text-anchor="start" x="2497.4945" y="-54" font-family="arial" font-weight="bold" font-size="10.00" fill="#000000">Some Non&#45;Culm as SIL</text>
<text text-anchor="start" x="2462.2035" y="-37" font-family="arial" font-size="10.00" fill="#000000">Some part of the non&#45;Culm strata is SIL</text>
<text text-anchor="start" x="2498.8755" y="-25" font-family="arial" font-size="10.00" fill="#000000"> in age #pri #chron&#45;hyp</text>
</g>
<!-- n18&#45;&gt;n28 -->
<g id="edge31" class="edge">
<title>n18&#45;&gt;n28</title>
<path fill="none" stroke="#ff0000" d="M2557.8165,-68.1796C2577.5108,-139.9814 2621.1122,-342.4712 2526,-460 2495.5359,-497.6441 2377.1873,-529.639 2287.0965,-549.2575"/>
<polygon fill="#ff0000" stroke="#ff0000" points="2286.1296,-545.8854 2277.0899,-551.4113 2287.6026,-552.7287 2286.1296,-545.8854"/>
</g>
<!-- n18&#45;&gt;n29 -->
<g id="edge40" class="edge">
<title>n18&#45;&gt;n29</title>
<path fill="none" stroke="#ff0000" d="M2537.6087,-68.2653C2515.3077,-115.5358 2468.6269,-214.4832 2445.9357,-262.5807"/>
<polygon fill="#ff0000" stroke="#ff0000" points="2442.7047,-261.2265 2441.6033,-271.764 2449.0355,-264.2133 2442.7047,-261.2265"/>
</g>
<!-- n19 -->
<g id="node24" class="node">
<title>n19</title>
<path fill="#ffffff" stroke="#f5f5dc" stroke-width="2" d="M2505,-450C2505,-450 2327,-450 2327,-450 2321,-450 2315,-444 2315,-438 2315,-438 2315,-410 2315,-410 2315,-404 2321,-398 2327,-398 2327,-398 2505,-398 2505,-398 2511,-398 2517,-404 2517,-410 2517,-410 2517,-438 2517,-438 2517,-444 2511,-450 2505,-450"/>
<text text-anchor="start" x="2359.8895" y="-436" font-family="arial" font-weight="bold" font-size="10.00" fill="#000000">Some Non&#45;Culm as CAM</text>
<text text-anchor="start" x="2324.5985" y="-419" font-family="arial" font-size="10.00" fill="#000000">Some part of the non&#45;Culm strata is CAM</text>
<text text-anchor="start" x="2364.8755" y="-407" font-family="arial" font-size="10.00" fill="#000000"> in age #pri #chron&#45;hyp</text>
</g>
<!-- n19&#45;&gt;n29 -->
<g id="edge51" class="edge">
<title>n19&#45;&gt;n29</title>
<path fill="none" stroke="#00ff00" d="M2419.3181,-397.8453C2422.2174,-374.9923 2426.4173,-341.887 2429.3978,-318.3941"/>
<polygon fill="#00ff00" stroke="#00ff00" points="2432.8858,-318.7089 2430.6723,-308.3479 2425.9415,-317.8278 2432.8858,-318.7089"/>
</g>
<!-- n20 -->
<g id="node25" class="node">
<title>n20</title>
<path fill="#ffffff" stroke="#f5f5dc" stroke-width="2" d="M2237.5,-750C2237.5,-750 2060.5,-750 2060.5,-750 2054.5,-750 2048.5,-744 2048.5,-738 2048.5,-738 2048.5,-698 2048.5,-698 2048.5,-692 2054.5,-686 2060.5,-686 2060.5,-686 2237.5,-686 2237.5,-686 2243.5,-686 2249.5,-692 2249.5,-698 2249.5,-698 2249.5,-738 2249.5,-738 2249.5,-744 2243.5,-750 2237.5,-750"/>
<text text-anchor="start" x="2058.9465" y="-736" font-family="arial" font-weight="bold" font-size="10.00" fill="#000000">Non&#45;Culm as Post&#45;Primary and Pre&#45;NRS</text>
<text text-anchor="start" x="2071.7065" y="-719" font-family="arial" font-size="10.00" fill="#000000">The non&#45;Culm strata are older than</text>
<text text-anchor="start" x="2065.3165" y="-707" font-family="arial" font-size="10.00" fill="#000000"> Primary strata and younger than New</text>
<text text-anchor="start" x="2063.6415" y="-695" font-family="arial" font-size="10.00" fill="#000000"> Red Sandstone strata #pri #chron&#45;hyp</text>
</g>
<!-- n20&#45;&gt;n28 -->
<g id="edge52" class="edge">
<title>n20&#45;&gt;n28</title>
<path fill="none" stroke="#00ff00" d="M2155.5096,-685.8862C2159.6341,-665.5383 2165.0358,-638.8901 2169.6192,-616.2787"/>
<polygon fill="#00ff00" stroke="#00ff00" points="2173.1035,-616.7068 2171.66,-606.2108 2166.243,-615.3161 2173.1035,-616.7068"/>
</g>
<!-- n21 -->
<g id="node26" class="node">
<title>n21</title>
<path fill="#ffffff" stroke="#b8860b" stroke-width="2" d="M2402,-192C2402,-192 2230,-192 2230,-192 2224,-192 2218,-186 2218,-180 2218,-180 2218,-152 2218,-152 2218,-146 2224,-140 2230,-140 2230,-140 2402,-140 2402,-140 2408,-140 2414,-146 2414,-152 2414,-152 2414,-180 2414,-180 2414,-186 2408,-192 2402,-192"/>
<text text-anchor="start" x="2274.337" y="-178" font-family="arial" font-weight="bold" font-size="10.00" fill="#000000">Non&#45;Culm as CAM</text>
<text text-anchor="start" x="2239.316" y="-161" font-family="arial" font-size="10.00" fill="#000000">The non&#45;Culm strata is nothing but</text>
<text text-anchor="start" x="2235.1505" y="-149" font-family="arial" font-size="10.00" fill="#000000"> Cambrian in age #GRE #chron&#45;hyp </text>
</g>
<!-- n21&#45;&gt;n15 -->
<g id="edge32" class="edge">
<title>n21&#45;&gt;n15</title>
<path fill="none" stroke="#ff0000" d="M2313.003,-202.232C2311.5787,-220.7065 2309.9778,-243.538 2309,-264 2306.3688,-319.0644 2306.6667,-332.8768 2306,-388 2305.613,-419.9977 2302.352,-428.2086 2306,-460 2315.2504,-540.6146 2340.2533,-632.6698 2354.8992,-682.0969"/>
<polygon fill="#ff0000" stroke="#ff0000" points="2316.4982,-202.4285 2313.7929,-192.1849 2309.5198,-201.8798 2316.4982,-202.4285"/>
<polygon fill="#ff0000" stroke="#ff0000" points="2351.6364,-683.4019 2357.8579,-691.9776 2358.3422,-681.3939 2351.6364,-683.4019"/>
</g>
<!-- n21&#45;&gt;n16 -->
<g id="edge33" class="edge">
<title>n21&#45;&gt;n16</title>
<path fill="none" stroke="#ff0000" d="M2321.8767,-129.5647C2324.4778,-113.4378 2327.5301,-94.5132 2330.1304,-78.3914"/>
<polygon fill="#ff0000" stroke="#ff0000" points="2318.3785,-129.273 2320.2415,-139.7028 2325.2892,-130.3877 2318.3785,-129.273"/>
<polygon fill="#ff0000" stroke="#ff0000" points="2333.6276,-78.6891 2331.7646,-68.2593 2326.7169,-77.5744 2333.6276,-78.6891"/>
</g>
<!-- n21&#45;&gt;n17 -->
<g id="edge34" class="edge">
<title>n21&#45;&gt;n17</title>
<path fill="none" stroke="#ff0000" d="M2265.7123,-134.3468C2236.0113,-115.6518 2198.5476,-92.0706 2168.9124,-73.417"/>
<polygon fill="#ff0000" stroke="#ff0000" points="2263.8938,-137.3378 2274.2214,-139.7028 2267.6228,-131.4137 2263.8938,-137.3378"/>
<polygon fill="#ff0000" stroke="#ff0000" points="2170.7077,-70.4114 2160.3802,-68.0464 2166.9788,-76.3355 2170.7077,-70.4114"/>
</g>
<!-- n21&#45;&gt;n18 -->
<g id="edge35" class="edge">
<title>n21&#45;&gt;n18</title>
<path fill="none" stroke="#ff0000" d="M2374.4568,-135.0229C2410.3136,-116.0219 2456.0529,-91.7839 2491.8526,-72.8131"/>
<polygon fill="#ff0000" stroke="#ff0000" points="2372.5367,-132.0793 2365.3395,-139.8543 2375.8143,-138.2645 2372.5367,-132.0793"/>
<polygon fill="#ff0000" stroke="#ff0000" points="2493.5308,-75.8849 2500.728,-68.1099 2490.2531,-69.6997 2493.5308,-75.8849"/>
</g>
<!-- n21&#45;&gt;n19 -->
<g id="edge36" class="edge">
<title>n21&#45;&gt;n19</title>
<path fill="none" stroke="#00ff00" d="M2313.0019,-192.0085C2310.5037,-222.7952 2309.6126,-275.0491 2326,-316 2337.4177,-344.5322 2359.3764,-371.1243 2378.7448,-390.7824"/>
<polygon fill="#00ff00" stroke="#00ff00" points="2376.4409,-393.4264 2386.0137,-397.9666 2381.3616,-388.4477 2376.4409,-393.4264"/>
</g>
<!-- n28&#45;&gt;n19 -->
<g id="edge45" class="edge">
<title>n28&#45;&gt;n19</title>
<path fill="none" stroke="#00ff00" d="M2237.5843,-533.9101C2276.67,-509.832 2327.5573,-478.4837 2364.9786,-455.4309"/>
<polygon fill="#00ff00" stroke="#00ff00" points="2367.0277,-458.2795 2373.706,-450.0545 2363.3561,-452.3196 2367.0277,-458.2795"/>
</g>
<!-- n29&#45;&gt;n21 -->
<g id="edge46" class="edge">
<title>n29&#45;&gt;n21</title>
<path fill="none" stroke="#00ff00" d="M2415.9872,-271.9693C2398.1442,-253.0588 2369.6924,-222.9047 2347.6934,-199.5896"/>
<polygon fill="#00ff00" stroke="#00ff00" points="2350.2078,-197.1544 2340.7993,-192.283 2345.1164,-201.9584 2350.2078,-197.1544"/>
</g>
<!-- n22 -->
<g id="node29" class="node">
<title>n22</title>
<path fill="#ffffff" stroke="#b8860b" stroke-width="2" d="M3074,-750C3074,-750 2902,-750 2902,-750 2896,-750 2890,-744 2890,-738 2890,-738 2890,-698 2890,-698 2890,-692 2896,-686 2902,-686 2902,-686 3074,-686 3074,-686 3080,-686 3086,-692 3086,-698 3086,-698 3086,-738 3086,-738 3086,-744 3080,-750 3074,-750"/>
<text text-anchor="start" x="2939.944" y="-736" font-family="arial" font-weight="bold" font-size="10.00" fill="#000000">Traversing Northward</text>
<text text-anchor="start" x="2908.5345" y="-719" font-family="arial" font-size="10.00" fill="#000000">The strata south of Exmoor become</text>
<text text-anchor="start" x="2905.476" y="-707" font-family="arial" font-size="10.00" fill="#000000"> progessively younger the furhter one</text>
<text text-anchor="start" x="2901.0405" y="-695" font-family="arial" font-size="10.00" fill="#000000"> traverses northward #GRE #chron&#45;hyp</text>
</g>
<!-- n23 -->
<g id="node30" class="node">
<title>n23</title>
<path fill="#ffffff" stroke="#b8860b" stroke-width="2" d="M2860,-756C2860,-756 2684,-756 2684,-756 2678,-756 2672,-750 2672,-744 2672,-744 2672,-692 2672,-692 2672,-686 2678,-680 2684,-680 2684,-680 2860,-680 2860,-680 2866,-680 2872,-686 2872,-692 2872,-692 2872,-744 2872,-744 2872,-750 2866,-756 2860,-756"/>
<text text-anchor="start" x="2695.8685" y="-742" font-family="arial" font-weight="bold" font-size="10.00" fill="#000000">Exmoor Youngest Devonian strata</text>
<text text-anchor="start" x="2692.812" y="-725" font-family="arial" font-size="10.00" fill="#000000">In Devon, among all the strata older</text>
<text text-anchor="start" x="2681.6885" y="-713" font-family="arial" font-size="10.00" fill="#000000"> than the New Red Sandstone, the strata</text>
<text text-anchor="start" x="2694.1995" y="-701" font-family="arial" font-size="10.00" fill="#000000"> of Exmoor are the youngest #GRE</text>
<text text-anchor="start" x="2745.6045" y="-689" font-family="arial" font-size="10.00" fill="#000000"> #chron&#45;hyp</text>
</g>
</g>
</svg>
