
<!-- Generated by graphviz version 2.40.1 (20161225.0304)
 -->
<!-- Title: Argument Map Pages: 1 -->
<svg width="720pt" height="160pt"
 viewBox="0.00 0.00 720.00 159.81" xmlns="http://www.w3.org/2000/svg" xmlns:xlink="http://www.w3.org/1999/xlink">
<g id="graph0" class="graph" transform="scale(.2053 .2053) rotate(0) translate(4 774.4)">
<title>Argument Map</title>
<g id="clust6" class="cluster">
<title>cluster_6</title>
<polygon fill="#e6e6fa" stroke="#e6e6fa" points="3061,-506 3061,-762.4 3491,-762.4 3491,-506 3061,-506"/>
<text text-anchor="start" x="3205.9752" y="-747.6" font-family="arial" font-size="12.00" fill="#000000">Youngest Devonian Strata</text>
</g>
<g id="clust4" class="cluster">
<title>cluster_4</title>
<polygon fill="#eed2ee" stroke="#eed2ee" points="1331,-14 1331,-750.4 2185,-750.4 2185,-14 1331,-14"/>
<text text-anchor="start" x="1678.9842" y="-735.6" font-family="arial" font-size="12.00" fill="#000000">Dating of the Culm Limestone</text>
</g>
<g id="clust3" class="cluster">
<title>cluster_3</title>
<polygon fill="#9fb6cd" stroke="#9fb6cd" points="1106,-660 1106,-750.4 1323,-750.4 1323,-660 1106,-660"/>
<text text-anchor="start" x="1113.8122" y="-735.6" font-family="arial" font-size="12.00" fill="#000000">Aporia II : CM Plants in Ancient Strata</text>
</g>
<g id="clust5" class="cluster">
<title>cluster_5</title>
<polygon fill="#d8bfd8" stroke="#d8bfd8" points="2193,-8 2193,-750.4 3053,-750.4 3053,-8 2193,-8"/>
<text text-anchor="start" x="2560.3252" y="-735.6" font-family="arial" font-size="12.00" fill="#000000">Dating of the Non&#45;Culm</text>
</g>
<g id="clust2" class="cluster">
<title>cluster_2</title>
<polygon fill="#ffe1ff" stroke="#ffe1ff" points="232,-14 232,-750.4 1098,-750.4 1098,-14 232,-14"/>
<text text-anchor="start" x="600.6578" y="-735.6" font-family="arial" font-size="12.00" fill="#000000">Dating of the Main Culm</text>
</g>
<g id="clust1" class="cluster">
<title>cluster_1</title>
<polygon fill="#c6e2ff" stroke="#c6e2ff" points="8,-654 8,-756.4 224,-756.4 224,-654 8,-654"/>
<text text-anchor="start" x="32.3132" y="-741.6" font-family="arial" font-size="12.00" fill="#000000">Aporia I : Coal in Ancient Strata</text>
</g>
<!-- n0 -->
<g id="node1" class="node">
<title>n0</title>
<path fill="#ffffff" stroke="#f4a460" stroke-width="2" d="M204,-726C204,-726 28,-726 28,-726 22,-726 16,-720 16,-714 16,-714 16,-674 16,-674 16,-668 22,-662 28,-662 28,-662 204,-662 204,-662 210,-662 216,-668 216,-674 216,-674 216,-714 216,-714 216,-720 210,-726 204,-726"/>
<text text-anchor="start" x="56.2565" y="-712" font-family="arial" font-weight="bold" font-size="10.00" fill="#000000">Instances of Ancient Strata</text>
<text text-anchor="start" x="25.9725" y="-695" font-family="arial" font-size="10.00" fill="#000000">In Munster and Pennsylvannia, there are</text>
<text text-anchor="start" x="33.201" y="-683" font-family="arial" font-size="10.00" fill="#000000"> pre&#45;Old Red Sandstone strata #GRE</text>
<text text-anchor="start" x="89.6045" y="-671" font-family="arial" font-size="10.00" fill="#000000"> #chron&#45;hyp</text>
</g>
<!-- n1 -->
<g id="node2" class="node">
<title>n1</title>
<path fill="#ffffff" stroke="#f4a460" stroke-width="2" d="M737,-204C737,-204 565,-204 565,-204 559,-204 553,-198 553,-192 553,-192 553,-164 553,-164 553,-158 559,-152 565,-152 565,-152 737,-152 737,-152 743,-152 749,-158 749,-164 749,-164 749,-192 749,-192 749,-198 743,-204 737,-204"/>
<text text-anchor="start" x="607.9475" y="-190" font-family="arial" font-weight="bold" font-size="10.00" fill="#000000">Main Culm as CAM</text>
<text text-anchor="start" x="565.9925" y="-173" font-family="arial" font-size="10.00" fill="#000000">The whole of the main Culm is CAM in</text>
<text text-anchor="start" x="598.4845" y="-161" font-family="arial" font-size="10.00" fill="#000000"> age #GRE #chron&#45;hyp </text>
</g>
<!-- n5 -->
<g id="node3" class="node">
<title>n5</title>
<path fill="#ffffff" stroke="#ffc1c1" stroke-width="2" d="M740,-74C740,-74 562,-74 562,-74 556,-74 550,-68 550,-62 550,-62 550,-34 550,-34 550,-28 556,-22 562,-22 562,-22 740,-22 740,-22 746,-22 752,-28 752,-34 752,-34 752,-62 752,-62 752,-68 746,-74 740,-74"/>
<text text-anchor="start" x="611.282" y="-60" font-family="arial" font-weight="bold" font-size="10.00" fill="#000000">Main Culm as CM</text>
<text text-anchor="start" x="559.599" y="-43" font-family="arial" font-size="10.00" fill="#000000">The whole of the main Culm is CM in age</text>
<text text-anchor="start" x="608.2125" y="-31" font-family="arial" font-size="10.00" fill="#000000"> #COA #chron&#45;hyp </text>
</g>
<!-- n1&#45;&gt;n5 -->
<g id="edge14" class="edge">
<title>n1&#45;&gt;n5</title>
<path fill="none" stroke="#ff0000" d="M645.4514,-151.6926C644.074,-132.3099 643.881,-105.7101 644.8723,-84.3047"/>
<polygon fill="#ff0000" stroke="#ff0000" points="648.3695,-84.4541 645.4541,-74.2683 641.3812,-84.049 648.3695,-84.4541"/>
</g>
<!-- n5&#45;&gt;n1 -->
<g id="edge13" class="edge">
<title>n5&#45;&gt;n1</title>
<path fill="none" stroke="#ff0000" d="M656.5459,-74.2683C657.9248,-93.6413 658.1194,-120.2397 657.1297,-141.652"/>
<polygon fill="#ff0000" stroke="#ff0000" points="653.6323,-141.507 656.5486,-151.6926 660.6206,-141.9115 653.6323,-141.507"/>
</g>
<!-- n8 -->
<g id="node4" class="node">
<title>n8</title>
<path fill="#ffffff" stroke="#ffe4b5" stroke-width="2" d="M1078,-720C1078,-720 900,-720 900,-720 894,-720 888,-714 888,-708 888,-708 888,-680 888,-680 888,-674 894,-668 900,-668 900,-668 1078,-668 1078,-668 1084,-668 1090,-674 1090,-680 1090,-680 1090,-708 1090,-708 1090,-714 1084,-720 1078,-720"/>
<text text-anchor="start" x="934.8345" y="-706" font-family="arial" font-weight="bold" font-size="10.00" fill="#000000">Some Main Culm as CM</text>
<text text-anchor="start" x="897.599" y="-689" font-family="arial" font-size="10.00" fill="#000000">Some part of the main Culm is CM in age</text>
<text text-anchor="start" x="952.882" y="-677" font-family="arial" font-size="10.00" fill="#000000"> #pri #chron&#45;hyp</text>
</g>
<!-- n26 -->
<g id="node9" class="node">
<title>n26</title>
<path fill="#ffe4b5" stroke="#000000" d="M746,-582C746,-582 574,-582 574,-582 568,-582 562,-576 562,-570 562,-570 562,-522 562,-522 562,-516 568,-510 574,-510 574,-510 746,-510 746,-510 752,-510 758,-516 758,-522 758,-522 758,-570 758,-570 758,-576 752,-582 746,-582"/>
<text text-anchor="start" x="574.1425" y="-568" font-family="arial" font-weight="bold" font-size="10.00" fill="#000000">Standard Sequence as Partition &#45; Main</text>
<text text-anchor="start" x="646.9475" y="-558" font-family="arial" font-weight="bold" font-size="10.00" fill="#000000"> Culm</text>
<text text-anchor="start" x="574.9975" y="-543" font-family="arial" font-size="10.00" fill="#000000">If some main Culm strata is neiter CM,</text>
<text text-anchor="start" x="574.9835" y="-531" font-family="arial" font-size="10.00" fill="#000000"> ML, OR nor SIL in age, then it is CAM</text>
<text text-anchor="start" x="608.8755" y="-519" font-family="arial" font-size="10.00" fill="#000000"> in age #pri #chron&#45;hyp</text>
</g>
<!-- n8&#45;&gt;n26 -->
<g id="edge1" class="edge">
<title>n8&#45;&gt;n26</title>
<path fill="none" stroke="#ff0000" d="M930.9387,-667.8813C880.684,-645.2742 807.2028,-612.2189 749.4395,-586.2342"/>
<polygon fill="#ff0000" stroke="#ff0000" points="750.8655,-583.0379 740.3098,-582.1272 747.9937,-589.4217 750.8655,-583.0379"/>
</g>
<!-- n27 -->
<g id="node10" class="node">
<title>n27</title>
<path fill="#f4a460" stroke="#000000" d="M689,-312C689,-312 517,-312 517,-312 511,-312 505,-306 505,-300 505,-300 505,-288 505,-288 505,-282 511,-276 517,-276 517,-276 689,-276 689,-276 695,-276 701,-282 701,-288 701,-288 701,-300 701,-300 701,-306 695,-312 689,-312"/>
<text text-anchor="start" x="535.494" y="-292" font-family="arial" font-weight="bold" font-size="10.00" fill="#000000">Dating the Main Culm &#45; GRE.1</text>
</g>
<!-- n8&#45;&gt;n27 -->
<g id="edge5" class="edge">
<title>n8&#45;&gt;n27</title>
<path fill="none" stroke="#ff0000" d="M968.6586,-667.6572C951.7801,-645.5773 927.3385,-613.0855 907,-584 846.1071,-496.9189 854.8046,-455.2804 776,-384 743.0403,-354.1873 698.3945,-331.2846 662.7134,-316.0443"/>
<polygon fill="#ff0000" stroke="#ff0000" points="663.9537,-312.7693 653.3774,-312.1427 661.2545,-319.228 663.9537,-312.7693"/>
</g>
<!-- n28 -->
<g id="node11" class="node">
<title>n28</title>
<path fill="#ffc1c1" stroke="#000000" d="M903,-312C903,-312 731,-312 731,-312 725,-312 719,-306 719,-300 719,-300 719,-288 719,-288 719,-282 725,-276 731,-276 731,-276 903,-276 903,-276 909,-276 915,-282 915,-288 915,-288 915,-300 915,-300 915,-306 909,-312 903,-312"/>
<text text-anchor="start" x="743.935" y="-292" font-family="arial" font-weight="bold" font-size="10.00" fill="#000000">Redating the Main Culm &#45; COA.1</text>
</g>
<!-- n8&#45;&gt;n28 -->
<g id="edge53" class="edge">
<title>n8&#45;&gt;n28</title>
<path fill="none" stroke="#00ff00" d="M977.7146,-667.7549C946.7358,-595.7111 860.5815,-395.3524 828.8935,-321.6592"/>
<polygon fill="#00ff00" stroke="#00ff00" points="831.9607,-319.9321 824.795,-312.128 825.53,-322.6973 831.9607,-319.9321"/>
</g>
<!-- n9 -->
<g id="node5" class="node">
<title>n9</title>
<path fill="#ffffff" stroke="#ffe4b5" stroke-width="2" d="M857.5,-720C857.5,-720 680.5,-720 680.5,-720 674.5,-720 668.5,-714 668.5,-708 668.5,-708 668.5,-680 668.5,-680 668.5,-674 674.5,-668 680.5,-668 680.5,-668 857.5,-668 857.5,-668 863.5,-668 869.5,-674 869.5,-680 869.5,-680 869.5,-708 869.5,-708 869.5,-714 863.5,-720 857.5,-720"/>
<text text-anchor="start" x="716.1645" y="-706" font-family="arial" font-weight="bold" font-size="10.00" fill="#000000">Some Main Culm as ML</text>
<text text-anchor="start" x="678.929" y="-689" font-family="arial" font-size="10.00" fill="#000000">Some part of the main Culm is ML in age</text>
<text text-anchor="start" x="733.382" y="-677" font-family="arial" font-size="10.00" fill="#000000"> #pri #chron&#45;hyp</text>
</g>
<!-- n9&#45;&gt;n26 -->
<g id="edge2" class="edge">
<title>n9&#45;&gt;n26</title>
<path fill="none" stroke="#ff0000" d="M749.7639,-667.8813C734.0049,-646.4837 711.3521,-615.7258 692.7461,-590.4626"/>
<polygon fill="#ff0000" stroke="#ff0000" points="695.3556,-588.1036 686.6072,-582.1272 689.7192,-592.2547 695.3556,-588.1036"/>
</g>
<!-- n9&#45;&gt;n27 -->
<g id="edge6" class="edge">
<title>n9&#45;&gt;n27</title>
<path fill="none" stroke="#ff0000" d="M770.3271,-667.9268C773.6952,-597.6626 781.333,-408.0379 767,-384 747.4633,-351.235 711.33,-329.5901 677.9425,-315.7586"/>
<polygon fill="#ff0000" stroke="#ff0000" points="679.2005,-312.4924 668.6144,-312.0618 676.6215,-319 679.2005,-312.4924"/>
</g>
<!-- n9&#45;&gt;n28 -->
<g id="edge9" class="edge">
<title>n9&#45;&gt;n28</title>
<path fill="none" stroke="#ff0000" d="M772.5642,-667.6532C778.8324,-620.9971 792.1026,-520.7701 802,-436 806.5885,-396.6999 811.2862,-351.2067 814.1733,-322.5197"/>
<polygon fill="#ff0000" stroke="#ff0000" points="817.6731,-322.695 815.1871,-312.3959 810.708,-321.9974 817.6731,-322.695"/>
</g>
<!-- n10 -->
<g id="node6" class="node">
<title>n10</title>
<path fill="#ffffff" stroke="#ffe4b5" stroke-width="2" d="M638,-720C638,-720 466,-720 466,-720 460,-720 454,-714 454,-708 454,-708 454,-680 454,-680 454,-674 460,-668 466,-668 466,-668 638,-668 638,-668 644,-668 650,-674 650,-680 650,-680 650,-708 650,-708 650,-714 644,-720 638,-720"/>
<text text-anchor="start" x="494.775" y="-706" font-family="arial" font-weight="bold" font-size="10.00" fill="#000000">Some Main Culm as ORS</text>
<text text-anchor="start" x="467.2675" y="-689" font-family="arial" font-size="10.00" fill="#000000">Some part of the main Culm is ORS in</text>
<text text-anchor="start" x="506.154" y="-677" font-family="arial" font-size="10.00" fill="#000000"> age #pri #chron&#45;hyp</text>
</g>
<!-- n10&#45;&gt;n26 -->
<g id="edge3" class="edge">
<title>n10&#45;&gt;n26</title>
<path fill="none" stroke="#ff0000" d="M571.0596,-667.8813C586.6741,-646.4837 609.119,-615.7258 627.5543,-590.4626"/>
<polygon fill="#ff0000" stroke="#ff0000" points="630.5694,-592.2683 633.6369,-582.1272 624.9149,-588.142 630.5694,-592.2683"/>
</g>
<!-- n10&#45;&gt;n27 -->
<g id="edge7" class="edge">
<title>n10&#45;&gt;n27</title>
<path fill="none" stroke="#ff0000" d="M546.8317,-667.8428C537.1935,-613.39 520.2635,-484.5614 553,-384 560.3502,-361.4213 573.536,-338.0406 584.5217,-320.7702"/>
<polygon fill="#ff0000" stroke="#ff0000" points="587.4933,-322.6209 590.0234,-312.3325 581.6297,-318.7975 587.4933,-322.6209"/>
</g>
<!-- n10&#45;&gt;n28 -->
<g id="edge10" class="edge">
<title>n10&#45;&gt;n28</title>
<path fill="none" stroke="#ff0000" d="M548.5225,-667.9516C543.0299,-622.4773 534.7324,-531.055 553,-506 611.9551,-425.1401 695.4509,-505.9625 767,-436 798.2282,-405.4643 809.9922,-354.2866 814.3966,-322.4275"/>
<polygon fill="#ff0000" stroke="#ff0000" points="817.8803,-322.7736 815.6257,-312.4214 810.9326,-321.9201 817.8803,-322.7736"/>
</g>
<!-- n11 -->
<g id="node7" class="node">
<title>n11</title>
<path fill="#ffffff" stroke="#ffe4b5" stroke-width="2" d="M424,-720C424,-720 252,-720 252,-720 246,-720 240,-714 240,-708 240,-708 240,-680 240,-680 240,-674 246,-668 252,-668 252,-668 424,-668 424,-668 430,-668 436,-674 436,-680 436,-680 436,-708 436,-708 436,-714 430,-720 424,-720"/>
<text text-anchor="start" x="284.105" y="-706" font-family="arial" font-weight="bold" font-size="10.00" fill="#000000">Some Main Culm as SIL</text>
<text text-anchor="start" x="256.5975" y="-689" font-family="arial" font-size="10.00" fill="#000000">Some part of the main Culm is SIL in</text>
<text text-anchor="start" x="292.154" y="-677" font-family="arial" font-size="10.00" fill="#000000"> age #pri #chron&#45;hyp</text>
</g>
<!-- n11&#45;&gt;n26 -->
<g id="edge4" class="edge">
<title>n11&#45;&gt;n26</title>
<path fill="none" stroke="#ff0000" d="M394.8259,-667.8813C443.9102,-645.3208 515.6333,-612.3549 572.1143,-586.3947"/>
<polygon fill="#ff0000" stroke="#ff0000" points="573.7744,-589.4837 581.3989,-582.1272 570.851,-583.1234 573.7744,-589.4837"/>
</g>
<!-- n11&#45;&gt;n27 -->
<g id="edge8" class="edge">
<title>n11&#45;&gt;n27</title>
<path fill="none" stroke="#ff0000" d="M354.1414,-667.9789C387.5753,-614.3083 467.1982,-487.6628 538,-384 552.8536,-362.2524 570.3689,-338.0802 583.4728,-320.2674"/>
<polygon fill="#ff0000" stroke="#ff0000" points="586.3988,-322.1969 589.5203,-312.0723 580.7663,-318.0405 586.3988,-322.1969"/>
</g>
<!-- n11&#45;&gt;n28 -->
<g id="edge11" class="edge">
<title>n11&#45;&gt;n28</title>
<path fill="none" stroke="#ff0000" d="M364.6328,-667.7114C385.7432,-646.1914 415.3545,-614.4398 438,-584 483.8141,-522.4173 490.0313,-503.2657 527,-436 539.4452,-413.3556 533.5375,-400.9961 553,-384 580.6373,-359.8651 668.0694,-332.7653 734.8164,-314.6688"/>
<polygon fill="#ff0000" stroke="#ff0000" points="735.7555,-318.0407 744.5046,-312.0656 733.9389,-311.2805 735.7555,-318.0407"/>
</g>
<!-- n12 -->
<g id="node8" class="node">
<title>n12</title>
<path fill="#ffffff" stroke="#ffe4b5" stroke-width="2" d="M746,-436C746,-436 574,-436 574,-436 568,-436 562,-430 562,-424 562,-424 562,-396 562,-396 562,-390 568,-384 574,-384 574,-384 746,-384 746,-384 752,-384 758,-390 758,-396 758,-396 758,-424 758,-424 758,-430 752,-436 746,-436"/>
<text text-anchor="start" x="602.5" y="-422" font-family="arial" font-weight="bold" font-size="10.00" fill="#000000">Some Main Culm as CAM</text>
<text text-anchor="start" x="574.9925" y="-405" font-family="arial" font-size="10.00" fill="#000000">Some part of the main Culm is CAM in</text>
<text text-anchor="start" x="614.154" y="-393" font-family="arial" font-size="10.00" fill="#000000"> age #pri #chron&#45;hyp</text>
</g>
<!-- n12&#45;&gt;n27 -->
<g id="edge54" class="edge">
<title>n12&#45;&gt;n27</title>
<path fill="none" stroke="#00ff00" d="M647.2081,-383.9673C637.9981,-365.2242 625.6053,-340.0039 616.2845,-321.0351"/>
<polygon fill="#00ff00" stroke="#00ff00" points="619.4049,-319.449 611.8535,-312.0176 613.1224,-322.5362 619.4049,-319.449"/>
</g>
<!-- n12&#45;&gt;n28 -->
<g id="edge12" class="edge">
<title>n12&#45;&gt;n28</title>
<path fill="none" stroke="#ff0000" d="M695.2339,-383.9673C721.9918,-364.1972 758.5032,-337.2205 784.5505,-317.9754"/>
<polygon fill="#ff0000" stroke="#ff0000" points="786.6512,-320.7751 792.6141,-312.0176 782.4914,-315.1451 786.6512,-320.7751"/>
</g>
<!-- n26&#45;&gt;n12 -->
<g id="edge44" class="edge">
<title>n26&#45;&gt;n12</title>
<path fill="none" stroke="#00ff00" d="M660,-509.9116C660,-490.3005 660,-466.1097 660,-446.4438"/>
<polygon fill="#00ff00" stroke="#00ff00" points="663.5001,-446.3317 660,-436.3317 656.5001,-446.3318 663.5001,-446.3317"/>
</g>
<!-- n27&#45;&gt;n1 -->
<g id="edge45" class="edge">
<title>n27&#45;&gt;n1</title>
<path fill="none" stroke="#00ff00" d="M610.5,-275.875C617.3742,-259.2623 627.7488,-234.1904 636.2766,-213.5817"/>
<polygon fill="#00ff00" stroke="#00ff00" points="639.5785,-214.7557 640.168,-204.1773 633.1104,-212.0792 639.5785,-214.7557"/>
</g>
<!-- n28&#45;&gt;n5 -->
<g id="edge46" class="edge">
<title>n28&#45;&gt;n5</title>
<path fill="none" stroke="#00ff00" d="M812.0402,-275.8034C803.8052,-247.6094 785.4518,-192.4115 758,-152 739.8497,-125.2811 713.9966,-99.9179 692.2499,-80.9283"/>
<polygon fill="#00ff00" stroke="#00ff00" points="694.3134,-78.087 684.4456,-74.2298 689.7542,-83.3988 694.3134,-78.087"/>
</g>
<!-- n2 -->
<g id="node12" class="node">
<title>n2</title>
<path fill="#ffffff" stroke="#f4a460" stroke-width="2" d="M1300,-720C1300,-720 1128,-720 1128,-720 1122,-720 1116,-714 1116,-708 1116,-708 1116,-680 1116,-680 1116,-674 1122,-668 1128,-668 1128,-668 1300,-668 1300,-668 1306,-668 1312,-674 1312,-680 1312,-680 1312,-708 1312,-708 1312,-714 1306,-720 1300,-720"/>
<text text-anchor="start" x="1165.6545" y="-706" font-family="arial" font-weight="bold" font-size="10.00" fill="#000000">Ancient French Strata</text>
<text text-anchor="start" x="1131.7525" y="-689" font-family="arial" font-size="10.00" fill="#000000">In the Bocage, there are pre&#45;Old Red</text>
<text text-anchor="start" x="1132.03" y="-677" font-family="arial" font-size="10.00" fill="#000000"> Sandstone strata. #GRE #chron&#45;hyp</text>
</g>
<!-- n3 -->
<g id="node13" class="node">
<title>n3</title>
<path fill="#ffffff" stroke="#f4a460" stroke-width="2" d="M1834,-204C1834,-204 1658,-204 1658,-204 1652,-204 1646,-198 1646,-192 1646,-192 1646,-164 1646,-164 1646,-158 1652,-152 1658,-152 1658,-152 1834,-152 1834,-152 1840,-152 1846,-158 1846,-164 1846,-164 1846,-192 1846,-192 1846,-198 1840,-204 1834,-204"/>
<text text-anchor="start" x="1717.1095" y="-190" font-family="arial" font-weight="bold" font-size="10.00" fill="#000000">BCL as CAM</text>
<text text-anchor="start" x="1655.7025" y="-173" font-family="arial" font-size="10.00" fill="#000000">The black Culm Limestone is nothing but</text>
<text text-anchor="start" x="1665.1505" y="-161" font-family="arial" font-size="10.00" fill="#000000"> Cambrian in age #GRE #chron&#45;hyp </text>
</g>
<!-- n6 -->
<g id="node14" class="node">
<title>n6</title>
<path fill="#ffffff" stroke="#ffc1c1" stroke-width="2" d="M1836.5,-74C1836.5,-74 1655.5,-74 1655.5,-74 1649.5,-74 1643.5,-68 1643.5,-62 1643.5,-62 1643.5,-34 1643.5,-34 1643.5,-28 1649.5,-22 1655.5,-22 1655.5,-22 1836.5,-22 1836.5,-22 1842.5,-22 1848.5,-28 1848.5,-34 1848.5,-34 1848.5,-62 1848.5,-62 1848.5,-68 1842.5,-74 1836.5,-74"/>
<text text-anchor="start" x="1720.944" y="-60" font-family="arial" font-weight="bold" font-size="10.00" fill="#000000">BCL as CM</text>
<text text-anchor="start" x="1656.2025" y="-43" font-family="arial" font-size="10.00" fill="#000000">The black Culm Limestone is nothing but</text>
<text text-anchor="start" x="1653.702" y="-31" font-family="arial" font-size="10.00" fill="#000000"> Coal Mesaures in age #COA #chron&#45;hyp </text>
</g>
<!-- n3&#45;&gt;n6 -->
<g id="edge28" class="edge">
<title>n3&#45;&gt;n6</title>
<path fill="none" stroke="#ff0000" d="M1740.4514,-151.6926C1739.074,-132.3099 1738.881,-105.7101 1739.8723,-84.3047"/>
<polygon fill="#ff0000" stroke="#ff0000" points="1743.3695,-84.4541 1740.4541,-74.2683 1736.3812,-84.049 1743.3695,-84.4541"/>
</g>
<!-- n6&#45;&gt;n3 -->
<g id="edge27" class="edge">
<title>n6&#45;&gt;n3</title>
<path fill="none" stroke="#ff0000" d="M1751.5459,-74.2683C1752.9248,-93.6413 1753.1194,-120.2397 1752.1297,-141.652"/>
<polygon fill="#ff0000" stroke="#ff0000" points="1748.6323,-141.507 1751.5486,-151.6926 1755.6206,-141.9115 1748.6323,-141.507"/>
</g>
<!-- n13 -->
<g id="node15" class="node">
<title>n13</title>
<path fill="#ffffff" stroke="#ffe4b5" stroke-width="2" d="M2165,-720C2165,-720 1993,-720 1993,-720 1987,-720 1981,-714 1981,-708 1981,-708 1981,-680 1981,-680 1981,-674 1987,-668 1993,-668 1993,-668 2165,-668 2165,-668 2171,-668 2177,-674 2177,-680 2177,-680 2177,-708 2177,-708 2177,-714 2171,-720 2165,-720"/>
<text text-anchor="start" x="2038.9965" y="-706" font-family="arial" font-weight="bold" font-size="10.00" fill="#000000">Some BCL as CM</text>
<text text-anchor="start" x="1991.482" y="-689" font-family="arial" font-size="10.00" fill="#000000">Some part of the black Culm Limestone</text>
<text text-anchor="start" x="2013.713" y="-677" font-family="arial" font-size="10.00" fill="#000000"> is CM in age #pri #chron&#45;hyp</text>
</g>
<!-- n29 -->
<g id="node20" class="node">
<title>n29</title>
<path fill="#ffe4b5" stroke="#000000" d="M1846,-584C1846,-584 1670,-584 1670,-584 1664,-584 1658,-578 1658,-572 1658,-572 1658,-520 1658,-520 1658,-514 1664,-508 1670,-508 1670,-508 1846,-508 1846,-508 1852,-508 1858,-514 1858,-520 1858,-520 1858,-572 1858,-572 1858,-578 1852,-584 1846,-584"/>
<text text-anchor="start" x="1673.252" y="-570" font-family="arial" font-weight="bold" font-size="10.00" fill="#000000">Standard Sequence as Partition &#45; BCL</text>
<text text-anchor="start" x="1691.5985" y="-553" font-family="arial" font-size="10.00" fill="#000000">If some part of the black Culm</text>
<text text-anchor="start" x="1667.9885" y="-541" font-family="arial" font-size="10.00" fill="#000000"> Limestone is neiter CM, ML, OR nor SIL</text>
<text text-anchor="start" x="1684.372" y="-529" font-family="arial" font-size="10.00" fill="#000000"> in age, then it is CAM in age #pri</text>
<text text-anchor="start" x="1731.6045" y="-517" font-family="arial" font-size="10.00" fill="#000000"> #chron&#45;hyp</text>
</g>
<!-- n13&#45;&gt;n29 -->
<g id="edge15" class="edge">
<title>n13&#45;&gt;n29</title>
<path fill="none" stroke="#ff0000" d="M2022.3506,-667.8813C1974.6121,-645.871 1905.3927,-613.9568 1849.7593,-588.3065"/>
<polygon fill="#ff0000" stroke="#ff0000" points="1851.147,-585.0922 1840.6003,-584.0836 1848.2161,-591.4491 1851.147,-585.0922"/>
</g>
<!-- n30 -->
<g id="node21" class="node">
<title>n30</title>
<path fill="#f4a460" stroke="#000000" d="M1785,-312C1785,-312 1613,-312 1613,-312 1607,-312 1601,-306 1601,-300 1601,-300 1601,-288 1601,-288 1601,-282 1607,-276 1613,-276 1613,-276 1785,-276 1785,-276 1791,-276 1797,-282 1797,-288 1797,-288 1797,-300 1797,-300 1797,-306 1791,-312 1785,-312"/>
<text text-anchor="start" x="1645.656" y="-292" font-family="arial" font-weight="bold" font-size="10.00" fill="#000000">Dating the BCL &#45; GRE.1</text>
</g>
<!-- n13&#45;&gt;n30 -->
<g id="edge19" class="edge">
<title>n13&#45;&gt;n30</title>
<path fill="none" stroke="#ff0000" d="M2059.3594,-667.6629C2043.0726,-645.5863 2019.5116,-613.0963 2000,-584 1941.6191,-496.9407 1952.2346,-454.8694 1875,-384 1842.0384,-353.7549 1797.0124,-330.9762 1760.754,-315.902"/>
<polygon fill="#ff0000" stroke="#ff0000" points="1761.8407,-312.5658 1751.2586,-312.0456 1759.2066,-319.0513 1761.8407,-312.5658"/>
</g>
<!-- n31 -->
<g id="node22" class="node">
<title>n31</title>
<path fill="#ffc1c1" stroke="#000000" d="M1999,-312C1999,-312 1827,-312 1827,-312 1821,-312 1815,-306 1815,-300 1815,-300 1815,-288 1815,-288 1815,-282 1821,-276 1827,-276 1827,-276 1999,-276 1999,-276 2005,-276 2011,-282 2011,-288 2011,-288 2011,-300 2011,-300 2011,-306 2005,-312 1999,-312"/>
<text text-anchor="start" x="1854.097" y="-292" font-family="arial" font-weight="bold" font-size="10.00" fill="#000000">Redating the BCL &#45; COA.1</text>
</g>
<!-- n13&#45;&gt;n31 -->
<g id="edge55" class="edge">
<title>n13&#45;&gt;n31</title>
<path fill="none" stroke="#00ff00" d="M2068.1083,-667.7549C2038.2101,-595.7111 1955.0612,-395.3524 1924.4786,-321.6592"/>
<polygon fill="#00ff00" stroke="#00ff00" points="1927.5889,-320.0227 1920.5231,-312.128 1921.1235,-322.7058 1927.5889,-320.0227"/>
</g>
<!-- n14 -->
<g id="node16" class="node">
<title>n14</title>
<path fill="#ffffff" stroke="#ffe4b5" stroke-width="2" d="M1951,-720C1951,-720 1779,-720 1779,-720 1773,-720 1767,-714 1767,-708 1767,-708 1767,-680 1767,-680 1767,-674 1773,-668 1779,-668 1779,-668 1951,-668 1951,-668 1957,-668 1963,-674 1963,-680 1963,-680 1963,-708 1963,-708 1963,-714 1957,-720 1951,-720"/>
<text text-anchor="start" x="1825.8265" y="-706" font-family="arial" font-weight="bold" font-size="10.00" fill="#000000">Some BCL as ML</text>
<text text-anchor="start" x="1777.482" y="-689" font-family="arial" font-size="10.00" fill="#000000">Some part of the black Culm Limestone</text>
<text text-anchor="start" x="1800.543" y="-677" font-family="arial" font-size="10.00" fill="#000000"> is ML in age #pri #chron&#45;hyp</text>
</g>
<!-- n14&#45;&gt;n29 -->
<g id="edge16" class="edge">
<title>n14&#45;&gt;n29</title>
<path fill="none" stroke="#ff0000" d="M1846.1169,-667.8813C1831.0243,-647.0056 1809.4906,-617.2206 1791.4886,-592.3207"/>
<polygon fill="#ff0000" stroke="#ff0000" points="1794.2288,-590.1369 1785.5334,-584.0836 1788.556,-594.2382 1794.2288,-590.1369"/>
</g>
<!-- n14&#45;&gt;n30 -->
<g id="edge20" class="edge">
<title>n14&#45;&gt;n30</title>
<path fill="none" stroke="#ff0000" d="M1868.2313,-667.5889C1875.7869,-601.5168 1891.8737,-431.0064 1863,-384 1842.956,-351.3685 1806.5834,-329.7034 1773.1765,-315.8253"/>
<polygon fill="#ff0000" stroke="#ff0000" points="1774.4343,-312.5589 1763.8487,-312.1148 1771.8469,-319.0632 1774.4343,-312.5589"/>
</g>
<!-- n14&#45;&gt;n31 -->
<g id="edge23" class="edge">
<title>n14&#45;&gt;n31</title>
<path fill="none" stroke="#ff0000" d="M1869.3899,-667.822C1873.0396,-645.5653 1878.2277,-612.7394 1882,-584 1894.5808,-488.1516 1905.6384,-373.9722 1910.4475,-322.1134"/>
<polygon fill="#ff0000" stroke="#ff0000" points="1913.9449,-322.3012 1911.3771,-312.0222 1906.9744,-321.659 1913.9449,-322.3012"/>
</g>
<!-- n15 -->
<g id="node17" class="node">
<title>n15</title>
<path fill="#ffffff" stroke="#ffe4b5" stroke-width="2" d="M1737,-720C1737,-720 1565,-720 1565,-720 1559,-720 1553,-714 1553,-708 1553,-708 1553,-680 1553,-680 1553,-674 1559,-668 1565,-668 1565,-668 1737,-668 1737,-668 1743,-668 1749,-674 1749,-680 1749,-680 1749,-708 1749,-708 1749,-714 1743,-720 1737,-720"/>
<text text-anchor="start" x="1607.937" y="-706" font-family="arial" font-weight="bold" font-size="10.00" fill="#000000">Some BCL as ORS</text>
<text text-anchor="start" x="1563.482" y="-689" font-family="arial" font-size="10.00" fill="#000000">Some part of the black Culm Limestone</text>
<text text-anchor="start" x="1582.6535" y="-677" font-family="arial" font-size="10.00" fill="#000000"> is ORS in age #pri #chron&#45;hyp</text>
</g>
<!-- n15&#45;&gt;n29 -->
<g id="edge17" class="edge">
<title>n15&#45;&gt;n29</title>
<path fill="none" stroke="#ff0000" d="M1669.8831,-667.8813C1684.9757,-647.0056 1706.5094,-617.2206 1724.5114,-592.3207"/>
<polygon fill="#ff0000" stroke="#ff0000" points="1727.444,-594.2382 1730.4666,-584.0836 1721.7712,-590.1369 1727.444,-594.2382"/>
</g>
<!-- n15&#45;&gt;n30 -->
<g id="edge21" class="edge">
<title>n15&#45;&gt;n30</title>
<path fill="none" stroke="#ff0000" d="M1645.4208,-667.843C1634.9608,-613.3907 1616.263,-484.563 1649,-384 1656.3502,-361.4213 1669.536,-338.0406 1680.5217,-320.7702"/>
<polygon fill="#ff0000" stroke="#ff0000" points="1683.4933,-322.6209 1686.0234,-312.3325 1677.6297,-318.7975 1683.4933,-322.6209"/>
</g>
<!-- n15&#45;&gt;n31 -->
<g id="edge24" class="edge">
<title>n15&#45;&gt;n31</title>
<path fill="none" stroke="#ff0000" d="M1647.0403,-667.9615C1640.7164,-622.5029 1630.7983,-531.1045 1649,-506 1707.7398,-424.9836 1791.4509,-505.9625 1863,-436 1894.2282,-405.4643 1905.9922,-354.2866 1910.3966,-322.4275"/>
<polygon fill="#ff0000" stroke="#ff0000" points="1913.8803,-322.7736 1911.6257,-312.4214 1906.9326,-321.9201 1913.8803,-322.7736"/>
</g>
<!-- n16 -->
<g id="node18" class="node">
<title>n16</title>
<path fill="#ffffff" stroke="#ffe4b5" stroke-width="2" d="M1523,-720C1523,-720 1351,-720 1351,-720 1345,-720 1339,-714 1339,-708 1339,-708 1339,-680 1339,-680 1339,-674 1345,-668 1351,-668 1351,-668 1523,-668 1523,-668 1529,-668 1535,-674 1535,-680 1535,-680 1535,-708 1535,-708 1535,-714 1529,-720 1523,-720"/>
<text text-anchor="start" x="1397.267" y="-706" font-family="arial" font-weight="bold" font-size="10.00" fill="#000000">Some BCL as SIL</text>
<text text-anchor="start" x="1349.482" y="-689" font-family="arial" font-size="10.00" fill="#000000">Some part of the black Culm Limestone</text>
<text text-anchor="start" x="1371.9835" y="-677" font-family="arial" font-size="10.00" fill="#000000"> is SIL in age #pri #chron&#45;hyp</text>
</g>
<!-- n16&#45;&gt;n29 -->
<g id="edge18" class="edge">
<title>n16&#45;&gt;n29</title>
<path fill="none" stroke="#ff0000" d="M1493.6494,-667.8813C1541.3879,-645.871 1610.6073,-613.9568 1666.2407,-588.3065"/>
<polygon fill="#ff0000" stroke="#ff0000" points="1667.7839,-591.4491 1675.3997,-584.0836 1664.853,-585.0922 1667.7839,-591.4491"/>
</g>
<!-- n16&#45;&gt;n30 -->
<g id="edge22" class="edge">
<title>n16&#45;&gt;n30</title>
<path fill="none" stroke="#ff0000" d="M1452.8338,-667.9438C1485.6456,-614.2083 1563.8633,-487.4496 1634,-384 1648.7789,-362.2016 1666.2992,-338.0328 1679.4241,-320.2343"/>
<polygon fill="#ff0000" stroke="#ff0000" points="1682.3478,-322.1672 1685.4828,-312.0468 1676.7209,-318.0033 1682.3478,-322.1672"/>
</g>
<!-- n16&#45;&gt;n31 -->
<g id="edge25" class="edge">
<title>n16&#45;&gt;n31</title>
<path fill="none" stroke="#ff0000" d="M1463.0472,-667.6235C1483.7055,-646.0538 1512.7101,-614.2782 1535,-584 1580.5042,-522.188 1587.5538,-503.5502 1624,-436 1636.1764,-413.432 1629.8162,-401.0166 1649,-384 1676.4062,-359.6899 1763.6411,-332.6762 1830.4073,-314.6473"/>
<polygon fill="#ff0000" stroke="#ff0000" points="1831.3444,-318.0197 1840.0999,-312.0539 1829.5351,-311.2576 1831.3444,-318.0197"/>
</g>
<!-- n17 -->
<g id="node19" class="node">
<title>n17</title>
<path fill="#ffffff" stroke="#ffe4b5" stroke-width="2" d="M1842,-436C1842,-436 1670,-436 1670,-436 1664,-436 1658,-430 1658,-424 1658,-424 1658,-396 1658,-396 1658,-390 1664,-384 1670,-384 1670,-384 1842,-384 1842,-384 1848,-384 1854,-390 1854,-396 1854,-396 1854,-424 1854,-424 1854,-430 1848,-436 1842,-436"/>
<text text-anchor="start" x="1712.662" y="-422" font-family="arial" font-weight="bold" font-size="10.00" fill="#000000">Some BCL as CAM</text>
<text text-anchor="start" x="1668.482" y="-405" font-family="arial" font-size="10.00" fill="#000000">Some part of the black Culm Limestone</text>
<text text-anchor="start" x="1687.3785" y="-393" font-family="arial" font-size="10.00" fill="#000000"> is CAM in age #pri #chron&#45;hyp</text>
</g>
<!-- n17&#45;&gt;n30 -->
<g id="edge56" class="edge">
<title>n17&#45;&gt;n30</title>
<path fill="none" stroke="#00ff00" d="M1743.2081,-383.9673C1733.9981,-365.2242 1721.6053,-340.0039 1712.2845,-321.0351"/>
<polygon fill="#00ff00" stroke="#00ff00" points="1715.4049,-319.449 1707.8535,-312.0176 1709.1224,-322.5362 1715.4049,-319.449"/>
</g>
<!-- n17&#45;&gt;n31 -->
<g id="edge26" class="edge">
<title>n17&#45;&gt;n31</title>
<path fill="none" stroke="#ff0000" d="M1791.2339,-383.9673C1817.9918,-364.1972 1854.5032,-337.2205 1880.5505,-317.9754"/>
<polygon fill="#ff0000" stroke="#ff0000" points="1882.6512,-320.7751 1888.6141,-312.0176 1878.4914,-315.1451 1882.6512,-320.7751"/>
</g>
<!-- n29&#45;&gt;n17 -->
<g id="edge47" class="edge">
<title>n29&#45;&gt;n17</title>
<path fill="none" stroke="#00ff00" d="M1757.4376,-507.7545C1757.1549,-488.5306 1756.814,-465.3546 1756.5352,-446.3946"/>
<polygon fill="#00ff00" stroke="#00ff00" points="1760.0342,-446.2943 1756.3875,-436.3469 1753.035,-446.3973 1760.0342,-446.2943"/>
</g>
<!-- n30&#45;&gt;n3 -->
<g id="edge48" class="edge">
<title>n30&#45;&gt;n3</title>
<path fill="none" stroke="#00ff00" d="M1706.3438,-275.875C1713.0748,-259.2623 1723.2332,-234.1904 1731.5833,-213.5817"/>
<polygon fill="#00ff00" stroke="#00ff00" points="1734.8823,-214.7598 1735.3937,-204.1773 1728.3946,-212.1311 1734.8823,-214.7598"/>
</g>
<!-- n31&#45;&gt;n6 -->
<g id="edge49" class="edge">
<title>n31&#45;&gt;n6</title>
<path fill="none" stroke="#00ff00" d="M1908.237,-275.7682C1900.2926,-247.527 1882.4489,-192.2671 1855,-152 1836.5503,-124.9346 1810.0665,-99.4612 1787.8243,-80.4993"/>
<polygon fill="#00ff00" stroke="#00ff00" points="1790.0668,-77.8121 1780.1541,-74.0719 1785.5708,-83.1774 1790.0668,-77.8121"/>
</g>
<!-- n4 -->
<g id="node23" class="node">
<title>n4</title>
<path fill="#ffffff" stroke="#f4a460" stroke-width="2" d="M2696,-204C2696,-204 2524,-204 2524,-204 2518,-204 2512,-198 2512,-192 2512,-192 2512,-164 2512,-164 2512,-158 2518,-152 2524,-152 2524,-152 2696,-152 2696,-152 2702,-152 2708,-158 2708,-164 2708,-164 2708,-192 2708,-192 2708,-198 2702,-204 2696,-204"/>
<text text-anchor="start" x="2568.337" y="-190" font-family="arial" font-weight="bold" font-size="10.00" fill="#000000">Non&#45;Culm as CAM</text>
<text text-anchor="start" x="2533.316" y="-173" font-family="arial" font-size="10.00" fill="#000000">The non&#45;Culm strata is nothing but</text>
<text text-anchor="start" x="2529.1505" y="-161" font-family="arial" font-size="10.00" fill="#000000"> Cambrian in age #GRE #chron&#45;hyp </text>
</g>
<!-- n7 -->
<g id="node24" class="node">
<title>n7</title>
<path fill="#ffffff" stroke="#ffc1c1" stroke-width="2" d="M2696,-80C2696,-80 2524,-80 2524,-80 2518,-80 2512,-74 2512,-68 2512,-68 2512,-28 2512,-28 2512,-22 2518,-16 2524,-16 2524,-16 2696,-16 2696,-16 2702,-16 2708,-22 2708,-28 2708,-28 2708,-68 2708,-68 2708,-74 2702,-80 2696,-80"/>
<text text-anchor="start" x="2549.716" y="-66" font-family="arial" font-weight="bold" font-size="10.00" fill="#000000">Non&#45;Culm as SIL and CAM</text>
<text text-anchor="start" x="2529.1465" y="-49" font-family="arial" font-size="10.00" fill="#000000">In Devon, the non&#45;Culm strata range</text>
<text text-anchor="start" x="2521.934" y="-37" font-family="arial" font-size="10.00" fill="#000000"> from Cambrian to Silurian in age #COA</text>
<text text-anchor="start" x="2583.6045" y="-25" font-family="arial" font-size="10.00" fill="#000000"> #chron&#45;hyp</text>
</g>
<!-- n4&#45;&gt;n7 -->
<g id="edge41" class="edge">
<title>n4&#45;&gt;n7</title>
<path fill="none" stroke="#ff0000" d="M2604.4514,-151.6926C2603.2033,-134.1287 2602.9277,-110.6387 2603.6245,-90.4577"/>
<polygon fill="#ff0000" stroke="#ff0000" points="2607.1305,-90.4003 2604.0776,-80.2549 2600.1373,-90.0897 2607.1305,-90.4003"/>
</g>
<!-- n7&#45;&gt;n4 -->
<g id="edge40" class="edge">
<title>n7&#45;&gt;n4</title>
<path fill="none" stroke="#ff0000" d="M2615.9224,-80.2549C2616.9488,-98.8297 2617.0205,-122.2335 2616.1374,-141.4829"/>
<polygon fill="#ff0000" stroke="#ff0000" points="2612.6303,-141.5076 2615.5486,-151.6926 2619.6187,-141.9107 2612.6303,-141.5076"/>
</g>
<!-- n18 -->
<g id="node25" class="node">
<title>n18</title>
<path fill="#ffffff" stroke="#ffe4b5" stroke-width="2" d="M3033,-720C3033,-720 2861,-720 2861,-720 2855,-720 2849,-714 2849,-708 2849,-708 2849,-680 2849,-680 2849,-674 2855,-668 2861,-668 2861,-668 3033,-668 3033,-668 3039,-668 3045,-674 3045,-680 3045,-680 3045,-708 3045,-708 3045,-714 3039,-720 3033,-720"/>
<text text-anchor="start" x="2894.224" y="-706" font-family="arial" font-weight="bold" font-size="10.00" fill="#000000">Some Non&#45;Culm as CM</text>
<text text-anchor="start" x="2858.933" y="-689" font-family="arial" font-size="10.00" fill="#000000">Some part of the non&#45;Culm strata is CM</text>
<text text-anchor="start" x="2895.8755" y="-677" font-family="arial" font-size="10.00" fill="#000000"> in age #pri #chron&#45;hyp</text>
</g>
<!-- n32 -->
<g id="node30" class="node">
<title>n32</title>
<path fill="#ffe4b5" stroke="#000000" d="M2710,-582C2710,-582 2538,-582 2538,-582 2532,-582 2526,-576 2526,-570 2526,-570 2526,-522 2526,-522 2526,-516 2532,-510 2538,-510 2538,-510 2710,-510 2710,-510 2716,-510 2722,-516 2722,-522 2722,-522 2722,-570 2722,-570 2722,-576 2716,-582 2710,-582"/>
<text text-anchor="start" x="2550.365" y="-568" font-family="arial" font-weight="bold" font-size="10.00" fill="#000000">Standard Sequence as Partition &#45;</text>
<text text-anchor="start" x="2600.1145" y="-558" font-family="arial" font-weight="bold" font-size="10.00" fill="#000000"> Non&#45;Culm</text>
<text text-anchor="start" x="2541.7625" y="-543" font-family="arial" font-size="10.00" fill="#000000">If some part of the non&#45;Culm strata is</text>
<text text-anchor="start" x="2535.9245" y="-531" font-family="arial" font-size="10.00" fill="#000000"> neiter CM, ML, OR nor SIL in age, then</text>
<text text-anchor="start" x="2551.49" y="-519" font-family="arial" font-size="10.00" fill="#000000"> it is CAM in age #pri #chron&#45;hyp</text>
</g>
<!-- n18&#45;&gt;n32 -->
<g id="edge29" class="edge">
<title>n18&#45;&gt;n32</title>
<path fill="none" stroke="#ff0000" d="M2889.9976,-667.8813C2840.7608,-645.3208 2768.815,-612.3549 2712.1587,-586.3947"/>
<polygon fill="#ff0000" stroke="#ff0000" points="2713.3943,-583.111 2702.8452,-582.1272 2710.4783,-589.4747 2713.3943,-583.111"/>
</g>
<!-- n33 -->
<g id="node31" class="node">
<title>n33</title>
<path fill="#f4a460" stroke="#000000" d="M2643,-312C2643,-312 2471,-312 2471,-312 2465,-312 2459,-306 2459,-300 2459,-300 2459,-288 2459,-288 2459,-282 2465,-276 2471,-276 2471,-276 2643,-276 2643,-276 2649,-276 2655,-282 2655,-288 2655,-288 2655,-300 2655,-300 2655,-306 2649,-312 2643,-312"/>
<text text-anchor="start" x="2492.273" y="-292" font-family="arial" font-weight="bold" font-size="10.00" fill="#000000">Dating the Non&#45;Culm&#45; GRE.1</text>
</g>
<!-- n18&#45;&gt;n33 -->
<g id="edge33" class="edge">
<title>n18&#45;&gt;n33</title>
<path fill="none" stroke="#ff0000" d="M2927.4409,-667.6079C2911.2026,-645.4986 2887.6672,-612.9914 2868,-584 2808.7535,-496.6648 2818.6927,-454.321 2740,-384 2705.684,-353.3347 2659.0365,-330.6071 2621.4272,-315.6622"/>
<polygon fill="#ff0000" stroke="#ff0000" points="2622.6621,-312.3872 2612.0732,-312.0303 2620.1284,-318.9126 2622.6621,-312.3872"/>
</g>
<!-- n34 -->
<g id="node32" class="node">
<title>n34</title>
<path fill="#ffc1c1" stroke="#000000" d="M2876.5,-312C2876.5,-312 2685.5,-312 2685.5,-312 2679.5,-312 2673.5,-306 2673.5,-300 2673.5,-300 2673.5,-288 2673.5,-288 2673.5,-282 2679.5,-276 2685.5,-276 2685.5,-276 2876.5,-276 2876.5,-276 2882.5,-276 2888.5,-282 2888.5,-288 2888.5,-288 2888.5,-300 2888.5,-300 2888.5,-306 2882.5,-312 2876.5,-312"/>
<text text-anchor="start" x="2683.7085" y="-292" font-family="arial" font-weight="bold" font-size="10.00" fill="#000000">Extending the Non&#45;Culm Upwards &#45; COA.2a</text>
</g>
<!-- n18&#45;&gt;n34 -->
<g id="edge39" class="edge">
<title>n18&#45;&gt;n34</title>
<path fill="none" stroke="#ff0000" d="M2936.1083,-667.7549C2906.2101,-595.7111 2823.0612,-395.3524 2792.4786,-321.6592"/>
<polygon fill="#ff0000" stroke="#ff0000" points="2795.5889,-320.0227 2788.5231,-312.128 2789.1235,-322.7058 2795.5889,-320.0227"/>
</g>
<!-- n19 -->
<g id="node26" class="node">
<title>n19</title>
<path fill="#ffffff" stroke="#ffe4b5" stroke-width="2" d="M2819,-720C2819,-720 2647,-720 2647,-720 2641,-720 2635,-714 2635,-708 2635,-708 2635,-680 2635,-680 2635,-674 2641,-668 2647,-668 2647,-668 2819,-668 2819,-668 2825,-668 2831,-674 2831,-680 2831,-680 2831,-708 2831,-708 2831,-714 2825,-720 2819,-720"/>
<text text-anchor="start" x="2681.054" y="-706" font-family="arial" font-weight="bold" font-size="10.00" fill="#000000">Some Non&#45;Culm as ML</text>
<text text-anchor="start" x="2645.763" y="-689" font-family="arial" font-size="10.00" fill="#000000">Some part of the non&#45;Culm strata is ML</text>
<text text-anchor="start" x="2681.8755" y="-677" font-family="arial" font-size="10.00" fill="#000000"> in age #pri #chron&#45;hyp</text>
</g>
<!-- n19&#45;&gt;n32 -->
<g id="edge30" class="edge">
<title>n19&#45;&gt;n32</title>
<path fill="none" stroke="#ff0000" d="M2713.7639,-667.8813C2698.0049,-646.4837 2675.3521,-615.7258 2656.7461,-590.4626"/>
<polygon fill="#ff0000" stroke="#ff0000" points="2659.3556,-588.1036 2650.6072,-582.1272 2653.7192,-592.2547 2659.3556,-588.1036"/>
</g>
<!-- n19&#45;&gt;n33 -->
<g id="edge34" class="edge">
<title>n19&#45;&gt;n33</title>
<path fill="none" stroke="#ff0000" d="M2734.3581,-667.9081C2737.8055,-597.596 2745.6271,-407.8601 2731,-384 2710.6904,-350.8706 2673.849,-329.3857 2639.2783,-315.7504"/>
<polygon fill="#ff0000" stroke="#ff0000" points="2640.1955,-312.356 2629.6035,-312.1095 2637.73,-318.9074 2640.1955,-312.356"/>
</g>
<!-- n19&#45;&gt;n34 -->
<g id="edge38" class="edge">
<title>n19&#45;&gt;n34</title>
<path fill="none" stroke="#ff0000" d="M2736.5642,-667.6532C2742.8324,-620.9971 2756.1026,-520.7701 2766,-436 2770.5885,-396.6999 2775.2862,-351.2067 2778.1733,-322.5197"/>
<polygon fill="#ff0000" stroke="#ff0000" points="2781.6731,-322.695 2779.1871,-312.3959 2774.708,-321.9974 2781.6731,-322.695"/>
</g>
<!-- n20 -->
<g id="node27" class="node">
<title>n20</title>
<path fill="#ffffff" stroke="#ffe4b5" stroke-width="2" d="M2605,-720C2605,-720 2427,-720 2427,-720 2421,-720 2415,-714 2415,-708 2415,-708 2415,-680 2415,-680 2415,-674 2421,-668 2427,-668 2427,-668 2605,-668 2605,-668 2611,-668 2617,-674 2617,-680 2617,-680 2617,-708 2617,-708 2617,-714 2611,-720 2605,-720"/>
<text text-anchor="start" x="2460.1645" y="-706" font-family="arial" font-weight="bold" font-size="10.00" fill="#000000">Some Non&#45;Culm as ORS</text>
<text text-anchor="start" x="2424.8735" y="-689" font-family="arial" font-size="10.00" fill="#000000">Some part of the non&#45;Culm strata is ORS</text>
<text text-anchor="start" x="2464.8755" y="-677" font-family="arial" font-size="10.00" fill="#000000"> in age #pri #chron&#45;hyp</text>
</g>
<!-- n20&#45;&gt;n32 -->
<g id="edge31" class="edge">
<title>n20&#45;&gt;n32</title>
<path fill="none" stroke="#ff0000" d="M2535.0596,-667.8813C2550.6741,-646.4837 2573.119,-615.7258 2591.5543,-590.4626"/>
<polygon fill="#ff0000" stroke="#ff0000" points="2594.5694,-592.2683 2597.6369,-582.1272 2588.9149,-588.142 2594.5694,-592.2683"/>
</g>
<!-- n20&#45;&gt;n33 -->
<g id="edge35" class="edge">
<title>n20&#45;&gt;n33</title>
<path fill="none" stroke="#ff0000" d="M2510.6161,-667.6375C2500.5941,-613.337 2482.5482,-485.5909 2511,-384 2517.2689,-361.6162 2529.367,-338.2992 2539.5831,-321.0083"/>
<polygon fill="#ff0000" stroke="#ff0000" points="2542.8146,-322.43 2545.0161,-312.0664 2536.8323,-318.7951 2542.8146,-322.43"/>
</g>
<!-- n20&#45;&gt;n34 -->
<g id="edge37" class="edge">
<title>n20&#45;&gt;n34</title>
<path fill="none" stroke="#ff0000" d="M2512.5225,-667.9516C2507.0299,-622.4773 2498.7324,-531.055 2517,-506 2575.9551,-425.1401 2659.4509,-505.9625 2731,-436 2762.2282,-405.4643 2773.9922,-354.2866 2778.3966,-322.4275"/>
<polygon fill="#ff0000" stroke="#ff0000" points="2781.8803,-322.7736 2779.6257,-312.4214 2774.9326,-321.9201 2781.8803,-322.7736"/>
</g>
<!-- n21 -->
<g id="node28" class="node">
<title>n21</title>
<path fill="#ffffff" stroke="#ffe4b5" stroke-width="2" d="M2385,-720C2385,-720 2213,-720 2213,-720 2207,-720 2201,-714 2201,-708 2201,-708 2201,-680 2201,-680 2201,-674 2207,-668 2213,-668 2213,-668 2385,-668 2385,-668 2391,-668 2397,-674 2397,-680 2397,-680 2397,-708 2397,-708 2397,-714 2391,-720 2385,-720"/>
<text text-anchor="start" x="2246.4945" y="-706" font-family="arial" font-weight="bold" font-size="10.00" fill="#000000">Some Non&#45;Culm as SIL</text>
<text text-anchor="start" x="2211.2035" y="-689" font-family="arial" font-size="10.00" fill="#000000">Some part of the non&#45;Culm strata is SIL</text>
<text text-anchor="start" x="2247.8755" y="-677" font-family="arial" font-size="10.00" fill="#000000"> in age #pri #chron&#45;hyp</text>
</g>
<!-- n21&#45;&gt;n32 -->
<g id="edge32" class="edge">
<title>n21&#45;&gt;n32</title>
<path fill="none" stroke="#ff0000" d="M2356.3554,-667.8813C2405.897,-645.3208 2478.2883,-612.3549 2535.2954,-586.3947"/>
<polygon fill="#ff0000" stroke="#ff0000" points="2537.0163,-589.4569 2544.6666,-582.1272 2534.1153,-583.0864 2537.0163,-589.4569"/>
</g>
<!-- n21&#45;&gt;n33 -->
<g id="edge36" class="edge">
<title>n21&#45;&gt;n33</title>
<path fill="none" stroke="#ff0000" d="M2315.6885,-667.817C2349.7819,-614.3683 2429.954,-488.8921 2498,-384 2511.7674,-362.7778 2527.476,-338.8282 2539.2212,-320.973"/>
<polygon fill="#ff0000" stroke="#ff0000" points="2542.3961,-322.5153 2544.9706,-312.238 2536.549,-318.6667 2542.3961,-322.5153"/>
</g>
<!-- n21&#45;&gt;n34 -->
<g id="edge57" class="edge">
<title>n21&#45;&gt;n34</title>
<path fill="none" stroke="#00ff00" d="M2325.6328,-667.7114C2346.7432,-646.1914 2376.3545,-614.4398 2399,-584 2444.8141,-522.4173 2452.6292,-504.1195 2488,-436 2499.6455,-413.5723 2492.3051,-401.0035 2511,-384 2538.4797,-359.0065 2626.8173,-332.326 2695.0468,-314.5617"/>
<polygon fill="#00ff00" stroke="#00ff00" points="2696.1482,-317.8923 2704.9579,-312.0067 2694.4007,-311.1139 2696.1482,-317.8923"/>
</g>
<!-- n22 -->
<g id="node29" class="node">
<title>n22</title>
<path fill="#ffffff" stroke="#ffe4b5" stroke-width="2" d="M2710,-436C2710,-436 2532,-436 2532,-436 2526,-436 2520,-430 2520,-424 2520,-424 2520,-396 2520,-396 2520,-390 2526,-384 2532,-384 2532,-384 2710,-384 2710,-384 2716,-384 2722,-390 2722,-396 2722,-396 2722,-424 2722,-424 2722,-430 2716,-436 2710,-436"/>
<text text-anchor="start" x="2564.8895" y="-422" font-family="arial" font-weight="bold" font-size="10.00" fill="#000000">Some Non&#45;Culm as CAM</text>
<text text-anchor="start" x="2529.5985" y="-405" font-family="arial" font-size="10.00" fill="#000000">Some part of the non&#45;Culm strata is CAM</text>
<text text-anchor="start" x="2569.8755" y="-393" font-family="arial" font-size="10.00" fill="#000000"> in age #pri #chron&#45;hyp</text>
</g>
<!-- n22&#45;&gt;n33 -->
<g id="edge58" class="edge">
<title>n22&#45;&gt;n33</title>
<path fill="none" stroke="#00ff00" d="M2606.6372,-383.9673C2596.2489,-365.1386 2582.2543,-339.7734 2571.7728,-320.7757"/>
<polygon fill="#00ff00" stroke="#00ff00" points="2574.8361,-319.0826 2566.9407,-312.0176 2568.707,-322.4642 2574.8361,-319.0826"/>
</g>
<!-- n22&#45;&gt;n34 -->
<g id="edge59" class="edge">
<title>n22&#45;&gt;n34</title>
<path fill="none" stroke="#00ff00" d="M2656.9071,-383.9673C2684.1763,-364.1972 2721.3855,-337.2205 2747.9305,-317.9754"/>
<polygon fill="#00ff00" stroke="#00ff00" points="2750.1064,-320.7209 2756.1482,-312.0176 2745.9976,-315.0537 2750.1064,-320.7209"/>
</g>
<!-- n32&#45;&gt;n22 -->
<g id="edge50" class="edge">
<title>n32&#45;&gt;n22</title>
<path fill="none" stroke="#00ff00" d="M2623.2039,-509.9116C2622.7713,-490.3005 2622.2377,-466.1097 2621.8039,-446.4438"/>
<polygon fill="#00ff00" stroke="#00ff00" points="2625.3006,-446.2521 2621.5808,-436.3317 2618.3023,-446.4065 2625.3006,-446.2521"/>
</g>
<!-- n33&#45;&gt;n4 -->
<g id="edge51" class="edge">
<title>n33&#45;&gt;n4</title>
<path fill="none" stroke="#00ff00" d="M2565.2813,-275.875C2572.9059,-259.1871 2584.4305,-233.9634 2593.8706,-213.3022"/>
<polygon fill="#00ff00" stroke="#00ff00" points="2597.0673,-214.7274 2598.0397,-204.1773 2590.7004,-211.8184 2597.0673,-214.7274"/>
</g>
<!-- n34&#45;&gt;n7 -->
<g id="edge52" class="edge">
<title>n34&#45;&gt;n7</title>
<path fill="none" stroke="#00ff00" d="M2775.2861,-275.8292C2765.9068,-247.6696 2745.4103,-192.517 2717,-152 2700.2513,-128.1141 2677.5326,-105.118 2657.3373,-86.8509"/>
<polygon fill="#00ff00" stroke="#00ff00" points="2659.5358,-84.1222 2649.7385,-80.0894 2654.8825,-89.3517 2659.5358,-84.1222"/>
</g>
<!-- n23 -->
<g id="node33" class="node">
<title>n23</title>
<path fill="#ffffff" stroke="#f4a460" stroke-width="2" d="M3471,-726C3471,-726 3299,-726 3299,-726 3293,-726 3287,-720 3287,-714 3287,-714 3287,-674 3287,-674 3287,-668 3293,-662 3299,-662 3299,-662 3471,-662 3471,-662 3477,-662 3483,-668 3483,-674 3483,-674 3483,-714 3483,-714 3483,-720 3477,-726 3471,-726"/>
<text text-anchor="start" x="3336.944" y="-712" font-family="arial" font-weight="bold" font-size="10.00" fill="#000000">Traversing Northward</text>
<text text-anchor="start" x="3305.5345" y="-695" font-family="arial" font-size="10.00" fill="#000000">The strata south of Exmoor become</text>
<text text-anchor="start" x="3302.476" y="-683" font-family="arial" font-size="10.00" fill="#000000"> progessively younger the furhter one</text>
<text text-anchor="start" x="3298.0405" y="-671" font-family="arial" font-size="10.00" fill="#000000"> traverses northward #GRE #chron&#45;hyp</text>
</g>
<!-- n24 -->
<g id="node34" class="node">
<title>n24</title>
<path fill="#ffffff" stroke="#f4a460" stroke-width="2" d="M3257,-732C3257,-732 3081,-732 3081,-732 3075,-732 3069,-726 3069,-720 3069,-720 3069,-668 3069,-668 3069,-662 3075,-656 3081,-656 3081,-656 3257,-656 3257,-656 3263,-656 3269,-662 3269,-668 3269,-668 3269,-720 3269,-720 3269,-726 3263,-732 3257,-732"/>
<text text-anchor="start" x="3092.8685" y="-718" font-family="arial" font-weight="bold" font-size="10.00" fill="#000000">Exmoor Youngest Devonian strata</text>
<text text-anchor="start" x="3089.812" y="-701" font-family="arial" font-size="10.00" fill="#000000">In Devon, among all the strata older</text>
<text text-anchor="start" x="3078.6885" y="-689" font-family="arial" font-size="10.00" fill="#000000"> than the New Red Sandstone, the strata</text>
<text text-anchor="start" x="3091.1995" y="-677" font-family="arial" font-size="10.00" fill="#000000"> of Exmoor are the youngest #GRE</text>
<text text-anchor="start" x="3142.6045" y="-665" font-family="arial" font-size="10.00" fill="#000000"> #chron&#45;hyp</text>
</g>
<!-- n25 -->
<g id="node35" class="node">
<title>n25</title>
<path fill="#ffffff" stroke="#ffc1c1" stroke-width="2" d="M3264.5,-578C3264.5,-578 3081.5,-578 3081.5,-578 3075.5,-578 3069.5,-572 3069.5,-566 3069.5,-566 3069.5,-526 3069.5,-526 3069.5,-520 3075.5,-514 3081.5,-514 3081.5,-514 3264.5,-514 3264.5,-514 3270.5,-514 3276.5,-520 3276.5,-526 3276.5,-526 3276.5,-566 3276.5,-566 3276.5,-572 3270.5,-578 3264.5,-578"/>
<text text-anchor="start" x="3102.0935" y="-564" font-family="arial" font-weight="bold" font-size="10.00" fill="#000000">Culm Youngest Devonian Strata</text>
<text text-anchor="start" x="3094.312" y="-547" font-family="arial" font-size="10.00" fill="#000000">In Devon, among all the strata older</text>
<text text-anchor="start" x="3084.028" y="-535" font-family="arial" font-size="10.00" fill="#000000"> than the New Red Sandstone, the Culm</text>
<text text-anchor="start" x="3079.5825" y="-523" font-family="arial" font-size="10.00" fill="#000000"> strata are the youngest #COA #chron&#45;hyp</text>
</g>
<!-- n24&#45;&gt;n25 -->
<g id="edge43" class="edge">
<title>n24&#45;&gt;n25</title>
<path fill="none" stroke="#ff0000" d="M3164.0419,-655.8863C3163.6497,-635.2775 3164.277,-609.7689 3165.6761,-588.5179"/>
<polygon fill="#ff0000" stroke="#ff0000" points="3169.1721,-588.6999 3166.4238,-578.4678 3162.1914,-588.1805 3169.1721,-588.6999"/>
</g>
<!-- n25&#45;&gt;n24 -->
<g id="edge42" class="edge">
<title>n25&#45;&gt;n24</title>
<path fill="none" stroke="#ff0000" d="M3177.8212,-578.4678C3178.4088,-598.1693 3177.9444,-623.6793 3176.6789,-645.7151"/>
<polygon fill="#ff0000" stroke="#ff0000" points="3173.1738,-645.6805 3176.0183,-655.8863 3180.1591,-646.1342 3173.1738,-645.6805"/>
</g>
</g>
</svg>
