
<!-- Generated by graphviz version 2.40.1 (20161225.0304)
 -->
<!-- Title: Argument Map Pages: 1 -->
<svg width="720pt" height="351pt"
 viewBox="0.00 0.00 720.00 351.01" xmlns="http://www.w3.org/2000/svg" xmlns:xlink="http://www.w3.org/1999/xlink">
<g id="graph0" class="graph" transform="scale(.29 .29) rotate(0) translate(4 1206.4)">
<title>Argument Map</title>
<g id="clust2" class="cluster">
<title>cluster_2</title>
<polygon fill="#eedfcc" stroke="#eedfcc" points="10.7866,-146 10.7866,-1182.4 716.7866,-1182.4 716.7866,-146 10.7866,-146"/>
<text text-anchor="start" x="299.4444" y="-1167.6" font-family="arial" font-size="12.00" fill="#000000">Dating of the Main Culm</text>
</g>
<g id="clust1" class="cluster">
<title>cluster_1</title>
<polygon fill="#b9d3ee" stroke="#b9d3ee" points="724.7866,-268 724.7866,-382.4 1154.7866,-382.4 1154.7866,-268 724.7866,-268"/>
<text text-anchor="start" x="856.0998" y="-367.6" font-family="arial" font-size="12.00" fill="#000000">Aporia I : Coal in Ancient Strata</text>
</g>
<g id="clust3" class="cluster">
<title>cluster_3</title>
<polygon fill="#eeb4b4" stroke="#eeb4b4" points="1162.7866,-8 1162.7866,-1188.4 1588.7866,-1188.4 1588.7866,-8 1162.7866,-8"/>
<text text-anchor="start" x="1296.7708" y="-1173.6" font-family="arial" font-size="12.00" fill="#000000">Dating of the Culm Limestone</text>
</g>
<g id="clust5" class="cluster">
<title>cluster_5</title>
<polygon fill="#8b6969" stroke="#8b6969" points="2036.7866,-938 2036.7866,-1194.4 2466.7866,-1194.4 2466.7866,-938 2036.7866,-938"/>
<text text-anchor="start" x="2181.7618" y="-1179.6" font-family="arial" font-size="12.00" fill="#000000">Youngest Devonian Strata</text>
</g>
<g id="clust4" class="cluster">
<title>cluster_4</title>
<polygon fill="#cd9b9b" stroke="#cd9b9b" points="1596.7866,-8 1596.7866,-1188.4 2028.7866,-1188.4 2028.7866,-8 1596.7866,-8"/>
<text text-anchor="start" x="1750.1118" y="-1173.6" font-family="arial" font-size="12.00" fill="#000000">Dating of the Non&#45;Culm</text>
</g>
<!-- n0 -->
<g id="node1" class="node">
<title>n0</title>
<path fill="#ffffff" stroke="#b8860b" stroke-width="2" d="M1134.7866,-352C1134.7866,-352 962.7866,-352 962.7866,-352 956.7866,-352 950.7866,-346 950.7866,-340 950.7866,-340 950.7866,-288 950.7866,-288 950.7866,-282 956.7866,-276 962.7866,-276 962.7866,-276 1134.7866,-276 1134.7866,-276 1140.7866,-276 1146.7866,-282 1146.7866,-288 1146.7866,-288 1146.7866,-340 1146.7866,-340 1146.7866,-346 1140.7866,-352 1134.7866,-352"/>
<text text-anchor="start" x="985.4386" y="-338" font-family="arial" font-weight="bold" font-size="10.00" fill="#000000">Instances of Pre&#45;ORS Strata</text>
<text text-anchor="start" x="967.1081" y="-321" font-family="arial" font-size="10.00" fill="#000000">In Munster, North America and North</text>
<text text-anchor="start" x="962.1011" y="-309" font-family="arial" font-size="10.00" fill="#000000"> Devon, some strata closely associated</text>
<text text-anchor="start" x="961.5491" y="-297" font-family="arial" font-size="10.00" fill="#000000"> with seams of coal are pre&#45;ORS in age</text>
<text text-anchor="start" x="1007.3886" y="-285" font-family="arial" font-size="10.00" fill="#000000"> #GRE #chron&#45;hyp</text>
</g>
<!-- n2 -->
<g id="node2" class="node">
<title>n2</title>
<path fill="#ffffff" stroke="#b8860b" stroke-width="2" d="M920.7866,-346C920.7866,-346 744.7866,-346 744.7866,-346 738.7866,-346 732.7866,-340 732.7866,-334 732.7866,-334 732.7866,-294 732.7866,-294 732.7866,-288 738.7866,-282 744.7866,-282 744.7866,-282 920.7866,-282 920.7866,-282 926.7866,-282 932.7866,-288 932.7866,-294 932.7866,-294 932.7866,-334 932.7866,-334 932.7866,-340 926.7866,-346 920.7866,-346"/>
<text text-anchor="start" x="752.4976" y="-332" font-family="arial" font-weight="bold" font-size="10.00" fill="#000000">Pre&#45;ORS Strata in northwest France</text>
<text text-anchor="start" x="744.4331" y="-315" font-family="arial" font-size="10.00" fill="#000000">The whole strata supporting coal seams</text>
<text text-anchor="start" x="742.7701" y="-303" font-family="arial" font-size="10.00" fill="#000000"> in northwest France are pre&#45;ORS in age</text>
<text text-anchor="start" x="791.3886" y="-291" font-family="arial" font-size="10.00" fill="#000000"> #GRE #chron&#45;hyp</text>
</g>
<!-- n1 -->
<g id="node3" class="node">
<title>n1</title>
<path fill="#ffffff" stroke="#b8860b" stroke-width="2" d="M633.7866,-1152C633.7866,-1152 461.7866,-1152 461.7866,-1152 455.7866,-1152 449.7866,-1146 449.7866,-1140 449.7866,-1140 449.7866,-1112 449.7866,-1112 449.7866,-1106 455.7866,-1100 461.7866,-1100 461.7866,-1100 633.7866,-1100 633.7866,-1100 639.7866,-1100 645.7866,-1106 645.7866,-1112 645.7866,-1112 645.7866,-1140 645.7866,-1140 645.7866,-1146 639.7866,-1152 633.7866,-1152"/>
<text text-anchor="start" x="504.7341" y="-1138" font-family="arial" font-weight="bold" font-size="10.00" fill="#000000">Main Culm as CAM</text>
<text text-anchor="start" x="462.7791" y="-1121" font-family="arial" font-size="10.00" fill="#000000">The whole of the main Culm is CAM in</text>
<text text-anchor="start" x="495.2711" y="-1109" font-family="arial" font-size="10.00" fill="#000000"> age #GRE #chron&#45;hyp </text>
</g>
<!-- n1&#45;&gt;n0 -->
<g id="edge1" class="edge">
<title>n1&#45;&gt;n0</title>
<path fill="none" stroke="#00ff00" d="M623.9254,-1099.9328C725.5242,-1059.7411 892.7866,-972.2722 892.7866,-832 892.7866,-832 892.7866,-832 892.7866,-574 892.7866,-489.0554 954.77,-407.8933 1000.5954,-359.4961"/>
<polygon fill="#00ff00" stroke="#00ff00" points="1003.3845,-361.6456 1007.7994,-352.0144 998.3421,-356.7902 1003.3845,-361.6456"/>
</g>
<!-- n3 -->
<g id="node4" class="node">
<title>n3</title>
<path fill="#ffffff" stroke="#f5f5dc" stroke-width="2" d="M636.7866,-1004C636.7866,-1004 458.7866,-1004 458.7866,-1004 452.7866,-1004 446.7866,-998 446.7866,-992 446.7866,-992 446.7866,-964 446.7866,-964 446.7866,-958 452.7866,-952 458.7866,-952 458.7866,-952 636.7866,-952 636.7866,-952 642.7866,-952 648.7866,-958 648.7866,-964 648.7866,-964 648.7866,-992 648.7866,-992 648.7866,-998 642.7866,-1004 636.7866,-1004"/>
<text text-anchor="start" x="493.6211" y="-990" font-family="arial" font-weight="bold" font-size="10.00" fill="#000000">Some Main Culm as CM</text>
<text text-anchor="start" x="456.3856" y="-973" font-family="arial" font-size="10.00" fill="#000000">Some part of the main Culm is CM in age</text>
<text text-anchor="start" x="511.6686" y="-961" font-family="arial" font-size="10.00" fill="#000000"> #pri #chron&#45;hyp</text>
</g>
<!-- n1&#45;&gt;n3 -->
<g id="edge6" class="edge">
<title>n1&#45;&gt;n3</title>
<path fill="none" stroke="#ff0000" d="M547.7866,-1099.8813C547.7866,-1076.1452 547.7866,-1040.8911 547.7866,-1014.3961"/>
<polygon fill="#ff0000" stroke="#ff0000" points="551.2867,-1014.3554 547.7866,-1004.3555 544.2867,-1014.3555 551.2867,-1014.3554"/>
</g>
<!-- n4 -->
<g id="node5" class="node">
<title>n4</title>
<path fill="#ffffff" stroke="#f5f5dc" stroke-width="2" d="M228.2866,-340C228.2866,-340 51.2866,-340 51.2866,-340 45.2866,-340 39.2866,-334 39.2866,-328 39.2866,-328 39.2866,-300 39.2866,-300 39.2866,-294 45.2866,-288 51.2866,-288 51.2866,-288 228.2866,-288 228.2866,-288 234.2866,-288 240.2866,-294 240.2866,-300 240.2866,-300 240.2866,-328 240.2866,-328 240.2866,-334 234.2866,-340 228.2866,-340"/>
<text text-anchor="start" x="86.9511" y="-326" font-family="arial" font-weight="bold" font-size="10.00" fill="#000000">Some Main Culm as ML</text>
<text text-anchor="start" x="49.7156" y="-309" font-family="arial" font-size="10.00" fill="#000000">Some part of the main Culm is ML in age</text>
<text text-anchor="start" x="104.1686" y="-297" font-family="arial" font-size="10.00" fill="#000000"> #pri #chron&#45;hyp</text>
</g>
<!-- n1&#45;&gt;n4 -->
<g id="edge7" class="edge">
<title>n1&#45;&gt;n4</title>
<path fill="none" stroke="#ff0000" d="M449.532,-1108.8015C350.8045,-1089.5996 207.8297,-1055.9201 168.7866,-1016 109.6139,-955.4982 119.7866,-916.6279 119.7866,-832 119.7866,-832 119.7866,-832 119.7866,-574 119.7866,-493.9062 129.3384,-400.3414 135.2399,-350.1765"/>
<polygon fill="#ff0000" stroke="#ff0000" points="138.7265,-350.496 136.4391,-340.1511 131.7761,-349.6646 138.7265,-350.496"/>
</g>
<!-- n5 -->
<g id="node6" class="node">
<title>n5</title>
<path fill="#ffffff" stroke="#f5f5dc" stroke-width="2" d="M656.7866,-340C656.7866,-340 484.7866,-340 484.7866,-340 478.7866,-340 472.7866,-334 472.7866,-328 472.7866,-328 472.7866,-300 472.7866,-300 472.7866,-294 478.7866,-288 484.7866,-288 484.7866,-288 656.7866,-288 656.7866,-288 662.7866,-288 668.7866,-294 668.7866,-300 668.7866,-300 668.7866,-328 668.7866,-328 668.7866,-334 662.7866,-340 656.7866,-340"/>
<text text-anchor="start" x="513.5616" y="-326" font-family="arial" font-weight="bold" font-size="10.00" fill="#000000">Some Main Culm as ORS</text>
<text text-anchor="start" x="486.0541" y="-309" font-family="arial" font-size="10.00" fill="#000000">Some part of the main Culm is ORS in</text>
<text text-anchor="start" x="524.9406" y="-297" font-family="arial" font-size="10.00" fill="#000000"> age #pri #chron&#45;hyp</text>
</g>
<!-- n1&#45;&gt;n5 -->
<g id="edge8" class="edge">
<title>n1&#45;&gt;n5</title>
<path fill="none" stroke="#ff0000" d="M585.5814,-1099.9791C610.9212,-1080.1878 642.3743,-1050.5268 657.7866,-1016 691.1701,-941.2143 667.7866,-913.8985 667.7866,-832 667.7866,-832 667.7866,-832 667.7866,-574 667.7866,-488.9095 621.6168,-397.4747 592.9833,-348.9507"/>
<polygon fill="#ff0000" stroke="#ff0000" points="595.8291,-346.8907 587.6827,-340.1166 589.8267,-350.4923 595.8291,-346.8907"/>
</g>
<!-- n6 -->
<g id="node7" class="node">
<title>n6</title>
<path fill="#ffffff" stroke="#f5f5dc" stroke-width="2" d="M442.7866,-340C442.7866,-340 270.7866,-340 270.7866,-340 264.7866,-340 258.7866,-334 258.7866,-328 258.7866,-328 258.7866,-300 258.7866,-300 258.7866,-294 264.7866,-288 270.7866,-288 270.7866,-288 442.7866,-288 442.7866,-288 448.7866,-288 454.7866,-294 454.7866,-300 454.7866,-300 454.7866,-328 454.7866,-328 454.7866,-334 448.7866,-340 442.7866,-340"/>
<text text-anchor="start" x="302.8916" y="-326" font-family="arial" font-weight="bold" font-size="10.00" fill="#000000">Some Main Culm as SIL</text>
<text text-anchor="start" x="275.3841" y="-309" font-family="arial" font-size="10.00" fill="#000000">Some part of the main Culm is SIL in</text>
<text text-anchor="start" x="310.9406" y="-297" font-family="arial" font-size="10.00" fill="#000000"> age #pri #chron&#45;hyp</text>
</g>
<!-- n1&#45;&gt;n6 -->
<g id="edge9" class="edge">
<title>n1&#45;&gt;n6</title>
<path fill="none" stroke="#ff0000" d="M449.4738,-1108.1594C356.9233,-1089.1825 227.9793,-1056.3588 196.7866,-1016 146.7176,-951.2181 187.7866,-913.8755 187.7866,-832 187.7866,-832 187.7866,-832 187.7866,-574 187.7866,-479.7156 266.8785,-392.7522 316.848,-347.2181"/>
<polygon fill="#ff0000" stroke="#ff0000" points="319.4892,-349.5511 324.6012,-340.2711 314.8179,-344.3377 319.4892,-349.5511"/>
</g>
<!-- n7 -->
<g id="node8" class="node">
<title>n7</title>
<path fill="#ffffff" stroke="#f5f5dc" stroke-width="2" d="M471.7866,-724C471.7866,-724 299.7866,-724 299.7866,-724 293.7866,-724 287.7866,-718 287.7866,-712 287.7866,-712 287.7866,-684 287.7866,-684 287.7866,-678 293.7866,-672 299.7866,-672 299.7866,-672 471.7866,-672 471.7866,-672 477.7866,-672 483.7866,-678 483.7866,-684 483.7866,-684 483.7866,-712 483.7866,-712 483.7866,-718 477.7866,-724 471.7866,-724"/>
<text text-anchor="start" x="328.2866" y="-710" font-family="arial" font-weight="bold" font-size="10.00" fill="#000000">Some Main Culm as CAM</text>
<text text-anchor="start" x="300.7791" y="-693" font-family="arial" font-size="10.00" fill="#000000">Some part of the main Culm is CAM in</text>
<text text-anchor="start" x="339.9406" y="-681" font-family="arial" font-size="10.00" fill="#000000"> age #pri #chron&#45;hyp</text>
</g>
<!-- n1&#45;&gt;n7 -->
<g id="edge10" class="edge">
<title>n1&#45;&gt;n7</title>
<path fill="none" stroke="#00ff00" d="M510.6935,-1099.9933C485.5129,-1080.1079 453.9588,-1050.3268 437.7866,-1016 395.9248,-927.1451 436.3741,-892.2493 416.7866,-796 412.5229,-775.0491 405.4599,-752.243 399.1518,-733.9074"/>
<polygon fill="#00ff00" stroke="#00ff00" points="402.3653,-732.4948 395.7475,-724.221 395.7613,-734.8158 402.3653,-732.4948"/>
</g>
<!-- n29 -->
<g id="node11" class="node">
<title>n29</title>
<path fill="#f5f5dc" stroke="#000000" d="M395.2866,-868C395.2866,-868 222.2866,-868 222.2866,-868 216.2866,-868 210.2866,-862 210.2866,-856 210.2866,-856 210.2866,-808 210.2866,-808 210.2866,-802 216.2866,-796 222.2866,-796 222.2866,-796 395.2866,-796 395.2866,-796 401.2866,-796 407.2866,-802 407.2866,-808 407.2866,-808 407.2866,-856 407.2866,-856 407.2866,-862 401.2866,-868 395.2866,-868"/>
<text text-anchor="start" x="223.4291" y="-854" font-family="arial" font-weight="bold" font-size="10.00" fill="#000000">Standard Sequence as Partition &#45; Main</text>
<text text-anchor="start" x="296.2341" y="-844" font-family="arial" font-weight="bold" font-size="10.00" fill="#000000"> Culm</text>
<text text-anchor="start" x="220.6701" y="-829" font-family="arial" font-size="10.00" fill="#000000">If some main Culm strata are neiter CM,</text>
<text text-anchor="start" x="224.2701" y="-817" font-family="arial" font-size="10.00" fill="#000000"> ML, OR nor SIL in age, then it is CAM</text>
<text text-anchor="start" x="258.1621" y="-805" font-family="arial" font-size="10.00" fill="#000000"> in age #pri #chron&#45;hyp</text>
</g>
<!-- n3&#45;&gt;n29 -->
<g id="edge2" class="edge">
<title>n3&#45;&gt;n29</title>
<path fill="none" stroke="#ff0000" d="M505.0582,-951.8981C469.3331,-930.0744 417.7332,-898.5532 376.4061,-873.3073"/>
<polygon fill="#ff0000" stroke="#ff0000" points="378.1109,-870.2474 367.7526,-868.0211 374.4618,-876.221 378.1109,-870.2474"/>
</g>
<!-- n30 -->
<g id="node12" class="node">
<title>n30</title>
<path fill="#b8860b" stroke="#000000" d="M549.7866,-190C549.7866,-190 377.7866,-190 377.7866,-190 371.7866,-190 365.7866,-184 365.7866,-178 365.7866,-178 365.7866,-166 365.7866,-166 365.7866,-160 371.7866,-154 377.7866,-154 377.7866,-154 549.7866,-154 549.7866,-154 555.7866,-154 561.7866,-160 561.7866,-166 561.7866,-166 561.7866,-178 561.7866,-178 561.7866,-184 555.7866,-190 549.7866,-190"/>
<text text-anchor="start" x="396.2806" y="-170" font-family="arial" font-weight="bold" font-size="10.00" fill="#000000">Dating the Main Culm &#45; GRE.1</text>
</g>
<!-- n3&#45;&gt;n30 -->
<g id="edge11" class="edge">
<title>n3&#45;&gt;n30</title>
<path fill="none" stroke="#ff0000" d="M557.3574,-951.8786C598.3711,-838.0029 753.8063,-385.4207 677.7866,-268 653.3041,-230.184 610.0155,-207.124 568.7476,-193.1287"/>
<polygon fill="#ff0000" stroke="#ff0000" points="569.7425,-189.7719 559.1505,-190.0205 567.5856,-196.4314 569.7425,-189.7719"/>
</g>
<!-- n31 -->
<g id="node13" class="node">
<title>n31</title>
<path fill="#ff8c00" stroke="#000000" d="M471.7866,-592C471.7866,-592 299.7866,-592 299.7866,-592 293.7866,-592 287.7866,-586 287.7866,-580 287.7866,-580 287.7866,-568 287.7866,-568 287.7866,-562 293.7866,-556 299.7866,-556 299.7866,-556 471.7866,-556 471.7866,-556 477.7866,-556 483.7866,-562 483.7866,-568 483.7866,-568 483.7866,-580 483.7866,-580 483.7866,-586 477.7866,-592 471.7866,-592"/>
<text text-anchor="start" x="312.7216" y="-572" font-family="arial" font-weight="bold" font-size="10.00" fill="#000000">Redating the Main Culm &#45; COA.1</text>
</g>
<!-- n3&#45;&gt;n31 -->
<g id="edge79" class="edge">
<title>n3&#45;&gt;n31</title>
<path fill="none" stroke="#00ff00" d="M545.238,-951.7C538.5987,-886.716 519.4185,-720.3401 492.7866,-672 476.0415,-641.6057 446.3341,-615.545 422.4638,-597.9551"/>
<polygon fill="#00ff00" stroke="#00ff00" points="424.46,-595.0798 414.2948,-592.0934 420.3791,-600.7671 424.46,-595.0798"/>
</g>
<!-- n4&#45;&gt;n29 -->
<g id="edge3" class="edge">
<title>n4&#45;&gt;n29</title>
<path fill="none" stroke="#ff0000" d="M146.1193,-340.2632C154.0261,-372.4475 168.2849,-428.5531 182.7866,-476 216.8859,-587.5666 229.4143,-614.1834 268.7866,-724 276.118,-744.4486 284.431,-766.9925 291.5719,-786.1703"/>
<polygon fill="#ff0000" stroke="#ff0000" points="288.3062,-787.4299 295.0806,-795.576 294.8647,-784.9833 288.3062,-787.4299"/>
</g>
<!-- n4&#45;&gt;n30 -->
<g id="edge12" class="edge">
<title>n4&#45;&gt;n30</title>
<path fill="none" stroke="#ff0000" d="M199.2132,-287.955C260.6473,-261.0302 355.5139,-219.4529 413.3949,-194.0853"/>
<polygon fill="#ff0000" stroke="#ff0000" points="414.9515,-197.2245 422.7056,-190.0047 412.1416,-190.8132 414.9515,-197.2245"/>
</g>
<!-- n4&#45;&gt;n31 -->
<g id="edge21" class="edge">
<title>n4&#45;&gt;n31</title>
<path fill="none" stroke="#ff0000" d="M164.5217,-340.1428C211.8024,-390.1142 314.4734,-498.6283 361.445,-548.2731"/>
<polygon fill="#ff0000" stroke="#ff0000" points="359.0732,-550.8588 368.4884,-555.7173 364.1579,-546.0479 359.0732,-550.8588"/>
</g>
<!-- n5&#45;&gt;n29 -->
<g id="edge4" class="edge">
<title>n5&#45;&gt;n29</title>
<path fill="none" stroke="#ff0000" d="M585.5579,-340.2637C601.6802,-372.2143 623.8225,-427.8554 612.7866,-476 585.4283,-595.352 575.8333,-634.0187 492.7866,-724 467.5274,-751.3684 433.7258,-773.8985 401.9885,-791.1691"/>
<polygon fill="#ff0000" stroke="#ff0000" points="400.2831,-788.1119 393.1005,-795.9004 403.5724,-794.2909 400.2831,-788.1119"/>
</g>
<!-- n5&#45;&gt;n30 -->
<g id="edge13" class="edge">
<title>n5&#45;&gt;n30</title>
<path fill="none" stroke="#ff0000" d="M551.1612,-287.955C531.9727,-262.49 502.9081,-223.9183 483.6415,-198.3495"/>
<polygon fill="#ff0000" stroke="#ff0000" points="486.3249,-196.0947 477.5116,-190.2145 480.7343,-200.3073 486.3249,-196.0947"/>
</g>
<!-- n5&#45;&gt;n31 -->
<g id="edge22" class="edge">
<title>n5&#45;&gt;n31</title>
<path fill="none" stroke="#ff0000" d="M530.8781,-340.0304C510.8562,-352.9569 486.1624,-368.7001 463.7866,-382.4 432.5955,-401.4973 411.7066,-392.701 392.7866,-424 380.8493,-443.7476 382.0742,-507.911 383.966,-545.6198"/>
<polygon fill="#ff0000" stroke="#ff0000" points="380.4899,-546.1525 384.5337,-555.9453 387.4793,-545.7682 380.4899,-546.1525"/>
</g>
<!-- n6&#45;&gt;n29 -->
<g id="edge5" class="edge">
<title>n6&#45;&gt;n29</title>
<path fill="none" stroke="#ff0000" d="M344.8935,-340.3138C326.3702,-382.8941 291.4422,-470.0127 278.7866,-548 266.2568,-625.2122 268.222,-646.4945 278.7866,-724 281.6066,-744.6886 287.3328,-767.007 293.0337,-785.9548"/>
<polygon fill="#ff0000" stroke="#ff0000" points="289.6968,-787.0114 295.997,-795.5295 296.3838,-784.9417 289.6968,-787.0114"/>
</g>
<!-- n6&#45;&gt;n30 -->
<g id="edge14" class="edge">
<title>n6&#45;&gt;n30</title>
<path fill="none" stroke="#ff0000" d="M376.4121,-287.955C395.6005,-262.49 424.6651,-223.9183 443.9317,-198.3495"/>
<polygon fill="#ff0000" stroke="#ff0000" points="446.8389,-200.3073 450.0616,-190.2145 441.2483,-196.0947 446.8389,-200.3073"/>
</g>
<!-- n6&#45;&gt;n31 -->
<g id="edge23" class="edge">
<title>n6&#45;&gt;n31</title>
<path fill="none" stroke="#ff0000" d="M359.7025,-340.1428C365.1845,-389.2916 376.9831,-495.0717 382.6383,-545.7741"/>
<polygon fill="#ff0000" stroke="#ff0000" points="379.1604,-546.1669 383.7474,-555.7173 386.1172,-545.3909 379.1604,-546.1669"/>
</g>
<!-- n7&#45;&gt;n30 -->
<g id="edge80" class="edge">
<title>n7&#45;&gt;n30</title>
<path fill="none" stroke="#00ff00" d="M333.7574,-671.8032C207.7693,-605.0179 -94.4571,-422.7295 29.7866,-268 69.8864,-218.0609 240.4479,-192.5223 355.4296,-180.7371"/>
<polygon fill="#00ff00" stroke="#00ff00" points="356.0833,-184.1892 365.6835,-179.7073 355.3837,-177.2242 356.0833,-184.1892"/>
</g>
<!-- n7&#45;&gt;n31 -->
<g id="edge24" class="edge">
<title>n7&#45;&gt;n31</title>
<path fill="none" stroke="#ff0000" d="M385.7866,-671.7028C385.7866,-651.3616 385.7866,-623.2427 385.7866,-602.3916"/>
<polygon fill="#ff0000" stroke="#ff0000" points="389.2867,-602.23 385.7866,-592.23 382.2867,-602.23 389.2867,-602.23"/>
</g>
<!-- n8 -->
<g id="node9" class="node">
<title>n8</title>
<path fill="#ffffff" stroke="#f5f5dc" stroke-width="2" d="M397.2866,-1010C397.2866,-1010 218.2866,-1010 218.2866,-1010 212.2866,-1010 206.2866,-1004 206.2866,-998 206.2866,-998 206.2866,-958 206.2866,-958 206.2866,-952 212.2866,-946 218.2866,-946 218.2866,-946 397.2866,-946 397.2866,-946 403.2866,-946 409.2866,-952 409.2866,-958 409.2866,-958 409.2866,-998 409.2866,-998 409.2866,-1004 403.2866,-1010 397.2866,-1010"/>
<text text-anchor="start" x="216.3436" y="-996" font-family="arial" font-weight="bold" font-size="10.00" fill="#000000">Main Culm as Post&#45;Primary and Pre&#45;NRS</text>
<text text-anchor="start" x="228.2736" y="-979" font-family="arial" font-size="10.00" fill="#000000">The main Culm strata are older than</text>
<text text-anchor="start" x="224.1031" y="-967" font-family="arial" font-size="10.00" fill="#000000"> Primary strata and younger than New</text>
<text text-anchor="start" x="222.4281" y="-955" font-family="arial" font-size="10.00" fill="#000000"> Red Sandstone strata #pri #chron&#45;hyp</text>
</g>
<!-- n8&#45;&gt;n29 -->
<g id="edge81" class="edge">
<title>n8&#45;&gt;n29</title>
<path fill="none" stroke="#00ff00" d="M308.0061,-945.9597C308.1421,-926.1045 308.319,-900.2721 308.47,-878.2232"/>
<polygon fill="#00ff00" stroke="#00ff00" points="311.9709,-878.0946 308.5395,-868.0709 304.971,-878.0466 311.9709,-878.0946"/>
</g>
<!-- n9 -->
<g id="node10" class="node">
<title>n9</title>
<path fill="#ffffff" stroke="#ff8c00" stroke-width="2" d="M591.7866,-476C591.7866,-476 413.7866,-476 413.7866,-476 407.7866,-476 401.7866,-470 401.7866,-464 401.7866,-464 401.7866,-436 401.7866,-436 401.7866,-430 407.7866,-424 413.7866,-424 413.7866,-424 591.7866,-424 591.7866,-424 597.7866,-424 603.7866,-430 603.7866,-436 603.7866,-436 603.7866,-464 603.7866,-464 603.7866,-470 597.7866,-476 591.7866,-476"/>
<text text-anchor="start" x="463.0686" y="-462" font-family="arial" font-weight="bold" font-size="10.00" fill="#000000">Main Culm as CM</text>
<text text-anchor="start" x="411.3856" y="-445" font-family="arial" font-size="10.00" fill="#000000">The whole of the main Culm is CM in age</text>
<text text-anchor="start" x="459.9991" y="-433" font-family="arial" font-size="10.00" fill="#000000"> #COA #chron&#45;hyp </text>
</g>
<!-- n9&#45;&gt;n0 -->
<g id="edge20" class="edge">
<title>n9&#45;&gt;n0</title>
<path fill="none" stroke="#ff0000" d="M604.2165,-439.2995C714.0882,-426.8411 881.7225,-405.0621 941.7866,-382.4 958.3407,-376.1541 975.0308,-367.1026 990.1449,-357.6183"/>
<polygon fill="#ff0000" stroke="#ff0000" points="992.3439,-360.3648 998.8488,-352.0019 988.5485,-354.483 992.3439,-360.3648"/>
</g>
<!-- n9&#45;&gt;n3 -->
<g id="edge15" class="edge">
<title>n9&#45;&gt;n3</title>
<path fill="none" stroke="#00ff00" d="M505.3812,-476.0263C511.084,-533.6445 524.9817,-676.3527 534.7866,-796 538.9193,-846.4305 542.9559,-904.7845 545.4074,-941.5406"/>
<polygon fill="#00ff00" stroke="#00ff00" points="541.9314,-942.0192 546.0856,-951.7656 548.916,-941.5559 541.9314,-942.0192"/>
</g>
<!-- n9&#45;&gt;n4 -->
<g id="edge16" class="edge">
<title>n9&#45;&gt;n4</title>
<path fill="none" stroke="#ff0000" d="M401.6646,-430.1943C354.4219,-419.1357 298.0774,-403.3142 249.7866,-382.4 227.137,-372.5907 203.6889,-358.6195 184.2904,-345.8582"/>
<polygon fill="#ff0000" stroke="#ff0000" points="186.219,-342.9375 175.9603,-340.2898 182.3289,-348.757 186.219,-342.9375"/>
</g>
<!-- n9&#45;&gt;n5 -->
<g id="edge17" class="edge">
<title>n9&#45;&gt;n5</title>
<path fill="none" stroke="#ff0000" d="M515.8977,-423.7778C526.4808,-402.6116 541.4725,-372.6282 553.1147,-349.3438"/>
<polygon fill="#ff0000" stroke="#ff0000" points="556.3741,-350.6512 557.7158,-340.1417 550.1131,-347.5207 556.3741,-350.6512"/>
</g>
<!-- n9&#45;&gt;n6 -->
<g id="edge18" class="edge">
<title>n9&#45;&gt;n6</title>
<path fill="none" stroke="#ff0000" d="M474.6363,-423.7778C451.2068,-401.9531 417.7137,-370.754 392.4176,-347.1905"/>
<polygon fill="#ff0000" stroke="#ff0000" points="394.5533,-344.3967 384.8505,-340.1417 389.7821,-349.5188 394.5533,-344.3967"/>
</g>
<!-- n9&#45;&gt;n7 -->
<g id="edge19" class="edge">
<title>n9&#45;&gt;n7</title>
<path fill="none" stroke="#ff0000" d="M506.6953,-476.146C510.118,-507.2953 511.946,-560.1255 492.7866,-600 480.1138,-626.3745 456.9114,-648.9913 435.3442,-665.8303"/>
<polygon fill="#ff0000" stroke="#ff0000" points="433.0519,-663.1756 427.1838,-671.9969 437.2722,-668.7603 433.0519,-663.1756"/>
</g>
<!-- n29&#45;&gt;n7 -->
<g id="edge70" class="edge">
<title>n29&#45;&gt;n7</title>
<path fill="none" stroke="#00ff00" d="M329.6239,-795.7377C340.8512,-776.1993 354.6369,-752.2085 365.7404,-732.8855"/>
<polygon fill="#00ff00" stroke="#00ff00" points="368.8455,-734.5067 370.7932,-724.0924 362.7762,-731.0191 368.8455,-734.5067"/>
</g>
<!-- n30&#45;&gt;n1 -->
<g id="edge71" class="edge">
<title>n30&#45;&gt;n1</title>
<path fill="none" stroke="#00ff00" d="M561.8084,-188.6376C609.0846,-201.9382 662.0752,-225.7041 692.7866,-268 740.4744,-333.6759 707.7866,-368.8369 707.7866,-450 707.7866,-832 707.7866,-832 707.7866,-832 707.7866,-915.4148 712.2184,-943.6022 670.7866,-1016 652.8752,-1047.2984 622.8397,-1074.4128 596.9337,-1093.8907"/>
<polygon fill="#00ff00" stroke="#00ff00" points="594.6794,-1091.2036 588.6883,-1099.9419 598.821,-1096.847 594.6794,-1091.2036"/>
</g>
<!-- n31&#45;&gt;n9 -->
<g id="edge72" class="edge">
<title>n31&#45;&gt;n9</title>
<path fill="none" stroke="#00ff00" d="M402.7994,-555.9693C420.6424,-537.0588 449.0942,-506.9047 471.0932,-483.5896"/>
<polygon fill="#00ff00" stroke="#00ff00" points="473.6702,-485.9584 477.9873,-476.283 468.5788,-481.1544 473.6702,-485.9584"/>
</g>
<!-- n10 -->
<g id="node14" class="node">
<title>n10</title>
<path fill="#ffffff" stroke="#f5f5dc" stroke-width="2" d="M1354.7866,-1152C1354.7866,-1152 1182.7866,-1152 1182.7866,-1152 1176.7866,-1152 1170.7866,-1146 1170.7866,-1140 1170.7866,-1140 1170.7866,-1112 1170.7866,-1112 1170.7866,-1106 1176.7866,-1100 1182.7866,-1100 1182.7866,-1100 1354.7866,-1100 1354.7866,-1100 1360.7866,-1100 1366.7866,-1106 1366.7866,-1112 1366.7866,-1112 1366.7866,-1140 1366.7866,-1140 1366.7866,-1146 1360.7866,-1152 1354.7866,-1152"/>
<text text-anchor="start" x="1228.7831" y="-1138" font-family="arial" font-weight="bold" font-size="10.00" fill="#000000">Some BCL as CM</text>
<text text-anchor="start" x="1181.2686" y="-1121" font-family="arial" font-size="10.00" fill="#000000">Some part of the black Culm Limestone</text>
<text text-anchor="start" x="1203.4996" y="-1109" font-family="arial" font-size="10.00" fill="#000000"> is CM in age #pri #chron&#45;hyp</text>
</g>
<!-- n32 -->
<g id="node22" class="node">
<title>n32</title>
<path fill="#f5f5dc" stroke="#000000" d="M1518.7866,-1016C1518.7866,-1016 1346.7866,-1016 1346.7866,-1016 1340.7866,-1016 1334.7866,-1010 1334.7866,-1004 1334.7866,-1004 1334.7866,-952 1334.7866,-952 1334.7866,-946 1340.7866,-940 1346.7866,-940 1346.7866,-940 1518.7866,-940 1518.7866,-940 1524.7866,-940 1530.7866,-946 1530.7866,-952 1530.7866,-952 1530.7866,-1004 1530.7866,-1004 1530.7866,-1010 1524.7866,-1016 1518.7866,-1016"/>
<text text-anchor="start" x="1348.0386" y="-1002" font-family="arial" font-weight="bold" font-size="10.00" fill="#000000">Standard Sequence as Partition &#45; BCL</text>
<text text-anchor="start" x="1366.3851" y="-985" font-family="arial" font-size="10.00" fill="#000000">If some part of the black Culm</text>
<text text-anchor="start" x="1348.3336" y="-973" font-family="arial" font-size="10.00" fill="#000000"> Limestone is neiter CM, ML, ORS nor</text>
<text text-anchor="start" x="1350.2656" y="-961" font-family="arial" font-size="10.00" fill="#000000"> SIL in age, then it is CAM in age #pri</text>
<text text-anchor="start" x="1406.3911" y="-949" font-family="arial" font-size="10.00" fill="#000000"> #chron&#45;hyp</text>
</g>
<!-- n10&#45;&gt;n32 -->
<g id="edge25" class="edge">
<title>n10&#45;&gt;n32</title>
<path fill="none" stroke="#ff0000" d="M1297.729,-1099.8813C1321.2638,-1078.6425 1355.0175,-1048.1819 1382.8928,-1023.0261"/>
<polygon fill="#ff0000" stroke="#ff0000" points="1385.5068,-1025.3817 1390.5858,-1016.0836 1380.817,-1020.1849 1385.5068,-1025.3817"/>
</g>
<!-- n33 -->
<g id="node23" class="node">
<title>n33</title>
<path fill="#b8860b" stroke="#000000" d="M1418.7866,-716C1418.7866,-716 1246.7866,-716 1246.7866,-716 1240.7866,-716 1234.7866,-710 1234.7866,-704 1234.7866,-704 1234.7866,-692 1234.7866,-692 1234.7866,-686 1240.7866,-680 1246.7866,-680 1246.7866,-680 1418.7866,-680 1418.7866,-680 1424.7866,-680 1430.7866,-686 1430.7866,-692 1430.7866,-692 1430.7866,-704 1430.7866,-704 1430.7866,-710 1424.7866,-716 1418.7866,-716"/>
<text text-anchor="start" x="1279.4426" y="-696" font-family="arial" font-weight="bold" font-size="10.00" fill="#000000">Dating the BCL &#45; GRE.1</text>
</g>
<!-- n10&#45;&gt;n33 -->
<g id="edge34" class="edge">
<title>n10&#45;&gt;n33</title>
<path fill="none" stroke="#ff0000" d="M1272.6938,-1099.871C1284.0209,-1024.1208 1316.8131,-804.823 1328.5478,-726.3468"/>
<polygon fill="#ff0000" stroke="#ff0000" points="1332.042,-726.6454 1330.0595,-716.2377 1325.119,-725.6101 1332.042,-726.6454"/>
</g>
<!-- n34 -->
<g id="node24" class="node">
<title>n34</title>
<path fill="#ff8c00" stroke="#000000" d="M1489.7866,-332C1489.7866,-332 1317.7866,-332 1317.7866,-332 1311.7866,-332 1305.7866,-326 1305.7866,-320 1305.7866,-320 1305.7866,-308 1305.7866,-308 1305.7866,-302 1311.7866,-296 1317.7866,-296 1317.7866,-296 1489.7866,-296 1489.7866,-296 1495.7866,-296 1501.7866,-302 1501.7866,-308 1501.7866,-308 1501.7866,-320 1501.7866,-320 1501.7866,-326 1495.7866,-332 1489.7866,-332"/>
<text text-anchor="start" x="1344.8836" y="-312" font-family="arial" font-weight="bold" font-size="10.00" fill="#000000">Redating the BCL &#45; COA.1</text>
</g>
<!-- n10&#45;&gt;n34 -->
<g id="edge82" class="edge">
<title>n10&#45;&gt;n34</title>
<path fill="none" stroke="#00ff00" d="M1338.1925,-1099.9274C1416.3769,-1070.247 1533.471,-1024.729 1539.7866,-1016 1617.4393,-908.6739 1525.4315,-544.2185 1469.7866,-424 1455.9735,-394.1573 1436.1379,-362.1455 1421.8226,-340.3948"/>
<polygon fill="#00ff00" stroke="#00ff00" points="1424.7041,-338.4073 1416.2501,-332.0214 1418.8766,-342.2855 1424.7041,-338.4073"/>
</g>
<!-- n11 -->
<g id="node15" class="node">
<title>n11</title>
<path fill="#ffffff" stroke="#f5f5dc" stroke-width="2" d="M1354.7866,-68C1354.7866,-68 1182.7866,-68 1182.7866,-68 1176.7866,-68 1170.7866,-62 1170.7866,-56 1170.7866,-56 1170.7866,-28 1170.7866,-28 1170.7866,-22 1176.7866,-16 1182.7866,-16 1182.7866,-16 1354.7866,-16 1354.7866,-16 1360.7866,-16 1366.7866,-22 1366.7866,-28 1366.7866,-28 1366.7866,-56 1366.7866,-56 1366.7866,-62 1360.7866,-68 1354.7866,-68"/>
<text text-anchor="start" x="1229.6131" y="-54" font-family="arial" font-weight="bold" font-size="10.00" fill="#000000">Some BCL as ML</text>
<text text-anchor="start" x="1181.2686" y="-37" font-family="arial" font-size="10.00" fill="#000000">Some part of the black Culm Limestone</text>
<text text-anchor="start" x="1204.3296" y="-25" font-family="arial" font-size="10.00" fill="#000000"> is ML in age #pri #chron&#45;hyp</text>
</g>
<!-- n11&#45;&gt;n32 -->
<g id="edge26" class="edge">
<title>n11&#45;&gt;n32</title>
<path fill="none" stroke="#ff0000" d="M1248.4485,-68.0444C1234.5521,-87.0254 1216.7372,-113.8863 1205.7866,-140 1175.3149,-212.6654 1171.7866,-235.2041 1171.7866,-314 1171.7866,-450 1171.7866,-450 1171.7866,-450 1171.7866,-647.3774 1196.3065,-715.6433 1321.7866,-868 1340.3689,-890.5624 1362.9699,-913.6164 1382.916,-932.7522"/>
<polygon fill="#ff0000" stroke="#ff0000" points="1380.7583,-935.5302 1390.4167,-939.8852 1385.5821,-930.4577 1380.7583,-935.5302"/>
</g>
<!-- n11&#45;&gt;n33 -->
<g id="edge35" class="edge">
<title>n11&#45;&gt;n33</title>
<path fill="none" stroke="#ff0000" d="M1253.7641,-68.0622C1243.5327,-87.2699 1230.795,-114.399 1224.7866,-140 1178.0696,-339.0532 1145.9332,-413.977 1230.7866,-600 1244.6741,-630.4453 1272.6769,-656.2456 1295.8336,-673.7198"/>
<polygon fill="#ff0000" stroke="#ff0000" points="1293.973,-676.6953 1304.1106,-679.7742 1298.1057,-671.0454 1293.973,-676.6953"/>
</g>
<!-- n11&#45;&gt;n34 -->
<g id="edge43" class="edge">
<title>n11&#45;&gt;n34</title>
<path fill="none" stroke="#ff0000" d="M1365.6987,-68.0526C1401.7038,-82.947 1438.8524,-105.7299 1459.7866,-140 1488.8388,-187.5595 1451.6774,-251.7517 1425.476,-287.3748"/>
<polygon fill="#ff0000" stroke="#ff0000" points="1422.3498,-285.7051 1419.0977,-295.7885 1427.9281,-289.9339 1422.3498,-285.7051"/>
</g>
<!-- n12 -->
<g id="node16" class="node">
<title>n12</title>
<path fill="#ffffff" stroke="#f5f5dc" stroke-width="2" d="M1568.7866,-68C1568.7866,-68 1396.7866,-68 1396.7866,-68 1390.7866,-68 1384.7866,-62 1384.7866,-56 1384.7866,-56 1384.7866,-28 1384.7866,-28 1384.7866,-22 1390.7866,-16 1396.7866,-16 1396.7866,-16 1568.7866,-16 1568.7866,-16 1574.7866,-16 1580.7866,-22 1580.7866,-28 1580.7866,-28 1580.7866,-56 1580.7866,-56 1580.7866,-62 1574.7866,-68 1568.7866,-68"/>
<text text-anchor="start" x="1439.7236" y="-54" font-family="arial" font-weight="bold" font-size="10.00" fill="#000000">Some BCL as ORS</text>
<text text-anchor="start" x="1395.2686" y="-37" font-family="arial" font-size="10.00" fill="#000000">Some part of the black Culm Limestone</text>
<text text-anchor="start" x="1414.4401" y="-25" font-family="arial" font-size="10.00" fill="#000000"> is ORS in age #pri #chron&#45;hyp</text>
</g>
<!-- n12&#45;&gt;n32 -->
<g id="edge27" class="edge">
<title>n12&#45;&gt;n32</title>
<path fill="none" stroke="#ff0000" d="M1497.1529,-68.1316C1521.8633,-115.599 1569.7866,-219.8 1569.7866,-314 1569.7866,-450 1569.7866,-450 1569.7866,-450 1569.7866,-635.9903 1627.6615,-699.098 1549.7866,-868 1538.1416,-893.2568 1517.8063,-915.5327 1497.3217,-933.3157"/>
<polygon fill="#ff0000" stroke="#ff0000" points="1494.8827,-930.7936 1489.4812,-939.9081 1499.3877,-936.1514 1494.8827,-930.7936"/>
</g>
<!-- n12&#45;&gt;n33 -->
<g id="edge36" class="edge">
<title>n12&#45;&gt;n33</title>
<path fill="none" stroke="#ff0000" d="M1495.1662,-68.3607C1503.5802,-87.7128 1514.0167,-114.8921 1518.7866,-140 1538.8953,-245.8484 1536.6916,-275.6944 1521.7866,-382.4 1507.8751,-481.9933 1516.1994,-516.7537 1459.7866,-600 1438.3582,-631.6211 1403.4362,-657.4897 1375.6304,-674.693"/>
<polygon fill="#ff0000" stroke="#ff0000" points="1373.6349,-671.8091 1366.8787,-679.9703 1377.2497,-677.8036 1373.6349,-671.8091"/>
</g>
<!-- n12&#45;&gt;n34 -->
<g id="edge44" class="edge">
<title>n12&#45;&gt;n34</title>
<path fill="none" stroke="#ff0000" d="M1485.3258,-68.2667C1487.5883,-100.9348 1488.5748,-158.0104 1473.7866,-204 1463.693,-235.3898 1442.4227,-266.6717 1425.9626,-287.8057"/>
<polygon fill="#ff0000" stroke="#ff0000" points="1423.1964,-285.6609 1419.6994,-295.662 1428.6699,-290.0245 1423.1964,-285.6609"/>
</g>
<!-- n13 -->
<g id="node17" class="node">
<title>n13</title>
<path fill="#ffffff" stroke="#f5f5dc" stroke-width="2" d="M1436.7866,-476C1436.7866,-476 1264.7866,-476 1264.7866,-476 1258.7866,-476 1252.7866,-470 1252.7866,-464 1252.7866,-464 1252.7866,-436 1252.7866,-436 1252.7866,-430 1258.7866,-424 1264.7866,-424 1264.7866,-424 1436.7866,-424 1436.7866,-424 1442.7866,-424 1448.7866,-430 1448.7866,-436 1448.7866,-436 1448.7866,-464 1448.7866,-464 1448.7866,-470 1442.7866,-476 1436.7866,-476"/>
<text text-anchor="start" x="1311.0536" y="-462" font-family="arial" font-weight="bold" font-size="10.00" fill="#000000">Some BCL as SIL</text>
<text text-anchor="start" x="1263.2686" y="-445" font-family="arial" font-size="10.00" fill="#000000">Some part of the black Culm Limestone</text>
<text text-anchor="start" x="1285.7701" y="-433" font-family="arial" font-size="10.00" fill="#000000"> is SIL in age #pri #chron&#45;hyp</text>
</g>
<!-- n13&#45;&gt;n32 -->
<g id="edge28" class="edge">
<title>n13&#45;&gt;n32</title>
<path fill="none" stroke="#ff0000" d="M1394.502,-476.0893C1418.6366,-493.1746 1446.3718,-517.8994 1459.7866,-548 1491.8335,-619.9078 1481.7767,-657.4075 1439.7866,-724 1409.8013,-771.5539 1361.8779,-746.203 1335.7866,-796 1320.9352,-824.3449 1324.4737,-838.0664 1335.7866,-868 1344.8837,-892.0706 1361.9153,-914.2794 1379.1991,-932.3452"/>
<polygon fill="#ff0000" stroke="#ff0000" points="1377.0789,-935.1787 1386.5995,-939.8273 1382.0558,-930.2562 1377.0789,-935.1787"/>
</g>
<!-- n13&#45;&gt;n33 -->
<g id="edge37" class="edge">
<title>n13&#45;&gt;n33</title>
<path fill="none" stroke="#ff0000" d="M1307.0712,-476.0893C1282.9366,-493.1746 1255.2014,-517.8994 1241.7866,-548 1232.3788,-569.1096 1233.3391,-578.4881 1241.7866,-600 1253.4506,-629.7028 1278.8202,-655.7595 1299.8167,-673.5236"/>
<polygon fill="#ff0000" stroke="#ff0000" points="1297.6602,-676.2814 1307.6121,-679.9161 1302.0989,-670.8687 1297.6602,-676.2814"/>
</g>
<!-- n13&#45;&gt;n34 -->
<g id="edge45" class="edge">
<title>n13&#45;&gt;n34</title>
<path fill="none" stroke="#ff0000" d="M1361.0055,-423.7778C1370.165,-400.2742 1383.5614,-365.8987 1392.9153,-341.8961"/>
<polygon fill="#ff0000" stroke="#ff0000" points="1396.2825,-342.8946 1396.6526,-332.3062 1389.7603,-340.3528 1396.2825,-342.8946"/>
</g>
<!-- n14 -->
<g id="node18" class="node">
<title>n14</title>
<path fill="#ffffff" stroke="#f5f5dc" stroke-width="2" d="M1528.7866,-858C1528.7866,-858 1356.7866,-858 1356.7866,-858 1350.7866,-858 1344.7866,-852 1344.7866,-846 1344.7866,-846 1344.7866,-818 1344.7866,-818 1344.7866,-812 1350.7866,-806 1356.7866,-806 1356.7866,-806 1528.7866,-806 1528.7866,-806 1534.7866,-806 1540.7866,-812 1540.7866,-818 1540.7866,-818 1540.7866,-846 1540.7866,-846 1540.7866,-852 1534.7866,-858 1528.7866,-858"/>
<text text-anchor="start" x="1399.4486" y="-844" font-family="arial" font-weight="bold" font-size="10.00" fill="#000000">Some BCL as CAM</text>
<text text-anchor="start" x="1355.2686" y="-827" font-family="arial" font-size="10.00" fill="#000000">Some part of the black Culm Limestone</text>
<text text-anchor="start" x="1374.1651" y="-815" font-family="arial" font-size="10.00" fill="#000000"> is CAM in age #pri #chron&#45;hyp</text>
</g>
<!-- n14&#45;&gt;n33 -->
<g id="edge83" class="edge">
<title>n14&#45;&gt;n33</title>
<path fill="none" stroke="#00ff00" d="M1421.3164,-805.8453C1401.9649,-782.2717 1373.6583,-747.7891 1354.295,-724.2011"/>
<polygon fill="#00ff00" stroke="#00ff00" points="1356.8985,-721.8564 1347.8483,-716.3479 1351.488,-726.2979 1356.8985,-721.8564"/>
</g>
<!-- n14&#45;&gt;n34 -->
<g id="edge46" class="edge">
<title>n14&#45;&gt;n34</title>
<path fill="none" stroke="#ff0000" d="M1452.8491,-805.8467C1460.5863,-784.2641 1470.6325,-752.6428 1474.7866,-724 1493.9547,-591.8355 1496.7799,-551.7278 1457.7866,-424 1448.7503,-394.4004 1432.5466,-362.9207 1420.2392,-341.2556"/>
<polygon fill="#ff0000" stroke="#ff0000" points="1423.106,-339.2216 1415.0672,-332.3202 1417.0476,-342.7283 1423.106,-339.2216"/>
</g>
<!-- n15 -->
<g id="node19" class="node">
<title>n15</title>
<path fill="#ffffff" stroke="#f5f5dc" stroke-width="2" d="M1568.7866,-1158C1568.7866,-1158 1396.7866,-1158 1396.7866,-1158 1390.7866,-1158 1384.7866,-1152 1384.7866,-1146 1384.7866,-1146 1384.7866,-1106 1384.7866,-1106 1384.7866,-1100 1390.7866,-1094 1396.7866,-1094 1396.7866,-1094 1568.7866,-1094 1568.7866,-1094 1574.7866,-1094 1580.7866,-1100 1580.7866,-1106 1580.7866,-1106 1580.7866,-1146 1580.7866,-1146 1580.7866,-1152 1574.7866,-1158 1568.7866,-1158"/>
<text text-anchor="start" x="1405.0056" y="-1144" font-family="arial" font-weight="bold" font-size="10.00" fill="#000000">BCL as Post&#45;Primary and Pre&#45;NRS</text>
<text text-anchor="start" x="1394.9936" y="-1127" font-family="arial" font-size="10.00" fill="#000000">The black Culm Limestone is older than</text>
<text text-anchor="start" x="1398.6031" y="-1115" font-family="arial" font-size="10.00" fill="#000000"> Primary strata and younger than New</text>
<text text-anchor="start" x="1396.9281" y="-1103" font-family="arial" font-size="10.00" fill="#000000"> Red Sandstone strata #pri #chron&#45;hyp</text>
</g>
<!-- n15&#45;&gt;n32 -->
<g id="edge84" class="edge">
<title>n15&#45;&gt;n32</title>
<path fill="none" stroke="#00ff00" d="M1471.9373,-1093.8862C1465.2072,-1073.965 1456.437,-1048.0051 1448.9037,-1025.7065"/>
<polygon fill="#00ff00" stroke="#00ff00" points="1452.1678,-1024.4328 1445.6512,-1016.0791 1445.536,-1026.6733 1452.1678,-1024.4328"/>
</g>
<!-- n16 -->
<g id="node20" class="node">
<title>n16</title>
<path fill="#ffffff" stroke="#b8860b" stroke-width="2" d="M1438.7866,-600C1438.7866,-600 1262.7866,-600 1262.7866,-600 1256.7866,-600 1250.7866,-594 1250.7866,-588 1250.7866,-588 1250.7866,-560 1250.7866,-560 1250.7866,-554 1256.7866,-548 1262.7866,-548 1262.7866,-548 1438.7866,-548 1438.7866,-548 1444.7866,-548 1450.7866,-554 1450.7866,-560 1450.7866,-560 1450.7866,-588 1450.7866,-588 1450.7866,-594 1444.7866,-600 1438.7866,-600"/>
<text text-anchor="start" x="1321.8961" y="-586" font-family="arial" font-weight="bold" font-size="10.00" fill="#000000">BCL as CAM</text>
<text text-anchor="start" x="1260.4891" y="-569" font-family="arial" font-size="10.00" fill="#000000">The black Culm Limestone is nothing but</text>
<text text-anchor="start" x="1269.9371" y="-557" font-family="arial" font-size="10.00" fill="#000000"> Cambrian in age #GRE #chron&#45;hyp </text>
</g>
<!-- n16&#45;&gt;n10 -->
<g id="edge29" class="edge">
<title>n16&#45;&gt;n10</title>
<path fill="none" stroke="#ff0000" d="M1298.2624,-600.1764C1271.2684,-616.7221 1240.9314,-640.8822 1225.7866,-672 1156.5938,-814.1698 1221.5258,-1010.8155 1253.427,-1090.4218"/>
<polygon fill="#ff0000" stroke="#ff0000" points="1250.3082,-1092.0429 1257.3259,-1099.9803 1256.7898,-1089.3991 1250.3082,-1092.0429"/>
</g>
<!-- n16&#45;&gt;n11 -->
<g id="edge30" class="edge">
<title>n16&#45;&gt;n11</title>
<path fill="none" stroke="#ff0000" d="M1308.4075,-547.8056C1284.744,-530.6063 1257.3636,-505.8004 1243.7866,-476 1212.8232,-408.0382 1225.0499,-213.7549 1236.7866,-140 1240.1722,-118.7244 1247.4484,-95.7906 1254.2082,-77.4613"/>
<polygon fill="#ff0000" stroke="#ff0000" points="1257.4997,-78.6524 1257.7773,-68.0612 1250.9555,-76.1676 1257.4997,-78.6524"/>
</g>
<!-- n16&#45;&gt;n12 -->
<g id="edge31" class="edge">
<title>n16&#45;&gt;n12</title>
<path fill="none" stroke="#ff0000" d="M1385.0418,-547.9133C1407.6213,-529.5285 1436.7889,-503.3878 1457.7866,-476 1473.6309,-455.334 1471.8756,-446.6148 1484.7866,-424 1495.5965,-405.0655 1504.7759,-403.3581 1510.7866,-382.4 1541.6018,-274.9536 1511.8535,-141.1745 1494.0252,-78.1017"/>
<polygon fill="#ff0000" stroke="#ff0000" points="1497.3137,-76.8744 1491.171,-68.242 1490.5898,-78.8209 1497.3137,-76.8744"/>
</g>
<!-- n16&#45;&gt;n13 -->
<g id="edge32" class="edge">
<title>n16&#45;&gt;n13</title>
<path fill="none" stroke="#ff0000" d="M1350.7866,-547.7028C1350.7866,-529.8654 1350.7866,-506.0471 1350.7866,-486.3935"/>
<polygon fill="#ff0000" stroke="#ff0000" points="1354.2867,-486.2593 1350.7866,-476.2593 1347.2867,-486.2593 1354.2867,-486.2593"/>
</g>
<!-- n16&#45;&gt;n14 -->
<g id="edge33" class="edge">
<title>n16&#45;&gt;n14</title>
<path fill="none" stroke="#00ff00" d="M1384.4153,-600.0555C1404.5677,-617.8682 1428.4197,-643.3772 1439.7866,-672 1455.7015,-712.0751 1453.4219,-762.3668 1449.1594,-795.7574"/>
<polygon fill="#00ff00" stroke="#00ff00" points="1445.65,-795.5809 1447.7264,-805.9703 1452.5821,-796.5537 1445.65,-795.5809"/>
</g>
<!-- n17 -->
<g id="node21" class="node">
<title>n17</title>
<path fill="#ffffff" stroke="#ff8c00" stroke-width="2" d="M1438.2866,-198C1438.2866,-198 1257.2866,-198 1257.2866,-198 1251.2866,-198 1245.2866,-192 1245.2866,-186 1245.2866,-186 1245.2866,-158 1245.2866,-158 1245.2866,-152 1251.2866,-146 1257.2866,-146 1257.2866,-146 1438.2866,-146 1438.2866,-146 1444.2866,-146 1450.2866,-152 1450.2866,-158 1450.2866,-158 1450.2866,-186 1450.2866,-186 1450.2866,-192 1444.2866,-198 1438.2866,-198"/>
<text text-anchor="start" x="1322.7306" y="-184" font-family="arial" font-weight="bold" font-size="10.00" fill="#000000">BCL as CM</text>
<text text-anchor="start" x="1257.9891" y="-167" font-family="arial" font-size="10.00" fill="#000000">The black Culm Limestone is nothing but</text>
<text text-anchor="start" x="1255.4886" y="-155" font-family="arial" font-size="10.00" fill="#000000"> Coal Mesaures in age #COA #chron&#45;hyp </text>
</g>
<!-- n17&#45;&gt;n10 -->
<g id="edge38" class="edge">
<title>n17&#45;&gt;n10</title>
<path fill="none" stroke="#00ff00" d="M1317.2461,-198.2857C1298.7042,-216.0388 1276.2747,-241.0797 1263.7866,-268 1150.7416,-511.6895 1179.0225,-599.6246 1190.7866,-868 1193.6783,-933.9677 1183.6017,-953.1297 1203.7866,-1016 1212.4491,-1042.9813 1228.6526,-1070.4266 1242.7137,-1091.1539"/>
<polygon fill="#00ff00" stroke="#00ff00" points="1240.0026,-1093.3862 1248.5804,-1099.6048 1245.7528,-1089.3943 1240.0026,-1093.3862"/>
</g>
<!-- n17&#45;&gt;n11 -->
<g id="edge39" class="edge">
<title>n17&#45;&gt;n11</title>
<path fill="none" stroke="#ff0000" d="M1331.7998,-145.6926C1319.7534,-125.8693 1303.1195,-98.4973 1289.9668,-76.8535"/>
<polygon fill="#ff0000" stroke="#ff0000" points="1292.9339,-74.9965 1284.7497,-68.2683 1286.9519,-78.6318 1292.9339,-74.9965"/>
</g>
<!-- n17&#45;&gt;n12 -->
<g id="edge40" class="edge">
<title>n17&#45;&gt;n12</title>
<path fill="none" stroke="#ff0000" d="M1375.1059,-145.6926C1396.149,-125.4288 1425.3836,-97.277 1448.0821,-75.4192"/>
<polygon fill="#ff0000" stroke="#ff0000" points="1450.7325,-77.7259 1455.508,-68.2683 1445.877,-72.6836 1450.7325,-77.7259"/>
</g>
<!-- n17&#45;&gt;n13 -->
<g id="edge41" class="edge">
<title>n17&#45;&gt;n13</title>
<path fill="none" stroke="#ff0000" d="M1323.2545,-198.19C1308.0625,-216.2792 1289.9454,-241.7312 1281.7866,-268 1266.7055,-316.5563 1262.0888,-335.5262 1281.7866,-382.4 1287.2237,-395.3385 1296.4798,-407.0418 1306.4769,-416.9349"/>
<polygon fill="#ff0000" stroke="#ff0000" points="1304.1447,-419.5458 1313.8433,-423.8105 1308.921,-414.4285 1304.1447,-419.5458"/>
</g>
<!-- n17&#45;&gt;n14 -->
<g id="edge42" class="edge">
<title>n17&#45;&gt;n14</title>
<path fill="none" stroke="#ff0000" d="M1329.2819,-198.2785C1317.4109,-216.8062 1303.0827,-242.7283 1296.7866,-268 1284.4951,-317.3363 1265.6544,-342.2012 1296.7866,-382.4 1342.0393,-440.8315 1409.101,-368.3965 1457.7866,-424 1550.8132,-530.2449 1489.9613,-718.2293 1458.3971,-796.3798"/>
<polygon fill="#ff0000" stroke="#ff0000" points="1455.0937,-795.2101 1454.5222,-805.7895 1461.5664,-797.8756 1455.0937,-795.2101"/>
</g>
<!-- n32&#45;&gt;n14 -->
<g id="edge73" class="edge">
<title>n32&#45;&gt;n14</title>
<path fill="none" stroke="#00ff00" d="M1435.414,-939.6402C1436.9258,-917.568 1438.8143,-889.9956 1440.3015,-868.2826"/>
<polygon fill="#00ff00" stroke="#00ff00" points="1443.8043,-868.3598 1440.9959,-858.144 1436.8207,-867.8814 1443.8043,-868.3598"/>
</g>
<!-- n33&#45;&gt;n16 -->
<g id="edge74" class="edge">
<title>n33&#45;&gt;n16</title>
<path fill="none" stroke="#00ff00" d="M1335.404,-679.9693C1338.0421,-661.7956 1342.1876,-633.2373 1345.5107,-610.3448"/>
<polygon fill="#00ff00" stroke="#00ff00" points="1348.9984,-610.6821 1346.9713,-600.283 1342.071,-609.6764 1348.9984,-610.6821"/>
</g>
<!-- n34&#45;&gt;n17 -->
<g id="edge75" class="edge">
<title>n34&#45;&gt;n17</title>
<path fill="none" stroke="#00ff00" d="M1396.5802,-295.7267C1387.8336,-273.5477 1372.8852,-235.6429 1361.8332,-207.6181"/>
<polygon fill="#00ff00" stroke="#00ff00" points="1365.0277,-206.178 1358.103,-198.1594 1358.5158,-208.7462 1365.0277,-206.178"/>
</g>
<!-- n18 -->
<g id="node25" class="node">
<title>n18</title>
<path fill="#ffffff" stroke="#f5f5dc" stroke-width="2" d="M1788.7866,-1152C1788.7866,-1152 1616.7866,-1152 1616.7866,-1152 1610.7866,-1152 1604.7866,-1146 1604.7866,-1140 1604.7866,-1140 1604.7866,-1112 1604.7866,-1112 1604.7866,-1106 1610.7866,-1100 1616.7866,-1100 1616.7866,-1100 1788.7866,-1100 1788.7866,-1100 1794.7866,-1100 1800.7866,-1106 1800.7866,-1112 1800.7866,-1112 1800.7866,-1140 1800.7866,-1140 1800.7866,-1146 1794.7866,-1152 1788.7866,-1152"/>
<text text-anchor="start" x="1650.0106" y="-1138" font-family="arial" font-weight="bold" font-size="10.00" fill="#000000">Some Non&#45;Culm as CM</text>
<text text-anchor="start" x="1614.7196" y="-1121" font-family="arial" font-size="10.00" fill="#000000">Some part of the non&#45;Culm strata is CM</text>
<text text-anchor="start" x="1651.6621" y="-1109" font-family="arial" font-size="10.00" fill="#000000"> in age #pri #chron&#45;hyp</text>
</g>
<!-- n35 -->
<g id="node33" class="node">
<title>n35</title>
<path fill="#f5f5dc" stroke="#000000" d="M1954.7866,-1014C1954.7866,-1014 1782.7866,-1014 1782.7866,-1014 1776.7866,-1014 1770.7866,-1008 1770.7866,-1002 1770.7866,-1002 1770.7866,-954 1770.7866,-954 1770.7866,-948 1776.7866,-942 1782.7866,-942 1782.7866,-942 1954.7866,-942 1954.7866,-942 1960.7866,-942 1966.7866,-948 1966.7866,-954 1966.7866,-954 1966.7866,-1002 1966.7866,-1002 1966.7866,-1008 1960.7866,-1014 1954.7866,-1014"/>
<text text-anchor="start" x="1795.1516" y="-1000" font-family="arial" font-weight="bold" font-size="10.00" fill="#000000">Standard Sequence as Partition &#45;</text>
<text text-anchor="start" x="1844.9011" y="-990" font-family="arial" font-weight="bold" font-size="10.00" fill="#000000"> Non&#45;Culm</text>
<text text-anchor="start" x="1786.5491" y="-975" font-family="arial" font-size="10.00" fill="#000000">If some part of the non&#45;Culm strata is</text>
<text text-anchor="start" x="1780.7111" y="-963" font-family="arial" font-size="10.00" fill="#000000"> neiter CM, ML, OR nor SIL in age, then</text>
<text text-anchor="start" x="1796.2766" y="-951" font-family="arial" font-size="10.00" fill="#000000"> it is CAM in age #pri #chron&#45;hyp</text>
</g>
<!-- n18&#45;&gt;n35 -->
<g id="edge47" class="edge">
<title>n18&#45;&gt;n35</title>
<path fill="none" stroke="#ff0000" d="M1732.082,-1099.8813C1756.6037,-1078.0185 1792.0856,-1046.384 1820.7555,-1020.823"/>
<polygon fill="#ff0000" stroke="#ff0000" points="1823.1305,-1023.3945 1828.2655,-1014.1272 1818.4722,-1018.1696 1823.1305,-1023.3945"/>
</g>
<!-- n36 -->
<g id="node34" class="node">
<title>n36</title>
<path fill="#b8860b" stroke="#000000" d="M1848.7866,-716C1848.7866,-716 1676.7866,-716 1676.7866,-716 1670.7866,-716 1664.7866,-710 1664.7866,-704 1664.7866,-704 1664.7866,-692 1664.7866,-692 1664.7866,-686 1670.7866,-680 1676.7866,-680 1676.7866,-680 1848.7866,-680 1848.7866,-680 1854.7866,-680 1860.7866,-686 1860.7866,-692 1860.7866,-692 1860.7866,-704 1860.7866,-704 1860.7866,-710 1854.7866,-716 1848.7866,-716"/>
<text text-anchor="start" x="1698.0596" y="-696" font-family="arial" font-weight="bold" font-size="10.00" fill="#000000">Dating the Non&#45;Culm&#45; GRE.1</text>
</g>
<!-- n18&#45;&gt;n36 -->
<g id="edge56" class="edge">
<title>n18&#45;&gt;n36</title>
<path fill="none" stroke="#ff0000" d="M1706.4496,-1099.871C1717.0687,-1024.1208 1747.8114,-804.823 1758.8128,-726.3468"/>
<polygon fill="#ff0000" stroke="#ff0000" points="1762.3076,-726.6268 1760.2299,-716.2377 1755.3754,-725.6549 1762.3076,-726.6268"/>
</g>
<!-- n37 -->
<g id="node35" class="node">
<title>n37</title>
<path fill="#ff8c00" stroke="#000000" d="M1938.2866,-332C1938.2866,-332 1747.2866,-332 1747.2866,-332 1741.2866,-332 1735.2866,-326 1735.2866,-320 1735.2866,-320 1735.2866,-308 1735.2866,-308 1735.2866,-302 1741.2866,-296 1747.2866,-296 1747.2866,-296 1938.2866,-296 1938.2866,-296 1944.2866,-296 1950.2866,-302 1950.2866,-308 1950.2866,-308 1950.2866,-320 1950.2866,-320 1950.2866,-326 1944.2866,-332 1938.2866,-332"/>
<text text-anchor="start" x="1745.4951" y="-312" font-family="arial" font-weight="bold" font-size="10.00" fill="#000000">Extending the Non&#45;Culm Upwards &#45; COA.2a</text>
</g>
<!-- n18&#45;&gt;n37 -->
<g id="edge67" class="edge">
<title>n18&#45;&gt;n37</title>
<path fill="none" stroke="#ff0000" d="M1772.6632,-1099.9141C1851.384,-1070.2207 1969.3025,-1024.69 1975.7866,-1016 2137.8217,-798.8419 1926.5175,-441.1864 1861.0082,-340.8883"/>
<polygon fill="#ff0000" stroke="#ff0000" points="1863.7436,-338.6788 1855.315,-332.2594 1857.9008,-342.5339 1863.7436,-338.6788"/>
</g>
<!-- n19 -->
<g id="node26" class="node">
<title>n19</title>
<path fill="#ffffff" stroke="#f5f5dc" stroke-width="2" d="M1788.7866,-68C1788.7866,-68 1616.7866,-68 1616.7866,-68 1610.7866,-68 1604.7866,-62 1604.7866,-56 1604.7866,-56 1604.7866,-28 1604.7866,-28 1604.7866,-22 1610.7866,-16 1616.7866,-16 1616.7866,-16 1788.7866,-16 1788.7866,-16 1794.7866,-16 1800.7866,-22 1800.7866,-28 1800.7866,-28 1800.7866,-56 1800.7866,-56 1800.7866,-62 1794.7866,-68 1788.7866,-68"/>
<text text-anchor="start" x="1650.8406" y="-54" font-family="arial" font-weight="bold" font-size="10.00" fill="#000000">Some Non&#45;Culm as ML</text>
<text text-anchor="start" x="1615.5496" y="-37" font-family="arial" font-size="10.00" fill="#000000">Some part of the non&#45;Culm strata is ML</text>
<text text-anchor="start" x="1651.6621" y="-25" font-family="arial" font-size="10.00" fill="#000000"> in age #pri #chron&#45;hyp</text>
</g>
<!-- n19&#45;&gt;n35 -->
<g id="edge48" class="edge">
<title>n19&#45;&gt;n35</title>
<path fill="none" stroke="#ff0000" d="M1681.5155,-68.2817C1667.3027,-87.1601 1649.3416,-113.8005 1638.7866,-140 1609.3733,-213.0097 1605.7866,-235.2881 1605.7866,-314 1605.7866,-450 1605.7866,-450 1605.7866,-450 1605.7866,-647.3774 1628.1925,-717.4093 1755.7866,-868 1775.569,-891.3478 1799.6183,-915.2772 1820.4373,-934.8295"/>
<polygon fill="#ff0000" stroke="#ff0000" points="1818.2448,-937.5703 1827.9475,-941.8257 1823.0162,-932.4484 1818.2448,-937.5703"/>
</g>
<!-- n19&#45;&gt;n36 -->
<g id="edge57" class="edge">
<title>n19&#45;&gt;n36</title>
<path fill="none" stroke="#ff0000" d="M1685.7395,-68.2254C1674.3523,-87.2917 1660.3092,-114.1802 1653.7866,-140 1628.7425,-239.137 1622.4296,-506.9342 1664.7866,-600 1678.4573,-630.0369 1705.6099,-656.0187 1727.8739,-673.6687"/>
<polygon fill="#ff0000" stroke="#ff0000" points="1725.7622,-676.46 1735.8213,-679.7864 1730.0321,-670.9131 1725.7622,-676.46"/>
</g>
<!-- n19&#45;&gt;n37 -->
<g id="edge66" class="edge">
<title>n19&#45;&gt;n37</title>
<path fill="none" stroke="#ff0000" d="M1789.2971,-68.1725C1823.7606,-83.3198 1859.9011,-106.2598 1879.7866,-140 1907.2807,-186.6498 1879.7581,-251.0186 1859.6829,-286.9531"/>
<polygon fill="#ff0000" stroke="#ff0000" points="1856.5011,-285.4637 1854.524,-295.8724 1862.5605,-288.9685 1856.5011,-285.4637"/>
</g>
<!-- n20 -->
<g id="node27" class="node">
<title>n20</title>
<path fill="#ffffff" stroke="#f5f5dc" stroke-width="2" d="M2008.7866,-68C2008.7866,-68 1830.7866,-68 1830.7866,-68 1824.7866,-68 1818.7866,-62 1818.7866,-56 1818.7866,-56 1818.7866,-28 1818.7866,-28 1818.7866,-22 1824.7866,-16 1830.7866,-16 1830.7866,-16 2008.7866,-16 2008.7866,-16 2014.7866,-16 2020.7866,-22 2020.7866,-28 2020.7866,-28 2020.7866,-56 2020.7866,-56 2020.7866,-62 2014.7866,-68 2008.7866,-68"/>
<text text-anchor="start" x="1863.9511" y="-54" font-family="arial" font-weight="bold" font-size="10.00" fill="#000000">Some Non&#45;Culm as ORS</text>
<text text-anchor="start" x="1828.6601" y="-37" font-family="arial" font-size="10.00" fill="#000000">Some part of the non&#45;Culm strata is ORS</text>
<text text-anchor="start" x="1868.6621" y="-25" font-family="arial" font-size="10.00" fill="#000000"> in age #pri #chron&#45;hyp</text>
</g>
<!-- n20&#45;&gt;n35 -->
<g id="edge49" class="edge">
<title>n20&#45;&gt;n35</title>
<path fill="none" stroke="#ff0000" d="M1940.593,-68.2984C1954.4535,-87.1845 1971.8807,-113.8271 1981.7866,-140 2009.5128,-213.2568 2009.7866,-235.6718 2009.7866,-314 2009.7866,-450 2009.7866,-450 2009.7866,-450 2009.7866,-635.9903 2069.0738,-699.7563 1989.7866,-868 1977.337,-894.4175 1955.3554,-917.3655 1933.5125,-935.3669"/>
<polygon fill="#ff0000" stroke="#ff0000" points="1931.1204,-932.798 1925.4892,-941.7724 1935.4879,-938.2684 1931.1204,-932.798"/>
</g>
<!-- n20&#45;&gt;n36 -->
<g id="edge58" class="edge">
<title>n20&#45;&gt;n36</title>
<path fill="none" stroke="#ff0000" d="M1937.1821,-68.1765C1948.8021,-87.2197 1963.1318,-114.1008 1969.7866,-140 1996.6014,-244.358 1993.522,-276.4748 1973.7866,-382.4 1954.7987,-484.3131 1951.7785,-516.9108 1889.7866,-600 1866.7192,-630.9178 1831.4354,-657.0676 1803.9073,-674.5581"/>
<polygon fill="#ff0000" stroke="#ff0000" points="1801.9133,-671.6764 1795.2674,-679.9276 1805.6083,-677.6218 1801.9133,-671.6764"/>
</g>
<!-- n20&#45;&gt;n37 -->
<g id="edge65" class="edge">
<title>n20&#45;&gt;n37</title>
<path fill="none" stroke="#ff0000" d="M1918.0872,-68.0464C1915.4464,-100.4899 1909.0861,-157.3365 1894.7866,-204 1885.7294,-233.5564 1870.0343,-265.2675 1858.2503,-287.0111"/>
<polygon fill="#ff0000" stroke="#ff0000" points="1855.0741,-285.5231 1853.31,-295.97 1861.2038,-288.9033 1855.0741,-285.5231"/>
</g>
<!-- n21 -->
<g id="node28" class="node">
<title>n21</title>
<path fill="#ffffff" stroke="#f5f5dc" stroke-width="2" d="M1868.7866,-476C1868.7866,-476 1696.7866,-476 1696.7866,-476 1690.7866,-476 1684.7866,-470 1684.7866,-464 1684.7866,-464 1684.7866,-436 1684.7866,-436 1684.7866,-430 1690.7866,-424 1696.7866,-424 1696.7866,-424 1868.7866,-424 1868.7866,-424 1874.7866,-424 1880.7866,-430 1880.7866,-436 1880.7866,-436 1880.7866,-464 1880.7866,-464 1880.7866,-470 1874.7866,-476 1868.7866,-476"/>
<text text-anchor="start" x="1730.2811" y="-462" font-family="arial" font-weight="bold" font-size="10.00" fill="#000000">Some Non&#45;Culm as SIL</text>
<text text-anchor="start" x="1694.9901" y="-445" font-family="arial" font-size="10.00" fill="#000000">Some part of the non&#45;Culm strata is SIL</text>
<text text-anchor="start" x="1731.6621" y="-433" font-family="arial" font-size="10.00" fill="#000000"> in age #pri #chron&#45;hyp</text>
</g>
<!-- n21&#45;&gt;n35 -->
<g id="edge50" class="edge">
<title>n21&#45;&gt;n35</title>
<path fill="none" stroke="#ff0000" d="M1825.4452,-476.0692C1849.2077,-493.2242 1876.5941,-518.0274 1889.7866,-548 1921.5018,-620.0547 1911.1596,-657.0224 1869.7866,-724 1841.0052,-770.5933 1794.7546,-747.2567 1769.7866,-796 1755.1977,-824.4809 1758.3222,-838.1241 1769.7866,-868 1779.4973,-893.3056 1798.0168,-916.435 1816.4361,-934.8843"/>
<polygon fill="#ff0000" stroke="#ff0000" points="1814.1315,-937.525 1823.745,-941.9782 1819.0068,-932.5019 1814.1315,-937.525"/>
</g>
<!-- n21&#45;&gt;n36 -->
<g id="edge59" class="edge">
<title>n21&#45;&gt;n36</title>
<path fill="none" stroke="#ff0000" d="M1740.128,-476.0692C1716.3655,-493.2242 1688.9792,-518.0274 1675.7866,-548 1666.4761,-569.1527 1667.5802,-578.3949 1675.7866,-600 1686.8409,-629.1028 1710.9343,-655.0931 1730.9693,-672.9834"/>
<polygon fill="#ff0000" stroke="#ff0000" points="1728.8414,-675.7705 1738.6933,-679.6679 1733.4222,-670.4774 1728.8414,-675.7705"/>
</g>
<!-- n21&#45;&gt;n37 -->
<g id="edge85" class="edge">
<title>n21&#45;&gt;n37</title>
<path fill="none" stroke="#00ff00" d="M1794.3552,-423.7778C1804.7707,-400.1693 1820.0256,-365.5915 1830.6211,-341.5752"/>
<polygon fill="#00ff00" stroke="#00ff00" points="1833.8761,-342.8682 1834.7103,-332.3062 1827.4716,-340.0427 1833.8761,-342.8682"/>
</g>
<!-- n22 -->
<g id="node29" class="node">
<title>n22</title>
<path fill="#ffffff" stroke="#f5f5dc" stroke-width="2" d="M1968.7866,-858C1968.7866,-858 1790.7866,-858 1790.7866,-858 1784.7866,-858 1778.7866,-852 1778.7866,-846 1778.7866,-846 1778.7866,-818 1778.7866,-818 1778.7866,-812 1784.7866,-806 1790.7866,-806 1790.7866,-806 1968.7866,-806 1968.7866,-806 1974.7866,-806 1980.7866,-812 1980.7866,-818 1980.7866,-818 1980.7866,-846 1980.7866,-846 1980.7866,-852 1974.7866,-858 1968.7866,-858"/>
<text text-anchor="start" x="1823.6761" y="-844" font-family="arial" font-weight="bold" font-size="10.00" fill="#000000">Some Non&#45;Culm as CAM</text>
<text text-anchor="start" x="1788.3851" y="-827" font-family="arial" font-size="10.00" fill="#000000">Some part of the non&#45;Culm strata is CAM</text>
<text text-anchor="start" x="1828.6621" y="-815" font-family="arial" font-size="10.00" fill="#000000"> in age #pri #chron&#45;hyp</text>
</g>
<!-- n22&#45;&gt;n36 -->
<g id="edge86" class="edge">
<title>n22&#45;&gt;n36</title>
<path fill="none" stroke="#00ff00" d="M1856.9501,-805.8453C1836.2772,-782.1688 1805.996,-747.4877 1785.3945,-723.8927"/>
<polygon fill="#00ff00" stroke="#00ff00" points="1788.0203,-721.5786 1778.8068,-716.3479 1782.7474,-726.1826 1788.0203,-721.5786"/>
</g>
<!-- n22&#45;&gt;n37 -->
<g id="edge87" class="edge">
<title>n22&#45;&gt;n37</title>
<path fill="none" stroke="#00ff00" d="M1887.6547,-805.6635C1893.7033,-783.9746 1901.5539,-752.2997 1904.7866,-724 1919.9378,-591.3627 1924.3762,-552.941 1889.7866,-424 1881.9121,-394.6461 1867.6815,-362.9059 1856.9351,-341.1003"/>
<polygon fill="#00ff00" stroke="#00ff00" points="1860.0383,-339.4805 1852.425,-332.1124 1853.7818,-342.62 1860.0383,-339.4805"/>
</g>
<!-- n23 -->
<g id="node30" class="node">
<title>n23</title>
<path fill="#ffffff" stroke="#f5f5dc" stroke-width="2" d="M2008.2866,-1158C2008.2866,-1158 1831.2866,-1158 1831.2866,-1158 1825.2866,-1158 1819.2866,-1152 1819.2866,-1146 1819.2866,-1146 1819.2866,-1106 1819.2866,-1106 1819.2866,-1100 1825.2866,-1094 1831.2866,-1094 1831.2866,-1094 2008.2866,-1094 2008.2866,-1094 2014.2866,-1094 2020.2866,-1100 2020.2866,-1106 2020.2866,-1106 2020.2866,-1146 2020.2866,-1146 2020.2866,-1152 2014.2866,-1158 2008.2866,-1158"/>
<text text-anchor="start" x="1829.7331" y="-1144" font-family="arial" font-weight="bold" font-size="10.00" fill="#000000">Non&#45;Culm as Post&#45;Primary and Pre&#45;NRS</text>
<text text-anchor="start" x="1842.4931" y="-1127" font-family="arial" font-size="10.00" fill="#000000">The non&#45;Culm strata are older than</text>
<text text-anchor="start" x="1836.1031" y="-1115" font-family="arial" font-size="10.00" fill="#000000"> Primary strata and younger than New</text>
<text text-anchor="start" x="1834.4281" y="-1103" font-family="arial" font-size="10.00" fill="#000000"> Red Sandstone strata #pri #chron&#45;hyp</text>
</g>
<!-- n23&#45;&gt;n35 -->
<g id="edge88" class="edge">
<title>n23&#45;&gt;n35</title>
<path fill="none" stroke="#00ff00" d="M1908.7204,-1093.8862C1901.6454,-1073.3549 1892.3601,-1046.4095 1884.5237,-1023.6685"/>
<polygon fill="#00ff00" stroke="#00ff00" points="1887.8317,-1022.5249 1881.2646,-1014.2108 1881.2136,-1024.8055 1887.8317,-1022.5249"/>
</g>
<!-- n24 -->
<g id="node31" class="node">
<title>n24</title>
<path fill="#ffffff" stroke="#b8860b" stroke-width="2" d="M1868.7866,-600C1868.7866,-600 1696.7866,-600 1696.7866,-600 1690.7866,-600 1684.7866,-594 1684.7866,-588 1684.7866,-588 1684.7866,-560 1684.7866,-560 1684.7866,-554 1690.7866,-548 1696.7866,-548 1696.7866,-548 1868.7866,-548 1868.7866,-548 1874.7866,-548 1880.7866,-554 1880.7866,-560 1880.7866,-560 1880.7866,-588 1880.7866,-588 1880.7866,-594 1874.7866,-600 1868.7866,-600"/>
<text text-anchor="start" x="1741.1236" y="-586" font-family="arial" font-weight="bold" font-size="10.00" fill="#000000">Non&#45;Culm as CAM</text>
<text text-anchor="start" x="1706.1026" y="-569" font-family="arial" font-size="10.00" fill="#000000">The non&#45;Culm strata is nothing but</text>
<text text-anchor="start" x="1701.9371" y="-557" font-family="arial" font-size="10.00" fill="#000000"> Cambrian in age #GRE #chron&#45;hyp </text>
</g>
<!-- n24&#45;&gt;n18 -->
<g id="edge51" class="edge">
<title>n24&#45;&gt;n18</title>
<path fill="none" stroke="#ff0000" d="M1729.1167,-600.1788C1701.7803,-616.6596 1671.1413,-640.7569 1655.7866,-672 1585.9872,-814.0254 1653.6934,-1010.752 1686.8439,-1090.4008"/>
<polygon fill="#ff0000" stroke="#ff0000" points="1683.7715,-1092.1214 1690.8943,-1099.9646 1690.2173,-1089.3914 1683.7715,-1092.1214"/>
</g>
<!-- n24&#45;&gt;n19 -->
<g id="edge52" class="edge">
<title>n24&#45;&gt;n19</title>
<path fill="none" stroke="#ff0000" d="M1740.799,-547.9493C1717.1162,-530.723 1689.5805,-505.8394 1675.7866,-476 1644.4422,-408.1946 1652.3762,-213.4861 1665.7866,-140 1669.6887,-118.6172 1678.0122,-95.8394 1685.778,-77.63"/>
<polygon fill="#ff0000" stroke="#ff0000" points="1689.0637,-78.8525 1689.8822,-68.2893 1682.6551,-76.0366 1689.0637,-78.8525"/>
</g>
<!-- n24&#45;&gt;n20 -->
<g id="edge53" class="edge">
<title>n24&#45;&gt;n20</title>
<path fill="none" stroke="#ff0000" d="M1817.8146,-547.7187C1840.4411,-529.4444 1869.3628,-503.5053 1889.7866,-476 1905.0741,-455.4118 1899.5468,-444.6235 1914.7866,-424 1930.9733,-402.095 1948.8719,-407.3541 1959.7866,-382.4 2005.0554,-278.9028 1961.1861,-141.7095 1935.4893,-77.7135"/>
<polygon fill="#ff0000" stroke="#ff0000" points="1938.5731,-76.009 1931.5376,-68.0874 1932.0975,-78.6674 1938.5731,-76.009"/>
</g>
<!-- n24&#45;&gt;n21 -->
<g id="edge54" class="edge">
<title>n24&#45;&gt;n21</title>
<path fill="none" stroke="#ff0000" d="M1782.7866,-547.7028C1782.7866,-529.8654 1782.7866,-506.0471 1782.7866,-486.3935"/>
<polygon fill="#ff0000" stroke="#ff0000" points="1786.2867,-486.2593 1782.7866,-476.2593 1779.2867,-486.2593 1786.2867,-486.2593"/>
</g>
<!-- n24&#45;&gt;n22 -->
<g id="edge55" class="edge">
<title>n24&#45;&gt;n22</title>
<path fill="none" stroke="#00ff00" d="M1815.2523,-600.379C1834.7894,-618.3207 1858.0773,-643.852 1869.7866,-672 1886.3775,-711.8829 1886.527,-762.2154 1884.0728,-795.668"/>
<polygon fill="#00ff00" stroke="#00ff00" points="1880.5625,-795.6407 1883.202,-805.9015 1887.5373,-796.2343 1880.5625,-795.6407"/>
</g>
<!-- n25 -->
<g id="node32" class="node">
<title>n25</title>
<path fill="#ffffff" stroke="#ff8c00" stroke-width="2" d="M1858.7866,-204C1858.7866,-204 1686.7866,-204 1686.7866,-204 1680.7866,-204 1674.7866,-198 1674.7866,-192 1674.7866,-192 1674.7866,-152 1674.7866,-152 1674.7866,-146 1680.7866,-140 1686.7866,-140 1686.7866,-140 1858.7866,-140 1858.7866,-140 1864.7866,-140 1870.7866,-146 1870.7866,-152 1870.7866,-152 1870.7866,-192 1870.7866,-192 1870.7866,-198 1864.7866,-204 1858.7866,-204"/>
<text text-anchor="start" x="1712.5026" y="-190" font-family="arial" font-weight="bold" font-size="10.00" fill="#000000">Non&#45;Culm as SIL and CAM</text>
<text text-anchor="start" x="1691.9331" y="-173" font-family="arial" font-size="10.00" fill="#000000">In Devon, the non&#45;Culm strata range</text>
<text text-anchor="start" x="1684.7206" y="-161" font-family="arial" font-size="10.00" fill="#000000"> from Cambrian to Silurian in age #COA</text>
<text text-anchor="start" x="1746.3911" y="-149" font-family="arial" font-size="10.00" fill="#000000"> #chron&#45;hyp</text>
</g>
<!-- n25&#45;&gt;n18 -->
<g id="edge60" class="edge">
<title>n25&#45;&gt;n18</title>
<path fill="none" stroke="#ff0000" d="M1738.0515,-204.3771C1721.6714,-221.6613 1703.4282,-244.2401 1692.7866,-268 1583.0037,-513.118 1607.2282,-599.7626 1620.7866,-868 1624.1242,-934.0305 1614.7356,-953.3261 1635.7866,-1016 1644.9226,-1043.2002 1661.7337,-1070.7699 1676.2301,-1091.5046"/>
<polygon fill="#ff0000" stroke="#ff0000" points="1673.4017,-1093.5665 1682.064,-1099.6668 1679.0966,-1089.496 1673.4017,-1093.5665"/>
</g>
<!-- n25&#45;&gt;n19 -->
<g id="edge61" class="edge">
<title>n25&#45;&gt;n19</title>
<path fill="none" stroke="#ff0000" d="M1755.4832,-139.8652C1745.2076,-120.7819 1732.1703,-96.5697 1721.6344,-77.003"/>
<polygon fill="#ff0000" stroke="#ff0000" points="1724.6604,-75.2403 1716.8377,-68.0949 1718.4971,-78.559 1724.6604,-75.2403"/>
</g>
<!-- n25&#45;&gt;n20 -->
<g id="edge62" class="edge">
<title>n25&#45;&gt;n20</title>
<path fill="none" stroke="#ff0000" d="M1809.1237,-139.8652C1831.4836,-120.0911 1860.0706,-94.8101 1882.5879,-74.8968"/>
<polygon fill="#ff0000" stroke="#ff0000" points="1885.1069,-77.3414 1890.2793,-68.0949 1880.4697,-72.0978 1885.1069,-77.3414"/>
</g>
<!-- n25&#45;&gt;n21 -->
<g id="edge63" class="edge">
<title>n25&#45;&gt;n21</title>
<path fill="none" stroke="#00ff00" d="M1745.2352,-204.289C1732.0338,-221.8919 1717.632,-244.7829 1710.7866,-268 1696.4074,-316.7688 1690.5917,-335.7382 1710.7866,-382.4 1716.4311,-395.4421 1725.9678,-407.125 1736.2847,-416.9618"/>
<polygon fill="#00ff00" stroke="#00ff00" points="1734.1115,-419.7143 1743.8905,-423.7913 1738.7883,-414.5059 1734.1115,-419.7143"/>
</g>
<!-- n25&#45;&gt;n22 -->
<g id="edge64" class="edge">
<title>n25&#45;&gt;n22</title>
<path fill="none" stroke="#00ff00" d="M1751.2064,-204.0566C1724.1448,-248.6517 1685.9564,-329.8406 1726.7866,-382.4 1772.6543,-441.444 1840.8991,-367.431 1889.7866,-424 1982.0886,-530.805 1924.6682,-718.4777 1894.6616,-796.4624"/>
<polygon fill="#00ff00" stroke="#00ff00" points="1891.3719,-795.2644 1890.9758,-805.8518 1897.8879,-797.8223 1891.3719,-795.2644"/>
</g>
<!-- n35&#45;&gt;n22 -->
<g id="edge76" class="edge">
<title>n35&#45;&gt;n22</title>
<path fill="none" stroke="#00ff00" d="M1871.5057,-941.9101C1873.1973,-919.4575 1875.3653,-890.6832 1877.0586,-868.2085"/>
<polygon fill="#00ff00" stroke="#00ff00" points="1880.5623,-868.2892 1877.8236,-858.0545 1873.5821,-867.7633 1880.5623,-868.2892"/>
</g>
<!-- n36&#45;&gt;n24 -->
<g id="edge77" class="edge">
<title>n36&#45;&gt;n24</title>
<path fill="none" stroke="#00ff00" d="M1765.6948,-679.9693C1768.626,-661.7956 1773.2322,-633.2373 1776.9245,-610.3448"/>
<polygon fill="#00ff00" stroke="#00ff00" points="1780.4104,-610.7127 1778.5474,-600.283 1773.4997,-609.5981 1780.4104,-610.7127"/>
</g>
<!-- n37&#45;&gt;n25 -->
<g id="edge78" class="edge">
<title>n37&#45;&gt;n25</title>
<path fill="none" stroke="#00ff00" d="M1833.7786,-295.7267C1823.572,-275.0219 1806.6095,-240.6121 1793.1603,-213.3295"/>
<polygon fill="#00ff00" stroke="#00ff00" points="1796.1274,-211.4326 1788.5665,-204.0107 1789.8488,-214.5277 1796.1274,-211.4326"/>
</g>
<!-- n26 -->
<g id="node36" class="node">
<title>n26</title>
<path fill="#ffffff" stroke="#b8860b" stroke-width="2" d="M2446.7866,-1158C2446.7866,-1158 2274.7866,-1158 2274.7866,-1158 2268.7866,-1158 2262.7866,-1152 2262.7866,-1146 2262.7866,-1146 2262.7866,-1106 2262.7866,-1106 2262.7866,-1100 2268.7866,-1094 2274.7866,-1094 2274.7866,-1094 2446.7866,-1094 2446.7866,-1094 2452.7866,-1094 2458.7866,-1100 2458.7866,-1106 2458.7866,-1106 2458.7866,-1146 2458.7866,-1146 2458.7866,-1152 2452.7866,-1158 2446.7866,-1158"/>
<text text-anchor="start" x="2312.7306" y="-1144" font-family="arial" font-weight="bold" font-size="10.00" fill="#000000">Traversing Northward</text>
<text text-anchor="start" x="2281.3211" y="-1127" font-family="arial" font-size="10.00" fill="#000000">The strata south of Exmoor become</text>
<text text-anchor="start" x="2278.2626" y="-1115" font-family="arial" font-size="10.00" fill="#000000"> progessively younger the furhter one</text>
<text text-anchor="start" x="2273.8271" y="-1103" font-family="arial" font-size="10.00" fill="#000000"> traverses northward #GRE #chron&#45;hyp</text>
</g>
<!-- n27 -->
<g id="node37" class="node">
<title>n27</title>
<path fill="#ffffff" stroke="#b8860b" stroke-width="2" d="M2232.7866,-1164C2232.7866,-1164 2056.7866,-1164 2056.7866,-1164 2050.7866,-1164 2044.7866,-1158 2044.7866,-1152 2044.7866,-1152 2044.7866,-1100 2044.7866,-1100 2044.7866,-1094 2050.7866,-1088 2056.7866,-1088 2056.7866,-1088 2232.7866,-1088 2232.7866,-1088 2238.7866,-1088 2244.7866,-1094 2244.7866,-1100 2244.7866,-1100 2244.7866,-1152 2244.7866,-1152 2244.7866,-1158 2238.7866,-1164 2232.7866,-1164"/>
<text text-anchor="start" x="2068.6551" y="-1150" font-family="arial" font-weight="bold" font-size="10.00" fill="#000000">Exmoor Youngest Devonian strata</text>
<text text-anchor="start" x="2065.5986" y="-1133" font-family="arial" font-size="10.00" fill="#000000">In Devon, among all the strata older</text>
<text text-anchor="start" x="2054.4751" y="-1121" font-family="arial" font-size="10.00" fill="#000000"> than the New Red Sandstone, the strata</text>
<text text-anchor="start" x="2066.9861" y="-1109" font-family="arial" font-size="10.00" fill="#000000"> of Exmoor are the youngest #GRE</text>
<text text-anchor="start" x="2118.3911" y="-1097" font-family="arial" font-size="10.00" fill="#000000"> #chron&#45;hyp</text>
</g>
<!-- n28 -->
<g id="node38" class="node">
<title>n28</title>
<path fill="#ffffff" stroke="#ff8c00" stroke-width="2" d="M2240.2866,-1010C2240.2866,-1010 2057.2866,-1010 2057.2866,-1010 2051.2866,-1010 2045.2866,-1004 2045.2866,-998 2045.2866,-998 2045.2866,-958 2045.2866,-958 2045.2866,-952 2051.2866,-946 2057.2866,-946 2057.2866,-946 2240.2866,-946 2240.2866,-946 2246.2866,-946 2252.2866,-952 2252.2866,-958 2252.2866,-958 2252.2866,-998 2252.2866,-998 2252.2866,-1004 2246.2866,-1010 2240.2866,-1010"/>
<text text-anchor="start" x="2077.8801" y="-996" font-family="arial" font-weight="bold" font-size="10.00" fill="#000000">Culm Youngest Devonian Strata</text>
<text text-anchor="start" x="2070.0986" y="-979" font-family="arial" font-size="10.00" fill="#000000">In Devon, among all the strata older</text>
<text text-anchor="start" x="2059.8146" y="-967" font-family="arial" font-size="10.00" fill="#000000"> than the New Red Sandstone, the Culm</text>
<text text-anchor="start" x="2055.3691" y="-955" font-family="arial" font-size="10.00" fill="#000000"> strata are the youngest #COA #chron&#45;hyp</text>
</g>
<!-- n27&#45;&gt;n28 -->
<g id="edge69" class="edge">
<title>n27&#45;&gt;n28</title>
<path fill="none" stroke="#ff0000" d="M2139.8285,-1087.8863C2139.4363,-1067.2775 2140.0636,-1041.7689 2141.4627,-1020.5179"/>
<polygon fill="#ff0000" stroke="#ff0000" points="2144.9587,-1020.6999 2142.2104,-1010.4678 2137.978,-1020.1805 2144.9587,-1020.6999"/>
</g>
<!-- n28&#45;&gt;n27 -->
<g id="edge68" class="edge">
<title>n28&#45;&gt;n27</title>
<path fill="none" stroke="#ff0000" d="M2153.6078,-1010.4678C2154.1954,-1030.1693 2153.731,-1055.6793 2152.4655,-1077.7151"/>
<polygon fill="#ff0000" stroke="#ff0000" points="2148.9605,-1077.6805 2151.8049,-1087.8863 2155.9457,-1078.1342 2148.9605,-1077.6805"/>
</g>
</g>
</svg>
