
<!-- Generated by graphviz version 2.40.1 (20161225.0304)
 -->
<!-- Title: Argument Map Pages: 1 -->
<svg width="720pt" height="470pt"
 viewBox="0.00 0.00 720.00 469.63" xmlns="http://www.w3.org/2000/svg" xmlns:xlink="http://www.w3.org/1999/xlink">
<g id="graph0" class="graph" transform="scale(.2759 .2759) rotate(0) translate(4 1698.4)">
<title>Argument Map</title>
<g id="clust1" class="cluster">
<title>cluster_1</title>
<polygon fill="#b9d3ee" stroke="#b9d3ee" points="722,-760 722,-874.4 1152,-874.4 1152,-760 722,-760"/>
<text text-anchor="start" x="853.3132" y="-859.6" font-family="arial" font-size="12.00" fill="#000000">Aporia I : Coal in Ancient Strata</text>
</g>
<g id="clust2" class="cluster">
<title>cluster_2</title>
<polygon fill="#eedfcc" stroke="#eedfcc" points="8,-638 8,-1674.4 714,-1674.4 714,-638 8,-638"/>
<text text-anchor="start" x="296.6578" y="-1659.6" font-family="arial" font-size="12.00" fill="#000000">Dating of the Main Culm</text>
</g>
<g id="clust3" class="cluster">
<title>cluster_3</title>
<polygon fill="#eeb4b4" stroke="#eeb4b4" points="1160,-8 1160,-1674.4 1716,-1674.4 1716,-8 1160,-8"/>
<text text-anchor="start" x="1358.9842" y="-1659.6" font-family="arial" font-size="12.00" fill="#000000">Dating of the Culm Limestone</text>
</g>
<g id="clust4" class="cluster">
<title>cluster_4</title>
<polygon fill="#cd9b9b" stroke="#cd9b9b" points="1724,-494 1724,-1680.4 2156,-1680.4 2156,-494 1724,-494"/>
<text text-anchor="start" x="1877.3252" y="-1665.6" font-family="arial" font-size="12.00" fill="#000000">Dating of the Non&#45;Culm</text>
</g>
<g id="clust5" class="cluster">
<title>cluster_5</title>
<polygon fill="#8b6969" stroke="#8b6969" points="2164,-1432 2164,-1686.4 2594,-1686.4 2594,-1432 2164,-1432"/>
<text text-anchor="start" x="2308.9752" y="-1671.6" font-family="arial" font-size="12.00" fill="#000000">Youngest Devonian Strata</text>
</g>
<!-- n0 -->
<g id="node1" class="node">
<title>n0</title>
<path fill="#ffffff" stroke="#b8860b" stroke-width="2" d="M1132,-844C1132,-844 960,-844 960,-844 954,-844 948,-838 948,-832 948,-832 948,-780 948,-780 948,-774 954,-768 960,-768 960,-768 1132,-768 1132,-768 1138,-768 1144,-774 1144,-780 1144,-780 1144,-832 1144,-832 1144,-838 1138,-844 1132,-844"/>
<text text-anchor="start" x="982.652" y="-830" font-family="arial" font-weight="bold" font-size="10.00" fill="#000000">Instances of Pre&#45;ORS Strata</text>
<text text-anchor="start" x="964.3215" y="-813" font-family="arial" font-size="10.00" fill="#000000">In Munster, North America and North</text>
<text text-anchor="start" x="959.3145" y="-801" font-family="arial" font-size="10.00" fill="#000000"> Devon, some strata closely associated</text>
<text text-anchor="start" x="958.7625" y="-789" font-family="arial" font-size="10.00" fill="#000000"> with seams of coal are pre&#45;ORS in age</text>
<text text-anchor="start" x="1004.602" y="-777" font-family="arial" font-size="10.00" fill="#000000"> #GRE #chron&#45;hyp</text>
</g>
<!-- n2 -->
<g id="node2" class="node">
<title>n2</title>
<path fill="#ffffff" stroke="#b8860b" stroke-width="2" d="M918,-838C918,-838 742,-838 742,-838 736,-838 730,-832 730,-826 730,-826 730,-786 730,-786 730,-780 736,-774 742,-774 742,-774 918,-774 918,-774 924,-774 930,-780 930,-786 930,-786 930,-826 930,-826 930,-832 924,-838 918,-838"/>
<text text-anchor="start" x="749.711" y="-824" font-family="arial" font-weight="bold" font-size="10.00" fill="#000000">Pre&#45;ORS Strata in northwest France</text>
<text text-anchor="start" x="741.6465" y="-807" font-family="arial" font-size="10.00" fill="#000000">The whole strata supporting coal seams</text>
<text text-anchor="start" x="739.9835" y="-795" font-family="arial" font-size="10.00" fill="#000000"> in northwest France are pre&#45;ORS in age</text>
<text text-anchor="start" x="788.602" y="-783" font-family="arial" font-size="10.00" fill="#000000"> #GRE #chron&#45;hyp</text>
</g>
<!-- n1 -->
<g id="node3" class="node">
<title>n1</title>
<path fill="#ffffff" stroke="#b8860b" stroke-width="2" d="M398,-1644C398,-1644 226,-1644 226,-1644 220,-1644 214,-1638 214,-1632 214,-1632 214,-1604 214,-1604 214,-1598 220,-1592 226,-1592 226,-1592 398,-1592 398,-1592 404,-1592 410,-1598 410,-1604 410,-1604 410,-1632 410,-1632 410,-1638 404,-1644 398,-1644"/>
<text text-anchor="start" x="268.9475" y="-1630" font-family="arial" font-weight="bold" font-size="10.00" fill="#000000">Main Culm as CAM</text>
<text text-anchor="start" x="226.9925" y="-1613" font-family="arial" font-size="10.00" fill="#000000">The whole of the main Culm is CAM in</text>
<text text-anchor="start" x="259.4845" y="-1601" font-family="arial" font-size="10.00" fill="#000000"> age #GRE #chron&#45;hyp </text>
</g>
<!-- n1&#45;&gt;n0 -->
<g id="edge1" class="edge">
<title>n1&#45;&gt;n0</title>
<path fill="none" stroke="#00ff00" d="M410.2143,-1610.8571C571.3126,-1593.2128 874,-1532.5747 874,-1326 874,-1326 874,-1326 874,-1066 874,-979.2571 941.4165,-899.2188 991.8354,-851.4895"/>
<polygon fill="#00ff00" stroke="#00ff00" points="994.5191,-853.7731 999.4543,-844.3979 989.7498,-848.6492 994.5191,-853.7731"/>
</g>
<!-- n3 -->
<g id="node4" class="node">
<title>n3</title>
<path fill="#ffffff" stroke="#f5f5dc" stroke-width="2" d="M401,-1498C401,-1498 223,-1498 223,-1498 217,-1498 211,-1492 211,-1486 211,-1486 211,-1458 211,-1458 211,-1452 217,-1446 223,-1446 223,-1446 401,-1446 401,-1446 407,-1446 413,-1452 413,-1458 413,-1458 413,-1486 413,-1486 413,-1492 407,-1498 401,-1498"/>
<text text-anchor="start" x="257.8345" y="-1484" font-family="arial" font-weight="bold" font-size="10.00" fill="#000000">Some Main Culm as CM</text>
<text text-anchor="start" x="220.599" y="-1467" font-family="arial" font-size="10.00" fill="#000000">Some part of the main Culm is CM in age</text>
<text text-anchor="start" x="275.882" y="-1455" font-family="arial" font-size="10.00" fill="#000000"> #pri #chron&#45;hyp</text>
</g>
<!-- n1&#45;&gt;n3 -->
<g id="edge6" class="edge">
<title>n1&#45;&gt;n3</title>
<path fill="none" stroke="#ff0000" d="M312,-1591.8981C312,-1568.6855 312,-1534.5017 312,-1508.5675"/>
<polygon fill="#ff0000" stroke="#ff0000" points="315.5001,-1508.3681 312,-1498.3682 308.5001,-1508.3682 315.5001,-1508.3681"/>
</g>
<!-- n4 -->
<g id="node5" class="node">
<title>n4</title>
<path fill="#ffffff" stroke="#f5f5dc" stroke-width="2" d="M245.5,-832C245.5,-832 68.5,-832 68.5,-832 62.5,-832 56.5,-826 56.5,-820 56.5,-820 56.5,-792 56.5,-792 56.5,-786 62.5,-780 68.5,-780 68.5,-780 245.5,-780 245.5,-780 251.5,-780 257.5,-786 257.5,-792 257.5,-792 257.5,-820 257.5,-820 257.5,-826 251.5,-832 245.5,-832"/>
<text text-anchor="start" x="104.1645" y="-818" font-family="arial" font-weight="bold" font-size="10.00" fill="#000000">Some Main Culm as ML</text>
<text text-anchor="start" x="66.929" y="-801" font-family="arial" font-size="10.00" fill="#000000">Some part of the main Culm is ML in age</text>
<text text-anchor="start" x="121.382" y="-789" font-family="arial" font-size="10.00" fill="#000000"> #pri #chron&#45;hyp</text>
</g>
<!-- n1&#45;&gt;n4 -->
<g id="edge7" class="edge">
<title>n1&#45;&gt;n4</title>
<path fill="none" stroke="#ff0000" d="M266.7106,-1591.9535C237.4167,-1572.6307 201.1181,-1543.5345 181,-1508 140.6451,-1436.7215 152,-1407.9093 152,-1326 152,-1326 152,-1326 152,-1066 152,-986.1273 154.3879,-892.478 155.8633,-842.2399"/>
<polygon fill="#ff0000" stroke="#ff0000" points="159.363,-842.2991 156.1631,-832.1991 152.3661,-842.0901 159.363,-842.2991"/>
</g>
<!-- n5 -->
<g id="node6" class="node">
<title>n5</title>
<path fill="#ffffff" stroke="#f5f5dc" stroke-width="2" d="M460,-832C460,-832 288,-832 288,-832 282,-832 276,-826 276,-820 276,-820 276,-792 276,-792 276,-786 282,-780 288,-780 288,-780 460,-780 460,-780 466,-780 472,-786 472,-792 472,-792 472,-820 472,-820 472,-826 466,-832 460,-832"/>
<text text-anchor="start" x="316.775" y="-818" font-family="arial" font-weight="bold" font-size="10.00" fill="#000000">Some Main Culm as ORS</text>
<text text-anchor="start" x="289.2675" y="-801" font-family="arial" font-size="10.00" fill="#000000">Some part of the main Culm is ORS in</text>
<text text-anchor="start" x="328.154" y="-789" font-family="arial" font-size="10.00" fill="#000000"> age #pri #chron&#45;hyp</text>
</g>
<!-- n1&#45;&gt;n5 -->
<g id="edge8" class="edge">
<title>n1&#45;&gt;n5</title>
<path fill="none" stroke="#ff0000" d="M274.2115,-1591.9762C248.8747,-1572.1837 217.4226,-1542.5222 202,-1508 168.9563,-1434.0346 192,-1407.0109 192,-1326 192,-1326 192,-1326 192,-1190 192,-1061.9591 218.7217,-1027.8744 281,-916 296.7082,-887.7823 320.2345,-860.0415 339.6937,-839.4771"/>
<polygon fill="#ff0000" stroke="#ff0000" points="342.247,-841.8714 346.6568,-832.2379 337.202,-837.0187 342.247,-841.8714"/>
</g>
<!-- n6 -->
<g id="node7" class="node">
<title>n6</title>
<path fill="#ffffff" stroke="#f5f5dc" stroke-width="2" d="M674,-832C674,-832 502,-832 502,-832 496,-832 490,-826 490,-820 490,-820 490,-792 490,-792 490,-786 496,-780 502,-780 502,-780 674,-780 674,-780 680,-780 686,-786 686,-792 686,-792 686,-820 686,-820 686,-826 680,-832 674,-832"/>
<text text-anchor="start" x="534.105" y="-818" font-family="arial" font-weight="bold" font-size="10.00" fill="#000000">Some Main Culm as SIL</text>
<text text-anchor="start" x="506.5975" y="-801" font-family="arial" font-size="10.00" fill="#000000">Some part of the main Culm is SIL in</text>
<text text-anchor="start" x="542.154" y="-789" font-family="arial" font-size="10.00" fill="#000000"> age #pri #chron&#45;hyp</text>
</g>
<!-- n1&#45;&gt;n6 -->
<g id="edge9" class="edge">
<title>n1&#45;&gt;n6</title>
<path fill="none" stroke="#ff0000" d="M410.1898,-1598.9326C500.1042,-1579.3633 623.8003,-1546.4057 655,-1508 706.2802,-1444.8758 674,-1407.3285 674,-1326 674,-1326 674,-1326 674,-1066 674,-997.9245 665.299,-980.3197 643,-916 633.9833,-889.9921 620.0995,-862.2819 608.5375,-841.1799"/>
<polygon fill="#ff0000" stroke="#ff0000" points="611.5017,-839.3087 603.5804,-832.2728 605.3851,-842.7128 611.5017,-839.3087"/>
</g>
<!-- n7 -->
<g id="node8" class="node">
<title>n7</title>
<path fill="#ffffff" stroke="#f5f5dc" stroke-width="2" d="M620,-1216C620,-1216 448,-1216 448,-1216 442,-1216 436,-1210 436,-1204 436,-1204 436,-1176 436,-1176 436,-1170 442,-1164 448,-1164 448,-1164 620,-1164 620,-1164 626,-1164 632,-1170 632,-1176 632,-1176 632,-1204 632,-1204 632,-1210 626,-1216 620,-1216"/>
<text text-anchor="start" x="476.5" y="-1202" font-family="arial" font-weight="bold" font-size="10.00" fill="#000000">Some Main Culm as CAM</text>
<text text-anchor="start" x="448.9925" y="-1185" font-family="arial" font-size="10.00" fill="#000000">Some part of the main Culm is CAM in</text>
<text text-anchor="start" x="488.154" y="-1173" font-family="arial" font-size="10.00" fill="#000000"> age #pri #chron&#45;hyp</text>
</g>
<!-- n1&#45;&gt;n7 -->
<g id="edge10" class="edge">
<title>n1&#45;&gt;n7</title>
<path fill="none" stroke="#00ff00" d="M410.0313,-1598.7089C497.5471,-1579.2604 616.0946,-1546.6429 644,-1508 657.8466,-1488.8254 665.1025,-1339.1962 642,-1288 629.9955,-1261.3974 606.904,-1238.8821 585.1443,-1222.1671"/>
<polygon fill="#00ff00" stroke="#00ff00" points="587.0125,-1219.1951 576.8957,-1216.0485 582.8421,-1224.8172 587.0125,-1219.1951"/>
</g>
<!-- n31 -->
<g id="node11" class="node">
<title>n31</title>
<path fill="#f5f5dc" stroke="#000000" d="M620.5,-1362C620.5,-1362 447.5,-1362 447.5,-1362 441.5,-1362 435.5,-1356 435.5,-1350 435.5,-1350 435.5,-1302 435.5,-1302 435.5,-1296 441.5,-1290 447.5,-1290 447.5,-1290 620.5,-1290 620.5,-1290 626.5,-1290 632.5,-1296 632.5,-1302 632.5,-1302 632.5,-1350 632.5,-1350 632.5,-1356 626.5,-1362 620.5,-1362"/>
<text text-anchor="start" x="448.6425" y="-1348" font-family="arial" font-weight="bold" font-size="10.00" fill="#000000">Standard Sequence as Partition &#45; Main</text>
<text text-anchor="start" x="521.4475" y="-1338" font-family="arial" font-weight="bold" font-size="10.00" fill="#000000"> Culm</text>
<text text-anchor="start" x="445.8835" y="-1323" font-family="arial" font-size="10.00" fill="#000000">If some main Culm strata are neiter CM,</text>
<text text-anchor="start" x="449.4835" y="-1311" font-family="arial" font-size="10.00" fill="#000000"> ML, OR nor SIL in age, then it is CAM</text>
<text text-anchor="start" x="483.3755" y="-1299" font-family="arial" font-size="10.00" fill="#000000"> in age #pri #chron&#45;hyp</text>
</g>
<!-- n3&#45;&gt;n31 -->
<g id="edge2" class="edge">
<title>n3&#45;&gt;n31</title>
<path fill="none" stroke="#ff0000" d="M351.6892,-1445.8981C384.7343,-1424.1658 432.4019,-1392.8168 470.7079,-1367.6245"/>
<polygon fill="#ff0000" stroke="#ff0000" points="472.7963,-1370.4402 479.2282,-1362.0211 468.9499,-1364.5916 472.7963,-1370.4402"/>
</g>
<!-- n32 -->
<g id="node12" class="node">
<title>n32</title>
<path fill="#b8860b" stroke="#000000" d="M351,-682C351,-682 179,-682 179,-682 173,-682 167,-676 167,-670 167,-670 167,-658 167,-658 167,-652 173,-646 179,-646 179,-646 351,-646 351,-646 357,-646 363,-652 363,-658 363,-658 363,-670 363,-670 363,-676 357,-682 351,-682"/>
<text text-anchor="start" x="197.494" y="-662" font-family="arial" font-weight="bold" font-size="10.00" fill="#000000">Dating the Main Culm &#45; GRE.1</text>
</g>
<!-- n3&#45;&gt;n32 -->
<g id="edge11" class="edge">
<title>n3&#45;&gt;n32</title>
<path fill="none" stroke="#ff0000" d="M295.6237,-1445.9679C245.8702,-1365.1423 96.849,-1109.785 47,-874.4 36.466,-824.6587 19.2215,-802.5854 47,-760 71.7863,-722.0017 115.3628,-698.941 157.0733,-684.9933"/>
<polygon fill="#ff0000" stroke="#ff0000" points="158.3139,-688.2714 166.7767,-681.8971 156.1859,-681.6027 158.3139,-688.2714"/>
</g>
<!-- n33 -->
<g id="node13" class="node">
<title>n33</title>
<path fill="#ff8c00" stroke="#000000" d="M480,-1084C480,-1084 308,-1084 308,-1084 302,-1084 296,-1078 296,-1072 296,-1072 296,-1060 296,-1060 296,-1054 302,-1048 308,-1048 308,-1048 480,-1048 480,-1048 486,-1048 492,-1054 492,-1060 492,-1060 492,-1072 492,-1072 492,-1078 486,-1084 480,-1084"/>
<text text-anchor="start" x="320.935" y="-1064" font-family="arial" font-weight="bold" font-size="10.00" fill="#000000">Redating the Main Culm &#45; COA.1</text>
</g>
<!-- n3&#45;&gt;n33 -->
<g id="edge93" class="edge">
<title>n3&#45;&gt;n33</title>
<path fill="none" stroke="#00ff00" d="M317.2542,-1445.9853C331.9099,-1373.4218 373.1558,-1169.2044 388.3167,-1094.1391"/>
<polygon fill="#00ff00" stroke="#00ff00" points="391.809,-1094.5271 390.3581,-1084.0321 384.9475,-1093.1412 391.809,-1094.5271"/>
</g>
<!-- n4&#45;&gt;n31 -->
<g id="edge3" class="edge">
<title>n4&#45;&gt;n31</title>
<path fill="none" stroke="#ff0000" d="M161.3675,-832.0067C174.4266,-902.4203 219.2849,-1099.3079 329,-1216 356.3657,-1245.106 393.1878,-1268.1416 428.0736,-1285.4527"/>
<polygon fill="#ff0000" stroke="#ff0000" points="426.8459,-1288.747 437.3715,-1289.9567 429.8976,-1282.4472 426.8459,-1288.747"/>
</g>
<!-- n4&#45;&gt;n32 -->
<g id="edge12" class="edge">
<title>n4&#45;&gt;n32</title>
<path fill="none" stroke="#ff0000" d="M176.8089,-779.955C196.1766,-754.49 225.5129,-715.9183 244.9596,-690.3495"/>
<polygon fill="#ff0000" stroke="#ff0000" points="247.8788,-692.2928 251.1467,-682.2145 242.3072,-688.0552 247.8788,-692.2928"/>
</g>
<!-- n4&#45;&gt;n33 -->
<g id="edge21" class="edge">
<title>n4&#45;&gt;n33</title>
<path fill="none" stroke="#ff0000" d="M180.8301,-832.1428C226.381,-882.1142 325.2958,-990.6283 370.5489,-1040.2731"/>
<polygon fill="#ff0000" stroke="#ff0000" points="368.0113,-1042.6847 377.3346,-1047.7173 373.1846,-1037.9691 368.0113,-1042.6847"/>
</g>
<!-- n5&#45;&gt;n31 -->
<g id="edge4" class="edge">
<title>n5&#45;&gt;n31</title>
<path fill="none" stroke="#ff0000" d="M353.8797,-832.321C317.3297,-883.5561 247.319,-999.747 287,-1092 322.9832,-1175.6563 405.2057,-1243.418 464.9253,-1284.0897"/>
<polygon fill="#ff0000" stroke="#ff0000" points="463.312,-1287.2223 473.5649,-1289.8926 467.215,-1281.4114 463.312,-1287.2223"/>
</g>
<!-- n5&#45;&gt;n32 -->
<g id="edge13" class="edge">
<title>n5&#45;&gt;n32</title>
<path fill="none" stroke="#ff0000" d="M354.0077,-779.955C334.4606,-754.49 304.8528,-715.9183 285.226,-690.3495"/>
<polygon fill="#ff0000" stroke="#ff0000" points="287.847,-688.0158 278.9815,-682.2145 282.2942,-692.2781 287.847,-688.0158"/>
</g>
<!-- n5&#45;&gt;n33 -->
<g id="edge22" class="edge">
<title>n5&#45;&gt;n33</title>
<path fill="none" stroke="#ff0000" d="M376.011,-832.1428C379.7838,-881.1888 387.8946,-986.6294 391.8042,-1037.4552"/>
<polygon fill="#ff0000" stroke="#ff0000" points="388.3369,-1038.0152 392.5936,-1047.7173 395.3163,-1037.4783 388.3369,-1038.0152"/>
</g>
<!-- n6&#45;&gt;n31 -->
<g id="edge5" class="edge">
<title>n6&#45;&gt;n31</title>
<path fill="none" stroke="#ff0000" d="M600.0643,-832.1021C629.0732,-898.7721 696.3649,-1079.6797 641,-1216 630.5106,-1241.8273 610.7209,-1264.9181 590.9857,-1283.1948"/>
<polygon fill="#ff0000" stroke="#ff0000" points="588.5513,-1280.6768 583.4442,-1289.9595 593.2254,-1285.8876 588.5513,-1280.6768"/>
</g>
<!-- n6&#45;&gt;n32 -->
<g id="edge14" class="edge">
<title>n6&#45;&gt;n32</title>
<path fill="none" stroke="#ff0000" d="M528.7568,-779.955C467.5124,-753.0302 372.9386,-711.4529 315.2362,-686.0853"/>
<polygon fill="#ff0000" stroke="#ff0000" points="316.5173,-682.8252 305.9542,-682.0047 313.7001,-689.2333 316.5173,-682.8252"/>
</g>
<!-- n6&#45;&gt;n33 -->
<g id="edge23" class="edge">
<title>n6&#45;&gt;n33</title>
<path fill="none" stroke="#ff0000" d="M548.7951,-832.038C528.7356,-845.1099 503.7998,-860.9781 481,-874.4 447.4797,-894.1329 425.0235,-883.2737 404,-916 391.514,-935.4364 391.5145,-999.719 392.7031,-1037.5309"/>
<polygon fill="#ff0000" stroke="#ff0000" points="389.2184,-1038.0196 393.0789,-1047.8861 396.2138,-1037.7657 389.2184,-1038.0196"/>
</g>
<!-- n7&#45;&gt;n32 -->
<g id="edge94" class="edge">
<title>n7&#45;&gt;n32</title>
<path fill="none" stroke="#00ff00" d="M552.8494,-1163.8483C589.0342,-1111.842 667.1151,-990.4244 695,-874.4 706.8814,-824.9633 726.7952,-799.6765 695,-760 655.4171,-710.6055 487.2895,-684.9536 373.3707,-672.9903"/>
<polygon fill="#00ff00" stroke="#00ff00" points="373.5151,-669.4867 363.2093,-671.9442 372.7982,-676.4499 373.5151,-669.4867"/>
</g>
<!-- n7&#45;&gt;n33 -->
<g id="edge24" class="edge">
<title>n7&#45;&gt;n33</title>
<path fill="none" stroke="#ff0000" d="M504.3096,-1163.7028C480.0796,-1142.2419 446.0749,-1112.1235 422.2449,-1091.0169"/>
<polygon fill="#ff0000" stroke="#ff0000" points="424.3888,-1088.2403 414.5823,-1084.23 419.7475,-1093.4805 424.3888,-1088.2403"/>
</g>
<!-- n8 -->
<g id="node9" class="node">
<title>n8</title>
<path fill="#ffffff" stroke="#f5f5dc" stroke-width="2" d="M622.5,-1504C622.5,-1504 443.5,-1504 443.5,-1504 437.5,-1504 431.5,-1498 431.5,-1492 431.5,-1492 431.5,-1452 431.5,-1452 431.5,-1446 437.5,-1440 443.5,-1440 443.5,-1440 622.5,-1440 622.5,-1440 628.5,-1440 634.5,-1446 634.5,-1452 634.5,-1452 634.5,-1492 634.5,-1492 634.5,-1498 628.5,-1504 622.5,-1504"/>
<text text-anchor="start" x="441.557" y="-1490" font-family="arial" font-weight="bold" font-size="10.00" fill="#000000">Main Culm as Post&#45;Primary and Pre&#45;NRS</text>
<text text-anchor="start" x="453.487" y="-1473" font-family="arial" font-size="10.00" fill="#000000">The main Culm strata are older than</text>
<text text-anchor="start" x="449.3165" y="-1461" font-family="arial" font-size="10.00" fill="#000000"> Primary strata and younger than New</text>
<text text-anchor="start" x="447.6415" y="-1449" font-family="arial" font-size="10.00" fill="#000000"> Red Sandstone strata #pri #chron&#45;hyp</text>
</g>
<!-- n8&#45;&gt;n31 -->
<g id="edge95" class="edge">
<title>n8&#45;&gt;n31</title>
<path fill="none" stroke="#00ff00" d="M533.2195,-1439.9597C533.3554,-1420.1045 533.5324,-1394.2721 533.6834,-1372.2232"/>
<polygon fill="#00ff00" stroke="#00ff00" points="537.1843,-1372.0946 533.7529,-1362.0709 530.1844,-1372.0466 537.1843,-1372.0946"/>
</g>
<!-- n9 -->
<g id="node10" class="node">
<title>n9</title>
<path fill="#ffffff" stroke="#ff8c00" stroke-width="2" d="M603,-968C603,-968 425,-968 425,-968 419,-968 413,-962 413,-956 413,-956 413,-928 413,-928 413,-922 419,-916 425,-916 425,-916 603,-916 603,-916 609,-916 615,-922 615,-928 615,-928 615,-956 615,-956 615,-962 609,-968 603,-968"/>
<text text-anchor="start" x="474.282" y="-954" font-family="arial" font-weight="bold" font-size="10.00" fill="#000000">Main Culm as CM</text>
<text text-anchor="start" x="422.599" y="-937" font-family="arial" font-size="10.00" fill="#000000">The whole of the main Culm is CM in age</text>
<text text-anchor="start" x="471.2125" y="-925" font-family="arial" font-size="10.00" fill="#000000"> #COA #chron&#45;hyp </text>
</g>
<!-- n9&#45;&gt;n0 -->
<g id="edge20" class="edge">
<title>n9&#45;&gt;n0</title>
<path fill="none" stroke="#ff0000" d="M615.0871,-930.7495C721.4854,-918.0529 881.3846,-896.3013 939,-874.4 955.4525,-868.1459 972.0491,-859.1408 987.1001,-849.7085"/>
<polygon fill="#ff0000" stroke="#ff0000" points="989.2592,-852.4811 995.7705,-844.1232 985.4683,-846.5964 989.2592,-852.4811"/>
</g>
<!-- n9&#45;&gt;n3 -->
<g id="edge15" class="edge">
<title>n9&#45;&gt;n3</title>
<path fill="none" stroke="#00ff00" d="M517.0522,-968.0915C519.5273,-999.1878 519.9828,-1051.9665 501,-1092 481.3396,-1133.4626 452.0792,-1125.572 427,-1164 411.4942,-1187.7589 350.7068,-1360.3956 324.3269,-1436.3261"/>
<polygon fill="#00ff00" stroke="#00ff00" points="320.9604,-1435.3516 320.989,-1445.9464 327.5736,-1437.6462 320.9604,-1435.3516"/>
</g>
<!-- n9&#45;&gt;n4 -->
<g id="edge16" class="edge">
<title>n9&#45;&gt;n4</title>
<path fill="none" stroke="#ff0000" d="M412.8912,-921.3256C367.2717,-910.2382 313.3458,-894.6385 267,-874.4 244.3801,-864.5223 220.9363,-850.5413 201.533,-837.7912"/>
<polygon fill="#ff0000" stroke="#ff0000" points="203.4606,-834.8699 193.2002,-832.2291 199.5743,-840.692 203.4606,-834.8699"/>
</g>
<!-- n9&#45;&gt;n5 -->
<g id="edge17" class="edge">
<title>n9&#45;&gt;n5</title>
<path fill="none" stroke="#ff0000" d="M487.0066,-915.7778C464.5399,-893.9531 432.4232,-862.754 408.1667,-839.1905"/>
<polygon fill="#ff0000" stroke="#ff0000" points="410.5221,-836.5991 400.9105,-832.1417 405.6446,-841.62 410.5221,-836.5991"/>
</g>
<!-- n9&#45;&gt;n6 -->
<g id="edge18" class="edge">
<title>n9&#45;&gt;n6</title>
<path fill="none" stroke="#ff0000" d="M528.2679,-915.7778C539.8361,-894.5175 556.2445,-864.3615 568.9375,-841.0337"/>
<polygon fill="#ff0000" stroke="#ff0000" points="572.0707,-842.5984 573.7759,-832.1417 565.922,-839.2527 572.0707,-842.5984"/>
</g>
<!-- n9&#45;&gt;n7 -->
<g id="edge19" class="edge">
<title>n9&#45;&gt;n7</title>
<path fill="none" stroke="#ff0000" d="M516.1044,-968.0944C519.6917,-1012.5777 526.9981,-1103.1762 531.0783,-1153.7703"/>
<polygon fill="#ff0000" stroke="#ff0000" points="527.6048,-1154.2421 531.8975,-1163.9284 534.5822,-1153.6794 527.6048,-1154.2421"/>
</g>
<!-- n31&#45;&gt;n7 -->
<g id="edge83" class="edge">
<title>n31&#45;&gt;n7</title>
<path fill="none" stroke="#00ff00" d="M534,-1289.9116C534,-1270.3005 534,-1246.1097 534,-1226.4438"/>
<polygon fill="#00ff00" stroke="#00ff00" points="537.5001,-1226.3317 534,-1216.3317 530.5001,-1226.3318 537.5001,-1226.3317"/>
</g>
<!-- n32&#45;&gt;n1 -->
<g id="edge84" class="edge">
<title>n32&#45;&gt;n1</title>
<path fill="none" stroke="#00ff00" d="M166.872,-678.5182C116.9625,-691.2822 60.1903,-715.2088 28,-760 -19.2925,-825.8052 17,-860.9635 17,-942 17,-1326 17,-1326 17,-1326 17,-1452.8441 156.4665,-1543.3052 243.6104,-1587.448"/>
<polygon fill="#00ff00" stroke="#00ff00" points="242.1463,-1590.6289 252.6572,-1591.9601 245.2706,-1584.3648 242.1463,-1590.6289"/>
</g>
<!-- n33&#45;&gt;n9 -->
<g id="edge85" class="edge">
<title>n33&#45;&gt;n9</title>
<path fill="none" stroke="#00ff00" d="M411.449,-1047.9693C429.7495,-1029.0588 458.9309,-998.9047 481.4939,-975.5896"/>
<polygon fill="#00ff00" stroke="#00ff00" points="484.1257,-977.903 488.5648,-968.283 479.0955,-973.0351 484.1257,-977.903"/>
</g>
<!-- n10 -->
<g id="node14" class="node">
<title>n10</title>
<path fill="#ffffff" stroke="#f5f5dc" stroke-width="2" d="M1586,-1498C1586,-1498 1414,-1498 1414,-1498 1408,-1498 1402,-1492 1402,-1486 1402,-1486 1402,-1458 1402,-1458 1402,-1452 1408,-1446 1414,-1446 1414,-1446 1586,-1446 1586,-1446 1592,-1446 1598,-1452 1598,-1458 1598,-1458 1598,-1486 1598,-1486 1598,-1492 1592,-1498 1586,-1498"/>
<text text-anchor="start" x="1459.9965" y="-1484" font-family="arial" font-weight="bold" font-size="10.00" fill="#000000">Some BCL as CM</text>
<text text-anchor="start" x="1412.482" y="-1467" font-family="arial" font-size="10.00" fill="#000000">Some part of the black Culm Limestone</text>
<text text-anchor="start" x="1434.713" y="-1455" font-family="arial" font-size="10.00" fill="#000000"> is CM in age #pri #chron&#45;hyp</text>
</g>
<!-- n34 -->
<g id="node24" class="node">
<title>n34</title>
<path fill="#f5f5dc" stroke="#000000" d="M1392,-1364C1392,-1364 1220,-1364 1220,-1364 1214,-1364 1208,-1358 1208,-1352 1208,-1352 1208,-1300 1208,-1300 1208,-1294 1214,-1288 1220,-1288 1220,-1288 1392,-1288 1392,-1288 1398,-1288 1404,-1294 1404,-1300 1404,-1300 1404,-1352 1404,-1352 1404,-1358 1398,-1364 1392,-1364"/>
<text text-anchor="start" x="1221.252" y="-1350" font-family="arial" font-weight="bold" font-size="10.00" fill="#000000">Standard Sequence as Partition &#45; BCL</text>
<text text-anchor="start" x="1239.5985" y="-1333" font-family="arial" font-size="10.00" fill="#000000">If some part of the black Culm</text>
<text text-anchor="start" x="1221.547" y="-1321" font-family="arial" font-size="10.00" fill="#000000"> Limestone is neiter CM, ML, ORS nor</text>
<text text-anchor="start" x="1223.479" y="-1309" font-family="arial" font-size="10.00" fill="#000000"> SIL in age, then it is CAM in age #pri</text>
<text text-anchor="start" x="1279.6045" y="-1297" font-family="arial" font-size="10.00" fill="#000000"> #chron&#45;hyp</text>
</g>
<!-- n10&#45;&gt;n34 -->
<g id="edge25" class="edge">
<title>n10&#45;&gt;n34</title>
<path fill="none" stroke="#ff0000" d="M1465.3167,-1445.8981C1437.4859,-1424.9533 1397.7861,-1395.0762 1364.9796,-1370.3867"/>
<polygon fill="#ff0000" stroke="#ff0000" points="1366.8937,-1367.4468 1356.7989,-1364.2301 1362.6844,-1373.0399 1366.8937,-1367.4468"/>
</g>
<!-- n35 -->
<g id="node25" class="node">
<title>n35</title>
<path fill="#b8860b" stroke="#000000" d="M1496,-1084C1496,-1084 1324,-1084 1324,-1084 1318,-1084 1312,-1078 1312,-1072 1312,-1072 1312,-1060 1312,-1060 1312,-1054 1318,-1048 1324,-1048 1324,-1048 1496,-1048 1496,-1048 1502,-1048 1508,-1054 1508,-1060 1508,-1060 1508,-1072 1508,-1072 1508,-1078 1502,-1084 1496,-1084"/>
<text text-anchor="start" x="1356.656" y="-1064" font-family="arial" font-weight="bold" font-size="10.00" fill="#000000">Dating the BCL &#45; GRE.1</text>
</g>
<!-- n10&#45;&gt;n35 -->
<g id="edge34" class="edge">
<title>n10&#45;&gt;n35</title>
<path fill="none" stroke="#ff0000" d="M1489.7094,-1445.6166C1465.1875,-1382.6443 1405.1775,-1227.8922 1403,-1216 1398.8375,-1193.2668 1402.1762,-1187.0964 1403,-1164 1403.8414,-1140.412 1405.8183,-1113.6913 1407.4575,-1094.1162"/>
<polygon fill="#ff0000" stroke="#ff0000" points="1410.9541,-1094.3047 1408.324,-1084.0416 1403.9798,-1093.7048 1410.9541,-1094.3047"/>
</g>
<!-- n36 -->
<g id="node26" class="node">
<title>n36</title>
<path fill="#ff8c00" stroke="#000000" d="M1571,-300C1571,-300 1399,-300 1399,-300 1393,-300 1387,-294 1387,-288 1387,-288 1387,-276 1387,-276 1387,-270 1393,-264 1399,-264 1399,-264 1571,-264 1571,-264 1577,-264 1583,-270 1583,-276 1583,-276 1583,-288 1583,-288 1583,-294 1577,-300 1571,-300"/>
<text text-anchor="start" x="1426.097" y="-280" font-family="arial" font-weight="bold" font-size="10.00" fill="#000000">Redating the BCL &#45; COA.1</text>
</g>
<!-- n10&#45;&gt;n36 -->
<g id="edge96" class="edge">
<title>n10&#45;&gt;n36</title>
<path fill="none" stroke="#00ff00" d="M1532.8139,-1445.6522C1556.1977,-1425.4164 1586.9233,-1395.6487 1607,-1364 1680.4586,-1248.2003 1687,-1203.134 1687,-1066 1687,-1066 1687,-1066 1687,-528 1687,-426.8153 1583.6642,-344.528 1524.8117,-305.8683"/>
<polygon fill="#00ff00" stroke="#00ff00" points="1526.4207,-302.7412 1516.1198,-300.2628 1522.6268,-308.624 1526.4207,-302.7412"/>
</g>
<!-- n37 -->
<g id="node27" class="node">
<title>n37</title>
<path fill="#ff8c00" stroke="#000000" d="M1636,-682C1636,-682 1464,-682 1464,-682 1458,-682 1452,-676 1452,-670 1452,-670 1452,-658 1452,-658 1452,-652 1458,-646 1464,-646 1464,-646 1636,-646 1636,-646 1642,-646 1648,-652 1648,-658 1648,-658 1648,-670 1648,-670 1648,-676 1642,-682 1636,-682"/>
<text text-anchor="start" x="1486.928" y="-662" font-family="arial" font-weight="bold" font-size="10.00" fill="#000000">Redating the BCL &#45; COA.3.2</text>
</g>
<!-- n10&#45;&gt;n37 -->
<g id="edge57" class="edge">
<title>n10&#45;&gt;n37</title>
<path fill="none" stroke="#ff0000" d="M1516.8628,-1445.6397C1555.4749,-1382.667 1647,-1217.4273 1647,-1066 1647,-1066 1647,-1066 1647,-942 1647,-860.4108 1654.0663,-835.4432 1623,-760 1612.1457,-733.6406 1592.1891,-708.1657 1575.8821,-690.0901"/>
<polygon fill="#ff0000" stroke="#ff0000" points="1578.0558,-687.2864 1568.6923,-682.3292 1572.9207,-692.0436 1578.0558,-687.2864"/>
</g>
<!-- n11 -->
<g id="node15" class="node">
<title>n11</title>
<path fill="#ffffff" stroke="#f5f5dc" stroke-width="2" d="M1512,-68C1512,-68 1340,-68 1340,-68 1334,-68 1328,-62 1328,-56 1328,-56 1328,-28 1328,-28 1328,-22 1334,-16 1340,-16 1340,-16 1512,-16 1512,-16 1518,-16 1524,-22 1524,-28 1524,-28 1524,-56 1524,-56 1524,-62 1518,-68 1512,-68"/>
<text text-anchor="start" x="1386.8265" y="-54" font-family="arial" font-weight="bold" font-size="10.00" fill="#000000">Some BCL as ML</text>
<text text-anchor="start" x="1338.482" y="-37" font-family="arial" font-size="10.00" fill="#000000">Some part of the black Culm Limestone</text>
<text text-anchor="start" x="1361.543" y="-25" font-family="arial" font-size="10.00" fill="#000000"> is ML in age #pri #chron&#45;hyp</text>
</g>
<!-- n11&#45;&gt;n34 -->
<g id="edge26" class="edge">
<title>n11&#45;&gt;n34</title>
<path fill="none" stroke="#ff0000" d="M1327.9924,-61.6325C1284.0583,-75.7536 1236.119,-99.7044 1209,-140 1078.8757,-333.3492 1189,-430.9415 1189,-664 1189,-1066 1189,-1066 1189,-1066 1189,-1146.4817 1236.1969,-1229.6125 1270.6382,-1279.5616"/>
<polygon fill="#ff0000" stroke="#ff0000" points="1267.8702,-1281.7104 1276.476,-1287.8903 1273.6024,-1277.6926 1267.8702,-1281.7104"/>
</g>
<!-- n11&#45;&gt;n35 -->
<g id="edge35" class="edge">
<title>n11&#45;&gt;n35</title>
<path fill="none" stroke="#ff0000" d="M1344.9823,-68.0902C1311.089,-83.408 1274.9924,-106.5052 1255,-140 1202.1352,-228.5682 1250.3334,-268.863 1249,-372 1248.7012,-395.1092 1247.1702,-400.9614 1249,-424 1250.0031,-436.6302 1312.3766,-865.1175 1321,-874.4 1375.7064,-933.2878 1447.1278,-852.9657 1497,-916 1529.1269,-956.6058 1478.8156,-1010.3563 1442.3361,-1041.2606"/>
<polygon fill="#ff0000" stroke="#ff0000" points="1439.8206,-1038.7988 1434.3383,-1047.8649 1444.2777,-1044.1964 1439.8206,-1038.7988"/>
</g>
<!-- n11&#45;&gt;n36 -->
<g id="edge43" class="edge">
<title>n11&#45;&gt;n36</title>
<path fill="none" stroke="#ff0000" d="M1443.9475,-68.1154C1455.9644,-87.1298 1470.8454,-114.0016 1478,-140 1488.511,-178.1949 1488.5939,-224.3114 1487.1928,-253.4042"/>
<polygon fill="#ff0000" stroke="#ff0000" points="1483.6825,-253.4842 1486.6019,-263.6688 1490.6709,-253.8866 1483.6825,-253.4842"/>
</g>
<!-- n11&#45;&gt;n37 -->
<g id="edge58" class="edge">
<title>n11&#45;&gt;n37</title>
<path fill="none" stroke="#ff0000" d="M1476.7019,-68.1373C1541.9486,-105.8253 1647,-182.0284 1647,-282 1647,-398 1647,-398 1647,-398 1647,-470.5466 1653.9142,-492.6306 1627,-560 1615.133,-589.7046 1592.6473,-618.5381 1575.0257,-638.2807"/>
<polygon fill="#ff0000" stroke="#ff0000" points="1572.223,-636.1592 1568.0596,-645.9018 1577.3898,-640.882 1572.223,-636.1592"/>
</g>
<!-- n12 -->
<g id="node16" class="node">
<title>n12</title>
<path fill="#ffffff" stroke="#f5f5dc" stroke-width="2" d="M1442,-424C1442,-424 1270,-424 1270,-424 1264,-424 1258,-418 1258,-412 1258,-412 1258,-384 1258,-384 1258,-378 1264,-372 1270,-372 1270,-372 1442,-372 1442,-372 1448,-372 1454,-378 1454,-384 1454,-384 1454,-412 1454,-412 1454,-418 1448,-424 1442,-424"/>
<text text-anchor="start" x="1312.937" y="-410" font-family="arial" font-weight="bold" font-size="10.00" fill="#000000">Some BCL as ORS</text>
<text text-anchor="start" x="1268.482" y="-393" font-family="arial" font-size="10.00" fill="#000000">Some part of the black Culm Limestone</text>
<text text-anchor="start" x="1287.6535" y="-381" font-family="arial" font-size="10.00" fill="#000000"> is ORS in age #pri #chron&#45;hyp</text>
</g>
<!-- n12&#45;&gt;n34 -->
<g id="edge27" class="edge">
<title>n12&#45;&gt;n34</title>
<path fill="none" stroke="#ff0000" d="M1323.4704,-424.2607C1304.1694,-441.8248 1281.1621,-466.6688 1269,-494 1214.9261,-615.5168 1238.6499,-959.1027 1244,-1092 1246.224,-1147.2453 1239.7309,-1162.583 1254,-1216 1259.739,-1237.4842 1269.5514,-1259.9003 1279.1166,-1278.8489"/>
<polygon fill="#ff0000" stroke="#ff0000" points="1276.0708,-1280.5785 1283.7735,-1287.853 1282.2884,-1277.3628 1276.0708,-1280.5785"/>
</g>
<!-- n12&#45;&gt;n35 -->
<g id="edge36" class="edge">
<title>n12&#45;&gt;n35</title>
<path fill="none" stroke="#ff0000" d="M1334.7516,-424.0455C1320.877,-442.4692 1303.6114,-468.3628 1294,-494 1234.5686,-652.5259 1269.4829,-705.1601 1274,-874.4 1275.1115,-916.0445 1259.3594,-931.2611 1279,-968 1296.8389,-1001.3688 1331.5866,-1026.5468 1360.814,-1043.0225"/>
<polygon fill="#ff0000" stroke="#ff0000" points="1359.227,-1046.1436 1369.6826,-1047.8557 1362.5767,-1039.9971 1359.227,-1046.1436"/>
</g>
<!-- n12&#45;&gt;n36 -->
<g id="edge44" class="edge">
<title>n12&#45;&gt;n36</title>
<path fill="none" stroke="#ff0000" d="M1384.9501,-371.9673C1406.6504,-352.4539 1436.1579,-325.92 1457.4995,-306.7291"/>
<polygon fill="#ff0000" stroke="#ff0000" points="1459.8676,-309.3066 1464.9632,-300.0176 1455.1871,-304.1015 1459.8676,-309.3066"/>
</g>
<!-- n12&#45;&gt;n37 -->
<g id="edge97" class="edge">
<title>n12&#45;&gt;n37</title>
<path fill="none" stroke="#00ff00" d="M1454.2013,-421.622C1519.7769,-439.611 1597.455,-465.9859 1617,-494 1648.9285,-539.7636 1605.3492,-602.8974 1574.9517,-637.9257"/>
<polygon fill="#00ff00" stroke="#00ff00" points="1571.9858,-635.9926 1567.9407,-645.7849 1577.2094,-640.6525 1571.9858,-635.9926"/>
</g>
<!-- n13 -->
<g id="node17" class="node">
<title>n13</title>
<path fill="#ffffff" stroke="#f5f5dc" stroke-width="2" d="M1514,-832C1514,-832 1342,-832 1342,-832 1336,-832 1330,-826 1330,-820 1330,-820 1330,-792 1330,-792 1330,-786 1336,-780 1342,-780 1342,-780 1514,-780 1514,-780 1520,-780 1526,-786 1526,-792 1526,-792 1526,-820 1526,-820 1526,-826 1520,-832 1514,-832"/>
<text text-anchor="start" x="1388.267" y="-818" font-family="arial" font-weight="bold" font-size="10.00" fill="#000000">Some BCL as SIL</text>
<text text-anchor="start" x="1340.482" y="-801" font-family="arial" font-size="10.00" fill="#000000">Some part of the black Culm Limestone</text>
<text text-anchor="start" x="1362.9835" y="-789" font-family="arial" font-size="10.00" fill="#000000"> is SIL in age #pri #chron&#45;hyp</text>
</g>
<!-- n13&#45;&gt;n34 -->
<g id="edge28" class="edge">
<title>n13&#45;&gt;n34</title>
<path fill="none" stroke="#ff0000" d="M1369.6939,-832.171C1336.5512,-850.4741 1297.9795,-878.397 1279,-916 1219.0465,-1034.7825 1260.7909,-1198.1281 1287.8655,-1278.042"/>
<polygon fill="#ff0000" stroke="#ff0000" points="1284.6735,-1279.521 1291.2498,-1287.8278 1291.2891,-1277.233 1284.6735,-1279.521"/>
</g>
<!-- n13&#45;&gt;n35 -->
<g id="edge37" class="edge">
<title>n13&#45;&gt;n35</title>
<path fill="none" stroke="#ff0000" d="M1457.498,-832.0664C1489.3971,-863.5948 1533.0449,-918.5962 1512,-968 1498.8858,-998.7863 1470.833,-1024.5646 1447.4605,-1041.9436"/>
<polygon fill="#ff0000" stroke="#ff0000" points="1445.1712,-1039.2789 1439.0976,-1047.9601 1449.2592,-1044.9612 1445.1712,-1039.2789"/>
</g>
<!-- n13&#45;&gt;n36 -->
<g id="edge45" class="edge">
<title>n13&#45;&gt;n36</title>
<path fill="none" stroke="#ff0000" d="M1408.6331,-779.5713C1394.2593,-758.2256 1375.8475,-726.7752 1368,-696 1345.817,-609.0059 1324.7981,-572.6997 1368,-494 1395.8853,-443.202 1448.8722,-474.0959 1478,-424 1498.4208,-388.8791 1495.4763,-340.2201 1490.7703,-309.9498"/>
<polygon fill="#ff0000" stroke="#ff0000" points="1494.2139,-309.323 1489.0676,-300.062 1487.3155,-310.5109 1494.2139,-309.323"/>
</g>
<!-- n13&#45;&gt;n37 -->
<g id="edge98" class="edge">
<title>n13&#45;&gt;n37</title>
<path fill="none" stroke="#00ff00" d="M1450.3767,-779.955C1472.3502,-754.3793 1505.6825,-715.5826 1527.6476,-690.0167"/>
<polygon fill="#00ff00" stroke="#00ff00" points="1530.489,-692.0804 1534.3509,-682.2145 1525.1794,-687.5187 1530.489,-692.0804"/>
</g>
<!-- n14 -->
<g id="node18" class="node">
<title>n14</title>
<path fill="#ffffff" stroke="#f5f5dc" stroke-width="2" d="M1596,-1216C1596,-1216 1424,-1216 1424,-1216 1418,-1216 1412,-1210 1412,-1204 1412,-1204 1412,-1176 1412,-1176 1412,-1170 1418,-1164 1424,-1164 1424,-1164 1596,-1164 1596,-1164 1602,-1164 1608,-1170 1608,-1176 1608,-1176 1608,-1204 1608,-1204 1608,-1210 1602,-1216 1596,-1216"/>
<text text-anchor="start" x="1466.662" y="-1202" font-family="arial" font-weight="bold" font-size="10.00" fill="#000000">Some BCL as CAM</text>
<text text-anchor="start" x="1422.482" y="-1185" font-family="arial" font-size="10.00" fill="#000000">Some part of the black Culm Limestone</text>
<text text-anchor="start" x="1441.3785" y="-1173" font-family="arial" font-size="10.00" fill="#000000"> is CAM in age #pri #chron&#45;hyp</text>
</g>
<!-- n14&#45;&gt;n35 -->
<g id="edge99" class="edge">
<title>n14&#45;&gt;n35</title>
<path fill="none" stroke="#00ff00" d="M1488.7926,-1163.7028C1471.7864,-1142.6151 1448.0391,-1113.1685 1431.0695,-1092.1262"/>
<polygon fill="#00ff00" stroke="#00ff00" points="1433.7036,-1089.817 1424.7016,-1084.23 1428.2547,-1094.2113 1433.7036,-1089.817"/>
</g>
<!-- n14&#45;&gt;n36 -->
<g id="edge46" class="edge">
<title>n14&#45;&gt;n36</title>
<path fill="none" stroke="#ff0000" d="M1515.5107,-1163.9291C1519.427,-1144.2598 1524.4303,-1116.5591 1527,-1092 1537.0711,-995.749 1533.2219,-971.1601 1535,-874.4 1535.9342,-823.5641 1562.8676,-802.5271 1535,-760 1495.9445,-700.3997 1427.0555,-755.6003 1388,-696 1363.3966,-658.4542 1367.0855,-533.719 1388,-494 1413.617,-445.3504 1464.383,-472.6496 1490,-424 1508.8144,-388.2694 1501.5226,-340.1714 1493.8186,-310.1327"/>
<polygon fill="#ff0000" stroke="#ff0000" points="1497.1441,-309.0253 1491.1186,-300.3107 1490.3945,-310.8808 1497.1441,-309.0253"/>
</g>
<!-- n14&#45;&gt;n37 -->
<g id="edge59" class="edge">
<title>n14&#45;&gt;n37</title>
<path fill="none" stroke="#ff0000" d="M1550.1898,-1163.8915C1572.9787,-1146.5648 1599.3925,-1121.5966 1612,-1092 1640.9142,-1024.1227 1630.7938,-830.7883 1610,-760 1602.4787,-734.3952 1586.0568,-708.9451 1572.2918,-690.6887"/>
<polygon fill="#ff0000" stroke="#ff0000" points="1574.699,-688.0825 1565.7985,-682.3352 1569.1723,-692.3785 1574.699,-688.0825"/>
</g>
<!-- n15 -->
<g id="node19" class="node">
<title>n15</title>
<path fill="#ffffff" stroke="#f5f5dc" stroke-width="2" d="M1372,-1504C1372,-1504 1200,-1504 1200,-1504 1194,-1504 1188,-1498 1188,-1492 1188,-1492 1188,-1452 1188,-1452 1188,-1446 1194,-1440 1200,-1440 1200,-1440 1372,-1440 1372,-1440 1378,-1440 1384,-1446 1384,-1452 1384,-1452 1384,-1492 1384,-1492 1384,-1498 1378,-1504 1372,-1504"/>
<text text-anchor="start" x="1208.219" y="-1490" font-family="arial" font-weight="bold" font-size="10.00" fill="#000000">BCL as Post&#45;Primary and Pre&#45;NRS</text>
<text text-anchor="start" x="1198.207" y="-1473" font-family="arial" font-size="10.00" fill="#000000">The black Culm Limestone is older than</text>
<text text-anchor="start" x="1201.8165" y="-1461" font-family="arial" font-size="10.00" fill="#000000"> Primary strata and younger than New</text>
<text text-anchor="start" x="1200.1415" y="-1449" font-family="arial" font-size="10.00" fill="#000000"> Red Sandstone strata #pri #chron&#45;hyp</text>
</g>
<!-- n15&#45;&gt;n34 -->
<g id="edge100" class="edge">
<title>n15&#45;&gt;n34</title>
<path fill="none" stroke="#00ff00" d="M1290.3891,-1439.9597C1293.0296,-1420.6842 1296.4417,-1395.7755 1299.4022,-1374.1639"/>
<polygon fill="#00ff00" stroke="#00ff00" points="1302.8803,-1374.562 1300.7699,-1364.1795 1295.945,-1373.6119 1302.8803,-1374.562"/>
</g>
<!-- n16 -->
<g id="node20" class="node">
<title>n16</title>
<path fill="#ffffff" stroke="#b8860b" stroke-width="2" d="M1476,-968C1476,-968 1300,-968 1300,-968 1294,-968 1288,-962 1288,-956 1288,-956 1288,-928 1288,-928 1288,-922 1294,-916 1300,-916 1300,-916 1476,-916 1476,-916 1482,-916 1488,-922 1488,-928 1488,-928 1488,-956 1488,-956 1488,-962 1482,-968 1476,-968"/>
<text text-anchor="start" x="1359.1095" y="-954" font-family="arial" font-weight="bold" font-size="10.00" fill="#000000">BCL as CAM</text>
<text text-anchor="start" x="1297.7025" y="-937" font-family="arial" font-size="10.00" fill="#000000">The black Culm Limestone is nothing but</text>
<text text-anchor="start" x="1307.1505" y="-925" font-family="arial" font-size="10.00" fill="#000000"> Cambrian in age #GRE #chron&#45;hyp </text>
</g>
<!-- n16&#45;&gt;n10 -->
<g id="edge29" class="edge">
<title>n16&#45;&gt;n10</title>
<path fill="none" stroke="#ff0000" d="M1355.6765,-968.2931C1336.3476,-986.2005 1313.5534,-1011.7259 1303,-1040 1294.9183,-1061.652 1297.1545,-1069.6404 1303,-1092 1328.266,-1188.6442 1378.4525,-1194.272 1413,-1288 1424.9073,-1320.3048 1414.8647,-1332.1747 1428,-1364 1438.9565,-1390.5464 1456.8476,-1417.4271 1472.0536,-1437.7304"/>
<polygon fill="#ff0000" stroke="#ff0000" points="1469.3105,-1439.9053 1478.1607,-1445.7299 1474.8745,-1435.6575 1469.3105,-1439.9053"/>
</g>
<!-- n16&#45;&gt;n11 -->
<g id="edge30" class="edge">
<title>n16&#45;&gt;n11</title>
<path fill="none" stroke="#ff0000" d="M1320.1546,-915.8835C1302.0154,-905.6506 1284.3255,-892.0357 1273,-874.4 1199.3614,-759.7324 1203.1154,-399.8412 1214,-264 1218.4587,-208.355 1201.1399,-185.1271 1234,-140 1256.4522,-109.1662 1291.4586,-87.3506 1325.4646,-72.2597"/>
<polygon fill="#ff0000" stroke="#ff0000" points="1327.1964,-75.326 1335.0182,-68.1797 1324.4471,-68.8884 1327.1964,-75.326"/>
</g>
<!-- n16&#45;&gt;n12 -->
<g id="edge31" class="edge">
<title>n16&#45;&gt;n12</title>
<path fill="none" stroke="#ff0000" d="M1342.5287,-915.8762C1328.1037,-905.0526 1313.8699,-891.0873 1306,-874.4 1234.6715,-723.1557 1306.2404,-515.5931 1340.2333,-433.4914"/>
<polygon fill="#ff0000" stroke="#ff0000" points="1343.527,-434.6878 1344.1804,-424.1131 1337.0752,-431.9723 1343.527,-434.6878"/>
</g>
<!-- n16&#45;&gt;n13 -->
<g id="edge32" class="edge">
<title>n16&#45;&gt;n13</title>
<path fill="none" stroke="#ff0000" d="M1395.7124,-915.7778C1401.8824,-894.7997 1410.5999,-865.1605 1417.4217,-841.9663"/>
<polygon fill="#ff0000" stroke="#ff0000" points="1420.8473,-842.7229 1420.3113,-832.1417 1414.1318,-840.7477 1420.8473,-842.7229"/>
</g>
<!-- n16&#45;&gt;n14 -->
<g id="edge33" class="edge">
<title>n16&#45;&gt;n14</title>
<path fill="none" stroke="#00ff00" d="M1442.8255,-968.1793C1470.501,-984.5961 1501.437,-1008.6323 1517,-1040 1534.7218,-1075.7187 1528.7691,-1122.2991 1521.105,-1154.0129"/>
<polygon fill="#00ff00" stroke="#00ff00" points="1517.701,-1153.1967 1518.5843,-1163.7546 1524.4778,-1154.9502 1517.701,-1153.1967"/>
</g>
<!-- n17 -->
<g id="node21" class="node">
<title>n17</title>
<path fill="#ffffff" stroke="#ff8c00" stroke-width="2" d="M1456.5,-192C1456.5,-192 1275.5,-192 1275.5,-192 1269.5,-192 1263.5,-186 1263.5,-180 1263.5,-180 1263.5,-152 1263.5,-152 1263.5,-146 1269.5,-140 1275.5,-140 1275.5,-140 1456.5,-140 1456.5,-140 1462.5,-140 1468.5,-146 1468.5,-152 1468.5,-152 1468.5,-180 1468.5,-180 1468.5,-186 1462.5,-192 1456.5,-192"/>
<text text-anchor="start" x="1340.944" y="-178" font-family="arial" font-weight="bold" font-size="10.00" fill="#000000">BCL as CM</text>
<text text-anchor="start" x="1276.2025" y="-161" font-family="arial" font-size="10.00" fill="#000000">The black Culm Limestone is nothing but</text>
<text text-anchor="start" x="1273.702" y="-149" font-family="arial" font-size="10.00" fill="#000000"> Coal Mesaures in age #COA #chron&#45;hyp </text>
</g>
<!-- n17&#45;&gt;n10 -->
<g id="edge38" class="edge">
<title>n17&#45;&gt;n10</title>
<path fill="none" stroke="#00ff00" d="M1346.1415,-192.2648C1318.9284,-229.843 1270.9301,-302.1508 1249,-372 1190.9759,-556.8117 1209,-612.2936 1209,-806 1209,-1066 1209,-1066 1209,-1066 1209,-1164.7667 1201.2228,-1189.2583 1199,-1288 1198.2398,-1321.7692 1179.4611,-1336.4469 1199,-1364 1251.8507,-1438.5283 1307.0938,-1400.8908 1393,-1432 1402.2303,-1435.3426 1411.8915,-1438.888 1421.4719,-1442.4329"/>
<polygon fill="#00ff00" stroke="#00ff00" points="1420.4135,-1445.7733 1431.0065,-1445.9701 1422.8483,-1439.2103 1420.4135,-1445.7733"/>
</g>
<!-- n17&#45;&gt;n11 -->
<g id="edge39" class="edge">
<title>n17&#45;&gt;n11</title>
<path fill="none" stroke="#ff0000" d="M1378.7245,-139.7028C1387.5146,-121.5366 1399.3063,-97.167 1408.914,-77.311"/>
<polygon fill="#ff0000" stroke="#ff0000" points="1412.0888,-78.7854 1413.2939,-68.2593 1405.7877,-75.7364 1412.0888,-78.7854"/>
</g>
<!-- n17&#45;&gt;n12 -->
<g id="edge40" class="edge">
<title>n17&#45;&gt;n12</title>
<path fill="none" stroke="#ff0000" d="M1364.8764,-192.0668C1363.0888,-233.5405 1359.5921,-314.6641 1357.5618,-361.7663"/>
<polygon fill="#ff0000" stroke="#ff0000" points="1354.0617,-361.6961 1357.1277,-371.8376 1361.0552,-361.9977 1354.0617,-361.6961"/>
</g>
<!-- n17&#45;&gt;n13 -->
<g id="edge41" class="edge">
<title>n17&#45;&gt;n13</title>
<path fill="none" stroke="#ff0000" d="M1362.7208,-192.0482C1360.3945,-220.2915 1360.303,-265.896 1378,-300 1400.8036,-343.9449 1442.1809,-327.0809 1463,-372 1472.7184,-392.9684 1474.6176,-404.0211 1463,-424 1431.3814,-478.3747 1371.6186,-439.6253 1340,-494 1317.4215,-532.8284 1331.8912,-653.7016 1347,-696 1357.1416,-724.3923 1377.185,-751.7117 1394.7953,-772.0224"/>
<polygon fill="#ff0000" stroke="#ff0000" points="1392.3883,-774.5825 1401.6507,-779.7263 1397.6177,-769.9291 1392.3883,-774.5825"/>
</g>
<!-- n17&#45;&gt;n14 -->
<g id="edge42" class="edge">
<title>n17&#45;&gt;n14</title>
<path fill="none" stroke="#ff0000" d="M1468.6616,-184.1272C1514.5547,-197.8987 1564.4272,-221.9901 1592,-264 1637.0099,-332.577 1558.3849,-366.3814 1500,-424 1462.1595,-461.3439 1427.2122,-446.6688 1403,-494 1382.4007,-534.2684 1401.4323,-659.3936 1428,-696 1463.0437,-744.285 1515.4839,-708.7333 1546,-760 1622.2477,-888.0952 1558.2093,-1076.8583 1525.9054,-1154.5799"/>
<polygon fill="#ff0000" stroke="#ff0000" points="1522.6228,-1153.3562 1521.9481,-1163.9295 1529.0691,-1156.0847 1522.6228,-1153.3562"/>
</g>
<!-- n18 -->
<g id="node22" class="node">
<title>n18</title>
<path fill="#ffffff" stroke="#ff8c00" stroke-width="2" d="M1696,-1644C1696,-1644 1520,-1644 1520,-1644 1514,-1644 1508,-1638 1508,-1632 1508,-1632 1508,-1604 1508,-1604 1508,-1598 1514,-1592 1520,-1592 1520,-1592 1696,-1592 1696,-1592 1702,-1592 1708,-1598 1708,-1604 1708,-1604 1708,-1632 1708,-1632 1708,-1638 1702,-1644 1696,-1644"/>
<text text-anchor="start" x="1582.7145" y="-1630" font-family="arial" font-weight="bold" font-size="10.00" fill="#000000">BCL as SIL</text>
<text text-anchor="start" x="1517.7025" y="-1613" font-family="arial" font-size="10.00" fill="#000000">The black Culm Limestone is nothing but</text>
<text text-anchor="start" x="1541.313" y="-1601" font-family="arial" font-size="10.00" fill="#000000"> SIL in age #COA #chron&#45;hyp </text>
</g>
<!-- n18&#45;&gt;n10 -->
<g id="edge47" class="edge">
<title>n18&#45;&gt;n10</title>
<path fill="none" stroke="#ff0000" d="M1588.6918,-1591.8981C1571.0629,-1568.0665 1544.8797,-1532.6708 1525.5285,-1506.5108"/>
<polygon fill="#ff0000" stroke="#ff0000" points="1528.2661,-1504.3262 1519.5052,-1498.3682 1522.6384,-1508.4891 1528.2661,-1504.3262"/>
</g>
<!-- n18&#45;&gt;n11 -->
<g id="edge48" class="edge">
<title>n18&#45;&gt;n11</title>
<path fill="none" stroke="#ff0000" d="M1623.4688,-1591.6454C1651.3125,-1541.6377 1707,-1428.7754 1707,-1326 1707,-1326 1707,-1326 1707,-282 1707,-176.9813 1592.1111,-108.1388 1509.2577,-72.1467"/>
<polygon fill="#ff0000" stroke="#ff0000" points="1510.4013,-68.8296 1499.8294,-68.1315 1507.6585,-75.2699 1510.4013,-68.8296"/>
</g>
<!-- n18&#45;&gt;n12 -->
<g id="edge49" class="edge">
<title>n18&#45;&gt;n12</title>
<path fill="none" stroke="#ff0000" d="M1507.8215,-1605.9919C1394.494,-1590.1656 1220.284,-1558.2925 1179,-1508 1127.5998,-1445.3838 1169,-1407.0109 1169,-1326 1169,-1326 1169,-1326 1169,-664 1169,-581.0554 1196.5141,-560.5653 1246,-494 1263.9686,-469.8297 1288.9543,-447.4153 1310.5723,-430.3337"/>
<polygon fill="#ff0000" stroke="#ff0000" points="1312.912,-432.9485 1318.6711,-424.0556 1308.6233,-427.4161 1312.912,-432.9485"/>
</g>
<!-- n18&#45;&gt;n13 -->
<g id="edge50" class="edge">
<title>n18&#45;&gt;n13</title>
<path fill="none" stroke="#00ff00" d="M1612.2564,-1591.8341C1622.8607,-1521.7259 1647.4884,-1324.1143 1617,-1164 1594.8309,-1047.576 1579.2957,-1018.0316 1519,-916 1502.6755,-888.376 1479.5896,-860.5599 1460.7556,-839.8106"/>
<polygon fill="#00ff00" stroke="#00ff00" points="1463.116,-837.2069 1453.7684,-832.2194 1457.9655,-841.9475 1463.116,-837.2069"/>
</g>
<!-- n18&#45;&gt;n14 -->
<g id="edge51" class="edge">
<title>n18&#45;&gt;n14</title>
<path fill="none" stroke="#ff0000" d="M1610.9099,-1591.8188C1614.2545,-1555.5356 1617.9796,-1488.0926 1607,-1432 1591.9105,-1354.9113 1552.7026,-1271.1277 1529.0107,-1225.1528"/>
<polygon fill="#ff0000" stroke="#ff0000" points="1532.0726,-1223.4548 1524.348,-1216.2036 1525.8647,-1226.6894 1532.0726,-1223.4548"/>
</g>
<!-- n19 -->
<g id="node23" class="node">
<title>n19</title>
<path fill="#ffffff" stroke="#ff8c00" stroke-width="2" d="M1596,-560C1596,-560 1424,-560 1424,-560 1418,-560 1412,-554 1412,-548 1412,-548 1412,-508 1412,-508 1412,-502 1418,-496 1424,-496 1424,-496 1596,-496 1596,-496 1602,-496 1608,-502 1608,-508 1608,-508 1608,-548 1608,-548 1608,-554 1602,-560 1596,-560"/>
<text text-anchor="start" x="1462.7635" y="-546" font-family="arial" font-weight="bold" font-size="10.00" fill="#000000">BCL as SIL and ORS</text>
<text text-anchor="start" x="1422.766" y="-529" font-family="arial" font-size="10.00" fill="#000000">The black Culm Limestone ranges from</text>
<text text-anchor="start" x="1426.363" y="-517" font-family="arial" font-size="10.00" fill="#000000"> Silurian to Old Red Sandstone in age</text>
<text text-anchor="start" x="1467.2125" y="-505" font-family="arial" font-size="10.00" fill="#000000"> #COA #chron&#45;hyp </text>
</g>
<!-- n19&#45;&gt;n10 -->
<g id="edge52" class="edge">
<title>n19&#45;&gt;n10</title>
<path fill="none" stroke="#ff0000" d="M1580.3264,-560.1782C1609.222,-577.2208 1639.8707,-601.1046 1657,-632 1694.56,-699.7454 1667,-728.5391 1667,-806 1667,-1066 1667,-1066 1667,-1066 1667,-1203.4857 1649.119,-1242.9139 1584,-1364 1569.5982,-1390.7796 1548.5965,-1417.7812 1531.1961,-1438.0872"/>
<polygon fill="#ff0000" stroke="#ff0000" points="1528.4055,-1435.9623 1524.481,-1445.8035 1533.686,-1440.5576 1528.4055,-1435.9623"/>
</g>
<!-- n19&#45;&gt;n11 -->
<g id="edge53" class="edge">
<title>n19&#45;&gt;n11</title>
<path fill="none" stroke="#ff0000" d="M1536.7871,-495.9712C1574.8647,-446.3752 1636.8865,-347.9522 1607,-264 1578.9951,-185.3334 1509.8546,-114.3522 1465.5915,-74.8201"/>
<polygon fill="#ff0000" stroke="#ff0000" points="1467.7189,-72.0297 1457.902,-68.0446 1463.0911,-77.2817 1467.7189,-72.0297"/>
</g>
<!-- n19&#45;&gt;n12 -->
<g id="edge54" class="edge">
<title>n19&#45;&gt;n12</title>
<path fill="none" stroke="#00ff00" d="M1471.9326,-495.8652C1448.4056,-476.0047 1418.298,-450.5892 1394.6614,-430.6363"/>
<polygon fill="#00ff00" stroke="#00ff00" points="1396.8116,-427.871 1386.9125,-424.0949 1392.2962,-433.22 1396.8116,-427.871"/>
</g>
<!-- n19&#45;&gt;n13 -->
<g id="edge55" class="edge">
<title>n19&#45;&gt;n13</title>
<path fill="none" stroke="#00ff00" d="M1475.383,-560.0434C1457.5055,-579.0069 1437.4928,-604.6284 1428,-632 1412.2343,-677.4588 1416.0867,-733.7069 1421.2483,-769.7213"/>
<polygon fill="#00ff00" stroke="#00ff00" points="1417.814,-770.4156 1422.7975,-779.7652 1424.7321,-769.3485 1417.814,-770.4156"/>
</g>
<!-- n19&#45;&gt;n14 -->
<g id="edge56" class="edge">
<title>n19&#45;&gt;n14</title>
<path fill="none" stroke="#ff0000" d="M1479.9616,-560.0966C1450.8422,-595.2718 1414.8809,-652.4834 1443,-696 1480.5702,-754.1428 1546.1358,-702.7141 1585,-760 1623.9642,-817.4333 1590.4441,-846.6143 1592,-916 1593.7537,-994.2026 1618.7025,-1018.4766 1592,-1092 1583.0544,-1116.631 1564.9054,-1139.3967 1547.9509,-1156.7744"/>
<polygon fill="#ff0000" stroke="#ff0000" points="1545.4214,-1154.3537 1540.7882,-1163.8818 1550.3519,-1159.3226 1545.4214,-1154.3537"/>
</g>
<!-- n34&#45;&gt;n14 -->
<g id="edge86" class="edge">
<title>n34&#45;&gt;n14</title>
<path fill="none" stroke="#00ff00" d="M1363.0966,-1287.9356C1394.3156,-1267.1229 1432.5463,-1241.6358 1462.1804,-1221.8797"/>
<polygon fill="#00ff00" stroke="#00ff00" points="1464.3108,-1224.666 1470.6899,-1216.2068 1460.4279,-1218.8416 1464.3108,-1224.666"/>
</g>
<!-- n35&#45;&gt;n16 -->
<g id="edge87" class="edge">
<title>n35&#45;&gt;n16</title>
<path fill="none" stroke="#00ff00" d="M1406.801,-1047.9693C1403.5766,-1029.7956 1398.5099,-1001.2373 1394.4483,-978.3448"/>
<polygon fill="#00ff00" stroke="#00ff00" points="1397.8563,-977.5178 1392.6631,-968.283 1390.9639,-978.7407 1397.8563,-977.5178"/>
</g>
<!-- n36&#45;&gt;n17 -->
<g id="edge88" class="edge">
<title>n36&#45;&gt;n17</title>
<path fill="none" stroke="#00ff00" d="M1466.4063,-263.875C1448.747,-246.661 1421.7702,-220.3642 1400.2246,-199.3618"/>
<polygon fill="#00ff00" stroke="#00ff00" points="1402.4582,-196.6513 1392.8543,-192.1773 1397.572,-201.6638 1402.4582,-196.6513"/>
</g>
<!-- n37&#45;&gt;n19 -->
<g id="edge89" class="edge">
<title>n37&#45;&gt;n19</title>
<path fill="none" stroke="#00ff00" d="M1544.6883,-645.9403C1539.0225,-626.6763 1529.8515,-595.4951 1522.3621,-570.0312"/>
<polygon fill="#00ff00" stroke="#00ff00" points="1525.6601,-568.8402 1519.4806,-560.2341 1518.9446,-570.8154 1525.6601,-568.8402"/>
</g>
<!-- n20 -->
<g id="node28" class="node">
<title>n20</title>
<path fill="#ffffff" stroke="#f5f5dc" stroke-width="2" d="M2136,-1644C2136,-1644 1964,-1644 1964,-1644 1958,-1644 1952,-1638 1952,-1632 1952,-1632 1952,-1604 1952,-1604 1952,-1598 1958,-1592 1964,-1592 1964,-1592 2136,-1592 2136,-1592 2142,-1592 2148,-1598 2148,-1604 2148,-1604 2148,-1632 2148,-1632 2148,-1638 2142,-1644 2136,-1644"/>
<text text-anchor="start" x="1997.224" y="-1630" font-family="arial" font-weight="bold" font-size="10.00" fill="#000000">Some Non&#45;Culm as CM</text>
<text text-anchor="start" x="1961.933" y="-1613" font-family="arial" font-size="10.00" fill="#000000">Some part of the non&#45;Culm strata is CM</text>
<text text-anchor="start" x="1998.8755" y="-1601" font-family="arial" font-size="10.00" fill="#000000"> in age #pri #chron&#45;hyp</text>
</g>
<!-- n38 -->
<g id="node36" class="node">
<title>n38</title>
<path fill="#f5f5dc" stroke="#000000" d="M1958,-1508C1958,-1508 1786,-1508 1786,-1508 1780,-1508 1774,-1502 1774,-1496 1774,-1496 1774,-1448 1774,-1448 1774,-1442 1780,-1436 1786,-1436 1786,-1436 1958,-1436 1958,-1436 1964,-1436 1970,-1442 1970,-1448 1970,-1448 1970,-1496 1970,-1496 1970,-1502 1964,-1508 1958,-1508"/>
<text text-anchor="start" x="1798.365" y="-1494" font-family="arial" font-weight="bold" font-size="10.00" fill="#000000">Standard Sequence as Partition &#45;</text>
<text text-anchor="start" x="1848.1145" y="-1484" font-family="arial" font-weight="bold" font-size="10.00" fill="#000000"> Non&#45;Culm</text>
<text text-anchor="start" x="1789.7625" y="-1469" font-family="arial" font-size="10.00" fill="#000000">If some part of the non&#45;Culm strata is</text>
<text text-anchor="start" x="1783.9245" y="-1457" font-family="arial" font-size="10.00" fill="#000000"> neiter CM, ML, OR nor SIL in age, then</text>
<text text-anchor="start" x="1799.49" y="-1445" font-family="arial" font-size="10.00" fill="#000000"> it is CAM in age #pri #chron&#45;hyp</text>
</g>
<!-- n20&#45;&gt;n38 -->
<g id="edge60" class="edge">
<title>n20&#45;&gt;n38</title>
<path fill="none" stroke="#ff0000" d="M2018.1772,-1591.8981C1992.0155,-1570.4397 1954.4232,-1539.6056 1923.9127,-1514.5801"/>
<polygon fill="#ff0000" stroke="#ff0000" points="1925.8676,-1511.6568 1915.9161,-1508.0211 1921.4283,-1517.0691 1925.8676,-1511.6568"/>
</g>
<!-- n39 -->
<g id="node37" class="node">
<title>n39</title>
<path fill="#b8860b" stroke="#000000" d="M2076,-1208C2076,-1208 1904,-1208 1904,-1208 1898,-1208 1892,-1202 1892,-1196 1892,-1196 1892,-1184 1892,-1184 1892,-1178 1898,-1172 1904,-1172 1904,-1172 2076,-1172 2076,-1172 2082,-1172 2088,-1178 2088,-1184 2088,-1184 2088,-1196 2088,-1196 2088,-1202 2082,-1208 2076,-1208"/>
<text text-anchor="start" x="1925.273" y="-1188" font-family="arial" font-weight="bold" font-size="10.00" fill="#000000">Dating the Non&#45;Culm&#45; GRE.1</text>
</g>
<!-- n20&#45;&gt;n39 -->
<g id="edge69" class="edge">
<title>n20&#45;&gt;n39</title>
<path fill="none" stroke="#ff0000" d="M2046.3371,-1591.871C2035.7179,-1516.1208 2004.9752,-1296.823 1993.9739,-1218.3468"/>
<polygon fill="#ff0000" stroke="#ff0000" points="1997.4112,-1217.6549 1992.5567,-1208.2377 1990.479,-1218.6268 1997.4112,-1217.6549"/>
</g>
<!-- n40 -->
<g id="node38" class="node">
<title>n40</title>
<path fill="#ff8c00" stroke="#000000" d="M1975.5,-824C1975.5,-824 1784.5,-824 1784.5,-824 1778.5,-824 1772.5,-818 1772.5,-812 1772.5,-812 1772.5,-800 1772.5,-800 1772.5,-794 1778.5,-788 1784.5,-788 1784.5,-788 1975.5,-788 1975.5,-788 1981.5,-788 1987.5,-794 1987.5,-800 1987.5,-800 1987.5,-812 1987.5,-812 1987.5,-818 1981.5,-824 1975.5,-824"/>
<text text-anchor="start" x="1782.7085" y="-804" font-family="arial" font-weight="bold" font-size="10.00" fill="#000000">Extending the Non&#45;Culm Upwards &#45; COA.2a</text>
</g>
<!-- n20&#45;&gt;n40 -->
<g id="edge80" class="edge">
<title>n20&#45;&gt;n40</title>
<path fill="none" stroke="#ff0000" d="M1976.5506,-1591.9847C1894.2363,-1562.485 1771.3563,-1517.2666 1765,-1508 1703.0896,-1417.743 1786.4816,-990.404 1812,-916 1822.6269,-885.0151 1843.2276,-853.6194 1858.982,-832.3451"/>
<polygon fill="#ff0000" stroke="#ff0000" points="1861.9358,-834.2418 1865.179,-824.1556 1856.3538,-830.0179 1861.9358,-834.2418"/>
</g>
<!-- n21 -->
<g id="node29" class="node">
<title>n21</title>
<path fill="#ffffff" stroke="#f5f5dc" stroke-width="2" d="M2136,-554C2136,-554 1964,-554 1964,-554 1958,-554 1952,-548 1952,-542 1952,-542 1952,-514 1952,-514 1952,-508 1958,-502 1964,-502 1964,-502 2136,-502 2136,-502 2142,-502 2148,-508 2148,-514 2148,-514 2148,-542 2148,-542 2148,-548 2142,-554 2136,-554"/>
<text text-anchor="start" x="1998.054" y="-540" font-family="arial" font-weight="bold" font-size="10.00" fill="#000000">Some Non&#45;Culm as ML</text>
<text text-anchor="start" x="1962.763" y="-523" font-family="arial" font-size="10.00" fill="#000000">Some part of the non&#45;Culm strata is ML</text>
<text text-anchor="start" x="1998.8755" y="-511" font-family="arial" font-size="10.00" fill="#000000"> in age #pri #chron&#45;hyp</text>
</g>
<!-- n21&#45;&gt;n38 -->
<g id="edge61" class="edge">
<title>n21&#45;&gt;n38</title>
<path fill="none" stroke="#ff0000" d="M2064.4598,-554.1591C2075.2406,-574.738 2089.5125,-604.443 2098,-632 2121.0773,-706.9267 2127,-727.5999 2127,-806 2127,-942 2127,-942 2127,-942 2127,-1137.4848 2132.4273,-1217.4978 2003,-1364 1981.7847,-1388.0141 1954.9645,-1411.1085 1931.1254,-1429.7339"/>
<polygon fill="#ff0000" stroke="#ff0000" points="1928.9468,-1426.994 1923.1676,-1435.8738 1933.2229,-1432.5362 1928.9468,-1426.994"/>
</g>
<!-- n21&#45;&gt;n39 -->
<g id="edge70" class="edge">
<title>n21&#45;&gt;n39</title>
<path fill="none" stroke="#ff0000" d="M2061.1186,-554.0073C2069.5277,-574.7512 2080.6724,-604.7452 2087,-632 2104.604,-707.8258 2107,-728.1575 2107,-806 2107,-942 2107,-942 2107,-942 2107,-1008.8147 2125.9369,-1031.7766 2097,-1092 2082.1662,-1122.8722 2052.9053,-1148.5957 2028.7272,-1165.9308"/>
<polygon fill="#ff0000" stroke="#ff0000" points="2026.6315,-1163.125 2020.419,-1171.7073 2030.6275,-1168.8723 2026.6315,-1163.125"/>
</g>
<!-- n21&#45;&gt;n40 -->
<g id="edge79" class="edge">
<title>n21&#45;&gt;n40</title>
<path fill="none" stroke="#ff0000" d="M1979.7145,-554.0603C1926.0442,-575.5543 1858.7013,-606.5399 1843,-632 1814.5766,-678.0894 1842.4428,-742.6655 1862.8269,-778.7862"/>
<polygon fill="#ff0000" stroke="#ff0000" points="1860,-780.8858 1868.0668,-787.7544 1866.044,-777.3544 1860,-780.8858"/>
</g>
<!-- n22 -->
<g id="node30" class="node">
<title>n22</title>
<path fill="#ffffff" stroke="#f5f5dc" stroke-width="2" d="M1922,-554C1922,-554 1744,-554 1744,-554 1738,-554 1732,-548 1732,-542 1732,-542 1732,-514 1732,-514 1732,-508 1738,-502 1744,-502 1744,-502 1922,-502 1922,-502 1928,-502 1934,-508 1934,-514 1934,-514 1934,-542 1934,-542 1934,-548 1928,-554 1922,-554"/>
<text text-anchor="start" x="1777.1645" y="-540" font-family="arial" font-weight="bold" font-size="10.00" fill="#000000">Some Non&#45;Culm as ORS</text>
<text text-anchor="start" x="1741.8735" y="-523" font-family="arial" font-size="10.00" fill="#000000">Some part of the non&#45;Culm strata is ORS</text>
<text text-anchor="start" x="1781.8755" y="-511" font-family="arial" font-size="10.00" fill="#000000"> in age #pri #chron&#45;hyp</text>
</g>
<!-- n22&#45;&gt;n38 -->
<g id="edge62" class="edge">
<title>n22&#45;&gt;n38</title>
<path fill="none" stroke="#ff0000" d="M1812.0185,-554.2284C1796.9598,-574.3678 1777.3886,-603.4759 1766,-632 1736.8137,-705.1007 1733,-727.2881 1733,-806 1733,-942 1733,-942 1733,-942 1733,-1130.3548 1695.2728,-1191.9812 1772,-1364 1782.8895,-1388.4137 1801.5782,-1410.9093 1819.8735,-1428.9776"/>
<polygon fill="#ff0000" stroke="#ff0000" points="1817.4813,-1431.5329 1827.1192,-1435.9331 1822.3289,-1426.483 1817.4813,-1431.5329"/>
</g>
<!-- n22&#45;&gt;n39 -->
<g id="edge71" class="edge">
<title>n22&#45;&gt;n39</title>
<path fill="none" stroke="#ff0000" d="M1820.0849,-554.21C1793.1899,-612.2011 1735.9202,-755.6472 1764,-874.4 1788.8902,-979.6634 1805.9184,-1007.1474 1873,-1092 1896.0311,-1121.1324 1928.9134,-1147.7402 1953.9568,-1165.8557"/>
<polygon fill="#ff0000" stroke="#ff0000" points="1951.9462,-1168.7206 1962.1237,-1171.665 1956.0037,-1163.0165 1951.9462,-1168.7206"/>
</g>
<!-- n22&#45;&gt;n40 -->
<g id="edge78" class="edge">
<title>n22&#45;&gt;n40</title>
<path fill="none" stroke="#ff0000" d="M1828.2328,-554.2851C1823.079,-587.6821 1816.9764,-646.8872 1828,-696 1834.7299,-725.983 1850.6026,-757.4104 1863.0541,-778.9587"/>
<polygon fill="#ff0000" stroke="#ff0000" points="1860.2075,-781.0206 1868.3164,-787.8394 1866.2296,-777.4521 1860.2075,-781.0206"/>
</g>
<!-- n23 -->
<g id="node31" class="node">
<title>n23</title>
<path fill="#ffffff" stroke="#f5f5dc" stroke-width="2" d="M2036,-968C2036,-968 1864,-968 1864,-968 1858,-968 1852,-962 1852,-956 1852,-956 1852,-928 1852,-928 1852,-922 1858,-916 1864,-916 1864,-916 2036,-916 2036,-916 2042,-916 2048,-922 2048,-928 2048,-928 2048,-956 2048,-956 2048,-962 2042,-968 2036,-968"/>
<text text-anchor="start" x="1897.4945" y="-954" font-family="arial" font-weight="bold" font-size="10.00" fill="#000000">Some Non&#45;Culm as SIL</text>
<text text-anchor="start" x="1862.2035" y="-937" font-family="arial" font-size="10.00" fill="#000000">Some part of the non&#45;Culm strata is SIL</text>
<text text-anchor="start" x="1898.8755" y="-925" font-family="arial" font-size="10.00" fill="#000000"> in age #pri #chron&#45;hyp</text>
</g>
<!-- n23&#45;&gt;n38 -->
<g id="edge63" class="edge">
<title>n23&#45;&gt;n38</title>
<path fill="none" stroke="#ff0000" d="M1925.6025,-968.2238C1909.0505,-987.0757 1887.6048,-1013.7081 1873,-1040 1816.0609,-1142.503 1803.3068,-1172.5159 1783,-1288 1777.1502,-1321.2674 1771.5884,-1332.2083 1783,-1364 1791.5469,-1387.811 1807.8649,-1410.1194 1824.2185,-1428.2083"/>
<polygon fill="#ff0000" stroke="#ff0000" points="1821.8244,-1430.7728 1831.2067,-1435.6945 1826.9414,-1425.9961 1821.8244,-1430.7728"/>
</g>
<!-- n23&#45;&gt;n39 -->
<g id="edge72" class="edge">
<title>n23&#45;&gt;n39</title>
<path fill="none" stroke="#ff0000" d="M1924.1435,-968.2451C1897.9648,-998.1579 1863.8691,-1048.5359 1883,-1092 1896.7983,-1123.3487 1926.1236,-1149.0426 1950.5899,-1166.2451"/>
<polygon fill="#ff0000" stroke="#ff0000" points="1948.7708,-1169.2407 1959.0078,-1171.971 1952.7078,-1163.4528 1948.7708,-1169.2407"/>
</g>
<!-- n23&#45;&gt;n40 -->
<g id="edge101" class="edge">
<title>n23&#45;&gt;n40</title>
<path fill="none" stroke="#00ff00" d="M1936.5033,-915.7778C1924.2978,-892.0644 1906.3962,-857.284 1894.0286,-833.2556"/>
<polygon fill="#00ff00" stroke="#00ff00" points="1897.1108,-831.5958 1889.4223,-824.3062 1890.8868,-834.7994 1897.1108,-831.5958"/>
</g>
<!-- n24 -->
<g id="node32" class="node">
<title>n24</title>
<path fill="#ffffff" stroke="#f5f5dc" stroke-width="2" d="M1982,-1352C1982,-1352 1804,-1352 1804,-1352 1798,-1352 1792,-1346 1792,-1340 1792,-1340 1792,-1312 1792,-1312 1792,-1306 1798,-1300 1804,-1300 1804,-1300 1982,-1300 1982,-1300 1988,-1300 1994,-1306 1994,-1312 1994,-1312 1994,-1340 1994,-1340 1994,-1346 1988,-1352 1982,-1352"/>
<text text-anchor="start" x="1836.8895" y="-1338" font-family="arial" font-weight="bold" font-size="10.00" fill="#000000">Some Non&#45;Culm as CAM</text>
<text text-anchor="start" x="1801.5985" y="-1321" font-family="arial" font-size="10.00" fill="#000000">Some part of the non&#45;Culm strata is CAM</text>
<text text-anchor="start" x="1841.8755" y="-1309" font-family="arial" font-size="10.00" fill="#000000"> in age #pri #chron&#45;hyp</text>
</g>
<!-- n24&#45;&gt;n39 -->
<g id="edge102" class="edge">
<title>n24&#45;&gt;n39</title>
<path fill="none" stroke="#00ff00" d="M1911.7026,-1299.7778C1928.7655,-1275.8545 1953.8621,-1240.6675 1971.0135,-1216.6203"/>
<polygon fill="#00ff00" stroke="#00ff00" points="1973.9861,-1218.48 1976.9433,-1208.3062 1968.2871,-1214.4153 1973.9861,-1218.48"/>
</g>
<!-- n24&#45;&gt;n40 -->
<g id="edge103" class="edge">
<title>n24&#45;&gt;n40</title>
<path fill="none" stroke="#00ff00" d="M1872.0406,-1299.8286C1856.4808,-1278.6248 1836.5401,-1247.2397 1828,-1216 1792.8402,-1087.386 1798.7991,-1046.0965 1828,-916 1834.7299,-886.017 1850.6026,-854.5896 1863.0541,-833.0413"/>
<polygon fill="#00ff00" stroke="#00ff00" points="1866.2296,-834.5479 1868.3164,-824.1606 1860.2075,-830.9794 1866.2296,-834.5479"/>
</g>
<!-- n25 -->
<g id="node33" class="node">
<title>n25</title>
<path fill="#ffffff" stroke="#f5f5dc" stroke-width="2" d="M1921.5,-1650C1921.5,-1650 1744.5,-1650 1744.5,-1650 1738.5,-1650 1732.5,-1644 1732.5,-1638 1732.5,-1638 1732.5,-1598 1732.5,-1598 1732.5,-1592 1738.5,-1586 1744.5,-1586 1744.5,-1586 1921.5,-1586 1921.5,-1586 1927.5,-1586 1933.5,-1592 1933.5,-1598 1933.5,-1598 1933.5,-1638 1933.5,-1638 1933.5,-1644 1927.5,-1650 1921.5,-1650"/>
<text text-anchor="start" x="1742.9465" y="-1636" font-family="arial" font-weight="bold" font-size="10.00" fill="#000000">Non&#45;Culm as Post&#45;Primary and Pre&#45;NRS</text>
<text text-anchor="start" x="1755.7065" y="-1619" font-family="arial" font-size="10.00" fill="#000000">The non&#45;Culm strata are older than</text>
<text text-anchor="start" x="1749.3165" y="-1607" font-family="arial" font-size="10.00" fill="#000000"> Primary strata and younger than New</text>
<text text-anchor="start" x="1747.6415" y="-1595" font-family="arial" font-size="10.00" fill="#000000"> Red Sandstone strata #pri #chron&#45;hyp</text>
</g>
<!-- n25&#45;&gt;n38 -->
<g id="edge104" class="edge">
<title>n25&#45;&gt;n38</title>
<path fill="none" stroke="#00ff00" d="M1841.5587,-1585.9597C1846.8865,-1566.0146 1853.8254,-1540.0382 1859.7326,-1517.9241"/>
<polygon fill="#00ff00" stroke="#00ff00" points="1863.1653,-1518.6354 1862.3646,-1508.0709 1856.4024,-1516.8288 1863.1653,-1518.6354"/>
</g>
<!-- n26 -->
<g id="node34" class="node">
<title>n26</title>
<path fill="#ffffff" stroke="#b8860b" stroke-width="2" d="M2076,-1092C2076,-1092 1904,-1092 1904,-1092 1898,-1092 1892,-1086 1892,-1080 1892,-1080 1892,-1052 1892,-1052 1892,-1046 1898,-1040 1904,-1040 1904,-1040 2076,-1040 2076,-1040 2082,-1040 2088,-1046 2088,-1052 2088,-1052 2088,-1080 2088,-1080 2088,-1086 2082,-1092 2076,-1092"/>
<text text-anchor="start" x="1948.337" y="-1078" font-family="arial" font-weight="bold" font-size="10.00" fill="#000000">Non&#45;Culm as CAM</text>
<text text-anchor="start" x="1913.316" y="-1061" font-family="arial" font-size="10.00" fill="#000000">The non&#45;Culm strata is nothing but</text>
<text text-anchor="start" x="1909.1505" y="-1049" font-family="arial" font-size="10.00" fill="#000000"> Cambrian in age #GRE #chron&#45;hyp </text>
</g>
<!-- n26&#45;&gt;n20 -->
<g id="edge64" class="edge">
<title>n26&#45;&gt;n20</title>
<path fill="none" stroke="#ff0000" d="M2032.6586,-1092.0692C2056.4211,-1109.2242 2083.8074,-1134.0274 2097,-1164 2160.5992,-1308.4929 2096.742,-1503.0533 2065.2921,-1582.2395"/>
<polygon fill="#ff0000" stroke="#ff0000" points="2061.949,-1581.1708 2061.4471,-1591.7537 2068.4391,-1583.7936 2061.949,-1581.1708"/>
</g>
<!-- n26&#45;&gt;n21 -->
<g id="edge65" class="edge">
<title>n26&#45;&gt;n21</title>
<path fill="none" stroke="#ff0000" d="M2020.7882,-1039.8818C2039.5321,-1021.8632 2061.7765,-996.1497 2072,-968 2123.6614,-825.7542 2082.3203,-640.5413 2060.8804,-563.7584"/>
<polygon fill="#ff0000" stroke="#ff0000" points="2064.2305,-562.7431 2058.1231,-554.0857 2057.4986,-564.6621 2064.2305,-562.7431"/>
</g>
<!-- n26&#45;&gt;n22 -->
<g id="edge66" class="edge">
<title>n26&#45;&gt;n22</title>
<path fill="none" stroke="#ff0000" d="M2014.5663,-1039.6463C2030.0581,-1021.1457 2048.66,-994.976 2057,-968 2068.0271,-932.3324 2077.0853,-663.4699 2057,-632 2040.9727,-606.8883 1976.3437,-578.3952 1920.599,-557.5907"/>
<polygon fill="#ff0000" stroke="#ff0000" points="1921.618,-554.2361 1911.0247,-554.0593 1919.1956,-560.8036 1921.618,-554.2361"/>
</g>
<!-- n26&#45;&gt;n23 -->
<g id="edge67" class="edge">
<title>n26&#45;&gt;n23</title>
<path fill="none" stroke="#ff0000" d="M1981.517,-1039.7028C1975.71,-1021.701 1967.9379,-997.6076 1961.5649,-977.8511"/>
<polygon fill="#ff0000" stroke="#ff0000" points="1964.8718,-976.7019 1958.4707,-968.2593 1958.2099,-978.8509 1964.8718,-976.7019"/>
</g>
<!-- n26&#45;&gt;n24 -->
<g id="edge68" class="edge">
<title>n26&#45;&gt;n24</title>
<path fill="none" stroke="#00ff00" d="M1947.3414,-1092.0692C1923.5789,-1109.2242 1896.1926,-1134.0274 1883,-1164 1865.2538,-1204.3182 1872.9103,-1255.8053 1881.5624,-1289.7859"/>
<polygon fill="#00ff00" stroke="#00ff00" points="1878.2642,-1290.9976 1884.2525,-1299.7378 1885.0217,-1289.1709 1878.2642,-1290.9976"/>
</g>
<!-- n27 -->
<g id="node35" class="node">
<title>n27</title>
<path fill="#ffffff" stroke="#ff8c00" stroke-width="2" d="M2036,-696C2036,-696 1864,-696 1864,-696 1858,-696 1852,-690 1852,-684 1852,-684 1852,-644 1852,-644 1852,-638 1858,-632 1864,-632 1864,-632 2036,-632 2036,-632 2042,-632 2048,-638 2048,-644 2048,-644 2048,-684 2048,-684 2048,-690 2042,-696 2036,-696"/>
<text text-anchor="start" x="1889.716" y="-682" font-family="arial" font-weight="bold" font-size="10.00" fill="#000000">Non&#45;Culm as SIL and CAM</text>
<text text-anchor="start" x="1869.1465" y="-665" font-family="arial" font-size="10.00" fill="#000000">In Devon, the non&#45;Culm strata range</text>
<text text-anchor="start" x="1861.934" y="-653" font-family="arial" font-size="10.00" fill="#000000"> from Cambrian to Silurian in age #COA</text>
<text text-anchor="start" x="1923.6045" y="-641" font-family="arial" font-size="10.00" fill="#000000"> #chron&#45;hyp</text>
</g>
<!-- n27&#45;&gt;n20 -->
<g id="edge73" class="edge">
<title>n27&#45;&gt;n20</title>
<path fill="none" stroke="#ff0000" d="M1978.6455,-696.2814C2033.283,-761.3165 2147,-914.8319 2147,-1066 2147,-1326 2147,-1326 2147,-1326 2147,-1409.0148 2133.0928,-1429.8831 2105,-1508 2095.6848,-1533.9025 2081.8031,-1561.6135 2070.3168,-1582.7422"/>
<polygon fill="#ff0000" stroke="#ff0000" points="2067.1617,-1581.2157 2065.3974,-1591.6626 2073.2914,-1584.5961 2067.1617,-1581.2157"/>
</g>
<!-- n27&#45;&gt;n21 -->
<g id="edge74" class="edge">
<title>n27&#45;&gt;n21</title>
<path fill="none" stroke="#ff0000" d="M1973.6986,-631.7699C1989.097,-610.828 2009.1481,-583.5586 2024.831,-562.2299"/>
<polygon fill="#ff0000" stroke="#ff0000" points="2027.7202,-564.2087 2030.8244,-554.0788 2022.0807,-560.062 2027.7202,-564.2087"/>
</g>
<!-- n27&#45;&gt;n22 -->
<g id="edge75" class="edge">
<title>n27&#45;&gt;n22</title>
<path fill="none" stroke="#ff0000" d="M1922.2726,-631.7699C1904.097,-610.6427 1880.3811,-583.0755 1861.9618,-561.665"/>
<polygon fill="#ff0000" stroke="#ff0000" points="1864.6104,-559.377 1855.4355,-554.0788 1859.3039,-563.9422 1864.6104,-559.377"/>
</g>
<!-- n27&#45;&gt;n23 -->
<g id="edge76" class="edge">
<title>n27&#45;&gt;n23</title>
<path fill="none" stroke="#00ff00" d="M1977.5514,-696.289C1990.7528,-713.8919 2005.1546,-736.7829 2012,-760 2026.3792,-808.7688 2030.4386,-827.0167 2012,-874.4 2007.1219,-886.9357 1998.7129,-898.5587 1989.6342,-908.5064"/>
<polygon fill="#00ff00" stroke="#00ff00" points="1987.0423,-906.1518 1982.6085,-915.7743 1992.0752,-911.017 1987.0423,-906.1518"/>
</g>
<!-- n27&#45;&gt;n24 -->
<g id="edge77" class="edge">
<title>n27&#45;&gt;n24</title>
<path fill="none" stroke="#00ff00" d="M1970.4592,-696.3694C1980.6176,-714.3591 1991.807,-737.5831 1997,-760 2002.7373,-784.7664 2012.4556,-854.2155 1997,-874.4 1953.8974,-930.6908 1886.1026,-859.7092 1843,-916 1828.9495,-934.3496 1841.8395,-944.918 1843,-968 1848.5626,-1078.6411 1850.135,-1106.6691 1868,-1216 1872.0712,-1240.9149 1878.3812,-1268.6292 1883.643,-1290.0066"/>
<polygon fill="#00ff00" stroke="#00ff00" points="1880.3081,-1291.0983 1886.1276,-1299.9518 1887.0994,-1289.4017 1880.3081,-1291.0983"/>
</g>
<!-- n38&#45;&gt;n24 -->
<g id="edge90" class="edge">
<title>n38&#45;&gt;n24</title>
<path fill="none" stroke="#00ff00" d="M1877.191,-1435.9101C1880.4205,-1413.4575 1884.5593,-1384.6832 1887.7919,-1362.2085"/>
<polygon fill="#00ff00" stroke="#00ff00" points="1891.293,-1362.451 1889.2524,-1352.0545 1884.3643,-1361.4543 1891.293,-1362.451"/>
</g>
<!-- n39&#45;&gt;n26 -->
<g id="edge91" class="edge">
<title>n39&#45;&gt;n26</title>
<path fill="none" stroke="#00ff00" d="M1990,-1171.9693C1990,-1153.7956 1990,-1125.2373 1990,-1102.3448"/>
<polygon fill="#00ff00" stroke="#00ff00" points="1993.5001,-1102.283 1990,-1092.283 1986.5001,-1102.283 1993.5001,-1102.283"/>
</g>
<!-- n40&#45;&gt;n27 -->
<g id="edge92" class="edge">
<title>n40&#45;&gt;n27</title>
<path fill="none" stroke="#00ff00" d="M1889.008,-787.7267C1899.2146,-767.0219 1916.1771,-732.6121 1929.6263,-705.3295"/>
<polygon fill="#00ff00" stroke="#00ff00" points="1932.9378,-706.5277 1934.2201,-696.0107 1926.6592,-703.4326 1932.9378,-706.5277"/>
</g>
<!-- n28 -->
<g id="node39" class="node">
<title>n28</title>
<path fill="#ffffff" stroke="#b8860b" stroke-width="2" d="M2574,-1650C2574,-1650 2402,-1650 2402,-1650 2396,-1650 2390,-1644 2390,-1638 2390,-1638 2390,-1598 2390,-1598 2390,-1592 2396,-1586 2402,-1586 2402,-1586 2574,-1586 2574,-1586 2580,-1586 2586,-1592 2586,-1598 2586,-1598 2586,-1638 2586,-1638 2586,-1644 2580,-1650 2574,-1650"/>
<text text-anchor="start" x="2439.944" y="-1636" font-family="arial" font-weight="bold" font-size="10.00" fill="#000000">Traversing Northward</text>
<text text-anchor="start" x="2408.5345" y="-1619" font-family="arial" font-size="10.00" fill="#000000">The strata south of Exmoor become</text>
<text text-anchor="start" x="2405.476" y="-1607" font-family="arial" font-size="10.00" fill="#000000"> progessively younger the furhter one</text>
<text text-anchor="start" x="2401.0405" y="-1595" font-family="arial" font-size="10.00" fill="#000000"> traverses northward #GRE #chron&#45;hyp</text>
</g>
<!-- n29 -->
<g id="node40" class="node">
<title>n29</title>
<path fill="#ffffff" stroke="#b8860b" stroke-width="2" d="M2360,-1656C2360,-1656 2184,-1656 2184,-1656 2178,-1656 2172,-1650 2172,-1644 2172,-1644 2172,-1592 2172,-1592 2172,-1586 2178,-1580 2184,-1580 2184,-1580 2360,-1580 2360,-1580 2366,-1580 2372,-1586 2372,-1592 2372,-1592 2372,-1644 2372,-1644 2372,-1650 2366,-1656 2360,-1656"/>
<text text-anchor="start" x="2195.8685" y="-1642" font-family="arial" font-weight="bold" font-size="10.00" fill="#000000">Exmoor Youngest Devonian strata</text>
<text text-anchor="start" x="2192.812" y="-1625" font-family="arial" font-size="10.00" fill="#000000">In Devon, among all the strata older</text>
<text text-anchor="start" x="2181.6885" y="-1613" font-family="arial" font-size="10.00" fill="#000000"> than the New Red Sandstone, the strata</text>
<text text-anchor="start" x="2194.1995" y="-1601" font-family="arial" font-size="10.00" fill="#000000"> of Exmoor are the youngest #GRE</text>
<text text-anchor="start" x="2245.6045" y="-1589" font-family="arial" font-size="10.00" fill="#000000"> #chron&#45;hyp</text>
</g>
<!-- n30 -->
<g id="node41" class="node">
<title>n30</title>
<path fill="#ffffff" stroke="#ff8c00" stroke-width="2" d="M2367.5,-1504C2367.5,-1504 2184.5,-1504 2184.5,-1504 2178.5,-1504 2172.5,-1498 2172.5,-1492 2172.5,-1492 2172.5,-1452 2172.5,-1452 2172.5,-1446 2178.5,-1440 2184.5,-1440 2184.5,-1440 2367.5,-1440 2367.5,-1440 2373.5,-1440 2379.5,-1446 2379.5,-1452 2379.5,-1452 2379.5,-1492 2379.5,-1492 2379.5,-1498 2373.5,-1504 2367.5,-1504"/>
<text text-anchor="start" x="2205.0935" y="-1490" font-family="arial" font-weight="bold" font-size="10.00" fill="#000000">Culm Youngest Devonian Strata</text>
<text text-anchor="start" x="2197.312" y="-1473" font-family="arial" font-size="10.00" fill="#000000">In Devon, among all the strata older</text>
<text text-anchor="start" x="2187.028" y="-1461" font-family="arial" font-size="10.00" fill="#000000"> than the New Red Sandstone, the Culm</text>
<text text-anchor="start" x="2182.5825" y="-1449" font-family="arial" font-size="10.00" fill="#000000"> strata are the youngest #COA #chron&#45;hyp</text>
</g>
<!-- n29&#45;&gt;n30 -->
<g id="edge82" class="edge">
<title>n29&#45;&gt;n30</title>
<path fill="none" stroke="#ff0000" d="M2267.0277,-1579.6402C2266.6673,-1559.5475 2267.288,-1534.8969 2268.6552,-1514.2577"/>
<polygon fill="#ff0000" stroke="#ff0000" points="2272.1531,-1514.4153 2269.4109,-1504.1815 2265.1727,-1513.8917 2272.1531,-1514.4153"/>
</g>
<!-- n30&#45;&gt;n29 -->
<g id="edge81" class="edge">
<title>n30&#45;&gt;n29</title>
<path fill="none" stroke="#ff0000" d="M2280.8258,-1504.1815C2281.3977,-1523.3076 2280.9547,-1547.9429 2279.7346,-1569.4001"/>
<polygon fill="#ff0000" stroke="#ff0000" points="2276.2251,-1569.4357 2279.0742,-1579.6402 2283.2106,-1569.8862 2276.2251,-1569.4357"/>
</g>
</g>
</svg>
