
<!-- Generated by graphviz version 2.40.1 (20161225.0304)
 -->
<!-- Title: Argument Map Pages: 1 -->
<svg width="720pt" height="157pt"
 viewBox="0.00 0.00 720.00 157.34" xmlns="http://www.w3.org/2000/svg" xmlns:xlink="http://www.w3.org/1999/xlink">
<g id="graph0" class="graph" transform="scale(.2053 .2053) rotate(0) translate(4 762.4)">
<title>Argument Map</title>
<g id="clust1" class="cluster">
<title>cluster_1</title>
<polygon fill="#c6e2ff" stroke="#c6e2ff" points="8,-642 8,-744.4 224,-744.4 224,-642 8,-642"/>
<text text-anchor="start" x="32.3132" y="-729.6" font-family="arial" font-size="12.00" fill="#000000">Aporia I : Coal in Ancient Strata</text>
</g>
<g id="clust2" class="cluster">
<title>cluster_2</title>
<polygon fill="#ffe1ff" stroke="#ffe1ff" points="232,-8 232,-738.4 1098,-738.4 1098,-8 232,-8"/>
<text text-anchor="start" x="600.6578" y="-723.6" font-family="arial" font-size="12.00" fill="#000000">Dating of the Main Culm</text>
</g>
<g id="clust3" class="cluster">
<title>cluster_3</title>
<polygon fill="#9fb6cd" stroke="#9fb6cd" points="1106,-648 1106,-738.4 1323,-738.4 1323,-648 1106,-648"/>
<text text-anchor="start" x="1113.8122" y="-723.6" font-family="arial" font-size="12.00" fill="#000000">Aporia II : CM Plants in Ancient Strata</text>
</g>
<g id="clust4" class="cluster">
<title>cluster_4</title>
<polygon fill="#eed2ee" stroke="#eed2ee" points="1331,-8 1331,-738.4 2185,-738.4 2185,-8 1331,-8"/>
<text text-anchor="start" x="1678.9842" y="-723.6" font-family="arial" font-size="12.00" fill="#000000">Dating of the Culm Limestone</text>
</g>
<g id="clust5" class="cluster">
<title>cluster_5</title>
<polygon fill="#d8bfd8" stroke="#d8bfd8" points="2193,-132 2193,-738.4 3053,-738.4 3053,-132 2193,-132"/>
<text text-anchor="start" x="2560.3252" y="-723.6" font-family="arial" font-size="12.00" fill="#000000">Dating of the Non&#45;Culm</text>
</g>
<g id="clust6" class="cluster">
<title>cluster_6</title>
<polygon fill="#e6e6fa" stroke="#e6e6fa" points="3061,-494 3061,-750.4 3491,-750.4 3491,-494 3061,-494"/>
<text text-anchor="start" x="3205.9752" y="-735.6" font-family="arial" font-size="12.00" fill="#000000">Youngest Devonian Strata</text>
</g>
<!-- n0 -->
<g id="node1" class="node">
<title>n0</title>
<path fill="#ffffff" stroke="#f4a460" stroke-width="2" d="M204,-714C204,-714 28,-714 28,-714 22,-714 16,-708 16,-702 16,-702 16,-662 16,-662 16,-656 22,-650 28,-650 28,-650 204,-650 204,-650 210,-650 216,-656 216,-662 216,-662 216,-702 216,-702 216,-708 210,-714 204,-714"/>
<text text-anchor="start" x="56.2565" y="-700" font-family="arial" font-weight="bold" font-size="10.00" fill="#000000">Instances of Ancient Strata</text>
<text text-anchor="start" x="25.9725" y="-683" font-family="arial" font-size="10.00" fill="#000000">In Munster and Pennsylvannia, there are</text>
<text text-anchor="start" x="33.201" y="-671" font-family="arial" font-size="10.00" fill="#000000"> pre&#45;Old Red Sandstone strata #GRE</text>
<text text-anchor="start" x="89.6045" y="-659" font-family="arial" font-size="10.00" fill="#000000"> #chron&#45;hyp</text>
</g>
<!-- n1 -->
<g id="node2" class="node">
<title>n1</title>
<path fill="#ffffff" stroke="#f4a460" stroke-width="2" d="M742,-192C742,-192 570,-192 570,-192 564,-192 558,-186 558,-180 558,-180 558,-152 558,-152 558,-146 564,-140 570,-140 570,-140 742,-140 742,-140 748,-140 754,-146 754,-152 754,-152 754,-180 754,-180 754,-186 748,-192 742,-192"/>
<text text-anchor="start" x="612.9475" y="-178" font-family="arial" font-weight="bold" font-size="10.00" fill="#000000">Main Culm as CAM</text>
<text text-anchor="start" x="570.9925" y="-161" font-family="arial" font-size="10.00" fill="#000000">The whole of the main Culm is CAM in</text>
<text text-anchor="start" x="603.4845" y="-149" font-family="arial" font-size="10.00" fill="#000000"> age #GRE #chron&#45;hyp </text>
</g>
<!-- n5 -->
<g id="node3" class="node">
<title>n5</title>
<path fill="#ffffff" stroke="#ffc1c1" stroke-width="2" d="M745,-68C745,-68 567,-68 567,-68 561,-68 555,-62 555,-56 555,-56 555,-28 555,-28 555,-22 561,-16 567,-16 567,-16 745,-16 745,-16 751,-16 757,-22 757,-28 757,-28 757,-56 757,-56 757,-62 751,-68 745,-68"/>
<text text-anchor="start" x="616.282" y="-54" font-family="arial" font-weight="bold" font-size="10.00" fill="#000000">Main Culm as CM</text>
<text text-anchor="start" x="564.599" y="-37" font-family="arial" font-size="10.00" fill="#000000">The whole of the main Culm is CM in age</text>
<text text-anchor="start" x="613.2125" y="-25" font-family="arial" font-size="10.00" fill="#000000"> #COA #chron&#45;hyp </text>
</g>
<!-- n1&#45;&gt;n5 -->
<g id="edge14" class="edge">
<title>n1&#45;&gt;n5</title>
<path fill="none" stroke="#ff0000" d="M650.364,-139.7028C649.1042,-121.8654 648.9129,-98.0471 649.7902,-78.3935"/>
<polygon fill="#ff0000" stroke="#ff0000" points="653.293,-78.442 650.3667,-68.2593 646.3043,-78.0443 653.293,-78.442"/>
</g>
<!-- n5&#45;&gt;n1 -->
<g id="edge13" class="edge">
<title>n5&#45;&gt;n1</title>
<path fill="none" stroke="#ff0000" d="M661.6333,-68.2593C662.8946,-86.0882 663.0874,-109.9052 662.2117,-129.5647"/>
<polygon fill="#ff0000" stroke="#ff0000" points="658.7087,-129.5204 661.636,-139.7028 665.6974,-129.9173 658.7087,-129.5204"/>
</g>
<!-- n7 -->
<g id="node4" class="node">
<title>n7</title>
<path fill="#ffffff" stroke="#ffe4b5" stroke-width="2" d="M1078,-708C1078,-708 900,-708 900,-708 894,-708 888,-702 888,-696 888,-696 888,-668 888,-668 888,-662 894,-656 900,-656 900,-656 1078,-656 1078,-656 1084,-656 1090,-662 1090,-668 1090,-668 1090,-696 1090,-696 1090,-702 1084,-708 1078,-708"/>
<text text-anchor="start" x="934.8345" y="-694" font-family="arial" font-weight="bold" font-size="10.00" fill="#000000">Some Main Culm as CM</text>
<text text-anchor="start" x="897.599" y="-677" font-family="arial" font-size="10.00" fill="#000000">Some part of the main Culm is CM in age</text>
<text text-anchor="start" x="952.882" y="-665" font-family="arial" font-size="10.00" fill="#000000"> #pri #chron&#45;hyp</text>
</g>
<!-- n25 -->
<g id="node9" class="node">
<title>n25</title>
<path fill="#ffe4b5" stroke="#000000" d="M751,-570C751,-570 579,-570 579,-570 573,-570 567,-564 567,-558 567,-558 567,-510 567,-510 567,-504 573,-498 579,-498 579,-498 751,-498 751,-498 757,-498 763,-504 763,-510 763,-510 763,-558 763,-558 763,-564 757,-570 751,-570"/>
<text text-anchor="start" x="579.1425" y="-556" font-family="arial" font-weight="bold" font-size="10.00" fill="#000000">Standard Sequence as Partition &#45; Main</text>
<text text-anchor="start" x="651.9475" y="-546" font-family="arial" font-weight="bold" font-size="10.00" fill="#000000"> Culm</text>
<text text-anchor="start" x="579.9975" y="-531" font-family="arial" font-size="10.00" fill="#000000">If some main Culm strata is neiter CM,</text>
<text text-anchor="start" x="579.9835" y="-519" font-family="arial" font-size="10.00" fill="#000000"> ML, OR nor SIL in age, then it is CAM</text>
<text text-anchor="start" x="613.8755" y="-507" font-family="arial" font-size="10.00" fill="#000000"> in age #pri #chron&#45;hyp</text>
</g>
<!-- n7&#45;&gt;n25 -->
<g id="edge1" class="edge">
<title>n7&#45;&gt;n25</title>
<path fill="none" stroke="#ff0000" d="M931.8211,-655.8813C882.4319,-633.3208 810.2633,-600.3549 753.4316,-574.3947"/>
<polygon fill="#ff0000" stroke="#ff0000" points="754.6395,-571.0986 744.0893,-570.1272 751.731,-577.4658 754.6395,-571.0986"/>
</g>
<!-- n26 -->
<g id="node10" class="node">
<title>n26</title>
<path fill="#f4a460" stroke="#000000" d="M694,-300C694,-300 522,-300 522,-300 516,-300 510,-294 510,-288 510,-288 510,-276 510,-276 510,-270 516,-264 522,-264 522,-264 694,-264 694,-264 700,-264 706,-270 706,-276 706,-276 706,-288 706,-288 706,-294 700,-300 694,-300"/>
<text text-anchor="start" x="540.494" y="-280" font-family="arial" font-weight="bold" font-size="10.00" fill="#000000">Dating the Main Culm &#45; GRE.1</text>
</g>
<!-- n7&#45;&gt;n26 -->
<g id="edge5" class="edge">
<title>n7&#45;&gt;n26</title>
<path fill="none" stroke="#ff0000" d="M968.8653,-655.6778C952.168,-633.6101 928.0116,-601.1247 908,-572 848.2352,-485.0187 857.8072,-443.2995 780,-372 747.383,-342.111 702.9913,-319.2104 667.4766,-303.99"/>
<polygon fill="#ff0000" stroke="#ff0000" points="668.7587,-300.7324 658.1831,-300.0942 666.0524,-307.1882 668.7587,-300.7324"/>
</g>
<!-- n27 -->
<g id="node11" class="node">
<title>n27</title>
<path fill="#ffc1c1" stroke="#000000" d="M908,-300C908,-300 736,-300 736,-300 730,-300 724,-294 724,-288 724,-288 724,-276 724,-276 724,-270 730,-264 736,-264 736,-264 908,-264 908,-264 914,-264 920,-270 920,-276 920,-276 920,-288 920,-288 920,-294 914,-300 908,-300"/>
<text text-anchor="start" x="748.935" y="-280" font-family="arial" font-weight="bold" font-size="10.00" fill="#000000">Redating the Main Culm &#45; COA.1</text>
</g>
<!-- n7&#45;&gt;n27 -->
<g id="edge47" class="edge">
<title>n7&#45;&gt;n27</title>
<path fill="none" stroke="#00ff00" d="M978.0427,-655.7549C947.9644,-583.7111 864.3146,-383.3524 833.5477,-309.6592"/>
<polygon fill="#00ff00" stroke="#00ff00" points="836.651,-308.0076 829.5684,-300.128 830.1914,-310.7045 836.651,-308.0076"/>
</g>
<!-- n8 -->
<g id="node5" class="node">
<title>n8</title>
<path fill="#ffffff" stroke="#ffe4b5" stroke-width="2" d="M429.5,-708C429.5,-708 252.5,-708 252.5,-708 246.5,-708 240.5,-702 240.5,-696 240.5,-696 240.5,-668 240.5,-668 240.5,-662 246.5,-656 252.5,-656 252.5,-656 429.5,-656 429.5,-656 435.5,-656 441.5,-662 441.5,-668 441.5,-668 441.5,-696 441.5,-696 441.5,-702 435.5,-708 429.5,-708"/>
<text text-anchor="start" x="288.1645" y="-694" font-family="arial" font-weight="bold" font-size="10.00" fill="#000000">Some Main Culm as ML</text>
<text text-anchor="start" x="250.929" y="-677" font-family="arial" font-size="10.00" fill="#000000">Some part of the main Culm is ML in age</text>
<text text-anchor="start" x="305.382" y="-665" font-family="arial" font-size="10.00" fill="#000000"> #pri #chron&#45;hyp</text>
</g>
<!-- n8&#45;&gt;n25 -->
<g id="edge2" class="edge">
<title>n8&#45;&gt;n25</title>
<path fill="none" stroke="#ff0000" d="M398.1789,-655.8813C447.5681,-633.3208 519.7367,-600.3549 576.5684,-574.3947"/>
<polygon fill="#ff0000" stroke="#ff0000" points="578.269,-577.4658 585.9107,-570.1272 575.3605,-571.0986 578.269,-577.4658"/>
</g>
<!-- n8&#45;&gt;n26 -->
<g id="edge6" class="edge">
<title>n8&#45;&gt;n26</title>
<path fill="none" stroke="#ff0000" d="M357.6061,-655.5909C391.6054,-601.7303 471.9352,-475.5422 543,-372 557.903,-350.2862 575.4149,-326.1117 588.505,-308.2895"/>
<polygon fill="#ff0000" stroke="#ff0000" points="591.4325,-310.2166 594.545,-300.0892 585.7963,-306.0652 591.4325,-310.2166"/>
</g>
<!-- n8&#45;&gt;n27 -->
<g id="edge9" class="edge">
<title>n8&#45;&gt;n27</title>
<path fill="none" stroke="#ff0000" d="M367.8842,-655.7251C389.1973,-634.2128 419.1006,-602.4649 442,-572 488.2566,-510.461 494.7537,-491.3753 532,-424 544.5012,-401.3864 538.5375,-388.9961 558,-372 585.6373,-347.8651 673.0694,-320.7653 739.8164,-302.6688"/>
<polygon fill="#ff0000" stroke="#ff0000" points="740.7555,-306.0407 749.5046,-300.0656 738.9389,-299.2805 740.7555,-306.0407"/>
</g>
<!-- n9 -->
<g id="node6" class="node">
<title>n9</title>
<path fill="#ffffff" stroke="#ffe4b5" stroke-width="2" d="M644,-708C644,-708 472,-708 472,-708 466,-708 460,-702 460,-696 460,-696 460,-668 460,-668 460,-662 466,-656 472,-656 472,-656 644,-656 644,-656 650,-656 656,-662 656,-668 656,-668 656,-696 656,-696 656,-702 650,-708 644,-708"/>
<text text-anchor="start" x="500.775" y="-694" font-family="arial" font-weight="bold" font-size="10.00" fill="#000000">Some Main Culm as ORS</text>
<text text-anchor="start" x="473.2675" y="-677" font-family="arial" font-size="10.00" fill="#000000">Some part of the main Culm is ORS in</text>
<text text-anchor="start" x="512.154" y="-665" font-family="arial" font-size="10.00" fill="#000000"> age #pri #chron&#45;hyp</text>
</g>
<!-- n9&#45;&gt;n25 -->
<g id="edge3" class="edge">
<title>n9&#45;&gt;n25</title>
<path fill="none" stroke="#ff0000" d="M576.8831,-655.8813C592.353,-634.4837 614.5902,-603.7258 632.8547,-578.4626"/>
<polygon fill="#ff0000" stroke="#ff0000" points="635.8584,-580.2818 638.881,-570.1272 630.1857,-576.1805 635.8584,-580.2818"/>
</g>
<!-- n9&#45;&gt;n26 -->
<g id="edge7" class="edge">
<title>n9&#45;&gt;n26</title>
<path fill="none" stroke="#ff0000" d="M552.6948,-655.8427C542.7827,-601.3897 525.2637,-472.5609 558,-372 565.3502,-349.4213 578.536,-326.0406 589.5217,-308.7702"/>
<polygon fill="#ff0000" stroke="#ff0000" points="592.4933,-310.6209 595.0234,-300.3325 586.6297,-306.7975 592.4933,-310.6209"/>
</g>
<!-- n9&#45;&gt;n27 -->
<g id="edge10" class="edge">
<title>n9&#45;&gt;n27</title>
<path fill="none" stroke="#ff0000" d="M554.3708,-655.9612C548.6153,-610.5021 539.7993,-519.1031 558,-494 616.7398,-412.9836 700.4509,-493.9625 772,-424 803.2282,-393.4643 814.9922,-342.2866 819.3966,-310.4275"/>
<polygon fill="#ff0000" stroke="#ff0000" points="822.8803,-310.7736 820.6257,-300.4214 815.9326,-309.9201 822.8803,-310.7736"/>
</g>
<!-- n10 -->
<g id="node7" class="node">
<title>n10</title>
<path fill="#ffffff" stroke="#ffe4b5" stroke-width="2" d="M858,-708C858,-708 686,-708 686,-708 680,-708 674,-702 674,-696 674,-696 674,-668 674,-668 674,-662 680,-656 686,-656 686,-656 858,-656 858,-656 864,-656 870,-662 870,-668 870,-668 870,-696 870,-696 870,-702 864,-708 858,-708"/>
<text text-anchor="start" x="718.105" y="-694" font-family="arial" font-weight="bold" font-size="10.00" fill="#000000">Some Main Culm as SIL</text>
<text text-anchor="start" x="690.5975" y="-677" font-family="arial" font-size="10.00" fill="#000000">Some part of the main Culm is SIL in</text>
<text text-anchor="start" x="726.154" y="-665" font-family="arial" font-size="10.00" fill="#000000"> age #pri #chron&#45;hyp</text>
</g>
<!-- n10&#45;&gt;n25 -->
<g id="edge4" class="edge">
<title>n10&#45;&gt;n25</title>
<path fill="none" stroke="#ff0000" d="M753.1169,-655.8813C737.647,-634.4837 715.4098,-603.7258 697.1453,-578.4626"/>
<polygon fill="#ff0000" stroke="#ff0000" points="699.8143,-576.1805 691.119,-570.1272 694.1416,-580.2818 699.8143,-576.1805"/>
</g>
<!-- n10&#45;&gt;n26 -->
<g id="edge8" class="edge">
<title>n10&#45;&gt;n26</title>
<path fill="none" stroke="#ff0000" d="M773.5035,-655.9317C777.3457,-585.6797 786.2551,-396.0835 772,-372 752.5691,-339.1721 716.4445,-317.5221 683.0355,-303.7034"/>
<polygon fill="#ff0000" stroke="#ff0000" points="684.2869,-300.4346 673.7005,-300.0107 681.7119,-306.9438 684.2869,-300.4346"/>
</g>
<!-- n10&#45;&gt;n27 -->
<g id="edge11" class="edge">
<title>n10&#45;&gt;n27</title>
<path fill="none" stroke="#ff0000" d="M775.5852,-655.7751C778.6296,-633.4898 783.111,-600.6482 787,-572 795.9286,-506.2276 799.0684,-489.9001 807,-424 811.7281,-384.7164 816.3913,-339.2192 819.2326,-310.5267"/>
<polygon fill="#ff0000" stroke="#ff0000" points="822.7328,-310.6955 820.2287,-300.4009 815.7665,-310.0102 822.7328,-310.6955"/>
</g>
<!-- n11 -->
<g id="node8" class="node">
<title>n11</title>
<path fill="#ffffff" stroke="#ffe4b5" stroke-width="2" d="M751,-424C751,-424 579,-424 579,-424 573,-424 567,-418 567,-412 567,-412 567,-384 567,-384 567,-378 573,-372 579,-372 579,-372 751,-372 751,-372 757,-372 763,-378 763,-384 763,-384 763,-412 763,-412 763,-418 757,-424 751,-424"/>
<text text-anchor="start" x="607.5" y="-410" font-family="arial" font-weight="bold" font-size="10.00" fill="#000000">Some Main Culm as CAM</text>
<text text-anchor="start" x="579.9925" y="-393" font-family="arial" font-size="10.00" fill="#000000">Some part of the main Culm is CAM in</text>
<text text-anchor="start" x="619.154" y="-381" font-family="arial" font-size="10.00" fill="#000000"> age #pri #chron&#45;hyp</text>
</g>
<!-- n11&#45;&gt;n26 -->
<g id="edge48" class="edge">
<title>n11&#45;&gt;n26</title>
<path fill="none" stroke="#00ff00" d="M652.2081,-371.9673C642.9981,-353.2242 630.6053,-328.0039 621.2845,-309.0351"/>
<polygon fill="#00ff00" stroke="#00ff00" points="624.4049,-307.449 616.8535,-300.0176 618.1224,-310.5362 624.4049,-307.449"/>
</g>
<!-- n11&#45;&gt;n27 -->
<g id="edge12" class="edge">
<title>n11&#45;&gt;n27</title>
<path fill="none" stroke="#ff0000" d="M700.2339,-371.9673C726.9918,-352.1972 763.5032,-325.2205 789.5505,-305.9754"/>
<polygon fill="#ff0000" stroke="#ff0000" points="791.6512,-308.7751 797.6141,-300.0176 787.4914,-303.1451 791.6512,-308.7751"/>
</g>
<!-- n25&#45;&gt;n11 -->
<g id="edge39" class="edge">
<title>n25&#45;&gt;n11</title>
<path fill="none" stroke="#00ff00" d="M665,-497.9116C665,-478.3005 665,-454.1097 665,-434.4438"/>
<polygon fill="#00ff00" stroke="#00ff00" points="668.5001,-434.3317 665,-424.3317 661.5001,-434.3318 668.5001,-434.3317"/>
</g>
<!-- n26&#45;&gt;n1 -->
<g id="edge40" class="edge">
<title>n26&#45;&gt;n1</title>
<path fill="none" stroke="#00ff00" d="M615.5,-263.875C622.3742,-247.2623 632.7488,-222.1904 641.2766,-201.5817"/>
<polygon fill="#00ff00" stroke="#00ff00" points="644.5785,-202.7557 645.168,-192.1773 638.1104,-200.0792 644.5785,-202.7557"/>
</g>
<!-- n27&#45;&gt;n5 -->
<g id="edge41" class="edge">
<title>n27&#45;&gt;n5</title>
<path fill="none" stroke="#00ff00" d="M817.9916,-263.9685C810.7567,-234.2992 793.3744,-174.2678 763,-132 747.0639,-109.824 724.4704,-89.7579 704.1483,-74.2299"/>
<polygon fill="#00ff00" stroke="#00ff00" points="706.0091,-71.2515 695.9012,-68.0765 701.823,-76.8619 706.0091,-71.2515"/>
</g>
<!-- n2 -->
<g id="node12" class="node">
<title>n2</title>
<path fill="#ffffff" stroke="#f4a460" stroke-width="2" d="M1300,-708C1300,-708 1128,-708 1128,-708 1122,-708 1116,-702 1116,-696 1116,-696 1116,-668 1116,-668 1116,-662 1122,-656 1128,-656 1128,-656 1300,-656 1300,-656 1306,-656 1312,-662 1312,-668 1312,-668 1312,-696 1312,-696 1312,-702 1306,-708 1300,-708"/>
<text text-anchor="start" x="1165.6545" y="-694" font-family="arial" font-weight="bold" font-size="10.00" fill="#000000">Ancient French Strata</text>
<text text-anchor="start" x="1131.7525" y="-677" font-family="arial" font-size="10.00" fill="#000000">In the Bocage, there are pre&#45;Old Red</text>
<text text-anchor="start" x="1132.03" y="-665" font-family="arial" font-size="10.00" fill="#000000"> Sandstone strata. #GRE #chron&#45;hyp</text>
</g>
<!-- n3 -->
<g id="node13" class="node">
<title>n3</title>
<path fill="#ffffff" stroke="#f4a460" stroke-width="2" d="M1834,-192C1834,-192 1658,-192 1658,-192 1652,-192 1646,-186 1646,-180 1646,-180 1646,-152 1646,-152 1646,-146 1652,-140 1658,-140 1658,-140 1834,-140 1834,-140 1840,-140 1846,-146 1846,-152 1846,-152 1846,-180 1846,-180 1846,-186 1840,-192 1834,-192"/>
<text text-anchor="start" x="1717.1095" y="-178" font-family="arial" font-weight="bold" font-size="10.00" fill="#000000">BCL as CAM</text>
<text text-anchor="start" x="1655.7025" y="-161" font-family="arial" font-size="10.00" fill="#000000">The black Culm Limestone is nothing but</text>
<text text-anchor="start" x="1665.1505" y="-149" font-family="arial" font-size="10.00" fill="#000000"> Cambrian in age #GRE #chron&#45;hyp </text>
</g>
<!-- n6 -->
<g id="node14" class="node">
<title>n6</title>
<path fill="#ffffff" stroke="#ffc1c1" stroke-width="2" d="M1836.5,-68C1836.5,-68 1655.5,-68 1655.5,-68 1649.5,-68 1643.5,-62 1643.5,-56 1643.5,-56 1643.5,-28 1643.5,-28 1643.5,-22 1649.5,-16 1655.5,-16 1655.5,-16 1836.5,-16 1836.5,-16 1842.5,-16 1848.5,-22 1848.5,-28 1848.5,-28 1848.5,-56 1848.5,-56 1848.5,-62 1842.5,-68 1836.5,-68"/>
<text text-anchor="start" x="1720.944" y="-54" font-family="arial" font-weight="bold" font-size="10.00" fill="#000000">BCL as CM</text>
<text text-anchor="start" x="1656.2025" y="-37" font-family="arial" font-size="10.00" fill="#000000">The black Culm Limestone is nothing but</text>
<text text-anchor="start" x="1653.702" y="-25" font-family="arial" font-size="10.00" fill="#000000"> Coal Mesaures in age #COA #chron&#45;hyp </text>
</g>
<!-- n3&#45;&gt;n6 -->
<g id="edge28" class="edge">
<title>n3&#45;&gt;n6</title>
<path fill="none" stroke="#ff0000" d="M1740.364,-139.7028C1739.1042,-121.8654 1738.9129,-98.0471 1739.7902,-78.3935"/>
<polygon fill="#ff0000" stroke="#ff0000" points="1743.293,-78.442 1740.3667,-68.2593 1736.3043,-78.0443 1743.293,-78.442"/>
</g>
<!-- n6&#45;&gt;n3 -->
<g id="edge27" class="edge">
<title>n6&#45;&gt;n3</title>
<path fill="none" stroke="#ff0000" d="M1751.6333,-68.2593C1752.8946,-86.0882 1753.0874,-109.9052 1752.2117,-129.5647"/>
<polygon fill="#ff0000" stroke="#ff0000" points="1748.7087,-129.5204 1751.636,-139.7028 1755.6974,-129.9173 1748.7087,-129.5204"/>
</g>
<!-- n12 -->
<g id="node15" class="node">
<title>n12</title>
<path fill="#ffffff" stroke="#ffe4b5" stroke-width="2" d="M2165,-708C2165,-708 1993,-708 1993,-708 1987,-708 1981,-702 1981,-696 1981,-696 1981,-668 1981,-668 1981,-662 1987,-656 1993,-656 1993,-656 2165,-656 2165,-656 2171,-656 2177,-662 2177,-668 2177,-668 2177,-696 2177,-696 2177,-702 2171,-708 2165,-708"/>
<text text-anchor="start" x="2038.9965" y="-694" font-family="arial" font-weight="bold" font-size="10.00" fill="#000000">Some BCL as CM</text>
<text text-anchor="start" x="1991.482" y="-677" font-family="arial" font-size="10.00" fill="#000000">Some part of the black Culm Limestone</text>
<text text-anchor="start" x="2013.713" y="-665" font-family="arial" font-size="10.00" fill="#000000"> is CM in age #pri #chron&#45;hyp</text>
</g>
<!-- n28 -->
<g id="node20" class="node">
<title>n28</title>
<path fill="#ffe4b5" stroke="#000000" d="M1846,-572C1846,-572 1670,-572 1670,-572 1664,-572 1658,-566 1658,-560 1658,-560 1658,-508 1658,-508 1658,-502 1664,-496 1670,-496 1670,-496 1846,-496 1846,-496 1852,-496 1858,-502 1858,-508 1858,-508 1858,-560 1858,-560 1858,-566 1852,-572 1846,-572"/>
<text text-anchor="start" x="1673.252" y="-558" font-family="arial" font-weight="bold" font-size="10.00" fill="#000000">Standard Sequence as Partition &#45; BCL</text>
<text text-anchor="start" x="1691.5985" y="-541" font-family="arial" font-size="10.00" fill="#000000">If some part of the black Culm</text>
<text text-anchor="start" x="1667.9885" y="-529" font-family="arial" font-size="10.00" fill="#000000"> Limestone is neiter CM, ML, OR nor SIL</text>
<text text-anchor="start" x="1684.372" y="-517" font-family="arial" font-size="10.00" fill="#000000"> in age, then it is CAM in age #pri</text>
<text text-anchor="start" x="1731.6045" y="-505" font-family="arial" font-size="10.00" fill="#000000"> #chron&#45;hyp</text>
</g>
<!-- n12&#45;&gt;n28 -->
<g id="edge15" class="edge">
<title>n12&#45;&gt;n28</title>
<path fill="none" stroke="#ff0000" d="M2022.3506,-655.8813C1974.6121,-633.871 1905.3927,-601.9568 1849.7593,-576.3065"/>
<polygon fill="#ff0000" stroke="#ff0000" points="1851.147,-573.0922 1840.6003,-572.0836 1848.2161,-579.4491 1851.147,-573.0922"/>
</g>
<!-- n29 -->
<g id="node21" class="node">
<title>n29</title>
<path fill="#f4a460" stroke="#000000" d="M1785,-300C1785,-300 1613,-300 1613,-300 1607,-300 1601,-294 1601,-288 1601,-288 1601,-276 1601,-276 1601,-270 1607,-264 1613,-264 1613,-264 1785,-264 1785,-264 1791,-264 1797,-270 1797,-276 1797,-276 1797,-288 1797,-288 1797,-294 1791,-300 1785,-300"/>
<text text-anchor="start" x="1645.656" y="-280" font-family="arial" font-weight="bold" font-size="10.00" fill="#000000">Dating the BCL &#45; GRE.1</text>
</g>
<!-- n12&#45;&gt;n29 -->
<g id="edge19" class="edge">
<title>n12&#45;&gt;n29</title>
<path fill="none" stroke="#ff0000" d="M2059.0713,-655.6981C2042.5547,-633.6425 2018.6832,-601.1635 1999,-572 1940.3594,-485.1154 1951.1525,-442.9587 1874,-372 1841.2216,-341.8531 1796.4516,-319.0726 1760.4002,-303.973"/>
<polygon fill="#ff0000" stroke="#ff0000" points="1761.5397,-300.6576 1750.959,-300.1093 1758.8884,-307.1361 1761.5397,-300.6576"/>
</g>
<!-- n30 -->
<g id="node22" class="node">
<title>n30</title>
<path fill="#ffc1c1" stroke="#000000" d="M1999,-300C1999,-300 1827,-300 1827,-300 1821,-300 1815,-294 1815,-288 1815,-288 1815,-276 1815,-276 1815,-270 1821,-264 1827,-264 1827,-264 1999,-264 1999,-264 2005,-264 2011,-270 2011,-276 2011,-276 2011,-288 2011,-288 2011,-294 2005,-300 1999,-300"/>
<text text-anchor="start" x="1854.097" y="-280" font-family="arial" font-weight="bold" font-size="10.00" fill="#000000">Redating the BCL &#45; COA.1</text>
</g>
<!-- n12&#45;&gt;n30 -->
<g id="edge49" class="edge">
<title>n12&#45;&gt;n30</title>
<path fill="none" stroke="#00ff00" d="M2068.1083,-655.7549C2038.2101,-583.7111 1955.0612,-383.3524 1924.4786,-309.6592"/>
<polygon fill="#00ff00" stroke="#00ff00" points="1927.5889,-308.0227 1920.5231,-300.128 1921.1235,-310.7058 1927.5889,-308.0227"/>
</g>
<!-- n13 -->
<g id="node16" class="node">
<title>n13</title>
<path fill="#ffffff" stroke="#ffe4b5" stroke-width="2" d="M1523,-708C1523,-708 1351,-708 1351,-708 1345,-708 1339,-702 1339,-696 1339,-696 1339,-668 1339,-668 1339,-662 1345,-656 1351,-656 1351,-656 1523,-656 1523,-656 1529,-656 1535,-662 1535,-668 1535,-668 1535,-696 1535,-696 1535,-702 1529,-708 1523,-708"/>
<text text-anchor="start" x="1397.8265" y="-694" font-family="arial" font-weight="bold" font-size="10.00" fill="#000000">Some BCL as ML</text>
<text text-anchor="start" x="1349.482" y="-677" font-family="arial" font-size="10.00" fill="#000000">Some part of the black Culm Limestone</text>
<text text-anchor="start" x="1372.543" y="-665" font-family="arial" font-size="10.00" fill="#000000"> is ML in age #pri #chron&#45;hyp</text>
</g>
<!-- n13&#45;&gt;n28 -->
<g id="edge16" class="edge">
<title>n13&#45;&gt;n28</title>
<path fill="none" stroke="#ff0000" d="M1493.6494,-655.8813C1541.3879,-633.871 1610.6073,-601.9568 1666.2407,-576.3065"/>
<polygon fill="#ff0000" stroke="#ff0000" points="1667.7839,-579.4491 1675.3997,-572.0836 1664.853,-573.0922 1667.7839,-579.4491"/>
</g>
<!-- n13&#45;&gt;n29 -->
<g id="edge20" class="edge">
<title>n13&#45;&gt;n29</title>
<path fill="none" stroke="#ff0000" d="M1452.6694,-655.8903C1485.1597,-602.056 1562.7094,-475.1247 1633,-372 1647.9116,-350.1229 1665.7078,-325.9595 1679.0611,-308.183"/>
<polygon fill="#ff0000" stroke="#ff0000" points="1682.0001,-310.0988 1685.2274,-300.0074 1676.4115,-305.8836 1682.0001,-310.0988"/>
</g>
<!-- n13&#45;&gt;n30 -->
<g id="edge23" class="edge">
<title>n13&#45;&gt;n30</title>
<path fill="none" stroke="#ff0000" d="M1462.0495,-655.9767C1482.2796,-634.3509 1510.9147,-602.3238 1533,-572 1578.1875,-509.9561 1584.5189,-490.9816 1622,-424 1634.7162,-401.2751 1629.2553,-388.9786 1649,-372 1676.8645,-348.0391 1764.494,-320.8527 1831.2224,-302.6889"/>
<polygon fill="#ff0000" stroke="#ff0000" points="1832.1634,-306.0603 1840.9063,-300.0759 1830.3398,-299.302 1832.1634,-306.0603"/>
</g>
<!-- n14 -->
<g id="node17" class="node">
<title>n14</title>
<path fill="#ffffff" stroke="#ffe4b5" stroke-width="2" d="M1737,-708C1737,-708 1565,-708 1565,-708 1559,-708 1553,-702 1553,-696 1553,-696 1553,-668 1553,-668 1553,-662 1559,-656 1565,-656 1565,-656 1737,-656 1737,-656 1743,-656 1749,-662 1749,-668 1749,-668 1749,-696 1749,-696 1749,-702 1743,-708 1737,-708"/>
<text text-anchor="start" x="1607.937" y="-694" font-family="arial" font-weight="bold" font-size="10.00" fill="#000000">Some BCL as ORS</text>
<text text-anchor="start" x="1563.482" y="-677" font-family="arial" font-size="10.00" fill="#000000">Some part of the black Culm Limestone</text>
<text text-anchor="start" x="1582.6535" y="-665" font-family="arial" font-size="10.00" fill="#000000"> is ORS in age #pri #chron&#45;hyp</text>
</g>
<!-- n14&#45;&gt;n28 -->
<g id="edge17" class="edge">
<title>n14&#45;&gt;n28</title>
<path fill="none" stroke="#ff0000" d="M1669.8831,-655.8813C1684.9757,-635.0056 1706.5094,-605.2206 1724.5114,-580.3207"/>
<polygon fill="#ff0000" stroke="#ff0000" points="1727.444,-582.2382 1730.4666,-572.0836 1721.7712,-578.1369 1727.444,-582.2382"/>
</g>
<!-- n14&#45;&gt;n29 -->
<g id="edge21" class="edge">
<title>n14&#45;&gt;n29</title>
<path fill="none" stroke="#ff0000" d="M1645.4208,-655.843C1634.9608,-601.3907 1616.263,-472.563 1649,-372 1656.3502,-349.4213 1669.536,-326.0406 1680.5217,-308.7702"/>
<polygon fill="#ff0000" stroke="#ff0000" points="1683.4933,-310.6209 1686.0234,-300.3325 1677.6297,-306.7975 1683.4933,-310.6209"/>
</g>
<!-- n14&#45;&gt;n30 -->
<g id="edge24" class="edge">
<title>n14&#45;&gt;n30</title>
<path fill="none" stroke="#ff0000" d="M1647.0403,-655.9615C1640.7164,-610.5029 1630.7983,-519.1045 1649,-494 1707.7398,-412.9836 1791.4509,-493.9625 1863,-424 1894.2282,-393.4643 1905.9922,-342.2866 1910.3966,-310.4275"/>
<polygon fill="#ff0000" stroke="#ff0000" points="1913.8803,-310.7736 1911.6257,-300.4214 1906.9326,-309.9201 1913.8803,-310.7736"/>
</g>
<!-- n15 -->
<g id="node18" class="node">
<title>n15</title>
<path fill="#ffffff" stroke="#ffe4b5" stroke-width="2" d="M1951,-708C1951,-708 1779,-708 1779,-708 1773,-708 1767,-702 1767,-696 1767,-696 1767,-668 1767,-668 1767,-662 1773,-656 1779,-656 1779,-656 1951,-656 1951,-656 1957,-656 1963,-662 1963,-668 1963,-668 1963,-696 1963,-696 1963,-702 1957,-708 1951,-708"/>
<text text-anchor="start" x="1825.267" y="-694" font-family="arial" font-weight="bold" font-size="10.00" fill="#000000">Some BCL as SIL</text>
<text text-anchor="start" x="1777.482" y="-677" font-family="arial" font-size="10.00" fill="#000000">Some part of the black Culm Limestone</text>
<text text-anchor="start" x="1799.9835" y="-665" font-family="arial" font-size="10.00" fill="#000000"> is SIL in age #pri #chron&#45;hyp</text>
</g>
<!-- n15&#45;&gt;n28 -->
<g id="edge18" class="edge">
<title>n15&#45;&gt;n28</title>
<path fill="none" stroke="#ff0000" d="M1846.1169,-655.8813C1831.0243,-635.0056 1809.4906,-605.2206 1791.4886,-580.3207"/>
<polygon fill="#ff0000" stroke="#ff0000" points="1794.2288,-578.1369 1785.5334,-572.0836 1788.556,-582.2382 1794.2288,-578.1369"/>
</g>
<!-- n15&#45;&gt;n29 -->
<g id="edge22" class="edge">
<title>n15&#45;&gt;n29</title>
<path fill="none" stroke="#ff0000" d="M1868.2313,-655.5889C1875.7869,-589.5168 1891.8737,-419.0064 1863,-372 1842.956,-339.3685 1806.5834,-317.7034 1773.1765,-303.8253"/>
<polygon fill="#ff0000" stroke="#ff0000" points="1774.4343,-300.5589 1763.8487,-300.1148 1771.8469,-307.0632 1774.4343,-300.5589"/>
</g>
<!-- n15&#45;&gt;n30 -->
<g id="edge25" class="edge">
<title>n15&#45;&gt;n30</title>
<path fill="none" stroke="#ff0000" d="M1869.3899,-655.822C1873.0396,-633.5653 1878.2277,-600.7394 1882,-572 1894.5808,-476.1516 1905.6384,-361.9722 1910.4475,-310.1134"/>
<polygon fill="#ff0000" stroke="#ff0000" points="1913.9449,-310.3012 1911.3771,-300.0222 1906.9744,-309.659 1913.9449,-310.3012"/>
</g>
<!-- n16 -->
<g id="node19" class="node">
<title>n16</title>
<path fill="#ffffff" stroke="#ffe4b5" stroke-width="2" d="M1842,-424C1842,-424 1670,-424 1670,-424 1664,-424 1658,-418 1658,-412 1658,-412 1658,-384 1658,-384 1658,-378 1664,-372 1670,-372 1670,-372 1842,-372 1842,-372 1848,-372 1854,-378 1854,-384 1854,-384 1854,-412 1854,-412 1854,-418 1848,-424 1842,-424"/>
<text text-anchor="start" x="1712.662" y="-410" font-family="arial" font-weight="bold" font-size="10.00" fill="#000000">Some BCL as CAM</text>
<text text-anchor="start" x="1668.482" y="-393" font-family="arial" font-size="10.00" fill="#000000">Some part of the black Culm Limestone</text>
<text text-anchor="start" x="1687.3785" y="-381" font-family="arial" font-size="10.00" fill="#000000"> is CAM in age #pri #chron&#45;hyp</text>
</g>
<!-- n16&#45;&gt;n29 -->
<g id="edge50" class="edge">
<title>n16&#45;&gt;n29</title>
<path fill="none" stroke="#00ff00" d="M1743.2081,-371.9673C1733.9981,-353.2242 1721.6053,-328.0039 1712.2845,-309.0351"/>
<polygon fill="#00ff00" stroke="#00ff00" points="1715.4049,-307.449 1707.8535,-300.0176 1709.1224,-310.5362 1715.4049,-307.449"/>
</g>
<!-- n16&#45;&gt;n30 -->
<g id="edge26" class="edge">
<title>n16&#45;&gt;n30</title>
<path fill="none" stroke="#ff0000" d="M1791.2339,-371.9673C1817.9918,-352.1972 1854.5032,-325.2205 1880.5505,-305.9754"/>
<polygon fill="#ff0000" stroke="#ff0000" points="1882.6512,-308.7751 1888.6141,-300.0176 1878.4914,-303.1451 1882.6512,-308.7751"/>
</g>
<!-- n28&#45;&gt;n16 -->
<g id="edge42" class="edge">
<title>n28&#45;&gt;n16</title>
<path fill="none" stroke="#00ff00" d="M1757.4376,-495.7545C1757.1549,-476.5306 1756.814,-453.3546 1756.5352,-434.3946"/>
<polygon fill="#00ff00" stroke="#00ff00" points="1760.0342,-434.2943 1756.3875,-424.3469 1753.035,-434.3973 1760.0342,-434.2943"/>
</g>
<!-- n29&#45;&gt;n3 -->
<g id="edge43" class="edge">
<title>n29&#45;&gt;n3</title>
<path fill="none" stroke="#00ff00" d="M1706.3438,-263.875C1713.0748,-247.2623 1723.2332,-222.1904 1731.5833,-201.5817"/>
<polygon fill="#00ff00" stroke="#00ff00" points="1734.8823,-202.7598 1735.3937,-192.1773 1728.3946,-200.1311 1734.8823,-202.7598"/>
</g>
<!-- n30&#45;&gt;n6 -->
<g id="edge44" class="edge">
<title>n30&#45;&gt;n6</title>
<path fill="none" stroke="#00ff00" d="M1909.1754,-263.9359C1902.2296,-234.2195 1885.376,-174.1221 1855,-132 1838.8432,-109.5954 1815.8222,-89.4938 1795.0965,-74.0012"/>
<polygon fill="#00ff00" stroke="#00ff00" points="1797.1264,-71.1497 1786.9857,-68.0807 1792.9992,-76.8036 1797.1264,-71.1497"/>
</g>
<!-- n4 -->
<g id="node23" class="node">
<title>n4</title>
<path fill="#ffffff" stroke="#f4a460" stroke-width="2" d="M2710,-192C2710,-192 2538,-192 2538,-192 2532,-192 2526,-186 2526,-180 2526,-180 2526,-152 2526,-152 2526,-146 2532,-140 2538,-140 2538,-140 2710,-140 2710,-140 2716,-140 2722,-146 2722,-152 2722,-152 2722,-180 2722,-180 2722,-186 2716,-192 2710,-192"/>
<text text-anchor="start" x="2582.337" y="-178" font-family="arial" font-weight="bold" font-size="10.00" fill="#000000">Non&#45;Culm as CAM</text>
<text text-anchor="start" x="2547.316" y="-161" font-family="arial" font-size="10.00" fill="#000000">The non&#45;Culm strata is nothing but</text>
<text text-anchor="start" x="2543.1505" y="-149" font-family="arial" font-size="10.00" fill="#000000"> Cambrian in age #GRE #chron&#45;hyp </text>
</g>
<!-- n17 -->
<g id="node24" class="node">
<title>n17</title>
<path fill="#ffffff" stroke="#ffe4b5" stroke-width="2" d="M3033,-708C3033,-708 2861,-708 2861,-708 2855,-708 2849,-702 2849,-696 2849,-696 2849,-668 2849,-668 2849,-662 2855,-656 2861,-656 2861,-656 3033,-656 3033,-656 3039,-656 3045,-662 3045,-668 3045,-668 3045,-696 3045,-696 3045,-702 3039,-708 3033,-708"/>
<text text-anchor="start" x="2894.224" y="-694" font-family="arial" font-weight="bold" font-size="10.00" fill="#000000">Some Non&#45;Culm as CM</text>
<text text-anchor="start" x="2858.933" y="-677" font-family="arial" font-size="10.00" fill="#000000">Some part of the non&#45;Culm strata is CM</text>
<text text-anchor="start" x="2895.8755" y="-665" font-family="arial" font-size="10.00" fill="#000000"> in age #pri #chron&#45;hyp</text>
</g>
<!-- n31 -->
<g id="node29" class="node">
<title>n31</title>
<path fill="#ffe4b5" stroke="#000000" d="M2710,-570C2710,-570 2538,-570 2538,-570 2532,-570 2526,-564 2526,-558 2526,-558 2526,-510 2526,-510 2526,-504 2532,-498 2538,-498 2538,-498 2710,-498 2710,-498 2716,-498 2722,-504 2722,-510 2722,-510 2722,-558 2722,-558 2722,-564 2716,-570 2710,-570"/>
<text text-anchor="start" x="2550.365" y="-556" font-family="arial" font-weight="bold" font-size="10.00" fill="#000000">Standard Sequence as Partition &#45;</text>
<text text-anchor="start" x="2600.1145" y="-546" font-family="arial" font-weight="bold" font-size="10.00" fill="#000000"> Non&#45;Culm</text>
<text text-anchor="start" x="2541.7625" y="-531" font-family="arial" font-size="10.00" fill="#000000">If some part of the non&#45;Culm strata is</text>
<text text-anchor="start" x="2535.9245" y="-519" font-family="arial" font-size="10.00" fill="#000000"> neiter CM, ML, OR nor SIL in age, then</text>
<text text-anchor="start" x="2551.49" y="-507" font-family="arial" font-size="10.00" fill="#000000"> it is CAM in age #pri #chron&#45;hyp</text>
</g>
<!-- n17&#45;&gt;n31 -->
<g id="edge29" class="edge">
<title>n17&#45;&gt;n31</title>
<path fill="none" stroke="#ff0000" d="M2889.9976,-655.8813C2840.7608,-633.3208 2768.815,-600.3549 2712.1587,-574.3947"/>
<polygon fill="#ff0000" stroke="#ff0000" points="2713.3943,-571.111 2702.8452,-570.1272 2710.4783,-577.4747 2713.3943,-571.111"/>
</g>
<!-- n32 -->
<g id="node30" class="node">
<title>n32</title>
<path fill="#f4a460" stroke="#000000" d="M2710,-300C2710,-300 2538,-300 2538,-300 2532,-300 2526,-294 2526,-288 2526,-288 2526,-276 2526,-276 2526,-270 2532,-264 2538,-264 2538,-264 2710,-264 2710,-264 2716,-264 2722,-270 2722,-276 2722,-276 2722,-288 2722,-288 2722,-294 2716,-300 2710,-300"/>
<text text-anchor="start" x="2559.273" y="-280" font-family="arial" font-weight="bold" font-size="10.00" fill="#000000">Dating the Non&#45;Culm&#45; GRE.1</text>
</g>
<!-- n17&#45;&gt;n32 -->
<g id="edge33" class="edge">
<title>n17&#45;&gt;n32</title>
<path fill="none" stroke="#ff0000" d="M2934.2509,-655.6811C2906.0633,-599.2517 2834.0007,-464.2659 2747,-372 2722.3178,-345.8241 2689.1565,-322.065 2663.4859,-305.5396"/>
<polygon fill="#ff0000" stroke="#ff0000" points="2665.0654,-302.3971 2654.7444,-300.0039 2661.3203,-308.311 2665.0654,-302.3971"/>
</g>
<!-- n18 -->
<g id="node25" class="node">
<title>n18</title>
<path fill="#ffffff" stroke="#ffe4b5" stroke-width="2" d="M2819,-708C2819,-708 2647,-708 2647,-708 2641,-708 2635,-702 2635,-696 2635,-696 2635,-668 2635,-668 2635,-662 2641,-656 2647,-656 2647,-656 2819,-656 2819,-656 2825,-656 2831,-662 2831,-668 2831,-668 2831,-696 2831,-696 2831,-702 2825,-708 2819,-708"/>
<text text-anchor="start" x="2681.054" y="-694" font-family="arial" font-weight="bold" font-size="10.00" fill="#000000">Some Non&#45;Culm as ML</text>
<text text-anchor="start" x="2645.763" y="-677" font-family="arial" font-size="10.00" fill="#000000">Some part of the non&#45;Culm strata is ML</text>
<text text-anchor="start" x="2681.8755" y="-665" font-family="arial" font-size="10.00" fill="#000000"> in age #pri #chron&#45;hyp</text>
</g>
<!-- n18&#45;&gt;n31 -->
<g id="edge30" class="edge">
<title>n18&#45;&gt;n31</title>
<path fill="none" stroke="#ff0000" d="M2713.7639,-655.8813C2698.0049,-634.4837 2675.3521,-603.7258 2656.7461,-578.4626"/>
<polygon fill="#ff0000" stroke="#ff0000" points="2659.3556,-576.1036 2650.6072,-570.1272 2653.7192,-580.2547 2659.3556,-576.1036"/>
</g>
<!-- n18&#45;&gt;n32 -->
<g id="edge34" class="edge">
<title>n18&#45;&gt;n32</title>
<path fill="none" stroke="#ff0000" d="M2740.2636,-655.8821C2754.2081,-600.4083 2779.5183,-468.0546 2734,-372 2720.4014,-343.3037 2692.6757,-320.7145 2668.4634,-305.3443"/>
<polygon fill="#ff0000" stroke="#ff0000" points="2670.0927,-302.2382 2659.7347,-300.0103 2666.4426,-308.2112 2670.0927,-302.2382"/>
</g>
<!-- n19 -->
<g id="node26" class="node">
<title>n19</title>
<path fill="#ffffff" stroke="#ffe4b5" stroke-width="2" d="M2605,-708C2605,-708 2427,-708 2427,-708 2421,-708 2415,-702 2415,-696 2415,-696 2415,-668 2415,-668 2415,-662 2421,-656 2427,-656 2427,-656 2605,-656 2605,-656 2611,-656 2617,-662 2617,-668 2617,-668 2617,-696 2617,-696 2617,-702 2611,-708 2605,-708"/>
<text text-anchor="start" x="2460.1645" y="-694" font-family="arial" font-weight="bold" font-size="10.00" fill="#000000">Some Non&#45;Culm as ORS</text>
<text text-anchor="start" x="2424.8735" y="-677" font-family="arial" font-size="10.00" fill="#000000">Some part of the non&#45;Culm strata is ORS</text>
<text text-anchor="start" x="2464.8755" y="-665" font-family="arial" font-size="10.00" fill="#000000"> in age #pri #chron&#45;hyp</text>
</g>
<!-- n19&#45;&gt;n31 -->
<g id="edge31" class="edge">
<title>n19&#45;&gt;n31</title>
<path fill="none" stroke="#ff0000" d="M2535.0596,-655.8813C2550.6741,-634.4837 2573.119,-603.7258 2591.5543,-578.4626"/>
<polygon fill="#ff0000" stroke="#ff0000" points="2594.5694,-580.2683 2597.6369,-570.1272 2588.9149,-576.142 2594.5694,-580.2683"/>
</g>
<!-- n19&#45;&gt;n32 -->
<g id="edge35" class="edge">
<title>n19&#45;&gt;n32</title>
<path fill="none" stroke="#ff0000" d="M2508.6035,-655.8824C2494.3868,-600.409 2468.481,-468.0561 2514,-372 2527.5986,-343.3037 2555.3243,-320.7145 2579.5366,-305.3443"/>
<polygon fill="#ff0000" stroke="#ff0000" points="2581.5574,-308.2112 2588.2653,-300.0103 2577.9073,-302.2382 2581.5574,-308.2112"/>
</g>
<!-- n20 -->
<g id="node27" class="node">
<title>n20</title>
<path fill="#ffffff" stroke="#ffe4b5" stroke-width="2" d="M2385,-708C2385,-708 2213,-708 2213,-708 2207,-708 2201,-702 2201,-696 2201,-696 2201,-668 2201,-668 2201,-662 2207,-656 2213,-656 2213,-656 2385,-656 2385,-656 2391,-656 2397,-662 2397,-668 2397,-668 2397,-696 2397,-696 2397,-702 2391,-708 2385,-708"/>
<text text-anchor="start" x="2246.4945" y="-694" font-family="arial" font-weight="bold" font-size="10.00" fill="#000000">Some Non&#45;Culm as SIL</text>
<text text-anchor="start" x="2211.2035" y="-677" font-family="arial" font-size="10.00" fill="#000000">Some part of the non&#45;Culm strata is SIL</text>
<text text-anchor="start" x="2247.8755" y="-665" font-family="arial" font-size="10.00" fill="#000000"> in age #pri #chron&#45;hyp</text>
</g>
<!-- n20&#45;&gt;n31 -->
<g id="edge32" class="edge">
<title>n20&#45;&gt;n31</title>
<path fill="none" stroke="#ff0000" d="M2356.3554,-655.8813C2405.897,-633.3208 2478.2883,-600.3549 2535.2954,-574.3947"/>
<polygon fill="#ff0000" stroke="#ff0000" points="2537.0163,-577.4569 2544.6666,-570.1272 2534.1153,-571.0864 2537.0163,-577.4569"/>
</g>
<!-- n20&#45;&gt;n32 -->
<g id="edge36" class="edge">
<title>n20&#45;&gt;n32</title>
<path fill="none" stroke="#ff0000" d="M2310.6513,-655.8522C2336.8279,-599.1773 2404.883,-462.815 2492,-372 2517.9887,-344.9081 2553.3956,-321.3053 2580.9966,-305.0755"/>
<polygon fill="#ff0000" stroke="#ff0000" points="2582.7534,-308.1027 2589.6619,-300.0701 2579.252,-302.0413 2582.7534,-308.1027"/>
</g>
<!-- n21 -->
<g id="node28" class="node">
<title>n21</title>
<path fill="#ffffff" stroke="#ffe4b5" stroke-width="2" d="M2713,-424C2713,-424 2535,-424 2535,-424 2529,-424 2523,-418 2523,-412 2523,-412 2523,-384 2523,-384 2523,-378 2529,-372 2535,-372 2535,-372 2713,-372 2713,-372 2719,-372 2725,-378 2725,-384 2725,-384 2725,-412 2725,-412 2725,-418 2719,-424 2713,-424"/>
<text text-anchor="start" x="2567.8895" y="-410" font-family="arial" font-weight="bold" font-size="10.00" fill="#000000">Some Non&#45;Culm as CAM</text>
<text text-anchor="start" x="2532.5985" y="-393" font-family="arial" font-size="10.00" fill="#000000">Some part of the non&#45;Culm strata is CAM</text>
<text text-anchor="start" x="2572.8755" y="-381" font-family="arial" font-size="10.00" fill="#000000"> in age #pri #chron&#45;hyp</text>
</g>
<!-- n21&#45;&gt;n32 -->
<g id="edge51" class="edge">
<title>n21&#45;&gt;n32</title>
<path fill="none" stroke="#00ff00" d="M2624,-371.9673C2624,-353.5665 2624,-328.923 2624,-310.0807"/>
<polygon fill="#00ff00" stroke="#00ff00" points="2627.5001,-310.0176 2624,-300.0176 2620.5001,-310.0176 2627.5001,-310.0176"/>
</g>
<!-- n31&#45;&gt;n21 -->
<g id="edge45" class="edge">
<title>n31&#45;&gt;n21</title>
<path fill="none" stroke="#00ff00" d="M2624,-497.9116C2624,-478.3005 2624,-454.1097 2624,-434.4438"/>
<polygon fill="#00ff00" stroke="#00ff00" points="2627.5001,-434.3317 2624,-424.3317 2620.5001,-434.3318 2627.5001,-434.3317"/>
</g>
<!-- n32&#45;&gt;n4 -->
<g id="edge46" class="edge">
<title>n32&#45;&gt;n4</title>
<path fill="none" stroke="#00ff00" d="M2624,-263.875C2624,-247.4878 2624,-222.8696 2624,-202.4234"/>
<polygon fill="#00ff00" stroke="#00ff00" points="2627.5001,-202.1773 2624,-192.1773 2620.5001,-202.1773 2627.5001,-202.1773"/>
</g>
<!-- n22 -->
<g id="node31" class="node">
<title>n22</title>
<path fill="#ffffff" stroke="#f4a460" stroke-width="2" d="M3471,-714C3471,-714 3299,-714 3299,-714 3293,-714 3287,-708 3287,-702 3287,-702 3287,-662 3287,-662 3287,-656 3293,-650 3299,-650 3299,-650 3471,-650 3471,-650 3477,-650 3483,-656 3483,-662 3483,-662 3483,-702 3483,-702 3483,-708 3477,-714 3471,-714"/>
<text text-anchor="start" x="3336.944" y="-700" font-family="arial" font-weight="bold" font-size="10.00" fill="#000000">Traversing Northward</text>
<text text-anchor="start" x="3305.5345" y="-683" font-family="arial" font-size="10.00" fill="#000000">The strata south of Exmoor become</text>
<text text-anchor="start" x="3302.476" y="-671" font-family="arial" font-size="10.00" fill="#000000"> progessively younger the furhter one</text>
<text text-anchor="start" x="3298.0405" y="-659" font-family="arial" font-size="10.00" fill="#000000"> traverses northward #GRE #chron&#45;hyp</text>
</g>
<!-- n23 -->
<g id="node32" class="node">
<title>n23</title>
<path fill="#ffffff" stroke="#f4a460" stroke-width="2" d="M3257,-720C3257,-720 3081,-720 3081,-720 3075,-720 3069,-714 3069,-708 3069,-708 3069,-656 3069,-656 3069,-650 3075,-644 3081,-644 3081,-644 3257,-644 3257,-644 3263,-644 3269,-650 3269,-656 3269,-656 3269,-708 3269,-708 3269,-714 3263,-720 3257,-720"/>
<text text-anchor="start" x="3092.8685" y="-706" font-family="arial" font-weight="bold" font-size="10.00" fill="#000000">Exmoor Youngest Devonian strata</text>
<text text-anchor="start" x="3089.812" y="-689" font-family="arial" font-size="10.00" fill="#000000">In Devon, among all the strata older</text>
<text text-anchor="start" x="3078.6885" y="-677" font-family="arial" font-size="10.00" fill="#000000"> than the New Red Sandstone, the strata</text>
<text text-anchor="start" x="3091.1995" y="-665" font-family="arial" font-size="10.00" fill="#000000"> of Exmoor are the youngest #GRE</text>
<text text-anchor="start" x="3142.6045" y="-653" font-family="arial" font-size="10.00" fill="#000000"> #chron&#45;hyp</text>
</g>
<!-- n24 -->
<g id="node33" class="node">
<title>n24</title>
<path fill="#ffffff" stroke="#ffc1c1" stroke-width="2" d="M3264.5,-566C3264.5,-566 3081.5,-566 3081.5,-566 3075.5,-566 3069.5,-560 3069.5,-554 3069.5,-554 3069.5,-514 3069.5,-514 3069.5,-508 3075.5,-502 3081.5,-502 3081.5,-502 3264.5,-502 3264.5,-502 3270.5,-502 3276.5,-508 3276.5,-514 3276.5,-514 3276.5,-554 3276.5,-554 3276.5,-560 3270.5,-566 3264.5,-566"/>
<text text-anchor="start" x="3102.0935" y="-552" font-family="arial" font-weight="bold" font-size="10.00" fill="#000000">Culm Youngest Devonian Strata</text>
<text text-anchor="start" x="3094.312" y="-535" font-family="arial" font-size="10.00" fill="#000000">In Devon, among all the strata older</text>
<text text-anchor="start" x="3084.028" y="-523" font-family="arial" font-size="10.00" fill="#000000"> than the New Red Sandstone, the Culm</text>
<text text-anchor="start" x="3079.5825" y="-511" font-family="arial" font-size="10.00" fill="#000000"> strata are the youngest #COA #chron&#45;hyp</text>
</g>
<!-- n23&#45;&gt;n24 -->
<g id="edge38" class="edge">
<title>n23&#45;&gt;n24</title>
<path fill="none" stroke="#ff0000" d="M3164.0419,-643.8863C3163.6497,-623.2775 3164.277,-597.7689 3165.6761,-576.5179"/>
<polygon fill="#ff0000" stroke="#ff0000" points="3169.1721,-576.6999 3166.4238,-566.4678 3162.1914,-576.1805 3169.1721,-576.6999"/>
</g>
<!-- n24&#45;&gt;n23 -->
<g id="edge37" class="edge">
<title>n24&#45;&gt;n23</title>
<path fill="none" stroke="#ff0000" d="M3177.8212,-566.4678C3178.4088,-586.1693 3177.9444,-611.6793 3176.6789,-633.7151"/>
<polygon fill="#ff0000" stroke="#ff0000" points="3173.1738,-633.6805 3176.0183,-643.8863 3180.1591,-634.1342 3173.1738,-633.6805"/>
</g>
</g>
</svg>
