
<!-- Generated by graphviz version 2.40.1 (20161225.0304)
 -->
<!-- Title: Argument Map Pages: 1 -->
<svg width="720pt" height="141pt"
 viewBox="0.00 0.00 720.00 140.93" xmlns="http://www.w3.org/2000/svg" xmlns:xlink="http://www.w3.org/1999/xlink">
<g id="graph0" class="graph" transform="scale(.2194 .2194) rotate(0) translate(4 638.4)">
<title>Argument Map</title>
<g id="clust1" class="cluster">
<title>cluster_1</title>
<polygon fill="#c6e2ff" stroke="#c6e2ff" points="8,-518 8,-620.4 224,-620.4 224,-518 8,-518"/>
<text text-anchor="start" x="32.3132" y="-605.6" font-family="arial" font-size="12.00" fill="#000000">Aporia I : Coal in Ancient Strata</text>
</g>
<g id="clust2" class="cluster">
<title>cluster_2</title>
<polygon fill="#ffe1ff" stroke="#ffe1ff" points="232,-8 232,-614.4 1098,-614.4 1098,-8 232,-8"/>
<text text-anchor="start" x="600.6578" y="-599.6" font-family="arial" font-size="12.00" fill="#000000">Dating of the Main Culm</text>
</g>
<g id="clust3" class="cluster">
<title>cluster_3</title>
<polygon fill="#eed2ee" stroke="#eed2ee" points="1106,-8 1106,-614.4 1960,-614.4 1960,-8 1106,-8"/>
<text text-anchor="start" x="1453.9842" y="-599.6" font-family="arial" font-size="12.00" fill="#000000">Dating of the Culm Limestone</text>
</g>
<g id="clust4" class="cluster">
<title>cluster_4</title>
<polygon fill="#d8bfd8" stroke="#d8bfd8" points="1968,-8 1968,-614.4 2828,-614.4 2828,-8 1968,-8"/>
<text text-anchor="start" x="2335.3252" y="-599.6" font-family="arial" font-size="12.00" fill="#000000">Dating of the Non&#45;Culm</text>
</g>
<g id="clust5" class="cluster">
<title>cluster_5</title>
<polygon fill="#e6e6fa" stroke="#e6e6fa" points="2836,-512 2836,-626.4 3266,-626.4 3266,-512 2836,-512"/>
<text text-anchor="start" x="2980.9752" y="-611.6" font-family="arial" font-size="12.00" fill="#000000">Youngest Devonian Strata</text>
</g>
<!-- n0 -->
<g id="node1" class="node">
<title>n0</title>
<path fill="#ffffff" stroke="#f4a460" stroke-width="2" d="M204,-590C204,-590 28,-590 28,-590 22,-590 16,-584 16,-578 16,-578 16,-538 16,-538 16,-532 22,-526 28,-526 28,-526 204,-526 204,-526 210,-526 216,-532 216,-538 216,-538 216,-578 216,-578 216,-584 210,-590 204,-590"/>
<text text-anchor="start" x="56.2565" y="-576" font-family="arial" font-weight="bold" font-size="10.00" fill="#000000">Instances of Ancient Strata</text>
<text text-anchor="start" x="25.9725" y="-559" font-family="arial" font-size="10.00" fill="#000000">In Munster and Pennsylvannia, there are</text>
<text text-anchor="start" x="33.201" y="-547" font-family="arial" font-size="10.00" fill="#000000"> pre&#45;Old Red Sandstone strata #GRE</text>
<text text-anchor="start" x="89.6045" y="-535" font-family="arial" font-size="10.00" fill="#000000"> #chron&#45;hyp</text>
</g>
<!-- n1 -->
<g id="node2" class="node">
<title>n1</title>
<path fill="#ffffff" stroke="#f4a460" stroke-width="2" d="M746,-68C746,-68 574,-68 574,-68 568,-68 562,-62 562,-56 562,-56 562,-28 562,-28 562,-22 568,-16 574,-16 574,-16 746,-16 746,-16 752,-16 758,-22 758,-28 758,-28 758,-56 758,-56 758,-62 752,-68 746,-68"/>
<text text-anchor="start" x="616.9475" y="-54" font-family="arial" font-weight="bold" font-size="10.00" fill="#000000">Main Culm as CAM</text>
<text text-anchor="start" x="574.9925" y="-37" font-family="arial" font-size="10.00" fill="#000000">The whole of the main Culm is CAM in</text>
<text text-anchor="start" x="607.4845" y="-25" font-family="arial" font-size="10.00" fill="#000000"> age #GRE #chron&#45;hyp </text>
</g>
<!-- n4 -->
<g id="node3" class="node">
<title>n4</title>
<path fill="#ffffff" stroke="#ffe4b5" stroke-width="2" d="M1078,-584C1078,-584 900,-584 900,-584 894,-584 888,-578 888,-572 888,-572 888,-544 888,-544 888,-538 894,-532 900,-532 900,-532 1078,-532 1078,-532 1084,-532 1090,-538 1090,-544 1090,-544 1090,-572 1090,-572 1090,-578 1084,-584 1078,-584"/>
<text text-anchor="start" x="934.8345" y="-570" font-family="arial" font-weight="bold" font-size="10.00" fill="#000000">Some Main Culm as CM</text>
<text text-anchor="start" x="897.599" y="-553" font-family="arial" font-size="10.00" fill="#000000">Some part of the main Culm is CM in age</text>
<text text-anchor="start" x="952.882" y="-541" font-family="arial" font-size="10.00" fill="#000000"> #pri #chron&#45;hyp</text>
</g>
<!-- n21 -->
<g id="node8" class="node">
<title>n21</title>
<path fill="#ffe4b5" stroke="#000000" d="M746,-446C746,-446 574,-446 574,-446 568,-446 562,-440 562,-434 562,-434 562,-386 562,-386 562,-380 568,-374 574,-374 574,-374 746,-374 746,-374 752,-374 758,-380 758,-386 758,-386 758,-434 758,-434 758,-440 752,-446 746,-446"/>
<text text-anchor="start" x="574.1425" y="-432" font-family="arial" font-weight="bold" font-size="10.00" fill="#000000">Standard Sequence as Partition &#45; Main</text>
<text text-anchor="start" x="646.9475" y="-422" font-family="arial" font-weight="bold" font-size="10.00" fill="#000000"> Culm</text>
<text text-anchor="start" x="574.9975" y="-407" font-family="arial" font-size="10.00" fill="#000000">If some main Culm strata is neiter CM,</text>
<text text-anchor="start" x="574.9835" y="-395" font-family="arial" font-size="10.00" fill="#000000"> ML, OR nor SIL in age, then it is CAM</text>
<text text-anchor="start" x="608.8755" y="-383" font-family="arial" font-size="10.00" fill="#000000"> in age #pri #chron&#45;hyp</text>
</g>
<!-- n4&#45;&gt;n21 -->
<g id="edge1" class="edge">
<title>n4&#45;&gt;n21</title>
<path fill="none" stroke="#ff0000" d="M930.9387,-531.8813C880.684,-509.2742 807.2028,-476.2189 749.4395,-450.2342"/>
<polygon fill="#ff0000" stroke="#ff0000" points="750.8655,-447.0379 740.3098,-446.1272 747.9937,-453.4217 750.8655,-447.0379"/>
</g>
<!-- n22 -->
<g id="node9" class="node">
<title>n22</title>
<path fill="#f4a460" stroke="#000000" d="M746,-176C746,-176 574,-176 574,-176 568,-176 562,-170 562,-164 562,-164 562,-152 562,-152 562,-146 568,-140 574,-140 574,-140 746,-140 746,-140 752,-140 758,-146 758,-152 758,-152 758,-164 758,-164 758,-170 752,-176 746,-176"/>
<text text-anchor="start" x="592.494" y="-156" font-family="arial" font-weight="bold" font-size="10.00" fill="#000000">Dating the Main Culm &#45; GRE.1</text>
</g>
<!-- n4&#45;&gt;n22 -->
<g id="edge5" class="edge">
<title>n4&#45;&gt;n22</title>
<path fill="none" stroke="#ff0000" d="M975.3147,-531.8147C945.1547,-475.6448 868.5622,-341.1334 780,-248 755.5197,-222.2562 723.0546,-198.3928 698.0658,-181.7159"/>
<polygon fill="#ff0000" stroke="#ff0000" points="699.8426,-178.6954 689.5641,-176.1255 695.9966,-184.5442 699.8426,-178.6954"/>
</g>
<!-- n5 -->
<g id="node4" class="node">
<title>n5</title>
<path fill="#ffffff" stroke="#ffe4b5" stroke-width="2" d="M857.5,-584C857.5,-584 680.5,-584 680.5,-584 674.5,-584 668.5,-578 668.5,-572 668.5,-572 668.5,-544 668.5,-544 668.5,-538 674.5,-532 680.5,-532 680.5,-532 857.5,-532 857.5,-532 863.5,-532 869.5,-538 869.5,-544 869.5,-544 869.5,-572 869.5,-572 869.5,-578 863.5,-584 857.5,-584"/>
<text text-anchor="start" x="716.1645" y="-570" font-family="arial" font-weight="bold" font-size="10.00" fill="#000000">Some Main Culm as ML</text>
<text text-anchor="start" x="678.929" y="-553" font-family="arial" font-size="10.00" fill="#000000">Some part of the main Culm is ML in age</text>
<text text-anchor="start" x="733.382" y="-541" font-family="arial" font-size="10.00" fill="#000000"> #pri #chron&#45;hyp</text>
</g>
<!-- n5&#45;&gt;n21 -->
<g id="edge2" class="edge">
<title>n5&#45;&gt;n21</title>
<path fill="none" stroke="#ff0000" d="M749.7639,-531.8813C734.0049,-510.4837 711.3521,-479.7258 692.7461,-454.4626"/>
<polygon fill="#ff0000" stroke="#ff0000" points="695.3556,-452.1036 686.6072,-446.1272 689.7192,-456.2547 695.3556,-452.1036"/>
</g>
<!-- n5&#45;&gt;n22 -->
<g id="edge6" class="edge">
<title>n5&#45;&gt;n22</title>
<path fill="none" stroke="#ff0000" d="M775.8116,-531.9077C788.8372,-476.4829 812.176,-344.2179 767,-248 753.6772,-219.6245 726.5671,-196.9746 702.9701,-181.4945"/>
<polygon fill="#ff0000" stroke="#ff0000" points="704.7902,-178.5044 694.4675,-176.1184 701.0492,-184.4209 704.7902,-178.5044"/>
</g>
<!-- n6 -->
<g id="node5" class="node">
<title>n6</title>
<path fill="#ffffff" stroke="#ffe4b5" stroke-width="2" d="M638,-584C638,-584 466,-584 466,-584 460,-584 454,-578 454,-572 454,-572 454,-544 454,-544 454,-538 460,-532 466,-532 466,-532 638,-532 638,-532 644,-532 650,-538 650,-544 650,-544 650,-572 650,-572 650,-578 644,-584 638,-584"/>
<text text-anchor="start" x="494.775" y="-570" font-family="arial" font-weight="bold" font-size="10.00" fill="#000000">Some Main Culm as ORS</text>
<text text-anchor="start" x="467.2675" y="-553" font-family="arial" font-size="10.00" fill="#000000">Some part of the main Culm is ORS in</text>
<text text-anchor="start" x="506.154" y="-541" font-family="arial" font-size="10.00" fill="#000000"> age #pri #chron&#45;hyp</text>
</g>
<!-- n6&#45;&gt;n21 -->
<g id="edge3" class="edge">
<title>n6&#45;&gt;n21</title>
<path fill="none" stroke="#ff0000" d="M571.0596,-531.8813C586.6741,-510.4837 609.119,-479.7258 627.5543,-454.4626"/>
<polygon fill="#ff0000" stroke="#ff0000" points="630.5694,-456.2683 633.6369,-446.1272 624.9149,-452.142 630.5694,-456.2683"/>
</g>
<!-- n6&#45;&gt;n22 -->
<g id="edge7" class="edge">
<title>n6&#45;&gt;n22</title>
<path fill="none" stroke="#ff0000" d="M545.08,-531.9189C531.8293,-476.5155 507.98,-344.2892 553,-248 566.277,-219.6031 593.3876,-196.9533 616.9962,-181.4787"/>
<polygon fill="#ff0000" stroke="#ff0000" points="618.9182,-184.4044 625.5035,-176.1048 615.1798,-178.4863 618.9182,-184.4044"/>
</g>
<!-- n7 -->
<g id="node6" class="node">
<title>n7</title>
<path fill="#ffffff" stroke="#ffe4b5" stroke-width="2" d="M424,-584C424,-584 252,-584 252,-584 246,-584 240,-578 240,-572 240,-572 240,-544 240,-544 240,-538 246,-532 252,-532 252,-532 424,-532 424,-532 430,-532 436,-538 436,-544 436,-544 436,-572 436,-572 436,-578 430,-584 424,-584"/>
<text text-anchor="start" x="284.105" y="-570" font-family="arial" font-weight="bold" font-size="10.00" fill="#000000">Some Main Culm as SIL</text>
<text text-anchor="start" x="256.5975" y="-553" font-family="arial" font-size="10.00" fill="#000000">Some part of the main Culm is SIL in</text>
<text text-anchor="start" x="292.154" y="-541" font-family="arial" font-size="10.00" fill="#000000"> age #pri #chron&#45;hyp</text>
</g>
<!-- n7&#45;&gt;n21 -->
<g id="edge4" class="edge">
<title>n7&#45;&gt;n21</title>
<path fill="none" stroke="#ff0000" d="M394.8259,-531.8813C443.9102,-509.3208 515.6333,-476.3549 572.1143,-450.3947"/>
<polygon fill="#ff0000" stroke="#ff0000" points="573.7744,-453.4837 581.3989,-446.1272 570.851,-447.1234 573.7744,-453.4837"/>
</g>
<!-- n7&#45;&gt;n22 -->
<g id="edge8" class="edge">
<title>n7&#45;&gt;n22</title>
<path fill="none" stroke="#ff0000" d="M349.7253,-531.9229C376.0476,-475.387 444.3722,-339.2818 531,-248 556.4176,-221.2169 590.973,-197.6186 617.9224,-181.3126"/>
<polygon fill="#ff0000" stroke="#ff0000" points="619.9379,-184.1863 626.746,-176.0683 616.3614,-178.1689 619.9379,-184.1863"/>
</g>
<!-- n8 -->
<g id="node7" class="node">
<title>n8</title>
<path fill="#ffffff" stroke="#ffe4b5" stroke-width="2" d="M746,-300C746,-300 574,-300 574,-300 568,-300 562,-294 562,-288 562,-288 562,-260 562,-260 562,-254 568,-248 574,-248 574,-248 746,-248 746,-248 752,-248 758,-254 758,-260 758,-260 758,-288 758,-288 758,-294 752,-300 746,-300"/>
<text text-anchor="start" x="602.5" y="-286" font-family="arial" font-weight="bold" font-size="10.00" fill="#000000">Some Main Culm as CAM</text>
<text text-anchor="start" x="574.9925" y="-269" font-family="arial" font-size="10.00" fill="#000000">Some part of the main Culm is CAM in</text>
<text text-anchor="start" x="614.154" y="-257" font-family="arial" font-size="10.00" fill="#000000"> age #pri #chron&#45;hyp</text>
</g>
<!-- n8&#45;&gt;n22 -->
<g id="edge31" class="edge">
<title>n8&#45;&gt;n22</title>
<path fill="none" stroke="#00ff00" d="M660,-247.9673C660,-229.5665 660,-204.923 660,-186.0807"/>
<polygon fill="#00ff00" stroke="#00ff00" points="663.5001,-186.0176 660,-176.0176 656.5001,-186.0176 663.5001,-186.0176"/>
</g>
<!-- n21&#45;&gt;n8 -->
<g id="edge25" class="edge">
<title>n21&#45;&gt;n8</title>
<path fill="none" stroke="#00ff00" d="M660,-373.9116C660,-354.3005 660,-330.1097 660,-310.4438"/>
<polygon fill="#00ff00" stroke="#00ff00" points="663.5001,-310.3317 660,-300.3317 656.5001,-310.3318 663.5001,-310.3317"/>
</g>
<!-- n22&#45;&gt;n1 -->
<g id="edge26" class="edge">
<title>n22&#45;&gt;n1</title>
<path fill="none" stroke="#00ff00" d="M660,-139.875C660,-123.4878 660,-98.8696 660,-78.4234"/>
<polygon fill="#00ff00" stroke="#00ff00" points="663.5001,-78.1773 660,-68.1773 656.5001,-78.1773 663.5001,-78.1773"/>
</g>
<!-- n2 -->
<g id="node10" class="node">
<title>n2</title>
<path fill="#ffffff" stroke="#f4a460" stroke-width="2" d="M1621,-68C1621,-68 1445,-68 1445,-68 1439,-68 1433,-62 1433,-56 1433,-56 1433,-28 1433,-28 1433,-22 1439,-16 1445,-16 1445,-16 1621,-16 1621,-16 1627,-16 1633,-22 1633,-28 1633,-28 1633,-56 1633,-56 1633,-62 1627,-68 1621,-68"/>
<text text-anchor="start" x="1504.1095" y="-54" font-family="arial" font-weight="bold" font-size="10.00" fill="#000000">BCL as CAM</text>
<text text-anchor="start" x="1442.7025" y="-37" font-family="arial" font-size="10.00" fill="#000000">The black Culm Limestone is nothing but</text>
<text text-anchor="start" x="1452.1505" y="-25" font-family="arial" font-size="10.00" fill="#000000"> Cambrian in age #GRE #chron&#45;hyp </text>
</g>
<!-- n9 -->
<g id="node11" class="node">
<title>n9</title>
<path fill="#ffffff" stroke="#ffe4b5" stroke-width="2" d="M1940,-584C1940,-584 1768,-584 1768,-584 1762,-584 1756,-578 1756,-572 1756,-572 1756,-544 1756,-544 1756,-538 1762,-532 1768,-532 1768,-532 1940,-532 1940,-532 1946,-532 1952,-538 1952,-544 1952,-544 1952,-572 1952,-572 1952,-578 1946,-584 1940,-584"/>
<text text-anchor="start" x="1813.9965" y="-570" font-family="arial" font-weight="bold" font-size="10.00" fill="#000000">Some BCL as CM</text>
<text text-anchor="start" x="1766.482" y="-553" font-family="arial" font-size="10.00" fill="#000000">Some part of the black Culm Limestone</text>
<text text-anchor="start" x="1788.713" y="-541" font-family="arial" font-size="10.00" fill="#000000"> is CM in age #pri #chron&#45;hyp</text>
</g>
<!-- n23 -->
<g id="node16" class="node">
<title>n23</title>
<path fill="#ffe4b5" stroke="#000000" d="M1621,-448C1621,-448 1445,-448 1445,-448 1439,-448 1433,-442 1433,-436 1433,-436 1433,-384 1433,-384 1433,-378 1439,-372 1445,-372 1445,-372 1621,-372 1621,-372 1627,-372 1633,-378 1633,-384 1633,-384 1633,-436 1633,-436 1633,-442 1627,-448 1621,-448"/>
<text text-anchor="start" x="1448.252" y="-434" font-family="arial" font-weight="bold" font-size="10.00" fill="#000000">Standard Sequence as Partition &#45; BCL</text>
<text text-anchor="start" x="1466.5985" y="-417" font-family="arial" font-size="10.00" fill="#000000">If some part of the black Culm</text>
<text text-anchor="start" x="1442.9885" y="-405" font-family="arial" font-size="10.00" fill="#000000"> Limestone is neiter CM, ML, OR nor SIL</text>
<text text-anchor="start" x="1459.372" y="-393" font-family="arial" font-size="10.00" fill="#000000"> in age, then it is CAM in age #pri</text>
<text text-anchor="start" x="1506.6045" y="-381" font-family="arial" font-size="10.00" fill="#000000"> #chron&#45;hyp</text>
</g>
<!-- n9&#45;&gt;n23 -->
<g id="edge9" class="edge">
<title>n9&#45;&gt;n23</title>
<path fill="none" stroke="#ff0000" d="M1797.3506,-531.8813C1749.6121,-509.871 1680.3927,-477.9568 1624.7593,-452.3065"/>
<polygon fill="#ff0000" stroke="#ff0000" points="1626.147,-449.0922 1615.6003,-448.0836 1623.2161,-455.4491 1626.147,-449.0922"/>
</g>
<!-- n24 -->
<g id="node17" class="node">
<title>n24</title>
<path fill="#f4a460" stroke="#000000" d="M1619,-176C1619,-176 1447,-176 1447,-176 1441,-176 1435,-170 1435,-164 1435,-164 1435,-152 1435,-152 1435,-146 1441,-140 1447,-140 1447,-140 1619,-140 1619,-140 1625,-140 1631,-146 1631,-152 1631,-152 1631,-164 1631,-164 1631,-170 1625,-176 1619,-176"/>
<text text-anchor="start" x="1479.656" y="-156" font-family="arial" font-weight="bold" font-size="10.00" fill="#000000">Dating the BCL &#45; GRE.1</text>
</g>
<!-- n9&#45;&gt;n24 -->
<g id="edge13" class="edge">
<title>n9&#45;&gt;n24</title>
<path fill="none" stroke="#ff0000" d="M1841.0719,-531.7658C1812.5195,-475.501 1739.6872,-340.8161 1653,-248 1628.7518,-222.0375 1596.2715,-198.1885 1571.2178,-181.5727"/>
<polygon fill="#ff0000" stroke="#ff0000" points="1572.9781,-178.5421 1562.6914,-176.0056 1569.1511,-184.4034 1572.9781,-178.5421"/>
</g>
<!-- n10 -->
<g id="node12" class="node">
<title>n10</title>
<path fill="#ffffff" stroke="#ffe4b5" stroke-width="2" d="M1726,-584C1726,-584 1554,-584 1554,-584 1548,-584 1542,-578 1542,-572 1542,-572 1542,-544 1542,-544 1542,-538 1548,-532 1554,-532 1554,-532 1726,-532 1726,-532 1732,-532 1738,-538 1738,-544 1738,-544 1738,-572 1738,-572 1738,-578 1732,-584 1726,-584"/>
<text text-anchor="start" x="1600.8265" y="-570" font-family="arial" font-weight="bold" font-size="10.00" fill="#000000">Some BCL as ML</text>
<text text-anchor="start" x="1552.482" y="-553" font-family="arial" font-size="10.00" fill="#000000">Some part of the black Culm Limestone</text>
<text text-anchor="start" x="1575.543" y="-541" font-family="arial" font-size="10.00" fill="#000000"> is ML in age #pri #chron&#45;hyp</text>
</g>
<!-- n10&#45;&gt;n23 -->
<g id="edge10" class="edge">
<title>n10&#45;&gt;n23</title>
<path fill="none" stroke="#ff0000" d="M1621.1169,-531.8813C1606.0243,-511.0056 1584.4906,-481.2206 1566.4886,-456.3207"/>
<polygon fill="#ff0000" stroke="#ff0000" points="1569.2288,-454.1369 1560.5334,-448.0836 1563.556,-458.2382 1569.2288,-454.1369"/>
</g>
<!-- n10&#45;&gt;n24 -->
<g id="edge14" class="edge">
<title>n10&#45;&gt;n24</title>
<path fill="none" stroke="#ff0000" d="M1647.1499,-531.873C1660.8589,-476.3816 1685.64,-343.9962 1640,-248 1626.4937,-219.5917 1599.244,-196.8827 1575.6255,-181.3822"/>
<polygon fill="#ff0000" stroke="#ff0000" points="1577.4422,-178.3899 1567.1203,-176.0004 1573.6992,-184.3052 1577.4422,-178.3899"/>
</g>
<!-- n11 -->
<g id="node13" class="node">
<title>n11</title>
<path fill="#ffffff" stroke="#ffe4b5" stroke-width="2" d="M1512,-584C1512,-584 1340,-584 1340,-584 1334,-584 1328,-578 1328,-572 1328,-572 1328,-544 1328,-544 1328,-538 1334,-532 1340,-532 1340,-532 1512,-532 1512,-532 1518,-532 1524,-538 1524,-544 1524,-544 1524,-572 1524,-572 1524,-578 1518,-584 1512,-584"/>
<text text-anchor="start" x="1382.937" y="-570" font-family="arial" font-weight="bold" font-size="10.00" fill="#000000">Some BCL as ORS</text>
<text text-anchor="start" x="1338.482" y="-553" font-family="arial" font-size="10.00" fill="#000000">Some part of the black Culm Limestone</text>
<text text-anchor="start" x="1357.6535" y="-541" font-family="arial" font-size="10.00" fill="#000000"> is ORS in age #pri #chron&#45;hyp</text>
</g>
<!-- n11&#45;&gt;n23 -->
<g id="edge11" class="edge">
<title>n11&#45;&gt;n23</title>
<path fill="none" stroke="#ff0000" d="M1444.8831,-531.8813C1459.9757,-511.0056 1481.5094,-481.2206 1499.5114,-456.3207"/>
<polygon fill="#ff0000" stroke="#ff0000" points="1502.444,-458.2382 1505.4666,-448.0836 1496.7712,-454.1369 1502.444,-458.2382"/>
</g>
<!-- n11&#45;&gt;n24 -->
<g id="edge15" class="edge">
<title>n11&#45;&gt;n24</title>
<path fill="none" stroke="#ff0000" d="M1418.8501,-531.873C1405.1411,-476.3816 1380.36,-343.9962 1426,-248 1439.5063,-219.5917 1466.756,-196.8827 1490.3745,-181.3822"/>
<polygon fill="#ff0000" stroke="#ff0000" points="1492.3008,-184.3052 1498.8797,-176.0004 1488.5578,-178.3899 1492.3008,-184.3052"/>
</g>
<!-- n12 -->
<g id="node14" class="node">
<title>n12</title>
<path fill="#ffffff" stroke="#ffe4b5" stroke-width="2" d="M1298,-584C1298,-584 1126,-584 1126,-584 1120,-584 1114,-578 1114,-572 1114,-572 1114,-544 1114,-544 1114,-538 1120,-532 1126,-532 1126,-532 1298,-532 1298,-532 1304,-532 1310,-538 1310,-544 1310,-544 1310,-572 1310,-572 1310,-578 1304,-584 1298,-584"/>
<text text-anchor="start" x="1172.267" y="-570" font-family="arial" font-weight="bold" font-size="10.00" fill="#000000">Some BCL as SIL</text>
<text text-anchor="start" x="1124.482" y="-553" font-family="arial" font-size="10.00" fill="#000000">Some part of the black Culm Limestone</text>
<text text-anchor="start" x="1146.9835" y="-541" font-family="arial" font-size="10.00" fill="#000000"> is SIL in age #pri #chron&#45;hyp</text>
</g>
<!-- n12&#45;&gt;n23 -->
<g id="edge12" class="edge">
<title>n12&#45;&gt;n23</title>
<path fill="none" stroke="#ff0000" d="M1268.6494,-531.8813C1316.3879,-509.871 1385.6073,-477.9568 1441.2407,-452.3065"/>
<polygon fill="#ff0000" stroke="#ff0000" points="1442.7839,-455.4491 1450.3997,-448.0836 1439.853,-449.0922 1442.7839,-455.4491"/>
</g>
<!-- n12&#45;&gt;n24 -->
<g id="edge16" class="edge">
<title>n12&#45;&gt;n24</title>
<path fill="none" stroke="#ff0000" d="M1223.6316,-531.9181C1249.7528,-475.3729 1317.6035,-339.2505 1404,-248 1429.3864,-221.1873 1463.9436,-197.5907 1490.9016,-181.2929"/>
<polygon fill="#ff0000" stroke="#ff0000" points="1492.917,-184.1667 1499.7283,-176.0515 1489.3429,-178.1479 1492.917,-184.1667"/>
</g>
<!-- n13 -->
<g id="node15" class="node">
<title>n13</title>
<path fill="#ffffff" stroke="#ffe4b5" stroke-width="2" d="M1619,-300C1619,-300 1447,-300 1447,-300 1441,-300 1435,-294 1435,-288 1435,-288 1435,-260 1435,-260 1435,-254 1441,-248 1447,-248 1447,-248 1619,-248 1619,-248 1625,-248 1631,-254 1631,-260 1631,-260 1631,-288 1631,-288 1631,-294 1625,-300 1619,-300"/>
<text text-anchor="start" x="1489.662" y="-286" font-family="arial" font-weight="bold" font-size="10.00" fill="#000000">Some BCL as CAM</text>
<text text-anchor="start" x="1445.482" y="-269" font-family="arial" font-size="10.00" fill="#000000">Some part of the black Culm Limestone</text>
<text text-anchor="start" x="1464.3785" y="-257" font-family="arial" font-size="10.00" fill="#000000"> is CAM in age #pri #chron&#45;hyp</text>
</g>
<!-- n13&#45;&gt;n24 -->
<g id="edge32" class="edge">
<title>n13&#45;&gt;n24</title>
<path fill="none" stroke="#00ff00" d="M1533,-247.9673C1533,-229.5665 1533,-204.923 1533,-186.0807"/>
<polygon fill="#00ff00" stroke="#00ff00" points="1536.5001,-186.0176 1533,-176.0176 1529.5001,-186.0176 1536.5001,-186.0176"/>
</g>
<!-- n23&#45;&gt;n13 -->
<g id="edge27" class="edge">
<title>n23&#45;&gt;n13</title>
<path fill="none" stroke="#00ff00" d="M1533,-371.7545C1533,-352.5306 1533,-329.3546 1533,-310.3946"/>
<polygon fill="#00ff00" stroke="#00ff00" points="1536.5001,-310.3468 1533,-300.3469 1529.5001,-310.3469 1536.5001,-310.3468"/>
</g>
<!-- n24&#45;&gt;n2 -->
<g id="edge28" class="edge">
<title>n24&#45;&gt;n2</title>
<path fill="none" stroke="#00ff00" d="M1533,-139.875C1533,-123.4878 1533,-98.8696 1533,-78.4234"/>
<polygon fill="#00ff00" stroke="#00ff00" points="1536.5001,-78.1773 1533,-68.1773 1529.5001,-78.1773 1536.5001,-78.1773"/>
</g>
<!-- n3 -->
<g id="node18" class="node">
<title>n3</title>
<path fill="#ffffff" stroke="#f4a460" stroke-width="2" d="M2485,-68C2485,-68 2313,-68 2313,-68 2307,-68 2301,-62 2301,-56 2301,-56 2301,-28 2301,-28 2301,-22 2307,-16 2313,-16 2313,-16 2485,-16 2485,-16 2491,-16 2497,-22 2497,-28 2497,-28 2497,-56 2497,-56 2497,-62 2491,-68 2485,-68"/>
<text text-anchor="start" x="2357.337" y="-54" font-family="arial" font-weight="bold" font-size="10.00" fill="#000000">Non&#45;Culm as CAM</text>
<text text-anchor="start" x="2322.316" y="-37" font-family="arial" font-size="10.00" fill="#000000">The non&#45;Culm strata is nothing but</text>
<text text-anchor="start" x="2318.1505" y="-25" font-family="arial" font-size="10.00" fill="#000000"> Cambrian in age #GRE #chron&#45;hyp </text>
</g>
<!-- n14 -->
<g id="node19" class="node">
<title>n14</title>
<path fill="#ffffff" stroke="#ffe4b5" stroke-width="2" d="M2808,-584C2808,-584 2636,-584 2636,-584 2630,-584 2624,-578 2624,-572 2624,-572 2624,-544 2624,-544 2624,-538 2630,-532 2636,-532 2636,-532 2808,-532 2808,-532 2814,-532 2820,-538 2820,-544 2820,-544 2820,-572 2820,-572 2820,-578 2814,-584 2808,-584"/>
<text text-anchor="start" x="2669.224" y="-570" font-family="arial" font-weight="bold" font-size="10.00" fill="#000000">Some Non&#45;Culm as CM</text>
<text text-anchor="start" x="2633.933" y="-553" font-family="arial" font-size="10.00" fill="#000000">Some part of the non&#45;Culm strata is CM</text>
<text text-anchor="start" x="2670.8755" y="-541" font-family="arial" font-size="10.00" fill="#000000"> in age #pri #chron&#45;hyp</text>
</g>
<!-- n25 -->
<g id="node24" class="node">
<title>n25</title>
<path fill="#ffe4b5" stroke="#000000" d="M2485,-446C2485,-446 2313,-446 2313,-446 2307,-446 2301,-440 2301,-434 2301,-434 2301,-386 2301,-386 2301,-380 2307,-374 2313,-374 2313,-374 2485,-374 2485,-374 2491,-374 2497,-380 2497,-386 2497,-386 2497,-434 2497,-434 2497,-440 2491,-446 2485,-446"/>
<text text-anchor="start" x="2325.365" y="-432" font-family="arial" font-weight="bold" font-size="10.00" fill="#000000">Standard Sequence as Partition &#45;</text>
<text text-anchor="start" x="2375.1145" y="-422" font-family="arial" font-weight="bold" font-size="10.00" fill="#000000"> Non&#45;Culm</text>
<text text-anchor="start" x="2316.7625" y="-407" font-family="arial" font-size="10.00" fill="#000000">If some part of the non&#45;Culm strata is</text>
<text text-anchor="start" x="2310.9245" y="-395" font-family="arial" font-size="10.00" fill="#000000"> neiter CM, ML, OR nor SIL in age, then</text>
<text text-anchor="start" x="2326.49" y="-383" font-family="arial" font-size="10.00" fill="#000000"> it is CAM in age #pri #chron&#45;hyp</text>
</g>
<!-- n14&#45;&gt;n25 -->
<g id="edge17" class="edge">
<title>n14&#45;&gt;n25</title>
<path fill="none" stroke="#ff0000" d="M2664.9976,-531.8813C2615.7608,-509.3208 2543.815,-476.3549 2487.1587,-450.3947"/>
<polygon fill="#ff0000" stroke="#ff0000" points="2488.3943,-447.111 2477.8452,-446.1272 2485.4783,-453.4747 2488.3943,-447.111"/>
</g>
<!-- n26 -->
<g id="node25" class="node">
<title>n26</title>
<path fill="#f4a460" stroke="#000000" d="M2485,-176C2485,-176 2313,-176 2313,-176 2307,-176 2301,-170 2301,-164 2301,-164 2301,-152 2301,-152 2301,-146 2307,-140 2313,-140 2313,-140 2485,-140 2485,-140 2491,-140 2497,-146 2497,-152 2497,-152 2497,-164 2497,-164 2497,-170 2491,-176 2485,-176"/>
<text text-anchor="start" x="2334.273" y="-156" font-family="arial" font-weight="bold" font-size="10.00" fill="#000000">Dating the Non&#45;Culm&#45; GRE.1</text>
</g>
<!-- n14&#45;&gt;n26 -->
<g id="edge21" class="edge">
<title>n14&#45;&gt;n26</title>
<path fill="none" stroke="#ff0000" d="M2709.2509,-531.6811C2681.0633,-475.2517 2609.0007,-340.2659 2522,-248 2497.3178,-221.8241 2464.1565,-198.065 2438.4859,-181.5396"/>
<polygon fill="#ff0000" stroke="#ff0000" points="2440.0654,-178.3971 2429.7444,-176.0039 2436.3203,-184.311 2440.0654,-178.3971"/>
</g>
<!-- n15 -->
<g id="node20" class="node">
<title>n15</title>
<path fill="#ffffff" stroke="#ffe4b5" stroke-width="2" d="M2594,-584C2594,-584 2422,-584 2422,-584 2416,-584 2410,-578 2410,-572 2410,-572 2410,-544 2410,-544 2410,-538 2416,-532 2422,-532 2422,-532 2594,-532 2594,-532 2600,-532 2606,-538 2606,-544 2606,-544 2606,-572 2606,-572 2606,-578 2600,-584 2594,-584"/>
<text text-anchor="start" x="2456.054" y="-570" font-family="arial" font-weight="bold" font-size="10.00" fill="#000000">Some Non&#45;Culm as ML</text>
<text text-anchor="start" x="2420.763" y="-553" font-family="arial" font-size="10.00" fill="#000000">Some part of the non&#45;Culm strata is ML</text>
<text text-anchor="start" x="2456.8755" y="-541" font-family="arial" font-size="10.00" fill="#000000"> in age #pri #chron&#45;hyp</text>
</g>
<!-- n15&#45;&gt;n25 -->
<g id="edge18" class="edge">
<title>n15&#45;&gt;n25</title>
<path fill="none" stroke="#ff0000" d="M2488.7639,-531.8813C2473.0049,-510.4837 2450.3521,-479.7258 2431.7461,-454.4626"/>
<polygon fill="#ff0000" stroke="#ff0000" points="2434.3556,-452.1036 2425.6072,-446.1272 2428.7192,-456.2547 2434.3556,-452.1036"/>
</g>
<!-- n15&#45;&gt;n26 -->
<g id="edge22" class="edge">
<title>n15&#45;&gt;n26</title>
<path fill="none" stroke="#ff0000" d="M2515.2636,-531.8821C2529.2081,-476.4083 2554.5183,-344.0546 2509,-248 2495.4014,-219.3037 2467.6757,-196.7145 2443.4634,-181.3443"/>
<polygon fill="#ff0000" stroke="#ff0000" points="2445.0927,-178.2382 2434.7347,-176.0103 2441.4426,-184.2112 2445.0927,-178.2382"/>
</g>
<!-- n16 -->
<g id="node21" class="node">
<title>n16</title>
<path fill="#ffffff" stroke="#ffe4b5" stroke-width="2" d="M2380,-584C2380,-584 2202,-584 2202,-584 2196,-584 2190,-578 2190,-572 2190,-572 2190,-544 2190,-544 2190,-538 2196,-532 2202,-532 2202,-532 2380,-532 2380,-532 2386,-532 2392,-538 2392,-544 2392,-544 2392,-572 2392,-572 2392,-578 2386,-584 2380,-584"/>
<text text-anchor="start" x="2235.1645" y="-570" font-family="arial" font-weight="bold" font-size="10.00" fill="#000000">Some Non&#45;Culm as ORS</text>
<text text-anchor="start" x="2199.8735" y="-553" font-family="arial" font-size="10.00" fill="#000000">Some part of the non&#45;Culm strata is ORS</text>
<text text-anchor="start" x="2239.8755" y="-541" font-family="arial" font-size="10.00" fill="#000000"> in age #pri #chron&#45;hyp</text>
</g>
<!-- n16&#45;&gt;n25 -->
<g id="edge19" class="edge">
<title>n16&#45;&gt;n25</title>
<path fill="none" stroke="#ff0000" d="M2310.0596,-531.8813C2325.6741,-510.4837 2348.119,-479.7258 2366.5543,-454.4626"/>
<polygon fill="#ff0000" stroke="#ff0000" points="2369.5694,-456.2683 2372.6369,-446.1272 2363.9149,-452.142 2369.5694,-456.2683"/>
</g>
<!-- n16&#45;&gt;n26 -->
<g id="edge23" class="edge">
<title>n16&#45;&gt;n26</title>
<path fill="none" stroke="#ff0000" d="M2283.6035,-531.8824C2269.3868,-476.409 2243.481,-344.0561 2289,-248 2302.5986,-219.3037 2330.3243,-196.7145 2354.5366,-181.3443"/>
<polygon fill="#ff0000" stroke="#ff0000" points="2356.5574,-184.2112 2363.2653,-176.0103 2352.9073,-178.2382 2356.5574,-184.2112"/>
</g>
<!-- n17 -->
<g id="node22" class="node">
<title>n17</title>
<path fill="#ffffff" stroke="#ffe4b5" stroke-width="2" d="M2160,-584C2160,-584 1988,-584 1988,-584 1982,-584 1976,-578 1976,-572 1976,-572 1976,-544 1976,-544 1976,-538 1982,-532 1988,-532 1988,-532 2160,-532 2160,-532 2166,-532 2172,-538 2172,-544 2172,-544 2172,-572 2172,-572 2172,-578 2166,-584 2160,-584"/>
<text text-anchor="start" x="2021.4945" y="-570" font-family="arial" font-weight="bold" font-size="10.00" fill="#000000">Some Non&#45;Culm as SIL</text>
<text text-anchor="start" x="1986.2035" y="-553" font-family="arial" font-size="10.00" fill="#000000">Some part of the non&#45;Culm strata is SIL</text>
<text text-anchor="start" x="2022.8755" y="-541" font-family="arial" font-size="10.00" fill="#000000"> in age #pri #chron&#45;hyp</text>
</g>
<!-- n17&#45;&gt;n25 -->
<g id="edge20" class="edge">
<title>n17&#45;&gt;n25</title>
<path fill="none" stroke="#ff0000" d="M2131.3554,-531.8813C2180.897,-509.3208 2253.2883,-476.3549 2310.2954,-450.3947"/>
<polygon fill="#ff0000" stroke="#ff0000" points="2312.0163,-453.4569 2319.6666,-446.1272 2309.1153,-447.0864 2312.0163,-453.4569"/>
</g>
<!-- n17&#45;&gt;n26 -->
<g id="edge24" class="edge">
<title>n17&#45;&gt;n26</title>
<path fill="none" stroke="#ff0000" d="M2085.6513,-531.8522C2111.8279,-475.1773 2179.883,-338.815 2267,-248 2292.9887,-220.9081 2328.3956,-197.3053 2355.9966,-181.0755"/>
<polygon fill="#ff0000" stroke="#ff0000" points="2357.7534,-184.1027 2364.6619,-176.0701 2354.252,-178.0413 2357.7534,-184.1027"/>
</g>
<!-- n18 -->
<g id="node23" class="node">
<title>n18</title>
<path fill="#ffffff" stroke="#ffe4b5" stroke-width="2" d="M2488,-300C2488,-300 2310,-300 2310,-300 2304,-300 2298,-294 2298,-288 2298,-288 2298,-260 2298,-260 2298,-254 2304,-248 2310,-248 2310,-248 2488,-248 2488,-248 2494,-248 2500,-254 2500,-260 2500,-260 2500,-288 2500,-288 2500,-294 2494,-300 2488,-300"/>
<text text-anchor="start" x="2342.8895" y="-286" font-family="arial" font-weight="bold" font-size="10.00" fill="#000000">Some Non&#45;Culm as CAM</text>
<text text-anchor="start" x="2307.5985" y="-269" font-family="arial" font-size="10.00" fill="#000000">Some part of the non&#45;Culm strata is CAM</text>
<text text-anchor="start" x="2347.8755" y="-257" font-family="arial" font-size="10.00" fill="#000000"> in age #pri #chron&#45;hyp</text>
</g>
<!-- n18&#45;&gt;n26 -->
<g id="edge33" class="edge">
<title>n18&#45;&gt;n26</title>
<path fill="none" stroke="#00ff00" d="M2399,-247.9673C2399,-229.5665 2399,-204.923 2399,-186.0807"/>
<polygon fill="#00ff00" stroke="#00ff00" points="2402.5001,-186.0176 2399,-176.0176 2395.5001,-186.0176 2402.5001,-186.0176"/>
</g>
<!-- n25&#45;&gt;n18 -->
<g id="edge29" class="edge">
<title>n25&#45;&gt;n18</title>
<path fill="none" stroke="#00ff00" d="M2399,-373.9116C2399,-354.3005 2399,-330.1097 2399,-310.4438"/>
<polygon fill="#00ff00" stroke="#00ff00" points="2402.5001,-310.3317 2399,-300.3317 2395.5001,-310.3318 2402.5001,-310.3317"/>
</g>
<!-- n26&#45;&gt;n3 -->
<g id="edge30" class="edge">
<title>n26&#45;&gt;n3</title>
<path fill="none" stroke="#00ff00" d="M2399,-139.875C2399,-123.4878 2399,-98.8696 2399,-78.4234"/>
<polygon fill="#00ff00" stroke="#00ff00" points="2402.5001,-78.1773 2399,-68.1773 2395.5001,-78.1773 2402.5001,-78.1773"/>
</g>
<!-- n19 -->
<g id="node26" class="node">
<title>n19</title>
<path fill="#ffffff" stroke="#f4a460" stroke-width="2" d="M3246,-590C3246,-590 3074,-590 3074,-590 3068,-590 3062,-584 3062,-578 3062,-578 3062,-538 3062,-538 3062,-532 3068,-526 3074,-526 3074,-526 3246,-526 3246,-526 3252,-526 3258,-532 3258,-538 3258,-538 3258,-578 3258,-578 3258,-584 3252,-590 3246,-590"/>
<text text-anchor="start" x="3111.944" y="-576" font-family="arial" font-weight="bold" font-size="10.00" fill="#000000">Traversing Northward</text>
<text text-anchor="start" x="3080.5345" y="-559" font-family="arial" font-size="10.00" fill="#000000">The strata south of Exmoor become</text>
<text text-anchor="start" x="3077.476" y="-547" font-family="arial" font-size="10.00" fill="#000000"> progessively younger the furhter one</text>
<text text-anchor="start" x="3073.0405" y="-535" font-family="arial" font-size="10.00" fill="#000000"> traverses northward #GRE #chron&#45;hyp</text>
</g>
<!-- n20 -->
<g id="node27" class="node">
<title>n20</title>
<path fill="#ffffff" stroke="#f4a460" stroke-width="2" d="M3032,-596C3032,-596 2856,-596 2856,-596 2850,-596 2844,-590 2844,-584 2844,-584 2844,-532 2844,-532 2844,-526 2850,-520 2856,-520 2856,-520 3032,-520 3032,-520 3038,-520 3044,-526 3044,-532 3044,-532 3044,-584 3044,-584 3044,-590 3038,-596 3032,-596"/>
<text text-anchor="start" x="2867.8685" y="-582" font-family="arial" font-weight="bold" font-size="10.00" fill="#000000">Exmoor Youngest Devonian strata</text>
<text text-anchor="start" x="2864.812" y="-565" font-family="arial" font-size="10.00" fill="#000000">In Devon, among all the strata older</text>
<text text-anchor="start" x="2853.6885" y="-553" font-family="arial" font-size="10.00" fill="#000000"> than the New Red Sandstone, the strata</text>
<text text-anchor="start" x="2866.1995" y="-541" font-family="arial" font-size="10.00" fill="#000000"> of Exmoor are the youngest #GRE</text>
<text text-anchor="start" x="2917.6045" y="-529" font-family="arial" font-size="10.00" fill="#000000"> #chron&#45;hyp</text>
</g>
</g>
</svg>
