
<!-- Generated by graphviz version 2.40.1 (20161225.0304)
 -->
<!-- Title: Argument Map Pages: 1 -->
<svg width="720pt" height="320pt"
 viewBox="0.00 0.00 720.00 320.29" xmlns="http://www.w3.org/2000/svg" xmlns:xlink="http://www.w3.org/1999/xlink">
<g id="graph0" class="graph" transform="scale(.2673 .2673) rotate(0) translate(4 1194.4)">
<title>Argument Map</title>
<g id="clust1" class="cluster">
<title>cluster_1</title>
<polygon fill="#b9d3ee" stroke="#b9d3ee" points="722,-256 722,-370.4 1152,-370.4 1152,-256 722,-256"/>
<text text-anchor="start" x="853.3132" y="-355.6" font-family="arial" font-size="12.00" fill="#000000">Aporia I : Coal in Ancient Strata</text>
</g>
<g id="clust2" class="cluster">
<title>cluster_2</title>
<polygon fill="#eedfcc" stroke="#eedfcc" points="8,-140 8,-1170.4 714,-1170.4 714,-140 8,-140"/>
<text text-anchor="start" x="296.6578" y="-1155.6" font-family="arial" font-size="12.00" fill="#000000">Dating of the Main Culm</text>
</g>
<g id="clust3" class="cluster">
<title>cluster_3</title>
<polygon fill="#eeb4b4" stroke="#eeb4b4" points="1160,-8 1160,-1176.4 1586,-1176.4 1586,-8 1160,-8"/>
<text text-anchor="start" x="1293.9842" y="-1161.6" font-family="arial" font-size="12.00" fill="#000000">Dating of the Culm Limestone</text>
</g>
<g id="clust4" class="cluster">
<title>cluster_4</title>
<polygon fill="#cd9b9b" stroke="#cd9b9b" points="1594,-404 1594,-1176.4 2240,-1176.4 2240,-404 1594,-404"/>
<text text-anchor="start" x="1854.3252" y="-1161.6" font-family="arial" font-size="12.00" fill="#000000">Dating of the Non&#45;Culm</text>
</g>
<g id="clust5" class="cluster">
<title>cluster_5</title>
<polygon fill="#8b6969" stroke="#8b6969" points="2248,-926 2248,-1182.4 2678,-1182.4 2678,-926 2248,-926"/>
<text text-anchor="start" x="2392.9752" y="-1167.6" font-family="arial" font-size="12.00" fill="#000000">Youngest Devonian Strata</text>
</g>
<!-- n0 -->
<g id="node1" class="node">
<title>n0</title>
<path fill="#ffffff" stroke="#b8860b" stroke-width="2" d="M1132,-340C1132,-340 960,-340 960,-340 954,-340 948,-334 948,-328 948,-328 948,-276 948,-276 948,-270 954,-264 960,-264 960,-264 1132,-264 1132,-264 1138,-264 1144,-270 1144,-276 1144,-276 1144,-328 1144,-328 1144,-334 1138,-340 1132,-340"/>
<text text-anchor="start" x="982.652" y="-326" font-family="arial" font-weight="bold" font-size="10.00" fill="#000000">Instances of Pre&#45;ORS Strata</text>
<text text-anchor="start" x="964.3215" y="-309" font-family="arial" font-size="10.00" fill="#000000">In Munster, North America and North</text>
<text text-anchor="start" x="959.3145" y="-297" font-family="arial" font-size="10.00" fill="#000000"> Devon, some strata closely associated</text>
<text text-anchor="start" x="958.7625" y="-285" font-family="arial" font-size="10.00" fill="#000000"> with seams of coal are pre&#45;ORS in age</text>
<text text-anchor="start" x="1004.602" y="-273" font-family="arial" font-size="10.00" fill="#000000"> #GRE #chron&#45;hyp</text>
</g>
<!-- n2 -->
<g id="node2" class="node">
<title>n2</title>
<path fill="#ffffff" stroke="#b8860b" stroke-width="2" d="M918,-334C918,-334 742,-334 742,-334 736,-334 730,-328 730,-322 730,-322 730,-282 730,-282 730,-276 736,-270 742,-270 742,-270 918,-270 918,-270 924,-270 930,-276 930,-282 930,-282 930,-322 930,-322 930,-328 924,-334 918,-334"/>
<text text-anchor="start" x="749.711" y="-320" font-family="arial" font-weight="bold" font-size="10.00" fill="#000000">Pre&#45;ORS Strata in northwest France</text>
<text text-anchor="start" x="741.6465" y="-303" font-family="arial" font-size="10.00" fill="#000000">The whole strata supporting coal seams</text>
<text text-anchor="start" x="739.9835" y="-291" font-family="arial" font-size="10.00" fill="#000000"> in northwest France are pre&#45;ORS in age</text>
<text text-anchor="start" x="788.602" y="-279" font-family="arial" font-size="10.00" fill="#000000"> #GRE #chron&#45;hyp</text>
</g>
<!-- n1 -->
<g id="node3" class="node">
<title>n1</title>
<path fill="#ffffff" stroke="#b8860b" stroke-width="2" d="M651,-1140C651,-1140 479,-1140 479,-1140 473,-1140 467,-1134 467,-1128 467,-1128 467,-1100 467,-1100 467,-1094 473,-1088 479,-1088 479,-1088 651,-1088 651,-1088 657,-1088 663,-1094 663,-1100 663,-1100 663,-1128 663,-1128 663,-1134 657,-1140 651,-1140"/>
<text text-anchor="start" x="521.9475" y="-1126" font-family="arial" font-weight="bold" font-size="10.00" fill="#000000">Main Culm as CAM</text>
<text text-anchor="start" x="479.9925" y="-1109" font-family="arial" font-size="10.00" fill="#000000">The whole of the main Culm is CAM in</text>
<text text-anchor="start" x="512.4845" y="-1097" font-family="arial" font-size="10.00" fill="#000000"> age #GRE #chron&#45;hyp </text>
</g>
<!-- n1&#45;&gt;n0 -->
<g id="edge1" class="edge">
<title>n1&#45;&gt;n0</title>
<path fill="none" stroke="#00ff00" d="M617.9281,-1087.8167C650.0186,-1069.0445 688.7506,-1040.6226 710,-1004 751.3889,-932.6674 734,-902.4705 734,-820 734,-820 734,-820 734,-562 734,-529.8212 892.6511,-411.3259 983.6884,-345.9797"/>
<polygon fill="#00ff00" stroke="#00ff00" points="985.9182,-348.6878 992.0099,-340.0193 981.8421,-342.997 985.9182,-348.6878"/>
</g>
<!-- n3 -->
<g id="node4" class="node">
<title>n3</title>
<path fill="#ffffff" stroke="#f5f5dc" stroke-width="2" d="M654,-992C654,-992 476,-992 476,-992 470,-992 464,-986 464,-980 464,-980 464,-952 464,-952 464,-946 470,-940 476,-940 476,-940 654,-940 654,-940 660,-940 666,-946 666,-952 666,-952 666,-980 666,-980 666,-986 660,-992 654,-992"/>
<text text-anchor="start" x="510.8345" y="-978" font-family="arial" font-weight="bold" font-size="10.00" fill="#000000">Some Main Culm as CM</text>
<text text-anchor="start" x="473.599" y="-961" font-family="arial" font-size="10.00" fill="#000000">Some part of the main Culm is CM in age</text>
<text text-anchor="start" x="528.882" y="-949" font-family="arial" font-size="10.00" fill="#000000"> #pri #chron&#45;hyp</text>
</g>
<!-- n1&#45;&gt;n3 -->
<g id="edge6" class="edge">
<title>n1&#45;&gt;n3</title>
<path fill="none" stroke="#ff0000" d="M565,-1087.8813C565,-1064.1452 565,-1028.8911 565,-1002.3961"/>
<polygon fill="#ff0000" stroke="#ff0000" points="568.5001,-1002.3554 565,-992.3555 561.5001,-1002.3555 568.5001,-1002.3554"/>
</g>
<!-- n4 -->
<g id="node5" class="node">
<title>n4</title>
<path fill="#ffffff" stroke="#f5f5dc" stroke-width="2" d="M205.5,-328C205.5,-328 28.5,-328 28.5,-328 22.5,-328 16.5,-322 16.5,-316 16.5,-316 16.5,-288 16.5,-288 16.5,-282 22.5,-276 28.5,-276 28.5,-276 205.5,-276 205.5,-276 211.5,-276 217.5,-282 217.5,-288 217.5,-288 217.5,-316 217.5,-316 217.5,-322 211.5,-328 205.5,-328"/>
<text text-anchor="start" x="64.1645" y="-314" font-family="arial" font-weight="bold" font-size="10.00" fill="#000000">Some Main Culm as ML</text>
<text text-anchor="start" x="26.929" y="-297" font-family="arial" font-size="10.00" fill="#000000">Some part of the main Culm is ML in age</text>
<text text-anchor="start" x="81.382" y="-285" font-family="arial" font-size="10.00" fill="#000000"> #pri #chron&#45;hyp</text>
</g>
<!-- n1&#45;&gt;n4 -->
<g id="edge7" class="edge">
<title>n1&#45;&gt;n4</title>
<path fill="none" stroke="#ff0000" d="M466.9465,-1100.2473C360.2174,-1083.1466 199.4489,-1050.4341 160,-1004 106.7709,-941.3456 141,-902.2126 141,-820 141,-820 141,-820 141,-562 141,-481.8026 129.5379,-388.2774 122.4561,-338.1469"/>
<polygon fill="#ff0000" stroke="#ff0000" points="125.9034,-337.5294 121.0171,-328.1287 118.9745,-338.5247 125.9034,-337.5294"/>
</g>
<!-- n5 -->
<g id="node6" class="node">
<title>n5</title>
<path fill="#ffffff" stroke="#f5f5dc" stroke-width="2" d="M634,-328C634,-328 462,-328 462,-328 456,-328 450,-322 450,-316 450,-316 450,-288 450,-288 450,-282 456,-276 462,-276 462,-276 634,-276 634,-276 640,-276 646,-282 646,-288 646,-288 646,-316 646,-316 646,-322 640,-328 634,-328"/>
<text text-anchor="start" x="490.775" y="-314" font-family="arial" font-weight="bold" font-size="10.00" fill="#000000">Some Main Culm as ORS</text>
<text text-anchor="start" x="463.2675" y="-297" font-family="arial" font-size="10.00" fill="#000000">Some part of the main Culm is ORS in</text>
<text text-anchor="start" x="502.154" y="-285" font-family="arial" font-size="10.00" fill="#000000"> age #pri #chron&#45;hyp</text>
</g>
<!-- n1&#45;&gt;n5 -->
<g id="edge8" class="edge">
<title>n1&#45;&gt;n5</title>
<path fill="none" stroke="#ff0000" d="M602.7948,-1087.9791C628.1346,-1068.1878 659.5877,-1038.5268 675,-1004 708.3835,-929.2143 685,-901.8985 685,-820 685,-820 685,-820 685,-562 685,-488.3455 670.7211,-468.4127 635,-404 621.1723,-379.0658 600.6572,-354.6387 583.0209,-335.9428"/>
<polygon fill="#ff0000" stroke="#ff0000" points="585.1213,-333.0776 575.6666,-328.2964 580.076,-337.9301 585.1213,-333.0776"/>
</g>
<!-- n6 -->
<g id="node7" class="node">
<title>n6</title>
<path fill="#ffffff" stroke="#f5f5dc" stroke-width="2" d="M420,-328C420,-328 248,-328 248,-328 242,-328 236,-322 236,-316 236,-316 236,-288 236,-288 236,-282 242,-276 248,-276 248,-276 420,-276 420,-276 426,-276 432,-282 432,-288 432,-288 432,-316 432,-316 432,-322 426,-328 420,-328"/>
<text text-anchor="start" x="280.105" y="-314" font-family="arial" font-weight="bold" font-size="10.00" fill="#000000">Some Main Culm as SIL</text>
<text text-anchor="start" x="252.5975" y="-297" font-family="arial" font-size="10.00" fill="#000000">Some part of the main Culm is SIL in</text>
<text text-anchor="start" x="288.154" y="-285" font-family="arial" font-size="10.00" fill="#000000"> age #pri #chron&#45;hyp</text>
</g>
<!-- n1&#45;&gt;n6 -->
<g id="edge9" class="edge">
<title>n1&#45;&gt;n6</title>
<path fill="none" stroke="#ff0000" d="M466.6137,-1099.1146C365.7188,-1081.6014 218.888,-1049.089 185,-1004 103.5649,-895.6483 268.192,-464.3699 319.4379,-337.3645"/>
<polygon fill="#ff0000" stroke="#ff0000" points="322.6928,-338.6512 323.2059,-328.0688 316.2055,-336.0216 322.6928,-338.6512"/>
</g>
<!-- n7 -->
<g id="node8" class="node">
<title>n7</title>
<path fill="#ffffff" stroke="#f5f5dc" stroke-width="2" d="M594,-712C594,-712 422,-712 422,-712 416,-712 410,-706 410,-700 410,-700 410,-672 410,-672 410,-666 416,-660 422,-660 422,-660 594,-660 594,-660 600,-660 606,-666 606,-672 606,-672 606,-700 606,-700 606,-706 600,-712 594,-712"/>
<text text-anchor="start" x="450.5" y="-698" font-family="arial" font-weight="bold" font-size="10.00" fill="#000000">Some Main Culm as CAM</text>
<text text-anchor="start" x="422.9925" y="-681" font-family="arial" font-size="10.00" fill="#000000">Some part of the main Culm is CAM in</text>
<text text-anchor="start" x="462.154" y="-669" font-family="arial" font-size="10.00" fill="#000000"> age #pri #chron&#45;hyp</text>
</g>
<!-- n1&#45;&gt;n7 -->
<g id="edge10" class="edge">
<title>n1&#45;&gt;n7</title>
<path fill="none" stroke="#00ff00" d="M526.0747,-1087.8058C500.5612,-1068.132 469.3661,-1038.6829 455,-1004 414.8461,-907.06 461.9248,-781.5646 490.0073,-721.3228"/>
<polygon fill="#00ff00" stroke="#00ff00" points="493.1982,-722.7627 494.3351,-712.2291 486.8774,-719.7547 493.1982,-722.7627"/>
</g>
<!-- n28 -->
<g id="node11" class="node">
<title>n28</title>
<path fill="#f5f5dc" stroke="#000000" d="M380.5,-856C380.5,-856 207.5,-856 207.5,-856 201.5,-856 195.5,-850 195.5,-844 195.5,-844 195.5,-796 195.5,-796 195.5,-790 201.5,-784 207.5,-784 207.5,-784 380.5,-784 380.5,-784 386.5,-784 392.5,-790 392.5,-796 392.5,-796 392.5,-844 392.5,-844 392.5,-850 386.5,-856 380.5,-856"/>
<text text-anchor="start" x="208.6425" y="-842" font-family="arial" font-weight="bold" font-size="10.00" fill="#000000">Standard Sequence as Partition &#45; Main</text>
<text text-anchor="start" x="281.4475" y="-832" font-family="arial" font-weight="bold" font-size="10.00" fill="#000000"> Culm</text>
<text text-anchor="start" x="205.8835" y="-817" font-family="arial" font-size="10.00" fill="#000000">If some main Culm strata are neiter CM,</text>
<text text-anchor="start" x="209.4835" y="-805" font-family="arial" font-size="10.00" fill="#000000"> ML, OR nor SIL in age, then it is CAM</text>
<text text-anchor="start" x="243.3755" y="-793" font-family="arial" font-size="10.00" fill="#000000"> in age #pri #chron&#45;hyp</text>
</g>
<!-- n3&#45;&gt;n28 -->
<g id="edge2" class="edge">
<title>n3&#45;&gt;n28</title>
<path fill="none" stroke="#ff0000" d="M516.5506,-939.8981C475.788,-917.9375 416.7985,-886.1571 369.7922,-860.8327"/>
<polygon fill="#ff0000" stroke="#ff0000" points="371.3248,-857.6828 360.8611,-856.0211 368.0047,-863.8454 371.3248,-857.6828"/>
</g>
<!-- n29 -->
<g id="node12" class="node">
<title>n29</title>
<path fill="#b8860b" stroke="#000000" d="M664,-184C664,-184 492,-184 492,-184 486,-184 480,-178 480,-172 480,-172 480,-160 480,-160 480,-154 486,-148 492,-148 492,-148 664,-148 664,-148 670,-148 676,-154 676,-160 676,-160 676,-172 676,-172 676,-178 670,-184 664,-184"/>
<text text-anchor="start" x="510.494" y="-164" font-family="arial" font-weight="bold" font-size="10.00" fill="#000000">Dating the Main Culm &#45; GRE.1</text>
</g>
<!-- n3&#45;&gt;n29 -->
<g id="edge11" class="edge">
<title>n3&#45;&gt;n29</title>
<path fill="none" stroke="#ff0000" d="M581.2893,-939.7018C609.6255,-891.3674 665,-784.3329 665,-686 665,-686 665,-686 665,-562 665,-425.9993 714.8205,-382.1486 664,-256 653.4005,-229.6896 631.064,-206.7005 611.8116,-190.543"/>
<polygon fill="#ff0000" stroke="#ff0000" points="613.7661,-187.622 603.7926,-184.0469 609.3598,-193.0612 613.7661,-187.622"/>
</g>
<!-- n30 -->
<g id="node13" class="node">
<title>n30</title>
<path fill="#ff8c00" stroke="#000000" d="M507,-580C507,-580 335,-580 335,-580 329,-580 323,-574 323,-568 323,-568 323,-556 323,-556 323,-550 329,-544 335,-544 335,-544 507,-544 507,-544 513,-544 519,-550 519,-556 519,-556 519,-568 519,-568 519,-574 513,-580 507,-580"/>
<text text-anchor="start" x="347.935" y="-560" font-family="arial" font-weight="bold" font-size="10.00" fill="#000000">Redating the Main Culm &#45; COA.1</text>
</g>
<!-- n3&#45;&gt;n30 -->
<g id="edge70" class="edge">
<title>n3&#45;&gt;n30</title>
<path fill="none" stroke="#00ff00" d="M540.4889,-939.7184C501.8763,-896.313 428.4573,-805.1444 401,-712 388.7865,-670.5676 400.5106,-620.4832 410.4625,-589.95"/>
<polygon fill="#00ff00" stroke="#00ff00" points="413.8092,-590.9801 413.7325,-580.3855 407.1856,-588.7155 413.8092,-590.9801"/>
</g>
<!-- n4&#45;&gt;n28 -->
<g id="edge3" class="edge">
<title>n4&#45;&gt;n28</title>
<path fill="none" stroke="#ff0000" d="M125.9294,-328.1325C154.251,-411.0169 242.3177,-668.749 278.3713,-774.2618"/>
<polygon fill="#ff0000" stroke="#ff0000" points="275.1487,-775.6554 281.6942,-783.9865 281.7727,-773.392 275.1487,-775.6554"/>
</g>
<!-- n4&#45;&gt;n29 -->
<g id="edge12" class="edge">
<title>n4&#45;&gt;n29</title>
<path fill="none" stroke="#ff0000" d="M174.9133,-275.9324C191.5432,-268.9543 209.8274,-261.7584 227,-256 312.5906,-227.2993 412.5152,-202.4956 483.8102,-186.2381"/>
<polygon fill="#ff0000" stroke="#ff0000" points="484.6972,-189.6259 493.6757,-184.0013 483.1493,-182.7991 484.6972,-189.6259"/>
</g>
<!-- n4&#45;&gt;n30 -->
<g id="edge21" class="edge">
<title>n4&#45;&gt;n30</title>
<path fill="none" stroke="#ff0000" d="M147.5669,-328.1428C206.3558,-378.4227 334.4421,-487.9702 391.9863,-537.1857"/>
<polygon fill="#ff0000" stroke="#ff0000" points="389.7488,-539.8775 399.6233,-543.7173 394.2986,-534.5577 389.7488,-539.8775"/>
</g>
<!-- n5&#45;&gt;n28 -->
<g id="edge4" class="edge">
<title>n5&#45;&gt;n28</title>
<path fill="none" stroke="#ff0000" d="M505.7746,-328.0033C467.7299,-351.912 415.2125,-386.2553 398,-404 349.5833,-453.9137 335.7765,-469.9596 314,-536 306.7746,-557.912 299.4496,-698.9412 296.0141,-773.6708"/>
<polygon fill="#ff0000" stroke="#ff0000" points="292.5134,-773.6075 295.5555,-783.7562 299.5062,-773.9255 292.5134,-773.6075"/>
</g>
<!-- n5&#45;&gt;n29 -->
<g id="edge13" class="edge">
<title>n5&#45;&gt;n29</title>
<path fill="none" stroke="#ff0000" d="M553.7843,-275.7778C558.9458,-252.3792 566.4841,-218.2054 571.7754,-194.2181"/>
<polygon fill="#ff0000" stroke="#ff0000" points="575.2255,-194.8254 573.9619,-184.3062 568.3898,-193.3175 575.2255,-194.8254"/>
</g>
<!-- n5&#45;&gt;n30 -->
<g id="edge22" class="edge">
<title>n5&#45;&gt;n30</title>
<path fill="none" stroke="#ff0000" d="M506.204,-328.1046C471.0288,-351.0759 424.9126,-383.9058 415,-404 394.5082,-445.5398 403.6368,-500.9633 412.241,-533.9208"/>
<polygon fill="#ff0000" stroke="#ff0000" points="408.9319,-535.0855 414.978,-543.7858 415.6771,-533.214 408.9319,-535.0855"/>
</g>
<!-- n6&#45;&gt;n28 -->
<g id="edge5" class="edge">
<title>n6&#45;&gt;n28</title>
<path fill="none" stroke="#ff0000" d="M328.9367,-328.1884C320.858,-371.3126 305.32,-460.0649 299,-536 292.0498,-619.5061 292.1233,-717.2812 292.9585,-773.5913"/>
<polygon fill="#ff0000" stroke="#ff0000" points="289.4592,-773.6687 293.1217,-783.6103 296.4582,-773.5546 289.4592,-773.6687"/>
</g>
<!-- n6&#45;&gt;n29 -->
<g id="edge14" class="edge">
<title>n6&#45;&gt;n29</title>
<path fill="none" stroke="#ff0000" d="M380.757,-275.9387C425.8438,-250.8084 493.4246,-213.1404 536.6111,-189.0692"/>
<polygon fill="#ff0000" stroke="#ff0000" points="538.4087,-192.0743 545.4395,-184.1485 535.0007,-185.9599 538.4087,-192.0743"/>
</g>
<!-- n6&#45;&gt;n30 -->
<g id="edge23" class="edge">
<title>n6&#45;&gt;n30</title>
<path fill="none" stroke="#ff0000" d="M342.7478,-328.1428C359.2282,-377.3945 394.7376,-483.5146 411.6614,-534.0916"/>
<polygon fill="#ff0000" stroke="#ff0000" points="408.3899,-535.3448 414.8823,-543.7173 415.0282,-533.1235 408.3899,-535.3448"/>
</g>
<!-- n7&#45;&gt;n29 -->
<g id="edge71" class="edge">
<title>n7&#45;&gt;n29</title>
<path fill="none" stroke="#00ff00" d="M526.4681,-659.9975C554.1304,-619.847 606.1486,-539.4873 635,-464 650.1871,-424.2643 650.5308,-412.7036 655,-370.4 660.3417,-319.8369 672.6185,-303.6943 655,-256 645.6695,-230.7417 625.7381,-207.7755 608.4919,-191.3651"/>
<polygon fill="#00ff00" stroke="#00ff00" points="610.5363,-188.4905 600.8046,-184.3019 605.8001,-193.645 610.5363,-188.4905"/>
</g>
<!-- n7&#45;&gt;n30 -->
<g id="edge24" class="edge">
<title>n7&#45;&gt;n30</title>
<path fill="none" stroke="#ff0000" d="M489.5495,-659.7028C474.8851,-638.8018 454.4592,-609.689 439.7238,-588.6868"/>
<polygon fill="#ff0000" stroke="#ff0000" points="442.3991,-586.4059 433.7904,-580.23 436.6688,-590.4264 442.3991,-586.4059"/>
</g>
<!-- n8 -->
<g id="node9" class="node">
<title>n8</title>
<path fill="#ffffff" stroke="#f5f5dc" stroke-width="2" d="M385.5,-998C385.5,-998 206.5,-998 206.5,-998 200.5,-998 194.5,-992 194.5,-986 194.5,-986 194.5,-946 194.5,-946 194.5,-940 200.5,-934 206.5,-934 206.5,-934 385.5,-934 385.5,-934 391.5,-934 397.5,-940 397.5,-946 397.5,-946 397.5,-986 397.5,-986 397.5,-992 391.5,-998 385.5,-998"/>
<text text-anchor="start" x="204.557" y="-984" font-family="arial" font-weight="bold" font-size="10.00" fill="#000000">Main Culm as Post&#45;Primary and Pre&#45;NRS</text>
<text text-anchor="start" x="216.487" y="-967" font-family="arial" font-size="10.00" fill="#000000">The main Culm strata are older than</text>
<text text-anchor="start" x="212.3165" y="-955" font-family="arial" font-size="10.00" fill="#000000"> Primary strata and younger than New</text>
<text text-anchor="start" x="210.6415" y="-943" font-family="arial" font-size="10.00" fill="#000000"> Red Sandstone strata #pri #chron&#45;hyp</text>
</g>
<!-- n8&#45;&gt;n28 -->
<g id="edge72" class="edge">
<title>n8&#45;&gt;n28</title>
<path fill="none" stroke="#00ff00" d="M295.5611,-933.9597C295.2891,-914.1045 294.9352,-888.2721 294.6332,-866.2232"/>
<polygon fill="#00ff00" stroke="#00ff00" points="298.1309,-866.0219 294.4941,-856.0709 291.1315,-866.1179 298.1309,-866.0219"/>
</g>
<!-- n9 -->
<g id="node10" class="node">
<title>n9</title>
<path fill="#ffffff" stroke="#ff8c00" stroke-width="2" d="M614,-464C614,-464 436,-464 436,-464 430,-464 424,-458 424,-452 424,-452 424,-424 424,-424 424,-418 430,-412 436,-412 436,-412 614,-412 614,-412 620,-412 626,-418 626,-424 626,-424 626,-452 626,-452 626,-458 620,-464 614,-464"/>
<text text-anchor="start" x="485.282" y="-450" font-family="arial" font-weight="bold" font-size="10.00" fill="#000000">Main Culm as CM</text>
<text text-anchor="start" x="433.599" y="-433" font-family="arial" font-size="10.00" fill="#000000">The whole of the main Culm is CM in age</text>
<text text-anchor="start" x="482.2125" y="-421" font-family="arial" font-size="10.00" fill="#000000"> #COA #chron&#45;hyp </text>
</g>
<!-- n9&#45;&gt;n0 -->
<g id="edge20" class="edge">
<title>n9&#45;&gt;n0</title>
<path fill="none" stroke="#ff0000" d="M626.1424,-419.9613C656.3164,-414.6888 689.4787,-409.0017 720,-404 817.1761,-388.0753 846.8578,-405.1362 939,-370.4 955.5558,-364.1587 972.2466,-355.1089 987.3607,-345.6247"/>
<polygon fill="#ff0000" stroke="#ff0000" points="989.5598,-348.3712 996.0646,-340.0083 985.7644,-342.4894 989.5598,-348.3712"/>
</g>
<!-- n9&#45;&gt;n3 -->
<g id="edge15" class="edge">
<title>n9&#45;&gt;n3</title>
<path fill="none" stroke="#00ff00" d="M539.5815,-464.3022C561.1361,-504.8441 600.5135,-585.7082 615,-660 633.9519,-757.1916 599.8496,-872.7073 579.1541,-930.0278"/>
<polygon fill="#00ff00" stroke="#00ff00" points="575.7611,-929.1133 575.5858,-939.7067 582.3289,-931.5347 575.7611,-929.1133"/>
</g>
<!-- n9&#45;&gt;n4 -->
<g id="edge16" class="edge">
<title>n9&#45;&gt;n4</title>
<path fill="none" stroke="#ff0000" d="M423.7986,-423.67C364.8959,-413.229 290.0591,-396.2978 227,-370.4 203.9867,-360.9486 180.3212,-346.8924 160.8649,-333.9762"/>
<polygon fill="#ff0000" stroke="#ff0000" points="162.7646,-331.0358 152.5196,-328.3356 158.8447,-336.8353 162.7646,-331.0358"/>
</g>
<!-- n9&#45;&gt;n5 -->
<g id="edge17" class="edge">
<title>n9&#45;&gt;n5</title>
<path fill="none" stroke="#ff0000" d="M529.4346,-411.7778C532.9665,-390.8938 537.95,-361.4262 541.8646,-338.2787"/>
<polygon fill="#ff0000" stroke="#ff0000" points="545.3624,-338.5853 543.579,-328.1417 538.4604,-337.418 545.3624,-338.5853"/>
</g>
<!-- n9&#45;&gt;n6 -->
<g id="edge18" class="edge">
<title>n9&#45;&gt;n6</title>
<path fill="none" stroke="#ff0000" d="M488.1733,-411.7778C456.9938,-389.5768 412.1912,-357.6754 378.9111,-333.9786"/>
<polygon fill="#ff0000" stroke="#ff0000" points="380.8898,-331.0909 370.7137,-328.1417 376.8295,-336.7931 380.8898,-331.0909"/>
</g>
<!-- n9&#45;&gt;n7 -->
<g id="edge19" class="edge">
<title>n9&#45;&gt;n7</title>
<path fill="none" stroke="#ff0000" d="M527.4206,-464.091C529.7626,-494.0753 532.3711,-544.7219 528,-588 525.919,-608.6038 521.4366,-631.2787 517.2417,-649.6236"/>
<polygon fill="#ff0000" stroke="#ff0000" points="513.7774,-649.0658 514.8918,-659.6019 520.591,-650.6704 513.7774,-649.0658"/>
</g>
<!-- n28&#45;&gt;n7 -->
<g id="edge62" class="edge">
<title>n28&#45;&gt;n7</title>
<path fill="none" stroke="#00ff00" d="M351.6296,-783.9142C384.6715,-763.2244 425.7583,-737.4971 457.523,-717.6071"/>
<polygon fill="#00ff00" stroke="#00ff00" points="459.6026,-720.4345 466.2207,-712.1609 455.8876,-714.5016 459.6026,-720.4345"/>
</g>
<!-- n29&#45;&gt;n1 -->
<g id="edge63" class="edge">
<title>n29&#45;&gt;n1</title>
<path fill="none" stroke="#00ff00" d="M608.3257,-184.0918C631.9733,-199.9289 663.484,-225.1963 680,-256 718.5816,-327.9578 705,-356.3516 705,-438 705,-820 705,-820 705,-820 705,-861.063 706.4735,-967.3271 688,-1004 671.9512,-1035.8595 642.413,-1062.7513 616.3056,-1081.97"/>
<polygon fill="#00ff00" stroke="#00ff00" points="614.0648,-1079.2697 607.9712,-1087.9369 618.1397,-1084.9615 614.0648,-1079.2697"/>
</g>
<!-- n30&#45;&gt;n9 -->
<g id="edge64" class="edge">
<title>n30&#45;&gt;n9</title>
<path fill="none" stroke="#00ff00" d="M436.1225,-543.9693C451.8456,-525.2226 476.8362,-495.426 496.3189,-472.1967"/>
<polygon fill="#00ff00" stroke="#00ff00" points="499.2117,-474.1941 502.9562,-464.283 493.8484,-469.6958 499.2117,-474.1941"/>
</g>
<!-- n10 -->
<g id="node14" class="node">
<title>n10</title>
<path fill="#ffffff" stroke="#f5f5dc" stroke-width="2" d="M1352,-1140C1352,-1140 1180,-1140 1180,-1140 1174,-1140 1168,-1134 1168,-1128 1168,-1128 1168,-1100 1168,-1100 1168,-1094 1174,-1088 1180,-1088 1180,-1088 1352,-1088 1352,-1088 1358,-1088 1364,-1094 1364,-1100 1364,-1100 1364,-1128 1364,-1128 1364,-1134 1358,-1140 1352,-1140"/>
<text text-anchor="start" x="1225.9965" y="-1126" font-family="arial" font-weight="bold" font-size="10.00" fill="#000000">Some BCL as CM</text>
<text text-anchor="start" x="1178.482" y="-1109" font-family="arial" font-size="10.00" fill="#000000">Some part of the black Culm Limestone</text>
<text text-anchor="start" x="1200.713" y="-1097" font-family="arial" font-size="10.00" fill="#000000"> is CM in age #pri #chron&#45;hyp</text>
</g>
<!-- n31 -->
<g id="node22" class="node">
<title>n31</title>
<path fill="#f5f5dc" stroke="#000000" d="M1508,-1004C1508,-1004 1336,-1004 1336,-1004 1330,-1004 1324,-998 1324,-992 1324,-992 1324,-940 1324,-940 1324,-934 1330,-928 1336,-928 1336,-928 1508,-928 1508,-928 1514,-928 1520,-934 1520,-940 1520,-940 1520,-992 1520,-992 1520,-998 1514,-1004 1508,-1004"/>
<text text-anchor="start" x="1337.252" y="-990" font-family="arial" font-weight="bold" font-size="10.00" fill="#000000">Standard Sequence as Partition &#45; BCL</text>
<text text-anchor="start" x="1355.5985" y="-973" font-family="arial" font-size="10.00" fill="#000000">If some part of the black Culm</text>
<text text-anchor="start" x="1337.547" y="-961" font-family="arial" font-size="10.00" fill="#000000"> Limestone is neiter CM, ML, ORS nor</text>
<text text-anchor="start" x="1339.479" y="-949" font-family="arial" font-size="10.00" fill="#000000"> SIL in age, then it is CAM in age #pri</text>
<text text-anchor="start" x="1395.6045" y="-937" font-family="arial" font-size="10.00" fill="#000000"> #chron&#45;hyp</text>
</g>
<!-- n10&#45;&gt;n31 -->
<g id="edge25" class="edge">
<title>n10&#45;&gt;n31</title>
<path fill="none" stroke="#ff0000" d="M1293.5306,-1087.8813C1315.9174,-1066.6425 1348.0245,-1036.1819 1374.5401,-1011.0261"/>
<polygon fill="#ff0000" stroke="#ff0000" points="1377.0121,-1013.5054 1381.8578,-1004.0836 1372.1942,-1008.4271 1377.0121,-1013.5054"/>
</g>
<!-- n32 -->
<g id="node23" class="node">
<title>n32</title>
<path fill="#b8860b" stroke="#000000" d="M1439,-704C1439,-704 1267,-704 1267,-704 1261,-704 1255,-698 1255,-692 1255,-692 1255,-680 1255,-680 1255,-674 1261,-668 1267,-668 1267,-668 1439,-668 1439,-668 1445,-668 1451,-674 1451,-680 1451,-680 1451,-692 1451,-692 1451,-698 1445,-704 1439,-704"/>
<text text-anchor="start" x="1299.656" y="-684" font-family="arial" font-weight="bold" font-size="10.00" fill="#000000">Dating the BCL &#45; GRE.1</text>
</g>
<!-- n10&#45;&gt;n32 -->
<g id="edge34" class="edge">
<title>n10&#45;&gt;n32</title>
<path fill="none" stroke="#ff0000" d="M1261.258,-1087.7097C1252.0765,-1030.4179 1236.0158,-890.8784 1275,-784 1285.2363,-755.9363 1306.9476,-729.7714 1324.8708,-711.5488"/>
<polygon fill="#ff0000" stroke="#ff0000" points="1327.6154,-713.7578 1332.2758,-704.243 1322.699,-708.7748 1327.6154,-713.7578"/>
</g>
<!-- n33 -->
<g id="node24" class="node">
<title>n33</title>
<path fill="#ff8c00" stroke="#000000" d="M1546,-320C1546,-320 1374,-320 1374,-320 1368,-320 1362,-314 1362,-308 1362,-308 1362,-296 1362,-296 1362,-290 1368,-284 1374,-284 1374,-284 1546,-284 1546,-284 1552,-284 1558,-290 1558,-296 1558,-296 1558,-308 1558,-308 1558,-314 1552,-320 1546,-320"/>
<text text-anchor="start" x="1401.097" y="-300" font-family="arial" font-weight="bold" font-size="10.00" fill="#000000">Redating the BCL &#45; COA.1</text>
</g>
<!-- n10&#45;&gt;n33 -->
<g id="edge73" class="edge">
<title>n10&#45;&gt;n33</title>
<path fill="none" stroke="#00ff00" d="M1337.3302,-1087.9031C1410.5486,-1060.5317 1515.6366,-1019.3935 1529,-1004 1584.4041,-940.1791 1577,-904.5146 1577,-820 1577,-820 1577,-820 1577,-562 1577,-488.9852 1563.4998,-469.8705 1532,-404 1518.7446,-376.2811 1498.0936,-347.986 1482.3011,-328.2512"/>
<polygon fill="#00ff00" stroke="#00ff00" points="1484.8929,-325.891 1475.8661,-320.3442 1479.4637,-330.3095 1484.8929,-325.891"/>
</g>
<!-- n11 -->
<g id="node15" class="node">
<title>n11</title>
<path fill="#ffffff" stroke="#f5f5dc" stroke-width="2" d="M1352,-68C1352,-68 1180,-68 1180,-68 1174,-68 1168,-62 1168,-56 1168,-56 1168,-28 1168,-28 1168,-22 1174,-16 1180,-16 1180,-16 1352,-16 1352,-16 1358,-16 1364,-22 1364,-28 1364,-28 1364,-56 1364,-56 1364,-62 1358,-68 1352,-68"/>
<text text-anchor="start" x="1226.8265" y="-54" font-family="arial" font-weight="bold" font-size="10.00" fill="#000000">Some BCL as ML</text>
<text text-anchor="start" x="1178.482" y="-37" font-family="arial" font-size="10.00" fill="#000000">Some part of the black Culm Limestone</text>
<text text-anchor="start" x="1201.543" y="-25" font-family="arial" font-size="10.00" fill="#000000"> is ML in age #pri #chron&#45;hyp</text>
</g>
<!-- n11&#45;&gt;n31 -->
<g id="edge26" class="edge">
<title>n11&#45;&gt;n31</title>
<path fill="none" stroke="#ff0000" d="M1248.4002,-68.0991C1236.0467,-87.3246 1219.8579,-114.4599 1209,-140 1179.9845,-208.2506 1169,-227.8377 1169,-302 1169,-562 1169,-562 1169,-562 1169,-700.9001 1192.3606,-744.3579 1275,-856 1294.0828,-881.7799 1320.8756,-904.2885 1346.3691,-922.1145"/>
<polygon fill="#ff0000" stroke="#ff0000" points="1344.7205,-925.227 1354.9519,-927.9783 1348.6693,-919.4471 1344.7205,-925.227"/>
</g>
<!-- n11&#45;&gt;n32 -->
<g id="edge35" class="edge">
<title>n11&#45;&gt;n32</title>
<path fill="none" stroke="#ff0000" d="M1254.5843,-68.0314C1220.5059,-149.9158 1127.3883,-407.503 1219,-588 1236.2003,-621.8887 1271.2323,-646.8666 1301.1633,-663.1224"/>
<polygon fill="#ff0000" stroke="#ff0000" points="1299.7806,-666.3491 1310.2631,-667.8875 1303.0279,-660.1479 1299.7806,-666.3491"/>
</g>
<!-- n11&#45;&gt;n33 -->
<g id="edge43" class="edge">
<title>n11&#45;&gt;n33</title>
<path fill="none" stroke="#ff0000" d="M1363.8213,-68.0276C1425.8676,-86.7378 1497.7759,-113.2819 1516,-140 1545.0615,-182.6068 1509.1071,-241.7735 1482.8487,-275.55"/>
<polygon fill="#ff0000" stroke="#ff0000" points="1479.9486,-273.5721 1476.4272,-283.5646 1485.4114,-277.949 1479.9486,-273.5721"/>
</g>
<!-- n12 -->
<g id="node16" class="node">
<title>n12</title>
<path fill="#ffffff" stroke="#f5f5dc" stroke-width="2" d="M1566,-68C1566,-68 1394,-68 1394,-68 1388,-68 1382,-62 1382,-56 1382,-56 1382,-28 1382,-28 1382,-22 1388,-16 1394,-16 1394,-16 1566,-16 1566,-16 1572,-16 1578,-22 1578,-28 1578,-28 1578,-56 1578,-56 1578,-62 1572,-68 1566,-68"/>
<text text-anchor="start" x="1436.937" y="-54" font-family="arial" font-weight="bold" font-size="10.00" fill="#000000">Some BCL as ORS</text>
<text text-anchor="start" x="1392.482" y="-37" font-family="arial" font-size="10.00" fill="#000000">Some part of the black Culm Limestone</text>
<text text-anchor="start" x="1411.6535" y="-25" font-family="arial" font-size="10.00" fill="#000000"> is ORS in age #pri #chron&#45;hyp</text>
</g>
<!-- n12&#45;&gt;n31 -->
<g id="edge27" class="edge">
<title>n12&#45;&gt;n31</title>
<path fill="none" stroke="#ff0000" d="M1497.3874,-68.0908C1509.5708,-87.3123 1525.4917,-114.4462 1536,-140 1607.4194,-313.6763 1557,-374.2124 1557,-562 1557,-686 1557,-686 1557,-686 1557,-775.389 1500.4832,-866.3239 1460.5853,-919.3822"/>
<polygon fill="#ff0000" stroke="#ff0000" points="1457.6231,-917.4945 1454.3359,-927.5665 1463.1866,-921.7428 1457.6231,-917.4945"/>
</g>
<!-- n12&#45;&gt;n32 -->
<g id="edge36" class="edge">
<title>n12&#45;&gt;n32</title>
<path fill="none" stroke="#ff0000" d="M1386.29,-68.0159C1350.6499,-82.9754 1313.6792,-105.816 1293,-140 1274.3665,-170.8025 1274.0737,-433.3766 1293,-464 1330.6183,-524.8676 1399.3817,-475.1324 1437,-536 1463.6568,-579.1317 1417.9445,-631.0734 1384.1724,-661.139"/>
<polygon fill="#ff0000" stroke="#ff0000" points="1381.5942,-658.7415 1376.3236,-667.9324 1386.1753,-664.0343 1381.5942,-658.7415"/>
</g>
<!-- n12&#45;&gt;n33 -->
<g id="edge44" class="edge">
<title>n12&#45;&gt;n33</title>
<path fill="none" stroke="#ff0000" d="M1498.7465,-68.0918C1517.7846,-97.8656 1542.7785,-148.1179 1530,-192 1520.7812,-223.6577 1499.3901,-254.9027 1482.6635,-275.9551"/>
<polygon fill="#ff0000" stroke="#ff0000" points="1479.8931,-273.8143 1476.2884,-283.7771 1485.3192,-278.2367 1479.8931,-273.8143"/>
</g>
<!-- n13 -->
<g id="node17" class="node">
<title>n13</title>
<path fill="#ffffff" stroke="#f5f5dc" stroke-width="2" d="M1486,-464C1486,-464 1314,-464 1314,-464 1308,-464 1302,-458 1302,-452 1302,-452 1302,-424 1302,-424 1302,-418 1308,-412 1314,-412 1314,-412 1486,-412 1486,-412 1492,-412 1498,-418 1498,-424 1498,-424 1498,-452 1498,-452 1498,-458 1492,-464 1486,-464"/>
<text text-anchor="start" x="1360.267" y="-450" font-family="arial" font-weight="bold" font-size="10.00" fill="#000000">Some BCL as SIL</text>
<text text-anchor="start" x="1312.482" y="-433" font-family="arial" font-size="10.00" fill="#000000">Some part of the black Culm Limestone</text>
<text text-anchor="start" x="1334.9835" y="-421" font-family="arial" font-size="10.00" fill="#000000"> is SIL in age #pri #chron&#45;hyp</text>
</g>
<!-- n13&#45;&gt;n31 -->
<g id="edge28" class="edge">
<title>n13&#45;&gt;n31</title>
<path fill="none" stroke="#ff0000" d="M1420.0825,-464.3411C1433.4021,-483.2468 1450.0249,-509.8953 1459,-536 1489.8354,-625.687 1510.5239,-779.2855 1489,-856 1482.714,-878.4041 1470.4676,-900.77 1458.1451,-919.4269"/>
<polygon fill="#ff0000" stroke="#ff0000" points="1455.2309,-917.4881 1452.4992,-927.7247 1461.0184,-921.4259 1455.2309,-917.4881"/>
</g>
<!-- n13&#45;&gt;n32 -->
<g id="edge37" class="edge">
<title>n13&#45;&gt;n32</title>
<path fill="none" stroke="#ff0000" d="M1420.7199,-464.1091C1442.0286,-494.3254 1469.7754,-545.3927 1452,-588 1439.3115,-618.4143 1412.0811,-644.2166 1389.3849,-661.6995"/>
<polygon fill="#ff0000" stroke="#ff0000" points="1387.1867,-658.9727 1381.2636,-667.7573 1391.372,-664.5837 1387.1867,-658.9727"/>
</g>
<!-- n13&#45;&gt;n33 -->
<g id="edge45" class="edge">
<title>n13&#45;&gt;n33</title>
<path fill="none" stroke="#ff0000" d="M1411.5686,-411.7778C1421.9841,-388.1693 1437.239,-353.5915 1447.8345,-329.5752"/>
<polygon fill="#ff0000" stroke="#ff0000" points="1451.0895,-330.8682 1451.9237,-320.3062 1444.685,-328.0427 1451.0895,-330.8682"/>
</g>
<!-- n14 -->
<g id="node18" class="node">
<title>n14</title>
<path fill="#ffffff" stroke="#f5f5dc" stroke-width="2" d="M1468,-846C1468,-846 1296,-846 1296,-846 1290,-846 1284,-840 1284,-834 1284,-834 1284,-806 1284,-806 1284,-800 1290,-794 1296,-794 1296,-794 1468,-794 1468,-794 1474,-794 1480,-800 1480,-806 1480,-806 1480,-834 1480,-834 1480,-840 1474,-846 1468,-846"/>
<text text-anchor="start" x="1338.662" y="-832" font-family="arial" font-weight="bold" font-size="10.00" fill="#000000">Some BCL as CAM</text>
<text text-anchor="start" x="1294.482" y="-815" font-family="arial" font-size="10.00" fill="#000000">Some part of the black Culm Limestone</text>
<text text-anchor="start" x="1313.3785" y="-803" font-family="arial" font-size="10.00" fill="#000000"> is CAM in age #pri #chron&#45;hyp</text>
</g>
<!-- n14&#45;&gt;n32 -->
<g id="edge74" class="edge">
<title>n14&#45;&gt;n32</title>
<path fill="none" stroke="#00ff00" d="M1376.3397,-793.8453C1371.3939,-770.9923 1364.2293,-737.887 1359.145,-714.3941"/>
<polygon fill="#00ff00" stroke="#00ff00" points="1362.5069,-713.3813 1356.9708,-704.3479 1355.6653,-714.862 1362.5069,-713.3813"/>
</g>
<!-- n14&#45;&gt;n33 -->
<g id="edge46" class="edge">
<title>n14&#45;&gt;n33</title>
<path fill="none" stroke="#ff0000" d="M1436.4946,-793.919C1467.7395,-775.7331 1504.1928,-748.227 1522,-712 1552.1931,-650.5751 1540.4596,-469.9082 1522,-404 1514.1129,-375.8398 1496.0815,-347.7314 1481.4864,-328.1746"/>
<polygon fill="#ff0000" stroke="#ff0000" points="1484.141,-325.8848 1475.2767,-320.0818 1478.5875,-330.1461 1484.141,-325.8848"/>
</g>
<!-- n15 -->
<g id="node19" class="node">
<title>n15</title>
<path fill="#ffffff" stroke="#f5f5dc" stroke-width="2" d="M1566,-1146C1566,-1146 1394,-1146 1394,-1146 1388,-1146 1382,-1140 1382,-1134 1382,-1134 1382,-1094 1382,-1094 1382,-1088 1388,-1082 1394,-1082 1394,-1082 1566,-1082 1566,-1082 1572,-1082 1578,-1088 1578,-1094 1578,-1094 1578,-1134 1578,-1134 1578,-1140 1572,-1146 1566,-1146"/>
<text text-anchor="start" x="1402.219" y="-1132" font-family="arial" font-weight="bold" font-size="10.00" fill="#000000">BCL as Post&#45;Primary and Pre&#45;NRS</text>
<text text-anchor="start" x="1392.207" y="-1115" font-family="arial" font-size="10.00" fill="#000000">The black Culm Limestone is older than</text>
<text text-anchor="start" x="1395.8165" y="-1103" font-family="arial" font-size="10.00" fill="#000000"> Primary strata and younger than New</text>
<text text-anchor="start" x="1394.1415" y="-1091" font-family="arial" font-size="10.00" fill="#000000"> Red Sandstone strata #pri #chron&#45;hyp</text>
</g>
<!-- n15&#45;&gt;n31 -->
<g id="edge75" class="edge">
<title>n15&#45;&gt;n31</title>
<path fill="none" stroke="#00ff00" d="M1467.4149,-1081.8862C1459.5729,-1061.8757 1449.3431,-1035.7721 1440.5783,-1013.4068"/>
<polygon fill="#00ff00" stroke="#00ff00" points="1443.8304,-1012.1126 1436.9229,-1004.0791 1437.313,-1014.6668 1443.8304,-1012.1126"/>
</g>
<!-- n16 -->
<g id="node20" class="node">
<title>n16</title>
<path fill="#ffffff" stroke="#b8860b" stroke-width="2" d="M1416,-588C1416,-588 1240,-588 1240,-588 1234,-588 1228,-582 1228,-576 1228,-576 1228,-548 1228,-548 1228,-542 1234,-536 1240,-536 1240,-536 1416,-536 1416,-536 1422,-536 1428,-542 1428,-548 1428,-548 1428,-576 1428,-576 1428,-582 1422,-588 1416,-588"/>
<text text-anchor="start" x="1299.1095" y="-574" font-family="arial" font-weight="bold" font-size="10.00" fill="#000000">BCL as CAM</text>
<text text-anchor="start" x="1237.7025" y="-557" font-family="arial" font-size="10.00" fill="#000000">The black Culm Limestone is nothing but</text>
<text text-anchor="start" x="1247.1505" y="-545" font-family="arial" font-size="10.00" fill="#000000"> Cambrian in age #GRE #chron&#45;hyp </text>
</g>
<!-- n16&#45;&gt;n10 -->
<g id="edge29" class="edge">
<title>n16&#45;&gt;n10</title>
<path fill="none" stroke="#ff0000" d="M1297.2118,-588.1182C1278.4679,-606.1368 1256.2235,-631.8503 1246,-660 1192.5164,-807.2632 1234.0441,-999.2465 1255.3621,-1077.9554"/>
<polygon fill="#ff0000" stroke="#ff0000" points="1252.0618,-1079.1525 1258.1009,-1087.8576 1258.8085,-1077.2865 1252.0618,-1079.1525"/>
</g>
<!-- n16&#45;&gt;n11 -->
<g id="edge30" class="edge">
<title>n16&#45;&gt;n11</title>
<path fill="none" stroke="#ff0000" d="M1302.352,-535.8422C1286.1745,-517.4265 1266.7417,-491.2781 1258,-464 1214.1094,-327.041 1242.2207,-152.0408 1257.7283,-77.8329"/>
<polygon fill="#ff0000" stroke="#ff0000" points="1261.1527,-78.5564 1259.8241,-68.0452 1254.3078,-77.0907 1261.1527,-78.5564"/>
</g>
<!-- n16&#45;&gt;n12 -->
<g id="edge31" class="edge">
<title>n16&#45;&gt;n12</title>
<path fill="none" stroke="#ff0000" d="M1310.3548,-535.8856C1298.6172,-516.8716 1284.2495,-490 1278,-464 1261.1731,-393.9939 1239.782,-201.0196 1278,-140 1299.2245,-106.1125 1335.8747,-83.6474 1372.1799,-68.8918"/>
<polygon fill="#ff0000" stroke="#ff0000" points="1373.8395,-72.0019 1381.8932,-65.1181 1371.3045,-65.477 1373.8395,-72.0019"/>
</g>
<!-- n16&#45;&gt;n13 -->
<g id="edge32" class="edge">
<title>n16&#45;&gt;n13</title>
<path fill="none" stroke="#ff0000" d="M1343.2693,-535.7028C1353.8652,-517.4544 1368.0957,-492.9463 1379.6532,-473.0417"/>
<polygon fill="#ff0000" stroke="#ff0000" points="1382.758,-474.6647 1384.7527,-464.2593 1376.7045,-471.1497 1382.758,-474.6647"/>
</g>
<!-- n16&#45;&gt;n14 -->
<g id="edge33" class="edge">
<title>n16&#45;&gt;n14</title>
<path fill="none" stroke="#00ff00" d="M1384.407,-588.0781C1412.6285,-604.4023 1444.0952,-628.383 1460,-660 1481.8563,-703.448 1447.359,-753.9464 1417.5372,-786.4052"/>
<polygon fill="#00ff00" stroke="#00ff00" points="1414.821,-784.1834 1410.4865,-793.851 1419.9037,-788.9964 1414.821,-784.1834"/>
</g>
<!-- n17 -->
<g id="node21" class="node">
<title>n17</title>
<path fill="#ffffff" stroke="#ff8c00" stroke-width="2" d="M1494.5,-192C1494.5,-192 1313.5,-192 1313.5,-192 1307.5,-192 1301.5,-186 1301.5,-180 1301.5,-180 1301.5,-152 1301.5,-152 1301.5,-146 1307.5,-140 1313.5,-140 1313.5,-140 1494.5,-140 1494.5,-140 1500.5,-140 1506.5,-146 1506.5,-152 1506.5,-152 1506.5,-180 1506.5,-180 1506.5,-186 1500.5,-192 1494.5,-192"/>
<text text-anchor="start" x="1378.944" y="-178" font-family="arial" font-weight="bold" font-size="10.00" fill="#000000">BCL as CM</text>
<text text-anchor="start" x="1314.2025" y="-161" font-family="arial" font-size="10.00" fill="#000000">The black Culm Limestone is nothing but</text>
<text text-anchor="start" x="1311.702" y="-149" font-family="arial" font-size="10.00" fill="#000000"> Coal Mesaures in age #COA #chron&#45;hyp </text>
</g>
<!-- n17&#45;&gt;n10 -->
<g id="edge38" class="edge">
<title>n17&#45;&gt;n10</title>
<path fill="none" stroke="#00ff00" d="M1374.7187,-192.0263C1357.2077,-208.8598 1335.5967,-232.0392 1321,-256 1216.994,-426.7278 1189,-486.0869 1189,-686 1189,-820 1189,-820 1189,-820 1189,-903.0053 1198.0407,-924.2332 1221,-1004 1228.3744,-1029.6205 1239.7685,-1057.4009 1249.2459,-1078.634"/>
<polygon fill="#00ff00" stroke="#00ff00" points="1246.1284,-1080.2342 1253.4442,-1087.8977 1252.5042,-1077.3447 1246.1284,-1080.2342"/>
</g>
<!-- n17&#45;&gt;n11 -->
<g id="edge39" class="edge">
<title>n17&#45;&gt;n11</title>
<path fill="none" stroke="#ff0000" d="M1374.7337,-139.7028C1353.7847,-120.879 1325.423,-95.3945 1302.9182,-75.1729"/>
<polygon fill="#ff0000" stroke="#ff0000" points="1305.0017,-72.3396 1295.2241,-68.2593 1300.3231,-77.5464 1305.0017,-72.3396"/>
</g>
<!-- n17&#45;&gt;n12 -->
<g id="edge40" class="edge">
<title>n17&#45;&gt;n12</title>
<path fill="none" stroke="#ff0000" d="M1420.1176,-139.7028C1431.3022,-121.4544 1446.3232,-96.9463 1458.5228,-77.0417"/>
<polygon fill="#ff0000" stroke="#ff0000" points="1461.664,-78.6143 1463.9056,-68.2593 1455.6958,-74.9563 1461.664,-78.6143"/>
</g>
<!-- n17&#45;&gt;n13 -->
<g id="edge41" class="edge">
<title>n17&#45;&gt;n13</title>
<path fill="none" stroke="#ff0000" d="M1377.8084,-192.1642C1362.9946,-208.8754 1345.8971,-231.877 1338,-256 1322.1811,-304.321 1319.5614,-323.0167 1338,-370.4 1342.8781,-382.9357 1351.2871,-394.5587 1360.3658,-404.5064"/>
<polygon fill="#ff0000" stroke="#ff0000" points="1357.9248,-407.017 1367.3915,-411.7743 1362.9577,-402.1518 1357.9248,-407.017"/>
</g>
<!-- n17&#45;&gt;n14 -->
<g id="edge42" class="edge">
<title>n17&#45;&gt;n14</title>
<path fill="none" stroke="#ff0000" d="M1384.2105,-192.369C1372.6169,-209.5134 1359.0892,-232.9033 1353,-256 1346.5191,-280.5823 1337.0544,-350.6003 1353,-370.4 1396.9403,-424.961 1463.0597,-349.439 1507,-404 1523.7261,-424.7689 1509.0776,-437.4144 1507,-464 1498.3069,-575.2376 1512.908,-609.8596 1468,-712 1455.8215,-739.6992 1434.7407,-766.3431 1416.4993,-786.2366"/>
<polygon fill="#ff0000" stroke="#ff0000" points="1413.7032,-784.1015 1409.4125,-793.7886 1418.8077,-788.8915 1413.7032,-784.1015"/>
</g>
<!-- n31&#45;&gt;n14 -->
<g id="edge65" class="edge">
<title>n31&#45;&gt;n14</title>
<path fill="none" stroke="#00ff00" d="M1411.4905,-927.6402C1405.4158,-905.4677 1397.8205,-877.7448 1391.8594,-855.9869"/>
<polygon fill="#00ff00" stroke="#00ff00" points="1395.1808,-854.8637 1389.1627,-846.144 1388.4296,-856.7134 1395.1808,-854.8637"/>
</g>
<!-- n32&#45;&gt;n16 -->
<g id="edge66" class="edge">
<title>n32&#45;&gt;n16</title>
<path fill="none" stroke="#00ff00" d="M1349.3648,-667.9693C1345.7007,-649.7956 1339.943,-621.2373 1335.3276,-598.3448"/>
<polygon fill="#00ff00" stroke="#00ff00" points="1338.7064,-597.394 1333.299,-588.283 1331.8445,-598.7775 1338.7064,-597.394"/>
</g>
<!-- n33&#45;&gt;n17 -->
<g id="edge67" class="edge">
<title>n33&#45;&gt;n17</title>
<path fill="none" stroke="#00ff00" d="M1452.5636,-283.9403C1443.9253,-262.9614 1429.4672,-227.8489 1418.5678,-201.3789"/>
<polygon fill="#00ff00" stroke="#00ff00" points="1421.7745,-199.9741 1414.7306,-192.06 1415.3018,-202.6394 1421.7745,-199.9741"/>
</g>
<!-- n18 -->
<g id="node25" class="node">
<title>n18</title>
<path fill="#ffffff" stroke="#f5f5dc" stroke-width="2" d="M2140,-1140C2140,-1140 1968,-1140 1968,-1140 1962,-1140 1956,-1134 1956,-1128 1956,-1128 1956,-1100 1956,-1100 1956,-1094 1962,-1088 1968,-1088 1968,-1088 2140,-1088 2140,-1088 2146,-1088 2152,-1094 2152,-1100 2152,-1100 2152,-1128 2152,-1128 2152,-1134 2146,-1140 2140,-1140"/>
<text text-anchor="start" x="2001.224" y="-1126" font-family="arial" font-weight="bold" font-size="10.00" fill="#000000">Some Non&#45;Culm as CM</text>
<text text-anchor="start" x="1965.933" y="-1109" font-family="arial" font-size="10.00" fill="#000000">Some part of the non&#45;Culm strata is CM</text>
<text text-anchor="start" x="2002.8755" y="-1097" font-family="arial" font-size="10.00" fill="#000000"> in age #pri #chron&#45;hyp</text>
</g>
<!-- n34 -->
<g id="node32" class="node">
<title>n34</title>
<path fill="#f5f5dc" stroke="#000000" d="M1900,-1002C1900,-1002 1728,-1002 1728,-1002 1722,-1002 1716,-996 1716,-990 1716,-990 1716,-942 1716,-942 1716,-936 1722,-930 1728,-930 1728,-930 1900,-930 1900,-930 1906,-930 1912,-936 1912,-942 1912,-942 1912,-990 1912,-990 1912,-996 1906,-1002 1900,-1002"/>
<text text-anchor="start" x="1740.365" y="-988" font-family="arial" font-weight="bold" font-size="10.00" fill="#000000">Standard Sequence as Partition &#45;</text>
<text text-anchor="start" x="1790.1145" y="-978" font-family="arial" font-weight="bold" font-size="10.00" fill="#000000"> Non&#45;Culm</text>
<text text-anchor="start" x="1731.7625" y="-963" font-family="arial" font-size="10.00" fill="#000000">If some part of the non&#45;Culm strata is</text>
<text text-anchor="start" x="1725.9245" y="-951" font-family="arial" font-size="10.00" fill="#000000"> neiter CM, ML, OR nor SIL in age, then</text>
<text text-anchor="start" x="1741.49" y="-939" font-family="arial" font-size="10.00" fill="#000000"> it is CAM in age #pri #chron&#45;hyp</text>
</g>
<!-- n18&#45;&gt;n34 -->
<g id="edge47" class="edge">
<title>n18&#45;&gt;n34</title>
<path fill="none" stroke="#ff0000" d="M2011.6453,-1087.8813C1975.5887,-1065.6464 1923.1421,-1033.3043 1881.3347,-1007.5231"/>
<polygon fill="#ff0000" stroke="#ff0000" points="1882.9335,-1004.397 1872.5847,-1002.1272 1879.2593,-1010.3552 1882.9335,-1004.397"/>
</g>
<!-- n35 -->
<g id="node33" class="node">
<title>n35</title>
<path fill="#b8860b" stroke="#000000" d="M2020,-704C2020,-704 1848,-704 1848,-704 1842,-704 1836,-698 1836,-692 1836,-692 1836,-680 1836,-680 1836,-674 1842,-668 1848,-668 1848,-668 2020,-668 2020,-668 2026,-668 2032,-674 2032,-680 2032,-680 2032,-692 2032,-692 2032,-698 2026,-704 2020,-704"/>
<text text-anchor="start" x="1869.273" y="-684" font-family="arial" font-weight="bold" font-size="10.00" fill="#000000">Dating the Non&#45;Culm&#45; GRE.1</text>
</g>
<!-- n18&#45;&gt;n35 -->
<g id="edge56" class="edge">
<title>n18&#45;&gt;n35</title>
<path fill="none" stroke="#ff0000" d="M2055.8302,-1087.7724C2060.1857,-1019.4597 2069.0285,-837.6278 2044,-784 2029.3408,-752.5902 1999.3754,-726.972 1974.4175,-709.8159"/>
<polygon fill="#ff0000" stroke="#ff0000" points="1976.0964,-706.7291 1965.8317,-704.1048 1972.2195,-712.5574 1976.0964,-706.7291"/>
</g>
<!-- n19 -->
<g id="node26" class="node">
<title>n19</title>
<path fill="#ffffff" stroke="#f5f5dc" stroke-width="2" d="M2000,-464C2000,-464 1828,-464 1828,-464 1822,-464 1816,-458 1816,-452 1816,-452 1816,-424 1816,-424 1816,-418 1822,-412 1828,-412 1828,-412 2000,-412 2000,-412 2006,-412 2012,-418 2012,-424 2012,-424 2012,-452 2012,-452 2012,-458 2006,-464 2000,-464"/>
<text text-anchor="start" x="1862.054" y="-450" font-family="arial" font-weight="bold" font-size="10.00" fill="#000000">Some Non&#45;Culm as ML</text>
<text text-anchor="start" x="1826.763" y="-433" font-family="arial" font-size="10.00" fill="#000000">Some part of the non&#45;Culm strata is ML</text>
<text text-anchor="start" x="1862.8755" y="-421" font-family="arial" font-size="10.00" fill="#000000"> in age #pri #chron&#45;hyp</text>
</g>
<!-- n19&#45;&gt;n34 -->
<g id="edge48" class="edge">
<title>n19&#45;&gt;n34</title>
<path fill="none" stroke="#ff0000" d="M1872.3884,-464.047C1849.0012,-481.2719 1821.9691,-506.1554 1809,-536 1752.716,-665.5218 1782.339,-838.4066 1801.6447,-919.8558"/>
<polygon fill="#ff0000" stroke="#ff0000" points="1798.297,-920.9023 1804.0576,-929.7942 1805.0994,-919.2507 1798.297,-920.9023"/>
</g>
<!-- n19&#45;&gt;n35 -->
<g id="edge57" class="edge">
<title>n19&#45;&gt;n35</title>
<path fill="none" stroke="#ff0000" d="M1916.1182,-464.2653C1919.9064,-511.2397 1927.8101,-609.2458 1931.7154,-657.671"/>
<polygon fill="#ff0000" stroke="#ff0000" points="1928.2367,-658.0777 1932.5294,-667.764 1935.2141,-657.515 1928.2367,-658.0777"/>
</g>
<!-- n20 -->
<g id="node27" class="node">
<title>n20</title>
<path fill="#ffffff" stroke="#f5f5dc" stroke-width="2" d="M2220,-464C2220,-464 2042,-464 2042,-464 2036,-464 2030,-458 2030,-452 2030,-452 2030,-424 2030,-424 2030,-418 2036,-412 2042,-412 2042,-412 2220,-412 2220,-412 2226,-412 2232,-418 2232,-424 2232,-424 2232,-452 2232,-452 2232,-458 2226,-464 2220,-464"/>
<text text-anchor="start" x="2075.1645" y="-450" font-family="arial" font-weight="bold" font-size="10.00" fill="#000000">Some Non&#45;Culm as ORS</text>
<text text-anchor="start" x="2039.8735" y="-433" font-family="arial" font-size="10.00" fill="#000000">Some part of the non&#45;Culm strata is ORS</text>
<text text-anchor="start" x="2079.8755" y="-421" font-family="arial" font-size="10.00" fill="#000000"> in age #pri #chron&#45;hyp</text>
</g>
<!-- n20&#45;&gt;n34 -->
<g id="edge49" class="edge">
<title>n20&#45;&gt;n34</title>
<path fill="none" stroke="#ff0000" d="M2057.6769,-464.0341C1980.6814,-496.1764 1865.5316,-559.2876 1827,-660 1793.7717,-746.8509 1799.8755,-857.8423 1807.0799,-919.4606"/>
<polygon fill="#ff0000" stroke="#ff0000" points="1803.638,-920.1475 1808.3339,-929.6448 1810.5855,-919.292 1803.638,-920.1475"/>
</g>
<!-- n20&#45;&gt;n35 -->
<g id="edge58" class="edge">
<title>n20&#45;&gt;n35</title>
<path fill="none" stroke="#ff0000" d="M2039.8669,-464.0974C2003.9682,-479.1638 1966.1053,-502.0624 1944,-536 1931.3916,-555.3572 1931.439,-619.6701 1932.6681,-657.5083"/>
<polygon fill="#ff0000" stroke="#ff0000" points="1929.1843,-658.0088 1933.0556,-667.871 1936.1794,-657.7472 1929.1843,-658.0088"/>
</g>
<!-- n21 -->
<g id="node28" class="node">
<title>n21</title>
<path fill="#ffffff" stroke="#f5f5dc" stroke-width="2" d="M1786,-464C1786,-464 1614,-464 1614,-464 1608,-464 1602,-458 1602,-452 1602,-452 1602,-424 1602,-424 1602,-418 1608,-412 1614,-412 1614,-412 1786,-412 1786,-412 1792,-412 1798,-418 1798,-424 1798,-424 1798,-452 1798,-452 1798,-458 1792,-464 1786,-464"/>
<text text-anchor="start" x="1647.4945" y="-450" font-family="arial" font-weight="bold" font-size="10.00" fill="#000000">Some Non&#45;Culm as SIL</text>
<text text-anchor="start" x="1612.2035" y="-433" font-family="arial" font-size="10.00" fill="#000000">Some part of the non&#45;Culm strata is SIL</text>
<text text-anchor="start" x="1648.8755" y="-421" font-family="arial" font-size="10.00" fill="#000000"> in age #pri #chron&#45;hyp</text>
</g>
<!-- n21&#45;&gt;n34 -->
<g id="edge50" class="edge">
<title>n21&#45;&gt;n34</title>
<path fill="none" stroke="#ff0000" d="M1703.194,-464.2489C1711.5964,-530.6253 1736.366,-710.2593 1775,-856 1780.6851,-877.4461 1788.6421,-900.671 1795.8873,-920.2293"/>
<polygon fill="#ff0000" stroke="#ff0000" points="1792.6905,-921.6722 1799.4842,-929.8021 1799.2432,-919.21 1792.6905,-921.6722"/>
</g>
<!-- n21&#45;&gt;n35 -->
<g id="edge59" class="edge">
<title>n21&#45;&gt;n35</title>
<path fill="none" stroke="#ff0000" d="M1724.7826,-464.2653C1769.9432,-512.1279 1865.0928,-612.9701 1909.8112,-660.364"/>
<polygon fill="#ff0000" stroke="#ff0000" points="1907.3849,-662.8925 1916.7934,-667.764 1912.4763,-658.0886 1907.3849,-662.8925"/>
</g>
<!-- n22 -->
<g id="node29" class="node">
<title>n22</title>
<path fill="#ffffff" stroke="#f5f5dc" stroke-width="2" d="M2023,-846C2023,-846 1845,-846 1845,-846 1839,-846 1833,-840 1833,-834 1833,-834 1833,-806 1833,-806 1833,-800 1839,-794 1845,-794 1845,-794 2023,-794 2023,-794 2029,-794 2035,-800 2035,-806 2035,-806 2035,-834 2035,-834 2035,-840 2029,-846 2023,-846"/>
<text text-anchor="start" x="1877.8895" y="-832" font-family="arial" font-weight="bold" font-size="10.00" fill="#000000">Some Non&#45;Culm as CAM</text>
<text text-anchor="start" x="1842.5985" y="-815" font-family="arial" font-size="10.00" fill="#000000">Some part of the non&#45;Culm strata is CAM</text>
<text text-anchor="start" x="1882.8755" y="-803" font-family="arial" font-size="10.00" fill="#000000"> in age #pri #chron&#45;hyp</text>
</g>
<!-- n22&#45;&gt;n35 -->
<g id="edge76" class="edge">
<title>n22&#45;&gt;n35</title>
<path fill="none" stroke="#00ff00" d="M1934,-793.8453C1934,-770.9923 1934,-737.887 1934,-714.3941"/>
<polygon fill="#00ff00" stroke="#00ff00" points="1937.5001,-714.3478 1934,-704.3479 1930.5001,-714.3479 1937.5001,-714.3478"/>
</g>
<!-- n23 -->
<g id="node30" class="node">
<title>n23</title>
<path fill="#ffffff" stroke="#f5f5dc" stroke-width="2" d="M1902.5,-1146C1902.5,-1146 1725.5,-1146 1725.5,-1146 1719.5,-1146 1713.5,-1140 1713.5,-1134 1713.5,-1134 1713.5,-1094 1713.5,-1094 1713.5,-1088 1719.5,-1082 1725.5,-1082 1725.5,-1082 1902.5,-1082 1902.5,-1082 1908.5,-1082 1914.5,-1088 1914.5,-1094 1914.5,-1094 1914.5,-1134 1914.5,-1134 1914.5,-1140 1908.5,-1146 1902.5,-1146"/>
<text text-anchor="start" x="1723.9465" y="-1132" font-family="arial" font-weight="bold" font-size="10.00" fill="#000000">Non&#45;Culm as Post&#45;Primary and Pre&#45;NRS</text>
<text text-anchor="start" x="1736.7065" y="-1115" font-family="arial" font-size="10.00" fill="#000000">The non&#45;Culm strata are older than</text>
<text text-anchor="start" x="1730.3165" y="-1103" font-family="arial" font-size="10.00" fill="#000000"> Primary strata and younger than New</text>
<text text-anchor="start" x="1728.6415" y="-1091" font-family="arial" font-size="10.00" fill="#000000"> Red Sandstone strata #pri #chron&#45;hyp</text>
</g>
<!-- n23&#45;&gt;n34 -->
<g id="edge77" class="edge">
<title>n23&#45;&gt;n34</title>
<path fill="none" stroke="#00ff00" d="M1814,-1081.8862C1814,-1061.5383 1814,-1034.8901 1814,-1012.2787"/>
<polygon fill="#00ff00" stroke="#00ff00" points="1817.5001,-1012.2108 1814,-1002.2108 1810.5001,-1012.2108 1817.5001,-1012.2108"/>
</g>
<!-- n24 -->
<g id="node31" class="node">
<title>n24</title>
<path fill="#ffffff" stroke="#b8860b" stroke-width="2" d="M2137,-588C2137,-588 1965,-588 1965,-588 1959,-588 1953,-582 1953,-576 1953,-576 1953,-548 1953,-548 1953,-542 1959,-536 1965,-536 1965,-536 2137,-536 2137,-536 2143,-536 2149,-542 2149,-548 2149,-548 2149,-576 2149,-576 2149,-582 2143,-588 2137,-588"/>
<text text-anchor="start" x="2009.337" y="-574" font-family="arial" font-weight="bold" font-size="10.00" fill="#000000">Non&#45;Culm as CAM</text>
<text text-anchor="start" x="1974.316" y="-557" font-family="arial" font-size="10.00" fill="#000000">The non&#45;Culm strata is nothing but</text>
<text text-anchor="start" x="1970.1505" y="-545" font-family="arial" font-size="10.00" fill="#000000"> Cambrian in age #GRE #chron&#45;hyp </text>
</g>
<!-- n24&#45;&gt;n18 -->
<g id="edge51" class="edge">
<title>n24&#45;&gt;n18</title>
<path fill="none" stroke="#ff0000" d="M2053.316,-588.1683C2059.0458,-656.5534 2072.8688,-846.2324 2065,-1004 2063.7676,-1028.7096 2060.9872,-1056.4254 2058.5303,-1077.8548"/>
<polygon fill="#ff0000" stroke="#ff0000" points="2055.0493,-1077.4888 2057.3584,-1087.829 2062.0015,-1078.3057 2055.0493,-1077.4888"/>
</g>
<!-- n24&#45;&gt;n19 -->
<g id="edge52" class="edge">
<title>n24&#45;&gt;n19</title>
<path fill="none" stroke="#ff0000" d="M2021.9458,-535.7028C2001.1485,-516.879 1972.9924,-491.3945 1950.6507,-471.1729"/>
<polygon fill="#ff0000" stroke="#ff0000" points="1952.7751,-468.375 1943.0123,-464.2593 1948.0777,-473.5648 1952.7751,-468.375"/>
</g>
<!-- n24&#45;&gt;n20 -->
<g id="edge53" class="edge">
<title>n24&#45;&gt;n20</title>
<path fill="none" stroke="#ff0000" d="M2067.9659,-535.7028C2079.7921,-517.3722 2095.6933,-492.7254 2108.5658,-472.773"/>
<polygon fill="#ff0000" stroke="#ff0000" points="2111.5782,-474.5597 2114.0585,-464.2593 2105.6962,-470.7648 2111.5782,-474.5597"/>
</g>
<!-- n24&#45;&gt;n21 -->
<g id="edge54" class="edge">
<title>n24&#45;&gt;n21</title>
<path fill="none" stroke="#ff0000" d="M1976.9908,-535.8543C1920.3096,-515.8302 1842.1089,-488.2037 1783.2498,-467.4102"/>
<polygon fill="#ff0000" stroke="#ff0000" points="1784.2014,-464.0344 1773.6066,-464.0035 1781.8696,-470.6347 1784.2014,-464.0344"/>
</g>
<!-- n24&#45;&gt;n22 -->
<g id="edge55" class="edge">
<title>n24&#45;&gt;n22</title>
<path fill="none" stroke="#00ff00" d="M2054.6028,-588.2657C2057.6827,-619.2998 2059.1327,-671.7914 2041,-712 2027.5085,-741.9169 2001.8807,-768.2503 1979.0885,-787.4236"/>
<polygon fill="#00ff00" stroke="#00ff00" points="1976.694,-784.8605 1971.1695,-793.901 1981.1259,-790.2789 1976.694,-784.8605"/>
</g>
<!-- n34&#45;&gt;n22 -->
<g id="edge68" class="edge">
<title>n34&#45;&gt;n22</title>
<path fill="none" stroke="#00ff00" d="M1843.6629,-929.9101C1862.7851,-906.6448 1887.4862,-876.5917 1906.2248,-853.7931"/>
<polygon fill="#00ff00" stroke="#00ff00" points="1908.9395,-856.0023 1912.5853,-846.0545 1903.5317,-851.5576 1908.9395,-856.0023"/>
</g>
<!-- n35&#45;&gt;n24 -->
<g id="edge69" class="edge">
<title>n35&#45;&gt;n24</title>
<path fill="none" stroke="#00ff00" d="M1951.0128,-667.9693C1968.8558,-649.0588 1997.3076,-618.9047 2019.3066,-595.5896"/>
<polygon fill="#00ff00" stroke="#00ff00" points="2021.8836,-597.9584 2026.2007,-588.283 2016.7922,-593.1544 2021.8836,-597.9584"/>
</g>
<!-- n25 -->
<g id="node34" class="node">
<title>n25</title>
<path fill="#ffffff" stroke="#b8860b" stroke-width="2" d="M2658,-1146C2658,-1146 2486,-1146 2486,-1146 2480,-1146 2474,-1140 2474,-1134 2474,-1134 2474,-1094 2474,-1094 2474,-1088 2480,-1082 2486,-1082 2486,-1082 2658,-1082 2658,-1082 2664,-1082 2670,-1088 2670,-1094 2670,-1094 2670,-1134 2670,-1134 2670,-1140 2664,-1146 2658,-1146"/>
<text text-anchor="start" x="2523.944" y="-1132" font-family="arial" font-weight="bold" font-size="10.00" fill="#000000">Traversing Northward</text>
<text text-anchor="start" x="2492.5345" y="-1115" font-family="arial" font-size="10.00" fill="#000000">The strata south of Exmoor become</text>
<text text-anchor="start" x="2489.476" y="-1103" font-family="arial" font-size="10.00" fill="#000000"> progessively younger the furhter one</text>
<text text-anchor="start" x="2485.0405" y="-1091" font-family="arial" font-size="10.00" fill="#000000"> traverses northward #GRE #chron&#45;hyp</text>
</g>
<!-- n26 -->
<g id="node35" class="node">
<title>n26</title>
<path fill="#ffffff" stroke="#b8860b" stroke-width="2" d="M2444,-1152C2444,-1152 2268,-1152 2268,-1152 2262,-1152 2256,-1146 2256,-1140 2256,-1140 2256,-1088 2256,-1088 2256,-1082 2262,-1076 2268,-1076 2268,-1076 2444,-1076 2444,-1076 2450,-1076 2456,-1082 2456,-1088 2456,-1088 2456,-1140 2456,-1140 2456,-1146 2450,-1152 2444,-1152"/>
<text text-anchor="start" x="2279.8685" y="-1138" font-family="arial" font-weight="bold" font-size="10.00" fill="#000000">Exmoor Youngest Devonian strata</text>
<text text-anchor="start" x="2276.812" y="-1121" font-family="arial" font-size="10.00" fill="#000000">In Devon, among all the strata older</text>
<text text-anchor="start" x="2265.6885" y="-1109" font-family="arial" font-size="10.00" fill="#000000"> than the New Red Sandstone, the strata</text>
<text text-anchor="start" x="2278.1995" y="-1097" font-family="arial" font-size="10.00" fill="#000000"> of Exmoor are the youngest #GRE</text>
<text text-anchor="start" x="2329.6045" y="-1085" font-family="arial" font-size="10.00" fill="#000000"> #chron&#45;hyp</text>
</g>
<!-- n27 -->
<g id="node36" class="node">
<title>n27</title>
<path fill="#ffffff" stroke="#ff8c00" stroke-width="2" d="M2451.5,-998C2451.5,-998 2268.5,-998 2268.5,-998 2262.5,-998 2256.5,-992 2256.5,-986 2256.5,-986 2256.5,-946 2256.5,-946 2256.5,-940 2262.5,-934 2268.5,-934 2268.5,-934 2451.5,-934 2451.5,-934 2457.5,-934 2463.5,-940 2463.5,-946 2463.5,-946 2463.5,-986 2463.5,-986 2463.5,-992 2457.5,-998 2451.5,-998"/>
<text text-anchor="start" x="2289.0935" y="-984" font-family="arial" font-weight="bold" font-size="10.00" fill="#000000">Culm Youngest Devonian Strata</text>
<text text-anchor="start" x="2281.312" y="-967" font-family="arial" font-size="10.00" fill="#000000">In Devon, among all the strata older</text>
<text text-anchor="start" x="2271.028" y="-955" font-family="arial" font-size="10.00" fill="#000000"> than the New Red Sandstone, the Culm</text>
<text text-anchor="start" x="2266.5825" y="-943" font-family="arial" font-size="10.00" fill="#000000"> strata are the youngest #COA #chron&#45;hyp</text>
</g>
<!-- n26&#45;&gt;n27 -->
<g id="edge61" class="edge">
<title>n26&#45;&gt;n27</title>
<path fill="none" stroke="#ff0000" d="M2351.0419,-1075.8863C2350.6497,-1055.2775 2351.277,-1029.7689 2352.6761,-1008.5179"/>
<polygon fill="#ff0000" stroke="#ff0000" points="2356.1721,-1008.6999 2353.4238,-998.4678 2349.1914,-1008.1805 2356.1721,-1008.6999"/>
</g>
<!-- n27&#45;&gt;n26 -->
<g id="edge60" class="edge">
<title>n27&#45;&gt;n26</title>
<path fill="none" stroke="#ff0000" d="M2364.8212,-998.4678C2365.4088,-1018.1693 2364.9444,-1043.6793 2363.6789,-1065.7151"/>
<polygon fill="#ff0000" stroke="#ff0000" points="2360.1738,-1065.6805 2363.0183,-1075.8863 2367.1591,-1066.1342 2360.1738,-1065.6805"/>
</g>
</g>
</svg>
