
<!-- Generated by graphviz version 2.40.1 (20161225.0304)
 -->
<!-- Title: Argument Map Pages: 1 -->
<svg width="720pt" height="316pt"
 viewBox="0.00 0.00 720.00 316.14" xmlns="http://www.w3.org/2000/svg" xmlns:xlink="http://www.w3.org/1999/xlink">
<g id="graph0" class="graph" transform="scale(.2665 .2665) rotate(0) translate(4 1182.4)">
<title>Argument Map</title>
<g id="clust1" class="cluster">
<title>cluster_1</title>
<polygon fill="#b9d3ee" stroke="#b9d3ee" points="722,-256 722,-370.4 1152,-370.4 1152,-256 722,-256"/>
<text text-anchor="start" x="853.3132" y="-355.6" font-family="arial" font-size="12.00" fill="#000000">Aporia I : Coal in Ancient Strata</text>
</g>
<g id="clust2" class="cluster">
<title>cluster_2</title>
<polygon fill="#eedfcc" stroke="#eedfcc" points="8,-140 8,-1164.4 714,-1164.4 714,-140 8,-140"/>
<text text-anchor="start" x="296.6578" y="-1149.6" font-family="arial" font-size="12.00" fill="#000000">Dating of the Main Culm</text>
</g>
<g id="clust3" class="cluster">
<title>cluster_3</title>
<polygon fill="#eeb4b4" stroke="#eeb4b4" points="1160,-8 1160,-1170.4 1586,-1170.4 1586,-8 1160,-8"/>
<text text-anchor="start" x="1293.9842" y="-1155.6" font-family="arial" font-size="12.00" fill="#000000">Dating of the Culm Limestone</text>
</g>
<g id="clust4" class="cluster">
<title>cluster_4</title>
<polygon fill="#cd9b9b" stroke="#cd9b9b" points="1594,-404 1594,-1170.4 2240,-1170.4 2240,-404 1594,-404"/>
<text text-anchor="start" x="1854.3252" y="-1155.6" font-family="arial" font-size="12.00" fill="#000000">Dating of the Non&#45;Culm</text>
</g>
<g id="clust5" class="cluster">
<title>cluster_5</title>
<polygon fill="#8b6969" stroke="#8b6969" points="2248,-920 2248,-1170.4 2686,-1170.4 2686,-920 2248,-920"/>
<text text-anchor="start" x="2396.9752" y="-1155.6" font-family="arial" font-size="12.00" fill="#000000">Youngest Devonian Strata</text>
</g>
<!-- n0 -->
<g id="node1" class="node">
<title>n0</title>
<path fill="#ffffff" stroke="#b8860b" stroke-width="2" d="M1132,-340C1132,-340 960,-340 960,-340 954,-340 948,-334 948,-328 948,-328 948,-276 948,-276 948,-270 954,-264 960,-264 960,-264 1132,-264 1132,-264 1138,-264 1144,-270 1144,-276 1144,-276 1144,-328 1144,-328 1144,-334 1138,-340 1132,-340"/>
<text text-anchor="start" x="982.652" y="-326" font-family="arial" font-weight="bold" font-size="10.00" fill="#000000">Instances of Pre&#45;ORS Strata</text>
<text text-anchor="start" x="964.3215" y="-309" font-family="arial" font-size="10.00" fill="#000000">In Munster, North America and North</text>
<text text-anchor="start" x="959.3145" y="-297" font-family="arial" font-size="10.00" fill="#000000"> Devon, some strata closely associated</text>
<text text-anchor="start" x="958.7625" y="-285" font-family="arial" font-size="10.00" fill="#000000"> with seams of coal are pre&#45;ORS in age</text>
<text text-anchor="start" x="1004.602" y="-273" font-family="arial" font-size="10.00" fill="#000000"> #GRE #chron&#45;hyp</text>
</g>
<!-- n2 -->
<g id="node2" class="node">
<title>n2</title>
<path fill="#ffffff" stroke="#b8860b" stroke-width="2" d="M918,-334C918,-334 742,-334 742,-334 736,-334 730,-328 730,-322 730,-322 730,-282 730,-282 730,-276 736,-270 742,-270 742,-270 918,-270 918,-270 924,-270 930,-276 930,-282 930,-282 930,-322 930,-322 930,-328 924,-334 918,-334"/>
<text text-anchor="start" x="749.711" y="-320" font-family="arial" font-weight="bold" font-size="10.00" fill="#000000">Pre&#45;ORS Strata in northwest France</text>
<text text-anchor="start" x="741.6465" y="-303" font-family="arial" font-size="10.00" fill="#000000">The whole strata supporting coal seams</text>
<text text-anchor="start" x="739.9835" y="-291" font-family="arial" font-size="10.00" fill="#000000"> in northwest France are pre&#45;ORS in age</text>
<text text-anchor="start" x="788.602" y="-279" font-family="arial" font-size="10.00" fill="#000000"> #GRE #chron&#45;hyp</text>
</g>
<!-- n1 -->
<g id="node3" class="node">
<title>n1</title>
<path fill="#ffffff" stroke="#b8860b" stroke-width="2" d="M651,-1134C651,-1134 479,-1134 479,-1134 473,-1134 467,-1128 467,-1122 467,-1122 467,-1094 467,-1094 467,-1088 473,-1082 479,-1082 479,-1082 651,-1082 651,-1082 657,-1082 663,-1088 663,-1094 663,-1094 663,-1122 663,-1122 663,-1128 657,-1134 651,-1134"/>
<text text-anchor="start" x="521.9475" y="-1120" font-family="arial" font-weight="bold" font-size="10.00" fill="#000000">Main Culm as CAM</text>
<text text-anchor="start" x="479.9925" y="-1103" font-family="arial" font-size="10.00" fill="#000000">The whole of the main Culm is CAM in</text>
<text text-anchor="start" x="512.4845" y="-1091" font-family="arial" font-size="10.00" fill="#000000"> age #GRE #chron&#45;hyp </text>
</g>
<!-- n1&#45;&gt;n0 -->
<g id="edge1" class="edge">
<title>n1&#45;&gt;n0</title>
<path fill="none" stroke="#00ff00" d="M635.921,-1081.9657C731.5488,-1041.7415 890,-954.7593 890,-820 890,-820 890,-820 890,-562 890,-477.0554 951.9834,-395.8933 997.8088,-347.4961"/>
<polygon fill="#00ff00" stroke="#00ff00" points="1000.5979,-349.6456 1005.0128,-340.0144 995.5555,-344.7902 1000.5979,-349.6456"/>
</g>
<!-- n3 -->
<g id="node4" class="node">
<title>n3</title>
<path fill="#ffffff" stroke="#f5f5dc" stroke-width="2" d="M654,-992C654,-992 476,-992 476,-992 470,-992 464,-986 464,-980 464,-980 464,-952 464,-952 464,-946 470,-940 476,-940 476,-940 654,-940 654,-940 660,-940 666,-946 666,-952 666,-952 666,-980 666,-980 666,-986 660,-992 654,-992"/>
<text text-anchor="start" x="510.8345" y="-978" font-family="arial" font-weight="bold" font-size="10.00" fill="#000000">Some Main Culm as CM</text>
<text text-anchor="start" x="473.599" y="-961" font-family="arial" font-size="10.00" fill="#000000">Some part of the main Culm is CM in age</text>
<text text-anchor="start" x="528.882" y="-949" font-family="arial" font-size="10.00" fill="#000000"> #pri #chron&#45;hyp</text>
</g>
<!-- n1&#45;&gt;n3 -->
<g id="edge6" class="edge">
<title>n1&#45;&gt;n3</title>
<path fill="none" stroke="#ff0000" d="M565,-1071.8438C565,-1050.6384 565,-1023.9193 565,-1002.6322"/>
<polygon fill="#ff0000" stroke="#ff0000" points="561.5001,-1071.955 565,-1081.955 568.5001,-1071.955 561.5001,-1071.955"/>
<polygon fill="#ff0000" stroke="#ff0000" points="568.5001,-1002.3607 565,-992.3608 561.5001,-1002.3608 568.5001,-1002.3607"/>
</g>
<!-- n4 -->
<g id="node5" class="node">
<title>n4</title>
<path fill="#ffffff" stroke="#f5f5dc" stroke-width="2" d="M205.5,-328C205.5,-328 28.5,-328 28.5,-328 22.5,-328 16.5,-322 16.5,-316 16.5,-316 16.5,-288 16.5,-288 16.5,-282 22.5,-276 28.5,-276 28.5,-276 205.5,-276 205.5,-276 211.5,-276 217.5,-282 217.5,-288 217.5,-288 217.5,-316 217.5,-316 217.5,-322 211.5,-328 205.5,-328"/>
<text text-anchor="start" x="64.1645" y="-314" font-family="arial" font-weight="bold" font-size="10.00" fill="#000000">Some Main Culm as ML</text>
<text text-anchor="start" x="26.929" y="-297" font-family="arial" font-size="10.00" fill="#000000">Some part of the main Culm is ML in age</text>
<text text-anchor="start" x="81.382" y="-285" font-family="arial" font-size="10.00" fill="#000000"> #pri #chron&#45;hyp</text>
</g>
<!-- n1&#45;&gt;n4 -->
<g id="edge7" class="edge">
<title>n1&#45;&gt;n4</title>
<path fill="none" stroke="#ff0000" d="M456.5918,-1093.7993C350.2991,-1077.5813 198.6076,-1047.5367 159,-1004 103.2891,-942.7625 130,-902.7872 130,-820 130,-820 130,-820 130,-562 130,-482.0423 123.7913,-388.4255 119.9554,-338.2155"/>
<polygon fill="#ff0000" stroke="#ff0000" points="456.3215,-1097.298 466.7312,-1095.3256 457.3636,-1090.376 456.3215,-1097.298"/>
<polygon fill="#ff0000" stroke="#ff0000" points="123.4399,-337.8795 119.1759,-328.1806 116.4609,-338.4217 123.4399,-337.8795"/>
</g>
<!-- n5 -->
<g id="node6" class="node">
<title>n5</title>
<path fill="#ffffff" stroke="#f5f5dc" stroke-width="2" d="M634,-328C634,-328 462,-328 462,-328 456,-328 450,-322 450,-316 450,-316 450,-288 450,-288 450,-282 456,-276 462,-276 462,-276 634,-276 634,-276 640,-276 646,-282 646,-288 646,-288 646,-316 646,-316 646,-322 640,-328 634,-328"/>
<text text-anchor="start" x="490.775" y="-314" font-family="arial" font-weight="bold" font-size="10.00" fill="#000000">Some Main Culm as ORS</text>
<text text-anchor="start" x="463.2675" y="-297" font-family="arial" font-size="10.00" fill="#000000">Some part of the main Culm is ORS in</text>
<text text-anchor="start" x="502.154" y="-285" font-family="arial" font-size="10.00" fill="#000000"> age #pri #chron&#45;hyp</text>
</g>
<!-- n1&#45;&gt;n5 -->
<g id="edge8" class="edge">
<title>n1&#45;&gt;n5</title>
<path fill="none" stroke="#ff0000" d="M613.4902,-1075.7035C636.426,-1057.5683 661.6582,-1032.7972 675,-1004 709.4283,-929.6895 685,-901.8985 685,-820 685,-820 685,-820 685,-562 685,-488.3455 670.7211,-468.4127 635,-404 621.1723,-379.0658 600.6572,-354.6387 583.0209,-335.9428"/>
<polygon fill="#ff0000" stroke="#ff0000" points="611.2996,-1072.9728 605.4966,-1081.8372 615.5609,-1078.5263 611.2996,-1072.9728"/>
<polygon fill="#ff0000" stroke="#ff0000" points="585.1213,-333.0776 575.6666,-328.2964 580.076,-337.9301 585.1213,-333.0776"/>
</g>
<!-- n6 -->
<g id="node7" class="node">
<title>n6</title>
<path fill="#ffffff" stroke="#f5f5dc" stroke-width="2" d="M420,-328C420,-328 248,-328 248,-328 242,-328 236,-322 236,-316 236,-316 236,-288 236,-288 236,-282 242,-276 248,-276 248,-276 420,-276 420,-276 426,-276 432,-282 432,-288 432,-288 432,-316 432,-316 432,-322 426,-328 420,-328"/>
<text text-anchor="start" x="280.105" y="-314" font-family="arial" font-weight="bold" font-size="10.00" fill="#000000">Some Main Culm as SIL</text>
<text text-anchor="start" x="252.5975" y="-297" font-family="arial" font-size="10.00" fill="#000000">Some part of the main Culm is SIL in</text>
<text text-anchor="start" x="288.154" y="-285" font-family="arial" font-size="10.00" fill="#000000"> age #pri #chron&#45;hyp</text>
</g>
<!-- n1&#45;&gt;n6 -->
<g id="edge9" class="edge">
<title>n1&#45;&gt;n6</title>
<path fill="none" stroke="#ff0000" d="M456.8,-1093.1268C356.5105,-1076.8615 217.9781,-1047.2165 185,-1004 102.7746,-896.2469 267.9548,-464.5496 319.3845,-337.4049"/>
<polygon fill="#ff0000" stroke="#ff0000" points="456.2591,-1096.5847 466.6863,-1094.7072 457.3642,-1089.6725 456.2591,-1096.5847"/>
<polygon fill="#ff0000" stroke="#ff0000" points="322.6438,-338.6809 323.166,-328.099 316.1588,-336.0456 322.6438,-338.6809"/>
</g>
<!-- n7 -->
<g id="node8" class="node">
<title>n7</title>
<path fill="#ffffff" stroke="#f5f5dc" stroke-width="2" d="M594,-712C594,-712 422,-712 422,-712 416,-712 410,-706 410,-700 410,-700 410,-672 410,-672 410,-666 416,-660 422,-660 422,-660 594,-660 594,-660 600,-660 606,-666 606,-672 606,-672 606,-700 606,-700 606,-706 600,-712 594,-712"/>
<text text-anchor="start" x="450.5" y="-698" font-family="arial" font-weight="bold" font-size="10.00" fill="#000000">Some Main Culm as CAM</text>
<text text-anchor="start" x="422.9925" y="-681" font-family="arial" font-size="10.00" fill="#000000">Some part of the main Culm is CAM in</text>
<text text-anchor="start" x="462.154" y="-669" font-family="arial" font-size="10.00" fill="#000000"> age #pri #chron&#45;hyp</text>
</g>
<!-- n1&#45;&gt;n7 -->
<g id="edge10" class="edge">
<title>n1&#45;&gt;n7</title>
<path fill="none" stroke="#00ff00" d="M523.6354,-1081.896C498.6374,-1063.5239 468.9836,-1036.4648 455,-1004 413.4915,-907.6323 461.1995,-781.871 489.7161,-721.4459"/>
<polygon fill="#00ff00" stroke="#00ff00" points="492.9239,-722.8516 494.1115,-712.3235 486.6177,-719.8131 492.9239,-722.8516"/>
</g>
<!-- n28 -->
<g id="node11" class="node">
<title>n28</title>
<path fill="#f5f5dc" stroke="#000000" d="M380.5,-856C380.5,-856 207.5,-856 207.5,-856 201.5,-856 195.5,-850 195.5,-844 195.5,-844 195.5,-796 195.5,-796 195.5,-790 201.5,-784 207.5,-784 207.5,-784 380.5,-784 380.5,-784 386.5,-784 392.5,-790 392.5,-796 392.5,-796 392.5,-844 392.5,-844 392.5,-850 386.5,-856 380.5,-856"/>
<text text-anchor="start" x="208.6425" y="-842" font-family="arial" font-weight="bold" font-size="10.00" fill="#000000">Standard Sequence as Partition &#45; Main</text>
<text text-anchor="start" x="281.4475" y="-832" font-family="arial" font-weight="bold" font-size="10.00" fill="#000000"> Culm</text>
<text text-anchor="start" x="205.8835" y="-817" font-family="arial" font-size="10.00" fill="#000000">If some main Culm strata are neiter CM,</text>
<text text-anchor="start" x="209.4835" y="-805" font-family="arial" font-size="10.00" fill="#000000"> ML, OR nor SIL in age, then it is CAM</text>
<text text-anchor="start" x="243.3755" y="-793" font-family="arial" font-size="10.00" fill="#000000"> in age #pri #chron&#45;hyp</text>
</g>
<!-- n3&#45;&gt;n28 -->
<g id="edge2" class="edge">
<title>n3&#45;&gt;n28</title>
<path fill="none" stroke="#ff0000" d="M516.5506,-939.8981C475.788,-917.9375 416.7985,-886.1571 369.7922,-860.8327"/>
<polygon fill="#ff0000" stroke="#ff0000" points="371.3248,-857.6828 360.8611,-856.0211 368.0047,-863.8454 371.3248,-857.6828"/>
</g>
<!-- n29 -->
<g id="node12" class="node">
<title>n29</title>
<path fill="#b8860b" stroke="#000000" d="M664,-184C664,-184 492,-184 492,-184 486,-184 480,-178 480,-172 480,-172 480,-160 480,-160 480,-154 486,-148 492,-148 492,-148 664,-148 664,-148 670,-148 676,-154 676,-160 676,-160 676,-172 676,-172 676,-178 670,-184 664,-184"/>
<text text-anchor="start" x="510.494" y="-164" font-family="arial" font-weight="bold" font-size="10.00" fill="#000000">Dating the Main Culm &#45; GRE.1</text>
</g>
<!-- n3&#45;&gt;n29 -->
<g id="edge11" class="edge">
<title>n3&#45;&gt;n29</title>
<path fill="none" stroke="#ff0000" d="M581.2893,-939.7018C609.6255,-891.3674 665,-784.3329 665,-686 665,-686 665,-686 665,-562 665,-425.9993 714.8205,-382.1486 664,-256 653.4005,-229.6896 631.064,-206.7005 611.8116,-190.543"/>
<polygon fill="#ff0000" stroke="#ff0000" points="613.7661,-187.622 603.7926,-184.0469 609.3598,-193.0612 613.7661,-187.622"/>
</g>
<!-- n30 -->
<g id="node13" class="node">
<title>n30</title>
<path fill="#ff8c00" stroke="#000000" d="M508,-580C508,-580 336,-580 336,-580 330,-580 324,-574 324,-568 324,-568 324,-556 324,-556 324,-550 330,-544 336,-544 336,-544 508,-544 508,-544 514,-544 520,-550 520,-556 520,-556 520,-568 520,-568 520,-574 514,-580 508,-580"/>
<text text-anchor="start" x="348.935" y="-560" font-family="arial" font-weight="bold" font-size="10.00" fill="#000000">Redating the Main Culm &#45; COA.1</text>
</g>
<!-- n3&#45;&gt;n30 -->
<g id="edge69" class="edge">
<title>n3&#45;&gt;n30</title>
<path fill="none" stroke="#00ff00" d="M540.4889,-939.7184C501.8763,-896.313 428.4573,-805.1444 401,-712 388.7756,-670.5305 400.9152,-620.4567 411.1659,-589.9357"/>
<polygon fill="#00ff00" stroke="#00ff00" points="414.5122,-590.9703 414.5319,-580.3754 407.9095,-588.6455 414.5122,-590.9703"/>
</g>
<!-- n4&#45;&gt;n28 -->
<g id="edge3" class="edge">
<title>n4&#45;&gt;n28</title>
<path fill="none" stroke="#ff0000" d="M125.9294,-328.1325C154.251,-411.0169 242.3177,-668.749 278.3713,-774.2618"/>
<polygon fill="#ff0000" stroke="#ff0000" points="275.1487,-775.6554 281.6942,-783.9865 281.7727,-773.392 275.1487,-775.6554"/>
</g>
<!-- n4&#45;&gt;n29 -->
<g id="edge12" class="edge">
<title>n4&#45;&gt;n29</title>
<path fill="none" stroke="#ff0000" d="M174.9133,-275.9324C191.5432,-268.9543 209.8274,-261.7584 227,-256 312.5906,-227.2993 412.5152,-202.4956 483.8102,-186.2381"/>
<polygon fill="#ff0000" stroke="#ff0000" points="484.6972,-189.6259 493.6757,-184.0013 483.1493,-182.7991 484.6972,-189.6259"/>
</g>
<!-- n4&#45;&gt;n30 -->
<g id="edge21" class="edge">
<title>n4&#45;&gt;n30</title>
<path fill="none" stroke="#ff0000" d="M147.6675,-328.1428C206.6497,-378.4227 335.1574,-487.9702 392.8909,-537.1857"/>
<polygon fill="#ff0000" stroke="#ff0000" points="390.6722,-539.8935 400.553,-543.7173 395.2134,-534.5664 390.6722,-539.8935"/>
</g>
<!-- n5&#45;&gt;n28 -->
<g id="edge4" class="edge">
<title>n5&#45;&gt;n28</title>
<path fill="none" stroke="#ff0000" d="M505.389,-328.211C467.3585,-352.0945 415.1097,-386.2655 398,-404 349.8835,-453.8736 336.6393,-470.1645 315,-536 307.7937,-557.9244 299.928,-698.9479 296.1983,-773.6736"/>
<polygon fill="#ff0000" stroke="#ff0000" points="292.6979,-773.5978 295.7,-783.7584 299.6894,-773.9433 292.6979,-773.5978"/>
</g>
<!-- n5&#45;&gt;n29 -->
<g id="edge13" class="edge">
<title>n5&#45;&gt;n29</title>
<path fill="none" stroke="#ff0000" d="M553.7843,-275.7778C558.9458,-252.3792 566.4841,-218.2054 571.7754,-194.2181"/>
<polygon fill="#ff0000" stroke="#ff0000" points="575.2255,-194.8254 573.9619,-184.3062 568.3898,-193.3175 575.2255,-194.8254"/>
</g>
<!-- n5&#45;&gt;n30 -->
<g id="edge22" class="edge">
<title>n5&#45;&gt;n30</title>
<path fill="none" stroke="#ff0000" d="M506.204,-328.1046C471.0288,-351.0759 424.9126,-383.9058 415,-404 394.5029,-445.5506 404.0676,-500.9707 412.9698,-533.9246"/>
<polygon fill="#ff0000" stroke="#ff0000" points="409.6773,-535.1403 415.7979,-543.7884 416.4062,-533.211 409.6773,-535.1403"/>
</g>
<!-- n6&#45;&gt;n28 -->
<g id="edge5" class="edge">
<title>n6&#45;&gt;n28</title>
<path fill="none" stroke="#ff0000" d="M329.1159,-328.1986C321.317,-371.3372 306.291,-460.1096 300,-536 293.077,-619.5141 292.701,-717.2866 293.2308,-773.594"/>
<polygon fill="#ff0000" stroke="#ff0000" points="289.7311,-773.6509 293.3389,-783.6125 296.7307,-773.5753 289.7311,-773.6509"/>
</g>
<!-- n6&#45;&gt;n29 -->
<g id="edge14" class="edge">
<title>n6&#45;&gt;n29</title>
<path fill="none" stroke="#ff0000" d="M380.757,-275.9387C425.8438,-250.8084 493.4246,-213.1404 536.6111,-189.0692"/>
<polygon fill="#ff0000" stroke="#ff0000" points="538.4087,-192.0743 545.4395,-184.1485 535.0007,-185.9599 538.4087,-192.0743"/>
</g>
<!-- n6&#45;&gt;n30 -->
<g id="edge23" class="edge">
<title>n6&#45;&gt;n30</title>
<path fill="none" stroke="#ff0000" d="M342.8483,-328.1428C359.5181,-377.3945 395.4357,-483.5146 412.5541,-534.0916"/>
<polygon fill="#ff0000" stroke="#ff0000" points="409.2907,-535.3673 415.812,-543.7173 415.9212,-533.123 409.2907,-535.3673"/>
</g>
<!-- n7&#45;&gt;n29 -->
<g id="edge70" class="edge">
<title>n7&#45;&gt;n29</title>
<path fill="none" stroke="#00ff00" d="M526.4681,-659.9975C554.1304,-619.847 606.1486,-539.4873 635,-464 650.1871,-424.2643 650.5308,-412.7036 655,-370.4 660.3417,-319.8369 672.6185,-303.6943 655,-256 645.6695,-230.7417 625.7381,-207.7755 608.4919,-191.3651"/>
<polygon fill="#00ff00" stroke="#00ff00" points="610.5363,-188.4905 600.8046,-184.3019 605.8001,-193.645 610.5363,-188.4905"/>
</g>
<!-- n7&#45;&gt;n30 -->
<g id="edge24" class="edge">
<title>n7&#45;&gt;n30</title>
<path fill="none" stroke="#ff0000" d="M489.7616,-659.7028C475.2657,-638.8018 455.0746,-609.689 440.5086,-588.6868"/>
<polygon fill="#ff0000" stroke="#ff0000" points="443.2184,-586.4525 434.6434,-580.23 437.4664,-590.4418 443.2184,-586.4525"/>
</g>
<!-- n8 -->
<g id="node9" class="node">
<title>n8</title>
<path fill="#ffffff" stroke="#f5f5dc" stroke-width="2" d="M385.5,-998C385.5,-998 206.5,-998 206.5,-998 200.5,-998 194.5,-992 194.5,-986 194.5,-986 194.5,-946 194.5,-946 194.5,-940 200.5,-934 206.5,-934 206.5,-934 385.5,-934 385.5,-934 391.5,-934 397.5,-940 397.5,-946 397.5,-946 397.5,-986 397.5,-986 397.5,-992 391.5,-998 385.5,-998"/>
<text text-anchor="start" x="204.557" y="-984" font-family="arial" font-weight="bold" font-size="10.00" fill="#000000">Main Culm as Post&#45;Primary and Pre&#45;NRS</text>
<text text-anchor="start" x="216.487" y="-967" font-family="arial" font-size="10.00" fill="#000000">The main Culm strata are older than</text>
<text text-anchor="start" x="212.3165" y="-955" font-family="arial" font-size="10.00" fill="#000000"> Primary strata and younger than New</text>
<text text-anchor="start" x="210.6415" y="-943" font-family="arial" font-size="10.00" fill="#000000"> Red Sandstone strata #pri #chron&#45;hyp</text>
</g>
<!-- n8&#45;&gt;n28 -->
<g id="edge71" class="edge">
<title>n8&#45;&gt;n28</title>
<path fill="none" stroke="#00ff00" d="M295.5611,-933.9597C295.2891,-914.1045 294.9352,-888.2721 294.6332,-866.2232"/>
<polygon fill="#00ff00" stroke="#00ff00" points="298.1309,-866.0219 294.4941,-856.0709 291.1315,-866.1179 298.1309,-866.0219"/>
</g>
<!-- n9 -->
<g id="node10" class="node">
<title>n9</title>
<path fill="#ffffff" stroke="#ff8c00" stroke-width="2" d="M614,-464C614,-464 436,-464 436,-464 430,-464 424,-458 424,-452 424,-452 424,-424 424,-424 424,-418 430,-412 436,-412 436,-412 614,-412 614,-412 620,-412 626,-418 626,-424 626,-424 626,-452 626,-452 626,-458 620,-464 614,-464"/>
<text text-anchor="start" x="485.282" y="-450" font-family="arial" font-weight="bold" font-size="10.00" fill="#000000">Main Culm as CM</text>
<text text-anchor="start" x="433.599" y="-433" font-family="arial" font-size="10.00" fill="#000000">The whole of the main Culm is CM in age</text>
<text text-anchor="start" x="482.2125" y="-421" font-family="arial" font-size="10.00" fill="#000000"> #COA #chron&#45;hyp </text>
</g>
<!-- n9&#45;&gt;n0 -->
<g id="edge20" class="edge">
<title>n9&#45;&gt;n0</title>
<path fill="none" stroke="#ff0000" d="M636.4698,-432.0764C721.6731,-424.659 840.7907,-407.9639 939,-370.4 955.4396,-364.1121 972.0314,-355.0942 987.0818,-345.6604"/>
<polygon fill="#ff0000" stroke="#ff0000" points="635.9225,-428.61 626.251,-432.9357 636.5091,-435.5854 635.9225,-428.61"/>
<polygon fill="#ff0000" stroke="#ff0000" points="989.2407,-348.4331 995.7523,-340.0754 985.45,-342.5482 989.2407,-348.4331"/>
</g>
<!-- n9&#45;&gt;n3 -->
<g id="edge15" class="edge">
<title>n9&#45;&gt;n3</title>
<path fill="none" stroke="#00ff00" d="M539.5815,-464.3022C561.1361,-504.8441 600.5135,-585.7082 615,-660 633.9519,-757.1916 599.8496,-872.7073 579.1541,-930.0278"/>
<polygon fill="#00ff00" stroke="#00ff00" points="575.7611,-929.1133 575.5858,-939.7067 582.3289,-931.5347 575.7611,-929.1133"/>
</g>
<!-- n9&#45;&gt;n4 -->
<g id="edge16" class="edge">
<title>n9&#45;&gt;n4</title>
<path fill="none" stroke="#ff0000" d="M413.6414,-421.8329C356.4561,-411.2822 286.4874,-394.831 227,-370.4 203.9867,-360.9486 180.3212,-346.8924 160.8649,-333.9762"/>
<polygon fill="#ff0000" stroke="#ff0000" points="413.3353,-425.3342 423.7986,-423.67 414.5812,-418.446 413.3353,-425.3342"/>
<polygon fill="#ff0000" stroke="#ff0000" points="162.7646,-331.0358 152.5196,-328.3356 158.8447,-336.8353 162.7646,-331.0358"/>
</g>
<!-- n9&#45;&gt;n5 -->
<g id="edge17" class="edge">
<title>n9&#45;&gt;n5</title>
<path fill="none" stroke="#ff0000" d="M531.1505,-401.632C534.4711,-381.9972 538.5573,-357.8349 541.8741,-338.2225"/>
<polygon fill="#ff0000" stroke="#ff0000" points="527.6512,-401.3342 529.4346,-411.7778 534.5532,-402.5015 527.6512,-401.3342"/>
<polygon fill="#ff0000" stroke="#ff0000" points="545.3624,-338.5853 543.579,-328.1417 538.4604,-337.418 545.3624,-338.5853"/>
</g>
<!-- n9&#45;&gt;n6 -->
<g id="edge18" class="edge">
<title>n9&#45;&gt;n6</title>
<path fill="none" stroke="#ff0000" d="M479.9681,-405.9354C449.5226,-384.2569 409.4753,-355.7415 379.0302,-334.0634"/>
<polygon fill="#ff0000" stroke="#ff0000" points="477.9972,-408.8286 488.1733,-411.7778 482.0574,-403.1264 477.9972,-408.8286"/>
<polygon fill="#ff0000" stroke="#ff0000" points="380.8898,-331.0909 370.7137,-328.1417 376.8295,-336.7931 380.8898,-331.0909"/>
</g>
<!-- n9&#45;&gt;n7 -->
<g id="edge19" class="edge">
<title>n9&#45;&gt;n7</title>
<path fill="none" stroke="#ff0000" d="M528.6366,-474.2419C531.0528,-504.6879 533.0999,-549.2999 529,-588 526.8037,-608.7315 522.0634,-631.5236 517.6414,-649.9064"/>
<polygon fill="#ff0000" stroke="#ff0000" points="532.1088,-473.7648 527.7761,-464.0965 525.1339,-474.3565 532.1088,-473.7648"/>
<polygon fill="#ff0000" stroke="#ff0000" points="514.2413,-649.0763 515.2356,-659.6243 521.0362,-650.7584 514.2413,-649.0763"/>
</g>
<!-- n28&#45;&gt;n7 -->
<g id="edge61" class="edge">
<title>n28&#45;&gt;n7</title>
<path fill="none" stroke="#00ff00" d="M351.6296,-783.9142C384.6715,-763.2244 425.7583,-737.4971 457.523,-717.6071"/>
<polygon fill="#00ff00" stroke="#00ff00" points="459.6026,-720.4345 466.2207,-712.1609 455.8876,-714.5016 459.6026,-720.4345"/>
</g>
<!-- n29&#45;&gt;n1 -->
<g id="edge62" class="edge">
<title>n29&#45;&gt;n1</title>
<path fill="none" stroke="#00ff00" d="M608.3257,-184.0918C631.9733,-199.9289 663.484,-225.1963 680,-256 718.5816,-327.9578 705,-356.3516 705,-438 705,-820 705,-820 705,-820 705,-902.0864 726.8924,-931.1828 689,-1004 673.56,-1033.6707 645.6664,-1058.2355 620.2399,-1076.0271"/>
<polygon fill="#00ff00" stroke="#00ff00" points="618.0432,-1073.2879 611.7331,-1081.7987 621.9734,-1079.0805 618.0432,-1073.2879"/>
</g>
<!-- n30&#45;&gt;n9 -->
<g id="edge63" class="edge">
<title>n30&#45;&gt;n9</title>
<path fill="none" stroke="#00ff00" d="M436.9771,-543.9693C452.549,-525.2226 477.2993,-495.426 496.5947,-472.1967"/>
<polygon fill="#00ff00" stroke="#00ff00" points="499.4708,-474.2118 503.1682,-464.283 494.0862,-469.739 499.4708,-474.2118"/>
</g>
<!-- n10 -->
<g id="node14" class="node">
<title>n10</title>
<path fill="#ffffff" stroke="#f5f5dc" stroke-width="2" d="M1352,-1134C1352,-1134 1180,-1134 1180,-1134 1174,-1134 1168,-1128 1168,-1122 1168,-1122 1168,-1094 1168,-1094 1168,-1088 1174,-1082 1180,-1082 1180,-1082 1352,-1082 1352,-1082 1358,-1082 1364,-1088 1364,-1094 1364,-1094 1364,-1122 1364,-1122 1364,-1128 1358,-1134 1352,-1134"/>
<text text-anchor="start" x="1225.9965" y="-1120" font-family="arial" font-weight="bold" font-size="10.00" fill="#000000">Some BCL as CM</text>
<text text-anchor="start" x="1178.482" y="-1103" font-family="arial" font-size="10.00" fill="#000000">Some part of the black Culm Limestone</text>
<text text-anchor="start" x="1200.713" y="-1091" font-family="arial" font-size="10.00" fill="#000000"> is CM in age #pri #chron&#45;hyp</text>
</g>
<!-- n31 -->
<g id="node22" class="node">
<title>n31</title>
<path fill="#f5f5dc" stroke="#000000" d="M1508,-1004C1508,-1004 1336,-1004 1336,-1004 1330,-1004 1324,-998 1324,-992 1324,-992 1324,-940 1324,-940 1324,-934 1330,-928 1336,-928 1336,-928 1508,-928 1508,-928 1514,-928 1520,-934 1520,-940 1520,-940 1520,-992 1520,-992 1520,-998 1514,-1004 1508,-1004"/>
<text text-anchor="start" x="1337.252" y="-990" font-family="arial" font-weight="bold" font-size="10.00" fill="#000000">Standard Sequence as Partition &#45; BCL</text>
<text text-anchor="start" x="1355.5985" y="-973" font-family="arial" font-size="10.00" fill="#000000">If some part of the black Culm</text>
<text text-anchor="start" x="1337.547" y="-961" font-family="arial" font-size="10.00" fill="#000000"> Limestone is neiter CM, ML, ORS nor</text>
<text text-anchor="start" x="1339.479" y="-949" font-family="arial" font-size="10.00" fill="#000000"> SIL in age, then it is CAM in age #pri</text>
<text text-anchor="start" x="1395.6045" y="-937" font-family="arial" font-size="10.00" fill="#000000"> #chron&#45;hyp</text>
</g>
<!-- n10&#45;&gt;n31 -->
<g id="edge25" class="edge">
<title>n10&#45;&gt;n31</title>
<path fill="none" stroke="#ff0000" d="M1294.6128,-1081.955C1316.3886,-1062.1335 1346.8884,-1034.3708 1372.5848,-1010.9805"/>
<polygon fill="#ff0000" stroke="#ff0000" points="1375.0019,-1013.5132 1380.041,-1004.1935 1370.2898,-1008.3366 1375.0019,-1013.5132"/>
</g>
<!-- n32 -->
<g id="node23" class="node">
<title>n32</title>
<path fill="#b8860b" stroke="#000000" d="M1439,-704C1439,-704 1267,-704 1267,-704 1261,-704 1255,-698 1255,-692 1255,-692 1255,-680 1255,-680 1255,-674 1261,-668 1267,-668 1267,-668 1439,-668 1439,-668 1445,-668 1451,-674 1451,-680 1451,-680 1451,-692 1451,-692 1451,-698 1445,-704 1439,-704"/>
<text text-anchor="start" x="1299.656" y="-684" font-family="arial" font-weight="bold" font-size="10.00" fill="#000000">Dating the BCL &#45; GRE.1</text>
</g>
<!-- n10&#45;&gt;n32 -->
<g id="edge34" class="edge">
<title>n10&#45;&gt;n32</title>
<path fill="none" stroke="#ff0000" d="M1261.2932,-1081.7598C1252.3041,-1025.2439 1236.7941,-888.6627 1275,-784 1285.2434,-755.9388 1306.9542,-729.7738 1324.8754,-711.5505"/>
<polygon fill="#ff0000" stroke="#ff0000" points="1327.6198,-713.7595 1332.2794,-704.2443 1322.7031,-708.7769 1327.6198,-713.7595"/>
</g>
<!-- n33 -->
<g id="node24" class="node">
<title>n33</title>
<path fill="#ff8c00" stroke="#000000" d="M1546,-320C1546,-320 1374,-320 1374,-320 1368,-320 1362,-314 1362,-308 1362,-308 1362,-296 1362,-296 1362,-290 1368,-284 1374,-284 1374,-284 1546,-284 1546,-284 1552,-284 1558,-290 1558,-296 1558,-296 1558,-308 1558,-308 1558,-314 1552,-320 1546,-320"/>
<text text-anchor="start" x="1401.097" y="-300" font-family="arial" font-weight="bold" font-size="10.00" fill="#000000">Redating the BCL &#45; COA.1</text>
</g>
<!-- n10&#45;&gt;n33 -->
<g id="edge72" class="edge">
<title>n10&#45;&gt;n33</title>
<path fill="none" stroke="#00ff00" d="M1342.0214,-1081.8961C1414.9412,-1056.232 1515.8786,-1018.8192 1529,-1004 1585.026,-940.7244 1577,-904.5146 1577,-820 1577,-820 1577,-820 1577,-562 1577,-488.9852 1563.4998,-469.8705 1532,-404 1518.7446,-376.2811 1498.0936,-347.986 1482.3011,-328.2512"/>
<polygon fill="#00ff00" stroke="#00ff00" points="1484.8929,-325.891 1475.8661,-320.3442 1479.4637,-330.3095 1484.8929,-325.891"/>
</g>
<!-- n11 -->
<g id="node15" class="node">
<title>n11</title>
<path fill="#ffffff" stroke="#f5f5dc" stroke-width="2" d="M1352,-68C1352,-68 1180,-68 1180,-68 1174,-68 1168,-62 1168,-56 1168,-56 1168,-28 1168,-28 1168,-22 1174,-16 1180,-16 1180,-16 1352,-16 1352,-16 1358,-16 1364,-22 1364,-28 1364,-28 1364,-56 1364,-56 1364,-62 1358,-68 1352,-68"/>
<text text-anchor="start" x="1226.8265" y="-54" font-family="arial" font-weight="bold" font-size="10.00" fill="#000000">Some BCL as ML</text>
<text text-anchor="start" x="1178.482" y="-37" font-family="arial" font-size="10.00" fill="#000000">Some part of the black Culm Limestone</text>
<text text-anchor="start" x="1201.543" y="-25" font-family="arial" font-size="10.00" fill="#000000"> is ML in age #pri #chron&#45;hyp</text>
</g>
<!-- n11&#45;&gt;n31 -->
<g id="edge26" class="edge">
<title>n11&#45;&gt;n31</title>
<path fill="none" stroke="#ff0000" d="M1248.4002,-68.0991C1236.0467,-87.3246 1219.8579,-114.4599 1209,-140 1179.9845,-208.2506 1169,-227.8377 1169,-302 1169,-562 1169,-562 1169,-562 1169,-700.9001 1192.3606,-744.3579 1275,-856 1294.0828,-881.7799 1320.8756,-904.2885 1346.3691,-922.1145"/>
<polygon fill="#ff0000" stroke="#ff0000" points="1344.7205,-925.227 1354.9519,-927.9783 1348.6693,-919.4471 1344.7205,-925.227"/>
</g>
<!-- n11&#45;&gt;n32 -->
<g id="edge35" class="edge">
<title>n11&#45;&gt;n32</title>
<path fill="none" stroke="#ff0000" d="M1254.5843,-68.0314C1220.5059,-149.9158 1127.3883,-407.503 1219,-588 1236.2003,-621.8887 1271.2323,-646.8666 1301.1633,-663.1224"/>
<polygon fill="#ff0000" stroke="#ff0000" points="1299.7806,-666.3491 1310.2631,-667.8875 1303.0279,-660.1479 1299.7806,-666.3491"/>
</g>
<!-- n11&#45;&gt;n33 -->
<g id="edge43" class="edge">
<title>n11&#45;&gt;n33</title>
<path fill="none" stroke="#ff0000" d="M1363.8213,-68.0276C1425.8676,-86.7378 1497.7759,-113.2819 1516,-140 1545.0615,-182.6068 1509.1071,-241.7735 1482.8487,-275.55"/>
<polygon fill="#ff0000" stroke="#ff0000" points="1479.9486,-273.5721 1476.4272,-283.5646 1485.4114,-277.949 1479.9486,-273.5721"/>
</g>
<!-- n12 -->
<g id="node16" class="node">
<title>n12</title>
<path fill="#ffffff" stroke="#f5f5dc" stroke-width="2" d="M1566,-68C1566,-68 1394,-68 1394,-68 1388,-68 1382,-62 1382,-56 1382,-56 1382,-28 1382,-28 1382,-22 1388,-16 1394,-16 1394,-16 1566,-16 1566,-16 1572,-16 1578,-22 1578,-28 1578,-28 1578,-56 1578,-56 1578,-62 1572,-68 1566,-68"/>
<text text-anchor="start" x="1436.937" y="-54" font-family="arial" font-weight="bold" font-size="10.00" fill="#000000">Some BCL as ORS</text>
<text text-anchor="start" x="1392.482" y="-37" font-family="arial" font-size="10.00" fill="#000000">Some part of the black Culm Limestone</text>
<text text-anchor="start" x="1411.6535" y="-25" font-family="arial" font-size="10.00" fill="#000000"> is ORS in age #pri #chron&#45;hyp</text>
</g>
<!-- n12&#45;&gt;n31 -->
<g id="edge27" class="edge">
<title>n12&#45;&gt;n31</title>
<path fill="none" stroke="#ff0000" d="M1497.3874,-68.0908C1509.5708,-87.3123 1525.4917,-114.4462 1536,-140 1607.4194,-313.6763 1557,-374.2124 1557,-562 1557,-686 1557,-686 1557,-686 1557,-775.389 1500.4832,-866.3239 1460.5853,-919.3822"/>
<polygon fill="#ff0000" stroke="#ff0000" points="1457.6231,-917.4945 1454.3359,-927.5665 1463.1866,-921.7428 1457.6231,-917.4945"/>
</g>
<!-- n12&#45;&gt;n32 -->
<g id="edge36" class="edge">
<title>n12&#45;&gt;n32</title>
<path fill="none" stroke="#ff0000" d="M1386.29,-68.0159C1350.6499,-82.9754 1313.6792,-105.816 1293,-140 1274.3665,-170.8025 1274.0737,-433.3766 1293,-464 1330.6183,-524.8676 1399.3817,-475.1324 1437,-536 1463.6568,-579.1317 1417.9445,-631.0734 1384.1724,-661.139"/>
<polygon fill="#ff0000" stroke="#ff0000" points="1381.5942,-658.7415 1376.3236,-667.9324 1386.1753,-664.0343 1381.5942,-658.7415"/>
</g>
<!-- n12&#45;&gt;n33 -->
<g id="edge44" class="edge">
<title>n12&#45;&gt;n33</title>
<path fill="none" stroke="#ff0000" d="M1498.7465,-68.0918C1517.7846,-97.8656 1542.7785,-148.1179 1530,-192 1520.7812,-223.6577 1499.3901,-254.9027 1482.6635,-275.9551"/>
<polygon fill="#ff0000" stroke="#ff0000" points="1479.8931,-273.8143 1476.2884,-283.7771 1485.3192,-278.2367 1479.8931,-273.8143"/>
</g>
<!-- n13 -->
<g id="node17" class="node">
<title>n13</title>
<path fill="#ffffff" stroke="#f5f5dc" stroke-width="2" d="M1486,-464C1486,-464 1314,-464 1314,-464 1308,-464 1302,-458 1302,-452 1302,-452 1302,-424 1302,-424 1302,-418 1308,-412 1314,-412 1314,-412 1486,-412 1486,-412 1492,-412 1498,-418 1498,-424 1498,-424 1498,-452 1498,-452 1498,-458 1492,-464 1486,-464"/>
<text text-anchor="start" x="1360.267" y="-450" font-family="arial" font-weight="bold" font-size="10.00" fill="#000000">Some BCL as SIL</text>
<text text-anchor="start" x="1312.482" y="-433" font-family="arial" font-size="10.00" fill="#000000">Some part of the black Culm Limestone</text>
<text text-anchor="start" x="1334.9835" y="-421" font-family="arial" font-size="10.00" fill="#000000"> is SIL in age #pri #chron&#45;hyp</text>
</g>
<!-- n13&#45;&gt;n31 -->
<g id="edge28" class="edge">
<title>n13&#45;&gt;n31</title>
<path fill="none" stroke="#ff0000" d="M1420.0825,-464.3411C1433.4021,-483.2468 1450.0249,-509.8953 1459,-536 1489.8354,-625.687 1510.5239,-779.2855 1489,-856 1482.714,-878.4041 1470.4676,-900.77 1458.1451,-919.4269"/>
<polygon fill="#ff0000" stroke="#ff0000" points="1455.2309,-917.4881 1452.4992,-927.7247 1461.0184,-921.4259 1455.2309,-917.4881"/>
</g>
<!-- n13&#45;&gt;n32 -->
<g id="edge37" class="edge">
<title>n13&#45;&gt;n32</title>
<path fill="none" stroke="#ff0000" d="M1420.7199,-464.1091C1442.0286,-494.3254 1469.7754,-545.3927 1452,-588 1439.3115,-618.4143 1412.0811,-644.2166 1389.3849,-661.6995"/>
<polygon fill="#ff0000" stroke="#ff0000" points="1387.1867,-658.9727 1381.2636,-667.7573 1391.372,-664.5837 1387.1867,-658.9727"/>
</g>
<!-- n13&#45;&gt;n33 -->
<g id="edge45" class="edge">
<title>n13&#45;&gt;n33</title>
<path fill="none" stroke="#ff0000" d="M1411.5686,-411.7778C1421.9841,-388.1693 1437.239,-353.5915 1447.8345,-329.5752"/>
<polygon fill="#ff0000" stroke="#ff0000" points="1451.0895,-330.8682 1451.9237,-320.3062 1444.685,-328.0427 1451.0895,-330.8682"/>
</g>
<!-- n14 -->
<g id="node18" class="node">
<title>n14</title>
<path fill="#ffffff" stroke="#f5f5dc" stroke-width="2" d="M1468,-846C1468,-846 1296,-846 1296,-846 1290,-846 1284,-840 1284,-834 1284,-834 1284,-806 1284,-806 1284,-800 1290,-794 1296,-794 1296,-794 1468,-794 1468,-794 1474,-794 1480,-800 1480,-806 1480,-806 1480,-834 1480,-834 1480,-840 1474,-846 1468,-846"/>
<text text-anchor="start" x="1338.662" y="-832" font-family="arial" font-weight="bold" font-size="10.00" fill="#000000">Some BCL as CAM</text>
<text text-anchor="start" x="1294.482" y="-815" font-family="arial" font-size="10.00" fill="#000000">Some part of the black Culm Limestone</text>
<text text-anchor="start" x="1313.3785" y="-803" font-family="arial" font-size="10.00" fill="#000000"> is CAM in age #pri #chron&#45;hyp</text>
</g>
<!-- n14&#45;&gt;n32 -->
<g id="edge73" class="edge">
<title>n14&#45;&gt;n32</title>
<path fill="none" stroke="#00ff00" d="M1376.3397,-793.8453C1371.3939,-770.9923 1364.2293,-737.887 1359.145,-714.3941"/>
<polygon fill="#00ff00" stroke="#00ff00" points="1362.5069,-713.3813 1356.9708,-704.3479 1355.6653,-714.862 1362.5069,-713.3813"/>
</g>
<!-- n14&#45;&gt;n33 -->
<g id="edge46" class="edge">
<title>n14&#45;&gt;n33</title>
<path fill="none" stroke="#ff0000" d="M1436.4946,-793.919C1467.7395,-775.7331 1504.1928,-748.227 1522,-712 1552.1931,-650.5751 1540.4596,-469.9082 1522,-404 1514.1129,-375.8398 1496.0815,-347.7314 1481.4864,-328.1746"/>
<polygon fill="#ff0000" stroke="#ff0000" points="1484.141,-325.8848 1475.2767,-320.0818 1478.5875,-330.1461 1484.141,-325.8848"/>
</g>
<!-- n15 -->
<g id="node19" class="node">
<title>n15</title>
<path fill="#ffffff" stroke="#f5f5dc" stroke-width="2" d="M1566,-1140C1566,-1140 1394,-1140 1394,-1140 1388,-1140 1382,-1134 1382,-1128 1382,-1128 1382,-1088 1382,-1088 1382,-1082 1388,-1076 1394,-1076 1394,-1076 1566,-1076 1566,-1076 1572,-1076 1578,-1082 1578,-1088 1578,-1088 1578,-1128 1578,-1128 1578,-1134 1572,-1140 1566,-1140"/>
<text text-anchor="start" x="1402.219" y="-1126" font-family="arial" font-weight="bold" font-size="10.00" fill="#000000">BCL as Post&#45;Primary and Pre&#45;NRS</text>
<text text-anchor="start" x="1392.207" y="-1109" font-family="arial" font-size="10.00" fill="#000000">The black Culm Limestone is older than</text>
<text text-anchor="start" x="1395.8165" y="-1097" font-family="arial" font-size="10.00" fill="#000000"> Primary strata and younger than New</text>
<text text-anchor="start" x="1394.1415" y="-1085" font-family="arial" font-size="10.00" fill="#000000"> Red Sandstone strata #pri #chron&#45;hyp</text>
</g>
<!-- n15&#45;&gt;n31 -->
<g id="edge74" class="edge">
<title>n15&#45;&gt;n31</title>
<path fill="none" stroke="#00ff00" d="M1466.8389,-1075.778C1459.3371,-1057.4114 1449.7954,-1034.0508 1441.4441,-1013.6045"/>
<polygon fill="#00ff00" stroke="#00ff00" points="1444.6001,-1012.075 1437.5787,-1004.1409 1438.1199,-1014.7219 1444.6001,-1012.075"/>
</g>
<!-- n16 -->
<g id="node20" class="node">
<title>n16</title>
<path fill="#ffffff" stroke="#b8860b" stroke-width="2" d="M1416,-588C1416,-588 1240,-588 1240,-588 1234,-588 1228,-582 1228,-576 1228,-576 1228,-548 1228,-548 1228,-542 1234,-536 1240,-536 1240,-536 1416,-536 1416,-536 1422,-536 1428,-542 1428,-548 1428,-548 1428,-576 1428,-576 1428,-582 1422,-588 1416,-588"/>
<text text-anchor="start" x="1299.1095" y="-574" font-family="arial" font-weight="bold" font-size="10.00" fill="#000000">BCL as CAM</text>
<text text-anchor="start" x="1237.7025" y="-557" font-family="arial" font-size="10.00" fill="#000000">The black Culm Limestone is nothing but</text>
<text text-anchor="start" x="1247.1505" y="-545" font-family="arial" font-size="10.00" fill="#000000"> Cambrian in age #GRE #chron&#45;hyp </text>
</g>
<!-- n16&#45;&gt;n10 -->
<g id="edge29" class="edge">
<title>n16&#45;&gt;n10</title>
<path fill="none" stroke="#ff0000" d="M1290.0491,-595.2256C1273.0946,-612.6033 1254.9456,-635.369 1246,-660 1193.2855,-805.1457 1234.2615,-994.3083 1255.3922,-1072.1511"/>
<polygon fill="#ff0000" stroke="#ff0000" points="1292.5786,-597.6463 1297.2118,-588.1182 1287.6481,-592.6774 1292.5786,-597.6463"/>
<polygon fill="#ff0000" stroke="#ff0000" points="1252.064,-1073.2471 1258.1081,-1081.9488 1258.8096,-1071.3772 1252.064,-1073.2471"/>
</g>
<!-- n16&#45;&gt;n11 -->
<g id="edge30" class="edge">
<title>n16&#45;&gt;n11</title>
<path fill="none" stroke="#ff0000" d="M1295.7667,-528.111C1281.2012,-510.4609 1265.5807,-487.6552 1258,-464 1214.1094,-327.041 1242.2207,-152.0408 1257.7283,-77.8329"/>
<polygon fill="#ff0000" stroke="#ff0000" points="1293.2032,-530.499 1302.352,-535.8422 1298.5321,-525.9599 1293.2032,-530.499"/>
<polygon fill="#ff0000" stroke="#ff0000" points="1261.1527,-78.5564 1259.8241,-68.0452 1254.3078,-77.0907 1261.1527,-78.5564"/>
</g>
<!-- n16&#45;&gt;n12 -->
<g id="edge31" class="edge">
<title>n16&#45;&gt;n12</title>
<path fill="none" stroke="#ff0000" d="M1304.9892,-526.9276C1294.5306,-508.9133 1283.3218,-486.1406 1278,-464 1261.1731,-393.9939 1239.782,-201.0196 1278,-140 1299.2245,-106.1125 1335.8747,-83.6474 1372.1799,-68.8918"/>
<polygon fill="#ff0000" stroke="#ff0000" points="1302.2137,-529.1052 1310.3548,-535.8856 1308.2189,-525.5083 1302.2137,-529.1052"/>
<polygon fill="#ff0000" stroke="#ff0000" points="1373.8395,-72.0019 1381.8932,-65.1181 1371.3045,-65.477 1373.8395,-72.0019"/>
</g>
<!-- n16&#45;&gt;n13 -->
<g id="edge32" class="edge">
<title>n16&#45;&gt;n13</title>
<path fill="none" stroke="#ff0000" d="M1348.3708,-526.9169C1358.1256,-510.117 1369.7802,-490.0452 1379.5458,-473.2268"/>
<polygon fill="#ff0000" stroke="#ff0000" points="1345.264,-525.2974 1343.2693,-535.7028 1351.3175,-528.8124 1345.264,-525.2974"/>
<polygon fill="#ff0000" stroke="#ff0000" points="1382.758,-474.6647 1384.7527,-464.2593 1376.7045,-471.1497 1382.758,-474.6647"/>
</g>
<!-- n16&#45;&gt;n14 -->
<g id="edge33" class="edge">
<title>n16&#45;&gt;n14</title>
<path fill="none" stroke="#00ff00" d="M1384.407,-588.0781C1412.6285,-604.4023 1444.0952,-628.383 1460,-660 1481.8563,-703.448 1447.359,-753.9464 1417.5372,-786.4052"/>
<polygon fill="#00ff00" stroke="#00ff00" points="1414.821,-784.1834 1410.4865,-793.851 1419.9037,-788.9964 1414.821,-784.1834"/>
</g>
<!-- n17 -->
<g id="node21" class="node">
<title>n17</title>
<path fill="#ffffff" stroke="#ff8c00" stroke-width="2" d="M1494.5,-192C1494.5,-192 1313.5,-192 1313.5,-192 1307.5,-192 1301.5,-186 1301.5,-180 1301.5,-180 1301.5,-152 1301.5,-152 1301.5,-146 1307.5,-140 1313.5,-140 1313.5,-140 1494.5,-140 1494.5,-140 1500.5,-140 1506.5,-146 1506.5,-152 1506.5,-152 1506.5,-180 1506.5,-180 1506.5,-186 1500.5,-192 1494.5,-192"/>
<text text-anchor="start" x="1378.944" y="-178" font-family="arial" font-weight="bold" font-size="10.00" fill="#000000">BCL as CM</text>
<text text-anchor="start" x="1314.2025" y="-161" font-family="arial" font-size="10.00" fill="#000000">The black Culm Limestone is nothing but</text>
<text text-anchor="start" x="1311.702" y="-149" font-family="arial" font-size="10.00" fill="#000000"> Coal Mesaures in age #COA #chron&#45;hyp </text>
</g>
<!-- n17&#45;&gt;n10 -->
<g id="edge38" class="edge">
<title>n17&#45;&gt;n10</title>
<path fill="none" stroke="#00ff00" d="M1374.7187,-192.0263C1357.2077,-208.8598 1335.5967,-232.0392 1321,-256 1216.994,-426.7278 1189,-486.0869 1189,-686 1189,-820 1189,-820 1189,-820 1189,-903.0826 1198.3338,-924.3594 1222,-1004 1228.9588,-1027.4176 1239.5681,-1052.6787 1248.6253,-1072.4403"/>
<polygon fill="#00ff00" stroke="#00ff00" points="1245.5285,-1074.081 1252.9241,-1081.6675 1251.8736,-1071.1249 1245.5285,-1074.081"/>
</g>
<!-- n17&#45;&gt;n11 -->
<g id="edge39" class="edge">
<title>n17&#45;&gt;n11</title>
<path fill="none" stroke="#ff0000" d="M1367.0364,-132.7864C1347.162,-114.9282 1322.7299,-92.9747 1302.8699,-75.1295"/>
<polygon fill="#ff0000" stroke="#ff0000" points="1364.9561,-135.6225 1374.7337,-139.7028 1369.6347,-130.4157 1364.9561,-135.6225"/>
<polygon fill="#ff0000" stroke="#ff0000" points="1305.0017,-72.3396 1295.2241,-68.2593 1300.3231,-77.5464 1305.0017,-72.3396"/>
</g>
<!-- n17&#45;&gt;n12 -->
<g id="edge40" class="edge">
<title>n17&#45;&gt;n12</title>
<path fill="none" stroke="#ff0000" d="M1425.5025,-130.9169C1435.7992,-114.117 1448.1013,-94.0452 1458.4094,-77.2268"/>
<polygon fill="#ff0000" stroke="#ff0000" points="1422.3592,-129.3478 1420.1176,-139.7028 1428.3274,-133.0057 1422.3592,-129.3478"/>
<polygon fill="#ff0000" stroke="#ff0000" points="1461.664,-78.6143 1463.9056,-68.2593 1455.6958,-74.9563 1461.664,-78.6143"/>
</g>
<!-- n17&#45;&gt;n13 -->
<g id="edge41" class="edge">
<title>n17&#45;&gt;n13</title>
<path fill="none" stroke="#ff0000" d="M1371.0982,-200.0048C1358.1215,-215.7287 1344.7249,-235.4578 1338,-256 1322.1811,-304.321 1319.5614,-323.0167 1338,-370.4 1342.8781,-382.9357 1351.2871,-394.5587 1360.3658,-404.5064"/>
<polygon fill="#ff0000" stroke="#ff0000" points="1373.9654,-202.0375 1377.8084,-192.1642 1368.6471,-197.4859 1373.9654,-202.0375"/>
<polygon fill="#ff0000" stroke="#ff0000" points="1357.9248,-407.017 1367.3915,-411.7743 1362.9577,-402.1518 1357.9248,-407.017"/>
</g>
<!-- n17&#45;&gt;n14 -->
<g id="edge42" class="edge">
<title>n17&#45;&gt;n14</title>
<path fill="none" stroke="#ff0000" d="M1378.6701,-200.8379C1368.5711,-216.8156 1358.1378,-236.5122 1353,-256 1346.5191,-280.5823 1337.0544,-350.6003 1353,-370.4 1396.9403,-424.961 1463.0597,-349.439 1507,-404 1523.7261,-424.7689 1509.0776,-437.4144 1507,-464 1498.3069,-575.2376 1512.908,-609.8596 1468,-712 1455.8215,-739.6992 1434.7407,-766.3431 1416.4993,-786.2366"/>
<polygon fill="#ff0000" stroke="#ff0000" points="1381.6648,-202.6535 1384.2105,-192.369 1375.8069,-198.8212 1381.6648,-202.6535"/>
<polygon fill="#ff0000" stroke="#ff0000" points="1413.7032,-784.1015 1409.4125,-793.7886 1418.8077,-788.8915 1413.7032,-784.1015"/>
</g>
<!-- n31&#45;&gt;n14 -->
<g id="edge64" class="edge">
<title>n31&#45;&gt;n14</title>
<path fill="none" stroke="#00ff00" d="M1411.4905,-927.6402C1405.4158,-905.4677 1397.8205,-877.7448 1391.8594,-855.9869"/>
<polygon fill="#00ff00" stroke="#00ff00" points="1395.1808,-854.8637 1389.1627,-846.144 1388.4296,-856.7134 1395.1808,-854.8637"/>
</g>
<!-- n32&#45;&gt;n16 -->
<g id="edge65" class="edge">
<title>n32&#45;&gt;n16</title>
<path fill="none" stroke="#00ff00" d="M1349.3648,-667.9693C1345.7007,-649.7956 1339.943,-621.2373 1335.3276,-598.3448"/>
<polygon fill="#00ff00" stroke="#00ff00" points="1338.7064,-597.394 1333.299,-588.283 1331.8445,-598.7775 1338.7064,-597.394"/>
</g>
<!-- n33&#45;&gt;n17 -->
<g id="edge66" class="edge">
<title>n33&#45;&gt;n17</title>
<path fill="none" stroke="#00ff00" d="M1452.5636,-283.9403C1443.9253,-262.9614 1429.4672,-227.8489 1418.5678,-201.3789"/>
<polygon fill="#00ff00" stroke="#00ff00" points="1421.7745,-199.9741 1414.7306,-192.06 1415.3018,-202.6394 1421.7745,-199.9741"/>
</g>
<!-- n18 -->
<g id="node25" class="node">
<title>n18</title>
<path fill="#ffffff" stroke="#f5f5dc" stroke-width="2" d="M2140,-1134C2140,-1134 1968,-1134 1968,-1134 1962,-1134 1956,-1128 1956,-1122 1956,-1122 1956,-1094 1956,-1094 1956,-1088 1962,-1082 1968,-1082 1968,-1082 2140,-1082 2140,-1082 2146,-1082 2152,-1088 2152,-1094 2152,-1094 2152,-1122 2152,-1122 2152,-1128 2146,-1134 2140,-1134"/>
<text text-anchor="start" x="2001.224" y="-1120" font-family="arial" font-weight="bold" font-size="10.00" fill="#000000">Some Non&#45;Culm as CM</text>
<text text-anchor="start" x="1965.933" y="-1103" font-family="arial" font-size="10.00" fill="#000000">Some part of the non&#45;Culm strata is CM</text>
<text text-anchor="start" x="2002.8755" y="-1091" font-family="arial" font-size="10.00" fill="#000000"> in age #pri #chron&#45;hyp</text>
</g>
<!-- n34 -->
<g id="node32" class="node">
<title>n34</title>
<path fill="#f5f5dc" stroke="#000000" d="M1900,-1002C1900,-1002 1728,-1002 1728,-1002 1722,-1002 1716,-996 1716,-990 1716,-990 1716,-942 1716,-942 1716,-936 1722,-930 1728,-930 1728,-930 1900,-930 1900,-930 1906,-930 1912,-936 1912,-942 1912,-942 1912,-990 1912,-990 1912,-996 1906,-1002 1900,-1002"/>
<text text-anchor="start" x="1740.365" y="-988" font-family="arial" font-weight="bold" font-size="10.00" fill="#000000">Standard Sequence as Partition &#45;</text>
<text text-anchor="start" x="1790.1145" y="-978" font-family="arial" font-weight="bold" font-size="10.00" fill="#000000"> Non&#45;Culm</text>
<text text-anchor="start" x="1731.7625" y="-963" font-family="arial" font-size="10.00" fill="#000000">If some part of the non&#45;Culm strata is</text>
<text text-anchor="start" x="1725.9245" y="-951" font-family="arial" font-size="10.00" fill="#000000"> neiter CM, ML, OR nor SIL in age, then</text>
<text text-anchor="start" x="1741.49" y="-939" font-family="arial" font-size="10.00" fill="#000000"> it is CAM in age #pri #chron&#45;hyp</text>
</g>
<!-- n18&#45;&gt;n34 -->
<g id="edge47" class="edge">
<title>n18&#45;&gt;n34</title>
<path fill="none" stroke="#ff0000" d="M2009.9803,-1081.955C1974.6797,-1061.0688 1924.477,-1031.3656 1883.7206,-1007.2513"/>
<polygon fill="#ff0000" stroke="#ff0000" points="1885.2999,-1004.1191 1874.9112,-1002.0391 1881.7354,-1010.1436 1885.2999,-1004.1191"/>
</g>
<!-- n35 -->
<g id="node33" class="node">
<title>n35</title>
<path fill="#b8860b" stroke="#000000" d="M2020,-704C2020,-704 1848,-704 1848,-704 1842,-704 1836,-698 1836,-692 1836,-692 1836,-680 1836,-680 1836,-674 1842,-668 1848,-668 1848,-668 2020,-668 2020,-668 2026,-668 2032,-674 2032,-680 2032,-680 2032,-692 2032,-692 2032,-698 2026,-704 2020,-704"/>
<text text-anchor="start" x="1869.273" y="-684" font-family="arial" font-weight="bold" font-size="10.00" fill="#000000">Dating the Non&#45;Culm&#45; GRE.1</text>
</g>
<!-- n18&#45;&gt;n35 -->
<g id="edge56" class="edge">
<title>n18&#45;&gt;n35</title>
<path fill="none" stroke="#ff0000" d="M2055.8117,-1081.7595C2060.0569,-1014.3125 2068.5291,-836.5193 2044,-784 2029.332,-752.5943 1999.3671,-726.9759 1974.4117,-709.8186"/>
<polygon fill="#ff0000" stroke="#ff0000" points="1976.0913,-706.7322 1965.8268,-704.1071 1972.2139,-712.5603 1976.0913,-706.7322"/>
</g>
<!-- n19 -->
<g id="node26" class="node">
<title>n19</title>
<path fill="#ffffff" stroke="#f5f5dc" stroke-width="2" d="M2000,-464C2000,-464 1828,-464 1828,-464 1822,-464 1816,-458 1816,-452 1816,-452 1816,-424 1816,-424 1816,-418 1822,-412 1828,-412 1828,-412 2000,-412 2000,-412 2006,-412 2012,-418 2012,-424 2012,-424 2012,-452 2012,-452 2012,-458 2006,-464 2000,-464"/>
<text text-anchor="start" x="1862.054" y="-450" font-family="arial" font-weight="bold" font-size="10.00" fill="#000000">Some Non&#45;Culm as ML</text>
<text text-anchor="start" x="1826.763" y="-433" font-family="arial" font-size="10.00" fill="#000000">Some part of the non&#45;Culm strata is ML</text>
<text text-anchor="start" x="1862.8755" y="-421" font-family="arial" font-size="10.00" fill="#000000"> in age #pri #chron&#45;hyp</text>
</g>
<!-- n19&#45;&gt;n34 -->
<g id="edge48" class="edge">
<title>n19&#45;&gt;n34</title>
<path fill="none" stroke="#ff0000" d="M1872.3884,-464.047C1849.0012,-481.2719 1821.9691,-506.1554 1809,-536 1752.716,-665.5218 1782.339,-838.4066 1801.6447,-919.8558"/>
<polygon fill="#ff0000" stroke="#ff0000" points="1798.297,-920.9023 1804.0576,-929.7942 1805.0994,-919.2507 1798.297,-920.9023"/>
</g>
<!-- n19&#45;&gt;n35 -->
<g id="edge57" class="edge">
<title>n19&#45;&gt;n35</title>
<path fill="none" stroke="#ff0000" d="M1916.1182,-464.2653C1919.9064,-511.2397 1927.8101,-609.2458 1931.7154,-657.671"/>
<polygon fill="#ff0000" stroke="#ff0000" points="1928.2367,-658.0777 1932.5294,-667.764 1935.2141,-657.515 1928.2367,-658.0777"/>
</g>
<!-- n20 -->
<g id="node27" class="node">
<title>n20</title>
<path fill="#ffffff" stroke="#f5f5dc" stroke-width="2" d="M2220,-464C2220,-464 2042,-464 2042,-464 2036,-464 2030,-458 2030,-452 2030,-452 2030,-424 2030,-424 2030,-418 2036,-412 2042,-412 2042,-412 2220,-412 2220,-412 2226,-412 2232,-418 2232,-424 2232,-424 2232,-452 2232,-452 2232,-458 2226,-464 2220,-464"/>
<text text-anchor="start" x="2075.1645" y="-450" font-family="arial" font-weight="bold" font-size="10.00" fill="#000000">Some Non&#45;Culm as ORS</text>
<text text-anchor="start" x="2039.8735" y="-433" font-family="arial" font-size="10.00" fill="#000000">Some part of the non&#45;Culm strata is ORS</text>
<text text-anchor="start" x="2079.8755" y="-421" font-family="arial" font-size="10.00" fill="#000000"> in age #pri #chron&#45;hyp</text>
</g>
<!-- n20&#45;&gt;n34 -->
<g id="edge49" class="edge">
<title>n20&#45;&gt;n34</title>
<path fill="none" stroke="#ff0000" d="M2057.6769,-464.0341C1980.6814,-496.1764 1865.5316,-559.2876 1827,-660 1793.7717,-746.8509 1799.8755,-857.8423 1807.0799,-919.4606"/>
<polygon fill="#ff0000" stroke="#ff0000" points="1803.638,-920.1475 1808.3339,-929.6448 1810.5855,-919.292 1803.638,-920.1475"/>
</g>
<!-- n20&#45;&gt;n35 -->
<g id="edge58" class="edge">
<title>n20&#45;&gt;n35</title>
<path fill="none" stroke="#ff0000" d="M2039.8669,-464.0974C2003.9682,-479.1638 1966.1053,-502.0624 1944,-536 1931.3916,-555.3572 1931.439,-619.6701 1932.6681,-657.5083"/>
<polygon fill="#ff0000" stroke="#ff0000" points="1929.1843,-658.0088 1933.0556,-667.871 1936.1794,-657.7472 1929.1843,-658.0088"/>
</g>
<!-- n21 -->
<g id="node28" class="node">
<title>n21</title>
<path fill="#ffffff" stroke="#f5f5dc" stroke-width="2" d="M1786,-464C1786,-464 1614,-464 1614,-464 1608,-464 1602,-458 1602,-452 1602,-452 1602,-424 1602,-424 1602,-418 1608,-412 1614,-412 1614,-412 1786,-412 1786,-412 1792,-412 1798,-418 1798,-424 1798,-424 1798,-452 1798,-452 1798,-458 1792,-464 1786,-464"/>
<text text-anchor="start" x="1647.4945" y="-450" font-family="arial" font-weight="bold" font-size="10.00" fill="#000000">Some Non&#45;Culm as SIL</text>
<text text-anchor="start" x="1612.2035" y="-433" font-family="arial" font-size="10.00" fill="#000000">Some part of the non&#45;Culm strata is SIL</text>
<text text-anchor="start" x="1648.8755" y="-421" font-family="arial" font-size="10.00" fill="#000000"> in age #pri #chron&#45;hyp</text>
</g>
<!-- n21&#45;&gt;n34 -->
<g id="edge50" class="edge">
<title>n21&#45;&gt;n34</title>
<path fill="none" stroke="#ff0000" d="M1703.194,-464.2489C1711.5964,-530.6253 1736.366,-710.2593 1775,-856 1780.6851,-877.4461 1788.6421,-900.671 1795.8873,-920.2293"/>
<polygon fill="#ff0000" stroke="#ff0000" points="1792.6905,-921.6722 1799.4842,-929.8021 1799.2432,-919.21 1792.6905,-921.6722"/>
</g>
<!-- n21&#45;&gt;n35 -->
<g id="edge59" class="edge">
<title>n21&#45;&gt;n35</title>
<path fill="none" stroke="#ff0000" d="M1724.7826,-464.2653C1769.9432,-512.1279 1865.0928,-612.9701 1909.8112,-660.364"/>
<polygon fill="#ff0000" stroke="#ff0000" points="1907.3849,-662.8925 1916.7934,-667.764 1912.4763,-658.0886 1907.3849,-662.8925"/>
</g>
<!-- n22 -->
<g id="node29" class="node">
<title>n22</title>
<path fill="#ffffff" stroke="#f5f5dc" stroke-width="2" d="M2023,-846C2023,-846 1845,-846 1845,-846 1839,-846 1833,-840 1833,-834 1833,-834 1833,-806 1833,-806 1833,-800 1839,-794 1845,-794 1845,-794 2023,-794 2023,-794 2029,-794 2035,-800 2035,-806 2035,-806 2035,-834 2035,-834 2035,-840 2029,-846 2023,-846"/>
<text text-anchor="start" x="1877.8895" y="-832" font-family="arial" font-weight="bold" font-size="10.00" fill="#000000">Some Non&#45;Culm as CAM</text>
<text text-anchor="start" x="1842.5985" y="-815" font-family="arial" font-size="10.00" fill="#000000">Some part of the non&#45;Culm strata is CAM</text>
<text text-anchor="start" x="1882.8755" y="-803" font-family="arial" font-size="10.00" fill="#000000"> in age #pri #chron&#45;hyp</text>
</g>
<!-- n22&#45;&gt;n35 -->
<g id="edge75" class="edge">
<title>n22&#45;&gt;n35</title>
<path fill="none" stroke="#00ff00" d="M1934,-793.8453C1934,-770.9923 1934,-737.887 1934,-714.3941"/>
<polygon fill="#00ff00" stroke="#00ff00" points="1937.5001,-714.3478 1934,-704.3479 1930.5001,-714.3479 1937.5001,-714.3478"/>
</g>
<!-- n23 -->
<g id="node30" class="node">
<title>n23</title>
<path fill="#ffffff" stroke="#f5f5dc" stroke-width="2" d="M1902.5,-1140C1902.5,-1140 1725.5,-1140 1725.5,-1140 1719.5,-1140 1713.5,-1134 1713.5,-1128 1713.5,-1128 1713.5,-1088 1713.5,-1088 1713.5,-1082 1719.5,-1076 1725.5,-1076 1725.5,-1076 1902.5,-1076 1902.5,-1076 1908.5,-1076 1914.5,-1082 1914.5,-1088 1914.5,-1088 1914.5,-1128 1914.5,-1128 1914.5,-1134 1908.5,-1140 1902.5,-1140"/>
<text text-anchor="start" x="1723.9465" y="-1126" font-family="arial" font-weight="bold" font-size="10.00" fill="#000000">Non&#45;Culm as Post&#45;Primary and Pre&#45;NRS</text>
<text text-anchor="start" x="1736.7065" y="-1109" font-family="arial" font-size="10.00" fill="#000000">The non&#45;Culm strata are older than</text>
<text text-anchor="start" x="1730.3165" y="-1097" font-family="arial" font-size="10.00" fill="#000000"> Primary strata and younger than New</text>
<text text-anchor="start" x="1728.6415" y="-1085" font-family="arial" font-size="10.00" fill="#000000"> Red Sandstone strata #pri #chron&#45;hyp</text>
</g>
<!-- n23&#45;&gt;n34 -->
<g id="edge76" class="edge">
<title>n23&#45;&gt;n34</title>
<path fill="none" stroke="#00ff00" d="M1814,-1075.778C1814,-1057.0176 1814,-1033.0468 1814,-1012.2935"/>
<polygon fill="#00ff00" stroke="#00ff00" points="1817.5001,-1012.0908 1814,-1002.0908 1810.5001,-1012.0909 1817.5001,-1012.0908"/>
</g>
<!-- n24 -->
<g id="node31" class="node">
<title>n24</title>
<path fill="#ffffff" stroke="#b8860b" stroke-width="2" d="M2137,-588C2137,-588 1965,-588 1965,-588 1959,-588 1953,-582 1953,-576 1953,-576 1953,-548 1953,-548 1953,-542 1959,-536 1965,-536 1965,-536 2137,-536 2137,-536 2143,-536 2149,-542 2149,-548 2149,-548 2149,-576 2149,-576 2149,-582 2143,-588 2137,-588"/>
<text text-anchor="start" x="2009.337" y="-574" font-family="arial" font-weight="bold" font-size="10.00" fill="#000000">Non&#45;Culm as CAM</text>
<text text-anchor="start" x="1974.316" y="-557" font-family="arial" font-size="10.00" fill="#000000">The non&#45;Culm strata is nothing but</text>
<text text-anchor="start" x="1970.1505" y="-545" font-family="arial" font-size="10.00" fill="#000000"> Cambrian in age #GRE #chron&#45;hyp </text>
</g>
<!-- n24&#45;&gt;n18 -->
<g id="edge51" class="edge">
<title>n24&#45;&gt;n18</title>
<path fill="none" stroke="#ff0000" d="M2054.2425,-598.5723C2060.4949,-674.276 2072.9291,-853.6498 2065,-1004 2063.803,-1026.6964 2061.1465,-1052.0634 2058.744,-1072.0624"/>
<polygon fill="#ff0000" stroke="#ff0000" points="2057.6936,-597.8426 2053.3681,-588.171 2050.7182,-598.4291 2057.6936,-597.8426"/>
<polygon fill="#ff0000" stroke="#ff0000" points="2055.2703,-1071.6354 2057.5199,-1081.9887 2062.2176,-1072.4922 2055.2703,-1071.6354"/>
</g>
<!-- n24&#45;&gt;n19 -->
<g id="edge52" class="edge">
<title>n24&#45;&gt;n19</title>
<path fill="none" stroke="#ff0000" d="M2014.3043,-528.7864C1994.5739,-510.9282 1970.3188,-488.9747 1950.6027,-471.1295"/>
<polygon fill="#ff0000" stroke="#ff0000" points="2012.183,-531.5871 2021.9458,-535.7028 2016.8804,-526.3973 2012.183,-531.5871"/>
<polygon fill="#ff0000" stroke="#ff0000" points="1952.7751,-468.375 1943.0123,-464.2593 1948.0777,-473.5648 1952.7751,-468.375"/>
</g>
<!-- n24&#45;&gt;n20 -->
<g id="edge53" class="edge">
<title>n24&#45;&gt;n20</title>
<path fill="none" stroke="#ff0000" d="M2073.4608,-527.1857C2084.4261,-510.1895 2097.5841,-489.7946 2108.5482,-472.8003"/>
<polygon fill="#ff0000" stroke="#ff0000" points="2070.4462,-525.4023 2067.9659,-535.7028 2076.3283,-529.1973 2070.4462,-525.4023"/>
<polygon fill="#ff0000" stroke="#ff0000" points="2111.5782,-474.5597 2114.0585,-464.2593 2105.6962,-470.7648 2111.5782,-474.5597"/>
</g>
<!-- n24&#45;&gt;n21 -->
<g id="edge54" class="edge">
<title>n24&#45;&gt;n21</title>
<path fill="none" stroke="#ff0000" d="M1967.3314,-532.4419C1911.6047,-512.755 1838.6806,-486.9926 1783.0763,-467.3489"/>
<polygon fill="#ff0000" stroke="#ff0000" points="1966.396,-535.8234 1976.9908,-535.8543 1968.7278,-529.2231 1966.396,-535.8234"/>
<polygon fill="#ff0000" stroke="#ff0000" points="1784.2014,-464.0344 1773.6066,-464.0035 1781.8696,-470.6347 1784.2014,-464.0344"/>
</g>
<!-- n24&#45;&gt;n22 -->
<g id="edge55" class="edge">
<title>n24&#45;&gt;n22</title>
<path fill="none" stroke="#00ff00" d="M2054.6028,-588.2657C2057.6827,-619.2998 2059.1327,-671.7914 2041,-712 2027.5085,-741.9169 2001.8807,-768.2503 1979.0885,-787.4236"/>
<polygon fill="#00ff00" stroke="#00ff00" points="1976.694,-784.8605 1971.1695,-793.901 1981.1259,-790.2789 1976.694,-784.8605"/>
</g>
<!-- n34&#45;&gt;n22 -->
<g id="edge67" class="edge">
<title>n34&#45;&gt;n22</title>
<path fill="none" stroke="#00ff00" d="M1843.6629,-929.9101C1862.7851,-906.6448 1887.4862,-876.5917 1906.2248,-853.7931"/>
<polygon fill="#00ff00" stroke="#00ff00" points="1908.9395,-856.0023 1912.5853,-846.0545 1903.5317,-851.5576 1908.9395,-856.0023"/>
</g>
<!-- n35&#45;&gt;n24 -->
<g id="edge68" class="edge">
<title>n35&#45;&gt;n24</title>
<path fill="none" stroke="#00ff00" d="M1951.0128,-667.9693C1968.8558,-649.0588 1997.3076,-618.9047 2019.3066,-595.5896"/>
<polygon fill="#00ff00" stroke="#00ff00" points="2021.8836,-597.9584 2026.2007,-588.283 2016.7922,-593.1544 2021.8836,-597.9584"/>
</g>
<!-- n25 -->
<g id="node34" class="node">
<title>n25</title>
<path fill="#ffffff" stroke="#b8860b" stroke-width="2" d="M2666,-1140C2666,-1140 2494,-1140 2494,-1140 2488,-1140 2482,-1134 2482,-1128 2482,-1128 2482,-1088 2482,-1088 2482,-1082 2488,-1076 2494,-1076 2494,-1076 2666,-1076 2666,-1076 2672,-1076 2678,-1082 2678,-1088 2678,-1088 2678,-1128 2678,-1128 2678,-1134 2672,-1140 2666,-1140"/>
<text text-anchor="start" x="2531.944" y="-1126" font-family="arial" font-weight="bold" font-size="10.00" fill="#000000">Traversing Northward</text>
<text text-anchor="start" x="2500.5345" y="-1109" font-family="arial" font-size="10.00" fill="#000000">The strata south of Exmoor become</text>
<text text-anchor="start" x="2497.476" y="-1097" font-family="arial" font-size="10.00" fill="#000000"> progessively younger the furhter one</text>
<text text-anchor="start" x="2493.0405" y="-1085" font-family="arial" font-size="10.00" fill="#000000"> traverses northward #GRE #chron&#45;hyp</text>
</g>
<!-- n26 -->
<g id="node35" class="node">
<title>n26</title>
<path fill="#ffffff" stroke="#b8860b" stroke-width="2" d="M2448,-1004C2448,-1004 2272,-1004 2272,-1004 2266,-1004 2260,-998 2260,-992 2260,-992 2260,-940 2260,-940 2260,-934 2266,-928 2272,-928 2272,-928 2448,-928 2448,-928 2454,-928 2460,-934 2460,-940 2460,-940 2460,-992 2460,-992 2460,-998 2454,-1004 2448,-1004"/>
<text text-anchor="start" x="2283.8685" y="-990" font-family="arial" font-weight="bold" font-size="10.00" fill="#000000">Exmoor Youngest Devonian strata</text>
<text text-anchor="start" x="2280.812" y="-973" font-family="arial" font-size="10.00" fill="#000000">In Devon, among all the strata older</text>
<text text-anchor="start" x="2269.6885" y="-961" font-family="arial" font-size="10.00" fill="#000000"> than the New Red Sandstone, the strata</text>
<text text-anchor="start" x="2282.1995" y="-949" font-family="arial" font-size="10.00" fill="#000000"> of Exmoor are the youngest #GRE</text>
<text text-anchor="start" x="2333.6045" y="-937" font-family="arial" font-size="10.00" fill="#000000"> #chron&#45;hyp</text>
</g>
<!-- n27 -->
<g id="node36" class="node">
<title>n27</title>
<path fill="#ffffff" stroke="#ff8c00" stroke-width="2" d="M2451.5,-1140C2451.5,-1140 2268.5,-1140 2268.5,-1140 2262.5,-1140 2256.5,-1134 2256.5,-1128 2256.5,-1128 2256.5,-1088 2256.5,-1088 2256.5,-1082 2262.5,-1076 2268.5,-1076 2268.5,-1076 2451.5,-1076 2451.5,-1076 2457.5,-1076 2463.5,-1082 2463.5,-1088 2463.5,-1088 2463.5,-1128 2463.5,-1128 2463.5,-1134 2457.5,-1140 2451.5,-1140"/>
<text text-anchor="start" x="2289.0935" y="-1126" font-family="arial" font-weight="bold" font-size="10.00" fill="#000000">Culm Youngest Devonian Strata</text>
<text text-anchor="start" x="2281.312" y="-1109" font-family="arial" font-size="10.00" fill="#000000">In Devon, among all the strata older</text>
<text text-anchor="start" x="2271.028" y="-1097" font-family="arial" font-size="10.00" fill="#000000"> than the New Red Sandstone, the Culm</text>
<text text-anchor="start" x="2266.5825" y="-1085" font-family="arial" font-size="10.00" fill="#000000"> strata are the youngest #COA #chron&#45;hyp</text>
</g>
<!-- n27&#45;&gt;n26 -->
<g id="edge60" class="edge">
<title>n27&#45;&gt;n26</title>
<path fill="none" stroke="#ff0000" d="M2360,-1065.6314C2360,-1049.4639 2360,-1030.9172 2360,-1014.243"/>
<polygon fill="#ff0000" stroke="#ff0000" points="2356.5001,-1065.778 2360,-1075.778 2363.5001,-1065.778 2356.5001,-1065.778"/>
<polygon fill="#ff0000" stroke="#ff0000" points="2363.5001,-1014.1409 2360,-1004.1409 2356.5001,-1014.141 2363.5001,-1014.1409"/>
</g>
</g>
</svg>
