
<!-- Generated by graphviz version 2.40.1 (20161225.0304)
 -->
<!-- Title: Argument Map Pages: 1 -->
<svg width="720pt" height="178pt"
 viewBox="0.00 0.00 720.00 178.47" xmlns="http://www.w3.org/2000/svg" xmlns:xlink="http://www.w3.org/1999/xlink">
<g id="graph0" class="graph" transform="scale(.132 .132) rotate(0) translate(4 1348.4)">
<title>Argument Map</title>
<g id="clust7" class="cluster">
<title>cluster_7</title>
<polygon fill="#698b69" stroke="#698b69" points="2438,-316 2438,-578.4 2864,-578.4 2864,-316 2438,-316"/>
<text text-anchor="start" x="2594.6408" y="-563.6" font-family="arial" font-size="12.00" fill="#000000">Gap in the Sequence</text>
</g>
<g id="clust5" class="cluster">
<title>cluster_5</title>
<polygon fill="#cd9b9b" stroke="#cd9b9b" points="2872,-476 2872,-1330.4 3518,-1330.4 3518,-476 2872,-476"/>
<text text-anchor="start" x="3132.3252" y="-1315.6" font-family="arial" font-size="12.00" fill="#000000">Dating of the Non&#45;Culm</text>
</g>
<g id="clust1" class="cluster">
<title>cluster_1</title>
<polygon fill="#ffff00" stroke="#ffff00" points="8,-14 8,-282.4 3218,-282.4 3218,-14 8,-14"/>
<text text-anchor="start" x="1588.3256" y="-267.6" font-family="arial" font-size="12.00" fill="#000000">Evidence</text>
</g>
<g id="clust2" class="cluster">
<title>cluster_2</title>
<polygon fill="#eedfcc" stroke="#eedfcc" points="3670,-328 3670,-1170.4 4323,-1170.4 4323,-328 3670,-328"/>
<text text-anchor="start" x="3932.1578" y="-1155.6" font-family="arial" font-size="12.00" fill="#000000">Dating of the Main Culm</text>
</g>
<g id="clust3" class="cluster">
<title>cluster_3</title>
<polygon fill="#9fb6cd" stroke="#9fb6cd" points="5010,-1056 5010,-1336.4 5440,-1336.4 5440,-1056 5010,-1056"/>
<text text-anchor="start" x="5122.9862" y="-1321.6" font-family="arial" font-size="12.00" fill="#000000">Aporia II : CM Plants in non&#45;CM Strata</text>
</g>
<g id="clust6" class="cluster">
<title>cluster_6</title>
<polygon fill="#8b6969" stroke="#8b6969" points="3438,-8 3438,-430.4 3662,-430.4 3662,-8 3438,-8"/>
<text text-anchor="start" x="3479.9752" y="-415.6" font-family="arial" font-size="12.00" fill="#000000">Youngest Devonian Strata</text>
</g>
<g id="clust4" class="cluster">
<title>cluster_4</title>
<polygon fill="#eeb4b4" stroke="#eeb4b4" points="4362,-328 4362,-1164.4 5002,-1164.4 5002,-328 4362,-328"/>
<text text-anchor="start" x="4602.9842" y="-1149.6" font-family="arial" font-size="12.00" fill="#000000">Dating of the Culm Limestone</text>
</g>
<!-- n2 -->
<g id="node1" class="node">
<title>n2</title>
<path fill="#ffffff" stroke="#ffff00" stroke-width="2" d="M414,-92C414,-92 242,-92 242,-92 236,-92 230,-86 230,-80 230,-80 230,-40 230,-40 230,-34 236,-28 242,-28 242,-28 414,-28 414,-28 420,-28 426,-34 426,-40 426,-40 426,-80 426,-80 426,-86 420,-92 414,-92"/>
<text text-anchor="start" x="246.305" y="-78" font-family="arial" font-weight="bold" font-size="10.00" fill="#000000">Unbroken Sequence of Devon Strata</text>
<text text-anchor="start" x="251.3125" y="-61" font-family="arial" font-size="10.00" fill="#000000">In Devon, all the strata &#45; older than</text>
<text text-anchor="start" x="251.0355" y="-49" font-family="arial" font-size="10.00" fill="#000000"> the New Red Sandstone &#45; form an</text>
<text text-anchor="start" x="253.8035" y="-37" font-family="arial" font-size="10.00" fill="#000000"> unbroken sequence of strata #ev</text>
</g>
<!-- n3 -->
<g id="node2" class="node">
<title>n3</title>
<path fill="#ffffff" stroke="#ffff00" stroke-width="2" d="M3198,-252C3198,-252 3026,-252 3026,-252 3020,-252 3014,-246 3014,-240 3014,-240 3014,-188 3014,-188 3014,-182 3020,-176 3026,-176 3026,-176 3198,-176 3198,-176 3204,-176 3210,-182 3210,-188 3210,-188 3210,-240 3210,-240 3210,-246 3204,-252 3198,-252"/>
<text text-anchor="start" x="3054.7755" y="-238" font-family="arial" font-weight="bold" font-size="10.00" fill="#000000">CM Plants in Devon Culm</text>
<text text-anchor="start" x="3025.5985" y="-221" font-family="arial" font-size="10.00" fill="#000000">Near Bideford (North Devon), there are</text>
<text text-anchor="start" x="3033.932" y="-209" font-family="arial" font-size="10.00" fill="#000000"> CM fossil plants in the main part of</text>
<text text-anchor="start" x="3030.321" y="-197" font-family="arial" font-size="10.00" fill="#000000"> the Culm strata (in close association</text>
<text text-anchor="start" x="3023.6525" y="-185" font-family="arial" font-size="10.00" fill="#000000"> with seams of imperfect anthracite) #ev</text>
</g>
<!-- n4 -->
<g id="node3" class="node">
<title>n4</title>
<path fill="#ffffff" stroke="#ffff00" stroke-width="2" d="M2984,-240C2984,-240 2812,-240 2812,-240 2806,-240 2800,-234 2800,-228 2800,-228 2800,-200 2800,-200 2800,-194 2806,-188 2812,-188 2812,-188 2984,-188 2984,-188 2990,-188 2996,-194 2996,-200 2996,-200 2996,-228 2996,-228 2996,-234 2990,-240 2984,-240"/>
<text text-anchor="start" x="2861.607" y="-226" font-family="arial" font-weight="bold" font-size="10.00" fill="#000000">North of Exmoor</text>
<text text-anchor="start" x="2811.871" y="-209" font-family="arial" font-size="10.00" fill="#000000">Passing Exmoor northwards, the strata</text>
<text text-anchor="start" x="2856.8775" y="-197" font-family="arial" font-size="10.00" fill="#000000"> become older #ev</text>
</g>
<!-- n5 -->
<g id="node4" class="node">
<title>n5</title>
<path fill="#ffffff" stroke="#ffff00" stroke-width="2" d="M200,-98C200,-98 28,-98 28,-98 22,-98 16,-92 16,-86 16,-86 16,-34 16,-34 16,-28 22,-22 28,-22 28,-22 200,-22 200,-22 206,-22 212,-28 212,-34 212,-34 212,-86 212,-86 212,-92 206,-98 200,-98"/>
<text text-anchor="start" x="61.21" y="-84" font-family="arial" font-weight="bold" font-size="10.00" fill="#000000">Trough through Exmoor</text>
<text text-anchor="start" x="36.206" y="-67" font-family="arial" font-size="10.00" fill="#000000">There is a trough through Exmoor &#45;</text>
<text text-anchor="start" x="27.308" y="-55" font-family="arial" font-size="10.00" fill="#000000"> formed by a band of limestone running</text>
<text text-anchor="start" x="35.362" y="-43" font-family="arial" font-size="10.00" fill="#000000"> out to the north coast at Ilfracombe</text>
<text text-anchor="start" x="50.3625" y="-31" font-family="arial" font-size="10.00" fill="#000000"> and south of Barnstaple #ev</text>
</g>
<!-- n6 -->
<g id="node5" class="node">
<title>n6</title>
<path fill="#ffffff" stroke="#ffff00" stroke-width="2" d="M2770,-246C2770,-246 2598,-246 2598,-246 2592,-246 2586,-240 2586,-234 2586,-234 2586,-194 2586,-194 2586,-188 2592,-182 2598,-182 2598,-182 2770,-182 2770,-182 2776,-182 2782,-188 2782,-194 2782,-194 2782,-234 2782,-234 2782,-240 2776,-246 2770,-246"/>
<text text-anchor="start" x="2607.3105" y="-232" font-family="arial" font-weight="bold" font-size="10.00" fill="#000000">Instances of Coal in Ancient Strata</text>
<text text-anchor="start" x="2602.3215" y="-215" font-family="arial" font-size="10.00" fill="#000000">In Munster, North America and North</text>
<text text-anchor="start" x="2610.9245" y="-203" font-family="arial" font-size="10.00" fill="#000000"> Devon there are coal deposits in</text>
<text text-anchor="start" x="2606.755" y="-191" font-family="arial" font-size="10.00" fill="#000000"> pre&#45;Old Red Sandstone strata #ev</text>
</g>
<!-- n7 -->
<g id="node6" class="node">
<title>n7</title>
<path fill="#ffffff" stroke="#ffff00" stroke-width="2" d="M2556,-250C2556,-250 2384,-250 2384,-250 2378,-250 2372,-244 2372,-238 2372,-238 2372,-190 2372,-190 2372,-184 2378,-178 2384,-178 2384,-178 2556,-178 2556,-178 2562,-178 2568,-184 2568,-190 2568,-190 2568,-238 2568,-238 2568,-244 2562,-250 2556,-250"/>
<text text-anchor="start" x="2384.4445" y="-236" font-family="arial" font-weight="bold" font-size="10.00" fill="#000000">Devonshire &#45; Characteristic CAM Rock</text>
<text text-anchor="start" x="2457.497" y="-226" font-family="arial" font-weight="bold" font-size="10.00" fill="#000000"> Type</text>
<text text-anchor="start" x="2393.3125" y="-211" font-family="arial" font-size="10.00" fill="#000000">In Devon, all the strata &#45; older than</text>
<text text-anchor="start" x="2397.2" y="-199" font-family="arial" font-size="10.00" fill="#000000"> the New Red Sandstone &#45; are of</text>
<text text-anchor="start" x="2390.819" y="-187" font-family="arial" font-size="10.00" fill="#000000"> caracteristic CAM appearance #ev </text>
</g>
<!-- n8 -->
<g id="node7" class="node">
<title>n8</title>
<path fill="#ffffff" stroke="#ffff00" stroke-width="2" d="M414,-252C414,-252 242,-252 242,-252 236,-252 230,-246 230,-240 230,-240 230,-188 230,-188 230,-182 236,-176 242,-176 242,-176 414,-176 414,-176 420,-176 426,-182 426,-188 426,-188 426,-240 426,-240 426,-246 420,-252 414,-252"/>
<text text-anchor="start" x="277.439" y="-238" font-family="arial" font-weight="bold" font-size="10.00" fill="#000000">Unconformity in Devon</text>
<text text-anchor="start" x="253.2545" y="-221" font-family="arial" font-size="10.00" fill="#000000">Between the Devon Culm and the</text>
<text text-anchor="start" x="251.866" y="-209" font-family="arial" font-size="10.00" fill="#000000"> juxtaposed strata, there is at least</text>
<text text-anchor="start" x="257.9895" y="-197" font-family="arial" font-size="10.00" fill="#000000"> one formation missing from the</text>
<text text-anchor="start" x="274.644" y="-185" font-family="arial" font-size="10.00" fill="#000000"> standard sequence #ev</text>
</g>
<!-- n8&#45;&gt;n2 -->
<g id="edge1" class="edge">
<title>n8&#45;&gt;n2</title>
<path fill="none" stroke="#ff0000" d="M328,-165.6219C328,-145.325 328,-121.9346 328,-102.3325"/>
<polygon fill="#ff0000" stroke="#ff0000" points="324.5001,-165.9325 328,-175.9326 331.5001,-165.9326 324.5001,-165.9325"/>
<polygon fill="#ff0000" stroke="#ff0000" points="331.5001,-102.1706 328,-92.1706 324.5001,-102.1707 331.5001,-102.1706"/>
</g>
<!-- n9 -->
<g id="node8" class="node">
<title>n9</title>
<path fill="#ffffff" stroke="#ffff00" stroke-width="2" d="M2128,-240C2128,-240 1956,-240 1956,-240 1950,-240 1944,-234 1944,-228 1944,-228 1944,-200 1944,-200 1944,-194 1950,-188 1956,-188 1956,-188 2128,-188 2128,-188 2134,-188 2140,-194 2140,-200 2140,-200 2140,-228 2140,-228 2140,-234 2134,-240 2128,-240"/>
<text text-anchor="start" x="1973.104" y="-226" font-family="arial" font-weight="bold" font-size="10.00" fill="#000000">Coal in French Pre&#45;ORS Strata</text>
<text text-anchor="start" x="1964.481" y="-209" font-family="arial" font-size="10.00" fill="#000000">In northwest France, there are coal</text>
<text text-anchor="start" x="1970.874" y="-197" font-family="arial" font-size="10.00" fill="#000000"> deposits in pre&#45;ORS strata. #ev</text>
</g>
<!-- n10 -->
<g id="node9" class="node">
<title>n10</title>
<path fill="#ffffff" stroke="#ffff00" stroke-width="2" d="M1914,-246C1914,-246 1742,-246 1742,-246 1736,-246 1730,-240 1730,-234 1730,-234 1730,-194 1730,-194 1730,-188 1736,-182 1742,-182 1742,-182 1914,-182 1914,-182 1920,-182 1926,-188 1926,-194 1926,-194 1926,-234 1926,-234 1926,-240 1920,-246 1914,-246"/>
<text text-anchor="start" x="1749.9305" y="-232" font-family="arial" font-weight="bold" font-size="10.00" fill="#000000">CM Plants in Ancient French Strata</text>
<text text-anchor="start" x="1740.763" y="-215" font-family="arial" font-size="10.00" fill="#000000">In northwest France, in pre&#45;ORS strata,</text>
<text text-anchor="start" x="1746.0355" y="-203" font-family="arial" font-size="10.00" fill="#000000"> associated with seams of coal, there</text>
<text text-anchor="start" x="1758.268" y="-191" font-family="arial" font-size="10.00" fill="#000000"> are some CM fossil plants #ev </text>
</g>
<!-- n11 -->
<g id="node10" class="node">
<title>n11</title>
<path fill="#ffffff" stroke="#ffff00" stroke-width="2" d="M1700,-252C1700,-252 1528,-252 1528,-252 1522,-252 1516,-246 1516,-240 1516,-240 1516,-188 1516,-188 1516,-182 1522,-176 1528,-176 1528,-176 1700,-176 1700,-176 1706,-176 1712,-182 1712,-188 1712,-188 1712,-240 1712,-240 1712,-246 1706,-252 1700,-252"/>
<text text-anchor="start" x="1587.3295" y="-238" font-family="arial" font-weight="bold" font-size="10.00" fill="#000000">French Alps</text>
<text text-anchor="start" x="1537.0355" y="-221" font-family="arial" font-size="10.00" fill="#000000">In the French Alps, there are some</text>
<text text-anchor="start" x="1555.1115" y="-209" font-family="arial" font-size="10.00" fill="#000000"> characteristic Oolitic fossil</text>
<text text-anchor="start" x="1532.8755" y="-197" font-family="arial" font-size="10.00" fill="#000000"> belemnites and CM plants in closely</text>
<text text-anchor="start" x="1565.3735" y="-185" font-family="arial" font-size="10.00" fill="#000000"> associated strata #ev</text>
</g>
<!-- n12 -->
<g id="node11" class="node">
<title>n12</title>
<path fill="#ffffff" stroke="#ffff00" stroke-width="2" d="M1486,-246C1486,-246 1314,-246 1314,-246 1308,-246 1302,-240 1302,-234 1302,-234 1302,-194 1302,-194 1302,-188 1308,-182 1314,-182 1314,-182 1486,-182 1486,-182 1492,-182 1498,-188 1498,-194 1498,-194 1498,-234 1498,-234 1498,-240 1492,-246 1486,-246"/>
<text text-anchor="start" x="1317.487" y="-232" font-family="arial" font-weight="bold" font-size="10.00" fill="#000000">Munster Coal in Carboniferous Strata</text>
<text text-anchor="start" x="1330.8225" y="-215" font-family="arial" font-size="10.00" fill="#000000">In Munster, some strata closely</text>
<text text-anchor="start" x="1315.256" y="-203" font-family="arial" font-size="10.00" fill="#000000"> associated with seams of coal are not</text>
<text text-anchor="start" x="1353.0445" y="-191" font-family="arial" font-size="10.00" fill="#000000"> pre&#45;ORS in age #ev </text>
</g>
<!-- n13 -->
<g id="node12" class="node">
<title>n13</title>
<path fill="#ffffff" stroke="#ffff00" stroke-width="2" d="M1272,-252C1272,-252 1098,-252 1098,-252 1092,-252 1086,-246 1086,-240 1086,-240 1086,-188 1086,-188 1086,-182 1092,-176 1098,-176 1098,-176 1272,-176 1272,-176 1278,-176 1284,-182 1284,-188 1284,-188 1284,-240 1284,-240 1284,-246 1278,-252 1272,-252"/>
<text text-anchor="start" x="1151.3855" y="-238" font-family="arial" font-weight="bold" font-size="10.00" fill="#000000">Pembrokeshire</text>
<text text-anchor="start" x="1116.098" y="-221" font-family="arial" font-size="10.00" fill="#000000">The strata near Pembrokeshire</text>
<text text-anchor="start" x="1128.326" y="-209" font-family="arial" font-size="10.00" fill="#000000"> (southwest Wales) are of</text>
<text text-anchor="start" x="1095.5365" y="-197" font-family="arial" font-size="10.00" fill="#000000"> characteristic pre&#45;ORS appearance and</text>
<text text-anchor="start" x="1149.992" y="-185" font-family="arial" font-size="10.00" fill="#000000"> CM in age #ev </text>
</g>
<!-- n14 -->
<g id="node13" class="node">
<title>n14</title>
<path fill="#ffffff" stroke="#ffff00" stroke-width="2" d="M1056,-240C1056,-240 884,-240 884,-240 878,-240 872,-234 872,-228 872,-228 872,-200 872,-200 872,-194 878,-188 884,-188 884,-188 1056,-188 1056,-188 1062,-188 1068,-194 1068,-200 1068,-200 1068,-228 1068,-228 1068,-234 1062,-240 1056,-240"/>
<text text-anchor="start" x="903.5935" y="-226" font-family="arial" font-weight="bold" font-size="10.00" fill="#000000">LV in Fauna and Flora &#45;Today</text>
<text text-anchor="start" x="893.596" y="-209" font-family="arial" font-size="10.00" fill="#000000">Today, there are local variations in</text>
<text text-anchor="start" x="925.8145" y="-197" font-family="arial" font-size="10.00" fill="#000000"> fauna and flora #ev</text>
</g>
<!-- n15 -->
<g id="node14" class="node">
<title>n15</title>
<path fill="#ffffff" stroke="#ffff00" stroke-width="2" d="M842,-240C842,-240 670,-240 670,-240 664,-240 658,-234 658,-228 658,-228 658,-200 658,-200 658,-194 664,-188 670,-188 670,-188 842,-188 842,-188 848,-188 854,-194 854,-200 854,-200 854,-228 854,-228 854,-234 848,-240 842,-240"/>
<text text-anchor="start" x="697.101" y="-226" font-family="arial" font-weight="bold" font-size="10.00" fill="#000000">LV in Evironments &#45; Today</text>
<text text-anchor="start" x="679.596" y="-209" font-family="arial" font-size="10.00" fill="#000000">Today, there are local variations in</text>
<text text-anchor="start" x="689.8725" y="-197" font-family="arial" font-size="10.00" fill="#000000"> environmental conditions #ev</text>
</g>
<!-- n16 -->
<g id="node15" class="node">
<title>n16</title>
<path fill="#ffffff" stroke="#ffff00" stroke-width="2" d="M2342,-246C2342,-246 2170,-246 2170,-246 2164,-246 2158,-240 2158,-234 2158,-234 2158,-194 2158,-194 2158,-188 2164,-182 2170,-182 2170,-182 2342,-182 2342,-182 2348,-182 2354,-188 2354,-194 2354,-194 2354,-234 2354,-234 2354,-240 2348,-246 2342,-246"/>
<text text-anchor="start" x="2213.7685" y="-232" font-family="arial" font-weight="bold" font-size="10.00" fill="#000000">SIL in North Devon</text>
<text text-anchor="start" x="2174.037" y="-215" font-family="arial" font-size="10.00" fill="#000000">In north Devon (around Pilton), some</text>
<text text-anchor="start" x="2177.3775" y="-203" font-family="arial" font-size="10.00" fill="#000000"> non&#45;Culm strata are Silurian in age</text>
<text text-anchor="start" x="2245.162" y="-191" font-family="arial" font-size="10.00" fill="#000000"> #ev </text>
</g>
<!-- n39 -->
<g id="node44" class="node">
<title>n39</title>
<path fill="#ffffff" stroke="#f5f5dc" stroke-width="2" d="M3498,-536C3498,-536 3326,-536 3326,-536 3320,-536 3314,-530 3314,-524 3314,-524 3314,-496 3314,-496 3314,-490 3320,-484 3326,-484 3326,-484 3498,-484 3498,-484 3504,-484 3510,-490 3510,-496 3510,-496 3510,-524 3510,-524 3510,-530 3504,-536 3498,-536"/>
<text text-anchor="start" x="3359.4945" y="-522" font-family="arial" font-weight="bold" font-size="10.00" fill="#000000">Some Non&#45;Culm as SIL</text>
<text text-anchor="start" x="3324.2035" y="-505" font-family="arial" font-size="10.00" fill="#000000">Some part of the non&#45;Culm strata is SIL</text>
<text text-anchor="start" x="3360.8755" y="-493" font-family="arial" font-size="10.00" fill="#000000"> in age #pri #chron&#45;hyp</text>
</g>
<!-- n16&#45;&gt;n39 -->
<g id="edge48" class="edge">
<title>n16&#45;&gt;n39</title>
<path fill="none" stroke="#00ff00" d="M2295.4518,-246.0075C2314.6657,-259.7475 2338.8086,-274.4474 2363,-282.4 2576.6902,-352.6482 2647.7464,-270.3202 2868,-316 3046.3366,-352.9864 3245.4718,-435.1536 3346.1096,-479.7666"/>
<polygon fill="#00ff00" stroke="#00ff00" points="3344.9782,-483.0941 3355.5373,-483.964 3347.8254,-476.6992 3344.9782,-483.0941"/>
</g>
<!-- n17 -->
<g id="node16" class="node">
<title>n17</title>
<path fill="#ffffff" stroke="#ffff00" stroke-width="2" d="M628,-240C628,-240 456,-240 456,-240 450,-240 444,-234 444,-228 444,-228 444,-200 444,-200 444,-194 450,-188 456,-188 456,-188 628,-188 628,-188 634,-188 640,-194 640,-200 640,-200 640,-228 640,-228 640,-234 634,-240 628,-240"/>
<text text-anchor="start" x="476.1585" y="-226" font-family="arial" font-weight="bold" font-size="10.00" fill="#000000">Culm trough in Central Devon</text>
<text text-anchor="start" x="469.21" y="-209" font-family="arial" font-size="10.00" fill="#000000">In central Devon, there is a Culm</text>
<text text-anchor="start" x="516.99" y="-197" font-family="arial" font-size="10.00" fill="#000000"> trough #ev</text>
</g>
<!-- n18 -->
<g id="node17" class="node">
<title>n18</title>
<path fill="#ffffff" stroke="#ffff00" stroke-width="2" d="M200,-250C200,-250 28,-250 28,-250 22,-250 16,-244 16,-238 16,-238 16,-190 16,-190 16,-184 22,-178 28,-178 28,-178 200,-178 200,-178 206,-178 212,-184 212,-190 212,-190 212,-238 212,-238 212,-244 206,-250 200,-250"/>
<text text-anchor="start" x="30.651" y="-236" font-family="arial" font-weight="bold" font-size="10.00" fill="#000000">Distinct Limestones at Ilfracombe and</text>
<text text-anchor="start" x="88.715" y="-226" font-family="arial" font-weight="bold" font-size="10.00" fill="#000000"> Barnstaple</text>
<text text-anchor="start" x="34.2565" y="-211" font-family="arial" font-size="10.00" fill="#000000">The limestone at Ilfracombe and the</text>
<text text-anchor="start" x="38.1455" y="-199" font-family="arial" font-size="10.00" fill="#000000"> limestone south of Barnstaple are</text>
<text text-anchor="start" x="87.605" y="-187" font-family="arial" font-size="10.00" fill="#000000"> distinct #ev</text>
</g>
<!-- n18&#45;&gt;n5 -->
<g id="edge2" class="edge">
<title>n18&#45;&gt;n5</title>
<path fill="none" stroke="#ff0000" d="M114,-167.667C114,-148.8935 114,-127.2129 114,-108.2491"/>
<polygon fill="#ff0000" stroke="#ff0000" points="110.5001,-167.8938 114,-177.8938 117.5001,-167.8939 110.5001,-167.8938"/>
<polygon fill="#ff0000" stroke="#ff0000" points="117.5001,-108.0288 114,-98.0288 110.5001,-108.0289 117.5001,-108.0288"/>
</g>
<!-- n19 -->
<g id="node18" class="node">
<title>n19</title>
<path fill="#ffffff" stroke="#ff8c00" stroke-width="2" d="M3862,-1140C3862,-1140 3690,-1140 3690,-1140 3684,-1140 3678,-1134 3678,-1128 3678,-1128 3678,-1076 3678,-1076 3678,-1070 3684,-1064 3690,-1064 3690,-1064 3862,-1064 3862,-1064 3868,-1064 3874,-1070 3874,-1076 3874,-1076 3874,-1128 3874,-1128 3874,-1134 3868,-1140 3862,-1140"/>
<text text-anchor="start" x="3690.451" y="-1126" font-family="arial" font-weight="bold" font-size="10.00" fill="#000000">Characteristic CM fossils in Main Culm</text>
<text text-anchor="start" x="3693.492" y="-1109" font-family="arial" font-size="10.00" fill="#000000">Near Bideford (North Devon), the CM</text>
<text text-anchor="start" x="3692.3705" y="-1097" font-family="arial" font-size="10.00" fill="#000000"> fossil plants supported by some main</text>
<text text-anchor="start" x="3700.4445" y="-1085" font-family="arial" font-size="10.00" fill="#000000"> Culm strata are characteristic CM</text>
<text text-anchor="start" x="3725.1585" y="-1073" font-family="arial" font-size="10.00" fill="#000000"> fossils #COA #fos&#45;hyp</text>
</g>
<!-- n47 -->
<g id="node27" class="node">
<title>n47</title>
<path fill="#ff8c00" stroke="#000000" d="M3862,-992C3862,-992 3690,-992 3690,-992 3684,-992 3678,-986 3678,-980 3678,-980 3678,-892 3678,-892 3678,-886 3684,-880 3690,-880 3690,-880 3862,-880 3862,-880 3868,-880 3874,-886 3874,-892 3874,-892 3874,-980 3874,-980 3874,-986 3868,-992 3862,-992"/>
<text text-anchor="start" x="3721.84" y="-978" font-family="arial" font-weight="bold" font-size="10.00" fill="#000000">Main Culm as CM &#45; CFP</text>
<text text-anchor="start" x="3692.9175" y="-961" font-family="arial" font-size="10.00" fill="#000000">If strata can be identified by means of</text>
<text text-anchor="start" x="3700.71" y="-949" font-family="arial" font-size="10.00" fill="#000000"> their characteristic fossils and the</text>
<text text-anchor="start" x="3690.993" y="-937" font-family="arial" font-size="10.00" fill="#000000"> whole main Culm strata are not CM in</text>
<text text-anchor="start" x="3694.587" y="-925" font-family="arial" font-size="10.00" fill="#000000"> age, then there are no characteristic</text>
<text text-anchor="start" x="3712.6675" y="-913" font-family="arial" font-size="10.00" fill="#000000"> CM fossils in the main Culm</text>
<text text-anchor="start" x="3699.036" y="-901" font-family="arial" font-size="10.00" fill="#000000"> strata,especially not near Bideford</text>
<text text-anchor="start" x="3760.9975" y="-889" font-family="arial" font-size="10.00" fill="#000000"> #COA</text>
</g>
<!-- n19&#45;&gt;n47 -->
<g id="edge70" class="edge">
<title>n19&#45;&gt;n47</title>
<path fill="none" stroke="#00ff00" d="M3776,-1063.9162C3776,-1045.6546 3776,-1023.2416 3776,-1002.3067"/>
<polygon fill="#00ff00" stroke="#00ff00" points="3779.5001,-1002.1729 3776,-992.1729 3772.5001,-1002.1729 3779.5001,-1002.1729"/>
</g>
<!-- n22 -->
<g id="node19" class="node">
<title>n22</title>
<path fill="#ffffff" stroke="#f5f5dc" stroke-width="2" d="M4082,-1128C4082,-1128 3904,-1128 3904,-1128 3898,-1128 3892,-1122 3892,-1116 3892,-1116 3892,-1088 3892,-1088 3892,-1082 3898,-1076 3904,-1076 3904,-1076 4082,-1076 4082,-1076 4088,-1076 4094,-1082 4094,-1088 4094,-1088 4094,-1116 4094,-1116 4094,-1122 4088,-1128 4082,-1128"/>
<text text-anchor="start" x="3938.8345" y="-1114" font-family="arial" font-weight="bold" font-size="10.00" fill="#000000">Some Main Culm as CM</text>
<text text-anchor="start" x="3901.599" y="-1097" font-family="arial" font-size="10.00" fill="#000000">Some part of the main Culm is CM in age</text>
<text text-anchor="start" x="3956.882" y="-1085" font-family="arial" font-size="10.00" fill="#000000"> #pri #chron&#45;hyp</text>
</g>
<!-- n46 -->
<g id="node26" class="node">
<title>n46</title>
<path fill="#f5f5dc" stroke="#000000" d="M4260.5,-972C4260.5,-972 4087.5,-972 4087.5,-972 4081.5,-972 4075.5,-966 4075.5,-960 4075.5,-960 4075.5,-912 4075.5,-912 4075.5,-906 4081.5,-900 4087.5,-900 4087.5,-900 4260.5,-900 4260.5,-900 4266.5,-900 4272.5,-906 4272.5,-912 4272.5,-912 4272.5,-960 4272.5,-960 4272.5,-966 4266.5,-972 4260.5,-972"/>
<text text-anchor="start" x="4088.6425" y="-958" font-family="arial" font-weight="bold" font-size="10.00" fill="#000000">Standard Sequence as Partition &#45; Main</text>
<text text-anchor="start" x="4161.4475" y="-948" font-family="arial" font-weight="bold" font-size="10.00" fill="#000000"> Culm</text>
<text text-anchor="start" x="4085.8835" y="-933" font-family="arial" font-size="10.00" fill="#000000">If some main Culm strata are neiter CM,</text>
<text text-anchor="start" x="4089.4835" y="-921" font-family="arial" font-size="10.00" fill="#000000"> ML, OR nor SIL in age, then it is CAM</text>
<text text-anchor="start" x="4123.3755" y="-909" font-family="arial" font-size="10.00" fill="#000000"> in age #pri #chron&#45;hyp</text>
</g>
<!-- n22&#45;&gt;n46 -->
<g id="edge3" class="edge">
<title>n22&#45;&gt;n46</title>
<path fill="none" stroke="#ff0000" d="M4021.68,-1075.6968C4050.0379,-1049.689 4093.9082,-1009.4544 4127.2975,-978.8321"/>
<polygon fill="#ff0000" stroke="#ff0000" points="4129.6779,-981.3981 4134.6821,-972.0595 4124.9466,-976.2392 4129.6779,-981.3981"/>
</g>
<!-- n22&#45;&gt;n47 -->
<g id="edge7" class="edge">
<title>n22&#45;&gt;n47</title>
<path fill="none" stroke="#ff0000" d="M3958.6157,-1075.6968C3931.5093,-1054.961 3892.581,-1025.1817 3857.6245,-998.4409"/>
<polygon fill="#ff0000" stroke="#ff0000" points="3859.3711,-995.3703 3849.302,-992.0743 3855.118,-1000.9301 3859.3711,-995.3703"/>
</g>
<!-- n48 -->
<g id="node28" class="node">
<title>n48</title>
<path fill="#ff8c00" stroke="#000000" d="M4045,-670C4045,-670 3873,-670 3873,-670 3867,-670 3861,-664 3861,-658 3861,-658 3861,-646 3861,-646 3861,-640 3867,-634 3873,-634 3873,-634 4045,-634 4045,-634 4051,-634 4057,-640 4057,-646 4057,-646 4057,-658 4057,-658 4057,-664 4051,-670 4045,-670"/>
<text text-anchor="start" x="3885.935" y="-650" font-family="arial" font-weight="bold" font-size="10.00" fill="#000000">Redating the Main Culm &#45; COA.1</text>
</g>
<!-- n22&#45;&gt;n48 -->
<g id="edge72" class="edge">
<title>n22&#45;&gt;n48</title>
<path fill="none" stroke="#00ff00" d="M4005.454,-1075.9735C4031.8003,-1017.1624 4087.4832,-870.2417 4046,-756 4034.6722,-724.8041 4009.4337,-696.4254 3989.0426,-677.2228"/>
<polygon fill="#00ff00" stroke="#00ff00" points="3991.2446,-674.4936 3981.5039,-670.3258 3986.5195,-679.6583 3991.2446,-674.4936"/>
</g>
<!-- n23 -->
<g id="node20" class="node">
<title>n23</title>
<path fill="#ffffff" stroke="#f5f5dc" stroke-width="2" d="M4302.5,-388C4302.5,-388 4125.5,-388 4125.5,-388 4119.5,-388 4113.5,-382 4113.5,-376 4113.5,-376 4113.5,-348 4113.5,-348 4113.5,-342 4119.5,-336 4125.5,-336 4125.5,-336 4302.5,-336 4302.5,-336 4308.5,-336 4314.5,-342 4314.5,-348 4314.5,-348 4314.5,-376 4314.5,-376 4314.5,-382 4308.5,-388 4302.5,-388"/>
<text text-anchor="start" x="4161.1645" y="-374" font-family="arial" font-weight="bold" font-size="10.00" fill="#000000">Some Main Culm as ML</text>
<text text-anchor="start" x="4123.929" y="-357" font-family="arial" font-size="10.00" fill="#000000">Some part of the main Culm is ML in age</text>
<text text-anchor="start" x="4178.382" y="-345" font-family="arial" font-size="10.00" fill="#000000"> #pri #chron&#45;hyp</text>
</g>
<!-- n23&#45;&gt;n46 -->
<g id="edge4" class="edge">
<title>n23&#45;&gt;n46</title>
<path fill="none" stroke="#ff0000" d="M4212.1752,-388.1861C4205.9199,-477.9494 4185.288,-774.017 4177.2479,-889.3928"/>
<polygon fill="#ff0000" stroke="#ff0000" points="4173.7363,-889.4391 4176.5325,-899.6583 4180.7193,-889.9258 4173.7363,-889.4391"/>
</g>
<!-- n23&#45;&gt;n48 -->
<g id="edge14" class="edge">
<title>n23&#45;&gt;n48</title>
<path fill="none" stroke="#ff0000" d="M4190.9489,-388.215C4142.3274,-443.5101 4029.7892,-571.4947 3981.5819,-626.3186"/>
<polygon fill="#ff0000" stroke="#ff0000" points="3978.9264,-624.0383 3974.9514,-633.8592 3984.1832,-628.6607 3978.9264,-624.0383"/>
</g>
<!-- n24 -->
<g id="node21" class="node">
<title>n24</title>
<path fill="#ffffff" stroke="#f5f5dc" stroke-width="2" d="M3869,-388C3869,-388 3697,-388 3697,-388 3691,-388 3685,-382 3685,-376 3685,-376 3685,-348 3685,-348 3685,-342 3691,-336 3697,-336 3697,-336 3869,-336 3869,-336 3875,-336 3881,-342 3881,-348 3881,-348 3881,-376 3881,-376 3881,-382 3875,-388 3869,-388"/>
<text text-anchor="start" x="3725.775" y="-374" font-family="arial" font-weight="bold" font-size="10.00" fill="#000000">Some Main Culm as ORS</text>
<text text-anchor="start" x="3698.2675" y="-357" font-family="arial" font-size="10.00" fill="#000000">Some part of the main Culm is ORS in</text>
<text text-anchor="start" x="3737.154" y="-345" font-family="arial" font-size="10.00" fill="#000000"> age #pri #chron&#45;hyp</text>
</g>
<!-- n24&#45;&gt;n46 -->
<g id="edge5" class="edge">
<title>n24&#45;&gt;n46</title>
<path fill="none" stroke="#ff0000" d="M3823.6138,-388.1163C3871.5462,-419.0095 3945.49,-466.9185 3951,-472 4012.2354,-528.4738 4030.1125,-544.8259 4066,-620 4078.5864,-646.365 4073.4866,-655.7674 4081,-684 4095.7907,-739.5778 4098.2147,-753.9982 4118,-808 4128.2028,-835.8474 4141.434,-866.293 4152.4735,-890.5025"/>
<polygon fill="#ff0000" stroke="#ff0000" points="4149.3866,-892.1673 4156.7417,-899.7931 4155.7475,-889.245 4149.3866,-892.1673"/>
</g>
<!-- n24&#45;&gt;n48 -->
<g id="edge15" class="edge">
<title>n24&#45;&gt;n48</title>
<path fill="none" stroke="#ff0000" d="M3825.6571,-388.2137C3864.8726,-413.2038 3918.858,-450.1686 3932,-472 3960.5535,-519.4329 3962.67,-586.2515 3961.1618,-623.7034"/>
<polygon fill="#ff0000" stroke="#ff0000" points="3957.6563,-623.7204 3960.6311,-633.889 3964.6468,-624.0846 3957.6563,-623.7204"/>
</g>
<!-- n25 -->
<g id="node22" class="node">
<title>n25</title>
<path fill="#ffffff" stroke="#f5f5dc" stroke-width="2" d="M4083,-388C4083,-388 3911,-388 3911,-388 3905,-388 3899,-382 3899,-376 3899,-376 3899,-348 3899,-348 3899,-342 3905,-336 3911,-336 3911,-336 4083,-336 4083,-336 4089,-336 4095,-342 4095,-348 4095,-348 4095,-376 4095,-376 4095,-382 4089,-388 4083,-388"/>
<text text-anchor="start" x="3943.105" y="-374" font-family="arial" font-weight="bold" font-size="10.00" fill="#000000">Some Main Culm as SIL</text>
<text text-anchor="start" x="3915.5975" y="-357" font-family="arial" font-size="10.00" fill="#000000">Some part of the main Culm is SIL in</text>
<text text-anchor="start" x="3951.154" y="-345" font-family="arial" font-size="10.00" fill="#000000"> age #pri #chron&#45;hyp</text>
</g>
<!-- n25&#45;&gt;n46 -->
<g id="edge6" class="edge">
<title>n25&#45;&gt;n46</title>
<path fill="none" stroke="#ff0000" d="M4005.8344,-388.2911C4021.4215,-434.8611 4054.6481,-534.9591 4081,-620 4110.6634,-715.7274 4143.2951,-828.4742 4160.9307,-890.0808"/>
<polygon fill="#ff0000" stroke="#ff0000" points="4157.619,-891.2301 4163.7336,-899.8825 4164.3493,-889.3056 4157.619,-891.2301"/>
</g>
<!-- n25&#45;&gt;n48 -->
<g id="edge16" class="edge">
<title>n25&#45;&gt;n48</title>
<path fill="none" stroke="#ff0000" d="M3993.5649,-388.215C3986.4233,-442.7169 3970.0281,-567.8379 3962.6801,-623.9147"/>
<polygon fill="#ff0000" stroke="#ff0000" points="3959.2061,-623.4892 3961.3771,-633.8592 3966.1467,-624.3987 3959.2061,-623.4892"/>
</g>
<!-- n26 -->
<g id="node23" class="node">
<title>n26</title>
<path fill="#ffffff" stroke="#f5f5dc" stroke-width="2" d="M4025,-808C4025,-808 3853,-808 3853,-808 3847,-808 3841,-802 3841,-796 3841,-796 3841,-768 3841,-768 3841,-762 3847,-756 3853,-756 3853,-756 4025,-756 4025,-756 4031,-756 4037,-762 4037,-768 4037,-768 4037,-796 4037,-796 4037,-802 4031,-808 4025,-808"/>
<text text-anchor="start" x="3881.5" y="-794" font-family="arial" font-weight="bold" font-size="10.00" fill="#000000">Some Main Culm as CAM</text>
<text text-anchor="start" x="3853.9925" y="-777" font-family="arial" font-size="10.00" fill="#000000">Some part of the main Culm is CAM in</text>
<text text-anchor="start" x="3893.154" y="-765" font-family="arial" font-size="10.00" fill="#000000"> age #pri #chron&#45;hyp</text>
</g>
<!-- n26&#45;&gt;n48 -->
<g id="edge17" class="edge">
<title>n26&#45;&gt;n48</title>
<path fill="none" stroke="#ff0000" d="M3943.0473,-755.6926C3946.4172,-733.7879 3951.2052,-702.6659 3954.6553,-680.2405"/>
<polygon fill="#ff0000" stroke="#ff0000" points="3958.1215,-680.7274 3956.1829,-670.3115 3951.2029,-679.6629 3958.1215,-680.7274"/>
</g>
<!-- n27 -->
<g id="node24" class="node">
<title>n27</title>
<path fill="#ffffff" stroke="#f5f5dc" stroke-width="2" d="M4303.5,-1134C4303.5,-1134 4124.5,-1134 4124.5,-1134 4118.5,-1134 4112.5,-1128 4112.5,-1122 4112.5,-1122 4112.5,-1082 4112.5,-1082 4112.5,-1076 4118.5,-1070 4124.5,-1070 4124.5,-1070 4303.5,-1070 4303.5,-1070 4309.5,-1070 4315.5,-1076 4315.5,-1082 4315.5,-1082 4315.5,-1122 4315.5,-1122 4315.5,-1128 4309.5,-1134 4303.5,-1134"/>
<text text-anchor="start" x="4122.557" y="-1120" font-family="arial" font-weight="bold" font-size="10.00" fill="#000000">Main Culm as Post&#45;Primary and Pre&#45;NRS</text>
<text text-anchor="start" x="4134.487" y="-1103" font-family="arial" font-size="10.00" fill="#000000">The main Culm strata are older than</text>
<text text-anchor="start" x="4130.3165" y="-1091" font-family="arial" font-size="10.00" fill="#000000"> Primary strata and younger than New</text>
<text text-anchor="start" x="4128.6415" y="-1079" font-family="arial" font-size="10.00" fill="#000000"> Red Sandstone strata #pri #chron&#45;hyp</text>
</g>
<!-- n27&#45;&gt;n46 -->
<g id="edge73" class="edge">
<title>n27&#45;&gt;n46</title>
<path fill="none" stroke="#00ff00" d="M4206.2876,-1069.9935C4200.2825,-1045.0724 4191.8644,-1010.1373 4185.1294,-982.1871"/>
<polygon fill="#00ff00" stroke="#00ff00" points="4188.4771,-981.1389 4182.7318,-972.2371 4181.6719,-982.7788 4188.4771,-981.1389"/>
</g>
<!-- n28 -->
<g id="node25" class="node">
<title>n28</title>
<path fill="#ffffff" stroke="#ff8c00" stroke-width="2" d="M3911,-536C3911,-536 3733,-536 3733,-536 3727,-536 3721,-530 3721,-524 3721,-524 3721,-496 3721,-496 3721,-490 3727,-484 3733,-484 3733,-484 3911,-484 3911,-484 3917,-484 3923,-490 3923,-496 3923,-496 3923,-524 3923,-524 3923,-530 3917,-536 3911,-536"/>
<text text-anchor="start" x="3782.282" y="-522" font-family="arial" font-weight="bold" font-size="10.00" fill="#000000">Main Culm as CM</text>
<text text-anchor="start" x="3730.599" y="-505" font-family="arial" font-size="10.00" fill="#000000">The whole of the main Culm is CM in age</text>
<text text-anchor="start" x="3779.2125" y="-493" font-family="arial" font-size="10.00" fill="#000000"> #COA #chron&#45;hyp </text>
</g>
<!-- n28&#45;&gt;n22 -->
<g id="edge9" class="edge">
<title>n28&#45;&gt;n22</title>
<path fill="none" stroke="#00ff00" d="M3817.9439,-536.4019C3810.841,-589.5076 3799.7759,-712.3395 3832,-808 3844.5186,-845.1627 3862.9001,-846.3285 3883,-880 3920.8963,-943.4842 3957.4937,-1021.8008 3977.4517,-1066.4113"/>
<polygon fill="#00ff00" stroke="#00ff00" points="3974.3072,-1067.954 3981.5702,-1075.6677 3980.7027,-1065.1084 3974.3072,-1067.954"/>
</g>
<!-- n28&#45;&gt;n23 -->
<g id="edge10" class="edge">
<title>n28&#45;&gt;n23</title>
<path fill="none" stroke="#ff0000" d="M3933.014,-486.3307C3985.9999,-473.1189 4049.5639,-454.4301 4104,-430.4 4126.5803,-420.4322 4150.0185,-406.4384 4169.4283,-393.7031"/>
<polygon fill="#ff0000" stroke="#ff0000" points="3932.1219,-482.9457 3923.248,-488.734 3933.7947,-489.7429 3932.1219,-482.9457"/>
<polygon fill="#ff0000" stroke="#ff0000" points="4171.3831,-396.6064 4177.7647,-388.1491 4167.5019,-390.7809 4171.3831,-396.6064"/>
</g>
<!-- n28&#45;&gt;n24 -->
<g id="edge11" class="edge">
<title>n28&#45;&gt;n24</title>
<path fill="none" stroke="#ff0000" d="M3812.4786,-473.8674C3806.4102,-450.8386 3798.5769,-421.1123 3792.5106,-398.0915"/>
<polygon fill="#ff0000" stroke="#ff0000" points="3809.1847,-475.1032 3815.1174,-483.8813 3815.9536,-473.3195 3809.1847,-475.1032"/>
<polygon fill="#ff0000" stroke="#ff0000" points="3795.8777,-397.1335 3789.945,-388.3555 3789.1088,-398.9172 3795.8777,-397.1335"/>
</g>
<!-- n28&#45;&gt;n25 -->
<g id="edge12" class="edge">
<title>n28&#45;&gt;n25</title>
<path fill="none" stroke="#ff0000" d="M3860.6631,-477.3021C3889.6694,-452.771 3929.2097,-419.3312 3958.2395,-394.7803"/>
<polygon fill="#ff0000" stroke="#ff0000" points="3858.2591,-474.7513 3852.8837,-483.8813 3862.7793,-480.0962 3858.2591,-474.7513"/>
<polygon fill="#ff0000" stroke="#ff0000" points="3960.7558,-397.2361 3966.1313,-388.1061 3956.2356,-391.8912 3960.7558,-397.2361"/>
</g>
<!-- n28&#45;&gt;n26 -->
<g id="edge13" class="edge">
<title>n28&#45;&gt;n26</title>
<path fill="none" stroke="#ff0000" d="M3822.5161,-546.2803C3824.3201,-582.749 3830.7135,-639.7498 3852,-684 3863.7364,-708.3976 3883.3606,-731.2888 3901.0033,-748.8024"/>
<polygon fill="#ff0000" stroke="#ff0000" points="3826.0063,-545.9637 3822.1061,-536.1128 3819.012,-546.2457 3826.0063,-545.9637"/>
<polygon fill="#ff0000" stroke="#ff0000" points="3898.7923,-751.533 3908.4144,-755.9676 3903.6579,-746.5005 3898.7923,-751.533"/>
</g>
<!-- n53 -->
<g id="node51" class="node">
<title>n53</title>
<path fill="#ff8c00" stroke="#000000" d="M3636,-400C3636,-400 3464,-400 3464,-400 3458,-400 3452,-394 3452,-388 3452,-388 3452,-336 3452,-336 3452,-330 3458,-324 3464,-324 3464,-324 3636,-324 3636,-324 3642,-324 3648,-330 3648,-336 3648,-336 3648,-388 3648,-388 3648,-394 3642,-400 3636,-400"/>
<text text-anchor="start" x="3494.4305" y="-386" font-family="arial" font-weight="bold" font-size="10.00" fill="#000000">Culm as Youngest Strata</text>
<text text-anchor="start" x="3463.599" y="-369" font-family="arial" font-size="10.00" fill="#000000">If, the non&#45;Culm strata are Cambrian in</text>
<text text-anchor="start" x="3464.144" y="-357" font-family="arial" font-size="10.00" fill="#000000"> age, then the Culm strata &#45; being Coal</text>
<text text-anchor="start" x="3469.9755" y="-345" font-family="arial" font-size="10.00" fill="#000000"> Measures in age &#45; are the youngest</text>
<text text-anchor="start" x="3498.5995" y="-333" font-family="arial" font-size="10.00" fill="#000000"> Devonian strata #COA</text>
</g>
<!-- n28&#45;&gt;n53 -->
<g id="edge74" class="edge">
<title>n28&#45;&gt;n53</title>
<path fill="none" stroke="#00ff00" d="M3768.8679,-483.8954C3738.5024,-468.7263 3699.845,-448.9908 3666,-430.4 3651.6608,-422.5236 3636.4934,-413.8425 3622.0221,-405.385"/>
<polygon fill="#00ff00" stroke="#00ff00" points="3623.5111,-402.2007 3613.1151,-400.1572 3619.9677,-408.2376 3623.5111,-402.2007"/>
</g>
<!-- n55 -->
<g id="node54" class="node">
<title>n55</title>
<path fill="#ff8c00" stroke="#000000" d="M2630,-400C2630,-400 2458,-400 2458,-400 2452,-400 2446,-394 2446,-388 2446,-388 2446,-336 2446,-336 2446,-330 2452,-324 2458,-324 2458,-324 2630,-324 2630,-324 2636,-324 2642,-330 2642,-336 2642,-336 2642,-388 2642,-388 2642,-394 2636,-400 2630,-400"/>
<text text-anchor="start" x="2470.375" y="-386" font-family="arial" font-weight="bold" font-size="10.00" fill="#000000">Postulating A Major Gap &#45; COA.1</text>
<text text-anchor="start" x="2457.043" y="-369" font-family="arial" font-size="10.00" fill="#000000">If the Culm strata are Coal Measures in</text>
<text text-anchor="start" x="2465.6455" y="-357" font-family="arial" font-size="10.00" fill="#000000"> age and juxtaposed with Cambrian</text>
<text text-anchor="start" x="2466.7575" y="-345" font-family="arial" font-size="10.00" fill="#000000"> strata, then there is a major gap in</text>
<text text-anchor="start" x="2485.9255" y="-333" font-family="arial" font-size="10.00" fill="#000000"> the local sequence #COA</text>
</g>
<!-- n28&#45;&gt;n55 -->
<g id="edge75" class="edge">
<title>n28&#45;&gt;n55</title>
<path fill="none" stroke="#00ff00" d="M3720.9744,-493.493C3670.3729,-485.8089 3608.0877,-477.2301 3552,-472 3352.4303,-453.3903 2842.0361,-491.0596 2651,-430.4 2633.447,-424.8264 2615.9568,-415.6077 2600.3573,-405.716"/>
<polygon fill="#00ff00" stroke="#00ff00" points="2602.1792,-402.7253 2591.897,-400.1702 2598.3416,-408.5797 2602.1792,-402.7253"/>
</g>
<!-- n56 -->
<g id="node55" class="node">
<title>n56</title>
<path fill="#ff8c00" stroke="#000000" d="M2844,-400C2844,-400 2672,-400 2672,-400 2666,-400 2660,-394 2660,-388 2660,-388 2660,-336 2660,-336 2660,-330 2666,-324 2672,-324 2672,-324 2844,-324 2844,-324 2850,-324 2856,-330 2856,-336 2856,-336 2856,-388 2856,-388 2856,-394 2850,-400 2844,-400"/>
<text text-anchor="start" x="2695.4825" y="-386" font-family="arial" font-weight="bold" font-size="10.00" fill="#000000">Postulating A Gap &#45; COA.2a</text>
<text text-anchor="start" x="2671.043" y="-369" font-family="arial" font-size="10.00" fill="#000000">If the Culm strata are Coal Measures in</text>
<text text-anchor="start" x="2674.9175" y="-357" font-family="arial" font-size="10.00" fill="#000000"> age and juxtaposed with Silurian and</text>
<text text-anchor="start" x="2672.7085" y="-345" font-family="arial" font-size="10.00" fill="#000000"> Cambrian strata, then there is a major</text>
<text text-anchor="start" x="2684.919" y="-333" font-family="arial" font-size="10.00" fill="#000000"> gap in the local sequence #COA</text>
</g>
<!-- n28&#45;&gt;n56 -->
<g id="edge76" class="edge">
<title>n28&#45;&gt;n56</title>
<path fill="none" stroke="#00ff00" d="M3720.7549,-492.7198C3680.1514,-485.9719 3632.8983,-478.3475 3590,-472 3330.8472,-433.6541 3025.3028,-394.91 2866.3732,-375.243"/>
<polygon fill="#00ff00" stroke="#00ff00" points="2866.4727,-371.7288 2856.1188,-373.9754 2865.6139,-378.6759 2866.4727,-371.7288"/>
</g>
<!-- n46&#45;&gt;n26 -->
<g id="edge54" class="edge">
<title>n46&#45;&gt;n26</title>
<path fill="none" stroke="#00ff00" d="M4118.9029,-899.8938C4078.9219,-873.6935 4025.3615,-838.5943 3987.1011,-813.5216"/>
<polygon fill="#00ff00" stroke="#00ff00" points="3988.9777,-810.5668 3978.6953,-808.0131 3985.1409,-816.4217 3988.9777,-810.5668"/>
</g>
<!-- n47&#45;&gt;n3 -->
<g id="edge8" class="edge">
<title>n47&#45;&gt;n3</title>
<path fill="none" stroke="#ff0000" d="M3769.6748,-879.6422C3755.6414,-781.8477 3712.766,-580.7813 3590,-472 3536.2941,-424.4119 3499.3383,-460.0625 3434,-430.4 3332.3114,-384.2351 3227.2709,-307.0932 3165.8775,-258.4661"/>
<polygon fill="#ff0000" stroke="#ff0000" points="3167.8793,-255.586 3157.8764,-252.0942 3163.5185,-261.0618 3167.8793,-255.586"/>
</g>
<!-- n48&#45;&gt;n28 -->
<g id="edge55" class="edge">
<title>n48&#45;&gt;n28</title>
<path fill="none" stroke="#00ff00" d="M3941.3701,-633.7267C3919.4115,-610.9666 3881.4752,-571.6458 3854.2587,-543.4361"/>
<polygon fill="#00ff00" stroke="#00ff00" points="3856.7004,-540.9259 3847.2383,-536.1594 3851.6627,-545.7862 3856.7004,-540.9259"/>
</g>
<!-- n20 -->
<g id="node29" class="node">
<title>n20</title>
<path fill="#ffffff" stroke="#ff8c00" stroke-width="2" d="M5420,-1300C5420,-1300 5248,-1300 5248,-1300 5242,-1300 5236,-1294 5236,-1288 5236,-1288 5236,-1248 5236,-1248 5236,-1242 5242,-1236 5248,-1236 5248,-1236 5420,-1236 5420,-1236 5426,-1236 5432,-1242 5432,-1248 5432,-1248 5432,-1288 5432,-1288 5432,-1294 5426,-1300 5420,-1300"/>
<text text-anchor="start" x="5249.5475" y="-1286" font-family="arial" font-weight="bold" font-size="10.00" fill="#000000">CM and pre&#45;ORS Sufficiently Different</text>
<text text-anchor="start" x="5258.435" y="-1269" font-family="arial" font-size="10.00" fill="#000000">Pre&#45;ORS strata and CM strata are</text>
<text text-anchor="start" x="5254.257" y="-1257" font-family="arial" font-size="10.00" fill="#000000"> suffienciently different in age #COA</text>
<text text-anchor="start" x="5321.772" y="-1245" font-family="arial" font-size="10.00" fill="#000000"> #aux</text>
</g>
<!-- n45 -->
<g id="node31" class="node">
<title>n45</title>
<path fill="#ff8c00" stroke="#000000" d="M5311,-1140C5311,-1140 5139,-1140 5139,-1140 5133,-1140 5127,-1134 5127,-1128 5127,-1128 5127,-1076 5127,-1076 5127,-1070 5133,-1064 5139,-1064 5139,-1064 5311,-1064 5311,-1064 5317,-1064 5323,-1070 5323,-1076 5323,-1076 5323,-1128 5323,-1128 5323,-1134 5317,-1140 5311,-1140"/>
<text text-anchor="start" x="5143.051" y="-1126" font-family="arial" font-weight="bold" font-size="10.00" fill="#000000">Lyellian Principles, Pre&#45;ORS and CM</text>
<text text-anchor="start" x="5159.7135" y="-1109" font-family="arial" font-size="10.00" fill="#000000">If CM and pre&#45;ORS strata are</text>
<text text-anchor="start" x="5147.7525" y="-1097" font-family="arial" font-size="10.00" fill="#000000"> suffienciently different in age, then</text>
<text text-anchor="start" x="5152.21" y="-1085" font-family="arial" font-size="10.00" fill="#000000"> they do not support similar fossil</text>
<text text-anchor="start" x="5191.66" y="-1073" font-family="arial" font-size="10.00" fill="#000000"> species #COA</text>
</g>
<!-- n20&#45;&gt;n45 -->
<g id="edge71" class="edge">
<title>n20&#45;&gt;n45</title>
<path fill="none" stroke="#00ff00" d="M5312.9837,-1235.9935C5296.6691,-1211.1475 5273.8187,-1176.3477 5255.4936,-1148.4399"/>
<polygon fill="#00ff00" stroke="#00ff00" points="5258.3786,-1146.4567 5249.9641,-1140.0187 5252.5272,-1150.2988 5258.3786,-1146.4567"/>
</g>
<!-- n21 -->
<g id="node30" class="node">
<title>n21</title>
<path fill="#ffffff" stroke="#ff8c00" stroke-width="2" d="M5205.5,-1306C5205.5,-1306 5030.5,-1306 5030.5,-1306 5024.5,-1306 5018.5,-1300 5018.5,-1294 5018.5,-1294 5018.5,-1242 5018.5,-1242 5018.5,-1236 5024.5,-1230 5030.5,-1230 5030.5,-1230 5205.5,-1230 5205.5,-1230 5211.5,-1230 5217.5,-1236 5217.5,-1242 5217.5,-1242 5217.5,-1294 5217.5,-1294 5217.5,-1300 5211.5,-1306 5205.5,-1306"/>
<text text-anchor="start" x="5028.501" y="-1292" font-family="arial" font-weight="bold" font-size="10.00" fill="#000000">Characteristic CM Fossils in French Alps</text>
<text text-anchor="start" x="5044.8785" y="-1275" font-family="arial" font-size="10.00" fill="#000000">The French alpine fossils, closely</text>
<text text-anchor="start" x="5040.7105" y="-1263" font-family="arial" font-size="10.00" fill="#000000"> associated with Oolitic belemnites,</text>
<text text-anchor="start" x="5032.377" y="-1251" font-family="arial" font-size="10.00" fill="#000000"> are characteristic of the CM era #COA</text>
<text text-anchor="start" x="5097.9385" y="-1239" font-family="arial" font-size="10.00" fill="#000000"> #fos&#45;hyp</text>
</g>
<!-- n29 -->
<g id="node32" class="node">
<title>n29</title>
<path fill="#ffffff" stroke="#f5f5dc" stroke-width="2" d="M4576,-1128C4576,-1128 4404,-1128 4404,-1128 4398,-1128 4392,-1122 4392,-1116 4392,-1116 4392,-1088 4392,-1088 4392,-1082 4398,-1076 4404,-1076 4404,-1076 4576,-1076 4576,-1076 4582,-1076 4588,-1082 4588,-1088 4588,-1088 4588,-1116 4588,-1116 4588,-1122 4582,-1128 4576,-1128"/>
<text text-anchor="start" x="4449.9965" y="-1114" font-family="arial" font-weight="bold" font-size="10.00" fill="#000000">Some BCL as CM</text>
<text text-anchor="start" x="4402.482" y="-1097" font-family="arial" font-size="10.00" fill="#000000">Some part of the black Culm Limestone</text>
<text text-anchor="start" x="4424.713" y="-1085" font-family="arial" font-size="10.00" fill="#000000"> is CM in age #pri #chron&#45;hyp</text>
</g>
<!-- n49 -->
<g id="node39" class="node">
<title>n49</title>
<path fill="#f5f5dc" stroke="#000000" d="M4810,-974C4810,-974 4638,-974 4638,-974 4632,-974 4626,-968 4626,-962 4626,-962 4626,-910 4626,-910 4626,-904 4632,-898 4638,-898 4638,-898 4810,-898 4810,-898 4816,-898 4822,-904 4822,-910 4822,-910 4822,-962 4822,-962 4822,-968 4816,-974 4810,-974"/>
<text text-anchor="start" x="4639.252" y="-960" font-family="arial" font-weight="bold" font-size="10.00" fill="#000000">Standard Sequence as Partition &#45; BCL</text>
<text text-anchor="start" x="4657.5985" y="-943" font-family="arial" font-size="10.00" fill="#000000">If some part of the black Culm</text>
<text text-anchor="start" x="4639.547" y="-931" font-family="arial" font-size="10.00" fill="#000000"> Limestone is neiter CM, ML, ORS nor</text>
<text text-anchor="start" x="4641.479" y="-919" font-family="arial" font-size="10.00" fill="#000000"> SIL in age, then it is CAM in age #pri</text>
<text text-anchor="start" x="4697.6045" y="-907" font-family="arial" font-size="10.00" fill="#000000"> #chron&#45;hyp</text>
</g>
<!-- n29&#45;&gt;n49 -->
<g id="edge18" class="edge">
<title>n29&#45;&gt;n49</title>
<path fill="none" stroke="#ff0000" d="M4526.8199,-1075.8799C4562.8979,-1050.2861 4618.5744,-1010.7891 4661.5755,-980.284"/>
<polygon fill="#ff0000" stroke="#ff0000" points="4663.8661,-982.9504 4669.9972,-974.3097 4659.8159,-977.2411 4663.8661,-982.9504"/>
</g>
<!-- n50 -->
<g id="node40" class="node">
<title>n50</title>
<path fill="#ff8c00" stroke="#000000" d="M4674,-670C4674,-670 4502,-670 4502,-670 4496,-670 4490,-664 4490,-658 4490,-658 4490,-646 4490,-646 4490,-640 4496,-634 4502,-634 4502,-634 4674,-634 4674,-634 4680,-634 4686,-640 4686,-646 4686,-646 4686,-658 4686,-658 4686,-664 4680,-670 4674,-670"/>
<text text-anchor="start" x="4529.097" y="-650" font-family="arial" font-weight="bold" font-size="10.00" fill="#000000">Redating the BCL &#45; COA.1</text>
</g>
<!-- n29&#45;&gt;n50 -->
<g id="edge77" class="edge">
<title>n29&#45;&gt;n50</title>
<path fill="none" stroke="#00ff00" d="M4503.1331,-1075.7135C4527.4918,-1025.3212 4578.8444,-910.9719 4597,-808 4604.7532,-764.0267 4598.8162,-712.1113 4593.5882,-680.644"/>
<polygon fill="#00ff00" stroke="#00ff00" points="4596.9685,-679.6571 4591.7921,-670.413 4590.074,-680.8675 4596.9685,-679.6571"/>
</g>
<!-- n30 -->
<g id="node33" class="node">
<title>n30</title>
<path fill="#ffffff" stroke="#f5f5dc" stroke-width="2" d="M4554,-388C4554,-388 4382,-388 4382,-388 4376,-388 4370,-382 4370,-376 4370,-376 4370,-348 4370,-348 4370,-342 4376,-336 4382,-336 4382,-336 4554,-336 4554,-336 4560,-336 4566,-342 4566,-348 4566,-348 4566,-376 4566,-376 4566,-382 4560,-388 4554,-388"/>
<text text-anchor="start" x="4428.8265" y="-374" font-family="arial" font-weight="bold" font-size="10.00" fill="#000000">Some BCL as ML</text>
<text text-anchor="start" x="4380.482" y="-357" font-family="arial" font-size="10.00" fill="#000000">Some part of the black Culm Limestone</text>
<text text-anchor="start" x="4403.543" y="-345" font-family="arial" font-size="10.00" fill="#000000"> is ML in age #pri #chron&#45;hyp</text>
</g>
<!-- n30&#45;&gt;n49 -->
<g id="edge19" class="edge">
<title>n30&#45;&gt;n49</title>
<path fill="none" stroke="#ff0000" d="M4504.3982,-388.2105C4558.7538,-429.9498 4658.6343,-517.3714 4695,-620 4699.3983,-632.4125 4713.4071,-802.6021 4720.2145,-887.9306"/>
<polygon fill="#ff0000" stroke="#ff0000" points="4716.7255,-888.2087 4721.0079,-897.8995 4723.7034,-887.6533 4716.7255,-888.2087"/>
</g>
<!-- n30&#45;&gt;n50 -->
<g id="edge27" class="edge">
<title>n30&#45;&gt;n50</title>
<path fill="none" stroke="#ff0000" d="M4509.0382,-388.0366C4535.753,-407.5422 4568.4286,-436.856 4584,-472 4606.0697,-521.8103 4599.9417,-587.2326 4593.782,-623.9192"/>
<polygon fill="#ff0000" stroke="#ff0000" points="4590.3123,-623.4387 4591.984,-633.9008 4597.2014,-624.6796 4590.3123,-623.4387"/>
</g>
<!-- n31 -->
<g id="node34" class="node">
<title>n31</title>
<path fill="#ffffff" stroke="#f5f5dc" stroke-width="2" d="M4768,-388C4768,-388 4596,-388 4596,-388 4590,-388 4584,-382 4584,-376 4584,-376 4584,-348 4584,-348 4584,-342 4590,-336 4596,-336 4596,-336 4768,-336 4768,-336 4774,-336 4780,-342 4780,-348 4780,-348 4780,-376 4780,-376 4780,-382 4774,-388 4768,-388"/>
<text text-anchor="start" x="4638.937" y="-374" font-family="arial" font-weight="bold" font-size="10.00" fill="#000000">Some BCL as ORS</text>
<text text-anchor="start" x="4594.482" y="-357" font-family="arial" font-size="10.00" fill="#000000">Some part of the black Culm Limestone</text>
<text text-anchor="start" x="4613.6535" y="-345" font-family="arial" font-size="10.00" fill="#000000"> is ORS in age #pri #chron&#45;hyp</text>
</g>
<!-- n31&#45;&gt;n49 -->
<g id="edge20" class="edge">
<title>n31&#45;&gt;n49</title>
<path fill="none" stroke="#ff0000" d="M4685.4179,-388.3188C4691.3457,-434.9316 4703.5185,-535.0937 4710,-620 4717.2111,-714.4641 4721.0611,-825.1192 4722.8052,-887.2423"/>
<polygon fill="#ff0000" stroke="#ff0000" points="4719.3142,-887.6238 4723.087,-897.5241 4726.3116,-887.432 4719.3142,-887.6238"/>
</g>
<!-- n31&#45;&gt;n50 -->
<g id="edge28" class="edge">
<title>n31&#45;&gt;n50</title>
<path fill="none" stroke="#ff0000" d="M4673.5027,-388.215C4655.7999,-442.8302 4615.1114,-568.3585 4596.9904,-624.2635"/>
<polygon fill="#ff0000" stroke="#ff0000" points="4593.6342,-623.2672 4593.8801,-633.8592 4600.2931,-625.4257 4593.6342,-623.2672"/>
</g>
<!-- n32 -->
<g id="node35" class="node">
<title>n32</title>
<path fill="#ffffff" stroke="#f5f5dc" stroke-width="2" d="M4982,-388C4982,-388 4810,-388 4810,-388 4804,-388 4798,-382 4798,-376 4798,-376 4798,-348 4798,-348 4798,-342 4804,-336 4810,-336 4810,-336 4982,-336 4982,-336 4988,-336 4994,-342 4994,-348 4994,-348 4994,-376 4994,-376 4994,-382 4988,-388 4982,-388"/>
<text text-anchor="start" x="4856.267" y="-374" font-family="arial" font-weight="bold" font-size="10.00" fill="#000000">Some BCL as SIL</text>
<text text-anchor="start" x="4808.482" y="-357" font-family="arial" font-size="10.00" fill="#000000">Some part of the black Culm Limestone</text>
<text text-anchor="start" x="4830.9835" y="-345" font-family="arial" font-size="10.00" fill="#000000"> is SIL in age #pri #chron&#45;hyp</text>
</g>
<!-- n32&#45;&gt;n49 -->
<g id="edge21" class="edge">
<title>n32&#45;&gt;n49</title>
<path fill="none" stroke="#ff0000" d="M4888.1268,-388.2744C4861.2899,-477.8349 4773.135,-772.0264 4738.3236,-888.1991"/>
<polygon fill="#ff0000" stroke="#ff0000" points="4734.9364,-887.3099 4735.4186,-897.8937 4741.6418,-889.3192 4734.9364,-887.3099"/>
</g>
<!-- n32&#45;&gt;n50 -->
<g id="edge29" class="edge">
<title>n32&#45;&gt;n50</title>
<path fill="none" stroke="#ff0000" d="M4868.1579,-388.215C4809.19,-443.7367 4672.3867,-572.545 4614.5634,-626.989"/>
<polygon fill="#ff0000" stroke="#ff0000" points="4612.1481,-624.4558 4607.2668,-633.8592 4616.9467,-629.5523 4612.1481,-624.4558"/>
</g>
<!-- n33 -->
<g id="node36" class="node">
<title>n33</title>
<path fill="#ffffff" stroke="#f5f5dc" stroke-width="2" d="M4576,-808C4576,-808 4404,-808 4404,-808 4398,-808 4392,-802 4392,-796 4392,-796 4392,-768 4392,-768 4392,-762 4398,-756 4404,-756 4404,-756 4576,-756 4576,-756 4582,-756 4588,-762 4588,-768 4588,-768 4588,-796 4588,-796 4588,-802 4582,-808 4576,-808"/>
<text text-anchor="start" x="4446.662" y="-794" font-family="arial" font-weight="bold" font-size="10.00" fill="#000000">Some BCL as CAM</text>
<text text-anchor="start" x="4402.482" y="-777" font-family="arial" font-size="10.00" fill="#000000">Some part of the black Culm Limestone</text>
<text text-anchor="start" x="4421.3785" y="-765" font-family="arial" font-size="10.00" fill="#000000"> is CAM in age #pri #chron&#45;hyp</text>
</g>
<!-- n33&#45;&gt;n50 -->
<g id="edge30" class="edge">
<title>n33&#45;&gt;n50</title>
<path fill="none" stroke="#ff0000" d="M4509.8318,-755.6926C4526.7928,-733.1932 4551.0848,-700.9692 4568.0731,-678.4336"/>
<polygon fill="#ff0000" stroke="#ff0000" points="4570.9711,-680.4036 4574.196,-670.3115 4565.3815,-676.1898 4570.9711,-680.4036"/>
</g>
<!-- n34 -->
<g id="node37" class="node">
<title>n34</title>
<path fill="#ffffff" stroke="#f5f5dc" stroke-width="2" d="M4790,-1134C4790,-1134 4618,-1134 4618,-1134 4612,-1134 4606,-1128 4606,-1122 4606,-1122 4606,-1082 4606,-1082 4606,-1076 4612,-1070 4618,-1070 4618,-1070 4790,-1070 4790,-1070 4796,-1070 4802,-1076 4802,-1082 4802,-1082 4802,-1122 4802,-1122 4802,-1128 4796,-1134 4790,-1134"/>
<text text-anchor="start" x="4626.219" y="-1120" font-family="arial" font-weight="bold" font-size="10.00" fill="#000000">BCL as Post&#45;Primary and Pre&#45;NRS</text>
<text text-anchor="start" x="4616.207" y="-1103" font-family="arial" font-size="10.00" fill="#000000">The black Culm Limestone is older than</text>
<text text-anchor="start" x="4619.8165" y="-1091" font-family="arial" font-size="10.00" fill="#000000"> Primary strata and younger than New</text>
<text text-anchor="start" x="4618.1415" y="-1079" font-family="arial" font-size="10.00" fill="#000000"> Red Sandstone strata #pri #chron&#45;hyp</text>
</g>
<!-- n34&#45;&gt;n49 -->
<g id="edge78" class="edge">
<title>n34&#45;&gt;n49</title>
<path fill="none" stroke="#00ff00" d="M4707.8562,-1069.9935C4710.7852,-1045.683 4714.8623,-1011.8431 4718.1863,-984.2537"/>
<polygon fill="#00ff00" stroke="#00ff00" points="4721.6981,-984.3656 4719.4194,-974.0187 4714.7483,-983.5282 4721.6981,-984.3656"/>
</g>
<!-- n35 -->
<g id="node38" class="node">
<title>n35</title>
<path fill="#ffffff" stroke="#ff8c00" stroke-width="2" d="M4562.5,-536C4562.5,-536 4381.5,-536 4381.5,-536 4375.5,-536 4369.5,-530 4369.5,-524 4369.5,-524 4369.5,-496 4369.5,-496 4369.5,-490 4375.5,-484 4381.5,-484 4381.5,-484 4562.5,-484 4562.5,-484 4568.5,-484 4574.5,-490 4574.5,-496 4574.5,-496 4574.5,-524 4574.5,-524 4574.5,-530 4568.5,-536 4562.5,-536"/>
<text text-anchor="start" x="4446.944" y="-522" font-family="arial" font-weight="bold" font-size="10.00" fill="#000000">BCL as CM</text>
<text text-anchor="start" x="4382.2025" y="-505" font-family="arial" font-size="10.00" fill="#000000">The black Culm Limestone is nothing but</text>
<text text-anchor="start" x="4379.702" y="-493" font-family="arial" font-size="10.00" fill="#000000"> Coal Mesaures in age #COA #chron&#45;hyp </text>
</g>
<!-- n35&#45;&gt;n29 -->
<g id="edge22" class="edge">
<title>n35&#45;&gt;n29</title>
<path fill="none" stroke="#00ff00" d="M4459.1172,-536.1012C4438.1781,-580.1388 4397.6282,-672.5691 4383,-756 4362.5077,-872.8763 4430.3764,-1005.4639 4467.466,-1067.0835"/>
<polygon fill="#00ff00" stroke="#00ff00" points="4464.4998,-1068.9418 4472.7008,-1075.6497 4470.4728,-1065.2917 4464.4998,-1068.9418"/>
</g>
<!-- n35&#45;&gt;n30 -->
<g id="edge23" class="edge">
<title>n35&#45;&gt;n30</title>
<path fill="none" stroke="#ff0000" d="M4471.0234,-473.8674C4470.4038,-450.9419 4469.6048,-421.3788 4468.9838,-398.4016"/>
<polygon fill="#ff0000" stroke="#ff0000" points="4467.5251,-473.9795 4471.2941,-483.8813 4474.5225,-473.7903 4467.5251,-473.9795"/>
<polygon fill="#ff0000" stroke="#ff0000" points="4472.4813,-398.2572 4468.7123,-388.3555 4465.4839,-398.4464 4472.4813,-398.2572"/>
</g>
<!-- n35&#45;&gt;n31 -->
<g id="edge24" class="edge">
<title>n35&#45;&gt;n31</title>
<path fill="none" stroke="#ff0000" d="M4517.4308,-477.9821C4552.7418,-453.0963 4601.4847,-418.7441 4636.7498,-393.8906"/>
<polygon fill="#ff0000" stroke="#ff0000" points="4515.2181,-475.2596 4509.0604,-483.8813 4519.2507,-480.9814 4515.2181,-475.2596"/>
<polygon fill="#ff0000" stroke="#ff0000" points="4638.7998,-396.7278 4644.9575,-388.1061 4634.7672,-391.006 4638.7998,-396.7278"/>
</g>
<!-- n35&#45;&gt;n32 -->
<g id="edge25" class="edge">
<title>n35&#45;&gt;n32</title>
<path fill="none" stroke="#ff0000" d="M4584.4716,-490.9691C4646.4048,-478.2338 4723.7215,-458.5705 4789,-430.4 4811.2943,-420.779 4834.2096,-406.7768 4853.0854,-393.9436"/>
<polygon fill="#ff0000" stroke="#ff0000" points="4583.7746,-487.5391 4574.6679,-492.9538 4585.1636,-494.3999 4583.7746,-487.5391"/>
<polygon fill="#ff0000" stroke="#ff0000" points="4855.2263,-396.7184 4861.4571,-388.1494 4851.2425,-390.9625 4855.2263,-396.7184"/>
</g>
<!-- n35&#45;&gt;n33 -->
<g id="edge26" class="edge">
<title>n35&#45;&gt;n33</title>
<path fill="none" stroke="#ff0000" d="M4473.4652,-546.5297C4474.9784,-581.7561 4477.5961,-636.5606 4481,-684 4482.4685,-704.4667 4484.5399,-727.2985 4486.3254,-745.7719"/>
<polygon fill="#ff0000" stroke="#ff0000" points="4476.9502,-546.0991 4473.0314,-536.2557 4469.9565,-546.3945 4476.9502,-546.0991"/>
<polygon fill="#ff0000" stroke="#ff0000" points="4482.8512,-746.2072 4487.3095,-755.8183 4489.8178,-745.5247 4482.8512,-746.2072"/>
</g>
<!-- n35&#45;&gt;n53 -->
<g id="edge79" class="edge">
<title>n35&#45;&gt;n53</title>
<path fill="none" stroke="#00ff00" d="M4383.6273,-483.9411C4365.0621,-479.2858 4345.499,-474.9774 4327,-472 4036.381,-425.2257 3947.4013,-516.7744 3666,-430.4 3647.253,-424.6457 3628.3377,-415.3191 3611.377,-405.3789"/>
<polygon fill="#00ff00" stroke="#00ff00" points="3613.0672,-402.3109 3602.697,-400.1405 3609.4502,-408.3041 3613.0672,-402.3109"/>
</g>
<!-- n35&#45;&gt;n55 -->
<g id="edge80" class="edge">
<title>n35&#45;&gt;n55</title>
<path fill="none" stroke="#00ff00" d="M4386.0258,-483.9744C4366.7726,-479.1282 4346.3253,-474.7344 4327,-472 4142.5576,-445.9026 2829.135,-484.8795 2651,-430.4 2633.2107,-424.9594 2615.5244,-415.6749 2599.8056,-405.6713"/>
<polygon fill="#00ff00" stroke="#00ff00" points="2601.5635,-402.6382 2591.2872,-400.0596 2597.7126,-408.4838 2601.5635,-402.6382"/>
</g>
<!-- n35&#45;&gt;n56 -->
<g id="edge81" class="edge">
<title>n35&#45;&gt;n56</title>
<path fill="none" stroke="#00ff00" d="M4384.8231,-483.9977C4365.9121,-479.2463 4345.9086,-474.8854 4327,-472 3934.2273,-412.0644 3830.2409,-459.6542 3434,-430.4 3233.2135,-415.5761 2999.6749,-390.1146 2866.3074,-374.7892"/>
<polygon fill="#00ff00" stroke="#00ff00" points="2866.425,-371.2797 2856.0902,-373.6124 2865.624,-378.2337 2866.425,-371.2797"/>
</g>
<!-- n49&#45;&gt;n33 -->
<g id="edge56" class="edge">
<title>n49&#45;&gt;n33</title>
<path fill="none" stroke="#00ff00" d="M4666.1573,-897.9326C4626.8146,-872.0404 4575.3612,-838.1779 4538.2316,-813.7422"/>
<polygon fill="#00ff00" stroke="#00ff00" points="4539.8689,-810.6298 4529.5915,-808.0559 4536.0207,-816.4771 4539.8689,-810.6298"/>
</g>
<!-- n50&#45;&gt;n35 -->
<g id="edge57" class="edge">
<title>n50&#45;&gt;n35</title>
<path fill="none" stroke="#00ff00" d="M4573.0725,-633.7267C4554.638,-611.1603 4522.9043,-572.3139 4499.9043,-544.1587"/>
<polygon fill="#00ff00" stroke="#00ff00" points="4502.4067,-541.6896 4493.3696,-536.1594 4496.9855,-546.1181 4502.4067,-541.6896"/>
</g>
<!-- n36 -->
<g id="node41" class="node">
<title>n36</title>
<path fill="#ffffff" stroke="#f5f5dc" stroke-width="2" d="M3277,-1294C3277,-1294 3105,-1294 3105,-1294 3099,-1294 3093,-1288 3093,-1282 3093,-1282 3093,-1254 3093,-1254 3093,-1248 3099,-1242 3105,-1242 3105,-1242 3277,-1242 3277,-1242 3283,-1242 3289,-1248 3289,-1254 3289,-1254 3289,-1282 3289,-1282 3289,-1288 3283,-1294 3277,-1294"/>
<text text-anchor="start" x="3138.224" y="-1280" font-family="arial" font-weight="bold" font-size="10.00" fill="#000000">Some Non&#45;Culm as CM</text>
<text text-anchor="start" x="3102.933" y="-1263" font-family="arial" font-size="10.00" fill="#000000">Some part of the non&#45;Culm strata is CM</text>
<text text-anchor="start" x="3139.8755" y="-1251" font-family="arial" font-size="10.00" fill="#000000"> in age #pri #chron&#45;hyp</text>
</g>
<!-- n51 -->
<g id="node48" class="node">
<title>n51</title>
<path fill="#f5f5dc" stroke="#000000" d="M3468,-1138C3468,-1138 3296,-1138 3296,-1138 3290,-1138 3284,-1132 3284,-1126 3284,-1126 3284,-1078 3284,-1078 3284,-1072 3290,-1066 3296,-1066 3296,-1066 3468,-1066 3468,-1066 3474,-1066 3480,-1072 3480,-1078 3480,-1078 3480,-1126 3480,-1126 3480,-1132 3474,-1138 3468,-1138"/>
<text text-anchor="start" x="3308.365" y="-1124" font-family="arial" font-weight="bold" font-size="10.00" fill="#000000">Standard Sequence as Partition &#45;</text>
<text text-anchor="start" x="3358.1145" y="-1114" font-family="arial" font-weight="bold" font-size="10.00" fill="#000000"> Non&#45;Culm</text>
<text text-anchor="start" x="3299.7625" y="-1099" font-family="arial" font-size="10.00" fill="#000000">If some part of the non&#45;Culm strata is</text>
<text text-anchor="start" x="3293.9245" y="-1087" font-family="arial" font-size="10.00" fill="#000000"> neiter CM, ML, OR nor SIL in age, then</text>
<text text-anchor="start" x="3309.49" y="-1075" font-family="arial" font-size="10.00" fill="#000000"> it is CAM in age #pri #chron&#45;hyp</text>
</g>
<!-- n36&#45;&gt;n51 -->
<g id="edge31" class="edge">
<title>n36&#45;&gt;n51</title>
<path fill="none" stroke="#ff0000" d="M3221.2645,-1241.6968C3251.1892,-1215.689 3297.4832,-1175.4544 3332.7172,-1144.8321"/>
<polygon fill="#ff0000" stroke="#ff0000" points="3335.258,-1147.2611 3340.5099,-1138.0595 3330.6661,-1141.9776 3335.258,-1147.2611"/>
</g>
<!-- n52 -->
<g id="node49" class="node">
<title>n52</title>
<path fill="#ff8c00" stroke="#000000" d="M3318.5,-800C3318.5,-800 3127.5,-800 3127.5,-800 3121.5,-800 3115.5,-794 3115.5,-788 3115.5,-788 3115.5,-776 3115.5,-776 3115.5,-770 3121.5,-764 3127.5,-764 3127.5,-764 3318.5,-764 3318.5,-764 3324.5,-764 3330.5,-770 3330.5,-776 3330.5,-776 3330.5,-788 3330.5,-788 3330.5,-794 3324.5,-800 3318.5,-800"/>
<text text-anchor="start" x="3125.7085" y="-780" font-family="arial" font-weight="bold" font-size="10.00" fill="#000000">Extending the Non&#45;Culm Upwards &#45; COA.2a</text>
</g>
<!-- n36&#45;&gt;n52 -->
<g id="edge51" class="edge">
<title>n36&#45;&gt;n52</title>
<path fill="none" stroke="#ff0000" d="M3201.2346,-1241.6712C3224.2955,-1179.0335 3276.6728,-1016.1945 3255,-880 3251.1198,-855.616 3242.129,-829.0538 3234.6624,-809.7418"/>
<polygon fill="#ff0000" stroke="#ff0000" points="3237.8773,-808.3544 3230.9319,-800.3537 3231.3721,-810.9394 3237.8773,-808.3544"/>
</g>
<!-- n36&#45;&gt;n53 -->
<g id="edge35" class="edge">
<title>n36&#45;&gt;n53</title>
<path fill="none" stroke="#ff0000" d="M3234.2993,-1241.9567C3253.3101,-1231.4222 3276.223,-1219.9075 3298,-1212 3379.6621,-1182.3475 3430.2535,-1234.4063 3489,-1170.4 3590.9876,-1059.2809 3564.9614,-567.5991 3553.785,-410.4608"/>
<polygon fill="#ff0000" stroke="#ff0000" points="3557.2528,-409.8888 3553.0398,-400.1677 3550.2711,-410.3943 3557.2528,-409.8888"/>
</g>
<!-- n36&#45;&gt;n55 -->
<g id="edge36" class="edge">
<title>n36&#45;&gt;n55</title>
<path fill="none" stroke="#ff0000" d="M3092.9176,-1259.867C2918.3764,-1239.4549 2572,-1169.5282 2572,-936 2572,-936 2572,-936 2572,-652 2572,-566.7645 2559.8678,-468.0868 2551.5755,-410.5953"/>
<polygon fill="#ff0000" stroke="#ff0000" points="2554.9876,-409.7396 2550.0756,-400.3522 2548.0614,-410.7538 2554.9876,-409.7396"/>
</g>
<!-- n37 -->
<g id="node42" class="node">
<title>n37</title>
<path fill="#ffffff" stroke="#f5f5dc" stroke-width="2" d="M3064,-536C3064,-536 2892,-536 2892,-536 2886,-536 2880,-530 2880,-524 2880,-524 2880,-496 2880,-496 2880,-490 2886,-484 2892,-484 2892,-484 3064,-484 3064,-484 3070,-484 3076,-490 3076,-496 3076,-496 3076,-524 3076,-524 3076,-530 3070,-536 3064,-536"/>
<text text-anchor="start" x="2926.054" y="-522" font-family="arial" font-weight="bold" font-size="10.00" fill="#000000">Some Non&#45;Culm as ML</text>
<text text-anchor="start" x="2890.763" y="-505" font-family="arial" font-size="10.00" fill="#000000">Some part of the non&#45;Culm strata is ML</text>
<text text-anchor="start" x="2926.8755" y="-493" font-family="arial" font-size="10.00" fill="#000000"> in age #pri #chron&#45;hyp</text>
</g>
<!-- n37&#45;&gt;n51 -->
<g id="edge32" class="edge">
<title>n37&#45;&gt;n51</title>
<path fill="none" stroke="#ff0000" d="M2972.1244,-536.0713C2955.9062,-615.3542 2919.0165,-856.4106 3035,-992 3066.4292,-1028.742 3184.2558,-1060.8602 3273.9702,-1080.7557"/>
<polygon fill="#ff0000" stroke="#ff0000" points="3273.4174,-1084.2175 3283.9351,-1082.9412 3274.9171,-1077.3801 3273.4174,-1084.2175"/>
</g>
<!-- n37&#45;&gt;n52 -->
<g id="edge50" class="edge">
<title>n37&#45;&gt;n52</title>
<path fill="none" stroke="#ff0000" d="M3014.4216,-536.2159C3034.5732,-549.9571 3060.4448,-566.3806 3085,-578.4 3134.5694,-602.6634 3167.3384,-577.0534 3202,-620 3210.2275,-630.1941 3217.5179,-710.0606 3220.938,-753.7184"/>
<polygon fill="#ff0000" stroke="#ff0000" points="3217.4505,-754.016 3221.7035,-763.7197 3224.4301,-753.4817 3217.4505,-754.016"/>
</g>
<!-- n37&#45;&gt;n53 -->
<g id="edge37" class="edge">
<title>n37&#45;&gt;n53</title>
<path fill="none" stroke="#ff0000" d="M3047.8605,-483.9595C3060.1608,-479.7279 3072.8988,-475.5686 3085,-472 3205.8464,-436.3629 3346.9672,-404.2944 3441.7731,-384.1032"/>
<polygon fill="#ff0000" stroke="#ff0000" points="3442.606,-387.5045 3451.6614,-382.0045 3441.1527,-380.657 3442.606,-387.5045"/>
</g>
<!-- n37&#45;&gt;n55 -->
<g id="edge38" class="edge">
<title>n37&#45;&gt;n55</title>
<path fill="none" stroke="#ff0000" d="M2907.4544,-483.9617C2894.4352,-479.6339 2880.8834,-475.4412 2868,-472 2773.1255,-446.6584 2742.2284,-466.7421 2651,-430.4 2634.8198,-423.9544 2618.4367,-414.9737 2603.5167,-405.6361"/>
<polygon fill="#ff0000" stroke="#ff0000" points="2605.2197,-402.5703 2594.9136,-400.1135 2601.4382,-408.461 2605.2197,-402.5703"/>
</g>
<!-- n38 -->
<g id="node43" class="node">
<title>n38</title>
<path fill="#ffffff" stroke="#f5f5dc" stroke-width="2" d="M3284,-536C3284,-536 3106,-536 3106,-536 3100,-536 3094,-530 3094,-524 3094,-524 3094,-496 3094,-496 3094,-490 3100,-484 3106,-484 3106,-484 3284,-484 3284,-484 3290,-484 3296,-490 3296,-496 3296,-496 3296,-524 3296,-524 3296,-530 3290,-536 3284,-536"/>
<text text-anchor="start" x="3139.1645" y="-522" font-family="arial" font-weight="bold" font-size="10.00" fill="#000000">Some Non&#45;Culm as ORS</text>
<text text-anchor="start" x="3103.8735" y="-505" font-family="arial" font-size="10.00" fill="#000000">Some part of the non&#45;Culm strata is ORS</text>
<text text-anchor="start" x="3143.8755" y="-493" font-family="arial" font-size="10.00" fill="#000000"> in age #pri #chron&#45;hyp</text>
</g>
<!-- n38&#45;&gt;n51 -->
<g id="edge33" class="edge">
<title>n38&#45;&gt;n51</title>
<path fill="none" stroke="#ff0000" d="M3215.4814,-536.2263C3247.9501,-579.349 3310.5667,-669.1369 3340,-756 3374.8846,-858.9509 3381.492,-987.7899 3382.33,-1055.4909"/>
<polygon fill="#ff0000" stroke="#ff0000" points="3378.8329,-1055.8486 3382.4184,-1065.8182 3385.8326,-1055.7886 3378.8329,-1055.8486"/>
</g>
<!-- n38&#45;&gt;n52 -->
<g id="edge49" class="edge">
<title>n38&#45;&gt;n52</title>
<path fill="none" stroke="#ff0000" d="M3201.4349,-536.0375C3206.6179,-558.2084 3213.5838,-590.9873 3217,-620 3222.4999,-666.7091 3223.3761,-721.4673 3223.3215,-753.863"/>
<polygon fill="#ff0000" stroke="#ff0000" points="3219.8212,-753.9312 3223.2726,-763.9481 3226.8211,-753.9652 3219.8212,-753.9312"/>
</g>
<!-- n38&#45;&gt;n53 -->
<g id="edge39" class="edge">
<title>n38&#45;&gt;n53</title>
<path fill="none" stroke="#ff0000" d="M3257.6497,-483.8813C3310.6622,-461.7803 3387.6274,-429.6934 3449.282,-403.9895"/>
<polygon fill="#ff0000" stroke="#ff0000" points="3450.7676,-407.1622 3458.6508,-400.0836 3448.0739,-400.7012 3450.7676,-407.1622"/>
</g>
<!-- n38&#45;&gt;n55 -->
<g id="edge40" class="edge">
<title>n38&#45;&gt;n55</title>
<path fill="none" stroke="#ff0000" d="M3127.6518,-483.9225C3113.7212,-479.3279 3099.0178,-475.0478 3085,-472 2895.6508,-430.8313 2834.1806,-493.5887 2651,-430.4 2634.0126,-424.5401 2616.9962,-415.4784 2601.691,-405.8474"/>
<polygon fill="#ff0000" stroke="#ff0000" points="2603.1832,-402.6432 2592.8905,-400.131 2599.3701,-408.5135 2603.1832,-402.6432"/>
</g>
<!-- n39&#45;&gt;n51 -->
<g id="edge34" class="edge">
<title>n39&#45;&gt;n51</title>
<path fill="none" stroke="#ff0000" d="M3410.6724,-536.1976C3406.0077,-628.2486 3390.3282,-937.6569 3384.346,-1055.7046"/>
<polygon fill="#ff0000" stroke="#ff0000" points="3380.8422,-1055.6945 3383.8315,-1065.8589 3387.8332,-1056.0489 3380.8422,-1055.6945"/>
</g>
<!-- n39&#45;&gt;n52 -->
<g id="edge82" class="edge">
<title>n39&#45;&gt;n52</title>
<path fill="none" stroke="#00ff00" d="M3393.7095,-536.3228C3357.6566,-588.2085 3277.7759,-703.1691 3241.5299,-755.3326"/>
<polygon fill="#00ff00" stroke="#00ff00" points="3238.5263,-753.5216 3235.6943,-763.731 3244.2748,-757.516 3238.5263,-753.5216"/>
</g>
<!-- n39&#45;&gt;n53 -->
<g id="edge41" class="edge">
<title>n39&#45;&gt;n53</title>
<path fill="none" stroke="#ff0000" d="M3436.354,-483.8813C3455.9884,-462.824 3484.0753,-432.7019 3507.4137,-407.6723"/>
<polygon fill="#ff0000" stroke="#ff0000" points="3510.2298,-409.7844 3514.4896,-400.0836 3505.11,-405.0106 3510.2298,-409.7844"/>
</g>
<!-- n39&#45;&gt;n55 -->
<g id="edge42" class="edge">
<title>n39&#45;&gt;n55</title>
<path fill="none" stroke="#ff0000" d="M3347.7503,-483.9419C3333.8547,-479.2254 3319.0968,-474.8926 3305,-472 3019.6904,-413.4562 2927.8191,-520.9545 2651,-430.4 2633.5845,-424.703 2616.1995,-415.4959 2600.6607,-405.6584"/>
<polygon fill="#ff0000" stroke="#ff0000" points="2602.5147,-402.6889 2592.2294,-400.1465 2598.6843,-408.548 2602.5147,-402.6889"/>
</g>
<!-- n40 -->
<g id="node45" class="node">
<title>n40</title>
<path fill="#ffffff" stroke="#f5f5dc" stroke-width="2" d="M3234,-962C3234,-962 3056,-962 3056,-962 3050,-962 3044,-956 3044,-950 3044,-950 3044,-922 3044,-922 3044,-916 3050,-910 3056,-910 3056,-910 3234,-910 3234,-910 3240,-910 3246,-916 3246,-922 3246,-922 3246,-950 3246,-950 3246,-956 3240,-962 3234,-962"/>
<text text-anchor="start" x="3088.8895" y="-948" font-family="arial" font-weight="bold" font-size="10.00" fill="#000000">Some Non&#45;Culm as CAM</text>
<text text-anchor="start" x="3053.5985" y="-931" font-family="arial" font-size="10.00" fill="#000000">Some part of the non&#45;Culm strata is CAM</text>
<text text-anchor="start" x="3093.8755" y="-919" font-family="arial" font-size="10.00" fill="#000000"> in age #pri #chron&#45;hyp</text>
</g>
<!-- n40&#45;&gt;n52 -->
<g id="edge83" class="edge">
<title>n40&#45;&gt;n52</title>
<path fill="none" stroke="#00ff00" d="M3158.2316,-909.876C3172.4458,-881.8121 3194.9261,-837.428 3209.3136,-809.0218"/>
<polygon fill="#00ff00" stroke="#00ff00" points="3212.4629,-810.55 3213.859,-800.0476 3206.2182,-807.3871 3212.4629,-810.55"/>
</g>
<!-- n41 -->
<g id="node46" class="node">
<title>n41</title>
<path fill="#ffffff" stroke="#f5f5dc" stroke-width="2" d="M3496.5,-1300C3496.5,-1300 3319.5,-1300 3319.5,-1300 3313.5,-1300 3307.5,-1294 3307.5,-1288 3307.5,-1288 3307.5,-1248 3307.5,-1248 3307.5,-1242 3313.5,-1236 3319.5,-1236 3319.5,-1236 3496.5,-1236 3496.5,-1236 3502.5,-1236 3508.5,-1242 3508.5,-1248 3508.5,-1248 3508.5,-1288 3508.5,-1288 3508.5,-1294 3502.5,-1300 3496.5,-1300"/>
<text text-anchor="start" x="3317.9465" y="-1286" font-family="arial" font-weight="bold" font-size="10.00" fill="#000000">Non&#45;Culm as Post&#45;Primary and Pre&#45;NRS</text>
<text text-anchor="start" x="3330.7065" y="-1269" font-family="arial" font-size="10.00" fill="#000000">The non&#45;Culm strata are older than</text>
<text text-anchor="start" x="3324.3165" y="-1257" font-family="arial" font-size="10.00" fill="#000000"> Primary strata and younger than New</text>
<text text-anchor="start" x="3322.6415" y="-1245" font-family="arial" font-size="10.00" fill="#000000"> Red Sandstone strata #pri #chron&#45;hyp</text>
</g>
<!-- n41&#45;&gt;n51 -->
<g id="edge84" class="edge">
<title>n41&#45;&gt;n51</title>
<path fill="none" stroke="#00ff00" d="M3402.9869,-1235.9935C3399.0836,-1211.0724 3393.6119,-1176.1373 3389.2341,-1148.1871"/>
<polygon fill="#00ff00" stroke="#00ff00" points="3392.681,-1147.575 3387.6757,-1138.2371 3385.7653,-1148.6583 3392.681,-1147.575"/>
</g>
<!-- n42 -->
<g id="node47" class="node">
<title>n42</title>
<path fill="#ffffff" stroke="#ff8c00" stroke-width="2" d="M3181,-684C3181,-684 3009,-684 3009,-684 3003,-684 2997,-678 2997,-672 2997,-672 2997,-632 2997,-632 2997,-626 3003,-620 3009,-620 3009,-620 3181,-620 3181,-620 3187,-620 3193,-626 3193,-632 3193,-632 3193,-672 3193,-672 3193,-678 3187,-684 3181,-684"/>
<text text-anchor="start" x="3034.716" y="-670" font-family="arial" font-weight="bold" font-size="10.00" fill="#000000">Non&#45;Culm as SIL and CAM</text>
<text text-anchor="start" x="3014.1465" y="-653" font-family="arial" font-size="10.00" fill="#000000">In Devon, the non&#45;Culm strata range</text>
<text text-anchor="start" x="3006.934" y="-641" font-family="arial" font-size="10.00" fill="#000000"> from Cambrian to Silurian in age #COA</text>
<text text-anchor="start" x="3068.6045" y="-629" font-family="arial" font-size="10.00" fill="#000000"> #chron&#45;hyp</text>
</g>
<!-- n42&#45;&gt;n36 -->
<g id="edge43" class="edge">
<title>n42&#45;&gt;n36</title>
<path fill="none" stroke="#ff0000" d="M3076.1751,-693.6925C3049.5711,-758.2852 3007.1522,-886.1363 3035,-992 3060.0172,-1087.1031 3126.0985,-1183.8924 3163.7409,-1233.692"/>
<polygon fill="#ff0000" stroke="#ff0000" points="3079.4926,-694.8319 3080.1355,-684.2566 3073.038,-692.1228 3079.4926,-694.8319"/>
<polygon fill="#ff0000" stroke="#ff0000" points="3161.1234,-1236.0312 3169.9749,-1241.8537 3166.6863,-1231.7821 3161.1234,-1236.0312"/>
</g>
<!-- n42&#45;&gt;n37 -->
<g id="edge44" class="edge">
<title>n42&#45;&gt;n37</title>
<path fill="none" stroke="#ff0000" d="M3061.9017,-611.8294C3044.3206,-590.4917 3022.941,-564.5438 3006.1637,-544.1816"/>
<polygon fill="#ff0000" stroke="#ff0000" points="3059.3907,-614.2859 3068.4509,-619.778 3064.7931,-609.8346 3059.3907,-614.2859"/>
<polygon fill="#ff0000" stroke="#ff0000" points="3008.8057,-541.884 2999.7454,-536.3919 3003.4032,-546.3353 3008.8057,-541.884"/>
</g>
<!-- n42&#45;&gt;n38 -->
<g id="edge45" class="edge">
<title>n42&#45;&gt;n38</title>
<path fill="none" stroke="#ff0000" d="M3123.5114,-611.5138C3138.3716,-590.4123 3156.3591,-564.87 3170.5734,-544.6857"/>
<polygon fill="#ff0000" stroke="#ff0000" points="3120.5877,-609.5867 3117.6915,-619.778 3126.311,-613.6172 3120.5877,-609.5867"/>
<polygon fill="#ff0000" stroke="#ff0000" points="3173.518,-546.5832 3176.4142,-536.3919 3167.7947,-542.5527 3173.518,-546.5832"/>
</g>
<!-- n42&#45;&gt;n39 -->
<g id="edge46" class="edge">
<title>n42&#45;&gt;n39</title>
<path fill="none" stroke="#00ff00" d="M3193.0862,-622.8626C3229.0331,-610.8311 3269.5682,-595.6442 3305,-578.4 3326.3175,-568.0251 3348.6051,-554.2977 3367.2868,-541.8648"/>
<polygon fill="#00ff00" stroke="#00ff00" points="3369.2649,-544.7523 3375.6,-536.2601 3365.3518,-538.9481 3369.2649,-544.7523"/>
</g>
<!-- n42&#45;&gt;n40 -->
<g id="edge47" class="edge">
<title>n42&#45;&gt;n40</title>
<path fill="none" stroke="#00ff00" d="M3095.1622,-684.2351C3095.8157,-715.968 3098.1656,-765.6855 3106,-808 3111.8991,-839.8619 3122.9479,-875.003 3131.7834,-900.3909"/>
<polygon fill="#00ff00" stroke="#00ff00" points="3128.5322,-901.6954 3135.1677,-909.9551 3135.1313,-899.3603 3128.5322,-901.6954"/>
</g>
<!-- n42&#45;&gt;n56 -->
<g id="edge85" class="edge">
<title>n42&#45;&gt;n56</title>
<path fill="none" stroke="#00ff00" d="M2996.8898,-637.4169C2954.2364,-626.9287 2906.1031,-608.9918 2871,-578.4 2831.3196,-543.8192 2843.3266,-518.6752 2819,-472 2808.1525,-451.187 2795.6613,-428.4612 2784.8186,-409.0972"/>
<polygon fill="#00ff00" stroke="#00ff00" points="2787.7534,-407.1753 2779.8042,-400.1711 2781.6505,-410.6038 2787.7534,-407.1753"/>
</g>
<!-- n51&#45;&gt;n40 -->
<g id="edge58" class="edge">
<title>n51&#45;&gt;n40</title>
<path fill="none" stroke="#00ff00" d="M3330.5745,-1065.9805C3288.886,-1036.7809 3230.6831,-996.0144 3190.6321,-967.9617"/>
<polygon fill="#00ff00" stroke="#00ff00" points="3192.5722,-965.0475 3182.3736,-962.1773 3188.5563,-970.781 3192.5722,-965.0475"/>
</g>
<!-- n52&#45;&gt;n42 -->
<g id="edge59" class="edge">
<title>n52&#45;&gt;n42</title>
<path fill="none" stroke="#00ff00" d="M3205.2021,-763.9241C3186.8375,-745.2724 3157.605,-715.5832 3133.8611,-691.4683"/>
<polygon fill="#00ff00" stroke="#00ff00" points="3136.1967,-688.8519 3126.6867,-684.1818 3131.2088,-693.7631 3136.1967,-688.8519"/>
</g>
<!-- n43 -->
<g id="node50" class="node">
<title>n43</title>
<path fill="#ffffff" stroke="#ff8c00" stroke-width="2" d="M3641.5,-246C3641.5,-246 3458.5,-246 3458.5,-246 3452.5,-246 3446.5,-240 3446.5,-234 3446.5,-234 3446.5,-194 3446.5,-194 3446.5,-188 3452.5,-182 3458.5,-182 3458.5,-182 3641.5,-182 3641.5,-182 3647.5,-182 3653.5,-188 3653.5,-194 3653.5,-194 3653.5,-234 3653.5,-234 3653.5,-240 3647.5,-246 3641.5,-246"/>
<text text-anchor="start" x="3479.0935" y="-232" font-family="arial" font-weight="bold" font-size="10.00" fill="#000000">Culm Youngest Devonian Strata</text>
<text text-anchor="start" x="3471.312" y="-215" font-family="arial" font-size="10.00" fill="#000000">In Devon, among all the strata older</text>
<text text-anchor="start" x="3461.028" y="-203" font-family="arial" font-size="10.00" fill="#000000"> than the New Red Sandstone, the Culm</text>
<text text-anchor="start" x="3456.5825" y="-191" font-family="arial" font-size="10.00" fill="#000000"> strata are the youngest #COA #chron&#45;hyp</text>
</g>
<!-- n54 -->
<g id="node52" class="node">
<title>n54</title>
<path fill="#ff8c00" stroke="#000000" d="M3630,-104C3630,-104 3458,-104 3458,-104 3452,-104 3446,-98 3446,-92 3446,-92 3446,-28 3446,-28 3446,-22 3452,-16 3458,-16 3458,-16 3630,-16 3630,-16 3636,-16 3642,-22 3642,-28 3642,-28 3642,-92 3642,-92 3642,-98 3636,-104 3630,-104"/>
<text text-anchor="start" x="3494.55" y="-90" font-family="arial" font-weight="bold" font-size="10.00" fill="#000000">Culm trough &#45; COA.2a</text>
<text text-anchor="start" x="3468.985" y="-73" font-family="arial" font-size="10.00" fill="#000000">Assuming that, originally, younger</text>
<text text-anchor="start" x="3463.1425" y="-61" font-family="arial" font-size="10.00" fill="#000000"> strata rest upon older ones, it holds:</text>
<text text-anchor="start" x="3482.874" y="-49" font-family="arial" font-size="10.00" fill="#000000"> If the Culm strata is not the</text>
<text text-anchor="start" x="3456.473" y="-37" font-family="arial" font-size="10.00" fill="#000000"> youngest, then there is no Culm trough</text>
<text text-anchor="start" x="3528.9975" y="-25" font-family="arial" font-size="10.00" fill="#000000"> #COA</text>
</g>
<!-- n43&#45;&gt;n54 -->
<g id="edge52" class="edge">
<title>n43&#45;&gt;n54</title>
<path fill="none" stroke="#ff0000" d="M3548.7422,-181.7166C3547.9823,-162.2129 3546.9942,-136.8518 3546.1168,-114.3311"/>
<polygon fill="#ff0000" stroke="#ff0000" points="3549.6094,-114.071 3545.7227,-104.2148 3542.6147,-114.3435 3549.6094,-114.071"/>
</g>
<!-- n53&#45;&gt;n43 -->
<g id="edge60" class="edge">
<title>n53&#45;&gt;n43</title>
<path fill="none" stroke="#00ff00" d="M3550,-323.8863C3550,-303.2775 3550,-277.7689 3550,-256.5179"/>
<polygon fill="#00ff00" stroke="#00ff00" points="3553.5001,-256.4678 3550,-246.4678 3546.5001,-256.4678 3553.5001,-256.4678"/>
</g>
<!-- n54&#45;&gt;n17 -->
<g id="edge53" class="edge">
<title>n54&#45;&gt;n17</title>
<path fill="none" stroke="#ff0000" d="M3445.6523,-76.2406C3382.0441,-86.05 3297.3525,-97.8155 3222,-104 2651.9153,-150.789 1211.282,-71.0009 649,-176 637.7592,-178.0991 626.1187,-181.198 614.8368,-184.7358"/>
<polygon fill="#ff0000" stroke="#ff0000" points="613.4493,-181.5071 605.0338,-187.9437 615.6264,-188.16 613.4493,-181.5071"/>
</g>
<!-- n44 -->
<g id="node53" class="node">
<title>n44</title>
<path fill="#ffffff" stroke="#f5f5dc" stroke-width="2" d="M2798,-548C2798,-548 2626,-548 2626,-548 2620,-548 2614,-542 2614,-536 2614,-536 2614,-484 2614,-484 2614,-478 2620,-472 2626,-472 2626,-472 2798,-472 2798,-472 2804,-472 2810,-478 2810,-484 2810,-484 2810,-536 2810,-536 2810,-542 2804,-548 2798,-548"/>
<text text-anchor="start" x="2648.918" y="-534" font-family="arial" font-weight="bold" font-size="10.00" fill="#000000">Gap in a Sequence of Strata</text>
<text text-anchor="start" x="2630.3065" y="-517" font-family="arial" font-size="10.00" fill="#000000">There is a gap in a local sequence of</text>
<text text-anchor="start" x="2656.1535" y="-505" font-family="arial" font-size="10.00" fill="#000000"> strata, iff there are strata</text>
<text text-anchor="start" x="2630.023" y="-493" font-family="arial" font-size="10.00" fill="#000000"> juxtaposed belonging to different but</text>
<text text-anchor="start" x="2626.4255" y="-481" font-family="arial" font-size="10.00" fill="#000000"> not successive geological periods #pri</text>
</g>
<!-- n44&#45;&gt;n55 -->
<g id="edge86" class="edge">
<title>n44&#45;&gt;n55</title>
<path fill="none" stroke="#00ff00" d="M2668.7358,-471.8863C2646.2876,-452.1105 2618.7181,-427.8231 2595.2119,-407.1152"/>
<polygon fill="#00ff00" stroke="#00ff00" points="2597.2265,-404.2255 2587.4092,-400.2415 2592.5992,-409.4781 2597.2265,-404.2255"/>
</g>
<!-- n44&#45;&gt;n56 -->
<g id="edge87" class="edge">
<title>n44&#45;&gt;n56</title>
<path fill="none" stroke="#00ff00" d="M2723.8461,-471.8863C2729.7254,-452.9703 2736.8877,-429.9265 2743.1321,-409.8359"/>
<polygon fill="#00ff00" stroke="#00ff00" points="2746.4883,-410.8297 2746.1141,-400.2415 2739.8037,-408.752 2746.4883,-410.8297"/>
</g>
<!-- n55&#45;&gt;n8 -->
<g id="edge61" class="edge">
<title>n55&#45;&gt;n8</title>
<path fill="none" stroke="#00ff00" d="M2445.6977,-361.3201C2055.525,-358.209 627.9291,-342.7685 435,-282.4 417.3349,-276.8725 399.7487,-267.6143 384.0894,-257.6667"/>
<polygon fill="#00ff00" stroke="#00ff00" points="385.8791,-254.6548 375.5997,-252.0886 382.0353,-260.505 385.8791,-254.6548"/>
</g>
<!-- n56&#45;&gt;n8 -->
<g id="edge62" class="edge">
<title>n56&#45;&gt;n8</title>
<path fill="none" stroke="#00ff00" d="M2678.7818,-323.9506C2669.5794,-320.7346 2660.1947,-317.9655 2651,-316 2410.1897,-264.5245 670.8287,-353.2811 435,-282.4 417.1846,-277.0454 399.4894,-267.7902 383.7705,-257.7872"/>
<polygon fill="#00ff00" stroke="#00ff00" points="385.5285,-254.7541 375.2528,-252.1731 381.6762,-260.5987 385.5285,-254.7541"/>
</g>
<!-- n0 -->
<g id="node56" class="node">
<title>n0</title>
<path fill="#ffffff" stroke="#f5f5dc" stroke-width="2" d="M4070,-1324C4070,-1324 3898,-1324 3898,-1324 3892,-1324 3886,-1318 3886,-1312 3886,-1312 3886,-1224 3886,-1224 3886,-1218 3892,-1212 3898,-1212 3898,-1212 4070,-1212 4070,-1212 4076,-1212 4082,-1218 4082,-1224 4082,-1224 4082,-1312 4082,-1312 4082,-1318 4076,-1324 4070,-1324"/>
<text text-anchor="start" x="3939.813" y="-1310" font-family="arial" font-weight="bold" font-size="10.00" fill="#000000">Standard Sequence</text>
<text text-anchor="start" x="3902.862" y="-1293" font-family="arial" font-size="10.00" fill="#000000">Given the strata are undisturbed, the</text>
<text text-anchor="start" x="3917.3285" y="-1281" font-family="arial" font-size="10.00" fill="#000000"> Primary strata are overlain by</text>
<text text-anchor="start" x="3903.158" y="-1269" font-family="arial" font-size="10.00" fill="#000000"> Cambrian strata, Silurian strata, Old</text>
<text text-anchor="start" x="3910.9195" y="-1257" font-family="arial" font-size="10.00" fill="#000000"> Red Sandstone strata, Mountain</text>
<text text-anchor="start" x="3909.264" y="-1245" font-family="arial" font-size="10.00" fill="#000000"> Limestone strata, Coal Measures</text>
<text text-anchor="start" x="3897.862" y="-1233" font-family="arial" font-size="10.00" fill="#000000"> strata, New Red Sandstone strata and</text>
<text text-anchor="start" x="3917.6035" y="-1221" font-family="arial" font-size="10.00" fill="#000000"> Oolitic stata, respectively #pri</text>
</g>
<!-- n0&#45;&gt;n46 -->
<g id="edge64" class="edge">
<title>n0&#45;&gt;n46</title>
<path fill="none" stroke="#00ff00" d="M4082.3545,-1253.1943C4172.2945,-1237.4067 4295.6676,-1209.3056 4325,-1170.4 4355.6089,-1129.8013 4347.0994,-1101.7905 4325,-1056 4309.4351,-1023.7492 4280.5231,-997.5022 4252.1318,-977.8711"/>
<polygon fill="#00ff00" stroke="#00ff00" points="4254.0073,-974.9147 4243.7526,-972.2515 4250.1083,-980.7283 4254.0073,-974.9147"/>
</g>
<!-- n0&#45;&gt;n45 -->
<g id="edge63" class="edge">
<title>n0&#45;&gt;n45</title>
<path fill="none" stroke="#00ff00" d="M4082.219,-1265.3833C4265.5126,-1259.0111 4671.4087,-1237.8662 5006,-1170.4 5042.7615,-1162.9875 5082.104,-1151.7759 5117.157,-1140.562"/>
<polygon fill="#00ff00" stroke="#00ff00" points="5118.4871,-1143.8104 5126.9243,-1137.4023 5116.3324,-1137.1503 5118.4871,-1143.8104"/>
</g>
<!-- n0&#45;&gt;n49 -->
<g id="edge65" class="edge">
<title>n0&#45;&gt;n49</title>
<path fill="none" stroke="#00ff00" d="M4082.0261,-1263.6145C4290.5892,-1253.2779 4763.2446,-1224.1227 4811,-1170.4 4859.0418,-1116.3551 4807.7182,-1033.3901 4766.0065,-982.0292"/>
<polygon fill="#00ff00" stroke="#00ff00" points="4768.4857,-979.5354 4759.4113,-974.0667 4763.0947,-984.0006 4768.4857,-979.5354"/>
</g>
<!-- n0&#45;&gt;n51 -->
<g id="edge66" class="edge">
<title>n0&#45;&gt;n51</title>
<path fill="none" stroke="#00ff00" d="M3885.8715,-1252.8182C3793.6392,-1237.1255 3652.4476,-1209.4181 3534,-1170.4 3510.4473,-1162.6415 3485.631,-1152.4128 3463.036,-1142.2371"/>
<polygon fill="#00ff00" stroke="#00ff00" points="3464.3833,-1139.0048 3453.8324,-1138.0408 3461.4793,-1145.374 3464.3833,-1139.0048"/>
</g>
<!-- n0&#45;&gt;n55 -->
<g id="edge67" class="edge">
<title>n0&#45;&gt;n55</title>
<path fill="none" stroke="#00ff00" d="M3885.9824,-1254.6755C3787.5847,-1239.2543 3645.3681,-1210.7078 3608,-1170.4 3488.7505,-1041.7691 3538,-957.4033 3538,-782 3538,-782 3538,-782 3538,-652 3538,-611.8423 3550.9709,-499.8088 3522,-472 3452.1021,-404.9061 2743.3213,-459.7954 2651,-430.4 2633.4514,-424.8125 2615.9628,-415.5889 2600.3633,-405.697"/>
<polygon fill="#00ff00" stroke="#00ff00" points="2602.1852,-402.7063 2591.9029,-400.1516 2598.3478,-408.5608 2602.1852,-402.7063"/>
</g>
<!-- n0&#45;&gt;n56 -->
<g id="edge68" class="edge">
<title>n0&#45;&gt;n56</title>
<path fill="none" stroke="#00ff00" d="M3885.947,-1249.1636C3804.0588,-1231.4719 3696.0223,-1202.9087 3666,-1170.4 3593.6018,-1092.0059 3614,-1042.7105 3614,-936 3614,-936 3614,-936 3614,-782 3614,-746.8734 3577.6202,-496.0309 3552,-472 3501.3043,-424.4492 3310.8561,-439.8854 3242,-430.4 3112.7688,-412.5976 2964.223,-391.5122 2866.1546,-377.5054"/>
<polygon fill="#00ff00" stroke="#00ff00" points="2866.6266,-374.0373 2856.2321,-376.0877 2865.6365,-380.967 2866.6266,-374.0373"/>
</g>
<!-- n1 -->
<g id="node57" class="node">
<title>n1</title>
<path fill="#ffffff" stroke="#f5f5dc" stroke-width="2" d="M3416,-252C3416,-252 3240,-252 3240,-252 3234,-252 3228,-246 3228,-240 3228,-240 3228,-188 3228,-188 3228,-182 3234,-176 3240,-176 3240,-176 3416,-176 3416,-176 3422,-176 3428,-182 3428,-188 3428,-188 3428,-240 3428,-240 3428,-246 3422,-252 3416,-252"/>
<text text-anchor="start" x="3286.049" y="-238" font-family="arial" font-weight="bold" font-size="10.00" fill="#000000">Formation of strata</text>
<text text-anchor="start" x="3256.606" y="-221" font-family="arial" font-size="10.00" fill="#000000">Strata are originally formed from</text>
<text text-anchor="start" x="3245.4775" y="-209" font-family="arial" font-size="10.00" fill="#000000"> sediments that were deposited in flat</text>
<text text-anchor="start" x="3257.979" y="-197" font-family="arial" font-size="10.00" fill="#000000"> horizontal sheets &#45; the younger</text>
<text text-anchor="start" x="3237.973" y="-185" font-family="arial" font-size="10.00" fill="#000000"> sediments deposited on older ones. #pri</text>
</g>
<!-- n1&#45;&gt;n54 -->
<g id="edge69" class="edge">
<title>n1&#45;&gt;n54</title>
<path fill="none" stroke="#00ff00" d="M3381.3933,-175.9326C3409.2564,-156.0672 3443.7001,-131.5101 3473.704,-110.1184"/>
<polygon fill="#00ff00" stroke="#00ff00" points="3475.9292,-112.8305 3482.0398,-104.1753 3471.8655,-107.1308 3475.9292,-112.8305"/>
</g>
</g>
</svg>
