
<!-- Generated by graphviz version 2.40.1 (20161225.0304)
 -->
<!-- Title: Argument Map Pages: 1 -->
<svg width="720pt" height="349pt"
 viewBox="0.00 0.00 720.00 349.38" xmlns="http://www.w3.org/2000/svg" xmlns:xlink="http://www.w3.org/1999/xlink">
<g id="graph0" class="graph" transform="scale(.1876 .1876) rotate(0) translate(4 1858.4)">
<title>Argument Map</title>
<g id="clust2" class="cluster">
<title>cluster_2</title>
<polygon fill="#ffff00" stroke="#ffff00" points="1732,-168 1732,-442.4 3448,-442.4 3448,-168 1732,-168"/>
<text text-anchor="start" x="2565.3256" y="-427.6" font-family="arial" font-size="12.00" fill="#000000">Evidence</text>
</g>
<g id="clust1" class="cluster">
<title>cluster_1</title>
<polygon fill="#9fb6cd" stroke="#9fb6cd" points="1872,-1388 1872,-1846.4 2089,-1846.4 2089,-1388 1872,-1388"/>
<text text-anchor="start" x="1879.8122" y="-1831.6" font-family="arial" font-size="12.00" fill="#000000">Aporia II : CM Plants in Ancient Strata</text>
</g>
<g id="clust3" class="cluster">
<title>cluster_3</title>
<polygon fill="#f0ffff" stroke="#f0ffff" points="870,-316 870,-614.4 1724,-614.4 1724,-316 870,-316"/>
<text text-anchor="start" x="1240.6408" y="-599.6" font-family="arial" font-size="12.00" fill="#000000">Gap in the Sequence</text>
</g>
<g id="clust4" class="cluster">
<title>cluster_4</title>
<polygon fill="#ffe1ff" stroke="#ffe1ff" points="2088,-512 2088,-1182.4 2954,-1182.4 2954,-512 2088,-512"/>
<text text-anchor="start" x="2456.6578" y="-1167.6" font-family="arial" font-size="12.00" fill="#000000">Dating of the Main Culm</text>
</g>
<g id="clust5" class="cluster">
<title>cluster_5</title>
<polygon fill="#eed2ee" stroke="#eed2ee" points="8,-512 8,-1336.4 862,-1336.4 862,-512 8,-512"/>
<text text-anchor="start" x="355.9842" y="-1321.6" font-family="arial" font-size="12.00" fill="#000000">Dating of the Culm Limestone</text>
</g>
<g id="clust6" class="cluster">
<title>cluster_6</title>
<polygon fill="#d8bfd8" stroke="#d8bfd8" points="2962,-506 2962,-1182.4 3822,-1182.4 3822,-506 2962,-506"/>
<text text-anchor="start" x="3329.3252" y="-1167.6" font-family="arial" font-size="12.00" fill="#000000">Dating of the Non&#45;Culm</text>
</g>
<g id="clust7" class="cluster">
<title>cluster_7</title>
<polygon fill="#e6e6fa" stroke="#e6e6fa" points="3456,-8 3456,-442.4 3680,-442.4 3680,-8 3456,-8"/>
<text text-anchor="start" x="3497.9752" y="-427.6" font-family="arial" font-size="12.00" fill="#000000">Youngest Devonian Strata</text>
</g>
<!-- n3 -->
<g id="node1" class="node">
<title>n3</title>
<path fill="#ffffff" stroke="#ffc1c1" stroke-width="2" d="M2066,-1460C2066,-1460 1894,-1460 1894,-1460 1888,-1460 1882,-1454 1882,-1448 1882,-1448 1882,-1408 1882,-1408 1882,-1402 1888,-1396 1894,-1396 1894,-1396 2066,-1396 2066,-1396 2072,-1396 2078,-1402 2078,-1408 2078,-1408 2078,-1448 2078,-1448 2078,-1454 2072,-1460 2066,-1460"/>
<text text-anchor="start" x="1940.551" y="-1446" font-family="arial" font-weight="bold" font-size="10.00" fill="#000000">Common Species</text>
<text text-anchor="start" x="1901.9305" y="-1429" font-family="arial" font-size="10.00" fill="#000000">Two formations deposited at widely</text>
<text text-anchor="start" x="1903.865" y="-1417" font-family="arial" font-size="10.00" fill="#000000"> separated periods have few if any</text>
<text text-anchor="start" x="1920.8245" y="-1405" font-family="arial" font-size="10.00" fill="#000000"> species in common #COA</text>
</g>
<!-- n39 -->
<g id="node56" class="node">
<title>n39</title>
<path fill="#ffc1c1" stroke="#000000" d="M2066,-1324C2066,-1324 1894,-1324 1894,-1324 1888,-1324 1882,-1318 1882,-1312 1882,-1312 1882,-1248 1882,-1248 1882,-1242 1888,-1236 1894,-1236 1894,-1236 2066,-1236 2066,-1236 2072,-1236 2078,-1242 2078,-1248 2078,-1248 2078,-1312 2078,-1312 2078,-1318 2072,-1324 2066,-1324"/>
<text text-anchor="start" x="1896.1055" y="-1310" font-family="arial" font-weight="bold" font-size="10.00" fill="#000000">Fossil Criterion and Common Species</text>
<text text-anchor="start" x="1899.427" y="-1293" font-family="arial" font-size="10.00" fill="#000000">If two formations deposited at widely</text>
<text text-anchor="start" x="1903.865" y="-1281" font-family="arial" font-size="10.00" fill="#000000"> separated periods have few if any</text>
<text text-anchor="start" x="1893.031" y="-1269" font-family="arial" font-size="10.00" fill="#000000"> species in common, then strata can be</text>
<text text-anchor="start" x="1895.533" y="-1257" font-family="arial" font-size="10.00" fill="#000000"> identified by means of their imbedded</text>
<text text-anchor="start" x="1949.72" y="-1245" font-family="arial" font-size="10.00" fill="#000000"> fossils #COA</text>
</g>
<!-- n3&#45;&gt;n39 -->
<g id="edge67" class="edge">
<title>n3&#45;&gt;n39</title>
<path fill="none" stroke="#00ff00" d="M1980,-1395.8862C1980,-1377.9223 1980,-1355.0482 1980,-1334.3762"/>
<polygon fill="#00ff00" stroke="#00ff00" points="1983.5001,-1334.1214 1980,-1324.1215 1976.5001,-1334.1215 1983.5001,-1334.1214"/>
</g>
<!-- n16 -->
<g id="node2" class="node">
<title>n16</title>
<path fill="#ffffff" stroke="#ffc1c1" stroke-width="2" d="M2066,-1816C2066,-1816 1894,-1816 1894,-1816 1888,-1816 1882,-1810 1882,-1804 1882,-1804 1882,-1740 1882,-1740 1882,-1734 1888,-1728 1894,-1728 1894,-1728 2066,-1728 2066,-1728 2072,-1728 2078,-1734 2078,-1740 2078,-1740 2078,-1804 2078,-1804 2078,-1810 2072,-1816 2066,-1816"/>
<text text-anchor="start" x="1939.998" y="-1802" font-family="arial" font-weight="bold" font-size="10.00" fill="#000000">Lyellian Principals</text>
<text text-anchor="start" x="1909.43" y="-1785" font-family="arial" font-size="10.00" fill="#000000">At the earth&#39;s surface, there is a</text>
<text text-anchor="start" x="1895.8015" y="-1773" font-family="arial" font-size="10.00" fill="#000000"> constant but piecemeal change in the</text>
<text text-anchor="start" x="1898.3065" y="-1761" font-family="arial" font-size="10.00" fill="#000000"> composition of the faunas and floras</text>
<text text-anchor="start" x="1904.991" y="-1749" font-family="arial" font-size="10.00" fill="#000000"> (in correlation with ever&#45;changing</text>
<text text-anchor="start" x="1912.4915" y="-1737" font-family="arial" font-size="10.00" fill="#000000"> physical environments) #COA</text>
</g>
<!-- n40 -->
<g id="node3" class="node">
<title>n40</title>
<path fill="#ffc1c1" stroke="#000000" d="M2066,-1656C2066,-1656 1894,-1656 1894,-1656 1888,-1656 1882,-1650 1882,-1644 1882,-1644 1882,-1544 1882,-1544 1882,-1538 1888,-1532 1894,-1532 1894,-1532 2066,-1532 2066,-1532 2072,-1532 2078,-1538 2078,-1544 2078,-1544 2078,-1644 2078,-1644 2078,-1650 2072,-1656 2066,-1656"/>
<text text-anchor="start" x="1925.2635" y="-1642" font-family="arial" font-weight="bold" font-size="10.00" fill="#000000">Assemblages of Species</text>
<text text-anchor="start" x="1905.556" y="-1625" font-family="arial" font-size="10.00" fill="#000000">From Lyellian principals, it follows</text>
<text text-anchor="start" x="1903.601" y="-1613" font-family="arial" font-size="10.00" fill="#000000"> that while particular species might</text>
<text text-anchor="start" x="1915.8135" y="-1601" font-family="arial" font-size="10.00" fill="#000000"> have long ranges in time, an</text>
<text text-anchor="start" x="1893.5845" y="-1589" font-family="arial" font-size="10.00" fill="#000000"> assemblage of many species does not</text>
<text text-anchor="start" x="1894.9735" y="-1577" font-family="arial" font-size="10.00" fill="#000000"> remain unchanged for long; therefore,</text>
<text text-anchor="start" x="1902.206" y="-1565" font-family="arial" font-size="10.00" fill="#000000"> two formations deposited at widely</text>
<text text-anchor="start" x="1903.865" y="-1553" font-family="arial" font-size="10.00" fill="#000000"> separated periods have few if any</text>
<text text-anchor="start" x="1920.8245" y="-1541" font-family="arial" font-size="10.00" fill="#000000"> species in common #COA</text>
</g>
<!-- n16&#45;&gt;n40 -->
<g id="edge68" class="edge">
<title>n16&#45;&gt;n40</title>
<path fill="none" stroke="#00ff00" d="M1980,-1728C1980,-1709.4206 1980,-1687.2905 1980,-1666.4213"/>
<polygon fill="#00ff00" stroke="#00ff00" points="1983.5001,-1666.2987 1980,-1656.2987 1976.5001,-1666.2988 1983.5001,-1666.2987"/>
</g>
<!-- n40&#45;&gt;n3 -->
<g id="edge47" class="edge">
<title>n40&#45;&gt;n3</title>
<path fill="none" stroke="#00ff00" d="M1980,-1531.7154C1980,-1511.3177 1980,-1489.1367 1980,-1470.5421"/>
<polygon fill="#00ff00" stroke="#00ff00" points="1983.5001,-1470.3327 1980,-1460.3327 1976.5001,-1470.3327 1983.5001,-1470.3327"/>
</g>
<!-- n4 -->
<g id="node4" class="node">
<title>n4</title>
<path fill="#ffffff" stroke="#ffff00" stroke-width="2" d="M1924,-406C1924,-406 1752,-406 1752,-406 1746,-406 1740,-400 1740,-394 1740,-394 1740,-354 1740,-354 1740,-348 1746,-342 1752,-342 1752,-342 1924,-342 1924,-342 1930,-342 1936,-348 1936,-354 1936,-354 1936,-394 1936,-394 1936,-400 1930,-406 1924,-406"/>
<text text-anchor="start" x="1756.305" y="-392" font-family="arial" font-weight="bold" font-size="10.00" fill="#000000">Unbroken Sequence of Devon Strata</text>
<text text-anchor="start" x="1761.3125" y="-375" font-family="arial" font-size="10.00" fill="#000000">In Devon, all the strata &#45; older than</text>
<text text-anchor="start" x="1761.0355" y="-363" font-family="arial" font-size="10.00" fill="#000000"> the New Red Sandstone &#45; form an</text>
<text text-anchor="start" x="1753.5205" y="-351" font-family="arial" font-size="10.00" fill="#000000"> unbroken sequence of strata #ev #E1</text>
</g>
<!-- n9 -->
<g id="node9" class="node">
<title>n9</title>
<path fill="#ffffff" stroke="#ffff00" stroke-width="2" d="M2146,-252C2146,-252 1974,-252 1974,-252 1968,-252 1962,-246 1962,-240 1962,-240 1962,-188 1962,-188 1962,-182 1968,-176 1974,-176 1974,-176 2146,-176 2146,-176 2152,-176 2158,-182 2158,-188 2158,-188 2158,-240 2158,-240 2158,-246 2152,-252 2146,-252"/>
<text text-anchor="start" x="2009.439" y="-238" font-family="arial" font-weight="bold" font-size="10.00" fill="#000000">Unconformity in Devon</text>
<text text-anchor="start" x="1985.2545" y="-221" font-family="arial" font-size="10.00" fill="#000000">Between the Devon Culm and the</text>
<text text-anchor="start" x="1983.866" y="-209" font-family="arial" font-size="10.00" fill="#000000"> juxtaposed strata, there is at least</text>
<text text-anchor="start" x="1989.9895" y="-197" font-family="arial" font-size="10.00" fill="#000000"> one formation missing from the</text>
<text text-anchor="start" x="1996.361" y="-185" font-family="arial" font-size="10.00" fill="#000000"> standard sequence #ev #E6</text>
</g>
<!-- n4&#45;&gt;n9 -->
<g id="edge2" class="edge">
<title>n4&#45;&gt;n9</title>
<path fill="none" stroke="#ff0000" d="M1877.1205,-341.8141C1909.1508,-317.7199 1955.0756,-284.4859 1992.9253,-257.9461"/>
<polygon fill="#ff0000" stroke="#ff0000" points="1995.1744,-260.6443 2001.3649,-252.0462 1991.1637,-254.9071 1995.1744,-260.6443"/>
</g>
<!-- n15 -->
<g id="node15" class="node">
<title>n15</title>
<path fill="#ffffff" stroke="#ffff00" stroke-width="2" d="M1932.5,-252C1932.5,-252 1751.5,-252 1751.5,-252 1745.5,-252 1739.5,-246 1739.5,-240 1739.5,-240 1739.5,-188 1739.5,-188 1739.5,-182 1745.5,-176 1751.5,-176 1751.5,-176 1932.5,-176 1932.5,-176 1938.5,-176 1944.5,-182 1944.5,-188 1944.5,-188 1944.5,-240 1944.5,-240 1944.5,-246 1938.5,-252 1932.5,-252"/>
<text text-anchor="start" x="1787.7705" y="-238" font-family="arial" font-weight="bold" font-size="10.00" fill="#000000">Unconformity in Devon II</text>
<text text-anchor="start" x="1749.699" y="-221" font-family="arial" font-size="10.00" fill="#000000">Between the main part of the Devon Culm</text>
<text text-anchor="start" x="1765.816" y="-209" font-family="arial" font-size="10.00" fill="#000000"> and its black limestone, there is at</text>
<text text-anchor="start" x="1760.542" y="-197" font-family="arial" font-size="10.00" fill="#000000"> least one formation missing from the</text>
<text text-anchor="start" x="1776.0815" y="-185" font-family="arial" font-size="10.00" fill="#000000"> standard sequence #ev #E12</text>
</g>
<!-- n4&#45;&gt;n15 -->
<g id="edge6" class="edge">
<title>n4&#45;&gt;n15</title>
<path fill="none" stroke="#ff0000" d="M1833.2608,-341.6216C1832.5173,-318.9092 1833.0486,-288.1451 1834.5252,-262.5126"/>
<polygon fill="#ff0000" stroke="#ff0000" points="1838.0365,-262.4494 1835.1885,-252.2445 1831.051,-261.9981 1838.0365,-262.4494"/>
</g>
<!-- n5 -->
<g id="node5" class="node">
<title>n5</title>
<path fill="#ffffff" stroke="#ffff00" stroke-width="2" d="M2352,-400C2352,-400 2180,-400 2180,-400 2174,-400 2168,-394 2168,-388 2168,-388 2168,-360 2168,-360 2168,-354 2174,-348 2180,-348 2180,-348 2352,-348 2352,-348 2358,-348 2364,-354 2364,-360 2364,-360 2364,-388 2364,-388 2364,-394 2358,-400 2352,-400"/>
<text text-anchor="start" x="2208.7755" y="-386" font-family="arial" font-weight="bold" font-size="10.00" fill="#000000">CM Plants in Devon Culm</text>
<text text-anchor="start" x="2180.1475" y="-369" font-family="arial" font-size="10.00" fill="#000000">In Devon, the Culm strata contain Coal</text>
<text text-anchor="start" x="2195.4275" y="-357" font-family="arial" font-size="10.00" fill="#000000"> Measures fossil plants #ev #E2</text>
</g>
<!-- n6 -->
<g id="node6" class="node">
<title>n6</title>
<path fill="#ffffff" stroke="#ffff00" stroke-width="2" d="M3000,-400C3000,-400 2828,-400 2828,-400 2822,-400 2816,-394 2816,-388 2816,-388 2816,-360 2816,-360 2816,-354 2822,-348 2828,-348 2828,-348 3000,-348 3000,-348 3006,-348 3012,-354 3012,-360 3012,-360 3012,-388 3012,-388 3012,-394 3006,-400 3000,-400"/>
<text text-anchor="start" x="2877.607" y="-386" font-family="arial" font-weight="bold" font-size="10.00" fill="#000000">North of Exmoor</text>
<text text-anchor="start" x="2827.871" y="-369" font-family="arial" font-size="10.00" fill="#000000">Passing Exmoor northwards, the strata</text>
<text text-anchor="start" x="2862.5945" y="-357" font-family="arial" font-size="10.00" fill="#000000"> become older #ev #E3</text>
</g>
<!-- n7 -->
<g id="node7" class="node">
<title>n7</title>
<path fill="#ffffff" stroke="#ffff00" stroke-width="2" d="M2360,-252C2360,-252 2188,-252 2188,-252 2182,-252 2176,-246 2176,-240 2176,-240 2176,-188 2176,-188 2176,-182 2182,-176 2188,-176 2188,-176 2360,-176 2360,-176 2366,-176 2372,-182 2372,-188 2372,-188 2372,-240 2372,-240 2372,-246 2366,-252 2360,-252"/>
<text text-anchor="start" x="2221.21" y="-238" font-family="arial" font-weight="bold" font-size="10.00" fill="#000000">Trough through Exmoor</text>
<text text-anchor="start" x="2196.206" y="-221" font-family="arial" font-size="10.00" fill="#000000">There is a trough through Exmoor &#45;</text>
<text text-anchor="start" x="2187.308" y="-209" font-family="arial" font-size="10.00" fill="#000000"> formed by a band of limestone running</text>
<text text-anchor="start" x="2195.362" y="-197" font-family="arial" font-size="10.00" fill="#000000"> out to the north coast at Ilfracombe</text>
<text text-anchor="start" x="2200.0795" y="-185" font-family="arial" font-size="10.00" fill="#000000"> and south of Barnstaple #ev #E4</text>
</g>
<!-- n8 -->
<g id="node8" class="node">
<title>n8</title>
<path fill="#ffffff" stroke="#ffff00" stroke-width="2" d="M2578,-246C2578,-246 2402,-246 2402,-246 2396,-246 2390,-240 2390,-234 2390,-234 2390,-194 2390,-194 2390,-188 2396,-182 2402,-182 2402,-182 2578,-182 2578,-182 2584,-182 2590,-188 2590,-194 2590,-194 2590,-234 2590,-234 2590,-240 2584,-246 2578,-246"/>
<text text-anchor="start" x="2413.3105" y="-232" font-family="arial" font-weight="bold" font-size="10.00" fill="#000000">Instances of Coal in Ancient Strata</text>
<text text-anchor="start" x="2399.9725" y="-215" font-family="arial" font-size="10.00" fill="#000000">In Munster and Pennsylvannia, there are</text>
<text text-anchor="start" x="2400.2525" y="-203" font-family="arial" font-size="10.00" fill="#000000"> coal deposits in pre&#45;Old Red Sandstone</text>
<text text-anchor="start" x="2454.987" y="-191" font-family="arial" font-size="10.00" fill="#000000"> strata #ev #E5 </text>
</g>
<!-- n9&#45;&gt;n4 -->
<g id="edge1" class="edge">
<title>n9&#45;&gt;n4</title>
<path fill="none" stroke="#ff0000" d="M2013.057,-252.0462C1979.1159,-277.376 1933.1142,-310.5313 1896.7454,-335.8769"/>
<polygon fill="#ff0000" stroke="#ff0000" points="1894.413,-333.2354 1888.1955,-341.8141 1898.4057,-338.9852 1894.413,-333.2354"/>
</g>
<!-- n10 -->
<g id="node10" class="node">
<title>n10</title>
<path fill="#ffffff" stroke="#ffff00" stroke-width="2" d="M2786,-412C2786,-412 2614,-412 2614,-412 2608,-412 2602,-406 2602,-400 2602,-400 2602,-348 2602,-348 2602,-342 2608,-336 2614,-336 2614,-336 2786,-336 2786,-336 2792,-336 2798,-342 2798,-348 2798,-348 2798,-400 2798,-400 2798,-406 2792,-412 2786,-412"/>
<text text-anchor="start" x="2621.9305" y="-398" font-family="arial" font-weight="bold" font-size="10.00" fill="#000000">CM Plants in Ancient French Strata</text>
<text text-anchor="start" x="2625.53" y="-381" font-family="arial" font-size="10.00" fill="#000000">In the Bocage, the limestones are</text>
<text text-anchor="start" x="2621.361" y="-369" font-family="arial" font-size="10.00" fill="#000000"> pre&#45;Old Red Sandstone in age and</text>
<text text-anchor="start" x="2621.099" y="-357" font-family="arial" font-size="10.00" fill="#000000"> contain some Coal Measures fossil</text>
<text text-anchor="start" x="2665.5415" y="-345" font-family="arial" font-size="10.00" fill="#000000"> plants #ev #E7</text>
</g>
<!-- n11 -->
<g id="node11" class="node">
<title>n11</title>
<path fill="#ffffff" stroke="#ffff00" stroke-width="2" d="M2571.5,-406C2571.5,-406 2394.5,-406 2394.5,-406 2388.5,-406 2382.5,-400 2382.5,-394 2382.5,-394 2382.5,-354 2382.5,-354 2382.5,-348 2388.5,-342 2394.5,-342 2394.5,-342 2571.5,-342 2571.5,-342 2577.5,-342 2583.5,-348 2583.5,-354 2583.5,-354 2583.5,-394 2583.5,-394 2583.5,-400 2577.5,-406 2571.5,-406"/>
<text text-anchor="start" x="2414.323" y="-392" font-family="arial" font-weight="bold" font-size="10.00" fill="#000000">Munster Coal as Carboniferous</text>
<text text-anchor="start" x="2407.0905" y="-375" font-family="arial" font-size="10.00" fill="#000000">In Munster, the limestone and coal</text>
<text text-anchor="start" x="2392.6475" y="-363" font-family="arial" font-size="10.00" fill="#000000"> seams are pre&#45;Carboniferous in age #ev</text>
<text text-anchor="start" x="2473.217" y="-351" font-family="arial" font-size="10.00" fill="#000000"> #E8</text>
</g>
<!-- n11&#45;&gt;n8 -->
<g id="edge3" class="edge">
<title>n11&#45;&gt;n8</title>
<path fill="none" stroke="#ff0000" d="M2484.4166,-341.6216C2485.4922,-317.0348 2486.9807,-283.0124 2488.1503,-256.2786"/>
<polygon fill="#ff0000" stroke="#ff0000" points="2491.657,-256.2003 2488.5975,-246.0568 2484.6637,-255.8943 2491.657,-256.2003"/>
</g>
<!-- n12 -->
<g id="node12" class="node">
<title>n12</title>
<path fill="#ffffff" stroke="#ffff00" stroke-width="2" d="M3214,-406C3214,-406 3042,-406 3042,-406 3036,-406 3030,-400 3030,-394 3030,-394 3030,-354 3030,-354 3030,-348 3036,-342 3042,-342 3042,-342 3214,-342 3214,-342 3220,-342 3226,-348 3226,-354 3226,-354 3226,-394 3226,-394 3226,-400 3220,-406 3214,-406"/>
<text text-anchor="start" x="3085.7685" y="-392" font-family="arial" font-weight="bold" font-size="10.00" fill="#000000">SIL in North Devon</text>
<text text-anchor="start" x="3046.037" y="-375" font-family="arial" font-size="10.00" fill="#000000">In north Devon (around Pilton), some</text>
<text text-anchor="start" x="3049.3775" y="-363" font-family="arial" font-size="10.00" fill="#000000"> non&#45;Culm strata are Silurian in age</text>
<text text-anchor="start" x="3108.2685" y="-351" font-family="arial" font-size="10.00" fill="#000000"> #ev #E9</text>
</g>
<!-- n36 -->
<g id="node46" class="node">
<title>n36</title>
<path fill="#ffffff" stroke="#ffe4b5" stroke-width="2" d="M3374,-1152C3374,-1152 3202,-1152 3202,-1152 3196,-1152 3190,-1146 3190,-1140 3190,-1140 3190,-1112 3190,-1112 3190,-1106 3196,-1100 3202,-1100 3202,-1100 3374,-1100 3374,-1100 3380,-1100 3386,-1106 3386,-1112 3386,-1112 3386,-1140 3386,-1140 3386,-1146 3380,-1152 3374,-1152"/>
<text text-anchor="start" x="3235.4945" y="-1138" font-family="arial" font-weight="bold" font-size="10.00" fill="#000000">Some Non&#45;Culm as SIL</text>
<text text-anchor="start" x="3200.2035" y="-1121" font-family="arial" font-size="10.00" fill="#000000">Some part of the non&#45;Culm strata is SIL</text>
<text text-anchor="start" x="3236.8755" y="-1109" font-family="arial" font-size="10.00" fill="#000000"> in age #pri #chron&#45;hyp</text>
</g>
<!-- n12&#45;&gt;n36 -->
<g id="edge38" class="edge">
<title>n12&#45;&gt;n36</title>
<path fill="none" stroke="#00ff00" d="M3173.1246,-406.1316C3262.8293,-471.6986 3455,-621.3396 3455,-700 3455,-830 3455,-830 3455,-830 3455,-916.8613 3439.7932,-941.5792 3395,-1016 3377.4256,-1045.1987 3350.6986,-1072.6822 3328.3537,-1092.8742"/>
<polygon fill="#00ff00" stroke="#00ff00" points="3325.8135,-1090.4489 3320.655,-1099.7032 3330.4586,-1095.6857 3325.8135,-1090.4489"/>
</g>
<!-- n13 -->
<g id="node13" class="node">
<title>n13</title>
<path fill="#ffffff" stroke="#ffff00" stroke-width="2" d="M3428,-400C3428,-400 3256,-400 3256,-400 3250,-400 3244,-394 3244,-388 3244,-388 3244,-360 3244,-360 3244,-354 3250,-348 3256,-348 3256,-348 3428,-348 3428,-348 3434,-348 3440,-354 3440,-360 3440,-360 3440,-388 3440,-388 3440,-394 3434,-400 3428,-400"/>
<text text-anchor="start" x="3276.1585" y="-386" font-family="arial" font-weight="bold" font-size="10.00" fill="#000000">Culm trough in Central Devon</text>
<text text-anchor="start" x="3269.21" y="-369" font-family="arial" font-size="10.00" fill="#000000">In central Devon, there is a Culm</text>
<text text-anchor="start" x="3303.9275" y="-357" font-family="arial" font-size="10.00" fill="#000000"> trough #ev #E10</text>
</g>
<!-- n14 -->
<g id="node14" class="node">
<title>n14</title>
<path fill="#ffffff" stroke="#ffff00" stroke-width="2" d="M2138,-410C2138,-410 1966,-410 1966,-410 1960,-410 1954,-404 1954,-398 1954,-398 1954,-350 1954,-350 1954,-344 1960,-338 1966,-338 1966,-338 2138,-338 2138,-338 2144,-338 2150,-344 2150,-350 2150,-350 2150,-398 2150,-398 2150,-404 2144,-410 2138,-410"/>
<text text-anchor="start" x="1968.651" y="-396" font-family="arial" font-weight="bold" font-size="10.00" fill="#000000">Distinct Limestones at Ilfracombe and</text>
<text text-anchor="start" x="2026.715" y="-386" font-family="arial" font-weight="bold" font-size="10.00" fill="#000000"> Barnstaple</text>
<text text-anchor="start" x="1972.2565" y="-371" font-family="arial" font-size="10.00" fill="#000000">The limestone at Ilfracombe and the</text>
<text text-anchor="start" x="1976.1455" y="-359" font-family="arial" font-size="10.00" fill="#000000"> limestone south of Barnstaple are</text>
<text text-anchor="start" x="2012.5425" y="-347" font-family="arial" font-size="10.00" fill="#000000"> distinct #ev #E11</text>
</g>
<!-- n14&#45;&gt;n7 -->
<g id="edge4" class="edge">
<title>n14&#45;&gt;n7</title>
<path fill="none" stroke="#ff0000" d="M2102.0979,-337.8934C2134.8927,-314.2575 2177.96,-283.218 2212.7826,-258.1207"/>
<polygon fill="#ff0000" stroke="#ff0000" points="2214.923,-260.8924 2220.9891,-252.206 2210.8301,-255.2136 2214.923,-260.8924"/>
</g>
<!-- n15&#45;&gt;n4 -->
<g id="edge5" class="edge">
<title>n15&#45;&gt;n4</title>
<path fill="none" stroke="#ff0000" d="M1846.8993,-252.2445C1847.4293,-276.1062 1846.7232,-306.8542 1845.106,-331.4803"/>
<polygon fill="#ff0000" stroke="#ff0000" points="1841.6032,-331.3912 1844.3581,-341.6216 1848.5842,-331.9061 1841.6032,-331.3912"/>
</g>
<!-- n17 -->
<g id="node16" class="node">
<title>n17</title>
<path fill="#ffffff" stroke="#ffe4b5" stroke-width="2" d="M1213,-584C1213,-584 1041,-584 1041,-584 1035,-584 1029,-578 1029,-572 1029,-572 1029,-520 1029,-520 1029,-514 1035,-508 1041,-508 1041,-508 1213,-508 1213,-508 1219,-508 1225,-514 1225,-520 1225,-520 1225,-572 1225,-572 1225,-578 1219,-584 1213,-584"/>
<text text-anchor="start" x="1063.918" y="-570" font-family="arial" font-weight="bold" font-size="10.00" fill="#000000">Gap in a Sequence of Strata</text>
<text text-anchor="start" x="1045.3065" y="-553" font-family="arial" font-size="10.00" fill="#000000">There is a gap in a local sequence of</text>
<text text-anchor="start" x="1071.1535" y="-541" font-family="arial" font-size="10.00" fill="#000000"> strata, iff there are strata</text>
<text text-anchor="start" x="1045.023" y="-529" font-family="arial" font-size="10.00" fill="#000000"> juxtaposed belonging to different but</text>
<text text-anchor="start" x="1041.4255" y="-517" font-family="arial" font-size="10.00" fill="#000000"> not successive geological periods #pri</text>
</g>
<!-- n41 -->
<g id="node17" class="node">
<title>n41</title>
<path fill="#ffc1c1" stroke="#000000" d="M1704,-412C1704,-412 1532,-412 1532,-412 1526,-412 1520,-406 1520,-400 1520,-400 1520,-348 1520,-348 1520,-342 1526,-336 1532,-336 1532,-336 1704,-336 1704,-336 1710,-336 1716,-342 1716,-348 1716,-348 1716,-400 1716,-400 1716,-406 1710,-412 1704,-412"/>
<text text-anchor="start" x="1544.375" y="-398" font-family="arial" font-weight="bold" font-size="10.00" fill="#000000">Postulating A Major Gap &#45; COA.1</text>
<text text-anchor="start" x="1531.043" y="-381" font-family="arial" font-size="10.00" fill="#000000">If the Culm strata are Coal Measures in</text>
<text text-anchor="start" x="1539.6455" y="-369" font-family="arial" font-size="10.00" fill="#000000"> age and juxtaposed with Cambrian</text>
<text text-anchor="start" x="1540.7575" y="-357" font-family="arial" font-size="10.00" fill="#000000"> strata, then there is a major gap in</text>
<text text-anchor="start" x="1559.9255" y="-345" font-family="arial" font-size="10.00" fill="#000000"> the local sequence #COA</text>
</g>
<!-- n17&#45;&gt;n41 -->
<g id="edge69" class="edge">
<title>n17&#45;&gt;n41</title>
<path fill="none" stroke="#00ff00" d="M1225.2632,-528.1326C1304.5572,-511.692 1417.8434,-483.5717 1511,-442.4 1526.3639,-435.6097 1542.06,-426.8029 1556.5298,-417.7813"/>
<polygon fill="#00ff00" stroke="#00ff00" points="1558.8128,-420.4768 1565.3668,-412.1524 1555.0522,-414.5728 1558.8128,-420.4768"/>
</g>
<!-- n42 -->
<g id="node18" class="node">
<title>n42</title>
<path fill="#ffc1c1" stroke="#000000" d="M1490,-412C1490,-412 1318,-412 1318,-412 1312,-412 1306,-406 1306,-400 1306,-400 1306,-348 1306,-348 1306,-342 1312,-336 1318,-336 1318,-336 1490,-336 1490,-336 1496,-336 1502,-342 1502,-348 1502,-348 1502,-400 1502,-400 1502,-406 1496,-412 1490,-412"/>
<text text-anchor="start" x="1341.4825" y="-398" font-family="arial" font-weight="bold" font-size="10.00" fill="#000000">Postulating A Gap &#45; COA.2a</text>
<text text-anchor="start" x="1317.043" y="-381" font-family="arial" font-size="10.00" fill="#000000">If the Culm strata are Coal Measures in</text>
<text text-anchor="start" x="1320.9175" y="-369" font-family="arial" font-size="10.00" fill="#000000"> age and juxtaposed with Silurian and</text>
<text text-anchor="start" x="1318.7085" y="-357" font-family="arial" font-size="10.00" fill="#000000"> Cambrian strata, then there is a major</text>
<text text-anchor="start" x="1330.919" y="-345" font-family="arial" font-size="10.00" fill="#000000"> gap in the local sequence #COA</text>
</g>
<!-- n17&#45;&gt;n42 -->
<g id="edge70" class="edge">
<title>n17&#45;&gt;n42</title>
<path fill="none" stroke="#00ff00" d="M1190.1697,-507.9451C1222.2646,-488.4986 1261.8171,-464.3623 1297,-442.4 1309.8107,-434.4032 1323.4262,-425.7889 1336.4987,-417.4601"/>
<polygon fill="#00ff00" stroke="#00ff00" points="1338.4495,-420.3671 1344.9968,-412.0374 1334.6841,-414.4661 1338.4495,-420.3671"/>
</g>
<!-- n43 -->
<g id="node19" class="node">
<title>n43</title>
<path fill="#ffc1c1" stroke="#000000" d="M1062,-424C1062,-424 890,-424 890,-424 884,-424 878,-418 878,-412 878,-412 878,-336 878,-336 878,-330 884,-324 890,-324 890,-324 1062,-324 1062,-324 1068,-324 1074,-330 1074,-336 1074,-336 1074,-412 1074,-412 1074,-418 1068,-424 1062,-424"/>
<text text-anchor="start" x="912.093" y="-410" font-family="arial" font-weight="bold" font-size="10.00" fill="#000000">Postulating A Gap &#45; COA.3.1</text>
<text text-anchor="start" x="893.204" y="-393" font-family="arial" font-size="10.00" fill="#000000">If the main part of the Culm strata are</text>
<text text-anchor="start" x="894.311" y="-381" font-family="arial" font-size="10.00" fill="#000000"> Coal Measures and underlain by the</text>
<text text-anchor="start" x="902.384" y="-369" font-family="arial" font-size="10.00" fill="#000000"> black Culm limestone which is at</text>
<text text-anchor="start" x="895.9725" y="-357" font-family="arial" font-size="10.00" fill="#000000"> youngest Silurian in age, then there</text>
<text text-anchor="start" x="894.8665" y="-345" font-family="arial" font-size="10.00" fill="#000000"> is a major gap in the local sequence</text>
<text text-anchor="start" x="960.9975" y="-333" font-family="arial" font-size="10.00" fill="#000000"> #COA</text>
</g>
<!-- n17&#45;&gt;n43 -->
<g id="edge71" class="edge">
<title>n17&#45;&gt;n43</title>
<path fill="none" stroke="#00ff00" d="M1093.4882,-507.8276C1073.8818,-485.4944 1048.736,-456.8516 1026.7422,-431.7991"/>
<polygon fill="#00ff00" stroke="#00ff00" points="1029.2551,-429.3563 1020.0274,-424.1504 1023.9946,-433.9745 1029.2551,-429.3563"/>
</g>
<!-- n44 -->
<g id="node20" class="node">
<title>n44</title>
<path fill="#ffc1c1" stroke="#000000" d="M1276,-424C1276,-424 1104,-424 1104,-424 1098,-424 1092,-418 1092,-412 1092,-412 1092,-336 1092,-336 1092,-330 1098,-324 1104,-324 1104,-324 1276,-324 1276,-324 1282,-324 1288,-330 1288,-336 1288,-336 1288,-412 1288,-412 1288,-418 1282,-424 1276,-424"/>
<text text-anchor="start" x="1126.093" y="-410" font-family="arial" font-weight="bold" font-size="10.00" fill="#000000">Postulating A Gap &#45; COA.3.2</text>
<text text-anchor="start" x="1107.204" y="-393" font-family="arial" font-size="10.00" fill="#000000">If the main part of the Culm strata are</text>
<text text-anchor="start" x="1108.311" y="-381" font-family="arial" font-size="10.00" fill="#000000"> Coal Measures and underlain by the</text>
<text text-anchor="start" x="1116.384" y="-369" font-family="arial" font-size="10.00" fill="#000000"> black Culm limestone which is at</text>
<text text-anchor="start" x="1106.911" y="-357" font-family="arial" font-size="10.00" fill="#000000"> youngest Old Red Sandstone in age,</text>
<text text-anchor="start" x="1121.9205" y="-345" font-family="arial" font-size="10.00" fill="#000000"> then there is a gap in the local</text>
<text text-anchor="start" x="1151.931" y="-333" font-family="arial" font-size="10.00" fill="#000000"> sequence #COA</text>
</g>
<!-- n17&#45;&gt;n44 -->
<g id="edge72" class="edge">
<title>n17&#45;&gt;n44</title>
<path fill="none" stroke="#00ff00" d="M1140.9817,-507.8276C1148.9504,-486.072 1159.1121,-458.3289 1168.1149,-433.7499"/>
<polygon fill="#00ff00" stroke="#00ff00" points="1171.478,-434.7442 1171.631,-424.1504 1164.9051,-432.3366 1171.478,-434.7442"/>
</g>
<!-- n41&#45;&gt;n9 -->
<g id="edge48" class="edge">
<title>n41&#45;&gt;n9</title>
<path fill="none" stroke="#00ff00" d="M1684.7186,-335.9811C1698.7613,-328.7897 1713.6682,-321.7342 1728,-316 1821.9901,-278.3944 1852.7272,-283.4952 1952.3665,-252.4483"/>
<polygon fill="#00ff00" stroke="#00ff00" points="1953.4243,-255.7847 1961.9037,-249.4326 1951.3138,-249.1105 1953.4243,-255.7847"/>
</g>
<!-- n42&#45;&gt;n9 -->
<g id="edge49" class="edge">
<title>n42&#45;&gt;n9</title>
<path fill="none" stroke="#00ff00" d="M1465.4155,-335.9444C1479.9284,-328.3121 1495.6567,-321.0863 1511,-316 1696.6931,-254.4426 1758.8875,-298.512 1951.8613,-252.3926"/>
<polygon fill="#00ff00" stroke="#00ff00" points="1952.8631,-255.7509 1961.7476,-249.9788 1951.2028,-248.9506 1952.8631,-255.7509"/>
</g>
<!-- n43&#45;&gt;n15 -->
<g id="edge50" class="edge">
<title>n43&#45;&gt;n15</title>
<path fill="none" stroke="#00ff00" d="M1061.437,-323.933C1068.5888,-320.9051 1075.8287,-318.2 1083,-316 1356.0147,-232.246 1445.4663,-311.1469 1729.2412,-251.9823"/>
<polygon fill="#00ff00" stroke="#00ff00" points="1730.3649,-255.3217 1739.4186,-249.8189 1728.9094,-248.4747 1730.3649,-255.3217"/>
</g>
<!-- n44&#45;&gt;n15 -->
<g id="edge51" class="edge">
<title>n44&#45;&gt;n15</title>
<path fill="none" stroke="#00ff00" d="M1276.463,-323.9226C1283.2919,-320.9631 1290.1844,-318.2717 1297,-316 1478.4895,-255.5069 1538.8941,-296.2548 1729.6022,-251.9391"/>
<polygon fill="#00ff00" stroke="#00ff00" points="1730.4513,-255.3349 1739.3734,-249.6211 1728.8355,-248.524 1730.4513,-255.3349"/>
</g>
<!-- n18 -->
<g id="node21" class="node">
<title>n18</title>
<path fill="#ffffff" stroke="#ffc1c1" stroke-width="2" d="M2288,-572C2288,-572 2110,-572 2110,-572 2104,-572 2098,-566 2098,-560 2098,-560 2098,-532 2098,-532 2098,-526 2104,-520 2110,-520 2110,-520 2288,-520 2288,-520 2294,-520 2300,-526 2300,-532 2300,-532 2300,-560 2300,-560 2300,-566 2294,-572 2288,-572"/>
<text text-anchor="start" x="2159.282" y="-558" font-family="arial" font-weight="bold" font-size="10.00" fill="#000000">Main Culm as CM</text>
<text text-anchor="start" x="2107.599" y="-541" font-family="arial" font-size="10.00" fill="#000000">The whole of the main Culm is CM in age</text>
<text text-anchor="start" x="2156.2125" y="-529" font-family="arial" font-size="10.00" fill="#000000"> #COA #chron&#45;hyp </text>
</g>
<!-- n18&#45;&gt;n41 -->
<g id="edge73" class="edge">
<title>n18&#45;&gt;n41</title>
<path fill="none" stroke="#00ff00" d="M2104.585,-519.9471C2073.8877,-511.8353 2039.5927,-503.1506 2008,-496 1884.4218,-468.0296 1846.0044,-488.5398 1728,-442.4 1711.4549,-435.9309 1694.6465,-426.9411 1679.3127,-417.6024"/>
<polygon fill="#00ff00" stroke="#00ff00" points="1680.8039,-414.4073 1670.4679,-412.0799 1677.0966,-420.345 1680.8039,-414.4073"/>
</g>
<!-- n18&#45;&gt;n42 -->
<g id="edge74" class="edge">
<title>n18&#45;&gt;n42</title>
<path fill="none" stroke="#00ff00" d="M2097.9581,-521.6862C2058.2406,-512.7209 2012.1437,-503.0438 1970,-496 1767.4238,-462.1417 1704.4559,-511.3806 1511,-442.4 1494.1609,-436.3957 1477.2543,-427.3328 1462.0123,-417.7512"/>
<polygon fill="#00ff00" stroke="#00ff00" points="1463.539,-414.5699 1453.2435,-412.0689 1459.7323,-420.4443 1463.539,-414.5699"/>
</g>
<!-- n18&#45;&gt;n43 -->
<g id="edge75" class="edge">
<title>n18&#45;&gt;n43</title>
<path fill="none" stroke="#00ff00" d="M2097.7598,-523.5974C2049.3369,-513.6745 1990.4077,-502.745 1937,-496 1748.3473,-472.1747 1263.7519,-501.4443 1083,-442.4 1072.6504,-439.0192 1062.3122,-434.3975 1052.366,-429.1395"/>
<polygon fill="#00ff00" stroke="#00ff00" points="1053.7968,-425.931 1043.3529,-424.1491 1050.4061,-432.055 1053.7968,-425.931"/>
</g>
<!-- n18&#45;&gt;n44 -->
<g id="edge76" class="edge">
<title>n18&#45;&gt;n44</title>
<path fill="none" stroke="#00ff00" d="M2097.6943,-524.0954C2049.2568,-514.2827 1990.3344,-503.302 1937,-496 1654.1979,-457.2817 1567.391,-533.8597 1297,-442.4 1286.7662,-438.9384 1276.53,-434.2961 1266.6672,-429.0518"/>
<polygon fill="#00ff00" stroke="#00ff00" points="1268.1664,-425.8808 1257.7252,-424.0829 1264.7663,-431.9996 1268.1664,-425.8808"/>
</g>
<!-- n54 -->
<g id="node51" class="node">
<title>n54</title>
<path fill="#ffc1c1" stroke="#000000" d="M3648,-412C3648,-412 3476,-412 3476,-412 3470,-412 3464,-406 3464,-400 3464,-400 3464,-348 3464,-348 3464,-342 3470,-336 3476,-336 3476,-336 3648,-336 3648,-336 3654,-336 3660,-342 3660,-348 3660,-348 3660,-400 3660,-400 3660,-406 3654,-412 3648,-412"/>
<text text-anchor="start" x="3506.4305" y="-398" font-family="arial" font-weight="bold" font-size="10.00" fill="#000000">Culm as Youngest Strata</text>
<text text-anchor="start" x="3475.599" y="-381" font-family="arial" font-size="10.00" fill="#000000">If, the non&#45;Culm strata are Cambrian in</text>
<text text-anchor="start" x="3476.144" y="-369" font-family="arial" font-size="10.00" fill="#000000"> age, then the Culm strata &#45; being Coal</text>
<text text-anchor="start" x="3481.9755" y="-357" font-family="arial" font-size="10.00" fill="#000000"> Measures in age &#45; are the youngest</text>
<text text-anchor="start" x="3510.5995" y="-345" font-family="arial" font-size="10.00" fill="#000000"> Devonian strata #COA</text>
</g>
<!-- n18&#45;&gt;n54 -->
<g id="edge77" class="edge">
<title>n18&#45;&gt;n54</title>
<path fill="none" stroke="#00ff00" d="M2300.0457,-538.9461C2588.328,-518.6487 3397.5678,-460.4021 3452,-442.4 3469.6545,-436.5612 3487.3803,-427.3583 3503.2895,-417.5735"/>
<polygon fill="#00ff00" stroke="#00ff00" points="3505.358,-420.4063 3511.929,-412.0953 3501.6094,-414.4945 3505.358,-420.4063"/>
</g>
<!-- n23 -->
<g id="node22" class="node">
<title>n23</title>
<path fill="#ffffff" stroke="#ffe4b5" stroke-width="2" d="M2714,-1152C2714,-1152 2536,-1152 2536,-1152 2530,-1152 2524,-1146 2524,-1140 2524,-1140 2524,-1112 2524,-1112 2524,-1106 2530,-1100 2536,-1100 2536,-1100 2714,-1100 2714,-1100 2720,-1100 2726,-1106 2726,-1112 2726,-1112 2726,-1140 2726,-1140 2726,-1146 2720,-1152 2714,-1152"/>
<text text-anchor="start" x="2570.8345" y="-1138" font-family="arial" font-weight="bold" font-size="10.00" fill="#000000">Some Main Culm as CM</text>
<text text-anchor="start" x="2533.599" y="-1121" font-family="arial" font-size="10.00" fill="#000000">Some part of the main Culm is CM in age</text>
<text text-anchor="start" x="2588.882" y="-1109" font-family="arial" font-size="10.00" fill="#000000"> #pri #chron&#45;hyp</text>
</g>
<!-- n45 -->
<g id="node27" class="node">
<title>n45</title>
<path fill="#ffe4b5" stroke="#000000" d="M2594,-1008C2594,-1008 2422,-1008 2422,-1008 2416,-1008 2410,-1002 2410,-996 2410,-996 2410,-948 2410,-948 2410,-942 2416,-936 2422,-936 2422,-936 2594,-936 2594,-936 2600,-936 2606,-942 2606,-948 2606,-948 2606,-996 2606,-996 2606,-1002 2600,-1008 2594,-1008"/>
<text text-anchor="start" x="2422.1425" y="-994" font-family="arial" font-weight="bold" font-size="10.00" fill="#000000">Standard Sequence as Partition &#45; Main</text>
<text text-anchor="start" x="2494.9475" y="-984" font-family="arial" font-weight="bold" font-size="10.00" fill="#000000"> Culm</text>
<text text-anchor="start" x="2422.9975" y="-969" font-family="arial" font-size="10.00" fill="#000000">If some main Culm strata is neiter CM,</text>
<text text-anchor="start" x="2422.9835" y="-957" font-family="arial" font-size="10.00" fill="#000000"> ML, OR nor SIL in age, then it is CAM</text>
<text text-anchor="start" x="2456.8755" y="-945" font-family="arial" font-size="10.00" fill="#000000"> in age #pri #chron&#45;hyp</text>
</g>
<!-- n23&#45;&gt;n45 -->
<g id="edge7" class="edge">
<title>n23&#45;&gt;n45</title>
<path fill="none" stroke="#ff0000" d="M2605.1525,-1099.876C2587.7817,-1077.0119 2562.1809,-1043.3151 2541.6197,-1016.2516"/>
<polygon fill="#ff0000" stroke="#ff0000" points="2544.2516,-1013.9302 2535.4151,-1008.0849 2538.6778,-1018.1649 2544.2516,-1013.9302"/>
</g>
<!-- n46 -->
<g id="node28" class="node">
<title>n46</title>
<path fill="#ffc1c1" stroke="#000000" d="M2285.5,-1016C2285.5,-1016 2108.5,-1016 2108.5,-1016 2102.5,-1016 2096.5,-1010 2096.5,-1004 2096.5,-1004 2096.5,-940 2096.5,-940 2096.5,-934 2102.5,-928 2108.5,-928 2108.5,-928 2285.5,-928 2285.5,-928 2291.5,-928 2297.5,-934 2297.5,-940 2297.5,-940 2297.5,-1004 2297.5,-1004 2297.5,-1010 2291.5,-1016 2285.5,-1016"/>
<text text-anchor="start" x="2157.782" y="-1002" font-family="arial" font-weight="bold" font-size="10.00" fill="#000000">Main Culm as CM</text>
<text text-anchor="start" x="2114.4175" y="-985" font-family="arial" font-size="10.00" fill="#000000">If strata can be identified by means of</text>
<text text-anchor="start" x="2113.8625" y="-973" font-family="arial" font-size="10.00" fill="#000000"> their embedded fossils and no part of</text>
<text text-anchor="start" x="2109.992" y="-961" font-family="arial" font-size="10.00" fill="#000000"> the main Culm strata is Coal Measures</text>
<text text-anchor="start" x="2115.533" y="-949" font-family="arial" font-size="10.00" fill="#000000"> in age, then the main Culm strata do</text>
<text text-anchor="start" x="2106.922" y="-937" font-family="arial" font-size="10.00" fill="#000000"> not contain Coal Measures plants #COA</text>
</g>
<!-- n23&#45;&gt;n46 -->
<g id="edge11" class="edge">
<title>n23&#45;&gt;n46</title>
<path fill="none" stroke="#ff0000" d="M2552.3956,-1099.876C2485.2679,-1075.7226 2384.5427,-1039.4803 2307.4453,-1011.7397"/>
<polygon fill="#ff0000" stroke="#ff0000" points="2308.2816,-1008.321 2297.6872,-1008.2286 2305.9116,-1014.9076 2308.2816,-1008.321"/>
</g>
<!-- n47 -->
<g id="node29" class="node">
<title>n47</title>
<path fill="#ffc1c1" stroke="#000000" d="M2535,-718C2535,-718 2363,-718 2363,-718 2357,-718 2351,-712 2351,-706 2351,-706 2351,-694 2351,-694 2351,-688 2357,-682 2363,-682 2363,-682 2535,-682 2535,-682 2541,-682 2547,-688 2547,-694 2547,-694 2547,-706 2547,-706 2547,-712 2541,-718 2535,-718"/>
<text text-anchor="start" x="2375.935" y="-698" font-family="arial" font-weight="bold" font-size="10.00" fill="#000000">Redating the Main Culm &#45; COA.1</text>
</g>
<!-- n23&#45;&gt;n47 -->
<g id="edge86" class="edge">
<title>n23&#45;&gt;n47</title>
<path fill="none" stroke="#00ff00" d="M2631.9741,-1099.5749C2645.7161,-1041.5582 2670.4072,-900.5286 2615,-804 2592.6036,-764.9816 2549.0263,-738.5175 2512.1393,-722.0519"/>
<polygon fill="#00ff00" stroke="#00ff00" points="2513.4911,-718.8233 2502.9224,-718.0796 2510.7205,-725.2517 2513.4911,-718.8233"/>
</g>
<!-- n24 -->
<g id="node23" class="node">
<title>n24</title>
<path fill="#ffffff" stroke="#ffe4b5" stroke-width="2" d="M2933.5,-1152C2933.5,-1152 2756.5,-1152 2756.5,-1152 2750.5,-1152 2744.5,-1146 2744.5,-1140 2744.5,-1140 2744.5,-1112 2744.5,-1112 2744.5,-1106 2750.5,-1100 2756.5,-1100 2756.5,-1100 2933.5,-1100 2933.5,-1100 2939.5,-1100 2945.5,-1106 2945.5,-1112 2945.5,-1112 2945.5,-1140 2945.5,-1140 2945.5,-1146 2939.5,-1152 2933.5,-1152"/>
<text text-anchor="start" x="2792.1645" y="-1138" font-family="arial" font-weight="bold" font-size="10.00" fill="#000000">Some Main Culm as ML</text>
<text text-anchor="start" x="2754.929" y="-1121" font-family="arial" font-size="10.00" fill="#000000">Some part of the main Culm is ML in age</text>
<text text-anchor="start" x="2809.382" y="-1109" font-family="arial" font-size="10.00" fill="#000000"> #pri #chron&#45;hyp</text>
</g>
<!-- n24&#45;&gt;n45 -->
<g id="edge8" class="edge">
<title>n24&#45;&gt;n45</title>
<path fill="none" stroke="#ff0000" d="M2787.8325,-1099.876C2735.3186,-1075.8785 2656.6911,-1039.9478 2596.141,-1012.2781"/>
<polygon fill="#ff0000" stroke="#ff0000" points="2597.515,-1009.0579 2586.965,-1008.0849 2594.6056,-1015.4246 2597.515,-1009.0579"/>
</g>
<!-- n24&#45;&gt;n47 -->
<g id="edge13" class="edge">
<title>n24&#45;&gt;n47</title>
<path fill="none" stroke="#ff0000" d="M2832.7341,-1099.6969C2804.1887,-1040.7022 2728.2015,-895.8149 2630,-804 2592.2946,-768.7468 2540.5179,-740.5285 2501.9989,-722.4295"/>
<polygon fill="#ff0000" stroke="#ff0000" points="2503.0545,-719.0618 2492.5083,-718.048 2500.1204,-725.4173 2503.0545,-719.0618"/>
</g>
<!-- n25 -->
<g id="node24" class="node">
<title>n25</title>
<path fill="#ffffff" stroke="#ffe4b5" stroke-width="2" d="M2494,-1152C2494,-1152 2322,-1152 2322,-1152 2316,-1152 2310,-1146 2310,-1140 2310,-1140 2310,-1112 2310,-1112 2310,-1106 2316,-1100 2322,-1100 2322,-1100 2494,-1100 2494,-1100 2500,-1100 2506,-1106 2506,-1112 2506,-1112 2506,-1140 2506,-1140 2506,-1146 2500,-1152 2494,-1152"/>
<text text-anchor="start" x="2350.775" y="-1138" font-family="arial" font-weight="bold" font-size="10.00" fill="#000000">Some Main Culm as ORS</text>
<text text-anchor="start" x="2323.2675" y="-1121" font-family="arial" font-size="10.00" fill="#000000">Some part of the main Culm is ORS in</text>
<text text-anchor="start" x="2362.154" y="-1109" font-family="arial" font-size="10.00" fill="#000000"> age #pri #chron&#45;hyp</text>
</g>
<!-- n25&#45;&gt;n45 -->
<g id="edge9" class="edge">
<title>n25&#45;&gt;n45</title>
<path fill="none" stroke="#ff0000" d="M2424.9636,-1099.876C2439.7465,-1077.1104 2461.503,-1043.6054 2479.0377,-1016.6019"/>
<polygon fill="#ff0000" stroke="#ff0000" points="2482.0576,-1018.378 2484.5683,-1008.0849 2476.1867,-1014.5657 2482.0576,-1018.378"/>
</g>
<!-- n25&#45;&gt;n47 -->
<g id="edge14" class="edge">
<title>n25&#45;&gt;n47</title>
<path fill="none" stroke="#ff0000" d="M2403.2905,-1099.7178C2394.253,-1044.2737 2377.3693,-911.59 2401,-804 2407.067,-776.377 2421.2072,-747.3483 2432.5781,-727.0009"/>
<polygon fill="#ff0000" stroke="#ff0000" points="2435.6297,-728.7151 2437.5687,-718.2992 2429.5575,-725.2325 2435.6297,-728.7151"/>
</g>
<!-- n26 -->
<g id="node25" class="node">
<title>n26</title>
<path fill="#ffffff" stroke="#ffe4b5" stroke-width="2" d="M2280,-1152C2280,-1152 2108,-1152 2108,-1152 2102,-1152 2096,-1146 2096,-1140 2096,-1140 2096,-1112 2096,-1112 2096,-1106 2102,-1100 2108,-1100 2108,-1100 2280,-1100 2280,-1100 2286,-1100 2292,-1106 2292,-1112 2292,-1112 2292,-1140 2292,-1140 2292,-1146 2286,-1152 2280,-1152"/>
<text text-anchor="start" x="2140.105" y="-1138" font-family="arial" font-weight="bold" font-size="10.00" fill="#000000">Some Main Culm as SIL</text>
<text text-anchor="start" x="2112.5975" y="-1121" font-family="arial" font-size="10.00" fill="#000000">Some part of the main Culm is SIL in</text>
<text text-anchor="start" x="2148.154" y="-1109" font-family="arial" font-size="10.00" fill="#000000"> age #pri #chron&#45;hyp</text>
</g>
<!-- n26&#45;&gt;n45 -->
<g id="edge10" class="edge">
<title>n26&#45;&gt;n45</title>
<path fill="none" stroke="#ff0000" d="M2247.2658,-1099.876C2295.9948,-1075.9771 2368.8557,-1040.2428 2425.1786,-1012.6194"/>
<polygon fill="#ff0000" stroke="#ff0000" points="2426.9872,-1015.6307 2434.4243,-1008.0849 2423.9048,-1009.3459 2426.9872,-1015.6307"/>
</g>
<!-- n26&#45;&gt;n47 -->
<g id="edge15" class="edge">
<title>n26&#45;&gt;n47</title>
<path fill="none" stroke="#ff0000" d="M2227.7773,-1099.9569C2252.5155,-1079.4107 2285.4067,-1048.8218 2307,-1016 2362.4373,-931.7353 2344.335,-894.9241 2388,-804 2401.0243,-776.8793 2418.6523,-747.4291 2431.6089,-726.8142"/>
<polygon fill="#ff0000" stroke="#ff0000" points="2434.6222,-728.598 2437.0241,-718.279 2428.7114,-724.8479 2434.6222,-728.598"/>
</g>
<!-- n27 -->
<g id="node26" class="node">
<title>n27</title>
<path fill="#ffffff" stroke="#ffe4b5" stroke-width="2" d="M2594,-856C2594,-856 2422,-856 2422,-856 2416,-856 2410,-850 2410,-844 2410,-844 2410,-816 2410,-816 2410,-810 2416,-804 2422,-804 2422,-804 2594,-804 2594,-804 2600,-804 2606,-810 2606,-816 2606,-816 2606,-844 2606,-844 2606,-850 2600,-856 2594,-856"/>
<text text-anchor="start" x="2450.5" y="-842" font-family="arial" font-weight="bold" font-size="10.00" fill="#000000">Some Main Culm as CAM</text>
<text text-anchor="start" x="2422.9925" y="-825" font-family="arial" font-size="10.00" fill="#000000">Some part of the main Culm is CAM in</text>
<text text-anchor="start" x="2462.154" y="-813" font-family="arial" font-size="10.00" fill="#000000"> age #pri #chron&#45;hyp</text>
</g>
<!-- n27&#45;&gt;n47 -->
<g id="edge16" class="edge">
<title>n27&#45;&gt;n47</title>
<path fill="none" stroke="#ff0000" d="M2496.0605,-803.6926C2486.0292,-781.5897 2471.7385,-750.1018 2461.5415,-727.6338"/>
<polygon fill="#ff0000" stroke="#ff0000" points="2464.6305,-725.971 2457.3106,-718.3115 2458.2563,-728.864 2464.6305,-725.971"/>
</g>
<!-- n45&#45;&gt;n27 -->
<g id="edge52" class="edge">
<title>n45&#45;&gt;n27</title>
<path fill="none" stroke="#00ff00" d="M2508,-935.8C2508,-914.5712 2508,-887.8281 2508,-866.5407"/>
<polygon fill="#00ff00" stroke="#00ff00" points="2511.5001,-866.2713 2508,-856.2713 2504.5001,-866.2714 2511.5001,-866.2713"/>
</g>
<!-- n46&#45;&gt;n5 -->
<g id="edge12" class="edge">
<title>n46&#45;&gt;n5</title>
<path fill="none" stroke="#ff0000" d="M2167.8194,-927.7119C2114.2552,-840.3635 2012.4551,-641.7259 2089,-496 2092.6093,-489.1285 2166.2873,-439.6591 2217.4338,-405.8631"/>
<polygon fill="#ff0000" stroke="#ff0000" points="2219.6477,-408.5956 2226.0664,-400.1663 2215.7921,-402.7531 2219.6477,-408.5956"/>
</g>
<!-- n47&#45;&gt;n18 -->
<g id="edge53" class="edge">
<title>n47&#45;&gt;n18</title>
<path fill="none" stroke="#00ff00" d="M2419.34,-681.7294C2377.6468,-656.0464 2301.1132,-608.9017 2250.1363,-577.4999"/>
<polygon fill="#00ff00" stroke="#00ff00" points="2251.9073,-574.4802 2241.5573,-572.2153 2248.2359,-580.4401 2251.9073,-574.4802"/>
</g>
<!-- n19 -->
<g id="node30" class="node">
<title>n19</title>
<path fill="#ffffff" stroke="#ffc1c1" stroke-width="2" d="M842.5,-726C842.5,-726 661.5,-726 661.5,-726 655.5,-726 649.5,-720 649.5,-714 649.5,-714 649.5,-686 649.5,-686 649.5,-680 655.5,-674 661.5,-674 661.5,-674 842.5,-674 842.5,-674 848.5,-674 854.5,-680 854.5,-686 854.5,-686 854.5,-714 854.5,-714 854.5,-720 848.5,-726 842.5,-726"/>
<text text-anchor="start" x="726.944" y="-712" font-family="arial" font-weight="bold" font-size="10.00" fill="#000000">BCL as CM</text>
<text text-anchor="start" x="662.2025" y="-695" font-family="arial" font-size="10.00" fill="#000000">The black Culm Limestone is nothing but</text>
<text text-anchor="start" x="659.702" y="-683" font-family="arial" font-size="10.00" fill="#000000"> Coal Mesaures in age #COA #chron&#45;hyp </text>
</g>
<!-- n19&#45;&gt;n41 -->
<g id="edge78" class="edge">
<title>n19&#45;&gt;n41</title>
<path fill="none" stroke="#00ff00" d="M854.7314,-696.517C1140.5069,-686.3333 1926.3853,-654.765 1964,-614.4 1999.8749,-575.902 1996.8314,-537.1242 1964,-496 1896.8924,-411.942 1827.4907,-483.2751 1728,-442.4 1711.7418,-435.7204 1695.1576,-426.7436 1679.9618,-417.4949"/>
<polygon fill="#00ff00" stroke="#00ff00" points="1681.5274,-414.3468 1671.1882,-412.0333 1677.8281,-420.2895 1681.5274,-414.3468"/>
</g>
<!-- n19&#45;&gt;n42 -->
<g id="edge79" class="edge">
<title>n19&#45;&gt;n42</title>
<path fill="none" stroke="#00ff00" d="M854.7095,-696.346C1135.9879,-685.8445 1900.3495,-653.7935 1937,-614.4 1972.844,-575.8733 1971.8096,-535.4638 1937,-496 1873.8843,-424.4454 1600.727,-474.8455 1511,-442.4 1494.2745,-436.352 1477.4653,-427.3239 1462.2859,-417.7943"/>
<polygon fill="#00ff00" stroke="#00ff00" points="1463.8474,-414.636 1453.5497,-412.1442 1460.0459,-420.5138 1463.8474,-414.636"/>
</g>
<!-- n21 -->
<g id="node31" class="node">
<title>n21</title>
<path fill="#ffffff" stroke="#ffc1c1" stroke-width="2" d="M840,-572C840,-572 664,-572 664,-572 658,-572 652,-566 652,-560 652,-560 652,-532 652,-532 652,-526 658,-520 664,-520 664,-520 840,-520 840,-520 846,-520 852,-526 852,-532 852,-532 852,-560 852,-560 852,-566 846,-572 840,-572"/>
<text text-anchor="start" x="726.7145" y="-558" font-family="arial" font-weight="bold" font-size="10.00" fill="#000000">BCL as SIL</text>
<text text-anchor="start" x="661.7025" y="-541" font-family="arial" font-size="10.00" fill="#000000">The black Culm Limestone is nothing but</text>
<text text-anchor="start" x="685.313" y="-529" font-family="arial" font-size="10.00" fill="#000000"> SIL in age #COA #chron&#45;hyp </text>
</g>
<!-- n19&#45;&gt;n21 -->
<g id="edge30" class="edge">
<title>n19&#45;&gt;n21</title>
<path fill="none" stroke="#ff0000" d="M746.783,-673.876C744.9733,-648.7653 744.7659,-610.5885 746.1607,-582.4827"/>
<polygon fill="#ff0000" stroke="#ff0000" points="749.6693,-582.4436 746.7738,-572.2522 742.6818,-582.0249 749.6693,-582.4436"/>
</g>
<!-- n19&#45;&gt;n54 -->
<g id="edge80" class="edge">
<title>n19&#45;&gt;n54</title>
<path fill="none" stroke="#00ff00" d="M854.535,-697.6348C1133.2773,-690.5451 1890.7092,-666.649 1990,-614.4 2049.4599,-583.1109 2024.0794,-526.3975 2084,-496 2219.659,-427.1807 3306.576,-487.0242 3452,-442.4 3470.0489,-436.8616 3488.0899,-427.5996 3504.187,-417.6519"/>
<polygon fill="#00ff00" stroke="#00ff00" points="3506.375,-420.4074 3512.9176,-412.0741 3502.6063,-414.5085 3506.375,-420.4074"/>
</g>
<!-- n21&#45;&gt;n43 -->
<g id="edge84" class="edge">
<title>n21&#45;&gt;n43</title>
<path fill="none" stroke="#00ff00" d="M786.0208,-519.8769C816.7572,-496.2757 863.0485,-460.7306 902.2404,-430.6368"/>
<polygon fill="#00ff00" stroke="#00ff00" points="904.6877,-433.1705 910.4876,-424.3041 900.4245,-427.6184 904.6877,-433.1705"/>
</g>
<!-- n21&#45;&gt;n19 -->
<g id="edge29" class="edge">
<title>n21&#45;&gt;n19</title>
<path fill="none" stroke="#ff0000" d="M757.2262,-572.2522C759.0305,-597.4072 759.2325,-635.589 757.8321,-663.6606"/>
<polygon fill="#ff0000" stroke="#ff0000" points="754.3245,-663.6837 757.217,-673.876 761.3118,-664.1045 754.3245,-663.6837"/>
</g>
<!-- n22 -->
<g id="node32" class="node">
<title>n22</title>
<path fill="#ffffff" stroke="#ffc1c1" stroke-width="2" d="M620,-732C620,-732 448,-732 448,-732 442,-732 436,-726 436,-720 436,-720 436,-680 436,-680 436,-674 442,-668 448,-668 448,-668 620,-668 620,-668 626,-668 632,-674 632,-680 632,-680 632,-720 632,-720 632,-726 626,-732 620,-732"/>
<text text-anchor="start" x="486.7635" y="-718" font-family="arial" font-weight="bold" font-size="10.00" fill="#000000">BCL as SIL and ORS</text>
<text text-anchor="start" x="446.766" y="-701" font-family="arial" font-size="10.00" fill="#000000">The black Culm Limestone ranges from</text>
<text text-anchor="start" x="450.363" y="-689" font-family="arial" font-size="10.00" fill="#000000"> Silurian to Old Red Sandstone in age</text>
<text text-anchor="start" x="491.2125" y="-677" font-family="arial" font-size="10.00" fill="#000000"> #COA #chron&#45;hyp </text>
</g>
<!-- n22&#45;&gt;n44 -->
<g id="edge85" class="edge">
<title>n22&#45;&gt;n44</title>
<path fill="none" stroke="#00ff00" d="M632.0009,-669.6505C634.688,-669.0646 637.358,-668.5125 640,-668 705.0556,-655.3813 1189.2965,-663.319 1234,-614.4 1278.5087,-565.6942 1252.7098,-487.457 1225.5954,-433.5369"/>
<polygon fill="#00ff00" stroke="#00ff00" points="1228.5909,-431.7096 1220.8897,-424.4334 1222.3725,-434.924 1228.5909,-431.7096"/>
</g>
<!-- n28 -->
<g id="node33" class="node">
<title>n28</title>
<path fill="#ffffff" stroke="#ffe4b5" stroke-width="2" d="M200,-1306C200,-1306 28,-1306 28,-1306 22,-1306 16,-1300 16,-1294 16,-1294 16,-1266 16,-1266 16,-1260 22,-1254 28,-1254 28,-1254 200,-1254 200,-1254 206,-1254 212,-1260 212,-1266 212,-1266 212,-1294 212,-1294 212,-1300 206,-1306 200,-1306"/>
<text text-anchor="start" x="73.9965" y="-1292" font-family="arial" font-weight="bold" font-size="10.00" fill="#000000">Some BCL as CM</text>
<text text-anchor="start" x="26.482" y="-1275" font-family="arial" font-size="10.00" fill="#000000">Some part of the black Culm Limestone</text>
<text text-anchor="start" x="48.713" y="-1263" font-family="arial" font-size="10.00" fill="#000000"> is CM in age #pri #chron&#45;hyp</text>
</g>
<!-- n48 -->
<g id="node38" class="node">
<title>n48</title>
<path fill="#ffe4b5" stroke="#000000" d="M587,-1164C587,-1164 411,-1164 411,-1164 405,-1164 399,-1158 399,-1152 399,-1152 399,-1100 399,-1100 399,-1094 405,-1088 411,-1088 411,-1088 587,-1088 587,-1088 593,-1088 599,-1094 599,-1100 599,-1100 599,-1152 599,-1152 599,-1158 593,-1164 587,-1164"/>
<text text-anchor="start" x="414.252" y="-1150" font-family="arial" font-weight="bold" font-size="10.00" fill="#000000">Standard Sequence as Partition &#45; BCL</text>
<text text-anchor="start" x="432.5985" y="-1133" font-family="arial" font-size="10.00" fill="#000000">If some part of the black Culm</text>
<text text-anchor="start" x="408.9885" y="-1121" font-family="arial" font-size="10.00" fill="#000000"> Limestone is neiter CM, ML, OR nor SIL</text>
<text text-anchor="start" x="425.372" y="-1109" font-family="arial" font-size="10.00" fill="#000000"> in age, then it is CAM in age #pri</text>
<text text-anchor="start" x="472.6045" y="-1097" font-family="arial" font-size="10.00" fill="#000000"> #chron&#45;hyp</text>
</g>
<!-- n28&#45;&gt;n48 -->
<g id="edge17" class="edge">
<title>n28&#45;&gt;n48</title>
<path fill="none" stroke="#ff0000" d="M177.0286,-1253.918C191.4622,-1247.9908 206.7504,-1241.7487 221,-1236 277.417,-1213.2398 340.4466,-1188.2632 392.2084,-1167.8704"/>
<polygon fill="#ff0000" stroke="#ff0000" points="393.7161,-1171.0383 401.7382,-1164.1175 391.1512,-1164.5251 393.7161,-1171.0383"/>
</g>
<!-- n49 -->
<g id="node39" class="node">
<title>n49</title>
<path fill="#ffc1c1" stroke="#000000" d="M834,-848C834,-848 662,-848 662,-848 656,-848 650,-842 650,-836 650,-836 650,-824 650,-824 650,-818 656,-812 662,-812 662,-812 834,-812 834,-812 840,-812 846,-818 846,-824 846,-824 846,-836 846,-836 846,-842 840,-848 834,-848"/>
<text text-anchor="start" x="689.097" y="-828" font-family="arial" font-weight="bold" font-size="10.00" fill="#000000">Redating the BCL &#45; COA.1</text>
</g>
<!-- n28&#45;&gt;n49 -->
<g id="edge87" class="edge">
<title>n28&#45;&gt;n49</title>
<path fill="none" stroke="#00ff00" d="M138.2056,-1253.7018C177.8359,-1212.2351 260.8178,-1131.8741 347,-1088 461.1248,-1029.9007 529.925,-1100.6735 626,-1016 657.5775,-988.1699 638.9179,-963.8334 661,-928 677.6057,-901.0533 701.8575,-874.4515 720.5403,-855.7783"/>
<polygon fill="#00ff00" stroke="#00ff00" points="723.4883,-857.7885 728.1677,-848.283 718.582,-852.7956 723.4883,-857.7885"/>
</g>
<!-- n50 -->
<g id="node40" class="node">
<title>n50</title>
<path fill="#ffc1c1" stroke="#000000" d="M406,-848C406,-848 234,-848 234,-848 228,-848 222,-842 222,-836 222,-836 222,-824 222,-824 222,-818 228,-812 234,-812 234,-812 406,-812 406,-812 412,-812 418,-818 418,-824 418,-824 418,-836 418,-836 418,-842 412,-848 406,-848"/>
<text text-anchor="start" x="256.928" y="-828" font-family="arial" font-weight="bold" font-size="10.00" fill="#000000">Redating the BCL &#45; COA.3.1</text>
</g>
<!-- n28&#45;&gt;n50 -->
<g id="edge25" class="edge">
<title>n28&#45;&gt;n50</title>
<path fill="none" stroke="#ff0000" d="M119.7865,-1253.9091C133.8635,-1193.6232 173.5481,-1041.1651 238,-928 253.2745,-901.1809 276.1653,-874.568 293.8828,-855.8581"/>
<polygon fill="#ff0000" stroke="#ff0000" points="296.7033,-857.9752 301.122,-848.3458 291.6627,-853.1179 296.7033,-857.9752"/>
</g>
<!-- n51 -->
<g id="node41" class="node">
<title>n51</title>
<path fill="#ffc1c1" stroke="#000000" d="M620,-848C620,-848 448,-848 448,-848 442,-848 436,-842 436,-836 436,-836 436,-824 436,-824 436,-818 442,-812 448,-812 448,-812 620,-812 620,-812 626,-812 632,-818 632,-824 632,-824 632,-836 632,-836 632,-842 626,-848 620,-848"/>
<text text-anchor="start" x="470.928" y="-828" font-family="arial" font-weight="bold" font-size="10.00" fill="#000000">Redating the BCL &#45; COA.3.2</text>
</g>
<!-- n28&#45;&gt;n51 -->
<g id="edge31" class="edge">
<title>n28&#45;&gt;n51</title>
<path fill="none" stroke="#ff0000" d="M127.9694,-1253.8044C162.2751,-1191.3106 256.1449,-1031.0273 369,-928 403.559,-896.4505 449.8619,-870.0215 484.6206,-852.5907"/>
<polygon fill="#ff0000" stroke="#ff0000" points="486.2276,-855.7007 493.6456,-848.1361 483.1293,-849.4237 486.2276,-855.7007"/>
</g>
<!-- n29 -->
<g id="node34" class="node">
<title>n29</title>
<path fill="#ffffff" stroke="#ffe4b5" stroke-width="2" d="M414,-1306C414,-1306 242,-1306 242,-1306 236,-1306 230,-1300 230,-1294 230,-1294 230,-1266 230,-1266 230,-1260 236,-1254 242,-1254 242,-1254 414,-1254 414,-1254 420,-1254 426,-1260 426,-1266 426,-1266 426,-1294 426,-1294 426,-1300 420,-1306 414,-1306"/>
<text text-anchor="start" x="288.8265" y="-1292" font-family="arial" font-weight="bold" font-size="10.00" fill="#000000">Some BCL as ML</text>
<text text-anchor="start" x="240.482" y="-1275" font-family="arial" font-size="10.00" fill="#000000">Some part of the black Culm Limestone</text>
<text text-anchor="start" x="263.543" y="-1263" font-family="arial" font-size="10.00" fill="#000000"> is ML in age #pri #chron&#45;hyp</text>
</g>
<!-- n29&#45;&gt;n48 -->
<g id="edge18" class="edge">
<title>n29&#45;&gt;n48</title>
<path fill="none" stroke="#ff0000" d="M357.0078,-1253.876C382.2187,-1231.1714 419.2908,-1197.7849 449.2333,-1170.8192"/>
<polygon fill="#ff0000" stroke="#ff0000" points="451.592,-1173.4051 456.6806,-1164.1122 446.9075,-1168.2035 451.592,-1173.4051"/>
</g>
<!-- n29&#45;&gt;n49 -->
<g id="edge21" class="edge">
<title>n29&#45;&gt;n49</title>
<path fill="none" stroke="#ff0000" d="M333.1902,-1253.9731C343.0453,-1207.0701 365.6678,-1111.0834 390,-1088 480.4112,-1002.229 566.6065,-1097.3679 661,-1016 693.268,-988.1847 681.0225,-966.6228 699,-928 710.2443,-903.8429 723.8542,-876.7806 733.8742,-857.2252"/>
<polygon fill="#ff0000" stroke="#ff0000" points="737.0168,-858.7674 738.4787,-848.2739 730.792,-855.5654 737.0168,-858.7674"/>
</g>
<!-- n29&#45;&gt;n50 -->
<g id="edge26" class="edge">
<title>n29&#45;&gt;n50</title>
<path fill="none" stroke="#ff0000" d="M327.5353,-1253.861C326.1343,-1175.0517 321.9586,-940.1739 320.5054,-858.4271"/>
<polygon fill="#ff0000" stroke="#ff0000" points="324.0039,-858.3065 320.3266,-848.3703 317.005,-858.431 324.0039,-858.3065"/>
</g>
<!-- n29&#45;&gt;n51 -->
<g id="edge32" class="edge">
<title>n29&#45;&gt;n51</title>
<path fill="none" stroke="#ff0000" d="M328.5777,-1253.9365C331.0717,-1192.4059 344.1404,-1035.2445 412,-928 431.838,-896.6482 465.228,-870.858 492.0663,-853.6174"/>
<polygon fill="#ff0000" stroke="#ff0000" points="494.2636,-856.3714 500.8877,-848.1027 490.5529,-850.4358 494.2636,-856.3714"/>
</g>
<!-- n30 -->
<g id="node35" class="node">
<title>n30</title>
<path fill="#ffffff" stroke="#ffe4b5" stroke-width="2" d="M842,-1306C842,-1306 670,-1306 670,-1306 664,-1306 658,-1300 658,-1294 658,-1294 658,-1266 658,-1266 658,-1260 664,-1254 670,-1254 670,-1254 842,-1254 842,-1254 848,-1254 854,-1260 854,-1266 854,-1266 854,-1294 854,-1294 854,-1300 848,-1306 842,-1306"/>
<text text-anchor="start" x="712.937" y="-1292" font-family="arial" font-weight="bold" font-size="10.00" fill="#000000">Some BCL as ORS</text>
<text text-anchor="start" x="668.482" y="-1275" font-family="arial" font-size="10.00" fill="#000000">Some part of the black Culm Limestone</text>
<text text-anchor="start" x="687.6535" y="-1263" font-family="arial" font-size="10.00" fill="#000000"> is ORS in age #pri #chron&#45;hyp</text>
</g>
<!-- n30&#45;&gt;n48 -->
<g id="edge19" class="edge">
<title>n30&#45;&gt;n48</title>
<path fill="none" stroke="#ff0000" d="M712.4035,-1253.876C673.7909,-1230.7385 616.6656,-1196.5078 571.2333,-1169.2838"/>
<polygon fill="#ff0000" stroke="#ff0000" points="572.9798,-1166.2501 562.6029,-1164.1122 569.3817,-1172.2546 572.9798,-1166.2501"/>
</g>
<!-- n30&#45;&gt;n49 -->
<g id="edge22" class="edge">
<title>n30&#45;&gt;n49</title>
<path fill="none" stroke="#ff0000" d="M755.5353,-1253.861C754.1343,-1175.0517 749.9586,-940.1739 748.5054,-858.4271"/>
<polygon fill="#ff0000" stroke="#ff0000" points="752.0039,-858.3065 748.3266,-848.3703 745.005,-858.431 752.0039,-858.3065"/>
</g>
<!-- n30&#45;&gt;n50 -->
<g id="edge27" class="edge">
<title>n30&#45;&gt;n50</title>
<path fill="none" stroke="#ff0000" d="M742.2798,-1253.8526C719.5758,-1212.9586 670.4334,-1133.8153 608,-1088 533.181,-1033.0958 481.0457,-1078.0084 412,-1016 363.6722,-972.5979 337.7829,-898.0662 326.698,-857.785"/>
<polygon fill="#ff0000" stroke="#ff0000" points="330.0741,-856.861 324.1347,-848.0874 323.3065,-858.6498 330.0741,-856.861"/>
</g>
<!-- n30&#45;&gt;n51 -->
<g id="edge88" class="edge">
<title>n30&#45;&gt;n51</title>
<path fill="none" stroke="#00ff00" d="M752.3728,-1253.6932C742.9344,-1192.3023 713.2855,-1036.5624 643,-928 623.8246,-898.3819 593.4461,-872.0992 569.6249,-854.2272"/>
<polygon fill="#00ff00" stroke="#00ff00" points="571.6342,-851.3604 561.5017,-848.2647 567.4922,-857.0034 571.6342,-851.3604"/>
</g>
<!-- n31 -->
<g id="node36" class="node">
<title>n31</title>
<path fill="#ffffff" stroke="#ffe4b5" stroke-width="2" d="M628,-1306C628,-1306 456,-1306 456,-1306 450,-1306 444,-1300 444,-1294 444,-1294 444,-1266 444,-1266 444,-1260 450,-1254 456,-1254 456,-1254 628,-1254 628,-1254 634,-1254 640,-1260 640,-1266 640,-1266 640,-1294 640,-1294 640,-1300 634,-1306 628,-1306"/>
<text text-anchor="start" x="502.267" y="-1292" font-family="arial" font-weight="bold" font-size="10.00" fill="#000000">Some BCL as SIL</text>
<text text-anchor="start" x="454.482" y="-1275" font-family="arial" font-size="10.00" fill="#000000">Some part of the black Culm Limestone</text>
<text text-anchor="start" x="476.9835" y="-1263" font-family="arial" font-size="10.00" fill="#000000"> is SIL in age #pri #chron&#45;hyp</text>
</g>
<!-- n31&#45;&gt;n48 -->
<g id="edge20" class="edge">
<title>n31&#45;&gt;n48</title>
<path fill="none" stroke="#ff0000" d="M534.7056,-1253.876C528.6078,-1232.0373 519.7505,-1200.3158 512.3834,-1173.9313"/>
<polygon fill="#ff0000" stroke="#ff0000" points="515.7022,-1172.8025 509.6417,-1164.1122 508.9601,-1174.6851 515.7022,-1172.8025"/>
</g>
<!-- n31&#45;&gt;n49 -->
<g id="edge23" class="edge">
<title>n31&#45;&gt;n49</title>
<path fill="none" stroke="#ff0000" d="M570.7835,-1253.7636C589.5469,-1235.3426 613.3636,-1209.2808 629,-1182.4 693.6095,-1071.3287 729.6762,-920.0111 742.5361,-858.1223"/>
<polygon fill="#ff0000" stroke="#ff0000" points="745.9695,-858.8017 744.536,-848.3043 739.1103,-857.4044 745.9695,-858.8017"/>
</g>
<!-- n31&#45;&gt;n50 -->
<g id="edge89" class="edge">
<title>n31&#45;&gt;n50</title>
<path fill="none" stroke="#00ff00" d="M478.7507,-1253.9588C447.3634,-1237.8616 411.6295,-1214.1492 390,-1182.4 353.682,-1129.09 330.3566,-931.8956 322.7359,-858.1092"/>
<polygon fill="#00ff00" stroke="#00ff00" points="326.217,-857.7457 321.7258,-848.1499 319.2528,-858.4521 326.217,-857.7457"/>
</g>
<!-- n31&#45;&gt;n51 -->
<g id="edge90" class="edge">
<title>n31&#45;&gt;n51</title>
<path fill="none" stroke="#00ff00" d="M564.9514,-1253.8012C579.8694,-1235.1959 598.2896,-1208.9052 608,-1182.4 646.9922,-1075.9684 667.7186,-1033.3927 626,-928 614.1951,-898.1777 588.5477,-872.1298 567.324,-854.3995"/>
<polygon fill="#00ff00" stroke="#00ff00" points="569.4192,-851.5926 559.4445,-848.021 565.0148,-857.0333 569.4192,-851.5926"/>
</g>
<!-- n32 -->
<g id="node37" class="node">
<title>n32</title>
<path fill="#ffffff" stroke="#ffe4b5" stroke-width="2" d="M605,-998C605,-998 433,-998 433,-998 427,-998 421,-992 421,-986 421,-986 421,-958 421,-958 421,-952 427,-946 433,-946 433,-946 605,-946 605,-946 611,-946 617,-952 617,-958 617,-958 617,-986 617,-986 617,-992 611,-998 605,-998"/>
<text text-anchor="start" x="475.662" y="-984" font-family="arial" font-weight="bold" font-size="10.00" fill="#000000">Some BCL as CAM</text>
<text text-anchor="start" x="431.482" y="-967" font-family="arial" font-size="10.00" fill="#000000">Some part of the black Culm Limestone</text>
<text text-anchor="start" x="450.3785" y="-955" font-family="arial" font-size="10.00" fill="#000000"> is CAM in age #pri #chron&#45;hyp</text>
</g>
<!-- n32&#45;&gt;n49 -->
<g id="edge24" class="edge">
<title>n32&#45;&gt;n49</title>
<path fill="none" stroke="#ff0000" d="M561.0021,-945.955C603.7069,-919.4743 669.2683,-878.8205 710.3381,-853.3537"/>
<polygon fill="#ff0000" stroke="#ff0000" points="712.3101,-856.2492 718.9643,-848.0047 708.6211,-850.3001 712.3101,-856.2492"/>
</g>
<!-- n32&#45;&gt;n50 -->
<g id="edge28" class="edge">
<title>n32&#45;&gt;n50</title>
<path fill="none" stroke="#ff0000" d="M482.5003,-945.955C445.6235,-919.6409 389.1333,-879.3313 353.4039,-853.836"/>
<polygon fill="#ff0000" stroke="#ff0000" points="355.405,-850.9642 345.2319,-848.0047 351.339,-856.6622 355.405,-850.9642"/>
</g>
<!-- n32&#45;&gt;n51 -->
<g id="edge33" class="edge">
<title>n32&#45;&gt;n51</title>
<path fill="none" stroke="#ff0000" d="M521.7512,-945.955C524.371,-921.1543 528.304,-883.9218 531.0025,-858.3766"/>
<polygon fill="#ff0000" stroke="#ff0000" points="534.506,-858.5269 532.0759,-848.2145 527.5447,-857.7915 534.506,-858.5269"/>
</g>
<!-- n48&#45;&gt;n32 -->
<g id="edge54" class="edge">
<title>n48&#45;&gt;n32</title>
<path fill="none" stroke="#00ff00" d="M503.9438,-1087.9326C507.1078,-1063.5699 511.1882,-1032.1507 514.3029,-1008.1676"/>
<polygon fill="#00ff00" stroke="#00ff00" points="517.799,-1008.4234 515.6161,-998.0559 510.8573,-1007.5219 517.799,-1008.4234"/>
</g>
<!-- n49&#45;&gt;n19 -->
<g id="edge55" class="edge">
<title>n49&#45;&gt;n19</title>
<path fill="none" stroke="#00ff00" d="M748.5562,-811.9241C749.1535,-792.5115 750.1187,-761.1425 750.8755,-736.546"/>
<polygon fill="#00ff00" stroke="#00ff00" points="754.3761,-736.5769 751.1854,-726.4739 747.3794,-736.3615 754.3761,-736.5769"/>
</g>
<!-- n50&#45;&gt;n21 -->
<g id="edge56" class="edge">
<title>n50&#45;&gt;n21</title>
<path fill="none" stroke="#00ff00" d="M327.3431,-811.9938C341.6938,-778.9278 376.5308,-708.2392 427,-668 489.5434,-618.134 574.592,-587.1817 641.9993,-568.9349"/>
<polygon fill="#00ff00" stroke="#00ff00" points="643.0423,-572.2794 651.8119,-566.3342 641.2489,-565.513 643.0423,-572.2794"/>
</g>
<!-- n51&#45;&gt;n22 -->
<g id="edge57" class="edge">
<title>n51&#45;&gt;n22</title>
<path fill="none" stroke="#00ff00" d="M534,-811.9241C534,-793.996 534,-765.8701 534,-742.299"/>
<polygon fill="#00ff00" stroke="#00ff00" points="537.5001,-742.1818 534,-732.1818 530.5001,-742.1818 537.5001,-742.1818"/>
</g>
<!-- n20 -->
<g id="node42" class="node">
<title>n20</title>
<path fill="#ffffff" stroke="#ffc1c1" stroke-width="2" d="M3154,-578C3154,-578 2982,-578 2982,-578 2976,-578 2970,-572 2970,-566 2970,-566 2970,-526 2970,-526 2970,-520 2976,-514 2982,-514 2982,-514 3154,-514 3154,-514 3160,-514 3166,-520 3166,-526 3166,-526 3166,-566 3166,-566 3166,-572 3160,-578 3154,-578"/>
<text text-anchor="start" x="3007.716" y="-564" font-family="arial" font-weight="bold" font-size="10.00" fill="#000000">Non&#45;Culm as SIL and CAM</text>
<text text-anchor="start" x="2987.1465" y="-547" font-family="arial" font-size="10.00" fill="#000000">In Devon, the non&#45;Culm strata range</text>
<text text-anchor="start" x="2979.934" y="-535" font-family="arial" font-size="10.00" fill="#000000"> from Cambrian to Silurian in age #COA</text>
<text text-anchor="start" x="3041.6045" y="-523" font-family="arial" font-size="10.00" fill="#000000"> #chron&#45;hyp</text>
</g>
<!-- n20&#45;&gt;n41 -->
<g id="edge42" class="edge">
<title>n20&#45;&gt;n41</title>
<path fill="none" stroke="#ff0000" d="M3008.3891,-513.9159C2992.4482,-506.7373 2974.9324,-500.0556 2958,-496 2691.9328,-432.2723 1989.3789,-523.2336 1728,-442.4 1709.9633,-436.822 1691.9265,-427.5464 1675.8295,-417.5982"/>
<polygon fill="#ff0000" stroke="#ff0000" points="1677.4102,-414.4549 1667.0986,-412.0215 1673.6421,-420.3542 1677.4102,-414.4549"/>
</g>
<!-- n20&#45;&gt;n42 -->
<g id="edge81" class="edge">
<title>n20&#45;&gt;n42</title>
<path fill="none" stroke="#00ff00" d="M3008.695,-513.97C2992.677,-506.743 2975.0476,-500.0244 2958,-496 2644.8319,-422.0702 1818.127,-538.3836 1511,-442.4 1493.333,-436.8787 1475.7461,-427.6226 1460.0867,-417.6751"/>
<polygon fill="#00ff00" stroke="#00ff00" points="1461.8765,-414.6631 1451.5972,-412.0969 1458.0325,-420.5133 1461.8765,-414.6631"/>
</g>
<!-- n20&#45;&gt;n43 -->
<g id="edge82" class="edge">
<title>n20&#45;&gt;n43</title>
<path fill="none" stroke="#00ff00" d="M3008.718,-513.8718C2992.6997,-506.6459 2975.0645,-499.9524 2958,-496 2551.9133,-401.9436 1481.3816,-565.0583 1083,-442.4 1072.2437,-439.0882 1061.5226,-434.3775 1051.2503,-428.9575"/>
<polygon fill="#00ff00" stroke="#00ff00" points="1052.7931,-425.8111 1042.3491,-424.0292 1049.4024,-431.9351 1052.7931,-425.8111"/>
</g>
<!-- n20&#45;&gt;n44 -->
<g id="edge83" class="edge">
<title>n20&#45;&gt;n44</title>
<path fill="none" stroke="#00ff00" d="M3008.708,-513.9146C2992.6899,-506.6882 2975.0572,-499.9838 2958,-496 2598.375,-412.0075 1649.752,-551.7202 1297,-442.4 1286.3312,-439.0937 1275.6947,-434.4173 1265.4956,-429.0427"/>
<polygon fill="#00ff00" stroke="#00ff00" points="1267.1006,-425.9308 1256.6554,-424.1566 1263.7144,-432.0573 1267.1006,-425.9308"/>
</g>
<!-- n20&#45;&gt;n54 -->
<g id="edge43" class="edge">
<title>n20&#45;&gt;n54</title>
<path fill="none" stroke="#ff0000" d="M3166.1258,-527.8191C3245.3411,-511.1988 3358.5884,-482.9899 3452,-442.4 3467.8621,-435.5075 3484.1211,-426.5832 3499.1071,-417.4699"/>
<polygon fill="#ff0000" stroke="#ff0000" points="3501.1177,-420.3414 3507.7709,-412.0962 3497.428,-414.3928 3501.1177,-420.3414"/>
</g>
<!-- n33 -->
<g id="node43" class="node">
<title>n33</title>
<path fill="#ffffff" stroke="#ffe4b5" stroke-width="2" d="M3802,-1152C3802,-1152 3630,-1152 3630,-1152 3624,-1152 3618,-1146 3618,-1140 3618,-1140 3618,-1112 3618,-1112 3618,-1106 3624,-1100 3630,-1100 3630,-1100 3802,-1100 3802,-1100 3808,-1100 3814,-1106 3814,-1112 3814,-1112 3814,-1140 3814,-1140 3814,-1146 3808,-1152 3802,-1152"/>
<text text-anchor="start" x="3663.224" y="-1138" font-family="arial" font-weight="bold" font-size="10.00" fill="#000000">Some Non&#45;Culm as CM</text>
<text text-anchor="start" x="3627.933" y="-1121" font-family="arial" font-size="10.00" fill="#000000">Some part of the non&#45;Culm strata is CM</text>
<text text-anchor="start" x="3664.8755" y="-1109" font-family="arial" font-size="10.00" fill="#000000"> in age #pri #chron&#45;hyp</text>
</g>
<!-- n52 -->
<g id="node48" class="node">
<title>n52</title>
<path fill="#ffe4b5" stroke="#000000" d="M3374,-1008C3374,-1008 3202,-1008 3202,-1008 3196,-1008 3190,-1002 3190,-996 3190,-996 3190,-948 3190,-948 3190,-942 3196,-936 3202,-936 3202,-936 3374,-936 3374,-936 3380,-936 3386,-942 3386,-948 3386,-948 3386,-996 3386,-996 3386,-1002 3380,-1008 3374,-1008"/>
<text text-anchor="start" x="3214.365" y="-994" font-family="arial" font-weight="bold" font-size="10.00" fill="#000000">Standard Sequence as Partition &#45;</text>
<text text-anchor="start" x="3264.1145" y="-984" font-family="arial" font-weight="bold" font-size="10.00" fill="#000000"> Non&#45;Culm</text>
<text text-anchor="start" x="3205.7625" y="-969" font-family="arial" font-size="10.00" fill="#000000">If some part of the non&#45;Culm strata is</text>
<text text-anchor="start" x="3199.9245" y="-957" font-family="arial" font-size="10.00" fill="#000000"> neiter CM, ML, OR nor SIL in age, then</text>
<text text-anchor="start" x="3215.49" y="-945" font-family="arial" font-size="10.00" fill="#000000"> it is CAM in age #pri #chron&#45;hyp</text>
</g>
<!-- n33&#45;&gt;n52 -->
<g id="edge34" class="edge">
<title>n33&#45;&gt;n52</title>
<path fill="none" stroke="#ff0000" d="M3643.3956,-1099.876C3575.5818,-1075.4757 3473.4801,-1038.7382 3396.0887,-1010.8917"/>
<polygon fill="#ff0000" stroke="#ff0000" points="3396.8933,-1007.4616 3386.2988,-1007.3692 3394.5233,-1014.0482 3396.8933,-1007.4616"/>
</g>
<!-- n53 -->
<g id="node49" class="node">
<title>n53</title>
<path fill="#ffc1c1" stroke="#000000" d="M3321.5,-718C3321.5,-718 3130.5,-718 3130.5,-718 3124.5,-718 3118.5,-712 3118.5,-706 3118.5,-706 3118.5,-694 3118.5,-694 3118.5,-688 3124.5,-682 3130.5,-682 3130.5,-682 3321.5,-682 3321.5,-682 3327.5,-682 3333.5,-688 3333.5,-694 3333.5,-694 3333.5,-706 3333.5,-706 3333.5,-712 3327.5,-718 3321.5,-718"/>
<text text-anchor="start" x="3128.7085" y="-698" font-family="arial" font-weight="bold" font-size="10.00" fill="#000000">Extending the Non&#45;Culm Upwards &#45; COA.2a</text>
</g>
<!-- n33&#45;&gt;n53 -->
<g id="edge41" class="edge">
<title>n33&#45;&gt;n53</title>
<path fill="none" stroke="#ff0000" d="M3695.5878,-1099.7011C3649.3736,-1041.3322 3531.2912,-898.6529 3410,-804 3367.5979,-770.9103 3313.4301,-741.6179 3274.871,-722.6224"/>
<polygon fill="#ff0000" stroke="#ff0000" points="3275.9437,-719.2518 3265.4208,-718.0189 3272.8781,-725.5448 3275.9437,-719.2518"/>
</g>
<!-- n34 -->
<g id="node44" class="node">
<title>n34</title>
<path fill="#ffffff" stroke="#ffe4b5" stroke-width="2" d="M3588,-1152C3588,-1152 3416,-1152 3416,-1152 3410,-1152 3404,-1146 3404,-1140 3404,-1140 3404,-1112 3404,-1112 3404,-1106 3410,-1100 3416,-1100 3416,-1100 3588,-1100 3588,-1100 3594,-1100 3600,-1106 3600,-1112 3600,-1112 3600,-1140 3600,-1140 3600,-1146 3594,-1152 3588,-1152"/>
<text text-anchor="start" x="3450.054" y="-1138" font-family="arial" font-weight="bold" font-size="10.00" fill="#000000">Some Non&#45;Culm as ML</text>
<text text-anchor="start" x="3414.763" y="-1121" font-family="arial" font-size="10.00" fill="#000000">Some part of the non&#45;Culm strata is ML</text>
<text text-anchor="start" x="3450.8755" y="-1109" font-family="arial" font-size="10.00" fill="#000000"> in age #pri #chron&#45;hyp</text>
</g>
<!-- n34&#45;&gt;n52 -->
<g id="edge35" class="edge">
<title>n34&#45;&gt;n52</title>
<path fill="none" stroke="#ff0000" d="M3465.6978,-1099.876C3433.1039,-1076.4206 3384.6681,-1041.5649 3346.5936,-1014.1655"/>
<polygon fill="#ff0000" stroke="#ff0000" points="3348.3051,-1011.0851 3338.1439,-1008.0849 3344.2163,-1016.7669 3348.3051,-1011.0851"/>
</g>
<!-- n34&#45;&gt;n53 -->
<g id="edge40" class="edge">
<title>n34&#45;&gt;n53</title>
<path fill="none" stroke="#ff0000" d="M3476.6439,-1099.9328C3457.9379,-1079.0272 3433.6291,-1047.9855 3421,-1016 3386.1572,-927.7545 3447.1638,-883.8971 3396,-804 3371.1452,-765.1868 3326.1262,-738.6069 3288.658,-722.0384"/>
<polygon fill="#ff0000" stroke="#ff0000" points="3289.8825,-718.7554 3279.3118,-718.0404 3287.1294,-725.1913 3289.8825,-718.7554"/>
</g>
<!-- n35 -->
<g id="node45" class="node">
<title>n35</title>
<path fill="#ffffff" stroke="#ffe4b5" stroke-width="2" d="M3160,-1152C3160,-1152 2982,-1152 2982,-1152 2976,-1152 2970,-1146 2970,-1140 2970,-1140 2970,-1112 2970,-1112 2970,-1106 2976,-1100 2982,-1100 2982,-1100 3160,-1100 3160,-1100 3166,-1100 3172,-1106 3172,-1112 3172,-1112 3172,-1140 3172,-1140 3172,-1146 3166,-1152 3160,-1152"/>
<text text-anchor="start" x="3015.1645" y="-1138" font-family="arial" font-weight="bold" font-size="10.00" fill="#000000">Some Non&#45;Culm as ORS</text>
<text text-anchor="start" x="2979.8735" y="-1121" font-family="arial" font-size="10.00" fill="#000000">Some part of the non&#45;Culm strata is ORS</text>
<text text-anchor="start" x="3019.8755" y="-1109" font-family="arial" font-size="10.00" fill="#000000"> in age #pri #chron&#45;hyp</text>
</g>
<!-- n35&#45;&gt;n52 -->
<g id="edge36" class="edge">
<title>n35&#45;&gt;n52</title>
<path fill="none" stroke="#ff0000" d="M3107.8111,-1099.876C3140.8619,-1076.4206 3189.9767,-1041.5649 3228.585,-1014.1655"/>
<polygon fill="#ff0000" stroke="#ff0000" points="3231.0237,-1016.7267 3237.1531,-1008.0849 3226.9724,-1011.0181 3231.0237,-1016.7267"/>
</g>
<!-- n35&#45;&gt;n53 -->
<g id="edge39" class="edge">
<title>n35&#45;&gt;n53</title>
<path fill="none" stroke="#ff0000" d="M3075.5411,-1099.6438C3085.7972,-1043.5041 3113.5458,-908.7052 3160,-804 3172.4448,-775.95 3191.6759,-746.6686 3206.1748,-726.3499"/>
<polygon fill="#ff0000" stroke="#ff0000" points="3209.0321,-728.3717 3212.0654,-718.2204 3203.3637,-724.2644 3209.0321,-728.3717"/>
</g>
<!-- n36&#45;&gt;n52 -->
<g id="edge37" class="edge">
<title>n36&#45;&gt;n52</title>
<path fill="none" stroke="#ff0000" d="M3288,-1099.876C3288,-1077.6032 3288,-1045.0508 3288,-1018.3644"/>
<polygon fill="#ff0000" stroke="#ff0000" points="3291.5001,-1018.0849 3288,-1008.0849 3284.5001,-1018.0849 3291.5001,-1018.0849"/>
</g>
<!-- n36&#45;&gt;n53 -->
<g id="edge91" class="edge">
<title>n36&#45;&gt;n53</title>
<path fill="none" stroke="#00ff00" d="M3250.9779,-1099.8602C3226.2076,-1080.0129 3195.5731,-1050.3338 3181,-1016 3144.1758,-929.2432 3155.0578,-895.8923 3176,-804 3182.331,-776.2204 3197.059,-747.2091 3208.9004,-726.9081"/>
<polygon fill="#00ff00" stroke="#00ff00" points="3211.9627,-728.6068 3214.0974,-718.2293 3205.9571,-725.0106 3211.9627,-728.6068"/>
</g>
<!-- n37 -->
<g id="node47" class="node">
<title>n37</title>
<path fill="#ffffff" stroke="#ffe4b5" stroke-width="2" d="M3375,-856C3375,-856 3197,-856 3197,-856 3191,-856 3185,-850 3185,-844 3185,-844 3185,-816 3185,-816 3185,-810 3191,-804 3197,-804 3197,-804 3375,-804 3375,-804 3381,-804 3387,-810 3387,-816 3387,-816 3387,-844 3387,-844 3387,-850 3381,-856 3375,-856"/>
<text text-anchor="start" x="3229.8895" y="-842" font-family="arial" font-weight="bold" font-size="10.00" fill="#000000">Some Non&#45;Culm as CAM</text>
<text text-anchor="start" x="3194.5985" y="-825" font-family="arial" font-size="10.00" fill="#000000">Some part of the non&#45;Culm strata is CAM</text>
<text text-anchor="start" x="3234.8755" y="-813" font-family="arial" font-size="10.00" fill="#000000"> in age #pri #chron&#45;hyp</text>
</g>
<!-- n37&#45;&gt;n53 -->
<g id="edge92" class="edge">
<title>n37&#45;&gt;n53</title>
<path fill="none" stroke="#00ff00" d="M3273.8581,-803.6926C3263.6568,-781.5897 3249.1239,-750.1018 3238.7541,-727.6338"/>
<polygon fill="#00ff00" stroke="#00ff00" points="3241.8199,-725.9243 3234.4514,-718.3115 3235.4642,-728.8578 3241.8199,-725.9243"/>
</g>
<!-- n52&#45;&gt;n37 -->
<g id="edge58" class="edge">
<title>n52&#45;&gt;n37</title>
<path fill="none" stroke="#00ff00" d="M3287.4901,-935.8C3287.1911,-914.5712 3286.8145,-887.8281 3286.5147,-866.5407"/>
<polygon fill="#00ff00" stroke="#00ff00" points="3290.0106,-866.221 3286.37,-856.2713 3283.0113,-866.3197 3290.0106,-866.221"/>
</g>
<!-- n53&#45;&gt;n20 -->
<g id="edge59" class="edge">
<title>n53&#45;&gt;n20</title>
<path fill="none" stroke="#00ff00" d="M3207.2549,-681.7294C3183.0384,-658.1261 3140.2243,-616.3958 3108.4417,-585.4179"/>
<polygon fill="#00ff00" stroke="#00ff00" points="3110.6299,-582.6631 3101.0258,-578.1897 3105.744,-587.6759 3110.6299,-582.6631"/>
</g>
<!-- n38 -->
<g id="node50" class="node">
<title>n38</title>
<path fill="#ffffff" stroke="#ffc1c1" stroke-width="2" d="M3659.5,-246C3659.5,-246 3476.5,-246 3476.5,-246 3470.5,-246 3464.5,-240 3464.5,-234 3464.5,-234 3464.5,-194 3464.5,-194 3464.5,-188 3470.5,-182 3476.5,-182 3476.5,-182 3659.5,-182 3659.5,-182 3665.5,-182 3671.5,-188 3671.5,-194 3671.5,-194 3671.5,-234 3671.5,-234 3671.5,-240 3665.5,-246 3659.5,-246"/>
<text text-anchor="start" x="3497.0935" y="-232" font-family="arial" font-weight="bold" font-size="10.00" fill="#000000">Culm Youngest Devonian Strata</text>
<text text-anchor="start" x="3489.312" y="-215" font-family="arial" font-size="10.00" fill="#000000">In Devon, among all the strata older</text>
<text text-anchor="start" x="3479.028" y="-203" font-family="arial" font-size="10.00" fill="#000000"> than the New Red Sandstone, the Culm</text>
<text text-anchor="start" x="3474.5825" y="-191" font-family="arial" font-size="10.00" fill="#000000"> strata are the youngest #COA #chron&#45;hyp</text>
</g>
<!-- n55 -->
<g id="node52" class="node">
<title>n55</title>
<path fill="#ffc1c1" stroke="#000000" d="M3648,-104C3648,-104 3476,-104 3476,-104 3470,-104 3464,-98 3464,-92 3464,-92 3464,-28 3464,-28 3464,-22 3470,-16 3476,-16 3476,-16 3648,-16 3648,-16 3654,-16 3660,-22 3660,-28 3660,-28 3660,-92 3660,-92 3660,-98 3654,-104 3648,-104"/>
<text text-anchor="start" x="3512.55" y="-90" font-family="arial" font-weight="bold" font-size="10.00" fill="#000000">Culm trough &#45; COA.2a</text>
<text text-anchor="start" x="3486.985" y="-73" font-family="arial" font-size="10.00" fill="#000000">Assuming that, originally, younger</text>
<text text-anchor="start" x="3481.1425" y="-61" font-family="arial" font-size="10.00" fill="#000000"> strata rest upon older ones, it holds:</text>
<text text-anchor="start" x="3500.874" y="-49" font-family="arial" font-size="10.00" fill="#000000"> If the Culm strata is not the</text>
<text text-anchor="start" x="3474.473" y="-37" font-family="arial" font-size="10.00" fill="#000000"> youngest, then there is no Culm trough</text>
<text text-anchor="start" x="3546.9975" y="-25" font-family="arial" font-size="10.00" fill="#000000"> #COA</text>
</g>
<!-- n38&#45;&gt;n55 -->
<g id="edge44" class="edge">
<title>n38&#45;&gt;n55</title>
<path fill="none" stroke="#ff0000" d="M3566.7422,-181.7166C3565.9823,-162.2129 3564.9942,-136.8518 3564.1168,-114.3311"/>
<polygon fill="#ff0000" stroke="#ff0000" points="3567.6094,-114.071 3563.7227,-104.2148 3560.6147,-114.3435 3567.6094,-114.071"/>
</g>
<!-- n54&#45;&gt;n38 -->
<g id="edge60" class="edge">
<title>n54&#45;&gt;n38</title>
<path fill="none" stroke="#00ff00" d="M3563.4371,-335.676C3564.3351,-311.7314 3565.4922,-280.8758 3566.4164,-256.2286"/>
<polygon fill="#00ff00" stroke="#00ff00" points="3569.9196,-256.208 3566.7969,-246.0838 3562.9245,-255.9456 3569.9196,-256.208"/>
</g>
<!-- n55&#45;&gt;n13 -->
<g id="edge45" class="edge">
<title>n55&#45;&gt;n13</title>
<path fill="none" stroke="#ff0000" d="M3513.4197,-104.0067C3494.2787,-122.6893 3472.8833,-145.3594 3456,-168 3414.4281,-223.748 3377.7618,-296.3815 3357.8418,-338.8348"/>
<polygon fill="#ff0000" stroke="#ff0000" points="3354.656,-337.3853 3353.6146,-347.9288 3361.0037,-340.336 3354.656,-337.3853"/>
</g>
<!-- n0 -->
<g id="node53" class="node">
<title>n0</title>
<path fill="#ffffff" stroke="#ffe4b5" stroke-width="2" d="M1916,-596C1916,-596 1744,-596 1744,-596 1738,-596 1732,-590 1732,-584 1732,-584 1732,-508 1732,-508 1732,-502 1738,-496 1744,-496 1744,-496 1916,-496 1916,-496 1922,-496 1928,-502 1928,-508 1928,-508 1928,-584 1928,-584 1928,-590 1922,-596 1916,-596"/>
<text text-anchor="start" x="1785.813" y="-582" font-family="arial" font-weight="bold" font-size="10.00" fill="#000000">Standard Sequence</text>
<text text-anchor="start" x="1757.2" y="-565" font-family="arial" font-size="10.00" fill="#000000">Given the strata are undisturbed,</text>
<text text-anchor="start" x="1758.8795" y="-553" font-family="arial" font-size="10.00" fill="#000000"> Cambrian strata are overlain by</text>
<text text-anchor="start" x="1751.6465" y="-541" font-family="arial" font-size="10.00" fill="#000000"> Silurian strata, Old Red Sandstone</text>
<text text-anchor="start" x="1753.036" y="-529" font-family="arial" font-size="10.00" fill="#000000"> strata, Mountain Limestone strata,</text>
<text text-anchor="start" x="1749.43" y="-517" font-family="arial" font-size="10.00" fill="#000000"> Coal Measures strata and New Red</text>
<text text-anchor="start" x="1751.925" y="-505" font-family="arial" font-size="10.00" fill="#000000"> Sandstone strata, respectively #pri</text>
</g>
<!-- n0&#45;&gt;n41 -->
<g id="edge61" class="edge">
<title>n0&#45;&gt;n41</title>
<path fill="none" stroke="#00ff00" d="M1768.1109,-495.7881C1738.06,-471.4072 1702.2523,-442.3556 1673.1477,-418.7425"/>
<polygon fill="#00ff00" stroke="#00ff00" points="1675.0976,-415.8174 1665.1268,-412.2349 1670.6873,-421.2534 1675.0976,-415.8174"/>
</g>
<!-- n0&#45;&gt;n42 -->
<g id="edge62" class="edge">
<title>n0&#45;&gt;n42</title>
<path fill="none" stroke="#00ff00" d="M1731.9066,-497.4498C1730.5999,-496.9556 1729.2973,-496.472 1728,-496 1634.6447,-462.0321 1602.288,-481.5859 1511,-442.4 1495.2495,-435.639 1479.1975,-426.6764 1464.4796,-417.4729"/>
<polygon fill="#00ff00" stroke="#00ff00" points="1466.2915,-414.4771 1455.9805,-412.0409 1462.5218,-420.3754 1466.2915,-414.4771"/>
</g>
<!-- n0&#45;&gt;n43 -->
<g id="edge63" class="edge">
<title>n0&#45;&gt;n43</title>
<path fill="none" stroke="#00ff00" d="M1731.7151,-497.0671C1730.4744,-496.6971 1729.2357,-496.3411 1728,-496 1450.7163,-419.4559 1355.5184,-534.4814 1083,-442.4 1072.7651,-438.9417 1062.5282,-434.3014 1052.665,-429.0582"/>
<polygon fill="#00ff00" stroke="#00ff00" points="1054.1641,-425.8872 1043.7228,-424.0902 1050.7645,-432.0063 1054.1641,-425.8872"/>
</g>
<!-- n0&#45;&gt;n44 -->
<g id="edge64" class="edge">
<title>n0&#45;&gt;n44</title>
<path fill="none" stroke="#00ff00" d="M1731.9794,-497.2296C1730.6498,-496.8047 1729.323,-496.3944 1728,-496 1543.0153,-440.8485 1478.5748,-507.9104 1297,-442.4 1287.076,-438.8195 1277.1235,-434.1877 1267.4999,-429.0228"/>
<polygon fill="#00ff00" stroke="#00ff00" points="1269.202,-425.9645 1258.7646,-424.1444 1265.7888,-432.0761 1269.202,-425.9645"/>
</g>
<!-- n1 -->
<g id="node54" class="node">
<title>n1</title>
<path fill="#ffffff" stroke="#ffe4b5" stroke-width="2" d="M1709,-252C1709,-252 1533,-252 1533,-252 1527,-252 1521,-246 1521,-240 1521,-240 1521,-188 1521,-188 1521,-182 1527,-176 1533,-176 1533,-176 1709,-176 1709,-176 1715,-176 1721,-182 1721,-188 1721,-188 1721,-240 1721,-240 1721,-246 1715,-252 1709,-252"/>
<text text-anchor="start" x="1579.049" y="-238" font-family="arial" font-weight="bold" font-size="10.00" fill="#000000">Formation of strata</text>
<text text-anchor="start" x="1549.606" y="-221" font-family="arial" font-size="10.00" fill="#000000">Strata are originally formed from</text>
<text text-anchor="start" x="1538.4775" y="-209" font-family="arial" font-size="10.00" fill="#000000"> sediments that were deposited in flat</text>
<text text-anchor="start" x="1550.979" y="-197" font-family="arial" font-size="10.00" fill="#000000"> horizontal sheets &#45; the younger</text>
<text text-anchor="start" x="1530.973" y="-185" font-family="arial" font-size="10.00" fill="#000000"> sediments deposited on older ones. #pri</text>
</g>
<!-- n1&#45;&gt;n55 -->
<g id="edge65" class="edge">
<title>n1&#45;&gt;n55</title>
<path fill="none" stroke="#00ff00" d="M1701.4949,-175.9305C1710.2988,-172.8145 1719.2439,-170.0725 1728,-168 2059.085,-89.6332 3112.0622,-66.8769 3453.7833,-61.469"/>
<polygon fill="#00ff00" stroke="#00ff00" points="3453.9851,-64.9664 3463.9291,-61.3102 3453.8755,-57.9672 3453.9851,-64.9664"/>
</g>
<!-- n2 -->
<g id="node55" class="node">
<title>n2</title>
<path fill="#ffffff" stroke="#ffc1c1" stroke-width="2" d="M2066,-1152C2066,-1152 1894,-1152 1894,-1152 1888,-1152 1882,-1146 1882,-1140 1882,-1140 1882,-1112 1882,-1112 1882,-1106 1888,-1100 1894,-1100 1894,-1100 2066,-1100 2066,-1100 2072,-1100 2078,-1106 2078,-1112 2078,-1112 2078,-1140 2078,-1140 2078,-1146 2072,-1152 2066,-1152"/>
<text text-anchor="start" x="1946.672" y="-1138" font-family="arial" font-weight="bold" font-size="10.00" fill="#000000">Fossil Criterion</text>
<text text-anchor="start" x="1900.2515" y="-1121" font-family="arial" font-size="10.00" fill="#000000">Strata can be identified by means of</text>
<text text-anchor="start" x="1915.2675" y="-1109" font-family="arial" font-size="10.00" fill="#000000"> their imbedded fossils #COA</text>
</g>
<!-- n2&#45;&gt;n46 -->
<g id="edge66" class="edge">
<title>n2&#45;&gt;n46</title>
<path fill="none" stroke="#00ff00" d="M2016.8111,-1099.876C2046.8267,-1078.5746 2090.0911,-1047.8708 2126.7028,-1021.8883"/>
<polygon fill="#00ff00" stroke="#00ff00" points="2128.7574,-1024.7221 2134.8869,-1016.0803 2124.7062,-1019.0135 2128.7574,-1024.7221"/>
</g>
<!-- n39&#45;&gt;n2 -->
<g id="edge46" class="edge">
<title>n39&#45;&gt;n2</title>
<path fill="none" stroke="#00ff00" d="M1980,-1235.8698C1980,-1212.6498 1980,-1184.5204 1980,-1162.5372"/>
<polygon fill="#00ff00" stroke="#00ff00" points="1983.5001,-1162.2876 1980,-1152.2876 1976.5001,-1162.2877 1983.5001,-1162.2876"/>
</g>
</g>
</svg>
