
<!-- Generated by graphviz version 2.40.1 (20161225.0304)
 -->
<!-- Title: Argument Map Pages: 1 -->
<svg width="720pt" height="59pt"
 viewBox="0.00 0.00 720.00 59.37" xmlns="http://www.w3.org/2000/svg" xmlns:xlink="http://www.w3.org/1999/xlink">
<g id="graph0" class="graph" transform="scale(.1386 .1386) rotate(0) translate(4 424.4)">
<title>Argument Map</title>
<g id="clust1" class="cluster">
<title>cluster_1</title>
<polygon fill="#ffff00" stroke="#ffff00" points="8,-298 8,-412.4 1290,-412.4 1290,-298 8,-298"/>
<text text-anchor="start" x="624.3256" y="-397.6" font-family="arial" font-size="12.00" fill="#000000">Evidence</text>
</g>
<g id="clust2" class="cluster">
<title>cluster_2</title>
<polygon fill="#eedfcc" stroke="#eedfcc" points="1298,-8 1298,-406.4 2385,-406.4 2385,-8 1298,-8"/>
<text text-anchor="start" x="1777.1578" y="-391.6" font-family="arial" font-size="12.00" fill="#000000">Dating of the Main Culm</text>
</g>
<g id="clust3" class="cluster">
<title>cluster_3</title>
<polygon fill="#eeb4b4" stroke="#eeb4b4" points="2601,-8 2601,-406.4 3669,-406.4 3669,-8 2601,-8"/>
<text text-anchor="start" x="3055.9842" y="-391.6" font-family="arial" font-size="12.00" fill="#000000">Dating of the Culm Limestone</text>
</g>
<g id="clust4" class="cluster">
<title>cluster_4</title>
<polygon fill="#cd9b9b" stroke="#cd9b9b" points="3677,-8 3677,-406.4 4757,-406.4 4757,-8 3677,-8"/>
<text text-anchor="start" x="4154.3252" y="-391.6" font-family="arial" font-size="12.00" fill="#000000">Dating of the Non&#45;Culm</text>
</g>
<g id="clust5" class="cluster">
<title>cluster_5</title>
<polygon fill="#698b69" stroke="#698b69" points="4765,-298 4765,-412.4 4977,-412.4 4977,-298 4765,-298"/>
<text text-anchor="start" x="4814.6408" y="-397.6" font-family="arial" font-size="12.00" fill="#000000">Gap in the Sequence</text>
</g>
<!-- n2 -->
<g id="node1" class="node">
<title>n2</title>
<path fill="#ffffff" stroke="#ffff00" stroke-width="2" d="M1270,-376C1270,-376 1098,-376 1098,-376 1092,-376 1086,-370 1086,-364 1086,-364 1086,-324 1086,-324 1086,-318 1092,-312 1098,-312 1098,-312 1270,-312 1270,-312 1276,-312 1282,-318 1282,-324 1282,-324 1282,-364 1282,-364 1282,-370 1276,-376 1270,-376"/>
<text text-anchor="start" x="1102.305" y="-362" font-family="arial" font-weight="bold" font-size="10.00" fill="#000000">Unbroken Sequence of Devon Strata</text>
<text text-anchor="start" x="1107.3125" y="-345" font-family="arial" font-size="10.00" fill="#000000">In Devon, all the strata &#45; older than</text>
<text text-anchor="start" x="1107.0355" y="-333" font-family="arial" font-size="10.00" fill="#000000"> the New Red Sandstone &#45; form an</text>
<text text-anchor="start" x="1109.8035" y="-321" font-family="arial" font-size="10.00" fill="#000000"> unbroken sequence of strata #ev</text>
</g>
<!-- n3 -->
<g id="node2" class="node">
<title>n3</title>
<path fill="#ffffff" stroke="#ffff00" stroke-width="2" d="M1056,-382C1056,-382 884,-382 884,-382 878,-382 872,-376 872,-370 872,-370 872,-318 872,-318 872,-312 878,-306 884,-306 884,-306 1056,-306 1056,-306 1062,-306 1068,-312 1068,-318 1068,-318 1068,-370 1068,-370 1068,-376 1062,-382 1056,-382"/>
<text text-anchor="start" x="912.7755" y="-368" font-family="arial" font-weight="bold" font-size="10.00" fill="#000000">CM Plants in Devon Culm</text>
<text text-anchor="start" x="883.5985" y="-351" font-family="arial" font-size="10.00" fill="#000000">Near Bideford (North Devon), there are</text>
<text text-anchor="start" x="891.932" y="-339" font-family="arial" font-size="10.00" fill="#000000"> CM fossil plants in the main part of</text>
<text text-anchor="start" x="888.321" y="-327" font-family="arial" font-size="10.00" fill="#000000"> the Culm strata (in close association</text>
<text text-anchor="start" x="881.6525" y="-315" font-family="arial" font-size="10.00" fill="#000000"> with seams of imperfect anthracite) #ev</text>
</g>
<!-- n4 -->
<g id="node3" class="node">
<title>n4</title>
<path fill="#ffffff" stroke="#ffff00" stroke-width="2" d="M842,-370C842,-370 670,-370 670,-370 664,-370 658,-364 658,-358 658,-358 658,-330 658,-330 658,-324 664,-318 670,-318 670,-318 842,-318 842,-318 848,-318 854,-324 854,-330 854,-330 854,-358 854,-358 854,-364 848,-370 842,-370"/>
<text text-anchor="start" x="719.607" y="-356" font-family="arial" font-weight="bold" font-size="10.00" fill="#000000">North of Exmoor</text>
<text text-anchor="start" x="669.871" y="-339" font-family="arial" font-size="10.00" fill="#000000">Passing Exmoor northwards, the strata</text>
<text text-anchor="start" x="714.8775" y="-327" font-family="arial" font-size="10.00" fill="#000000"> become older #ev</text>
</g>
<!-- n5 -->
<g id="node4" class="node">
<title>n5</title>
<path fill="#ffffff" stroke="#ffff00" stroke-width="2" d="M628,-382C628,-382 456,-382 456,-382 450,-382 444,-376 444,-370 444,-370 444,-318 444,-318 444,-312 450,-306 456,-306 456,-306 628,-306 628,-306 634,-306 640,-312 640,-318 640,-318 640,-370 640,-370 640,-376 634,-382 628,-382"/>
<text text-anchor="start" x="489.21" y="-368" font-family="arial" font-weight="bold" font-size="10.00" fill="#000000">Trough through Exmoor</text>
<text text-anchor="start" x="464.206" y="-351" font-family="arial" font-size="10.00" fill="#000000">There is a trough through Exmoor &#45;</text>
<text text-anchor="start" x="455.308" y="-339" font-family="arial" font-size="10.00" fill="#000000"> formed by a band of limestone running</text>
<text text-anchor="start" x="463.362" y="-327" font-family="arial" font-size="10.00" fill="#000000"> out to the north coast at Ilfracombe</text>
<text text-anchor="start" x="478.3625" y="-315" font-family="arial" font-size="10.00" fill="#000000"> and south of Barnstaple #ev</text>
</g>
<!-- n6 -->
<g id="node5" class="node">
<title>n6</title>
<path fill="#ffffff" stroke="#ffff00" stroke-width="2" d="M414,-376C414,-376 242,-376 242,-376 236,-376 230,-370 230,-364 230,-364 230,-324 230,-324 230,-318 236,-312 242,-312 242,-312 414,-312 414,-312 420,-312 426,-318 426,-324 426,-324 426,-364 426,-364 426,-370 420,-376 414,-376"/>
<text text-anchor="start" x="251.3105" y="-362" font-family="arial" font-weight="bold" font-size="10.00" fill="#000000">Instances of Coal in Ancient Strata</text>
<text text-anchor="start" x="246.3215" y="-345" font-family="arial" font-size="10.00" fill="#000000">In Munster, North America and North</text>
<text text-anchor="start" x="254.9245" y="-333" font-family="arial" font-size="10.00" fill="#000000"> Devon there are coal deposits in</text>
<text text-anchor="start" x="250.755" y="-321" font-family="arial" font-size="10.00" fill="#000000"> pre&#45;Old Red Sandstone strata #ev</text>
</g>
<!-- n7 -->
<g id="node6" class="node">
<title>n7</title>
<path fill="#ffffff" stroke="#ffff00" stroke-width="2" d="M200,-380C200,-380 28,-380 28,-380 22,-380 16,-374 16,-368 16,-368 16,-320 16,-320 16,-314 22,-308 28,-308 28,-308 200,-308 200,-308 206,-308 212,-314 212,-320 212,-320 212,-368 212,-368 212,-374 206,-380 200,-380"/>
<text text-anchor="start" x="28.4445" y="-366" font-family="arial" font-weight="bold" font-size="10.00" fill="#000000">Devonshire &#45; Characteristic CAM Rock</text>
<text text-anchor="start" x="101.497" y="-356" font-family="arial" font-weight="bold" font-size="10.00" fill="#000000"> Type</text>
<text text-anchor="start" x="37.3125" y="-341" font-family="arial" font-size="10.00" fill="#000000">In Devon, all the strata &#45; older than</text>
<text text-anchor="start" x="41.2" y="-329" font-family="arial" font-size="10.00" fill="#000000"> the New Red Sandstone &#45; are of</text>
<text text-anchor="start" x="34.819" y="-317" font-family="arial" font-size="10.00" fill="#000000"> caracteristic CAM appearance #ev </text>
</g>
<!-- n8 -->
<g id="node7" class="node">
<title>n8</title>
<path fill="#ffffff" stroke="#f5f5dc" stroke-width="2" d="M1716,-370C1716,-370 1538,-370 1538,-370 1532,-370 1526,-364 1526,-358 1526,-358 1526,-330 1526,-330 1526,-324 1532,-318 1538,-318 1538,-318 1716,-318 1716,-318 1722,-318 1728,-324 1728,-330 1728,-330 1728,-358 1728,-358 1728,-364 1722,-370 1716,-370"/>
<text text-anchor="start" x="1572.8345" y="-356" font-family="arial" font-weight="bold" font-size="10.00" fill="#000000">Some Main Culm as CM</text>
<text text-anchor="start" x="1535.599" y="-339" font-family="arial" font-size="10.00" fill="#000000">Some part of the main Culm is CM in age</text>
<text text-anchor="start" x="1590.882" y="-327" font-family="arial" font-size="10.00" fill="#000000"> #pri #chron&#45;hyp</text>
</g>
<!-- n27 -->
<g id="node13" class="node">
<title>n27</title>
<path fill="#f5f5dc" stroke="#000000" d="M2042.5,-214C2042.5,-214 1869.5,-214 1869.5,-214 1863.5,-214 1857.5,-208 1857.5,-202 1857.5,-202 1857.5,-154 1857.5,-154 1857.5,-148 1863.5,-142 1869.5,-142 1869.5,-142 2042.5,-142 2042.5,-142 2048.5,-142 2054.5,-148 2054.5,-154 2054.5,-154 2054.5,-202 2054.5,-202 2054.5,-208 2048.5,-214 2042.5,-214"/>
<text text-anchor="start" x="1870.6425" y="-200" font-family="arial" font-weight="bold" font-size="10.00" fill="#000000">Standard Sequence as Partition &#45; Main</text>
<text text-anchor="start" x="1943.4475" y="-190" font-family="arial" font-weight="bold" font-size="10.00" fill="#000000"> Culm</text>
<text text-anchor="start" x="1867.8835" y="-175" font-family="arial" font-size="10.00" fill="#000000">If some main Culm strata are neiter CM,</text>
<text text-anchor="start" x="1871.4835" y="-163" font-family="arial" font-size="10.00" fill="#000000"> ML, OR nor SIL in age, then it is CAM</text>
<text text-anchor="start" x="1905.3755" y="-151" font-family="arial" font-size="10.00" fill="#000000"> in age #pri #chron&#45;hyp</text>
</g>
<!-- n8&#45;&gt;n27 -->
<g id="edge1" class="edge">
<title>n8&#45;&gt;n27</title>
<path fill="none" stroke="#ff0000" d="M1678.1786,-317.8729C1696.6988,-308.4374 1717.7809,-297.7188 1737,-288 1782.536,-264.9732 1833.4708,-239.3798 1874.7522,-218.6782"/>
<polygon fill="#ff0000" stroke="#ff0000" points="1876.5758,-221.6792 1883.9464,-214.0684 1873.4383,-215.4217 1876.5758,-221.6792"/>
</g>
<!-- n9 -->
<g id="node8" class="node">
<title>n9</title>
<path fill="#ffffff" stroke="#f5f5dc" stroke-width="2" d="M1495.5,-370C1495.5,-370 1318.5,-370 1318.5,-370 1312.5,-370 1306.5,-364 1306.5,-358 1306.5,-358 1306.5,-330 1306.5,-330 1306.5,-324 1312.5,-318 1318.5,-318 1318.5,-318 1495.5,-318 1495.5,-318 1501.5,-318 1507.5,-324 1507.5,-330 1507.5,-330 1507.5,-358 1507.5,-358 1507.5,-364 1501.5,-370 1495.5,-370"/>
<text text-anchor="start" x="1354.1645" y="-356" font-family="arial" font-weight="bold" font-size="10.00" fill="#000000">Some Main Culm as ML</text>
<text text-anchor="start" x="1316.929" y="-339" font-family="arial" font-size="10.00" fill="#000000">Some part of the main Culm is ML in age</text>
<text text-anchor="start" x="1371.382" y="-327" font-family="arial" font-size="10.00" fill="#000000"> #pri #chron&#45;hyp</text>
</g>
<!-- n9&#45;&gt;n27 -->
<g id="edge2" class="edge">
<title>n9&#45;&gt;n27</title>
<path fill="none" stroke="#ff0000" d="M1452.5172,-317.912C1471.9354,-307.557 1495.1244,-296.1892 1517,-288 1626.58,-246.9783 1757.2238,-216.4596 1847.3451,-198.1057"/>
<polygon fill="#ff0000" stroke="#ff0000" points="1848.1976,-201.5042 1857.3063,-196.0929 1846.8111,-194.6429 1848.1976,-201.5042"/>
</g>
<!-- n10 -->
<g id="node9" class="node">
<title>n10</title>
<path fill="#ffffff" stroke="#f5f5dc" stroke-width="2" d="M2365,-370C2365,-370 2193,-370 2193,-370 2187,-370 2181,-364 2181,-358 2181,-358 2181,-330 2181,-330 2181,-324 2187,-318 2193,-318 2193,-318 2365,-318 2365,-318 2371,-318 2377,-324 2377,-330 2377,-330 2377,-358 2377,-358 2377,-364 2371,-370 2365,-370"/>
<text text-anchor="start" x="2221.775" y="-356" font-family="arial" font-weight="bold" font-size="10.00" fill="#000000">Some Main Culm as ORS</text>
<text text-anchor="start" x="2194.2675" y="-339" font-family="arial" font-size="10.00" fill="#000000">Some part of the main Culm is ORS in</text>
<text text-anchor="start" x="2233.154" y="-327" font-family="arial" font-size="10.00" fill="#000000"> age #pri #chron&#45;hyp</text>
</g>
<!-- n10&#45;&gt;n27 -->
<g id="edge3" class="edge">
<title>n10&#45;&gt;n27</title>
<path fill="none" stroke="#ff0000" d="M2229.5173,-317.9562C2211.4407,-308.4807 2190.8165,-297.7148 2172,-288 2127.3284,-264.9364 2077.3111,-239.4437 2036.6655,-218.8116"/>
<polygon fill="#ff0000" stroke="#ff0000" points="2038.112,-215.6208 2027.6106,-214.2169 2034.9445,-221.8632 2038.112,-215.6208"/>
</g>
<!-- n11 -->
<g id="node10" class="node">
<title>n11</title>
<path fill="#ffffff" stroke="#f5f5dc" stroke-width="2" d="M2151,-370C2151,-370 1979,-370 1979,-370 1973,-370 1967,-364 1967,-358 1967,-358 1967,-330 1967,-330 1967,-324 1973,-318 1979,-318 1979,-318 2151,-318 2151,-318 2157,-318 2163,-324 2163,-330 2163,-330 2163,-358 2163,-358 2163,-364 2157,-370 2151,-370"/>
<text text-anchor="start" x="2011.105" y="-356" font-family="arial" font-weight="bold" font-size="10.00" fill="#000000">Some Main Culm as SIL</text>
<text text-anchor="start" x="1983.5975" y="-339" font-family="arial" font-size="10.00" fill="#000000">Some part of the main Culm is SIL in</text>
<text text-anchor="start" x="2019.154" y="-327" font-family="arial" font-size="10.00" fill="#000000"> age #pri #chron&#45;hyp</text>
</g>
<!-- n11&#45;&gt;n27 -->
<g id="edge4" class="edge">
<title>n11&#45;&gt;n27</title>
<path fill="none" stroke="#ff0000" d="M2047.7286,-317.6968C2031.01,-292.2354 2005.338,-253.1386 1985.4002,-222.7746"/>
<polygon fill="#ff0000" stroke="#ff0000" points="1988.0921,-220.4975 1979.6776,-214.0595 1982.2408,-224.3396 1988.0921,-220.4975"/>
</g>
<!-- n12 -->
<g id="node11" class="node">
<title>n12</title>
<path fill="#ffffff" stroke="#f5f5dc" stroke-width="2" d="M2042,-68C2042,-68 1870,-68 1870,-68 1864,-68 1858,-62 1858,-56 1858,-56 1858,-28 1858,-28 1858,-22 1864,-16 1870,-16 1870,-16 2042,-16 2042,-16 2048,-16 2054,-22 2054,-28 2054,-28 2054,-56 2054,-56 2054,-62 2048,-68 2042,-68"/>
<text text-anchor="start" x="1898.5" y="-54" font-family="arial" font-weight="bold" font-size="10.00" fill="#000000">Some Main Culm as CAM</text>
<text text-anchor="start" x="1870.9925" y="-37" font-family="arial" font-size="10.00" fill="#000000">Some part of the main Culm is CAM in</text>
<text text-anchor="start" x="1910.154" y="-25" font-family="arial" font-size="10.00" fill="#000000"> age #pri #chron&#45;hyp</text>
</g>
<!-- n13 -->
<g id="node12" class="node">
<title>n13</title>
<path fill="#ffffff" stroke="#f5f5dc" stroke-width="2" d="M1937.5,-376C1937.5,-376 1758.5,-376 1758.5,-376 1752.5,-376 1746.5,-370 1746.5,-364 1746.5,-364 1746.5,-324 1746.5,-324 1746.5,-318 1752.5,-312 1758.5,-312 1758.5,-312 1937.5,-312 1937.5,-312 1943.5,-312 1949.5,-318 1949.5,-324 1949.5,-324 1949.5,-364 1949.5,-364 1949.5,-370 1943.5,-376 1937.5,-376"/>
<text text-anchor="start" x="1756.557" y="-362" font-family="arial" font-weight="bold" font-size="10.00" fill="#000000">Main Culm as Post&#45;Primary and Pre&#45;NRS</text>
<text text-anchor="start" x="1768.487" y="-345" font-family="arial" font-size="10.00" fill="#000000">The main Culm strata are older than</text>
<text text-anchor="start" x="1764.3165" y="-333" font-family="arial" font-size="10.00" fill="#000000"> Primary strata and younger than New</text>
<text text-anchor="start" x="1762.6415" y="-321" font-family="arial" font-size="10.00" fill="#000000"> Red Sandstone strata #pri #chron&#45;hyp</text>
</g>
<!-- n13&#45;&gt;n27 -->
<g id="edge19" class="edge">
<title>n13&#45;&gt;n27</title>
<path fill="none" stroke="#00ff00" d="M1868.8235,-311.9935C1885.3217,-286.6352 1908.5656,-250.9085 1926.9034,-222.7225"/>
<polygon fill="#00ff00" stroke="#00ff00" points="1929.9043,-224.5279 1932.4241,-214.2371 1924.0368,-220.7105 1929.9043,-224.5279"/>
</g>
<!-- n27&#45;&gt;n12 -->
<g id="edge13" class="edge">
<title>n27&#45;&gt;n12</title>
<path fill="none" stroke="#00ff00" d="M1956,-141.9116C1956,-122.3005 1956,-98.1097 1956,-78.4438"/>
<polygon fill="#00ff00" stroke="#00ff00" points="1959.5001,-78.3317 1956,-68.3317 1952.5001,-78.3318 1959.5001,-78.3317"/>
</g>
<!-- n14 -->
<g id="node14" class="node">
<title>n14</title>
<path fill="#ffffff" stroke="#f5f5dc" stroke-width="2" d="M3007,-370C3007,-370 2835,-370 2835,-370 2829,-370 2823,-364 2823,-358 2823,-358 2823,-330 2823,-330 2823,-324 2829,-318 2835,-318 2835,-318 3007,-318 3007,-318 3013,-318 3019,-324 3019,-330 3019,-330 3019,-358 3019,-358 3019,-364 3013,-370 3007,-370"/>
<text text-anchor="start" x="2880.9965" y="-356" font-family="arial" font-weight="bold" font-size="10.00" fill="#000000">Some BCL as CM</text>
<text text-anchor="start" x="2833.482" y="-339" font-family="arial" font-size="10.00" fill="#000000">Some part of the black Culm Limestone</text>
<text text-anchor="start" x="2855.713" y="-327" font-family="arial" font-size="10.00" fill="#000000"> is CM in age #pri #chron&#45;hyp</text>
</g>
<!-- n28 -->
<g id="node20" class="node">
<title>n28</title>
<path fill="#f5f5dc" stroke="#000000" d="M3114,-216C3114,-216 2942,-216 2942,-216 2936,-216 2930,-210 2930,-204 2930,-204 2930,-152 2930,-152 2930,-146 2936,-140 2942,-140 2942,-140 3114,-140 3114,-140 3120,-140 3126,-146 3126,-152 3126,-152 3126,-204 3126,-204 3126,-210 3120,-216 3114,-216"/>
<text text-anchor="start" x="2943.252" y="-202" font-family="arial" font-weight="bold" font-size="10.00" fill="#000000">Standard Sequence as Partition &#45; BCL</text>
<text text-anchor="start" x="2961.5985" y="-185" font-family="arial" font-size="10.00" fill="#000000">If some part of the black Culm</text>
<text text-anchor="start" x="2943.547" y="-173" font-family="arial" font-size="10.00" fill="#000000"> Limestone is neiter CM, ML, ORS nor</text>
<text text-anchor="start" x="2945.479" y="-161" font-family="arial" font-size="10.00" fill="#000000"> SIL in age, then it is CAM in age #pri</text>
<text text-anchor="start" x="3001.6045" y="-149" font-family="arial" font-size="10.00" fill="#000000"> #chron&#45;hyp</text>
</g>
<!-- n14&#45;&gt;n28 -->
<g id="edge5" class="edge">
<title>n14&#45;&gt;n28</title>
<path fill="none" stroke="#ff0000" d="M2937.9545,-317.6968C2953.9909,-292.8178 2978.4189,-254.9203 2997.7874,-224.8719"/>
<polygon fill="#ff0000" stroke="#ff0000" points="3000.8863,-226.5244 3003.3623,-216.2229 2995.0026,-222.7319 3000.8863,-226.5244"/>
</g>
<!-- n15 -->
<g id="node15" class="node">
<title>n15</title>
<path fill="#ffffff" stroke="#f5f5dc" stroke-width="2" d="M2793,-370C2793,-370 2621,-370 2621,-370 2615,-370 2609,-364 2609,-358 2609,-358 2609,-330 2609,-330 2609,-324 2615,-318 2621,-318 2621,-318 2793,-318 2793,-318 2799,-318 2805,-324 2805,-330 2805,-330 2805,-358 2805,-358 2805,-364 2799,-370 2793,-370"/>
<text text-anchor="start" x="2667.8265" y="-356" font-family="arial" font-weight="bold" font-size="10.00" fill="#000000">Some BCL as ML</text>
<text text-anchor="start" x="2619.482" y="-339" font-family="arial" font-size="10.00" fill="#000000">Some part of the black Culm Limestone</text>
<text text-anchor="start" x="2642.543" y="-327" font-family="arial" font-size="10.00" fill="#000000"> is ML in age #pri #chron&#45;hyp</text>
</g>
<!-- n15&#45;&gt;n28 -->
<g id="edge6" class="edge">
<title>n15&#45;&gt;n28</title>
<path fill="none" stroke="#ff0000" d="M2756.5029,-317.9952C2774.5815,-308.5237 2795.2018,-297.7503 2814,-288 2857.003,-265.6951 2904.9596,-241.0257 2944.5573,-220.7111"/>
<polygon fill="#ff0000" stroke="#ff0000" points="2946.3516,-223.7243 2953.6522,-216.0463 2943.157,-217.4958 2946.3516,-223.7243"/>
</g>
<!-- n16 -->
<g id="node16" class="node">
<title>n16</title>
<path fill="#ffffff" stroke="#f5f5dc" stroke-width="2" d="M3649,-370C3649,-370 3477,-370 3477,-370 3471,-370 3465,-364 3465,-358 3465,-358 3465,-330 3465,-330 3465,-324 3471,-318 3477,-318 3477,-318 3649,-318 3649,-318 3655,-318 3661,-324 3661,-330 3661,-330 3661,-358 3661,-358 3661,-364 3655,-370 3649,-370"/>
<text text-anchor="start" x="3519.937" y="-356" font-family="arial" font-weight="bold" font-size="10.00" fill="#000000">Some BCL as ORS</text>
<text text-anchor="start" x="3475.482" y="-339" font-family="arial" font-size="10.00" fill="#000000">Some part of the black Culm Limestone</text>
<text text-anchor="start" x="3494.6535" y="-327" font-family="arial" font-size="10.00" fill="#000000"> is ORS in age #pri #chron&#45;hyp</text>
</g>
<!-- n16&#45;&gt;n28 -->
<g id="edge7" class="edge">
<title>n16&#45;&gt;n28</title>
<path fill="none" stroke="#ff0000" d="M3518.7776,-317.9201C3499.8976,-307.5664 3477.333,-296.1974 3456,-288 3350.1501,-247.3261 3223.8562,-216.9513 3136.0096,-198.5415"/>
<polygon fill="#ff0000" stroke="#ff0000" points="3136.5307,-195.075 3126.0276,-196.4664 3135.1059,-201.9285 3136.5307,-195.075"/>
</g>
<!-- n17 -->
<g id="node17" class="node">
<title>n17</title>
<path fill="#ffffff" stroke="#f5f5dc" stroke-width="2" d="M3435,-370C3435,-370 3263,-370 3263,-370 3257,-370 3251,-364 3251,-358 3251,-358 3251,-330 3251,-330 3251,-324 3257,-318 3263,-318 3263,-318 3435,-318 3435,-318 3441,-318 3447,-324 3447,-330 3447,-330 3447,-358 3447,-358 3447,-364 3441,-370 3435,-370"/>
<text text-anchor="start" x="3309.267" y="-356" font-family="arial" font-weight="bold" font-size="10.00" fill="#000000">Some BCL as SIL</text>
<text text-anchor="start" x="3261.482" y="-339" font-family="arial" font-size="10.00" fill="#000000">Some part of the black Culm Limestone</text>
<text text-anchor="start" x="3283.9835" y="-327" font-family="arial" font-size="10.00" fill="#000000"> is SIL in age #pri #chron&#45;hyp</text>
</g>
<!-- n17&#45;&gt;n28 -->
<g id="edge8" class="edge">
<title>n17&#45;&gt;n28</title>
<path fill="none" stroke="#ff0000" d="M3299.4971,-317.9952C3281.4185,-308.5237 3260.7982,-297.7503 3242,-288 3198.997,-265.6951 3151.0404,-241.0257 3111.4427,-220.7111"/>
<polygon fill="#ff0000" stroke="#ff0000" points="3112.843,-217.4958 3102.3478,-216.0463 3109.6484,-223.7243 3112.843,-217.4958"/>
</g>
<!-- n18 -->
<g id="node18" class="node">
<title>n18</title>
<path fill="#ffffff" stroke="#f5f5dc" stroke-width="2" d="M3114,-68C3114,-68 2942,-68 2942,-68 2936,-68 2930,-62 2930,-56 2930,-56 2930,-28 2930,-28 2930,-22 2936,-16 2942,-16 2942,-16 3114,-16 3114,-16 3120,-16 3126,-22 3126,-28 3126,-28 3126,-56 3126,-56 3126,-62 3120,-68 3114,-68"/>
<text text-anchor="start" x="2984.662" y="-54" font-family="arial" font-weight="bold" font-size="10.00" fill="#000000">Some BCL as CAM</text>
<text text-anchor="start" x="2940.482" y="-37" font-family="arial" font-size="10.00" fill="#000000">Some part of the black Culm Limestone</text>
<text text-anchor="start" x="2959.3785" y="-25" font-family="arial" font-size="10.00" fill="#000000"> is CAM in age #pri #chron&#45;hyp</text>
</g>
<!-- n19 -->
<g id="node19" class="node">
<title>n19</title>
<path fill="#ffffff" stroke="#f5f5dc" stroke-width="2" d="M3221,-376C3221,-376 3049,-376 3049,-376 3043,-376 3037,-370 3037,-364 3037,-364 3037,-324 3037,-324 3037,-318 3043,-312 3049,-312 3049,-312 3221,-312 3221,-312 3227,-312 3233,-318 3233,-324 3233,-324 3233,-364 3233,-364 3233,-370 3227,-376 3221,-376"/>
<text text-anchor="start" x="3057.219" y="-362" font-family="arial" font-weight="bold" font-size="10.00" fill="#000000">BCL as Post&#45;Primary and Pre&#45;NRS</text>
<text text-anchor="start" x="3047.207" y="-345" font-family="arial" font-size="10.00" fill="#000000">The black Culm Limestone is older than</text>
<text text-anchor="start" x="3050.8165" y="-333" font-family="arial" font-size="10.00" fill="#000000"> Primary strata and younger than New</text>
<text text-anchor="start" x="3049.1415" y="-321" font-family="arial" font-size="10.00" fill="#000000"> Red Sandstone strata #pri #chron&#45;hyp</text>
</g>
<!-- n19&#45;&gt;n28 -->
<g id="edge20" class="edge">
<title>n19&#45;&gt;n28</title>
<path fill="none" stroke="#00ff00" d="M3114.3693,-311.9935C3098.3541,-287.1475 3075.9229,-252.3477 3057.9341,-224.4399"/>
<polygon fill="#00ff00" stroke="#00ff00" points="3060.8657,-222.5277 3052.506,-216.0187 3054.9821,-226.3202 3060.8657,-222.5277"/>
</g>
<!-- n28&#45;&gt;n18 -->
<g id="edge14" class="edge">
<title>n28&#45;&gt;n18</title>
<path fill="none" stroke="#00ff00" d="M3028,-139.7545C3028,-120.5306 3028,-97.3546 3028,-78.3946"/>
<polygon fill="#00ff00" stroke="#00ff00" points="3031.5001,-78.3468 3028,-68.3469 3024.5001,-78.3469 3031.5001,-78.3468"/>
</g>
<!-- n20 -->
<g id="node21" class="node">
<title>n20</title>
<path fill="#ffffff" stroke="#f5f5dc" stroke-width="2" d="M4083,-370C4083,-370 3911,-370 3911,-370 3905,-370 3899,-364 3899,-358 3899,-358 3899,-330 3899,-330 3899,-324 3905,-318 3911,-318 3911,-318 4083,-318 4083,-318 4089,-318 4095,-324 4095,-330 4095,-330 4095,-358 4095,-358 4095,-364 4089,-370 4083,-370"/>
<text text-anchor="start" x="3944.224" y="-356" font-family="arial" font-weight="bold" font-size="10.00" fill="#000000">Some Non&#45;Culm as CM</text>
<text text-anchor="start" x="3908.933" y="-339" font-family="arial" font-size="10.00" fill="#000000">Some part of the non&#45;Culm strata is CM</text>
<text text-anchor="start" x="3945.8755" y="-327" font-family="arial" font-size="10.00" fill="#000000"> in age #pri #chron&#45;hyp</text>
</g>
<!-- n29 -->
<g id="node27" class="node">
<title>n29</title>
<path fill="#f5f5dc" stroke="#000000" d="M4191,-214C4191,-214 4019,-214 4019,-214 4013,-214 4007,-208 4007,-202 4007,-202 4007,-154 4007,-154 4007,-148 4013,-142 4019,-142 4019,-142 4191,-142 4191,-142 4197,-142 4203,-148 4203,-154 4203,-154 4203,-202 4203,-202 4203,-208 4197,-214 4191,-214"/>
<text text-anchor="start" x="4031.365" y="-200" font-family="arial" font-weight="bold" font-size="10.00" fill="#000000">Standard Sequence as Partition &#45;</text>
<text text-anchor="start" x="4081.1145" y="-190" font-family="arial" font-weight="bold" font-size="10.00" fill="#000000"> Non&#45;Culm</text>
<text text-anchor="start" x="4022.7625" y="-175" font-family="arial" font-size="10.00" fill="#000000">If some part of the non&#45;Culm strata is</text>
<text text-anchor="start" x="4016.9245" y="-163" font-family="arial" font-size="10.00" fill="#000000"> neiter CM, ML, OR nor SIL in age, then</text>
<text text-anchor="start" x="4032.49" y="-151" font-family="arial" font-size="10.00" fill="#000000"> it is CAM in age #pri #chron&#45;hyp</text>
</g>
<!-- n20&#45;&gt;n29 -->
<g id="edge9" class="edge">
<title>n20&#45;&gt;n29</title>
<path fill="none" stroke="#ff0000" d="M4014.1129,-317.6968C4030.6782,-292.2354 4056.1146,-253.1386 4075.8695,-222.7746"/>
<polygon fill="#ff0000" stroke="#ff0000" points="4079.0199,-224.3503 4081.5396,-214.0595 4073.1524,-220.5329 4079.0199,-224.3503"/>
</g>
<!-- n21 -->
<g id="node22" class="node">
<title>n21</title>
<path fill="#ffffff" stroke="#f5f5dc" stroke-width="2" d="M3869,-370C3869,-370 3697,-370 3697,-370 3691,-370 3685,-364 3685,-358 3685,-358 3685,-330 3685,-330 3685,-324 3691,-318 3697,-318 3697,-318 3869,-318 3869,-318 3875,-318 3881,-324 3881,-330 3881,-330 3881,-358 3881,-358 3881,-364 3875,-370 3869,-370"/>
<text text-anchor="start" x="3731.054" y="-356" font-family="arial" font-weight="bold" font-size="10.00" fill="#000000">Some Non&#45;Culm as ML</text>
<text text-anchor="start" x="3695.763" y="-339" font-family="arial" font-size="10.00" fill="#000000">Some part of the non&#45;Culm strata is ML</text>
<text text-anchor="start" x="3731.8755" y="-327" font-family="arial" font-size="10.00" fill="#000000"> in age #pri #chron&#45;hyp</text>
</g>
<!-- n21&#45;&gt;n29 -->
<g id="edge10" class="edge">
<title>n21&#45;&gt;n29</title>
<path fill="none" stroke="#ff0000" d="M3832.4927,-317.9756C3850.5703,-308.5021 3871.1926,-297.7325 3890,-288 3934.6589,-264.8898 3984.6605,-239.2911 4025.1977,-218.6075"/>
<polygon fill="#ff0000" stroke="#ff0000" points="4026.9087,-221.6638 4034.2264,-214.0021 4023.728,-215.4282 4026.9087,-221.6638"/>
</g>
<!-- n22 -->
<g id="node23" class="node">
<title>n22</title>
<path fill="#ffffff" stroke="#f5f5dc" stroke-width="2" d="M4737,-370C4737,-370 4559,-370 4559,-370 4553,-370 4547,-364 4547,-358 4547,-358 4547,-330 4547,-330 4547,-324 4553,-318 4559,-318 4559,-318 4737,-318 4737,-318 4743,-318 4749,-324 4749,-330 4749,-330 4749,-358 4749,-358 4749,-364 4743,-370 4737,-370"/>
<text text-anchor="start" x="4592.1645" y="-356" font-family="arial" font-weight="bold" font-size="10.00" fill="#000000">Some Non&#45;Culm as ORS</text>
<text text-anchor="start" x="4556.8735" y="-339" font-family="arial" font-size="10.00" fill="#000000">Some part of the non&#45;Culm strata is ORS</text>
<text text-anchor="start" x="4596.8755" y="-327" font-family="arial" font-size="10.00" fill="#000000"> in age #pri #chron&#45;hyp</text>
</g>
<!-- n22&#45;&gt;n29 -->
<g id="edge11" class="edge">
<title>n22&#45;&gt;n29</title>
<path fill="none" stroke="#ff0000" d="M4602.4696,-317.9473C4583.0493,-307.598 4559.8622,-296.2249 4538,-288 4430.2447,-247.4607 4301.8742,-216.9511 4213.0221,-198.4694"/>
<polygon fill="#ff0000" stroke="#ff0000" points="4213.7005,-195.0358 4203.1993,-196.4418 4212.2853,-201.8912 4213.7005,-195.0358"/>
</g>
<!-- n23 -->
<g id="node24" class="node">
<title>n23</title>
<path fill="#ffffff" stroke="#f5f5dc" stroke-width="2" d="M4517,-370C4517,-370 4345,-370 4345,-370 4339,-370 4333,-364 4333,-358 4333,-358 4333,-330 4333,-330 4333,-324 4339,-318 4345,-318 4345,-318 4517,-318 4517,-318 4523,-318 4529,-324 4529,-330 4529,-330 4529,-358 4529,-358 4529,-364 4523,-370 4517,-370"/>
<text text-anchor="start" x="4378.4945" y="-356" font-family="arial" font-weight="bold" font-size="10.00" fill="#000000">Some Non&#45;Culm as SIL</text>
<text text-anchor="start" x="4343.2035" y="-339" font-family="arial" font-size="10.00" fill="#000000">Some part of the non&#45;Culm strata is SIL</text>
<text text-anchor="start" x="4379.8755" y="-327" font-family="arial" font-size="10.00" fill="#000000"> in age #pri #chron&#45;hyp</text>
</g>
<!-- n23&#45;&gt;n29 -->
<g id="edge12" class="edge">
<title>n23&#45;&gt;n29</title>
<path fill="none" stroke="#ff0000" d="M4381.5469,-317.8986C4363.4733,-308.4174 4342.8434,-297.6625 4324,-288 4278.7705,-264.8073 4228.0626,-239.3059 4186.8392,-218.7013"/>
<polygon fill="#ff0000" stroke="#ff0000" points="4188.1652,-215.4514 4177.6552,-214.1135 4185.037,-221.7135 4188.1652,-215.4514"/>
</g>
<!-- n24 -->
<g id="node25" class="node">
<title>n24</title>
<path fill="#ffffff" stroke="#f5f5dc" stroke-width="2" d="M4194,-68C4194,-68 4016,-68 4016,-68 4010,-68 4004,-62 4004,-56 4004,-56 4004,-28 4004,-28 4004,-22 4010,-16 4016,-16 4016,-16 4194,-16 4194,-16 4200,-16 4206,-22 4206,-28 4206,-28 4206,-56 4206,-56 4206,-62 4200,-68 4194,-68"/>
<text text-anchor="start" x="4048.8895" y="-54" font-family="arial" font-weight="bold" font-size="10.00" fill="#000000">Some Non&#45;Culm as CAM</text>
<text text-anchor="start" x="4013.5985" y="-37" font-family="arial" font-size="10.00" fill="#000000">Some part of the non&#45;Culm strata is CAM</text>
<text text-anchor="start" x="4053.8755" y="-25" font-family="arial" font-size="10.00" fill="#000000"> in age #pri #chron&#45;hyp</text>
</g>
<!-- n25 -->
<g id="node26" class="node">
<title>n25</title>
<path fill="#ffffff" stroke="#f5f5dc" stroke-width="2" d="M4302.5,-376C4302.5,-376 4125.5,-376 4125.5,-376 4119.5,-376 4113.5,-370 4113.5,-364 4113.5,-364 4113.5,-324 4113.5,-324 4113.5,-318 4119.5,-312 4125.5,-312 4125.5,-312 4302.5,-312 4302.5,-312 4308.5,-312 4314.5,-318 4314.5,-324 4314.5,-324 4314.5,-364 4314.5,-364 4314.5,-370 4308.5,-376 4302.5,-376"/>
<text text-anchor="start" x="4123.9465" y="-362" font-family="arial" font-weight="bold" font-size="10.00" fill="#000000">Non&#45;Culm as Post&#45;Primary and Pre&#45;NRS</text>
<text text-anchor="start" x="4136.7065" y="-345" font-family="arial" font-size="10.00" fill="#000000">The non&#45;Culm strata are older than</text>
<text text-anchor="start" x="4130.3165" y="-333" font-family="arial" font-size="10.00" fill="#000000"> Primary strata and younger than New</text>
<text text-anchor="start" x="4128.6415" y="-321" font-family="arial" font-size="10.00" fill="#000000"> Red Sandstone strata #pri #chron&#45;hyp</text>
</g>
<!-- n25&#45;&gt;n29 -->
<g id="edge21" class="edge">
<title>n25&#45;&gt;n29</title>
<path fill="none" stroke="#00ff00" d="M4192.9837,-311.9935C4176.3327,-286.6352 4152.8736,-250.9085 4134.366,-222.7225"/>
<polygon fill="#00ff00" stroke="#00ff00" points="4137.2087,-220.6751 4128.7942,-214.2371 4131.3574,-224.5172 4137.2087,-220.6751"/>
</g>
<!-- n29&#45;&gt;n24 -->
<g id="edge15" class="edge">
<title>n29&#45;&gt;n24</title>
<path fill="none" stroke="#00ff00" d="M4105,-141.9116C4105,-122.3005 4105,-98.1097 4105,-78.4438"/>
<polygon fill="#00ff00" stroke="#00ff00" points="4108.5001,-78.3317 4105,-68.3317 4101.5001,-78.3318 4108.5001,-78.3317"/>
</g>
<!-- n26 -->
<g id="node28" class="node">
<title>n26</title>
<path fill="#ffffff" stroke="#f5f5dc" stroke-width="2" d="M4957,-382C4957,-382 4785,-382 4785,-382 4779,-382 4773,-376 4773,-370 4773,-370 4773,-318 4773,-318 4773,-312 4779,-306 4785,-306 4785,-306 4957,-306 4957,-306 4963,-306 4969,-312 4969,-318 4969,-318 4969,-370 4969,-370 4969,-376 4963,-382 4957,-382"/>
<text text-anchor="start" x="4807.918" y="-368" font-family="arial" font-weight="bold" font-size="10.00" fill="#000000">Gap in a Sequence of Strata</text>
<text text-anchor="start" x="4789.3065" y="-351" font-family="arial" font-size="10.00" fill="#000000">There is a gap in a local sequence of</text>
<text text-anchor="start" x="4815.1535" y="-339" font-family="arial" font-size="10.00" fill="#000000"> strata, iff there are strata</text>
<text text-anchor="start" x="4789.023" y="-327" font-family="arial" font-size="10.00" fill="#000000"> juxtaposed belonging to different but</text>
<text text-anchor="start" x="4785.4255" y="-315" font-family="arial" font-size="10.00" fill="#000000"> not successive geological periods #pri</text>
</g>
<!-- n0 -->
<g id="node29" class="node">
<title>n0</title>
<path fill="#ffffff" stroke="#f5f5dc" stroke-width="2" d="M2579,-400C2579,-400 2407,-400 2407,-400 2401,-400 2395,-394 2395,-388 2395,-388 2395,-300 2395,-300 2395,-294 2401,-288 2407,-288 2407,-288 2579,-288 2579,-288 2585,-288 2591,-294 2591,-300 2591,-300 2591,-388 2591,-388 2591,-394 2585,-400 2579,-400"/>
<text text-anchor="start" x="2448.813" y="-386" font-family="arial" font-weight="bold" font-size="10.00" fill="#000000">Standard Sequence</text>
<text text-anchor="start" x="2411.862" y="-369" font-family="arial" font-size="10.00" fill="#000000">Given the strata are undisturbed, the</text>
<text text-anchor="start" x="2426.3285" y="-357" font-family="arial" font-size="10.00" fill="#000000"> Primary strata are overlain by</text>
<text text-anchor="start" x="2412.158" y="-345" font-family="arial" font-size="10.00" fill="#000000"> Cambrian strata, Silurian strata, Old</text>
<text text-anchor="start" x="2419.9195" y="-333" font-family="arial" font-size="10.00" fill="#000000"> Red Sandstone strata, Mountain</text>
<text text-anchor="start" x="2418.264" y="-321" font-family="arial" font-size="10.00" fill="#000000"> Limestone strata, Coal Measures</text>
<text text-anchor="start" x="2406.862" y="-309" font-family="arial" font-size="10.00" fill="#000000"> strata, New Red Sandstone strata and</text>
<text text-anchor="start" x="2426.6035" y="-297" font-family="arial" font-size="10.00" fill="#000000"> Oolitic stata, respectively #pri</text>
</g>
<!-- n0&#45;&gt;n27 -->
<g id="edge16" class="edge">
<title>n0&#45;&gt;n27</title>
<path fill="none" stroke="#00ff00" d="M2394.7572,-290.3111C2392.8312,-289.5156 2390.9109,-288.7442 2389,-288 2281.8932,-246.2895 2153.6897,-216.0083 2064.707,-197.9014"/>
<polygon fill="#00ff00" stroke="#00ff00" points="2065.3631,-194.4634 2054.8684,-195.9165 2063.9786,-201.3251 2065.3631,-194.4634"/>
</g>
<!-- n0&#45;&gt;n28 -->
<g id="edge17" class="edge">
<title>n0&#45;&gt;n28</title>
<path fill="none" stroke="#00ff00" d="M2591.2439,-290.3141C2593.1696,-289.5177 2595.0895,-288.7452 2597,-288 2703.5111,-246.4536 2830.9708,-216.1724 2919.5295,-198.0215"/>
<polygon fill="#00ff00" stroke="#00ff00" points="2920.489,-201.3982 2929.5918,-195.977 2919.0951,-194.5383 2920.489,-201.3982"/>
</g>
<!-- n0&#45;&gt;n29 -->
<g id="edge18" class="edge">
<title>n0&#45;&gt;n29</title>
<path fill="none" stroke="#00ff00" d="M2591.0774,-289.8216C2593.0541,-289.176 2595.0294,-288.5675 2597,-288 2827.2879,-221.6854 3434.0693,-234.5004 3673,-216 3783.2947,-207.4599 3909.2922,-196.2049 3996.6334,-188.1648"/>
<polygon fill="#00ff00" stroke="#00ff00" points="3997.1864,-191.6288 4006.8228,-187.2253 3996.5436,-184.6584 3997.1864,-191.6288"/>
</g>
<!-- n1 -->
<g id="node30" class="node">
<title>n1</title>
<path fill="#ffffff" stroke="#f5f5dc" stroke-width="2" d="M5175,-382C5175,-382 4999,-382 4999,-382 4993,-382 4987,-376 4987,-370 4987,-370 4987,-318 4987,-318 4987,-312 4993,-306 4999,-306 4999,-306 5175,-306 5175,-306 5181,-306 5187,-312 5187,-318 5187,-318 5187,-370 5187,-370 5187,-376 5181,-382 5175,-382"/>
<text text-anchor="start" x="5045.049" y="-368" font-family="arial" font-weight="bold" font-size="10.00" fill="#000000">Formation of strata</text>
<text text-anchor="start" x="5015.606" y="-351" font-family="arial" font-size="10.00" fill="#000000">Strata are originally formed from</text>
<text text-anchor="start" x="5004.4775" y="-339" font-family="arial" font-size="10.00" fill="#000000"> sediments that were deposited in flat</text>
<text text-anchor="start" x="5016.979" y="-327" font-family="arial" font-size="10.00" fill="#000000"> horizontal sheets &#45; the younger</text>
<text text-anchor="start" x="4996.973" y="-315" font-family="arial" font-size="10.00" fill="#000000"> sediments deposited on older ones. #pri</text>
</g>
</g>
</svg>
